# This file uses centimeters as units for non-parametric coordinates.

v -115.421898 -29.711487 -47.822784
v -47.802193 408.748138 -115.424255
v 43.261147 425.703674 104.461716
v 43.176422 425.945068 -104.320518
v 47.813374 -28.415710 115.426598
v -115.426018 408.736511 -47.811020
v -84.139984 425.706085 63.614662
v 115.513092 368.544769 7.575863
v 91.276917 422.635071 -45.939999
v -115.426018 372.821747 47.801605
v 95.796783 393.655273 -54.636120
v 109.845314 417.144135 7.373464
v -115.510155 408.563660 24.648033
v 109.955338 377.754395 -39.286701
v -104.294037 425.969879 26.662617
v -47.782188 -28.334900 115.426598
v 115.427185 -29.850159 -47.794544
v -47.795132 408.746399 115.421890
v 115.497795 408.623779 12.360497
v -73.211578 412.543701 78.491028
v 102.161781 434.302673 -26.949739
v -43.292915 425.699158 104.459366
v 104.451721 425.727142 43.249969
v -43.142296 427.786774 -104.228729
v -104.212257 426.134277 -43.169949
v 115.427185 371.892395 -47.811020
v -115.513092 -28.518738 46.575439
v 47.815727 408.721497 -115.431313
v -48.220524 -29.850403 -115.139481
v 47.813374 -28.419556 -115.431313
v -104.754143 392.322571 41.284809
v 86.213982 391.382507 -77.147194
v 76.586472 422.635071 -73.946457
v 115.430717 -29.850586 47.771011
v 115.427185 408.612671 47.815727
v 47.863384 408.693665 115.431305
v -73.381035 383.123474 89.966614
v 38.638790 428.468811 -93.329384
v -38.591663 428.468903 -93.247299
v 68.531166 428.468811 -66.153412
v 81.674881 428.468811 -41.095661
v 91.413689 428.468933 -24.104837
v 93.462570 428.468811 38.703701
v 38.714573 428.468811 93.470581
v -38.726414 428.468903 93.468521
v -75.272774 428.468811 56.924278
v -93.304886 428.468811 23.862806
v -93.231712 428.468811 -38.617233
v 37.436497 443.884338 -90.417183
v -37.385921 443.884399 -90.337662
v 66.396828 438.088043 -64.088554
v 79.130722 443.884338 -39.812103
v 88.565880 443.884399 -23.351049
v 90.550873 443.884338 37.499126
v 37.509914 443.884338 90.558388
v -37.516472 443.884399 90.556389
v -72.923317 443.884338 55.151588
v -90.393196 438.142456 23.120970
v -90.322296 443.884338 -37.410950
v -4.162858 443.884369 -1.583055
v 33.448284 443.884338 -55.475109
v 60.072716 439.366272 -23.481169
v 36.791252 448.731720 45.949249
v -45.565697 443.884338 30.738482
v -39.096771 448.731812 -39.625103
vt 0.043350 0.954953
vt 0.043352 0.775330
vt 0.071154 0.774740
vt 0.071136 0.954920
vt 0.073012 0.961953
vt 0.110425 0.774740
vt 0.087755 0.958426
vt 0.087672 0.938455
vt 0.085706 0.954924
vt 0.101860 0.965477
vt 0.110432 0.939830
vt 0.106929 0.942239
vt 0.122487 0.947839
vt 0.113237 0.948773
vt 0.138220 0.775328
vt 0.109663 0.960682
vt 0.121172 0.960682
vt 0.138220 0.954965
vt 0.068852 0.956293
vt 0.068778 0.776120
vt 0.098628 0.956211
vt 0.107570 0.776595
vt 0.099458 0.963363
vt 0.108137 0.941519
vt 0.070762 0.963442
vt 0.125465 0.945746
vt 0.045671 0.964130
vt 0.120754 0.957838
vt 0.135863 0.776660
vt 0.135930 0.956271
vt 0.105462 0.949534
vt 0.114643 0.963249
vt 0.078601 0.960346
vt 0.076160 0.780127
vt 0.103821 0.779792
vt 0.087618 0.837311
vt 0.091570 0.838160
vt 0.093952 0.848136
vt 0.087618 0.847608
vt 0.093952 0.854900
vt 0.087618 0.854590
vt 0.093952 0.879905
vt 0.087618 0.880400
vt 0.093952 0.901709
vt 0.087618 0.902906
vt 0.087618 0.850478
vt 0.093952 0.851206
vt 0.091593 0.864369
vt 0.087618 0.864064
vt 0.093952 0.889243
vt 0.087618 0.889739
vt 0.043353 0.889777
vt 0.138210 0.850474
vt 0.138221 0.889781
vt 0.110440 0.822706
vt 0.070756 0.917233
vt 0.043319 0.850689
vt 0.110443 0.917559
vt 0.071139 0.822700
vt 0.073055 0.912984
vt 0.074922 0.908470
vt 0.106658 0.908480
vt 0.108527 0.912995
vt 0.047940 0.887913
vt 0.052451 0.886038
vt 0.118934 0.897303
vt 0.122246 0.900503
vt 0.047885 0.859216
vt 0.052401 0.860363
vt 0.124327 0.887002
vt 0.128274 0.888989
vt 0.056155 0.844025
vt 0.059801 0.846771
vt 0.128324 0.880017
vt 0.132741 0.881182
vt 0.072928 0.827227
vt 0.074807 0.831742
vt 0.129146 0.854206
vt 0.133660 0.852334
vt 0.108496 0.827199
vt 0.106631 0.831717
vt 0.074697 0.886435
vt 0.089041 0.870791
vt 0.104513 0.892926
vt 0.072017 0.857522
vt 0.115444 0.879770
vt 0.075416 0.907274
vt 0.106163 0.907283
vt 0.105855 0.851246
vt 0.053646 0.885541
vt 0.053598 0.860667
vt 0.123281 0.886475
vt 0.118056 0.896455
vt 0.075305 0.832939
vt 0.106136 0.832914
vt 0.060767 0.847499
vt 0.127950 0.854702
vt 0.127153 0.879707
vt 0.077143 0.783903
vt 0.079058 0.776079
vt 0.114530 0.776836
vt 0.049355 0.783907
vt 0.116436 0.783914
vt 0.049356 0.964081
vt 0.128259 0.778196
vt 0.076972 0.964138
vt 0.116435 0.963550
vt 0.132215 0.791039
vt 0.129534 0.963420
vt 0.104389 0.963410
vt 0.106280 0.956420
vt 0.066971 0.956442
vt 0.068821 0.963408
vt 0.066976 0.776830
vt 0.052036 0.963411
vt 0.106260 0.776797
vt 0.056457 0.945913
vt 0.092942 0.867231
vt 0.092946 0.881059
vt 0.088433 0.873845
vt 0.088665 0.859159
vt 0.093952 0.880892
vt 0.087618 0.880396
vt 0.087618 0.849649
vt 0.093952 0.849155
vt 0.093952 0.903346
vt 0.087618 0.902150
vt 0.089999 0.837749
vt 0.093952 0.836872
vt 0.087618 0.846688
vt 0.093952 0.847183
vt 0.093952 0.878014
vt 0.087618 0.878511
vt 0.093952 0.892564
vt 0.087618 0.893529
vn -0.006637 -0.999872 0.014573
vn -0.006637 -0.999872 0.014573
vn -0.006637 -0.999872 0.014573
vn -0.000601 -1.000000 -0.000004
vn -0.000601 -1.000000 -0.000004
vn -0.000601 -1.000000 -0.000004
vn -0.004693 -0.999909 0.012630
vn -0.004693 -0.999909 0.012630
vn -0.004693 -0.999909 0.012630
vn 0.707306 -0.000089 0.706908
vn 0.707306 -0.000089 0.706908
vn 0.707306 -0.000089 0.706908
vn 0.009859 0.505079 -0.863017
vn 0.009859 0.505079 -0.863017
vn 0.009859 0.505079 -0.863017
vn -0.609302 0.507434 -0.609312
vn -0.609302 0.507434 -0.609312
vn -0.609302 0.507434 -0.609312
vn 0.999996 -0.000595 0.002727
vn 0.999996 -0.000595 0.002727
vn 0.999996 -0.000595 0.002727
vn 0.593593 0.543407 0.593596
vn 0.593593 0.543407 0.593596
vn 0.593593 0.543407 0.593596
vn 0.000216 0.542008 0.840373
vn 0.000216 0.542008 0.840373
vn 0.000216 0.542008 0.840373
vn 0.000089 0.542101 -0.840313
vn 0.000089 0.542101 -0.840313
vn 0.000089 0.542101 -0.840313
vn -0.707051 0.000012 -0.707162
vn -0.707051 0.000012 -0.707162
vn -0.707051 0.000012 -0.707162
vn -0.705288 -0.000013 0.708921
vn -0.705288 -0.000013 0.708921
vn -0.705288 -0.000013 0.708921
vn -0.999999 -0.000009 -0.001161
vn -0.999999 -0.000009 -0.001161
vn -0.999999 -0.000009 -0.001161
vn -0.000845 -0.999994 0.003502
vn -0.000845 -0.999994 0.003502
vn -0.000845 -0.999994 0.003502
vn 0.000000 -0.000011 1.000000
vn 0.000000 -0.000011 1.000000
vn 0.000000 -0.000011 1.000000
vn -0.712881 -0.000958 0.701284
vn -0.712881 -0.000958 0.701284
vn -0.712881 -0.000958 0.701284
vn -1.000000 -0.000042 -0.000966
vn -1.000000 -0.000042 -0.000966
vn -1.000000 -0.000042 -0.000966
vn 0.891881 0.451518 0.026063
vn 0.891881 0.451518 0.026063
vn 0.891881 0.451518 0.026063
vn 0.595491 0.540457 0.594388
vn 0.595491 0.540457 0.594388
vn 0.595491 0.540457 0.594388
vn 0.879486 0.257311 -0.400369
vn 0.879486 0.257311 -0.400369
vn 0.879486 0.257311 -0.400369
vn 0.976902 0.164416 -0.136494
vn 0.976902 0.164416 -0.136494
vn 0.976902 0.164416 -0.136494
vn -0.600766 0.543591 -0.586164
vn -0.600766 0.543591 -0.586164
vn -0.600766 0.543591 -0.586164
vn -0.840565 0.541710 0.000291
vn -0.840565 0.541710 0.000291
vn -0.840565 0.541710 0.000291
vn -0.594141 0.542072 0.594268
vn -0.594141 0.542072 0.594268
vn -0.594141 0.542072 0.594268
vn -0.000051 0.543018 0.839721
vn -0.000051 0.543018 0.839721
vn -0.000051 0.543018 0.839721
vn -0.999992 0.000205 0.003950
vn -0.999992 0.000205 0.003950
vn -0.999992 0.000205 0.003950
vn -0.003039 0.000000 -0.999995
vn -0.003039 0.000000 -0.999995
vn -0.003039 0.000000 -0.999995
vn 0.707224 -0.000218 -0.706989
vn 0.707224 -0.000218 -0.706989
vn 0.707224 -0.000218 -0.706989
vn 0.706053 -0.000004 -0.708159
vn 0.706053 -0.000004 -0.708159
vn 0.706053 -0.000004 -0.708159
vn 0.593693 0.543011 -0.593858
vn 0.593693 0.543011 -0.593858
vn 0.593693 0.543011 -0.593858
vn 0.988851 0.114928 -0.094689
vn 0.988851 0.114928 -0.094689
vn 0.988851 0.114928 -0.094689
vn 0.842069 0.539364 -0.002441
vn 0.842069 0.539364 -0.002441
vn 0.842069 0.539364 -0.002441
vn -0.707868 -0.002004 0.706342
vn -0.707868 -0.002004 0.706342
vn -0.707868 -0.002004 0.706342
vn -0.856651 0.215426 0.468765
vn -0.856651 0.215426 0.468765
vn -0.856651 0.215426 0.468765
vn 0.738205 0.289795 -0.609157
vn 0.738205 0.289795 -0.609157
vn 0.738205 0.289795 -0.609157
vn 0.843342 0.305101 -0.442365
vn 0.843342 0.305101 -0.442365
vn 0.843343 0.305101 -0.442365
vn -0.791426 0.226080 0.567919
vn -0.791426 0.226080 0.567919
vn -0.791426 0.226080 0.567919
vn 0.999999 -0.000000 -0.001551
vn 0.999999 -0.000000 -0.001551
vn 0.999999 -0.000000 -0.001551
vn -0.840615 0.541633 0.000316
vn -0.840615 0.541633 0.000316
vn -0.840615 0.541633 0.000316
vn 0.738323 0.296877 -0.605594
vn 0.738323 0.296877 -0.605594
vn 0.738323 0.296877 -0.605594
vn -0.623133 0.318874 0.714160
vn -0.623133 0.318874 0.714160
vn -0.623133 0.318874 0.714160
vn -0.714953 0.257644 0.649971
vn -0.714953 0.257644 0.649971
vn -0.714953 0.257644 0.649971
vn -0.764495 0.537364 0.356071
vn -0.764495 0.537364 0.356071
vn -0.764495 0.537364 0.356071
vn -0.432152 0.489582 0.757333
vn -0.432152 0.489583 0.757333
vn -0.432152 0.489583 0.757334
vn -0.825120 -0.048959 0.562832
vn -0.825120 -0.048959 0.562832
vn -0.825120 -0.048959 0.562832
vn 0.821750 0.227262 -0.522569
vn 0.821750 0.227262 -0.522569
vn 0.821750 0.227263 -0.522569
vn 0.744155 0.554339 -0.372748
vn 0.744155 0.554339 -0.372748
vn 0.744155 0.554339 -0.372748
vn 0.708581 -0.000029 -0.705630
vn 0.708581 -0.000029 -0.705630
vn 0.708581 -0.000029 -0.705630
vn -0.777593 0.061609 0.625742
vn -0.777593 0.061609 0.625742
vn -0.777593 0.061609 0.625742
vn -0.000601 -0.999999 0.001464
vn -0.000601 -0.999999 0.001464
vn -0.000601 -0.999999 0.001464
vn -0.707713 0.000216 -0.706501
vn -0.707713 0.000216 -0.706501
vn -0.707712 0.000216 -0.706501
vn 0.740429 0.672005 0.013162
vn 0.740429 0.672005 0.013162
vn 0.740429 0.672005 0.013162
vn 0.014779 -0.999246 -0.035909
vn 0.014779 -0.999246 -0.035909
vn 0.014779 -0.999246 -0.035909
vn 0.832805 0.553564 0.001832
vn 0.832805 0.553564 0.001832
vn 0.832805 0.553564 0.001832
vn 0.707378 -0.000066 0.706836
vn 0.707378 -0.000066 0.706836
vn 0.707378 -0.000066 0.706836
vn 0.999998 0.000144 0.001992
vn 0.999998 0.000144 0.001992
vn 0.999998 0.000144 0.001992
vn 0.757592 0.651610 0.038209
vn 0.757592 0.651610 0.038209
vn 0.757592 0.651610 0.038209
vn 1.000000 0.000008 -0.000037
vn 1.000000 0.000008 -0.000037
vn 1.000000 0.000008 -0.000037
vn -0.000098 0.000011 1.000000
vn -0.000098 0.000011 1.000000
vn -0.000098 0.000011 1.000000
vn -0.000074 -0.000649 -1.000000
vn -0.000074 -0.000649 -1.000000
vn -0.000074 -0.000649 -1.000000
vn 0.725866 0.081808 -0.682954
vn 0.725866 0.081808 -0.682954
vn 0.725866 0.081808 -0.682954
vn 0.010989 0.989462 -0.144373
vn 0.010989 0.989462 -0.144373
vn 0.010989 0.989462 -0.144373
vn 0.010989 0.989462 -0.144373
vn 0.265181 0.934377 -0.237949
vn 0.265181 0.934377 -0.237949
vn 0.265181 0.934377 -0.237949
vn 0.265181 0.934377 -0.237949
vn 0.422281 0.878986 -0.221502
vn 0.422281 0.878986 -0.221502
vn 0.422281 0.878986 -0.221502
vn 0.422281 0.878986 -0.221502
vn -0.096858 0.961721 -0.256343
vn -0.096858 0.961721 -0.256343
vn -0.096858 0.961721 -0.256343
vn -0.096858 0.961721 -0.256343
vn -0.145745 0.986956 0.068389
vn -0.145745 0.986956 0.068389
vn -0.145745 0.986956 0.068389
vn -0.145745 0.986956 0.068389
vn 0.171836 0.969999 0.171972
vn 0.171836 0.969999 0.171972
vn 0.171836 0.969999 0.171972
vn 0.171836 0.969999 0.171972
vn -0.000033 0.969733 0.244169
vn -0.000033 0.969733 0.244169
vn -0.000033 0.969733 0.244169
vn -0.000033 0.969733 0.244169
vn -0.172385 0.969811 0.172480
vn -0.172385 0.969811 0.172480
vn -0.172385 0.969811 0.172480
vn -0.172385 0.969811 0.172480
vn -0.203018 0.972470 0.114392
vn -0.203018 0.972470 0.114392
vn -0.203018 0.972470 0.114392
vn -0.203018 0.972470 0.114392
vn -0.214940 0.976627 0.000962
vn -0.214940 0.976627 0.000962
vn -0.214940 0.976627 0.000962
vn -0.214940 0.976627 0.000962
vn -0.103266 0.990652 -0.089136
vn -0.103266 0.990652 -0.089136
vn -0.103266 0.990652 -0.089136
vn -0.103266 0.990652 -0.089136
vn -0.001044 0.185551 -0.982634
vn -0.001044 0.185551 -0.982634
vn -0.001044 0.185551 -0.982634
vn -0.001044 0.185551 -0.982634
vn 0.666979 0.229799 -0.708753
vn 0.666979 0.229799 -0.708753
vn 0.666979 0.229799 -0.708753
vn 0.666979 0.229799 -0.708753
vn 0.852349 0.222583 -0.473241
vn 0.852349 0.222583 -0.473241
vn 0.852350 0.222583 -0.473241
vn 0.852349 0.222583 -0.473241
vn 0.853173 0.181525 -0.489024
vn 0.853173 0.181525 -0.489024
vn 0.853173 0.181525 -0.489024
vn 0.853173 0.181525 -0.489024
vn 0.982575 0.183085 -0.032052
vn 0.982574 0.183085 -0.032052
vn 0.982574 0.183085 -0.032052
vn 0.982575 0.183085 -0.032052
vn 0.694948 0.185547 0.694709
vn 0.694948 0.185547 0.694709
vn 0.694948 0.185547 0.694709
vn 0.694948 0.185547 0.694709
vn -0.000026 0.185628 0.982620
vn -0.000026 0.185628 0.982620
vn -0.000026 0.185628 0.982620
vn -0.000026 0.185628 0.982620
vn -0.694776 0.185789 0.694816
vn -0.694776 0.185789 0.694816
vn -0.694776 0.185789 0.694816
vn -0.694776 0.185789 0.694816
vn -0.863398 0.226249 0.450949
vn -0.863398 0.226249 0.450949
vn -0.863398 0.226249 0.450949
vn -0.863398 0.226249 0.450949
vn -0.974120 0.225837 0.009401
vn -0.974120 0.225837 0.009401
vn -0.974120 0.225837 0.009401
vn -0.974120 0.225837 0.009401
vn -0.694771 0.185503 -0.694897
vn -0.694771 0.185503 -0.694897
vn -0.694771 0.185503 -0.694897
vn -0.694771 0.185503 -0.694897
vn 0.078480 0.995410 0.054772
vn 0.078480 0.995410 0.054771
vn 0.078480 0.995410 0.054771
vn 0.091715 0.993726 0.064008
vn 0.091715 0.993726 0.064008
vn 0.091715 0.993726 0.064008
vn -0.047456 0.997022 -0.060791
vn -0.047456 0.997022 -0.060791
vn -0.047456 0.997022 -0.060791
vn 0.057683 0.995597 0.073892
vn 0.057683 0.995597 0.073892
vn 0.057683 0.995597 0.073892
vn 0.027270 0.991827 -0.124644
vn 0.027270 0.991827 -0.124644
vn 0.027270 0.991827 -0.124644
vn 0.178384 0.983750 0.020360
vn 0.178384 0.983750 0.020360
vn 0.178384 0.983750 0.020360
vn 0.010240 0.999502 -0.029866
vn 0.010240 0.999502 -0.029866
vn 0.010240 0.999501 -0.029866
vn 0.010240 0.999501 -0.029866
vn -0.156381 0.983621 0.089634
vn -0.156381 0.983621 0.089634
vn -0.156381 0.983621 0.089634
vn -0.003315 0.997382 -0.072240
vn -0.003315 0.997382 -0.072240
vn -0.003315 0.997382 -0.072240
vn -0.003315 0.997382 -0.072240
vn 0.105774 0.988752 0.105739
vn 0.105774 0.988752 0.105739
vn 0.105774 0.988752 0.105739
vn -0.035509 0.998152 0.049315
vn -0.035509 0.998152 0.049315
vn -0.035509 0.998152 0.049315
vn -0.035509 0.998152 0.049315
vn -0.000001 1.000000 -0.000001
vn -0.000001 1.000000 -0.000001
vn -0.000001 1.000000 -0.000001
vn -0.106221 0.987192 -0.119034
vn -0.106221 0.987192 -0.119034
vn -0.106221 0.987192 -0.119034
vn -0.113415 0.990752 0.074484
vn -0.113415 0.990752 0.074484
vn -0.113415 0.990752 0.074484
vn -0.113415 0.990752 0.074484
vn -0.097952 0.990357 -0.097969
vn -0.097952 0.990357 -0.097969
vn -0.097952 0.990357 -0.097969
vn 0.026921 0.998140 -0.054697
vn 0.026921 0.998140 -0.054697
vn 0.026921 0.998140 -0.054697
vn 0.026921 0.998140 -0.054697
s off
f 1/52/1 34/53/2 5/54/3
f 1/52/4 17/55/5 34/53/6
f 1/52/7 5/54/8 27/56/9
f 36/1/10 5/2/11 34/3/12
f 2/99/13 24/100/14 4/101/15
f 24/100/16 2/99/17 6/102/18
f 35/4/19 17/6/20 8/8/21
f 23/109/22 3/110/23 36/111/24
f 3/110/25 18/112/26 36/111/27
f 4/101/28 28/103/29 2/99/30
f 2/99/31 1/104/32 6/102/33
f 16/114/34 18/112/35 37/117/36
f 6/19/37 1/20/38 13/21/39
f 27/56/40 5/54/41 16/58/42
f 16/114/43 5/116/44 36/111/45
f 27/22/46 16/29/47 37/26/48
f 13/21/49 1/20/50 27/22/51
f 12/7/52 21/10/53 23/5/54
f 35/4/55 23/5/56 36/1/57
f 9/16/58 11/14/59 32/13/60
f 21/10/61 12/7/62 14/12/63
f 24/27/64 6/19/65 25/25/66
f 6/19/67 15/23/68 25/25/69
f 22/113/70 7/115/71 18/112/72
f 18/112/73 3/110/74 22/113/75
f 13/21/76 27/22/77 10/24/78
f 30/107/79 29/106/80 28/103/81
f 17/6/82 30/15/83 32/13/84
f 30/107/85 28/103/86 32/108/87
f 33/105/88 28/103/89 4/101/90
f 12/7/91 8/8/92 14/12/93
f 35/4/94 12/7/95 23/5/96
f 37/26/97 10/24/98 27/22/99
f 7/32/100 15/23/101 31/31/102
f 33/17/103 32/13/104 28/18/105
f 9/16/106 32/13/107 33/17/108
f 37/26/109 18/30/110 20/28/111
f 8/8/112 17/6/113 26/11/114
f 13/21/115 15/23/116 6/19/117
f 9/16/118 21/10/119 11/14/120
f 31/118/121 15/119/122 13/120/123
f 10/24/124 37/26/125 20/28/126
f 10/24/127 20/28/128 31/31/129
f 31/118/130 13/120/131 10/121/132
f 18/30/133 7/32/134 20/28/135
f 21/10/136 14/12/137 11/14/138
f 26/11/139 32/13/140 11/14/141
f 17/6/142 32/13/143 26/11/144
f 20/28/145 7/32/146 31/31/147
f 1/52/148 29/57/149 17/55/150
f 2/33/151 29/34/152 1/35/153
f 11/14/154 14/12/155 26/11/156
f 30/59/157 17/55/158 29/57/159
f 19/9/160 12/7/161 35/4/162
f 35/4/163 36/1/164 34/3/165
f 19/9/166 35/4/167 8/8/168
f 14/12/169 8/8/170 26/11/171
f 35/4/172 34/3/173 17/6/174
f 16/114/175 36/111/176 18/112/177
f 28/103/178 29/106/179 2/99/180
f 19/9/181 8/8/182 12/7/183
f 24/60/184 39/61/185 38/62/186 4/63/187
f 4/63/188 38/62/189 40/66/190 33/67/191
f 33/67/192 40/66/193 41/70/194 9/71/195
f 9/71/196 41/70/197 42/74/198 21/75/199
f 21/75/200 42/74/201 43/78/202 23/79/203
f 23/79/204 43/78/205 44/81/206 3/80/207
f 3/80/208 44/81/209 45/77/210 22/76/211
f 22/76/212 45/77/213 46/73/214 7/72/215
f 7/72/216 46/73/217 47/69/218 15/68/219
f 15/68/220 47/69/221 48/65/222 25/64/223
f 25/64/224 48/65/225 39/61/226 24/60/227
f 39/122/228 50/123/229 49/124/230 38/125/231
f 38/125/232 49/124/233 51/128/234 40/129/235
f 40/36/236 51/37/237 52/38/238 41/39/239
f 41/39/240 52/38/241 53/40/242 42/41/243
f 42/41/244 53/40/245 54/42/246 43/43/247
f 43/43/248 54/42/249 55/44/250 44/45/251
f 44/130/252 55/131/253 56/132/254 45/133/255
f 45/133/256 56/132/257 57/134/258 46/135/259
f 46/46/260 57/47/261 58/48/262 47/49/263
f 47/49/264 58/48/265 59/50/266 48/51/267
f 48/126/268 59/127/269 50/123/270 39/122/271
f 65/82/272 60/83/273 61/84/274
f 60/83/275 62/86/276 61/84/277
f 63/89/278 60/83/279 64/85/280
f 64/85/281 60/83/282 65/82/283
f 60/83/284 63/89/285 62/86/286
f 61/84/287 51/93/288 49/88/289
f 62/86/290 52/92/291 51/93/292 61/84/293
f 62/86/294 53/98/295 52/92/296
f 63/89/297 54/97/298 53/98/299 62/86/300
f 63/89/301 55/95/302 54/97/303
f 56/94/304 55/95/305 63/89/306 64/85/307
f 57/96/308 56/94/309 64/85/310
f 58/91/311 57/96/312 64/85/313
f 59/90/314 58/91/315 64/85/316 65/82/317
f 50/87/318 59/90/319 65/82/320
f 50/87/321 65/82/322 61/84/323 49/88/324
