# This file uses centimeters as units for non-parametric coordinates.

v -250.000000 13.822876 41.251953
v -250.000000 109.313385 67.085938
v -250.000000 109.313385 -67.084961
v -250.000000 13.822876 -41.252930
v -250.000000 32.977081 41.251953
v -250.000000 32.977081 -41.252930
v -250.000000 36.661224 -45.550781
v -250.000000 36.661224 45.550781
v -250.000000 84.602936 -67.084961
v -250.000000 84.602936 67.085938
v -52.747070 13.822876 41.251953
v -52.747070 13.822876 -41.252930
v -52.747070 32.977081 -41.252930
v -55.018555 38.866058 -45.550781
v -52.747070 84.602936 -67.084961
v -52.747070 109.313385 -67.084961
v -54.852539 109.313385 67.085938
v -52.747070 84.602936 67.085938
v -52.747070 36.661224 45.550781
v -52.747070 28.691559 41.251953
v 52.232422 32.977081 -41.252930
v 52.232422 13.822876 -41.252930
v 52.232422 13.822876 41.251953
v 52.232422 32.977081 41.251953
v 52.232422 38.573456 45.550781
v 52.232422 84.602936 67.085938
v 52.232422 109.313385 67.085938
v 52.232422 109.313385 -67.084961
v 53.629883 87.807526 -67.084961
v 52.232422 36.661224 -45.550781
v -48.077148 28.298523 59.605469
v -48.077148 24.370758 54.373047
v 47.563477 24.370758 54.373047
v 47.563477 28.298523 59.605469
v -48.077148 124.361603 -88.646484
v -48.077148 130.027496 88.646484
v 47.563477 120.083405 88.646484
v 47.563477 130.027496 -88.646484
v -48.077148 24.370758 -54.374023
v -48.077148 28.298523 -59.606445
v 47.563477 28.298523 -59.606445
v 47.563477 24.370758 -54.374023
v -48.077148 0.000000 53.289063
v -48.077148 0.000000 -53.290039
v 47.563477 0.000000 -53.290039
v 47.563477 0.000000 53.289063
v -48.077148 89.557892 -88.646484
v 47.563477 87.297638 -88.646484
v -48.077148 85.870514 88.646484
v 47.563477 89.557892 88.646484
v 7.193359 130.027496 88.646484
v 47.563477 130.027496 49.244141
v -48.077148 130.027496 -52.000000
v -22.197266 130.027496 -88.646484
v -117.075195 109.313385 67.085938
v -107.272461 101.573517 61.044922
v -109.413086 82.494781 61.044922
v -117.421875 84.602936 67.085938
v -99.787109 109.313385 28.751953
v -106.300781 51.015045 51.998047
v -204.562500 109.313385 -67.084961
v -150.149414 109.313385 -67.084961
v -163.572266 109.313385 -58.916992
v -170.781250 101.792877 -67.084961
v -152.641602 84.602936 -67.084961
v -90.833008 84.602936 -67.084961
v -116.528320 91.116241 -67.084961
v -113.332031 78.814484 -64.485352
v -213.260742 36.661224 -45.550781
v -166.747070 36.661224 -45.550781
v -192.042969 32.977081 -41.252930
v -188.872070 41.661316 -47.795898
v -103.215820 84.602936 67.085938
v -100.625000 109.313385 67.085938
v 72.240234 32.977081 -41.252930
v 72.240234 13.822876 -41.252930
v 72.240234 13.822876 41.251953
v 72.240234 32.977081 41.251953
v 72.240234 38.573456 45.550781
v 86.377899 84.602936 67.085938
v 73.994469 109.313385 67.085938
v 87.775360 87.807526 -67.084961
v 72.240234 36.661224 -45.550781
v 86.377899 109.313385 -67.084961
v 96.879120 72.454254 21.771484
v 90.773178 90.825836 -27.899414
v 76.635513 46.812408 -28.685547
v 76.635513 49.918121 1.334961
v 86.377899 109.313385 26.644531
vt 0.284615 0.661547
vt 0.284615 0.661554
vt 0.284583 0.661554
vt 0.284582 0.661547
vt 0.284617 0.661533
vt 0.284617 0.661526
vt 0.284585 0.661526
vt 0.284586 0.661533
vt 0.284617 0.661524
vt 0.284617 0.661502
vt 0.284586 0.661503
vt 0.284586 0.661524
vt 0.284614 0.661537
vt 0.284615 0.661547
vt 0.284582 0.661547
vt 0.284580 0.661536
vt 0.284617 0.661493
vt 0.284608 0.661491
vt 0.284585 0.661491
vt 0.284614 0.661524
vt 0.284580 0.661527
vt 0.284594 0.661524
vt 0.284616 0.661498
vt 0.284581 0.661516
vt 0.374765 0.903506
vt 0.374765 0.843181
vt 0.388770 0.843181
vt 0.388770 0.903506
vt 0.355207 0.906649
vt 0.355207 0.840039
vt 0.390260 0.824293
vt 0.390260 0.922394
vt 0.408327 0.824293
vt 0.408327 0.922394
vt 0.332717 0.945455
vt 0.332717 0.848266
vt 0.360745 0.835625
vt 0.424845 0.882263
vt 0.430817 0.801232
vt 0.430817 0.872449
vt 0.430817 0.912233
vt 0.430817 0.945455
vt 0.332717 0.836238
vt 0.332717 0.802771
vt 0.394250 0.853863
vt 0.369284 0.824293
vt 0.385196 0.824293
vt 0.369284 0.922394
vt 0.394250 0.922394
vt 0.374765 0.945456
vt 0.374765 0.903080
vt 0.388770 0.945456
vt 0.374765 0.801232
vt 0.388770 0.801232
vt 0.373274 0.945456
vt 0.373274 0.874271
vt 0.377507 0.845529
vt 0.404672 0.900761
vt 0.360706 0.887534
vt 0.368512 0.847866
vt 0.406715 0.802892
vt 0.408327 0.884585
vt 0.408327 0.918594
vt 0.408327 0.945456
vt 0.355207 0.945456
vt 0.355207 0.912234
vt 0.355207 0.872449
vt 0.355207 0.801232
vt 0.373274 0.829079
vt 0.373274 0.801232
vt 0.355207 0.945456
vt 0.355207 0.801232
vt 0.365702 0.840388
vt 0.390260 0.801232
vt 0.390260 0.838133
vt 0.390260 0.848519
vt 0.390260 0.945456
vt 0.408327 0.836238
vt 0.408327 0.802771
vt 0.408327 0.848266
vt 0.408327 0.945456
vt 0.374765 0.945455
vt 0.374765 0.801232
vt 0.385636 0.801232
vt 0.388770 0.945455
vt 0.388770 0.880658
vt 0.374765 0.880658
vt 0.374765 0.866029
vt 0.388770 0.866029
vt 0.369284 0.881137
vt 0.369284 0.847482
vt 0.383913 0.847482
vt 0.394250 0.881137
vt 0.369284 0.899205
vt 0.385196 0.899205
vt 0.368773 0.899904
vt 0.369795 0.862508
vt 0.394761 0.862508
vt 0.383402 0.899904
vt 0.368773 0.846784
vt 0.393739 0.846784
vt 0.114209 0.660980
vt 0.114209 0.600649
vt 0.116903 0.597506
vt 0.116903 0.664122
vt 0.125362 0.616799
vt 0.125362 0.644830
vt 0.119702 0.621216
vt 0.105751 0.621216
vt 0.107292 0.616799
vt 0.094824 0.597506
vt 0.088996 0.600649
vt 0.085837 0.591055
vt 0.088709 0.587228
vt 0.078124 0.600649
vt 0.068016 0.591847
vt 0.129880 0.581759
vt 0.130807 0.565993
vt 0.078124 0.660980
vt 0.068016 0.669782
vt 0.147950 0.581759
vt 0.163097 0.565993
vt 0.092130 0.660980
vt 0.085837 0.670574
vt 0.147950 0.679869
vt 0.163097 0.668838
vt 0.158953 0.695635
vt 0.096436 0.664122
vt 0.088709 0.674400
vt 0.129880 0.679869
vt 0.133504 0.695635
vt 0.092130 0.660979
vt 0.096222 0.664123
vt 0.088709 0.674400
vt 0.085837 0.670573
vt 0.129880 0.679870
vt 0.133503 0.695635
vt 0.078124 0.660979
vt 0.068016 0.669781
vt 0.147950 0.679870
vt 0.155825 0.695635
vt 0.078124 0.600649
vt 0.068016 0.591847
vt 0.147950 0.581759
vt 0.163097 0.565993
vt 0.163097 0.666823
vt 0.092130 0.600649
vt 0.085837 0.591054
vt 0.132224 0.581759
vt 0.131851 0.565993
vt 0.094824 0.597506
vt 0.088709 0.587228
vt 0.112726 0.640412
vt 0.118386 0.616799
vt 0.118386 0.644830
vt 0.150469 0.650297
vt 0.123517 0.646734
vt 0.136951 0.610413
vt 0.132400 0.679869
vt 0.150469 0.679869
vt 0.107037 0.631790
vt 0.104766 0.609838
vt 0.150469 0.581759
vt 0.094649 0.660979
vt 0.098741 0.664122
vt 0.080643 0.600648
vt 0.094649 0.600648
vt 0.080643 0.660979
vt 0.097343 0.597505
vt 0.134743 0.581759
vt 0.117469 0.665782
vt 0.113643 0.665782
vt 0.113643 0.595846
vt 0.117469 0.595846
vt 0.106094 0.644213
vt 0.106094 0.617416
vt 0.125018 0.644213
vt 0.117469 0.665782
vt 0.113643 0.665782
vt 0.113643 0.595846
vt 0.117469 0.595846
vt 0.080588 0.669781
vt 0.080588 0.591847
vt 0.150524 0.591847
vt 0.150524 0.669781
vt 0.085391 0.702933
vt 0.085391 0.558695
vt 0.145721 0.558695
vt 0.145721 0.702933
vt 0.113985 0.652004
vt 0.113985 0.625139
vt 0.117128 0.609624
vt 0.117128 0.652004
vt 0.129962 0.616054
vt 0.101150 0.645574
vt 0.101150 0.616054
vt 0.118543 0.623271
vt 0.118543 0.638357
vt 0.112570 0.633086
vt 0.108241 0.660979
vt 0.108241 0.600649
vt 0.122872 0.600649
vt 0.122872 0.660979
vt 0.117128 0.638129
vt 0.113985 0.638129
vt 0.113985 0.623499
vt 0.117128 0.623499
vt 0.115776 0.702933
vt 0.112642 0.558695
vt 0.118470 0.558695
vt 0.118470 0.702933
vt 0.115171 0.629424
vt 0.140950 0.631622
vt 0.118032 0.634762
vt 0.117587 0.639527
vt 0.097657 0.633873
vt 0.104828 0.639528
vt 0.112806 0.615827
vt 0.118306 0.621099
vt 0.112806 0.645801
vt 0.110940 0.627531
vt 0.119618 0.624203
vt 0.118624 0.653241
vt 0.113573 0.608327
vt 0.116037 0.689501
vt 0.112381 0.671667
vt 0.118731 0.673985
vt 0.116037 0.655488
vt 0.114425 0.573789
vt 0.118731 0.572127
vt 0.108241 0.635771
vt 0.108241 0.621765
vt 0.122872 0.621765
vt 0.122872 0.635771
vt 0.108241 0.639863
vt 0.122872 0.639863
vn 0.000000 -0.799747 0.600337
vn 0.000000 -0.799747 0.600337
vn 0.000000 -0.799747 0.600337
vn 0.000000 -0.799747 0.600337
vn -0.211467 0.965909 -0.149339
vn -0.211467 0.965909 -0.149339
vn -0.211467 0.965909 -0.149339
vn 0.000000 -0.799747 -0.600337
vn 0.000000 -0.799747 -0.600337
vn 0.000000 -0.799747 -0.600337
vn 0.000000 -0.799747 -0.600337
vn 0.000000 -1.000000 0.000000
vn 0.000000 -1.000000 0.000000
vn 0.000000 -1.000000 0.000000
vn 0.000000 -1.000000 0.000000
vn -1.000000 0.000000 0.000000
vn -1.000000 0.000000 0.000000
vn -1.000000 0.000000 0.000000
vn -1.000000 0.000000 0.000000
vn 0.000000 -0.044435 0.999012
vn 0.000000 -0.044435 0.999012
vn 0.000000 -0.044435 0.999012
vn 0.000000 -0.044435 0.999012
vn 0.000000 -0.044435 -0.999012
vn 0.000000 -0.044435 -0.999012
vn 0.000000 -0.044435 -0.999012
vn 0.000000 -0.044435 -0.999012
vn -1.000000 0.000000 0.000000
vn -1.000000 0.000000 0.000000
vn -1.000000 0.000000 0.000000
vn -1.000000 0.000000 0.000000
vn -0.005139 -0.434891 -0.900469
vn -0.005139 -0.434891 -0.900469
vn -0.005139 -0.434891 -0.900469
vn -0.005139 -0.434891 -0.900469
vn 0.008465 -0.439113 0.898392
vn 0.008465 -0.439113 0.898392
vn 0.008465 -0.439113 0.898392
vn 0.008465 -0.439113 0.898392
vn -1.000000 -0.000000 0.000000
vn -1.000000 -0.000000 0.000000
vn -1.000000 -0.000000 0.000000
vn -1.000000 -0.000000 0.000000
vn -0.000000 0.000000 -1.000000
vn -0.000000 0.000000 -1.000000
vn -0.000000 0.000000 -1.000000
vn -0.000000 0.000000 -1.000000
vn -0.000000 0.000000 -1.000000
vn 0.000000 0.000000 1.000000
vn 0.000000 0.000000 1.000000
vn 0.000000 0.000000 1.000000
vn 0.000000 0.000000 1.000000
vn 0.000000 0.000000 1.000000
vn -1.000000 0.000000 0.000000
vn -1.000000 0.000000 0.000000
vn -1.000000 0.000000 0.000000
vn -1.000000 0.000000 0.000000
vn 0.000000 -1.000000 0.000000
vn 0.000000 -1.000000 0.000000
vn 0.000000 -1.000000 0.000000
vn 0.000000 -1.000000 0.000000
vn 0.000000 0.000000 -1.000000
vn 0.000000 0.000000 -1.000000
vn 0.000000 0.000000 -1.000000
vn 0.000000 -0.759233 -0.650818
vn 0.000000 -0.759233 -0.650818
vn 0.000000 -0.759233 -0.650818
vn 0.000000 -0.759233 -0.650818
vn -0.000003 -0.409750 -0.912198
vn -0.000003 -0.409750 -0.912198
vn -0.000003 -0.409750 -0.912198
vn -0.000003 -0.409750 -0.912198
vn 0.000000 0.000000 -1.000000
vn 0.000000 0.000000 -1.000000
vn 0.000000 0.000000 -1.000000
vn 0.000000 0.000000 -1.000000
vn -0.752132 0.658808 -0.016440
vn -0.752132 0.658808 -0.016440
vn -0.752132 0.658808 -0.016440
vn -0.713848 0.077131 0.696041
vn -0.713848 0.077131 0.696041
vn -0.713848 0.077131 0.696041
vn -0.713848 0.077131 0.696041
vn 0.000000 -0.409733 0.912206
vn 0.000000 -0.409733 0.912206
vn 0.000000 -0.409733 0.912206
vn -0.006449 -0.593663 0.804688
vn -0.006449 -0.593663 0.804688
vn -0.006449 -0.593663 0.804688
vn -0.006449 -0.593663 0.804688
vn 0.000000 0.000000 1.000000
vn 0.000000 0.000000 1.000000
vn 0.000000 0.000000 1.000000
vn 0.000000 0.000000 1.000000
vn -0.952279 -0.190837 0.238214
vn -0.952279 -0.190837 0.238214
vn -0.952279 -0.190837 0.238214
vn -0.952279 -0.190837 0.238214
vn 0.961262 -0.194978 0.194833
vn 0.961262 -0.194978 0.194833
vn 0.961262 -0.194978 0.194833
vn 0.961262 -0.194978 0.194833
vn -0.962916 0.269595 -0.010599
vn -0.962916 0.269595 -0.010599
vn -0.962916 0.269595 -0.010599
vn -0.962916 0.269595 -0.010599
vn -0.962916 0.269595 -0.010599
vn 0.974151 0.225782 0.007209
vn 0.974151 0.225782 0.007209
vn 0.974151 0.225782 0.007209
vn 0.974151 0.225782 0.007209
vn 0.974151 0.225782 0.007209
vn -0.923860 -0.354300 -0.144754
vn -0.923860 -0.354300 -0.144754
vn -0.923860 -0.354300 -0.144754
vn -0.923860 -0.354300 -0.144754
vn 0.955426 -0.230680 -0.184247
vn 0.955426 -0.230680 -0.184247
vn 0.955426 -0.230680 -0.184247
vn 0.955426 -0.230680 -0.184247
vn -0.947395 -0.320068 0.000000
vn -0.947395 -0.320068 0.000000
vn -0.947395 -0.320068 0.000000
vn -0.947395 -0.320068 0.000000
vn 0.947415 -0.320008 0.000000
vn 0.947415 -0.320008 0.000000
vn 0.947415 -0.320008 0.000000
vn 0.947415 -0.320008 0.000000
vn -0.939644 -0.009448 0.342024
vn -0.939644 -0.009448 0.342024
vn -0.939644 -0.009448 0.342024
vn -0.939644 -0.009448 0.342024
vn 0.939920 -0.008500 0.341289
vn 0.939920 -0.008500 0.341289
vn 0.939920 -0.008500 0.341289
vn 0.939920 -0.008500 0.341289
vn -0.939897 -0.008501 -0.341352
vn -0.939897 -0.008501 -0.341352
vn -0.939897 -0.008501 -0.341352
vn -0.939897 -0.008501 -0.341352
vn 0.939920 -0.008500 -0.341289
vn 0.939920 -0.008500 -0.341289
vn 0.939920 -0.008500 -0.341289
vn 0.939920 -0.008500 -0.341289
vn -0.949482 -0.117407 -0.291033
vn -0.949482 -0.117407 -0.291033
vn -0.949482 -0.117407 -0.291033
vn -0.949482 -0.117407 -0.291033
vn 0.957822 -0.129857 -0.256348
vn 0.957822 -0.129857 -0.256348
vn 0.957822 -0.129857 -0.256348
vn 0.957822 -0.129857 -0.256348
vn -0.966524 -0.110903 0.231370
vn -0.966524 -0.110903 0.231370
vn -0.966524 -0.110903 0.231370
vn -0.966524 -0.110903 0.231370
vn 0.965237 -0.111451 0.236426
vn 0.965236 -0.111451 0.236426
vn 0.965237 -0.111451 0.236426
vn 0.965236 -0.111451 0.236426
vn -0.977339 0.000000 -0.211678
vn -0.977340 0.000000 -0.211678
vn -0.977339 0.000000 -0.211678
vn -0.977340 0.000000 -0.211678
vn 0.972444 0.021156 -0.232175
vn 0.972444 0.021156 -0.232175
vn 0.972444 0.021156 -0.232175
vn 0.972444 0.021156 -0.232175
vn -0.962295 -0.029420 0.270412
vn -0.962295 -0.029420 0.270412
vn -0.962295 -0.029420 0.270412
vn -0.962295 -0.029420 0.270412
vn 0.977347 0.000000 0.211645
vn 0.977347 0.000000 0.211645
vn 0.977347 0.000000 0.211645
vn 0.977347 0.000000 0.211645
vn 0.232301 0.943074 0.238006
vn 0.232301 0.943074 0.238006
vn 0.232301 0.943074 0.238006
vn 0.000000 1.000000 0.000000
vn 0.000000 1.000000 0.000000
vn 0.000000 1.000000 0.000000
vn 0.000000 1.000000 0.000000
vn 0.000000 1.000000 0.000000
vn 0.000000 1.000000 0.000000
vn 0.700183 0.640337 0.315773
vn 0.700183 0.640337 0.315773
vn 0.700183 0.640337 0.315773
vn 0.000000 0.000000 1.000000
vn 0.000000 0.000000 1.000000
vn 0.000000 0.000000 1.000000
vn 0.000000 0.000000 1.000000
vn 0.562719 -0.176458 0.807595
vn 0.562719 -0.176458 0.807595
vn 0.562719 -0.176458 0.807595
vn 0.549219 -0.031197 0.835096
vn 0.549219 -0.031197 0.835096
vn 0.549219 -0.031197 0.835096
vn 0.549219 -0.031197 0.835096
vn -0.622514 -0.272394 0.733674
vn -0.622514 -0.272394 0.733674
vn -0.622514 -0.272394 0.733674
vn 0.000002 -0.409757 0.912195
vn 0.000002 -0.409757 0.912195
vn 0.000002 -0.409757 0.912195
vn 0.000002 -0.409757 0.912195
vn 0.146866 0.659705 -0.737034
vn 0.146866 0.659705 -0.737034
vn 0.146866 0.659705 -0.737034
vn 0.000000 1.000000 0.000000
vn 0.000000 1.000000 0.000000
vn 0.000000 1.000000 0.000000
vn 0.000000 1.000000 0.000000
vn 0.000000 1.000000 -0.000000
vn 0.000000 1.000000 -0.000000
vn 0.000000 1.000000 -0.000000
vn 0.000000 1.000000 -0.000000
vn 0.000000 1.000000 0.000000
vn 0.000000 1.000000 0.000000
vn 0.000000 1.000000 0.000000
vn 0.000000 1.000000 0.000000
vn -0.298449 0.818767 -0.490458
vn -0.298449 0.818767 -0.490458
vn -0.298449 0.818767 -0.490458
vn -0.000000 0.000000 -1.000000
vn -0.000000 0.000000 -1.000000
vn -0.000000 0.000000 -1.000000
vn -0.000000 0.000000 -1.000000
vn 0.035664 -0.197744 -0.979605
vn 0.035665 -0.197744 -0.979605
vn 0.035664 -0.197744 -0.979605
vn 0.000000 0.000000 -1.000000
vn 0.000000 0.000000 -1.000000
vn 0.000000 0.000000 -1.000000
vn 0.000000 0.000000 -1.000000
vn 0.000000 0.000000 -1.000000
vn 0.000000 0.000000 -1.000000
vn 0.000000 0.000000 -1.000000
vn 0.000000 0.000000 -1.000000
vn -0.055842 -0.220299 -0.973833
vn -0.055842 -0.220299 -0.973833
vn -0.055842 -0.220299 -0.973833
vn 0.001748 -0.424853 -0.905261
vn 0.001748 -0.424853 -0.905261
vn 0.001748 -0.424853 -0.905261
vn 0.001748 -0.424853 -0.905261
vn 0.053167 -0.613212 -0.788127
vn 0.053167 -0.613212 -0.788127
vn 0.053167 -0.613212 -0.788127
vn 0.005937 -0.675958 -0.736917
vn 0.005937 -0.675958 -0.736917
vn 0.005937 -0.675958 -0.736917
vn 0.005937 -0.675958 -0.736917
vn 0.006547 -0.416628 -0.909053
vn 0.006547 -0.416628 -0.909053
vn 0.006547 -0.416628 -0.909053
vn 0.006547 -0.416628 -0.909053
vn -0.051257 -0.588955 -0.806539
vn -0.051257 -0.588955 -0.806539
vn -0.051257 -0.588955 -0.806539
vn 0.000000 0.000000 -1.000000
vn 0.000000 0.000000 -1.000000
vn 0.000000 0.000000 -1.000000
vn 0.000000 0.000000 -1.000000
vn 0.000011 -0.409731 -0.912206
vn 0.000011 -0.409731 -0.912206
vn 0.000011 -0.409731 -0.912206
vn 0.000011 -0.409731 -0.912206
vn -0.000004 -0.409757 0.912195
vn -0.000004 -0.409757 0.912195
vn -0.000004 -0.409757 0.912195
vn -0.000004 -0.409757 0.912195
vn 0.000000 0.000000 1.000000
vn 0.000000 0.000000 1.000000
vn 0.000000 0.000000 1.000000
vn 0.000000 0.000000 1.000000
vn 0.000000 1.000000 0.000000
vn 0.000000 1.000000 0.000000
vn 0.000000 1.000000 0.000000
vn 0.000000 1.000000 0.000000
vn 0.000000 0.000000 -1.000000
vn 0.000000 0.000000 -1.000000
vn 0.000000 0.000000 -1.000000
vn 0.000000 0.000000 -1.000000
vn 0.000000 -1.000000 0.000000
vn 0.000000 -1.000000 0.000000
vn 0.000000 -1.000000 0.000000
vn 0.000000 -1.000000 0.000000
vn 0.000000 0.000000 1.000000
vn 0.000000 0.000000 1.000000
vn 0.000000 0.000000 1.000000
vn 0.000000 0.000000 1.000000
vn 0.000000 -0.609170 0.793040
vn 0.000000 -0.609170 0.793040
vn 0.000000 -0.609170 0.793040
vn 0.000000 -0.609170 0.793040
vn 0.000000 -0.423770 0.905770
vn 0.000000 -0.423770 0.905770
vn 0.000000 -0.423770 0.905770
vn 0.000000 -0.423770 0.905770
vn 0.000000 0.000000 1.000000
vn 0.000000 0.000000 1.000000
vn 0.000000 0.000000 1.000000
vn 0.000000 0.000000 1.000000
vn 0.000000 -0.388040 -0.921643
vn 0.000000 -0.388040 -0.921643
vn 0.000000 -0.388040 -0.921643
vn 0.000000 -0.388040 -0.921643
vn 0.000000 -0.759233 -0.650819
vn 0.000000 -0.759233 -0.650819
vn 0.000000 -0.759233 -0.650819
vn 0.000000 -0.759233 -0.650819
vn 0.000000 1.000000 -0.000000
vn 0.000000 1.000000 -0.000000
vn 0.000000 1.000000 -0.000000
vn 0.000000 0.000000 -1.000000
vn 0.000000 0.000000 -1.000000
vn 0.000000 0.000000 -1.000000
vn 0.000000 0.000000 -1.000000
vn 0.961043 0.275929 -0.016082
vn 0.961043 0.275929 -0.016082
vn 0.961043 0.275929 -0.016082
vn 0.951266 -0.303166 -0.056426
vn 0.951266 -0.303166 -0.056426
vn 0.951266 -0.303166 -0.056426
vn 0.951266 -0.303166 -0.056426
vn 0.951266 -0.303166 -0.056426
vn 0.864214 -0.482754 0.141712
vn 0.864214 -0.482754 0.141712
vn 0.864214 -0.482754 0.141712
vn 0.864214 -0.482754 0.141712
vn 0.864214 -0.482754 0.141712
vn 0.897106 -0.416128 -0.148451
vn 0.897106 -0.416128 -0.148451
vn 0.897106 -0.416128 -0.148451
vn 0.897106 -0.416128 -0.148451
vn 0.995011 -0.099726 0.002752
vn 0.995011 -0.099726 0.002752
vn 0.995011 -0.099726 0.002752
vn 0.995011 -0.099726 0.002752
vn 0.995011 -0.099726 0.002752
vn 0.995011 -0.099726 0.002752
vn 0.994611 0.064630 -0.081069
vn 0.994611 0.064630 -0.081069
vn 0.994611 0.064630 -0.081069
vn 0.972883 0.231296 0.000000
vn 0.972883 0.231296 0.000000
vn 0.972883 0.231296 0.000000
vn 0.000000 1.000000 0.000000
vn 0.000000 1.000000 0.000000
vn 0.000000 1.000000 0.000000
vn 0.000000 1.000000 0.000000
vn 0.923463 0.327406 0.200051
vn 0.923463 0.327406 0.200051
vn 0.923463 0.327406 0.200051
vn 0.923463 0.327406 0.200051
s off
f 31/171/1 32/172/2 33/173/3 34/174/4
f 35/175/5 53/176/6 54/177/7
f 39/178/8 40/179/9 41/180/10 42/181/11
f 43/182/12 44/183/13 45/184/14 46/185/15
f 6/102/16 5/103/17 8/104/18 7/105/19
f 32/1/20 43/2/21 46/3/22 33/4/23
f 44/5/24 39/6/25 42/7/26 45/8/27
f 4/25/28 1/26/29 5/27/30 6/28/31
f 40/9/32 47/10/33 48/11/34 41/12/35
f 49/13/36 31/14/37 34/15/38 50/16/39
f 7/29/40 8/30/41 10/31/42 9/32/43
f 47/10/44 35/17/45 54/18/46 38/19/47 48/11/48
f 36/20/49 49/13/50 50/16/51 37/21/52 51/22/53
f 9/32/54 10/31/55 2/33/56 3/34/57
f 4/186/58 12/187/59 11/188/60 1/189/61
f 6/50/62 71/51/63 4/52/64
f 7/190/65 69/191/66 71/192/67 6/193/68
f 9/55/69 65/56/70 68/57/71 72/58/72
f 3/65/73 61/66/74 64/59/75 9/55/76
f 74/106/77 59/107/78 56/108/79
f 56/108/80 57/109/81 73/110/82 74/106/83
f 8/71/84 19/72/85 60/73/86
f 5/208/87 20/209/88 19/210/89 8/211/90
f 1/82/91 11/83/92 20/84/93 5/85/94
f 19/111/95 20/112/96 32/113/97 31/114/98
f 24/132/99 25/133/100 34/134/101 33/135/102
f 16/125/103 17/121/104 36/122/105 53/126/106 35/127/107
f 27/140/108 28/144/109 38/145/110 52/146/111 37/141/112
f 13/123/113 14/128/114 40/129/115 39/124/116
f 30/151/117 21/147/118 42/148/119 41/152/120
f 11/115/121 12/119/122 44/120/123 43/116/124
f 22/142/125 23/138/126 46/139/127 45/143/128
f 20/112/129 11/115/130 43/116/131 32/113/132
f 23/138/133 24/132/134 33/135/135 46/139/136
f 12/119/137 13/123/138 39/124/139 44/120/140
f 21/147/141 22/142/142 45/143/143 42/148/144
f 14/128/145 15/130/146 47/131/147 40/129/148
f 29/149/149 30/151/150 41/152/151 48/150/152
f 18/117/153 19/111/154 31/114/155 49/118/156
f 25/133/157 26/136/158 50/137/159 34/134/160
f 15/130/161 16/125/162 35/127/163 47/131/164
f 28/144/165 29/149/166 48/150/167 38/145/168
f 17/121/169 18/117/170 49/118/171 36/122/172
f 26/136/173 27/140/174 37/141/175 50/137/176
f 52/194/177 51/195/178 37/196/179
f 54/18/180 53/23/181 36/20/182 51/22/183 52/24/184 38/19/185
f 56/153/186 59/154/187 55/155/188
f 10/77/189 58/76/190 55/80/191 2/81/192
f 58/212/193 60/213/194 57/214/195
f 55/216/196 58/212/197 57/214/198 56/217/199
f 60/213/200 73/215/201 57/214/202
f 8/71/203 60/73/204 58/76/205 10/77/206
f 63/218/207 64/219/208 61/220/209
f 2/35/210 55/36/211 59/37/212 63/38/213
f 63/38/214 59/37/215 16/39/216 62/40/217
f 2/35/218 63/38/219 61/41/220 3/42/221
f 62/197/222 64/198/223 63/199/224
f 9/55/225 64/59/226 67/60/227 65/56/228
f 67/221/229 68/222/230 65/223/231
f 67/60/232 16/68/233 15/70/234 66/69/235
f 67/60/236 64/59/237 62/67/238 16/68/239
f 66/224/240 68/222/241 67/221/242
f 14/61/243 68/57/244 66/69/245 15/70/246
f 69/225/247 72/226/248 71/227/249
f 71/227/250 70/228/251 14/229/252 13/230/253
f 72/58/254 68/57/255 14/61/256 70/62/257
f 71/227/258 72/226/259 70/228/260
f 4/52/261 71/51/262 13/53/263 12/54/264
f 9/55/265 72/58/266 69/63/267 7/64/268
f 60/73/269 19/72/270 18/74/271 73/75/272
f 74/78/273 73/75/274 18/74/275 17/79/276
f 16/39/277 59/37/278 74/43/279 17/44/280
f 22/86/281 21/87/282 75/88/283 76/89/284
f 23/200/285 22/201/286 76/202/287 77/203/288
f 24/231/289 23/232/290 77/233/291 78/234/292
f 25/235/293 24/231/294 78/234/295 79/236/296
f 26/90/297 25/91/298 79/92/299 80/93/300
f 27/94/301 26/90/302 80/93/303 81/95/304
f 30/96/305 29/97/306 82/98/307 83/99/308
f 21/204/309 30/205/310 83/206/311 75/207/312
f 89/45/313 27/46/314 81/47/315
f 29/97/316 28/100/317 84/101/318 82/98/319
f 89/156/320 85/157/321 86/158/322
f 86/158/323 87/162/324 75/167/325 83/169/326 82/170/327
f 78/164/328 88/161/329 85/157/330 80/159/331 79/165/332
f 88/161/333 87/162/334 86/158/335 85/157/336
f 76/166/337 75/167/338 87/162/339 88/161/340 78/164/341 77/168/342
f 84/163/343 86/158/344 82/170/345
f 89/156/346 86/158/347 84/163/348
f 28/48/349 27/46/350 89/45/351 84/49/352
f 80/159/353 85/157/354 89/156/355 81/160/356
