# This file uses centimeters as units for non-parametric coordinates.

v 125.264435 346.441162 -388.066101
v 153.581528 346.441162 394.530701
v 87.421143 346.441162 -393.534485
v -163.343994 346.441162 348.732361
v 107.833588 334.619629 -407.948181
v -10.445770 339.278595 352.939026
v 135.824585 289.197815 80.855774
v 29.354923 277.376282 71.360413
v -57.717743 286.527466 52.887268
v 143.704865 306.335083 246.364075
v 18.655624 294.513550 219.668152
v -111.944061 310.097687 209.420715
v 117.423309 302.308411 -118.731140
v 69.234207 287.816528 -115.736511
v 25.501389 299.638062 -164.066956
v -45.017395 303.654449 214.390808
v -67.703003 305.838409 212.706116
v -74.086945 311.131989 228.565491
v -63.774292 314.915314 246.005310
v -43.715393 310.866364 240.101501
v -52.268860 212.358902 219.485779
v -63.294647 242.474014 215.773499
v -43.789917 266.724152 219.305237
v -67.715149 291.865387 213.728943
v 123.475639 304.535156 242.127380
v 91.422409 302.712280 236.165344
v 110.710983 315.190063 278.606995
v 122.867813 301.738281 206.686707
v 106.806938 298.159424 175.644836
v 104.520470 197.756470 191.468933
v 94.882538 161.858551 212.221252
v 105.205788 254.281128 186.726501
v 92.024475 241.156250 231.999084
v 29.720215 296.506470 -128.767029
v -4.722198 295.689575 -77.072449
v 126.437241 295.430603 -14.119812
v 133.382263 292.099915 36.912292
v 118.870430 290.204529 40.427551
v 108.045288 331.259216 -408.473083
v 86.552872 343.035767 -394.206970
v 24.633114 296.232666 -164.739471
v 29.071510 293.038940 -129.303513
v 69.324234 284.262146 -116.137939
v 126.556107 343.125732 -388.443420
v 118.358109 298.887878 -119.017899
v 123.619568 301.033508 242.744614
v 123.139542 298.180725 206.956238
v 143.848785 302.833435 246.981308
v 136.167145 285.646851 80.859772
v 18.601004 290.995422 220.318207
v -45.045517 301.740814 213.109497
v 29.334145 273.798279 71.345528
v 153.593643 342.994019 395.489777
v 110.768860 311.757080 279.612366
v -44.101341 307.446503 241.080322
v 133.797058 288.555603 36.650078
v 119.366798 286.669556 40.198364
v -10.588320 335.832855 353.880951
v -64.124474 311.484344 246.956696
v -163.666489 342.995239 349.639709
v -74.437134 307.701019 229.516907
v -112.344727 306.600555 209.953903
v -67.746948 303.926666 211.425110
v -58.156372 282.989990 52.777840
v -67.176712 291.610260 210.211243
v -43.251480 266.469025 215.787521
v -62.531662 242.369278 212.279236
v -51.505875 212.254166 215.991516
v 105.216660 296.366394 175.311813
v 89.744659 300.987854 236.221146
v 88.599182 241.176880 230.970581
v 101.780487 254.301758 185.697998
v 91.485657 161.928436 211.099121
v 101.123581 197.826294 190.346802
v -5.151333 292.159912 -77.472900
v 127.015167 291.904968 -14.315979
vt 0.153391 0.187430
vt 0.153032 0.187477
vt 0.153023 0.176262
vt 0.153020 0.176244
vt 0.153377 0.187385
vt 0.153451 0.187463
vt 0.153092 0.187544
vt 0.152707 0.187610
vt 0.152862 0.187601
vt 0.152665 0.187644
vt 0.152663 0.187619
vt 0.152646 0.187444
vt 0.152817 0.187497
vt 0.152656 0.187498
vt 0.152451 0.187689
vt 0.152613 0.187608
vt 0.152619 0.187445
vt 0.152901 0.187576
vt 0.152913 0.187588
vt 0.152491 0.187480
vt 0.152607 0.187426
vt 0.152474 0.187336
vt 0.152624 0.187417
vt 0.152634 0.187384
vt 0.152642 0.187423
vt 0.152803 0.187406
vt 0.152639 0.187470
vt 0.152640 0.187433
vt 0.152636 0.187493
vt 0.152637 0.187467
vt 0.152738 0.176130
vt 0.152662 0.175270
vt 0.152715 0.187606
vt 0.152662 0.187620
vt 0.152701 0.187627
vt 0.152676 0.187645
vt 0.152954 0.177113
vt 0.152971 0.187574
vt 0.153391 0.187430
vt 0.153377 0.187385
vt 0.153020 0.176244
vt 0.153023 0.176262
vt 0.153032 0.187477
vt 0.153451 0.187463
vt 0.153092 0.187544
vt 0.152707 0.187610
vt 0.152663 0.187619
vt 0.152665 0.187644
vt 0.152862 0.187601
vt 0.152646 0.187444
vt 0.152656 0.187498
vt 0.152817 0.187497
vt 0.152451 0.187689
vt 0.152613 0.187608
vt 0.152619 0.187445
vt 0.152913 0.187588
vt 0.152901 0.187576
vt 0.152491 0.187480
vt 0.152607 0.187426
vt 0.152474 0.187336
vt 0.152624 0.187417
vt 0.152634 0.187384
vt 0.152642 0.187423
vt 0.152803 0.187406
vt 0.152640 0.187433
vt 0.152639 0.187470
vt 0.152637 0.187467
vt 0.152636 0.187493
vt 0.152738 0.176130
vt 0.152662 0.175270
vt 0.152662 0.187620
vt 0.152715 0.187606
vt 0.152676 0.187645
vt 0.152701 0.187627
vt 0.152954 0.177113
vt 0.152971 0.187574
vt 0.153391 0.187430
vt 0.153377 0.187385
vt 0.153020 0.176244
vt 0.153023 0.176262
vt 0.153451 0.187463
vt 0.153092 0.187544
vt 0.152707 0.187610
vt 0.152663 0.187619
vt 0.152665 0.187644
vt 0.152862 0.187601
vt 0.152451 0.187689
vt 0.152613 0.187608
vt 0.152646 0.187444
vt 0.152619 0.187445
vt 0.152913 0.187588
vt 0.152901 0.187576
vt 0.152607 0.187426
vt 0.152624 0.187417
vt 0.152474 0.187336
vt 0.152491 0.187480
vt 0.152642 0.187423
vt 0.152634 0.187384
vt 0.152803 0.187406
vt 0.152640 0.187433
vt 0.152639 0.187470
vt 0.152637 0.187467
vt 0.152636 0.187493
vt 0.152738 0.176130
vt 0.152662 0.175270
vt 0.152662 0.187620
vt 0.152715 0.187606
vt 0.152676 0.187645
vt 0.152701 0.187627
vt 0.152954 0.177113
vt 0.152971 0.187574
vn -0.226954 -0.952046 -0.205181
vn -0.226954 -0.952046 -0.205181
vn -0.226954 -0.952046 -0.205181
vn -0.226954 -0.952046 -0.205181
vn -0.226954 -0.952046 -0.205181
vn 0.388073 -0.914290 -0.116076
vn 0.388073 -0.914290 -0.116076
vn 0.388073 -0.914290 -0.116076
vn 0.388073 -0.914290 -0.116076
vn 0.023293 -0.995039 0.096718
vn 0.088371 -0.986218 0.139873
vn 0.035440 -0.994626 0.097283
vn 0.035440 -0.994626 0.097283
vn -0.176669 -0.979146 0.100302
vn -0.176669 -0.979146 0.100302
vn -0.176669 -0.979146 0.100302
vn -0.023766 -0.962898 0.268816
vn 0.000366 -0.959456 0.281859
vn 0.000987 -0.964326 0.264716
vn 0.000987 -0.964326 0.264716
vn -0.185274 -0.961615 0.202411
vn -0.185274 -0.961615 0.202411
vn -0.185274 -0.961615 0.202411
vn 0.176043 -0.983244 -0.047337
vn 0.166313 -0.984729 -0.051476
vn 0.115778 -0.990607 -0.072752
vn 0.115778 -0.990607 -0.072752
vn -0.112292 -0.955225 0.273745
vn -0.112292 -0.955225 0.273745
vn -0.112292 -0.955225 0.273745
vn -0.154258 -0.946341 0.283978
vn -0.154258 -0.946341 0.283978
vn -0.154258 -0.946341 0.283978
vn -0.055805 -0.968400 0.243080
vn -0.055805 -0.968400 0.243079
vn -0.055805 -0.968400 0.243079
vn -0.052109 -0.967750 0.246464
vn -0.052109 -0.967750 0.246464
vn -0.052109 -0.967750 0.246464
vn -0.064803 -0.981387 0.180774
vn -0.064803 -0.981387 0.180774
vn -0.064803 -0.981387 0.180774
vn -0.086088 -0.971363 0.221456
vn -0.086088 -0.971363 0.221456
vn -0.086088 -0.971363 0.221456
vn -0.107076 -0.986263 0.125782
vn -0.107076 -0.986263 0.125782
vn -0.107076 -0.986263 0.125782
vn -0.107076 -0.986263 0.125782
vn -0.107076 -0.986263 0.125782
vn 0.140373 -0.023480 -0.989820
vn 0.140373 -0.023480 -0.989820
vn 0.140373 -0.023480 -0.989820
vn 0.140373 -0.023480 -0.989820
vn 0.213807 -0.028903 -0.976448
vn 0.213807 -0.028903 -0.976448
vn 0.213807 -0.028903 -0.976448
vn 0.213807 -0.028903 -0.976448
vn 0.111314 -0.985421 0.128661
vn 0.097016 -0.988062 0.119676
vn 0.122276 -0.985491 0.117715
vn 0.122276 -0.985491 0.117715
vn 0.021389 -0.953504 0.300620
vn 0.021389 -0.953504 0.300620
vn -0.003017 -0.958628 0.284646
vn -0.965629 0.030414 -0.258140
vn -0.965629 0.030414 -0.258140
vn -0.960355 0.026660 -0.277503
vn -0.957665 0.024844 -0.286811
vn -0.949360 0.019575 -0.313579
vn -0.949360 0.019575 -0.313579
vn -0.095022 -0.990421 -0.100182
vn -0.136560 -0.985854 -0.097176
vn -0.100584 -0.989911 -0.099790
vn -0.095022 -0.990421 -0.100182
vn 0.180788 -0.982478 -0.045313
vn 0.180788 -0.982478 -0.045313
vn 0.180788 -0.982478 -0.045313
vn -0.182778 -0.978688 -0.093609
vn 0.232898 0.950520 0.205597
vn 0.232898 0.950520 0.205597
vn 0.232898 0.950520 0.205597
vn 0.232898 0.950520 0.205597
vn 0.232898 0.950520 0.205597
vn -0.395060 0.911438 0.114925
vn -0.395060 0.911438 0.114925
vn -0.395060 0.911438 0.114925
vn -0.395060 0.911438 0.114925
vn -0.033311 0.994658 -0.097703
vn -0.034303 0.994671 -0.097222
vn -0.034303 0.994671 -0.097222
vn -0.093988 0.988081 -0.121915
vn 0.149695 0.983370 -0.102831
vn 0.149695 0.983370 -0.102831
vn 0.149695 0.983370 -0.102831
vn 0.023840 0.962882 -0.268866
vn -0.000264 0.964227 -0.265079
vn -0.000264 0.964227 -0.265079
vn 0.002526 0.958096 -0.286435
vn 0.158882 0.948486 -0.274098
vn 0.158882 0.948486 -0.274098
vn 0.158882 0.948486 -0.274098
vn -0.176625 0.983142 0.047287
vn -0.115931 0.990550 0.073282
vn -0.115931 0.990550 0.073282
vn -0.166812 0.984641 0.051526
vn 0.112284 0.955256 -0.273638
vn 0.112284 0.955257 -0.273638
vn 0.112284 0.955256 -0.273638
vn 0.155052 0.946213 -0.283971
vn 0.155052 0.946213 -0.283971
vn 0.155052 0.946213 -0.283971
vn 0.055819 0.968397 -0.243088
vn 0.055819 0.968397 -0.243088
vn 0.055819 0.968397 -0.243088
vn 0.052116 0.967746 -0.246477
vn 0.052116 0.967746 -0.246477
vn 0.052116 0.967746 -0.246477
vn 0.112288 0.955253 -0.273649
vn 0.112288 0.955253 -0.273649
vn 0.112288 0.955253 -0.273649
vn 0.085631 0.971324 -0.221803
vn 0.085631 0.971324 -0.221803
vn 0.085631 0.971324 -0.221803
vn 0.117232 0.986558 -0.113841
vn 0.117232 0.986558 -0.113841
vn 0.117232 0.986558 -0.113840
vn 0.117232 0.986558 -0.113841
vn 0.117232 0.986558 -0.113840
vn -0.087726 0.113339 0.989676
vn -0.087726 0.113339 0.989676
vn -0.087726 0.113339 0.989676
vn -0.087726 0.113339 0.989676
vn -0.213235 0.029283 0.976562
vn -0.213235 0.029283 0.976562
vn -0.213235 0.029283 0.976562
vn -0.213235 0.029283 0.976562
vn -0.098427 0.988061 -0.118527
vn -0.090673 0.989205 -0.115114
vn -0.098289 0.988497 -0.114948
vn -0.098289 0.988497 -0.114948
vn -0.014711 0.950472 -0.310462
vn 0.006284 0.957173 -0.289449
vn -0.014711 0.950472 -0.310462
vn 0.965231 0.007991 0.261275
vn 0.957586 -0.006039 0.288084
vn 0.960221 -0.001394 0.279238
vn 0.965231 0.007991 0.261275
vn 0.949351 -0.019530 0.313610
vn 0.949351 -0.019530 0.313610
vn 0.095348 0.990378 0.100301
vn 0.095348 0.990378 0.100300
vn 0.100811 0.989874 0.099930
vn 0.137051 0.985765 0.097387
vn -0.181405 0.982368 0.045216
vn -0.181405 0.982369 0.045216
vn -0.181405 0.982368 0.045216
vn 0.184216 0.978394 0.093861
vn -0.475313 0.197845 -0.857284
vn -0.475312 0.197845 -0.857284
vn -0.475312 0.197845 -0.857284
vn -0.475312 0.197845 -0.857284
vn -0.940032 0.278553 -0.196844
vn -0.940032 0.278553 -0.196844
vn -0.950157 0.269461 -0.156817
vn -0.950838 0.268770 -0.153848
vn -0.972187 0.190650 0.136033
vn -0.972187 0.190650 0.136033
vn 0.644631 0.243120 -0.724806
vn 0.644631 0.243120 -0.724806
vn 0.644631 0.243120 -0.724806
vn 0.644631 0.243120 -0.724806
vn 0.958400 0.282733 0.039142
vn 0.958993 0.281085 0.036381
vn 0.948831 0.305891 0.078421
vn 0.948832 0.305891 0.078421
vn -0.998220 -0.056298 0.019711
vn -0.998220 -0.056298 0.019711
vn -0.985195 -0.079511 -0.151884
vn -0.984843 -0.079787 -0.154008
vn 0.997506 0.036513 -0.060413
vn 0.997500 0.036763 -0.060349
vn 0.995946 0.073363 -0.052059
vn 0.995961 0.073130 -0.052093
vn 0.997669 0.007010 -0.067879
vn 0.997669 0.007010 -0.067879
vn -0.948082 -0.098358 -0.302434
vn -0.948082 -0.098358 -0.302433
vn -0.996828 0.076062 0.023407
vn -0.996828 0.076062 0.023407
vn -0.996828 0.076062 0.023407
vn -0.996828 0.076062 0.023407
vn 0.993065 0.107718 -0.047113
vn 0.993065 0.107718 -0.047113
vn -0.241410 0.036243 -0.969746
vn -0.241410 0.036243 -0.969746
vn -0.241410 0.036243 -0.969746
vn -0.241410 0.036243 -0.969746
vn -0.316331 -0.225621 -0.921428
vn -0.316331 -0.225621 -0.921428
vn -0.316331 -0.225621 -0.921428
vn -0.316331 -0.225621 -0.921428
vn 0.860273 -0.215880 -0.461872
vn 0.860273 -0.215880 -0.461873
vn 0.860273 -0.215880 -0.461872
vn 0.860273 -0.215880 -0.461872
vn -0.014483 0.260053 0.965486
vn -0.014483 0.260053 0.965486
vn -0.137938 0.262864 0.954922
vn -0.138099 0.262865 0.954898
vn 0.920877 -0.091314 0.379009
vn 0.920877 -0.091314 0.379009
vn 0.920877 -0.091314 0.379009
vn 0.920877 -0.091314 0.379009
vn -0.937007 0.059302 -0.344241
vn -0.937012 0.059745 -0.344151
vn -0.936031 0.024661 -0.351054
vn -0.936031 0.024661 -0.351054
vn -0.929849 0.113107 -0.350126
vn -0.929609 0.113812 -0.350533
vn -0.995424 -0.020453 -0.093339
vn -0.995424 -0.020453 -0.093339
vn -0.982305 -0.087178 -0.165759
vn -0.982748 -0.085533 -0.163983
vn 0.984031 -0.086451 0.155595
vn 0.983855 -0.087481 0.156131
vn 0.995270 0.050385 0.083065
vn 0.995270 0.050385 0.083065
vn -0.962115 -0.201959 -0.183161
vn -0.962043 -0.202285 -0.183178
vn -0.914383 -0.358065 -0.188926
vn -0.914383 -0.358065 -0.188926
vn 0.970841 -0.148952 0.187832
vn 0.970841 -0.148952 0.187832
vn -0.867231 0.208346 0.452219
vn -0.867231 0.208346 0.452219
vn -0.867231 0.208346 0.452219
vn -0.867231 0.208346 0.452219
vn 0.882484 -0.343323 -0.321483
vn 0.882484 -0.343323 -0.321483
vn 0.882484 -0.343323 -0.321483
vn 0.882484 -0.343323 -0.321483
vn -0.247874 0.261927 0.932712
vn -0.247874 0.261927 0.932712
vn -0.162291 -0.075609 0.983842
vn -0.162291 -0.075609 0.983842
vn -0.251054 -0.186402 0.949856
vn -0.249096 -0.183927 0.950853
vn 0.312313 -0.141365 -0.939402
vn 0.312734 -0.143253 -0.938976
vn 0.334143 -0.246805 -0.909635
vn 0.334143 -0.246805 -0.909635
vn -0.294652 -0.241872 0.924488
vn -0.294652 -0.241872 0.924488
vn 0.255205 -0.534355 -0.805813
vn 0.255205 -0.534355 -0.805813
vn 0.288069 -0.285105 -0.914184
vn 0.288211 -0.283430 -0.914660
vn -0.893471 0.158106 -0.420372
vn -0.893276 0.158230 -0.420738
vn -0.818301 0.198291 -0.539503
vn -0.818301 0.198291 -0.539503
vn 0.978746 0.139884 0.149963
vn 0.978746 0.139884 0.149963
vn 0.981562 0.190945 0.008718
vn 0.981408 0.191836 0.006140
s off
f 39/1/1 43/2/2 42/3/3 41/4/4 40/5/5
f 44/6/6 45/7/7 43/2/8 39/1/9
s 1
f 47/8/10 49/9/11 48/10/12 46/11/13
s off
f 51/12/14 52/13/15 50/14/16
s 2
f 53/15/17 54/16/18 46/11/19 48/10/20
s off
f 50/14/21 55/17/22 51/12/23
s 3
f 52/13/24 57/18/25 56/19/26 49/9/27
s off
f 58/20/28 59/21/29 55/17/30
f 58/20/31 55/17/32 50/14/33
f 60/22/34 61/23/35 59/21/36
f 60/22/37 59/21/38 58/20/39
f 62/24/40 63/25/41 61/23/42
f 62/24/43 61/23/44 60/22/45
f 64/26/46 52/13/47 51/12/48 63/25/49 62/24/50
f 63/25/51 51/12/52 66/27/53 65/28/54
f 65/28/55 66/27/56 68/29/57 67/30/58
s 1
f 52/13/59 49/9/11 69/31/60
f 69/31/60 49/9/11 47/8/10
f 52/13/59 69/31/60 70/32/61 50/14/62
s 2
f 50/14/63 70/32/64 54/16/18 58/20/65
f 58/20/65 54/16/18 53/15/17
s 4
f 70/32/66 69/31/67 72/33/68 71/34/69
f 71/34/69 72/33/68 74/35/70 73/36/71
s 5
f 75/37/72 42/3/73 52/13/74 64/26/75
s 3
f 43/2/76 45/7/77 76/38/78 57/18/25 52/13/24
s 5
f 52/13/74 42/3/73 43/2/79
s off
f 5/39/80 3/40/81 15/41/82 34/42/83 14/43/84
f 1/44/85 5/39/86 14/43/87 13/45/88
s 6
f 28/46/89 25/47/90 10/48/91 7/49/92
s off
f 16/50/93 11/51/94 8/52/95
s 7
f 2/53/96 10/48/97 25/47/98 27/54/99
s off
f 11/51/100 16/50/101 20/55/102
s 8
f 8/52/103 7/49/104 37/56/105 38/57/106
s off
f 6/58/107 20/55/108 19/59/109
f 6/58/110 11/51/111 20/55/112
f 4/60/113 19/59/114 18/61/115
f 4/60/116 6/58/117 19/59/118
f 12/62/119 18/61/120 17/63/121
f 12/62/122 4/60/123 18/61/124
f 9/64/125 12/62/126 17/63/127 16/50/128 8/52/129
f 17/63/130 24/65/131 23/66/132 16/50/133
f 24/65/134 22/67/135 21/68/136 23/66/137
s 6
f 8/52/138 29/69/139 7/49/92
f 29/69/139 28/46/89 7/49/92
f 8/52/138 11/51/140 26/70/141 29/69/139
s 7
f 11/51/142 6/58/143 27/54/99 26/70/144
f 6/58/143 2/53/96 27/54/99
s 10
f 26/70/145 33/71/146 32/72/147 29/69/148
f 33/71/146 31/73/149 30/74/150 32/72/147
s 11
f 35/75/151 9/64/152 8/52/153 34/42/154
s 8
f 14/43/155 8/52/103 38/57/106 36/76/156 13/45/157
s 11
f 8/52/153 14/43/158 34/42/154
s off
f 5/77/159 39/1/160 40/5/161 3/78/162
s 12
f 3/78/163 40/5/164 41/4/165 15/79/166
f 15/79/166 41/4/165 42/3/167 34/80/168
s off
f 1/81/169 44/6/170 39/1/171 5/77/172
s 13
f 13/82/173 45/7/174 44/6/175 1/81/176
s 14
f 28/83/177 47/8/178 46/11/179 25/84/180
s 15
f 10/85/181 48/10/182 49/9/183 7/86/184
f 2/87/185 53/15/186 48/10/182 10/85/181
s 14
f 25/84/180 46/11/179 54/16/187 27/88/188
s off
f 16/89/189 51/12/190 55/17/191 20/90/192
s 15
f 7/86/184 49/9/183 56/19/193 37/91/194
s off
f 37/91/195 56/19/196 57/18/197 38/92/198
f 20/90/199 55/17/200 59/21/201 19/93/202
f 19/93/203 59/21/204 61/23/205 18/94/206
s 16
f 4/95/207 60/22/208 58/20/209 6/96/210
s off
f 18/94/211 61/23/212 63/25/213 17/97/214
s 17
f 12/98/215 62/24/216 60/22/217 4/95/218
f 9/99/219 64/26/220 62/24/216 12/98/215
s 18
f 17/97/221 63/25/222 65/28/223 24/100/224
s 19
f 23/101/225 66/27/226 51/12/227 16/89/228
s 18
f 24/100/224 65/28/223 67/30/229 22/102/230
f 22/102/230 67/30/229 68/29/231 21/103/232
s 19
f 21/103/233 68/29/234 66/27/226 23/101/225
s off
f 29/104/235 69/31/236 47/8/237 28/83/238
f 27/88/239 54/16/240 70/32/241 26/105/242
s 16
f 6/96/210 58/20/209 53/15/243 2/87/244
s 20
f 26/105/245 70/32/246 71/34/247 33/106/248
s 21
f 32/107/249 72/33/250 69/31/251 29/104/252
s 20
f 33/106/248 71/34/247 73/36/253 31/108/254
s 21
f 31/108/255 73/36/256 74/35/257 30/109/258
f 30/109/258 74/35/257 72/33/250 32/107/249
s 17
f 35/110/259 75/37/260 64/26/220 9/99/219
f 34/80/261 42/3/262 75/37/260 35/110/259
s 13
f 38/92/263 57/18/264 76/38/265 36/111/266
f 36/111/266 76/38/265 45/7/174 13/82/173
