# This file uses centimeters as units for non-parametric coordinates.

v -25.621094 -253.121964 -22.255859
v -24.222656 -251.666245 -32.755859
v -14.412109 -252.118118 -36.894531
v -6.000000 -254.026077 -30.535156
v -7.398438 -255.481796 -20.035156
v -16.279297 -240.561783 -14.578125
v 33.757813 591.227478 59.111328
v 35.087891 592.062439 49.119141
v 44.425781 591.803467 45.179688
v 50.158203 602.477234 54.630859
v 51.101563 589.873657 61.226563
v 41.763672 590.133057 65.164063
v -19.066406 -300.285645 -30.902344
v 47.589844 629.842590 61.396484
v 22.244141 482.971588 40.263672
v 26.250000 499.872040 34.486328
v 35.591797 508.315521 33.458984
v 40.929688 499.858246 38.207031
v 36.923828 482.957733 43.984375
v 26.902344 468.641937 44.072266
v -10.876953 74.142578 -4.945313
v -9.183594 63.052692 -14.927734
v 0.144531 68.498169 -16.632813
v 7.777344 85.033646 -8.355469
v 6.083984 96.123550 1.626953
v -3.244141 90.678116 3.332031
v 50.289063 591.002075 49.613281
v 51.984375 590.426880 54.607422
v 49.697266 570.632507 48.648438
v 31.080078 477.676849 44.626953
v 28.488281 481.338104 46.343750
v 24.611328 479.221222 42.371094
v -12.066406 -255.266830 -18.066406
v -18.955078 -254.633835 -17.216797
v -17.269531 -263.288513 -20.914063
v 2.921875 74.517776 -13.619141
v 9.033203 103.455978 -6.585938
v 6.484375 91.839279 -7.080078
v 91.171875 389.287323 131.646484
v 74.265625 387.424286 138.705078
v 66.960938 397.081390 147.769531
v 76.558594 408.600983 149.775391
v 93.460938 410.463837 142.714844
v 100.769531 400.807098 133.650391
v 87.707031 393.429047 124.439453
v 70.800781 391.566132 131.498047
v 63.496094 401.222992 140.564453
v 73.089844 412.742889 142.566406
v 89.996094 414.605560 135.507813
v 97.300781 404.948761 126.443359
v 85.976563 396.423431 145.097656
v 78.289063 405.606598 129.117188
v 148.871094 308.129120 275.542969
v 28.398438 492.394928 51.234375
v 42.062500 490.201202 48.013672
v 25.750000 486.748199 45.851563
v 39.414063 484.554474 42.630859
v 137.042969 323.162048 268.712891
v 146.527344 323.162048 264.050781
v 143.484375 316.666992 257.859375
v 134.000000 316.666992 262.521484
v 75.937500 401.649689 136.257813
v 85.710938 401.649689 131.455078
v 88.843750 408.339813 137.832031
v 79.074219 408.339813 142.634766
v -452.437500 341.690369 -29.988281
v 35.832031 491.056671 37.015625
v 28.031250 488.760162 49.632813
v 38.976563 484.051910 37.023438
v 31.175781 481.755463 49.636719
v -423.996094 355.811127 -32.898438
v -425.433594 355.392731 -22.439453
v -421.820313 347.335724 -22.431641
v -420.382813 347.754120 -32.890625
v -167.675781 413.115387 5.585938
v -169.156250 412.684418 16.357422
v -172.878906 420.983490 16.349609
v -171.398438 421.414398 5.578125
v 716.601563 355.335297 -247.058594
v 33.894531 490.710419 42.630859
v 29.843750 490.202606 28.095703
v 30.847656 483.748505 43.851563
v 26.796875 483.240753 29.316406
v 686.851563 358.994720 -235.539063
v 686.335938 362.421783 -245.501953
v 684.656250 354.303864 -248.609375
v 685.171875 350.876801 -238.650391
v 216.542969 416.271576 -51.734375
v 209.734375 417.266571 -60.138672
v 213.347656 425.514801 -61.582031
v 220.156250 424.519867 -53.179688
vt 0.372987 0.379630
vt 0.372988 0.379629
vt 0.372988 0.379623
vt 0.372987 0.379623
vt 0.372988 0.379631
vt 0.372989 0.379624
vt 0.372988 0.379632
vt 0.372989 0.379625
vt 0.372989 0.379624
vt 0.372987 0.379633
vt 0.372988 0.379624
vt 0.372987 0.379632
vt 0.372986 0.379631
vt 0.372987 0.379623
vt 0.372987 0.379631
vt 0.372987 0.379631
vt 0.372987 0.379631
vt 0.372988 0.379601
vt 0.372989 0.379601
vt 0.372989 0.379600
vt 0.372990 0.379600
vt 0.372991 0.379600
vt 0.372990 0.379600
vt 0.372990 0.379600
vt 0.372989 0.379600
vt 0.372987 0.379600
vt 0.372988 0.379607
vt 0.372989 0.379606
vt 0.372990 0.379605
vt 0.372990 0.379605
vt 0.372990 0.379602
vt 0.372988 0.379607
vt 0.372988 0.379608
vt 0.372987 0.379607
vt 0.372988 0.379607
vt 0.372989 0.379624
vt 0.372987 0.379609
vt 0.372988 0.379624
vt 0.385396 0.356573
vt 0.385857 0.356489
vt 0.385790 0.356245
vt 0.385330 0.356327
vt 0.386210 0.356376
vt 0.386141 0.356130
vt 0.386107 0.356345
vt 0.386037 0.356095
vt 0.385635 0.356430
vt 0.385566 0.356177
vt 0.385277 0.356546
vt 0.385210 0.356294
vt 0.385748 0.356460
vt 0.385680 0.356212
vt 0.366095 0.334392
vt 0.366082 0.334393
vt 0.366010 0.334164
vt 0.366022 0.334163
vt 0.365996 0.334016
vt 0.365984 0.334020
vt 0.365984 0.334027
vt 0.365995 0.334022
vt 0.366021 0.334171
vt 0.366010 0.334172
vt 0.366081 0.334401
vt 0.366094 0.334400
vt 0.366094 0.334433
vt 0.366095 0.334392
vt 0.366082 0.334393
vt 0.366010 0.334164
vt 0.366022 0.334163
vt 0.365996 0.334016
vt 0.365984 0.334020
vt 0.365984 0.334027
vt 0.365995 0.334022
vt 0.366021 0.334171
vt 0.366010 0.334172
vt 0.366081 0.334401
vt 0.366094 0.334400
vt 0.366094 0.334433
vt 0.366095 0.334392
vt 0.366082 0.334393
vt 0.366010 0.334164
vt 0.366022 0.334163
vt 0.365996 0.334016
vt 0.365984 0.334020
vt 0.365984 0.334027
vt 0.365995 0.334022
vt 0.366021 0.334171
vt 0.366010 0.334172
vt 0.366081 0.334401
vt 0.366094 0.334400
vt 0.366094 0.334433
vn -0.983139 0.055153 -0.174346
vn -0.983139 0.055153 -0.174346
vn -0.983139 0.055153 -0.174345
vn -0.983139 0.055153 -0.174346
vn -0.308240 0.071232 -0.948638
vn -0.308240 0.071232 -0.948638
vn -0.308240 0.071232 -0.948638
vn -0.308240 0.071232 -0.948638
vn 0.664016 0.019571 -0.747462
vn 0.664016 0.019571 -0.747462
vn 0.664016 0.019571 -0.747462
vn 0.664016 0.019571 -0.747462
vn 0.664016 0.019571 -0.747462
vn 0.983856 -0.049744 0.171910
vn 0.983856 -0.049744 0.171910
vn 0.983856 -0.049744 0.171910
vn 0.983856 -0.049744 0.171910
vn 0.335123 -0.067908 0.939724
vn 0.335124 -0.067908 0.939724
vn 0.335124 -0.067908 0.939724
vn 0.335124 -0.067908 0.939724
vn 0.335123 -0.067908 0.939724
vn -0.673651 -0.011390 0.738962
vn -0.673651 -0.011390 0.738962
vn -0.673651 -0.011390 0.738962
vn -0.673651 -0.011390 0.738962
vn -0.673651 -0.011390 0.738962
vn -0.983143 -0.109838 -0.146167
vn -0.983143 -0.109838 -0.146167
vn -0.983143 -0.109838 -0.146167
vn -0.390537 -0.076392 -0.917412
vn -0.390537 -0.076392 -0.917412
vn -0.390537 -0.076392 -0.917412
vn 0.573035 -0.155472 -0.804649
vn 0.573035 -0.155472 -0.804649
vn 0.573035 -0.155472 -0.804649
vn 0.958255 -0.271382 0.090000
vn 0.958255 -0.271381 0.090000
vn 0.958255 -0.271382 0.090000
vn 0.147026 -0.292292 0.944960
vn 0.147026 -0.292292 0.944960
vn 0.147026 -0.292292 0.944960
vn 0.147026 -0.292292 0.944960
vn -0.448746 -0.255615 0.856322
vn -0.448746 -0.255615 0.856322
vn -0.448746 -0.255615 0.856322
vn -0.448746 -0.255615 0.856322
vn -0.935258 0.340694 -0.096024
vn -0.935258 0.340694 -0.096024
vn -0.935258 0.340694 -0.096024
vn -0.348348 0.391975 -0.851475
vn -0.348348 0.391975 -0.851475
vn -0.348348 0.391975 -0.851475
vn 0.668969 0.257969 -0.697088
vn 0.668969 0.257969 -0.697088
vn 0.668969 0.257969 -0.697088
vn 0.668969 0.257969 -0.697088
vn 0.993433 0.101745 0.052334
vn 0.993433 0.101745 0.052334
vn 0.993433 0.101745 0.052334
vn 0.993433 0.101745 0.052334
vn 0.389075 0.030270 0.920709
vn 0.389075 0.030270 0.920709
vn 0.389075 0.030270 0.920709
vn -0.581121 0.160951 0.797743
vn -0.581121 0.160951 0.797743
vn -0.581121 0.160951 0.797743
vn -0.974360 0.129643 -0.183890
vn -0.974360 0.129643 -0.183890
vn -0.974360 0.129643 -0.183890
vn -0.974360 0.129643 -0.183890
vn -0.322859 0.172087 -0.930671
vn -0.322859 0.172087 -0.930671
vn -0.322859 0.172087 -0.930671
vn -0.322859 0.172087 -0.930671
vn 0.659644 0.030241 -0.750969
vn 0.659644 0.030241 -0.750969
vn 0.659644 0.030241 -0.750969
vn 0.659644 0.030241 -0.750969
vn 0.659644 0.030241 -0.750969
vn 0.976464 -0.150464 0.154524
vn 0.976464 -0.150464 0.154524
vn 0.976464 -0.150464 0.154524
vn 0.976464 -0.150464 0.154524
vn 0.976464 -0.150465 0.154524
vn 0.340070 -0.197489 0.919429
vn 0.340070 -0.197489 0.919430
vn 0.340070 -0.197489 0.919430
vn 0.340070 -0.197489 0.919429
vn 0.340070 -0.197489 0.919430
vn -0.654142 -0.056217 0.754279
vn -0.654142 -0.056217 0.754279
vn -0.654142 -0.056217 0.754279
vn -0.654142 -0.056217 0.754279
vn -0.654142 -0.056217 0.754279
vn -0.946973 0.110528 -0.301704
vn -0.946973 0.110528 -0.301704
vn -0.946973 0.110528 -0.301704
vn -0.946973 0.110528 -0.301704
vn -0.236506 0.128443 -0.963103
vn -0.236506 0.128443 -0.963103
vn -0.236506 0.128443 -0.963103
vn -0.236506 0.128443 -0.963103
vn 0.697990 0.024965 -0.715673
vn 0.697990 0.024965 -0.715673
vn 0.697990 0.024965 -0.715673
vn 0.697990 0.024965 -0.715673
vn 0.697990 0.024965 -0.715673
vn 0.952087 -0.108094 0.286086
vn 0.952087 -0.108094 0.286086
vn 0.952087 -0.108094 0.286086
vn 0.952087 -0.108094 0.286086
vn 0.215050 -0.122687 0.968866
vn 0.215050 -0.122687 0.968866
vn 0.215050 -0.122687 0.968866
vn 0.215050 -0.122687 0.968866
vn 0.215050 -0.122687 0.968866
vn -0.698952 -0.021927 0.714832
vn -0.698952 -0.021927 0.714832
vn -0.698952 -0.021927 0.714832
vn -0.698952 -0.021927 0.714832
vn -0.698952 -0.021927 0.714832
vn 0.741068 0.113592 -0.661752
vn 0.741068 0.113592 -0.661752
vn 0.741068 0.113592 -0.661752
vn 0.994092 -0.033767 0.103152
vn 0.994092 -0.033767 0.103152
vn 0.994092 -0.033767 0.103152
vn -0.309900 0.085161 0.946948
vn -0.309900 0.085161 0.946948
vn -0.309900 0.085161 0.946948
vn -0.387263 -0.601704 0.698555
vn -0.387263 -0.601704 0.698555
vn -0.387263 -0.601704 0.698555
vn 0.511636 -0.251349 0.821616
vn 0.511636 -0.251349 0.821616
vn 0.511636 -0.251349 0.821616
vn -0.120607 -0.261707 0.957582
vn -0.120607 -0.261707 0.957582
vn -0.120607 -0.261707 0.957582
vn 0.975625 -0.215765 0.040024
vn 0.975625 -0.215765 0.040024
vn 0.975625 -0.215765 0.040024
vn 0.964107 -0.217984 0.151593
vn 0.964107 -0.217984 0.151593
vn 0.964107 -0.217984 0.151593
vn 0.420042 0.243627 -0.874191
vn 0.420042 0.243627 -0.874191
vn 0.420042 0.243627 -0.874191
vn 0.979332 0.195661 -0.051240
vn 0.979332 0.195661 -0.051240
vn 0.979332 0.195661 -0.051240
vn -0.095325 -0.882185 -0.461154
vn -0.095325 -0.882185 -0.461154
vn -0.095325 -0.882185 -0.461154
vn -0.095325 -0.882185 -0.461154
vn -0.786562 -0.617063 0.023536
vn -0.786562 -0.617063 0.023536
vn -0.786562 -0.617063 0.023536
vn -0.786562 -0.617063 0.023536
vn -0.670356 0.456648 0.584889
vn -0.670356 0.456648 0.584889
vn -0.670356 0.456648 0.584889
vn -0.670356 0.456648 0.584889
vn 0.095340 0.882222 0.461079
vn 0.095340 0.882223 0.461079
vn 0.095340 0.882222 0.461079
vn 0.095340 0.882223 0.461079
vn 0.786444 0.617210 -0.023607
vn 0.786444 0.617210 -0.023607
vn 0.786444 0.617210 -0.023607
vn 0.786444 0.617210 -0.023607
vn 0.670358 -0.456650 -0.584886
vn 0.670358 -0.456650 -0.584886
vn 0.670358 -0.456650 -0.584886
vn 0.670358 -0.456650 -0.584886
vn 0.183521 -0.716728 0.672772
vn 0.480827 -0.684001 0.548588
vn 0.384888 -0.459919 0.800210
vn 0.106879 -0.469717 0.876324
vn 0.183521 -0.716728 0.672772
vn 0.384888 -0.459919 0.800210
vn 0.241645 -0.179431 0.953631
vn 0.106879 -0.469717 0.876324
vn 0.384888 -0.459919 0.800210
vn 0.539002 -0.146552 0.829457
vn 0.241645 -0.179431 0.953631
vn 0.384888 -0.459919 0.800210
vn 0.630876 -0.411876 0.657537
vn 0.539002 -0.146552 0.829457
vn 0.384888 -0.459919 0.800210
vn 0.480827 -0.684001 0.548588
vn 0.630876 -0.411876 0.657537
vn 0.384888 -0.459919 0.800210
vn -0.241678 0.179405 -0.953628
vn -0.538955 0.146793 -0.829445
vn -0.384887 0.459866 -0.800241
vn -0.538955 0.146793 -0.829445
vn -0.630876 0.411862 -0.657545
vn -0.384887 0.459866 -0.800241
vn -0.630876 0.411862 -0.657545
vn -0.480906 0.683815 -0.548750
vn -0.384887 0.459866 -0.800241
vn -0.480906 0.683815 -0.548750
vn -0.183604 0.716661 -0.672820
vn -0.384887 0.459866 -0.800241
vn -0.183604 0.716661 -0.672820
vn -0.107003 0.469617 -0.876362
vn -0.384887 0.459866 -0.800241
vn -0.107003 0.469617 -0.876362
vn -0.241678 0.179405 -0.953628
vn -0.384887 0.459866 -0.800241
vn 0.230840 0.852174 0.469588
vn 0.230840 0.852174 0.469588
vn 0.230840 0.852174 0.469588
vn 0.230840 0.852174 0.469588
vn -0.054568 0.702251 -0.709835
vn -0.054568 0.702251 -0.709835
vn -0.054568 0.702251 -0.709835
vn -0.054568 0.702251 -0.709835
vn -0.230168 -0.853056 -0.468315
vn -0.230168 -0.853056 -0.468315
vn -0.230168 -0.853056 -0.468315
vn -0.230168 -0.853056 -0.468315
vn 0.904715 -0.018037 -0.425635
vn 0.904715 -0.018037 -0.425635
vn 0.904715 -0.018037 -0.425635
vn 0.904715 -0.018037 -0.425635
vn -0.904100 0.016718 0.426994
vn -0.904100 0.016718 0.426994
vn -0.904100 0.016718 0.426994
vn -0.904100 0.016718 0.426994
vn 0.352093 0.602469 0.716283
vn 0.352093 0.602469 0.716283
vn 0.352093 0.602469 0.716283
vn 0.933715 -0.113899 -0.339417
vn 0.933715 -0.113899 -0.339417
vn 0.933715 -0.113899 -0.339417
vn -0.186966 -0.905747 -0.380350
vn -0.186966 -0.905747 -0.380350
vn -0.186966 -0.905747 -0.380350
vn -0.717778 -0.273922 0.640127
vn -0.717778 -0.273922 0.640127
vn -0.717778 -0.273922 0.640127
vn -0.269748 -0.770733 -0.577241
vn -0.269748 -0.770733 -0.577241
vn -0.269748 -0.770732 -0.577241
vn -0.269748 -0.770733 -0.577241
vn 0.891742 0.013307 -0.452349
vn 0.891742 0.013307 -0.452349
vn 0.891742 0.013307 -0.452349
vn 0.891742 0.013307 -0.452349
vn 0.267472 0.778010 0.568470
vn 0.267472 0.778010 0.568470
vn 0.267472 0.778010 0.568470
vn 0.267472 0.778010 0.568470
vn -0.884958 -0.028093 0.464822
vn -0.884958 -0.028093 0.464822
vn -0.884958 -0.028093 0.464822
vn -0.884958 -0.028093 0.464822
vn -0.251956 0.967730 0.004085
vn -0.251956 0.967730 0.004085
vn -0.251956 0.967730 0.004085
vn -0.251956 0.967730 0.004085
vn 0.768704 0.345533 0.538239
vn 0.768704 0.345533 0.538239
vn 0.768704 0.345533 0.538239
vn 0.768704 0.345533 0.538239
vn 0.251005 -0.967977 -0.004225
vn 0.251005 -0.967977 -0.004225
vn 0.251005 -0.967977 -0.004225
vn 0.251005 -0.967977 -0.004225
vn -0.136248 -0.060164 0.988846
vn -0.136248 -0.060164 0.988846
vn -0.136248 -0.060164 0.988846
vn -0.136248 -0.060164 0.988846
vn 0.135153 0.059673 -0.989026
vn 0.135153 0.059673 -0.989026
vn 0.135153 0.059673 -0.989026
vn 0.135153 0.059673 -0.989026
vn -0.446649 0.894342 -0.025616
vn -0.446649 0.894342 -0.025616
vn -0.446649 0.894342 -0.025616
vn -0.221335 -0.098320 0.970229
vn -0.221335 -0.098320 0.970229
vn -0.221335 -0.098320 0.970229
vn 0.184636 -0.982708 -0.013925
vn 0.184636 -0.982708 -0.013925
vn 0.184636 -0.982708 -0.013925
vn -0.082946 -0.038163 -0.995823
vn -0.082946 -0.038163 -0.995823
vn -0.082946 -0.038163 -0.995823
vn 0.322730 -0.946325 0.017715
vn 0.322730 -0.946325 0.017715
vn 0.322730 -0.946325 0.017715
vn 0.322730 -0.946325 0.017715
vn -0.142341 -0.063116 0.987803
vn -0.142341 -0.063116 0.987803
vn -0.142341 -0.063116 0.987803
vn -0.142341 -0.063116 0.987803
vn -0.316896 0.948339 -0.015165
vn -0.316896 0.948339 -0.015165
vn -0.316896 0.948339 -0.015165
vn -0.316896 0.948339 -0.015165
vn 0.130768 0.057668 -0.989734
vn 0.130768 0.057668 -0.989734
vn 0.130768 0.057668 -0.989734
vn 0.130768 0.057668 -0.989734
vn 0.193420 0.968620 0.156088
vn 0.193420 0.968620 0.156088
vn 0.193420 0.968620 0.156088
vn 0.193420 0.968620 0.156088
vn -0.876262 0.423720 0.229402
vn -0.876262 0.423720 0.229402
vn -0.876262 0.423721 0.229402
vn -0.876262 0.423720 0.229402
vn -0.193802 -0.968567 -0.155942
vn -0.193802 -0.968567 -0.155942
vn -0.193802 -0.968567 -0.155942
vn -0.193802 -0.968567 -0.155942
vn -0.334753 0.201848 -0.920433
vn -0.334753 0.201848 -0.920434
vn -0.334753 0.201848 -0.920433
vn -0.334753 0.201848 -0.920434
vn 0.335056 -0.202040 0.920281
vn 0.335056 -0.202040 0.920281
vn 0.335056 -0.202040 0.920281
vn 0.335056 -0.202040 0.920281
vn 0.231943 0.923461 0.305652
vn 0.231943 0.923461 0.305652
vn 0.231943 0.923461 0.305652
vn 0.034087 0.351123 -0.935709
vn 0.034087 0.351123 -0.935709
vn 0.034087 0.351123 -0.935709
vn 0.046357 -0.943823 -0.327185
vn 0.046357 -0.943823 -0.327185
vn 0.046357 -0.943823 -0.327185
vn 0.289283 -0.394186 0.872315
vn 0.289283 -0.394186 0.872315
vn 0.289283 -0.394186 0.872315
vn -0.286409 -0.951135 0.115383
vn -0.286409 -0.951135 0.115383
vn -0.286409 -0.951135 0.115383
vn -0.286409 -0.951135 0.115383
vn -0.430219 0.030358 -0.902214
vn -0.430219 0.030358 -0.902214
vn -0.430219 0.030358 -0.902214
vn -0.430219 0.030358 -0.902214
vn 0.280818 0.953120 -0.112706
vn 0.280818 0.953120 -0.112706
vn 0.280818 0.953120 -0.112706
vn 0.280818 0.953120 -0.112706
vn 0.446186 -0.038656 0.894105
vn 0.446186 -0.038656 0.894105
vn 0.446186 -0.038656 0.894105
vn 0.446186 -0.038656 0.894105
s off
f 1/1/1 21/4/2 22/3/3 2/2/4
f 2/2/5 22/3/6 23/6/7 3/5/8
f 3/5/9 23/6/10 36/9/11 24/8/12 4/7/13
f 4/7/14 24/8/15 25/11/16 5/10/17
f 5/10/18 25/11/19 26/14/20 6/13/21 33/12/22
f 6/13/23 26/14/24 21/4/25 1/1/26 34/15/27
f 2/2/28 13/16/29 1/1/30
f 3/5/31 13/16/32 2/2/33
f 4/7/34 13/16/35 3/5/36
f 5/10/37 13/16/38 4/7/39
f 35/17/40 13/16/41 5/10/42 33/12/43
f 1/1/44 13/16/45 35/17/46 34/15/47
f 7/18/48 14/20/49 8/19/50
f 8/19/51 14/20/52 9/21/53
f 9/21/54 14/20/55 10/23/56 27/22/57
f 10/23/58 14/20/59 11/25/60 28/24/61
f 11/25/62 14/20/63 12/26/64
f 12/26/65 14/20/66 7/18/67
f 15/27/68 7/18/69 8/19/70 16/28/71
f 16/28/72 8/19/73 9/21/74 17/29/75
f 17/29/76 9/21/77 27/22/78 29/31/79 18/30/80
f 18/30/81 29/31/82 28/24/83 11/25/84 19/32/85
f 19/32/86 11/25/87 12/26/88 31/34/89 30/33/90
f 31/34/91 12/26/92 7/18/93 15/27/94 32/35/95
f 21/4/96 15/27/97 16/28/98 22/3/99
f 22/3/100 16/28/101 17/29/102 23/6/103
f 23/6/104 17/29/105 18/30/106 37/36/107 36/9/108
f 37/36/109 18/30/110 19/32/111 25/11/112
f 25/11/113 19/32/114 30/33/115 20/37/116 26/14/117
f 26/14/118 20/37/119 32/35/120 15/27/121 21/4/122
f 29/31/123 10/23/124 28/24/125
f 27/22/126 10/23/127 29/31/128
f 32/35/129 20/37/130 30/33/131
f 31/34/132 32/35/133 30/33/134
f 35/17/135 6/13/136 34/15/137
f 6/13/138 35/17/139 33/12/140
f 37/36/141 38/38/142 36/9/143
f 38/38/144 37/36/145 25/11/146
f 38/38/147 24/8/148 36/9/149
f 24/8/150 38/38/151 25/11/152
f 39/39/153 40/40/154 46/41/155 45/42/156
f 40/40/157 41/43/158 47/44/159 46/41/160
f 41/43/161 42/45/162 48/46/163 47/44/164
f 42/45/165 43/47/166 49/48/167 48/46/168
f 43/47/169 44/49/170 50/50/171 49/48/172
f 44/49/173 39/39/174 45/42/175 50/50/176
f 40/40/177 39/39/178 51/51/179
f 41/43/180 40/40/181 51/51/182
f 42/45/183 41/43/184 51/51/185
f 43/47/186 42/45/187 51/51/188
f 44/49/189 43/47/190 51/51/191
f 39/39/192 44/49/193 51/51/194
f 45/42/195 46/41/196 52/52/197
f 46/41/198 47/44/199 52/52/200
f 47/44/201 48/46/202 52/52/203
f 48/46/204 49/48/205 52/52/206
f 49/48/207 50/50/208 52/52/209
f 50/50/210 45/42/211 52/52/212
f 58/53/213 59/54/214 64/55/215 65/56/216
f 54/57/217 55/58/218 57/59/219 56/60/220
f 62/61/221 63/62/222 60/63/223 61/64/224
f 59/54/225 60/63/226 63/62/227 64/55/228
f 65/56/229 62/61/230 61/64/231 58/53/232
f 53/65/233 59/54/234 58/53/235
f 53/65/236 60/63/237 59/54/238
f 61/64/239 60/63/240 53/65/241
f 58/53/242 61/64/243 53/65/244
f 56/60/245 57/59/246 63/62/247 62/61/248
f 64/55/249 63/62/250 57/59/251 55/58/252
f 65/56/253 64/55/254 55/58/255 54/57/256
f 56/60/257 62/61/258 65/56/259 54/57/260
f 71/66/261 72/67/262 77/68/263 78/69/264
f 67/70/265 68/71/266 70/72/267 69/73/268
f 75/74/269 76/75/270 73/76/271 74/77/272
f 72/67/273 73/76/274 76/75/275 77/68/276
f 78/69/277 75/74/278 74/77/279 71/66/280
f 66/78/281 72/67/282 71/66/283
f 66/78/284 73/76/285 72/67/286
f 74/77/287 73/76/288 66/78/289
f 71/66/290 74/77/291 66/78/292
f 69/73/293 70/72/294 76/75/295 75/74/296
f 77/68/297 76/75/298 70/72/299 68/71/300
f 78/69/301 77/68/302 68/71/303 67/70/304
f 69/73/305 75/74/306 78/69/307 67/70/308
f 84/79/309 85/80/310 90/81/311 91/82/312
f 80/83/313 81/84/314 83/85/315 82/86/316
f 88/87/317 89/88/318 86/89/319 87/90/320
f 85/80/321 86/89/322 89/88/323 90/81/324
f 91/82/325 88/87/326 87/90/327 84/79/328
f 79/91/329 85/80/330 84/79/331
f 79/91/332 86/89/333 85/80/334
f 87/90/335 86/89/336 79/91/337
f 84/79/338 87/90/339 79/91/340
f 82/86/341 83/85/342 89/88/343 88/87/344
f 90/81/345 89/88/346 83/85/347 81/84/348
f 91/82/349 90/81/350 81/84/351 80/83/352
f 82/86/353 88/87/354 91/82/355 80/83/356
