# This file uses centimeters as units for non-parametric coordinates.

v -357.154297 290.426514 208.495117
v -555.330078 324.118164 -49.761719
v -221.490234 404.757080 -84.759766
v -492.001953 308.302124 19.855469
v -490.888672 302.344788 42.497070
v -468.724609 314.821655 29.531250
v -406.615234 291.859772 158.060547
v -379.962891 287.738373 176.032227
v -371.666016 317.451019 125.435547
v -397.111328 328.855560 43.505859
v -389.673828 337.251740 28.312500
v -368.275391 340.660065 38.046875
v -365.349609 336.033905 52.496094
v -378.685547 328.672882 59.921875
v -389.685547 363.749512 -54.754883
v -302.099609 336.460510 117.886719
v -388.496765 331.772339 26.279596
v -467.197754 309.392151 27.570913
v -395.721466 323.451538 41.399323
v -376.825836 323.255493 58.271210
v -369.776672 312.102295 123.601082
v -489.331543 296.885925 40.641579
v -405.058105 286.400909 156.205048
v -367.011444 335.036835 36.495884
v -220.226288 399.133850 -86.310760
v -363.570282 330.527527 51.076294
v -300.290649 331.022797 116.283119
v -553.946228 318.646820 -51.706818
v -388.484253 358.173431 -56.521503
v -490.505371 302.901978 17.790291
v -377.741333 282.499786 174.218811
v -354.932739 285.187927 206.681702
v -342.876953 291.183777 223.571289
v -59.408203 298.768311 385.061523
v -204.916016 409.374329 -79.648438
v 12.916016 428.394470 23.684570
v -289.455078 340.596924 129.541016
v -33.810547 355.760925 243.124023
v -299.490234 285.629364 247.997070
v -252.970703 288.078766 274.791992
v -263.630859 299.600616 253.922852
v -156.814453 347.205261 201.047852
v -136.669922 348.400208 209.997070
v -155.185547 333.922363 235.963867
v -168.373047 338.281555 216.963867
v -143.490234 356.076782 189.838867
v -127.400391 294.601501 357.131836
v -107.083984 294.518799 357.903320
v -119.744141 300.727295 332.489258
v -28.177734 424.319153 11.732422
v -13.033203 425.821167 16.137695
v -27.224609 414.690369 32.822266
v -287.939697 335.107025 127.795105
v -155.479843 341.632996 199.384811
v -142.525360 350.396881 188.306519
v -203.736237 403.693542 -81.058533
v -154.011200 328.455811 233.881561
v -262.139099 294.244476 251.757950
v -251.718445 282.691620 272.538818
v -126.148148 289.214355 354.878662
v -118.481941 295.288422 330.375061
v -25.925840 409.060760 31.333250
v -27.117683 418.612244 10.327400
v -167.003326 332.791687 215.052979
v -32.405724 350.239471 241.349930
v -105.811829 289.028198 355.928101
v -58.136047 293.277710 383.086304
v -135.865311 342.826019 208.045456
v 14.453505 422.842163 22.111561
v -11.495714 420.268860 14.564688
v -341.145691 285.858643 221.494659
v -297.758972 280.304230 245.920441
v -37.982422 303.024414 384.868164
v 225.876953 328.363617 350.987305
v 26.927734 429.963623 25.091797
v 296.458984 419.008728 168.498047
v -14.455078 361.456787 233.750977
v 283.072266 376.865814 263.514648
v 276.130859 365.049347 290.231445
v 237.451172 376.352814 262.508789
v 4.521484 307.693573 374.422852
v 24.302734 309.470001 369.561523
v 11.701172 317.261566 349.631836
v -14.250474 355.830505 231.782501
v 238.051315 370.906189 260.149902
v 27.565298 424.381256 23.092157
v -38.012558 297.455872 382.710266
v 4.491349 302.125031 372.264954
v 11.868348 311.771027 347.304108
v 24.667225 304.057465 367.063965
v 226.241455 322.951080 348.489746
v 276.495361 359.636810 287.733887
v 283.908020 371.385101 261.294434
v 297.294739 413.528015 166.277832
vt 0.143204 0.191226
vt 0.143204 0.187463
vt 0.143204 0.174462
vt 0.143204 0.191226
vt 0.143204 0.191226
vt 0.143204 0.174462
vt 0.143204 0.191226
vt 0.143204 0.173093
vt 0.143204 0.191226
vt 0.143204 0.191226
vt 0.143204 0.191226
vt 0.143204 0.191226
vt 0.143204 0.191226
vt 0.143204 0.174462
vt 0.143204 0.191226
vt 0.143204 0.191226
vt 0.143204 0.191226
vt 0.143204 0.174462
vt 0.143204 0.187463
vt 0.143204 0.191226
vt 0.143204 0.191226
vt 0.143204 0.174462
vt 0.143204 0.191226
vt 0.143204 0.173093
vt 0.143204 0.191226
vt 0.143204 0.191226
vt 0.143204 0.191226
vt 0.143204 0.191226
vt 0.143204 0.191226
vt 0.143204 0.174462
vt 0.143204 0.191226
vt 0.143204 0.191226
vt 0.143204 0.187463
vt 0.143204 0.191226
vt 0.143204 0.191226
vt 0.143204 0.174462
vt 0.143204 0.174462
vt 0.143204 0.191226
vt 0.143204 0.191226
vt 0.143204 0.191226
vt 0.143204 0.191226
vt 0.143204 0.191226
vt 0.143204 0.173093
vt 0.143204 0.191226
vt 0.143204 0.191226
vt 0.143204 0.174462
vt 0.143204 0.191226
vt 0.143204 0.191226
vt 0.152979 0.215381
vt 0.152979 0.215381
vt 0.152979 0.215381
vt 0.152979 0.215381
vt 0.152979 0.215381
vt 0.152979 0.215381
vt 0.152979 0.215381
vt 0.152979 0.195196
vt 0.152979 0.195196
vt 0.152979 0.199301
vt 0.152979 0.199301
vt 0.152979 0.215381
vt 0.152979 0.215381
vt 0.152979 0.199985
vt 0.152979 0.202722
vt 0.152979 0.215381
vt 0.152979 0.199301
vt 0.152979 0.199301
vt 0.152979 0.195196
vt 0.152979 0.195196
vt 0.152979 0.215381
vt 0.152979 0.215381
vt 0.152979 0.215381
vt 0.152979 0.215381
vt 0.152979 0.215381
vt 0.152979 0.195196
vt 0.152979 0.195196
vt 0.152979 0.215381
vt 0.152979 0.215381
vt 0.152979 0.199301
vt 0.152979 0.199301
vt 0.152979 0.215381
vt 0.152979 0.215381
vt 0.152979 0.202722
vt 0.152979 0.199985
vt 0.152979 0.215381
vt 0.152979 0.199301
vt 0.152979 0.199301
vt 0.152979 0.195196
vt 0.152979 0.195196
vt 0.152979 0.215381
vt 0.152979 0.215381
vt 0.152979 0.215381
vt 0.152979 0.215381
vt 0.152979 0.195196
vt 0.152979 0.195196
vt 0.152979 0.215381
vt 0.152979 0.215381
vt 0.152979 0.199301
vt 0.152979 0.199301
vt 0.152979 0.215381
vt 0.152979 0.215381
vt 0.152979 0.202722
vt 0.152979 0.199985
vt 0.152979 0.215381
vt 0.152979 0.215381
vt 0.152979 0.199301
vt 0.152979 0.199301
vt 0.152979 0.195196
vt 0.152979 0.195196
vt 0.152979 0.215381
vt 0.152979 0.215381
vt 0.152979 0.201354
vt 0.152979 0.215381
vt 0.152979 0.215381
vt 0.152979 0.215381
vt 0.152979 0.201354
vt 0.152979 0.197933
vt 0.152979 0.215381
vt 0.152979 0.215381
vt 0.152979 0.201354
vt 0.152979 0.215381
vt 0.152979 0.201354
vt 0.152979 0.215381
vt 0.152979 0.215381
vt 0.152979 0.215381
vt 0.152979 0.215381
vt 0.152979 0.215381
vt 0.152979 0.197933
vt 0.152979 0.201354
vt 0.152979 0.201354
vt 0.152979 0.215381
vt 0.152979 0.215381
vt 0.152979 0.215381
vt 0.152979 0.215381
vt 0.152979 0.215381
vt 0.152979 0.215381
vt 0.152979 0.215381
vt 0.152979 0.197933
vt 0.152979 0.201354
vt 0.152979 0.201354
vt 0.152979 0.201354
vt 0.152979 0.215381
vn 0.248068 -0.893888 -0.373398
vn 0.248068 -0.893888 -0.373398
vn 0.248068 -0.893888 -0.373398
vn 0.290900 -0.916062 -0.276057
vn 0.290900 -0.916062 -0.276057
vn 0.290900 -0.916062 -0.276057
vn 0.290900 -0.916062 -0.276057
vn 0.290900 -0.916062 -0.276057
vn 0.290900 -0.916062 -0.276057
vn 0.225788 -0.945069 -0.236357
vn 0.225788 -0.945069 -0.236357
vn 0.225788 -0.945069 -0.236357
vn 0.225788 -0.945069 -0.236357
vn 0.213707 -0.930741 -0.296733
vn 0.213707 -0.930741 -0.296733
vn 0.213707 -0.930741 -0.296733
vn 0.279914 -0.869130 -0.407752
vn 0.279914 -0.869130 -0.407752
vn 0.279914 -0.869130 -0.407752
vn 0.279914 -0.869130 -0.407752
vn 0.190723 -0.941402 -0.278187
vn 0.190723 -0.941402 -0.278187
vn 0.190723 -0.941401 -0.278187
vn 0.190723 -0.941402 -0.278187
vn 0.387935 -0.900687 -0.195624
vn 0.387935 -0.900688 -0.195624
vn 0.387935 -0.900688 -0.195624
vn 0.234580 -0.946769 -0.220455
vn 0.234580 -0.946769 -0.220455
vn 0.234580 -0.946769 -0.220455
vn 0.301579 -0.889924 -0.342178
vn 0.301578 -0.889924 -0.342178
vn 0.301578 -0.889924 -0.342178
vn 0.301579 -0.889924 -0.342178
vn -0.247971 0.894183 0.372755
vn -0.247971 0.894184 0.372755
vn -0.247971 0.894183 0.372755
vn -0.290909 0.916064 0.276039
vn -0.290909 0.916064 0.276039
vn -0.290909 0.916064 0.276039
vn -0.290909 0.916064 0.276039
vn -0.290909 0.916064 0.276039
vn -0.290909 0.916064 0.276039
vn -0.225609 0.945025 0.236705
vn -0.225609 0.945025 0.236705
vn -0.225609 0.945025 0.236705
vn -0.225609 0.945025 0.236705
vn -0.213721 0.930682 0.296910
vn -0.213721 0.930682 0.296910
vn -0.213721 0.930682 0.296910
vn -0.279630 0.869410 0.407350
vn -0.279630 0.869409 0.407350
vn -0.279630 0.869409 0.407350
vn -0.279630 0.869409 0.407350
vn -0.190787 0.941375 0.278234
vn -0.190787 0.941375 0.278234
vn -0.190787 0.941375 0.278234
vn -0.190787 0.941375 0.278234
vn -0.388049 0.900591 0.195841
vn -0.388049 0.900591 0.195841
vn -0.388049 0.900591 0.195841
vn -0.234712 0.946644 0.220852
vn -0.234712 0.946644 0.220852
vn -0.234712 0.946644 0.220852
vn -0.301344 0.889988 0.342218
vn -0.301344 0.889988 0.342218
vn -0.301344 0.889988 0.342218
vn -0.301344 0.889988 0.342218
vn 0.891140 0.038215 0.452116
vn 0.891140 0.038215 0.452116
vn 0.891140 0.038215 0.452116
vn 0.891140 0.038215 0.452116
vn 0.607308 0.417127 -0.676152
vn 0.607308 0.417127 -0.676152
vn 0.607308 0.417127 -0.676152
vn 0.607308 0.417127 -0.676152
vn -0.555963 0.130229 -0.820942
vn -0.555963 0.130229 -0.820942
vn -0.555963 0.130229 -0.820942
vn -0.555963 0.130229 -0.820942
vn -0.759624 -0.392851 0.518305
vn -0.759624 -0.392851 0.518305
vn -0.759624 -0.392851 0.518304
vn -0.759624 -0.392851 0.518305
vn 0.690623 -0.026521 0.722729
vn 0.690623 -0.026521 0.722729
vn 0.690623 -0.026521 0.722729
vn 0.690623 -0.026521 0.722729
vn -0.949623 -0.290834 0.116756
vn -0.949623 -0.290834 0.116755
vn -0.949623 -0.290834 0.116756
vn -0.949623 -0.290834 0.116755
vn 0.877649 0.134071 0.460172
vn 0.879179 0.134185 0.457208
vn 0.904440 0.135944 0.404362
vn 0.904440 0.135944 0.404362
vn -0.162856 0.263817 -0.950725
vn -0.163345 0.263564 -0.950712
vn -0.098918 0.296047 -0.950038
vn -0.098918 0.296047 -0.950037
vn -0.720836 -0.399827 0.566157
vn -0.720836 -0.399827 0.566157
vn -0.720836 -0.399827 0.566157
vn -0.720836 -0.399827 0.566157
vn -0.256344 -0.398847 0.880459
vn -0.256344 -0.398847 0.880459
vn -0.256344 -0.398847 0.880459
vn -0.256344 -0.398847 0.880459
vn -0.347952 -0.356407 0.867124
vn -0.347952 -0.356407 0.867124
vn -0.347952 -0.356407 0.867124
vn -0.347952 -0.356407 0.867124
vn -0.224525 0.231017 -0.946689
vn -0.224525 0.231017 -0.946689
vn -0.510273 0.070920 -0.857083
vn -0.510273 0.070920 -0.857083
vn -0.510273 0.070920 -0.857083
vn -0.510273 0.070920 -0.857083
vn -0.920164 -0.254885 -0.297208
vn -0.920164 -0.254885 -0.297208
vn -0.920164 -0.254885 -0.297208
vn -0.920164 -0.254885 -0.297208
vn -0.698639 -0.479954 0.530610
vn -0.698639 -0.479954 0.530610
vn -0.698639 -0.479954 0.530610
vn -0.698639 -0.479954 0.530610
vn 0.817648 0.129111 0.561054
vn 0.817648 0.129111 0.561054
vn 0.201498 -0.948466 -0.244562
vn 0.201498 -0.948466 -0.244562
vn 0.201498 -0.948466 -0.244562
vn 0.201498 -0.948466 -0.244562
vn 0.227431 -0.896512 -0.380186
vn 0.227431 -0.896512 -0.380186
vn 0.227431 -0.896512 -0.380186
vn 0.227431 -0.896512 -0.380186
vn 0.227431 -0.896512 -0.380186
vn 0.183927 -0.951780 -0.245531
vn 0.183927 -0.951780 -0.245531
vn 0.183927 -0.951780 -0.245531
vn 0.183927 -0.951780 -0.245531
vn 0.233438 -0.907833 -0.348348
vn 0.233533 -0.908033 -0.347762
vn 0.231620 -0.907674 -0.349972
vn 0.253201 -0.911318 -0.324637
vn 0.253201 -0.911318 -0.324637
vn 0.253201 -0.911318 -0.324637
vn 0.253201 -0.911318 -0.324637
vn 0.185679 -0.906691 -0.378728
vn 0.185679 -0.906691 -0.378728
vn 0.185679 -0.906691 -0.378728
vn 0.185679 -0.906691 -0.378728
vn 0.257178 -0.929776 -0.263394
vn 0.257178 -0.929776 -0.263394
vn 0.257178 -0.929776 -0.263394
vn 0.257178 -0.929776 -0.263394
vn 0.131249 -0.952356 -0.275304
vn 0.131249 -0.952356 -0.275304
vn 0.131249 -0.952356 -0.275304
vn 0.131249 -0.952356 -0.275304
vn 0.244084 -0.887280 -0.391354
vn 0.244084 -0.887280 -0.391354
vn 0.244084 -0.887280 -0.391354
vn 0.244084 -0.887280 -0.391354
vn -0.201631 0.948425 0.244611
vn -0.201631 0.948425 0.244612
vn -0.201631 0.948425 0.244611
vn -0.201631 0.948425 0.244611
vn -0.227411 0.896543 0.380125
vn -0.227411 0.896543 0.380125
vn -0.227411 0.896543 0.380125
vn -0.227411 0.896543 0.380125
vn -0.227411 0.896543 0.380125
vn -0.183924 0.951764 0.245594
vn -0.183924 0.951764 0.245594
vn -0.183924 0.951764 0.245594
vn -0.183924 0.951764 0.245594
vn -0.233534 0.907850 0.348239
vn -0.231599 0.907752 0.349782
vn -0.233617 0.908069 0.347613
vn -0.253235 0.911326 0.324589
vn -0.253235 0.911326 0.324589
vn -0.253235 0.911326 0.324589
vn -0.253235 0.911326 0.324589
vn -0.185489 0.906804 0.378551
vn -0.185489 0.906804 0.378551
vn -0.185489 0.906804 0.378551
vn -0.185489 0.906804 0.378551
vn -0.257444 0.929703 0.263391
vn -0.257444 0.929703 0.263391
vn -0.257444 0.929703 0.263391
vn -0.257444 0.929703 0.263391
vn -0.131043 0.952362 0.275379
vn -0.131043 0.952362 0.275379
vn -0.131043 0.952362 0.275379
vn -0.131043 0.952362 0.275379
vn -0.244047 0.887398 0.391108
vn -0.244047 0.887398 0.391108
vn -0.244047 0.887398 0.391107
vn -0.244048 0.887398 0.391108
vn 0.743645 -0.033030 0.667758
vn 0.751010 -0.028716 0.659667
vn 0.672687 -0.071666 0.736449
vn 0.672687 -0.071666 0.736449
vn -0.909529 -0.105892 -0.401925
vn -0.909529 -0.105892 -0.401925
vn -0.892036 -0.094722 -0.441928
vn -0.891309 -0.094278 -0.443487
vn -0.901401 -0.340318 0.267693
vn -0.901401 -0.340318 0.267693
vn -0.901401 -0.340318 0.267693
vn -0.901401 -0.340318 0.267693
vn -0.478997 -0.431154 0.764636
vn -0.478997 -0.431154 0.764636
vn -0.478997 -0.431154 0.764636
vn -0.478997 -0.431154 0.764636
vn 0.944014 0.091372 0.317001
vn 0.944014 0.091372 0.317001
vn 0.944014 0.091372 0.317001
vn 0.944014 0.091372 0.317001
vn 0.980220 0.194127 0.038504
vn 0.980220 0.194127 0.038504
vn 0.980220 0.194127 0.038504
vn 0.980220 0.194127 0.038504
vn 0.419240 0.294738 -0.858701
vn 0.419240 0.294738 -0.858701
vn 0.419240 0.294738 -0.858701
vn 0.419240 0.294738 -0.858701
vn 0.803974 0.359362 -0.473798
vn 0.803974 0.359362 -0.473798
vn 0.803974 0.359362 -0.473798
vn 0.803974 0.359362 -0.473798
vn 0.805831 0.005703 0.592118
vn 0.805831 0.005703 0.592118
vn -0.873964 -0.334553 0.352507
vn -0.873964 -0.334553 0.352507
vn -0.873964 -0.334553 0.352507
vn -0.873964 -0.334553 0.352507
vn -0.428691 -0.392130 0.813915
vn -0.428691 -0.392130 0.813915
vn -0.428691 -0.392130 0.813915
vn -0.428691 -0.392130 0.813915
vn 0.959787 0.153233 0.235219
vn 0.959787 0.153233 0.235219
vn 0.953885 0.165652 0.250326
vn 0.953913 0.165595 0.250256
vn -0.829144 0.054658 -0.556357
vn -0.829144 0.054658 -0.556357
vn -0.829144 0.054658 -0.556357
vn -0.829144 0.054658 -0.556357
vn 0.949810 0.173735 0.260147
vn 0.949810 0.173735 0.260147
vn 0.234336 0.324510 -0.916395
vn 0.234336 0.324510 -0.916395
vn 0.234336 0.324510 -0.916395
vn 0.234336 0.324510 -0.916395
vn -0.755692 -0.012368 -0.654811
vn -0.755692 -0.012368 -0.654811
vn -0.755692 -0.012368 -0.654810
vn -0.755692 -0.012368 -0.654810
vn -0.946383 -0.221574 0.235084
vn -0.946383 -0.221574 0.235084
vn -0.946383 -0.221574 0.235084
vn -0.946383 -0.221574 0.235084
vn -0.850748 -0.071350 -0.520709
vn -0.850748 -0.071350 -0.520709
vn -0.481175 -0.449848 0.752401
vn -0.481175 -0.449848 0.752401
vn -0.276674 -0.428400 0.860189
vn -0.288134 -0.430154 0.855539
vn -0.007900 -0.371112 0.928555
vn -0.007900 -0.371112 0.928555
vn -0.225714 0.903640 0.363988
vn -0.230392 0.910563 0.343211
vn 0.230724 -0.910209 -0.343928
vn 0.225762 -0.903673 -0.363878
vn 0.089960 -0.951410 -0.294494
vn 0.089960 -0.951410 -0.294494
vn 0.089960 -0.951410 -0.294494
vn 0.013326 -0.933393 -0.358608
vn 0.013326 -0.933393 -0.358608
vn 0.013326 -0.933393 -0.358608
vn 0.013326 -0.933393 -0.358608
vn 0.075249 -0.905954 -0.416636
vn 0.075249 -0.905954 -0.416636
vn 0.075249 -0.905954 -0.416636
vn 0.075249 -0.905954 -0.416636
vn 0.075249 -0.905954 -0.416636
vn 0.075249 -0.905954 -0.416636
vn 0.126249 -0.930828 -0.342958
vn 0.126249 -0.930828 -0.342958
vn 0.126249 -0.930828 -0.342958
vn 0.126249 -0.930828 -0.342958
vn -0.089884 0.951403 0.294538
vn -0.089884 0.951403 0.294538
vn -0.089884 0.951403 0.294538
vn -0.013207 0.933426 0.358527
vn -0.013207 0.933426 0.358527
vn -0.013207 0.933426 0.358527
vn -0.013207 0.933426 0.358527
vn -0.075336 0.906006 0.416507
vn -0.075336 0.906006 0.416507
vn -0.075336 0.906006 0.416507
vn -0.075336 0.906006 0.416507
vn -0.075336 0.906006 0.416507
vn -0.075336 0.906006 0.416507
vn -0.126346 0.930789 0.343028
vn -0.126346 0.930789 0.343028
vn -0.126346 0.930789 0.343028
vn -0.126346 0.930789 0.343028
vn -0.980442 -0.004006 -0.196766
vn -0.980442 -0.004006 -0.196766
vn -0.984804 0.013138 -0.173174
vn -0.984798 0.013115 -0.173206
vn 0.259637 -0.350164 0.899985
vn 0.259637 -0.350164 0.899986
vn 0.259637 -0.350164 0.899985
vn 0.259637 -0.350164 0.899985
vn 0.964691 -0.088644 0.248020
vn 0.964691 -0.088644 0.248020
vn 0.964691 -0.088644 0.248020
vn 0.964691 -0.088644 0.248020
vn -0.989367 0.036477 -0.140793
vn -0.989367 0.036477 -0.140793
vn -0.857372 -0.242683 0.453892
vn -0.857372 -0.242683 0.453892
vn -0.857372 -0.242683 0.453892
vn -0.857372 -0.242683 0.453892
vn 0.121677 -0.409104 0.904339
vn 0.121677 -0.409104 0.904339
vn 0.121677 -0.409104 0.904339
vn 0.121677 -0.409104 0.904339
vn 0.810821 -0.199331 0.550306
vn 0.810821 -0.199331 0.550306
vn 0.810821 -0.199331 0.550306
vn 0.810821 -0.199331 0.550306
vn 0.610593 0.367883 -0.701312
vn 0.610593 0.367883 -0.701312
vn 0.610593 0.367883 -0.701312
vn 0.610593 0.367883 -0.701312
vn -0.017446 -0.388376 0.921336
vn -0.017446 -0.388376 0.921336
vn -0.017446 -0.388376 0.921336
vn -0.017446 -0.388376 0.921336
vn 0.981626 0.079395 0.173514
vn 0.981626 0.079395 0.173514
vn 0.981626 0.079395 0.173514
vn 0.981626 0.079395 0.173514
vn 0.447596 0.370116 -0.814047
vn 0.447596 0.370116 -0.814047
vn 0.447596 0.370116 -0.814047
vn 0.447596 0.370116 -0.814047
s off
f 17/1/1 19/2/2 18/3/3
f 21/4/4 23/5/5 22/6/6 18/3/7 19/2/8 20/7/9
f 25/8/10 27/9/11 26/10/12 24/11/13
f 28/12/14 29/13/15 17/1/16
f 28/12/17 17/1/18 18/3/19 30/14/20
f 29/13/21 25/8/22 24/11/23 17/1/24
f 21/4/25 20/7/26 26/10/27
f 27/9/28 21/4/29 26/10/30
f 27/9/31 32/15/32 31/16/33 21/4/34
f 11/17/35 6/18/36 10/19/37
f 9/20/38 14/21/39 10/19/40 6/18/41 5/22/42 7/23/43
f 3/24/44 12/25/45 13/26/46 16/27/47
f 2/28/48 11/17/49 15/29/50
f 2/28/51 4/30/52 6/18/53 11/17/54
f 15/29/55 11/17/56 12/25/57 3/24/58
f 9/20/59 13/26/60 14/21/61
f 16/27/62 13/26/63 9/20/64
f 16/27/65 9/20/66 8/31/67 1/32/68
f 10/33/69 19/2/70 17/1/71 11/34/72
f 14/35/73 20/7/74 19/2/75 10/33/76
f 6/36/77 18/3/78 22/6/79 5/37/80
f 5/37/81 22/6/82 23/5/83 7/38/84
f 7/38/85 23/5/86 21/4/87 9/39/88
f 12/40/89 24/11/90 26/10/91 13/41/92
s 1
f 16/42/93 27/9/94 25/8/95 3/43/96
s 2
f 15/44/97 29/13/98 28/12/99 2/45/100
s off
f 2/45/101 28/12/102 30/14/103 4/46/104
f 4/46/105 30/14/106 18/3/107 6/36/108
f 11/34/109 17/1/110 24/11/111 12/40/112
s 2
f 3/43/113 25/8/114 29/13/98 15/44/97
s off
f 13/41/115 26/10/116 20/7/117 14/35/118
f 9/39/119 21/4/120 31/16/121 8/47/122
f 8/47/123 31/16/124 32/15/125 1/48/126
s 1
f 1/48/127 32/15/128 27/9/94 16/42/93
s off
f 53/49/129 56/50/130 55/51/131 54/52/132
f 57/53/133 61/54/134 60/55/135 59/56/136 58/57/137
f 56/50/138 63/58/139 62/59/140 55/51/141
s 3
f 58/57/142 53/49/143 64/60/144
s off
f 65/61/145 67/62/146 66/63/147 61/54/148
f 57/53/149 68/64/150 65/61/151 61/54/152
f 62/59/153 70/65/154 69/66/155 65/61/156
f 62/59/157 65/61/158 68/64/159 55/51/160
f 58/57/161 72/67/162 71/68/163 53/49/164
f 37/69/165 42/70/166 46/71/167 35/72/168
f 44/73/169 41/74/170 40/75/171 47/76/172 49/77/173
f 35/72/174 46/71/175 52/78/176 50/79/177
s 4
f 41/74/178 45/80/179 37/69/180
s off
f 38/81/181 49/77/182 48/82/183 34/83/184
f 44/73/185 49/77/186 38/81/187 43/84/188
f 52/78/189 38/81/190 36/85/191 51/86/192
f 52/78/193 46/71/194 43/84/195 38/81/196
f 41/74/197 37/69/198 33/87/199 39/88/200
s 5
f 42/89/201 54/52/202 55/51/203 46/90/204
s 6
f 35/91/205 56/50/206 53/49/207 37/92/208
s off
f 41/93/209 58/57/210 59/56/211 40/94/212
f 40/94/213 59/56/214 60/55/215 47/95/216
f 47/95/217 60/55/218 61/54/219 49/96/220
f 52/97/221 62/59/222 63/58/223 50/98/224
f 50/98/225 63/58/226 56/50/227 35/91/228
f 44/99/229 57/53/230 64/60/231 45/100/232
s 5
f 45/100/233 64/60/234 54/52/202 42/89/201
s off
f 49/96/235 61/54/236 66/63/237 48/101/238
f 48/101/239 66/63/240 67/62/241 34/102/242
s 7
f 34/102/243 67/62/244 65/61/245 38/103/246
s off
f 43/104/247 68/64/248 57/53/249 44/99/250
s 7
f 38/103/246 65/61/245 69/66/251 36/105/252
s off
f 36/105/253 69/66/254 70/65/255 51/106/256
f 51/106/257 70/65/258 62/59/259 52/97/260
f 46/90/261 55/51/262 68/64/263 43/104/264
s 6
f 37/92/208 53/49/207 71/68/265 33/107/266
s 8
f 33/107/267 71/68/268 72/67/269 39/108/270
f 39/108/270 72/67/269 58/57/271 41/93/272
s 4
f 41/74/178 44/73/273 45/80/179
f 37/69/180 45/80/179 42/70/274
s 3
f 64/60/144 53/49/143 54/52/275
f 58/57/142 64/60/144 57/53/276
s off
f 84/109/277 86/110/278 85/111/279
f 87/112/280 84/109/281 89/113/282 88/114/283
f 84/109/284 85/111/285 92/115/286 91/116/287 90/117/288 89/113/289
f 86/110/290 94/118/291 93/119/292 85/111/293
f 77/120/294 80/121/295 75/122/296
f 73/123/297 81/124/298 83/125/299 77/120/300
f 77/120/301 83/125/302 82/126/303 74/127/304 79/128/305 80/121/306
f 75/122/307 80/121/308 78/129/309 76/130/310
s 9
f 75/131/311 86/110/312 84/109/313 77/132/314
s off
f 73/133/315 87/112/316 88/114/317 81/134/318
f 81/134/319 88/114/320 89/113/321 83/135/322
s 9
f 77/132/314 84/109/313 87/112/323 73/133/324
s off
f 83/135/325 89/113/326 90/117/327 82/136/328
f 82/136/329 90/117/330 91/116/331 74/137/332
f 74/137/333 91/116/334 92/115/335 79/138/336
f 79/138/337 92/115/338 85/111/339 80/139/340
f 80/139/341 85/111/342 93/119/343 78/140/344
f 78/140/345 93/119/346 94/118/347 76/141/348
f 76/141/349 94/118/350 86/110/351 75/131/352
