# This file uses centimeters as units for non-parametric coordinates.

v -38.407227 0.000000 38.407227
v 38.407227 0.000000 38.407227
v -38.407227 0.000000 -38.407227
v 38.407227 0.000000 -38.407227
v -38.407227 33.378418 38.407227
v -38.407227 38.425171 34.257813
v -35.351563 39.741638 38.407227
v -38.407227 32.166016 -38.407227
v -38.407227 14.708130 -38.407227
v -34.482422 22.341675 -38.407227
v -38.407227 22.170715 -30.315430
v -8.208984 25.117231 38.407227
v 26.322266 35.675850 38.407227
v 38.407227 36.266960 38.407227
v 38.407227 26.406565 -38.407227
v 0.933594 33.880703 -38.407227
v -38.407227 30.080086 1.105469
v 38.407227 20.690359 -6.297852
v -7.908203 33.819771 -2.213867
v -6.438477 28.844141 23.378906
vt 0.479432 0.662146
vt 0.414420 0.662146
vt 0.349189 0.662146
vt 0.414310 0.662146
vt 0.357338 0.648168
vt 0.349299 0.662146
vt 0.422460 0.648168
vt 0.479541 0.662146
vt 0.414310 0.639491
vt 0.417828 0.636065
vt 0.413015 0.635184
vt 0.479432 0.640314
vt 0.349299 0.640314
vt 0.479432 0.652163
vt 0.349299 0.652163
vt 0.352626 0.646982
vt 0.476002 0.646728
vt 0.389528 0.645105
vt 0.359434 0.637931
vt 0.349189 0.637530
vt 0.479541 0.637530
vt 0.414420 0.642926
vt 0.382651 0.638050
vt 0.447695 0.641539
vt 0.441642 0.647831
vt 0.387816 0.882619
vt 0.375719 0.878781
vt 0.387816 0.864068
vt 0.393562 0.869652
vt 0.369972 0.870150
vt 0.369972 0.847896
vt 0.369972 0.898792
vt 0.384489 0.985313
vt 0.493737 0.761374
vt 0.493737 0.891704
vt 0.358712 0.879798
vt 0.458505 0.761374
vt 0.493737 0.985313
vt 0.269798 0.985313
vt 0.362997 0.805186
vt 0.269798 0.870120
vt 0.269798 0.773471
vt 0.278706 0.761374
vt 0.357835 0.761374
vn 0.000000 -1.000000 0.000000
vn 0.000000 -1.000000 0.000000
vn 0.000000 -1.000000 0.000000
vn 0.000000 -1.000000 0.000000
vn -1.000000 0.000000 0.000000
vn -1.000000 0.000000 0.000000
vn -1.000000 0.000000 0.000000
vn -1.000000 0.000000 0.000000
vn -0.797650 0.383038 0.465872
vn -0.797650 0.383038 0.465872
vn -0.797650 0.383038 0.465872
vn -0.819454 0.421324 -0.388562
vn -0.819454 0.421324 -0.388562
vn -0.819454 0.421324 -0.388562
vn -0.844215 -0.337262 -0.416599
vn -0.844215 -0.337262 -0.416599
vn -0.844215 -0.337262 -0.416599
vn 0.000000 0.000000 -1.000000
vn 0.000000 0.000000 -1.000000
vn 0.000000 0.000000 -1.000000
vn 0.000000 0.000000 -1.000000
vn -1.000000 0.000000 0.000000
vn -1.000000 0.000000 0.000000
vn -1.000000 0.000000 0.000000
vn -1.000000 0.000000 0.000000
vn 0.000000 0.000000 1.000000
vn 0.000000 0.000000 1.000000
vn 0.000000 0.000000 1.000000
vn 0.000000 0.000000 1.000000
vn 0.000000 0.000000 1.000000
vn 0.000000 0.000000 1.000000
vn 0.000000 0.000000 1.000000
vn 0.000000 0.000000 1.000000
vn 0.000000 0.000000 1.000000
vn 0.000000 0.000000 1.000000
vn 1.000000 0.000000 0.000000
vn 1.000000 0.000000 0.000000
vn 1.000000 0.000000 0.000000
vn 0.000000 0.000000 -1.000000
vn 0.000000 0.000000 -1.000000
vn 0.000000 0.000000 -1.000000
vn 0.000000 0.000000 -1.000000
vn 0.000000 0.000000 -1.000000
vn 0.000000 0.000000 -1.000000
vn 0.000000 0.000000 -1.000000
vn -1.000000 0.000000 0.000000
vn -1.000000 0.000000 0.000000
vn -1.000000 0.000000 0.000000
vn -1.000000 -0.000000 0.000000
vn -1.000000 -0.000000 0.000000
vn -1.000000 -0.000000 0.000000
vn 0.000000 0.000000 1.000000
vn 0.000000 0.000000 1.000000
vn 0.000000 0.000000 1.000000
vn 0.523440 0.804619 -0.280354
vn 0.523440 0.804619 -0.280354
vn 0.523440 0.804619 -0.280354
vn -0.043542 0.999011 -0.008955
vn -0.043542 0.999011 -0.008955
vn -0.043542 0.999012 -0.008955
vn -0.115922 0.991877 0.052363
vn -0.115922 0.991877 0.052363
vn -0.115922 0.991877 0.052363
vn 0.308118 0.948781 0.069846
vn 0.308118 0.948781 0.069846
vn 0.308118 0.948781 0.069846
vn 0.308118 0.948781 0.069846
vn -0.045494 0.998930 -0.008308
vn -0.045494 0.998930 -0.008308
vn -0.045494 0.998930 -0.008308
vn -0.045494 0.998930 -0.008308
vn -0.286580 0.937231 0.198670
vn -0.286580 0.937231 0.198670
vn -0.286580 0.937231 0.198670
vn 0.457445 0.849009 0.264440
vn 0.457445 0.849009 0.264440
vn 0.457445 0.849009 0.264440
vn -0.286578 0.937233 0.198664
vn -0.286578 0.937233 0.198664
vn -0.286578 0.937233 0.198664
vn 0.192684 0.966072 0.171983
vn 0.192684 0.966072 0.171983
vn 0.192684 0.966072 0.171983
vn 1.000000 0.000000 0.000000
vn 1.000000 0.000000 0.000000
vn 1.000000 0.000000 0.000000
vn 1.000000 0.000000 0.000000
vn 1.000000 0.000000 0.000000
vn 1.000000 0.000000 0.000000
vn -0.143959 0.959648 -0.241562
vn -0.143959 0.959648 -0.241562
vn -0.143959 0.959648 -0.241562
s off
f 3/5/1 4/7/2 2/3/3 1/4/4
f 3/1/5 1/4/6 11/17/7 9/14/8
f 7/26/9 6/27/10 5/28/11
f 11/29/12 10/30/13 9/31/14
f 8/32/15 10/30/16 11/29/17
f 10/16/18 4/2/19 3/6/20 9/15/21
f 17/24/22 1/4/23 5/9/24 6/10/25
f 1/4/26 12/18/27 7/11/28 5/9/29
f 13/19/30 12/18/31 2/3/32
f 14/20/33 13/19/34 2/3/35
f 2/8/36 18/25/37 14/21/38
f 10/16/39 16/23/40 15/22/41 4/2/42
f 8/13/43 16/23/44 10/16/45
f 11/17/46 17/24/47 8/12/48
f 11/17/49 1/4/50 17/24/51
f 1/4/52 2/3/53 12/18/54
f 16/33/55 14/34/56 18/35/57
f 8/39/58 19/36/59 16/33/60
f 8/39/61 17/41/62 19/36/63
f 19/36/64 6/42/65 7/43/66 20/40/67
f 16/33/68 19/36/69 13/37/70 14/34/71
f 19/36/72 20/40/73 13/37/74
f 12/44/75 20/40/76 7/43/77
f 13/37/78 20/40/79 12/44/80
f 16/33/81 18/35/82 15/38/83
f 18/25/84 4/2/85 15/22/86
f 2/8/87 4/2/88 18/25/89
f 19/36/90 17/41/91 6/42/92
