# This file uses centimeters as units for non-parametric coordinates.

v 249.845703 -8.489145 146.675781
v 240.083984 3.312674 241.289063
v 13.990234 1.967177 196.566406
v 249.845703 -4.664615 58.640625
v 249.845703 -24.207310 250.000000
v 229.561523 1.420303 122.460938
v 250.000000 0.000089 54.332031
v 68.675781 3.311296 222.488281
v 11.691406 2.481938 244.144531
v 57.374023 2.217392 231.429688
v 239.914063 3.311935 171.218750
v 87.815430 3.314721 241.193359
v 191.201172 3.311555 124.021484
v 249.845703 -24.207310 8.089844
v 27.096680 3.729937 233.585938
v 39.633789 0.000089 250.000000
v 33.783203 3.310496 193.855469
v 250.000000 0.000089 170.947266
v 8.308594 3.167101 161.746094
v 249.845703 -4.547224 130.687500
v 201.656250 3.199979 110.621094
v 249.845703 0.000089 250.000000
v 249.845703 -4.126244 82.431641
v 10.280273 1.700735 228.849609
v 0.000000 -0.001967 190.394531
v 13.395508 3.122124 183.535156
v 210.387695 1.581635 129.468750
v 233.904297 2.419359 138.144531
v 93.345703 0.000000 0.000000
v 204.832031 3.311612 148.332031
v 202.886719 3.310768 76.707031
v 238.519531 -0.959910 97.906250
v 0.000000 0.000000 67.113281
v 56.643555 0.577668 235.632813
v 36.307617 3.151844 227.267578
v 207.712891 2.551129 91.585938
v 0.000000 0.000000 0.000000
v 184.367188 0.420107 0.910156
v 222.549805 3.291946 77.089844
v 249.845703 -5.076927 101.761719
v 0.000000 -0.001967 250.000000
v 0.000000 0.284662 139.876953
v 250.000000 0.000000 0.000000
v 249.845703 -19.693121 147.625000
v 9.703125 3.312378 8.378906
v 93.345703 -24.207310 0.000000
v 242.215820 3.081150 53.509766
v 0.000000 -0.001967 221.476563
v 239.954102 3.312941 8.492188
v 249.845703 -24.207310 -0.000000
v 86.020508 0.000089 250.000000
v 24.035156 1.337209 246.371094
v 27.770508 0.374255 0.000000
v 231.184570 0.145075 111.644531
v 0.000000 -24.207310 190.394531
v 0.000000 -24.207310 221.476563
v 0.000000 -24.207310 250.000000
v 39.633789 -24.207310 250.000000
v 0.000000 -24.207310 139.876953
v 0.000000 -24.207310 67.113281
v 86.020508 -24.207310 250.000000
v 27.770508 -24.207310 0.000000
v 0.000000 -24.207310 0.000000
v 97.159180 1.289303 6.822266
v 100.730469 3.312586 16.943359
vt 0.030226 0.710813
vt 0.060661 0.708110
vt 0.033398 0.706432
vt 0.118182 0.705535
vt 0.153545 0.699390
vt 0.104367 0.703008
vt 0.157143 0.703123
vt 0.153529 0.699164
vt 0.058749 0.709101
vt 0.034761 0.706050
vt 0.150233 0.581768
vt 0.133485 0.584085
vt 0.130128 0.576466
vt 0.152880 0.606246
vt 0.152748 0.590845
vt 0.160352 0.597069
vt 0.072957 0.707468
vt 0.073036 0.968456
vt 0.009278 0.879563
vt 0.079147 0.878928
vt 0.058483 0.705757
vt 0.082758 0.706721
vt 0.115384 0.984516
vt 0.093775 0.890533
vt 0.146303 0.576209
vt 0.029838 0.985487
vt 0.009329 0.984457
vt 0.040406 0.967570
vt 0.105089 0.704817
vt 0.102011 0.698975
vt 0.118782 0.701114
vt 0.097471 0.705932
vt 0.088276 0.698040
vt 0.093931 0.697119
vt 0.160990 0.575975
vt 0.158966 0.588930
vt 0.115397 0.581401
vt 0.126833 0.583955
vt 0.097565 0.687381
vt 0.158204 0.582426
vt 0.155673 0.622668
vt 0.150980 0.606812
vt 0.029910 0.677427
vt 0.028221 0.629404
vt 0.070699 0.695218
vt 0.159619 0.621298
vt 0.081139 0.701911
vt 0.149283 0.595787
vt 0.029207 0.706678
vt 0.032069 0.631461
vt 0.078133 0.687219
vt 0.026957 0.578106
vt 0.064149 0.577515
vt 0.031930 0.583652
vt 0.027213 0.627020
vt 0.103481 0.576905
vt 0.061250 0.979722
vt 0.068395 0.981701
vt 0.064442 0.970987
vt 0.040581 0.976528
vt 0.047184 0.969769
vt 0.056565 0.969581
vt 0.061961 0.962247
vt 0.110893 0.901280
vt 0.083463 0.984438
vt 0.108996 0.891683
vt 0.106819 0.906429
vt 0.115340 0.915148
vt 0.095010 0.881516
vt 0.089073 0.881245
vt 0.036036 0.876099
vt 0.027355 0.593621
vt 0.155844 0.619185
vt 0.157116 0.574810
vt 0.142731 0.575033
vt 0.156524 0.595458
vt 0.025957 0.576839
vt 0.026337 0.591987
vt 0.062325 0.576277
vt 0.100776 0.575682
vt 0.126892 0.575278
vt 0.037747 0.633398
vt 0.009297 0.918290
vn -0.000671 0.999999 0.000941
vn -0.000671 0.999999 0.000941
vn -0.000671 0.999999 0.000941
vn 0.999982 -0.005644 0.002182
vn 0.999982 -0.005644 0.002182
vn 0.999982 -0.005644 0.002182
vn -0.000009 1.000000 -0.000008
vn -0.000009 1.000000 -0.000008
vn -0.000009 1.000000 -0.000008
vn 0.008619 0.999952 0.004716
vn 0.008619 0.999952 0.004716
vn 0.008619 0.999952 0.004716
vn -0.000002 1.000000 0.000035
vn -0.000002 1.000000 0.000035
vn -0.000002 1.000000 0.000035
vn -0.000002 1.000000 0.000035
vn 0.999972 -0.007446 -0.000328
vn 0.999972 -0.007446 -0.000328
vn 0.999972 -0.007446 -0.000328
vn 0.320845 0.947131 0.000626
vn 0.320845 0.947131 0.000626
vn 0.320845 0.947131 0.000626
vn 0.313188 0.949691 -0.000002
vn 0.313188 0.949691 -0.000002
vn 0.313188 0.949691 -0.000002
vn -0.000987 0.999993 -0.003683
vn -0.000987 0.999993 -0.003683
vn -0.000987 0.999993 -0.003683
vn -0.136142 0.990661 -0.007469
vn -0.136142 0.990661 -0.007469
vn -0.136142 0.990661 -0.007469
vn -0.334701 0.942322 -0.002151
vn -0.334701 0.942322 -0.002151
vn -0.334701 0.942322 -0.002151
vn 1.000000 -0.000001 0.000000
vn 1.000000 -0.000001 0.000000
vn 1.000000 -0.000001 0.000000
vn 0.999453 -0.033065 0.000000
vn 0.999453 -0.033065 0.000000
vn 0.999453 -0.033065 0.000000
vn -0.055071 0.994360 0.090642
vn -0.055071 0.994360 0.090642
vn -0.055071 0.994360 0.090642
vn 0.000014 1.000000 -0.000197
vn 0.000014 1.000000 -0.000197
vn 0.000014 1.000000 -0.000197
vn 0.094485 0.983944 0.151419
vn 0.094485 0.983944 0.151419
vn 0.094485 0.983944 0.151419
vn 0.999475 -0.032381 0.000733
vn 0.999475 -0.032381 0.000733
vn 0.999475 -0.032381 0.000733
vn 0.369253 0.929227 -0.013767
vn 0.369253 0.929227 -0.013767
vn 0.369253 0.929227 -0.013767
vn 1.000000 0.000000 0.000000
vn 1.000000 0.000000 0.000000
vn 1.000000 0.000000 0.000000
vn -0.004178 0.999978 0.005064
vn -0.004178 0.999978 0.005064
vn -0.004178 0.999978 0.005064
vn -0.000006 1.000000 -0.000021
vn -0.000006 1.000000 -0.000021
vn -0.000006 1.000000 -0.000021
vn -0.163402 0.986560 0.000000
vn -0.163402 0.986560 0.000000
vn -0.163402 0.986560 0.000000
vn 0.606767 0.783942 -0.131409
vn 0.606767 0.783942 -0.131409
vn 0.606767 0.783942 -0.131409
vn -0.000002 1.000000 -0.000011
vn -0.000002 1.000000 -0.000011
vn -0.000002 1.000000 -0.000011
vn 0.351888 0.925830 0.137887
vn 0.351888 0.925831 0.137887
vn 0.351888 0.925831 0.137887
vn 0.306171 0.949685 -0.066023
vn 0.306171 0.949685 -0.066023
vn 0.306170 0.949684 -0.066023
vn -0.000049 0.938262 0.345925
vn -0.000049 0.938262 0.345925
vn -0.000049 0.938262 0.345925
vn -0.202804 0.977974 0.049366
vn -0.202804 0.977974 0.049366
vn -0.202804 0.977974 0.049366
vn -0.036388 0.991815 -0.122393
vn -0.036388 0.991815 -0.122393
vn -0.036388 0.991814 -0.122393
vn -0.136739 0.989880 -0.037943
vn -0.136739 0.989880 -0.037943
vn -0.136739 0.989880 -0.037943
vn -0.142020 0.930282 0.338240
vn -0.142020 0.930282 0.338240
vn -0.142020 0.930282 0.338240
vn -0.053413 0.997086 0.054472
vn -0.053413 0.997086 0.054472
vn -0.053413 0.997086 0.054472
vn -0.011662 0.999921 0.004787
vn -0.011662 0.999921 0.004787
vn -0.011662 0.999921 0.004787
vn -0.000809 0.936265 -0.351293
vn -0.000809 0.936265 -0.351293
vn -0.000809 0.936265 -0.351293
vn 0.311956 0.950096 -0.000767
vn 0.311956 0.950096 -0.000767
vn 0.311956 0.950096 -0.000767
vn 0.225190 0.957684 0.179250
vn 0.225190 0.957684 0.179250
vn 0.225190 0.957684 0.179250
vn -0.139905 0.935764 0.323687
vn -0.139905 0.935764 0.323687
vn -0.139905 0.935764 0.323687
vn 0.000009 1.000000 -0.000008
vn 0.000009 1.000000 -0.000008
vn 0.000009 1.000000 -0.000008
vn 0.263131 0.964748 -0.004811
vn 0.263131 0.964748 -0.004811
vn 0.263131 0.964748 -0.004811
vn 0.327264 0.943792 0.046417
vn 0.327264 0.943792 0.046417
vn 0.327264 0.943792 0.046417
vn 0.015582 0.999871 0.003832
vn 0.015582 0.999871 0.003832
vn 0.015582 0.999871 0.003832
vn 0.000013 1.000000 -0.000013
vn 0.000013 1.000000 -0.000013
vn 0.000013 1.000000 -0.000013
vn 0.048405 0.998611 -0.020801
vn 0.048405 0.998611 -0.020801
vn 0.048405 0.998611 -0.020801
vn -0.000037 0.998699 0.051000
vn -0.000037 0.998699 0.051000
vn -0.000037 0.998699 0.051000
vn 0.000000 0.999193 0.040169
vn 0.000000 0.999193 0.040169
vn 0.000000 0.999193 0.040169
vn 0.001113 0.999967 -0.008011
vn 0.001113 0.999967 -0.008011
vn 0.001113 0.999967 -0.008011
vn -0.179714 0.979123 0.094981
vn -0.179714 0.979123 0.094981
vn -0.179714 0.979123 0.094981
vn 0.106433 0.992527 -0.059679
vn 0.106433 0.992527 -0.059679
vn 0.106433 0.992527 -0.059679
vn 0.075435 0.995868 0.050563
vn 0.075435 0.995868 0.050563
vn 0.075435 0.995868 0.050563
vn 1.000000 0.000007 0.000000
vn 1.000000 0.000007 0.000000
vn 1.000000 0.000007 0.000000
vn 0.999980 -0.006374 0.000000
vn 0.999980 -0.006374 0.000000
vn 0.999980 -0.006374 0.000000
vn 0.472612 0.855648 0.210961
vn 0.472612 0.855648 0.210961
vn 0.472612 0.855648 0.210961
vn 0.024172 0.998133 -0.056086
vn 0.024172 0.998133 -0.056086
vn 0.024172 0.998133 -0.056086
vn -0.108384 0.993274 -0.040733
vn -0.108384 0.993274 -0.040733
vn -0.108384 0.993274 -0.040733
vn 0.312728 0.945481 0.090922
vn 0.312728 0.945481 0.090922
vn 0.312728 0.945481 0.090922
vn 1.000000 0.000000 0.000000
vn 1.000000 0.000000 0.000000
vn 1.000000 0.000000 0.000000
vn 0.999981 -0.000523 -0.006174
vn 0.999981 -0.000523 -0.006174
vn 0.999981 -0.000523 -0.006174
vn 1.000000 0.000000 0.000000
vn 1.000000 0.000000 0.000000
vn 1.000000 0.000000 0.000000
vn 0.151706 0.988318 0.014581
vn 0.151706 0.988318 0.014581
vn 0.151706 0.988318 0.014581
vn -0.003333 0.982940 -0.183897
vn -0.008755 0.983451 -0.180963
vn -0.011844 0.983725 -0.179288
vn 0.260747 0.965245 -0.017676
vn 0.260747 0.965245 -0.017676
vn 0.260747 0.965245 -0.017676
vn 0.000000 0.907946 -0.419087
vn 0.000000 0.907946 -0.419087
vn 0.000000 0.907946 -0.419087
vn -0.001606 0.995777 -0.091797
vn -0.001606 0.995776 -0.091797
vn -0.001606 0.995777 -0.091797
vn -0.013476 0.998116 -0.059849
vn -0.013476 0.998116 -0.059849
vn -0.013476 0.998116 -0.059849
vn 0.000939 0.931993 -0.362475
vn 0.000939 0.931993 -0.362475
vn 0.000939 0.931993 -0.362475
vn 0.109635 0.993814 0.017693
vn 0.109635 0.993814 0.017693
vn 0.109635 0.993814 0.017693
vn 0.335207 0.929795 -0.152047
vn 0.335207 0.929795 -0.152047
vn 0.335207 0.929795 -0.152047
vn 0.019950 0.999333 -0.030594
vn 0.019950 0.999333 -0.030594
vn 0.019950 0.999333 -0.030594
vn 0.084414 0.986990 0.136838
vn 0.084414 0.986990 0.136838
vn 0.084414 0.986990 0.136838
vn 0.055348 0.978948 0.196463
vn 0.055348 0.978948 0.196462
vn 0.055348 0.978948 0.196463
vn 0.039173 0.980442 0.192869
vn 0.039173 0.980442 0.192869
vn 0.039173 0.980442 0.192869
vn 0.000259 0.996792 -0.080035
vn 0.000259 0.996792 -0.080035
vn 0.000259 0.996792 -0.080035
vn -0.000209 0.935918 0.352217
vn -0.000209 0.935918 0.352217
vn -0.000209 0.935918 0.352217
vn -0.323067 0.946376 0.000000
vn -0.323067 0.946376 0.000000
vn -0.323067 0.946376 0.000000
vn 0.072794 0.924797 0.373433
vn 0.072794 0.924797 0.373433
vn 0.072794 0.924797 0.373433
vn 0.288071 0.903342 -0.317786
vn 0.288071 0.903342 -0.317785
vn 0.288071 0.903342 -0.317785
vn 0.000000 0.934697 0.355445
vn 0.000000 0.934697 0.355445
vn 0.000000 0.934697 0.355445
vn 1.000000 0.000016 0.000000
vn 1.000000 0.000016 0.000000
vn 1.000000 0.000016 0.000000
vn 0.999998 0.000000 0.001952
vn 0.999998 0.000000 0.001952
vn 0.999998 0.000000 0.001952
vn -0.207817 0.978168 0.000000
vn -0.207817 0.978168 0.000000
vn -0.207817 0.978168 0.000000
vn 0.010882 0.912545 0.408832
vn 0.010882 0.912545 0.408832
vn 0.010882 0.912545 0.408832
vn -0.000000 0.000000 -1.000000
vn -0.000000 0.000000 -1.000000
vn -0.000000 0.000000 -1.000000
vn 0.000000 0.000000 -1.000000
vn 0.000000 0.000000 -1.000000
vn 0.000000 0.000000 -1.000000
vn -0.118298 0.992963 -0.005400
vn -0.118298 0.992963 -0.005400
vn -0.118298 0.992963 -0.005400
vn 0.015988 0.989837 0.141307
vn 0.015988 0.989837 0.141307
vn 0.015988 0.989837 0.141307
vn -0.340260 0.940316 0.005335
vn -0.340260 0.940316 0.005335
vn -0.340260 0.940316 0.005335
vn -0.319032 0.947737 -0.003708
vn -0.319032 0.947737 -0.003708
vn -0.319032 0.947737 -0.003708
vn 0.131354 0.991303 0.008004
vn 0.131354 0.991303 0.008004
vn 0.131354 0.991303 0.008004
vn -0.012598 0.934797 -0.354958
vn -0.012598 0.934797 -0.354958
vn -0.012598 0.934797 -0.354958
vn 0.000000 -1.000000 0.000000
vn 0.000000 -1.000000 -0.000000
vn 0.000000 -1.000000 0.000000
vn 0.000000 -1.000000 0.000000
vn 0.000000 -1.000000 0.000000
vn 0.000000 -1.000000 0.000000
vn 0.000000 -1.000000 0.000000
vn 0.000000 -1.000000 -0.000000
vn 0.000000 -1.000000 -0.000000
vn 0.000000 -1.000000 0.000000
vn 0.000000 -1.000000 0.000000
vn 0.000000 -1.000000 0.000000
vn 0.000000 -1.000000 0.000000
vn 0.000000 -1.000000 -0.000000
vn 0.000000 -1.000000 0.000000
vn 0.000000 -1.000000 0.000000
vn 0.000000 -1.000000 -0.000000
vn 0.000000 -1.000000 -0.000000
vn 0.000000 -1.000000 -0.000000
vn 0.000000 -1.000000 -0.000000
vn 0.000000 -1.000000 -0.000000
vn 0.000000 -1.000000 -0.000000
vn 0.000000 -1.000000 -0.000000
vn 0.000000 -1.000000 0.000000
vn 0.000000 -1.000000 0.000000
vn 0.000000 -1.000000 -0.000000
vn 0.000000 -1.000000 0.000000
vn 0.000000 -1.000000 -0.000000
vn 0.000000 -1.000000 0.000000
vn 0.000000 -1.000000 0.000000
vn 0.000000 -1.000000 0.000000
vn 0.000000 -1.000000 0.000000
vn 0.000000 -1.000000 0.000000
vn 0.007578 0.973879 -0.226942
vn 0.000542 0.976784 -0.214226
vn -0.011661 0.981314 -0.192058
vn -0.066380 0.997747 0.009753
vn -0.066380 0.997747 0.009753
vn -0.066380 0.997747 0.009753
vn -1.000000 0.000000 0.000000
vn -1.000000 0.000000 0.000000
vn -1.000000 0.000000 0.000000
vn -1.000000 0.000000 0.000000
vn -1.000000 0.000000 0.000000
vn -1.000000 0.000000 0.000000
vn -1.000000 0.000000 0.000000
vn -1.000000 0.000000 0.000000
vn 0.000001 0.000000 1.000000
vn 0.000001 0.000000 1.000000
vn 0.000001 0.000000 1.000000
vn 0.000001 0.000000 1.000000
vn -1.000000 0.000000 0.000000
vn -1.000000 0.000000 0.000000
vn -1.000000 0.000000 0.000000
vn -1.000000 0.000000 0.000000
vn 0.000000 0.000000 1.000000
vn 0.000000 0.000000 1.000000
vn 0.000000 0.000000 1.000000
vn 0.000000 0.000000 1.000000
vn 0.000000 0.000000 -1.000000
vn 0.000000 0.000000 -1.000000
vn 0.000000 0.000000 -1.000000
vn 0.000000 0.000000 -1.000000
vn -1.000000 0.000000 0.000000
vn -1.000000 0.000000 0.000000
vn -1.000000 0.000000 0.000000
vn -1.000000 0.000000 0.000000
vn 0.000000 0.000000 1.000000
vn 0.000000 0.000000 1.000000
vn 0.000000 0.000000 1.000000
vn 0.000000 0.000000 1.000000
vn -1.000000 0.000000 0.000000
vn -1.000000 0.000000 0.000000
vn -1.000000 0.000000 0.000000
vn -1.000000 0.000000 0.000000
vn 0.000000 0.000000 -1.000000
vn 0.000000 0.000000 -1.000000
vn 0.000000 0.000000 -1.000000
vn 0.000000 0.000000 -1.000000
vn -0.003333 0.982940 -0.183897
vn 0.005605 0.982015 -0.188719
vn -0.008755 0.983451 -0.180963
vn 0.018044 0.969159 -0.245774
vn 0.018044 0.969159 -0.245774
vn 0.000542 0.976784 -0.214226
vn 0.007578 0.973879 -0.226942
s off
f 30/18/1 45/19/2 19/20/3
f 43/1/4 4/2/5 14/3/6
f 2/23/7 30/18/8 17/24/9
f 47/26/10 49/27/11 31/28/12
f 49/27/13 65/83/14 45/19/15 31/28/16
f 18/4/17 5/5/18 44/6/19
f 22/7/20 18/4/21 2/8/22
f 7/9/23 43/1/24 49/10/25
f 17/24/26 30/18/27 19/20/28
f 24/11/29 3/12/30 25/13/31
f 19/20/32 45/19/33 33/71/34
f 4/2/35 44/6/36 14/3/37
f 43/1/38 7/9/39 4/2/40
f 17/24/41 26/70/42 3/69/43
f 12/68/44 2/23/45 8/67/46
f 34/14/47 15/15/48 16/16/49
f 7/9/50 23/17/51 4/2/52
f 7/9/53 49/10/54 47/21/55
f 4/2/56 40/22/57 44/6/58
f 8/67/59 17/24/60 35/66/61
f 2/23/62 17/24/63 8/67/64
f 24/11/65 25/13/66 48/25/67
f 1/29/68 28/30/69 11/31/70
f 2/23/71 11/65/72 30/18/73
f 23/17/74 7/9/75 47/21/76
f 20/32/77 54/33/78 6/34/79
f 41/35/80 16/16/81 52/36/82
f 19/37/83 25/13/84 26/38/85
f 6/34/86 54/33/87 27/39/88
f 48/25/89 9/40/90 24/11/91
f 34/14/92 12/41/93 10/42/94
f 12/68/95 8/67/96 10/64/97
f 17/24/98 19/20/99 26/70/100
f 38/43/101 29/44/102 49/10/103
f 2/8/104 18/4/105 11/31/106
f 23/17/107 47/21/108 39/45/109
f 51/46/110 12/41/111 34/14/112
f 30/18/113 13/63/114 45/19/115
f 32/47/116 23/17/117 39/45/118
f 23/17/119 32/47/120 40/22/121
f 21/62/122 31/28/123 13/63/124
f 31/28/125 45/19/126 13/63/127
f 10/42/128 35/48/129 15/15/130
f 36/61/131 39/60/132 31/28/133
f 51/46/134 34/14/135 16/16/136
f 47/26/137 31/28/138 39/60/139
f 3/12/140 26/38/141 25/13/142
f 27/59/143 13/63/144 30/18/145
f 27/59/146 21/62/147 13/63/148
f 44/6/149 5/5/150 14/3/151
f 43/1/152 14/3/153 50/49/154
f 20/32/155 28/30/156 1/29/157
f 35/48/158 3/12/159 15/15/160
f 15/15/161 24/11/162 9/40/163
f 40/22/164 32/47/165 54/33/166
f 40/22/167 1/29/168 44/6/169
f 1/29/170 18/4/171 44/6/172
f 23/17/173 40/22/174 4/2/175
f 27/59/176 36/61/177 21/62/178
f 29/44/179 64/50/180 49/10/181
f 20/32/182 40/22/183 54/33/184
f 38/43/185 43/1/186 29/44/187
f 30/18/188 28/58/189 27/59/190
f 28/58/191 6/57/192 27/59/193
f 43/1/194 38/43/195 49/10/196
f 32/47/197 36/51/198 27/39/199
f 20/32/200 6/34/201 28/30/202
f 11/65/203 28/58/204 30/18/205
f 32/47/206 39/45/207 36/51/208
f 52/36/209 15/15/210 9/40/211
f 52/36/212 16/16/213 15/15/214
f 54/33/215 32/47/216 27/39/217
f 51/46/218 2/8/219 12/41/220
f 37/52/221 33/53/222 45/54/223
f 34/14/224 10/42/225 15/15/226
f 11/31/227 18/4/228 1/29/229
f 22/7/230 2/8/231 51/46/232
f 40/22/233 20/32/234 1/29/235
f 18/4/236 22/7/237 5/5/238
f 9/40/239 48/25/240 41/35/241
f 9/40/242 41/35/243 52/36/244
f 29/44/245 50/49/246 46/55/247
f 29/44/248 43/1/249 50/49/250
f 15/15/251 3/12/252 24/11/253
f 10/64/254 8/67/255 35/66/256
f 19/37/257 42/56/258 25/13/259
f 42/56/260 19/37/261 33/53/262
f 21/62/263 36/61/264 31/28/265
f 53/72/266 37/52/267 45/54/268
f 5/5/269 61/73/270 14/3/271
f 57/74/272 56/75/273 58/76/274
f 63/77/275 62/78/276 60/79/277
f 50/49/278 14/3/279 46/55/280
f 14/3/281 61/73/282 46/55/283
f 46/55/284 61/73/285 62/78/286
f 62/78/287 61/73/288 60/79/289
f 60/79/290 61/73/291 59/80/292
f 59/80/293 61/73/294 55/81/295
f 61/73/296 58/76/297 55/81/298
f 58/76/299 56/75/300 55/81/301
f 64/50/302 65/82/303 49/10/304
f 35/66/305 17/24/306 3/69/307
f 48/25/308 25/13/309 55/81/310 56/75/311
f 41/35/312 48/25/313 56/75/314 57/74/315
f 16/16/316 41/35/317 57/74/318 58/76/319
f 42/56/320 33/53/321 60/79/322 59/80/323
f 51/46/324 16/16/325 58/76/326 61/73/327
f 53/72/328 29/44/329 46/55/330 62/78/331
f 33/53/332 37/52/333 63/77/334 60/79/335
f 22/7/336 51/46/337 61/73/338 5/5/339
f 25/13/340 42/56/341 59/80/342 55/81/343
f 37/52/344 53/72/345 62/78/346 63/77/347
f 29/44/348 53/72/349 64/50/350
f 53/72/351 45/54/352 65/82/353 64/50/354
