# This file uses centimeters as units for non-parametric coordinates.

v -3.122070 5.886729 2.103149
v 13.210938 6.243785 -0.405762
v -10.214539 7.058795 -21.523926
v 13.472961 5.209620 -26.528503
v -11.630981 -5.097739 -15.603149
v 9.145264 -11.113991 -22.603882
v -8.890991 -2.470891 -1.443481
v 8.278442 -13.189833 -4.775879
v -2.713806 -13.347189 1.804077
v 1.302490 -6.804864 -27.383057
v -1.688904 9.511454 -26.058838
v 12.765686 10.213739 -10.518677
v 15.317078 -3.224866 1.962280
v 1.625000 12.427410 -12.850708
vt 0.068596 0.125340
vt 0.068638 0.125349
vt 0.068384 0.125381
vt 0.068425 0.125354
vt 0.068888 0.125417
vt 0.068869 0.125355
vt 0.068805 0.125421
vt 0.068392 0.125449
vt 0.068503 0.125431
vt 0.068386 0.125385
vt 0.068447 0.125420
vt 0.068788 0.125386
vt 0.068689 0.125432
vt 0.068864 0.125363
vn 0.064391 0.916302 0.395277
vn 0.064391 0.916302 0.395277
vn 0.064391 0.916302 0.395277
vn 0.064391 0.916302 0.395277
vn 0.365618 -0.308159 -0.878272
vn 0.365618 -0.308159 -0.878272
vn 0.365618 -0.308159 -0.878272
vn -0.229095 -0.952948 -0.198508
vn -0.229095 -0.952948 -0.198508
vn -0.229095 -0.952948 -0.198508
vn -0.229095 -0.952948 -0.198508
vn 0.140365 0.269477 0.952722
vn 0.140365 0.269477 0.952722
vn 0.140365 0.269477 0.952722
vn 0.982052 0.188595 0.002459
vn 0.982052 0.188595 0.002459
vn 0.982052 0.188595 0.002459
vn 0.982052 0.188595 0.002459
vn -0.970344 0.187183 0.152953
vn -0.970344 0.187183 0.152953
vn -0.970344 0.187183 0.152953
vn -0.872363 -0.421870 0.247001
vn -0.872362 -0.421870 0.247001
vn -0.872363 -0.421870 0.247001
vn -0.521222 0.830193 0.197756
vn -0.521222 0.830193 0.197756
vn -0.521222 0.830193 0.197756
vn -0.593792 -0.160307 -0.788488
vn -0.593792 -0.160307 -0.788488
vn -0.593792 -0.160307 -0.788488
vn -0.593792 -0.160307 -0.788488
vn -0.008619 0.079379 -0.996807
vn -0.008619 0.079379 -0.996807
vn -0.008619 0.079379 -0.996807
vn -0.347367 -0.903686 -0.250375
vn -0.347367 -0.903686 -0.250375
vn -0.347367 -0.903686 -0.250375
vn -0.497708 -0.024031 0.867012
vn -0.497708 -0.024031 0.867012
vn -0.497708 -0.024031 0.867012
vn 0.380412 -0.687267 0.618830
vn 0.380412 -0.687267 0.618830
vn 0.380412 -0.687267 0.618830
vn 0.916722 -0.385047 -0.106580
vn 0.916722 -0.385047 -0.106580
vn 0.916722 -0.385047 -0.106580
vn 0.916722 -0.385047 -0.106580
vn -0.841734 0.464091 0.275867
vn -0.841734 0.464092 0.275867
vn -0.841734 0.464091 0.275867
vn 0.249410 0.928817 -0.274032
vn 0.249410 0.928817 -0.274032
vn 0.249410 0.928817 -0.274032
vn 0.249410 0.928817 -0.274032
vn -0.333932 0.934586 -0.122631
vn -0.333932 0.934586 -0.122631
vn -0.333932 0.934586 -0.122631
vn -0.000116 -0.015507 0.999880
vn -0.000116 -0.015507 0.999880
vn -0.000116 -0.015507 0.999880
s off
f 12/1/1 14/2/2 1/3/3 2/4/4
f 10/5/5 4/6/6 6/7/7
f 9/8/8 10/5/9 6/7/10 8/9/11
f 1/3/12 13/10/13 2/4/14
f 2/4/15 13/10/16 4/6/17 12/1/18
f 7/11/19 3/12/20 5/13/21
f 5/13/22 9/8/23 7/11/24
f 1/3/25 14/2/26 3/12/27
f 3/12/28 11/14/29 10/5/30 5/13/31
f 4/6/32 10/5/33 11/14/34
f 9/8/35 5/13/36 10/5/37
f 7/11/38 9/8/39 1/3/40
f 13/10/41 9/8/42 8/9/43
f 4/6/44 13/10/45 8/9/46 6/7/47
f 1/3/48 3/12/49 7/11/50
f 11/14/51 14/2/52 12/1/53 4/6/54
f 3/12/55 14/2/56 11/14/57
f 13/10/58 1/3/59 9/8/60
