# This file uses centimeters as units for non-parametric coordinates.

v 0.000061 125.108513 -218.755356
v 0.000061 125.108513 -250.006104
v 0.000061 109.469948 -218.755356
v 0.000061 109.469948 -187.504578
v 0.000061 93.831383 -187.504578
v 0.000061 93.831383 -156.253799
v 0.000061 78.192818 -156.253799
v 0.000061 78.192818 -125.003052
v 0.000061 62.554253 -125.003052
v 0.000061 62.554253 -93.752289
v 0.000061 46.915684 -93.752289
v 0.000061 46.915684 -62.501522
v 0.000061 31.277122 -62.501522
v 0.000061 31.277122 -31.250753
v 0.000061 15.638556 -31.250753
v 0.000061 15.638556 0.000002
v 0.000061 -22.900011 0.000002
v 500.000061 125.108513 -218.755371
v 499.999939 125.108513 -250.006104
v 499.999939 109.469948 -218.755371
v 500.000061 109.469948 -187.504578
v 500.000061 93.831383 -187.504578
v 499.999939 93.831383 -156.253815
v 500.000061 78.192818 -156.253815
v 499.999939 78.192818 -125.003052
v 500.000061 62.554253 -125.003052
v 500.000031 62.554253 -93.752289
v 499.999908 46.915684 -93.752289
v 500.000061 46.915691 -62.501526
v 499.999939 31.277122 -62.501526
v 499.999908 31.277122 -31.250763
v 500.000031 15.638556 -31.250763
v 500.000061 15.638556 0.000000
v 499.999939 -22.900011 0.000000
v 499.999939 102.208511 -250.006104
v 0.000061 102.208511 -250.006104
v 95.776550 62.554253 -125.003052
v 416.291077 109.469948 -187.504578
v 365.389526 78.192818 -125.003052
v 177.420227 62.554253 -93.752289
v 442.833679 31.277122 -31.250763
v 200.297058 15.638556 0.000000
v 291.291077 109.469948 -187.504578
v 369.436523 109.469948 -195.317276
v 381.561707 105.560303 -187.504578
v 124.557434 78.192818 -125.003052
v 52.420166 62.554253 -93.752289
v 144.816345 78.192818 -132.815735
v 148.501526 74.283173 -125.003052
v 76.364311 62.554253 -101.564980
v 96.197388 58.644611 -93.752289
v 261.850037 78.192818 -125.003052
v 198.001038 78.192818 -125.003052
v 345.330933 78.192818 -132.815735
v 323.274048 74.283173 -125.003052
v 287.752502 31.277122 -31.250763
v 412.752380 31.277122 -39.063446
v 412.752502 27.367481 -31.250763
v 75.297058 15.638556 0.000000
v 96.204102 15.638556 -7.812691
v 95.481445 6.003915 0.000000
v 126.244308 5.365522 0.000000
vt 0.059715 0.751219
vt 0.059715 0.985778
vt 0.056854 0.985778
vt 0.056854 0.751219
vt 0.068289 0.924529
vt 0.071147 0.887869
vt 0.071862 0.930217
vt 0.088300 0.751219
vt 0.088300 0.985778
vt 0.085439 0.985778
vt 0.085439 0.751219
vt 0.096874 0.913220
vt 0.099732 0.874058
vt 0.100447 0.902873
vt 0.111166 0.787043
vt 0.114740 0.796347
vt 0.114024 0.834450
vt 0.131178 0.751219
vt 0.131178 0.985778
vt 0.128317 0.985778
vt 0.128317 0.751219
vt 0.139752 0.944849
vt 0.143325 0.944849
vt 0.142610 0.958961
vt 0.154044 0.796350
vt 0.158782 0.810443
vt 0.156902 0.845182
vt 0.045422 0.985778
vt 0.045422 0.751219
vt 0.074008 0.985778
vt 0.074008 0.751219
vt 0.116885 0.985778
vt 0.116885 0.751219
vt 0.049612 0.985778
vt 0.049612 0.751219
vt 0.163952 0.985778
vt 0.163952 0.751219
vt 0.114024 0.985778
vt 0.102593 0.985778
vt 0.142610 0.985778
vt 0.145470 0.985778
vt 0.156902 0.985778
vt 0.071147 0.985778
vt 0.099732 0.985778
vt 0.156902 0.751219
vt 0.145470 0.751219
vt 0.102593 0.751219
vt 0.142610 0.751219
vt 0.114024 0.751219
vt 0.099732 0.751219
vt 0.071147 0.751219
vt 0.100447 0.820884
vt 0.096874 0.819155
vt 0.099732 0.809651
vt 0.071147 0.946509
vt 0.102593 0.796150
vt 0.114024 0.775810
vt 0.099732 0.844105
vt 0.099732 0.922630
vt 0.142610 0.886209
vt 0.156902 0.786542
vt 0.158665 0.796011
vn 0.000000 0.000001 1.000000
vn 0.000000 0.000001 1.000000
vn 0.000000 0.000001 1.000000
vn 0.000000 0.000001 1.000000
vn 0.039710 0.916874 0.397196
vn 0.039710 0.916874 0.397196
vn 0.039710 0.916874 0.397196
vn 0.000000 0.000000 1.000000
vn 0.000000 0.000000 1.000000
vn 0.000000 0.000000 1.000000
vn 0.000000 0.000000 1.000000
vn 0.052558 0.825737 0.561601
vn 0.052558 0.825737 0.561601
vn 0.052558 0.825737 0.561601
vn -0.040828 0.848199 0.528102
vn -0.040828 0.848199 0.528102
vn -0.040828 0.848199 0.528102
vn 0.000000 0.000000 1.000000
vn 0.000000 0.000000 1.000000
vn 0.000000 0.000000 1.000000
vn 0.000000 0.000000 1.000000
vn -0.115451 0.888296 0.444524
vn -0.115451 0.888296 0.444524
vn -0.115451 0.888296 0.444524
vn -0.065869 0.474817 0.877616
vn -0.065869 0.474817 0.877616
vn -0.065869 0.474817 0.877616
vn 0.000000 1.000000 0.000000
vn 0.000000 1.000000 0.000000
vn 0.000000 1.000000 0.000000
vn 0.000000 1.000000 0.000000
vn 0.000000 1.000000 0.000000
vn 0.000000 1.000000 0.000000
vn 0.000000 1.000000 0.000000
vn 0.000000 1.000000 0.000000
vn -0.000000 1.000000 -0.000000
vn -0.000000 1.000000 -0.000000
vn -0.000000 1.000000 -0.000000
vn -0.000000 1.000000 -0.000000
vn -0.000000 0.000000 -1.000000
vn -0.000000 0.000000 -1.000000
vn -0.000000 0.000000 -1.000000
vn -0.000000 0.000000 -1.000000
vn -0.000000 -0.894276 -0.447515
vn -0.000000 -0.894276 -0.447515
vn -0.000000 -0.894276 -0.447515
vn -0.000000 -0.894276 -0.447515
vn 1.000000 -0.000008 -0.000000
vn 1.000000 -0.000008 -0.000000
vn 1.000000 -0.000008 -0.000000
vn 1.000000 -0.000008 -0.000004
vn 1.000000 -0.000008 -0.000004
vn 1.000000 -0.000008 -0.000004
vn 1.000000 0.000008 -0.000000
vn 1.000000 0.000008 -0.000000
vn 1.000000 0.000008 -0.000000
vn 1.000000 -0.000003 -0.000000
vn 1.000000 -0.000003 -0.000000
vn 1.000000 -0.000003 -0.000000
vn 1.000000 -0.000003 -0.000002
vn 1.000000 -0.000003 -0.000002
vn 1.000000 -0.000003 -0.000002
vn 1.000000 -0.000003 -0.000002
vn 1.000000 0.000003 -0.000002
vn 1.000000 0.000003 -0.000002
vn 1.000000 0.000003 -0.000002
vn 1.000000 0.000003 -0.000002
vn 1.000000 0.000008 0.000004
vn 1.000000 0.000008 0.000004
vn 1.000000 0.000008 0.000004
vn 1.000000 0.000008 0.000004
vn 1.000000 0.000008 0.000004
vn 1.000000 0.000008 0.000004
vn -1.000000 0.000000 0.000000
vn -1.000000 0.000000 0.000000
vn -1.000000 0.000000 0.000000
vn -1.000000 0.000000 0.000000
vn -1.000000 0.000000 0.000000
vn -1.000000 0.000000 0.000000
vn -1.000000 0.000000 0.000000
vn -1.000000 0.000000 0.000000
vn -1.000000 0.000000 0.000000
vn -1.000000 0.000000 0.000000
vn -1.000000 0.000000 0.000000
vn -1.000000 0.000000 0.000000
vn -1.000000 0.000000 0.000000
vn -1.000000 0.000000 0.000000
vn -1.000000 0.000000 0.000000
vn -1.000000 0.000000 0.000000
vn -1.000000 0.000000 0.000000
vn -1.000000 0.000000 0.000000
vn -1.000000 0.000000 0.000000
vn -1.000000 0.000000 0.000000
vn -1.000000 0.000000 0.000000
vn -1.000000 0.000000 0.000000
vn -1.000000 0.000000 0.000000
vn -1.000000 0.000000 0.000000
vn -1.000000 0.000000 0.000000
vn -1.000000 0.000000 0.000000
vn -1.000000 0.000000 0.000000
vn -1.000000 0.000000 0.000000
vn -1.000000 0.000000 0.000000
vn -1.000000 0.000000 0.000000
vn -1.000000 0.000000 0.000000
vn -1.000000 0.000000 0.000000
vn -1.000000 0.000000 0.000000
vn -1.000000 0.000000 0.000000
vn -1.000000 0.000000 0.000000
vn -1.000000 0.000000 0.000000
vn 1.000000 0.000000 0.000005
vn 1.000000 0.000000 0.000005
vn 1.000000 0.000000 0.000005
vn 1.000000 -0.000005 -0.000004
vn 1.000000 -0.000005 -0.000004
vn 1.000000 -0.000005 -0.000004
vn 1.000000 -0.000011 -0.000011
vn 1.000000 -0.000011 -0.000011
vn 1.000000 -0.000011 -0.000011
vn 1.000000 -0.000005 -0.000004
vn 1.000000 -0.000005 -0.000004
vn 1.000000 -0.000005 -0.000004
vn 1.000000 -0.000003 -0.000001
vn 1.000000 -0.000003 -0.000001
vn 1.000000 -0.000003 -0.000001
vn 1.000000 -0.000003 -0.000001
vn -1.000000 0.000000 -0.000000
vn -1.000000 0.000000 -0.000000
vn -1.000000 0.000000 -0.000000
vn -1.000000 0.000000 0.000000
vn -1.000000 0.000000 0.000000
vn -1.000000 0.000000 0.000000
vn 0.148688 0.910623 0.385561
vn 0.148688 0.910623 0.385561
vn 0.148688 0.910623 0.385561
vn 0.000000 1.000000 0.000000
vn 0.000000 1.000000 0.000000
vn 0.000000 1.000000 0.000000
vn 0.000000 1.000000 0.000000
vn 0.000000 1.000000 0.000000
vn 0.000000 1.000000 0.000000
vn 0.000000 1.000000 0.000000
vn 0.000000 0.000000 1.000000
vn 0.000000 0.000000 1.000000
vn 0.000000 0.000000 1.000000
vn 0.000000 0.000000 1.000000
vn 0.000000 0.000000 1.000000
vn 0.000000 0.000000 1.000000
vn 0.000000 0.000000 1.000000
vn 0.000000 -0.000001 1.000000
vn 0.000000 -0.000001 1.000000
vn 0.000000 -0.000001 1.000000
vn 0.000000 -0.000001 1.000000
vn 0.000000 1.000000 -0.000000
vn 0.000000 1.000000 -0.000000
vn 0.000000 1.000000 -0.000000
vn 0.000000 1.000000 -0.000000
vn 0.000000 1.000000 0.000000
vn 0.000000 1.000000 0.000000
vn 0.000000 1.000000 0.000000
vn 0.000000 1.000000 0.000000
vn 0.000000 0.000000 1.000000
vn 0.000000 0.000000 1.000000
vn 0.000000 0.000000 1.000000
vn 0.000000 0.000000 1.000000
vn 0.000000 0.000000 1.000000
vn 0.000000 0.000000 1.000000
vn 0.000000 0.000000 1.000000
vn 0.000000 1.000000 0.000000
vn 0.000000 1.000000 0.000000
vn 0.000000 1.000000 0.000000
vn 0.000000 1.000000 0.000000
vn 0.000000 1.000000 0.000000
vn 0.000000 1.000000 0.000000
vn 0.000000 1.000000 0.000000
vn 0.000000 0.000000 1.000000
vn 0.000000 0.000000 1.000000
vn 0.000000 0.000000 1.000000
vn 0.000000 0.000000 1.000000
vn 0.000000 0.000000 1.000000
vn 0.000000 0.000000 1.000000
vn 0.000000 0.000000 1.000000
vn 0.000000 0.000000 1.000000
vn 0.000000 0.000000 1.000000
vn 0.000000 0.000000 1.000000
vn 0.000000 0.000000 1.000000
vn 0.000000 1.000000 0.000000
vn 0.000000 1.000000 0.000000
vn 0.000000 1.000000 0.000000
vn 0.000000 1.000000 0.000000
vn 0.000000 1.000000 0.000000
vn 0.000000 1.000000 0.000000
vn 0.000000 1.000000 0.000000
vn 0.000000 1.000000 0.000000
vn 0.000000 1.000000 0.000000
vn 0.000000 1.000000 0.000000
vn 0.000000 1.000000 0.000000
vn 0.000000 1.000000 0.000000
vn 0.000000 1.000000 0.000000
vn 0.000000 1.000000 0.000000
vn 0.000000 1.000000 0.000000
vn 0.000000 0.000001 1.000000
vn 0.000000 0.000001 1.000000
vn 0.000000 0.000001 1.000000
vn 0.000000 0.000001 1.000000
vn 0.000000 -0.000001 1.000000
vn 0.000000 -0.000001 1.000000
vn 0.000000 -0.000001 1.000000
vn 0.000000 -0.000001 1.000000
vn 0.000000 0.000001 1.000000
vn 0.000000 0.000001 1.000000
vn 0.000000 0.000001 1.000000
vn 0.000000 0.000001 1.000000
vn 0.000000 1.000000 -0.000000
vn 0.000000 1.000000 -0.000000
vn 0.000000 1.000000 -0.000000
vn 0.000000 1.000000 -0.000000
vn 0.000000 1.000000 0.000000
vn 0.000000 1.000000 0.000000
vn 0.000000 1.000000 0.000000
vn 0.000000 1.000000 0.000000
vn 0.000000 1.000000 -0.000000
vn 0.000000 1.000000 -0.000000
vn 0.000000 1.000000 -0.000000
vn 0.000000 0.000000 1.000000
vn 0.000000 0.000000 1.000000
vn 0.000000 0.000000 1.000000
vn 0.000000 0.000000 1.000000
vn 0.000000 -0.000002 1.000000
vn 0.000000 -0.000002 1.000000
vn 0.000000 -0.000002 1.000000
vn 0.000000 -0.000000 1.000000
vn 0.000000 -0.000000 1.000000
vn 0.000000 -0.000000 1.000000
vn 0.000000 -0.000000 1.000000
vn -0.000000 1.000000 0.000000
vn -0.000000 1.000000 0.000000
vn -0.000000 1.000000 0.000000
vn -0.000000 1.000000 0.000000
vn 0.000000 1.000000 0.000000
vn 0.000000 1.000000 0.000000
vn 0.000000 1.000000 0.000000
vn 0.000000 1.000000 0.000000
vn 0.000000 0.000000 1.000000
vn 0.000000 0.000000 1.000000
vn 0.000000 0.000000 1.000000
vn 0.000000 0.000000 1.000000
vn 0.000000 0.000000 1.000000
vn 0.000000 0.000000 1.000000
vn 0.000000 0.000000 1.000000
vn 0.000000 0.000000 1.000000
vn 0.000000 0.000000 1.000000
vn 0.000000 0.000000 1.000000
vn 0.000000 0.000000 1.000000
vn 0.000000 1.000000 0.000000
vn 0.000000 1.000000 0.000000
vn 0.000000 1.000000 0.000000
vn 0.000000 1.000000 0.000000
vn 0.000000 1.000000 0.000000
vn 0.000000 1.000000 0.000000
vn 0.000000 1.000000 0.000000
vn -0.089936 0.968811 0.230906
vn -0.089936 0.968811 0.230906
vn -0.089936 0.968811 0.230906
vn -0.092899 0.825210 0.557133
vn -0.092899 0.825210 0.557133
vn -0.092899 0.825210 0.557133
vn -0.069398 0.878636 0.472423
vn -0.069398 0.878636 0.472423
vn -0.069398 0.878636 0.472423
vn 0.085822 0.960965 0.263024
vn 0.085822 0.960965 0.263024
vn 0.085822 0.960965 0.263024
vn 0.027959 0.893927 0.447340
vn 0.027959 0.893927 0.447340
vn 0.027959 0.893927 0.447340
vn 0.282277 0.591366 0.755385
vn 0.282277 0.591366 0.755385
vn 0.282277 0.591366 0.755385
vn 0.013057 0.629197 0.777136
vn 0.013057 0.629197 0.777136
vn 0.013057 0.629197 0.777136
vn 0.000000 0.000000 1.000000
vn 0.000000 0.000000 1.000000
vn 0.000000 0.000000 1.000000
s off
f 3/1/1 20/2/2 18/3/3 1/4/4
f 44/5/5 43/6/6 45/7/7
f 7/8/8 24/9/9 23/10/10 6/11/11
f 54/12/12 52/13/13 55/14/14
f 50/15/15 51/16/16 40/17/17
f 13/18/18 30/19/19 29/20/20 12/21/21
f 57/22/22 58/23/23 41/24/24
f 60/25/25 62/26/26 42/27/27
f 18/3/28 19/28/29 2/29/30 1/4/31
f 23/10/32 22/30/33 5/31/34 6/11/35
f 29/20/36 28/32/37 11/33/38 12/21/39
f 2/29/40 19/28/41 35/34/42 36/35/43
f 34/36/44 17/37/45 36/35/46 35/34/47
f 27/38/48 28/32/49 26/39/50
f 29/20/51 30/19/52 28/32/53
f 31/40/54 32/41/55 30/19/56
f 33/42/57 34/36/58 32/41/59
f 35/34/60 19/28/61 18/3/62 20/2/63
f 20/2/64 21/43/65 22/30/66 35/34/67
f 23/10/68 24/9/69 22/30/70
f 26/39/71 24/9/72 25/44/73
f 16/45/74 15/46/75 17/37/76
f 9/47/77 36/35/78 17/37/79 11/33/80
f 13/18/81 17/37/82 15/46/83
f 14/48/84 13/18/85 15/46/86
f 12/21/87 11/33/88 13/18/89
f 10/49/90 9/47/91 11/33/92
f 8/50/93 7/8/94 9/47/95
f 36/35/96 9/47/97 7/8/98
f 6/11/99 5/31/100 7/8/101
f 36/35/102 5/31/103 4/51/104 3/1/105
f 2/29/106 36/35/107 3/1/108 1/4/109
f 34/36/110 28/32/111 30/19/112
f 24/9/113 35/34/114 22/30/115
f 34/36/116 30/19/117 32/41/118
f 26/39/119 35/34/120 24/9/121
f 34/36/122 35/34/123 26/39/124 28/32/125
f 13/18/126 11/33/127 17/37/128
f 36/35/129 7/8/130 5/31/131
f 49/52/132 48/53/133 46/54/134
f 20/2/135 3/1/136 4/51/137 44/5/138
f 43/6/139 44/5/140 4/51/141
f 22/30/142 45/7/143 5/31/144
f 5/31/145 45/7/146 43/6/147 4/51/148
f 38/55/149 45/7/150 22/30/151 21/43/152
f 21/43/153 20/2/154 44/5/155 38/55/156
f 46/54/157 48/53/158 7/8/159 8/50/160
f 8/50/161 9/47/162 37/56/163 46/54/164
f 49/52/165 46/54/166 37/56/167
f 37/56/168 9/47/169 10/49/170 50/15/171
f 47/57/172 50/15/173 10/49/174
f 11/33/175 51/16/176 47/57/177 10/49/178
f 11/33/179 28/32/180 51/16/181
f 40/17/182 51/16/183 28/32/184 27/38/185
f 27/38/186 26/39/187 37/56/188 40/17/189
f 50/15/190 40/17/191 37/56/192
f 54/12/193 24/9/194 7/8/195 48/53/196
f 52/13/197 54/12/198 48/53/199 53/58/200
f 37/56/201 26/39/202 55/14/203 52/13/204
f 37/56/205 52/13/206 53/58/207 49/52/208
f 39/59/209 55/14/210 26/39/211 25/44/212
f 25/44/213 24/9/214 54/12/215 39/59/216
f 30/19/217 13/18/218 14/48/219 56/60/220
f 56/60/221 57/22/222 30/19/223
f 14/48/224 15/46/225 32/41/226 58/23/227
f 58/23/228 56/60/229 14/48/230
f 41/24/231 58/23/232 32/41/233 31/40/234
f 31/40/235 30/19/236 57/22/237 41/24/238
f 59/61/239 60/25/240 15/46/241 16/45/242
f 17/37/243 61/62/244 59/61/245 16/45/246
f 17/37/247 34/36/248 33/42/249 42/27/250
f 17/37/251 42/27/252 62/26/253
f 33/42/254 32/41/255 15/46/256 42/27/257
f 15/46/258 60/25/259 42/27/260
f 54/12/261 55/14/262 39/59/263
f 44/5/264 45/7/265 38/55/266
f 53/58/267 48/53/268 49/52/269
f 50/15/270 47/57/271 51/16/272
f 57/22/273 56/60/274 58/23/275
f 60/25/276 59/61/277 61/62/278
f 60/25/279 61/62/280 62/26/281
f 17/37/282 62/26/283 61/62/284
