# This file uses centimeters as units for non-parametric coordinates.

v 56.498535 74.994858 26.508430
v 43.621826 74.994858 16.651165
v 153.422684 163.815796 26.508430
v 146.800537 178.183945 16.651165
v 46.991333 124.022041 16.651165
v 93.033691 164.029877 16.651165
v 42.131744 131.904388 26.305092
v 82.338135 164.029877 26.305092
v 46.991333 204.037704 16.651165
v 46.991333 190.151978 26.305092
v 0.000000 131.737244 26.305090
v 0.000000 124.022041 16.651165
v 0.000000 196.322525 26.305090
v 0.000000 204.037704 16.651165
v 0.000000 0.000000 31.195307
v 0.000000 500.000000 31.195307
v 0.000000 500.000000 -14.239197
v 0.000000 0.000000 -14.239197
v 0.000000 250.000000 31.195307
v 214.000000 385.066040 31.195307
v 110.554688 286.000000 31.195307
v 214.000000 464.000000 31.195307
v 0.000000 286.000000 31.195307
v 0.000000 464.000000 31.195307
v 195.800049 392.836243 16.651150
v 103.245605 304.200012 16.651150
v 195.800049 445.799957 16.651150
v 0.000000 304.200012 16.651150
v 0.000000 445.799957 16.651150
v 0.000000 221.439117 16.651165
v 0.000000 105.152161 16.651165
v 0.000000 75.871384 31.195307
v 250.000000 250.000000 31.195307
v 250.000000 500.000000 31.195307
v 250.000000 500.000000 -14.239197
v 250.000000 0.000000 -14.239197
v 250.000000 0.000000 31.195307
v 250.000000 75.871384 31.195307
v 250.000000 105.152161 16.651165
v 250.000000 221.439117 16.651165
v 250.000000 178.183945 16.651165
v 249.999878 171.745575 26.508430
v 250.000000 85.271919 26.508430
v 250.000000 105.152161 16.651165
v 54.233150 189.706436 26.305092
v 46.991333 200.784882 20.721386
v 33.743301 196.322525 26.305092
v 161.427948 171.745575 26.508430
v 131.549789 150.053680 26.508430
v 162.798752 75.871384 31.195309
v 237.259003 75.871384 31.195307
v 222.400467 82.419220 27.942911
v 222.552551 69.401550 31.195307
v 11.740005 75.871384 31.195305
v 68.323212 75.871384 31.195309
v 40.604279 80.305405 28.992870
v 48.676414 68.243767 31.195307
v 154.686493 218.685928 16.651165
v 165.860657 252.302231 31.195307
v 7.240781 286.000000 31.195307
v 50.676529 277.214508 31.195307
v 67.448448 290.451721 29.042833
v 152.783936 350.682068 16.651150
v 166.958923 334.275208 31.195309
v 121.015717 464.000000 31.195307
v 16.466652 464.000000 31.195307
v 40.775848 470.094147 31.195307
v 77.240433 471.630920 31.195307
v 90.499107 458.597534 28.583139
vt 0.071061 0.587531
vt 0.074179 0.830754
vt 0.022481 0.538946
vt 0.028544 0.538946
vt 0.024068 0.843166
vt 0.024068 0.599704
vt 0.001942 0.599704
vt 0.001942 0.596071
vt 0.001942 0.815663
vt 0.001942 0.812030
vt 0.024068 0.562030
vt 0.021779 0.815741
vt 0.045746 0.580867
vt 0.040710 0.580867
vt 0.001942 0.871345
vt 0.001942 0.857897
vt 0.001942 0.753636
vt 0.001942 0.753636
vt 0.001942 0.989053
vt 0.050554 0.896864
vt 0.094132 0.688597
vt 0.094132 0.713534
vt 0.001942 0.963534
vt 0.001942 0.896864
vt 0.102701 0.972103
vt 0.001942 0.989053
vt 0.053995 0.888295
vt 0.102701 0.934938
vt 0.001942 0.972103
vt 0.001942 0.638295
vt 0.001942 0.553145
vt 0.001942 0.789359
vt 0.119651 0.871345
vt 0.119651 0.989053
vt 0.119651 0.989053
vt 0.119651 0.753636
vt 0.119651 0.753636
vt 0.119651 0.539359
vt 0.119651 0.553145
vt 0.119651 0.607897
vt 0.119651 0.837531
vt 0.119651 0.834500
vt 0.119651 0.788946
vt 0.119651 0.788946
vt 0.119651 0.587531
vt 0.119651 0.584500
vt 0.074179 0.580766
vt 0.119651 0.553145
vt 0.119651 0.607897
vt 0.001942 0.553145
vt 0.001942 0.607897
vt 0.094132 0.963534
vt 0.001942 0.713534
vt 0.001942 0.722103
vt 0.050554 0.646864
vt 0.001942 0.646864
vt 0.001942 0.888295
vt 0.094132 0.938597
vt 0.102701 0.722103
vt 0.053995 0.638295
vt 0.102701 0.684938
vt 0.001942 0.849704
vt 0.001942 0.846071
vt 0.001942 0.565663
vt 0.001942 0.562030
vt 0.040710 0.830867
vt 0.024068 0.593166
vt 0.021779 0.565741
vt 0.028544 0.788946
vt 0.027477 0.842956
vt 0.027477 0.592956
vt 0.024068 0.598173
vt 0.017830 0.846071
vt 0.017830 0.596071
vt 0.077948 0.834500
vt 0.077948 0.584500
vt 0.063881 0.824287
vt 0.063881 0.574287
vt 0.078594 0.539359
vt 0.113652 0.539359
vt 0.106656 0.542442
vt 0.106728 0.786313
vt 0.007470 0.789359
vt 0.034111 0.539359
vt 0.021060 0.541447
vt 0.024861 0.785768
vt 0.074774 0.606868
vt 0.074774 0.606601
vt 0.080035 0.872434
vt 0.005352 0.888295
vt 0.005352 0.638295
vt 0.025803 0.884158
vt 0.033699 0.640391
vt 0.025803 0.634942
vt 0.073836 0.668794
vt 0.073878 0.918749
vt 0.080552 0.911024
vt 0.080297 0.661292
vt 0.058921 0.722103
vt 0.058921 0.972103
vt 0.009695 0.722103
vt 0.009695 0.972103
vt 0.021141 0.974973
vt 0.038310 0.975696
vt 0.044552 0.719560
vt 0.038310 0.725015
vt 0.021141 0.724429
vt 0.080035 0.622434
vt 0.001942 0.621345
vt 0.119651 0.857897
vt 0.024861 0.535768
vt 0.007470 0.539359
vt 0.034111 0.789359
vt 0.078594 0.789359
vt 0.106728 0.536313
vt 0.113652 0.789359
vt 0.119651 0.789359
vt 0.119651 0.621345
vt 0.119651 0.803145
vt 0.001942 0.539359
vt 0.001942 0.803145
vt 0.001942 0.607897
vn -0.519436 0.519384 0.678547
vn -0.519436 0.519384 0.678547
vn -0.519436 0.519384 0.678547
vn -0.519436 0.519384 0.678547
vn 0.211644 0.454395 0.865293
vn 0.211644 0.454395 0.865293
vn 0.211644 0.454395 0.865293
vn 0.001459 -0.777707 0.628626
vn 0.001459 -0.777707 0.628626
vn 0.001459 -0.777707 0.628626
vn 0.001459 -0.777707 0.628626
vn 0.493653 -0.590254 0.638676
vn 0.493653 -0.590254 0.638676
vn 0.493653 -0.590254 0.638676
vn 0.493653 -0.590254 0.638676
vn 0.028592 0.464737 0.884987
vn 0.028592 0.464737 0.884987
vn 0.028592 0.464737 0.884987
vn -1.000000 0.000000 0.000000
vn -1.000000 0.000000 0.000000
vn -1.000000 0.000000 0.000000
vn -1.000000 0.000000 0.000000
vn -0.000596 -0.423662 0.905820
vn -0.000596 -0.423662 0.905820
vn -0.000596 -0.423662 0.905820
vn -0.000596 -0.423662 0.905820
vn 0.000000 -1.000000 0.000000
vn 0.000000 -1.000000 0.000000
vn 0.000000 -1.000000 0.000000
vn 0.000000 -1.000000 0.000000
vn 0.000000 0.000000 -1.000000
vn 0.000000 0.000000 -1.000000
vn 0.000000 0.000000 -1.000000
vn 0.000000 0.000000 -1.000000
vn -0.000000 0.000000 1.000000
vn -0.000000 0.000000 1.000000
vn -0.000000 0.000000 1.000000
vn -0.000000 0.000000 1.000000
vn 0.000000 0.000000 1.000000
vn 0.000000 0.000000 1.000000
vn 0.000000 0.000000 1.000000
vn -0.000000 0.000000 1.000000
vn -0.000000 0.000000 1.000000
vn -0.000000 0.000000 1.000000
vn -0.000000 0.000000 1.000000
vn -0.000000 0.000000 1.000000
vn -0.000000 0.000000 1.000000
vn -0.000000 0.000000 1.000000
vn -0.000000 0.000000 1.000000
vn -0.288785 0.279812 0.915592
vn -0.288785 0.279812 0.915592
vn -0.288785 0.279812 0.915592
vn -0.288785 0.279812 0.915592
vn -0.435303 0.000000 0.900284
vn -0.435303 0.000000 0.900284
vn -0.435303 0.000000 0.900284
vn -0.435303 0.000000 0.900284
vn -0.000000 -0.435301 0.900285
vn -0.000000 -0.435301 0.900285
vn -0.000000 -0.435301 0.900285
vn -0.000000 -0.435301 0.900285
vn -0.000000 0.435302 0.900284
vn -0.000000 0.435302 0.900284
vn -0.000000 0.435302 0.900284
vn -0.000000 0.435302 0.900284
vn -0.000000 0.435302 0.900284
vn 0.000000 0.000000 1.000000
vn 0.000000 0.000000 1.000000
vn 0.000000 0.000000 1.000000
vn -0.000000 0.444857 0.895602
vn -0.000000 0.444857 0.895602
vn -0.000000 0.444857 0.895602
vn -0.000000 0.444857 0.895602
vn -0.000000 0.000000 1.000000
vn -0.000000 0.000000 1.000000
vn -0.000000 0.000000 1.000000
vn -0.000000 0.000000 1.000000
vn 0.000000 0.000000 1.000000
vn 0.000000 0.000000 1.000000
vn 0.000000 0.000000 1.000000
vn 0.000000 0.000000 1.000000
vn -1.000000 0.000000 0.000000
vn -1.000000 0.000000 0.000000
vn -1.000000 0.000000 0.000000
vn -1.000000 0.000000 0.000000
vn -1.000000 0.000000 0.000000
vn -1.000000 0.000000 0.000000
vn -1.000000 0.000000 0.000000
vn -1.000000 0.000000 0.000000
vn -1.000000 0.000000 0.000000
vn -1.000000 0.000000 0.000000
vn -1.000000 0.000000 0.000000
vn -1.000000 0.000000 0.000000
vn -1.000000 0.000000 0.000000
vn -1.000000 0.000000 0.000000
vn -1.000000 0.000000 0.000000
vn -1.000000 0.000000 0.000000
vn -1.000000 0.000000 0.000000
vn -1.000000 0.000000 0.000000
vn -1.000000 0.000000 0.000000
vn -1.000000 0.000000 0.000000
vn 0.000000 1.000000 0.000000
vn 0.000000 1.000000 0.000000
vn 0.000000 1.000000 0.000000
vn 0.000000 1.000000 0.000000
vn 0.000000 0.837232 0.546847
vn 0.000000 0.837232 0.546847
vn 0.000000 0.837232 0.546847
vn 0.000000 0.837232 0.546847
vn -0.000000 0.000000 1.000000
vn -0.000000 0.000000 1.000000
vn -0.000000 0.000000 1.000000
vn -0.000000 0.000000 1.000000
vn -0.000000 0.000000 1.000000
vn -0.000000 0.000000 1.000000
vn 1.000000 0.000001 0.000007
vn 1.000000 0.000001 0.000007
vn 1.000000 0.000001 0.000007
vn 1.000000 0.000001 0.000007
vn 1.000000 0.000000 0.000000
vn 1.000000 0.000000 0.000000
vn 1.000000 0.000000 0.000000
vn 1.000000 0.000000 0.000000
vn 1.000000 -0.000000 0.000000
vn 1.000000 -0.000000 0.000000
vn 1.000000 -0.000000 0.000000
vn 1.000000 -0.000000 0.000000
vn 1.000000 0.000000 0.000000
vn 1.000000 0.000000 0.000000
vn 1.000000 0.000000 0.000000
vn 1.000000 0.000000 0.000000
vn 0.551049 0.621279 0.557097
vn 0.551049 0.621279 0.557097
vn 0.551049 0.621279 0.557097
vn 0.551049 0.621279 0.557097
vn 0.551049 0.621279 0.557097
vn 0.000000 0.781183 0.624302
vn 0.000000 0.781183 0.624302
vn 0.000000 0.781183 0.624302
vn 0.000000 0.781183 0.624302
vn 0.000000 0.781183 0.624302
vn -0.000000 -0.000000 1.000000
vn -0.000000 -0.000000 1.000000
vn -0.000000 -0.000000 1.000000
vn -0.000000 -0.000000 1.000000
vn -0.000000 -0.000000 1.000000
vn 0.000000 0.000000 1.000000
vn 0.000000 0.000000 1.000000
vn 0.000000 0.000000 1.000000
vn 0.000000 0.000000 1.000000
vn -0.388872 0.392574 0.833465
vn -0.388872 0.392574 0.833465
vn -0.388872 0.392574 0.833465
vn -0.283330 0.450311 0.846726
vn -0.283330 0.450311 0.846726
vn -0.283330 0.450311 0.846726
vn 0.026267 0.242599 0.969771
vn 0.026267 0.242599 0.969771
vn 0.026267 0.242599 0.969771
vn 0.042765 0.207089 0.977387
vn 0.042765 0.207089 0.977387
vn 0.042765 0.207089 0.977387
vn -0.055603 0.143219 0.988128
vn -0.055603 0.143219 0.988128
vn -0.055603 0.143219 0.988128
vn -0.105531 0.239880 0.965050
vn -0.105531 0.239880 0.965050
vn -0.105531 0.239880 0.965050
vn -0.000000 0.000000 1.000000
vn -0.000000 0.000000 1.000000
vn -0.000000 0.000000 1.000000
vn -0.000000 0.000000 1.000000
vn 0.001065 -0.423907 0.905705
vn 0.001065 -0.423907 0.905705
vn 0.001065 -0.423907 0.905705
vn 0.001065 -0.423907 0.905705
vn 0.000000 0.000000 1.000000
vn 0.000000 0.000000 1.000000
vn 0.000000 0.000000 1.000000
vn 0.000000 0.444857 0.895602
vn 0.000000 0.444857 0.895602
vn 0.000000 0.444857 0.895602
vn 0.000000 0.444857 0.895602
vn -0.000000 0.444857 0.895602
vn -0.000000 0.444857 0.895602
vn -0.000000 0.444857 0.895602
vn -0.000000 0.444857 0.895602
vn 0.000000 0.444857 0.895602
vn 0.000000 0.444857 0.895602
vn 0.000000 0.444857 0.895602
vn 0.000000 0.444857 0.895602
vn 0.000000 0.000000 1.000000
vn 0.000000 0.000000 1.000000
vn 0.000000 0.000000 1.000000
vn 0.000000 0.000000 1.000000
vn 0.000000 -0.000000 1.000000
vn 0.000000 -0.000000 1.000000
vn 0.000000 -0.000000 1.000000
vn 0.000000 -0.000000 1.000000
vn -0.000000 0.000000 1.000000
vn -0.000000 0.000000 1.000000
vn -0.000000 0.000000 1.000000
vn -0.000000 0.000000 1.000000
vn 0.025955 0.128322 0.991393
vn 0.025955 0.128322 0.991393
vn 0.025955 0.128322 0.991393
vn -0.028727 0.195789 0.980225
vn -0.028727 0.195789 0.980225
vn -0.028727 0.195789 0.980225
vn 0.000000 0.435302 0.900284
vn 0.000000 0.435302 0.900284
vn 0.000000 0.435302 0.900284
vn 0.000000 0.000000 1.000000
vn 0.000000 0.000000 1.000000
vn 0.000000 0.000000 1.000000
vn 0.000000 0.000000 1.000000
vn 0.000000 0.000000 1.000000
vn 0.000000 0.000000 1.000000
vn 0.000000 0.000000 1.000000
vn 0.000000 0.000000 1.000000
vn -0.267834 0.299449 0.915748
vn -0.267834 0.299449 0.915748
vn -0.267834 0.299449 0.915748
vn -0.267834 0.299449 0.915748
vn -0.000000 -0.000000 1.000000
vn -0.000000 -0.000000 1.000000
vn -0.000000 -0.000000 1.000000
vn -0.041227 -0.236500 0.970756
vn -0.041227 -0.236500 0.970756
vn -0.041227 -0.236500 0.970756
vn 0.027158 -0.108333 0.993744
vn 0.027158 -0.108333 0.993744
vn 0.027158 -0.108333 0.993744
vn 0.007953 -0.188721 0.981999
vn 0.007953 -0.188721 0.981999
vn 0.007953 -0.188721 0.981999
vn 0.000000 -0.435301 0.900285
vn 0.000000 -0.435301 0.900285
vn 0.000000 -0.435301 0.900285
vn 0.000000 -0.435301 0.900285
vn 0.000000 -0.435304 0.900283
vn 0.000000 -0.435304 0.900283
vn 0.000000 -0.435304 0.900283
vn 0.000000 0.000000 1.000000
vn 0.000000 0.000000 1.000000
vn 0.000000 0.000000 1.000000
vn 0.000000 0.000000 1.000000
vn 0.000000 0.000000 1.000000
vn 0.000000 0.000000 1.000000
vn 0.000000 0.000000 1.000000
vn 0.000000 0.000000 1.000000
s off
f 1/4/1 49/78/2 4/1/3 2/3/4
f 10/67/5 46/72/6 47/74/7
f 11/64/8 12/65/9 5/11/10 7/68/11
f 5/11/12 6/13/13 8/14/14 7/68/15
f 45/71/16 46/72/17 10/67/18
f 12/10/19 11/9/20 13/63/21 14/62/22
f 19/109/23 30/122/24 58/87/25 59/108/26
f 15/17/27 18/18/28 36/36/29 37/37/30
f 17/19/31 35/35/32 36/36/33 18/18/34
f 29/23/35 63/96/36 25/58/37 27/52/38
f 64/97/39 33/33/40 20/28/41
f 67/103/42 16/26/43 24/29/44 66/102/45
f 19/15/46 59/89/47 21/27/48 61/92/49
f 63/95/50 64/98/51 20/61/52 25/21/53
f 20/61/54 22/59/55 27/22/56 25/21/57
f 29/53/58 69/105/59 66/101/60 24/54/61
f 23/30/62 60/91/63 62/93/64 26/55/65 28/56/66
f 31/50/67 58/88/68 30/51/69
f 39/39/70 31/31/71 56/85/72 52/81/73
f 57/86/74 15/17/75 37/37/76 53/82/77
f 34/34/78 22/25/79 20/28/80 33/33/81
f 29/23/82 24/29/83 16/26/84 17/19/85
f 28/24/86 30/16/87 19/15/88 23/57/89
f 31/121/90 18/18/91 15/17/92 32/32/93
f 30/16/94 17/19/95 18/18/96 31/121/97
f 29/23/98 17/19/99 30/16/100 28/24/101
f 16/26/102 34/34/103 35/35/104 17/19/105
f 42/46/106 41/45/107 4/1/108 48/76/109
f 43/43/110 42/42/111 48/75/112 3/2/113 49/77/114 1/69/115
f 41/41/116 42/42/117 43/43/118 44/44/119
f 35/35/120 34/34/121 33/33/122 40/110/123
f 37/37/124 36/36/125 39/119/126 38/117/127
f 39/119/128 36/36/129 35/35/130 40/110/131
f 6/13/132 9/6/133 46/72/134 45/71/135 8/14/136
f 47/74/137 46/72/138 9/6/139 14/7/140 13/8/141
f 7/12/142 10/5/143 47/73/144 13/63/145 11/9/146
f 7/12/147 8/66/148 45/70/149 10/5/150
f 48/76/151 4/1/152 3/47/153
f 4/1/154 49/78/155 3/47/156
f 53/115/157 52/81/158 50/79/159
f 57/111/160 56/85/161 54/112/162
f 55/84/163 56/85/164 57/111/165
f 51/80/166 52/81/167 53/115/168
f 40/49/169 58/88/170 31/50/171 39/48/172
f 59/108/173 58/87/174 40/40/175 33/118/176
f 21/27/177 59/89/178 33/33/179
f 56/85/180 31/31/181 32/120/182 54/112/183
f 52/81/184 56/85/185 55/84/186 50/79/187
f 39/39/188 52/81/189 51/80/190 38/38/191
f 53/82/192 37/37/193 38/117/194 51/116/195
f 57/86/196 53/82/197 50/114/198 55/113/199
f 32/32/200 15/17/201 57/86/202 54/83/203
f 61/94/204 62/93/205 60/91/206
f 21/60/207 62/93/208 61/94/209
f 26/55/210 62/93/211 21/60/212
f 19/15/213 61/92/214 60/90/215 23/57/216
f 26/20/217 63/96/218 29/23/219 28/24/220
f 21/60/221 64/98/222 63/95/223 26/55/224
f 21/27/225 33/33/226 64/97/227
f 68/106/228 69/105/229 65/99/230
f 66/101/231 69/105/232 67/107/233
f 67/107/234 69/105/235 68/106/236
f 27/22/237 22/59/238 65/99/239 69/105/240
f 27/22/241 69/105/242 29/53/243
f 16/26/244 67/103/245 68/104/246 34/34/247
f 34/34/248 68/104/249 65/100/250 22/25/251
