# This file uses centimeters as units for non-parametric coordinates.

v 66.291016 50.000000 66.291016
v 0.000000 50.000000 93.750000
v -93.750000 50.000000 0.000000
v -66.291016 50.000000 -66.291016
v 66.291016 50.000000 -66.291016
v 93.750000 50.000000 0.000000
v 83.033203 30.000000 83.033203
v 0.000000 30.000000 117.426758
v -83.033203 30.000000 83.033203
v -117.426758 30.000000 0.000000
v -83.033203 30.000000 -83.033203
v 0.000000 30.000000 -117.426758
v 83.033203 30.000000 -83.033203
v 117.427734 30.000000 0.000000
v 73.630859 37.016060 73.630859
v 104.130859 37.016060 0.000000
v 73.630859 37.016060 -73.630859
v 0.000000 37.016060 -104.129883
v -73.630859 37.016060 -73.630859
v -104.129883 37.016060 0.000000
v -73.630859 37.016060 73.630859
v 0.000000 37.016060 104.129883
v 80.173828 35.033524 80.173828
v 112.445313 36.200211 0.000000
v 79.510742 36.200211 -79.510742
v 0.000000 36.200211 -112.445313
v -79.510742 36.200211 -79.510742
v -112.445313 36.200211 0.000000
v -79.510742 36.200211 79.510742
v 0.000000 36.200211 112.445313
v 0.000000 50.000000 0.000000
v -56.347656 50.000000 70.410156
v -77.553711 50.000000 39.100586
v -68.665039 45.801350 68.665039
v -56.347656 50.000000 56.347656
v -17.112305 50.000000 -86.662109
v 4.640625 50.000000 -91.828125
v 0.000000 47.749619 -95.548828
v 0.000000 50.000000 -87.187500
v 73.100586 36.200211 82.166016
v 94.736328 36.200211 42.750977
v 125.000000 26.240101 125.000000
v -125.000000 30.000000 125.000000
v 125.000000 0.000000 125.000000
v -125.000000 0.000000 125.000000
v 125.000000 0.000000 -125.000000
v -125.000000 0.000000 -125.000000
v 125.000000 16.260780 -125.000000
v -90.000000 30.000000 -125.000000
v -125.000000 26.560381 -125.000000
v -125.000000 30.000000 -112.564453
v -14.623047 30.000000 125.000000
v -90.245117 30.000000 125.000000
v -64.537109 30.000000 116.873047
v -35.969727 30.000000 118.224609
v -39.928711 22.191240 125.000000
v 101.082031 30.000000 -125.000000
v 125.000000 30.000000 -90.225586
v 113.556641 30.000000 -100.923828
v 125.000000 30.000000 113.791016
v 87.576172 30.000000 125.000000
vt 0.145801 0.939087
vt 0.174940 0.910013
vt 0.183979 0.913664
vt 0.149655 0.948026
vt 0.167658 0.871820
vt 0.177805 0.867884
vt 0.174976 0.875119
vt 0.146123 0.839766
vt 0.104949 0.839415
vt 0.101293 0.830379
vt 0.149903 0.830565
vt 0.079009 0.869865
vt 0.075546 0.871310
vt 0.074350 0.867984
vt 0.075564 0.909745
vt 0.104570 0.939058
vt 0.100964 0.948093
vt 0.066420 0.913568
vt 0.127315 0.952495
vt 0.099139 0.952611
vt 0.061915 0.915418
vt 0.066643 0.864740
vt 0.062154 0.862852
vt 0.099472 0.825864
vt 0.151813 0.826088
vt 0.183978 0.865363
vt 0.188482 0.863526
vt 0.188472 0.915523
vt 0.154411 0.949574
vt 0.151873 0.953108
vt 0.153399 0.956780
vt 0.097317 0.956974
vt 0.057563 0.917238
vt 0.057796 0.861051
vt 0.097677 0.821504
vt 0.153638 0.821740
vt 0.192835 0.861717
vt 0.192865 0.917319
vt 0.125244 0.889280
vt 0.163248 0.856855
vt 0.083048 0.860988
vt 0.073921 0.822075
vt 0.056843 0.823903
vt 0.044312 0.810923
vt 0.100938 0.818693
vt 0.203100 0.811353
vt 0.195788 0.821269
vt 0.175633 0.821546
vt 0.116743 0.821750
vt 0.051225 0.967556
vt 0.203008 0.963458
vt 0.060144 0.955870
vt 0.061578 0.949131
vt 0.078324 0.955047
vt 0.196567 0.957536
vt 0.179456 0.951935
vt 0.185452 0.941077
vt 0.088450 0.825093
vt 0.104097 0.823818
vt 0.190747 0.936051
vt 0.193838 0.827446
vt 0.047328 0.811353
vt 0.206117 0.810969
vt 0.047328 0.967125
vt 0.203100 0.967125
vn 0.307825 0.594112 0.743152
vn 0.307825 0.594112 0.743152
vn 0.307825 0.594112 0.743152
vn 0.307825 0.594112 0.743152
vn -0.322647 0.946519 -0.000000
vn -0.322647 0.946519 -0.000000
vn -0.322647 0.946519 -0.000000
vn -0.743151 0.594114 -0.307823
vn -0.743151 0.594114 -0.307823
vn -0.743151 0.594114 -0.307823
vn -0.743151 0.594114 -0.307823
vn -0.251529 0.934594 -0.251529
vn -0.251529 0.934594 -0.251529
vn -0.251529 0.934594 -0.251529
vn 0.743151 0.594114 -0.307823
vn 0.743151 0.594114 -0.307823
vn 0.743151 0.594114 -0.307823
vn 0.743151 0.594114 -0.307823
vn 0.743151 0.594114 0.307824
vn 0.743151 0.594114 0.307824
vn 0.743151 0.594114 0.307824
vn 0.743151 0.594114 0.307824
vn 0.097568 0.994408 0.040414
vn 0.097568 0.994408 0.040414
vn 0.097568 0.994408 0.040414
vn 0.097568 0.994408 0.040414
vn 0.097568 0.994408 -0.040414
vn 0.097568 0.994408 -0.040414
vn 0.097568 0.994408 -0.040414
vn 0.097568 0.994408 -0.040414
vn 0.040414 0.994408 -0.097568
vn 0.040414 0.994408 -0.097568
vn 0.040414 0.994408 -0.097568
vn 0.040414 0.994408 -0.097568
vn -0.040414 0.994408 -0.097568
vn -0.040414 0.994408 -0.097568
vn -0.040414 0.994408 -0.097568
vn -0.040414 0.994408 -0.097568
vn -0.097568 0.994408 -0.040414
vn -0.097568 0.994408 -0.040414
vn -0.097568 0.994408 -0.040414
vn -0.097568 0.994408 -0.040414
vn -0.097568 0.994408 0.040414
vn -0.097568 0.994408 0.040414
vn -0.097568 0.994408 0.040414
vn -0.097568 0.994408 0.040414
vn -0.040414 0.994408 0.097568
vn -0.040414 0.994408 0.097568
vn -0.040414 0.994408 0.097568
vn -0.040414 0.994408 0.097568
vn 0.190615 0.976018 0.105141
vn 0.190615 0.976018 0.105141
vn 0.190615 0.976018 0.105141
vn 0.741819 0.596061 0.307272
vn 0.741819 0.596061 0.307272
vn 0.741819 0.596061 0.307272
vn 0.741819 0.596061 0.307272
vn 0.741819 0.596061 0.307272
vn 0.741819 0.596061 0.307272
vn 0.741819 0.596061 0.307272
vn 0.741819 0.596061 -0.307271
vn 0.741819 0.596061 -0.307271
vn 0.741819 0.596061 -0.307271
vn 0.741819 0.596061 -0.307271
vn 0.307273 0.596059 -0.741820
vn 0.307273 0.596059 -0.741820
vn 0.307273 0.596059 -0.741820
vn 0.307273 0.596059 -0.741820
vn -0.307273 0.596059 -0.741820
vn -0.307273 0.596059 -0.741820
vn -0.307273 0.596059 -0.741820
vn -0.307273 0.596059 -0.741820
vn -0.741820 0.596060 -0.307271
vn -0.741820 0.596060 -0.307271
vn -0.741820 0.596060 -0.307271
vn -0.741820 0.596060 -0.307271
vn -0.741820 0.596060 0.307272
vn -0.741820 0.596060 0.307272
vn -0.741820 0.596060 0.307272
vn -0.741820 0.596060 0.307272
vn -0.307273 0.596059 0.741820
vn -0.307273 0.596059 0.741820
vn -0.307273 0.596059 0.741820
vn -0.307273 0.596059 0.741820
vn 0.307273 0.596059 0.741820
vn 0.307273 0.596059 0.741820
vn 0.307273 0.596059 0.741820
vn 0.307273 0.596059 0.741820
vn 0.307273 0.596059 0.741820
vn 0.307273 0.596059 0.741820
vn 0.307273 0.596059 0.741820
vn 0.000000 1.000000 0.000000
vn 0.000000 1.000000 0.000000
vn 0.000000 1.000000 0.000000
vn 0.000000 1.000000 -0.000000
vn 0.000000 1.000000 -0.000000
vn 0.000000 1.000000 -0.000000
vn 0.000000 1.000000 -0.000000
vn 0.000000 1.000000 -0.000000
vn 0.000000 1.000000 -0.000000
vn 0.000000 1.000000 -0.000000
vn 0.000000 1.000000 -0.000000
vn 0.000000 1.000000 -0.000000
vn 0.000000 1.000000 0.000000
vn 0.000000 1.000000 0.000000
vn 0.000000 1.000000 0.000000
vn 0.000000 1.000000 0.000000
vn 0.000000 1.000000 -0.000000
vn 0.000000 1.000000 -0.000000
vn 0.000000 1.000000 -0.000000
vn 0.000000 1.000000 -0.000000
vn -0.743150 0.594115 0.307824
vn -0.743150 0.594115 0.307824
vn -0.743150 0.594115 0.307824
vn -0.743150 0.594115 0.307824
vn -0.743150 0.594115 0.307824
vn -0.743150 0.594115 0.307824
vn -0.743150 0.594115 0.307824
vn -0.307825 0.594113 0.743151
vn -0.307825 0.594113 0.743151
vn -0.307825 0.594113 0.743151
vn -0.307825 0.594113 0.743151
vn -0.307825 0.594113 0.743151
vn -0.307825 0.594113 0.743151
vn -0.307825 0.594113 0.743151
vn -0.148589 0.971875 0.182702
vn -0.148589 0.971875 0.182702
vn -0.148589 0.971875 0.182702
vn 0.000000 1.000000 -0.000000
vn 0.000000 1.000000 -0.000000
vn 0.000000 1.000000 -0.000000
vn 0.000000 1.000000 -0.000000
vn 0.000000 1.000000 -0.000000
vn 0.000000 1.000000 -0.000000
vn 0.000000 1.000000 -0.000000
vn 0.000000 1.000000 -0.000000
vn 0.307822 0.594115 -0.743151
vn 0.307822 0.594115 -0.743151
vn 0.307822 0.594115 -0.743151
vn 0.307822 0.594115 -0.743151
vn 0.307822 0.594115 -0.743151
vn 0.307822 0.594115 -0.743151
vn 0.307822 0.594115 -0.743151
vn -0.307822 0.594115 -0.743151
vn -0.307822 0.594115 -0.743151
vn -0.307822 0.594115 -0.743151
vn -0.307822 0.594115 -0.743151
vn -0.307822 0.594115 -0.743151
vn -0.307822 0.594115 -0.743151
vn -0.307822 0.594115 -0.743151
vn -0.007979 0.965609 -0.259876
vn -0.007979 0.965609 -0.259876
vn -0.007979 0.965609 -0.259876
vn 0.040414 0.994408 0.097569
vn 0.040414 0.994408 0.097569
vn 0.040414 0.994408 0.097569
vn 0.040414 0.994408 0.097569
vn 0.190992 0.975986 0.104755
vn 0.190992 0.975986 0.104755
vn 0.190992 0.975986 0.104755
vn 0.000000 0.000000 1.000000
vn 0.000000 0.000000 1.000000
vn 0.000000 0.000000 1.000000
vn 0.000000 0.000000 1.000000
vn 0.000000 0.000000 1.000000
vn 0.000000 0.000000 1.000000
vn 0.000000 0.000000 1.000000
vn 0.000000 0.000000 1.000000
vn 0.000000 0.000000 1.000000
vn 0.000000 0.000000 1.000000
vn 0.000000 0.000000 1.000000
vn 0.000000 0.000000 1.000000
vn 0.000000 0.000000 1.000000
vn 0.000000 0.000000 1.000000
vn 0.000000 -1.000000 0.000000
vn 0.000000 -1.000000 0.000000
vn 0.000000 -1.000000 0.000000
vn 0.000000 -1.000000 0.000000
vn -0.094296 0.959517 -0.265396
vn -0.094296 0.959517 -0.265396
vn -0.094296 0.959517 -0.265396
vn -1.000000 -0.000000 0.000000
vn -1.000000 -0.000000 0.000000
vn -1.000000 -0.000000 0.000000
vn -1.000000 -0.000000 0.000000
vn -1.000000 -0.000000 0.000000
vn -1.000000 -0.000000 0.000000
vn -1.000000 -0.000000 0.000000
vn 0.482298 0.839608 -0.249894
vn 0.482298 0.839608 -0.249894
vn 0.482298 0.839608 -0.249894
vn -0.035290 0.665085 0.745934
vn -0.035290 0.665085 0.745934
vn -0.035290 0.665085 0.745934
vn 0.137976 0.889071 0.436480
vn 0.137976 0.889071 0.436480
vn 0.137976 0.889071 0.436480
vn -0.216027 0.700055 0.680629
vn -0.216027 0.700055 0.680629
vn -0.216027 0.700055 0.680629
vn 0.000000 0.000000 -1.000000
vn 0.000000 0.000000 -1.000000
vn 0.000000 0.000000 -1.000000
vn 0.000000 0.000000 -1.000000
vn 0.000000 0.000000 -1.000000
vn 0.000000 0.000000 -1.000000
vn 0.000000 0.000000 -1.000000
vn 0.000000 0.000000 -1.000000
vn 0.000000 0.000000 -1.000000
vn 0.000000 0.000000 -1.000000
vn -0.000000 1.000000 0.000000
vn -0.000000 1.000000 0.000000
vn -0.000000 1.000000 0.000000
vn -0.000000 1.000000 0.000000
vn -0.000000 1.000000 0.000000
vn -0.000000 1.000000 0.000000
vn -0.000000 1.000000 0.000000
vn -0.000000 1.000000 0.000000
vn -0.000000 1.000000 0.000000
vn -0.000000 1.000000 0.000000
vn -0.000000 1.000000 0.000000
vn -0.000000 1.000000 0.000000
vn -0.000000 1.000000 0.000000
vn -0.000000 1.000000 0.000000
vn -0.000000 1.000000 0.000000
vn -0.000000 1.000000 0.000000
vn -0.000000 1.000000 0.000000
vn -0.000000 1.000000 0.000000
vn -0.000000 1.000000 0.000000
vn -0.000000 1.000000 0.000000
vn -0.000000 1.000000 0.000000
vn -0.000000 1.000000 0.000000
vn 1.000000 0.000000 0.000000
vn 1.000000 0.000000 0.000000
vn 1.000000 0.000000 0.000000
vn 1.000000 0.000000 0.000000
vn 1.000000 0.000000 0.000000
vn 1.000000 0.000000 0.000000
vn 1.000000 0.000000 0.000000
vn 1.000000 0.000000 0.000000
vn 1.000000 0.000000 0.000000
vn 1.000000 0.000000 0.000000
vn 0.324903 0.879584 -0.347519
vn 0.324903 0.879584 -0.347519
vn 0.324903 0.879584 -0.347519
vn 0.094820 0.943811 0.316590
vn 0.094820 0.943811 0.316590
vn 0.094820 0.943811 0.316590
s off
f 1/1/1 2/2/2 22/3/3 15/4/4
f 35/5/5 34/6/6 32/7/7
f 3/8/8 4/9/9 19/10/10 20/11/11
f 39/12/12 37/13/13 38/14/14
f 5/15/15 6/16/16 16/17/17 17/18/18
f 6/16/19 1/1/20 15/4/21 16/17/22
f 16/17/23 15/4/24 41/19/25 24/20/26
f 17/18/27 16/17/28 24/20/29 25/21/30
f 18/22/31 17/18/32 25/21/33 26/23/34
f 19/10/35 18/22/36 26/23/37 27/24/38
f 20/11/39 19/10/40 27/24/41 28/25/42
f 21/26/43 20/11/44 28/25/45 29/27/46
f 22/3/47 21/26/48 29/27/49 30/28/50
f 15/4/51 40/29/52 23/30/53
f 23/30/54 7/31/55 14/32/56 41/19/57
f 24/20/58 41/19/59 14/32/60
f 25/21/61 24/20/62 14/32/63 13/33/64
f 26/23/65 25/21/66 13/33/67 12/34/68
f 27/24/69 26/23/70 12/34/71 11/35/72
f 28/25/73 27/24/74 11/35/75 10/36/76
f 29/27/77 28/25/78 10/36/79 9/37/80
f 30/28/81 29/27/82 9/37/83 8/38/84
f 30/28/85 8/38/86 7/31/87 40/29/88
f 23/30/89 40/29/90 7/31/91
f 1/1/92 6/16/93 31/39/94
f 6/16/95 5/15/96 31/39/97
f 4/9/98 3/8/99 31/39/100
f 2/2/101 1/1/102 31/39/103
f 35/5/104 32/7/105 2/2/106 31/39/107
f 3/8/108 33/40/109 35/5/110 31/39/111
f 3/8/112 20/11/113 21/26/114 33/40/115
f 34/6/116 33/40/117 21/26/118
f 21/26/119 22/3/120 34/6/121
f 32/7/122 34/6/123 22/3/124 2/2/125
f 35/5/126 33/40/127 34/6/128
f 39/12/129 36/41/130 4/9/131 31/39/132
f 5/15/133 37/13/134 39/12/135 31/39/136
f 5/15/137 17/18/138 18/22/139 37/13/140
f 38/14/141 37/13/142 18/22/143
f 38/14/144 18/22/145 19/10/146 36/41/147
f 4/9/148 36/41/149 19/10/150
f 39/12/151 38/14/152 36/41/153
f 15/4/154 22/3/155 30/28/156 40/29/157
f 41/19/158 15/4/159 23/30/160
f 53/42/161 43/43/162 45/44/163 56/45/164
f 45/44/165 44/63/166 42/47/167 61/48/168
f 45/44/169 61/48/170 56/45/171
f 61/48/172 52/49/173 56/45/174
f 44/46/175 45/65/176 47/64/177 46/62/178
f 50/52/179 51/53/180 49/54/181
f 45/44/182 43/43/183 51/53/184 50/52/185
f 47/50/186 45/44/187 50/52/188
f 48/55/189 57/56/190 59/57/191
f 54/58/192 56/45/193 55/59/194
f 53/42/195 56/45/196 54/58/197
f 55/59/198 56/45/199 52/49/200
f 46/51/201 47/50/202 48/55/203
f 57/56/204 48/55/205 47/50/206 49/54/207
f 50/52/208 49/54/209 47/50/210
f 43/43/211 53/42/212 51/53/213
f 51/53/214 53/42/215 54/58/216 49/54/217
f 57/56/218 49/54/219 54/58/220 55/59/221
f 59/57/222 57/56/223 55/59/224 52/49/225
f 59/57/226 52/49/227 61/48/228 58/60/229
f 58/60/230 61/48/231 60/61/232
f 44/63/233 46/51/234 42/47/235
f 60/61/236 42/47/237 46/51/238 48/55/239
f 48/55/240 58/60/241 60/61/242
f 48/55/243 59/57/244 58/60/245
f 60/61/246 61/48/247 42/47/248
