# This file uses centimeters as units for non-parametric coordinates.

v -10.417206 16.087019 10.493805
v -1.248016 11.756330 22.229645
v -22.006317 -6.734622 -3.861145
v -26.733307 2.233752 -9.461456
v -1.210236 -0.849406 22.197601
v -27.202301 12.203569 -10.032196
v -24.714935 1.042304 -12.886139
v 5.869354 10.587154 23.086090
v 8.456818 -4.851223 20.893036
v -8.324066 17.781767 6.488098
v -9.705536 -6.520832 11.577728
v -15.167999 17.516069 -10.202820
v 23.040802 -4.947981 6.790253
v 20.380219 16.435574 9.554779
v 1.617157 -5.861324 14.241058
v -2.469940 -10.302157 -7.930023
v -11.288116 -5.068987 -23.410553
v -23.292694 14.773458 -14.016266
v 15.202606 17.811604 -7.303864
v 4.423065 17.606100 -18.499298
v 26.220612 10.736758 -2.515167
v 10.262421 12.238482 -25.473297
v 1.443878 6.060901 -31.197266
v 25.307770 0.289684 -4.616150
v -1.259979 -2.659867 -29.555817
v 13.648102 -5.507675 -21.222809
v 17.848724 -6.654979 -7.382416
v -24.348663 13.835035 18.560425
v -38.878448 10.015279 45.249603
v -26.987762 15.366123 33.829742
v -33.878937 -6.654276 40.542694
v -26.460236 -7.611707 28.743134
v -24.623627 -4.600828 18.137146
v -41.649384 17.714930 34.804657
v -38.475555 -1.316693 44.878448
v -47.498077 -0.490030 43.226532
v -37.960358 -10.308154 27.711548
v -31.723969 16.437580 10.987701
v -52.365936 12.661462 38.005219
v -50.745636 -5.598038 37.318634
v -36.236786 -2.545478 6.142365
v -52.790863 17.661741 20.287018
v -45.184235 12.318019 4.595551
v -43.731964 -6.785455 9.289032
v -59.468048 9.493336 30.858002
v -54.881744 12.429617 13.717682
v -48.012787 -5.082553 7.338226
v -59.472931 -3.426314 30.853058
v -55.484711 -5.855804 15.767639
v -59.528290 7.091245 -7.519196
v -61.424408 4.791606 -25.715363
v -63.427582 8.013019 -15.994141
v -59.247528 -4.007843 -7.403107
v -56.486908 9.427089 -21.479095
v -62.298981 -5.244096 -21.675018
v -46.301178 4.477376 -25.599457
v -49.394928 -2.770444 -5.414154
v -42.729584 6.245131 -15.532074
v -44.428680 6.177943 -7.698944
v -43.961029 -4.297860 -10.024323
v -46.297089 -3.300741 -25.598602
v 45.837494 8.675636 2.177032
v 57.168610 6.661719 -7.788300
v 49.684723 9.385130 -4.501190
v 41.871613 -4.078855 2.540558
v 53.506195 -5.664769 -10.134430
v 64.316376 6.392163 2.449890
v 54.828705 -4.460670 15.456573
v 53.169525 7.909599 12.260101
v 68.222565 -3.424718 2.570526
v -93.051422 5.956709 6.205902
v -82.658783 4.544243 8.937653
v -87.649750 6.439832 5.945648
v -95.922150 -3.036411 2.654388
v -81.499237 -4.363051 4.833435
v -85.961334 4.432609 17.143097
v -98.858124 -3.248711 17.884796
v -95.991058 5.471484 14.512970
v -83.453217 -2.344384 21.183899
v 5.843964 5.609090 60.287720
v 8.613129 4.277741 70.681122
v 8.743439 6.127568 64.848785
v 7.593109 -3.417416 58.460114
v 12.751923 -4.637992 69.727631
v -0.151459 4.176897 71.872955
v -7.179657 -3.588155 61.093719
v -2.829376 5.137521 61.848053
v -2.422699 -2.566700 76.105072
v 13.297699 4.497461 -26.990173
vt 0.069538 0.124095
vt 0.069538 0.124062
vt 0.069708 0.124048
vt 0.069697 0.124007
vt 0.069657 0.124136
vt 0.069443 0.124147
vt 0.069703 0.124087
vt 0.069444 0.124193
vt 0.069702 0.124068
vt 0.069532 0.124181
vt 0.069454 0.124162
vt 0.069397 0.124136
vt 0.069352 0.124004
vt 0.069391 0.124174
vt 0.069551 0.124075
vt 0.069654 0.124000
vt 0.069635 0.123995
vt 0.069602 0.123885
vt 0.069349 0.124062
vt 0.069439 0.123926
vt 0.069427 0.124009
vt 0.069613 0.123933
vt 0.069542 0.123898
vt 0.069529 0.123867
vt 0.069358 0.123947
vt 0.069372 0.123978
vt 0.069517 0.123880
vt 0.069497 0.123946
vt 0.069563 0.124267
vt 0.069651 0.124304
vt 0.069599 0.124380
vt 0.069585 0.124401
vt 0.069599 0.124418
vt 0.069578 0.124321
vt 0.069601 0.124250
vt 0.069652 0.124358
vt 0.069597 0.124184
vt 0.069667 0.124155
vt 0.069707 0.124370
vt 0.069660 0.124432
vt 0.069699 0.124427
vt 0.069711 0.124211
vt 0.069775 0.124363
vt 0.069799 0.124327
vt 0.069768 0.124258
vt 0.069775 0.124410
vt 0.069747 0.124264
vt 0.069771 0.124174
vt 0.069802 0.124248
vt 0.069780 0.124259
vt 0.069950 0.124132
vt 0.069925 0.124079
vt 0.069968 0.124088
vt 0.069960 0.124148
vt 0.069896 0.124209
vt 0.069899 0.124169
vt 0.069875 0.124048
vt 0.069874 0.124077
vt 0.069829 0.124188
vt 0.069811 0.124155
vt 0.069821 0.124084
vt 0.069806 0.124130
vt 0.069223 0.123879
vt 0.069189 0.123852
vt 0.069222 0.123896
vt 0.069249 0.123986
vt 0.069112 0.123886
vt 0.069224 0.123926
vt 0.069091 0.123913
vt 0.069129 0.124019
vt 0.069146 0.123961
vt 0.070031 0.124320
vt 0.069990 0.124329
vt 0.069995 0.124336
vt 0.070091 0.124360
vt 0.069984 0.124383
vt 0.070063 0.124339
vt 0.069955 0.124421
vt 0.070061 0.124450
vt 0.070055 0.124393
vt 0.069240 0.124365
vt 0.069221 0.124404
vt 0.069201 0.124419
vt 0.069270 0.124369
vt 0.069271 0.124435
vt 0.069273 0.124351
vt 0.069272 0.124488
vt 0.069352 0.124425
vt 0.069321 0.124385
vn -0.409800 0.897056 0.165393
vn -0.409800 0.897056 0.165393
vn -0.409800 0.897056 0.165393
vn -0.413722 0.894233 0.170828
vn -0.413722 0.894233 0.170828
vn -0.413722 0.894233 0.170828
vn -0.773575 -0.005757 0.633679
vn -0.773575 -0.005757 0.633679
vn -0.773575 -0.005757 0.633679
vn -0.786090 0.010445 0.618024
vn -0.786089 0.010445 0.618024
vn -0.786089 0.010445 0.618024
vn -0.763326 0.001074 0.646012
vn -0.763326 0.001074 0.646012
vn -0.763326 0.001074 0.646012
vn -0.781174 -0.003928 0.624300
vn -0.781175 -0.003928 0.624300
vn -0.781175 -0.003928 0.624300
vn -0.778032 -0.572124 -0.259499
vn -0.778032 -0.572124 -0.259499
vn -0.778032 -0.572124 -0.259499
vn -0.782134 0.004816 0.623092
vn -0.782134 0.004816 0.623092
vn -0.782134 0.004816 0.623092
vn -0.070967 -0.855172 0.513464
vn -0.070967 -0.855172 0.513464
vn -0.070967 -0.855172 0.513464
vn -0.869763 -0.068888 -0.488638
vn -0.869763 -0.068888 -0.488638
vn -0.869763 -0.068888 -0.488638
vn -0.119936 -0.002883 0.992777
vn -0.119936 -0.002883 0.992777
vn -0.119936 -0.002883 0.992777
vn -0.719203 0.017326 -0.694584
vn -0.719203 0.017326 -0.694584
vn -0.719203 0.017326 -0.694584
vn 0.001480 0.920686 0.390301
vn 0.001480 0.920686 0.390301
vn 0.001480 0.920686 0.390301
vn -0.294499 -0.852317 0.432233
vn -0.294499 -0.852317 0.432233
vn -0.294499 -0.852317 0.432233
vn 0.080891 -0.126878 0.988615
vn 0.080891 -0.126878 0.988615
vn 0.080891 -0.126878 0.988615
vn -0.150977 -0.979433 0.133852
vn -0.150977 -0.979433 0.133852
vn -0.150977 -0.979433 0.133852
vn -0.619575 -0.676926 -0.397364
vn -0.619575 -0.676926 -0.397364
vn -0.619575 -0.676926 -0.397364
vn -0.216155 -0.955669 -0.199934
vn -0.216155 -0.955669 -0.199934
vn -0.216155 -0.955669 -0.199934
vn -0.374697 0.916661 0.139048
vn -0.374697 0.916661 0.139048
vn -0.374697 0.916661 0.139048
vn -0.572386 -0.008198 -0.819943
vn -0.572386 -0.008198 -0.819943
vn -0.572386 -0.008198 -0.819943
vn 0.011414 -0.980864 0.194361
vn 0.011414 -0.980864 0.194361
vn 0.011414 -0.980864 0.194361
vn -0.000061 0.938147 0.346237
vn -0.000061 0.938147 0.346237
vn -0.000061 0.938147 0.346237
vn 0.069910 -0.994411 0.079118
vn 0.069910 -0.994411 0.079118
vn 0.069910 -0.994411 0.079118
vn -0.583689 0.104341 -0.805246
vn -0.583689 0.104341 -0.805246
vn -0.583689 0.104341 -0.805246
vn -0.008545 0.999887 -0.012413
vn -0.008545 0.999887 -0.012413
vn -0.008545 0.999886 -0.012413
vn 0.039348 0.996821 0.069278
vn 0.039348 0.996821 0.069278
vn 0.039348 0.996821 0.069278
vn 0.695125 0.014403 0.718745
vn 0.695125 0.014403 0.718745
vn 0.695125 0.014403 0.718745
vn 0.087199 0.876978 0.472553
vn 0.087199 0.876978 0.472553
vn 0.087199 0.876978 0.472553
vn 0.683945 -0.009211 0.729476
vn 0.683945 -0.009211 0.729476
vn 0.683945 -0.009211 0.729476
vn 0.074440 -0.992943 0.092322
vn 0.074440 -0.992943 0.092322
vn 0.074440 -0.992943 0.092322
vn -0.522784 0.001635 -0.852463
vn -0.522784 0.001635 -0.852463
vn -0.522784 0.001635 -0.852463
vn -0.150545 0.926287 -0.345440
vn -0.150545 0.926287 -0.345440
vn -0.150545 0.926287 -0.345440
vn -0.008786 0.999912 -0.009895
vn -0.008786 0.999912 -0.009895
vn -0.008786 0.999912 -0.009895
vn -0.179749 0.748468 -0.638347
vn -0.179749 0.748468 -0.638347
vn -0.179749 0.748468 -0.638347
vn 0.359102 0.860421 -0.361555
vn 0.359102 0.860421 -0.361555
vn 0.359102 0.860421 -0.361555
vn 0.023123 -0.943012 -0.331955
vn 0.023123 -0.943012 -0.331955
vn 0.023123 -0.943012 -0.331955
vn 0.170038 -0.971812 0.163307
vn 0.170038 -0.971812 0.163307
vn 0.170038 -0.971812 0.163307
vn 0.570119 0.814349 -0.108626
vn 0.570119 0.814349 -0.108626
vn 0.570119 0.814349 -0.108626
vn 0.909338 0.059913 0.411722
vn 0.909338 0.059913 0.411722
vn 0.909338 0.059913 0.411722
vn 0.983099 -0.114611 0.142759
vn 0.983099 -0.114611 0.142759
vn 0.983099 -0.114611 0.142759
vn 0.611014 0.694853 -0.379265
vn 0.611014 0.694853 -0.379265
vn 0.611014 0.694853 -0.379265
vn 0.821677 0.042506 -0.568367
vn 0.821677 0.042506 -0.568367
vn 0.821677 0.042506 -0.568367
vn -0.097337 0.747641 -0.656931
vn -0.097337 0.747641 -0.656931
vn -0.097337 0.747641 -0.656931
vn 0.836397 0.401147 -0.373525
vn 0.836397 0.401147 -0.373525
vn 0.836397 0.401147 -0.373525
vn 0.830928 -0.255733 -0.494125
vn 0.830928 -0.255733 -0.494125
vn 0.830928 -0.255733 -0.494125
vn 0.704921 -0.687238 -0.175471
vn 0.704921 -0.687238 -0.175471
vn 0.704921 -0.687238 -0.175471
vn 0.423350 -0.292641 -0.857401
vn 0.423350 -0.292641 -0.857400
vn 0.423350 -0.292641 -0.857401
vn 0.707854 -0.653141 -0.268979
vn 0.707854 -0.653141 -0.268979
vn 0.707854 -0.653141 -0.268979
vn 0.005948 -0.942946 -0.332893
vn 0.005948 -0.942946 -0.332893
vn 0.005948 -0.942946 -0.332893
vn 0.178582 -0.974621 -0.134992
vn 0.178582 -0.974621 -0.134992
vn 0.178582 -0.974621 -0.134992
vn 0.167405 0.814262 0.555835
vn 0.167405 0.814262 0.555835
vn 0.167405 0.814262 0.555835
vn 0.686527 0.000594 0.727104
vn 0.686527 0.000594 0.727104
vn 0.686527 0.000594 0.727104
vn 0.691833 0.003612 0.722048
vn 0.691833 0.003612 0.722049
vn 0.691833 0.003612 0.722048
vn 0.838747 -0.099265 0.535397
vn 0.838747 -0.099265 0.535397
vn 0.838747 -0.099265 0.535397
vn 0.985908 -0.014263 0.166678
vn 0.985908 -0.014263 0.166678
vn 0.985908 -0.014263 0.166678
vn 0.205705 -0.956483 0.206942
vn 0.205705 -0.956483 0.206942
vn 0.205705 -0.956483 0.206942
vn 0.360845 0.932107 -0.031097
vn 0.360845 0.932107 -0.031097
vn 0.360845 0.932107 -0.031097
vn 0.241547 -0.943688 -0.226071
vn 0.241547 -0.943688 -0.226071
vn 0.241547 -0.943688 -0.226071
vn 0.159034 0.987183 0.013331
vn 0.159034 0.987183 0.013331
vn 0.159034 0.987183 0.013331
vn -0.179048 0.768639 0.614114
vn -0.179048 0.768639 0.614114
vn -0.179048 0.768639 0.614114
vn -0.183388 -0.038693 0.982279
vn -0.183388 -0.038693 0.982279
vn -0.183388 -0.038693 0.982279
vn -0.175210 -0.707246 0.684912
vn -0.175210 -0.707246 0.684912
vn -0.175210 -0.707246 0.684912
vn -0.117727 -0.944584 0.306433
vn -0.117727 -0.944584 0.306433
vn -0.117727 -0.944584 0.306433
vn -0.435838 0.188110 0.880148
vn -0.435838 0.188110 0.880148
vn -0.435838 0.188110 0.880148
vn 0.984904 -0.018641 0.172097
vn 0.984904 -0.018641 0.172097
vn 0.984904 -0.018641 0.172097
vn -0.191205 -0.688062 0.700008
vn -0.191205 -0.688062 0.700008
vn -0.191205 -0.688062 0.700008
vn 0.718882 0.005238 -0.695113
vn 0.718882 0.005238 -0.695113
vn 0.718882 0.005238 -0.695113
vn 0.717595 0.007166 -0.696424
vn 0.717595 0.007166 -0.696424
vn 0.717595 0.007166 -0.696424
vn -0.712529 0.014766 0.701487
vn -0.712529 0.014766 0.701487
vn -0.712529 0.014766 0.701487
vn -0.293892 -0.952811 0.076023
vn -0.293892 -0.952811 0.076023
vn -0.293892 -0.952811 0.076023
vn -0.346317 0.900650 0.262479
vn -0.346317 0.900650 0.262479
vn -0.346317 0.900650 0.262479
vn -0.607238 -0.404716 0.683716
vn -0.607238 -0.404716 0.683716
vn -0.607237 -0.404716 0.683716
vn -0.718588 0.000005 0.695436
vn -0.718588 0.000005 0.695436
vn -0.718588 0.000005 0.695436
vn 0.042132 0.998464 -0.035992
vn 0.042132 0.998464 -0.035992
vn 0.042132 0.998464 -0.035992
vn 0.298344 -0.849837 -0.434475
vn 0.298344 -0.849837 -0.434475
vn 0.298344 -0.849837 -0.434475
vn 0.389541 0.139756 -0.910344
vn 0.389541 0.139756 -0.910344
vn 0.389541 0.139756 -0.910344
vn -0.293381 -0.952977 0.075913
vn -0.293381 -0.952977 0.075913
vn -0.293381 -0.952977 0.075913
vn -0.108384 0.923826 -0.367149
vn -0.108384 0.923826 -0.367149
vn -0.108384 0.923826 -0.367149
vn -0.582462 0.778544 0.233683
vn -0.582462 0.778544 0.233683
vn -0.582462 0.778544 0.233683
vn 0.223543 -0.942043 -0.250168
vn 0.223543 -0.942043 -0.250168
vn 0.223543 -0.942043 -0.250168
vn -0.847175 0.512857 -0.138825
vn -0.847175 0.512857 -0.138825
vn -0.847175 0.512857 -0.138825
vn -0.435230 0.766638 -0.472061
vn -0.435230 0.766638 -0.472061
vn -0.435230 0.766638 -0.472061
vn -0.069143 -0.144348 -0.987108
vn -0.069143 -0.144348 -0.987108
vn -0.069143 -0.144348 -0.987108
vn -0.685185 -0.003424 -0.728361
vn -0.685185 -0.003424 -0.728361
vn -0.685185 -0.003424 -0.728361
vn -0.966138 0.002933 -0.258011
vn -0.966138 0.002933 -0.258011
vn -0.966138 0.002933 -0.258011
vn -0.745113 -0.049989 -0.665062
vn -0.745113 -0.049989 -0.665062
vn -0.745113 -0.049989 -0.665062
vn 0.069566 -0.670889 -0.738288
vn 0.069566 -0.670889 -0.738288
vn 0.069566 -0.670889 -0.738288
vn -0.966766 0.000463 -0.255664
vn -0.966766 0.000463 -0.255664
vn -0.966766 0.000463 -0.255664
vn -0.234980 -0.926694 -0.293297
vn -0.234980 -0.926694 -0.293297
vn -0.234980 -0.926694 -0.293297
vn -0.153919 -0.978280 -0.138843
vn -0.153919 -0.978280 -0.138843
vn -0.153919 -0.978280 -0.138843
vn -0.452880 0.814261 -0.363151
vn -0.452880 0.814261 -0.363151
vn -0.452880 0.814261 -0.363151
vn -0.979178 0.003617 -0.202970
vn -0.979178 0.003617 -0.202970
vn -0.979178 0.003617 -0.202970
vn -0.959384 -0.176110 0.220379
vn -0.959384 -0.176110 0.220379
vn -0.959384 -0.176110 0.220379
vn -0.085130 0.985561 0.146362
vn -0.085130 0.985561 0.146362
vn -0.085130 0.985561 0.146362
vn 0.019512 0.663072 -0.748301
vn 0.019512 0.663072 -0.748301
vn 0.019512 0.663072 -0.748301
vn -0.909068 -0.018643 0.416231
vn -0.909068 -0.018643 0.416231
vn -0.909068 -0.018643 0.416231
vn -0.182041 -0.353534 -0.917538
vn -0.182041 -0.353534 -0.917537
vn -0.182041 -0.353534 -0.917538
vn -0.198508 0.005230 0.980085
vn -0.198508 0.005230 0.980085
vn -0.198508 0.005230 0.980085
vn 0.101155 -0.991756 -0.078668
vn 0.101155 -0.991756 -0.078668
vn 0.101155 -0.991756 -0.078668
vn 0.327930 0.903780 -0.275036
vn 0.327930 0.903780 -0.275036
vn 0.327930 0.903780 -0.275036
vn 0.007662 -0.000106 -0.999971
vn 0.007662 -0.000106 -0.999971
vn 0.007662 -0.000106 -0.999971
vn 0.141060 0.970967 0.193199
vn 0.141060 0.970967 0.193199
vn 0.141060 0.970967 0.193199
vn 0.044181 -0.931621 0.360735
vn 0.044181 -0.931621 0.360735
vn 0.044181 -0.931621 0.360735
vn 0.025717 0.233888 0.971923
vn 0.025717 0.233888 0.971923
vn 0.025717 0.233888 0.971923
vn 0.060618 0.997925 0.021708
vn 0.060618 0.997925 0.021708
vn 0.060618 0.997925 0.021708
vn -0.003958 -0.996189 0.087137
vn -0.003958 -0.996188 0.087137
vn -0.003958 -0.996188 0.087137
vn 0.616264 -0.144343 0.774199
vn 0.616264 -0.144343 0.774199
vn 0.616264 -0.144343 0.774199
vn 0.977274 -0.003422 0.211953
vn 0.977274 -0.003422 0.211953
vn 0.977274 -0.003422 0.211953
vn 0.924369 -0.255819 -0.283017
vn 0.924369 -0.255819 -0.283017
vn 0.924369 -0.255819 -0.283017
vn 0.988942 0.000503 -0.148304
vn 0.988942 0.000503 -0.148304
vn 0.988942 0.000503 -0.148304
vn -0.305375 0.264823 -0.914667
vn -0.305375 0.264823 -0.914667
vn -0.305375 0.264823 -0.914667
vn -0.730654 0.068729 -0.679279
vn -0.730654 0.068729 -0.679279
vn -0.730654 0.068729 -0.679279
vn 0.272381 0.947901 -0.165206
vn 0.272381 0.947901 -0.165206
vn 0.272381 0.947901 -0.165206
vn -0.850035 0.251113 -0.463015
vn -0.850035 0.251113 -0.463015
vn -0.850035 0.251113 -0.463015
vn 0.657129 -0.052119 -0.751974
vn 0.657129 -0.052119 -0.751974
vn 0.657129 -0.052119 -0.751974
vn -0.683250 0.232181 0.692287
vn -0.683250 0.232181 0.692287
vn -0.683250 0.232181 0.692287
vn 0.115921 -0.992424 0.040705
vn 0.115921 -0.992424 0.040705
vn 0.115921 -0.992424 0.040705
vn 0.177475 0.982873 0.049626
vn 0.177475 0.982873 0.049626
vn 0.177475 0.982873 0.049626
vn 0.784496 0.305522 -0.539650
vn 0.784496 0.305522 -0.539650
vn 0.784496 0.305522 -0.539650
vn -0.023119 0.995450 0.092438
vn -0.023119 0.995450 0.092438
vn -0.023119 0.995450 0.092438
vn -0.806386 0.044230 0.589734
vn -0.806386 0.044230 0.589734
vn -0.806386 0.044230 0.589734
vn -0.080154 -0.995478 0.050981
vn -0.080154 -0.995478 0.050981
vn -0.080154 -0.995478 0.050981
vn 0.656575 0.270045 0.704262
vn 0.656575 0.270045 0.704262
vn 0.656575 0.270045 0.704262
vn 0.656652 0.269939 0.704231
vn 0.656652 0.269939 0.704231
vn 0.656652 0.269939 0.704231
vn 0.578280 0.402310 -0.709746
vn 0.578280 0.402310 -0.709746
vn 0.578280 0.402310 -0.709746
vn 0.163906 0.192920 -0.967428
vn 0.163906 0.192920 -0.967428
vn 0.163906 0.192920 -0.967428
vn 0.284488 0.950173 0.127429
vn 0.284488 0.950173 0.127429
vn 0.284488 0.950173 0.127429
vn -0.078935 0.387860 -0.918332
vn -0.078935 0.387860 -0.918332
vn -0.078935 0.387860 -0.918332
vn 0.990939 0.078925 0.108679
vn 0.990939 0.078925 0.108679
vn 0.990939 0.078925 0.108679
vn -0.916827 0.360475 -0.171713
vn -0.916827 0.360475 -0.171713
vn -0.916827 0.360475 -0.171713
vn 0.031191 -0.991522 0.126143
vn 0.031191 -0.991522 0.126143
vn 0.031191 -0.991522 0.126143
vn 0.057967 0.984137 0.167673
vn 0.057967 0.984137 0.167673
vn 0.057967 0.984137 0.167673
vn 0.803970 0.494496 0.330312
vn 0.803970 0.494496 0.330312
vn 0.803970 0.494496 0.330312
vn -0.087755 0.995773 0.027110
vn -0.087755 0.995773 0.027110
vn -0.087755 0.995773 0.027110
vn -0.930159 0.182674 -0.318487
vn -0.930159 0.182674 -0.318487
vn -0.930159 0.182674 -0.318487
vn -0.086960 -0.995740 -0.030643
vn -0.086960 -0.995740 -0.030643
vn -0.086960 -0.995740 -0.030643
vn -0.191775 0.408168 0.892536
vn -0.191775 0.408168 0.892536
vn -0.191775 0.408168 0.892536
vn -0.212618 0.441169 0.871874
vn -0.212618 0.441169 0.871874
vn -0.212618 0.441169 0.871874
vn 0.902986 0.403338 0.148101
vn 0.902986 0.403338 0.148101
vn 0.902986 0.403338 0.148101
vn 0.904307 0.156772 -0.397053
vn 0.904307 0.156772 -0.397053
vn 0.904307 0.156772 -0.397053
vn 0.030215 0.952575 0.302801
vn 0.030215 0.952575 0.302801
vn 0.030215 0.952575 0.302801
vn 0.800080 0.264096 -0.538633
vn 0.800080 0.264096 -0.538633
vn 0.800080 0.264096 -0.538633
vn 0.395966 0.086041 0.914225
vn 0.395966 0.086041 0.914225
vn 0.395966 0.086041 0.914225
vn -0.174991 0.162697 -0.971034
vn -0.174991 0.162697 -0.971034
vn -0.174991 0.162697 -0.971034
vn -0.094340 -0.990773 0.097313
vn -0.094340 -0.990773 0.097313
vn -0.094340 -0.990773 0.097313
vn -0.116852 0.985173 0.125617
vn -0.116852 0.985173 0.125617
vn -0.116852 0.985173 0.125617
vn 0.110932 0.501214 0.858184
vn 0.110932 0.501213 0.858184
vn 0.110932 0.501213 0.858184
vn -0.066823 0.995260 -0.070656
vn -0.066823 0.995260 -0.070656
vn -0.066823 0.995260 -0.070656
vn -0.183535 0.175126 -0.967288
vn -0.183535 0.175126 -0.967288
vn -0.183535 0.175126 -0.967288
vn -0.007130 -0.994503 -0.104467
vn -0.007130 -0.994503 -0.104467
vn -0.007130 -0.994503 -0.104467
vn -0.870418 0.410455 0.271843
vn -0.870418 0.410455 0.271843
vn -0.870418 0.410455 0.271843
vn -0.862772 0.443235 0.243244
vn -0.862772 0.443235 0.243244
vn -0.862772 0.443235 0.243244
vn 0.236832 -0.478962 -0.845285
vn 0.236832 -0.478962 -0.845285
vn 0.236832 -0.478962 -0.845285
vn 0.354057 0.311615 -0.881782
vn 0.354057 0.311615 -0.881782
vn 0.354057 0.311615 -0.881782
s off
f 1/1/1 10/2/2 6/3/3
f 10/2/4 18/4/5 6/3/6
f 6/3/7 3/5/8 1/1/9
f 1/1/10 3/5/11 2/6/12
f 3/5/13 6/3/14 4/7/15
f 2/6/16 3/5/17 5/8/18
f 3/5/19 4/7/20 7/9/21
f 3/5/22 11/10/23 5/8/24
f 5/8/25 11/10/26 15/11/27
f 6/3/28 7/9/29 4/7/30
f 8/12/31 2/6/32 5/8/33
f 18/4/34 7/9/35 6/3/36
f 14/13/37 10/2/38 1/1/39
f 9/14/40 5/8/41 15/11/42
f 8/12/43 5/8/44 9/14/45
f 16/15/46 11/10/47 3/5/48
f 3/5/49 7/9/50 17/16/51
f 3/5/52 17/16/53 16/15/54
f 10/2/55 12/17/56 18/4/57
f 18/4/58 23/18/59 7/9/60
f 16/15/61 15/11/62 11/10/63
f 14/13/64 1/1/65 2/6/66
f 13/19/67 9/14/68 15/11/69
f 23/18/70 17/16/71 7/9/72
f 19/20/73 12/17/74 10/2/75
f 19/20/76 10/2/77 14/13/78
f 8/12/79 9/14/80 13/19/81
f 2/6/82 8/12/83 14/13/84
f 14/13/85 8/12/86 13/19/87
f 27/21/88 13/19/89 15/11/90
f 17/16/91 23/18/92 25/22/93
f 20/23/94 18/4/95 12/17/96
f 20/23/97 12/17/98 19/20/99
f 18/4/100 20/23/101 23/18/102
f 19/20/103 22/24/104 20/23/105
f 25/22/106 16/15/107 17/16/108
f 16/15/109 27/21/110 15/11/111
f 19/20/112 14/13/113 21/25/114
f 21/25/115 14/13/116 13/19/117
f 21/25/118 13/19/119 24/26/120
f 22/24/121 19/20/122 21/25/123
f 22/24/124 21/25/125 24/26/126
f 20/23/127 22/24/128 23/18/129
f 22/24/130 24/26/131 89/27/132
f 26/28/133 89/27/134 24/26/135
f 24/26/136 13/19/137 27/21/138
f 25/22/139 23/18/140 26/28/141
f 24/26/142 27/21/143 26/28/144
f 25/22/145 26/28/146 16/15/147
f 26/28/148 27/21/149 16/15/150
f 30/29/151 34/30/152 29/31/153
f 31/32/154 29/31/155 35/33/156
f 30/29/157 29/31/158 31/32/159
f 30/29/160 31/32/161 32/34/162
f 30/29/163 32/34/164 33/35/165
f 37/36/166 32/34/167 31/32/168
f 28/37/169 38/38/170 30/29/171
f 37/36/172 33/35/173 32/34/174
f 38/38/175 34/30/176 30/29/177
f 34/30/178 39/39/179 29/31/180
f 29/31/181 36/40/182 35/33/183
f 31/32/184 35/33/185 40/41/186
f 31/32/187 40/41/188 37/36/189
f 29/31/190 39/39/191 36/40/192
f 28/37/193 30/29/194 33/35/195
f 35/33/196 36/40/197 40/41/198
f 41/42/199 28/37/200 33/35/201
f 41/42/202 38/38/203 28/37/204
f 39/39/205 45/43/206 36/40/207
f 40/41/208 49/44/209 37/36/210
f 34/30/211 42/45/212 39/39/213
f 48/46/214 40/41/215 36/40/216
f 36/40/217 45/43/218 48/46/219
f 38/38/220 42/45/221 34/30/222
f 41/42/223 33/35/224 44/47/225
f 43/48/226 38/38/227 41/42/228
f 40/41/229 48/46/230 49/44/231
f 43/48/232 42/45/233 38/38/234
f 42/45/235 45/43/236 39/39/237
f 37/36/238 44/47/239 33/35/240
f 46/49/241 45/43/242 42/45/243
f 42/45/244 43/48/245 46/49/246
f 43/48/247 41/42/248 47/50/249
f 46/49/250 43/48/251 47/50/252
f 45/43/253 46/49/254 49/44/255
f 46/49/256 47/50/257 49/44/258
f 47/50/259 41/42/260 44/47/261
f 45/43/262 49/44/263 48/46/264
f 49/44/265 47/50/266 44/47/267
f 49/44/268 44/47/269 37/36/270
f 52/51/271 54/52/272 51/53/273
f 52/51/274 51/53/275 55/54/276
f 52/51/277 55/54/278 53/55/279
f 50/56/280 54/52/281 52/51/282
f 54/52/283 56/57/284 51/53/285
f 50/56/286 52/51/287 53/55/288
f 55/54/289 51/53/290 61/58/291
f 57/59/292 50/56/293 53/55/294
f 61/58/295 60/60/296 55/54/297
f 54/52/298 58/61/299 56/57/300
f 51/53/301 56/57/302 61/58/303
f 50/56/304 58/61/305 54/52/306
f 57/59/307 53/55/308 60/60/309
f 59/62/310 50/56/311 57/59/312
f 59/62/313 58/61/314 50/56/315
f 55/54/316 60/60/317 53/55/318
f 59/62/319 57/59/320 60/60/321
f 58/61/322 59/62/323 60/60/324
f 56/57/325 58/61/326 60/60/327
f 56/57/328 60/60/329 61/58/330
f 64/63/331 63/64/332 66/65/333
f 64/63/334 66/65/335 65/66/336
f 64/63/337 67/67/338 63/64/339
f 62/68/340 64/63/341 65/66/342
f 66/65/343 63/64/344 70/69/345
f 68/70/346 62/68/347 65/66/348
f 70/69/349 68/70/350 66/65/351
f 64/63/352 69/71/353 67/67/354
f 63/64/355 67/67/356 70/69/357
f 62/68/358 69/71/359 64/63/360
f 69/71/361 62/68/362 68/70/363
f 66/65/364 68/70/365 65/66/366
f 67/67/367 69/71/368 68/70/369
f 67/67/370 68/70/371 70/69/372
f 73/72/373 72/73/374 75/74/375
f 73/72/376 75/74/377 74/75/378
f 73/72/379 76/76/380 72/73/381
f 71/77/382 73/72/383 74/75/384
f 75/74/385 72/73/386 79/78/387
f 77/79/388 71/77/389 74/75/390
f 79/78/391 77/79/392 75/74/393
f 73/72/394 78/80/395 76/76/396
f 72/73/397 76/76/398 79/78/399
f 71/77/400 78/80/401 73/72/402
f 78/80/403 71/77/404 77/79/405
f 75/74/406 77/79/407 74/75/408
f 76/76/409 78/80/410 77/79/411
f 76/76/412 77/79/413 79/78/414
f 82/81/415 81/82/416 84/83/417
f 82/81/418 84/83/419 83/84/420
f 82/81/421 85/85/422 81/82/423
f 80/86/424 82/81/425 83/84/426
f 84/83/427 81/82/428 88/87/429
f 86/88/430 80/86/431 83/84/432
f 88/87/433 86/88/434 84/83/435
f 82/81/436 87/89/437 85/85/438
f 81/82/439 85/85/440 88/87/441
f 80/86/442 87/89/443 82/81/444
f 87/89/445 80/86/446 86/88/447
f 84/83/448 86/88/449 83/84/450
f 85/85/451 87/89/452 86/88/453
f 85/85/454 86/88/455 88/87/456
f 23/18/457 89/27/458 26/28/459
f 22/24/460 89/27/461 23/18/462
