# This file uses centimeters as units for non-parametric coordinates.

v -138.927811 -266.877899 203.945419
v 7.529578 -266.877899 203.945419
v -158.744141 255.312286 200.452301
v 158.742188 255.560547 195.829727
v -158.744141 357.799774 -224.990234
v 158.742188 357.799774 -194.709076
v -128.917770 -266.877899 -203.941498
v 79.167328 -266.877899 -203.941498
v -158.744141 357.799774 -67.287231
v 128.915817 -266.877899 -60.991013
v -128.917770 -266.877899 -84.555092
v -158.744141 285.698181 88.856644
v 158.742188 285.698181 88.856644
v 128.915817 -266.877899 91.688133
v -128.917770 -266.877899 91.688133
v -139.386292 123.514793 199.412888
v 158.742188 173.180267 211.434723
v 158.742188 152.729752 101.150566
v 158.742188 180.799820 -67.287231
v 139.750732 181.205429 -199.819061
v -158.744141 248.141373 -224.990234
v -158.744141 210.419983 -60.877480
v -158.744141 173.180267 101.150566
v -151.747498 306.552216 -55.170456
v 158.742188 322.759399 -52.237183
v 158.742188 285.514191 35.037827
v -158.744141 286.554169 33.113628
v -158.744141 330.125000 19.427940
v 158.742188 328.707001 22.052914
v 137.587662 233.283157 99.375137
v -146.265381 244.447266 99.400589
v -67.828873 285.988831 34.157944
v -63.714352 285.629211 60.114059
v -56.737297 300.380371 28.284536
v 158.742188 303.374817 28.230705
v 158.742188 285.606903 53.640690
v 158.742188 302.720978 45.509338
v -52.176060 302.743439 51.981731
v -40.447708 323.236176 -53.119999
v -43.657036 357.799774 -67.287231
v 158.742188 357.799774 -99.864510
v 158.742188 318.403992 -88.518982
v -31.182199 357.800018 -99.952591
v -30.275042 325.690613 -83.991341
v 158.742188 259.027313 131.295685
v 5.789725 260.741211 99.388840
v -116.184311 323.417419 -53.455708
v -158.744141 324.743744 -40.102791
v -158.744141 259.839386 116.173210
v -95.161057 260.740723 99.396667
v 118.786255 357.799774 -224.990234
v -66.715996 253.993927 224.994141
v -132.303436 -125.707199 195.258148
v 134.652634 -21.221094 194.946899
v -140.048538 -64.968658 -84.463089
v -143.716339 -48.546154 96.384117
v 144.989883 -98.200539 96.789314
v 140.481552 -67.176819 -30.409376
v 118.290558 -88.845436 -178.419937
v -138.649597 -23.695715 -197.812653
v 177.335907 144.675751 42.112141
v 177.600403 160.761185 -27.122776
v 165.872070 -85.620140 72.172104
v 162.010284 -64.176971 -15.509075
v 151.406586 -240.592941 69.080276
v 152.544937 -240.675720 -36.220139
v -151.857208 -234.823486 -184.909943
v -151.181259 -234.790710 -109.897545
v -161.973068 -61.334637 -107.559341
v -160.241043 -26.145113 -180.506607
v -176.446381 202.258148 -90.340416
v -177.304550 202.201981 -199.094788
v 158.742188 211.616165 -2.805062
v -158.744141 248.141373 -100.554512
v 173.828766 62.722034 74.008224
v 158.742188 303.870728 -7.975733
v 130.289291 40.573513 -203.393402
v 83.822617 -83.898811 -201.355682
v 121.060997 -190.700699 -203.027359
v -158.744141 168.646225 203.058685
v -158.744141 124.633743 184.144577
v -153.189529 60.404766 206.726990
v 78.097549 253.993927 224.994141
v 158.742188 232.840042 221.444260
v 129.597656 -237.724030 202.878601
v -22.731756 -266.877899 -60.991013
v -128.917770 -266.877899 -32.740730
v -133.504486 -187.686905 -71.454697
v 126.840927 -266.877899 -160.097977
v 124.184120 -239.629883 -203.613632
vt 0.068736 0.124553
vt 0.068661 0.124531
vt 0.068661 0.124519
vt 0.068767 0.124506
vt 0.068598 0.124457
vt 0.068567 0.124552
vt 0.068755 0.124564
vt 0.068596 0.124837
vt 0.068571 0.124770
vt 0.068536 0.124774
vt 0.068513 0.124805
vt 0.068545 0.124484
vt 0.068539 0.124509
vt 0.068567 0.124459
vt 0.068731 0.124602
vt 0.068723 0.124584
vt 0.068702 0.124568
vt 0.068531 0.124517
vt 0.068525 0.124587
vt 0.068719 0.124635
vt 0.068686 0.124668
vt 0.068647 0.124648
vt 0.068680 0.124668
vt 0.068452 0.124679
vt 0.068481 0.124653
vt 0.068479 0.124607
vt 0.068461 0.124629
vt 0.068453 0.124650
vt 0.068624 0.124915
vt 0.068477 0.124856
vt 0.068518 0.124925
vt 0.068605 0.124961
vt 0.068680 0.124710
vt 0.068450 0.124883
vt 0.068461 0.124777
vt 0.068614 0.124890
vt 0.068476 0.124778
vt 0.068503 0.124605
vt 0.068485 0.124635
vt 0.068474 0.124686
vt 0.068471 0.124759
vt 0.068496 0.124721
vt 0.068511 0.124722
vt 0.068556 0.124691
vt 0.068563 0.124621
vt 0.068580 0.124688
vt 0.068710 0.124704
vt 0.068696 0.124808
vt 0.068681 0.124833
vt 0.068703 0.124757
vt 0.068720 0.124715
vt 0.068685 0.124761
vt 0.068650 0.124818
vt 0.068640 0.124768
vt 0.068656 0.124766
vt 0.068641 0.124807
vt 0.068707 0.124625
vt 0.068695 0.124644
vt 0.068638 0.124615
vt 0.068647 0.124607
vt 0.068492 0.124579
vt 0.068501 0.124568
vt 0.068715 0.124596
vt 0.068512 0.124535
vt 0.068653 0.124553
vt 0.068727 0.124580
vt 0.068643 0.124595
vt 0.068499 0.124614
vt 0.068509 0.124551
vt 0.068518 0.124540
vt 0.068506 0.124562
vt 0.068634 0.124600
vt 0.068505 0.124556
vt 0.068654 0.124541
vt 0.068582 0.124627
vt 0.068656 0.124750
vt 0.068666 0.124701
vt 0.068597 0.124690
vt 0.068503 0.124657
vt 0.068472 0.124832
vt 0.068496 0.124797
vt 0.068553 0.124729
vt 0.068549 0.124749
vt 0.068684 0.124811
vt 0.068735 0.124633
vt 0.068757 0.124600
vt 0.068667 0.124822
vt 0.068661 0.124852
vt 0.068511 0.124590
vt 0.068650 0.124870
vn -0.000002 1.000000 0.000001
vn -0.000002 1.000000 0.000001
vn -0.000002 1.000000 0.000001
vn -0.000002 1.000000 0.000001
vn 0.033626 -0.085102 -0.995805
vn 0.033626 -0.085102 -0.995805
vn 0.033626 -0.085102 -0.995805
vn 0.033626 -0.085102 -0.995805
vn 0.000000 -1.000000 0.000000
vn 0.000000 -1.000000 0.000000
vn 0.000000 -1.000000 0.000000
vn 0.000000 -1.000000 0.000000
vn 0.995537 -0.088483 -0.032826
vn 0.995537 -0.088483 -0.032826
vn 0.995537 -0.088483 -0.032826
vn 0.995537 -0.088483 -0.032826
vn -1.000000 0.000000 0.000000
vn -1.000000 0.000000 0.000000
vn -1.000000 0.000000 0.000000
vn -0.145632 0.208766 0.967062
vn -0.145632 0.208766 0.967062
vn -0.145632 0.208766 0.967062
vn 1.000000 0.000000 0.000000
vn 1.000000 0.000000 0.000000
vn 1.000000 0.000000 0.000000
vn -0.816052 0.025113 0.577433
vn -0.816052 0.025113 0.577433
vn -0.816052 0.025113 0.577433
vn -0.204347 0.640757 -0.740049
vn -0.204347 0.640757 -0.740049
vn -0.204347 0.640757 -0.740049
vn 1.000000 -0.000000 0.000000
vn 1.000000 -0.000000 0.000000
vn 1.000000 -0.000000 0.000000
vn 1.000000 -0.000000 0.000000
vn 1.000000 -0.000000 0.000000
vn 0.000000 -1.000000 0.000000
vn 0.000000 -1.000000 0.000000
vn 0.000000 -1.000000 0.000000
vn 0.000000 -1.000000 0.000000
vn -0.744055 0.114119 -0.658300
vn -0.744055 0.114119 -0.658300
vn -0.744055 0.114119 -0.658300
vn -0.008696 0.046272 0.998891
vn -0.008696 0.046272 0.998891
vn -0.008696 0.046272 0.998891
vn -0.008696 0.046272 0.998891
vn -0.008696 0.046272 0.998891
vn 0.995839 -0.054088 0.073350
vn 0.995838 -0.054088 0.073350
vn 0.995839 -0.054088 0.073350
vn 0.995839 -0.054088 0.073350
vn 0.997434 -0.061569 -0.036531
vn 0.997434 -0.061569 -0.036531
vn 0.997434 -0.061569 -0.036531
vn 0.997434 -0.061569 -0.036531
vn 0.997434 -0.061569 -0.036531
vn 0.988039 -0.090171 -0.125094
vn 0.988039 -0.090171 -0.125094
vn 0.988039 -0.090171 -0.125094
vn 0.988039 -0.090171 -0.125094
vn 0.988039 -0.090171 -0.125094
vn 0.023325 -0.046589 -0.998642
vn 0.023325 -0.046589 -0.998642
vn 0.023325 -0.046589 -0.998642
vn 0.023325 -0.046589 -0.998642
vn 0.023325 -0.046589 -0.998642
vn -0.998581 -0.049775 -0.018954
vn -0.998581 -0.049775 -0.018954
vn -0.998581 -0.049775 -0.018954
vn -0.998581 -0.049775 -0.018954
vn -0.997655 -0.066839 -0.014730
vn -0.997655 -0.066839 -0.014730
vn -0.997655 -0.066839 -0.014730
vn -0.997655 -0.066839 -0.014730
vn -0.596265 0.219893 0.772085
vn -0.596265 0.219893 0.772085
vn -0.596265 0.219893 0.772085
vn -1.000000 0.000000 0.000000
vn -1.000000 0.000000 0.000000
vn -1.000000 0.000000 0.000000
vn 0.005585 0.999878 0.014596
vn 0.005585 0.999878 0.014596
vn 0.005585 0.999878 0.014596
vn 0.005585 0.999878 0.014596
vn 1.000000 0.000000 0.000000
vn 1.000000 0.000000 0.000000
vn 1.000000 0.000000 0.000000
vn 0.004223 0.996481 -0.083709
vn 0.004223 0.996481 -0.083709
vn 0.004223 0.996481 -0.083709
vn 0.004223 0.996481 -0.083709
vn -1.000000 0.000000 0.000000
vn -1.000000 0.000000 0.000000
vn -1.000000 0.000000 0.000000
vn -1.000000 -0.000000 0.000000
vn -1.000000 -0.000000 0.000000
vn -1.000000 -0.000000 0.000000
vn -1.000000 -0.000000 0.000000
vn 0.001559 0.319463 0.947597
vn 0.001559 0.319463 0.947597
vn 0.001559 0.319463 0.947597
vn 0.001559 0.319463 0.947597
vn 0.257963 0.088949 0.962052
vn 0.257963 0.088949 0.962052
vn 0.257963 0.088949 0.962052
vn -0.072128 0.226462 0.971346
vn -0.072128 0.226462 0.971346
vn -0.072128 0.226462 0.971346
vn -0.433392 0.097885 0.895874
vn -0.433393 0.097885 0.895874
vn -0.433393 0.097885 0.895874
vn 0.000011 0.999997 -0.002489
vn 0.000011 0.999997 -0.002489
vn 0.000011 0.999997 -0.002489
vn 0.000011 0.999997 -0.002489
vn -0.005417 0.253983 0.967194
vn -0.005417 0.253983 0.967194
vn -0.005417 0.253983 0.967194
vn -0.005417 0.253983 0.967194
vn 1.000000 -0.000000 0.000000
vn 1.000000 -0.000000 0.000000
vn 1.000000 -0.000000 0.000000
vn 1.000000 -0.000000 0.000000
vn 1.000000 -0.000000 0.000000
vn 1.000000 -0.000000 0.000000
vn 1.000000 -0.000000 0.000000
vn -0.007589 0.999137 -0.040832
vn -0.007589 0.999137 -0.040832
vn -0.007589 0.999137 -0.040832
vn -0.007589 0.999137 -0.040832
vn 0.027120 0.421539 0.906405
vn 0.027120 0.421539 0.906405
vn 0.027120 0.421539 0.906405
vn 0.027120 0.421539 0.906405
vn 1.000000 0.000001 0.000000
vn 1.000000 0.000001 0.000000
vn 1.000000 0.000001 0.000000
vn 1.000000 0.000001 0.000000
vn -0.782803 0.612094 0.112079
vn -0.782803 0.612094 0.112079
vn -0.782803 0.612094 0.112079
vn -0.782803 0.612094 0.112079
vn 0.000000 1.000000 -0.000001
vn 0.000000 1.000000 -0.000001
vn 0.000000 1.000000 -0.000001
vn 0.000000 1.000000 -0.000001
vn 0.000000 1.000000 -0.000001
vn 0.002785 0.995935 -0.090031
vn 0.002785 0.995935 -0.090031
vn 0.002785 0.995935 -0.090031
vn 0.002785 0.995935 -0.090031
vn 0.989642 -0.021892 -0.141880
vn 0.989642 -0.021892 -0.141880
vn 0.989642 -0.021892 -0.141880
vn 0.921832 0.217180 0.321028
vn 0.921832 0.217180 0.321028
vn 0.921832 0.217180 0.321028
vn 0.019750 0.999485 -0.025302
vn 0.019750 0.999485 -0.025302
vn 0.019750 0.999485 -0.025302
vn 0.019750 0.999485 -0.025302
vn 0.017805 0.356897 0.933974
vn 0.017805 0.356897 0.933974
vn 0.017805 0.356897 0.933974
vn 0.017805 0.356897 0.933974
vn 0.915388 0.199637 0.349586
vn 0.915388 0.199637 0.349586
vn 0.915388 0.199637 0.349586
vn 0.745835 0.181742 -0.640859
vn 0.745835 0.181742 -0.640859
vn 0.745835 0.181742 -0.640859
vn 0.149680 0.718799 -0.678914
vn 0.149680 0.718799 -0.678914
vn 0.149680 0.718799 -0.678914
vn 0.037988 0.181852 0.982592
vn 0.037988 0.181852 0.982592
vn 0.037988 0.181852 0.982592
vn -0.230546 0.566580 -0.791098
vn -0.230546 0.566580 -0.791098
vn -0.230546 0.566580 -0.791098
vn -0.855753 0.092504 -0.509049
vn -0.855753 0.092504 -0.509049
vn -0.855753 0.092504 -0.509049
vn -0.001274 0.375529 0.926810
vn -0.001274 0.375529 0.926810
vn -0.001274 0.375529 0.926810
vn -0.001274 0.375529 0.926810
vn -0.598708 -0.316245 0.735893
vn -0.598708 -0.316245 0.735893
vn -0.598708 -0.316245 0.735893
vn -0.000000 0.998560 0.053641
vn -0.000000 0.998560 0.053641
vn -0.000000 0.998560 0.053641
vn -0.000000 0.998560 0.053641
vn -0.000000 0.998560 0.053641
vn -0.000000 0.998560 0.053641
vn -0.000000 0.998560 0.053641
vn -0.000000 0.998560 0.053641
vn 0.000017 0.388903 0.921279
vn 0.000017 0.388903 0.921279
vn 0.000017 0.388903 0.921279
vn 0.000017 0.388903 0.921279
vn 0.603474 -0.041858 -0.796283
vn 0.603474 -0.041858 -0.796283
vn 0.603474 -0.041858 -0.796283
vn 0.991947 -0.088531 0.090575
vn 0.991947 -0.088531 0.090575
vn 0.991947 -0.088531 0.090575
vn 0.991947 -0.088531 0.090575
vn 0.997277 -0.070429 -0.021869
vn 0.997277 -0.070429 -0.021869
vn 0.997277 -0.070429 -0.021869
vn 0.997277 -0.070429 -0.021869
vn 0.995922 0.003169 -0.090160
vn 0.995922 0.003169 -0.090160
vn 0.995922 0.003169 -0.090160
vn 0.995922 0.003169 -0.090160
vn 0.995922 0.003169 -0.090160
vn 0.995922 0.003169 -0.090160
vn -0.005160 0.019747 -0.999792
vn -0.005160 0.019747 -0.999792
vn -0.005160 0.019747 -0.999792
vn -0.005160 0.019747 -0.999792
vn -0.005160 0.019747 -0.999792
vn -0.005160 0.019747 -0.999792
vn -0.997801 -0.064014 -0.017176
vn -0.997801 -0.064014 -0.017176
vn -0.997801 -0.064014 -0.017176
vn -0.997801 -0.064014 -0.017176
vn -0.213435 -0.171469 0.961792
vn -0.213435 -0.171469 0.961792
vn -0.213435 -0.171469 0.961792
vn -0.999740 -0.022750 -0.001672
vn -0.999740 -0.022750 -0.001672
vn -0.999740 -0.022750 -0.001672
vn -0.999740 -0.022750 -0.001672
vn 0.882571 0.424223 -0.202738
vn 0.882571 0.424223 -0.202738
vn 0.882571 0.424223 -0.202738
vn 0.781821 -0.052153 0.621318
vn 0.781821 -0.052153 0.621318
vn 0.781821 -0.052153 0.621318
vn 0.781821 -0.052153 0.621318
vn 0.782797 -0.118668 -0.610858
vn 0.782797 -0.118668 -0.610858
vn 0.782797 -0.118668 -0.610858
vn 0.782797 -0.118668 -0.610858
vn 0.768863 -0.088580 0.633248
vn 0.768863 -0.088580 0.633248
vn 0.768863 -0.088580 0.633248
vn 0.768863 -0.088580 0.633248
vn 0.751125 -0.660151 0.003526
vn 0.751125 -0.660151 0.003526
vn 0.751125 -0.660151 0.003526
vn 0.751125 -0.660151 0.003526
vn 0.632520 0.069814 -0.771391
vn 0.632520 0.069814 -0.771391
vn 0.632520 0.069814 -0.771391
vn 0.632520 0.069814 -0.771391
vn -0.817542 -0.575862 0.002940
vn -0.817542 -0.575862 0.002940
vn -0.817542 -0.575862 0.002940
vn -0.817542 -0.575862 0.002940
vn -0.862925 -0.082986 0.498472
vn -0.862925 -0.082986 0.498472
vn -0.862925 -0.082986 0.498472
vn -0.862925 -0.082986 0.498472
vn -0.635185 -0.007464 -0.772324
vn -0.635185 -0.007464 -0.772324
vn -0.635185 -0.007464 -0.772324
vn -0.635185 -0.007464 -0.772324
vn -0.790988 -0.094442 0.604498
vn -0.790988 -0.094442 0.604498
vn -0.790988 -0.094442 0.604498
vn -0.790988 -0.094442 0.604498
vn -0.828752 0.405577 0.385587
vn -0.828752 0.405577 0.385587
vn -0.828752 0.405577 0.385587
vn -0.658744 -0.116941 -0.743224
vn -0.658744 -0.116941 -0.743224
vn -0.658744 -0.116941 -0.743224
vn -0.658744 -0.116941 -0.743224
vn 1.000000 0.000000 0.000000
vn 1.000000 0.000000 0.000000
vn 1.000000 0.000000 0.000000
vn 0.889040 0.398358 0.225653
vn 0.889040 0.398358 0.225653
vn 0.889040 0.398358 0.225653
vn -1.000000 0.000000 0.000000
vn -1.000000 0.000000 0.000000
vn -1.000000 0.000000 0.000000
vn -0.929643 0.368446 0.003332
vn -0.929643 0.368446 0.003332
vn -0.929643 0.368446 0.003332
vn -0.929643 0.368446 0.003332
vn 0.954102 0.072281 0.290627
vn 0.954102 0.072281 0.290627
vn 0.954102 0.072281 0.290627
vn 0.946243 0.314249 0.076625
vn 0.946243 0.314249 0.076625
vn 0.946243 0.314249 0.076625
vn 1.000000 0.000000 0.000000
vn 1.000000 0.000000 0.000000
vn 1.000000 0.000000 0.000000
vn 1.000000 0.000000 0.000000
vn 1.000000 0.000001 0.000000
vn 1.000000 0.000001 0.000000
vn 1.000000 0.000001 0.000000
vn 1.000000 0.000000 0.000000
vn 1.000000 0.000000 0.000000
vn 1.000000 0.000000 0.000000
vn -1.000000 0.000000 0.000000
vn -1.000000 0.000000 0.000000
vn -1.000000 0.000000 0.000000
vn 0.520992 -0.208044 -0.827819
vn 0.520992 -0.208044 -0.827819
vn 0.520992 -0.208044 -0.827819
vn 0.562369 0.208604 -0.800141
vn 0.562369 0.208604 -0.800141
vn 0.562369 0.208604 -0.800141
vn -1.000000 0.000000 0.000000
vn -1.000000 0.000000 0.000000
vn -1.000000 0.000000 0.000000
vn -1.000000 0.000000 0.000000
vn -1.000000 0.000000 0.000000
vn -0.995968 -0.089594 -0.004623
vn -0.995968 -0.089594 -0.004623
vn -0.995968 -0.089594 -0.004623
vn -0.995968 -0.089594 -0.004623
vn -0.995968 -0.089594 -0.004623
vn 0.008423 -0.044813 0.998960
vn 0.008423 -0.044813 0.998960
vn 0.008423 -0.044813 0.998960
vn 0.008423 -0.044813 0.998960
vn 0.008423 -0.044813 0.998960
vn -0.005658 -0.180806 0.983503
vn -0.005658 -0.180806 0.983503
vn -0.005658 -0.180806 0.983503
vn -0.005658 -0.180806 0.983503
vn -0.005658 -0.180806 0.983503
vn -0.199130 -0.036970 0.979276
vn -0.199130 -0.036970 0.979276
vn -0.199130 -0.036970 0.979276
vn -0.199130 -0.036970 0.979276
vn 0.219926 0.729789 0.647334
vn 0.219926 0.729789 0.647334
vn 0.219926 0.729789 0.647334
vn 0.227210 -0.942345 0.245687
vn 0.227210 -0.942345 0.245687
vn 0.227210 -0.942345 0.245687
vn 0.000000 -1.000000 -0.000000
vn 0.000000 -1.000000 -0.000000
vn 0.000000 -1.000000 -0.000000
vn 0.000000 -1.000000 -0.000000
vn -0.998378 -0.054858 -0.015267
vn -0.998378 -0.054858 -0.015267
vn -0.998377 -0.054858 -0.015267
vn -0.231119 -0.438076 -0.868720
vn -0.231119 -0.438076 -0.868720
vn -0.231119 -0.438076 -0.868720
vn -0.997850 -0.065440 -0.003711
vn -0.997850 -0.065440 -0.003711
vn -0.997850 -0.065440 -0.003711
vn -0.997850 -0.065440 -0.003711
vn 0.000000 -1.000000 0.000000
vn 0.000000 -1.000000 0.000000
vn 0.000000 -1.000000 0.000000
vn 0.453201 -0.742809 -0.492792
vn 0.453201 -0.742809 -0.492792
vn 0.453201 -0.742809 -0.492792
vn 0.000000 -1.000000 0.000000
vn 0.000000 -1.000000 0.000000
vn 0.000000 -1.000000 0.000000
vn 0.000000 -1.000000 0.000000
vn -0.722092 0.034733 0.690924
vn -0.722092 0.034733 0.690924
vn -0.722092 0.034733 0.690924
s off
f 9/1/1 40/2/2 43/3/3 5/4/4
f 5/4/5 51/5/6 20/6/7 21/7/8
f 86/8/9 8/9/10 89/10/11 10/11/12
f 41/12/13 42/13/14 20/6/15 6/14/16
f 5/4/17 74/15/18 9/1/19
f 24/16/20 47/17/21 9/1/22
f 25/18/23 19/19/24 42/13/25
f 9/1/26 22/20/27 24/16/28
f 49/21/29 50/22/30 31/23/31
f 17/24/32 18/25/33 45/26/34 4/27/35 84/28/36
f 15/29/37 14/30/38 2/31/39 1/32/40
f 31/23/41 23/33/42 49/21/43
f 1/32/44 2/31/45 85/34/46 54/35/47 53/36/48
f 85/34/49 14/30/50 57/37/51 54/35/52
f 62/38/53 61/39/54 75/40/55 63/41/56 64/42/57
f 20/6/58 19/19/59 58/43/60 59/44/61 77/45/62
f 21/7/63 20/6/64 77/45/65 78/46/66 60/47/67
f 67/48/68 68/49/69 69/50/70 70/51/71
f 23/33/72 22/20/73 55/52/74 56/53/75
f 16/54/76 81/55/77 82/56/78
f 27/57/79 23/33/80 12/58/81
f 12/58/82 33/59/83 32/60/84 27/57/85
f 13/61/86 18/25/87 36/62/88
f 28/63/89 29/64/90 25/18/91 39/65/92
f 48/66/93 22/20/94 28/63/95
f 28/63/96 22/20/97 23/33/98 27/57/99
f 27/57/100 32/60/101 34/67/102 28/63/103
f 30/68/104 18/25/105 13/61/106
f 31/23/107 50/22/108 12/58/109
f 12/58/110 23/33/111 31/23/112
f 12/58/113 13/61/114 36/62/115 33/59/116
f 28/63/117 34/67/118 35/69/119 29/64/120
f 35/69/121 76/70/122 25/18/123 29/64/124
f 36/62/125 18/25/126 26/71/127
f 38/72/128 37/73/129 35/69/130 34/67/131
f 33/59/132 36/62/133 37/73/134 38/72/135
f 36/62/136 26/71/137 35/69/138 37/73/139
f 32/60/140 33/59/141 38/72/142 34/67/143
f 5/4/144 43/3/145 41/12/146 6/14/147 51/5/148
f 28/63/149 39/65/150 47/17/151 48/66/152
f 20/6/153 42/13/154 19/19/155
f 40/2/156 39/65/157 44/74/158
f 39/65/159 25/18/160 42/13/161 44/74/162
f 41/12/163 43/3/164 44/74/165 42/13/166
f 43/3/167 40/2/168 44/74/169
f 45/26/170 18/25/171 30/68/172
f 46/75/173 45/26/174 30/68/175
f 13/61/176 46/75/177 30/68/178
f 48/66/179 47/17/180 24/16/181
f 24/16/182 22/20/183 48/66/184
f 9/1/185 47/17/186 39/65/187 40/2/188
f 80/76/189 81/55/190 16/54/191
f 3/77/192 52/78/193 83/79/194 4/27/195 45/26/196 46/75/197 50/22/198 49/21/199
f 12/58/200 50/22/201 46/75/202 13/61/203
f 20/6/204 51/5/205 6/14/206
f 54/35/207 57/37/208 18/25/209 17/24/210
f 64/42/211 63/41/212 65/80/213 66/81/214
f 79/82/215 59/44/216 58/43/217 10/11/218 89/10/219 90/83/220
f 60/47/221 78/46/222 79/82/223 90/83/224 8/9/225 7/84/226
f 70/51/227 69/50/228 71/85/229 72/86/230
f 86/8/231 88/87/232 11/88/233
f 53/36/234 56/53/235 15/29/236 1/32/237
f 19/19/238 73/89/239 62/38/240
f 18/25/241 57/37/242 63/41/243 75/40/244
f 58/43/245 19/19/246 62/38/247 64/42/248
f 57/37/249 14/30/250 65/80/251 63/41/252
f 14/30/253 10/11/254 66/81/255 65/80/256
f 10/11/257 58/43/258 64/42/259 66/81/260
f 7/84/261 11/88/262 68/49/263 67/48/264
f 11/88/265 88/87/266 69/50/267 68/49/268
f 60/47/269 7/84/270 67/48/271 70/51/272
f 55/52/273 22/20/274 71/85/275 69/50/276
f 22/20/277 74/15/278 71/85/279
f 21/7/280 60/47/281 70/51/282 72/86/283
f 26/71/284 18/25/285 73/89/286
f 61/39/287 73/89/288 18/25/289
f 21/7/290 74/15/291 5/4/292
f 71/85/293 74/15/294 21/7/295 72/86/296
f 18/25/297 75/40/298 61/39/299
f 62/38/300 73/89/301 61/39/302
f 76/70/303 73/89/304 19/19/305 25/18/306
f 26/71/307 76/70/308 35/69/309
f 26/71/310 73/89/311 76/70/312
f 9/1/313 74/15/314 22/20/315
f 78/46/316 77/45/317 59/44/318
f 79/82/319 78/46/320 59/44/321
f 49/21/322 23/33/323 81/55/324 80/76/325 3/77/326
f 82/56/327 81/55/328 23/33/329 56/53/330 53/36/331
f 53/36/332 54/35/333 17/24/334 16/54/335 82/56/336
f 16/54/337 17/24/338 84/28/339 83/79/340 52/78/341
f 80/76/342 16/54/343 52/78/344 3/77/345
f 83/79/346 84/28/347 4/27/348
f 2/31/349 14/30/350 85/34/351
f 87/90/352 86/8/353 14/30/354 15/29/355
f 56/53/356 55/52/357 88/87/358
f 87/90/359 88/87/360 86/8/361
f 56/53/362 88/87/363 87/90/364 15/29/365
f 14/30/366 86/8/367 10/11/368
f 90/83/369 89/10/370 8/9/371
f 7/84/372 8/9/373 86/8/374 11/88/375
f 69/50/376 88/87/377 55/52/378
