# This file uses centimeters as units for non-parametric coordinates.

v -140.591797 236.510422 220.245605
v 142.144531 236.510422 204.024902
v -140.591797 340.539886 -204.991699
v 140.589355 340.539886 -220.244141
v -140.591797 263.298187 88.730469
v 140.589355 263.298187 88.730469
v 140.589355 314.772461 -32.601074
v -140.591797 314.772461 -32.601074
v 138.318848 99.253960 152.591309
v 140.589355 263.298187 131.260254
v -140.591797 263.298187 135.347168
v -137.492920 143.897263 86.774414
v -137.844971 203.335968 -26.784668
v -140.591797 290.024933 -23.579102
v 140.589355 290.024933 -24.255371
v 137.490479 248.642548 -64.071289
v 140.589355 314.772461 -85.247070
v -140.591797 314.772461 -86.192383
v -137.492920 210.877106 -215.389648
v 140.589355 340.539886 -88.399902
v 137.490479 247.253296 -215.389648
v 140.589355 290.024933 79.901855
v -140.591797 290.024933 76.987305
v -137.492920 108.819763 215.391113
v -140.591797 236.510422 141.614258
v 140.589355 236.510422 144.793457
v 135.317383 101.142578 211.986816
v -140.591797 249.979980 138.463867
v 16.083008 236.510422 142.763672
v -140.591797 236.510422 156.122559
v 15.617920 250.081589 139.583984
v 10.216553 236.510422 158.562500
v -140.591797 246.798050 154.256348
v 9.701660 246.798050 155.405762
v 140.589355 290.024933 28.971191
v -17.037598 291.631378 -23.459473
v 139.815674 269.672821 -21.619141
v 140.121338 268.903900 -1.953613
v -3.342041 290.024933 -5.624023
v 22.748779 283.610504 -15.158203
v -66.811523 263.298187 88.730469
v -140.591797 263.298187 108.236328
v -131.788818 253.779144 95.884277
v -138.925293 199.083786 87.678711
v -140.591797 332.100677 -87.423340
v 22.737061 340.539886 -88.316406
v -140.591797 340.539886 -122.549316
v 9.204834 330.697632 -87.028320
v 5.013916 340.539886 -121.371582
v -140.591797 333.197174 -105.710938
v 0.221924 332.377197 -102.098633
v 48.087891 236.510422 143.285156
v 145.108154 236.510422 173.104980
v 129.159912 217.814438 150.645508
v -84.271240 290.757202 -23.524902
v -149.122803 290.024933 4.656738
v -130.383545 282.627655 -16.507813
v -153.023193 179.106049 -12.634766
v -152.695313 128.905136 72.739746
v -153.831055 173.084839 62.816895
v 161.184814 205.925720 -76.063477
v 161.184326 214.658752 -194.573242
v 161.184814 231.753036 -104.734863
v -30.209961 340.539886 -220.244141
v -139.999512 315.752350 -219.315918
v 58.706299 236.510422 220.245605
v 139.532227 195.459259 218.589844
v -139.302246 84.327026 87.186523
v 128.070801 88.591911 -66.825195
v -139.611328 81.341034 -37.783691
v -104.639893 108.392426 -200.259766
v 128.114258 93.892822 -208.587891
v -154.630859 89.627892 -22.078125
v -154.424316 92.186615 72.975586
v 151.518555 97.730392 -77.177734
v 151.573975 94.745399 -195.421875
v -129.146973 108.819763 -158.524414
vt 0.068633 0.124799
vt 0.068503 0.124778
vt 0.068488 0.124648
vt 0.068532 0.124642
vt 0.068646 0.124681
vt 0.068717 0.124579
vt 0.068685 0.124569
vt 0.068647 0.124557
vt 0.068720 0.124564
vt 0.068766 0.124504
vt 0.068709 0.124483
vt 0.068767 0.124513
vt 0.068566 0.124516
vt 0.068563 0.124531
vt 0.068562 0.124543
vt 0.068581 0.124503
vt 0.068712 0.124623
vt 0.068734 0.124549
vt 0.068670 0.124648
vt 0.068581 0.124619
vt 0.068516 0.124587
vt 0.068672 0.124640
vt 0.068511 0.124605
vt 0.068514 0.124713
vt 0.068529 0.124575
vt 0.068678 0.124687
vt 0.068668 0.124825
vt 0.068643 0.124612
vt 0.068720 0.124644
vt 0.068708 0.124799
vt 0.068684 0.124826
vt 0.068695 0.124695
vt 0.068685 0.124626
vt 0.068532 0.124559
vt 0.068689 0.124608
vt 0.068615 0.124526
vt 0.068619 0.124457
vt 0.068582 0.124489
vt 0.068699 0.124789
vt 0.068722 0.124765
vt 0.068635 0.124560
vt 0.068714 0.124589
vt 0.068491 0.124622
vt 0.068578 0.124633
vt 0.068665 0.124661
vt 0.068750 0.124625
vt 0.068609 0.124688
vt 0.068719 0.124750
vt 0.068574 0.124563
vt 0.068500 0.124612
vt 0.068515 0.124618
vt 0.068679 0.124632
vt 0.068681 0.124659
vt 0.068669 0.124656
vt 0.068574 0.124721
vt 0.068597 0.124543
vt 0.068573 0.124557
vt 0.068564 0.124577
vt 0.068665 0.124655
vt 0.068579 0.124626
vt 0.068579 0.124627
vt 0.068562 0.124621
vt 0.068623 0.124557
vt 0.068556 0.124548
vt 0.068547 0.124545
vt 0.068677 0.124632
vt 0.068652 0.124515
vt 0.068645 0.124508
vt 0.068745 0.124525
vt 0.068664 0.124502
vt 0.068740 0.124534
vt 0.068736 0.124539
vt 0.068661 0.124512
vt 0.068709 0.124583
vt 0.068700 0.124670
vt 0.068566 0.124713
vt 0.068594 0.124687
vn 0.004055 -0.050240 0.998729
vn 0.004055 -0.050240 0.998729
vn 0.004055 -0.050240 0.998729
vn 0.004055 -0.050240 0.998729
vn 0.004055 -0.050240 0.998729
vn -0.005363 0.342494 0.939505
vn -0.005363 0.342494 0.939505
vn -0.005363 0.342494 0.939505
vn -0.005363 0.342494 0.939505
vn -0.118959 0.494659 -0.860907
vn -0.118959 0.494659 -0.860907
vn -0.118959 0.494659 -0.860907
vn 0.999789 -0.019031 -0.007722
vn 0.999789 -0.019031 -0.007722
vn 0.999789 -0.019031 -0.007722
vn 0.999789 -0.019031 -0.007722
vn -0.999634 -0.025159 -0.009944
vn -0.999634 -0.025159 -0.009944
vn -0.999634 -0.025159 -0.009944
vn -0.999634 -0.025159 -0.009944
vn 0.006212 0.371095 0.928574
vn 0.006212 0.371095 0.928574
vn 0.006212 0.371095 0.928574
vn 0.006212 0.371095 0.928574
vn 0.999866 -0.014756 -0.007051
vn 0.999866 -0.014756 -0.007051
vn 0.999866 -0.014756 -0.007051
vn 0.999866 -0.014756 -0.007051
vn -0.999503 0.030415 0.008295
vn -0.999503 0.030415 0.008295
vn -0.999503 0.030415 0.008295
vn 0.000000 1.000000 0.000000
vn 0.000000 1.000000 0.000000
vn 0.000000 1.000000 0.000000
vn 0.000000 1.000000 0.000000
vn 0.000000 1.000000 0.000000
vn 0.000000 1.000000 0.000000
vn 0.000000 1.000000 0.000000
vn -0.999622 0.025719 0.009752
vn -0.999622 0.025719 0.009752
vn -0.999622 0.025719 0.009752
vn -0.999622 0.025719 0.009752
vn -0.004837 0.359169 0.933260
vn -0.004837 0.359169 0.933260
vn -0.004837 0.359169 0.933260
vn -0.004837 0.359169 0.933260
vn -0.004837 0.359169 0.933260
vn 0.999640 -0.026358 -0.005031
vn 0.999640 -0.026358 -0.005031
vn 0.999640 -0.026358 -0.005031
vn 0.999640 -0.026358 -0.005031
vn -0.000535 0.999890 0.014844
vn -0.000535 0.999890 0.014844
vn -0.000535 0.999890 0.014844
vn -0.000535 0.999890 0.014844
vn -0.000535 0.999890 0.014844
vn 0.000000 1.000000 -0.000000
vn 0.000000 1.000000 -0.000000
vn 0.000000 1.000000 -0.000000
vn 0.000000 1.000000 -0.000000
vn 0.000000 1.000000 -0.000000
vn -0.012610 -0.086551 -0.996168
vn -0.012610 -0.086551 -0.996168
vn -0.012610 -0.086551 -0.996168
vn -0.012610 -0.086551 -0.996168
vn 0.998910 -0.046672 0.000429
vn 0.998910 -0.046672 0.000429
vn 0.998910 -0.046672 0.000429
vn 0.793596 0.051356 -0.606274
vn 0.793596 0.051356 -0.606274
vn 0.793596 0.051356 -0.606274
vn -0.999702 -0.020641 -0.013041
vn -0.999702 -0.020641 -0.013041
vn -0.999702 -0.020641 -0.013041
vn -0.999702 -0.020641 -0.013041
vn -0.999702 -0.020641 -0.013041
vn -0.999702 -0.020641 -0.013041
vn -0.999706 -0.024261 0.000000
vn -0.999706 -0.024261 0.000000
vn -0.999706 -0.024261 0.000000
vn -0.996633 -0.074725 0.033743
vn -0.996633 -0.074725 0.033743
vn -0.996633 -0.074725 0.033743
vn -0.996633 -0.074725 0.033743
vn -0.996633 -0.074725 0.033743
vn -0.999653 -0.026194 -0.002913
vn -0.999653 -0.026194 -0.002913
vn -0.999653 -0.026194 -0.002913
vn 0.997360 -0.057946 -0.043767
vn 0.997360 -0.057946 -0.043767
vn 0.997360 -0.057946 -0.043767
vn 1.000000 -0.000006 -0.000004
vn 1.000000 -0.000006 -0.000004
vn 1.000000 -0.000006 -0.000004
vn -0.001806 0.979786 0.200039
vn -0.001806 0.979786 0.200039
vn -0.001806 0.979786 0.200039
vn -0.001806 0.979786 0.200039
vn -0.011581 0.236871 0.971472
vn -0.011581 0.236871 0.971472
vn -0.011581 0.236871 0.971472
vn -0.011581 0.236871 0.971472
vn 0.921815 0.118094 0.369203
vn 0.921815 0.118094 0.369203
vn 0.921815 0.118094 0.369203
vn -1.000000 0.000000 0.000000
vn -1.000000 0.000000 0.000000
vn -1.000000 0.000000 0.000000
vn 0.926573 0.151948 0.344057
vn 0.926573 0.151948 0.344057
vn 0.926573 0.151948 0.344057
vn -1.000000 -0.000002 0.000000
vn -1.000000 -0.000002 0.000000
vn -1.000000 -0.000002 0.000000
vn 0.218628 0.668007 -0.711315
vn 0.218628 0.668007 -0.711315
vn 0.218628 0.668007 -0.711315
vn 0.003038 0.382622 0.923900
vn 0.003038 0.382622 0.923900
vn 0.003038 0.382622 0.923900
vn 0.003038 0.382622 0.923900
vn 0.003038 0.382622 0.923900
vn -0.999577 -0.028260 -0.006926
vn -0.999577 -0.028260 -0.006926
vn -0.999577 -0.028260 -0.006926
vn -0.999577 -0.028260 -0.006926
vn 0.212100 0.974358 -0.075107
vn 0.212100 0.974358 -0.075107
vn 0.212100 0.974357 -0.075107
vn 0.997235 -0.073586 -0.010407
vn 0.999644 -0.020505 -0.017073
vn 0.999538 -0.024511 -0.017964
vn 0.995715 -0.091655 -0.012276
vn 0.998090 -0.055476 -0.027185
vn 0.998090 -0.055476 -0.027185
vn 0.998090 -0.055476 -0.027185
vn 0.000000 1.000000 0.000000
vn 0.000000 1.000000 0.000000
vn 0.000000 1.000000 0.000000
vn 0.000000 1.000000 0.000000
vn 0.138906 0.857397 -0.495556
vn 0.138906 0.857397 -0.495556
vn 0.138906 0.857397 -0.495556
vn 0.138906 0.857397 -0.495556
vn 0.124326 0.983569 0.130901
vn 0.124326 0.983569 0.130901
vn 0.124326 0.983569 0.130901
vn 0.124326 0.983569 0.130901
vn 0.006314 0.128219 0.991726
vn 0.006314 0.128219 0.991726
vn 0.006314 0.128219 0.991726
vn 0.002980 0.349784 0.936826
vn 0.002980 0.349784 0.936826
vn 0.002980 0.349784 0.936826
vn 0.002980 0.349784 0.936826
vn 0.000000 0.600779 0.799415
vn 0.000000 0.600779 0.799415
vn 0.000000 0.600779 0.799415
vn -0.649285 -0.029298 0.759981
vn -0.649285 -0.029298 0.759981
vn -0.649285 -0.029298 0.759981
vn -0.722139 0.193843 -0.664033
vn -0.722139 0.193843 -0.664033
vn -0.722139 0.193843 -0.664033
vn -0.179101 0.713434 -0.677447
vn -0.179101 0.713434 -0.677447
vn -0.179101 0.713434 -0.677447
vn 0.000000 1.000000 0.000001
vn 0.000000 1.000000 0.000001
vn 0.000000 1.000000 0.000001
vn 0.000000 1.000000 0.000001
vn 0.001121 0.123333 0.992365
vn 0.001121 0.123333 0.992365
vn 0.001121 0.123333 0.992365
vn 0.001121 0.123333 0.992365
vn 0.000000 1.000000 -0.000000
vn 0.000000 1.000000 -0.000000
vn 0.000000 1.000000 -0.000000
vn 0.000000 1.000000 -0.000000
vn -0.999739 -0.022819 -0.001500
vn -0.999739 -0.022819 -0.001500
vn -0.999739 -0.022819 -0.001500
vn -0.999739 -0.022819 -0.001500
vn -0.999739 -0.022819 -0.001500
vn -0.999845 -0.012802 -0.012085
vn -0.999845 -0.012802 -0.012085
vn -0.999845 -0.012802 -0.012085
vn -0.999845 -0.012802 -0.012085
vn 0.000000 1.000000 0.000000
vn 0.000000 1.000000 0.000000
vn 0.000000 1.000000 0.000000
vn 0.000000 1.000000 0.000000
vn -0.002843 0.079067 0.996865
vn -0.002843 0.079067 0.996865
vn -0.002843 0.079067 0.996865
vn -0.002843 0.079067 0.996865
vn -0.460233 0.852816 0.246760
vn -0.460233 0.852816 0.246760
vn -0.460233 0.852816 0.246760
vn -0.003960 0.919059 0.394099
vn -0.003960 0.919059 0.394099
vn -0.003960 0.919059 0.394099
vn -0.003960 0.919059 0.394099
vn 0.006504 0.996677 0.081191
vn 0.006504 0.996677 0.081191
vn 0.006504 0.996677 0.081191
vn 0.006504 0.996677 0.081191
vn -0.516252 0.761174 0.392553
vn -0.516252 0.761174 0.392553
vn -0.516252 0.761174 0.392553
vn 0.000000 1.000000 0.000000
vn 0.000000 1.000000 0.000000
vn 0.000000 1.000000 0.000000
vn 0.996564 -0.052241 0.064274
vn 0.996564 -0.052241 0.064274
vn 0.996564 -0.052241 0.064274
vn 0.996564 -0.052241 0.064274
vn 0.996564 -0.052241 0.064274
vn 0.395187 0.045586 0.917469
vn 0.395187 0.045586 0.917469
vn 0.395187 0.045586 0.917469
vn -0.015515 0.307309 0.951483
vn -0.015515 0.307309 0.951483
vn -0.015515 0.307309 0.951483
vn 0.000000 1.000000 -0.000000
vn 0.000000 1.000000 -0.000000
vn 0.000000 1.000000 -0.000000
vn 0.000000 1.000000 -0.000000
vn -0.009595 0.684021 0.729399
vn -0.009595 0.684021 0.729399
vn -0.009595 0.684021 0.729399
vn -0.592274 -0.048507 0.804275
vn -0.592274 -0.048507 0.804275
vn -0.592274 -0.048507 0.804275
vn -0.711919 0.155744 -0.684774
vn -0.711919 0.155744 -0.684774
vn -0.711919 0.155744 -0.684774
vn -0.223214 0.841619 -0.491785
vn -0.223214 0.841619 -0.491785
vn -0.223214 0.841619 -0.491785
vn -0.999506 -0.028611 -0.012985
vn -0.999506 -0.028611 -0.012985
vn -0.999506 -0.028611 -0.012985
vn -0.721450 0.078023 -0.688057
vn -0.721450 0.078023 -0.688057
vn -0.721450 0.078023 -0.688057
vn -0.721450 0.078023 -0.688057
vn -0.806739 0.032699 0.590003
vn -0.806739 0.032699 0.590003
vn -0.806739 0.032699 0.590003
vn -0.806739 0.032699 0.590003
vn -0.859527 0.510734 0.019082
vn -0.859527 0.510734 0.019082
vn -0.859527 0.510734 0.019082
vn -0.859527 0.510734 0.019082
vn 0.571822 0.820343 -0.007531
vn 0.571822 0.820343 -0.007531
vn 0.571822 0.820343 -0.007531
vn 0.403418 -0.041884 0.914057
vn 0.403418 -0.041884 0.914057
vn 0.403418 -0.041884 0.914057
vn 0.403418 -0.041884 0.914057
vn 0.859057 0.380325 0.342599
vn 0.859057 0.380325 0.342599
vn 0.859057 0.380325 0.342599
vn 0.996448 -0.084190 -0.001813
vn 0.996448 -0.084190 -0.001813
vn 0.996448 -0.084190 -0.001813
vn 0.996448 -0.084190 -0.001813
vn 0.834691 0.541012 -0.102947
vn 0.834691 0.541012 -0.102947
vn 0.834691 0.541012 -0.102947
vn 0.004072 -0.040777 -0.999160
vn 0.004072 -0.040777 -0.999160
vn 0.004072 -0.040777 -0.999160
vn 0.004072 -0.040777 -0.999160
vn 0.180886 0.318618 0.930464
vn 0.180886 0.318618 0.930464
vn 0.180886 0.318618 0.930464
vn 0.000000 1.000000 0.000000
vn 0.000000 1.000000 0.000000
vn 0.000000 1.000000 0.000000
vn 0.000000 -0.051968 -0.998649
vn 0.000000 -0.051968 -0.998649
vn 0.000000 -0.051968 -0.998649
vn -0.998536 -0.037336 -0.039141
vn -0.998536 -0.037336 -0.039141
vn -0.998536 -0.037336 -0.039141
vn -0.998536 -0.037336 -0.039141
vn -0.685050 0.030072 0.727875
vn -0.685050 0.030072 0.727875
vn -0.685050 0.030072 0.727875
vn -0.685050 0.030072 0.727875
vn 0.558265 -0.056819 -0.827715
vn 0.558265 -0.056819 -0.827715
vn 0.558265 -0.056819 -0.827715
vn 0.558265 -0.056819 -0.827715
vn -0.815061 -0.331436 -0.475212
vn -0.815061 -0.331436 -0.475212
vn -0.815061 -0.331436 -0.475212
vn -0.002641 -0.990255 0.139238
vn -0.002641 -0.990255 0.139238
vn 0.019497 -0.997553 0.067138
vn 0.020574 -0.996428 0.081905
vn 0.014961 -0.999888 0.000162
vn 0.022742 -0.999558 -0.019128
vn -0.037921 -0.993131 -0.110691
vn 0.022742 -0.999558 -0.019128
vn 0.019497 -0.997553 0.067138
vn -0.471175 -0.881731 0.023324
vn -0.471175 -0.881731 0.023324
vn 0.014961 -0.999888 0.000162
vn -0.041457 -0.998596 -0.032977
vn 0.208809 -0.977918 -0.008631
vn 0.208810 -0.977918 -0.008631
vn 0.014961 -0.999888 0.000162
vn -0.037921 -0.993131 -0.110691
vn -0.064704 -0.997285 -0.035144
vn -0.041457 -0.998596 -0.032977
vn 0.020574 -0.996428 0.081905
vn 0.019497 -0.997553 0.067138
vn 0.022742 -0.999558 -0.019128
vn 0.014961 -0.999888 0.000162
vn 0.999961 -0.008106 -0.003626
vn 0.999644 -0.020505 -0.017073
vn 0.997235 -0.073586 -0.010407
vn 0.999961 -0.008106 -0.003626
vn 0.999538 -0.024511 -0.017964
vn 0.999644 -0.020505 -0.017073
vn 0.999614 -0.020945 -0.018264
s off
f 24/1/1 27/2/2 67/3/3 66/4/4 1/5/5
f 14/6/6 55/7/7 36/8/8 8/9/9
f 3/10/10 64/11/11 65/12/12
f 7/13/13 15/14/14 37/15/15 17/16/16
f 13/17/17 14/6/18 8/9/19 18/18/20
f 28/19/21 31/20/22 10/21/23 11/22/24
f 10/21/25 26/23/26 9/24/27 6/25/28
f 24/1/29 12/26/30 68/27/31
f 8/9/32 7/13/33 17/16/34 18/18/35
f 41/28/36 10/21/37 6/25/38
f 58/29/39 73/30/40 74/31/41 59/32/42
f 5/33/43 41/28/44 6/25/45 22/34/46 23/35/47
f 21/36/48 4/37/49 20/38/50 17/16/51
f 23/35/52 39/41/53 36/8/54 55/7/55 56/42/56
f 1/5/57 66/4/58 2/43/59 32/44/60 30/45/61
f 19/46/62 21/36/63 72/47/64 71/48/65
f 17/16/66 16/49/67 21/36/68
f 53/50/69 9/24/70 54/51/71
f 42/52/72 44/53/73 12/26/74 25/54/75 28/19/76 11/22/77
f 30/45/78 24/1/79 1/5/80
f 56/42/81 13/17/82 44/53/83 5/33/84 23/35/85
f 19/46/86 13/17/87 18/18/88
f 16/49/89 9/24/90 69/55/91
f 62/56/92 63/57/93 61/58/94
f 33/59/95 34/60/96 31/20/97 28/19/98
f 30/45/99 32/44/100 34/60/101 33/59/102
f 29/61/103 31/20/104 34/60/105
f 28/19/106 25/54/107 33/59/108
f 32/44/109 29/61/110 34/60/111
f 25/54/112 30/45/113 33/59/114
f 52/62/115 53/50/116 54/51/117
f 10/21/118 31/20/119 29/61/120 52/62/121 26/23/122
f 25/54/123 12/26/124 24/1/125 30/45/126
f 36/8/127 39/41/128 40/63/129
f 38/64/130 6/25/131 16/49/132 37/15/133
f 17/16/134 37/15/135 16/49/136
f 23/35/137 22/34/138 35/65/139 39/41/140
f 40/63/141 39/41/142 35/65/143 38/64/144
f 36/8/145 40/63/146 38/64/147 37/15/148
f 36/8/149 37/15/150 15/14/151
f 8/9/152 36/8/153 15/14/154 7/13/155
f 43/66/156 41/28/157 5/33/158
f 5/33/159 44/53/160 43/66/161
f 43/66/162 44/53/163 42/52/164
f 42/52/165 41/28/166 43/66/167
f 11/22/168 10/21/169 41/28/170 42/52/171
f 48/67/172 17/16/173 20/38/174 46/68/175
f 47/69/176 49/70/177 64/11/178 3/10/179
f 19/46/180 50/71/181 47/69/182 3/10/183 65/12/184
f 45/72/185 50/71/186 19/46/187 18/18/188
f 4/37/189 49/70/190 46/68/191 20/38/192
f 18/18/193 17/16/194 48/67/195 45/72/196
f 46/68/197 49/70/198 51/73/199
f 49/70/200 47/69/201 50/71/202 51/73/203
f 45/72/204 48/67/205 51/73/206 50/71/207
f 48/67/208 46/68/209 51/73/210
f 32/44/211 2/43/212 53/50/213
f 27/2/214 9/24/215 53/50/216 2/43/217 67/3/218
f 54/51/219 9/24/220 26/23/221
f 52/62/222 54/51/223 26/23/224
f 32/44/225 53/50/226 52/62/227 29/61/228
f 57/74/229 55/7/230 14/6/231
f 14/6/232 13/17/233 57/74/234
f 57/74/235 13/17/236 56/42/237
f 56/42/238 55/7/239 57/74/240
f 58/29/241 59/32/242 60/75/243
f 13/17/244 70/39/245 73/30/246 58/29/247
f 12/26/248 44/53/249 60/75/250 59/32/251
f 44/53/252 13/17/253 58/29/254 60/75/255
f 21/36/256 16/49/257 63/57/258
f 16/49/259 69/55/260 75/76/261 61/58/262
f 63/57/263 16/49/264 61/58/265
f 62/56/266 61/58/267 75/76/268 76/77/269
f 21/36/270 63/57/271 62/56/272
f 65/12/273 64/11/274 21/36/275 19/46/276
f 66/4/277 67/3/278 2/43/279
f 64/11/280 49/70/281 4/37/282
f 21/36/283 64/11/284 4/37/285
f 19/46/286 77/40/287 70/39/288 13/17/289
f 74/31/290 68/27/291 12/26/292 59/32/293
f 76/77/294 72/47/295 21/36/296 62/56/297
f 71/48/298 77/40/299 19/46/300
f 27/2/301 24/1/302 68/27/303 9/24/304
f 69/55/305 70/39/306 77/40/307
f 70/39/308 68/27/309 74/31/310 73/30/311
f 69/55/312 72/47/313 76/77/314 75/76/315
f 69/55/316 77/40/317 71/48/318 72/47/319
f 9/24/320 68/27/321 70/39/322 69/55/323
f 22/34/324 6/25/325 38/64/326 35/65/327
f 16/49/328 6/25/329 9/24/330
