# This file uses centimeters as units for non-parametric coordinates.

v -44.679138 -0.000011 -487.301208
v -445.604065 0.000000 -175.535690
v -3.263306 43.454678 -253.862289
v -468.890350 0.000000 -68.991943
v 93.399414 17.043989 300.485474
v 464.180389 0.000000 54.348007
v -260.237793 0.918087 358.264465
v -156.904861 -0.000011 422.457397
v 232.770798 0.440798 369.690216
v 297.365143 24.452604 -237.013992
v 347.234833 -0.000011 -320.602478
v -68.288177 37.490841 -313.510468
v 69.442383 -0.000011 -466.388397
v -368.377930 0.000000 -322.198547
v -300.039398 16.831886 -318.102295
v -358.723358 23.615700 -19.904327
v -115.147720 26.089951 -34.182465
v 81.996674 27.767094 -22.166901
v 459.061646 0.000000 -95.929306
v -448.664520 -0.000011 78.220688
v -89.416641 18.408319 -122.775818
v -11.693848 13.798996 -16.162903
v 109.759964 36.082161 -119.423294
v -117.855347 42.907829 164.858063
v 37.540710 21.577248 128.224655
v -148.223511 51.474937 50.591492
v -11.577484 32.409000 153.563644
v 188.334061 20.717575 14.679199
v 297.502441 12.321491 -56.080933
v 178.184662 33.090458 150.764954
v 319.454865 23.694584 60.527924
v 291.980316 33.735348 173.319504
v 423.289551 0.000000 167.484680
v -365.247864 0.737223 259.509216
v -194.703369 26.954334 293.725739
v -44.670288 -0.000011 454.087646
v 93.915039 -0.000011 430.652985
v 350.060120 0.085192 276.622681
v 227.049042 34.986519 253.704956
v 232.610184 -0.000011 -405.814606
v 276.724823 22.195869 -278.134888
v 397.135925 -0.000011 -260.241089
v 97.186844 29.315905 -244.522934
v 184.992004 16.588581 -321.249695
v 240.132813 28.532331 -231.277328
v -262.192474 -0.000011 -425.961426
v -131.788284 0.000000 -473.642822
v -222.592865 23.413574 -320.986206
v -128.767227 28.448214 -373.944519
v -208.629303 34.741859 -252.178467
v -255.125290 13.233058 -160.917236
v -236.827942 31.509483 -43.837555
v -26.995117 24.422670 -135.804962
v -110.928818 43.683636 -248.201202
v 94.478622 18.716152 -365.645874
v -231.260254 45.824684 66.476395
v 83.675964 18.260098 126.320908
v -264.942139 16.572289 242.449692
v -172.969269 15.171986 350.511047
vt 0.237149 0.278970
vt 0.236774 0.279337
vt 0.236907 0.278878
vt 0.236657 0.279350
vt 0.236340 0.278737
vt 0.236639 0.278433
vt 0.236231 0.279089
vt 0.236174 0.278978
vt 0.236303 0.278595
vt 0.236919 0.278598
vt 0.237007 0.278577
vt 0.236963 0.278948
vt 0.237131 0.278856
vt 0.236937 0.279276
vt 0.236943 0.279193
vt 0.236616 0.279213
vt 0.236662 0.278960
vt 0.236673 0.278775
vt 0.236815 0.278460
vt 0.236497 0.279309
vt 0.236756 0.278974
vt 0.237032 0.278808
vt 0.237063 0.279180
vt 0.236540 0.279070
vt 0.236518 0.278764
vt 0.236366 0.279106
vt 0.236318 0.279204
vt 0.236256 0.278998
vt 0.236207 0.278736
vt 0.237086 0.278697
vt 0.236959 0.278623
vt 0.236950 0.278528
vt 0.236906 0.278785
vt 0.236994 0.278718
vt 0.236907 0.278647
vt 0.237122 0.279058
vt 0.236954 0.279111
vt 0.237021 0.279020
vt 0.236869 0.279077
vt 0.236780 0.279123
vt 0.236657 0.279087
vt 0.236781 0.278876
vt 0.236890 0.278977
vt 0.236655 0.278865
vt 0.236774 0.278783
vt 0.236740 0.278469
vt 0.236451 0.278947
vt 0.236510 0.278806
vt 0.236572 0.278945
vt 0.236477 0.278843
vt 0.236647 0.278666
vt 0.236690 0.278609
vt 0.236505 0.278668
vt 0.236615 0.278545
vt 0.236497 0.278566
vt 0.236520 0.278459
vt 0.236339 0.279042
vt 0.236160 0.278864
vt 0.236257 0.278648
vt 0.236402 0.278511
vt 0.236406 0.278614
vn 0.024164 0.983494 -0.179320
vn 0.024164 0.983494 -0.179320
vn 0.024164 0.983494 -0.179320
vn 0.001763 0.991161 -0.132656
vn 0.001763 0.991161 -0.132656
vn 0.001763 0.991161 -0.132656
vn 0.062279 0.994361 -0.085831
vn 0.062279 0.994361 -0.085831
vn 0.062279 0.994361 -0.085831
vn 0.202750 0.964779 -0.167615
vn 0.202750 0.964779 -0.167615
vn 0.202750 0.964779 -0.167615
vn 0.201214 0.967352 -0.154087
vn 0.201214 0.967352 -0.154087
vn 0.201214 0.967352 -0.154087
vn 0.039501 0.975691 -0.215559
vn 0.039501 0.975691 -0.215559
vn 0.039501 0.975691 -0.215559
vn 0.049994 0.979218 -0.196550
vn 0.049994 0.979218 -0.196550
vn 0.049994 0.979219 -0.196550
vn 0.049933 0.979649 -0.194410
vn 0.049933 0.979649 -0.194410
vn 0.049933 0.979649 -0.194410
vn 0.158670 0.950268 -0.267984
vn 0.158670 0.950268 -0.267984
vn 0.158670 0.950268 -0.267984
vn 0.078321 0.990593 -0.112207
vn 0.078321 0.990593 -0.112207
vn 0.078321 0.990593 -0.112207
vn 0.079790 0.994092 -0.073588
vn 0.079790 0.994092 -0.073588
vn 0.079790 0.994092 -0.073588
vn 0.018656 0.989576 -0.142799
vn 0.018656 0.989576 -0.142799
vn 0.018656 0.989576 -0.142799
vn 0.074230 0.976989 -0.199955
vn 0.074230 0.976989 -0.199955
vn 0.074230 0.976989 -0.199955
vn 0.092465 0.985642 -0.141281
vn 0.092465 0.985642 -0.141281
vn 0.092465 0.985642 -0.141281
vn -0.070156 0.978910 -0.191870
vn -0.070156 0.978910 -0.191870
vn -0.070156 0.978910 -0.191870
vn -0.199265 0.943910 -0.263300
vn -0.199265 0.943910 -0.263300
vn -0.199265 0.943910 -0.263300
vn -0.111677 0.988298 -0.103902
vn -0.111678 0.988298 -0.103902
vn -0.111678 0.988298 -0.103902
vn -0.084313 0.985805 -0.145190
vn -0.084313 0.985805 -0.145190
vn -0.084313 0.985805 -0.145190
vn -0.032902 0.992749 -0.115617
vn -0.032902 0.992749 -0.115617
vn -0.032902 0.992749 -0.115617
vn -0.002947 0.995347 -0.096306
vn -0.002947 0.995347 -0.096306
vn -0.002947 0.995347 -0.096306
vn -0.042796 0.961079 -0.272940
vn -0.042796 0.961079 -0.272940
vn -0.042796 0.961079 -0.272940
vn -0.220243 0.949050 -0.225385
vn -0.220243 0.949050 -0.225385
vn -0.220242 0.949050 -0.225385
vn -0.230520 0.965467 -0.121382
vn -0.230520 0.965467 -0.121382
vn -0.230520 0.965467 -0.121382
vn -0.089123 0.985532 -0.144169
vn -0.089123 0.985532 -0.144169
vn -0.089123 0.985532 -0.144169
vn -0.090040 0.978731 -0.184330
vn -0.090040 0.978731 -0.184330
vn -0.090040 0.978731 -0.184330
vn -0.257307 0.961595 0.095539
vn -0.257307 0.961595 0.095539
vn -0.257307 0.961595 0.095539
vn -0.072566 0.996412 0.043548
vn -0.072566 0.996412 0.043548
vn -0.072566 0.996413 0.043548
vn -0.191548 0.980590 -0.041865
vn -0.191548 0.980590 -0.041865
vn -0.191548 0.980590 -0.041865
vn -0.057476 0.987731 -0.145205
vn -0.057476 0.987731 -0.145205
vn -0.057476 0.987731 -0.145205
vn -0.084451 0.991065 -0.103241
vn -0.084451 0.991065 -0.103241
vn -0.084451 0.991065 -0.103241
vn 0.010575 0.986862 0.161218
vn 0.010575 0.986862 0.161218
vn 0.010575 0.986862 0.161218
vn -0.051221 0.977269 0.205721
vn -0.051221 0.977269 0.205721
vn -0.051221 0.977269 0.205721
vn -0.078748 0.974548 0.209894
vn -0.078748 0.974548 0.209894
vn -0.078748 0.974548 0.209894
vn -0.096947 0.978645 0.181258
vn -0.096947 0.978645 0.181258
vn -0.096947 0.978645 0.181258
vn -0.010524 0.995939 -0.089411
vn -0.010524 0.995939 -0.089411
vn -0.010524 0.995939 -0.089411
vn 0.127532 0.962726 -0.238523
vn 0.127532 0.962726 -0.238523
vn 0.127532 0.962726 -0.238523
vn -0.069849 0.987227 -0.143193
vn -0.069849 0.987227 -0.143193
vn -0.069849 0.987227 -0.143193
vn 0.126284 0.990772 -0.049228
vn 0.126284 0.990772 -0.049228
vn 0.126284 0.990772 -0.049228
vn 0.010575 0.998427 -0.055065
vn 0.010575 0.998427 -0.055065
vn 0.010575 0.998427 -0.055065
vn 0.145253 0.987056 -0.067985
vn 0.145253 0.987056 -0.067985
vn 0.145253 0.987056 -0.067985
vn -0.100602 0.985225 0.138605
vn -0.100602 0.985225 0.138605
vn -0.100602 0.985225 0.138605
vn -0.091792 0.994042 0.058784
vn -0.091792 0.994042 0.058784
vn -0.091792 0.994042 0.058784
vn -0.140031 0.984529 0.105331
vn -0.140031 0.984529 0.105331
vn -0.140031 0.984529 0.105331
vn -0.075215 0.992366 0.097737
vn -0.075215 0.992366 0.097737
vn -0.075215 0.992366 0.097737
vn 0.103248 0.993227 0.053302
vn 0.103248 0.993226 0.053302
vn 0.103248 0.993227 0.053302
vn 0.033201 0.994967 0.094544
vn 0.033201 0.994967 0.094544
vn 0.033201 0.994967 0.094544
vn 0.219058 0.972213 -0.082558
vn 0.219058 0.972213 -0.082558
vn 0.219058 0.972213 -0.082558
vn 0.092184 0.993516 0.066543
vn 0.092184 0.993516 0.066543
vn 0.092184 0.993516 0.066543
vn 0.077589 0.994756 0.066637
vn 0.077589 0.994756 0.066637
vn 0.077589 0.994756 0.066637
vn 0.112034 0.992175 0.055119
vn 0.112034 0.992175 0.055119
vn 0.112034 0.992175 0.055119
vn -0.088313 0.988369 -0.123801
vn -0.088313 0.988369 -0.123801
vn -0.088313 0.988370 -0.123801
vn -0.222508 0.974452 0.030571
vn -0.222508 0.974452 0.030571
vn -0.222508 0.974452 0.030571
vn -0.164910 0.982611 0.085329
vn -0.164910 0.982611 0.085329
vn -0.164910 0.982611 0.085329
vn -0.100035 0.984436 0.144498
vn -0.100035 0.984436 0.144498
vn -0.100035 0.984436 0.144498
vn -0.244555 0.962997 0.113272
vn -0.244555 0.962997 0.113272
vn -0.244555 0.962997 0.113272
vn 0.134373 0.985980 -0.098935
vn 0.134373 0.985980 -0.098935
vn 0.134373 0.985980 -0.098935
vn 0.155110 0.980755 -0.118576
vn 0.155110 0.980755 -0.118576
vn 0.155110 0.980755 -0.118576
vn 0.267198 0.946820 -0.179268
vn 0.267198 0.946820 -0.179268
vn 0.267198 0.946820 -0.179268
vn -0.090892 0.988155 -0.123643
vn -0.090892 0.988155 -0.123643
vn -0.090892 0.988155 -0.123643
vn -0.050839 0.994814 0.088097
vn -0.050839 0.994814 0.088097
vn -0.050839 0.994814 0.088097
vn 0.103153 0.993551 0.047077
vn 0.103152 0.993551 0.047077
vn 0.103152 0.993551 0.047077
vn 0.044150 0.997015 0.063335
vn 0.044150 0.997015 0.063335
vn 0.044150 0.997015 0.063335
vn -0.143081 0.987584 0.064849
vn -0.143081 0.987584 0.064849
vn -0.143081 0.987584 0.064849
vn 0.068346 0.994694 -0.076890
vn 0.068346 0.994694 -0.076890
vn 0.068346 0.994694 -0.076890
vn 0.071836 0.997412 0.002954
vn 0.071836 0.997412 0.002954
vn 0.071836 0.997412 0.002954
vn 0.196495 0.979771 -0.037933
vn 0.196495 0.979771 -0.037933
vn 0.196495 0.979771 -0.037933
vn -0.129131 0.986639 -0.099336
vn -0.129131 0.986640 -0.099336
vn -0.129131 0.986639 -0.099336
vn 0.155115 0.979984 -0.124781
vn 0.155115 0.979984 -0.124781
vn 0.155115 0.979984 -0.124781
vn 0.003741 0.995202 -0.097768
vn 0.003741 0.995202 -0.097768
vn 0.003741 0.995202 -0.097768
vn 0.018812 0.995842 -0.089139
vn 0.018812 0.995842 -0.089139
vn 0.018812 0.995842 -0.089139
vn 0.011382 0.996238 -0.085913
vn 0.011382 0.996238 -0.085913
vn 0.011382 0.996238 -0.085913
vn 0.163747 0.984725 0.059183
vn 0.163747 0.984726 0.059183
vn 0.163747 0.984726 0.059183
vn 0.247672 0.968498 -0.025887
vn 0.247672 0.968498 -0.025887
vn 0.247672 0.968498 -0.025887
vn -0.163656 0.986213 0.024497
vn -0.163656 0.986213 0.024497
vn -0.163656 0.986213 0.024497
vn -0.145200 0.987408 0.062796
vn -0.145200 0.987408 0.062796
vn -0.145200 0.987408 0.062796
vn -0.131498 0.981660 0.138028
vn -0.131498 0.981660 0.138028
vn -0.131498 0.981660 0.138028
vn -0.243787 0.959725 0.139625
vn -0.243787 0.959725 0.139625
vn -0.243787 0.959725 0.139625
vn 0.101566 0.994333 0.031417
vn 0.101566 0.994333 0.031417
vn 0.101566 0.994333 0.031417
vn 0.030735 0.989556 0.140833
vn 0.030735 0.989556 0.140833
vn 0.030735 0.989556 0.140833
vn -0.134358 0.958784 0.250362
vn -0.134358 0.958784 0.250362
vn -0.134358 0.958784 0.250362
vn -0.136501 0.962729 0.233498
vn -0.136501 0.962729 0.233498
vn -0.136501 0.962729 0.233498
vn 0.030827 0.990013 0.137564
vn 0.030827 0.990013 0.137564
vn 0.030827 0.990013 0.137564
vn -0.069223 0.971196 0.228007
vn -0.069223 0.971196 0.228007
vn -0.069223 0.971196 0.228007
vn -0.061756 0.973739 0.219131
vn -0.061756 0.973739 0.219131
vn -0.061756 0.973739 0.219131
vn -0.158983 0.987155 0.015769
vn -0.158983 0.987155 0.015769
vn -0.158983 0.987155 0.015769
vn -0.119694 0.992062 0.038544
vn -0.119694 0.992062 0.038544
vn -0.119694 0.992062 0.038544
vn 0.021935 0.991309 0.129714
vn 0.021935 0.991309 0.129714
vn 0.021935 0.991309 0.129714
vn -0.087212 0.987714 0.129676
vn -0.087211 0.987714 0.129676
vn -0.087212 0.987714 0.129676
vn 0.119037 0.953170 0.278025
vn 0.119037 0.953170 0.278025
vn 0.119037 0.953170 0.278025
vn 0.252293 0.952860 0.168540
vn 0.252293 0.952860 0.168540
vn 0.252293 0.952860 0.168540
vn 0.237914 0.954965 0.177311
vn 0.237914 0.954965 0.177311
vn 0.237914 0.954965 0.177311
vn -0.002225 0.999847 -0.017360
vn -0.002225 0.999847 -0.017360
vn -0.002225 0.999847 -0.017360
vn 0.166952 0.960048 -0.224579
vn 0.166952 0.960048 -0.224579
vn 0.166952 0.960048 -0.224579
vn 0.216206 0.938591 0.268890
vn 0.216206 0.938591 0.268890
vn 0.216206 0.938591 0.268890
vn 0.075415 0.997149 -0.002569
vn 0.075415 0.997149 -0.002569
vn 0.075415 0.997149 -0.002569
s off
f 40/30/1 44/34/2 41/31/3
f 45/35/4 41/31/5 44/34/6
f 10/10/7 41/31/8 45/35/9
f 11/11/10 41/31/11 42/32/12
f 10/10/13 42/32/14 41/31/15
f 49/38/16 13/13/17 1/1/18
f 12/12/19 55/22/20 49/38/21
f 49/38/22 55/22/23 13/13/24
f 3/3/25 43/33/26 12/12/27
f 12/12/28 44/34/29 55/22/30
f 43/33/31 44/34/32 12/12/33
f 43/33/34 45/35/35 44/34/36
f 13/13/37 55/22/38 40/30/39
f 44/34/40 40/30/41 55/22/42
f 48/37/43 47/36/44 46/23/45
f 49/38/46 47/36/47 48/37/48
f 49/38/49 48/37/50 54/43/51
f 50/39/52 54/43/53 48/37/54
f 54/43/55 12/12/56 49/38/57
f 3/3/58 12/12/59 54/43/60
f 47/36/61 49/38/62 1/1/63
f 46/23/64 14/14/65 15/15/66
f 2/2/67 15/15/68 14/14/69
f 48/37/70 15/15/71 50/39/72
f 15/15/73 48/37/74 46/23/75
f 15/15/76 51/40/77 50/39/78
f 15/15/79 2/2/80 51/40/81
f 16/16/82 2/2/83 4/4/84
f 2/2/85 52/41/86 51/40/87
f 2/2/88 16/16/89 52/41/90
f 53/42/91 3/3/92 54/43/93
f 21/21/94 53/42/95 54/43/96
f 21/21/97 54/43/98 51/40/99
f 51/40/100 54/43/101 50/39/102
f 21/21/103 51/40/104 17/17/105
f 17/17/106 51/40/107 26/49/108
f 26/49/109 51/40/110 52/41/111
f 22/44/112 21/21/113 17/17/114
f 45/35/115 43/33/116 23/45/117
f 3/3/118 23/45/119 43/33/120
f 23/45/121 3/3/122 53/42/123
f 23/45/124 53/42/125 18/18/126
f 18/18/127 53/42/128 22/44/129
f 22/44/130 53/42/131 21/21/132
f 45/35/133 23/45/134 28/51/135
f 28/51/136 23/45/137 18/18/138
f 42/32/139 10/10/140 19/19/141
f 10/10/142 29/52/143 19/46/144
f 45/35/145 29/52/146 10/10/147
f 45/35/148 28/51/149 29/52/150
f 56/24/151 52/41/152 16/16/153
f 4/4/154 20/20/155 16/16/156
f 16/16/157 20/20/158 58/26/159
f 24/47/160 56/24/161 58/26/162
f 16/16/163 58/26/164 56/24/165
f 17/17/166 25/48/167 22/44/168
f 27/50/169 25/48/170 17/17/171
f 27/50/172 17/17/173 26/49/174
f 26/49/175 52/41/176 56/24/177
f 24/47/178 26/49/179 56/24/180
f 24/47/181 27/50/182 26/49/183
f 28/51/184 18/18/185 57/25/186
f 57/25/187 18/18/188 22/44/189
f 57/25/190 22/44/191 25/48/192
f 5/5/193 57/25/194 25/48/195
f 5/5/196 25/48/197 27/50/198
f 30/53/199 28/51/200 57/25/201
f 6/6/202 29/52/203 31/54/204
f 31/54/205 29/52/206 30/53/207
f 30/53/208 29/52/209 28/51/210
f 32/55/211 31/54/212 30/53/213
f 6/6/214 31/54/215 33/56/216
f 33/56/217 31/54/218 32/55/219
f 35/57/220 24/47/221 58/26/222
f 20/20/223 34/27/224 58/26/225
f 58/26/226 34/27/227 7/7/228
f 58/26/229 7/7/230 35/57/231
f 5/5/232 27/50/233 24/47/234
f 5/5/235 24/47/236 35/57/237
f 35/57/238 7/7/239 59/28/240
f 8/8/241 59/28/242 7/7/243
f 35/57/244 36/58/245 5/5/246
f 35/57/247 59/28/248 36/58/249
f 36/58/250 59/28/251 8/8/252
f 57/25/253 5/5/254 30/53/255
f 39/61/256 30/53/257 5/5/258
f 5/5/259 36/58/260 37/29/261
f 5/5/262 37/29/263 39/61/264
f 39/61/265 37/29/266 9/59/267
f 32/55/268 38/60/269 33/56/270
f 39/61/271 38/60/272 32/55/273
f 30/53/274 39/61/275 32/55/276
f 41/31/277 11/11/278 40/30/279
f 9/9/280 38/60/281 39/61/282
f 19/46/283 29/52/284 6/6/285
