# This file uses centimeters as units for non-parametric coordinates.

v 40.553711 -36.181213 0.000298
v -40.553711 -36.181213 0.000298
v 40.553711 3.024888 0.000298
v -40.553711 3.024888 0.000298
v 40.553711 3.024880 499.999695
v -40.553711 3.024880 499.999695
v 40.553711 -36.181217 499.999695
v -40.553711 -36.181217 499.999695
v 31.317001 10.945749 0.000298
v -31.317001 10.945749 0.000298
v -31.317001 10.945744 499.999695
v 31.317001 10.945744 499.999695
v 23.412506 10.945749 0.000298
v -23.414444 10.945749 0.000298
v -23.414444 10.945744 499.999695
v 23.412506 10.945744 499.999695
v 17.929337 8.145681 0.000298
v -17.930298 8.145681 0.000298
v -17.930298 8.145675 499.999695
v 17.929337 8.145675 499.999695
v -26.448320 10.945749 109.907471
v -20.965151 8.145679 109.907471
v 20.679605 8.145679 242.759796
v 29.436508 10.945749 207.640015
v 34.767273 10.945749 208.575745
v 40.553711 3.024888 239.428787
v 40.553711 -36.181213 280.973724
v -40.553711 -36.181213 205.102905
v -40.553711 3.024888 205.102905
v -31.317001 10.945749 205.102905
v -22.752676 10.945746 367.727905
v -19.934885 8.145677 372.050568
v 19.745808 8.145677 252.545395
v 25.228977 10.945746 294.089355
v 29.196640 10.945746 295.708466
v -28.998913 10.945746 371.044403
vt 0.065371 0.858655
vt 0.065371 0.858655
vt 0.065371 0.858655
vt 0.065371 0.858655
vt 0.065371 0.858655
vt 0.065371 0.858655
vt 0.065371 0.858655
vt 0.065371 0.858655
vt 0.065371 0.858655
vt 0.065371 0.858655
vt 0.065371 0.858655
vt 0.065371 0.858655
vt 0.065371 0.858655
vt 0.065371 0.858655
vt 0.065371 0.858655
vt 0.065371 0.858655
vt 0.065371 0.858655
vt 0.065371 0.858655
vt 0.065371 0.858655
vt 0.065371 0.858655
vt 0.065371 0.858655
vt 0.065371 0.858655
vt 0.065371 0.858655
vt 0.065371 0.858655
vt 0.065371 0.858655
vt 0.065371 0.858655
vt 0.376685 0.029170
vt 0.376685 0.029170
vt 0.376685 0.029170
vt 0.376685 0.029170
vt 0.065371 0.858655
vt 0.376685 0.029170
vt 0.065371 0.858655
vt 0.065371 0.858655
vt 0.376685 0.029170
vt 0.065371 0.858655
vt 0.065371 0.858655
vt 0.065371 0.858655
vt 0.065371 0.858655
vt 0.065371 0.858655
vt 0.065371 0.858655
vt 0.065371 0.858655
vt 0.065371 0.858655
vt 0.065371 0.858655
vt 0.065371 0.858655
vt 0.065371 0.858655
vt 0.065371 0.858655
vt 0.376685 0.029170
vt 0.065371 0.858655
vt 0.065371 0.858655
vt 0.376685 0.029170
vt 0.065371 0.858655
vt 0.065371 0.858655
vt 0.065371 0.858655
vn 0.000000 0.000000 -1.000000
vn 0.000000 0.000000 -1.000000
vn 0.000000 0.000000 -1.000000
vn 0.000000 0.000000 -1.000000
vn -0.000000 1.000000 0.000000
vn -0.000000 1.000000 0.000000
vn -0.000000 1.000000 0.000000
vn -0.000000 1.000000 0.000000
vn 0.000000 0.000000 1.000000
vn 0.000000 0.000000 1.000000
vn 0.000000 0.000000 1.000000
vn 0.000000 0.000000 1.000000
vn 0.000000 -1.000000 -0.000000
vn 0.000000 -1.000000 -0.000000
vn 0.000000 -1.000000 0.000000
vn 0.000000 -1.000000 0.000000
vn -1.000000 0.000000 0.000000
vn -1.000000 0.000000 0.000000
vn -1.000000 0.000000 0.000000
vn -1.000000 0.000000 0.000000
vn 1.000000 -0.000000 0.000000
vn 1.000000 -0.000000 0.000000
vn 1.000000 -0.000000 0.000000
vn 1.000000 -0.000000 0.000000
vn -0.650966 0.759107 0.000000
vn -0.648447 0.761256 0.002275
vn -0.650964 0.759105 0.002632
vn -0.650966 0.759107 0.000000
vn 0.691125 0.722493 0.018722
vn 0.731045 0.682306 -0.005630
vn 0.731045 0.682306 -0.005630
vn 0.730657 0.682731 -0.004406
vn 0.000000 1.000000 0.000000
vn 0.000000 1.000000 0.000000
vn 0.000000 1.000000 0.000000
vn 0.000000 1.000000 0.000000
vn -0.000000 1.000000 0.000000
vn 0.000000 1.000000 -0.000000
vn 0.000000 1.000000 -0.000000
vn -0.000000 1.000000 0.000000
vn 0.454729 0.890541 0.012554
vn 0.525726 0.850653 0.000924
vn 0.525230 0.850960 0.001007
vn 0.454729 0.890541 0.012554
vn -0.351420 0.936196 0.006450
vn -0.351310 0.936234 0.006844
vn -0.351310 0.936234 0.006844
vn -0.356316 0.934297 -0.011353
vn 0.000000 0.000000 1.000000
vn 0.000000 0.000000 1.000000
vn 0.000000 0.000000 1.000000
vn 0.000000 0.000000 1.000000
vn 0.000000 0.000000 1.000000
vn 0.000000 0.000000 1.000000
vn 0.000000 0.000000 1.000000
vn 0.000000 0.000000 1.000000
vn 0.000000 0.000000 1.000000
vn 0.000000 0.000000 1.000000
vn 0.000000 0.000000 1.000000
vn 0.000000 0.000000 1.000000
vn 0.000000 0.000000 1.000000
vn 0.000000 0.000000 1.000000
vn 0.000000 0.000000 1.000000
vn 0.000000 0.000000 1.000000
vn 0.000000 0.000000 1.000000
vn 0.000000 0.000000 1.000000
vn 0.000000 0.000000 -1.000000
vn 0.000000 0.000000 -1.000000
vn 0.000000 0.000000 -1.000000
vn 0.000000 0.000000 -1.000000
vn 0.000000 0.000000 -1.000000
vn 0.000000 0.000000 -1.000000
vn 0.000000 0.000000 -1.000000
vn 0.000000 0.000000 -1.000000
vn 0.000000 0.000000 -1.000000
vn 0.000000 0.000000 -1.000000
vn 0.000000 0.000000 -1.000000
vn 0.000000 0.000000 -1.000000
vn 0.000000 0.000000 -1.000000
vn 0.000000 0.000000 -1.000000
vn 0.000000 0.000000 -1.000000
vn 0.000000 0.000000 -1.000000
vn 0.000000 0.000000 -1.000000
vn 0.000000 0.000000 -1.000000
vn 0.560569 0.828100 -0.003731
vn 0.525230 0.850960 0.001007
vn 0.525726 0.850653 0.000924
vn 0.560971 0.827821 -0.004803
vn -0.000000 1.000000 0.000000
vn -0.000000 1.000000 0.000000
vn -0.000000 1.000000 0.000000
vn 0.000000 1.000000 0.000000
vn -0.442680 0.896672 -0.003818
vn -0.351420 0.936196 0.006450
vn -0.356316 0.934297 -0.011353
vn -0.372997 0.927685 -0.016548
vn -0.000000 1.000000 0.000000
vn -0.000000 1.000000 0.000000
vn -0.000000 1.000000 0.000000
vn -0.000000 1.000000 0.000000
vn 0.691125 0.722493 0.018722
vn 0.730657 0.682731 -0.004406
vn 0.606179 0.795326 -0.002254
vn -0.590176 0.807268 -0.003121
vn -0.650964 0.759105 0.002632
vn -0.648447 0.761256 0.002275
vn 0.000000 1.000000 0.000000
vn 0.000000 1.000000 0.000000
vn 0.000000 1.000000 0.000000
vn 0.000000 1.000000 0.000000
vn 0.560253 0.828317 -0.002891
vn 0.560569 0.828100 -0.003731
vn 0.560971 0.827821 -0.004803
vn 0.560253 0.828317 -0.002891
vn 0.000000 1.000000 0.000000
vn -0.000000 1.000000 0.000000
vn 0.000000 1.000000 0.000000
vn 0.000000 1.000000 0.000000
vn -0.444069 0.895986 -0.003558
vn -0.442680 0.896672 -0.003818
vn -0.372997 0.927685 -0.016548
vn -0.444069 0.895986 -0.003558
vn -0.000000 1.000000 0.000000
vn -0.000000 1.000000 0.000000
vn -0.000000 1.000000 0.000000
vn -0.000000 1.000000 0.000000
vn 0.604968 0.796245 -0.002759
vn 0.691125 0.722493 0.018722
vn 0.606179 0.795326 -0.002254
vn 0.604968 0.796245 -0.002759
vn 1.000000 -0.000000 0.000000
vn 1.000000 -0.000000 0.000000
vn 1.000000 -0.000000 0.000000
vn 1.000000 -0.000000 0.000000
vn 0.000000 -1.000000 -0.000000
vn 0.000000 -1.000000 -0.000000
vn 0.000000 -1.000000 -0.000000
vn 0.000000 -1.000000 -0.000000
vn -1.000000 0.000000 0.000000
vn -1.000000 0.000000 0.000000
vn -1.000000 0.000000 0.000000
vn -1.000000 0.000000 0.000000
vn -0.589643 0.807658 -0.003225
vn -0.590176 0.807268 -0.003121
vn -0.648447 0.761256 0.002275
vn -0.589643 0.807658 -0.003225
vn 0.000000 1.000000 0.000000
vn 0.000000 1.000000 0.000000
vn 0.000000 1.000000 0.000000
vn 0.000000 1.000000 0.000000
s off
f 1/1/1 2/2/2 4/4/3 3/3/4
f 17/27/5 18/28/6 22/32/7 23/35/8
f 5/5/9 6/6/10 8/8/11 7/7/12
f 27/41/13 28/42/14 2/10/15 1/9/16
f 2/2/17 28/43/18 29/45/19 4/4/20
f 27/40/21 1/1/22 3/3/23 26/38/24
f 4/4/25 29/44/26 30/46/27 10/16/28
f 26/39/29 3/3/30 9/15/31 25/37/32
f 10/16/33 30/46/34 21/31/35 14/20/36
f 25/37/37 9/15/38 13/19/39 24/36/40
f 14/20/41 21/31/42 22/33/43 18/24/44
f 24/36/45 13/19/46 17/23/47 23/34/48
f 12/18/49 16/22/50 5/5/51
f 16/22/52 20/26/53 5/5/54
f 5/5/55 20/26/56 6/6/57
f 20/26/58 19/25/59 6/6/60
f 19/25/61 15/21/62 6/6/63
f 6/6/64 15/21/65 11/17/66
f 9/15/67 3/3/68 13/19/69
f 13/19/70 3/3/71 17/23/72
f 3/3/73 4/4/74 17/23/75
f 17/23/76 4/4/77 18/24/78
f 18/24/79 4/4/80 14/20/81
f 4/4/82 10/16/83 14/20/84
f 32/49/85 22/33/86 21/31/87 31/47/88
f 33/51/89 23/35/90 22/32/91 32/48/92
f 34/52/93 24/36/94 23/34/95 33/50/96
f 35/53/97 25/37/98 24/36/99 34/52/100
f 26/39/101 25/37/102 35/53/103
f 36/54/104 30/46/105 29/44/106
f 36/54/107 31/47/108 21/31/109 30/46/110
f 19/25/111 32/49/112 31/47/113 15/21/114
f 20/30/115 33/51/116 32/48/117 19/29/118
f 16/22/119 34/52/120 33/50/121 20/26/122
f 12/18/123 35/53/124 34/52/125 16/22/126
f 5/5/127 26/39/128 35/53/129 12/18/130
f 27/40/131 26/38/132 5/14/133 7/13/134
f 28/42/135 27/41/136 7/7/137 8/8/138
f 6/12/139 29/45/140 28/43/141 8/11/142
f 11/17/143 36/54/144 29/44/145 6/6/146
f 15/21/147 31/47/148 36/54/149 11/17/150
