# This file uses centimeters as units for non-parametric coordinates.

v -95.138306 -6.023070 -95.668015
v -89.854370 9.506816 99.852966
v -91.290588 40.841248 -97.835419
v -88.928955 51.182747 90.171997
v 64.715759 51.182747 127.378204
v 83.169128 -6.023070 -98.763794
v -13.047180 51.182747 109.013672
v -61.790222 -6.023070 125.938049
v 86.185120 20.369366 -95.628464
v 91.573608 51.182747 -71.794952
v 46.703735 -6.023070 -129.528229
v -37.108521 -6.023070 -122.431503
v 21.736267 6.873408 -129.528214
v 9.173340 -6.023072 -118.996094
v 93.019104 51.182747 48.590302
v 88.304199 51.182747 107.728516
v 78.035706 51.182747 76.938385
v 90.528137 42.214233 79.833984
v -90.634094 51.182747 -57.632462
v -72.019653 51.182747 -97.835419
v -89.023682 -6.023070 89.268524
v -75.286987 -6.023070 112.252319
v -1.074280 51.182747 117.518463
v 0.275085 -6.023067 125.611145
v 75.530945 -6.023070 114.186310
v 34.332581 -6.023070 129.528259
v -89.929932 27.762669 96.439697
v -96.634674 18.665764 -33.228714
v -95.138306 19.552994 -95.668015
v -37.194458 6.272277 -120.242401
v 45.480835 31.448528 -124.188416
v 96.634644 12.545577 -64.486755
v 93.607727 12.741050 72.931244
v 88.308228 -6.023070 107.677673
v 33.125366 18.982632 124.816193
v -25.060791 40.933121 118.396637
v 30.611572 51.182747 -103.129761
v -16.689270 51.182747 -103.180786
v 24.234741 45.395432 -121.387558
v -36.866577 51.182747 -31.548645
vt 0.196071 0.914265
vt 0.201586 0.887206
vt 0.084609 0.508018
vt 0.077369 0.857210
vt 0.084251 0.508228
vt 0.073960 0.866422
vt 0.065926 0.896125
vt 0.067977 0.920681
vt 0.093466 0.864616
vt 0.076669 0.930286
vt 0.072215 0.921654
vt 0.084181 0.508219
vt 0.084263 0.508082
vt 0.083755 0.507694
vt 0.067052 0.874219
vt 0.077342 0.857212
vt 0.187762 0.898808
vt 0.108311 0.853813
vt 0.171353 0.854855
vt 0.187789 0.932912
vt 0.150277 0.947460
vt 0.083854 0.507698
vt 0.197870 0.947634
vt 0.087009 0.985064
vt 0.183855 0.989473
vt 0.083726 0.507767
vt 0.083563 0.507721
vt 0.083648 0.507731
vt 0.083754 0.507833
vt 0.083828 0.507893
vt 0.083818 0.507838
vt 0.083972 0.507937
vt 0.083260 0.507903
vt 0.083336 0.507878
vt 0.083370 0.507873
vt 0.083412 0.507812
vt 0.084189 0.507935
vt 0.084153 0.507949
vt 0.084133 0.507886
vt 0.083864 0.508307
vt 0.083746 0.508358
vt 0.083820 0.508319
vt 0.083584 0.508153
vt 0.083467 0.508157
vt 0.083454 0.508095
vt 0.083396 0.508093
vt 0.084309 0.507735
vt 0.084373 0.507810
vt 0.067806 0.965429
vt 0.163937 0.986226
vt 0.086536 0.984996
vt 0.084416 0.507827
vt 0.084314 0.507679
vt 0.083861 0.507880
vt 0.083835 0.508027
vt 0.083751 0.507966
vt 0.084192 0.507629
vt 0.083959 0.507658
vt 0.084516 0.507977
vt 0.084648 0.507952
vt 0.084661 0.508145
vt 0.084689 0.508028
vt 0.083945 0.508192
vt 0.084091 0.508242
vt 0.083689 0.507775
vt 0.083724 0.507874
vt 0.084234 0.508129
vt 0.084406 0.508137
vt 0.084676 0.508081
vt 0.084592 0.507962
vt 0.084362 0.507731
vt 0.084029 0.507712
vt 0.083798 0.507774
vt 0.083763 0.507823
vt 0.083786 0.507939
vt 0.083915 0.507955
vt 0.184990 0.972805
vt 0.083788 0.507748
vt 0.084507 0.507805
vt 0.185476 0.860915
vt 0.084124 0.507742
vt 0.083822 0.507755
vt 0.085189 0.508002
vt 0.085001 0.508147
vt 0.084189 0.508006
vt 0.074973 0.975160
vn -0.998146 -0.037026 0.048306
vn -0.998146 -0.037026 0.048306
vn -0.998146 -0.037026 0.048306
vn -0.998146 -0.037026 0.048306
vn -0.000000 -1.000000 0.000000
vn -0.000000 -1.000000 0.000000
vn -0.000000 -1.000000 0.000000
vn -0.000000 -1.000000 0.000000
vn -0.000000 -1.000000 0.000000
vn -0.000000 -1.000000 0.000000
vn 0.073891 0.143055 -0.986953
vn 0.073891 0.143055 -0.986953
vn 0.073891 0.143055 -0.986953
vn -0.090744 0.150508 0.984435
vn -0.090744 0.150508 0.984435
vn -0.090744 0.150508 0.984435
vn -0.090744 0.150508 0.984435
vn 0.594653 0.424247 -0.682936
vn 0.594653 0.424247 -0.682936
vn 0.594653 0.424247 -0.682936
vn 0.461953 0.786165 -0.410541
vn 0.461953 0.786165 -0.410541
vn 0.461953 0.786165 -0.410541
vn -0.239415 -0.463505 -0.853137
vn -0.239415 -0.463505 -0.853137
vn -0.239415 -0.463505 -0.853137
vn 0.055391 -0.663380 -0.746230
vn 0.055391 -0.663380 -0.746230
vn 0.055391 -0.663379 -0.746230
vn 0.601594 0.773196 -0.200631
vn 0.601594 0.773196 -0.200631
vn 0.601594 0.773196 -0.200631
vn 0.518189 0.810225 0.273889
vn 0.518189 0.810225 0.273889
vn 0.518189 0.810225 0.273889
vn 0.000000 1.000000 -0.000000
vn 0.000000 1.000000 -0.000000
vn 0.000000 1.000000 -0.000000
vn 0.000000 1.000000 -0.000000
vn 0.000000 1.000000 -0.000000
vn 0.000000 1.000000 -0.000000
vn 0.000000 1.000000 -0.000000
vn 0.000000 1.000000 -0.000000
vn 0.000000 1.000000 -0.000000
vn -0.461912 0.860753 -0.213871
vn -0.461912 0.860753 -0.213871
vn -0.461912 0.860753 -0.213871
vn 0.940586 -0.067964 -0.332686
vn 0.940586 -0.067964 -0.332686
vn 0.940586 -0.067964 -0.332686
vn -0.151835 0.290354 -0.944797
vn -0.151835 0.290354 -0.944797
vn -0.151835 0.290354 -0.944797
vn -0.151835 0.290354 -0.944797
vn 0.000000 1.000000 0.000000
vn 0.000000 1.000000 0.000000
vn 0.000000 1.000000 0.000000
vn -0.399249 0.052005 -0.915367
vn -0.399249 0.052005 -0.915367
vn -0.399249 0.052005 -0.915367
vn -0.399249 0.052005 -0.915367
vn -0.798195 -0.367834 0.477056
vn -0.798195 -0.367834 0.477056
vn -0.798195 -0.367834 0.477056
vn -0.156502 0.760427 0.630284
vn -0.156502 0.760427 0.630284
vn -0.156502 0.760427 0.630285
vn -0.994175 -0.106232 0.018179
vn -0.994175 -0.106232 0.018179
vn -0.994175 -0.106232 0.018179
vn -0.994175 -0.106232 0.018179
vn 0.000000 -1.000000 0.000000
vn 0.000000 -1.000000 0.000000
vn 0.000000 -1.000000 0.000000
vn -0.332639 0.818574 0.468283
vn -0.332639 0.818574 0.468283
vn -0.332639 0.818574 0.468283
vn -0.366313 0.419894 0.830364
vn -0.366313 0.419894 0.830364
vn -0.366313 0.419894 0.830364
vn 0.000000 1.000000 0.000000
vn 0.000000 1.000000 0.000000
vn 0.000000 1.000000 0.000000
vn 0.000000 1.000000 0.000000
vn -0.660122 0.064176 0.748412
vn -0.660122 0.064176 0.748412
vn -0.660122 0.064176 0.748412
vn -0.660122 0.064176 0.748412
vn 0.342628 0.189920 0.920074
vn 0.342628 0.189920 0.920074
vn 0.342628 0.189920 0.920074
vn 0.893442 -0.449148 -0.005233
vn 0.893442 -0.449148 -0.005233
vn 0.893442 -0.449148 -0.005233
vn 0.893442 -0.449148 -0.005233
vn -0.023363 0.139493 0.989947
vn -0.023363 0.139493 0.989947
vn -0.023363 0.139493 0.989947
vn 0.000000 -1.000000 0.000000
vn 0.000000 -1.000000 0.000000
vn 0.000000 -1.000000 0.000000
vn -0.356136 0.255747 0.898755
vn -0.356136 0.255747 0.898755
vn -0.356136 0.255747 0.898755
vn -0.990117 0.137907 0.025488
vn -0.990117 0.137907 0.025488
vn -0.990117 0.137907 0.025488
vn -0.990117 0.137907 0.025488
vn -0.985384 0.168705 -0.023602
vn -0.985384 0.168705 -0.023602
vn -0.985384 0.168705 -0.023602
vn -0.985384 0.168705 -0.023602
vn -0.294598 0.150661 -0.943670
vn -0.294598 0.150661 -0.943670
vn -0.294598 0.150661 -0.943670
vn -0.294598 0.150661 -0.943670
vn -0.088593 0.388835 -0.917038
vn -0.088593 0.388835 -0.917038
vn -0.088593 0.388835 -0.917038
vn 0.997993 0.062442 0.010574
vn 0.997993 0.062442 0.010574
vn 0.997993 0.062442 0.010574
vn 0.997993 0.062442 0.010574
vn 0.994864 0.098852 0.021773
vn 0.994864 0.098852 0.021773
vn 0.994864 0.098852 0.021773
vn 0.996837 -0.000000 0.079475
vn 0.996837 -0.000000 0.079475
vn 0.996837 -0.000000 0.079475
vn 0.639035 -0.056089 0.767130
vn 0.639036 -0.056089 0.767129
vn 0.639036 -0.056089 0.767130
vn -0.147883 0.066571 0.986762
vn -0.147883 0.066571 0.986762
vn -0.147883 0.066571 0.986762
vn 0.453896 -0.000760 0.891055
vn 0.453896 -0.000760 0.891055
vn 0.453896 -0.000760 0.891055
vn 0.000326 0.953224 -0.302265
vn 0.000326 0.953224 -0.302265
vn 0.000326 0.953224 -0.302265
vn 0.005204 0.154602 0.987963
vn 0.005204 0.154602 0.987963
vn 0.005204 0.154602 0.987963
vn 0.125422 -0.200357 0.971662
vn 0.125422 -0.200357 0.971662
vn 0.125422 -0.200357 0.971662
vn 0.981463 0.059914 0.182048
vn 0.981463 0.059914 0.182048
vn 0.981463 0.059914 0.182048
vn 0.614973 0.086744 -0.783762
vn 0.614973 0.086744 -0.783762
vn 0.614973 0.086744 -0.783762
vn 0.614973 0.086744 -0.783762
vn 0.950880 0.067407 -0.302131
vn 0.950880 0.067407 -0.302131
vn 0.950880 0.067407 -0.302131
vn -0.306740 0.457193 -0.834797
vn -0.306740 0.457193 -0.834797
vn -0.306740 0.457193 -0.834797
vn 0.279603 0.791151 -0.543969
vn 0.279603 0.791151 -0.543969
vn 0.279603 0.791151 -0.543969
vn -0.073894 0.086945 -0.993469
vn -0.073894 0.086945 -0.993469
vn -0.073894 0.086945 -0.993469
vn 0.000000 1.000000 0.000000
vn 0.000000 1.000000 0.000000
vn 0.000000 1.000000 0.000000
vn 0.000000 1.000000 0.000000
vn 0.000000 1.000000 0.000000
vn 0.000000 1.000000 0.000000
vn 0.000000 1.000000 0.000000
vn 0.000000 1.000000 0.000000
vn 0.000000 1.000000 0.000000
vn 0.000000 1.000000 0.000000
vn 0.000000 -1.000000 0.000000
vn 0.000000 -1.000000 0.000000
vn 0.000000 -1.000000 0.000000
vn -0.000000 -1.000000 0.000000
vn -0.000000 -1.000000 0.000000
vn -0.000000 -1.000000 0.000000
vn -0.000000 -1.000000 0.000000
vn -0.000000 -1.000000 0.000000
s off
f 27/67/1 28/68/2 21/5/3 2/12/4
f 14/1/5 11/2/6 34/4/7 25/6/8 26/7/9 24/8/10
f 31/71/11 11/48/12 13/52/13
f 35/75/14 23/54/15 24/55/16 26/56/17
f 31/26/18 10/27/19 9/28/20
f 39/82/21 37/78/22 31/26/23
f 11/29/24 14/30/25 13/31/26
f 13/31/27 14/30/28 12/32/29
f 16/33/30 18/34/31 17/35/32
f 17/35/33 18/34/34 15/36/35
f 17/9/36 7/10/37 23/11/38 5/15/39 16/16/40
f 37/17/41 17/9/42 15/18/43 10/19/44
f 3/37/45 19/38/46 20/39/47
f 9/53/48 32/72/49 6/47/50
f 30/70/51 31/71/52 13/52/53 12/59/54
f 38/20/55 40/21/56 37/17/57
f 29/69/58 30/70/59 12/59/60 1/61/61
f 21/40/62 22/41/63 2/42/64
f 4/43/65 36/44/66 7/45/67
f 1/61/68 21/5/69 28/68/70 29/69/71
f 12/23/72 21/24/73 1/25/74
f 7/45/75 36/44/76 23/46/77
f 36/76/78 27/67/79 8/63/80
f 37/17/81 40/21/82 7/10/83 17/9/84
f 2/12/85 22/64/86 8/63/87 27/67/88
f 25/66/89 35/75/90 26/56/91
f 6/47/92 32/72/93 33/73/94 34/74/95
f 23/54/96 36/76/97 24/55/98
f 14/1/99 24/8/100 8/49/101
f 4/13/102 27/67/103 36/76/104
f 19/3/105 28/68/106 27/67/107 4/13/108
f 29/69/109 28/68/110 19/3/111 3/62/112
f 20/60/113 30/70/114 29/69/115 3/62/116
f 38/79/117 30/70/118 20/60/119
f 32/72/120 10/57/121 15/58/122 18/22/123
f 33/73/124 32/72/125 18/22/126
f 16/14/127 34/74/128 18/22/129
f 25/66/130 16/14/131 5/65/132
f 23/54/133 35/75/134 5/65/135
f 25/66/136 34/74/137 16/14/138
f 38/85/139 37/83/140 39/84/141
f 24/55/142 36/76/143 8/63/144
f 5/65/145 35/75/146 25/66/147
f 18/22/148 34/74/149 33/73/150
f 6/47/151 11/48/152 31/71/153 9/53/154
f 9/53/155 10/57/156 32/72/157
f 38/79/158 39/81/159 30/70/160
f 31/26/161 37/78/162 10/27/163
f 30/70/164 39/81/165 31/71/166
f 40/21/167 19/50/168 4/51/169
f 7/10/170 40/21/171 4/51/172
f 20/77/173 19/50/174 40/21/175 38/20/176
f 6/80/177 34/4/178 11/2/179
f 21/24/180 12/23/181 14/1/182 8/49/183 22/86/184
