# This file uses centimeters as units for non-parametric coordinates.

v -63.682671 5.472917 40.941605
v -40.937668 5.472917 63.681686
v 63.677750 5.472917 40.941605
v 40.934715 5.472917 63.681686
v -63.682671 5.472917 -40.934715
v -40.937668 5.472917 -63.673813
v 63.677750 5.472917 -40.934715
v -33.152908 14.214044 51.569984
v -51.568016 14.214044 27.989315
v 33.155861 14.214044 51.569984
v 51.569000 14.214044 33.156845
v 51.569000 14.214044 -33.152908
v 33.155861 14.214044 -51.565063
v -33.152908 14.214044 -51.565063
v -51.568016 14.214044 -33.152908
v -21.358139 14.214044 33.219833
v -33.218849 14.214044 21.359123
v 21.355186 14.214044 33.219833
v 33.214912 14.214044 21.359123
v 33.214912 14.214044 -21.352234
v 21.355186 14.214044 -33.211960
v -21.358139 14.214044 -33.211960
v -33.218849 14.214044 -21.352234
v -18.923004 11.275723 29.434250
v -29.433266 11.275723 18.924973
v 18.920052 11.275723 29.434250
v 29.429329 11.275723 18.924973
v 29.429329 11.275723 -18.921036
v 18.920052 11.275723 -29.426376
v -18.923004 11.275723 -29.426376
v -29.433266 11.275723 -18.921036
v -36.888290 14.214044 -23.713547
v -23.715515 14.214044 -36.881401
v 23.712563 14.214044 -36.881401
v 36.885338 14.214044 -23.713547
v 36.885338 14.214044 23.717484
v 23.712563 14.214044 36.888290
v -23.715515 14.214044 36.888290
v -36.888290 14.214044 23.717484
v -47.897591 14.214044 -30.790604
v -30.794540 14.214044 -47.894638
v 30.793556 14.214044 -47.894638
v 47.898575 14.214044 -30.790604
v 47.898575 14.214044 30.797493
v 30.793556 14.214044 47.899559
v -30.794540 14.214044 47.899559
v -47.897591 14.214044 30.797493
v 36.885338 14.214044 -16.350067
v 33.214912 14.214044 4.158630
v 29.429329 11.275723 0.001968
v 40.991806 14.214044 -14.427742
v 40.991806 14.214044 14.434631
v 36.885338 14.214044 16.356956
v 0.000000 11.275724 -29.426376
v 0.000000 14.214044 -33.211960
v 16.352036 14.214044 -36.881401
v 14.828354 14.214044 -40.988846
v 40.934715 5.472917 -63.673813
v -14.831306 14.214044 -40.988846
v -16.354004 14.214044 -36.881401
v -29.433266 11.275723 0.001968
v -33.218849 14.214045 -1.420334
v -36.888290 14.214044 -16.350067
v -40.993774 14.214044 -14.427742
v -40.993774 14.214044 14.434631
v -36.888290 14.214044 16.356956
v 14.227936 14.214044 36.888290
v 12.812523 14.214044 33.219833
v 11.352821 11.275723 29.434250
v 12.901108 14.214044 40.993774
v 3.782631 11.275723 29.434250
v -12.907013 14.214044 40.993774
v -3.785583 11.275723 29.434250
v -14.230888 14.214044 36.888290
v -4.272812 14.214044 33.219833
v -11.355774 11.275723 29.434250
v -63.682671 -36.181213 40.941605
v -63.682671 -36.181213 -40.934715
v -40.937668 -36.181213 63.681686
v 40.934715 -36.181213 63.681686
v 63.677750 -36.181213 40.941605
v -40.937668 -36.181213 -63.673813
v 63.677750 -36.181213 -40.934715
v 40.934715 -36.181213 -63.673813
v 36.630405 14.214044 47.503876
v 45.531357 14.214044 39.194489
v 40.234879 14.214044 38.459225
v 17.160139 14.214044 -47.894638
v 8.483610 14.214044 -51.565063
v 25.556143 14.214044 -51.565063
v 12.750514 5.472917 -63.673813
v -48.769672 14.214044 35.956165
vt 0.132905 0.760175
vt 0.132905 0.760175
vt 0.132905 0.760175
vt 0.132905 0.760175
vt 0.132905 0.760175
vt 0.132905 0.760175
vt 0.132905 0.760175
vt 0.132905 0.760175
vt 0.132905 0.760175
vt 0.132905 0.760175
vt 0.132905 0.760175
vt 0.132905 0.760175
vt 0.132905 0.760175
vt 0.132905 0.760175
vt 0.132905 0.760175
vt 0.132905 0.760175
vt 0.132905 0.760175
vt 0.132905 0.760175
vt 0.132905 0.760175
vt 0.132905 0.760175
vt 0.132905 0.760175
vt 0.132905 0.760175
vt 0.132905 0.760175
vt 0.128716 0.682703
vt 0.128717 0.682703
vt 0.128717 0.682703
vt 0.128717 0.682703
vt 0.128717 0.682703
vt 0.128716 0.682703
vt 0.128717 0.682703
vt 0.128716 0.682703
vt 0.374732 0.033197
vt 0.374732 0.033197
vt 0.374732 0.033197
vt 0.374732 0.033197
vt 0.374732 0.033197
vt 0.374732 0.033197
vt 0.374732 0.033197
vt 0.374732 0.033197
vt 0.132905 0.760175
vt 0.132905 0.760175
vt 0.132905 0.760175
vt 0.132905 0.760175
vt 0.132905 0.760175
vt 0.132905 0.760175
vt 0.132905 0.760175
vt 0.132905 0.760175
vt 0.132905 0.760175
vt 0.132905 0.760175
vt 0.132905 0.760175
vt 0.132905 0.760175
vt 0.132905 0.760175
vt 0.132905 0.760175
vt 0.132905 0.760175
vt 0.132905 0.760175
vt 0.125000 0.675599
vt 0.125000 0.675599
vt 0.125000 0.675599
vt 0.125000 0.675599
vt 0.125000 0.675599
vt 0.125000 0.675599
vt 0.125000 0.675599
vt 0.125000 0.675599
vt 0.125000 0.675599
vt 0.125000 0.675599
vt 0.125000 0.675599
vt 0.125000 0.675599
vt 0.125000 0.675599
vt 0.125000 0.675599
vt 0.125000 0.675599
vt 0.125000 0.675599
vt 0.125000 0.675599
vt 0.132905 0.760175
vt 0.132905 0.760175
vt 0.374732 0.033197
vt 0.128717 0.682703
vt 0.125000 0.675599
vt 0.132905 0.760175
vt 0.132905 0.760175
vt 0.125000 0.675599
vt 0.132905 0.760175
vt 0.125000 0.675599
vt 0.132905 0.760175
vt 0.128717 0.682703
vt 0.374732 0.033197
vt 0.132905 0.760175
vt 0.125000 0.675599
vt 0.132905 0.760175
vt 0.125000 0.675599
vt 0.132905 0.760175
vt 0.132905 0.760175
vt 0.125000 0.675599
vt 0.132905 0.760175
vt 0.125000 0.675599
vt 0.132905 0.760175
vt 0.128716 0.682703
vt 0.374732 0.033197
vt 0.132905 0.760175
vt 0.125000 0.675599
vt 0.132905 0.760175
vt 0.125000 0.675599
vt 0.132905 0.760175
vt 0.125000 0.675599
vt 0.132905 0.760175
vt 0.125000 0.675599
vt 0.132905 0.760175
vt 0.125000 0.675599
vt 0.132905 0.760175
vt 0.132905 0.760175
vt 0.374732 0.033197
vt 0.128717 0.682703
vt 0.125000 0.675599
vt 0.132905 0.760175
vt 0.374732 0.033197
vt 0.128716 0.682703
vt 0.125000 0.675599
vt 0.132905 0.760175
vt 0.374732 0.033197
vt 0.128717 0.682703
vt 0.125000 0.675599
vt 0.132905 0.760175
vt 0.132905 0.760175
vt 0.374732 0.033197
vt 0.128717 0.682703
vt 0.171875 0.837679
vt 0.171875 0.837679
vt 0.171875 0.837681
vt 0.171875 0.837681
vt 0.171875 0.837679
vt 0.171875 0.837681
vt 0.171875 0.837679
vt 0.171875 0.837679
vt 0.171875 0.837681
vt 0.171875 0.837681
vt 0.171875 0.837679
vt 0.171875 0.837681
vt 0.171875 0.837679
vt 0.171875 0.837679
vt 0.171875 0.837681
vt 0.171875 0.837681
vt 0.132905 0.760175
vt 0.132905 0.760175
vt 0.132905 0.760175
vt 0.125000 0.675599
vt 0.132905 0.760175
vt 0.125000 0.675599
vt 0.132905 0.760175
vt 0.132905 0.760175
vt 0.171875 0.837679
vt 0.132905 0.760175
vt 0.132905 0.760175
vt 0.128717 0.682703
vt 0.128717 0.682703
vt 0.128717 0.682703
vt 0.128717 0.682703
vt 0.128717 0.682703
vt 0.128716 0.682703
vt 0.128717 0.682703
vt 0.128716 0.682703
vt 0.128717 0.682703
vt 0.128716 0.682703
vt 0.128716 0.682703
vt 0.128717 0.682703
vt 0.128717 0.682703
vn 0.000000 1.000000 0.000000
vn 0.000000 1.000000 0.000000
vn 0.000000 1.000000 0.000000
vn 0.000000 1.000000 -0.000000
vn 0.000000 1.000000 -0.000000
vn 0.000000 1.000000 -0.000000
vn 0.000000 1.000000 0.000000
vn 0.000000 1.000000 0.000000
vn 0.000000 1.000000 0.000000
vn 0.000000 1.000000 0.000000
vn 0.000000 1.000000 0.000000
vn 0.000000 1.000000 0.000000
vn 0.000000 1.000000 0.000000
vn 0.000000 1.000000 0.000000
vn 0.000000 1.000000 0.000000
vn 0.000000 1.000000 0.000000
vn 0.000000 1.000000 0.000000
vn 0.000000 1.000000 0.000000
vn -0.000000 1.000000 0.000000
vn -0.000000 1.000000 0.000000
vn -0.000000 1.000000 0.000000
vn 0.000000 1.000000 0.000000
vn 0.000000 1.000000 0.000000
vn 0.000000 1.000000 0.000000
vn 0.000000 1.000000 -0.000000
vn 0.000000 1.000000 -0.000000
vn 0.000000 1.000000 -0.000000
vn 0.000000 1.000000 0.000000
vn 0.000000 1.000000 0.000000
vn 0.000000 1.000000 0.000000
vn 0.000000 1.000000 0.000000
vn 0.000000 1.000000 0.000000
vn 0.000000 1.000000 0.000000
vn 0.000000 1.000000 0.000000
vn 0.000000 1.000000 0.000000
vn 0.000000 1.000000 0.000000
vn 0.000000 1.000000 0.000000
vn 0.000000 1.000000 0.000000
vn 0.000000 1.000000 0.000000
vn -0.458458 0.874005 0.161032
vn -0.458458 0.874005 0.161032
vn -0.458458 0.874005 0.161032
vn 0.407185 0.844473 0.347945
vn 0.407185 0.844473 0.347945
vn 0.407185 0.844473 0.347945
vn 0.373247 0.849317 -0.373292
vn 0.373247 0.849317 -0.373292
vn 0.373247 0.849317 -0.373292
vn 0.373247 0.849317 -0.373292
vn -0.373149 0.849388 -0.373230
vn -0.373149 0.849387 -0.373230
vn -0.373149 0.849387 -0.373230
vn -0.373149 0.849387 -0.373230
vn 0.000000 1.000000 -0.000000
vn 0.000000 1.000000 -0.000000
vn 0.000000 1.000000 -0.000000
vn 0.000000 1.000000 0.000000
vn 0.000000 1.000000 0.000000
vn 0.000000 1.000000 0.000000
vn 0.000000 1.000000 0.000000
vn 0.000000 1.000000 0.000000
vn 0.000000 1.000000 0.000000
vn 0.000000 1.000000 0.000000
vn 0.000000 1.000000 0.000000
vn 0.000000 1.000000 0.000000
vn 0.000000 1.000000 0.000000
vn 0.000000 1.000000 0.000000
vn 0.000000 1.000000 0.000000
vn 0.392786 0.831520 -0.392803
vn 0.392786 0.831520 -0.392803
vn 0.392786 0.831520 -0.392803
vn 0.392786 0.831520 -0.392803
vn 0.000000 0.789961 -0.613157
vn 0.000000 0.789961 -0.613157
vn 0.000000 0.789961 -0.613157
vn 0.000000 0.789961 -0.613157
vn -0.392803 0.831520 -0.392786
vn -0.392803 0.831520 -0.392786
vn -0.392803 0.831520 -0.392786
vn -0.392803 0.831520 -0.392786
vn -0.613157 0.789961 0.000000
vn -0.613157 0.789961 0.000000
vn -0.613157 0.789961 0.000000
vn -0.613157 0.789961 0.000000
vn -0.392824 0.831459 0.392894
vn -0.392824 0.831459 0.392894
vn -0.392824 0.831459 0.392894
vn -0.392824 0.831459 0.392894
vn 0.000000 0.789961 0.613157
vn 0.000000 0.789961 0.613157
vn 0.000000 0.789961 0.613157
vn 0.000000 0.789961 0.613157
vn 0.392807 0.831459 0.392911
vn 0.392807 0.831459 0.392911
vn 0.392807 0.831459 0.392911
vn 0.392807 0.831459 0.392911
vn 0.613157 0.789961 0.000000
vn 0.613157 0.789961 0.000000
vn 0.613157 0.789961 0.000000
vn 0.613157 0.789961 0.000000
vn 0.000000 1.000000 0.000000
vn 0.000000 1.000000 0.000000
vn 0.000000 1.000000 0.000000
vn 0.000000 1.000000 0.000000
vn 0.000000 1.000000 0.000000
vn 0.000000 1.000000 0.000000
vn 0.000000 1.000000 0.000000
vn 0.000000 1.000000 0.000000
vn 0.000000 1.000000 0.000000
vn 0.000000 1.000000 0.000000
vn 0.000000 1.000000 0.000000
vn 0.000000 1.000000 0.000000
vn 0.000000 1.000000 0.000000
vn 0.000000 1.000000 0.000000
vn 0.000000 1.000000 0.000000
vn 0.000000 1.000000 0.000000
vn 0.000000 1.000000 -0.000000
vn 0.000000 1.000000 -0.000000
vn 0.000000 1.000000 -0.000000
vn 0.000000 1.000000 -0.000000
vn 0.000000 1.000000 -0.000000
vn 0.000000 1.000000 -0.000000
vn 0.000000 1.000000 -0.000000
vn 0.000000 1.000000 -0.000000
vn 0.000000 1.000000 0.000000
vn 0.000000 1.000000 0.000000
vn 0.000000 1.000000 0.000000
vn 0.000000 1.000000 0.000000
vn -0.000000 1.000000 0.000000
vn -0.000000 1.000000 0.000000
vn -0.000000 1.000000 0.000000
vn -0.000000 1.000000 0.000000
vn 0.000000 1.000000 -0.000000
vn 0.000000 1.000000 -0.000000
vn 0.000000 1.000000 -0.000000
vn 0.000000 1.000000 -0.000000
vn 0.000000 1.000000 0.000000
vn 0.000000 1.000000 0.000000
vn 0.000000 1.000000 0.000000
vn 0.000000 1.000000 0.000000
vn 0.000000 1.000000 0.000000
vn 0.000000 1.000000 0.000000
vn 0.000000 1.000000 0.000000
vn 0.000000 1.000000 0.000000
vn 0.000000 1.000000 0.000000
vn 0.000000 1.000000 0.000000
vn 0.000000 1.000000 0.000000
vn 0.000000 1.000000 0.000000
vn 0.000000 1.000000 0.000000
vn 0.000000 1.000000 0.000000
vn 0.000000 1.000000 0.000000
vn 0.000000 1.000000 -0.000000
vn 0.000000 1.000000 -0.000000
vn 0.000000 1.000000 -0.000000
vn 0.000000 1.000000 0.000000
vn 0.000000 1.000000 0.000000
vn 0.000000 1.000000 0.000000
vn 0.000000 1.000000 0.000000
vn 0.000000 1.000000 0.000000
vn 0.000000 1.000000 0.000000
vn 0.000000 1.000000 0.000000
vn 0.000000 1.000000 0.000000
vn 0.000000 1.000000 0.000000
vn 0.000000 1.000000 0.000000
vn 0.000000 1.000000 0.000000
vn 0.000000 1.000000 0.000000
vn 0.000000 1.000000 0.000000
vn 0.000000 1.000000 0.000000
vn -0.613157 0.789961 0.000000
vn -0.613157 0.789961 0.000000
vn -0.613157 0.789961 0.000000
vn -0.613157 0.789961 0.000000
vn 0.585311 0.810809 0.000000
vn 0.585311 0.810809 0.000000
vn 0.585311 0.810809 0.000000
vn 0.000000 1.000000 0.000000
vn 0.000000 1.000000 0.000000
vn 0.000000 1.000000 0.000000
vn 0.000000 1.000000 -0.000000
vn 0.000000 1.000000 -0.000000
vn 0.000000 1.000000 -0.000000
vn 0.585311 0.810809 0.000000
vn 0.585311 0.810809 0.000000
vn 0.585311 0.810809 0.000000
vn 0.000000 1.000000 0.000000
vn 0.000000 1.000000 0.000000
vn 0.000000 1.000000 0.000000
vn 0.000000 1.000000 0.000000
vn 0.000000 1.000000 0.000000
vn 0.000000 1.000000 0.000000
vn 0.000000 1.000000 0.000000
vn 0.000000 1.000000 0.000000
vn 0.000000 1.000000 0.000000
vn 0.000000 1.000000 0.000000
vn 0.000000 1.000000 0.000000
vn 0.000000 1.000000 -0.000000
vn 0.000000 1.000000 -0.000000
vn 0.000000 1.000000 -0.000000
vn 0.000000 1.000000 0.000000
vn 0.000000 1.000000 0.000000
vn 0.000000 1.000000 0.000000
vn 0.000000 0.789961 0.613157
vn 0.000000 0.789961 0.613157
vn 0.000000 0.789961 0.613157
vn 0.000000 0.789961 0.613157
vn 0.000000 1.000000 -0.000000
vn 0.000000 1.000000 -0.000000
vn 0.000000 1.000000 -0.000000
vn 0.000000 1.000000 -0.000000
vn 0.000000 1.000000 -0.000000
vn 0.000000 1.000000 -0.000000
vn 0.000000 1.000000 -0.000000
vn 0.000000 1.000000 0.000000
vn 0.000000 1.000000 0.000000
vn 0.000000 1.000000 0.000000
vn 0.000000 1.000000 0.000000
vn 0.000000 1.000000 0.000000
vn 0.000000 1.000000 0.000000
vn 0.000000 1.000000 0.000000
vn 0.000000 1.000000 0.000000
vn 0.000000 1.000000 0.000000
vn 0.000000 1.000000 0.000000
vn 0.000000 1.000000 0.000000
vn 0.000000 1.000000 0.000000
vn 0.000000 1.000000 0.000000
vn 0.000000 1.000000 0.000000
vn 0.219547 0.826105 -0.518989
vn 0.219547 0.826105 -0.518989
vn 0.219547 0.826105 -0.518989
vn 0.000000 1.000000 0.000000
vn 0.000000 1.000000 0.000000
vn 0.000000 1.000000 0.000000
vn 0.000000 1.000000 -0.000000
vn 0.000000 1.000000 -0.000000
vn 0.000000 1.000000 -0.000000
vn 0.613157 0.789961 -0.000000
vn 0.613157 0.789961 -0.000000
vn 0.613157 0.789961 -0.000000
vn 0.613157 0.789961 -0.000000
vn -0.000000 1.000000 -0.000000
vn -0.000000 1.000000 -0.000000
vn -0.000000 1.000000 -0.000000
vn -0.000000 1.000000 -0.000000
vn 0.000000 1.000000 0.000000
vn 0.000000 1.000000 0.000000
vn 0.000000 1.000000 0.000000
vn -0.000000 1.000000 0.000000
vn -0.000000 1.000000 0.000000
vn -0.000000 1.000000 0.000000
vn 0.000000 1.000000 0.000000
vn 0.000000 1.000000 0.000000
vn 0.000000 1.000000 0.000000
vn -0.000000 1.000000 0.000000
vn -0.000000 1.000000 0.000000
vn -0.000000 1.000000 0.000000
vn 0.000000 1.000000 0.000000
vn 0.000000 1.000000 0.000000
vn 0.000000 1.000000 0.000000
vn 0.000000 1.000000 0.000000
vn -0.000000 1.000000 0.000000
vn -0.000000 1.000000 0.000000
vn -0.000000 1.000000 0.000000
vn 0.000000 1.000000 -0.000000
vn 0.000000 1.000000 -0.000000
vn 0.000000 1.000000 -0.000000
vn 0.000000 1.000000 0.000000
vn 0.000000 1.000000 0.000000
vn 0.000000 1.000000 0.000000
vn 0.000000 1.000000 -0.000000
vn 0.000000 1.000000 -0.000000
vn 0.000000 1.000000 -0.000000
vn 0.000000 1.000000 -0.000000
vn 0.000000 0.789961 -0.613157
vn 0.000000 0.789961 -0.613157
vn 0.000000 0.789961 -0.613157
vn 0.000000 0.789961 -0.613157
vn 0.000000 1.000000 0.000000
vn 0.000000 1.000000 0.000000
vn 0.000000 1.000000 0.000000
vn 0.000000 1.000000 0.000000
vn 0.000000 1.000000 0.000000
vn 0.000000 1.000000 0.000000
vn 0.000000 1.000000 0.000000
vn 0.000000 0.789961 -0.613157
vn 0.000000 0.789961 -0.613157
vn 0.000000 0.789961 -0.613157
vn 0.000000 0.789961 -0.613157
vn 0.000000 0.810877 0.585217
vn 0.000000 0.810877 0.585217
vn 0.000000 0.810877 0.585217
vn 0.000000 0.810877 0.585217
vn 0.000000 1.000000 0.000000
vn 0.000000 1.000000 0.000000
vn 0.000000 1.000000 0.000000
vn 0.000000 1.000000 0.000000
vn 0.000000 1.000000 0.000000
vn 0.000000 1.000000 0.000000
vn 0.000000 1.000000 0.000000
vn 0.000000 1.000000 0.000000
vn 0.000000 1.000000 -0.000000
vn 0.000000 1.000000 -0.000000
vn 0.000000 1.000000 -0.000000
vn 0.000000 0.789961 -0.613157
vn 0.000000 0.789961 -0.613157
vn 0.000000 0.789961 -0.613157
vn 0.000000 1.000000 0.000000
vn 0.000000 1.000000 0.000000
vn 0.000000 1.000000 0.000000
vn 0.000000 1.000000 0.000000
vn 0.000000 1.000000 0.000000
vn 0.000000 1.000000 0.000000
vn 0.000000 0.789961 -0.613157
vn 0.000000 0.789961 -0.613157
vn 0.000000 0.789961 -0.613157
vn -1.000000 0.000000 0.000000
vn -1.000000 0.000000 0.000000
vn -1.000000 0.000000 0.000000
vn -1.000000 0.000000 0.000000
vn -0.707030 0.000000 0.707183
vn -0.707030 0.000000 0.707183
vn -0.707030 0.000000 0.707183
vn -0.707030 0.000000 0.707183
vn 0.707061 0.000000 0.707153
vn 0.707061 0.000000 0.707153
vn 0.707061 0.000000 0.707153
vn 0.707061 0.000000 0.707153
vn -0.707015 0.000000 -0.707199
vn -0.707015 0.000000 -0.707199
vn -0.707015 0.000000 -0.707199
vn -0.707015 0.000000 -0.707199
vn 0.707046 0.000000 -0.707168
vn 0.707046 0.000000 -0.707168
vn 0.707046 0.000000 -0.707168
vn 0.707046 0.000000 -0.707168
vn 1.000000 0.000000 0.000000
vn 1.000000 0.000000 0.000000
vn 1.000000 0.000000 0.000000
vn 1.000000 0.000000 0.000000
vn 0.000000 0.000000 -1.000000
vn 0.000000 0.000000 -1.000000
vn 0.000000 0.000000 -1.000000
vn 0.000000 0.000000 -1.000000
vn 0.000000 0.000000 -1.000000
vn 0.000000 0.000000 1.000000
vn 0.000000 0.000000 1.000000
vn 0.000000 0.000000 1.000000
vn 0.000000 0.000000 1.000000
vn 0.000000 -1.000000 0.000000
vn 0.000000 -1.000000 0.000000
vn 0.000000 -1.000000 0.000000
vn 0.000000 -1.000000 0.000000
vn 0.000000 -1.000000 0.000000
vn 0.000000 -1.000000 0.000000
vn 0.000000 -1.000000 0.000000
vn 0.000000 -1.000000 0.000000
vn 0.373202 0.849360 0.373240
vn 0.373202 0.849360 0.373240
vn 0.373202 0.849360 0.373240
vn 0.373202 0.849360 0.373240
vn 0.000000 1.000000 0.000000
vn 0.000000 1.000000 0.000000
vn 0.000000 1.000000 0.000000
vn 0.000000 1.000000 0.000000
vn -0.045567 0.943494 0.328243
vn -0.045567 0.943494 0.328243
vn -0.045567 0.943494 0.328243
vn 0.611796 0.752503 0.243813
vn 0.611796 0.752503 0.243813
vn 0.611796 0.752503 0.243813
vn 0.000000 1.000000 0.000000
vn 0.000000 1.000000 0.000000
vn 0.000000 1.000000 0.000000
vn 0.000000 1.000000 0.000000
vn 0.000000 0.810809 -0.585311
vn 0.000000 0.810809 -0.585311
vn 0.000000 0.810809 -0.585311
vn 0.000000 0.810809 -0.585311
vn 0.000000 0.810809 -0.585311
vn 0.000000 0.810809 -0.585311
vn 0.000000 0.810809 -0.585311
vn 0.000000 0.810809 -0.585311
vn 0.000000 1.000000 -0.000000
vn 0.000000 1.000000 -0.000000
vn 0.000000 1.000000 -0.000000
vn 0.000000 1.000000 -0.000000
vn -0.189989 0.880359 -0.434595
vn -0.189989 0.880359 -0.434595
vn -0.189989 0.880359 -0.434595
vn 0.000000 1.000000 0.000000
vn 0.000000 1.000000 0.000000
vn 0.000000 1.000000 0.000000
vn 0.000000 1.000000 0.000000
vn -0.585123 0.810944 0.000000
vn -0.585123 0.810944 0.000000
vn -0.585123 0.810944 0.000000
vn -0.585123 0.810944 0.000000
vn -0.373122 0.849413 0.373198
vn -0.373122 0.849413 0.373198
vn -0.373122 0.849413 0.373198
vn -0.373122 0.849413 0.373198
vn 0.000000 1.000000 0.000000
vn 0.000000 1.000000 0.000000
vn 0.000000 1.000000 0.000000
vn 0.000000 1.000000 0.000000
s off
f 25/32/1 24/33/2 61/97/3
f 24/33/4 76/123/5 61/97/6
f 76/123/7 73/118/8 61/97/9
f 73/118/10 71/114/11 61/97/12
f 61/97/13 71/114/14 31/39/15
f 31/39/16 71/114/17 30/38/18
f 30/38/19 71/114/20 54/85/21
f 54/85/22 71/114/23 29/37/24
f 29/37/25 71/114/26 28/36/27
f 28/36/28 71/114/29 50/75/30
f 71/114/31 69/110/32 50/75/33
f 69/110/34 26/34/35 50/75/36
f 26/34/37 27/35/38 50/75/39
f 1/1/40 92/151/41 9/8/42
f 4/5/43 85/141/44 10/10/45
f 7/7/46 58/91/47 13/13/48 12/12/49
f 6/6/50 5/3/51 15/15/52 14/14/53
f 9/8/54 92/151/55 47/55/56
f 10/10/57 85/141/58 87/143/59 45/53/60
f 12/12/61 13/13/62 42/50/63 43/51/64
f 14/14/65 15/15/66 40/48/67 41/49/68
f 17/24/69 16/25/70 24/26/71 25/27/72
f 16/25/73 75/28/74 76/29/75 24/26/76
f 18/30/77 19/31/78 27/76/79 26/84/80
f 19/31/81 49/96/82 50/111/83 27/76/84
f 20/115/85 21/119/86 29/124/87 28/152/88
f 55/153/89 22/154/90 30/155/91 54/156/92
f 22/154/93 23/157/94 31/158/95 30/155/96
f 62/159/97 17/24/98 25/27/99 61/160/100
f 33/41/101 32/40/102 23/23/103 22/22/104
f 60/95/105 33/41/106 22/22/107 55/86/108
f 35/43/109 34/42/110 21/21/111 20/20/112
f 36/44/113 53/83/114 49/74/115 19/19/116
f 37/45/117 36/44/118 19/19/119 18/18/120
f 38/46/121 74/121/122 75/122/123 16/17/124
f 39/47/125 38/46/126 16/17/127 17/16/128
f 66/106/129 39/47/130 17/16/131 62/98/132
f 33/56/133 41/57/134 40/58/135 32/59/136
f 60/94/137 41/57/138 33/56/139
f 35/62/140 43/63/141 42/61/142 34/60/143
f 36/64/144 44/65/145 53/82/146
f 37/66/147 45/67/148 87/144/149 44/65/150 36/64/151
f 38/68/152 46/69/153 74/120/154
f 39/70/155 47/71/156 46/69/157 38/68/158
f 66/105/159 47/71/160 39/70/161
f 48/72/162 43/63/163 35/62/164
f 49/74/165 48/73/166 35/43/167 20/20/168
f 50/111/169 49/96/170 20/115/171 28/152/172
f 12/12/173 3/79/174 7/7/175
f 51/77/176 43/63/177 48/72/178
f 49/74/179 51/78/180 48/73/181
f 11/11/182 3/79/183 12/12/184
f 44/52/185 11/11/186 12/12/187 43/51/188
f 52/80/189 44/65/190 43/63/191 51/77/192
f 49/74/193 52/81/194 51/78/195
f 53/82/196 44/65/197 52/80/198
f 49/74/199 53/83/200 52/81/201
f 21/119/202 55/153/203 54/156/204 29/124/205
f 34/42/206 56/88/207 55/86/208 21/21/209
f 34/60/210 42/61/211 56/87/212
f 56/88/213 57/90/214 55/86/215
f 56/87/216 42/61/217 57/89/218
f 57/90/219 59/93/220 55/86/221
f 57/89/222 42/61/223 88/146/224 41/57/225 59/92/226
f 88/145/227 91/150/228 89/147/229
f 59/93/230 60/95/231 55/86/232
f 59/92/233 41/57/234 60/94/235
f 23/157/236 62/159/237 61/160/238 31/158/239
f 32/40/240 63/100/241 62/98/242 23/23/243
f 32/59/244 40/58/245 63/99/246
f 63/100/247 64/102/248 62/98/249
f 63/99/250 40/58/251 64/101/252
f 64/102/253 65/104/254 62/98/255
f 64/101/256 40/58/257 47/71/258 65/103/259
f 65/104/260 66/106/261 62/98/262
f 65/103/263 47/71/264 66/105/265
f 67/107/266 45/67/267 37/66/268
f 68/109/269 67/108/270 37/45/271 18/18/272
f 69/161/273 68/162/274 18/30/275 26/84/276
f 70/112/277 45/67/278 67/107/279
f 75/122/280 70/113/281 67/108/282 68/109/283
f 71/163/284 75/28/285 68/162/286 69/161/287
f 8/9/288 2/4/289 4/5/290 10/10/291
f 46/54/292 8/9/293 10/10/294 45/53/295
f 72/116/296 46/69/297 45/67/298 70/112/299
f 75/122/300 72/117/301 70/113/302
f 73/164/303 75/28/304 71/163/305
f 74/120/306 46/69/307 72/116/308
f 75/122/309 74/121/310 72/117/311
f 76/29/312 75/28/313 73/164/314
f 1/125/315 5/126/316 78/127/317 77/128/318
f 2/129/319 1/125/320 77/128/321 79/130/322
f 3/131/323 4/132/324 80/133/325 81/134/326
f 5/126/327 6/135/328 82/136/329 78/127/330
f 58/137/331 7/138/332 83/139/333 84/140/334
f 7/138/335 3/131/336 81/134/337 83/139/338
f 6/135/339 91/149/340 58/137/341 84/140/342 82/136/343
f 4/132/344 2/129/345 79/130/346 80/133/347
f 78/127/348 82/136/349 84/140/350 83/139/351 81/134/352 80/133/353 79/130/354 77/128/355
f 4/5/356 3/2/357 11/11/358 86/142/359
f 87/143/360 86/142/361 11/11/362 44/52/363
f 4/5/364 86/142/365 87/143/366
f 4/5/367 87/143/368 85/141/369
f 13/13/370 90/148/371 88/145/372 42/50/373
f 58/91/374 91/150/375 90/148/376 13/13/377
f 89/147/378 91/150/379 6/6/380 14/14/381
f 88/145/382 89/147/383 14/14/384 41/49/385
f 90/148/386 91/150/387 88/145/388
f 15/15/389 9/8/390 47/55/391 40/48/392
f 5/3/393 1/1/394 9/8/395 15/15/396
f 1/1/397 2/4/398 8/9/399 92/151/400
f 47/55/401 92/151/402 8/9/403 46/54/404
