# This file uses centimeters as units for non-parametric coordinates.

v 0.000017 219.431992 30.541306
v 500.000031 219.431992 30.541306
v 0.000017 219.431992 -30.541306
v 500.000031 219.431992 -30.541306
v 0.000017 0.000000 30.541306
v 500.000061 0.000000 30.541306
v 500.000031 -0.000015 -30.541306
v 0.000017 -0.000015 -30.541306
v 402.432098 3.081501 30.541306
v 100.000008 0.000000 30.541306
v 98.395500 9.153808 -30.541306
v 400.000000 -0.000015 -30.541306
v 187.512558 53.711990 30.541306
v 312.487549 53.711990 30.541306
v 312.487518 53.711990 -30.541306
v 187.512543 53.711990 -30.541306
v 0.000015 219.431992 -30.541306
v 0.000015 219.431992 30.541306
v 500.000061 41.729294 30.541302
v 500.000031 41.729279 -30.541309
v 500.000031 193.531998 -30.541306
v 500.000031 193.531998 30.541306
v 407.314331 41.729294 30.541306
v 407.314331 37.978241 -30.541306
v 302.914337 97.449875 30.541306
v 306.543671 193.531998 30.541306
v 306.543671 193.531998 -30.541306
v 306.543671 99.864395 -30.541306
v 0.000017 41.729279 -30.541309
v 0.000017 41.729294 30.541302
v 0.000017 193.531998 30.541306
v 0.000017 193.531998 -30.541306
v 92.685669 41.729294 30.541306
v 92.685654 41.729279 -30.541306
v 193.456390 193.531998 -30.541306
v 193.456390 99.864395 -30.541306
v 193.456406 99.864395 30.541306
v 192.397614 191.447983 30.541306
v 0.000017 58.229294 20.930035
v 88.267464 58.229294 20.930035
v 0.000017 177.031998 20.930035
v 176.956406 103.341728 20.930035
v 176.956390 177.031998 20.930035
v 0.000017 177.031998 -20.930038
v 88.267448 58.229279 -20.930038
v 0.000017 58.229279 -20.930038
v 176.956390 177.031998 -20.930038
v 176.956390 109.394348 -20.930038
v 411.732544 58.229294 20.930035
v 500.000061 58.229294 20.930035
v 500.000061 177.031998 20.930035
v 323.043701 109.394348 20.930035
v 323.043671 177.031998 20.930035
v 411.732544 58.229279 -20.930038
v 500.000061 177.031998 -20.930038
v 500.000061 58.229279 -20.930038
v 325.265533 175.934387 -20.930038
v 323.043671 109.394348 -20.930038
v 286.513000 53.711990 30.541306
v 195.078537 53.711990 30.541306
v 255.586304 53.711990 19.833084
v 218.591583 53.711990 19.944344
v 251.049316 66.821297 30.541306
v 325.754517 45.569195 -30.541306
v 385.882751 8.664644 -30.541306
v 348.796204 41.390095 -30.541306
v 337.911438 38.107704 -24.207371
v 130.622818 18.795158 -30.541304
v 99.999992 -0.000012 -18.870434
v 67.797707 -0.000015 -30.541306
v 303.127075 134.065720 -30.541306
v 196.872986 161.288605 -30.541306
v 101.428223 177.031998 -20.930038
v 80.482697 195.823578 -30.541306
v 2.003647 219.163742 -30.541306
v 349.411499 193.532013 30.541306
v 461.959167 193.531998 30.541306
v 380.335815 187.738724 27.166714
v 388.543671 201.193344 30.541306
vt 0.001866 0.817267
vt 0.043026 0.817267
vt 0.001866 0.872667
vt 0.193862 0.817267
vt 0.235023 0.872667
vt 0.235023 0.817267
vt 0.092077 0.880361
vt 0.144811 0.880361
vt 0.235023 0.892438
vt 0.001866 0.892438
vt 0.144811 0.880361
vt 0.092077 0.880361
vt 0.001866 0.892438
vt 0.235023 0.892438
vt 0.235023 0.872667
vt 0.152506 0.872667
vt 0.152506 0.841126
vt 0.193862 0.817267
vt 0.152506 0.841126
vt 0.152506 0.872667
vt 0.001866 0.872667
vt 0.084383 0.872667
vt 0.084383 0.841126
vt 0.043026 0.817267
vt 0.001866 0.892438
vt 0.001866 0.892438
vt 0.084383 0.838304
vt 0.084383 0.872667
vt 0.235023 0.790114
vt 0.188391 0.790114
vt 0.188391 0.790114
vt 0.235023 0.790114
vt 0.147583 0.815161
vt 0.147583 0.815161
vt 0.089306 0.815161
vt 0.089306 0.815161
vt 0.048497 0.790114
vt 0.047749 0.794383
vt 0.001866 0.790114
vt 0.001866 0.790114
vt 0.235023 0.809573
vt 0.235023 0.809573
vt 0.235023 0.880361
vt 0.235023 0.880361
vt 0.191802 0.809573
vt 0.191802 0.809573
vt 0.143119 0.835556
vt 0.144811 0.836682
vt 0.001866 0.809573
vt 0.001866 0.809573
vt 0.001866 0.880361
vt 0.001866 0.880361
vt 0.045086 0.809573
vt 0.045086 0.809573
vt 0.092077 0.836682
vt 0.092077 0.836682
vt 0.001866 0.817267
vt 0.235023 0.817267
vt 0.135471 0.815161
vt 0.092834 0.815161
vt 0.121049 0.815161
vt 0.103798 0.815161
vt 0.118934 0.821274
vt 0.153770 0.811364
vt 0.181752 0.794083
vt 0.164514 0.809415
vt 0.159439 0.807884
vt 0.062777 0.798879
vt 0.048497 0.790114
vt 0.033481 0.790114
vt 0.144811 0.852631
vt 0.092077 0.865325
vt 0.049163 0.872667
vt 0.039396 0.880361
vt 0.002800 0.892313
vt 0.164801 0.880361
vt 0.217284 0.880361
vt 0.179222 0.877659
vt 0.183049 0.883933
vn 0.000000 0.000000 1.000000
vn 0.000000 0.000000 1.000000
vn 0.000000 0.000000 1.000000
vn 0.000000 0.000000 -1.000000
vn 0.000000 0.000000 -1.000000
vn 0.000000 0.000000 -1.000000
vn 0.000000 0.000000 1.000000
vn 0.000000 0.000000 1.000000
vn 0.000000 0.000000 1.000000
vn 0.000000 0.000000 1.000000
vn -0.000000 0.000000 1.000000
vn -0.000000 0.000000 1.000000
vn -0.000000 0.000000 1.000000
vn 0.000000 0.000000 -1.000000
vn 0.000000 0.000000 -1.000000
vn 0.000000 0.000000 -1.000000
vn 0.000000 0.000000 -1.000000
vn 0.000000 0.000000 -1.000000
vn 0.000000 0.000000 -1.000000
vn 0.000000 0.000000 -1.000000
vn 0.000000 1.000000 0.000000
vn 0.000000 1.000000 0.000000
vn 0.000000 1.000000 0.000000
vn 0.000000 1.000000 0.000000
vn 0.000000 0.000000 1.000000
vn 0.000000 0.000000 1.000000
vn 0.000000 0.000000 1.000000
vn 0.000000 0.000000 1.000000
vn 0.000000 0.000000 -1.000000
vn 0.000000 0.000000 -1.000000
vn 0.000000 0.000000 -1.000000
vn 0.000000 0.000000 -1.000000
vn 0.000000 0.000000 -1.000000
vn 0.000000 0.000000 -1.000000
vn 0.000000 0.000000 -1.000000
vn 0.000000 0.000000 -1.000000
vn 0.000000 -1.000000 0.000000
vn 0.000000 -1.000000 0.000000
vn 0.000000 -1.000000 0.000000
vn 0.000000 -1.000000 0.000000
vn 0.000000 0.000000 1.000000
vn 0.000000 0.000000 1.000000
vn 0.000000 0.000000 1.000000
vn 0.000000 0.000000 1.000000
vn -0.015590 -0.999553 0.025523
vn -0.015590 -0.999553 0.025523
vn -0.015590 -0.999553 0.025523
vn -0.015590 -0.999553 0.025523
vn -0.494337 -0.867552 0.054636
vn -0.494337 -0.867552 0.054636
vn -0.494337 -0.867552 0.054636
vn -0.494337 -0.867552 0.054636
vn -0.523095 -0.852274 0.000000
vn -0.523095 -0.852274 0.000000
vn -0.523095 -0.852274 0.000000
vn -0.523095 -0.852274 0.000000
vn -0.523095 -0.852274 0.000000
vn -0.523095 -0.852274 0.000000
vn -0.523095 -0.852274 0.000000
vn 0.000000 -1.000000 -0.000000
vn 0.000000 -1.000000 -0.000000
vn 0.000000 -1.000000 -0.000000
vn 0.000000 -1.000000 -0.000000
vn 0.000000 -1.000000 -0.000000
vn 0.000000 -1.000000 -0.000000
vn 0.000000 -1.000000 -0.000000
vn 0.000000 -1.000000 -0.000000
vn 0.000000 -1.000000 0.000000
vn 0.000000 -1.000000 0.000000
vn 0.000000 -1.000000 0.000000
vn 0.000000 -1.000000 0.000000
vn 0.224812 -0.751458 -0.620298
vn 0.224812 -0.751458 -0.620298
vn 0.224812 -0.751458 -0.620298
vn 0.224811 -0.751458 -0.620299
vn 0.224811 -0.751458 -0.620299
vn 0.224811 -0.751458 -0.620299
vn 1.000000 0.000000 -0.000000
vn 1.000000 0.000000 -0.000000
vn 1.000000 0.000000 -0.000000
vn 1.000000 0.000000 -0.000000
vn 1.000000 0.000000 0.000000
vn 1.000000 0.000000 0.000000
vn 1.000000 0.000000 0.000000
vn 1.000000 0.000000 0.000000
vn 0.000000 0.000000 1.000000
vn 0.000000 0.000000 1.000000
vn 0.000000 0.000000 1.000000
vn 0.000000 0.000000 1.000000
vn -0.000000 0.000000 1.000000
vn -0.000000 0.000000 1.000000
vn -0.000000 0.000000 1.000000
vn -0.000000 0.000000 1.000000
vn -0.000000 0.000000 1.000000
vn -0.000000 0.000000 1.000000
vn -0.000000 0.000000 1.000000
vn 0.000000 -0.000000 -1.000000
vn 0.000000 -0.000000 -1.000000
vn 0.000000 -0.000000 -1.000000
vn 0.000000 -0.000000 -1.000000
vn 0.000000 0.000000 1.000000
vn 0.000000 0.000000 1.000000
vn 0.000000 0.000000 1.000000
vn 0.000000 0.000000 1.000000
vn 0.000000 0.000000 -1.000000
vn 0.000000 0.000000 -1.000000
vn 0.000000 0.000000 -1.000000
vn 0.000000 0.000000 -1.000000
vn 0.000000 0.000000 -1.000000
vn 0.000000 0.000000 -1.000000
vn 0.000000 0.000000 -1.000000
vn 0.000000 0.000000 -1.000000
vn 0.000000 0.000000 -1.000000
vn 0.000000 0.000000 -1.000000
vn -0.000000 0.000000 -1.000000
vn -0.000000 0.000000 -1.000000
vn -0.000000 0.000000 -1.000000
vn -0.000000 0.000000 -1.000000
vn -1.000000 0.000000 0.000000
vn -1.000000 0.000000 0.000000
vn -1.000000 0.000000 0.000000
vn -1.000000 0.000000 0.000000
vn -1.000000 0.000000 0.000000
vn -1.000000 0.000000 0.000000
vn -1.000000 0.000000 0.000000
vn -1.000000 0.000000 0.000000
vn -0.000000 0.000000 1.000000
vn -0.000000 0.000000 1.000000
vn -0.000000 0.000000 1.000000
vn -0.000000 0.000000 1.000000
vn 0.000000 0.000000 -1.000000
vn 0.000000 0.000000 -1.000000
vn 0.000000 0.000000 -1.000000
vn 0.000000 0.000000 1.000000
vn 0.000000 0.000000 1.000000
vn 0.000000 0.000000 1.000000
vn 0.000000 0.000000 1.000000
vn 0.000000 0.000000 1.000000
vn 0.000000 0.000000 1.000000
vn 0.000000 0.000000 1.000000
vn 0.000000 0.000000 1.000000
vn 0.000000 0.000000 1.000000
vn 0.000000 0.000000 1.000000
vn 0.000000 0.000000 1.000000
vn 0.000000 0.000000 1.000000
vn 0.000000 0.000000 1.000000
vn 0.000000 0.000000 1.000000
vn 0.000000 0.000000 1.000000
vn 0.000000 0.000000 1.000000
vn 0.000000 0.000000 1.000000
vn 0.000000 0.000000 1.000000
vn 0.000000 0.000000 1.000000
vn -0.000000 0.000000 1.000000
vn -0.000000 0.000000 1.000000
vn -0.000000 0.000000 1.000000
vn -0.000000 0.000000 1.000000
vn 0.000000 0.000000 -1.000000
vn 0.000000 0.000000 -1.000000
vn 0.000000 0.000000 -1.000000
vn 0.000000 0.000000 -1.000000
vn 0.000000 0.000000 -1.000000
vn 0.000000 0.000000 -1.000000
vn 0.000000 0.000000 -1.000000
vn 0.000000 0.000000 -1.000000
vn -0.000000 0.503334 0.864092
vn -0.000000 0.503334 0.864092
vn -0.000000 0.503334 0.864092
vn -0.000000 0.503334 0.864092
vn -0.273804 0.502432 0.820118
vn -0.273804 0.502432 0.820118
vn -0.273804 0.502432 0.820118
vn -0.273804 0.502432 0.820118
vn -0.514803 -0.003298 0.857302
vn -0.514803 -0.003298 0.857302
vn -0.514803 -0.003298 0.857302
vn -0.514803 -0.003298 0.857302
vn -0.002973 -0.526949 0.849891
vn -0.002973 -0.526949 0.849891
vn -0.002973 -0.526949 0.849891
vn -0.002973 -0.526949 0.849891
vn -0.005822 -0.478884 -0.877859
vn -0.005822 -0.478884 -0.877859
vn -0.005822 -0.478884 -0.877859
vn -0.005822 -0.478884 -0.877859
vn 0.000000 0.503334 -0.864092
vn 0.000000 0.503334 -0.864092
vn 0.000000 0.503334 -0.864092
vn 0.000000 0.503334 -0.864092
vn -0.465439 -0.049319 -0.883705
vn -0.465439 -0.049319 -0.883705
vn -0.465439 -0.049319 -0.883705
vn -0.251522 0.435985 -0.864092
vn -0.251522 0.435985 -0.864092
vn -0.251522 0.435985 -0.864092
vn -0.251522 0.435985 -0.864092
vn 0.000000 0.503334 0.864092
vn 0.000000 0.503334 0.864092
vn 0.000000 0.503334 0.864092
vn 0.000000 0.503334 0.864092
vn 0.000000 -0.503334 0.864092
vn 0.000000 -0.503334 0.864092
vn 0.000000 -0.503334 0.864092
vn 0.000000 -0.503334 0.864092
vn 0.000000 -0.503335 0.864092
vn 0.000000 -0.503335 0.864092
vn 0.000000 -0.503335 0.864092
vn -0.000000 -0.503335 0.864092
vn -0.000000 -0.503335 0.864092
vn -0.000000 -0.503335 0.864092
vn -0.000000 -0.503335 0.864092
vn 0.463658 -0.010278 0.885955
vn 0.463658 -0.010278 0.885955
vn 0.463658 -0.010278 0.885955
vn 0.463658 -0.010278 0.885955
vn 0.224352 0.405292 0.886231
vn 0.224352 0.405292 0.886231
vn 0.224352 0.405292 0.886231
vn 0.224352 0.405292 0.886231
vn -0.009626 0.464364 -0.885592
vn -0.009626 0.464364 -0.885592
vn -0.009626 0.464364 -0.885592
vn -0.009626 0.464364 -0.885592
vn 0.001462 -0.490478 -0.871452
vn 0.001462 -0.490478 -0.871452
vn 0.001462 -0.490478 -0.871452
vn 0.001462 -0.490478 -0.871452
vn 0.239836 0.401935 -0.883701
vn 0.239836 0.401935 -0.883701
vn 0.239836 0.401935 -0.883701
vn 0.239836 0.401935 -0.883701
vn 0.428448 -0.019172 -0.903363
vn 0.428448 -0.019172 -0.903363
vn 0.428448 -0.019172 -0.903363
vn 0.428448 -0.019172 -0.903363
vn -1.000000 -0.000000 0.000000
vn -1.000000 -0.000000 0.000000
vn -1.000000 -0.000000 0.000000
vn -1.000000 -0.000000 0.000000
vn 1.000000 0.000004 0.000000
vn 1.000000 0.000004 0.000000
vn 1.000000 0.000004 0.000000
vn 1.000000 0.000004 0.000000
vn 1.000000 0.000000 0.000000
vn 1.000000 0.000000 0.000000
vn 1.000000 0.000000 0.000000
vn 1.000000 0.000000 0.000000
vn 1.000000 -0.000002 -0.000000
vn 1.000000 -0.000002 -0.000000
vn 1.000000 -0.000002 -0.000000
vn 1.000000 -0.000002 -0.000000
vn -1.000000 0.000000 -0.000000
vn -1.000000 0.000000 -0.000000
vn -1.000000 0.000000 -0.000000
vn -1.000000 0.000000 -0.000000
vn -1.000000 0.000000 0.000000
vn -1.000000 0.000000 0.000000
vn -1.000000 0.000000 0.000000
vn -1.000000 0.000000 0.000000
vn 0.000000 0.000000 1.000000
vn 0.000000 0.000000 1.000000
vn 0.000000 0.000000 1.000000
vn 0.000000 0.000000 -1.000000
vn 0.000000 0.000000 -1.000000
vn 0.000000 0.000000 -1.000000
vn 0.002330 -0.632130 0.774859
vn 0.002330 -0.632130 0.774859
vn 0.002330 -0.632130 0.774859
vn -0.245001 -0.662785 0.707595
vn -0.245001 -0.662785 0.707595
vn -0.245001 -0.662785 0.707595
vn 0.203480 -0.868765 0.451490
vn 0.203480 -0.868765 0.451490
vn 0.203480 -0.868765 0.451490
vn -0.362718 -0.411055 -0.836343
vn -0.362718 -0.411055 -0.836343
vn -0.362718 -0.411055 -0.836343
vn -0.138228 -0.762130 -0.632496
vn -0.138228 -0.762130 -0.632496
vn -0.138228 -0.762130 -0.632496
vn 0.523095 -0.852274 -0.000000
vn 0.523095 -0.852274 -0.000000
vn 0.523095 -0.852274 -0.000000
vn 0.523095 -0.852274 -0.000000
vn 0.523094 -0.852275 0.000000
vn 0.523094 -0.852275 0.000000
vn 0.523094 -0.852275 0.000000
vn -0.000000 -1.000000 0.000000
vn -0.000000 -1.000000 0.000000
vn -0.000000 -1.000000 0.000000
vn -0.000000 -1.000000 0.000000
vn 0.000000 -1.000000 0.000000
vn 0.000000 -1.000000 0.000000
vn 0.000000 -1.000000 0.000000
vn 0.000000 -0.000000 -1.000000
vn 0.000000 -0.000000 -1.000000
vn 0.000000 -0.000000 -1.000000
vn 0.000000 -0.000000 -1.000000
vn 0.000000 0.000000 -1.000000
vn 0.000000 0.000000 -1.000000
vn 0.000000 0.000000 -1.000000
vn 0.000000 -0.000000 -1.000000
vn 0.000000 -0.000000 -1.000000
vn 0.000000 -0.000000 -1.000000
vn 0.000000 -0.000000 -1.000000
vn 0.000000 0.000000 -1.000000
vn 0.000000 0.000000 -1.000000
vn 0.000000 0.000000 -1.000000
vn 0.481848 0.048135 -0.874932
vn 0.481848 0.048135 -0.874932
vn 0.481848 0.048135 -0.874932
vn 0.000000 0.000000 -1.000000
vn 0.000000 0.000000 -1.000000
vn 0.000000 0.000000 -1.000000
vn 0.000000 0.000000 -1.000000
vn -0.460150 0.012181 -0.887758
vn -0.460150 0.012181 -0.887758
vn -0.460150 0.012181 -0.887758
vn -0.460150 0.012181 -0.887758
vn 0.000000 0.000000 -1.000000
vn 0.000000 0.000000 -1.000000
vn 0.000000 0.000000 -1.000000
vn 0.005991 -0.475573 -0.879656
vn 0.005991 -0.475573 -0.879656
vn 0.005991 -0.475573 -0.879656
vn 0.005991 -0.475573 -0.879656
vn 0.000000 0.000000 1.000000
vn 0.000000 0.000000 1.000000
vn 0.000000 0.000000 1.000000
vn 0.000000 0.000000 -1.000000
vn 0.000000 0.000000 -1.000000
vn 0.000000 0.000000 -1.000000
vn 0.000000 0.000000 -1.000000
vn 0.053554 -0.273543 0.960368
vn 0.053554 -0.273543 0.960368
vn 0.053554 -0.273543 0.960368
vn -0.023944 -0.229441 0.973028
vn -0.023944 -0.229441 0.973028
vn -0.023944 -0.229441 0.973028
s off
f 39/1/1 40/2/2 41/3/3
f 54/4/4 55/5/5 56/6/6
f 79/79/7 2/9/8 18/10/9 26/8/10
f 18/10/11 38/7/12 26/8/13
f 17/13/14 4/14/15 75/75/16
f 35/12/17 75/75/18 4/14/19 27/11/20
f 4/14/21 17/13/22 18/10/23 2/9/24
f 51/15/25 53/16/26 52/17/27 49/18/28
f 54/4/29 58/19/30 57/20/31 55/5/32
f 45/24/33 73/73/34 47/22/35 48/23/36
f 18/10/37 17/13/38 3/25/39 1/26/40
f 40/2/41 42/27/42 43/28/43 41/3/44
f 6/29/45 9/30/46 12/31/47 7/32/48
f 12/31/49 9/30/50 14/33/51 65/65/52
f 65/65/53 14/33/54 67/67/55
f 64/64/56 67/67/57 14/33/58 15/34/59
f 62/62/60 16/36/61 15/34/62 61/61/63
f 59/59/64 61/61/65 15/34/66 14/33/67
f 60/60/68 13/35/69 16/36/70 62/62/71
f 68/68/72 69/69/73 11/38/74
f 69/69/75 70/70/76 11/38/77
f 6/29/78 7/32/79 20/41/80 19/42/81
f 4/14/82 2/9/83 22/43/84 21/44/85
f 9/30/86 6/29/87 19/42/88 23/45/89
f 77/77/90 22/43/91 2/9/92 79/79/93
f 26/8/94 76/76/95 79/79/96
f 7/32/97 12/31/98 24/46/99 20/41/100
f 14/33/101 9/30/102 23/45/103 25/47/104
f 27/11/105 4/14/106 21/44/107
f 24/46/108 66/66/109 28/48/110
f 28/48/111 66/66/112 64/64/113 15/34/114
f 65/65/115 66/66/116 24/46/117 12/31/118
f 8/40/119 5/39/120 30/49/121 29/50/122
f 1/26/123 3/25/124 32/51/125 31/52/126
f 5/39/127 10/37/128 33/53/129 30/49/130
f 74/74/131 75/75/132 35/12/133
f 10/37/134 13/35/135 37/56/136 33/53/137
f 38/7/138 18/10/139 1/26/140 31/52/141
f 37/56/142 25/47/143 26/8/144 38/7/145
f 37/56/146 63/63/147 25/47/148
f 25/47/149 63/63/150 59/59/151 14/33/152
f 37/56/153 13/35/154 60/60/155 63/63/156
f 15/34/157 16/36/158 36/55/159 28/48/160
f 71/71/161 72/72/162 35/12/163 27/11/164
f 30/49/165 33/53/166 40/2/167 39/1/168
f 33/53/169 37/56/170 42/27/171 40/2/172
f 37/56/173 38/7/174 43/28/175 42/27/176
f 41/3/177 43/28/178 38/7/179 31/52/180
f 73/73/181 74/74/182 35/12/183 47/22/184
f 34/54/185 29/50/186 46/57/187 45/24/188
f 35/12/189 72/72/190 47/22/191
f 36/55/192 34/54/193 45/24/194 48/23/195
f 23/45/196 19/42/197 50/58/198 49/18/199
f 76/76/200 26/8/201 53/16/202 78/78/203
f 53/16/204 51/15/205 78/78/206
f 77/77/207 78/78/208 51/15/209 22/43/210
f 26/8/211 25/47/212 52/17/213 53/16/214
f 25/47/215 23/45/216 49/18/217 52/17/218
f 20/41/219 24/46/220 54/4/221 56/6/222
f 55/5/223 57/20/224 27/11/225 21/44/226
f 24/46/227 28/48/228 58/19/229 54/4/230
f 58/19/231 71/71/232 27/11/233 57/20/234
f 41/3/235 31/52/236 32/51/237 44/21/238
f 51/15/239 55/5/240 21/44/241 22/43/242
f 51/15/243 50/58/244 56/6/245 55/5/246
f 56/6/247 50/58/248 19/42/249 20/41/250
f 39/1/251 46/57/252 29/50/253 30/49/254
f 41/3/255 44/21/256 46/57/257 39/1/258
f 49/18/259 50/58/260 51/15/261
f 44/21/262 45/24/263 46/57/264
f 61/61/265 63/63/266 62/62/267
f 59/59/268 63/63/269 61/61/270
f 62/62/271 63/63/272 60/60/273
f 65/65/274 67/67/275 66/66/276
f 66/66/277 67/67/278 64/64/279
f 16/36/280 13/35/281 10/37/282 68/68/283
f 10/37/284 69/69/285 68/68/286
f 69/69/287 10/37/288 5/39/289 70/70/290
f 5/39/291 8/40/292 70/70/293
f 70/70/294 8/40/295 29/50/296 34/54/297
f 11/38/298 70/70/299 34/54/300
f 34/54/301 36/55/302 16/36/303 68/68/304
f 68/68/305 11/38/306 34/54/307
f 28/48/308 71/71/309 58/19/310
f 28/48/311 36/55/312 72/72/313 71/71/314
f 47/22/315 72/72/316 36/55/317 48/23/318
f 44/21/319 73/73/320 45/24/321
f 44/21/322 32/51/323 74/74/324 73/73/325
f 17/13/326 75/75/327 3/25/328
f 32/51/329 3/25/330 75/75/331 74/74/332
f 76/76/333 78/78/334 79/79/335
f 79/79/336 78/78/337 77/77/338
