# This file uses centimeters as units for non-parametric coordinates.

v 0.000000 -40.540745 35.592064
v 500.000000 -40.540745 35.592064
v 0.000000 40.540749 35.592064
v 500.000000 40.540749 35.592064
v 0.000000 40.540749 0.000000
v 500.000000 40.540749 0.000000
v 0.000000 -40.540745 0.000000
v 500.000000 -40.540745 0.000000
v 0.000000 -24.322014 35.592064
v 0.000000 -18.234558 30.467854
v 0.000000 18.234560 30.467854
v 0.000000 24.322012 35.592064
v 500.000000 24.322012 35.592064
v 500.000000 18.234560 30.467854
v 500.000000 -18.234558 30.467854
v 500.000000 -24.322014 35.592064
v 91.214043 -40.540745 35.592064
v 356.363220 40.540749 35.592064
v 335.299805 40.540749 0.000000
v 70.150635 -40.540745 0.000000
v 281.129944 15.595582 30.467854
v 303.325409 24.322012 35.592064
v 160.382294 -15.595580 30.467854
v 144.251831 -24.322014 35.592064
v 323.894684 -24.322014 35.592064
v 427.131042 -24.322014 35.592064
v 407.517151 -30.892092 35.592064
v 388.781647 -19.470547 32.235733
v 72.819016 24.322012 35.592064
v 20.549078 24.322012 35.592064
v 49.032505 30.893167 35.592064
v 49.321106 22.015118 34.039917
vt 0.002904 0.642655
vt 0.002904 0.639810
vt 0.236557 0.639810
vt 0.236557 0.622768
vt 0.236557 0.619923
vt 0.134278 0.638577
vt 0.077852 0.624001
vt 0.154262 0.619921
vt 0.202505 0.619923
vt 0.184584 0.622119
vt 0.036933 0.642662
vt 0.012507 0.642655
vt 0.025953 0.641658
vt 0.025817 0.645726
vt 0.193340 0.616853
vt 0.070314 0.619923
vt 0.144650 0.642655
vt 0.002904 0.619923
vt 0.002904 0.622768
vt 0.236557 0.642655
vt 0.131708 0.909560
vt 0.139140 0.893249
vt 0.139140 0.909560
vt 0.128918 0.907212
vt 0.112205 0.907212
vt 0.101982 0.893249
vt 0.109415 0.909560
vt 0.101982 0.909560
vt 0.139140 0.909560
vt 0.131708 0.893249
vt 0.139140 0.893249
vt 0.128918 0.895597
vt 0.112205 0.895597
vt 0.101982 0.909560
vt 0.109415 0.893249
vt 0.101982 0.893249
vt 0.235132 0.909560
vt 0.071817 0.909560
vt 0.081470 0.893249
vt 0.235132 0.893249
vt 0.005991 0.909560
vt 0.005991 0.893249
vt 0.235132 0.909560
vt 0.202983 0.909560
vt 0.193330 0.893249
vt 0.235132 0.893249
vt 0.005991 0.909560
vt 0.005991 0.893249
vt 0.235132 0.893048
vt 0.235132 0.909761
vt 0.161631 0.908552
vt 0.106295 0.894257
vt 0.005991 0.909761
vt 0.005991 0.893048
vt 0.235132 0.897688
vt 0.212661 0.902109
vt 0.071817 0.897688
vt 0.235132 0.905121
vt 0.225714 0.905121
vt 0.201760 0.905121
vt 0.096123 0.905121
vt 0.005991 0.905121
vt 0.005991 0.897688
vt 0.235132 0.905121
vt 0.193330 0.905121
vt 0.169024 0.897688
vt 0.235132 0.897688
vt 0.048374 0.900699
vt 0.086697 0.897688
vt 0.005991 0.905121
vt 0.005991 0.897688
vt 0.039385 0.897688
vt 0.005991 0.919983
vt 0.005991 0.882825
vt 0.202983 0.882825
vt 0.081470 0.919983
vt 0.235132 0.882825
vt 0.235132 0.919983
vn 0.000000 1.000000 0.000000
vn 0.000000 1.000000 0.000000
vn 0.000000 1.000000 0.000000
vn 0.000000 1.000000 0.000000
vn 0.000000 -1.000000 0.000000
vn 0.000000 -1.000000 0.000000
vn 0.000000 -1.000000 0.000000
vn 0.000000 -1.000000 0.000000
vn -0.006045 -0.643972 0.765025
vn -0.006045 -0.643972 0.765025
vn -0.006045 -0.643972 0.765025
vn -0.000000 0.000000 1.000000
vn -0.000000 0.000000 1.000000
vn -0.000000 0.000000 1.000000
vn -0.000000 0.000000 1.000000
vn -0.004960 0.572574 0.819838
vn -0.004960 0.572574 0.819838
vn -0.004960 0.572574 0.819838
vn -0.004960 0.572574 0.819838
vn 0.000000 0.000000 1.000000
vn 0.000000 0.000000 1.000000
vn 0.000000 0.000000 1.000000
vn 1.000000 0.000000 0.000000
vn 1.000000 0.000000 0.000000
vn 1.000000 0.000000 0.000000
vn -1.000000 0.000000 0.000000
vn -1.000000 0.000000 0.000000
vn -1.000000 0.000000 0.000000
vn 0.000000 0.000000 1.000000
vn 0.000000 0.000000 1.000000
vn 0.000000 0.000000 1.000000
vn 0.000000 0.000000 1.000000
vn 1.000000 0.000000 0.000000
vn 1.000000 0.000000 0.000000
vn 1.000000 0.000000 0.000000
vn -1.000000 0.000000 0.000000
vn -1.000000 0.000000 0.000000
vn -1.000000 0.000000 0.000000
vn 1.000000 -0.000007 0.000000
vn 1.000000 -0.000007 0.000000
vn 1.000000 -0.000007 0.000000
vn 1.000000 0.000000 0.000000
vn 1.000000 0.000000 0.000000
vn 1.000000 0.000000 0.000000
vn 1.000000 0.000000 0.000000
vn 1.000000 0.000000 0.000000
vn 1.000000 0.000000 0.000000
vn 1.000000 0.000000 0.000000
vn 0.000000 0.000000 -1.000000
vn 0.000000 0.000000 -1.000000
vn 0.000000 0.000000 -1.000000
vn 0.000000 0.000000 -1.000000
vn -1.000000 0.000000 0.000000
vn -1.000000 0.000000 0.000000
vn -1.000000 0.000000 0.000000
vn -1.000000 0.000000 0.000000
vn -1.000000 0.000000 0.000000
vn -1.000000 0.000000 0.000000
vn -1.000000 0.000000 0.000000
vn -1.000000 0.000000 0.000000
vn -1.000000 0.000000 0.000000
vn -1.000000 0.000000 0.000000
vn 0.000000 1.000000 0.000000
vn 0.000000 1.000000 0.000000
vn 0.000000 1.000000 0.000000
vn 0.000000 1.000000 0.000000
vn 0.000000 -1.000000 0.000000
vn 0.000000 -1.000000 0.000000
vn 0.000000 -1.000000 0.000000
vn 0.000000 -1.000000 0.000000
vn 0.003636 -0.572610 0.819820
vn 0.003636 -0.572610 0.819820
vn 0.003636 -0.572610 0.819820
vn 0.003636 -0.572610 0.819820
vn -0.000000 0.000000 1.000000
vn -0.000000 0.000000 1.000000
vn -0.000000 0.000000 1.000000
vn -0.000000 0.000000 1.000000
vn 0.003371 0.620053 0.784553
vn 0.003371 0.620053 0.784553
vn 0.003371 0.620053 0.784553
vn 0.003371 0.620053 0.784553
vn 0.000000 0.000000 1.000000
vn 0.000000 0.000000 1.000000
vn 0.000000 0.000000 1.000000
vn 0.000000 0.000000 1.000000
vn 0.000000 0.000000 1.000000
vn 0.000000 0.000000 1.000000
vn 0.000000 0.000000 1.000000
vn 0.000000 0.000000 1.000000
vn 0.000000 0.000000 -1.000000
vn 0.000000 0.000000 -1.000000
vn 0.000000 0.000000 -1.000000
vn 0.000000 0.000000 -1.000000
vn 0.025106 0.319538 0.947241
vn 0.025106 0.319538 0.947241
vn 0.025106 0.319538 0.947241
vn -0.062294 0.185968 0.980579
vn -0.062294 0.185968 0.980579
vn -0.062294 0.185968 0.980579
vn -0.000000 0.000000 1.000000
vn -0.000000 0.000000 1.000000
vn -0.000000 0.000000 1.000000
vn -0.000000 0.000000 1.000000
vn 0.000000 0.000000 1.000000
vn 0.000000 0.000000 1.000000
vn 0.000000 0.000000 1.000000
vn 0.001288 0.524203 0.851592
vn 0.001288 0.524203 0.851592
vn 0.001288 0.524203 0.851592
vn 0.001288 0.524203 0.851592
vn 0.005004 0.643976 0.765029
vn 0.005004 0.643976 0.765029
vn 0.005004 0.643976 0.765029
vn 0.039413 -0.170840 0.984510
vn 0.039413 -0.170840 0.984510
vn 0.039413 -0.170840 0.984510
vn -0.047939 -0.173532 0.983661
vn -0.047939 -0.173532 0.983661
vn -0.047939 -0.173532 0.983661
vn 0.000000 0.000000 1.000000
vn 0.000000 0.000000 1.000000
vn 0.000000 0.000000 1.000000
vn 0.000000 0.000000 1.000000
vn 0.000000 0.000000 1.000000
vn 0.000000 0.000000 1.000000
vn 0.000000 0.000000 1.000000
vn 0.000000 0.000000 1.000000
vn -0.000547 -0.516045 0.856561
vn -0.000547 -0.516045 0.856561
vn -0.000547 -0.516045 0.856561
vn -0.000547 -0.516045 0.856561
vn -0.005280 -0.633483 0.773739
vn -0.005280 -0.633483 0.773739
vn -0.005280 -0.633483 0.773739
vn -0.005280 -0.633483 0.773739
s off
f 3/37/1 18/38/2 19/39/3 5/40/4
f 7/43/5 20/44/6 17/45/7 1/46/8
f 32/13/9 11/2/10 21/6/11
f 11/49/12 10/50/13 23/51/14 21/52/15
f 10/19/16 9/18/17 24/16/18 23/7/19
f 3/55/20 31/56/21 18/57/22
f 13/21/23 6/22/24 4/23/25
f 5/29/26 12/30/27 3/31/28
f 1/64/29 17/65/30 24/66/31 9/67/32
f 2/28/33 8/26/34 16/27/35
f 7/34/36 1/36/37 9/35/38
f 15/25/39 16/27/40 8/26/41
f 13/21/42 14/24/43 6/22/44
f 14/24/45 15/25/46 8/26/47 6/22/48
f 6/73/49 8/74/50 20/75/51 19/76/52
f 9/35/53 10/33/54 7/34/55
f 10/33/56 11/32/57 5/29/58 7/34/59
f 11/32/60 12/30/61 5/29/62
f 19/39/63 18/38/64 4/41/65 6/42/66
f 17/45/67 20/44/68 8/47/69 2/48/70
f 22/17/71 21/6/72 14/3/73 13/20/74
f 21/52/75 23/51/76 15/53/77 14/54/78
f 15/4/79 28/10/80 26/9/81 16/5/82
f 18/57/83 22/61/84 13/62/85 4/63/86
f 24/66/87 17/65/88 27/68/89 25/69/90
f 19/76/91 20/75/92 7/77/93 5/78/94
f 27/15/95 28/10/96 25/8/97
f 26/9/98 28/10/99 27/15/100
f 27/68/101 2/70/102 16/71/103 26/72/104
f 27/68/105 17/65/106 2/70/107
f 23/7/108 24/16/109 25/8/110 28/10/111
f 23/7/112 28/10/113 15/4/114
f 30/12/115 32/13/116 31/14/117
f 31/14/118 32/13/119 29/11/120
f 12/58/121 30/59/122 31/56/123 3/55/124
f 18/57/125 31/56/126 29/60/127 22/61/128
f 32/13/129 21/6/130 22/17/131 29/11/132
f 12/1/133 11/2/134 32/13/135 30/12/136
