# This file uses centimeters as units for non-parametric coordinates.

v 0.000000 -40.540745 29.408363
v 500.000000 -40.540745 29.408363
v 0.000000 40.540749 29.408363
v 500.000000 40.540749 29.408363
v 0.000000 40.540749 0.000000
v 500.000000 40.540749 0.000000
v 0.000000 -40.540745 0.000000
v 500.000000 -40.540745 0.000000
v 0.000000 -27.449036 35.592064
v 0.000000 27.449034 35.592064
v 500.000000 27.449034 35.592064
v 500.000000 -27.449036 35.592064
v 370.317047 -40.540745 29.408363
v 187.698990 40.540749 25.899488
v 218.320267 23.523479 35.592064
v 345.161316 -23.523481 35.592064
vt 0.133141 0.909560
vt 0.139140 0.893249
vt 0.139140 0.906726
vt 0.107982 0.909560
vt 0.101982 0.893249
vt 0.101982 0.906726
vt 0.139140 0.909560
vt 0.133141 0.893249
vt 0.139140 0.896083
vt 0.101982 0.909560
vt 0.107982 0.893249
vt 0.101982 0.896083
vt 0.235132 0.908143
vt 0.149113 0.906535
vt 0.235132 0.894666
vt 0.005991 0.908143
vt 0.005991 0.894666
vt 0.235132 0.908143
vt 0.005991 0.908143
vt 0.065422 0.894666
vt 0.235132 0.894666
vt 0.005991 0.894666
vt 0.005991 0.888825
vt 0.135079 0.890624
vt 0.076950 0.912185
vt 0.005991 0.913984
vt 0.149113 0.882825
vt 0.005991 0.882825
vt 0.235132 0.888825
vt 0.235132 0.913984
vt 0.065422 0.919984
vt 0.005991 0.919984
vt 0.235132 0.882825
vt 0.235132 0.919984
vt 0.005991 0.882825
vt 0.235132 0.882825
vt 0.235132 0.919983
vt 0.005991 0.919983
vn 0.000000 1.000000 0.000000
vn 0.000000 1.000000 0.000000
vn 0.000000 1.000000 0.000000
vn 0.000000 -1.000000 0.000000
vn 0.000000 -1.000000 0.000000
vn 0.000000 -1.000000 0.000000
vn 0.000000 -1.000000 0.000000
vn 0.000000 0.000000 1.000000
vn 0.000000 0.000000 1.000000
vn 0.000000 0.000000 1.000000
vn 0.000000 0.000000 1.000000
vn 0.012202 0.476071 0.879322
vn 0.012202 0.476071 0.879322
vn 0.012202 0.476071 0.879322
vn 0.012202 0.476071 0.879322
vn 1.000000 -0.000004 0.000000
vn 1.000000 -0.000004 0.000000
vn 1.000000 -0.000004 0.000000
vn -1.000000 0.000000 0.000000
vn -1.000000 0.000000 0.000000
vn -1.000000 0.000000 0.000000
vn 0.002076 -0.378465 0.925613
vn 0.002076 -0.378465 0.925613
vn 0.002076 -0.378465 0.925613
vn 0.002076 -0.378465 0.925613
vn 1.000000 0.000004 0.000000
vn 1.000000 0.000004 0.000000
vn 1.000000 0.000004 0.000000
vn -1.000000 0.000000 0.000000
vn -1.000000 0.000000 0.000000
vn -1.000000 0.000000 0.000000
vn 1.000000 0.000000 0.000000
vn 1.000000 0.000000 0.000000
vn 1.000000 0.000000 0.000000
vn 1.000000 0.000000 0.000000
vn 0.000000 0.000000 -1.000000
vn 0.000000 0.000000 -1.000000
vn 0.000000 0.000000 -1.000000
vn 0.000000 0.000000 -1.000000
vn -1.000000 0.000000 0.000000
vn -1.000000 0.000000 0.000000
vn -1.000000 0.000000 0.000000
vn -1.000000 0.000000 0.000000
vn 0.000000 1.000000 0.000000
vn 0.000000 1.000000 0.000000
vn 0.000000 1.000000 0.000000
vn 0.000000 1.000000 0.000000
vn 0.000000 -1.000000 0.000000
vn 0.000000 -1.000000 0.000000
vn 0.000000 -1.000000 0.000000
vn 0.000000 0.000000 1.000000
vn 0.000000 0.000000 1.000000
vn 0.000000 0.000000 1.000000
vn 0.000000 0.000000 1.000000
vn -0.008284 0.459802 0.887983
vn -0.008284 0.459802 0.887983
vn -0.008284 0.459802 0.887983
vn -0.008284 0.459802 0.887983
vn -0.005294 -0.383727 0.923431
vn -0.005294 -0.383727 0.923431
vn -0.005294 -0.383727 0.923431
vn -0.005294 -0.383727 0.923431
s off
f 3/13/1 14/14/2 5/15/3
f 7/18/4 8/19/5 13/20/6 1/21/7
f 11/23/8 15/24/9 16/25/10 12/26/11
f 10/29/12 15/24/13 14/27/14 3/33/15
f 11/1/16 6/2/17 4/3/18
f 5/7/19 10/8/20 3/9/21
f 1/34/22 13/31/23 16/25/24 9/30/25
f 2/6/26 8/5/27 12/4/28
f 7/10/29 1/12/30 9/11/31
f 6/2/32 11/1/33 12/4/34 8/5/35
f 8/35/36 7/36/37 5/37/38 6/38/39
f 5/7/40 7/10/41 9/11/42 10/8/43
f 5/15/44 14/14/45 4/16/46 6/17/47
f 13/20/48 8/19/49 2/22/50
f 16/25/51 15/24/52 10/29/53 9/30/54
f 14/27/55 15/24/56 11/23/57 4/28/58
f 16/25/59 13/31/60 2/32/61 12/26/62
