# This file uses centimeters as units for non-parametric coordinates.

v -41.995857 0.000000 62.471207
v 41.995857 0.000000 62.471207
v -41.995857 500.000000 560.722534
v 41.995857 500.000000 560.722534
v -41.995857 500.000000 493.251465
v 41.995857 500.000000 493.251465
v -41.995857 0.000000 -5.000000
v 41.995857 0.000000 -5.000000
v -41.995857 465.000000 458.373840
v 41.995857 465.000000 458.373840
v 41.995857 465.000000 525.844910
v -41.995857 465.000000 525.844910
v -41.995857 31.500000 93.861046
v 41.995857 31.500008 93.861046
v 41.995857 31.500008 26.389847
v -41.995857 31.500008 26.389847
v -15.625690 456.557068 505.688721
v 15.625690 456.557068 505.688721
v -25.291771 456.557068 482.866669
v -25.291771 456.557068 449.960449
v 25.291771 456.557068 449.960449
v 25.291771 456.557068 482.866669
v 25.291771 38.042351 64.976212
v 25.291771 38.042351 32.909309
v -25.291771 38.042351 32.909309
v -15.625690 38.042351 87.149956
v 15.625690 38.042351 87.149940
v -25.291771 38.042351 64.976181
vt 0.008131 0.747752
vt 0.031512 0.747752
vt 0.031481 0.990356
vt 0.008138 0.990359
vt 0.032100 0.990358
vt 0.007542 0.990358
vt 0.032100 0.747752
vt 0.007542 0.747752
vt 0.007542 0.973376
vt 0.032100 0.973376
vt 0.031477 0.973376
vt 0.008081 0.973376
vt 0.008194 0.763036
vt 0.031530 0.763036
vt 0.032100 0.763036
vt 0.007542 0.763036
vt 0.011139 0.969279
vt 0.028466 0.969279
vt 0.007778 0.969279
vt 0.007542 0.969279
vt 0.032100 0.969279
vt 0.031827 0.969279
vt 0.031806 0.766210
vt 0.032100 0.766210
vt 0.007542 0.766210
vt 0.010772 0.766210
vt 0.028912 0.766210
vt 0.007878 0.766210
vn 0.000000 -0.707127 0.707087
vn 0.000000 -0.707127 0.707087
vn 0.000000 -0.707127 0.707087
vn 0.000000 -0.707127 0.707087
vn 0.000000 1.000000 0.000000
vn 0.000000 1.000000 0.000000
vn 0.000000 1.000000 0.000000
vn 0.000000 1.000000 0.000000
vn 0.000000 0.705866 -0.708346
vn 0.000000 0.705866 -0.708346
vn 0.000000 0.705866 -0.708346
vn 0.000000 0.705866 -0.708346
vn 0.000000 -1.000000 0.000000
vn 0.000000 -1.000000 0.000000
vn 0.000000 -1.000000 0.000000
vn 0.000000 -1.000000 0.000000
vn 0.451094 -0.892476 0.000000
vn 0.451094 -0.892476 0.000000
vn 0.451094 -0.892476 0.000000
vn 0.451094 -0.892476 0.000000
vn -1.000000 0.000000 0.000000
vn -1.000000 0.000000 0.000000
vn -1.000000 0.000000 0.000000
vn -1.000000 0.000000 0.000000
vn 0.854694 -0.366951 0.367214
vn 0.854694 -0.366951 0.367214
vn 0.854694 -0.366951 0.367214
vn 0.854694 -0.366951 0.367214
vn -0.233934 -0.967191 0.099079
vn -0.233934 -0.967191 0.099079
vn -0.233934 -0.967191 0.099079
vn 0.000000 0.716052 0.698047
vn 0.000000 0.716052 0.698047
vn 0.000000 0.716052 0.698047
vn 0.000000 0.716052 0.698047
vn 0.216975 0.971584 0.094585
vn 0.216975 0.971584 0.094585
vn 0.216975 0.971584 0.094585
vn -0.364688 0.931130 0.000000
vn -0.364688 0.931130 0.000000
vn -0.364688 0.931130 0.000000
vn -0.364688 0.931130 0.000000
vn 0.000000 0.705868 -0.708344
vn 0.000000 0.705868 -0.708344
vn 0.000000 0.705868 -0.708344
vn 0.000000 0.705868 -0.708344
vn 1.000000 0.000000 0.000000
vn 1.000000 0.000000 0.000000
vn 1.000000 0.000000 0.000000
vn 1.000000 0.000000 0.000000
vn 0.000000 -0.705868 0.708344
vn 0.000000 -0.705868 0.708344
vn 0.000000 -0.705868 0.708344
vn 0.000000 -0.705868 0.708344
vn -1.000000 0.000000 0.000000
vn -1.000000 0.000000 0.000000
vn -1.000000 0.000000 0.000000
vn -1.000000 0.000000 0.000000
vn 0.000000 -0.705867 0.708344
vn 0.000000 -0.705867 0.708344
vn 0.000000 -0.705867 0.708344
vn 0.000000 -0.705867 0.708344
vn 1.000000 0.000000 0.000000
vn 1.000000 0.000000 0.000000
vn 1.000000 0.000000 0.000000
vn 1.000000 0.000000 0.000000
vn 0.000000 0.705867 -0.708344
vn 0.000000 0.705867 -0.708344
vn 0.000000 0.705867 -0.708344
vn 0.000000 0.705867 -0.708344
vn -1.000000 0.000000 0.000000
vn -1.000000 0.000000 0.000000
vn -1.000000 0.000000 0.000000
vn -1.000000 0.000000 0.000000
vn 0.000000 -0.922352 0.386351
vn 0.000000 -0.922352 0.386351
vn 0.000000 -0.922352 0.386351
vn 0.000000 -0.922352 0.386351
vn 0.000000 0.705867 -0.708344
vn 0.000000 0.705867 -0.708344
vn 0.000000 0.705867 -0.708344
vn 0.000000 0.705867 -0.708344
vn 1.000000 -0.000000 0.000000
vn 1.000000 -0.000000 0.000000
vn 1.000000 -0.000000 0.000000
vn 1.000000 -0.000000 0.000000
vn -0.451094 -0.892476 0.000000
vn -0.451094 -0.892476 0.000000
vn -0.451094 -0.892476 0.000000
vn -0.451094 -0.892476 0.000000
vn 0.233934 -0.967191 0.099079
vn 0.233934 -0.967191 0.099079
vn 0.233934 -0.967191 0.099079
vn -0.854694 -0.366950 0.367213
vn -0.854694 -0.366950 0.367213
vn -0.854694 -0.366950 0.367213
vn -0.854694 -0.366950 0.367213
vn 0.364688 0.931130 0.000000
vn 0.364688 0.931130 0.000000
vn 0.364688 0.931130 0.000000
vn 0.364688 0.931130 0.000000
vn 0.000000 0.705867 -0.708344
vn 0.000000 0.705867 -0.708344
vn 0.000000 0.705867 -0.708344
vn 0.000000 0.705867 -0.708344
vn -0.216975 0.971584 0.094585
vn -0.216975 0.971584 0.094585
vn -0.216975 0.971584 0.094585
s off
f 18/18/1 17/17/2 26/26/3 27/27/4
f 3/4/5 4/3/6 6/5/7 5/6/8
f 9/9/9 10/10/10 21/21/11 20/20/12
f 7/8/13 8/7/14 2/2/15 1/1/16
f 10/10/17 11/11/18 22/22/19 21/21/20
f 19/19/21 20/20/22 25/25/23 28/28/24
f 23/23/25 22/22/26 18/18/27 27/27/28
f 12/12/29 19/19/30 17/17/31
f 13/13/32 14/14/33 27/27/34 26/26/35
f 14/14/36 23/23/37 27/27/38
f 16/16/39 13/13/40 28/28/41 25/25/42
f 5/6/43 6/5/44 10/10/45 9/9/46
f 4/3/47 11/11/48 10/10/49 6/5/50
f 12/12/51 11/11/52 4/3/53 3/4/54
f 9/9/55 12/12/56 3/4/57 5/6/58
f 1/1/59 2/2/60 14/14/61 13/13/62
f 15/15/63 14/14/64 2/2/65 8/7/66
f 16/16/67 15/15/68 8/7/69 7/8/70
f 7/8/71 1/1/72 13/13/73 16/16/74
f 17/17/75 18/18/76 11/11/77 12/12/78
f 25/25/79 20/20/80 21/21/81 24/24/82
f 24/24/83 21/21/84 22/22/85 23/23/86
f 20/20/87 19/19/88 12/12/89 9/9/90
f 18/18/91 22/22/92 11/11/93
f 17/17/94 19/19/95 28/28/96 26/26/97
f 24/24/98 23/23/99 14/14/100 15/15/101
f 25/25/102 24/24/103 15/15/104 16/16/105
f 26/26/106 28/28/107 13/13/108
