# This file uses centimeters as units for non-parametric coordinates.

v 20.399658 358.857422 -22.856445
v 1.922119 363.110413 -4.353516
v -8.327881 362.361816 -9.406250
v -18.650146 319.721558 -33.241699
v 12.172119 362.361816 -9.406250
v 1.922119 365.587830 -41.353516
v 1.922119 311.633667 -9.851563
v 10.149658 306.001984 -22.274414
v 18.380127 311.271698 -34.068359
v 18.380127 319.409943 -43.823730
v -6.306396 315.707397 -50.340820
v 1.922119 391.199890 -25.263672
v -16.557373 358.857422 -22.856445
v 1.922119 327.809418 -56.631348
v 2.154541 420.572327 -126.289551
v -20.368896 405.221619 -146.285156
v -7.832764 441.237000 -147.379883
v 24.676025 405.221619 -146.285156
v 12.138916 439.973816 -152.961914
v 3.131104 361.830505 -187.708984
v -10.806396 335.278534 -172.514648
v -24.743896 337.028595 -150.572266
v 12.182861 393.547729 -123.950684
v 10.142822 437.524414 -143.029785
v 2.154541 453.193176 -159.555176
v -10.806396 367.495483 -111.774414
v 17.068604 332.244476 -122.304199
v 31.007080 336.624054 -143.876953
v 20.552002 335.025665 -168.331055
v -31.713623 359.302185 -145.866211
v 2.154541 396.379089 -170.125000
v 3.131104 356.773621 -104.023438
v 23.361572 378.914978 -275.754395
v 13.845947 339.040863 -272.195313
v -10.044678 347.511108 -246.931641
v 11.457275 348.358215 -244.405273
v 19.068604 386.188965 -269.904297
v -7.614014 385.518311 -292.541016
v -21.989014 353.950928 -263.142578
v 21.013916 361.609070 -254.468750
v 21.013916 345.234558 -257.971680
v 21.013916 346.292908 -271.816406
v -17.211670 354.832764 -274.679688
v 1.902588 404.858887 -300.513672
v 1.902588 395.877869 -263.162109
v -19.558350 378.914978 -275.754395
v 1.902588 383.463745 -295.962891
v -15.266357 386.188965 -269.904297
v -7.655029 338.193878 -274.721680
v 1.902588 362.421326 -237.878906
v 1.902588 345.480591 -288.406738
v -15.065186 311.474304 -399.838867
v 22.848877 306.883392 -390.952637
v 1.767822 323.896393 -385.910156
v 1.767822 319.981415 -419.632813
v -0.109131 297.741974 -354.831055
v 13.461182 319.539032 -393.501953
v 1.767822 306.786346 -356.502930
v 25.235596 292.064728 -373.920410
v 15.848877 279.244171 -375.028809
v -9.967529 277.772034 -376.770508
v -21.700928 292.064728 -373.920410
v 1.767822 277.343048 -391.337891
vt 0.016661 0.301868
vt 0.016674 0.301877
vt 0.016662 0.301941
vt 0.016715 0.301939
vt 0.016705 0.301890
vt 0.016699 0.301860
vt 0.016732 0.301908
vt 0.016742 0.301859
vt 0.016711 0.301926
vt 0.016751 0.301935
vt 0.016762 0.301903
vt 0.016688 0.301944
vt 0.016671 0.301861
vt 0.016706 0.301807
vt 0.016926 0.301853
vt 0.016976 0.301718
vt 0.016947 0.301841
vt 0.017026 0.301765
vt 0.017027 0.301871
vt 0.017026 0.301678
vt 0.017050 0.301644
vt 0.017032 0.301666
vt 0.017011 0.301732
vt 0.017070 0.301765
vt 0.017105 0.301835
vt 0.017002 0.301868
vt 0.017075 0.301901
vt 0.017056 0.301877
vt 0.017033 0.301911
vt 0.016960 0.301890
vt 0.016967 0.301768
vt 0.017011 0.301674
vt 0.017250 0.301837
vt 0.017311 0.301762
vt 0.017333 0.301796
vt 0.017317 0.301872
vt 0.017347 0.301815
vt 0.017359 0.301868
vt 0.017382 0.301786
vt 0.017314 0.301853
vt 0.017326 0.301781
vt 0.017284 0.301856
vt 0.017274 0.301878
vt 0.017317 0.301874
vt 0.017333 0.301893
vt 0.017259 0.301859
vt 0.017278 0.301822
vt 0.017316 0.301769
vt 0.017340 0.301865
vt 0.017380 0.301789
vt 0.017396 0.301739
vt 0.017578 0.302005
vt 0.017534 0.301960
vt 0.017596 0.301925
vt 0.017630 0.301961
vt 0.017596 0.302012
vt 0.017661 0.301930
vt 0.017557 0.301999
vt 0.017590 0.301941
vt 0.017530 0.301979
vt 0.017553 0.301968
vt 0.017575 0.302022
vt 0.017603 0.301924
vn -0.434491 -0.095654 0.895582
vn -0.434491 -0.095654 0.895582
vn -0.434491 -0.095654 0.895582
vn -0.768021 -0.160627 0.619954
vn -0.768021 -0.160627 0.619954
vn -0.768021 -0.160627 0.619954
vn -0.837336 -0.097948 0.537843
vn -0.837336 -0.097948 0.537843
vn -0.837336 -0.097948 0.537843
vn 0.727652 0.292528 -0.620443
vn 0.727652 0.292528 -0.620443
vn 0.727652 0.292528 -0.620443
vn 0.356659 -0.610211 -0.707415
vn 0.356659 -0.610211 -0.707415
vn 0.356659 -0.610211 -0.707415
vn 0.073040 -0.928559 -0.363927
vn 0.073040 -0.928559 -0.363927
vn 0.073040 -0.928559 -0.363927
vn -0.404394 -0.911252 -0.078006
vn -0.404394 -0.911252 -0.078006
vn -0.404394 -0.911252 -0.078006
vn -0.457978 -0.883627 0.097263
vn -0.457978 -0.883627 0.097263
vn -0.457978 -0.883627 0.097263
vn 0.434491 -0.095654 0.895582
vn 0.434491 -0.095654 0.895582
vn 0.434491 -0.095654 0.895582
vn 0.786535 -0.164151 0.595330
vn 0.786535 -0.164151 0.595330
vn 0.786535 -0.164151 0.595330
vn 0.840908 -0.148965 0.520273
vn 0.840908 -0.148965 0.520273
vn 0.840908 -0.148965 0.520273
vn 0.822070 -0.163402 0.545437
vn 0.822070 -0.163402 0.545437
vn 0.822070 -0.163402 0.545437
vn 0.674162 0.276902 -0.684712
vn 0.674162 0.276902 -0.684712
vn 0.674162 0.276902 -0.684712
vn 0.106013 -0.763554 -0.636982
vn 0.106013 -0.763554 -0.636982
vn 0.106013 -0.763554 -0.636982
vn 0.998935 -0.035431 -0.029557
vn 0.998935 -0.035431 -0.029557
vn 0.998935 -0.035431 -0.029557
vn -0.783317 0.233053 -0.576282
vn -0.783317 0.233053 -0.576282
vn -0.783317 0.233053 -0.576282
vn -0.729051 0.236027 -0.642477
vn -0.729051 0.236027 -0.642476
vn -0.729051 0.236027 -0.642476
vn -0.771115 0.201506 -0.603968
vn -0.771114 0.201506 -0.603968
vn -0.771114 0.201506 -0.603968
vn -0.797450 0.482595 0.362182
vn -0.797450 0.482595 0.362182
vn -0.797450 0.482595 0.362182
vn -0.401993 0.546756 0.734479
vn -0.401993 0.546756 0.734479
vn -0.401993 0.546756 0.734479
vn 0.797501 0.482571 0.362102
vn 0.797501 0.482571 0.362102
vn 0.797501 0.482571 0.362102
vn 0.401993 0.546756 0.734479
vn 0.401993 0.546756 0.734479
vn 0.401993 0.546756 0.734479
vn 0.721310 0.368439 -0.586486
vn 0.721310 0.368439 -0.586486
vn 0.721310 0.368439 -0.586486
vn -0.721272 0.368459 -0.586519
vn -0.721272 0.368459 -0.586519
vn -0.721272 0.368459 -0.586519
vn -0.265327 0.314081 0.911567
vn -0.265327 0.314081 0.911567
vn -0.265327 0.314081 0.911567
vn -0.743185 0.339201 0.576732
vn -0.743185 0.339201 0.576732
vn -0.743185 0.339201 0.576732
vn -0.854668 0.215461 0.472354
vn -0.854668 0.215461 0.472354
vn -0.854668 0.215461 0.472354
vn -0.736308 0.275083 0.618208
vn -0.736307 0.275083 0.618208
vn -0.736308 0.275083 0.618208
vn 0.612179 0.069520 -0.787657
vn 0.612179 0.069520 -0.787657
vn 0.612179 0.069520 -0.787657
vn 0.695840 0.131361 -0.706082
vn 0.695840 0.131361 -0.706082
vn 0.695840 0.131361 -0.706082
vn 0.599732 0.376365 -0.706166
vn 0.599732 0.376365 -0.706166
vn 0.599732 0.376365 -0.706166
vn -0.017749 -0.997191 0.072769
vn -0.017749 -0.997191 0.072769
vn -0.017749 -0.997191 0.072769
vn -0.116957 -0.993125 0.004919
vn -0.116957 -0.993125 0.004919
vn -0.116957 -0.993125 0.004919
vn 0.116952 -0.985307 -0.124468
vn 0.116952 -0.985307 -0.124468
vn 0.116953 -0.985307 -0.124468
vn -0.460834 -0.683624 0.565942
vn -0.460834 -0.683624 0.565942
vn -0.460834 -0.683624 0.565942
vn 0.570171 0.278470 0.772890
vn 0.570171 0.278470 0.772890
vn 0.570171 0.278470 0.772890
vn 0.693651 0.313526 0.648498
vn 0.693651 0.313526 0.648498
vn 0.693651 0.313526 0.648498
vn 0.887918 0.372245 0.270249
vn 0.887918 0.372245 0.270249
vn 0.887918 0.372245 0.270249
vn -0.695808 0.131367 -0.706112
vn -0.695808 0.131367 -0.706112
vn -0.695808 0.131367 -0.706112
vn -0.686253 0.163077 -0.708847
vn -0.686253 0.163077 -0.708847
vn -0.686253 0.163077 -0.708847
vn -0.859329 0.286230 -0.423823
vn -0.859329 0.286230 -0.423823
vn -0.859329 0.286230 -0.423823
vn -0.671884 -0.445821 0.591452
vn -0.671884 -0.445821 0.591452
vn -0.671884 -0.445821 0.591452
vn -0.757368 -0.353053 0.549315
vn -0.757368 -0.353053 0.549315
vn -0.757368 -0.353053 0.549315
vn 0.842264 0.081439 0.532879
vn 0.842264 0.081439 0.532879
vn 0.842264 0.081439 0.532879
vn 0.851004 0.081756 0.518756
vn 0.851004 0.081756 0.518756
vn 0.851004 0.081756 0.518756
vn 0.827095 0.095778 0.553842
vn 0.827095 0.095778 0.553842
vn 0.827095 0.095778 0.553842
vn 0.818870 0.127642 -0.559606
vn 0.818870 0.127642 -0.559606
vn 0.818870 0.127642 -0.559606
vn 0.915519 0.070592 -0.396034
vn 0.915518 0.070592 -0.396034
vn 0.915518 0.070592 -0.396034
vn 0.107421 -0.535680 -0.837561
vn 0.107421 -0.535680 -0.837561
vn 0.107421 -0.535680 -0.837561
vn -0.839686 -0.152632 -0.521182
vn -0.839686 -0.152632 -0.521182
vn -0.839686 -0.152632 -0.521182
vn -0.769013 0.038531 -0.638071
vn -0.769013 0.038531 -0.638071
vn -0.769013 0.038531 -0.638071
vn -0.744803 0.285835 -0.602966
vn -0.744803 0.285835 -0.602966
vn -0.744803 0.285835 -0.602966
vn -0.024464 0.708249 0.705539
vn -0.024464 0.708249 0.705539
vn -0.024464 0.708249 0.705539
vn -0.018715 0.721005 0.692677
vn -0.018715 0.721005 0.692677
vn -0.018715 0.721005 0.692677
vn 0.682537 0.665822 0.301372
vn 0.682536 0.665822 0.301372
vn 0.682537 0.665822 0.301372
vn 0.764846 0.285932 0.577281
vn 0.764846 0.285932 0.577281
vn 0.764846 0.285932 0.577281
vn -0.547067 0.504688 0.667838
vn -0.547067 0.504688 0.667838
vn -0.547067 0.504688 0.667838
vn -0.903807 0.259797 0.340057
vn -0.903807 0.259797 0.340057
vn -0.903807 0.259797 0.340057
vn 0.651907 -0.147952 -0.743725
vn 0.651907 -0.147952 -0.743725
vn 0.651907 -0.147952 -0.743725
vn 0.663663 -0.136543 -0.735464
vn 0.663663 -0.136543 -0.735464
vn 0.663663 -0.136543 -0.735464
vn 0.064018 -0.926372 0.371128
vn 0.064018 -0.926372 0.371128
vn 0.064018 -0.926372 0.371128
vn -0.000002 -0.948130 0.317883
vn -0.000002 -0.948130 0.317883
vn -0.000002 -0.948130 0.317883
vn 0.011089 -0.972706 0.231775
vn 0.011089 -0.972706 0.231775
vn 0.011089 -0.972706 0.231775
vn -0.085076 -0.466408 0.880469
vn -0.085076 -0.466408 0.880469
vn -0.085076 -0.466408 0.880469
vn 0.583329 0.489704 0.648011
vn 0.583329 0.489704 0.648011
vn 0.583329 0.489704 0.648011
vn 0.905634 0.274600 0.323144
vn 0.905634 0.274600 0.323144
vn 0.905634 0.274600 0.323144
vn 0.541321 0.477462 0.692099
vn 0.541321 0.477462 0.692099
vn 0.541321 0.477462 0.692099
vn -0.915761 -0.106522 -0.387344
vn -0.915761 -0.106522 -0.387344
vn -0.915761 -0.106522 -0.387344
vn -0.790599 -0.103969 -0.603443
vn -0.790599 -0.103969 -0.603443
vn -0.790599 -0.103969 -0.603443
vn -0.639048 -0.227758 -0.734673
vn -0.639048 -0.227758 -0.734673
vn -0.639048 -0.227758 -0.734673
vn -0.367198 -0.181481 -0.912266
vn -0.367198 -0.181481 -0.912266
vn -0.367198 -0.181481 -0.912266
vn -0.652868 -0.733326 0.189725
vn -0.652868 -0.733327 0.189725
vn -0.652868 -0.733327 0.189725
vn -0.744538 0.212306 0.632922
vn -0.744538 0.212306 0.632922
vn -0.744538 0.212306 0.632922
vn -0.742470 0.282251 0.607513
vn -0.742470 0.282251 0.607513
vn -0.742470 0.282251 0.607513
vn 0.797046 -0.126335 0.590556
vn 0.797047 -0.126335 0.590556
vn 0.797047 -0.126335 0.590556
vn 0.654789 0.097020 0.749559
vn 0.654789 0.097020 0.749559
vn 0.654789 0.097020 0.749559
vn 0.995416 -0.020007 0.093521
vn 0.995416 -0.020007 0.093521
vn 0.995416 -0.020007 0.093521
vn 0.568870 -0.529391 -0.629390
vn 0.568870 -0.529391 -0.629390
vn 0.568870 -0.529391 -0.629390
vn 0.997357 -0.072444 -0.005538
vn 0.997357 -0.072444 -0.005538
vn 0.997357 -0.072444 -0.005538
vn 0.711595 -0.700546 -0.053551
vn 0.711595 -0.700546 -0.053551
vn 0.711595 -0.700546 -0.053551
vn 0.085076 -0.902903 -0.421342
vn 0.085076 -0.902903 -0.421342
vn 0.085076 -0.902903 -0.421342
vn -0.654737 -0.374395 -0.656618
vn -0.654737 -0.374395 -0.656618
vn -0.654737 -0.374395 -0.656618
vn -0.806289 -0.462162 -0.369195
vn -0.806289 -0.462162 -0.369195
vn -0.806289 -0.462162 -0.369195
vn -0.814842 0.569172 -0.109888
vn -0.814842 0.569172 -0.109888
vn -0.814843 0.569172 -0.109888
vn -0.539350 0.818747 0.196864
vn -0.539350 0.818747 0.196864
vn -0.539350 0.818747 0.196864
vn 0.539415 0.818706 0.196854
vn 0.539415 0.818706 0.196854
vn 0.539415 0.818706 0.196854
vn 0.814837 0.569199 -0.109792
vn 0.814837 0.569199 -0.109792
vn 0.814837 0.569199 -0.109792
vn 0.659364 -0.156415 -0.735373
vn 0.659364 -0.156415 -0.735373
vn 0.659364 -0.156415 -0.735373
vn -0.833776 0.197775 -0.515463
vn -0.833776 0.197775 -0.515463
vn -0.833776 0.197775 -0.515463
vn -0.368675 -0.193392 -0.909219
vn -0.368675 -0.193392 -0.909219
vn -0.368675 -0.193392 -0.909219
vn -0.675226 0.637549 0.370947
vn -0.675226 0.637549 0.370947
vn -0.675226 0.637549 0.370947
vn -0.713034 0.636473 0.294083
vn -0.713034 0.636473 0.294083
vn -0.713034 0.636473 0.294083
vn 0.720739 -0.383295 -0.577598
vn 0.720739 -0.383295 -0.577598
vn 0.720739 -0.383296 -0.577598
vn 0.561107 -0.515311 -0.647775
vn 0.561107 -0.515311 -0.647775
vn 0.561107 -0.515311 -0.647775
vn 0.483834 -0.420595 0.767466
vn 0.483834 -0.420595 0.767466
vn 0.483834 -0.420595 0.767466
vn 0.051996 -0.996104 0.071222
vn 0.051996 -0.996104 0.071222
vn 0.051996 -0.996104 0.071222
vn -0.003340 -0.738769 0.673950
vn -0.003340 -0.738769 0.673950
vn -0.003340 -0.738769 0.673950
vn -0.478100 -0.531869 0.698954
vn -0.478100 -0.531868 0.698954
vn -0.478100 -0.531869 0.698954
vn 0.544155 0.725171 0.421928
vn 0.544155 0.725171 0.421928
vn 0.544155 0.725171 0.421928
vn -0.703120 -0.470986 -0.532723
vn -0.703120 -0.470986 -0.532723
vn -0.703120 -0.470986 -0.532723
vn -0.691528 -0.476310 -0.543063
vn -0.691528 -0.476310 -0.543063
vn -0.691528 -0.476310 -0.543063
vn -0.573653 -0.452906 -0.682495
vn -0.573653 -0.452906 -0.682495
vn -0.573653 -0.452906 -0.682495
vn -0.676753 0.267251 0.685990
vn -0.676753 0.267251 0.685990
vn -0.676753 0.267251 0.685990
vn 0.604587 0.021719 0.796243
vn 0.604587 0.021719 0.796243
vn 0.604587 0.021719 0.796243
vn 0.685319 0.593989 0.421326
vn 0.685319 0.593989 0.421326
vn 0.685319 0.593989 0.421326
vn 0.686185 0.593671 0.420364
vn 0.686185 0.593671 0.420364
vn 0.686185 0.593671 0.420364
vn 0.712314 -0.477019 -0.514842
vn 0.712314 -0.477019 -0.514842
vn 0.712314 -0.477019 -0.514842
vn -0.537627 0.837558 -0.097236
vn -0.537627 0.837558 -0.097236
vn -0.537627 0.837558 -0.097236
vn 0.283192 0.952665 -0.110598
vn 0.283192 0.952665 -0.110598
vn 0.283192 0.952665 -0.110598
vn 0.786158 0.514043 -0.343097
vn 0.786158 0.514043 -0.343097
vn 0.786158 0.514043 -0.343097
s off
f 2/1/1 3/2/2 7/3/3
f 4/4/4 7/3/5 3/2/6
f 4/4/7 3/2/8 13/5/9
f 1/6/10 10/7/11 6/8/12
f 9/9/13 11/10/14 14/11/15
f 9/9/16 8/12/17 11/10/18
f 4/4/19 11/10/20 8/12/21
f 4/4/22 8/12/23 7/3/24
f 7/3/25 5/13/26 2/1/27
f 7/3/28 8/12/29 5/13/30
f 5/13/31 8/12/32 9/9/33
f 5/13/34 9/9/35 1/6/36
f 10/7/37 14/11/38 6/8/39
f 14/11/40 10/7/41 9/9/42
f 1/6/43 9/9/44 10/7/45
f 6/8/46 14/11/47 11/10/48
f 6/8/49 11/10/50 13/5/51
f 13/5/52 11/10/53 4/4/54
f 13/5/55 3/2/56 12/14/57
f 2/1/58 12/14/59 3/2/60
f 12/14/61 5/13/62 1/6/63
f 12/14/64 2/1/65 5/13/66
f 1/6/67 6/8/68 12/14/69
f 13/5/70 12/14/71 6/8/72
f 32/15/73 15/16/74 26/17/75
f 15/16/76 16/18/77 26/17/78
f 30/19/79 26/17/80 16/18/81
f 15/16/82 17/20/83 16/18/84
f 25/21/85 19/22/86 18/23/87
f 25/21/88 18/23/89 31/24/90
f 18/23/91 20/25/92 31/24/93
f 28/26/94 21/27/95 29/28/96
f 22/29/97 21/27/98 27/30/99
f 28/26/100 27/30/101 21/27/102
f 22/29/103 27/30/104 32/15/105
f 32/15/106 23/31/107 15/16/108
f 15/16/109 23/31/110 24/32/111
f 19/22/112 24/32/113 18/23/114
f 25/21/115 31/24/116 16/18/117
f 30/19/118 16/18/119 31/24/120
f 25/21/121 16/18/122 17/20/123
f 32/15/124 26/17/125 22/29/126
f 26/17/127 30/19/128 22/29/129
f 32/15/130 27/30/131 23/31/132
f 23/31/133 27/30/134 18/23/135
f 18/23/136 27/30/137 28/26/138
f 18/23/139 29/28/140 20/25/141
f 18/23/142 28/26/143 29/28/144
f 29/28/145 21/27/146 20/25/147
f 22/29/148 30/19/149 21/27/150
f 30/19/151 20/25/152 21/27/153
f 20/25/154 30/19/155 31/24/156
f 15/16/157 24/32/158 17/20/159
f 25/21/160 17/20/161 24/32/162
f 25/21/163 24/32/164 19/22/165
f 18/23/166 24/32/167 23/31/168
f 50/33/169 45/34/170 48/35/171
f 39/36/172 48/35/173 46/37/174
f 51/38/175 47/39/176 42/40/177
f 33/41/178 42/40/179 47/39/180
f 41/42/181 35/43/182 34/44/183
f 34/44/184 35/43/185 49/45/186
f 41/42/187 36/46/188 35/43/189
f 50/33/190 35/43/191 36/46/192
f 50/33/193 40/47/194 45/34/195
f 33/41/196 37/48/197 40/47/198
f 37/48/199 45/34/200 40/47/201
f 39/36/202 46/37/203 43/49/204
f 38/50/205 43/49/206 46/37/207
f 51/38/208 43/49/209 38/50/210
f 51/38/211 38/50/212 47/39/213
f 35/43/214 39/36/215 49/45/216
f 50/33/217 39/36/218 35/43/219
f 48/35/220 39/36/221 50/33/222
f 41/42/223 40/47/224 36/46/225
f 40/47/226 50/33/227 36/46/228
f 33/41/229 40/47/230 41/42/231
f 34/44/232 51/38/233 42/40/234
f 33/41/235 41/42/236 42/40/237
f 34/44/238 42/40/239 41/42/240
f 34/44/241 49/45/242 51/38/243
f 43/49/244 51/38/245 49/45/246
f 39/36/247 43/49/248 49/45/249
f 48/35/250 44/51/251 46/37/252
f 48/35/253 45/34/254 44/51/255
f 45/34/256 37/48/257 44/51/258
f 33/41/259 44/51/260 37/48/261
f 33/41/262 47/39/263 44/51/264
f 46/37/265 44/51/266 38/50/267
f 47/39/268 38/50/269 44/51/270
f 62/52/271 58/53/272 54/54/273
f 62/52/274 54/54/275 52/55/276
f 63/56/277 55/57/278 60/58/279
f 53/59/280 60/58/281 55/57/282
f 56/60/283 60/58/284 59/61/285
f 63/56/286 60/58/287 61/62/288
f 61/62/289 60/58/290 56/60/291
f 61/62/292 56/60/293 62/52/294
f 58/53/295 57/63/296 54/54/297
f 52/55/298 61/62/299 62/52/300
f 63/56/301 61/62/302 52/55/303
f 63/56/304 52/55/305 55/57/306
f 56/60/307 58/53/308 62/52/309
f 56/60/310 59/61/311 58/53/312
f 58/53/313 59/61/314 57/63/315
f 57/63/316 59/61/317 53/59/318
f 53/59/319 59/61/320 60/58/321
f 52/55/322 54/54/323 55/57/324
f 54/54/325 57/63/326 55/57/327
f 55/57/328 57/63/329 53/59/330
