# This file uses centimeters as units for non-parametric coordinates.

v 0.000000 404.956207 149.645569
v 500.000000 404.956207 149.645569
v 0.000000 499.999969 -14.239220
v 500.000000 499.999969 -14.239220
v 0.000000 186.821335 27.509682
v 500.000000 186.821335 27.509682
v 500.000000 218.232727 45.097221
v 389.445313 218.232727 45.097221
v 500.000000 373.544769 132.058014
v 286.000000 304.671783 93.495338
v 286.000000 373.544769 132.058014
v 214.000000 304.671783 93.495338
v 110.554688 218.232727 45.097221
v 214.000000 373.544769 132.058014
v 0.000000 218.232727 45.097221
v 0.000000 373.544769 132.058014
v 195.800049 315.750793 89.613060
v 103.245605 238.412155 46.310417
v 195.800049 361.963715 115.488136
v 0.000000 238.412155 46.310417
v 0.000000 361.963715 115.488136
v 500.000000 238.412155 46.310417
v 395.309998 243.268188 49.029354
v 500.000000 361.963715 115.488136
v 304.199951 315.750793 89.613060
v 304.199951 361.963715 115.488136
v 0.000000 169.006271 0.866100
v 500.000000 169.006271 0.866100
v 500.000000 169.006287 -14.239208
v 0.000000 169.006287 -14.239208
v 500.000000 499.999969 139.201599
v 0.000000 499.999969 139.201599
v 500.000000 499.999969 -14.239204
v 0.000000 499.999969 -14.239204
v 500.000000 435.243927 149.645569
v 0.000000 435.243927 149.645569
v 500.000000 451.246552 139.201599
v 0.000000 451.246552 139.201599
v 453.008545 153.254074 8.260490
v 406.966309 117.037933 25.261013
v 445.935303 143.335754 23.580982
v 421.443024 122.442940 33.388462
v 453.008789 80.821793 42.261539
v 453.008789 91.908020 47.722122
v 500.000000 150.372314 20.277893
v 500.000000 153.254074 8.260490
v 500.000000 91.908020 47.722118
v 500.000000 80.821793 42.261539
v 456.378174 36.441101 63.094662
v 443.501465 40.629753 72.017715
v 353.199463 129.850571 19.246525
v 346.760254 128.211029 30.905434
v 56.498535 40.629753 72.017715
v 43.621826 36.441101 63.094662
v 139.997894 116.223167 36.532761
v 146.800537 129.850571 19.246525
v 46.991333 80.821793 42.261539
v 93.033691 117.037933 25.261013
v 46.991333 91.908035 47.722107
v 82.338135 121.140182 34.000000
v 46.991333 153.254074 8.260490
v 46.991333 150.372330 20.277885
v 0.000000 91.908035 47.722107
v 0.000000 80.821793 42.261539
v 0.000000 150.372330 20.277885
v 0.000000 153.254074 8.260490
v 0.000000 0.000000 96.418571
v 500.000000 0.000000 96.418571
v 0.000000 0.000008 -14.239204
v 500.000000 0.000008 -14.239204
v 0.000000 63.740280 50.279919
v 500.000000 63.740280 50.279919
v 0.000000 43.414795 75.887939
v 500.000000 43.414795 75.887939
v 229.828644 128.211029 30.905434
v 148.355515 129.454620 22.062092
v 215.205185 332.066101 108.833679
v 282.131653 342.525879 114.690231
v 236.415512 43.414795 75.887939
v 413.148499 43.414795 75.887939
v 368.138641 33.826164 80.422356
v 361.053619 48.334339 69.689819
v 476.138824 150.372314 20.277893
v 453.335266 152.453186 11.600330
v 361.151672 241.874939 58.334736
v 327.906921 269.654266 73.888680
v 333.584930 252.176773 64.102844
v 355.766510 258.414398 63.539192
v 103.159019 360.029999 114.405426
v 84.879311 375.851044 133.349304
v 264.376984 186.821335 27.509682
v 98.908516 186.821335 27.509682
v 168.732132 194.454086 31.783333
v 170.392273 181.365509 19.350142
v 312.980865 402.130463 148.063385
v 274.256500 432.490936 149.645569
v 265.408508 451.246582 139.201599
vt 0.001942 0.871345
vt 0.001942 0.857897
vt 0.237360 0.857897
vt 0.237360 0.871345
vt 0.004354 0.992441
vt 0.236663 0.992441
vt 0.050554 0.896864
vt 0.094132 0.938597
vt 0.094132 0.963534
vt 0.001942 0.963534
vt 0.001942 0.896864
vt 0.237360 0.963534
vt 0.145170 0.963534
vt 0.145170 0.938597
vt 0.188748 0.896864
vt 0.237360 0.896864
vt 0.185307 0.888295
vt 0.237360 0.888295
vt 0.102701 0.972103
vt 0.136601 0.972103
vt 0.237360 0.989053
vt 0.001942 0.989053
vt 0.053995 0.888295
vt 0.136601 0.934938
vt 0.102701 0.934938
vt 0.001942 0.972103
vt 0.001942 0.888295
vt 0.237360 0.972103
vt 0.236663 0.823669
vt 0.004354 0.823669
vt 0.004354 0.922057
vt 0.004354 0.927962
vt 0.004354 0.943979
vt 0.004354 0.823669
vt 0.004354 0.859059
vt 0.236663 0.922057
vt 0.236663 0.943979
vt 0.236663 0.927962
vt 0.215235 0.815663
vt 0.215235 0.812030
vt 0.237360 0.812030
vt 0.237360 0.815663
vt 0.237360 0.846071
vt 0.237360 0.849704
vt 0.215235 0.849704
vt 0.210990 0.842210
vt 0.193556 0.830867
vt 0.198592 0.830867
vt 0.165209 0.834500
vt 0.168241 0.837531
vt 0.071061 0.837531
vt 0.067858 0.828265
vt 0.022481 0.788946
vt 0.216821 0.788946
vt 0.210758 0.788946
vt 0.028544 0.788946
vt 0.024068 0.846071
vt 0.024068 0.849704
vt 0.001942 0.849704
vt 0.001942 0.846071
vt 0.001942 0.815663
vt 0.001942 0.812030
vt 0.024068 0.812030
vt 0.024068 0.815663
vt 0.045746 0.830867
vt 0.040710 0.830867
vt 0.001942 0.753636
vt 0.001942 0.753636
vt 0.237360 0.753636
vt 0.237360 0.753636
vt 0.237360 0.857897
vt 0.001942 0.857897
vt 0.001942 0.803145
vt 0.237360 0.803145
vt 0.001942 0.789359
vt 0.237360 0.789359
vt 0.237360 0.857897
vt 0.001942 0.857897
vt 0.236663 0.859059
vt 0.236663 0.823669
vt 0.004354 0.992441
vt 0.236663 0.992441
vt 0.236663 0.992441
vt 0.004354 0.992441
vt 0.004354 0.959422
vt 0.236663 0.959422
vt 0.236663 0.967582
vt 0.004354 0.967582
vt 0.110154 0.834500
vt 0.071793 0.836799
vt 0.102701 0.949721
vt 0.136601 0.955365
vt 0.113255 0.789359
vt 0.196467 0.789359
vt 0.175275 0.781469
vt 0.171939 0.792696
vt 0.225830 0.846087
vt 0.215235 0.848695
vt 0.171985 0.901052
vt 0.156332 0.916043
vt 0.159006 0.906611
vt 0.169559 0.908464
vt 0.050513 0.963534
vt 0.045073 0.972103
vt 0.126420 0.871345
vt 0.048512 0.871345
vt 0.081387 0.875464
vt 0.082169 0.867227
vt 0.150560 0.989053
vt 0.151010 0.943979
vt 0.131779 0.959422
vt 0.127668 0.967582
vn 0.000000 -0.831291 0.555838
vn 0.000000 -0.831291 0.555838
vn 0.000000 -0.831291 0.555838
vn 0.000000 -0.831291 0.555838
vn 0.000000 -0.831291 0.555838
vn 0.000000 -0.831291 0.555838
vn 0.000000 -0.831291 0.555838
vn 0.000000 -0.831291 0.555838
vn 0.000000 -0.831291 0.555838
vn 0.000000 -0.831291 0.555838
vn 0.000000 -0.831291 0.555838
vn 0.000000 -0.000000 -1.000000
vn 0.000000 -0.000000 -1.000000
vn 0.000000 -0.000000 -1.000000
vn 0.000000 -0.000000 -1.000000
vn -0.000000 -0.488543 0.872540
vn -0.000000 -0.488543 0.872540
vn -0.000000 -0.488543 0.872540
vn -0.000000 -0.488543 0.872540
vn -0.000000 -0.488543 0.872540
vn -0.000000 -0.488543 0.872540
vn -0.000000 -0.488543 0.872540
vn -0.000000 -0.488543 0.872540
vn -0.000000 -0.488543 0.872540
vn -0.000000 -0.488543 0.872540
vn -0.000000 -0.488543 0.872540
vn 0.000000 -0.488543 0.872540
vn 0.000000 -0.488543 0.872540
vn 0.000000 -0.488543 0.872540
vn 0.000000 -0.488543 0.872540
vn 0.000000 -0.488543 0.872540
vn -0.000000 -0.488542 0.872540
vn 0.000000 -0.488543 0.872540
vn 0.000000 -0.488544 0.872539
vn 0.000000 -0.488544 0.872539
vn 0.000000 -0.488544 0.872539
vn 0.000000 -0.488544 0.872539
vn 0.000000 -0.488544 0.872539
vn 0.000000 -0.488544 0.872539
vn 0.000000 -0.488544 0.872539
vn 0.000000 -0.488544 0.872539
vn 0.000000 -0.488544 0.872539
vn 0.000000 -0.488544 0.872539
vn 0.000000 -0.488544 0.872539
vn 0.000000 -0.488543 0.872540
vn 0.000000 -0.488543 0.872540
vn 0.000000 -0.488543 0.872540
vn 0.000000 -0.488543 0.872540
vn 0.000000 -0.488543 0.872540
vn 0.000000 -0.488543 0.872540
vn 0.000000 -0.488543 0.872540
vn 0.000000 -0.488543 0.872540
vn 0.000000 -0.488543 0.872540
vn 0.000000 -0.488543 0.872540
vn 0.000000 -0.488543 0.872540
vn 0.000000 -0.488543 0.872540
vn 0.000000 -0.488543 0.872540
vn 0.000000 -0.488543 0.872540
vn -0.301079 -0.165512 0.939126
vn -0.301079 -0.165512 0.939126
vn -0.301079 -0.165512 0.939126
vn -0.301079 -0.165512 0.939126
vn -0.419295 -0.447905 0.789666
vn -0.419295 -0.447905 0.789666
vn -0.419295 -0.447905 0.789666
vn -0.419295 -0.447905 0.789666
vn 0.000890 -0.791498 0.611171
vn 0.000890 -0.791498 0.611171
vn 0.000890 -0.791498 0.611171
vn 0.000890 -0.791498 0.611171
vn 0.000000 -0.060012 0.998198
vn 0.000000 -0.060012 0.998198
vn 0.000000 -0.060012 0.998198
vn 0.000000 -0.060012 0.998198
vn 0.009969 -0.114338 0.993392
vn 0.009969 -0.114338 0.993392
vn 0.009969 -0.114338 0.993392
vn 0.009969 -0.114338 0.993392
vn 0.000000 -0.819647 0.572868
vn 0.000000 -0.819647 0.572868
vn 0.000000 -0.819647 0.572868
vn 0.000000 -0.819647 0.572868
vn 0.279398 -0.184921 0.942200
vn 0.279398 -0.184921 0.942200
vn 0.279398 -0.184921 0.942200
vn 0.279398 -0.184921 0.942200
vn 0.279398 -0.184921 0.942200
vn 0.279398 -0.184921 0.942200
vn 0.279398 -0.184921 0.942200
vn 0.279398 -0.184921 0.942200
vn 0.279398 -0.184921 0.942200
vn 0.279398 -0.184921 0.942200
vn 0.279398 -0.184921 0.942200
vn 0.399340 -0.485309 0.777819
vn 0.399340 -0.485309 0.777819
vn 0.399340 -0.485309 0.777819
vn -0.000000 -0.488544 0.872539
vn -0.000000 -0.488544 0.872539
vn -0.000000 -0.488544 0.872539
vn -0.000000 -0.488544 0.872539
vn 0.000000 -0.488543 0.872540
vn 0.000000 -0.488543 0.872540
vn 0.000000 -0.488543 0.872540
vn 0.000000 -0.488543 0.872540
vn 0.000000 -0.488543 0.872540
vn 0.000000 -0.488543 0.872540
vn -1.000000 0.000000 0.000000
vn -1.000000 0.000000 0.000000
vn -1.000000 0.000000 0.000000
vn -1.000000 0.000000 0.000000
vn 1.000000 0.000000 0.000000
vn 1.000000 0.000000 0.000000
vn 1.000000 0.000000 0.000000
vn 1.000000 0.000000 0.000000
vn -1.000000 0.000000 0.000000
vn -1.000000 0.000000 0.000000
vn -1.000000 0.000000 0.000000
vn -1.000000 0.000000 0.000000
vn -1.000000 0.000000 0.000000
vn -1.000000 0.000000 0.000000
vn -1.000000 0.000000 0.000000
vn -1.000000 0.000000 0.000000
vn -1.000000 0.000000 0.000000
vn -1.000000 0.000000 0.000000
vn -1.000000 0.000000 0.000000
vn 1.000000 -0.000001 0.000000
vn 1.000000 -0.000001 0.000000
vn 1.000000 -0.000001 0.000000
vn 1.000000 -0.000001 0.000000
vn 1.000000 -0.000000 0.000000
vn 1.000000 -0.000000 0.000000
vn 1.000000 -0.000000 0.000000
vn 1.000000 -0.000000 0.000000
vn 1.000000 -0.000000 0.000000
vn 1.000000 -0.000000 0.000000
vn 1.000000 -0.000000 0.000000
vn 0.000000 1.000000 0.000000
vn 0.000000 1.000000 0.000000
vn 0.000000 1.000000 0.000000
vn 0.000000 1.000000 0.000000
vn 0.000000 0.546542 0.837432
vn -0.000723 0.514958 0.857215
vn 0.000692 0.515223 0.857056
vn 0.000000 0.546542 0.837432
vn 1.000000 -0.000001 0.000000
vn 1.000000 -0.000001 0.000000
vn 1.000000 -0.000001 0.000000
vn -1.000000 0.000000 0.000000
vn -1.000000 0.000000 0.000000
vn -1.000000 0.000000 0.000000
vn 1.000000 0.000000 0.000000
vn 1.000000 0.000000 0.000000
vn 1.000000 0.000000 0.000000
vn -1.000000 0.000000 0.000000
vn -1.000000 0.000000 0.000000
vn -1.000000 0.000000 0.000000
vn 0.000000 0.000000 1.000000
vn -0.001841 -0.027254 0.999627
vn 0.001498 -0.025123 0.999683
vn 0.000000 0.000000 1.000000
vn 0.000000 0.000000 1.000000
vn 0.000000 0.000000 1.000000
vn 0.000000 0.000000 1.000000
vn -1.000000 0.000000 0.000000
vn -1.000000 0.000000 0.000000
vn -1.000000 0.000000 0.000000
vn -1.000000 0.000000 0.000000
vn 0.000000 1.000000 0.000000
vn 0.000000 1.000000 0.000000
vn 0.000000 1.000000 0.000000
vn 0.000000 1.000000 0.000000
vn 1.000000 0.000002 0.000000
vn 1.000000 0.000002 0.000000
vn 1.000000 0.000002 0.000000
vn 1.000000 0.000002 0.000000
vn 0.000000 -0.441863 0.897083
vn 0.000000 -0.441863 0.897083
vn 0.000000 -0.441863 0.897083
vn 0.000000 -0.441863 0.897083
vn -0.132736 0.826531 0.547016
vn -0.132736 0.826531 0.547016
vn -0.132736 0.826531 0.547016
vn -0.522199 -0.220407 0.823850
vn -0.522199 -0.220407 0.823850
vn -0.522199 -0.220407 0.823850
vn -0.522199 -0.220407 0.823850
vn 1.000000 0.000003 0.000000
vn 1.000000 0.000003 0.000000
vn 1.000000 0.000003 0.000000
vn 1.000000 0.000003 0.000000
vn -0.059555 0.753582 0.654651
vn -0.059555 0.753582 0.654651
vn -0.059555 0.753582 0.654651
vn 0.000000 -0.905226 0.424930
vn 0.000000 -0.905226 0.424930
vn 0.000000 -0.905226 0.424930
vn 0.000000 -0.905226 0.424930
vn 0.519433 0.758495 0.393541
vn 0.519433 0.758495 0.393541
vn 0.519433 0.758495 0.393541
vn 0.519433 0.758495 0.393541
vn 0.000000 0.972432 0.233187
vn 0.000000 0.972432 0.233187
vn 0.000000 0.972432 0.233187
vn 0.000000 0.972432 0.233187
vn 0.000000 -0.441862 0.897083
vn 0.000000 -0.441862 0.897083
vn 0.000000 -0.441862 0.897083
vn 0.000000 -0.441862 0.897083
vn 0.000000 0.424930 0.905226
vn 0.000000 0.424930 0.905226
vn 0.000000 0.424930 0.905226
vn 0.000000 0.424930 0.905226
vn 0.552599 -0.327408 0.766445
vn 0.552599 -0.327408 0.766445
vn 0.552599 -0.327408 0.766445
vn 0.552599 -0.327408 0.766445
vn 0.552599 0.798809 0.237777
vn 0.552599 0.798809 0.237777
vn 0.552599 0.798809 0.237777
vn 0.552599 0.798809 0.237777
vn -0.000000 0.424930 0.905226
vn -0.000000 0.424930 0.905226
vn -0.000000 0.424930 0.905226
vn -1.000000 0.000000 0.000000
vn -1.000000 0.000000 0.000000
vn -1.000000 0.000000 0.000000
vn -1.000000 0.000000 0.000000
vn 0.000000 -1.000000 -0.000000
vn 0.000000 -1.000000 -0.000000
vn 0.000000 -1.000000 -0.000000
vn 0.000000 -1.000000 -0.000000
vn 0.000000 0.424930 0.905226
vn 0.000000 0.424930 0.905226
vn 0.000000 0.424930 0.905226
vn 0.000000 0.424930 0.905226
vn 0.000000 0.783264 0.621689
vn 0.000000 0.783264 0.621689
vn 0.000000 0.783264 0.621689
vn 0.000000 0.783264 0.621689
vn 0.000000 0.783264 0.621689
vn 0.000000 0.783264 0.621689
vn 0.000000 0.783264 0.621689
vn 0.000000 0.783264 0.621689
vn 0.000000 0.783264 0.621689
vn 0.000000 0.783264 0.621689
vn 0.000000 0.783264 0.621689
vn 0.000000 0.427503 0.904014
vn 0.000000 0.427503 0.904014
vn 0.000000 0.427503 0.904014
vn 0.000000 0.427503 0.904014
vn 0.000000 0.427503 0.904014
vn 0.000000 0.427503 0.904014
vn 0.000000 0.427503 0.904014
vn 0.000000 0.427503 0.904014
vn 0.000000 0.427503 0.904014
vn 0.000000 0.427503 0.904014
vn 0.000000 0.427503 0.904014
vn -1.000000 0.000000 0.000000
vn -1.000000 0.000000 0.000000
vn -1.000000 0.000000 0.000000
vn -1.000000 0.000000 0.000000
vn 1.000000 0.000000 0.000000
vn 1.000000 0.000000 0.000000
vn 1.000000 0.000000 0.000000
vn 1.000000 0.000000 0.000000
vn 1.000000 -0.000000 0.000000
vn 1.000000 -0.000000 0.000000
vn 1.000000 -0.000000 0.000000
vn 1.000000 -0.000000 0.000000
vn 0.000000 -0.000000 -1.000000
vn 0.000000 -0.000000 -1.000000
vn 0.000000 -0.000000 -1.000000
vn 0.000000 -0.000000 -1.000000
vn -1.000000 0.000000 0.000000
vn -1.000000 0.000000 0.000000
vn -1.000000 0.000000 0.000000
vn -1.000000 0.000000 0.000000
vn 0.000000 0.424930 0.905226
vn 0.000000 0.424930 0.905226
vn 0.000000 0.424930 0.905226
vn 0.000000 0.424930 0.905226
vn 0.000000 0.424930 0.905226
vn 0.000000 0.424930 0.905226
vn 0.000000 0.424930 0.905226
vn -0.000000 0.990257 0.139256
vn -0.000000 0.990257 0.139256
vn -0.000000 0.990257 0.139256
vn -0.000000 0.990257 0.139256
vn -0.000000 0.990257 0.139256
vn -0.000000 0.990257 0.139256
vn -0.000000 0.990257 0.139256
vn -0.519436 0.758495 0.393537
vn -0.519436 0.758495 0.393537
vn -0.519436 0.758495 0.393537
vn -0.519436 0.758495 0.393537
vn -0.519436 0.758495 0.393537
vn -0.519436 0.758495 0.393537
vn -0.519436 0.758495 0.393537
vn -0.429530 -0.426720 0.795873
vn -0.429530 -0.426720 0.795873
vn -0.429530 -0.426720 0.795873
vn -0.000000 -0.488544 0.872540
vn -0.000000 -0.488544 0.872540
vn -0.000000 -0.488544 0.872540
vn -0.000000 -0.488544 0.872540
vn 0.392175 -0.435602 0.810216
vn 0.392175 -0.435602 0.810216
vn 0.392175 -0.435602 0.810216
vn 0.392175 -0.435602 0.810216
vn -0.041859 0.580904 0.812895
vn -0.041859 0.580904 0.812895
vn -0.041859 0.580904 0.812895
vn 0.016115 0.599715 0.800052
vn 0.016115 0.599715 0.800052
vn 0.016115 0.599715 0.800052
vn -0.000000 0.424930 0.905226
vn -0.000000 0.424930 0.905226
vn -0.000000 0.424930 0.905226
vn -0.000000 0.424930 0.905226
vn 0.000000 0.424930 0.905226
vn 0.000000 0.424930 0.905226
vn 0.000000 0.424930 0.905226
vn 0.000000 0.424930 0.905226
vn 0.000000 0.972432 0.233188
vn 0.000000 0.972432 0.233188
vn 0.000000 0.972432 0.233188
vn 0.000000 0.972432 0.233188
vn 0.000000 0.972432 0.233188
vn 0.000000 0.972432 0.233188
vn 0.000000 0.972432 0.233188
vn -0.522665 0.792259 0.314875
vn -0.522665 0.792259 0.314875
vn -0.522665 0.792259 0.314875
vn -0.522665 0.792259 0.314875
vn -0.522665 0.792259 0.314875
vn -0.522665 0.792259 0.314875
vn -0.522665 0.792259 0.314875
vn 0.147892 -0.446160 0.882649
vn 0.147892 -0.446160 0.882649
vn 0.147892 -0.446160 0.882649
vn 0.099958 -0.268896 0.957968
vn 0.099958 -0.268896 0.957968
vn 0.099958 -0.268896 0.957968
vn 0.000000 -0.488543 0.872540
vn 0.000000 -0.488543 0.872540
vn 0.000000 -0.488543 0.872540
vn 0.000000 -0.488543 0.872540
vn -0.000755 -0.791721 0.610883
vn -0.000755 -0.791721 0.610883
vn -0.000755 -0.791721 0.610883
vn -0.000755 -0.791721 0.610883
vn -0.000000 -0.488545 0.872539
vn -0.000000 -0.488545 0.872539
vn -0.000000 -0.488545 0.872539
vn -0.022746 -0.690059 0.723396
vn -0.022746 -0.690059 0.723396
vn -0.022746 -0.690059 0.723396
vn 0.030555 -0.686359 0.726621
vn 0.030555 -0.686359 0.726621
vn 0.030555 -0.686359 0.726621
vn -0.000000 -0.488542 0.872540
vn 0.000000 -0.488543 0.872540
vn 0.000000 -0.488543 0.872540
vn 0.001498 -0.025123 0.999683
vn -0.001841 -0.027254 0.999627
vn 0.000000 0.000000 1.000000
vn 0.000000 0.000000 1.000000
vn 0.000692 0.515223 0.857056
vn -0.000723 0.514958 0.857215
vn 0.000000 0.546542 0.837432
vn 0.000000 0.546542 0.837432
vn 0.000000 0.000000 1.000000
vn 0.000000 0.000000 1.000000
vn 0.000000 0.000000 1.000000
vn 0.000000 0.000000 1.000000
s off
f 92/106/1 5/1/2 27/2/3 94/108/4
f 27/2/5 28/3/6 94/108/7
f 91/105/8 94/108/9 28/3/10 6/4/11
f 3/5/12 4/6/13 29/29/14 30/30/15
f 18/7/16 89/103/17 21/10/18 20/11/19
f 22/16/20 24/12/21 23/15/22
f 25/14/23 23/15/24 24/12/25 26/13/26
f 8/17/27 6/4/28 7/18/29
f 14/19/30 11/20/31 95/109/32 1/22/33
f 13/23/34 8/17/35 85/99/36 87/101/37
f 87/101/38 86/100/39 13/23/40
f 13/23/41 86/100/42 10/24/43 12/25/44
f 90/104/45 1/22/46 16/26/47
f 13/23/48 5/1/49 92/106/50 93/107/51
f 6/4/52 8/17/53 91/105/54
f 91/105/55 8/17/56 13/23/57 93/107/58
f 13/23/59 12/25/60 17/8/61 18/7/62
f 17/8/63 77/91/64 14/19/65 19/9/66
f 89/103/67 90/104/68 16/26/69 21/10/70
f 15/27/71 13/23/72 18/7/73 20/11/74
f 8/17/75 7/18/76 22/16/77 23/15/78
f 24/12/79 9/28/80 11/20/81 26/13/82
f 85/99/83 8/17/84 23/15/85 88/102/86
f 25/14/87 10/24/88 86/100/89 88/102/90
f 23/15/91 25/14/92 88/102/93
f 11/20/94 78/92/95 26/13/96
f 11/20/97 14/19/98 77/91/99 78/92/100
f 5/1/101 13/23/102 15/27/103
f 9/28/104 2/21/105 11/20/106
f 21/31/107 16/32/108 1/33/109 3/5/110
f 28/3/111 22/16/112 7/18/113 6/4/114
f 20/11/115 27/2/116 5/1/117 15/27/118
f 3/5/119 30/30/120 27/34/121 20/35/122
f 3/5/123 20/35/124 21/31/125
f 24/36/126 4/6/127 2/37/128 9/38/129
f 28/80/130 29/29/131 4/6/132 22/79/133
f 4/6/134 24/36/135 22/79/136
f 32/81/137 31/82/138 33/83/139 34/84/140
f 36/85/141 96/111/142 97/112/143 38/88/144
f 35/86/145 4/6/146 37/87/147
f 3/5/148 36/85/149 38/88/150
f 2/37/151 4/6/152 35/86/153
f 3/5/154 1/33/155 36/85/156
f 1/33/157 95/110/158 96/111/159 36/85/160
f 38/88/161 97/112/162 32/81/163
f 3/5/164 38/88/165 32/81/166 34/84/167
f 4/6/168 3/5/169 34/84/170 33/83/171
f 37/87/172 4/6/173 33/83/174 31/82/175
f 44/39/176 43/40/177 48/41/178 47/42/179
f 83/97/180 84/98/181 41/46/182
f 40/47/183 43/40/184 44/39/185 42/48/186
f 46/44/187 45/43/188 47/42/189 48/41/190
f 75/89/191 76/90/192 55/52/193
f 54/53/194 49/54/195 50/55/196 53/56/197
f 49/54/198 51/50/199 52/49/200 50/55/201
f 62/57/202 61/58/203 66/59/204 65/60/205
f 63/61/206 64/62/207 57/63/208 59/64/209
f 59/64/210 62/57/211 65/60/212 63/61/213
f 57/63/214 58/65/215 60/66/216 59/64/217
f 58/65/218 61/58/219 62/57/220 60/66/221
f 59/64/222 60/66/223 62/57/224
f 64/62/225 63/61/226 65/60/227 66/59/228
f 67/67/229 69/68/230 70/69/231 68/70/232
f 28/71/233 27/72/234 71/73/235 72/74/236
f 71/73/237 73/75/238 79/93/239 82/96/240
f 71/73/241 82/96/242 72/74/243
f 72/74/244 82/96/245 80/94/246 74/76/247
f 68/70/248 81/95/249 67/67/250
f 67/67/251 81/95/252 79/93/253 73/75/254
f 80/94/255 81/95/256 68/70/257 74/76/258
f 71/73/259 69/68/260 67/67/261 73/75/262
f 70/69/263 72/74/264 74/76/265 68/70/266
f 29/77/267 28/71/268 72/74/269 70/69/270
f 30/78/271 29/77/272 70/69/273 69/68/274
f 27/72/275 30/78/276 69/68/277 71/73/278
f 53/56/279 50/55/280 52/49/281 75/89/282
f 75/89/283 55/52/284 53/56/285
f 52/49/286 51/50/287 56/51/288 76/90/289
f 52/49/290 76/90/291 75/89/292
f 56/51/293 54/53/294 53/56/295 76/90/296
f 53/56/297 55/52/298 76/90/299
f 12/25/300 77/91/301 17/8/302
f 78/92/303 77/91/304 12/25/305 10/24/306
f 26/13/307 78/92/308 10/24/309 25/14/310
f 80/94/311 82/96/312 81/95/313
f 81/95/314 82/96/315 79/93/316
f 83/97/317 41/46/318 42/48/319 44/39/320
f 83/97/321 44/39/322 47/42/323 45/43/324
f 46/44/325 39/45/326 84/98/327 83/97/328
f 45/43/329 46/44/330 83/97/331
f 40/47/332 42/48/333 39/45/334
f 84/98/335 39/45/336 42/48/337 41/46/338
f 87/101/339 88/102/340 86/100/341
f 85/99/342 88/102/343 87/101/344
f 18/7/345 17/8/346 19/9/347 89/103/348
f 19/9/349 14/19/350 90/104/351 89/103/352
f 14/19/353 1/22/354 90/104/355
f 93/107/356 94/108/357 91/105/358
f 92/106/359 94/108/360 93/107/361
f 95/109/362 11/20/363 2/21/364
f 96/111/365 95/110/366 2/37/367 35/86/368
f 97/112/369 96/111/370 35/86/371 37/87/372
f 32/81/373 97/112/374 37/87/375 31/82/376
