# This file uses centimeters as units for non-parametric coordinates.

v -40.553711 -36.181213 499.999329
v 40.553711 -36.181213 499.999329
v -40.553711 3.024888 499.999329
v 40.553711 3.024888 499.999329
v -40.553711 3.024880 -0.000305
v 40.553711 3.024880 -0.000305
v -40.553711 -36.181217 -0.000305
v 40.553711 -36.181217 -0.000305
v -31.317764 10.945749 499.999329
v 31.317764 10.945749 499.999329
v 31.317764 10.945744 -0.000305
v -31.317764 10.945744 -0.000305
v -23.412689 10.945749 499.999329
v 23.413681 10.945749 499.999329
v 23.413681 10.945744 -0.000305
v -23.412689 10.945744 -0.000305
v -17.929062 8.145681 499.999329
v 17.930054 8.145681 499.999329
v 17.930054 8.145675 -0.000305
v -17.929062 8.145675 -0.000305
v -31.317764 10.945744 100.000206
v -40.553711 3.024883 100.000206
v -40.553711 -36.181217 100.000206
v 40.553711 -36.181217 100.000206
v 40.553711 3.024883 100.000206
v 31.317764 10.945744 100.000206
v 23.413681 10.945744 100.000206
v 17.930054 8.145677 100.000206
v -17.929062 8.145677 100.000206
v -23.412689 10.945744 100.000206
v -19.841309 10.945744 124.552933
v -25.692751 3.024883 124.552933
v -25.692751 -36.181213 124.552933
v 25.692751 -36.181213 124.552933
v 25.692751 3.024883 124.552933
v 19.841309 10.945744 124.552933
v 12.772717 10.945744 111.696167
v 9.781733 8.145677 108.503487
v -9.780741 8.145677 108.503487
v -12.771726 10.945744 111.696167
v -19.841309 10.945746 375.446075
v -25.692751 3.024885 375.446075
v -25.692751 -36.181213 375.446075
v 25.692751 -36.181213 375.446075
v 25.692751 3.024885 375.446075
v 19.841309 10.945746 375.446075
v 12.772717 10.945746 388.303833
v 9.781733 8.145679 391.495514
v -9.780741 8.145679 391.495514
v -12.771726 10.945746 388.303833
v -31.317764 10.945749 399.999786
v -40.553711 3.024888 399.999786
v -40.553711 -36.181213 399.999786
v 40.553711 -36.181213 399.999786
v 40.553711 3.024888 399.999786
v 29.300714 10.945749 395.684875
v 23.413681 10.945749 399.999786
v 17.930054 8.145679 399.999786
v -17.929062 8.145679 399.999786
v -23.412689 10.945749 399.999786
v -25.692751 3.024883 187.464310
v -19.841309 10.945746 211.331818
v -19.841309 10.945744 174.283234
v -12.771726 10.945744 185.939651
v 31.317764 10.945749 411.113373
v 36.749981 6.286801 399.999786
v 27.497229 10.945749 402.067261
v 19.841309 10.945746 363.172699
v 19.841309 10.945744 291.169128
v 12.772717 10.945746 338.611084
v 25.692751 3.024888 345.851715
vt 0.065371 0.858655
vt 0.065371 0.858655
vt 0.065371 0.858655
vt 0.065371 0.858655
vt 0.065371 0.858655
vt 0.065371 0.858655
vt 0.065371 0.858655
vt 0.065371 0.858655
vt 0.065371 0.858655
vt 0.065371 0.858655
vt 0.065371 0.858655
vt 0.065371 0.858655
vt 0.065371 0.858655
vt 0.065371 0.858655
vt 0.065371 0.858655
vt 0.065371 0.858655
vt 0.065371 0.858655
vt 0.065371 0.858655
vt 0.065371 0.858655
vt 0.065371 0.858655
vt 0.065371 0.858655
vt 0.065371 0.858655
vt 0.065371 0.858655
vt 0.065371 0.858655
vt 0.065371 0.858655
vt 0.065371 0.858655
vt 0.376685 0.029170
vt 0.376685 0.029170
vt 0.376685 0.029170
vt 0.376685 0.029170
vt 0.065371 0.858655
vt 0.065371 0.858655
vt 0.065371 0.858655
vt 0.065371 0.858655
vt 0.065371 0.858655
vt 0.065371 0.858655
vt 0.065371 0.858655
vt 0.065371 0.858655
vt 0.065371 0.858655
vt 0.065371 0.858655
vt 0.065371 0.858655
vt 0.376685 0.029170
vt 0.065371 0.858655
vt 0.065371 0.858655
vt 0.376685 0.029170
vt 0.065371 0.858655
vt 0.065371 0.858655
vt 0.065371 0.858655
vt 0.065371 0.858655
vt 0.065371 0.858655
vt 0.065371 0.858655
vt 0.065371 0.858655
vt 0.065371 0.858655
vt 0.065371 0.858655
vt 0.065371 0.858655
vt 0.065371 0.858655
vt 0.065371 0.858655
vt 0.376685 0.029170
vt 0.065371 0.858655
vt 0.065371 0.858655
vt 0.376685 0.029170
vt 0.065371 0.858655
vt 0.065371 0.858655
vt 0.065371 0.858655
vt 0.065371 0.858655
vt 0.065371 0.858655
vt 0.065371 0.858655
vt 0.065371 0.858655
vt 0.065371 0.858655
vt 0.065371 0.858655
vt 0.065371 0.858655
vt 0.065371 0.858655
vt 0.065371 0.858655
vt 0.376685 0.029170
vt 0.065371 0.858655
vt 0.065371 0.858655
vt 0.376685 0.029170
vt 0.065371 0.858655
vt 0.065371 0.858655
vt 0.065371 0.858655
vt 0.065371 0.858655
vt 0.065371 0.858655
vt 0.065371 0.858655
vt 0.065371 0.858655
vt 0.065371 0.858655
vt 0.065371 0.858655
vt 0.065371 0.858655
vt 0.065371 0.858655
vt 0.065371 0.858655
vt 0.376685 0.029170
vt 0.065371 0.858655
vt 0.065371 0.858655
vt 0.376685 0.029170
vt 0.065371 0.858655
vt 0.065371 0.858655
vt 0.065371 0.858655
vt 0.065371 0.858655
vt 0.065371 0.858655
vt 0.065371 0.858655
vt 0.065371 0.858655
vt 0.065371 0.858655
vt 0.065371 0.858655
vt 0.065371 0.858655
vt 0.065371 0.858655
vt 0.065371 0.858655
vt 0.065371 0.858655
vt 0.065371 0.858655
vn 0.000000 0.000000 1.000000
vn 0.000000 0.000000 1.000000
vn 0.000000 0.000000 1.000000
vn 0.000000 0.000000 1.000000
vn 0.000000 1.000000 -0.000000
vn 0.000000 1.000000 -0.000000
vn 0.000000 1.000000 -0.000000
vn 0.000000 1.000000 -0.000000
vn 0.000000 0.000000 -1.000000
vn 0.000000 0.000000 -1.000000
vn 0.000000 0.000000 -1.000000
vn 0.000000 0.000000 -1.000000
vn 0.000000 -1.000000 0.000000
vn 0.000000 -1.000000 0.000000
vn 0.000000 -1.000000 0.000000
vn 0.000000 -1.000000 0.000000
vn 1.000000 0.000000 0.000000
vn 1.000000 0.000000 0.000000
vn 1.000000 0.000000 0.000000
vn 1.000000 0.000000 0.000000
vn -1.000000 0.000000 0.000000
vn -1.000000 0.000000 0.000000
vn -1.000000 0.000000 0.000000
vn -1.000000 0.000000 0.000000
vn 0.558922 0.825995 -0.073071
vn 0.558922 0.825995 -0.073071
vn 0.558922 0.825995 -0.073071
vn -0.650997 0.759081 0.000000
vn -0.650997 0.759081 0.000000
vn -0.650997 0.759081 0.000000
vn -0.650997 0.759081 0.000000
vn 0.000000 1.000000 -0.000000
vn 0.000000 1.000000 -0.000000
vn 0.000000 1.000000 -0.000000
vn 0.000000 1.000000 0.000000
vn 0.000000 1.000000 0.000000
vn 0.000000 1.000000 0.000000
vn 0.000000 1.000000 0.000000
vn -0.454767 0.890611 -0.000000
vn -0.454767 0.890611 -0.000000
vn -0.454767 0.890611 -0.000000
vn -0.454767 0.890611 -0.000000
vn 0.454767 0.890611 -0.000000
vn 0.454767 0.890611 -0.000000
vn 0.454767 0.890611 -0.000000
vn 0.454767 0.890611 -0.000000
vn 0.000000 0.000000 -1.000000
vn 0.000000 0.000000 -1.000000
vn 0.000000 0.000000 -1.000000
vn 0.000000 0.000000 -1.000000
vn 0.000000 0.000000 -1.000000
vn 0.000000 0.000000 -1.000000
vn 0.000000 0.000000 -1.000000
vn 0.000000 0.000000 -1.000000
vn 0.000000 0.000000 -1.000000
vn 0.000000 0.000000 -1.000000
vn 0.000000 0.000000 -1.000000
vn 0.000000 0.000000 -1.000000
vn -0.000000 0.000000 -1.000000
vn -0.000000 0.000000 -1.000000
vn -0.000000 0.000000 -1.000000
vn 0.000000 0.000000 -1.000000
vn 0.000000 0.000000 -1.000000
vn 0.000000 0.000000 -1.000000
vn 0.000000 0.000000 1.000000
vn 0.000000 0.000000 1.000000
vn 0.000000 0.000000 1.000000
vn -0.000003 0.000000 1.000000
vn -0.000003 0.000000 1.000000
vn -0.000003 0.000000 1.000000
vn 0.000000 0.000000 1.000000
vn 0.000000 0.000000 1.000000
vn 0.000000 0.000000 1.000000
vn 0.000000 0.000000 1.000000
vn 0.000000 0.000000 1.000000
vn 0.000000 0.000000 1.000000
vn 0.000003 0.000000 1.000000
vn 0.000003 0.000000 1.000000
vn 0.000003 0.000000 1.000000
vn 0.000000 0.000000 1.000000
vn 0.000000 0.000000 1.000000
vn 0.000000 0.000000 1.000000
vn -0.650997 0.759081 -0.000000
vn -0.650997 0.759081 -0.000000
vn -0.650997 0.759081 -0.000000
vn -0.650997 0.759081 -0.000000
vn -1.000000 0.000000 0.000000
vn -1.000000 0.000000 0.000000
vn -1.000000 0.000000 0.000000
vn -1.000000 0.000000 0.000000
vn 0.000000 -1.000000 0.000000
vn 0.000000 -1.000000 0.000000
vn 0.000000 -1.000000 0.000000
vn 0.000000 -1.000000 0.000000
vn 1.000000 0.000000 0.000000
vn 1.000000 0.000000 0.000000
vn 1.000000 0.000000 0.000000
vn 1.000000 0.000000 0.000000
vn 0.650997 0.759081 -0.000000
vn 0.650997 0.759081 -0.000000
vn 0.650997 0.759081 -0.000000
vn 0.650997 0.759081 -0.000000
vn 0.000000 1.000000 0.000000
vn 0.000000 1.000000 0.000000
vn 0.000000 1.000000 0.000000
vn 0.000000 1.000000 0.000000
vn -0.454766 0.890611 0.000000
vn -0.454766 0.890611 0.000000
vn -0.454766 0.890611 0.000000
vn -0.454766 0.890611 0.000000
vn 0.000000 1.000000 -0.000000
vn 0.000000 1.000000 -0.000000
vn 0.000000 1.000000 -0.000000
vn 0.000000 1.000000 -0.000000
vn 0.454766 0.890611 0.000000
vn 0.454766 0.890611 0.000000
vn 0.454766 0.890611 0.000000
vn 0.454766 0.890611 0.000000
vn 0.000000 1.000000 0.000000
vn 0.000000 1.000000 0.000000
vn 0.000000 1.000000 0.000000
vn 0.000000 1.000000 0.000000
vn -0.675014 0.642872 0.362040
vn -0.675014 0.642872 0.362040
vn -0.675014 0.642872 0.362040
vn -0.675014 0.642872 0.362040
vn -0.855499 0.000000 0.517805
vn -0.855499 0.000000 0.517805
vn -0.855499 0.000000 0.517805
vn -0.855499 0.000000 0.517805
vn 0.000000 -1.000000 0.000000
vn 0.000000 -1.000000 0.000000
vn 0.000000 -1.000000 0.000000
vn 0.000000 -1.000000 0.000000
vn 0.855499 0.000000 0.517805
vn 0.855499 0.000000 0.517805
vn 0.855499 0.000000 0.517805
vn 0.855499 0.000000 0.517805
vn 0.675014 0.642872 0.362040
vn 0.675014 0.642872 0.362040
vn 0.675014 0.642872 0.362040
vn 0.675014 0.642872 0.362040
vn 0.000000 1.000000 0.000000
vn 0.000000 1.000000 0.000000
vn 0.000000 1.000000 0.000000
vn 0.000000 1.000000 0.000000
vn -0.406841 0.831421 -0.378443
vn -0.406841 0.831421 -0.378443
vn -0.406841 0.831421 -0.378443
vn -0.406841 0.831421 -0.378443
vn 0.000000 1.000000 0.000000
vn 0.000000 1.000000 0.000000
vn 0.000000 1.000000 0.000000
vn 0.000000 1.000000 0.000000
vn 0.406841 0.831421 -0.378443
vn 0.406841 0.831421 -0.378443
vn 0.406841 0.831421 -0.378443
vn 0.406841 0.831421 -0.378443
vn 0.000000 1.000000 0.000000
vn 0.000000 1.000000 0.000000
vn 0.000000 1.000000 0.000000
vn 0.000000 1.000000 0.000000
vn -0.804327 0.594187 0.000000
vn -0.804327 0.594187 0.000000
vn -0.804327 0.594187 0.000000
vn -0.804327 0.594187 0.000000
vn -1.000000 0.000000 0.000000
vn -1.000000 0.000000 0.000000
vn -1.000000 0.000000 0.000000
vn -1.000000 0.000000 0.000000
vn -1.000000 0.000000 0.000000
vn 0.000000 -1.000000 0.000000
vn 0.000000 -1.000000 0.000000
vn 0.000000 -1.000000 0.000000
vn 0.000000 -1.000000 0.000000
vn 1.000000 0.000000 0.000000
vn 1.000000 0.000000 0.000000
vn 1.000000 0.000000 0.000000
vn 1.000000 0.000000 0.000000
vn 1.000000 0.000000 0.000000
vn 0.804327 0.594187 -0.000000
vn 0.804327 0.594187 -0.000000
vn 0.804327 0.594187 -0.000000
vn 0.804327 0.594187 -0.000000
vn 0.000000 1.000000 0.000000
vn 0.000000 1.000000 0.000000
vn 0.000000 1.000000 0.000000
vn 0.000000 1.000000 0.000000
vn -0.683424 0.730022 -0.000000
vn -0.683424 0.730022 -0.000000
vn -0.683424 0.730022 -0.000000
vn -0.683424 0.730022 -0.000000
vn -0.683424 0.730022 -0.000000
vn 0.000000 1.000000 -0.000000
vn 0.000000 1.000000 -0.000000
vn 0.000000 1.000000 -0.000000
vn 0.000000 1.000000 -0.000000
vn 0.683424 0.730022 -0.000000
vn 0.683424 0.730022 -0.000000
vn 0.683424 0.730022 -0.000000
vn 0.683424 0.730022 -0.000000
vn 0.683424 0.730022 -0.000000
vn 0.000000 1.000000 0.000000
vn 0.000000 1.000000 0.000000
vn 0.000000 1.000000 0.000000
vn 0.000000 1.000000 0.000000
vn -0.675017 0.642875 -0.362027
vn -0.675017 0.642875 -0.362027
vn -0.675017 0.642875 -0.362027
vn -0.675017 0.642875 -0.362027
vn -0.855507 0.000000 -0.517790
vn -0.855507 0.000000 -0.517790
vn -0.855508 0.000000 -0.517790
vn -0.855507 0.000000 -0.517790
vn 0.000000 -1.000000 0.000000
vn 0.000000 -1.000000 0.000000
vn 0.000000 -1.000000 0.000000
vn 0.000000 -1.000000 0.000000
vn 0.855508 0.000000 -0.517790
vn 0.855507 0.000000 -0.517790
vn 0.855507 0.000000 -0.517790
vn 0.855507 0.000000 -0.517790
vn -0.406872 0.831402 0.378451
vn -0.406872 0.831402 0.378451
vn -0.406872 0.831402 0.378451
vn -0.406872 0.831402 0.378451
vn 0.000000 1.000000 0.000000
vn 0.000000 1.000000 0.000000
vn 0.000000 1.000000 0.000000
vn 0.000000 1.000000 0.000000
vn 0.406872 0.831402 0.378451
vn 0.406872 0.831402 0.378451
vn 0.406872 0.831402 0.378451
vn 0.406872 0.831402 0.378451
vn 0.000000 1.000000 -0.000000
vn 0.000000 1.000000 -0.000000
vn 0.000000 1.000000 -0.000000
vn 0.000000 1.000000 -0.000000
vn -0.804327 0.594187 -0.000000
vn -0.804327 0.594187 -0.000000
vn -0.804327 0.594187 -0.000000
vn -0.804327 0.594187 -0.000000
vn 0.000000 1.000000 0.000000
vn 0.000000 1.000000 0.000000
vn 0.000000 1.000000 0.000000
vn 0.000000 1.000000 0.000000
vn -0.475470 0.831126 0.288371
vn -0.475470 0.831126 0.288371
vn -0.475470 0.831126 0.288371
vn -0.529511 0.835395 -0.147424
vn -0.529510 0.835395 -0.147424
vn -0.529511 0.835395 -0.147424
vn 0.650996 0.759081 -0.000001
vn 0.650996 0.759081 -0.000001
vn 0.650996 0.759081 -0.000001
vn 0.650996 0.759081 -0.000001
vn 0.650996 0.759081 -0.000001
vn 0.677798 0.637645 -0.366059
vn 0.677798 0.637645 -0.366058
vn 0.677798 0.637645 -0.366058
vn 0.677798 0.637645 -0.366058
vn 0.677798 0.637645 -0.366058
vn -0.000000 1.000000 -0.000000
vn -0.000000 1.000000 -0.000000
vn -0.000000 1.000000 -0.000000
vn -0.000000 1.000000 -0.000000
vn -0.000000 1.000000 -0.000000
vn 0.000000 1.000000 0.000000
vn 0.000000 1.000000 0.000000
vn 0.000000 1.000000 0.000000
vn 0.000000 1.000000 0.000000
vn 0.000000 1.000000 0.000000
vn 0.000000 1.000000 -0.000000
vn 0.000000 1.000000 -0.000000
vn 0.000000 1.000000 -0.000000
vn 0.000000 1.000000 -0.000000
vn 0.491136 0.868004 0.073177
vn 0.491136 0.868004 0.073177
vn 0.491136 0.868004 0.073177
vn 0.804326 0.594188 0.000000
vn 0.804326 0.594188 0.000000
vn 0.804326 0.594188 0.000000
vn 0.804326 0.594188 0.000000
vn 0.581787 0.795921 -0.167432
vn 0.581787 0.795921 -0.167432
vn 0.581787 0.795921 -0.167432
s off
f 1/1/1 2/2/2 4/4/3 3/3/4
f 17/27/5 18/28/6 58/90/7 59/93/8
f 5/5/9 6/6/10 8/8/11 7/7/12
f 53/83/13 54/84/14 2/10/15 1/9/16
f 2/2/17 54/85/18 55/87/19 4/4/20
f 53/82/21 1/1/22 3/3/23 52/80/24
f 65/100/25 66/101/26 56/88/27
f 52/81/28 3/3/29 9/15/30 51/79/31
f 67/102/32 65/100/33 56/88/34
f 60/94/35 51/79/36 9/15/37 13/19/38
f 14/20/39 57/89/40 58/91/41 18/24/42
f 60/94/43 13/19/44 17/23/45 59/92/46
f 12/18/47 16/22/48 5/5/49
f 16/22/50 20/26/51 5/5/52
f 5/5/53 20/26/54 6/6/55
f 20/26/56 19/25/57 6/6/58
f 19/25/59 15/21/60 6/6/61
f 6/6/62 15/21/63 11/17/64
f 9/15/65 3/3/66 13/19/67
f 13/19/68 3/3/69 17/23/70
f 3/3/71 4/4/72 17/23/73
f 17/23/74 4/4/75 18/24/76
f 18/24/77 4/4/78 14/20/79
f 4/4/80 10/16/81 14/20/82
f 5/5/83 22/33/84 21/31/85 12/18/86
f 7/13/87 23/34/88 22/32/89 5/14/90
f 7/7/91 8/8/92 24/36/93 23/35/94
f 25/39/95 24/37/96 8/11/97 6/12/98
f 26/40/99 25/38/100 6/6/101 11/17/102
f 27/41/103 26/40/104 11/17/105 15/21/106
f 28/43/107 27/41/108 15/21/109 19/25/110
f 29/45/111 28/42/112 19/29/113 20/30/114
f 16/22/115 30/46/116 29/44/117 20/26/118
f 12/18/119 21/31/120 30/46/121 16/22/122
f 22/33/123 32/49/124 31/47/125 21/31/126
f 23/34/127 33/50/128 32/48/129 22/32/130
f 23/35/131 24/36/132 34/52/133 33/51/134
f 35/55/135 34/53/136 24/37/137 25/39/138
f 36/56/139 35/54/140 25/38/141 26/40/142
f 37/57/143 36/56/144 26/40/145 27/41/146
f 38/59/147 37/57/148 27/41/149 28/43/150
f 39/61/151 38/58/152 28/42/153 29/45/154
f 30/46/155 40/62/156 39/60/157 29/44/158
f 30/46/159 21/31/160 31/47/161 40/62/162
f 32/49/163 61/96/164 63/98/165 31/47/166
f 33/50/167 43/66/168 42/64/169 61/95/170 32/48/171
f 33/51/172 34/52/173 44/68/174 43/67/175
f 45/71/176 44/69/177 34/53/178 35/55/179 71/107/180
f 69/104/181 71/106/182 35/54/183 36/56/184
f 47/73/185 46/72/186 68/103/187 70/105/188
f 48/75/189 47/73/190 70/105/191 37/57/192 38/59/193
f 49/77/194 48/74/195 38/58/196 39/61/197
f 40/62/198 64/99/199 50/78/200 49/76/201 39/60/202
f 40/62/203 31/47/204 63/98/205 64/99/206
f 42/65/207 52/81/208 51/79/209 41/63/210
f 43/66/211 53/82/212 52/80/213 42/64/214
f 43/67/215 44/68/216 54/84/217 53/83/218
f 55/87/219 54/85/220 44/69/221 45/71/222
f 58/91/223 57/89/224 47/73/225 48/75/226
f 59/93/227 58/90/228 48/74/229 49/77/230
f 50/78/231 60/94/232 59/92/233 49/76/234
f 50/78/235 41/63/236 51/79/237 60/94/238
f 62/97/239 61/96/240 42/65/241 41/63/242
f 64/99/243 62/97/244 41/63/245 50/78/246
f 64/99/247 63/98/248 61/96/249
f 64/99/250 61/96/251 62/97/252
f 4/4/253 55/86/254 66/101/255 65/100/256 10/16/257
f 56/88/258 66/101/259 55/86/260 45/70/261 46/72/262
f 57/89/263 67/102/264 56/88/265 46/72/266 47/73/267
f 10/16/268 65/100/269 67/102/270 57/89/271 14/20/272
f 70/105/273 69/104/274 36/56/275 37/57/276
f 70/105/277 71/106/278 69/104/279
f 46/72/280 45/70/281 71/106/282 68/103/283
f 70/105/284 68/103/285 71/106/286
