# This file uses centimeters as units for non-parametric coordinates.

v -17.829494 24.604198 -50.519211
v -21.946857 -5.200459 45.003998
v -15.354507 103.318542 -46.622581
v -17.172512 98.869492 41.011093
v 36.857147 96.529037 -45.190895
v 29.740952 103.333710 26.689430
v 40.251801 -5.196987 -49.918480
v 36.773941 -5.189284 46.614464
v -16.641098 103.322876 0.213446
v -16.991249 103.323975 12.980194
v -10.709440 103.323975 7.067102
v -18.981030 32.688599 8.406643
v -20.136005 -5.202823 9.149855
v 35.277618 9.360785 14.513653
v 38.316879 101.114563 12.313038
v -40.311890 -1.696472 -45.540092
v -41.644150 -1.692149 2.955790
v -38.788612 34.510803 2.206527
v -38.352234 101.727570 -4.173065
v -37.323105 101.724365 -41.607422
v -36.929077 54.991684 -43.123825
v -16.041195 79.385803 -47.703972
v 37.477821 83.472061 -46.056519
v 39.787766 53.456482 13.403511
v 35.411438 42.382797 44.470932
v -21.225380 17.625305 43.991776
v 40.048660 -1.170933 -74.724716
v -14.876320 -1.181389 -76.230270
v -12.634583 74.743393 -72.700699
v 37.487854 78.515045 -71.160080
v 34.129517 -4.223843 76.230270
v -19.719429 -4.234111 74.753891
v 32.879784 39.096352 74.265244
v -19.058186 17.003105 73.825684
v 38.240143 -5.190488 23.307167
v 13.604858 -5.196178 12.288282
v 41.644287 -5.191116 10.047649
v 11.961235 78.955261 -71.944427
v 13.314529 83.989197 -46.800407
v 13.563457 103.323975 -45.830544
v 8.904915 103.328308 8.982893
v 19.114025 103.328308 -12.783249
v -14.731911 116.663605 -44.630463
v -15.927048 116.667938 -1.162676
v -36.248306 115.164703 -39.972054
v -37.202072 115.167969 -5.230393
v -6.887489 116.689606 5.293520
v 8.019222 116.692871 6.981972
v 17.494198 116.692871 -13.219360
v 12.343155 116.688538 -43.889183
v 25.331879 98.878128 42.176109
v 31.705826 69.287094 42.042702
v 35.638489 103.334778 24.717812
v -19.570621 81.263214 40.915100
v 0.781719 119.082031 -20.941795
v 7.027496 -5.201608 -30.391464
v 38.016113 -5.194757 -36.356400
v 35.829796 67.038208 -13.581337
v -17.164814 -10.419283 -35.943810
v -18.030563 -10.414284 -4.391600
v -26.732346 -7.123968 -10.033619
v -26.106857 -7.128029 -32.804825
v 1.109177 -10.463694 -15.897888
v 35.115189 -10.457455 -17.652630
v 37.347168 -10.453964 0.220185
v 13.380268 -10.458694 -1.579254
v -14.201870 -4.370313 -53.236115
v -5.533647 -5.204843 -40.804932
v -19.282772 -5.533964 -48.850288
vt 0.070207 0.122946
vt 0.070207 0.123137
vt 0.070133 0.123252
vt 0.070134 0.123134
vt 0.069910 0.122996
vt 0.069891 0.122770
vt 0.069872 0.123089
vt 0.070025 0.123094
vt 0.070049 0.123341
vt 0.069759 0.123255
vt 0.069771 0.123032
vt 0.070049 0.123229
vt 0.070091 0.122792
vt 0.070364 0.122864
vt 0.070232 0.122457
vt 0.070103 0.122429
vt 0.070221 0.122563
vt 0.070174 0.122573
vt 0.070194 0.122598
vt 0.070430 0.122989
vt 0.070334 0.123135
vt 0.070326 0.122949
vt 0.070417 0.122715
vt 0.069888 0.123044
vt 0.070169 0.122401
vt 0.070064 0.122479
vt 0.069904 0.122530
vt 0.070049 0.122406
vt 0.070290 0.123024
vt 0.070225 0.123118
vt 0.070284 0.123099
vt 0.070330 0.123030
vt 0.070348 0.122589
vt 0.070222 0.122489
vt 0.070314 0.122375
vt 0.070417 0.122422
vt 0.070346 0.122516
vt 0.070424 0.122487
vt 0.070319 0.122437
vt 0.070322 0.122554
vt 0.070047 0.122467
vt 0.070170 0.122494
vt 0.069978 0.122634
vt 0.069862 0.122784
vt 0.069887 0.122556
vt 0.069912 0.122570
vt 0.069896 0.122642
vt 0.070139 0.122796
vt 0.070035 0.122877
vt 0.069822 0.123162
vt 0.069835 0.122921
vt 0.070153 0.123055
vt 0.070058 0.123078
vt 0.070015 0.122917
vt 0.070357 0.122508
vt 0.070159 0.122494
vt 0.070180 0.122402
vt 0.070065 0.122551
vt 0.070076 0.122478
vt 0.070075 0.122412
vt 0.070172 0.122341
vt 0.070127 0.122701
vt 0.070313 0.122941
vt 0.070242 0.122968
vt 0.070329 0.122816
vt 0.070156 0.122979
vt 0.069986 0.122999
vt 0.069933 0.123047
vt 0.070329 0.122966
vn -0.824965 0.014000 -0.565010
vn -0.824965 0.014000 -0.565010
vn -0.824965 0.014000 -0.565010
vn -0.824965 0.014000 -0.565010
vn 0.995060 -0.047482 0.087184
vn 0.995060 -0.047482 0.087184
vn 0.995060 -0.047482 0.087184
vn 0.818984 -0.212916 -0.532852
vn 0.818984 -0.212916 -0.532852
vn 0.818984 -0.212916 -0.532852
vn -0.565094 0.020716 0.824766
vn -0.565094 0.020716 0.824766
vn -0.565094 0.020716 0.824766
vn -0.565094 0.020716 0.824766
vn 0.566154 0.020808 -0.824037
vn 0.566155 0.020808 -0.824037
vn 0.566154 0.020808 -0.824037
vn 0.566155 0.020808 -0.824037
vn -0.989112 0.046907 0.139486
vn -0.989112 0.046907 0.139486
vn -0.989112 0.046907 0.139486
vn -0.180809 0.030890 -0.983033
vn -0.180809 0.030890 -0.983033
vn -0.180809 0.030890 -0.983033
vn -0.829107 0.031384 -0.558209
vn -0.829107 0.031384 -0.558209
vn -0.829107 0.031384 -0.558209
vn -0.829107 0.031384 -0.558209
vn -0.469994 -0.125069 0.873764
vn -0.469994 -0.125069 0.873764
vn -0.469994 -0.125069 0.873764
vn -0.021844 -0.014951 0.999650
vn -0.021844 -0.014951 0.999650
vn -0.021844 -0.014951 0.999650
vn 0.471276 0.869545 0.147616
vn 0.471276 0.869545 0.147616
vn 0.471276 0.869545 0.147616
vn 0.471276 0.869545 0.147616
vn -0.515197 -0.781154 -0.352662
vn -0.515197 -0.781154 -0.352662
vn -0.515197 -0.781154 -0.352662
vn -0.515197 -0.781154 -0.352662
vn -0.937185 0.022573 0.348102
vn -0.937185 0.022573 0.348102
vn -0.937185 0.022573 0.348102
vn -0.937185 0.022573 0.348102
vn -0.911161 0.046305 0.409441
vn -0.911161 0.046305 0.409441
vn -0.911161 0.046305 0.409441
vn -0.911161 0.046305 0.409441
vn -0.277857 0.941521 -0.190615
vn -0.277857 0.941521 -0.190615
vn -0.277857 0.941521 -0.190615
vn -0.277857 0.941521 -0.190615
vn -0.820543 -0.000529 -0.571585
vn -0.820543 -0.000529 -0.571585
vn -0.820543 -0.000529 -0.571585
vn -0.820543 -0.000529 -0.571585
vn 0.055512 0.015813 -0.998333
vn 0.055512 0.015813 -0.998333
vn 0.055512 0.015813 -0.998333
vn 0.055512 0.015813 -0.998333
vn 0.573654 0.026536 -0.818668
vn 0.573654 0.026536 -0.818668
vn 0.573654 0.026536 -0.818668
vn 0.573654 0.026536 -0.818668
vn 0.904091 0.012828 0.427147
vn 0.904091 0.012828 0.427147
vn 0.904091 0.012828 0.427147
vn -0.247117 0.088767 0.964911
vn -0.247117 0.088767 0.964911
vn -0.247117 0.088767 0.964911
vn 0.368403 0.080136 0.926206
vn 0.368403 0.080136 0.926206
vn 0.368403 0.080136 0.926206
vn -0.819685 0.012803 -0.572671
vn -0.819685 0.012803 -0.572671
vn -0.819685 0.012803 -0.572671
vn -0.819685 0.012803 -0.572671
vn 0.456999 0.642184 -0.615427
vn 0.456999 0.642184 -0.615427
vn 0.456999 0.642184 -0.615427
vn 0.456999 0.642184 -0.615427
vn 0.904904 0.017344 0.425262
vn 0.904904 0.017344 0.425262
vn 0.904904 0.017344 0.425262
vn 0.904904 0.017344 0.425262
vn -0.127229 -0.974201 0.186402
vn -0.127229 -0.974201 0.186402
vn -0.127229 -0.974201 0.186402
vn -0.127229 -0.974201 0.186402
vn 0.650298 0.018806 0.759447
vn 0.650298 0.018806 0.759447
vn 0.650298 0.018806 0.759447
vn 0.650298 0.018806 0.759447
vn -0.711203 0.696590 -0.094618
vn -0.711203 0.696590 -0.094618
vn -0.711203 0.696590 -0.094618
vn -0.711203 0.696590 -0.094618
vn -0.942500 0.018928 -0.333669
vn -0.942500 0.018928 -0.333669
vn -0.942500 0.018928 -0.333669
vn -0.942500 0.018928 -0.333669
vn 0.777675 0.004803 0.628648
vn 0.777675 0.004803 0.628648
vn 0.777675 0.004803 0.628648
vn 0.777675 0.004803 0.628648
vn 0.000230 -1.000000 0.000389
vn 0.000230 -1.000000 0.000389
vn 0.000230 -1.000000 0.000389
vn 0.000230 -1.000000 0.000389
vn 0.000230 -1.000000 0.000389
vn -0.004806 -0.999988 0.001243
vn -0.004806 -0.999988 0.001243
vn -0.004806 -0.999988 0.001243
vn 0.887046 0.023008 0.461108
vn 0.887046 0.023008 0.461108
vn 0.887046 0.023008 0.461108
vn 0.887046 0.023008 0.461108
vn 0.561355 0.021299 -0.827301
vn 0.561355 0.021299 -0.827301
vn 0.561355 0.021299 -0.827301
vn 0.228596 0.644520 -0.729615
vn 0.228596 0.644520 -0.729615
vn 0.228597 0.644520 -0.729615
vn 0.228597 0.644520 -0.729615
vn 0.563422 0.021794 -0.825882
vn 0.563422 0.021794 -0.825882
vn 0.563422 0.021794 -0.825882
vn 0.563422 0.021794 -0.825882
vn -0.234718 0.966347 -0.105268
vn -0.234718 0.966347 -0.105268
vn -0.234718 0.966347 -0.105268
vn -0.234718 0.966347 -0.105268
vn 0.088743 0.985901 0.141857
vn 0.088743 0.985901 0.141857
vn 0.088743 0.985901 0.141857
vn 0.086960 0.069296 -0.993799
vn 0.086960 0.069296 -0.993799
vn 0.086960 0.069296 -0.993799
vn 0.086960 0.069296 -0.993799
vn -0.824288 0.038741 -0.564843
vn -0.824288 0.038741 -0.564843
vn -0.824288 0.038741 -0.564843
vn -0.824288 0.038741 -0.564843
vn -0.860425 0.052219 0.506894
vn -0.860425 0.052219 0.506894
vn -0.860425 0.052219 0.506894
vn -0.860425 0.052219 0.506894
vn -0.959459 0.093084 0.266035
vn -0.959459 0.093084 0.266035
vn -0.959459 0.093084 0.266035
vn -0.959459 0.093084 0.266035
vn -0.625160 0.070439 0.777312
vn -0.625160 0.070439 0.777312
vn -0.625160 0.070439 0.777312
vn -0.625160 0.070439 0.777312
vn 0.529424 0.057393 0.846413
vn 0.529425 0.057393 0.846413
vn 0.529424 0.057393 0.846413
vn 0.529425 0.057393 0.846413
vn 0.917070 0.053024 0.395186
vn 0.917070 0.053024 0.395186
vn 0.917070 0.053024 0.395186
vn 0.917070 0.053024 0.395186
vn 0.563811 0.068580 -0.823051
vn 0.563811 0.068580 -0.823051
vn 0.563811 0.068580 -0.823051
vn 0.563811 0.068580 -0.823051
vn -0.413937 0.788873 0.454242
vn -0.413937 0.788873 0.454242
vn -0.413937 0.788873 0.454242
vn -0.413937 0.788873 0.454242
vn -0.560549 0.028038 0.827647
vn -0.560549 0.028038 0.827647
vn -0.560549 0.028038 0.827647
vn -0.560549 0.028038 0.827647
vn 0.692631 0.071759 0.717713
vn 0.692631 0.071759 0.717713
vn 0.692631 0.071759 0.717713
vn 0.244761 0.961694 -0.123440
vn 0.244761 0.961694 -0.123440
vn 0.244761 0.961694 -0.123440
vn 0.244761 0.961694 -0.123440
vn 0.650444 0.006985 0.759522
vn 0.650444 0.006985 0.759522
vn 0.650444 0.006985 0.759522
vn 0.650444 0.006985 0.759522
vn -0.563500 -0.003263 0.826109
vn -0.563500 -0.003263 0.826109
vn -0.563500 -0.003263 0.826109
vn -0.563500 -0.003263 0.826109
vn -0.879656 0.062809 -0.471445
vn -0.879656 0.062809 -0.471445
vn -0.879656 0.062809 -0.471445
vn -0.000231 1.000000 -0.000388
vn -0.000231 1.000000 -0.000388
vn -0.000231 1.000000 -0.000388
vn -0.000231 1.000000 -0.000388
vn 0.199694 0.978727 -0.047068
vn 0.199694 0.978727 -0.047068
vn 0.199694 0.978727 -0.047068
vn 0.199694 0.978727 -0.047068
vn 0.014218 0.981886 0.188939
vn 0.014218 0.981886 0.188939
vn 0.014218 0.981886 0.188939
vn 0.014218 0.981886 0.188939
vn -0.004677 -0.999985 -0.002790
vn -0.004677 -0.999985 -0.002790
vn -0.004677 -0.999985 -0.002790
vn -0.997006 -0.072487 0.026915
vn -0.997006 -0.072487 0.026915
vn -0.997006 -0.072487 0.026915
vn 0.788073 0.007376 0.615538
vn 0.788073 0.007376 0.615538
vn 0.788073 0.007376 0.615538
vn 0.788073 0.007376 0.615538
vn 0.841566 -0.017652 0.539866
vn 0.841566 -0.017652 0.539866
vn 0.841566 -0.017652 0.539866
vn 0.841566 -0.017652 0.539866
vn -0.812167 -0.578004 -0.079346
vn -0.812167 -0.578004 -0.079346
vn -0.812167 -0.578004 -0.079346
vn -0.812167 -0.578004 -0.079346
vn -0.810947 -0.183447 -0.555619
vn -0.810947 -0.183447 -0.555619
vn -0.810947 -0.183447 -0.555619
vn -0.810947 -0.183447 -0.555619
vn 0.254422 -0.815925 -0.519169
vn 0.254422 -0.815925 -0.519169
vn 0.254422 -0.815925 -0.519169
vn 0.254422 -0.815925 -0.519169
vn 0.835508 -0.332364 0.437562
vn 0.835508 -0.332364 0.437562
vn 0.835508 -0.332364 0.437562
vn 0.835508 -0.332364 0.437562
vn -0.369101 -0.723772 0.583026
vn -0.369101 -0.723772 0.583026
vn -0.369101 -0.723772 0.583026
vn -0.369101 -0.723772 0.583026
vn -0.391669 -0.773310 0.498586
vn -0.391669 -0.773310 0.498586
vn -0.391669 -0.773310 0.498586
vn -0.391669 -0.773310 0.498586
vn 0.892625 -0.033553 -0.449549
vn 0.892625 -0.033553 -0.449549
vn 0.892625 -0.033553 -0.449549
vn 0.000131 -1.000000 0.000549
vn 0.000131 -1.000000 0.000549
vn 0.000131 -1.000000 0.000549
vn 0.000131 -1.000000 0.000549
vn -0.704081 0.007042 -0.710085
vn -0.704081 0.007042 -0.710085
vn -0.704081 0.007042 -0.710085
vn -0.704081 0.007042 -0.710085
vn -0.704081 0.007042 -0.710085
vn 0.397142 -0.711959 -0.579131
vn 0.397142 -0.711959 -0.579131
vn 0.397142 -0.711959 -0.579131
vn 0.397142 -0.711959 -0.579131
vn 0.018992 -0.998717 -0.046951
vn 0.018992 -0.998717 -0.046951
vn 0.018992 -0.998717 -0.046951
vn 0.018992 -0.998717 -0.046951
vn 0.018992 -0.998717 -0.046951
vn 0.646752 -0.740623 -0.182180
vn 0.646752 -0.740623 -0.182180
vn 0.646752 -0.740623 -0.182180
vn 0.646752 -0.740623 -0.182180
vn 0.646752 -0.740623 -0.182180
vn -0.342544 -0.605864 -0.718048
vn -0.342544 -0.605864 -0.718048
vn -0.342544 -0.605864 -0.718048
vn -0.342544 -0.605864 -0.718048
vn 0.004238 0.020970 -0.999771
vn 0.004238 0.020970 -0.999771
vn 0.004238 0.020970 -0.999771
vn 0.004238 0.020970 -0.999771
vn 0.004238 0.020970 -0.999771
s off
f 12/1/1 13/2/2 2/3/3 26/4/4
f 14/5/5 24/6/6 35/7/7
f 35/7/8 36/8/9 14/5/10
f 32/9/11 31/10/12 33/11/13 34/12/14
f 27/13/15 28/14/16 38/15/17 30/16/18
f 9/17/19 12/1/20 11/18/21
f 11/18/22 12/1/23 10/19/24
f 16/20/25 17/21/26 18/22/27 21/23/28
f 36/8/29 37/24/30 14/5/31
f 37/24/32 24/6/33 14/5/34
f 40/25/35 42/26/36 15/27/37 5/28/38
f 59/29/39 60/30/40 61/31/41 62/32/42
f 13/2/43 12/1/44 18/22/45 17/21/46
f 12/1/47 9/17/48 19/33/49 18/22/50
f 44/34/51 43/35/52 45/36/53 46/37/54
f 21/23/55 18/22/56 19/33/57 20/38/58
f 3/39/59 22/40/60 21/23/61 20/38/62
f 23/41/63 39/42/64 40/25/65 5/28/66
f 58/43/67 15/27/68 24/6/69
f 52/44/70 53/45/71 6/46/72
f 51/47/73 52/44/74 6/46/75
f 12/1/76 26/4/77 54/48/78 10/19/79
f 38/15/80 39/42/81 23/41/82 30/16/83
f 23/41/84 7/49/85 27/13/86 30/16/87
f 2/3/88 8/50/89 31/10/90 32/9/91
f 8/50/92 25/51/93 33/11/94 31/10/95
f 25/51/96 26/4/97 34/12/98 33/11/99
f 26/4/100 2/3/101 32/9/102 34/12/103
f 35/7/104 24/6/105 25/51/106 8/50/107
f 13/2/108 36/8/109 35/7/110 8/50/111 2/3/112
f 63/52/113 66/53/114 60/30/115
f 57/54/116 58/43/117 24/6/118 37/24/119
f 38/15/120 28/14/121 29/55/122
f 22/40/123 39/42/124 38/15/125 29/55/126
f 40/25/127 39/42/128 22/40/129 3/39/130
f 43/35/131 44/34/132 47/56/133 55/57/134
f 15/27/135 42/26/136 41/58/137
f 3/39/138 20/38/139 45/36/140 43/35/141
f 20/38/142 19/33/143 46/37/144 45/36/145
f 19/33/146 9/17/147 44/34/148 46/37/149
f 9/17/150 11/18/151 47/56/152 44/34/153
f 11/18/154 41/58/155 48/59/156 47/56/157
f 41/58/158 42/26/159 49/60/160 48/59/161
f 42/26/162 40/25/163 50/61/164 49/60/165
f 40/25/166 3/39/167 43/35/168 50/61/169
f 51/47/170 6/46/171 10/19/172 4/62/173
f 26/4/174 25/51/175 52/44/176 54/48/177
f 25/51/178 24/6/179 52/44/180
f 15/27/181 41/58/182 6/46/183 53/45/184
f 52/44/185 24/6/186 15/27/187 53/45/188
f 54/48/189 52/44/190 51/47/191 4/62/192
f 10/19/193 54/48/194 4/62/195
f 10/19/196 6/46/197 41/58/198 11/18/199
f 43/35/200 55/57/201 49/60/202 50/61/203
f 49/60/204 55/57/205 47/56/206 48/59/207
f 59/29/208 63/52/209 60/30/210
f 67/63/211 68/64/212 1/65/213
f 23/41/214 58/43/215 57/54/216 7/49/217
f 5/28/218 15/27/219 58/43/220 23/41/221
f 13/2/222 17/21/223 61/31/224 60/30/225
f 17/21/226 16/20/227 62/32/228 61/31/229
f 56/66/230 57/54/231 64/67/232 63/52/233
f 57/54/234 37/24/235 65/68/236 64/67/237
f 37/24/238 36/8/239 66/53/240 65/68/241
f 36/8/242 13/2/243 60/30/244 66/53/245
f 1/65/246 68/64/247 69/69/248
f 63/52/249 64/67/250 65/68/251 66/53/252
f 67/63/253 1/65/254 22/40/255 29/55/256 28/14/257
f 7/49/258 67/63/259 28/14/260 27/13/261
f 7/49/262 57/54/263 56/66/264 68/64/265 67/63/266
f 69/69/267 68/64/268 56/66/269 63/52/270 59/29/271
f 16/20/272 69/69/273 59/29/274 62/32/275
f 21/23/276 22/40/277 1/65/278 69/69/279 16/20/280
