# This file uses centimeters as units for non-parametric coordinates.

v 125.566467 434.755646 -30.541306
v 87.103241 500.000000 -30.541306
v -0.000031 500.000000 -30.541306
v 106.478020 429.276581 -39.001266
v 79.418213 488.845703 -39.000778
v -0.000031 488.845703 -39.000778
v 87.103241 369.511292 -30.541306
v -0.000031 369.511292 -30.541306
v 84.103493 397.460693 -39.000946
v -0.000031 380.665588 -39.000778
v 125.566467 434.755646 30.541306
v 87.103241 500.000000 30.541306
v -0.000031 500.000000 30.541306
v 100.011940 451.647858 39.001102
v 80.792572 485.216858 39.000778
v -0.000031 488.845703 39.000778
v 87.103241 369.511292 30.541306
v -0.000031 369.511292 30.541306
v 76.527443 383.824738 39.000778
v -0.000031 380.665588 39.000778
v 0.000017 500.000000 30.541306
v 0.000017 500.000000 -30.541306
v 21.416315 169.006287 -30.541306
v 21.416315 169.006287 30.541306
v 161.033936 413.763123 -30.541306
v 161.033936 413.763123 30.541306
v 144.337250 500.000000 30.541306
v 144.337250 500.000000 -30.541306
v 180.778229 434.755646 -30.541306
v 180.778229 434.755646 30.541306
v 167.206039 500.000000 20.873911
v 192.539124 454.160217 20.873911
v 167.206039 500.000000 -20.873911
v 192.515747 454.755646 -20.873911
v 0.000017 0.000000 30.541306
v 0.000017 0.000000 -30.541306
v 100.779564 0.000000 -30.541306
v 100.779564 0.000000 30.541306
v 35.489479 169.006256 -18.641306
v 35.489479 169.006256 18.641306
v 165.100204 400.363129 -18.641306
v 165.100204 400.363129 18.641306
v 114.885735 0.000000 18.641306
v 114.885735 0.000000 -18.641306
v 56.063454 169.006195 -18.641300
v 56.063454 169.006195 18.641312
v 175.979660 381.566193 -18.641314
v 175.979660 381.566193 18.641298
v 136.597534 0.000000 18.641306
v 136.597534 0.000000 -18.641306
v 250.000000 381.566193 18.641294
v 250.000000 400.363129 18.641306
v 250.000000 413.763123 30.541306
v 249.999969 434.755646 30.541306
v 249.999969 454.755646 20.873911
v 249.999969 500.000000 20.873911
v 249.999969 500.000000 -20.873911
v 249.999969 454.755646 -20.873911
v 249.999969 434.755646 -30.541306
v 250.000000 413.763123 -30.541306
v 250.000000 400.363129 -18.641306
v 250.000000 381.566193 -18.641317
v 162.994644 358.549347 18.641300
v 107.818932 260.746460 18.641306
v 126.911209 294.588867 6.507333
v 122.223274 298.282074 18.641302
v 71.052017 195.574493 -18.641302
v 102.934021 252.087601 -18.641304
v 77.173500 206.425247 -11.118611
v 71.769073 210.962982 -18.641306
v 77.255402 40.095894 30.541306
v 93.318855 45.908184 18.641306
v 98.596321 79.748108 15.944080
v 81.527283 115.568626 -15.944075
v 65.761162 108.930275 -18.641306
v 40.852509 123.794067 -30.541306
v 47.693287 113.048737 30.541306
v 66.503021 102.989494 18.641304
v 134.701904 367.601746 -30.541306
v 83.059448 277.069855 -30.541306
v 93.251022 314.517609 -30.541306
v 110.163857 316.479797 -25.842691
v 88.664352 263.924133 18.641306
v 67.845001 260.891907 30.541306
v 130.954620 339.412842 18.641306
v 127.872581 355.629578 30.541306
v 90.380852 405.105042 39.000984
v 24.115936 380.663666 -39.000778
v 199.041779 400.363129 -18.641306
v 210.892578 415.158295 -30.541306
v 227.514679 433.360474 -30.541306
vt 0.153967 0.990522
vt 0.169002 0.963651
vt 0.158904 0.946464
vt 0.114514 0.990522
vt 0.114514 0.936781
vt 0.176893 0.963651
vt 0.157785 0.996063
vt 0.114514 0.996063
vt 0.114514 0.931239
vt 0.157785 0.931239
vt 0.045601 0.990522
vt 0.045601 0.936781
vt 0.055585 0.972692
vt 0.006147 0.990522
vt 0.006147 0.936781
vt 0.068526 0.963651
vt 0.049418 0.996063
vt 0.006147 0.996063
vt 0.006147 0.931239
vt 0.049418 0.931239
vt 0.006147 0.747674
vt 0.114514 0.747674
vt 0.164579 0.747674
vt 0.056212 0.747674
vt 0.033998 0.831633
vt 0.142365 0.831633
vt 0.201937 0.937228
vt 0.093570 0.937228
vt 0.194512 0.953223
vt 0.114514 0.996063
vt 0.204321 0.963651
vt 0.006147 0.996063
vt 0.095954 0.963651
vt 0.077851 0.996063
vt 0.238708 0.937228
vt 0.130342 0.937228
vt 0.125153 0.831633
vt 0.016786 0.831633
vt 0.086145 0.953223
vt 0.077851 0.996063
vt 0.130342 0.996063
vt 0.089212 0.996063
vt 0.101785 0.973587
vt 0.130342 0.973587
vt 0.130342 0.996063
vt 0.197578 0.996063
vt 0.130342 0.973587
vt 0.210152 0.973587
vt 0.130342 0.953223
vt 0.130342 0.963651
vt 0.130342 0.953223
vt 0.130342 0.963651
vt 0.074006 0.747674
vt 0.074006 0.747674
vt 0.196532 0.946566
vt 0.132144 0.831633
vt 0.023778 0.831633
vt 0.088165 0.946566
vt 0.130342 0.946566
vt 0.130342 0.946566
vt 0.063220 0.747674
vt 0.171587 0.747674
vt 0.063220 0.747674
vt 0.182373 0.747674
vt 0.238708 0.946566
vt 0.130342 0.937228
vt 0.056212 0.747674
vt 0.238708 0.953223
vt 0.033998 0.831633
vt 0.006147 0.996063
vt 0.006147 0.747674
vt 0.238708 0.973587
vt 0.238708 0.963651
vt 0.089212 0.996063
vt 0.186218 0.996063
vt 0.238708 0.996063
vt 0.093570 0.937228
vt 0.087119 0.925794
vt 0.059709 0.877207
vt 0.069194 0.894019
vt 0.066865 0.895854
vt 0.041444 0.844831
vt 0.149811 0.844831
vt 0.057283 0.872906
vt 0.165649 0.872906
vt 0.044485 0.850222
vt 0.150167 0.852476
vt 0.152852 0.850222
vt 0.046859 0.767593
vt 0.052506 0.770480
vt 0.055128 0.787291
vt 0.046648 0.805086
vt 0.155015 0.805086
vt 0.146165 0.801788
vt 0.135700 0.809172
vt 0.029840 0.803834
vt 0.039184 0.798837
vt 0.181431 0.930291
vt 0.155776 0.885316
vt 0.160839 0.903920
vt 0.169338 0.904840
vt 0.050194 0.878786
vt 0.042825 0.877280
vt 0.071203 0.916287
vt 0.069672 0.924343
vt 0.051883 0.948008
vt 0.128080 0.936719
vt 0.213394 0.946566
vt 0.219281 0.953916
vt 0.227538 0.962958
vn 0.419615 0.220288 -0.880566
vn 0.419615 0.220288 -0.880566
vn 0.419615 0.220288 -0.880566
vn 0.419615 0.220288 -0.880566
vn 0.000000 0.604276 -0.796775
vn 0.000000 0.604276 -0.796775
vn 0.000000 0.604276 -0.796775
vn 0.000000 0.604276 -0.796775
vn -1.000000 0.000000 0.000000
vn -1.000000 0.000000 0.000000
vn -1.000000 0.000000 0.000000
vn -1.000000 0.000000 0.000000
vn -0.000022 -0.604385 -0.796692
vn 0.012380 -0.558929 -0.829123
vn -0.000022 -0.604385 -0.796692
vn -0.000016 0.000001 1.000000
vn -0.000016 0.000001 1.000000
vn -0.000016 0.000001 1.000000
vn -0.000016 0.000001 1.000000
vn 0.000000 0.000000 1.000000
vn 0.000000 0.000000 1.000000
vn 0.000000 0.000000 1.000000
vn 0.000000 0.000000 1.000000
vn 0.465291 0.271618 0.842454
vn 0.465291 0.271618 0.842454
vn 0.465291 0.271618 0.842454
vn 0.465291 0.271618 0.842454
vn 0.011764 0.544293 0.838813
vn 0.011764 0.544293 0.838813
vn 0.011764 0.544293 0.838813
vn 0.011764 0.544293 0.838813
vn -1.000000 0.000000 0.000000
vn -1.000000 0.000000 0.000000
vn -1.000000 0.000000 0.000000
vn -1.000000 0.000000 0.000000
vn 0.407688 -0.246508 0.879218
vn 0.407688 -0.246508 0.879218
vn 0.407688 -0.246508 0.879218
vn 0.407688 -0.246508 0.879218
vn 0.010624 -0.550254 0.834930
vn 0.010624 -0.550254 0.834930
vn 0.010624 -0.550254 0.834930
vn 0.010624 -0.550254 0.834930
vn 0.000000 -1.000000 0.000000
vn 0.000000 -1.000000 0.000000
vn 0.000000 -1.000000 0.000000
vn 0.000000 -1.000000 0.000000
vn 0.870960 -0.491354 0.000000
vn 0.870960 -0.491354 0.000000
vn 0.870960 -0.491354 0.000000
vn 0.000000 0.000000 -1.000000
vn 0.000000 0.000000 -1.000000
vn 0.000000 0.000000 -1.000000
vn 0.000000 0.000000 1.000000
vn 0.000000 0.000000 1.000000
vn 0.000000 0.000000 1.000000
vn 0.000000 -1.000000 0.000000
vn 0.000000 -1.000000 0.000000
vn 0.000000 -1.000000 0.000000
vn 0.000000 -1.000000 0.000000
vn 0.000000 0.000000 -1.000000
vn 0.000000 0.000000 -1.000000
vn 0.000000 0.000000 -1.000000
vn 0.000000 0.000000 -1.000000
vn 0.000000 0.000000 1.000000
vn 0.000000 0.000000 1.000000
vn 0.000000 0.000000 1.000000
vn 0.000000 0.000000 1.000000
vn 0.000000 0.000000 1.000000
vn 0.000000 0.000000 1.000000
vn 0.000000 0.000000 1.000000
vn 0.000000 0.000000 -1.000000
vn 0.000000 0.000000 -1.000000
vn 0.000000 0.000000 -1.000000
vn 0.000000 0.000000 1.000000
vn 0.000000 0.000000 1.000000
vn 0.000000 0.000000 1.000000
vn 0.000000 0.000000 1.000000
vn 0.000000 0.000000 1.000000
vn 0.000000 0.000000 1.000000
vn 0.000000 0.000000 1.000000
vn 0.000000 1.000000 0.000000
vn 0.000000 1.000000 0.000000
vn 0.000000 1.000000 0.000000
vn 0.000000 1.000000 0.000000
vn 0.000000 0.000000 -1.000000
vn 0.000000 0.000000 -1.000000
vn 0.000000 0.000000 -1.000000
vn 0.000000 0.000000 -1.000000
vn 0.000000 1.000000 0.000000
vn 0.000000 1.000000 0.000000
vn 0.000000 1.000000 0.000000
vn 0.000000 1.000000 0.000000
vn 0.000000 0.000000 1.000000
vn 0.000000 0.000000 1.000000
vn 0.000000 0.000000 1.000000
vn 0.000000 0.000000 1.000000
vn 0.000000 0.000000 -1.000000
vn -0.000000 0.000000 -1.000000
vn -0.000000 0.000000 -1.000000
vn 0.000000 0.000000 -1.000000
vn 0.382700 0.212820 0.899026
vn 0.382700 0.212820 0.899026
vn 0.382700 0.212820 0.899026
vn 0.382700 0.212820 0.899026
vn -0.002073 0.441001 0.897504
vn -0.002073 0.441001 0.897504
vn -0.002073 0.441001 0.897504
vn -0.002073 0.441001 0.897504
vn 0.000000 1.000000 0.000000
vn 0.000000 1.000000 0.000000
vn 0.000000 1.000000 0.000000
vn 0.000000 1.000000 0.000000
vn 0.000000 0.435195 -0.900336
vn 0.003547 0.420380 -0.907341
vn 0.000000 0.435195 -0.900336
vn 0.380154 0.212463 -0.900190
vn 0.380154 0.212463 -0.900190
vn 0.380154 0.212463 -0.900190
vn 0.380154 0.212463 -0.900190
vn -1.000000 0.000000 0.000000
vn -1.000000 0.000000 0.000000
vn -1.000000 0.000000 0.000000
vn -1.000000 0.000000 0.000000
vn -0.000000 0.000000 -1.000000
vn -0.000000 0.000000 -1.000000
vn -0.000000 0.000000 -1.000000
vn 0.902747 0.430173 0.000000
vn 0.902747 0.430173 0.000000
vn 0.902747 0.430173 0.000000
vn 0.902747 0.430173 0.000000
vn 0.000000 0.000000 1.000000
vn 0.000000 0.000000 1.000000
vn 0.000000 0.000000 1.000000
vn 0.000000 0.000000 1.000000
vn 0.631969 -0.357106 -0.687816
vn 0.631969 -0.357106 -0.687816
vn 0.631969 -0.357106 -0.687816
vn 0.631969 -0.357106 -0.687816
vn 0.555633 -0.296263 0.776853
vn 0.555633 -0.296263 0.776853
vn 0.555633 -0.296263 0.776853
vn 0.555633 -0.296263 0.776853
vn 0.003727 -0.645347 -0.763881
vn -0.003661 -0.643856 -0.765138
vn 0.000000 -0.664018 -0.747717
vn 0.000000 -0.664018 -0.747717
vn 0.000000 -0.664017 0.747717
vn 0.000000 -0.664017 0.747717
vn 0.000000 -0.664017 0.747717
vn 0.000000 -0.664017 0.747717
vn 0.617758 0.290157 0.730879
vn 0.617758 0.290157 0.730879
vn 0.617758 0.290157 0.730879
vn 0.617758 0.290157 0.730879
vn 0.000000 -1.000000 0.000000
vn 0.000000 -1.000000 0.000000
vn 0.000000 -1.000000 0.000000
vn 0.000000 -1.000000 0.000000
vn 0.574802 0.271371 -0.771984
vn 0.574802 0.271371 -0.771984
vn 0.574802 0.271371 -0.771984
vn 0.574802 0.271371 -0.771984
vn 0.000000 0.000000 -1.000000
vn 0.000000 0.000000 -1.000000
vn 0.000000 0.000000 -1.000000
vn 0.000000 0.000000 -1.000000
vn 0.000000 0.000000 1.000000
vn 0.000000 0.000000 1.000000
vn 0.000000 0.000000 1.000000
vn 0.000000 0.000000 1.000000
vn 0.000000 0.000000 1.000000
vn 0.000000 0.000000 1.000000
vn 0.000000 0.000000 1.000000
vn -0.000000 0.000001 -1.000000
vn -0.000000 0.000001 -1.000000
vn -0.000000 0.000001 -1.000000
vn -0.000000 0.000001 -1.000000
vn 0.000000 -0.000001 1.000000
vn 0.000000 -0.000001 1.000000
vn 0.000000 -0.000001 1.000000
vn 0.000000 -0.000001 1.000000
vn 0.054969 0.008692 0.998450
vn 0.054969 0.008692 0.998450
vn 0.054969 0.008692 0.998450
vn 0.054969 0.008692 0.998450
vn 0.000000 -1.000000 0.000000
vn 0.000000 -1.000000 0.000000
vn 0.000000 -1.000000 0.000000
vn 0.000000 -1.000000 0.000000
vn 0.071905 0.011607 -0.997344
vn 0.071905 0.011607 -0.997344
vn 0.071905 0.011607 -0.997344
vn 0.071905 0.011607 -0.997344
vn -0.000000 0.000000 1.000000
vn -0.000000 0.000000 1.000000
vn -0.000000 0.000000 1.000000
vn 0.000000 0.000000 -1.000000
vn 0.000000 0.000000 -1.000000
vn 0.000000 0.000000 -1.000000
vn 1.000000 0.000000 0.000000
vn 1.000000 0.000000 0.000000
vn 1.000000 0.000000 0.000000
vn 1.000000 0.000000 0.000000
vn 1.000000 0.000000 0.000000
vn 1.000000 0.000000 0.000000
vn 1.000000 0.000000 0.000000
vn 1.000000 0.000000 0.000000
vn 1.000000 0.000001 0.000000
vn 1.000000 0.000001 0.000000
vn 1.000000 0.000001 0.000000
vn 1.000000 0.000001 0.000000
vn 1.000000 0.000001 0.000000
vn 1.000000 0.000001 0.000000
vn 1.000000 0.000001 0.000000
vn 1.000000 0.000001 0.000000
vn 1.000000 0.000000 0.000000
vn 1.000000 0.000000 0.000000
vn 1.000000 0.000000 0.000000
vn 1.000000 0.000000 0.000000
vn 0.743616 -0.503063 0.440413
vn 0.743616 -0.503063 0.440413
vn 0.743616 -0.503063 0.440413
vn 0.845025 -0.324280 0.425176
vn 0.845025 -0.324280 0.425176
vn 0.845025 -0.324280 0.425176
vn 0.581615 -0.440758 -0.683708
vn 0.581615 -0.440758 -0.683708
vn 0.581615 -0.440758 -0.683708
vn 0.800777 -0.037314 -0.597799
vn 0.800777 -0.037314 -0.597799
vn 0.800777 -0.037314 -0.597799
vn 0.000000 0.000000 1.000000
vn 0.000000 0.000000 1.000000
vn 0.000000 0.000000 1.000000
vn 0.557038 0.292049 0.777442
vn 0.557038 0.292049 0.777442
vn 0.557038 0.292049 0.777442
vn 0.557038 0.292049 0.777442
vn 0.045710 0.043092 0.998025
vn 0.045710 0.043092 0.998025
vn 0.045710 0.043092 0.998025
vn 0.045710 0.043092 0.998025
vn 0.902747 0.430173 0.000000
vn 0.902747 0.430173 0.000000
vn 0.902747 0.430173 0.000000
vn 0.902747 0.430173 0.000000
vn 0.064345 0.041843 -0.997050
vn 0.064345 0.041843 -0.997050
vn 0.064345 0.041843 -0.997050
vn 0.064345 0.041843 -0.997050
vn 0.574202 0.269063 -0.773238
vn 0.574202 0.269063 -0.773238
vn 0.574202 0.269063 -0.773238
vn 0.574202 0.269063 -0.773238
vn 0.000000 0.000000 -1.000000
vn 0.000000 0.000000 -1.000000
vn 0.000000 0.000000 -1.000000
vn 0.566663 0.245684 0.786468
vn 0.566663 0.245684 0.786468
vn 0.566663 0.245684 0.786468
vn 0.566663 0.245684 0.786468
vn 0.126135 0.059256 0.990242
vn 0.126135 0.059256 0.990242
vn 0.126135 0.059256 0.990242
vn 0.284842 -0.222419 -0.932414
vn 0.284842 -0.222419 -0.932414
vn 0.284842 -0.222419 -0.932414
vn 0.274976 -0.074836 -0.958534
vn 0.274976 -0.074836 -0.958534
vn 0.274976 -0.074836 -0.958534
vn 0.000000 -0.000000 1.000000
vn 0.000000 -0.000000 1.000000
vn 0.000000 -0.000000 1.000000
vn 0.563482 -0.338692 0.753509
vn 0.563482 -0.338692 0.753509
vn 0.563482 -0.338692 0.753509
vn 0.563482 -0.338692 0.753509
vn 0.000000 -0.000000 1.000000
vn 0.000000 -0.000000 1.000000
vn 0.000000 -0.000000 1.000000
vn 0.000000 -0.000000 1.000000
vn 0.000000 -0.000000 1.000000
vn 0.000000 -0.000000 1.000000
vn 0.000000 -0.000000 1.000000
vn 0.655565 -0.370529 0.657984
vn 0.655565 -0.370529 0.657984
vn 0.655565 -0.370529 0.657984
vn 0.655565 -0.370529 0.657984
vn 0.279132 -0.057763 0.958514
vn 0.279132 -0.057763 0.958514
vn 0.279132 -0.057763 0.958514
vn 0.397621 -0.253719 -0.881773
vn 0.397621 -0.253719 -0.881773
vn 0.409492 -0.256674 -0.875462
vn 0.397621 -0.253719 -0.881773
vn -0.000022 -0.604385 -0.796692
vn -0.000022 -0.604385 -0.796692
vn -0.000022 -0.604385 -0.796692
vn 0.012380 -0.558929 -0.829123
vn 0.000000 0.000000 -1.000000
vn 0.000000 0.000000 -1.000000
vn 0.000000 0.000000 -1.000000
vn 0.000000 0.000000 -1.000000
vn -0.000016 0.000001 -1.000000
vn -0.000016 0.000001 -1.000000
vn -0.000007 0.000001 -1.000000
vn -0.000007 0.000001 -1.000000
vn -0.000000 0.000001 -1.000000
vn -0.000000 0.000001 -1.000000
vn -0.000000 0.000001 -1.000000
vn 0.000000 -0.664018 -0.747717
vn -0.003661 -0.643856 -0.765138
vn 0.003727 -0.645347 -0.763881
vn 0.000000 -0.664018 -0.747717
vn -0.000000 0.000000 -1.000000
vn -0.000000 0.000000 -1.000000
vn 0.000000 0.000000 -1.000000
vn 0.000000 0.000000 -1.000000
vn 0.000000 0.435195 -0.900336
vn 0.003547 0.420380 -0.907341
vn 0.000000 0.435195 -0.900336
vn 0.000000 0.435195 -0.900336
vn 0.870960 -0.491354 0.000000
vn 0.870960 -0.491354 0.000000
vn 0.870960 -0.491354 0.000000
vn 0.870960 -0.491354 0.000000
vn 0.870960 -0.491354 0.000000
vn 0.870960 -0.491354 0.000000
vn 0.870960 -0.491354 0.000000
vn 0.870960 -0.491354 0.000000
vn 0.870960 -0.491354 0.000000
vn 0.870960 -0.491354 0.000000
vn 0.870960 -0.491354 0.000000
vn 0.870960 -0.491354 0.000000
vn 0.870960 -0.491354 0.000000
vn 0.870960 -0.491354 0.000000
vn 0.870960 -0.491354 0.000000
vn 0.000000 0.000000 -1.000000
vn 0.000000 0.000000 -1.000000
vn 0.000000 0.000000 -1.000000
vn 0.000000 0.000000 -1.000000
vn 0.000000 0.000000 -1.000000
vn 0.000000 0.000000 -1.000000
vn 0.000000 0.000000 -1.000000
vn 0.631969 -0.357106 -0.687816
vn 0.631969 -0.357106 -0.687816
vn 0.631969 -0.357106 -0.687816
vn 0.631969 -0.357106 -0.687816
vn 0.631969 -0.357106 -0.687816
vn 0.631969 -0.357106 -0.687816
vn 0.631969 -0.357106 -0.687816
vn 0.000000 0.000000 -1.000000
vn 0.000000 0.000000 -1.000000
vn 0.000000 0.000000 -1.000000
vn 0.000000 0.000000 -1.000000
s off
f 1/6/1 4/2/2 5/1/3 2/7/4
f 2/7/5 5/1/6 6/4/7 3/8/8
f 8/9/9 3/8/10 6/4/11 10/5/12
f 7/10/13 88/107/14 9/3/15
f 15/11/16 19/12/17 87/106/18 14/13/19
f 16/14/20 20/15/21 19/12/22 15/11/23
f 11/16/24 12/17/25 15/11/26 14/13/27
f 12/17/28 13/18/29 16/14/30 15/11/31
f 18/19/32 20/15/33 16/14/34 13/18/35
f 11/16/36 87/106/37 19/12/38 17/20/39
f 17/20/40 19/12/41 20/15/42 18/19/43
f 35/21/44 36/71/45 37/67/46 38/24/47
f 64/79/48 68/84/49 65/80/50
f 25/29/51 22/30/52 29/31/53
f 21/32/54 30/33/55 27/34/56
f 48/28/57 47/77/58 62/66/59 51/36/60
f 25/29/61 79/98/62 81/100/63 22/30/64
f 24/38/65 84/103/66 21/32/67
f 21/32/68 84/103/69 86/105/70 26/39/71
f 22/30/72 28/75/73 29/31/74
f 21/32/75 26/39/76 30/33/77
f 56/41/78 31/42/79 32/43/80 55/44/81
f 31/42/82 56/41/83 57/45/84 33/74/85
f 33/46/86 57/76/87 58/72/88 34/48/89
f 21/32/90 27/34/91 28/40/92 22/70/93
f 53/49/94 54/50/95 30/33/96 26/39/97
f 60/68/98 90/109/99 91/110/100 59/73/101
f 27/34/102 30/33/103 32/43/104 31/42/105
f 30/33/106 54/50/107 55/44/108 32/43/109
f 28/40/110 27/34/111 31/42/112 33/74/113
f 59/73/114 91/110/115 58/72/116
f 29/31/117 28/75/118 33/46/119 34/48/120
f 21/32/121 22/70/122 36/71/123 35/21/124
f 22/30/125 23/37/126 36/22/127
f 45/69/128 46/25/129 73/91/130 74/92/131
f 24/38/132 35/21/133 71/89/134 77/96/135
f 41/55/136 82/101/137 79/98/138 25/29/139
f 83/102/140 84/103/141 24/38/142 40/57/143
f 89/108/144 90/109/145 60/68/146 61/65/147
f 53/49/148 26/39/149 42/58/150 52/60/151
f 24/38/152 77/96/153 78/97/154 40/57/155
f 38/24/156 37/67/157 44/63/158 43/61/159
f 75/94/160 76/95/161 23/37/162 39/56/163
f 39/56/164 70/87/165 67/83/166 45/26/167
f 66/81/168 83/102/169 64/79/170
f 83/102/171 40/57/172 46/25/173 64/79/174
f 47/27/175 89/108/176 61/65/177 62/35/178
f 52/60/179 42/58/180 48/28/181 51/36/182
f 40/57/183 78/97/184 73/91/185 46/25/186
f 43/61/187 44/63/188 50/54/189 49/53/190
f 74/93/191 75/94/192 39/56/193 45/26/194
f 24/38/195 21/32/196 35/21/197
f 36/22/198 23/37/199 76/95/200
f 56/41/201 55/44/202 58/47/203 57/45/204
f 55/44/205 54/50/206 59/52/207 58/47/208
f 54/50/209 53/49/210 60/51/211 59/52/212
f 53/49/213 52/60/214 61/59/215 60/51/216
f 52/60/217 51/36/218 62/66/219 61/59/220
f 66/81/221 65/80/222 63/78/223
f 64/79/224 65/80/225 66/81/226
f 69/88/227 70/87/228 68/85/229
f 67/83/230 70/87/231 69/88/232
f 71/89/233 35/21/234 38/24/235
f 72/90/236 71/89/237 38/24/238 43/61/239
f 73/91/240 72/90/241 43/61/242 49/53/243
f 74/92/244 73/91/245 49/53/246 50/54/247
f 44/62/248 75/94/249 74/93/250 50/64/251
f 37/23/252 76/95/253 75/94/254 44/62/255
f 36/22/256 76/95/257 37/23/258
f 78/97/259 77/96/260 71/89/261 72/90/262
f 73/91/263 78/97/264 72/90/265
f 82/101/266 81/100/267 79/98/268
f 80/99/269 81/100/270 82/101/271
f 66/81/272 85/104/273 83/102/274
f 85/104/275 86/105/276 84/103/277 83/102/278
f 66/81/279 63/78/280 85/104/281
f 42/58/282 85/104/283 63/78/284 48/28/285
f 26/39/286 86/105/287 85/104/288 42/58/289
f 11/16/290 14/13/291 87/106/292
f 1/6/293 7/10/294 9/3/295 4/2/296
f 7/10/297 8/9/298 10/5/299 88/107/300
f 6/4/301 5/1/302 88/107/303 10/5/304
f 5/1/305 4/2/306 9/3/307 88/107/308
f 41/55/309 89/108/310 47/27/311
f 25/29/312 90/109/313 89/108/314 41/55/315
f 91/110/316 90/109/317 25/29/318 29/31/319
f 58/72/320 91/110/321 29/31/322 34/48/323
f 46/25/324 45/69/325 67/82/326 69/86/327
f 46/25/328 69/86/329 68/84/330 64/79/331
f 65/80/332 47/77/333 48/28/334 63/78/335
f 65/80/336 68/84/337 47/77/338
f 70/87/339 41/55/340 47/27/341 68/85/342
f 39/56/343 41/55/344 70/87/345
f 23/37/346 80/99/347 82/101/348 39/56/349
f 39/56/350 82/101/351 41/55/352
f 22/30/353 81/100/354 80/99/355 23/37/356
