# This file uses centimeters as units for non-parametric coordinates.

v 71.417274 -27.449045 35.592064
v 35.708645 27.449062 35.592064
v 0.000000 -27.449034 35.592064
v 35.261810 15.935738 41.780941
v 11.541327 -17.727060 41.780941
v 499.920929 -27.449102 35.592064
v 464.212280 27.449005 35.592064
v 428.503662 -27.449091 35.592064
v 486.307129 -18.661175 41.780941
v 441.980530 -19.839174 41.780941
v 428.503662 -27.449093 35.592064
v 392.795013 27.449017 35.592064
v 357.086365 -27.449081 35.592064
v 392.973969 15.870770 41.780941
v 368.530792 -21.590193 41.780941
v 357.086365 -27.449083 35.592064
v 321.377747 27.449024 35.592064
v 285.669098 -27.449072 35.592064
v 345.717712 -21.321060 41.780941
v 322.825348 15.752693 41.780941
v 297.881592 -19.768244 41.780941
v 285.669098 -27.449074 35.592064
v 249.960480 27.449036 35.592064
v 214.251831 -27.449062 35.592064
v 224.472183 -21.620457 41.780941
v 214.251831 -27.449064 35.592064
v 178.543213 27.449043 35.592064
v 142.834549 -27.449053 35.592064
v 201.622147 -20.609671 41.780941
v 178.840469 19.259747 41.780941
v 142.834549 -27.449055 35.592064
v 107.125923 27.449055 35.592064
v 71.417274 -27.449043 35.592064
v 131.410461 -18.972847 41.780941
v 108.664894 17.564436 41.780941
v 83.183250 -21.126669 41.780941
v 0.000000 -40.540745 29.408363
v 500.000000 -40.540745 29.408363
v 0.000000 40.540749 29.408363
v 500.000000 40.540749 29.408363
v 0.000000 40.540749 0.000000
v 500.000000 40.540749 0.000000
v 0.000000 -40.540745 0.000000
v 500.000000 -40.540745 0.000000
v 0.000000 -27.449036 35.592064
v 0.000000 27.449034 35.592064
v 500.000000 27.449034 35.592064
v 500.000000 -27.449036 35.592064
v 104.164986 27.449034 35.592064
v 40.205509 27.449034 35.592064
v 63.340996 19.544392 35.592064
v 71.953934 31.521187 33.668636
v 364.845673 27.449032 35.592064
v 321.548798 27.449034 35.592064
v 342.754425 21.250286 35.592064
v 348.651062 33.441288 32.761700
v 53.843071 -9.643598 41.780941
v 40.076855 -17.648550 41.780941
v 65.121437 -22.190605 38.894581
v 467.791321 11.383261 41.780941
v 455.504852 4.891662 41.780941
v 463.691193 23.202982 38.663864
v 412.356232 -12.381193 41.780941
v 407.467621 -19.873384 41.780941
v 421.709686 -22.637026 39.312439
v 268.873413 -13.473558 41.780941
v 256.655975 7.910872 41.780941
v 245.607285 10.076949 41.780941
v 260.842743 -21.413538 41.780941
v 275.829010 -22.563633 40.543167
v 162.401749 -9.655083 41.780941
v 165.579758 -20.053377 41.780941
v 150.099304 -23.463644 38.865593
vt 0.039114 0.548126
vt 0.022991 0.573023
vt 0.009937 0.550496
vt 0.006867 0.548126
vt 0.229524 0.550496
vt 0.232594 0.548126
vt 0.216471 0.573022
vt 0.200347 0.548126
vt 0.200347 0.548126
vt 0.184224 0.573022
vt 0.171171 0.550496
vt 0.168101 0.548126
vt 0.151977 0.570652
vt 0.165031 0.550496
vt 0.168101 0.548126
vt 0.151977 0.573022
vt 0.138924 0.550496
vt 0.135854 0.548126
vt 0.135854 0.548126
vt 0.119515 0.573414
vt 0.103607 0.548126
vt 0.087484 0.570652
vt 0.103607 0.548126
vt 0.087484 0.573023
vt 0.071361 0.548126
vt 0.055237 0.570652
vt 0.068291 0.550496
vt 0.071361 0.548126
vt 0.055237 0.573023
vt 0.042184 0.550496
vt 0.039114 0.548126
vt 0.022991 0.550496
vt 0.037579 0.549311
vt 0.222998 0.560574
vt 0.216471 0.571837
vt 0.184224 0.550496
vt 0.198813 0.549311
vt 0.124082 0.563934
vt 0.119731 0.550496
vt 0.134319 0.549311
vt 0.080957 0.560574
vt 0.072896 0.549311
vt 0.087484 0.550496
vt 0.113204 0.560574
vt 0.128433 0.557215
vt 0.190751 0.560574
vt 0.209944 0.560574
vt 0.029517 0.560574
vt 0.100538 0.550496
vt 0.106677 0.550496
vt 0.184224 0.570652
vt 0.203417 0.550496
vt 0.022991 0.570652
vt 0.133141 0.909560
vt 0.139140 0.893249
vt 0.139140 0.906726
vt 0.107982 0.909560
vt 0.101982 0.893249
vt 0.101982 0.906726
vt 0.139140 0.909560
vt 0.133141 0.893249
vt 0.139140 0.896083
vt 0.101982 0.909560
vt 0.107982 0.893249
vt 0.101982 0.896083
vt 0.235132 0.908143
vt 0.005991 0.908143
vt 0.005991 0.894666
vt 0.235132 0.894666
vt 0.235132 0.908143
vt 0.005991 0.908143
vt 0.005991 0.894666
vt 0.235132 0.894666
vt 0.109701 0.897916
vt 0.129670 0.897897
vt 0.121843 0.916183
vt 0.108409 0.902452
vt 0.126325 0.894204
vt 0.126322 0.915435
vt 0.235132 0.913984
vt 0.206104 0.892448
vt 0.216706 0.888825
vt 0.235132 0.888825
vt 0.005991 0.913984
vt 0.078053 0.891666
vt 0.202157 0.886959
vt 0.235132 0.882825
vt 0.005991 0.888825
vt 0.067929 0.888825
vt 0.087772 0.888825
vt 0.187395 0.888825
vt 0.235132 0.919984
vt 0.005991 0.919984
vt 0.075351 0.886079
vt 0.005991 0.882825
vt 0.235132 0.919983
vt 0.005991 0.919983
vt 0.005991 0.882825
vt 0.235132 0.882825
vt 0.114254 0.905305
vt 0.113515 0.898045
vt 0.128004 0.898046
vt 0.121910 0.915907
vt 0.110567 0.908301
vt 0.118685 0.894312
vt 0.124392 0.897137
vt 0.130888 0.908303
vt 0.111064 0.905388
vt 0.111064 0.901288
vt 0.125580 0.895301
vt 0.125576 0.915800
vt 0.125134 0.896956
vt 0.125130 0.914416
vt 0.111317 0.905087
vt 0.120371 0.894972
vt 0.110274 0.900018
vt 0.124143 0.892965
vt 0.124146 0.914009
vt 0.111030 0.906243
vt 0.109929 0.901383
vn -0.640547 0.429841 0.636346
vn -0.640547 0.429841 0.636346
vn -0.640547 0.429841 0.636346
vn -0.640547 0.429841 0.636346
vn 0.086538 -0.148821 0.985070
vn 0.086538 -0.148821 0.985070
vn 0.086538 -0.148821 0.985070
vn 0.006131 -0.602426 0.798152
vn 0.006131 -0.602426 0.798152
vn 0.006131 -0.602426 0.798152
vn 0.006131 -0.602426 0.798152
vn -0.114183 0.216111 0.969669
vn -0.114183 0.216111 0.969669
vn -0.114183 0.216111 0.969669
vn -0.581067 0.378439 0.720517
vn -0.581067 0.378439 0.720517
vn -0.581067 0.378439 0.720517
vn -0.581067 0.378439 0.720517
vn 0.151313 -0.098730 0.983543
vn 0.151313 -0.098730 0.983543
vn 0.151313 -0.098730 0.983543
vn 0.621362 0.395908 0.676141
vn 0.621362 0.395908 0.676141
vn 0.621362 0.395908 0.676141
vn 0.621362 0.395908 0.676141
vn -0.559404 0.375245 0.739093
vn -0.559404 0.375245 0.739093
vn -0.559404 0.375245 0.739093
vn -0.559404 0.375245 0.739093
vn -0.008687 -0.667148 0.744875
vn -0.008687 -0.667148 0.744875
vn -0.008687 -0.667148 0.744875
vn -0.008687 -0.667148 0.744875
vn -0.000000 0.000000 1.000000
vn -0.000000 0.000000 1.000000
vn -0.000000 0.000000 1.000000
vn 0.076193 -0.077063 0.994111
vn 0.076193 -0.077063 0.994111
vn 0.076193 -0.077063 0.994111
vn 0.630908 0.389395 0.671064
vn 0.630908 0.389395 0.671064
vn 0.630908 0.389395 0.671064
vn 0.630908 0.389395 0.671064
vn -0.173516 -0.053032 0.983402
vn -0.173516 -0.053032 0.983402
vn -0.173516 -0.053032 0.983402
vn 0.679162 0.434185 0.591796
vn 0.679162 0.434185 0.591796
vn 0.679162 0.434185 0.591796
vn 0.679162 0.434185 0.591796
vn -0.575166 0.376054 0.726476
vn -0.575166 0.376054 0.726476
vn -0.575166 0.376054 0.726476
vn -0.575166 0.376054 0.726476
vn 0.011552 -0.641693 0.766875
vn 0.011552 -0.641693 0.766875
vn 0.011552 -0.641693 0.766875
vn 0.011552 -0.641693 0.766875
vn -0.000000 0.000000 1.000000
vn -0.000000 0.000000 1.000000
vn -0.000000 0.000000 1.000000
vn 0.000000 1.000000 0.000000
vn 0.000000 1.000000 0.000000
vn 0.000000 1.000000 0.000000
vn 0.000000 1.000000 0.000000
vn 0.000000 -1.000000 0.000000
vn 0.000000 -1.000000 0.000000
vn 0.000000 -1.000000 0.000000
vn 0.000000 -1.000000 0.000000
vn 0.000000 0.000000 1.000000
vn 0.000000 0.000000 1.000000
vn 0.000000 0.000000 1.000000
vn 0.000000 0.000000 1.000000
vn 0.000000 0.427091 0.904209
vn 0.000000 0.427091 0.904209
vn 0.000000 0.427091 0.904209
vn 0.000000 0.427091 0.904209
vn 1.000000 -0.000004 0.000000
vn 1.000000 -0.000004 0.000000
vn 1.000000 -0.000004 0.000000
vn -1.000000 0.000000 0.000000
vn -1.000000 0.000000 0.000000
vn -1.000000 0.000000 0.000000
vn 0.000000 -0.427091 0.904209
vn 0.000000 -0.427091 0.904209
vn 0.000000 -0.427091 0.904209
vn 0.000000 -0.427091 0.904209
vn 1.000000 0.000004 0.000000
vn 1.000000 0.000004 0.000000
vn 1.000000 0.000004 0.000000
vn -1.000000 0.000000 0.000000
vn -1.000000 0.000000 0.000000
vn -1.000000 0.000000 0.000000
vn 1.000000 0.000000 0.000000
vn 1.000000 0.000000 0.000000
vn 1.000000 0.000000 0.000000
vn 1.000000 0.000000 0.000000
vn 0.000000 0.000000 -1.000000
vn 0.000000 0.000000 -1.000000
vn 0.000000 0.000000 -1.000000
vn 0.000000 0.000000 -1.000000
vn -1.000000 0.000000 0.000000
vn -1.000000 0.000000 0.000000
vn -1.000000 0.000000 0.000000
vn -1.000000 0.000000 0.000000
vn 0.043645 0.127740 0.990847
vn 0.043645 0.127740 0.990847
vn 0.043645 0.127740 0.990847
vn -0.035491 0.183295 0.982417
vn -0.035491 0.183295 0.982417
vn -0.035491 0.183295 0.982417
vn 0.058168 0.198990 0.978274
vn 0.058168 0.198990 0.978274
vn 0.058168 0.198990 0.978274
vn -0.072603 0.258744 0.963214
vn -0.072603 0.258744 0.963214
vn -0.072603 0.258744 0.963214
vn 0.000000 0.000000 1.000000
vn 0.000000 0.000000 1.000000
vn 0.000000 0.000000 1.000000
vn 0.000000 0.000000 1.000000
vn -0.000000 0.000000 1.000000
vn -0.000000 0.000000 1.000000
vn -0.000000 0.000000 1.000000
vn -0.000000 0.000000 1.000000
vn 0.000000 0.000000 1.000000
vn 0.000000 0.000000 1.000000
vn 0.000000 0.000000 1.000000
vn 0.000000 0.000000 1.000000
vn 0.000000 0.427091 0.904209
vn 0.000000 0.427091 0.904209
vn 0.000000 0.427091 0.904209
vn 0.000000 0.427091 0.904209
vn 0.000000 0.427091 0.904209
vn 0.000000 0.427091 0.904209
vn 0.000000 0.427091 0.904209
vn 0.000000 0.427091 0.904209
vn 0.000000 0.427091 0.904209
vn 0.000000 0.427091 0.904209
vn 0.000000 0.427091 0.904209
vn 0.000000 0.427091 0.904209
vn 0.613464 0.415434 0.671623
vn 0.613464 0.415434 0.671623
vn 0.613464 0.415434 0.671623
vn 0.613464 0.415434 0.671623
vn 0.613464 0.415434 0.671623
vn 0.613464 0.415434 0.671623
vn 0.613464 0.415434 0.671623
vn -0.000000 0.000000 1.000000
vn -0.000000 0.000000 1.000000
vn -0.000000 0.000000 1.000000
vn -0.000000 0.000000 1.000000
vn 0.000519 -0.534731 0.845022
vn 0.000519 -0.534731 0.845022
vn 0.000519 -0.534731 0.845022
vn 0.000519 -0.534731 0.845022
vn 0.000519 -0.534731 0.845022
vn 0.000519 -0.534731 0.845022
vn 0.000519 -0.534731 0.845022
vn -0.625086 0.382894 0.680191
vn -0.625086 0.382894 0.680191
vn -0.625086 0.382894 0.680191
vn -0.625086 0.382894 0.680191
vn -0.625086 0.382894 0.680191
vn -0.625086 0.382894 0.680191
vn -0.625086 0.382894 0.680191
vn -0.000000 0.000000 1.000000
vn -0.000000 0.000000 1.000000
vn -0.000000 0.000000 1.000000
vn -0.000000 0.000000 1.000000
vn 0.597969 0.381167 0.705085
vn 0.597969 0.381167 0.705085
vn 0.597969 0.381167 0.705085
vn 0.597969 0.381167 0.705085
vn 0.597969 0.381167 0.705085
vn 0.597969 0.381167 0.705085
vn 0.597969 0.381167 0.705085
vn 0.615436 0.408458 0.674093
vn 0.615436 0.408458 0.674093
vn 0.615436 0.408458 0.674093
vn 0.615436 0.408458 0.674093
vn 0.615436 0.408458 0.674093
vn 0.615436 0.408458 0.674093
vn 0.615436 0.408458 0.674093
vn -0.000000 0.000000 1.000000
vn -0.000000 0.000000 1.000000
vn -0.000000 0.000000 1.000000
vn -0.000000 0.000000 1.000000
vn 0.011366 -0.668838 0.743321
vn 0.011366 -0.668838 0.743321
vn 0.011366 -0.668838 0.743321
vn 0.011366 -0.668838 0.743321
vn 0.011366 -0.668838 0.743321
vn 0.011366 -0.668838 0.743321
vn 0.011366 -0.668838 0.743321
vn 0.062911 0.320903 0.945020
vn 0.062911 0.320903 0.945020
vn 0.062911 0.320903 0.945020
vn 0.001613 -0.719967 0.694006
vn 0.001613 -0.719967 0.694006
vn 0.001613 -0.719967 0.694006
vn 0.001613 -0.719967 0.694006
vn 0.001613 -0.719967 0.694006
vn 0.001613 -0.719967 0.694006
vn 0.001613 -0.719967 0.694006
vn -0.618900 0.406263 0.672245
vn -0.618900 0.406263 0.672245
vn -0.618900 0.406263 0.672245
vn -0.618900 0.406263 0.672245
vn 0.000000 0.000000 1.000000
vn 0.000000 0.000000 1.000000
vn 0.000000 0.000000 1.000000
vn 0.000000 0.000000 1.000000
vn 0.000000 0.000000 1.000000
vn 0.000000 0.000000 1.000000
vn 0.000000 0.000000 1.000000
vn 0.614208 0.383223 0.689847
vn 0.614208 0.383223 0.689847
vn 0.614208 0.383223 0.689847
vn 0.614208 0.383223 0.689847
vn 0.614208 0.383223 0.689847
vn 0.614208 0.383223 0.689847
vn 0.614208 0.383223 0.689847
vn -0.003667 -0.653445 0.756965
vn -0.003667 -0.653445 0.756965
vn -0.003667 -0.653445 0.756965
vn -0.003667 -0.653445 0.756965
vn -0.003667 -0.653445 0.756965
vn -0.003667 -0.653445 0.756965
vn -0.003667 -0.653445 0.756965
vn 0.000000 0.000000 1.000000
vn 0.000000 0.000000 1.000000
vn 0.000000 0.000000 1.000000
vn 0.000000 0.000000 1.000000
vn -0.608811 0.376808 0.698115
vn -0.608811 0.376808 0.698115
vn -0.608811 0.376808 0.698115
vn -0.608811 0.376808 0.698115
vn -0.608811 0.376808 0.698115
vn -0.608811 0.376808 0.698115
vn -0.608811 0.376808 0.698115
s off
f 5/3/1 4/53/2 2/2/3 3/4/4
f 59/33/5 57/48/6 58/32/7
f 9/5/8 10/52/9 8/8/10 6/6/11
f 62/35/12 61/47/13 60/34/14
f 15/11/15 14/51/16 12/10/17 13/12/18
f 65/37/19 63/46/20 64/36/21
f 20/13/22 19/14/23 16/15/24 17/16/25
f 21/17/26 20/13/27 17/16/28 18/18/29
f 19/14/30 21/17/31 18/18/32 16/15/33
f 19/74/34 20/75/35 21/76/36
f 70/40/37 66/45/38 69/39/39
f 30/22/40 29/49/41 26/23/42 27/24/43
f 73/42/44 72/43/45 71/41/46
f 35/26/47 34/27/48 31/28/49 32/29/50
f 36/30/51 35/26/52 32/29/53 33/31/54
f 34/27/55 36/30/56 33/31/57 31/28/58
f 34/77/59 35/78/60 36/79/61
f 39/66/62 40/67/63 42/68/64 41/69/65
f 43/70/66 44/71/67 38/72/68 37/73/69
f 45/80/70 51/81/71 50/82/72 46/83/73
f 40/95/74 56/94/75 53/89/76 47/88/77
f 47/54/78 42/55/79 40/56/80
f 41/60/81 46/61/82 39/62/83
f 37/92/84 38/93/85 48/84/86 45/80/87
f 38/59/88 44/58/89 48/57/90
f 43/63/91 37/65/92 45/64/93
f 42/55/94 47/54/95 48/57/96 44/58/97
f 41/96/98 42/97/99 44/98/100 43/99/101
f 41/60/102 43/63/103 45/64/104 46/61/105
f 50/82/106 51/81/107 52/86/108
f 52/86/109 51/81/110 49/91/111
f 54/90/112 55/85/113 56/94/114
f 56/94/115 55/85/116 53/89/117
f 51/81/118 55/85/119 54/90/120 49/91/121
f 47/88/122 53/89/123 55/85/124 48/84/125
f 48/84/126 55/85/127 51/81/128 45/80/129
f 56/94/130 52/86/131 49/91/132 54/90/133
f 46/83/134 50/82/135 52/86/136 39/87/137
f 39/87/138 52/86/139 56/94/140 40/95/141
f 1/1/142 2/2/143 59/33/144
f 57/48/145 59/33/146 2/2/147 4/53/148
f 58/100/149 57/101/150 4/102/151 5/103/152
f 5/3/153 3/4/154 1/1/155 58/32/156
f 59/33/157 58/32/158 1/1/159
f 7/7/160 8/8/161 10/52/162 62/35/163
f 10/52/164 61/47/165 62/35/166
f 9/104/167 60/105/168 61/106/169 10/107/170
f 9/5/171 6/6/172 7/7/173 62/35/174
f 62/35/175 60/34/176 9/5/177
f 11/9/178 12/10/179 65/37/180
f 63/46/181 65/37/182 12/10/183 14/51/184
f 64/108/185 63/109/186 14/110/187 15/111/188
f 15/11/189 13/12/190 11/9/191 65/37/192
f 65/37/193 64/36/194 15/11/195
f 23/20/196 68/44/197 67/38/198
f 24/21/199 22/19/200 70/40/201 69/39/202
f 69/39/203 25/50/204 24/21/205
f 25/50/206 68/44/207 23/20/208 24/21/209
f 68/112/210 25/113/211 69/114/212 67/115/213
f 69/114/214 66/116/215 67/115/216
f 22/19/217 23/20/218 67/38/219 66/45/220
f 66/45/221 70/40/222 22/19/223
f 28/25/224 26/23/225 73/42/226
f 72/43/227 73/42/228 26/23/229 29/49/230
f 29/117/231 30/118/232 71/119/233 72/120/234
f 27/24/235 28/25/236 73/42/237 71/41/238
f 71/41/239 30/22/240 27/24/241
