# This file uses centimeters as units for non-parametric coordinates.

v -0.001465 -0.000006 -0.004395
v 0.000000 -0.000009 124.997070
v 0.000000 12.499992 124.997070
v 0.000000 12.499992 93.746094
v 0.000000 24.999992 93.746094
v 0.000000 24.999992 62.495117
v 0.000000 37.499989 62.495117
v 0.000000 37.499989 31.245117
v 0.000000 49.999992 31.245117
v -0.001465 49.999992 -0.004395
v 62.499512 37.499992 62.496582
v 31.249512 37.499989 31.246582
v 111.557381 12.499992 124.998375
v 125.001465 -0.000009 124.998535
v 93.750488 12.499992 93.747559
v 62.499512 24.999992 62.496582
v 92.383774 24.999990 91.872757
v 29.640167 49.999992 30.537642
v 125.000000 -0.000009 -0.002930
v 125.000000 12.499992 -0.002930
v 93.749023 12.499992 -0.002930
v 93.749023 24.999992 -0.002930
v 62.498047 24.999992 -0.002930
v 62.498047 37.499989 -0.002930
v 31.248047 37.499989 -0.002930
v 31.248047 49.999992 -0.002930
v 125.001465 2.032277 124.998535
v 125.001221 12.499992 103.266571
v 7.844315 37.499989 62.495300
v 50.958790 37.499992 62.496311
v 35.411705 37.499989 56.037842
v 28.839359 34.164719 62.495796
vt 0.097202 0.960450
vt 0.082150 0.921472
vt 0.080534 0.924773
vt 0.084934 0.935307
vt 0.083376 0.938723
vt 0.087635 0.948731
vt 0.086133 0.952254
vt 0.090258 0.961762
vt 0.088808 0.965385
vt 0.092684 0.974435
vt 0.112783 0.951061
vt 0.103404 0.961182
vt 0.128732 0.922475
vt 0.136430 0.918854
vt 0.125098 0.933423
vt 0.114228 0.947523
vt 0.123308 0.937482
vt 0.101260 0.965053
vt 0.024465 0.895254
vt 0.012196 0.870111
vt 0.007797 0.859577
vt 0.009412 0.856277
vt 0.014898 0.883535
vt 0.010639 0.873527
vt 0.017520 0.896567
vt 0.013396 0.887059
vt 0.019946 0.909239
vt 0.016071 0.900190
vt 0.030667 0.895986
vt 0.040046 0.885865
vt 0.041491 0.882328
vt 0.063693 0.853658
vt 0.063559 0.861553
vt 0.052361 0.868227
vt 0.050287 0.872134
vt 0.029010 0.900101
vt 0.063369 0.854204
vt 0.136100 0.919401
vt 0.052422 0.857449
vt 0.089478 0.952105
vt 0.107863 0.951281
vt 0.102051 0.953546
vt 0.098816 0.950760
vn -1.000000 0.000023 0.000009
vn -1.000000 0.000023 0.000009
vn -1.000000 0.000023 0.000009
vn -1.000000 0.000023 0.000009
vn -1.000000 0.000023 0.000009
vn -1.000000 0.000023 0.000009
vn -1.000000 0.000023 0.000009
vn -1.000000 0.000023 0.000009
vn -1.000000 0.000023 0.000009
vn -1.000000 0.000023 0.000009
vn -1.000000 0.000023 0.000009
vn -1.000000 0.000023 0.000009
vn -1.000000 0.000000 0.000047
vn -1.000000 0.000000 0.000047
vn -1.000000 0.000000 0.000047
vn -1.000000 0.000000 0.000047
vn -0.000000 1.000000 -0.000000
vn -0.000000 1.000000 -0.000000
vn -0.000000 1.000000 -0.000000
vn -0.000000 1.000000 -0.000000
vn -0.000023 -0.000001 1.000000
vn -0.000023 -0.000001 1.000000
vn -0.000023 -0.000001 1.000000
vn -0.000023 -0.000001 1.000000
vn -0.000012 -0.000001 1.000000
vn -0.000012 -0.000001 1.000000
vn -0.000012 -0.000001 1.000000
vn -0.000012 -0.000001 1.000000
vn -0.000000 1.000000 0.000000
vn -0.000000 1.000000 0.000000
vn -0.000000 1.000000 0.000000
vn -0.000000 1.000000 0.000000
vn 0.011589 0.029090 0.999510
vn 0.011589 0.029090 0.999510
vn 0.011589 0.029090 0.999510
vn 0.011589 0.029090 0.999510
vn 0.000000 -1.000000 -0.000000
vn 0.000000 -1.000000 -0.000000
vn 0.000000 -1.000000 -0.000000
vn 0.000000 1.000000 0.000000
vn 0.000000 1.000000 0.000000
vn 0.000000 1.000000 0.000000
vn 0.010027 0.075323 0.997109
vn 0.010027 0.075323 0.997109
vn 0.010027 0.075323 0.997109
vn 0.010027 0.075323 0.997109
vn 0.000009 0.000023 -1.000000
vn 0.000009 0.000023 -1.000000
vn 0.000009 0.000023 -1.000000
vn 0.000009 0.000023 -1.000000
vn 0.000009 0.000023 -1.000000
vn 0.000009 0.000023 -1.000000
vn 0.000009 0.000023 -1.000000
vn 0.000009 0.000023 -1.000000
vn 0.000009 0.000023 -1.000000
vn 0.000009 0.000023 -1.000000
vn 0.000009 0.000023 -1.000000
vn 0.000009 0.000023 -1.000000
vn 0.000047 0.000000 -1.000000
vn 0.000047 0.000000 -1.000000
vn 0.000047 0.000000 -1.000000
vn 0.000047 0.000000 -1.000000
vn -0.000000 1.000000 -0.000000
vn -0.000000 1.000000 -0.000000
vn -0.000000 1.000000 -0.000000
vn -0.000000 1.000000 -0.000000
vn 1.000000 0.000000 -0.000023
vn 1.000000 0.000000 -0.000023
vn 1.000000 0.000000 -0.000023
vn 1.000000 0.000000 -0.000023
vn 1.000000 -0.000000 -0.000012
vn 1.000000 -0.000000 -0.000012
vn 1.000000 -0.000000 -0.000012
vn 1.000000 -0.000000 -0.000012
vn 0.000000 1.000000 0.000000
vn 0.000000 1.000000 0.000000
vn 0.000000 1.000000 0.000000
vn 0.000000 1.000000 0.000000
vn 0.997551 0.064951 0.025934
vn 0.997551 0.064951 0.025934
vn 0.997551 0.064951 0.025934
vn 0.997551 0.064951 0.025934
vn -0.000000 -1.000000 0.000000
vn -0.000000 -1.000000 0.000000
vn -0.000000 -1.000000 0.000000
vn 0.000000 1.000000 0.000000
vn 0.000000 1.000000 0.000000
vn 0.000000 1.000000 0.000000
vn 0.998452 0.055134 0.007335
vn 0.998452 0.055134 0.007335
vn 0.998452 0.055134 0.007335
vn 0.998452 0.055134 0.007335
vn -0.000000 1.000000 -0.000000
vn -0.000000 1.000000 -0.000000
vn -0.000000 1.000000 -0.000000
vn -0.000000 1.000000 -0.000000
vn 0.574272 0.737565 0.355259
vn 0.574272 0.737565 0.355259
vn 0.574272 0.737565 0.355259
vn 0.000000 1.000000 0.000000
vn 0.000000 1.000000 0.000000
vn 0.000000 1.000000 0.000000
vn 0.000000 1.000000 0.000000
vn 0.000000 1.000000 0.000000
vn 0.000000 1.000000 0.000000
vn 0.000000 1.000000 0.000000
vn 1.000000 0.000000 -0.000021
vn 1.000000 0.000000 -0.000021
vn 1.000000 0.000000 -0.000021
vn -0.000012 0.000000 1.000000
vn -0.000012 0.000000 1.000000
vn -0.000012 0.000000 1.000000
vn -0.140341 0.930684 0.337833
vn -0.140341 0.930684 0.337833
vn -0.140341 0.930684 0.337833
vn 0.000000 1.000000 0.000000
vn 0.000000 1.000000 0.000000
vn 0.000000 1.000000 0.000000
vn 0.000000 1.000000 0.000000
vn 0.130346 0.820589 0.556456
vn 0.130346 0.820589 0.556456
vn 0.130346 0.820589 0.556456
vn -0.000023 0.000000 1.000000
vn -0.000023 0.000000 1.000000
vn -0.000023 0.000000 1.000000
vn -0.000023 0.000000 1.000000
vn -0.000023 0.000001 1.000000
vn -0.000023 0.000001 1.000000
vn -0.000023 0.000001 1.000000
vn 0.000000 1.000000 0.000000
vn 0.000000 1.000000 0.000000
vn 0.000000 1.000000 0.000000
s off
f 1/1/1 2/2/2 3/3/3 4/4/4
f 4/4/5 5/5/6 6/6/7 1/1/8
f 6/6/9 7/7/10 8/8/11 1/1/12
f 8/8/13 9/9/14 10/10/15 1/1/16
f 12/12/17 31/42/18 30/41/19 11/11/20
f 32/43/21 16/16/22 11/11/23 30/41/24
f 14/14/25 13/13/26 3/3/27 2/2/28
f 17/17/29 16/16/30 6/6/31 5/5/32
f 12/12/33 18/18/34 9/9/35 8/8/36
f 1/1/37 14/14/38 2/2/39
f 18/18/40 10/10/41 9/9/42
f 15/15/43 17/17/44 5/5/45 4/4/46
f 1/19/47 21/20/48 20/21/49 19/22/50
f 21/20/51 1/19/52 23/23/53 22/24/54
f 23/23/55 1/19/56 25/25/57 24/26/58
f 25/25/59 1/19/60 10/27/61 26/28/62
f 24/26/63 25/25/64 12/29/65 11/30/66
f 23/23/67 24/26/68 11/30/69 16/31/70
f 14/32/71 19/22/72 20/21/73 28/39/74
f 17/35/75 22/24/76 23/23/77 16/31/78
f 12/29/79 25/25/80 26/28/81 18/36/82
f 1/19/83 19/22/84 14/32/85
f 18/36/86 26/28/87 10/27/88
f 15/34/89 21/20/90 22/24/91 17/35/92
f 13/13/93 15/15/94 4/4/95 3/3/96
f 27/37/97 28/39/98 13/33/99
f 15/34/100 28/39/101 20/21/102 21/20/103
f 13/33/104 28/39/105 15/34/106
f 14/32/107 28/39/108 27/37/109
f 14/14/110 27/38/111 13/13/112
f 31/42/113 32/43/114 30/41/115
f 7/7/116 29/40/117 31/42/118 8/8/119
f 29/40/120 32/43/121 31/42/122
f 6/6/123 32/43/124 29/40/125 7/7/126
f 6/6/127 16/16/128 32/43/129
f 8/8/130 31/42/131 12/12/132
