# This file uses centimeters as units for non-parametric coordinates.

v 1817.022461 1705.635986 27.382263
v 1380.875366 1813.297852 78.749176
v 1041.825806 1830.347412 86.646423
v 35.663555 1054.361328 95.610962
v -128.234497 428.702667 108.918335
v 32.444946 -6.859131 189.956207
v -72.334351 -132.765869 102.424438
v 1615.078613 1786.656982 -41.100952
v 1042.497681 1806.223145 -67.526123
v -131.138687 645.956238 -149.150940
v -128.500122 -13.335541 -128.748962
v 861.403198 1648.152832 81.546478
v 1594.714233 1678.601318 -68.999146
v 293.746704 1199.133179 -108.424072
v 60.307598 717.657959 -118.626465
v 150.172592 860.743469 95.998108
v 77.739380 415.749756 119.556824
v 131.327881 -0.382721 147.039856
v -0.633545 -167.766174 138.553345
v 1054.804321 1745.279297 -94.437927
v 615.964539 1633.974854 -107.175217
v 651.853027 1581.137451 -92.694336
v 53.317627 207.683533 -120.132629
v -4.487915 -167.766174 -137.173401
v 572.497925 1469.486816 -0.000061
v 168.838364 832.658813 -24.105164
v 2.335693 -221.401855 0.000061
v 1632.170410 1704.070557 -73.309570
v 1794.970337 1664.195313 -44.832130
v 1121.021484 1849.321899 12.076050
v 823.389587 1777.240479 80.656281
v 817.411743 1785.525146 -0.000061
v 823.859741 1746.069580 -80.656311
v 252.956543 1375.427246 104.841278
v 264.283936 1438.260254 -11.410706
v 201.259644 1297.901855 -114.311035
v 66.054306 1136.872070 -25.549988
v -116.903442 650.237122 -27.106445
v -145.426392 428.702667 -146.663269
v -84.282471 -132.765869 -99.113831
v 1597.162720 1693.525635 55.421021
v 562.439819 1484.342773 103.316895
v -160.807373 -15.494354 0.229919
v 1606.057129 1721.370117 73.837097
v 1054.377808 1775.687500 110.677063
v 842.377502 1717.154297 108.135162
v 332.632202 1367.483765 148.174530
v 92.941025 1029.551514 136.256012
v -24.465576 422.226196 155.009216
v 1373.386719 1736.616211 -83.017700
v 243.839844 1253.138306 -149.772156
v -68.021500 630.115234 -182.371460
v -30.117065 -6.859131 -171.665222
v 1785.965210 1646.366211 34.420307
v 863.154297 1636.853027 2.123169
v 109.831909 413.590942 -0.000061
v 121.849609 1.776062 5.997314
v 419.316528 1301.146362 0.431458
v 407.007080 1312.360229 90.668579
v 1146.431763 1719.695190 48.063812
v 1189.642822 1713.473022 -31.785339
v 1825.659912 1658.249878 5.541649
v 516.406189 1554.631836 118.920609
v 505.211823 1611.875854 63.854794
v 556.341736 1652.035645 -28.757385
vt 0.255421 0.376353
vt 0.255464 0.376277
vt 0.255464 0.376314
vt 0.255579 0.376274
vt 0.255440 0.376330
vt 0.255582 0.376268
vt 0.255635 0.376284
vt 0.255551 0.376303
vt 0.255661 0.376331
vt 0.255620 0.376328
vt 0.255577 0.376351
vt 0.255737 0.376553
vt 0.255681 0.376523
vt 0.255640 0.376590
vt 0.255691 0.376665
vt 0.255749 0.376703
vt 0.255656 0.376877
vt 0.255711 0.376876
vt 0.255770 0.376975
vt 0.255662 0.376968
vt 0.255790 0.377184
vt 0.255724 0.377161
vt 0.255666 0.377159
vt 0.255759 0.377225
vt 0.255674 0.377216
vt 0.255536 0.376317
vt 0.255526 0.376336
vt 0.255646 0.376319
vt 0.255656 0.376400
vt 0.255598 0.376352
vt 0.255673 0.376363
vt 0.255749 0.376556
vt 0.255701 0.376510
vt 0.255762 0.376716
vt 0.255737 0.376796
vt 0.255713 0.376583
vt 0.255781 0.376986
vt 0.255756 0.376996
vt 0.255769 0.377249
vt 0.255762 0.377190
vt 0.255486 0.376326
vt 0.255451 0.376348
vt 0.255534 0.376342
vt 0.255589 0.376430
vt 0.255592 0.376460
vt 0.255619 0.376611
vt 0.255632 0.376637
vt 0.255635 0.376887
vt 0.255649 0.376855
vt 0.255637 0.377165
vt 0.255651 0.377080
vt 0.255649 0.377238
vt 0.255447 0.376378
vt 0.255547 0.376355
vt 0.255614 0.376407
vt 0.255648 0.376518
vt 0.255669 0.376589
vt 0.255680 0.376808
vt 0.255699 0.376996
vt 0.255699 0.377183
vt 0.255707 0.377268
vt 0.255444 0.376348
vt 0.255712 0.376470
vt 0.255687 0.376440
vt 0.255634 0.376420
vn 0.464750 0.699251 -0.543190
vn 0.464750 0.699251 -0.543190
vn 0.464750 0.699251 -0.543190
vn 0.262067 0.914282 0.308883
vn 0.262067 0.914282 0.308883
vn 0.262067 0.914282 0.308883
vn 0.251541 0.396405 -0.882944
vn 0.251541 0.396405 -0.882944
vn 0.251541 0.396405 -0.882944
vn 0.152666 0.985086 0.079360
vn 0.152666 0.985086 0.079360
vn 0.152666 0.985086 0.079360
vn 0.074202 0.933787 0.350051
vn 0.074202 0.933787 0.350051
vn 0.074202 0.933787 0.350051
vn 0.059278 0.821925 -0.566504
vn 0.059278 0.821924 -0.566504
vn 0.059278 0.821925 -0.566504
vn -0.264995 0.964249 -0.001330
vn -0.264995 0.964249 -0.001330
vn -0.264995 0.964249 -0.001330
vn -0.237812 0.964278 0.116675
vn -0.237812 0.964278 0.116675
vn -0.237812 0.964278 0.116675
vn -0.205780 0.910145 -0.359570
vn -0.205780 0.910145 -0.359570
vn -0.205780 0.910145 -0.359570
vn -0.226120 0.867757 -0.442570
vn -0.226120 0.867757 -0.442570
vn -0.226120 0.867757 -0.442570
vn -0.525961 0.768599 0.364171
vn -0.617606 0.715496 0.326540
vn -0.525961 0.768599 0.364171
vn -0.529868 0.844874 0.073667
vn -0.488747 0.866031 0.105437
vn -0.529372 0.839068 0.125420
vn -0.502381 0.665785 -0.551674
vn -0.479398 0.693678 -0.537576
vn -0.435155 0.651211 -0.621743
vn -0.435154 0.651211 -0.621743
vn -0.866851 0.469034 0.169044
vn -0.866851 0.469034 0.169044
vn -0.866851 0.469034 0.169044
vn -0.861851 0.492887 0.119479
vn -0.861851 0.492887 0.119479
vn -0.861851 0.492887 0.119479
vn -0.872562 0.415269 -0.257269
vn -0.872562 0.415269 -0.257269
vn -0.872562 0.415268 -0.257269
vn -0.866406 0.482715 -0.127778
vn -0.866406 0.482714 -0.127778
vn -0.866406 0.482714 -0.127778
vn -0.913540 0.404131 0.046071
vn -0.913540 0.404131 0.046071
vn -0.913540 0.404131 0.046071
vn -0.876822 0.283359 0.388447
vn -0.876822 0.283358 0.388446
vn -0.876822 0.283359 0.388447
vn -0.904128 0.400588 -0.148602
vn -0.904128 0.400588 -0.148602
vn -0.904128 0.400588 -0.148602
vn -0.993528 0.091852 0.066830
vn -0.993528 0.091852 0.066830
vn -0.993528 0.091852 0.066830
vn -0.692424 -0.123171 0.710899
vn -0.692424 -0.123171 0.710899
vn -0.692424 -0.123171 0.710899
vn -0.996143 0.056651 0.067006
vn -0.996143 0.056651 0.067006
vn -0.996143 0.056651 0.067006
vn -0.968776 -0.046962 -0.243450
vn -0.968776 -0.046962 -0.243450
vn -0.968776 -0.046962 -0.243450
vn -0.966809 0.206027 -0.151106
vn -0.966809 0.206027 -0.151106
vn -0.966809 0.206027 -0.151106
vn -0.699783 0.089656 0.708707
vn -0.699783 0.089656 0.708707
vn -0.699783 0.089656 0.708707
vn -0.817206 -0.574305 0.048448
vn -0.817207 -0.574305 0.048448
vn -0.817207 -0.574305 0.048448
vn -0.892657 -0.387588 -0.230084
vn -0.892657 -0.387588 -0.230084
vn -0.892657 -0.387588 -0.230084
vn 0.221728 0.498349 0.838144
vn 0.221728 0.498349 0.838144
vn 0.221728 0.498349 0.838144
vn 0.134548 -0.576175 0.806176
vn 0.134548 -0.576174 0.806176
vn 0.134548 -0.576175 0.806176
vn 0.047615 0.367296 0.928885
vn 0.047615 0.367296 0.928885
vn 0.047615 0.367296 0.928885
vn 0.079705 0.142526 0.986577
vn 0.079705 0.142526 0.986577
vn 0.079705 0.142526 0.986577
vn 0.002125 -0.552121 0.833761
vn 0.002125 -0.552121 0.833761
vn 0.002125 -0.552121 0.833761
vn 0.210671 -0.512200 0.832628
vn 0.210671 -0.512200 0.832628
vn 0.210671 -0.512200 0.832628
vn -0.129135 0.378376 0.916600
vn -0.129135 0.378376 0.916600
vn -0.129135 0.378376 0.916600
vn -0.103578 0.339231 0.934983
vn -0.103578 0.339231 0.934983
vn -0.103578 0.339231 0.934983
vn 0.081025 -0.338850 0.937345
vn 0.081025 -0.338850 0.937345
vn 0.081025 -0.338850 0.937345
vn -0.332651 0.539240 0.773669
vn -0.305239 0.526662 0.793383
vn -0.208822 0.351385 0.912646
vn -0.342375 0.583439 0.736463
vn -0.342375 0.583440 0.736463
vn -0.377243 0.492992 0.783994
vn 0.260345 -0.273499 0.925969
vn 0.260345 -0.273499 0.925969
vn 0.154853 -0.116373 0.981059
vn 0.268167 -0.281123 0.921443
vn 0.268167 -0.281123 0.921443
vn 0.268167 -0.281123 0.921443
vn -0.483879 0.254585 0.837286
vn -0.483879 0.254585 0.837286
vn -0.483879 0.254585 0.837286
vn -0.444765 0.242417 0.862217
vn -0.444765 0.242417 0.862217
vn -0.444765 0.242417 0.862217
vn 0.205962 -0.160387 0.965327
vn 0.205962 -0.160387 0.965327
vn 0.205962 -0.160387 0.965327
vn 0.307336 -0.456418 0.835001
vn 0.307336 -0.456418 0.835001
vn 0.307336 -0.456418 0.835001
vn -0.394287 0.143013 0.907792
vn -0.394287 0.143013 0.907791
vn -0.394287 0.143013 0.907792
vn -0.525971 0.155556 0.836156
vn -0.525971 0.155556 0.836156
vn -0.525971 0.155556 0.836156
vn 0.324417 -0.050856 0.944546
vn 0.324417 -0.050856 0.944546
vn 0.324417 -0.050856 0.944546
vn 0.451527 -0.059237 0.890289
vn 0.451527 -0.059237 0.890289
vn 0.451527 -0.059237 0.890289
vn -0.404757 0.020773 0.914188
vn -0.404757 0.020773 0.914188
vn -0.404757 0.020773 0.914188
vn 0.332134 0.120247 0.935536
vn 0.332134 0.120247 0.935536
vn 0.332134 0.120247 0.935536
vn -0.507147 -0.165920 0.845738
vn -0.507147 -0.165920 0.845738
vn -0.507147 -0.165920 0.845738
vn 0.389589 0.110556 0.914329
vn 0.389589 0.110556 0.914329
vn 0.389589 0.110556 0.914329
vn 0.391947 -0.352095 0.849945
vn 0.391947 -0.352095 0.849945
vn 0.391947 -0.352095 0.849945
vn 0.082002 0.376806 -0.922656
vn 0.082002 0.376806 -0.922655
vn 0.082002 0.376806 -0.922655
vn 0.013456 -0.186059 -0.982446
vn 0.013456 -0.186059 -0.982446
vn 0.013456 -0.186059 -0.982446
vn 0.093223 -0.297882 -0.950040
vn 0.093223 -0.297882 -0.950040
vn 0.093223 -0.297882 -0.950040
vn 0.059376 0.456734 -0.887620
vn 0.059376 0.456734 -0.887620
vn 0.059376 0.456734 -0.887620
vn 0.037408 0.366255 -0.929762
vn 0.037408 0.366255 -0.929762
vn 0.037408 0.366255 -0.929762
vn 0.034401 -0.108819 -0.993466
vn 0.034401 -0.108819 -0.993466
vn 0.034401 -0.108819 -0.993466
vn -0.046730 0.353164 -0.934394
vn -0.046730 0.353164 -0.934394
vn -0.046730 0.353164 -0.934394
vn -0.047408 0.338865 -0.939640
vn -0.047408 0.338865 -0.939640
vn -0.047408 0.338865 -0.939640
vn 0.200374 -0.412910 -0.888457
vn 0.200374 -0.412910 -0.888457
vn 0.200374 -0.412910 -0.888457
vn -0.294736 0.405207 -0.865412
vn -0.294736 0.405207 -0.865412
vn -0.294736 0.405207 -0.865412
vn 0.352841 -0.341042 -0.871317
vn 0.352841 -0.341042 -0.871317
vn 0.352841 -0.341042 -0.871317
vn 0.349149 -0.334992 -0.875143
vn 0.349149 -0.334992 -0.875143
vn 0.349149 -0.334992 -0.875143
vn -0.448733 0.252304 -0.857311
vn -0.448733 0.252304 -0.857311
vn -0.448733 0.252304 -0.857311
vn -0.407714 0.229134 -0.883893
vn -0.407714 0.229134 -0.883893
vn -0.407714 0.229134 -0.883893
vn 0.542110 -0.200470 -0.816045
vn 0.542110 -0.200470 -0.816045
vn 0.542110 -0.200470 -0.816045
vn 0.496715 -0.189457 -0.846983
vn 0.496715 -0.189457 -0.846983
vn 0.496715 -0.189457 -0.846983
vn -0.447074 0.085876 -0.890365
vn -0.447074 0.085876 -0.890365
vn -0.447074 0.085876 -0.890365
vn -0.396387 -0.052325 -0.916591
vn -0.396387 -0.052325 -0.916591
vn -0.396387 -0.052325 -0.916591
vn -0.278279 -0.018547 -0.960321
vn -0.278279 -0.018547 -0.960321
vn -0.278279 -0.018547 -0.960321
vn 0.542889 -0.009421 -0.839751
vn 0.542889 -0.009421 -0.839751
vn 0.542889 -0.009421 -0.839751
vn 0.462655 -0.033116 -0.885920
vn 0.462655 -0.033116 -0.885920
vn 0.462655 -0.033116 -0.885920
vn -0.529252 -0.383724 -0.756735
vn -0.529252 -0.383724 -0.756735
vn -0.529252 -0.383724 -0.756735
vn -0.373118 -0.250898 -0.893215
vn -0.373118 -0.250898 -0.893215
vn -0.373118 -0.250898 -0.893215
vn 0.637036 -0.063212 -0.768238
vn 0.637036 -0.063212 -0.768238
vn 0.637036 -0.063212 -0.768238
vn -0.043019 -0.973656 -0.223928
vn -0.043019 -0.973656 -0.223928
vn -0.043019 -0.973656 -0.223928
vn -0.227950 -0.966202 0.120382
vn -0.227950 -0.966202 0.120382
vn -0.227950 -0.966202 0.120382
vn 0.123456 0.052979 0.990935
vn 0.123456 0.052979 0.990935
vn 0.123456 0.052979 0.990935
vn 0.090626 -0.764565 -0.638144
vn 0.090626 -0.764565 -0.638144
vn 0.090626 -0.764565 -0.638144
vn 0.228887 -0.963032 0.142058
vn 0.228887 -0.963032 0.142058
vn 0.228887 -0.963032 0.142058
vn 0.216994 -0.954964 0.202381
vn 0.216994 -0.954964 0.202381
vn 0.216994 -0.954964 0.202381
vn 0.442026 -0.893543 -0.078698
vn 0.442026 -0.893544 -0.078698
vn 0.442026 -0.893543 -0.078698
vn 0.538333 -0.730898 -0.419506
vn 0.538333 -0.730898 -0.419506
vn 0.538333 -0.730898 -0.419506
vn 0.585253 -0.800867 0.126847
vn 0.585253 -0.800867 0.126847
vn 0.585253 -0.800867 0.126847
vn 0.660085 -0.698535 -0.276291
vn 0.660085 -0.698535 -0.276291
vn 0.660085 -0.698535 -0.276291
vn 0.572559 -0.801826 0.171034
vn 0.572559 -0.801825 0.171034
vn 0.572559 -0.801825 0.171034
vn 0.621834 -0.782976 0.016445
vn 0.621834 -0.782976 0.016445
vn 0.621834 -0.782976 0.016445
vn 0.791872 -0.319622 -0.520366
vn 0.791872 -0.319622 -0.520366
vn 0.791872 -0.319622 -0.520366
vn 0.611111 -0.772046 0.174609
vn 0.611111 -0.772046 0.174609
vn 0.611111 -0.772046 0.174609
vn 0.611111 -0.772046 0.174609
vn 0.956220 -0.214739 0.198824
vn 0.956220 -0.214739 0.198824
vn 0.956220 -0.214739 0.198824
vn 0.944382 -0.071991 -0.320875
vn 0.944382 -0.071991 -0.320875
vn 0.944382 -0.071991 -0.320875
vn 0.755644 -0.200679 -0.623482
vn 0.755644 -0.200679 -0.623482
vn 0.755644 -0.200679 -0.623482
vn 0.891468 0.019423 -0.452667
vn 0.891468 0.019423 -0.452667
vn 0.891468 0.019423 -0.452667
vn 0.965461 0.031940 0.258581
vn 0.965461 0.031940 0.258581
vn 0.965461 0.031940 0.258581
vn 0.947018 -0.191736 0.257669
vn 0.947018 -0.191736 0.257669
vn 0.947018 -0.191736 0.257669
vn 0.800154 -0.096325 -0.592009
vn 0.800154 -0.096325 -0.592009
vn 0.800154 -0.096325 -0.592009
vn 0.862198 -0.455774 -0.221100
vn 0.862198 -0.455774 -0.221100
vn 0.862198 -0.455774 -0.221100
vn 0.861657 -0.466778 0.199161
vn 0.861657 -0.466778 0.199161
vn 0.861657 -0.466778 0.199161
vn 0.785311 -0.615968 -0.062202
vn 0.785311 -0.615968 -0.062202
vn 0.785311 -0.615968 -0.062202
vn 0.990266 0.123254 -0.064661
vn 0.990266 0.123254 -0.064661
vn 0.990266 0.123254 -0.064661
vn -0.498098 -0.815699 -0.294166
vn -0.498098 -0.815699 -0.294166
vn -0.498098 -0.815699 -0.294166
vn -0.738550 -0.672776 0.043785
vn -0.738550 -0.672776 0.043785
vn -0.738550 -0.672776 0.043785
vn -0.535070 -0.791634 0.294985
vn -0.535069 -0.791634 0.294985
vn -0.535069 -0.791634 0.294985
vn 0.755825 -0.321975 -0.570142
vn 0.755825 -0.321975 -0.570142
vn 0.755825 -0.321975 -0.570142
vn 0.889263 -0.423058 0.173880
vn 0.889263 -0.423058 0.173880
vn 0.889263 -0.423058 0.173880
vn 0.871320 -0.430228 0.236019
vn 0.871320 -0.430228 0.236019
vn 0.871320 -0.430229 0.236019
vn 0.482855 -0.229990 0.844959
vn 0.482855 -0.229990 0.844959
vn 0.482855 -0.229990 0.844959
vn -0.039318 -0.727542 0.684935
vn -0.039318 -0.727542 0.684935
vn -0.039318 -0.727542 0.684935
vn -0.046165 -0.994116 0.097990
vn -0.046165 -0.994116 0.097990
vn -0.046165 -0.994116 0.097990
vn -0.046165 -0.994116 0.097990
vn -0.090085 -0.933482 -0.347125
vn -0.090085 -0.933482 -0.347125
vn -0.090085 -0.933482 -0.347125
vn 0.815523 0.358172 -0.454571
vn 0.815523 0.358172 -0.454571
vn 0.815523 0.358172 -0.454571
vn 0.616803 -0.233963 0.751542
vn 0.616803 -0.233963 0.751542
vn 0.616803 -0.233963 0.751542
vn 0.143339 -0.968904 -0.201688
vn 0.143339 -0.968904 -0.201688
vn 0.143339 -0.968904 -0.201688
vn 0.154853 -0.116373 0.981059
vn 0.260345 -0.273499 0.925969
vn 0.260345 -0.273499 0.925969
vn -0.208822 0.351385 0.912646
vn -0.305239 0.526662 0.793383
vn -0.332651 0.539240 0.773669
vn -0.208822 0.351385 0.912646
vn -0.529372 0.839068 0.125420
vn -0.529372 0.839068 0.125420
vn -0.488747 0.866031 0.105437
vn -0.529868 0.844874 0.073667
vn -0.477183 0.773753 -0.416656
vn -0.477183 0.773753 -0.416656
vn -0.372513 0.821528 -0.431655
vn -0.435154 0.651211 -0.621743
vn -0.479398 0.693678 -0.537576
vn -0.502381 0.665785 -0.551674
s off
f 29/1/1 8/2/2 1/3/3
f 2/4/4 1/3/5 8/2/6
f 29/1/7 28/5/8 8/2/9
f 2/4/10 8/2/11 30/6/12
f 3/7/13 2/4/14 30/6/15
f 8/2/16 9/8/17 30/6/18
f 3/7/19 30/6/20 31/9/21
f 30/6/22 32/10/23 31/9/24
f 30/6/25 9/8/26 32/10/27
f 9/8/28 33/11/29 32/10/30
f 34/12/31 64/64/32 35/13/33
f 64/64/34 65/65/35 35/13/36
f 65/65/37 21/44/38 36/14/39 35/13/40
f 34/12/41 35/13/42 37/15/43
f 4/16/44 34/12/45 37/15/46
f 36/14/47 10/17/48 37/15/49
f 37/15/50 35/13/51 36/14/52
f 4/16/53 37/15/54 38/18/55
f 4/16/56 38/18/57 5/19/58
f 37/15/59 10/17/60 38/18/61
f 38/18/62 39/20/63 5/19/64
f 6/21/65 5/19/66 43/22/67
f 5/19/68 39/20/69 43/22/70
f 43/22/71 39/20/72 11/23/73
f 38/18/74 10/17/75 39/20/76
f 6/21/77 43/22/78 7/24/79
f 43/22/80 40/25/81 7/24/82
f 43/22/83 11/23/84 40/25/85
f 1/3/86 2/4/87 44/26/88
f 44/26/89 41/27/90 1/3/91
f 2/4/92 3/7/93 45/28/94
f 2/4/95 45/28/96 44/26/97
f 45/28/98 41/27/99 44/26/100
f 12/29/101 60/30/102 45/28/103
f 31/9/104 46/31/105 3/7/106
f 46/31/107 45/28/108 3/7/109
f 45/28/110 46/31/111 12/29/112
f 63/63/113 64/64/114 34/12/115
f 34/12/116 47/32/117 63/63/118
f 47/32/119 42/33/120 63/63/121
f 42/33/122 12/29/123 46/31/124
f 34/12/125 4/16/126 48/34/127
f 34/12/128 48/34/129 47/32/130
f 48/34/131 16/35/132 47/32/133
f 59/36/134 42/33/135 47/32/136
f 5/19/137 49/37/138 4/16/139
f 4/16/140 49/37/141 48/34/142
f 49/37/143 17/38/144 48/34/145
f 17/38/146 16/35/147 48/34/148
f 5/19/149 6/21/150 49/37/151
f 6/21/152 17/38/153 49/37/154
f 7/24/155 19/39/156 6/21/157
f 18/40/158 17/38/159 6/21/160
f 6/21/161 19/39/162 18/40/163
f 28/5/164 50/41/165 8/2/166
f 50/41/167 28/5/168 13/42/169
f 28/5/170 29/1/171 13/42/172
f 8/2/173 50/41/174 9/8/175
f 50/41/176 20/43/177 9/8/178
f 50/41/179 13/42/180 20/43/181
f 9/8/182 20/43/183 33/11/184
f 20/43/185 21/44/186 33/11/187
f 21/44/188 20/43/189 22/45/190
f 21/44/191 51/46/192 36/14/193
f 51/46/194 22/45/195 14/47/196
f 51/46/197 21/44/198 22/45/199
f 36/14/200 51/46/201 10/17/202
f 51/46/203 52/48/204 10/17/205
f 52/48/206 51/46/207 15/49/208
f 51/46/209 14/47/210 15/49/211
f 39/20/212 10/17/213 52/48/214
f 11/23/215 39/20/216 53/50/217
f 39/20/218 52/48/219 53/50/220
f 52/48/221 23/51/222 53/50/223
f 52/48/224 15/49/225 23/51/226
f 40/25/227 11/23/228 24/52/229
f 11/23/230 53/50/231 24/52/232
f 53/50/233 23/51/234 24/52/235
f 29/1/236 54/53/237 13/42/238
f 54/53/239 41/27/240 13/42/241
f 1/3/242 41/27/243 54/53/244
f 20/43/245 61/54/246 55/55/247
f 60/30/248 12/29/249 55/55/250
f 60/30/251 55/55/252 61/54/253
f 22/45/254 20/43/255 55/55/256
f 22/45/257 55/55/258 25/56/259
f 55/55/260 12/29/261 25/56/262
f 14/47/263 22/45/264 25/56/265
f 12/29/266 42/33/267 25/56/268
f 14/47/269 25/56/270 58/57/271
f 14/47/272 26/58/273 15/49/274
f 25/56/275 42/33/276 59/36/277 58/57/278
f 16/35/279 17/38/280 26/58/281
f 23/51/282 15/49/283 56/59/284
f 15/49/285 26/58/286 56/59/287
f 56/59/288 57/60/289 23/51/290
f 56/59/291 17/38/292 57/60/293
f 56/59/294 26/58/295 17/38/296
f 23/51/297 57/60/298 24/52/299
f 57/60/300 27/61/301 24/52/302
f 27/61/303 57/60/304 19/39/305
f 57/60/306 18/40/307 19/39/308
f 17/38/309 18/40/310 57/60/311
f 40/25/312 24/52/313 27/61/314
f 40/25/315 27/61/316 7/24/317
f 27/61/318 19/39/319 7/24/320
f 14/47/321 58/57/322 26/58/323
f 59/36/324 26/58/325 58/57/326
f 59/36/327 16/35/328 26/58/329
f 16/35/330 59/36/331 47/32/332
f 60/30/333 41/27/334 45/28/335
f 13/42/336 41/27/337 60/30/338 61/54/339
f 20/43/340 13/42/341 61/54/342
f 29/1/343 1/3/344 62/62/345
f 1/3/346 54/53/347 62/62/348
f 54/53/349 29/1/350 62/62/351
f 63/63/352 42/33/353 46/31/354
f 31/9/355 64/64/356 63/63/357 46/31/358
f 31/9/359 32/10/360 65/65/361 64/64/362
f 32/10/363 33/11/364 65/65/365
f 33/11/366 21/44/367 65/65/368
