# This file uses centimeters as units for non-parametric coordinates.

v 46.924805 5.999184 -28.906250
v -26.750000 -19.553337 -54.552734
v -21.375000 12.013405 -53.752930
v 43.516602 5.392868 -41.375977
v -20.954102 14.848503 -40.425781
v 42.817383 0.802094 -62.916992
v 37.533203 -0.720802 60.296875
v -41.462570 12.124001 -29.382912
v -51.568359 4.839745 53.503906
v -36.771484 -19.553383 56.523438
v -54.564453 -19.553413 53.053711
v -45.772461 -19.553406 56.708008
v 42.825195 -19.553474 52.879883
v 43.222656 -19.553467 39.258789
v -47.280273 -19.553337 -26.330063
v -19.449226 -19.553307 -36.681656
v -11.177734 -19.553360 -57.646484
v -21.472656 -19.553322 -38.399414
v -25.550781 -19.553329 -38.900391
v -49.983398 -19.553360 -2.512695
v -53.209961 -19.553398 38.521484
v 47.745117 -19.553391 -56.168945
v 47.697266 -19.553413 -64.058594
v 4.333984 -19.553345 -60.548828
v -4.364258 -19.553284 -36.656250
v 47.140625 -19.553360 -38.244141
v 37.309570 -19.553406 -65.019531
v 38.940430 -19.553482 62.949219
v 53.707031 -19.553375 -33.088867
vt 0.069237 0.077397
vt 0.069237 0.077340
vt 0.069237 0.077766
vt 0.069237 0.077811
vt 0.069237 0.077827
vt 0.069237 0.077894
vt 0.069237 0.077418
vt 0.069237 0.077395
vt 0.069237 0.077456
vt 0.069237 0.077940
vt 0.069237 0.077762
vt 0.069237 0.098524
vt 0.069237 0.098524
vt 0.069237 0.098524
vt 0.069237 0.098524
vt 0.069237 0.098524
vt 0.069237 0.078015
vt 0.069237 0.077484
vt 0.069237 0.098524
vt 0.069237 0.098524
vt 0.069237 0.098524
vt 0.069237 0.098524
vt 0.069237 0.077994
vt 0.069237 0.077919
vt 0.069237 0.077870
vt 0.069237 0.098524
vt 0.069237 0.098524
vt 0.069237 0.098524
vt 0.069237 0.098524
vt 0.069237 0.098524
vt 0.069237 0.098524
vt 0.069237 0.098524
vt 0.069237 0.098524
vt 0.069237 0.098524
vt 0.069237 0.098524
vn -0.083818 0.132826 0.987589
vn -0.083818 0.132826 0.987589
vn -0.083818 0.132826 0.987589
vn -0.070801 0.080129 0.994267
vn -0.070801 0.080129 0.994267
vn -0.070801 0.080129 0.994267
vn -0.383633 0.030085 0.922996
vn -0.383633 0.030085 0.922996
vn -0.383633 0.030085 0.922996
vn 0.965166 0.260120 0.028164
vn 0.965166 0.260120 0.028164
vn 0.965166 0.260120 0.028164
vn 0.068455 0.994270 0.082109
vn 0.068455 0.994270 0.082109
vn 0.068455 0.994270 0.082109
vn 0.021785 0.238824 -0.970818
vn 0.021785 0.238824 -0.970818
vn 0.021785 0.238824 -0.970818
vn 0.138835 0.967739 -0.210253
vn 0.138835 0.967739 -0.210253
vn 0.138835 0.967739 -0.210253
vn -0.120896 0.113836 -0.986116
vn -0.120896 0.113836 -0.986116
vn -0.120896 0.113836 -0.986116
vn 0.138914 0.967624 -0.210727
vn 0.138914 0.967624 -0.210727
vn 0.138914 0.967624 -0.210727
vn 0.979213 0.166635 0.115648
vn 0.979213 0.166635 0.115648
vn 0.979213 0.166635 0.115648
vn 0.048305 0.173822 -0.983592
vn 0.048305 0.173822 -0.983592
vn 0.048305 0.173822 -0.983592
vn -0.000001 -1.000000 0.000001
vn -0.000001 -1.000000 0.000001
vn -0.000001 -1.000000 0.000001
vn -0.990369 0.114480 -0.077874
vn -0.990369 0.114480 -0.077874
vn -0.990369 0.114480 -0.077874
vn -0.500722 0.008543 -0.865566
vn -0.500722 0.008543 -0.865566
vn -0.500722 0.008543 -0.865566
vn -0.189100 0.057037 -0.980300
vn -0.189100 0.057037 -0.980300
vn -0.189100 0.057037 -0.980300
vn -0.985781 0.167970 -0.004599
vn -0.985781 0.167970 -0.004599
vn -0.985781 0.167970 -0.004599
vn 0.972354 0.233436 -0.005898
vn 0.972354 0.233436 -0.005898
vn 0.972354 0.233436 -0.005898
vn 0.988827 0.135982 -0.061077
vn 0.988827 0.135982 -0.061077
vn 0.988827 0.135982 -0.061077
vn -0.987902 0.135357 0.075689
vn -0.987902 0.135357 0.075689
vn -0.987902 0.135357 0.075689
vn 0.030699 0.109472 0.993516
vn 0.030699 0.109472 0.993516
vn 0.030699 0.109472 0.993516
vn -0.000041 1.000000 -0.000219
vn -0.000041 1.000000 -0.000219
vn -0.000041 1.000000 -0.000219
vn 0.030558 0.128877 0.991190
vn 0.030558 0.128877 0.991190
vn 0.030558 0.128877 0.991190
vn 0.000002 -1.000000 0.000000
vn 0.000002 -1.000000 0.000000
vn 0.000002 -1.000000 0.000000
vn -0.979036 0.175153 -0.103974
vn -0.979036 0.175153 -0.103974
vn -0.979036 0.175153 -0.103974
vn 0.054866 0.994055 0.094049
vn 0.054866 0.994055 0.094049
vn 0.054866 0.994055 0.094049
vn -0.979305 0.169143 -0.111145
vn -0.979305 0.169143 -0.111145
vn -0.979305 0.169143 -0.111145
vn 0.968876 0.245381 0.032674
vn 0.968876 0.245381 0.032674
vn 0.968876 0.245381 0.032674
vn -0.340445 0.087002 0.936231
vn -0.340445 0.087002 0.936231
vn -0.340445 0.087002 0.936231
vn 0.311170 0.413407 -0.855726
vn 0.311170 0.413407 -0.855726
vn 0.311170 0.413407 -0.855726
vn 0.962509 0.232640 0.139484
vn 0.962509 0.232640 0.139484
vn 0.962509 0.232640 0.139484
vn -0.988116 0.123065 -0.092098
vn -0.988116 0.123065 -0.092098
vn -0.988116 0.123065 -0.092098
vn -0.001654 0.188963 0.981983
vn -0.001654 0.188963 0.981983
vn -0.001654 0.188963 0.981983
vn -0.133073 0.137391 -0.981537
vn -0.133073 0.137391 -0.981537
vn -0.133073 0.137391 -0.981537
vn 0.020312 0.134950 0.990644
vn 0.020312 0.134950 0.990644
vn 0.020312 0.134950 0.990644
vn 0.091836 0.077692 -0.992739
vn 0.091836 0.077692 -0.992739
vn 0.091836 0.077692 -0.992739
vn 0.926284 0.119544 0.357362
vn 0.926284 0.119544 0.357362
vn 0.926284 0.119544 0.357362
s off
f 28/1/1 7/2/2 10/3/3
f 7/2/4 9/4/5 10/3/6
f 12/5/7 9/4/8 11/6/9
f 14/7/10 7/2/11 13/8/12
f 1/9/13 8/10/14 7/2/15
f 16/11/16 8/10/17 1/9/18
f 3/12/19 5/13/20 4/14/21
f 6/15/22 24/16/23 3/12/24
f 6/15/25 3/12/26 4/14/27
f 7/2/28 14/7/29 1/9/30
f 1/9/31 29/18/32 16/11/33
f 17/19/34 18/20/35 2/21/36
f 9/4/37 20/23/38 21/24/39
f 19/25/40 15/17/41 8/10/42
f 2/21/43 3/12/44 24/16/45
f 5/13/46 3/12/47 2/21/48
f 6/15/49 22/26/50 23/27/51
f 6/15/52 4/14/53 26/28/54
f 19/22/55 5/13/56 2/21/57
f 4/29/58 5/30/59 16/31/60
f 17/19/61 2/21/62 24/16/63
f 26/28/64 4/14/65 25/32/66
f 18/20/67 19/22/68 2/21/69
f 8/10/70 20/23/71 9/4/72
f 8/10/73 9/4/74 7/2/75
f 20/23/76 8/10/77 15/17/78
f 6/15/79 26/28/80 22/26/81
f 5/30/82 19/33/83 16/31/84
f 19/25/85 8/10/86 16/11/87
f 1/9/88 14/7/89 29/18/90
f 11/6/91 9/4/92 21/24/93
f 25/32/94 4/14/95 16/34/96
f 24/16/97 6/15/98 27/35/99
f 12/5/100 10/3/101 9/4/102
f 27/35/103 6/15/104 23/27/105
f 13/8/106 7/2/107 28/1/108
