# This file uses centimeters as units for non-parametric coordinates.

v 0.000030 0.000000 -14.239222
v 500.000000 0.000000 -14.239222
v 0.000030 500.000000 25.363504
v 500.000000 500.000000 25.363504
v 500.000000 500.000000 -14.239222
v 0.000030 500.000000 -14.239222
v 352.102875 500.000000 -214.494705
v 352.102875 0.000000 -214.494705
v 333.333344 500.000000 -174.891998
v 148.018860 500.000000 -214.494705
v 148.018860 0.000000 -214.494705
v 166.666656 500.000000 -174.891998
v 41.800037 500.000000 -15.198410
v 41.800037 0.000000 -15.198410
v 61.255814 500.000000 25.363518
v 457.022766 500.000000 -16.778410
v 457.022766 0.000000 -16.778410
v 437.567017 500.000000 25.363518
v 0.000030 192.782990 25.363504
v 61.255814 192.782990 25.363518
v 61.255814 429.591034 25.363518
v 0.000030 429.591034 25.363504
v 0.000030 214.741531 15.363517
v 0.000030 409.591034 15.363517
v 151.668152 295.114349 -146.398407
v 151.668152 429.591034 -146.398407
v 500.000000 192.782990 25.363504
v 500.000000 214.741531 15.363517
v 500.000000 409.591034 15.363517
v 500.000000 429.591034 25.363504
v 348.200226 295.114349 -146.329498
v 348.200226 429.591034 -146.329498
v 437.567017 192.782990 25.363518
v 437.567017 429.591034 25.363518
v 52.913574 214.741531 15.363517
v 55.218842 409.591034 15.363517
v 133.503372 307.179565 -133.358459
v 133.503372 409.591034 -133.358459
v 366.304626 307.163727 -133.205856
v 366.304626 409.591034 -133.205856
v 445.926239 214.741531 15.363517
v 443.635498 409.591034 15.363516
v 61.255814 77.972282 25.363518
v 166.666656 199.874115 -174.891998
v 333.333344 199.874115 -174.891998
v 437.567017 77.972282 25.363518
v 500.000000 77.972282 25.363503
v 0.000030 77.972282 25.363506
v 0.000031 0.000000 35.363506
v 67.292786 0.000000 35.363506
v 69.642250 57.972282 35.363506
v 0.000031 57.972282 35.363506
v 172.703629 0.000000 -164.891998
v 175.053085 179.874115 -169.355408
v 324.931061 179.874115 -169.375732
v 327.264862 0.000000 -164.891998
v 431.498535 0.000000 35.363506
v 429.164734 57.972282 35.363506
v 500.000000 0.000000 35.363506
v 500.000000 57.972282 35.363506
v 291.584534 179.874115 -169.371201
v 225.100998 192.677658 -172.907120
v 219.180405 162.750229 -168.934509
v 225.100952 192.677658 -172.907227
v 403.361145 88.149689 -15.320717
v 350.692108 149.746445 -118.775040
v 385.174683 132.371231 -70.301765
v 368.902557 112.810181 -83.014404
v 445.307861 267.340973 15.363517
v 443.941071 383.599091 15.363516
v 457.980835 341.742554 15.363521
v 439.185883 336.156433 5.312713
v 126.217087 266.308075 -98.047424
v 72.072197 205.025299 4.814957
v 87.675293 244.460693 -42.465775
v 96.453766 216.207550 -41.504215
v 61.255814 183.896210 25.363518
v 61.255814 97.638779 25.363518
v 66.486305 154.932297 15.426831
v 52.414032 142.890106 25.363522
v 83.816620 250.187912 -41.665562
v 89.964966 409.591034 -50.645844
v 98.429573 438.841949 -45.257771
vt 0.017911 0.752096
vt 0.114133 0.752096
vt 0.114133 0.995427
vt 0.017911 0.995427
vt 0.142938 0.686001
vt 0.142938 0.636154
vt 0.215241 0.591175
vt 0.215241 0.616773
vt 0.210350 0.650263
vt 0.215241 0.673352
vt 0.215241 0.686001
vt 0.136551 0.695735
vt 0.136551 0.630290
vt 0.220108 0.845916
vt 0.220108 0.695735
vt 0.122651 0.995427
vt 0.122651 0.849367
vt 0.220108 0.790042
vt 0.220108 0.995427
vt 0.125336 0.839634
vt 0.149961 0.824972
vt 0.173551 0.816516
vt 0.200308 0.794995
vt 0.224975 0.780309
vt 0.127518 0.752096
vt 0.224975 0.752096
vt 0.167364 0.806996
vt 0.017527 0.752096
vt 0.114517 0.752096
vt 0.114517 0.995427
vt 0.017527 0.995427
vt 0.024593 0.686001
vt 0.024593 0.591175
vt 0.052347 0.608426
vt 0.056717 0.686001
vt 0.019727 0.845916
vt 0.029727 0.851874
vt 0.052737 0.605639
vt 0.096971 0.636162
vt 0.096971 0.686001
vt 0.054095 0.700237
vt 0.019727 0.961162
vt 0.019727 0.790043
vt 0.117184 0.849367
vt 0.103317 0.630290
vt 0.079786 0.881699
vt 0.052269 0.857316
vt 0.019727 0.841592
vt 0.024562 0.827496
vt 0.019727 0.799613
vt 0.103317 0.961162
vt 0.117184 0.995427
vt 0.019727 0.995427
vt 0.014860 0.780309
vt 0.114489 0.839634
vt 0.019727 0.821635
vt 0.014860 0.752096
vt 0.112317 0.752096
vt 0.073225 0.995427
vt 0.053952 0.995427
vt 0.068359 0.951428
vt 0.073225 0.961162
vt 0.053952 0.752096
vt 0.068359 0.856603
vt 0.073225 0.790043
vt 0.073225 0.845916
vt 0.078092 0.752096
vt 0.078092 0.780309
vt 0.058819 0.790043
vt 0.078092 0.752096
vt 0.063685 0.856603
vt 0.058819 0.845916
vt 0.053952 0.780309
vt 0.053952 0.752096
vt 0.078092 0.995427
vt 0.063685 0.951428
vt 0.058819 0.995427
vt 0.058819 0.961162
vt 0.007657 0.995428
vt 0.007657 0.965616
vt 0.027397 0.975085
vt 0.026930 0.995428
vt 0.105114 0.914317
vt 0.124387 0.923392
vt 0.105114 0.833206
vt 0.124387 0.824072
vt 0.007657 0.782480
vt 0.028166 0.773011
vt 0.007657 0.752096
vt 0.026930 0.752096
vt 0.102214 0.975085
vt 0.126820 0.962678
vt 0.126820 0.995427
vt 0.102680 0.995427
vt 0.005224 0.923392
vt 0.029363 0.911379
vt 0.005224 0.824072
vt 0.029363 0.836160
vt 0.101445 0.773011
vt 0.126820 0.785433
vt 0.102680 0.752096
vt 0.126820 0.752096
vt 0.066878 0.845406
vt 0.065158 0.877761
vt 0.065158 0.877761
vt 0.066886 0.902117
vt 0.049076 0.591175
vt 0.074827 0.591175
vt 0.075949 0.686001
vt 0.049076 0.686001
vt 0.049076 0.580489
vt 0.078887 0.845916
vt 0.078887 0.695735
vt 0.049076 0.961162
vt 0.049076 0.790042
vt 0.078887 0.790042
vt 0.078887 0.799613
vt 0.074584 0.821635
vt 0.078887 0.841591
vt 0.078887 0.995427
vt 0.049076 0.995427
vt 0.049076 0.780309
vt 0.082968 0.780309
vt 0.049076 0.752096
vt 0.081825 0.752096
vt 0.076193 0.995428
vt 0.055851 0.995428
vt 0.055851 0.752096
vt 0.076193 0.752096
vt 0.115682 0.995428
vt 0.016362 0.995428
vt 0.016362 0.752096
vt 0.115682 0.752096
vt 0.077181 0.995427
vt 0.077181 0.849367
vt 0.158292 0.849367
vt 0.158292 0.995427
vt 0.081263 0.839634
vt 0.105619 0.845865
vt 0.137975 0.839634
vt 0.154203 0.839634
vt 0.102738 0.831300
vt 0.080119 0.752096
vt 0.155339 0.752096
vt 0.105619 0.845865
vt 0.076480 0.995427
vt 0.055564 0.995427
vt 0.055564 0.752096
vt 0.076480 0.752096
vt 0.055828 0.686001
vt 0.055977 0.673352
vt 0.062809 0.652982
vt 0.056642 0.616774
vt 0.056943 0.591175
vt 0.083258 0.591175
vt 0.083258 0.686001
vt 0.053662 0.650264
vt 0.052874 0.580489
vt 0.083258 0.580489
vt 0.083258 0.961162
vt 0.052874 0.961162
vt 0.052874 0.790043
vt 0.083258 0.790043
vt 0.083258 0.995427
vt 0.052874 0.995427
vt 0.048785 0.780309
vt 0.083258 0.780309
vt 0.049921 0.752096
vt 0.083258 0.752096
vt 0.054095 0.965664
vt 0.103317 0.695735
vt 0.052737 0.871066
vt 0.079786 0.616271
vt 0.029727 0.586447
vt 0.078887 0.580489
vt 0.019727 0.580489
vt 0.049076 0.845916
vt 0.220108 0.961162
vt 0.052874 0.695735
vt 0.083258 0.695735
vt 0.083258 0.845916
vt 0.052874 0.845916
vt 0.220108 0.580489
vt 0.136551 0.961162
vt 0.136551 0.895717
vt 0.078887 0.961162
vt 0.019727 0.695735
vt 0.103317 0.895717
vt 0.049076 0.695735
vn 0.000000 1.000000 0.000000
vn 0.000000 1.000000 0.000000
vn 0.000000 1.000000 0.000000
vn 0.000000 1.000000 0.000000
vn 0.000000 0.000000 1.000000
vn 0.000000 0.000000 1.000000
vn 0.000000 0.000000 1.000000
vn 0.000000 0.000000 1.000000
vn -0.022941 0.000000 -0.999737
vn -0.022941 0.000000 -0.999737
vn -0.022941 0.000000 -0.999737
vn -0.022941 0.000000 -0.999737
vn 0.883332 0.000000 -0.468748
vn 0.883332 0.000000 -0.468748
vn 0.883332 0.000000 -0.468748
vn 0.883332 0.000000 -0.468748
vn -0.884034 -0.010392 0.467308
vn -0.884034 -0.010392 0.467308
vn -0.884762 -0.002487 0.466036
vn -0.884034 -0.010392 0.467308
vn -0.885124 -0.007283 0.465299
vn -0.884762 -0.002487 0.466036
vn -0.884762 -0.002487 0.466036
vn -0.885124 -0.007283 0.465299
vn -0.885261 -0.001324 0.465093
vn -0.885124 -0.007283 0.465299
vn -0.886924 -0.009447 0.461819
vn -0.885261 -0.001324 0.465093
vn -0.885261 -0.001324 0.465093
vn -0.886924 -0.009447 0.461819
vn -0.886986 -0.010430 0.461679
vn 0.000000 1.000000 0.000000
vn 0.000000 1.000000 0.000000
vn 0.000000 1.000000 0.000000
vn 0.000000 1.000000 0.000000
vn 0.000000 0.000000 -1.000000
vn 0.000000 0.000000 -1.000000
vn 0.000000 0.000000 -1.000000
vn 0.000000 0.000000 -1.000000
vn 0.000000 0.000000 1.000000
vn 0.000000 0.000000 1.000000
vn 0.000000 0.000000 1.000000
vn 0.000000 0.000000 1.000000
vn 0.000000 1.000000 0.000000
vn 0.000000 1.000000 0.000000
vn 0.000000 1.000000 0.000000
vn 0.000000 1.000000 0.000000
vn -0.882486 0.000000 -0.470338
vn -0.882486 0.000000 -0.470338
vn -0.882486 0.000000 -0.470338
vn -0.882486 0.000000 -0.470338
vn 0.883328 -0.009198 0.468664
vn 0.883328 -0.009198 0.468664
vn 0.883068 -0.007685 0.469183
vn 0.882905 -0.006748 0.469503
vn 0.000000 1.000000 0.000000
vn 0.000000 1.000000 0.000000
vn 0.000000 1.000000 0.000000
vn 0.000000 1.000000 0.000000
vn 0.058979 0.000000 -0.998259
vn 0.058979 0.000000 -0.998259
vn 0.058979 0.000000 -0.998259
vn 0.058979 0.000000 -0.998259
vn 0.000000 -0.000000 1.000000
vn -0.000000 0.000000 1.000000
vn 0.000000 0.000000 1.000000
vn 0.000000 0.000000 1.000000
vn 0.000000 0.000000 1.000000
vn 0.000000 0.000000 1.000000
vn 0.000000 0.000000 1.000000
vn 0.000000 0.000000 1.000000
vn 0.000000 -0.000000 1.000000
vn 0.000000 -0.000000 1.000000
vn 0.000000 0.000000 1.000000
vn 0.000000 -0.000000 1.000000
vn -0.000000 0.000000 1.000000
vn 0.000000 -0.000000 1.000000
vn 0.000000 0.000000 1.000000
vn 0.000000 1.000000 0.000000
vn 0.000000 1.000000 0.000000
vn 0.000000 1.000000 0.000000
vn 0.000000 1.000000 0.000000
vn 0.000000 0.000000 1.000000
vn 0.000000 0.000000 1.000000
vn 0.000000 0.000000 1.000000
vn 0.000000 0.000000 1.000000
vn -0.000000 0.000000 1.000000
vn -0.000000 0.000000 1.000000
vn -0.000000 0.000000 1.000000
vn -0.000000 0.000000 1.000000
vn -1.000000 -0.000000 -0.000000
vn -1.000000 -0.000000 -0.000000
vn -1.000000 -0.000000 -0.000000
vn -1.000000 -0.000000 -0.000000
vn -1.000000 0.000000 0.000000
vn -1.000000 0.000000 0.000000
vn -1.000000 0.000000 0.000000
vn -1.000000 0.000000 0.000000
vn 0.884894 0.000000 0.465792
vn 0.884894 -0.000000 0.465792
vn 0.884894 0.000000 0.465792
vn 0.884894 0.000000 0.465792
vn 0.884894 -0.000000 0.465792
vn 0.884894 0.000000 0.465792
vn 0.884894 -0.000000 0.465792
vn 0.884894 -0.000000 0.465792
vn 0.884894 -0.000000 0.465792
vn 0.884894 0.000000 0.465792
vn 0.884894 -0.000000 0.465792
vn 0.884894 -0.000000 0.465792
vn 0.884894 -0.000000 0.465792
vn 0.884894 -0.000000 0.465792
vn 0.884894 0.000000 0.465792
vn 0.884894 0.000000 0.465792
vn 0.884894 -0.000000 0.465792
vn 0.884894 0.000000 0.465792
vn 0.884894 0.000000 0.465792
vn 0.884894 -0.000000 0.465792
vn 0.884894 0.000000 0.465792
vn 0.884894 -0.000000 0.465792
vn 0.884894 -0.000000 0.465792
vn 0.884894 0.000000 0.465792
vn 0.884894 0.000000 0.465792
vn 0.884894 0.000000 0.465792
vn 0.884894 0.000000 0.465792
vn 0.884894 0.000000 0.465792
vn 0.884894 -0.000000 0.465792
vn 0.884894 -0.000000 0.465792
vn 0.884894 -0.000000 0.465792
vn 0.884894 -0.000000 0.465792
vn 0.884894 -0.000000 0.465792
vn 0.884894 0.000000 0.465792
vn 0.884894 -0.000000 0.465792
vn 0.884894 0.000000 0.465792
vn 0.884894 0.000000 0.465792
vn 1.000000 -0.000000 0.000000
vn 1.000000 -0.000000 0.000000
vn 1.000000 -0.000000 0.000000
vn 1.000000 -0.000000 0.000000
vn 1.000000 0.000000 0.000000
vn 1.000000 0.000000 0.000000
vn 1.000000 0.000000 0.000000
vn 1.000000 0.000000 0.000000
vn 1.000000 0.000000 0.000000
vn 1.000000 0.000000 0.000000
vn 1.000000 0.000000 0.000000
vn 1.000000 0.000000 0.000000
vn -0.887034 0.000000 0.461704
vn -0.887034 0.000000 0.461704
vn -0.887034 0.000000 0.461704
vn -0.887034 0.000000 0.461704
vn -0.887034 -0.000000 0.461704
vn -0.887034 -0.000000 0.461704
vn -0.887034 -0.000000 0.461704
vn -0.887034 -0.000000 0.461704
vn -0.887034 0.000001 0.461704
vn -0.887034 0.000001 0.461704
vn -0.887034 0.000001 0.461704
vn -0.887034 0.000001 0.461704
vn 0.000000 -0.000000 1.000000
vn 0.000000 -0.000000 1.000000
vn 0.000000 -0.000000 1.000000
vn 0.000000 -0.000000 1.000000
vn 0.000000 0.000000 1.000000
vn 0.000000 0.000000 1.000000
vn 0.000000 0.000000 1.000000
vn 0.000000 0.000000 1.000000
vn -0.000000 0.414450 0.910072
vn -0.000000 0.414450 0.910072
vn -0.000000 0.414450 0.910072
vn -0.000000 0.414450 0.910072
vn -0.000000 -0.447214 0.894427
vn -0.000000 -0.447214 0.894427
vn -0.000000 -0.447214 0.894427
vn -0.000000 -0.447214 0.894427
vn 0.598669 0.509070 0.618420
vn 0.598604 0.507260 0.619968
vn 0.600955 0.504754 0.619739
vn 0.692705 0.381157 0.612274
vn 0.600955 0.504754 0.619739
vn 0.672856 0.408781 0.616574
vn 0.598604 0.507260 0.619968
vn 0.672856 0.408781 0.616574
vn 0.600955 0.504754 0.619739
vn 0.583165 0.000000 0.812354
vn 0.583165 0.000000 0.812354
vn 0.583165 0.000000 0.812354
vn 0.583165 0.000000 0.812354
vn 0.821271 -0.371906 0.432666
vn 0.821471 -0.371939 0.432257
vn 0.831048 -0.373473 0.412161
vn 0.831048 -0.373473 0.412161
vn -0.586908 0.000000 0.809654
vn -0.586908 0.000000 0.809654
vn -0.586908 0.000000 0.809654
vn -0.586908 0.000000 0.809654
vn -0.648728 0.448331 0.614939
vn -0.648728 0.448331 0.614939
vn -0.648728 0.448331 0.614939
vn -0.648728 0.448331 0.614939
vn -0.793388 -0.447212 0.412961
vn -0.793388 -0.447212 0.412961
vn -0.793388 -0.447212 0.412961
vn -0.793388 -0.447212 0.412961
vn 0.000000 0.414450 0.910072
vn 0.000000 0.414450 0.910072
vn 0.000000 0.414450 0.910072
vn 0.000000 0.414450 0.910072
vn 0.000000 -0.447214 0.894427
vn 0.000000 -0.447214 0.894427
vn 0.000000 -0.447214 0.894427
vn 0.000000 -0.447214 0.894427
vn 0.888068 -0.008919 0.459626
vn 0.888068 -0.008919 0.459626
vn 0.888068 -0.008919 0.459626
vn 0.888068 -0.008919 0.459626
vn 0.000090 0.024805 0.999692
vn 0.000006 0.024830 0.999692
vn 0.000067 0.024853 0.999691
vn 0.000006 0.024830 0.999692
vn 0.000028 0.024850 0.999691
vn 0.000067 0.024853 0.999691
vn 0.000067 0.024853 0.999691
vn 0.000028 0.024850 0.999691
vn 0.000136 0.024921 0.999689
vn 0.000137 0.024921 0.999689
vn 0.000136 0.024921 0.999689
vn 0.000028 0.024850 0.999691
vn -0.891220 -0.000257 0.453571
vn -0.887949 -0.006060 0.459903
vn -0.891220 -0.000257 0.453571
vn -0.891220 -0.000257 0.453571
vn -0.887949 -0.006060 0.459903
vn -0.888335 -0.006774 0.459147
vn -0.887949 -0.006060 0.459903
vn -0.888721 -0.011785 0.458296
vn -0.888335 -0.006774 0.459147
vn -0.888335 -0.006774 0.459147
vn -0.888721 -0.011785 0.458296
vn -0.895610 -0.030717 0.443778
vn -0.888721 -0.011785 0.458296
vn -0.899123 -0.036197 0.436197
vn -0.895610 -0.030717 0.443778
vn 0.000000 0.000000 1.000000
vn 0.000000 0.000000 1.000000
vn 0.000000 0.000000 1.000000
vn 0.000000 0.000000 1.000000
vn -0.000000 0.000000 1.000000
vn -0.000000 0.000000 1.000000
vn -0.000000 0.000000 1.000000
vn -0.000000 0.000000 1.000000
vn -0.000000 -0.000000 1.000000
vn -0.000000 0.000000 1.000000
vn -0.000000 -0.000000 1.000000
vn -0.000001 -0.000000 1.000000
vn -0.000000 0.000000 1.000000
vn -0.000000 0.000000 1.000000
vn -0.000000 0.000000 1.000000
vn -0.000000 0.000000 1.000000
vn -0.000001 -0.000000 1.000000
vn -0.000000 0.000000 1.000000
vn -0.000000 0.000000 1.000000
vn -1.000000 0.000000 -0.000000
vn -1.000000 0.000000 -0.000000
vn -1.000000 0.000000 -0.000000
vn -1.000000 0.000000 -0.000000
vn 0.000000 -1.000000 0.000000
vn 0.000000 -1.000000 0.000000
vn 0.000000 -1.000000 0.000000
vn 0.000000 -1.000000 0.000000
vn -0.000000 0.447213 0.894427
vn -0.000000 0.447213 0.894427
vn -0.000000 0.447213 0.894427
vn -0.000000 0.447213 0.894427
vn -1.000000 -0.000000 0.000000
vn -1.000000 -0.000000 0.000000
vn -1.000000 -0.000000 0.000000
vn -1.000000 -0.000000 0.000000
vn 0.000000 -1.000000 0.000000
vn 0.000000 -1.000000 0.000000
vn 0.000000 -1.000000 0.000000
vn 0.000000 -1.000000 0.000000
vn 0.611299 0.495893 0.616769
vn 0.611299 0.495893 0.616769
vn 0.611299 0.495893 0.616769
vn 0.611299 0.495893 0.616769
vn 0.000127 0.266845 0.963740
vn 0.000010 0.266004 0.963972
vn 0.000112 0.266735 0.963770
vn 0.000112 0.266735 0.963770
vn 0.000010 0.266004 0.963972
vn 0.000039 0.265999 0.963973
vn 0.000010 0.266004 0.963972
vn -0.000008 0.266103 0.963945
vn 0.000039 0.265999 0.963973
vn 0.000039 0.265999 0.963973
vn -0.000008 0.266103 0.963945
vn 0.000131 0.265834 0.964019
vn 0.000000 -1.000000 0.000000
vn 0.000000 -1.000000 0.000000
vn 0.000000 -1.000000 0.000000
vn 0.000000 -1.000000 0.000000
vn 0.000000 -1.000000 0.000000
vn 0.000000 -1.000000 0.000000
vn 0.000000 -1.000000 0.000000
vn 0.000000 -1.000000 0.000000
vn -0.568734 0.546358 0.614845
vn -0.572222 0.541568 0.615846
vn -0.577228 0.532997 0.618645
vn -0.662988 0.444648 0.602275
vn -0.630837 0.471444 0.616267
vn -0.652080 0.453778 0.607353
vn -0.577228 0.532997 0.618645
vn -0.572222 0.541568 0.615846
vn -0.643652 0.457788 0.613304
vn -0.572222 0.541568 0.615846
vn -0.652080 0.453778 0.607353
vn -0.643652 0.457788 0.613304
vn -0.652080 0.453778 0.607353
vn -0.630837 0.471444 0.616267
vn -0.643652 0.457788 0.613304
vn 0.000000 -1.000000 0.000000
vn 0.000000 -1.000000 0.000000
vn 0.000000 -1.000000 0.000000
vn 0.000000 -1.000000 0.000000
vn 1.000000 0.000001 0.000000
vn 1.000000 0.000001 0.000000
vn 1.000000 0.000001 0.000000
vn 1.000000 0.000001 0.000000
vn 0.000000 0.447214 0.894427
vn 0.000000 0.447214 0.894427
vn 0.000000 0.447213 0.894427
vn 0.000000 0.447213 0.894427
vn -0.264906 -0.927173 0.264906
vn -0.264906 -0.927173 0.264906
vn -0.264906 -0.927173 0.264906
vn -0.026349 0.136666 0.990267
vn -0.026349 0.136666 0.990267
vn -0.026349 0.136666 0.990267
vn 0.257663 -0.966235 0.000000
vn 0.257663 -0.966235 0.000000
vn 0.257663 -0.966235 0.000000
vn 0.038652 0.123975 0.991532
vn 0.038652 0.123975 0.991532
vn 0.038652 0.123975 0.991532
vn -0.753718 0.225908 0.617151
vn -0.753718 0.225908 0.617151
vn -0.753718 0.225908 0.617151
vn -0.791737 0.320756 0.519873
vn -0.791737 0.320756 0.519873
vn -0.791737 0.320756 0.519873
vn -0.432686 -0.145135 0.889786
vn -0.432686 -0.145135 0.889786
vn -0.432686 -0.145135 0.889786
vn -0.489070 0.083304 0.868258
vn -0.489070 0.083304 0.868258
vn -0.489070 0.083304 0.868258
vn 0.745749 0.252690 0.616447
vn 0.745749 0.252690 0.616447
vn 0.745749 0.252690 0.616447
vn 0.822696 0.272596 0.498862
vn 0.822696 0.272596 0.498862
vn 0.822696 0.272596 0.498862
vn 0.648170 -0.139759 0.748561
vn 0.648170 -0.139759 0.748561
vn 0.648170 -0.139759 0.748561
vn 0.514989 0.100625 0.851270
vn 0.514989 0.100625 0.851270
vn 0.514989 0.100625 0.851270
vn 0.694326 0.395605 0.601172
vn 0.685510 0.401908 0.607079
vn 0.663078 0.418176 0.620851
vn 0.692705 0.381157 0.612274
vn 0.672856 0.408781 0.616574
vn 0.685510 0.401908 0.607079
vn 0.672856 0.408781 0.616574
vn 0.663078 0.418176 0.620851
vn 0.685510 0.401908 0.607079
vn 0.882905 -0.006748 0.469503
vn 0.883068 -0.007685 0.469183
vn 0.882528 -0.004596 0.470237
vn 0.882528 -0.004596 0.470237
vn 0.814041 -0.370671 0.447147
vn 0.821471 -0.371939 0.432257
vn 0.821271 -0.371906 0.432666
vn 0.814041 -0.370671 0.447147
s off
f 3/79/1 15/80/2 13/81/3 6/82/4
f 23/107/5 35/108/6 36/109/7 24/110/8
f 14/126/9 1/127/10 6/128/11 13/129/12
f 17/1/13 8/2/14 7/3/15 16/4/16
f 41/7/17 69/8/18 39/6/19
f 69/8/20 72/9/21 39/6/22
f 39/6/23 72/9/24 40/5/25
f 72/9/26 70/10/27 40/5/28
f 40/5/29 70/10/30 42/11/31
f 7/86/32 9/85/33 18/87/34 16/88/35
f 8/130/36 11/131/37 10/132/38 7/133/39
f 12/134/40 44/135/41 45/136/42 9/137/43
f 10/84/44 12/83/45 9/85/46 7/86/47
f 11/28/48 14/29/49 13/30/50 10/31/51
f 36/32/52 35/33/53 81/34/54 82/35/55
f 13/81/56 15/80/57 12/83/58 10/84/59
f 2/146/60 17/147/61 16/148/62 5/149/63
f 42/150/64 70/151/65 29/156/66
f 28/155/67 29/156/68 41/154/69
f 41/154/70 29/156/71 69/153/72
f 69/153/73 29/156/74 71/152/75
f 70/151/76 71/152/77 29/156/78
f 16/88/79 18/87/80 4/89/81 5/90/82
f 49/124/83 50/125/84 51/123/85 52/122/86
f 15/120/87 3/121/88 22/114/89 21/186/90
f 3/59/91 6/60/92 24/61/93 22/62/94
f 6/60/95 1/63/96 23/64/97 24/61/98
f 43/43/99 44/44/100 78/50/101
f 78/50/102 44/44/103 79/49/104
f 25/188/105 73/46/106 44/44/107
f 79/49/108 44/44/109 77/48/110
f 77/48/111 44/44/112 20/36/113
f 20/36/114 44/44/115 74/37/116
f 74/37/117 44/44/118 76/47/119
f 44/44/120 73/46/121 76/47/122
f 44/44/123 12/52/124 26/51/125 25/188/126
f 12/52/127 15/53/128 26/51/129
f 26/51/130 15/53/131 83/170/132
f 15/53/133 21/42/134 83/170/135
f 47/69/136 2/70/137 28/71/138 27/72/139
f 2/70/140 5/75/141 29/76/142 28/71/143
f 5/75/144 4/77/145 30/78/146 29/76/147
f 9/16/148 45/17/149 31/185/150 32/184/151
f 45/17/152 46/18/153 33/14/154 31/185/155
f 18/19/156 9/16/157 32/184/158 34/178/159
f 46/162/160 47/163/161 27/181/162 33/182/163
f 4/164/164 18/165/165 34/161/166 30/160/167
f 19/111/168 20/175/169 35/108/170 23/107/171
f 21/113/172 22/189/173 24/110/174 36/109/175
f 20/176/176 74/174/177 35/33/178
f 81/34/179 35/33/180 75/38/181
f 74/174/182 75/38/183 35/33/184
f 25/45/185 26/171/186 38/40/187 37/39/188
f 82/35/189 83/41/190 21/187/191 36/32/192
f 32/12/193 31/13/194 39/6/195 40/5/196
f 31/13/197 33/183/198 41/7/199 39/6/200
f 34/15/201 32/12/202 40/5/203 42/11/204
f 33/158/205 27/159/206 28/155/207 41/154/208
f 30/180/209 34/179/210 42/150/211 29/156/212
f 50/57/213 53/58/214 54/55/215 51/54/216
f 54/138/217 53/143/218 63/142/219
f 53/143/220 56/144/221 63/142/222
f 63/142/223 56/144/224 61/140/225
f 55/141/226 61/140/227 56/144/228
f 55/20/229 56/25/230 66/21/231
f 66/21/232 56/25/233 68/27/234
f 56/25/235 57/26/236 68/27/237
f 68/27/238 57/26/239 65/23/240
f 57/26/241 58/24/242 65/23/243
f 57/168/244 59/169/245 60/167/246 58/166/247
f 48/115/248 43/116/249 19/177/250
f 43/116/251 78/117/252 19/177/253
f 78/117/254 80/118/255 19/177/256
f 20/112/257 19/177/258 77/119/259
f 80/118/260 77/119/261 19/177/262
f 1/63/263 48/65/264 19/66/265 23/64/266
f 14/91/267 50/92/268 49/93/269 1/94/270
f 43/116/271 48/115/272 52/122/273 51/123/274
f 48/65/275 1/63/276 49/67/277 52/68/278
f 11/95/279 53/96/280 50/92/281 14/91/282
f 44/44/283 43/43/284 51/54/285 54/55/286
f 54/138/287 62/139/288 44/135/289
f 44/135/290 62/139/291 45/136/292
f 62/139/293 61/140/294 45/136/295
f 45/136/296 61/140/297 55/141/298
f 8/97/299 56/98/300 53/96/301 11/95/302
f 17/99/303 57/100/304 56/98/305 8/97/306
f 58/24/307 46/18/308 65/23/309
f 55/20/310 66/21/311 45/17/312
f 65/23/313 46/18/314 67/22/315
f 46/18/316 45/17/317 67/22/318
f 45/17/319 66/21/320 67/22/321
f 2/101/322 59/102/323 57/100/324 17/99/325
f 2/70/326 47/69/327 60/73/328 59/74/329
f 47/163/330 46/162/331 58/166/332 60/167/333
f 61/103/334 62/104/335 64/105/336
f 64/145/337 63/142/338 61/140/339
f 64/105/340 62/104/341 54/106/342
f 54/138/343 63/142/344 64/145/345
f 68/27/346 67/22/347 66/21/348
f 65/23/349 67/22/350 68/27/351
f 70/151/352 72/157/353 71/152/354
f 71/152/355 72/157/356 69/153/357
f 75/172/358 76/47/359 73/46/360
f 74/37/361 76/47/362 75/172/363
f 80/56/364 79/49/365 77/48/366
f 78/50/367 79/49/368 80/56/369
f 25/45/370 37/39/371 73/173/372
f 81/34/373 75/38/374 37/39/375
f 75/38/376 73/173/377 37/39/378
f 82/35/379 81/34/380 37/39/381 38/40/382
f 26/171/383 83/41/384 82/35/385 38/40/386
