# This file uses centimeters as units for non-parametric coordinates.

v 0.000000 -0.000006 -0.002930
v 0.000000 -0.000009 125.000000
v 0.000000 12.499992 125.000000
v 0.000000 12.499992 93.749023
v 0.000000 24.999992 93.749023
v 0.000000 24.999992 62.498047
v 0.000000 37.499989 62.498047
v 0.000000 37.499989 31.248047
v 0.000000 49.999992 31.248047
v 0.000000 49.999992 -0.002930
v 500.000000 37.499996 62.498047
v 500.000000 12.499992 125.000000
v 500.000000 -0.000009 125.000000
v 500.000000 12.499992 93.749023
v 500.000000 24.999992 93.749023
v 500.000000 24.999992 62.498047
v 500.000000 37.499989 31.248047
v 500.000000 49.999992 31.248047
v 500.000000 -0.000006 -0.002930
v 500.000000 49.999992 -0.002930
v 86.891602 37.499992 62.498047
v 204.107422 37.499992 62.498047
v 135.413086 24.999992 62.498047
v 148.235352 37.499992 57.665039
v 432.853516 24.999992 93.749023
v 340.315430 24.999990 93.749023
v 396.680664 12.499992 93.749023
v 410.898438 24.999992 89.244141
v 231.063477 -0.000009 125.000000
v 233.573242 12.499992 121.110352
v 242.510742 37.499989 31.248047
v 241.124023 49.999992 28.295898
vt 0.025360 0.895167
vt 0.009412 0.856277
vt 0.007797 0.859577
vt 0.012196 0.870111
vt 0.010639 0.873527
vt 0.014898 0.883535
vt 0.013396 0.887059
vt 0.017520 0.896567
vt 0.016071 0.900190
vt 0.020068 0.909223
vt 0.049715 0.885439
vt 0.077294 0.616703
vt 0.100569 0.614121
vt 0.226900 0.877535
vt 0.225413 0.887540
vt 0.117048 0.892245
vt 0.108486 0.851482
vt 0.109391 0.856087
vt 0.182543 0.593111
vt 0.227407 0.863496
vt 0.198976 0.595764
vt 0.226370 0.860112
vt 0.225884 0.874035
vt 0.072328 0.611900
vt 0.156937 0.866757
vt 0.189219 0.597754
vt 0.116310 0.896783
vt 0.226872 0.845752
vt 0.221276 0.886635
vt 0.224956 0.900648
vt 0.226407 0.891149
vt 0.227931 0.849011
vt 0.181198 0.862221
vt 0.158283 0.597647
vt 0.197630 0.864874
vt 0.187873 0.866863
vt 0.070982 0.881010
vt 0.051060 0.616329
vt 0.099223 0.883230
vt 0.075949 0.885813
vn -1.000000 0.000000 0.000000
vn -1.000000 0.000000 0.000000
vn -1.000000 0.000000 0.000000
vn -1.000000 0.000000 0.000000
vn -1.000000 0.000000 0.000000
vn -1.000000 0.000000 0.000000
vn -1.000000 0.000000 0.000000
vn -1.000000 0.000000 0.000000
vn -1.000000 0.000000 0.000000
vn -1.000000 0.000000 0.000000
vn -1.000000 0.000000 0.000000
vn -1.000000 0.000000 0.000000
vn -1.000000 0.000000 0.000000
vn -1.000000 0.000000 0.000000
vn -1.000000 0.000000 0.000000
vn -1.000000 0.000000 0.000000
vn -0.000000 1.000000 -0.000000
vn -0.000000 1.000000 -0.000000
vn -0.000000 1.000000 -0.000000
vn -0.000000 1.000000 -0.000000
vn -0.000000 1.000000 -0.000000
vn -0.000000 1.000000 -0.000000
vn -0.000000 1.000000 -0.000000
vn -0.000000 1.000000 -0.000000
vn 0.008273 0.152920 0.988204
vn 0.008273 0.152920 0.988204
vn 0.000000 0.000000 1.000000
vn 0.000000 0.000000 1.000000
vn 0.000000 1.000000 0.000000
vn 0.000000 1.000000 0.000000
vn 0.000000 1.000000 0.000000
vn 0.000000 1.000000 0.000000
vn -0.000000 0.000000 1.000000
vn 0.000000 0.000000 1.000000
vn 0.000000 0.000000 1.000000
vn -0.000000 0.000000 1.000000
vn 0.000000 1.000000 -0.000000
vn 0.000000 1.000000 0.000000
vn 0.000000 1.000000 -0.000000
vn 0.000000 1.000000 -0.000000
vn 0.000000 1.000000 0.000000
vn 0.000000 1.000000 0.000000
vn 0.000000 1.000000 0.000000
vn 0.000000 1.000000 -0.000000
vn 0.000000 0.000000 1.000000
vn 0.000000 0.000000 1.000000
vn 0.000000 0.000000 1.000000
vn 0.000000 0.000000 1.000000
vn 0.006062 0.117601 0.993042
vn 0.006062 0.117601 0.993043
vn 0.000000 0.000000 1.000000
vn 0.000000 0.000000 1.000000
vn 0.000000 -1.000000 -0.000000
vn 0.000000 -1.000000 -0.000000
vn 0.000000 -1.000000 -0.000000
vn 0.000000 -1.000000 -0.000000
vn 0.000000 -1.000000 -0.000000
vn 0.000000 1.000000 -0.000000
vn 0.000000 1.000000 -0.000000
vn 0.000000 1.000000 -0.000000
vn 0.000000 1.000000 0.000000
vn 0.000000 1.000000 -0.000000
vn 0.000000 0.000000 -1.000000
vn 0.000000 0.000000 -1.000000
vn 0.000000 0.000000 -1.000000
vn 0.000000 0.000000 -1.000000
vn 1.000000 0.000000 -0.000000
vn 1.000000 0.000001 0.000001
vn 1.000000 0.000000 0.000001
vn 1.000000 0.000000 -0.000000
vn 1.000000 0.000000 0.000001
vn 1.000000 0.000000 0.000001
vn 1.000000 0.000000 0.000000
vn 1.000000 0.000000 -0.000000
vn 1.000000 0.000000 0.000000
vn 1.000000 0.000000 -0.000000
vn 1.000000 0.000000 -0.000000
vn 1.000000 0.000000 -0.000000
vn 1.000000 0.000000 -0.000000
vn 1.000000 0.000000 -0.000001
vn 1.000000 0.000000 -0.000001
vn 1.000000 0.000000 -0.000000
vn -0.077886 0.428027 0.900404
vn -0.077886 0.428027 0.900404
vn -0.077886 0.428027 0.900404
vn 0.000000 0.000000 1.000000
vn 0.000000 0.000000 1.000000
vn 0.000000 0.000000 1.000000
vn 0.000000 0.000000 1.000000
vn 0.075128 0.291627 0.953577
vn 0.075128 0.291627 0.953577
vn 0.075128 0.291627 0.953577
vn -0.173745 0.502789 0.846768
vn -0.173745 0.502789 0.846768
vn -0.173745 0.502789 0.846768
vn 0.000000 0.000000 1.000000
vn 0.000000 0.000000 1.000000
vn -0.000000 0.000000 1.000000
vn -0.000000 0.000000 1.000000
vn 0.000000 0.000000 1.000000
vn -0.007178 0.154436 0.987977
vn -0.007178 0.154436 0.987977
vn 0.000000 0.000000 1.000000
vn 0.000000 1.000000 0.000000
vn 0.000000 1.000000 0.000000
vn 0.000000 1.000000 0.000000
vn 0.000000 1.000000 0.000000
vn 0.000000 0.000000 1.000000
vn -0.005678 0.116959 0.993121
vn -0.005678 0.116959 0.993121
vn 0.000000 0.000000 1.000000
vn 0.061219 0.276051 0.959191
vn 0.061219 0.276051 0.959191
vn 0.061219 0.276051 0.959191
s off
f 1/1/1 2/2/2 3/3/3 4/4/4
f 4/4/5 5/5/6 6/6/7 1/1/8
f 6/6/9 7/7/10 8/8/11 1/1/12
f 8/8/13 9/9/14 10/10/15 1/1/16
f 7/7/17 21/11/18 24/40/19 22/39/20 11/14/21 17/15/22 31/16/23 8/8/24
f 29/17/25 30/18/26 3/3/27 2/2/28
f 30/18/29 27/33/30 4/4/31 3/3/32
f 15/20/33 25/35/34 27/33/35 14/22/36
f 16/23/37 23/37/38 6/6/39 5/5/40 26/25/41 28/36/42 25/35/43 15/20/44
f 11/14/45 22/39/46 23/37/47 16/23/48
f 31/16/49 32/27/50 9/9/51 8/8/52
f 13/28/53 29/17/54 2/2/55 1/1/56 19/29/57
f 20/30/58 10/10/59 9/9/60 32/27/61 18/31/62
f 19/29/63 1/1/64 10/10/65 20/30/66
f 17/15/67 11/14/68 16/23/69 19/29/70
f 16/23/71 15/20/72 14/22/73 19/29/74
f 14/22/75 12/32/76 13/28/77 19/29/78
f 19/29/79 20/30/80 18/31/81 17/15/82
f 22/13/83 24/12/84 23/24/85
f 23/37/86 21/11/87 7/7/88 6/6/89
f 23/24/90 24/12/91 21/38/92
f 25/21/93 28/26/94 27/19/95
f 27/33/96 26/25/97 5/5/98 4/4/99
f 12/32/100 30/18/101 29/17/102 13/28/103
f 14/22/104 27/33/105 30/18/106 12/32/107
f 18/31/108 32/27/109 31/16/110 17/15/111
f 27/19/112 28/26/113 26/34/114
