# This file uses centimeters as units for non-parametric coordinates.

v -31.706177 -40.540745 42.345016
v 31.706177 -40.540745 42.345016
v -31.706177 40.540749 42.345016
v 31.706177 40.540749 42.345016
v -31.706177 40.540749 0.000000
v 31.706177 40.540749 0.000000
v -31.706177 -40.540745 0.000000
v 31.706177 -40.540745 0.000000
v -19.174728 -30.175049 48.528717
v -19.174728 30.175045 48.528717
v 19.174728 30.175045 48.528717
v 19.174728 -30.175049 48.528717
v 0.144257 -64.118256 42.345016
v -0.135405 64.118256 38.836143
v -0.088129 43.946903 48.528717
v 0.108822 -43.946903 48.528717
v -0.144257 64.118256 0.000000
v -0.144257 -64.118256 0.000000
vt 0.056899 0.821245
vt 0.056899 0.821245
vt 0.076728 0.836054
vt 0.076722 0.836054
vt 0.056899 0.770320
vt 0.076722 0.755511
vt 0.076903 0.755511
vt 0.056899 0.770320
vt 0.088856 0.814735
vt 0.076757 0.823385
vt 0.076881 0.768181
vt 0.088856 0.776830
vt 0.064769 0.814735
vt 0.096726 0.821245
vt 0.096726 0.821245
vt 0.096726 0.770320
vt 0.096726 0.770320
vt 0.064769 0.776830
vn -0.598417 0.801185 0.000065
vn -0.598417 0.801185 0.000065
vn -0.598417 0.801185 0.000065
vn -0.598417 0.801185 0.000065
vn -0.596720 -0.802447 0.002033
vn -0.596720 -0.802447 0.002033
vn -0.596720 -0.802447 0.002033
vn -0.596720 -0.802447 0.002033
vn -0.000000 0.000000 1.000000
vn -0.000000 0.000000 1.000000
vn -0.000000 0.000000 1.000000
vn -0.000000 0.000000 1.000000
vn -0.216767 0.378541 0.899844
vn -0.216767 0.378541 0.899844
vn -0.216767 0.378541 0.899844
vn -0.216767 0.378541 0.899844
vn 1.000000 0.000000 0.000000
vn 1.000000 0.000000 0.000000
vn 1.000000 0.000000 0.000000
vn 1.000000 0.000000 0.000000
vn -0.442512 0.000000 0.896763
vn -0.442512 0.000000 0.896763
vn -0.442512 0.000000 0.896763
vn -0.442512 0.000000 0.896763
vn -0.212459 -0.290871 0.932875
vn -0.212459 -0.290871 0.932875
vn -0.212459 -0.290871 0.932875
vn -0.212459 -0.290871 0.932875
vn 0.000000 0.000000 -1.000000
vn 0.000000 0.000000 -1.000000
vn 0.000000 0.000000 -1.000000
vn 0.000000 0.000000 -1.000000
vn 0.595032 0.803702 -0.000065
vn 0.595032 0.803702 -0.000065
vn 0.595032 0.803702 -0.000065
vn 0.595032 0.803702 -0.000065
vn 0.000000 0.000000 1.000000
vn 0.000000 0.000000 1.000000
vn 0.000000 0.000000 1.000000
vn 0.000000 0.000000 1.000000
vn 0.215644 0.379583 0.899675
vn 0.215644 0.379583 0.899675
vn 0.215644 0.379583 0.899675
vn 0.215644 0.379583 0.899675
vn 0.213813 -0.289827 0.932890
vn 0.213813 -0.289827 0.932890
vn 0.213813 -0.289827 0.932890
vn 0.213813 -0.289827 0.932890
vn 0.000000 0.000000 -1.000000
vn 0.000000 0.000000 -1.000000
vn 0.000000 0.000000 -1.000000
vn 0.000000 0.000000 -1.000000
vn 0.596720 -0.802447 -0.002033
vn 0.596720 -0.802447 -0.002033
vn 0.596720 -0.802447 -0.002033
vn 0.596720 -0.802447 -0.002033
vn 0.442512 0.000000 0.896763
vn 0.442512 0.000000 0.896763
vn 0.442512 0.000000 0.896763
vn 0.442512 0.000000 0.896763
vn -1.000000 0.000000 0.000000
vn -1.000000 0.000000 0.000000
vn -1.000000 0.000000 0.000000
vn -1.000000 0.000000 0.000000
s off
f 5/1/1 3/2/2 14/3/3 17/4/4
f 7/5/5 18/6/6 13/7/7 1/8/8
f 11/9/9 15/10/10 16/11/11 12/12/12
f 10/13/13 15/10/14 14/3/15 3/2/16
f 6/14/17 4/15/18 2/16/19 8/17/20
f 10/13/21 3/2/22 1/8/23 9/18/24
f 1/8/25 13/7/26 16/11/27 9/18/28
f 17/4/29 18/6/30 7/5/31 5/1/32
f 17/4/33 14/3/34 4/15/35 6/14/36
f 16/11/37 15/10/38 10/13/39 9/18/40
f 14/3/41 15/10/42 11/9/43 4/15/44
f 16/11/45 13/7/46 2/16/47 12/12/48
f 8/17/49 18/6/50 17/4/51 6/14/52
f 13/7/53 18/6/54 8/17/55 2/16/56
f 12/12/57 2/16/58 4/15/59 11/9/60
f 7/5/61 1/8/62 3/2/63 5/1/64
