# This file uses centimeters as units for non-parametric coordinates.

v 0.002930 50.000000 0.000000
v -31.248047 50.000000 0.000000
v -31.248047 37.500000 0.000000
v -62.498047 37.500000 0.000000
v -62.498047 25.000000 0.000000
v -93.749023 25.000000 0.000000
v -93.749023 12.500000 0.000000
v -125.000000 12.500000 0.000000
v -93.749023 25.000000 38.833008
v -31.248047 50.000000 12.944336
v -31.248047 37.500000 12.944336
v -62.498047 37.500000 25.888672
v -62.498047 24.999996 25.888672
v -93.749023 12.500000 38.833008
v -125.000000 12.500000 51.778320
v 0.002930 -0.000004 0.000000
v -125.000000 0.000000 0.000000
v -125.000000 0.000000 51.778320
v 500.000000 50.000000 499.997070
v 500.000000 50.000000 531.248047
v 500.000000 37.500000 531.248047
v 500.000000 37.500000 562.498047
v 500.000000 25.000000 562.498047
v 500.000000 25.000000 593.749023
v 500.000000 12.500000 593.749023
v 500.000000 12.500000 625.000000
v 461.166016 25.000000 593.749023
v 487.054688 50.000000 531.248047
v 487.054688 37.500000 531.248047
v 474.111328 37.500000 562.498047
v 474.111328 24.999996 562.498047
v 461.166016 12.500000 593.749023
v 448.221680 12.500000 625.000000
v 500.000000 -0.000004 499.997070
v 500.000000 0.000000 625.000000
v 448.221680 0.000000 625.000000
v 500.000000 -0.000004 0.000000
v 500.000000 50.000000 0.000000
v 487.980469 50.000000 12.019531
v 488.410156 50.000000 479.687500
v 21.741211 50.000000 13.018555
v 474.146484 46.287472 25.424805
v 478.643555 46.287472 451.849609
v 50.458008 46.287472 25.746094
v 240.837891 50.000000 8.901367
v 236.227310 46.287472 26.704342
v 425.324219 50.000004 416.601563
v 332.013672 50.000000 323.291016
v 370.688477 50.000000 382.440430
v 389.551758 48.462921 369.302734
v 488.037109 50.000000 73.530273
v 488.154297 50.000000 201.738281
v 500.000000 50.000000 157.082031
v 475.412109 46.287468 145.396484
v 200.035156 50.000000 191.312500
v 64.119141 50.000000 55.396484
v 165.433395 46.287472 128.710098
v 91.608398 46.287476 66.696289
v 135.738281 50.000000 146.639648
v 73.554688 50.000000 80.003906
v 161.717773 37.500000 250.104492
v 265.185547 37.500000 353.572266
v 224.903320 24.999996 313.290039
v 237.454102 37.500000 310.238281
v 320.555664 12.500000 497.333984
v 412.857422 12.500000 589.635742
v 387.561523 12.500000 542.878906
v 371.537109 5.551987 548.315430
v -82.335938 12.500001 94.442383
v -8.319336 12.500000 168.458984
v -41.288086 12.500000 117.641602
v -53.312500 6.364441 123.465820
v 292.668182 50.000000 14.377507
v 280.413879 46.287472 36.603283
vt 0.018160 0.758256
vt 0.022182 0.765947
vt 0.018061 0.770392
vt 0.011972 0.765021
vt 0.025129 0.776929
vt 0.029071 0.784422
vt 0.023049 0.779137
vt 0.025635 0.775208
vt 0.023566 0.777407
vt 0.021654 0.767616
vt 0.017511 0.772079
vt 0.018711 0.756639
vt 0.012555 0.763376
vt 0.014648 0.748847
vt 0.006432 0.757962
vt 0.216205 0.758256
vt 0.212052 0.765947
vt 0.209157 0.776928
vt 0.205086 0.784422
vt 0.208560 0.775208
vt 0.212672 0.767616
vt 0.215562 0.756639
vt 0.219757 0.748847
vt 0.030952 0.777541
vt 0.007049 0.756359
vt 0.015222 0.747282
vt 0.219090 0.747282
vt 0.222278 0.765021
vt 0.216097 0.770392
vt 0.211199 0.779137
vt 0.210591 0.777407
vt 0.216739 0.772079
vt 0.221604 0.763376
vt 0.227819 0.757962
vt 0.202852 0.777541
vt 0.227111 0.756359
vt 0.116414 0.861072
vt 0.116267 0.853147
vt 0.192332 0.788572
vt 0.231552 0.605384
vt 0.159225 0.657985
vt 0.142864 0.665113
vt 0.221758 0.608480
vt 0.114523 0.690495
vt 0.058615 0.645553
vt 0.042876 0.788226
vt 0.116400 0.853466
vt 0.199320 0.785885
vt 0.035314 0.785885
vt 0.116443 0.857696
vt 0.073974 0.820105
vt 0.063560 0.644424
vt 0.114625 0.685385
vt 0.076337 0.817917
vt 0.177149 0.785885
vt 0.005194 0.599956
vt 0.144356 0.785885
vt 0.025862 0.600452
vt 0.161938 0.782419
vt 0.035561 0.603642
vt 0.015646 0.603124
vt 0.127344 0.848251
vt 0.180715 0.606286
vt 0.150064 0.828565
vt 0.180135 0.599870
vt 0.144271 0.836991
vt 0.201111 0.604654
vt 0.137763 0.835208
vt 0.155995 0.603572
vt 0.097973 0.785885
vt 0.150881 0.668063
vt 0.050207 0.785885
vt 0.128636 0.680231
vt 0.034000 0.597466
vt 0.080218 0.788312
vt 0.067373 0.604468
vt 0.057239 0.788259
vt 0.079022 0.782571
vt 0.056230 0.783327
vt 0.091997 0.602038
vt 0.065452 0.597286
vt 0.101469 0.767616
vt 0.138300 0.767616
vt 0.124233 0.766782
vt 0.125673 0.770296
vt 0.174076 0.748847
vt 0.207103 0.748847
vt 0.193916 0.752630
vt 0.192462 0.748412
vt 0.029914 0.748847
vt 0.056399 0.748847
vt 0.041586 0.751993
vt 0.040575 0.748463
vt 0.148448 0.580599
vt 0.130762 0.583539
vt 0.128481 0.578029
vt 0.097454 0.579345
vt 0.143806 0.622187
vt 0.146094 0.628104
vt 0.119016 0.622642
vt 0.164625 0.623792
vt 0.112971 0.638125
vt 0.114486 0.643124
vt 0.098159 0.638711
vt 0.135133 0.639644
vt 0.081812 0.827043
vt 0.068934 0.653848
vt 0.074151 0.652919
vt 0.084646 0.825290
vn 0.000000 1.000000 0.000000
vn 0.000000 1.000000 0.000000
vn 0.000000 1.000000 0.000000
vn 0.000000 1.000000 0.000000
vn 0.000000 1.000000 0.000000
vn 0.000000 1.000000 0.000000
vn 0.000000 1.000000 0.000000
vn -1.000000 0.000000 0.000000
vn -1.000000 0.000000 0.000000
vn -1.000000 0.000000 0.000000
vn -1.000000 0.000000 0.000000
vn 0.000000 1.000000 0.000000
vn 0.000000 1.000000 0.000000
vn 0.000000 1.000000 0.000000
vn 0.000000 1.000000 0.000000
vn -1.000000 0.000000 0.000000
vn -1.000000 0.000000 0.000000
vn -1.000000 0.000000 0.000000
vn -1.000000 0.000000 0.000000
vn -1.000000 0.000000 0.000000
vn -1.000000 0.000000 0.000000
vn -1.000000 0.000000 0.000000
vn -1.000000 0.000000 0.000000
vn 0.000000 1.000000 0.000000
vn 0.000000 1.000000 0.000000
vn 0.000000 1.000000 0.000000
vn 0.000000 1.000000 0.000000
vn 0.000000 1.000000 -0.000000
vn 0.000000 1.000000 -0.000000
vn 0.000000 1.000000 -0.000000
vn 0.000000 1.000000 -0.000000
vn 0.000000 1.000000 -0.000000
vn 0.000000 1.000000 -0.000000
vn 0.000000 1.000000 -0.000000
vn 0.000000 1.000000 0.000000
vn 0.000000 1.000000 0.000000
vn 0.000000 1.000000 0.000000
vn 0.000000 1.000000 0.000000
vn 0.000000 1.000000 0.000000
vn 0.000000 1.000000 0.000000
vn 0.000000 1.000000 0.000000
vn 0.000000 1.000000 0.000000
vn 0.000000 1.000000 0.000000
vn 0.000000 1.000000 0.000000
vn 0.000000 1.000000 0.000000
vn 0.000000 1.000000 0.000000
vn -0.000000 1.000000 0.000000
vn -0.000000 1.000000 0.000000
vn -0.000000 1.000000 0.000000
vn 0.000000 1.000000 0.000000
vn 0.000000 1.000000 0.000000
vn 0.000000 1.000000 0.000000
vn 0.000000 1.000000 0.000000
vn 0.000000 1.000000 0.000000
vn 0.000000 1.000000 0.000000
vn 0.000000 1.000000 0.000000
vn 0.000000 1.000000 0.000000
vn 0.000000 1.000000 0.000000
vn 0.000000 1.000000 0.000000
vn -0.707107 0.000000 0.707106
vn -0.707107 0.000000 0.707106
vn -0.707107 0.000000 0.707106
vn -0.707107 0.000000 0.707106
vn 0.000000 1.000000 -0.000000
vn 0.000000 1.000000 -0.000000
vn 0.000000 1.000000 -0.000000
vn 0.000000 1.000000 -0.000000
vn 0.000000 1.000000 -0.000000
vn 0.000000 1.000000 -0.000000
vn 0.000000 1.000000 -0.000000
vn 0.000000 1.000000 -0.000000
vn 0.000000 1.000000 0.000000
vn 0.000000 1.000000 0.000000
vn 0.000000 1.000000 0.000000
vn -0.707107 0.000000 0.707107
vn -0.707107 0.000000 0.707107
vn -0.707107 0.000000 0.707107
vn -0.707107 0.000000 0.707107
vn -0.707107 0.000000 0.707106
vn -0.707107 0.000000 0.707106
vn -0.707107 0.000000 0.707106
vn -0.707107 0.000000 0.707106
vn 0.000000 1.000000 0.000000
vn 0.000000 1.000000 0.000000
vn 0.000000 1.000000 0.000000
vn 0.000000 1.000000 0.000000
vn 0.000000 1.000000 0.000000
vn 0.000000 1.000000 0.000000
vn 0.000000 1.000000 0.000000
vn 0.000000 1.000000 0.000000
vn 0.000000 1.000000 0.000000
vn 0.000000 1.000000 0.000000
vn 0.000000 1.000000 0.000000
vn 0.000000 1.000000 0.000000
vn 0.000000 0.000000 -1.000000
vn 0.000000 0.000000 -1.000000
vn 0.000000 0.000000 -1.000000
vn 0.000000 0.000000 -1.000000
vn 0.000000 0.000000 -1.000000
vn 0.000000 0.000000 -1.000000
vn 0.000000 0.000000 -1.000000
vn 0.000000 0.000000 -1.000000
vn 0.000000 0.000000 -1.000000
vn 0.000000 0.000000 -1.000000
vn 0.000000 0.000000 -1.000000
vn 0.000000 0.000000 -1.000000
vn 0.000000 0.000000 -1.000000
vn 0.000000 0.000000 -1.000000
vn 0.000000 0.000000 -1.000000
vn 0.000000 0.000000 -1.000000
vn 0.000000 0.000000 -1.000000
vn 0.000000 0.000000 -1.000000
vn 0.000000 0.000000 -1.000000
vn 0.000000 0.000000 -1.000000
vn 0.000000 0.000000 -1.000000
vn 0.000000 0.000000 -1.000000
vn -1.000000 0.000000 0.000000
vn -1.000000 0.000000 0.000000
vn -1.000000 0.000000 0.000000
vn -1.000000 0.000000 0.000000
vn -0.707107 0.000000 0.707107
vn -0.707107 0.000000 0.707107
vn -0.707107 0.000000 0.707107
vn -0.707107 0.000000 0.707107
vn -0.707107 0.000000 0.707107
vn -0.707107 0.000000 0.707107
vn -0.707107 0.000000 0.707107
vn -0.707107 0.000000 0.707107
vn -0.707107 0.000000 0.707107
vn -0.707107 0.000000 0.707107
vn -0.707107 0.000000 0.707107
vn -0.707107 0.000000 0.707107
vn -0.707107 0.000000 0.707107
vn -0.707107 0.000000 0.707107
vn -0.707107 0.000000 0.707107
vn -0.707107 0.000000 0.707107
vn -0.707107 0.000000 0.707107
vn -0.707107 0.000000 0.707107
vn -0.000000 1.000000 -0.000000
vn -0.000000 1.000000 -0.000000
vn -0.000000 1.000000 -0.000000
vn -0.000000 1.000000 -0.000000
vn 0.000000 1.000000 0.000000
vn 0.000000 1.000000 0.000000
vn 0.000000 1.000000 0.000000
vn 0.000000 0.000000 1.000000
vn 0.000000 0.000000 1.000000
vn 0.000000 0.000000 1.000000
vn 0.000000 0.000000 1.000000
vn 0.000000 1.000000 0.000000
vn 0.000000 1.000000 0.000000
vn 0.000000 1.000000 0.000000
vn 0.000000 1.000000 0.000000
vn 0.000000 0.000000 1.000000
vn 0.000000 0.000000 1.000000
vn 0.000000 0.000000 1.000000
vn 0.000000 0.000000 1.000000
vn 0.000000 0.000000 1.000000
vn 0.000000 0.000000 1.000000
vn 0.000000 0.000000 1.000000
vn 0.000000 0.000000 1.000000
vn 0.000000 1.000000 0.000000
vn 0.000000 1.000000 0.000000
vn 0.000000 1.000000 0.000000
vn 0.000000 1.000000 0.000000
vn 1.000000 0.000000 0.000000
vn 1.000000 0.000000 0.000000
vn 1.000000 0.000000 0.000000
vn 1.000000 0.000000 0.000000
vn 1.000000 0.000000 0.000000
vn 1.000000 0.000000 0.000000
vn 1.000000 0.000000 0.000000
vn 1.000000 0.000000 0.000000
vn 1.000000 0.000000 0.000000
vn 1.000000 0.000000 0.000000
vn 1.000000 0.000000 0.000000
vn 1.000000 0.000000 0.000000
vn 1.000000 0.000000 0.000000
vn 1.000000 0.000000 0.000000
vn 1.000000 0.000000 0.000000
vn 1.000000 0.000000 0.000000
vn 1.000000 0.000000 0.000000
vn 1.000000 0.000000 0.000000
vn 1.000000 0.000000 0.000000
vn 1.000000 0.000000 0.000000
vn 1.000000 0.000000 0.000000
vn 1.000000 0.000000 0.000000
vn 0.000000 0.000000 1.000000
vn 0.000000 0.000000 1.000000
vn 0.000000 0.000000 1.000000
vn 0.000000 0.000000 1.000000
vn -0.000000 -1.000000 0.000000
vn -0.000000 -1.000000 0.000000
vn -0.000000 -1.000000 0.000000
vn -0.000000 -1.000000 0.000000
vn -0.000000 -1.000000 0.000000
vn -0.000000 -1.000000 0.000000
vn -0.000000 -1.000000 0.000000
vn 0.000000 -1.000000 0.000000
vn 0.000000 -1.000000 0.000000
vn 0.000000 -1.000000 0.000000
vn 0.000000 0.000000 -1.000000
vn 0.000000 0.000000 -1.000000
vn 0.000000 0.000000 -1.000000
vn 0.000000 0.000000 -1.000000
vn 0.000000 -1.000000 0.000000
vn 0.000000 -1.000000 0.000000
vn 0.000000 -1.000000 0.000000
vn 1.000000 0.000000 0.000000
vn 1.000000 0.000000 0.000000
vn 1.000000 0.000000 0.000000
vn 1.000000 0.000000 0.000000
vn 1.000000 0.000000 0.000000
vn 1.000000 0.000000 0.000000
vn 1.000000 0.000000 0.000000
vn 0.000000 1.000000 -0.000000
vn 0.000000 1.000000 -0.000000
vn 0.000000 1.000000 -0.000000
vn 0.000000 1.000000 -0.000000
vn 0.000000 1.000000 -0.000000
vn 0.000000 1.000000 -0.000000
vn 0.000000 1.000000 -0.000000
vn 0.000000 1.000000 -0.000000
vn -0.000000 1.000000 0.000000
vn -0.000000 1.000000 0.000000
vn -0.000000 1.000000 0.000000
vn 0.000000 1.000000 0.000000
vn 0.000000 1.000000 0.000000
vn 0.000000 1.000000 0.000000
vn 0.000000 1.000000 0.000000
vn 0.000000 1.000000 0.000000
vn 0.000000 1.000000 0.000000
vn 0.000000 1.000000 0.000000
vn 0.000000 1.000000 0.000000
vn 0.000000 1.000000 0.000000
vn 0.000000 1.000000 0.000000
vn 0.000000 1.000000 0.000000
vn 0.000000 1.000000 0.000000
vn 0.000000 1.000000 0.000000
vn 0.000000 1.000000 0.000000
vn 0.000000 1.000000 0.000000
vn -0.319697 0.947518 0.001908
vn -0.319697 0.947518 0.001908
vn -0.319697 0.947518 0.001908
vn -0.319697 0.947518 0.001908
vn 0.007276 0.977867 0.209102
vn 0.007276 0.977867 0.209102
vn 0.007276 0.977867 0.209102
vn 0.007276 0.977867 0.209102
vn 0.219691 0.950389 -0.220219
vn 0.219691 0.950389 -0.220219
vn 0.219691 0.950389 -0.220219
vn 0.219691 0.950389 -0.220219
vn 0.001833 0.972007 0.234946
vn 0.001833 0.972007 0.234946
vn 0.001833 0.972007 0.234946
vn 0.001833 0.972007 0.234946
vn 0.038446 0.997367 -0.061488
vn 0.038446 0.997367 -0.061488
vn 0.038446 0.997367 -0.061488
vn 0.055864 0.997770 -0.036527
vn 0.055864 0.997770 -0.036527
vn 0.055864 0.997770 -0.036527
vn 0.000000 1.000000 0.000000
vn 0.000000 1.000000 0.000000
vn 0.000000 1.000000 0.000000
vn 0.000000 1.000000 0.000000
vn -0.159888 0.986870 0.022893
vn -0.159888 0.986870 0.022893
vn -0.159888 0.986870 0.022893
vn -0.264427 0.964404 0.001927
vn -0.264427 0.964404 0.001927
vn -0.264427 0.964404 0.001927
vn -0.264427 0.964404 0.001927
vn -0.132814 0.990515 -0.035231
vn -0.132814 0.990515 -0.035231
vn -0.132814 0.990515 -0.035231
vn 0.158011 0.985577 -0.060588
vn 0.158011 0.985577 -0.060588
vn 0.158011 0.985577 -0.060588
vn 0.164419 0.973004 -0.161959
vn 0.164419 0.973004 -0.161959
vn 0.164419 0.973004 -0.161959
vn 0.164419 0.973004 -0.161959
vn 0.186612 0.965696 -0.180573
vn 0.186612 0.965696 -0.180573
vn 0.186612 0.965696 -0.180573
vn 0.186612 0.965696 -0.180573
vn 0.131044 0.982678 -0.131044
vn 0.131044 0.982678 -0.131044
vn 0.131044 0.982678 -0.131044
vn 0.066436 0.993198 -0.095621
vn 0.066436 0.993198 -0.095621
vn 0.066436 0.993198 -0.095621
vn 0.091114 0.991171 -0.096325
vn 0.091114 0.991171 -0.096325
vn 0.091114 0.991171 -0.096325
vn 0.091114 0.991171 -0.096325
vn -0.602385 0.698946 0.385495
vn -0.602385 0.698946 0.385495
vn -0.602385 0.698946 0.385495
vn -0.707107 0.000000 0.707107
vn -0.707107 0.000000 0.707107
vn -0.707107 0.000000 0.707107
vn -0.707107 0.000000 0.707107
vn -0.481884 0.632013 0.606916
vn -0.481884 0.632013 0.606916
vn -0.481884 0.632013 0.606916
vn -0.257184 0.889209 0.378370
vn -0.257184 0.889209 0.378370
vn -0.257184 0.889209 0.378370
vn -0.338183 0.923124 0.182960
vn -0.338183 0.923124 0.182960
vn -0.338183 0.923124 0.182960
vn -0.239899 0.873083 0.424469
vn -0.239899 0.873083 0.424469
vn -0.239899 0.873083 0.424469
vn -0.352348 0.907522 0.228593
vn -0.352348 0.907522 0.228593
vn -0.352348 0.907522 0.228593
vn -0.027404 0.984866 0.171140
vn -0.027404 0.984866 0.171140
vn -0.027404 0.984866 0.171140
vn -0.027404 0.984866 0.171140
vn 0.000000 1.000000 0.000000
vn 0.000000 1.000000 0.000000
vn 0.000000 1.000000 0.000000
vn 0.000000 1.000000 0.000000
s off
f 9/1/1 13/2/2 5/3/3 6/4/4
f 10/5/5 1/6/6 2/7/7
f 11/8/8 10/5/9 2/7/10 3/9/11
f 12/10/12 11/8/13 3/9/14 4/11/15
f 13/2/16 12/10/17 4/11/18 5/3/19
f 14/12/20 9/1/21 6/4/22 7/13/23
f 15/14/24 14/12/25 7/13/26 8/15/27
f 27/16/28 31/17/29 9/1/30
f 9/1/31 31/17/32 63/84/33 13/2/34
f 1/6/35 10/5/36 28/18/37 60/79/38
f 28/18/39 19/19/40 40/48/41 49/59/42
f 60/79/43 56/72/44 41/49/45 1/6/46
f 47/55/47 49/59/48 40/48/49
f 49/59/50 48/57/51 55/70/52 59/78/53
f 60/79/54 28/18/55 59/78/56
f 28/18/57 49/59/58 59/78/59
f 29/20/60 28/18/61 10/5/62 11/8/63
f 62/83/64 30/21/65 29/20/66 64/85/67
f 11/8/68 12/10/69 61/82/70 64/85/71
f 29/20/72 11/8/73 64/85/74
f 31/17/75 30/21/76 62/83/77 63/84/78
f 32/22/79 27/16/80 9/1/81 14/12/82
f 66/87/83 33/23/84 32/22/85 67/88/86
f 14/12/87 15/14/88 69/90/89 71/92/90
f 71/92/91 67/88/92 32/22/93 14/12/94
f 1/6/95 16/24/96 2/7/97
f 2/7/98 16/24/99 3/9/100
f 3/9/101 16/24/102 4/11/103
f 4/11/104 16/24/105 5/3/106
f 5/3/107 16/24/108 6/4/109
f 6/4/110 16/24/111 7/13/112
f 7/13/113 16/24/114 17/25/115 8/15/116
f 8/15/117 17/25/118 18/26/119 15/14/120
f 36/27/121 33/23/122 66/87/123 68/89/124
f 69/90/125 15/14/126 18/26/127 72/93/128
f 36/27/129 68/89/130 18/26/131
f 18/26/132 68/89/133 65/86/134 72/93/135
f 65/86/136 70/91/137 72/93/138
f 27/16/139 24/28/140 23/29/141 31/17/142
f 28/18/143 20/30/144 19/19/145
f 29/20/146 21/31/147 20/30/148 28/18/149
f 30/21/150 22/32/151 21/31/152 29/20/153
f 31/17/154 23/29/155 22/32/156 30/21/157
f 32/22/158 25/33/159 24/28/160 27/16/161
f 33/23/162 26/34/163 25/33/164 32/22/165
f 19/19/166 20/30/167 34/35/168
f 20/30/169 21/31/170 34/35/171
f 21/31/172 22/32/173 34/35/174
f 22/32/175 23/29/176 34/35/177
f 23/29/178 24/28/179 34/35/180
f 24/28/181 25/33/182 34/35/183
f 25/33/184 26/34/185 35/36/186 34/35/187
f 26/34/188 33/23/189 36/27/190 35/36/191
f 17/25/192 16/24/193 18/26/194
f 36/27/195 18/26/196 16/24/197 34/35/198
f 35/36/199 36/27/200 34/35/201
f 1/6/202 38/37/203 37/38/204 16/24/205
f 16/24/206 37/38/207 34/35/208
f 34/35/209 37/38/210 19/19/211
f 53/66/212 19/19/213 37/38/214 38/37/215
f 57/75/216 43/39/217 54/68/218 46/54/219
f 46/54/220 44/46/221 58/77/222 57/75/223
f 46/54/224 54/68/225 74/109/226
f 54/68/227 42/47/228 74/109/229
f 51/62/230 53/66/231 38/37/232 39/50/233
f 38/37/234 1/6/235 41/49/236 45/51/237
f 38/37/238 45/51/239 73/106/240 39/50/241
f 40/40/242 52/41/243 54/42/244 43/43/245
f 39/44/246 73/107/247 74/108/248 42/53/249
f 41/56/250 56/58/251 58/60/252 44/61/253
f 46/52/254 45/45/255 41/56/256 44/61/257
f 50/63/258 49/65/259 47/67/260
f 48/69/261 49/65/262 50/63/263
f 19/19/264 53/66/265 52/64/266 40/48/267
f 54/42/268 53/71/269 51/73/270
f 54/42/271 51/73/272 39/44/273 42/53/274
f 52/41/275 53/71/276 54/42/277
f 56/58/278 60/74/279 58/60/280
f 43/43/281 57/76/282 55/80/283 50/63/284
f 47/67/285 40/40/286 43/43/287 50/63/288
f 55/80/289 48/69/290 50/63/291
f 57/76/292 59/81/293 55/80/294
f 58/60/295 60/74/296 59/81/297 57/76/298
f 62/94/299 64/95/300 63/96/301
f 63/84/302 61/82/303 12/10/304 13/2/305
f 63/96/306 64/95/307 61/97/308
f 68/98/309 67/99/310 65/100/311
f 66/101/312 67/99/313 68/98/314
f 72/102/315 71/103/316 69/104/317
f 70/105/318 71/103/319 72/102/320
f 74/108/321 73/107/322 45/45/323 46/52/324
f 65/86/325 67/88/326 71/92/327 70/91/328
