# This file uses centimeters as units for non-parametric coordinates.

v 74.361832 -942.417419 -18.825174
v 39.850384 -942.417419 -26.160252
v -19.925192 -942.417419 -26.957867
v -69.022888 -942.417419 -21.801949
v -64.384132 -942.417419 17.139082
v -32.367241 -942.417419 26.544189
v 23.087650 -942.417419 27.566959
v 68.636467 -942.417419 20.955915
v 56.891792 1.187867 -18.657017
v 34.932888 -21.049377 -22.032616
v -20.136791 -20.524170 -26.622238
v -61.450138 -19.180115 -19.281548
v -52.626766 1.187867 -13.511940
v -44.088383 -2.637085 11.542747
v 0.000000 -1.836609 14.681458
v 32.846489 -1.836609 13.464751
v 59.096085 -2.637085 7.847877
v 0.000000 -942.417419 0.000000
v 0.000000 2.848817 -13.511940
v 74.361832 -18.149109 -18.825174
v -62.346600 -20.524170 17.108185
v -32.367241 -18.149109 26.544189
v 21.774414 -20.524170 27.136564
v 68.636467 -18.149109 20.955915
v 74.361832 -18.149109 -481.311676
v 34.932888 -21.049377 -520.168640
v 56.891792 1.187867 -435.500366
v 0.000000 2.848817 -416.937195
v -20.136791 -20.524170 -518.016846
v -61.450138 -19.180115 -486.838806
v -52.626766 1.187867 -416.937195
vt 0.400133 0.354120
vt 0.400174 0.354122
vt 0.400151 0.354105
vt 0.400226 0.354121
vt 0.400267 0.354113
vt 0.400277 0.354109
vt 0.400270 0.354094
vt 0.400248 0.354085
vt 0.400242 0.354095
vt 0.400182 0.354098
vt 0.400202 0.354079
vt 0.400169 0.354082
vt 0.400133 0.354105
vt 0.400145 0.354094
vt 0.400172 0.355053
vt 0.400133 0.355061
vt 0.400209 0.355065
vt 0.400233 0.355053
vt 0.400283 0.355059
vt 0.400288 0.355069
vt 0.400249 0.355078
vt 0.400184 0.355078
vt 0.400133 0.355071
vt 0.400205 0.354093
vt 0.400133 0.354120
vt 0.400174 0.354122
vt 0.400151 0.354105
vt 0.400205 0.354093
vt 0.400226 0.354121
vt 0.400267 0.354113
vt 0.400270 0.354094
vn 0.230193 0.924897 -0.302616
vn 0.230193 0.924897 -0.302616
vn 0.230193 0.924897 -0.302616
vn -0.916762 0.399358 -0.007834
vn -0.916762 0.399358 -0.007834
vn -0.916762 0.399358 -0.007834
vn -0.611844 0.723796 0.319008
vn -0.611844 0.723796 0.319008
vn -0.611844 0.723796 0.319008
vn -0.291037 0.542307 0.788163
vn -0.291037 0.542307 0.788163
vn -0.291037 0.542307 0.788163
vn -0.020135 0.613848 0.789167
vn -0.020135 0.613848 0.789167
vn -0.020135 0.613849 0.789167
vn -0.020135 0.613848 0.789167
vn 0.030195 0.578470 0.815145
vn 0.030195 0.578470 0.815145
vn 0.030195 0.578470 0.815145
vn 0.113499 0.609382 0.784711
vn 0.113499 0.609382 0.784711
vn 0.113499 0.609382 0.784711
vn 0.113499 0.609382 0.784711
vn 0.799779 0.589156 0.115106
vn 0.799779 0.589156 0.115106
vn 0.799779 0.589156 0.115106
vn 0.741716 0.669801 0.034975
vn 0.741716 0.669801 0.034975
vn 0.741716 0.669801 0.034975
vn 0.000000 -1.000000 0.000000
vn 0.000000 -1.000000 0.000000
vn 0.000000 -1.000000 0.000000
vn 0.000000 -1.000000 0.000000
vn 0.000000 -1.000000 0.000000
vn 0.000000 -1.000000 0.000000
vn 0.000000 -1.000000 0.000000
vn 0.000000 -1.000000 0.000000
vn 0.000000 -1.000000 0.000000
vn 0.000000 -1.000000 0.000000
vn 0.000000 -1.000000 0.000000
vn 0.000000 -1.000000 0.000000
vn 0.000000 -1.000000 0.000000
vn 0.000000 -1.000000 0.000000
vn 0.000000 -1.000000 0.000000
vn 0.000000 -1.000000 -0.000003
vn 0.000000 -1.000000 -0.000003
vn 0.000000 -1.000000 -0.000003
vn 0.000000 -1.000000 0.000000
vn 0.000000 -1.000000 0.000000
vn 0.000000 -1.000000 0.000000
vn 0.000000 -1.000000 -0.000005
vn 0.000000 -1.000000 -0.000005
vn 0.000000 -1.000000 -0.000005
vn -0.050484 0.969104 -0.241432
vn -0.050484 0.969104 -0.241432
vn -0.050484 0.969104 -0.241432
vn 0.000485 0.974271 -0.225381
vn 0.000485 0.974271 -0.225381
vn 0.000485 0.974271 -0.225381
vn -0.119991 0.972234 -0.200909
vn -0.119991 0.972234 -0.200909
vn -0.119991 0.972233 -0.200909
vn -0.030319 0.960654 -0.276089
vn -0.030319 0.960654 -0.276089
vn -0.030319 0.960654 -0.276089
vn -0.031133 0.986430 0.161202
vn -0.031133 0.986430 0.161202
vn -0.031133 0.986430 0.161202
vn -0.029569 0.986039 0.163869
vn -0.029569 0.986039 0.163869
vn -0.029569 0.986039 0.163869
vn 0.006073 0.986452 0.163937
vn 0.006073 0.986452 0.163937
vn 0.006073 0.986452 0.163937
vn 0.053287 0.992771 0.107547
vn 0.053287 0.992771 0.107547
vn 0.053287 0.992771 0.107547
vn 0.041485 0.989377 0.139328
vn 0.041485 0.989377 0.139328
vn 0.041485 0.989377 0.139328
vn 0.141054 0.002590 -0.989999
vn 0.141054 0.002590 -0.989999
vn 0.141054 0.002590 -0.989999
vn 0.141054 0.002590 -0.989999
vn 0.046869 0.002549 -0.998898
vn 0.046869 0.002549 -0.998898
vn 0.046869 0.002549 -0.998898
vn 0.046869 0.002549 -0.998898
vn -0.136888 0.002079 -0.990584
vn -0.136888 0.002079 -0.990584
vn -0.136888 0.002079 -0.990584
vn -0.136888 0.002079 -0.990584
vn -0.998751 0.005135 0.049708
vn -0.998751 0.005135 0.049708
vn -0.998751 0.005135 0.049708
vn -0.998751 0.005135 0.049708
vn -0.290788 0.000337 0.956788
vn -0.290788 0.000337 0.956788
vn -0.290788 0.000337 0.956788
vn -0.290788 0.000337 0.956788
vn -0.014731 0.000223 0.999892
vn -0.014731 0.000223 0.999892
vn -0.014731 0.000223 0.999892
vn -0.014731 0.000223 0.999892
vn 0.137106 0.000328 0.990556
vn 0.137106 0.000328 0.990556
vn 0.137106 0.000328 0.990556
vn 0.137106 0.000328 0.990556
vn 0.989801 0.000000 0.142454
vn 0.989801 0.000000 0.142454
vn 0.989801 0.000000 0.142454
vn 0.989801 0.000000 0.142454
vn 0.073359 -0.997306 0.000000
vn 0.073359 -0.997306 0.000000
vn 0.073359 -0.997306 0.000000
vn 0.073359 -0.997306 0.000000
vn 0.742019 0.670379 0.000000
vn 0.742019 0.670379 0.000000
vn 0.742019 0.670379 0.000000
vn 0.742019 0.670379 0.000000
vn 0.029182 0.999574 0.000000
vn 0.029182 0.999574 0.000000
vn 0.029182 0.999574 0.000000
vn 0.029182 0.999574 0.000000
vn -0.009537 -0.999955 0.000000
vn -0.009537 -0.999955 0.000000
vn -0.009537 -0.999955 0.000000
vn -0.009537 -0.999955 0.000000
vn -0.032516 -0.999471 0.000000
vn -0.032516 -0.999471 0.000000
vn -0.032516 -0.999471 0.000000
vn -0.032516 -0.999471 0.000000
vn -0.917601 0.397503 0.000000
vn -0.917601 0.397503 0.000000
vn -0.917601 0.397503 0.000000
vn -0.917601 0.397503 0.000000
vn -0.031545 0.999502 0.000000
vn -0.031545 0.999502 0.000000
vn -0.031545 0.999502 0.000000
vn -0.031545 0.999502 0.000000
s off
f 25/25/1 26/26/2 27/27/3
f 12/5/4 21/6/5 13/7/6
f 21/6/7 14/8/8 13/7/9
f 21/6/10 22/9/11 14/8/12
f 22/9/13 23/10/14 15/11/15 14/8/16
f 23/10/17 16/12/18 15/11/19
f 23/10/20 24/13/21 17/14/22 16/12/23
f 24/13/24 20/1/25 17/14/26
f 20/1/27 9/3/28 17/14/29
f 2/15/30 1/16/31 18/17/32
f 3/18/33 2/15/34 18/17/35
f 4/19/36 3/18/37 18/17/38
f 5/20/39 4/19/40 18/17/41
f 6/21/42 5/20/43 18/17/44
f 7/22/45 6/21/46 18/17/47
f 8/23/48 7/22/49 18/17/50
f 1/16/51 8/23/52 18/17/53
f 27/27/54 26/26/55 28/28/56
f 26/26/57 29/29/58 28/28/59
f 29/29/60 30/30/61 28/28/62
f 30/30/63 31/31/64 28/28/65
f 13/7/66 14/8/67 19/24/68
f 14/8/69 15/11/70 19/24/71
f 15/11/72 16/12/73 19/24/74
f 16/12/75 17/14/76 19/24/77
f 17/14/78 9/3/79 19/24/80
f 1/16/81 2/15/82 10/2/83 20/1/84
f 2/15/85 3/18/86 11/4/87 10/2/88
f 3/18/89 4/19/90 12/5/91 11/4/92
f 4/19/93 5/20/94 21/6/95 12/5/96
f 5/20/97 6/21/98 22/9/99 21/6/100
f 6/21/101 7/22/102 23/10/103 22/9/104
f 7/22/105 8/23/106 24/13/107 23/10/108
f 8/23/109 1/16/110 20/1/111 24/13/112
f 20/1/113 10/2/114 26/26/115 25/25/116
f 9/3/117 20/1/118 25/25/119 27/27/120
f 19/24/121 9/3/122 27/27/123 28/28/124
f 10/2/125 11/4/126 29/29/127 26/26/128
f 11/4/129 12/5/130 30/30/131 29/29/132
f 12/5/133 13/7/134 31/31/135 30/30/136
f 13/7/137 19/24/138 28/28/139 31/31/140
