# This file uses centimeters as units for non-parametric coordinates.

v 0.000033 0.000000 31.195313
v 0.000033 0.000000 -31.195313
v 57.073792 0.000000 -31.195313
v 63.024296 -0.000000 0.000000
v 62.901363 14.381824 31.195313
v 60.470070 0.000000 31.195313
v 63.550369 0.000000 23.621216
v 94.989601 200.331955 -31.195313
v 94.722404 208.129257 31.195313
v 75.658279 95.359131 31.195313
v 95.622627 314.845520 -31.195313
v 104.468613 309.994751 -6.392212
v 94.266151 315.589355 31.195313
v 0.000032 500.000000 31.195313
v 419.707184 0.000000 -31.195313
v 400.874023 35.031906 0.149902
v 500.000061 0.000000 31.195313
v 406.639221 0.000000 2.284668
v 125.012604 340.170532 -31.195313
v 125.012604 350.000000 -31.195313
v 0.000031 500.000000 -31.195313
v 405.513977 31.217463 31.195313
v 403.157227 108.623375 31.195313
v 394.079163 136.365341 -31.195313
v 61.910908 46.258770 31.195313
v 63.374920 52.731800 -31.195313
v 125.012604 333.770172 31.195313
v 250.000061 450.000000 -31.195313
v 250.000031 421.440948 -16.651165
v 219.691696 397.191864 -16.651165
v 250.000031 421.440948 16.651165
v 219.865128 397.330627 16.651165
v 269.753235 405.636810 -16.651165
v 400.685181 326.507233 -31.195313
v 260.767029 412.826477 16.651165
v 400.669830 326.499634 31.195313
v 500.000061 500.000000 -31.195313
v 308.739014 412.497742 31.195313
v 304.300964 407.589752 5.629517
v 376.440002 340.965149 31.195313
v 374.987488 350.000000 31.195313
v 500.000061 500.000000 31.195313
v 250.000061 450.000000 31.195313
v 410.694489 0.000000 31.195313
v 500.000061 0.000000 -31.195313
v 395.408112 142.677505 31.195313
v 179.396790 393.511719 31.195313
v 298.074341 411.536713 -31.195313
v 333.807922 378.439819 -31.195313
v 346.972748 357.515778 1.704224
v 308.894592 413.150085 -31.195313
v 298.709625 411.028442 31.195313
v 345.919830 373.256470 31.195313
v 182.356018 387.640839 -6.053345
v 181.371552 392.617432 -30.097900
v 399.739685 299.292786 -31.195314
v 403.269775 180.896942 -31.195313
v 410.832367 253.639969 -31.195313
v 397.003021 213.532990 -17.540426
v 398.066559 235.552155 31.195313
v 399.799805 296.104279 31.195313
v 408.873444 258.024506 31.195313
v 399.423889 285.549042 22.897837
v 86.543015 160.897186 -31.195313
v 64.112442 106.393158 -31.195313
v 72.357170 91.319321 -17.004593
v 127.012466 404.219666 31.195313
v 157.619446 405.989136 31.195313
v 139.657379 388.988220 31.195313
v 148.782822 390.705719 24.512007
v 249.344330 401.671021 16.651165
v 260.750977 400.465393 1.457240
vt 0.001903 0.753725
vt 0.001899 0.753486
vt 0.028781 0.753487
vt 0.031584 0.753487
vt 0.117712 0.768058
vt 0.117713 0.768077
vt 0.117721 0.768062
vt 0.031832 0.753487
vt 0.030381 0.753487
vt 0.117761 0.768032
vt 0.117822 0.767999
vt 0.117821 0.767931
vt 0.117718 0.768024
vt 0.117795 0.767704
vt 0.117702 0.767946
vt 0.117687 0.767782
vt 0.117815 0.767555
vt 0.002013 0.990275
vt 0.117754 0.767582
vt 0.117704 0.767644
vt 0.199582 0.753487
vt 0.237397 0.753487
vt 0.193427 0.753487
vt 0.060780 0.913707
vt 0.060780 0.918337
vt 0.001899 0.991744
vt 0.117252 0.767498
vt 0.117276 0.767477
vt 0.117240 0.767535
vt 0.117194 0.767534
vt 0.117196 0.767443
vt 0.060780 0.915791
vt 0.119649 0.965437
vt 0.119649 0.951985
vt 0.105374 0.940564
vt 0.119649 0.951985
vt 0.105456 0.690629
vt 0.128953 0.694542
vt 0.117316 0.767344
vt 0.124721 0.947928
vt 0.117197 0.767156
vt 0.237400 0.988987
vt 0.117310 0.767077
vt 0.117207 0.767411
vt 0.178519 0.916710
vt 0.178519 0.918337
vt 0.237400 0.988987
vt 0.119649 0.965437
vt 0.195337 0.753487
vt 0.117347 0.767169
vt 0.237400 0.753486
vt 0.117402 0.767149
vt 0.087927 0.939457
vt 0.142292 0.947320
vt 0.117337 0.767153
vt 0.117285 0.767170
vt 0.117187 0.767564
vt 0.117768 0.767474
vt 0.161776 0.931732
vt 0.117629 0.767351
vt 0.117420 0.767099
vt 0.117463 0.767085
vt 0.142592 0.697081
vt 0.164828 0.929291
vt 0.117566 0.767399
vt 0.117653 0.767570
vt 0.117235 0.767171
vt 0.117505 0.767172
vt 0.117481 0.767104
vt 0.117364 0.767186
vt 0.117401 0.767104
vt 0.117238 0.767160
vt 0.117520 0.767312
vt 0.117590 0.767262
vt 0.087325 0.688409
vt 0.117676 0.767313
vt 0.117770 0.767460
vt 0.192897 0.768190
vt 0.190458 0.804648
vt 0.188137 0.820688
vt 0.046938 0.901779
vt 0.046639 0.847843
vt 0.031749 0.778323
vt 0.190615 0.907268
vt 0.190622 0.907272
vt 0.147389 0.948080
vt 0.031526 0.760260
vt 0.031059 0.775274
vt 0.037526 0.798327
vt 0.046514 0.851516
vt 0.046299 0.902129
vt 0.147316 0.947773
vt 0.187511 0.817715
vt 0.117311 0.767116
vt 0.190177 0.894454
vt 0.191840 0.838689
vt 0.195402 0.872951
vt 0.117290 0.767253
vt 0.117202 0.767282
vt 0.189389 0.864432
vt 0.117199 0.767198
vt 0.190205 0.892952
vt 0.194479 0.875016
vt 0.117214 0.767203
vt 0.117201 0.767249
vt 0.117312 0.767180
vt 0.117314 0.767282
vt 0.117802 0.767764
vt 0.042661 0.829269
vt 0.032096 0.803598
vt 0.117789 0.767890
vt 0.117813 0.767851
vt 0.062867 0.945862
vt 0.077426 0.945363
vt 0.069739 0.938861
vt 0.091351 0.937017
vt 0.073858 0.939315
vt 0.119341 0.942674
vt 0.117471 0.767258
vt 0.117483 0.767221
vt 0.087325 0.938409
vt 0.105374 0.690564
vt 0.119649 0.701985
vt 0.142592 0.947081
vt 0.119649 0.715437
vt 0.124721 0.697928
vt 0.119649 0.701985
vt 0.142292 0.697320
vt 0.128953 0.944542
vt 0.119649 0.715437
vt 0.087927 0.689457
vt 0.105456 0.940629
vn -0.000000 -1.000000 -0.000000
vn -0.000000 -1.000000 -0.000000
vn -0.000000 -1.000000 -0.000000
vn -0.000000 -1.000000 -0.000000
vn 0.000000 -1.000000 0.000000
vn 0.000000 -1.000000 0.000000
vn 0.000000 -1.000000 0.000000
vn 0.915171 -0.154713 0.372190
vn 0.915171 -0.154713 0.372190
vn 0.915171 -0.154713 0.372190
vn 0.998066 -0.036433 -0.050367
vn 0.998066 -0.036433 -0.050367
vn 0.998066 -0.036433 -0.050367
vn 0.998066 -0.036433 -0.050367
vn 0.999203 0.037607 -0.013400
vn 0.999203 0.037607 -0.013400
vn 0.999203 0.037607 -0.013400
vn 0.999203 0.037607 -0.013400
vn 0.976630 -0.209186 -0.049355
vn 0.976630 -0.209186 -0.049355
vn 0.976630 -0.209186 -0.049355
vn 0.976630 -0.209186 -0.049355
vn 0.985700 -0.166636 0.025047
vn 0.985700 -0.166636 0.025047
vn 0.985700 -0.166636 0.025047
vn 0.941554 -0.005205 -0.336822
vn 0.941554 -0.005205 -0.336822
vn 0.941554 -0.005205 -0.336822
vn 0.992340 -0.053934 0.111142
vn 0.992340 -0.053934 0.111142
vn 0.992340 -0.053934 0.111142
vn 0.992340 -0.053934 0.111142
vn -1.000000 -0.000000 0.000000
vn -1.000000 -0.000000 0.000000
vn -1.000000 -0.000000 0.000000
vn -1.000000 -0.000000 0.000000
vn -0.917536 -0.172824 -0.358134
vn -0.917536 -0.172824 -0.358134
vn -0.917536 -0.172824 -0.358134
vn 0.000000 -1.000000 -0.000000
vn 0.000000 -1.000000 -0.000000
vn 0.000000 -1.000000 -0.000000
vn -0.000000 0.000000 -1.000000
vn -0.000000 0.000000 -1.000000
vn -0.000000 0.000000 -1.000000
vn -0.000000 0.000000 -1.000000
vn -0.989101 -0.030115 0.144128
vn -0.989101 -0.030115 0.144128
vn -0.989101 -0.030115 0.144128
vn -0.917456 -0.172423 -0.358532
vn -0.917456 -0.172423 -0.358532
vn -0.917456 -0.172423 -0.358532
vn 0.003477 -0.004346 -0.999985
vn 0.003477 -0.004346 -0.999985
vn 0.003477 -0.004346 -0.999985
vn 0.003477 -0.004346 -0.999985
vn 0.341283 -0.426562 0.837598
vn 0.341283 -0.426562 0.837598
vn 0.341283 -0.426562 0.837598
vn 0.341283 -0.426562 0.837598
vn -0.341283 -0.426560 -0.837599
vn -0.341283 -0.426560 -0.837599
vn -0.341283 -0.426560 -0.837599
vn -0.341283 -0.426560 -0.837599
vn -0.341282 -0.426560 0.837599
vn -0.341282 -0.426560 0.837599
vn -0.341282 -0.426560 0.837599
vn -0.341282 -0.426560 0.837599
vn -0.999456 0.032880 0.002519
vn -0.999456 0.032880 0.002519
vn -0.999456 0.032880 0.002519
vn -0.999456 0.032880 0.002519
vn 0.000000 0.000000 -1.000000
vn 0.000000 0.000000 -1.000000
vn 0.000000 0.000000 -1.000000
vn -0.708149 -0.645679 0.285697
vn -0.708149 -0.645679 0.285697
vn -0.708149 -0.645679 0.285697
vn -0.708149 -0.645679 0.285697
vn 0.000000 0.000000 1.000000
vn 0.000000 0.000000 1.000000
vn 0.000000 0.000000 1.000000
vn 0.000000 -1.000000 0.000000
vn 0.000000 -1.000000 0.000000
vn 0.000000 -1.000000 0.000000
vn -0.978677 -0.157446 0.131917
vn -0.978677 -0.157446 0.131917
vn -0.978677 -0.157446 0.131917
vn -0.978677 -0.157446 0.131917
vn 0.000000 -1.000000 -0.000000
vn 0.000000 -1.000000 -0.000000
vn 0.000000 -1.000000 -0.000000
vn -0.990814 -0.081444 0.107953
vn -0.990814 -0.081444 0.107953
vn -0.990814 -0.081444 0.107953
vn -0.990814 -0.081444 0.107953
vn 0.000000 0.000000 -1.000000
vn 0.000000 0.000000 -1.000000
vn 0.000000 0.000000 -1.000000
vn 0.663174 -0.689954 -0.290111
vn 0.663174 -0.689954 -0.290111
vn 0.663174 -0.689954 -0.290111
vn 0.663174 -0.689954 -0.290111
vn 0.000000 0.000000 1.000000
vn 0.000000 0.000000 1.000000
vn 0.000000 0.000000 1.000000
vn 0.000000 0.000000 1.000000
vn -0.777628 -0.613517 -0.137447
vn -0.777628 -0.613517 -0.137447
vn -0.777628 -0.613517 -0.137447
vn -0.777628 -0.613517 -0.137447
vn -0.502296 -0.864680 0.005181
vn -0.502296 -0.864680 0.005181
vn -0.502296 -0.864680 0.005181
vn -0.502296 -0.864680 0.005181
vn 0.489019 0.405976 0.772039
vn 0.489019 0.405976 0.772039
vn 0.489019 0.405976 0.772039
vn 0.140505 -0.981644 -0.128972
vn 0.140505 -0.981644 -0.128972
vn 0.140505 -0.981644 -0.128972
vn 0.140505 -0.981644 -0.128972
vn 0.143024 -0.976273 0.162592
vn 0.143024 -0.976273 0.162592
vn 0.143024 -0.976273 0.162592
vn 0.000000 0.000000 -1.000000
vn 0.000000 0.000000 -1.000000
vn 0.000000 0.000000 -1.000000
vn 0.000000 0.000000 -1.000000
vn 0.000000 0.000000 1.000000
vn 0.000000 0.000000 1.000000
vn 0.000000 0.000000 1.000000
vn 0.000000 0.000000 1.000000
vn -0.000000 0.000000 1.000000
vn -0.000000 0.000000 1.000000
vn -0.000000 0.000000 1.000000
vn -0.000000 0.000000 1.000000
vn 0.000000 0.000000 -1.000000
vn 0.000000 0.000000 -1.000000
vn 0.000000 0.000000 -1.000000
vn 0.000000 0.000000 1.000000
vn 0.000000 0.000000 1.000000
vn 0.000000 0.000000 1.000000
vn 0.000000 0.000000 1.000000
vn -0.581154 -0.726368 0.366947
vn -0.581154 -0.726368 0.366947
vn -0.581154 -0.726368 0.366947
vn -0.734807 -0.118133 0.667909
vn -0.734807 -0.118133 0.667909
vn -0.734807 -0.118133 0.667909
vn 0.066302 -0.774041 0.629654
vn 0.066302 -0.774041 0.629654
vn 0.066302 -0.774041 0.629654
vn 0.176105 -0.966179 -0.188373
vn 0.176105 -0.966179 -0.188373
vn 0.176105 -0.966179 -0.188373
vn 0.151486 -0.974484 0.165627
vn 0.151486 -0.974484 0.165627
vn 0.151486 -0.974484 0.165627
vn 0.187088 -0.960407 -0.206439
vn 0.187088 -0.960407 -0.206439
vn 0.187088 -0.960407 -0.206439
vn 0.343371 -0.427405 -0.836314
vn 0.343371 -0.427405 -0.836314
vn 0.343371 -0.427405 -0.836314
vn 0.343371 -0.427405 -0.836314
vn 0.594906 -0.781932 -0.186195
vn 0.594906 -0.781932 -0.186195
vn 0.594906 -0.781932 -0.186195
vn 0.401545 0.000000 -0.915839
vn 0.401545 0.000000 -0.915839
vn 0.401545 0.000000 -0.915839
vn 0.491850 -0.831791 0.257309
vn 0.491850 -0.831791 0.257309
vn 0.491850 -0.831791 0.257309
vn -0.000000 0.000000 -1.000000
vn -0.000000 0.000000 -1.000000
vn -0.000000 0.000000 -1.000000
vn -0.000000 0.000000 -1.000000
vn -0.594039 -0.764987 -0.248824
vn -0.594039 -0.764987 -0.248824
vn -0.594039 -0.764987 -0.248824
vn 0.000000 0.000000 -1.000000
vn 0.000000 0.000000 -1.000000
vn 0.000000 0.000000 -1.000000
vn 0.000000 0.000000 1.000000
vn 0.000000 0.000000 1.000000
vn 0.000000 0.000000 1.000000
vn 0.000000 0.000000 1.000000
vn 0.000000 0.000000 1.000000
vn 0.000000 0.000000 1.000000
vn 0.000000 0.000000 1.000000
vn 0.000000 0.000000 1.000000
vn 0.000000 0.000000 1.000000
vn 0.000000 0.000000 1.000000
vn 0.000000 0.000000 1.000000
vn 0.000000 -1.000000 0.000000
vn 0.000000 -1.000000 0.000000
vn 0.000000 -1.000000 0.000000
vn 0.000000 0.000000 1.000000
vn 0.000000 0.000000 1.000000
vn 0.000000 0.000000 1.000000
vn 0.000000 0.000000 1.000000
vn 0.000000 0.000000 1.000000
vn 0.000000 0.000000 1.000000
vn 0.000000 0.000000 1.000000
vn 1.000000 0.000000 0.000000
vn 1.000000 0.000000 0.000000
vn 1.000000 0.000000 0.000000
vn 1.000000 0.000000 0.000000
vn 0.000000 1.000000 0.000000
vn 0.000000 1.000000 0.000000
vn 0.000000 1.000000 0.000000
vn 0.000000 1.000000 0.000000
vn 0.000000 0.000000 1.000000
vn 0.000000 0.000000 1.000000
vn 0.000000 0.000000 1.000000
vn 0.000000 0.000000 1.000000
vn 0.000000 0.000000 1.000000
vn 0.000000 0.000000 1.000000
vn 0.000000 0.000000 1.000000
vn 0.000000 0.000000 1.000000
vn 0.000000 0.000000 1.000000
vn 0.000000 0.000000 1.000000
vn 0.000000 0.000000 1.000000
vn 0.000000 0.000000 1.000000
vn -0.000000 0.000000 -1.000000
vn -0.000000 0.000000 -1.000000
vn -0.000000 0.000000 -1.000000
vn 0.000000 0.000000 -1.000000
vn 0.000000 0.000000 -1.000000
vn 0.000000 0.000000 -1.000000
vn 0.000000 0.000000 -1.000000
vn 0.000000 0.000000 -1.000000
vn 0.000000 0.000000 -1.000000
vn 0.000000 0.000000 -1.000000
vn -0.497539 -0.120892 -0.858976
vn -0.497539 -0.120892 -0.858976
vn -0.497539 -0.120892 -0.858976
vn -0.338905 0.162979 0.926597
vn -0.338905 0.162979 0.926597
vn -0.338905 0.162979 0.926597
vn -0.921288 -0.219525 0.320995
vn -0.921288 -0.219525 0.320995
vn -0.921288 -0.219525 0.320995
vn -0.999406 0.031731 0.013427
vn -0.999406 0.031731 0.013427
vn -0.999406 0.031731 0.013427
vn -0.999406 0.031731 0.013427
vn -0.999541 0.030295 0.000578
vn -0.999541 0.030295 0.000578
vn -0.999541 0.030295 0.000578
vn -0.999541 0.030295 0.000578
vn -0.999551 0.028610 0.008886
vn -0.999551 0.028610 0.008886
vn -0.999551 0.028610 0.008886
vn 0.000000 0.000000 1.000000
vn 0.000000 0.000000 1.000000
vn 0.000000 0.000000 1.000000
vn 0.000000 0.000000 1.000000
vn 0.000000 0.000000 1.000000
vn 0.000000 0.000000 1.000000
vn 0.000000 0.000000 1.000000
vn -0.716244 0.147823 -0.682014
vn -0.716244 0.147823 -0.682014
vn -0.716244 0.147823 -0.682014
vn -0.813453 0.084568 -0.575450
vn -0.813453 0.084568 -0.575450
vn -0.813453 0.084568 -0.575450
vn 0.000000 0.000000 -1.000000
vn 0.000000 0.000000 -1.000000
vn 0.000000 0.000000 -1.000000
vn 0.000000 0.000000 -1.000000
vn 0.000000 0.000000 -1.000000
vn 0.000000 0.000000 -1.000000
vn 0.000000 0.000000 -1.000000
vn 0.000000 0.000000 -1.000000
vn 0.673285 -0.277083 -0.685502
vn 0.673285 -0.277083 -0.685502
vn 0.673285 -0.277083 -0.685502
vn 0.968625 -0.247592 -0.021538
vn 0.968625 -0.247592 -0.021538
vn 0.968625 -0.247592 -0.021538
vn 0.968625 -0.247592 -0.021538
vn 0.859099 -0.011807 -0.511674
vn 0.859099 -0.011807 -0.511674
vn 0.859099 -0.011807 -0.511674
vn 0.000000 0.000000 -1.000000
vn 0.000000 0.000000 -1.000000
vn 0.000000 0.000000 -1.000000
vn -0.000000 0.000000 -1.000000
vn -0.000000 0.000000 -1.000000
vn -0.000000 0.000000 -1.000000
vn -0.000000 0.000000 1.000000
vn -0.000000 0.000000 1.000000
vn -0.000000 0.000000 1.000000
vn -0.000000 0.000000 1.000000
vn 0.000000 0.000000 1.000000
vn 0.000000 0.000000 1.000000
vn 0.000000 0.000000 1.000000
vn 0.704510 -0.706970 0.062124
vn 0.704510 -0.706970 0.062124
vn 0.704510 -0.706970 0.062124
vn -0.176011 -0.307199 0.935227
vn -0.176011 -0.307199 0.935227
vn -0.176011 -0.307199 0.935227
vn 0.652123 -0.185987 0.734945
vn 0.652123 -0.185987 0.734945
vn 0.652123 -0.185987 0.734945
vn 0.055463 -0.985598 0.159748
vn 0.055463 -0.985598 0.159748
vn 0.055463 -0.985598 0.159748
vn 0.023823 -0.412076 0.910838
vn 0.023823 -0.412076 0.910838
vn 0.023823 -0.412076 0.910838
vn 0.142166 -0.973002 0.181811
vn 0.142166 -0.973002 0.181811
vn 0.142166 -0.973002 0.181811
vn 0.142166 -0.973002 0.181811
vn 0.171770 -0.961231 -0.215709
vn 0.171770 -0.961231 -0.215709
vn 0.171770 -0.961231 -0.215709
vn 0.171770 -0.961231 -0.215709
vn -0.090329 -0.989443 0.113327
vn -0.090329 -0.989443 0.113327
vn -0.090329 -0.989443 0.113327
vn 0.604045 -0.618516 0.502561
vn 0.604045 -0.618516 0.502561
vn 0.604045 -0.618516 0.502561
vn 0.602671 -0.159839 0.781818
vn 0.602671 -0.159839 0.781818
vn 0.602671 -0.159839 0.781818
s off
f 1/1/1 2/2/2 3/3/3 4/4/4
f 7/8/5 1/1/6 4/4/7
f 5/5/8 6/6/9 7/7/10
f 3/11/11 26/12/12 25/13/13 4/10/14
f 4/10/15 25/13/16 5/5/17 7/7/18
f 10/15/19 66/111/20 64/108/21 8/14/22
f 9/16/23 10/15/24 8/14/25
f 11/17/26 12/19/27 8/14/28
f 12/19/29 13/20/30 9/16/31 8/14/32
f 2/2/33 1/1/34 14/18/35 21/26/36
f 16/27/37 15/28/38 18/29/39
f 15/21/40 17/22/41 18/23/42
f 11/81/43 21/26/44 20/25/45 19/24/46
f 22/30/47 23/31/48 16/27/49
f 24/39/50 15/28/51 16/27/52
f 20/25/53 21/26/54 28/33/55 55/121/56
f 32/37/57 31/127/58 43/125/59 47/131/60
f 33/38/61 29/123/62 28/130/63 48/128/64
f 31/127/65 35/126/66 52/63/67 43/125/68
f 63/104/69 34/43/70 56/94/71 59/98/72
f 37/42/73 28/33/74 21/26/75
f 38/50/76 39/52/77 50/55/78 53/56/79
f 42/47/80 14/18/81 43/48/82
f 18/23/83 17/22/84 44/49/85
f 44/57/86 22/30/87 16/27/88 18/29/89
f 15/21/90 45/51/91 17/22/92
f 23/31/93 46/44/94 24/39/95 16/27/96
f 29/34/97 33/129/98 30/35/99
f 12/19/100 11/17/101 19/58/102 54/60/103
f 31/36/104 32/132/105 71/118/106 35/40/107
f 49/61/108 50/55/109 39/52/110 51/62/111
f 40/67/112 50/55/113 34/43/114 36/41/115
f 69/115/116 70/117/117 67/113/118
f 39/52/119 33/68/120 48/69/121 51/62/122
f 39/52/123 38/50/124 52/70/125
f 34/85/126 49/59/127 51/86/128 37/42/129
f 1/1/130 6/9/131 5/87/132 25/88/133
f 43/48/134 52/124/135 38/92/136 42/47/137
f 24/93/138 45/51/139 15/21/140
f 42/47/141 41/46/142 40/45/143 36/84/144
f 41/72/145 53/56/146 50/55/147
f 41/72/148 50/55/149 40/67/150
f 39/52/151 35/71/152 72/120/153
f 39/52/154 72/120/155 33/68/156
f 54/60/157 32/73/158 47/65/159
f 30/74/160 54/60/161 55/76/162
f 55/75/163 28/130/164 29/123/165 30/122/166
f 54/60/167 20/77/168 55/76/169
f 54/60/170 19/58/171 20/77/172
f 12/19/173 27/66/174 13/20/175
f 28/33/176 37/42/177 51/86/178 48/54/179
f 50/55/180 49/61/181 34/43/182
f 57/96/183 45/51/184 24/93/185
f 17/22/186 23/79/187 22/78/188 44/49/189
f 42/47/190 36/84/191 61/102/192 62/103/193
f 17/22/194 46/80/195 23/79/196
f 7/8/197 6/9/198 1/1/199
f 14/18/200 13/91/201 27/32/202
f 14/18/203 67/113/204 68/114/205 43/48/206
f 45/51/207 37/42/208 42/47/209 17/22/210
f 37/42/211 21/26/212 14/18/213 42/47/214
f 42/47/215 38/92/216 53/64/217 41/46/218
f 1/1/219 25/88/220 10/89/221 14/18/222
f 14/18/223 10/89/224 9/90/225 13/91/226
f 2/2/227 26/83/228 3/3/229
f 2/2/230 21/26/231 11/81/232
f 65/110/233 11/81/234 8/82/235 64/109/236
f 58/106/237 59/98/238 56/94/239
f 62/105/240 63/104/241 60/99/242
f 61/101/243 63/104/244 62/105/245
f 60/99/246 59/98/247 24/39/248 46/44/249
f 36/41/250 34/43/251 63/104/252 61/101/253
f 63/104/254 59/98/255 60/99/256
f 17/22/257 62/103/258 60/100/259 46/80/260
f 42/47/261 62/103/262 17/22/263
f 24/39/264 59/98/265 57/107/266
f 57/107/267 59/98/268 58/106/269
f 37/42/270 58/97/271 56/95/272 34/85/273
f 37/42/274 45/51/275 57/96/276 58/97/277
f 64/108/278 66/111/279 65/112/280
f 10/15/281 25/13/282 26/12/283 66/111/284
f 65/112/285 66/111/286 26/12/287
f 2/2/288 65/110/289 26/83/290
f 2/2/291 11/81/292 65/110/293
f 27/32/294 69/115/295 67/113/296 14/18/297
f 43/48/298 68/114/299 47/53/300
f 12/19/301 54/60/302 27/66/303
f 68/114/304 70/117/305 47/53/306
f 27/32/307 54/116/308 70/117/309
f 47/53/310 70/117/311 54/116/312
f 67/113/313 70/117/314 68/114/315
f 72/120/316 71/119/317 32/73/318 54/60/319
f 33/68/320 72/120/321 54/60/322 30/74/323
f 39/52/324 52/70/325 35/71/326
f 72/120/327 35/71/328 71/119/329
f 27/32/330 70/117/331 69/115/332
