# This file uses centimeters as units for non-parametric coordinates.

v -65.327393 29.786873 58.086700
v 66.568405 -12.204933 59.590912
v -59.462952 140.687561 52.223785
v 60.250870 134.419250 49.001129
v -59.471680 131.121826 -66.401337
v 50.925629 140.708923 -54.737457
v -66.855835 -12.200069 -73.811981
v 66.557724 -12.189198 -73.822662
v 12.329147 140.693665 52.218048
v 31.897430 140.695190 52.214508
v 22.575668 140.695190 38.322906
v 24.977249 41.176987 57.018585
v 26.163193 -12.208271 59.594147
v 32.042419 8.310413 -66.545746
v 28.544479 137.582397 -73.308868
v -57.508255 -7.268190 80.720795
v 16.828827 -7.262087 80.714874
v 15.560333 43.744278 74.279205
v 5.769943 138.446045 73.686615
v -51.610031 138.441467 73.690216
v -53.949936 72.599792 72.890289
v -61.090866 106.968689 53.850739
v -60.823380 112.725830 -67.755585
v 30.152237 70.436859 -76.715790
v 63.333481 54.835129 -70.595428
v 64.987564 19.954300 58.015778
v -80.303284 -6.527758 -70.316864
v -80.293304 -6.542492 54.473053
v -74.981384 100.428009 49.163239
v -74.734619 105.741882 -64.725677
v 80.293579 -10.828972 -68.290192
v 80.301422 -10.843468 54.054596
v 77.334930 50.204849 -65.329803
v 78.851685 19.077682 52.611115
v 45.386932 -12.190914 -73.820953
v 29.548141 -12.198925 -17.203339
v 24.934372 -12.191772 -80.721527
v -74.860321 106.362152 -6.723846
v -60.944183 113.454437 -12.851959
v -59.468231 140.695190 -13.477448
v 24.683426 140.701294 -6.326874
v -9.086029 140.701294 -28.143768
v -56.438812 159.489441 50.685455
v 10.190460 159.495544 50.683136
v -49.150574 157.377625 71.147797
v 4.102997 157.382202 71.141571
v 19.699478 159.526062 29.756989
v 21.656250 159.530640 -4.191376
v -9.684708 159.530640 -24.439301
v -56.443741 159.524536 -10.828583
v 60.243134 134.431458 -47.568268
v 59.769302 92.740631 -62.031342
v 47.657242 140.710449 -68.003143
v 60.204132 109.613800 54.451324
v -20.808853 162.896729 13.984894
v -35.545898 -12.206554 0.395660
v -45.989365 -12.196922 -69.584015
v -11.012787 89.572144 -66.044037
v -43.029678 -19.557762 55.666473
v 5.334671 -19.550705 55.659943
v -2.940399 -14.914989 75.767853
v -37.845612 -14.920712 75.771149
v -13.096970 -19.620323 12.926178
v -17.218887 -19.611549 -64.167450
v 10.062775 -19.606590 -70.351532
v 8.316727 -19.613266 -15.827423
v -69.641846 -11.035347 50.020294
v -50.966141 -12.211132 29.564728
v -62.709900 -12.674809 61.281158
vt 0.068538 0.125401
vt 0.068532 0.125429
vt 0.068528 0.125421
vt 0.068532 0.125404
vt 0.068851 0.125416
vt 0.068877 0.125383
vt 0.068867 0.125424
vt 0.068726 0.125428
vt 0.068540 0.125417
vt 0.068847 0.125416
vt 0.068841 0.125384
vt 0.068544 0.125402
vt 0.068878 0.125448
vt 0.068556 0.125449
vt 0.068713 0.125385
vt 0.068864 0.125385
vt 0.068551 0.125349
vt 0.068585 0.125347
vt 0.068549 0.125345
vt 0.068486 0.125445
vt 0.068479 0.125429
vt 0.068495 0.125402
vt 0.068505 0.125400
vt 0.068888 0.125428
vt 0.068729 0.125363
vt 0.068759 0.125353
vt 0.068869 0.125347
vt 0.068866 0.125368
vt 0.068549 0.125448
vt 0.068544 0.125438
vt 0.068493 0.125437
vt 0.068497 0.125445
vt 0.068497 0.125352
vt 0.068555 0.125339
vt 0.068562 0.125353
vt 0.068508 0.125353
vt 0.068503 0.125342
vt 0.068502 0.125364
vt 0.068559 0.125364
vt 0.068555 0.125383
vt 0.068869 0.125378
vt 0.068727 0.125378
vt 0.068857 0.125381
vt 0.068835 0.125365
vt 0.068852 0.125341
vt 0.068818 0.125341
vt 0.068799 0.125342
vt 0.068541 0.125357
vt 0.068885 0.125448
vt 0.068863 0.125419
vt 0.068856 0.125384
vt 0.068655 0.125441
vt 0.068725 0.125436
vt 0.068871 0.125443
vt 0.068568 0.125389
vt 0.068608 0.125337
vt 0.068653 0.125343
vt 0.068699 0.125346
vt 0.068694 0.125337
vt 0.068750 0.125343
vt 0.068722 0.125352
vt 0.068554 0.125343
vt 0.068566 0.125449
vt 0.068617 0.125445
vt 0.068545 0.125426
vt 0.068690 0.125442
vt 0.068852 0.125441
vt 0.068864 0.125435
vt 0.068536 0.125449
vn 0.000432 0.048467 0.998825
vn 0.000432 0.048467 0.998825
vn 0.000432 0.048467 0.998825
vn 0.000432 0.048467 0.998825
vn -0.634628 -0.143615 -0.759357
vn -0.634628 -0.143615 -0.759357
vn -0.634628 -0.143615 -0.759357
vn -0.850464 -0.469120 -0.237988
vn -0.850464 -0.469120 -0.237988
vn -0.850464 -0.469120 -0.237988
vn 0.998829 0.048390 -0.000074
vn 0.998829 0.048390 -0.000074
vn 0.998829 0.048390 -0.000074
vn 0.998829 0.048390 -0.000074
vn -0.998818 0.048605 -0.000793
vn -0.998818 0.048605 -0.000793
vn -0.998818 0.048605 -0.000793
vn -0.998818 0.048605 -0.000793
vn 0.797977 0.129809 0.588542
vn 0.797977 0.129809 0.588542
vn 0.797977 0.129809 0.588542
vn -0.827415 0.084327 0.555224
vn -0.827415 0.084327 0.555224
vn -0.827415 0.084327 0.555224
vn 0.012152 0.108176 0.994058
vn 0.012152 0.108176 0.994058
vn 0.012152 0.108176 0.994058
vn 0.012152 0.108176 0.994058
vn 0.956439 -0.283537 -0.069506
vn 0.956439 -0.283537 -0.069506
vn 0.956439 -0.283537 -0.069506
vn 0.914306 -0.038189 -0.403220
vn 0.914306 -0.038189 -0.403220
vn 0.914306 -0.038189 -0.403220
vn -0.070116 0.985514 -0.154420
vn -0.070116 0.985514 -0.154420
vn -0.070116 0.985514 -0.154420
vn -0.070116 0.985514 -0.154420
vn 0.000181 -0.974423 0.224721
vn 0.000181 -0.974423 0.224721
vn 0.000181 -0.974423 0.224721
vn 0.000181 -0.974423 0.224721
vn 0.901423 0.058238 0.429004
vn 0.901423 0.058238 0.429004
vn 0.901423 0.058238 0.429004
vn 0.901423 0.058238 0.429004
vn 0.918463 0.116602 0.377928
vn 0.918463 0.116602 0.377928
vn 0.918463 0.116602 0.377928
vn 0.918463 0.116602 0.377928
vn -0.000072 0.994710 0.102719
vn -0.000072 0.994710 0.102719
vn -0.000072 0.994711 0.102719
vn -0.000072 0.994711 0.102719
vn -0.011311 -0.001835 0.999934
vn -0.011311 -0.001835 0.999934
vn -0.011311 -0.001835 0.999934
vn -0.011311 -0.001835 0.999934
vn -0.924755 0.039995 0.378456
vn -0.924755 0.039995 0.378456
vn -0.924755 0.039995 0.378456
vn -0.924755 0.039995 0.378456
vn -0.998055 0.061949 -0.007005
vn -0.998055 0.061949 -0.007005
vn -0.998055 0.061949 -0.007005
vn -0.998055 0.061949 -0.007005
vn -0.231618 0.043763 -0.971822
vn -0.231618 0.043763 -0.971822
vn -0.231618 0.043763 -0.971822
vn 0.949204 0.210563 -0.233827
vn 0.949204 0.210563 -0.233827
vn 0.949204 0.210563 -0.233827
vn 0.686356 0.231405 -0.689468
vn 0.686356 0.231405 -0.689468
vn 0.686356 0.231405 -0.689468
vn -0.013346 0.044329 0.998928
vn -0.013346 0.044329 0.998928
vn -0.013346 0.044329 0.998928
vn -0.013346 0.044329 0.998928
vn -0.454399 0.890723 -0.011632
vn -0.454399 0.890723 -0.011632
vn -0.454399 0.890723 -0.011632
vn -0.454399 0.890723 -0.011632
vn -0.234300 0.059106 -0.970366
vn -0.234300 0.059106 -0.970366
vn -0.234300 0.059106 -0.970366
vn -0.234300 0.059106 -0.970366
vn 0.098595 -0.995128 -0.000125
vn 0.098595 -0.995128 -0.000125
vn 0.098595 -0.995128 -0.000125
vn 0.098595 -0.995128 -0.000125
vn 0.368473 0.062595 -0.927529
vn 0.368473 0.062595 -0.927529
vn 0.368473 0.062595 -0.927529
vn 0.368473 0.062595 -0.927529
vn 0.188822 0.949208 0.251696
vn 0.188822 0.949208 0.251696
vn 0.188822 0.949208 0.251696
vn 0.188822 0.949208 0.251696
vn 0.366787 0.063023 0.928168
vn 0.366787 0.063023 0.928168
vn 0.366787 0.063023 0.928168
vn 0.366787 0.063023 0.928168
vn 0.116551 0.016582 -0.993046
vn 0.116551 0.016582 -0.993046
vn 0.116551 0.016582 -0.993046
vn 0.116551 0.016582 -0.993046
vn 0.000082 -1.000000 -0.000118
vn 0.000082 -1.000000 -0.000118
vn 0.000082 -1.000000 -0.000118
vn 0.000082 -1.000000 -0.000118
vn 0.000082 -1.000000 -0.000118
vn 0.001600 -0.999998 0.000941
vn 0.001600 -0.999998 0.000941
vn 0.001600 -0.999998 0.000941
vn -0.177425 0.078822 -0.980973
vn -0.177425 0.078822 -0.980973
vn -0.177425 0.078822 -0.980973
vn -0.177425 0.078822 -0.980973
vn -0.998757 0.049751 0.003119
vn -0.998757 0.049751 0.003119
vn -0.998757 0.049751 0.003119
vn -0.434708 0.896082 0.089817
vn -0.434708 0.896082 0.089817
vn -0.434708 0.896081 0.089817
vn -0.434708 0.896081 0.089817
vn -0.998703 0.050903 0.001429
vn -0.998703 0.050903 0.001429
vn -0.998703 0.050903 0.001429
vn -0.998703 0.050903 0.001429
vn 0.020232 0.996952 0.075350
vn 0.020232 0.996952 0.075350
vn 0.020232 0.996952 0.075350
vn 0.020232 0.996952 0.075350
vn 0.028958 0.998575 -0.044830
vn 0.028958 0.998575 -0.044830
vn 0.028958 0.998575 -0.044830
vn -0.920748 0.171689 0.350350
vn -0.920748 0.171689 0.350350
vn -0.920748 0.171689 0.350350
vn -0.920748 0.171689 0.350350
vn 0.000068 0.133167 0.991094
vn 0.000068 0.133167 0.991094
vn 0.000068 0.133167 0.991094
vn 0.000068 0.133167 0.991094
vn 0.945817 0.127670 0.298548
vn 0.945817 0.127670 0.298548
vn 0.945817 0.127670 0.298548
vn 0.945817 0.127670 0.298548
vn 0.843981 0.241112 0.479125
vn 0.843981 0.241112 0.479125
vn 0.843981 0.241112 0.479125
vn 0.843981 0.241112 0.479125
vn 0.985283 0.163155 0.050970
vn 0.985283 0.163155 0.050970
vn 0.985283 0.163155 0.050970
vn 0.985283 0.163155 0.050970
vn 0.533833 0.179585 -0.826300
vn 0.533833 0.179585 -0.826300
vn 0.533833 0.179585 -0.826300
vn 0.533832 0.179585 -0.826300
vn -0.275077 0.177214 -0.944948
vn -0.275077 0.177214 -0.944948
vn -0.275077 0.177214 -0.944948
vn -0.275077 0.177214 -0.944948
vn -0.987328 0.158693 0.000133
vn -0.987328 0.158693 0.000133
vn -0.987328 0.158693 0.000133
vn -0.987328 0.158693 0.000133
vn 0.313246 0.949217 0.029395
vn 0.313246 0.949217 0.029395
vn 0.313246 0.949217 0.029395
vn 0.313246 0.949217 0.029395
vn 0.997850 0.065443 -0.003696
vn 0.997850 0.065443 -0.003696
vn 0.997849 0.065443 -0.003696
vn 0.997850 0.065443 -0.003696
vn 0.282709 0.236602 -0.929567
vn 0.282709 0.236602 -0.929567
vn 0.282709 0.236602 -0.929567
vn -0.106131 0.993572 -0.039386
vn -0.106131 0.993572 -0.039386
vn -0.106131 0.993572 -0.039386
vn -0.106131 0.993572 -0.039386
vn 0.369018 0.023286 -0.929131
vn 0.369018 0.023286 -0.929131
vn 0.369018 0.023286 -0.929131
vn 0.369018 0.023286 -0.929131
vn 0.999970 -0.007628 -0.001473
vn 0.999970 -0.007628 -0.001473
vn 0.999970 -0.007628 -0.001473
vn 0.999970 -0.007628 -0.001473
vn 0.156227 0.211673 0.964773
vn 0.156227 0.211673 0.964773
vn 0.156227 0.211673 0.964773
vn -0.000081 1.000000 0.000118
vn -0.000081 1.000000 0.000118
vn -0.000081 1.000000 0.000118
vn -0.000081 1.000000 0.000118
vn -0.066096 0.996987 -0.040596
vn -0.066096 0.996987 -0.040596
vn -0.066096 0.996987 -0.040596
vn -0.066096 0.996987 -0.040596
vn 0.064213 0.997331 -0.034741
vn 0.064213 0.997331 -0.034741
vn 0.064213 0.997331 -0.034741
vn 0.064213 0.997331 -0.034741
vn 0.000147 -0.999999 0.001568
vn 0.000147 -0.999999 0.001568
vn 0.000147 -0.999999 0.001568
vn 0.716502 -0.207295 0.666074
vn 0.716502 -0.207295 0.666074
vn 0.716502 -0.207295 0.666074
vn 0.092018 0.025497 -0.995431
vn 0.092018 0.025497 -0.995431
vn 0.092018 0.025497 -0.995431
vn 0.092018 0.025497 -0.995431
vn -0.044984 -0.061038 -0.997121
vn -0.044984 -0.061038 -0.997121
vn -0.044984 -0.061038 -0.997121
vn -0.044984 -0.061038 -0.997121
vn 0.264573 -0.908273 0.324102
vn 0.264573 -0.908273 0.324102
vn 0.264573 -0.908273 0.324102
vn 0.264573 -0.908273 0.324102
vn 0.000144 -0.543063 0.839692
vn 0.000144 -0.543063 0.839692
vn 0.000144 -0.543063 0.839692
vn 0.000144 -0.543063 0.839692
vn -0.287118 -0.957477 0.028315
vn -0.287118 -0.957477 0.028315
vn -0.287118 -0.957477 0.028315
vn -0.287118 -0.957477 0.028315
vn -0.110524 -0.771142 -0.626997
vn -0.110524 -0.771142 -0.626997
vn -0.110524 -0.771142 -0.626997
vn -0.110524 -0.771142 -0.626997
vn 0.377341 -0.926028 -0.009275
vn 0.377341 -0.926028 -0.009275
vn 0.377341 -0.926028 -0.009275
vn 0.377341 -0.926028 -0.009275
vn 0.330243 -0.943784 0.014518
vn 0.330243 -0.943784 0.014518
vn 0.330243 -0.943784 0.014518
vn 0.330243 -0.943784 0.014518
vn -0.934084 -0.083709 -0.347102
vn -0.934084 -0.083709 -0.347102
vn -0.934084 -0.083709 -0.347102
vn 0.000162 -1.000000 -0.000121
vn 0.000162 -1.000000 -0.000121
vn 0.000162 -1.000000 -0.000121
vn 0.000162 -1.000000 -0.000121
vn -0.272475 0.023901 0.961866
vn -0.272475 0.023901 0.961866
vn -0.272475 0.023901 0.961866
vn -0.272475 0.023901 0.961866
vn -0.272475 0.023901 0.961866
vn -0.388671 -0.921377 -0.000078
vn -0.388671 -0.921377 -0.000078
vn -0.388671 -0.921377 -0.000078
vn -0.388671 -0.921377 -0.000078
vn -0.021178 -0.999771 0.003141
vn -0.021178 -0.999771 0.003141
vn -0.021178 -0.999771 0.003141
vn -0.021178 -0.999771 0.003141
vn -0.021178 -0.999771 0.003141
vn -0.281891 -0.946229 -0.158705
vn -0.281891 -0.946229 -0.158705
vn -0.281891 -0.946229 -0.158705
vn -0.281891 -0.946229 -0.158705
vn -0.281891 -0.946229 -0.158705
vn -0.258335 -0.917969 0.300991
vn -0.258335 -0.917969 0.300991
vn -0.258335 -0.917969 0.300991
vn -0.258335 -0.917969 0.300991
vn -0.907804 0.053815 0.415927
vn -0.907804 0.053815 0.415927
vn -0.907804 0.053815 0.415927
vn -0.907804 0.053815 0.415927
vn -0.907804 0.053815 0.415927
s off
f 12/1/1 13/2/2 2/3/3 26/4/4
f 14/5/5 24/6/6 35/7/7
f 35/7/8 36/8/9 14/5/10
f 32/9/11 31/10/12 33/11/13 34/12/14
f 27/13/15 28/14/16 38/15/17 30/16/18
f 9/17/19 12/1/20 11/18/21
f 11/18/22 12/1/23 10/19/24
f 16/20/25 17/21/26 18/22/27 21/23/28
f 36/8/29 37/24/30 14/5/31
f 37/24/32 24/6/33 14/5/34
f 40/25/35 42/26/36 15/27/37 5/28/38
f 59/29/39 60/30/40 61/31/41 62/32/42
f 13/2/43 12/1/44 18/22/45 17/21/46
f 12/1/47 9/17/48 19/33/49 18/22/50
f 44/34/51 43/35/52 45/36/53 46/37/54
f 21/23/55 18/22/56 19/33/57 20/38/58
f 3/39/59 22/40/60 21/23/61 20/38/62
f 23/41/63 39/42/64 40/25/65 5/28/66
f 58/43/67 15/27/68 24/6/69
f 52/44/70 53/45/71 6/46/72
f 51/47/73 52/44/74 6/46/75
f 12/1/76 26/4/77 54/48/78 10/19/79
f 38/15/80 39/42/81 23/41/82 30/16/83
f 23/41/84 7/49/85 27/13/86 30/16/87
f 2/3/88 8/50/89 31/10/90 32/9/91
f 8/50/92 25/51/93 33/11/94 31/10/95
f 25/51/96 26/4/97 34/12/98 33/11/99
f 26/4/100 2/3/101 32/9/102 34/12/103
f 35/7/104 24/6/105 25/51/106 8/50/107
f 13/2/108 36/8/109 35/7/110 8/50/111 2/3/112
f 63/52/113 66/53/114 60/30/115
f 57/54/116 58/43/117 24/6/118 37/24/119
f 38/15/120 28/14/121 29/55/122
f 22/40/123 39/42/124 38/15/125 29/55/126
f 40/25/127 39/42/128 22/40/129 3/39/130
f 43/35/131 44/34/132 47/56/133 55/57/134
f 15/27/135 42/26/136 41/58/137
f 3/39/138 20/38/139 45/36/140 43/35/141
f 20/38/142 19/33/143 46/37/144 45/36/145
f 19/33/146 9/17/147 44/34/148 46/37/149
f 9/17/150 11/18/151 47/56/152 44/34/153
f 11/18/154 41/58/155 48/59/156 47/56/157
f 41/58/158 42/26/159 49/60/160 48/59/161
f 42/26/162 40/25/163 50/61/164 49/60/165
f 40/25/166 3/39/167 43/35/168 50/61/169
f 51/47/170 6/46/171 10/19/172 4/62/173
f 26/4/174 25/51/175 52/44/176 54/48/177
f 25/51/178 24/6/179 52/44/180
f 15/27/181 41/58/182 6/46/183 53/45/184
f 52/44/185 24/6/186 15/27/187 53/45/188
f 54/48/189 52/44/190 51/47/191 4/62/192
f 10/19/193 54/48/194 4/62/195
f 10/19/196 6/46/197 41/58/198 11/18/199
f 43/35/200 55/57/201 49/60/202 50/61/203
f 49/60/204 55/57/205 47/56/206 48/59/207
f 59/29/208 63/52/209 60/30/210
f 67/63/211 68/64/212 1/65/213
f 23/41/214 58/43/215 57/54/216 7/49/217
f 5/28/218 15/27/219 58/43/220 23/41/221
f 13/2/222 17/21/223 61/31/224 60/30/225
f 17/21/226 16/20/227 62/32/228 61/31/229
f 56/66/230 57/54/231 64/67/232 63/52/233
f 57/54/234 37/24/235 65/68/236 64/67/237
f 37/24/238 36/8/239 66/53/240 65/68/241
f 36/8/242 13/2/243 60/30/244 66/53/245
f 1/65/246 68/64/247 69/69/248
f 63/52/249 64/67/250 65/68/251 66/53/252
f 67/63/253 1/65/254 22/40/255 29/55/256 28/14/257
f 7/49/258 67/63/259 28/14/260 27/13/261
f 7/49/262 57/54/263 56/66/264 68/64/265 67/63/266
f 69/69/267 68/64/268 56/66/269 63/52/270 59/29/271
f 16/20/272 69/69/273 59/29/274 62/32/275
f 21/23/276 22/40/277 1/65/278 69/69/279 16/20/280
