# This file uses centimeters as units for non-parametric coordinates.

v 36.695515 143.713577 55.703266
v 36.695515 361.039307 55.703266
v -55.703278 119.947861 19.451872
v -55.703278 393.142609 35.197739
v -55.703278 394.923615 -24.336378
v -55.703278 102.734337 -35.056797
v 36.695515 378.483673 -55.703266
v 36.695515 116.994736 -55.703266
v 55.703278 110.274063 -35.056797
v 55.703278 391.090485 35.197739
v 55.703278 101.085739 35.197739
v -36.695564 356.094238 55.703266
v -36.695564 124.947586 55.703266
v -36.695564 105.179718 -55.703266
v -36.695564 396.060089 -55.703266
v 33.445553 242.304718 55.703266
v 55.703278 257.834991 28.515207
v 55.703278 224.414154 -31.210064
v 29.162237 275.867188 -55.703266
v -29.162292 248.756409 -55.703266
v -55.703278 226.847122 -31.673746
v -55.703278 257.834991 30.576578
v -33.445602 240.649139 55.703266
v 36.695515 0.000000 55.703266
v 55.703278 0.000000 35.197739
v 36.695515 0.000000 -55.703266
v 55.703278 0.000000 -35.056797
v -36.695564 0.000000 55.703266
v -36.695564 0.000000 -55.703266
v -55.703278 0.000000 35.197739
v -55.703278 0.000000 -35.056797
v -36.695564 500.000000 55.703266
v -55.703278 500.000000 35.197739
v -36.695564 500.000000 -55.703266
v -55.703278 500.000000 -35.056797
v 36.695515 500.000000 55.703266
v 36.695515 500.000000 -55.703266
v 55.703278 500.000000 35.197739
v 55.703278 500.000000 -36.706253
v 55.703278 393.769989 -30.069967
v 38.868786 500.000000 -39.112629
v 38.868786 386.126831 -36.170162
v 36.873356 243.362976 -36.675667
v 38.868786 113.634399 -38.381279
v 38.868786 0.000000 -38.381279
v 38.868786 0.000000 38.327896
v 38.868786 122.399658 38.327896
v 37.439339 250.069855 35.364922
v 38.868786 376.064880 38.327896
v 38.868786 500.000000 38.327896
v -38.868813 500.000000 -38.381279
v -38.868813 395.652222 -38.381279
v -36.873375 244.579468 -36.881264
v -38.868813 103.957031 -38.381279
v -38.868813 0.000000 -38.381279
v -38.868813 0.000000 38.327896
v -38.868813 124.933945 38.327896
v -37.439362 249.242065 36.278915
v -38.868813 374.618408 38.327896
v -38.868813 500.000000 38.327896
v -55.703278 464.167175 -35.056797
v -55.703278 353.863098 -34.225460
v -55.703281 168.329193 33.688507
v -55.703278 50.407597 35.197739
v 55.703278 174.164337 20.979181
v 45.325191 190.074768 34.135368
vt 0.036665 0.849238
vt 0.060082 0.860895
vt 0.035705 0.897017
vt 0.061252 0.827225
vt 0.061820 0.911793
vt 0.039425 0.912463
vt 0.035392 0.802551
vt 0.055897 0.809026
vt 0.061820 0.951989
vt 0.035392 0.938510
vt 0.061820 0.782867
vt 0.035392 0.763905
vt 0.062997 0.810901
vt 0.035392 0.951989
vt 0.061820 0.763905
vt 0.093699 0.855053
vt 0.101350 0.857974
vt 0.100235 0.905369
vt 0.093699 0.899717
vt 0.093699 0.817966
vt 0.100235 0.809948
vt 0.100235 0.951989
vt 0.093699 0.951989
vt 0.093699 0.763905
vt 0.100235 0.763905
vt 0.112384 0.951989
vt 0.111277 0.909154
vt 0.118625 0.906279
vt 0.118625 0.951989
vt 0.111467 0.855451
vt 0.118625 0.867678
vt 0.112109 0.806651
vt 0.118625 0.807915
vt 0.112109 0.763905
vt 0.118625 0.763905
vt 0.125629 0.829420
vt 0.146708 0.805387
vt 0.145261 0.848323
vt 0.120280 0.801930
vt 0.122794 0.860895
vt 0.120280 0.763905
vt 0.146708 0.763905
vt 0.120680 0.835405
vt 0.144832 0.912029
vt 0.120280 0.911021
vt 0.147328 0.951989
vt 0.120280 0.951989
vt 0.166154 0.912890
vt 0.172670 0.912737
vt 0.172670 0.951989
vt 0.166154 0.951989
vt 0.166154 0.857479
vt 0.173234 0.855908
vt 0.166154 0.803470
vt 0.172670 0.803011
vt 0.172670 0.763905
vt 0.166154 0.763905
vt 0.182035 0.810907
vt 0.175499 0.810901
vt 0.175499 0.763905
vt 0.182035 0.763905
vt 0.182035 0.854430
vt 0.174728 0.857662
vt 0.175499 0.904825
vt 0.182035 0.897857
vt 0.175499 0.951989
vt 0.182035 0.951989
vt 0.218761 0.912204
vt 0.225297 0.913021
vt 0.183390 0.913021
vt 0.189906 0.912204
vt 0.225297 0.940629
vt 0.183390 0.940629
vt 0.217584 0.905871
vt 0.191156 0.905871
vt 0.218761 0.941446
vt 0.189906 0.941446
vt 0.217584 0.947779
vt 0.191156 0.947779
vt 0.140132 0.960581
vt 0.146465 0.959404
vt 0.146465 0.988259
vt 0.140132 0.987009
vt 0.147283 0.952868
vt 0.147283 0.994775
vt 0.174890 0.952868
vt 0.174890 0.994775
vt 0.175707 0.959404
vt 0.175707 0.988534
vt 0.182040 0.960581
vt 0.182040 0.987629
vt 0.007419 0.854430
vt 0.032581 0.855053
vt 0.033804 0.899717
vt 0.006196 0.897857
vt 0.006196 0.810907
vt 0.033804 0.817966
vt 0.033804 0.951989
vt 0.006196 0.951989
vt 0.006196 0.763905
vt 0.033804 0.763905
vt 0.089319 0.848217
vt 0.067380 0.858415
vt 0.064546 0.803004
vt 0.092153 0.809616
vt 0.092153 0.907980
vt 0.064546 0.912424
vt 0.064546 0.763905
vt 0.092153 0.763905
vt 0.092153 0.951989
vt 0.064546 0.951989
vt 0.183732 0.864797
vt 0.183732 0.813898
vt 0.190602 0.810666
vt 0.190064 0.857829
vt 0.183732 0.780229
vt 0.190064 0.763905
vt 0.190064 0.904993
vt 0.183732 0.904993
vt 0.109786 0.859986
vt 0.102702 0.866657
vt 0.102702 0.818877
vt 0.109035 0.803158
vt 0.109035 0.912884
vt 0.102702 0.913344
vt 0.102702 0.803432
vt 0.109035 0.951989
vt 0.102702 0.951989
vt 0.102702 0.777384
vt 0.102702 0.763905
vt 0.109035 0.763905
vt 0.156088 0.763905
vt 0.156088 0.803866
vt 0.149755 0.806741
vt 0.149755 0.763905
vt 0.149005 0.860444
vt 0.156088 0.867572
vt 0.156088 0.910508
vt 0.149755 0.909244
vt 0.149755 0.951989
vt 0.156088 0.951989
vt 0.164450 0.801930
vt 0.158117 0.809948
vt 0.158117 0.763905
vt 0.164450 0.763905
vt 0.160546 0.835405
vt 0.157579 0.857974
vt 0.164450 0.860895
vt 0.158117 0.905369
vt 0.164450 0.911021
vt 0.158117 0.951989
vt 0.164450 0.951989
vt 0.198639 0.810901
vt 0.192306 0.782867
vt 0.192306 0.763905
vt 0.198639 0.763905
vn 0.000000 0.000000 1.000000
vn 0.000000 0.000000 1.000000
vn 0.000000 0.000000 1.000000
vn 0.000000 0.000000 1.000000
vn -1.000000 -0.000000 0.000000
vn -1.000000 -0.000000 0.000000
vn -1.000000 -0.000000 0.000000
vn -1.000000 0.000000 0.000000
vn -1.000000 0.000000 0.000000
vn -1.000000 0.000000 0.000000
vn -1.000000 0.000000 0.000000
vn -0.000000 0.000000 -1.000000
vn -0.000000 0.000000 -1.000000
vn -0.000000 0.000000 -1.000000
vn -0.000000 0.000000 -1.000000
vn -0.262889 -0.026120 0.964472
vn -0.262889 -0.026120 0.964472
vn -0.262889 -0.026120 0.964472
vn -0.262889 -0.026120 0.964472
vn 0.988599 -0.020708 0.149144
vn 0.988599 -0.020708 0.149144
vn 0.988599 -0.020708 0.149144
vn 0.988599 -0.020708 0.149144
vn -0.229113 -0.015824 -0.973271
vn -0.229113 -0.015824 -0.973271
vn -0.229113 -0.015824 -0.973271
vn -0.229113 -0.015824 -0.973271
vn 0.992875 -0.001489 -0.119151
vn 0.992875 -0.001489 -0.119151
vn 0.992875 -0.001489 -0.119151
vn 0.992875 -0.001489 -0.119151
vn 0.987897 0.022441 0.153482
vn 0.987897 0.022441 0.153482
vn 0.987897 0.022441 0.153482
vn 0.987897 0.022441 0.153482
vn 1.000000 0.000000 0.000000
vn 1.000000 0.000000 0.000000
vn 1.000000 0.000000 0.000000
vn 0.972290 0.033469 -0.231368
vn 0.972290 0.033469 -0.231368
vn 0.972290 0.033469 -0.231368
vn 0.972290 0.033469 -0.231368
vn -0.000000 0.000000 -1.000000
vn -0.000000 0.000000 -1.000000
vn -0.000000 0.000000 -1.000000
vn -0.000000 0.000000 -1.000000
vn -0.704283 -0.200404 0.681046
vn -0.704283 -0.200404 0.681046
vn -0.704283 -0.200404 0.681046
vn 0.000000 0.000000 1.000000
vn 0.000000 0.000000 1.000000
vn 0.000000 0.000000 1.000000
vn 0.000000 0.000000 1.000000
vn 0.000000 -1.000000 0.000000
vn 0.000000 -1.000000 0.000000
vn 0.000000 -1.000000 0.000000
vn 0.000000 -1.000000 0.000000
vn 0.000000 -1.000000 0.000000
vn 0.000000 -1.000000 0.000000
vn 0.000000 -1.000000 0.000000
vn 0.000000 -1.000000 0.000000
vn 0.000000 -1.000000 0.000000
vn 0.000000 -1.000000 0.000000
vn 0.000000 -1.000000 0.000000
vn 0.000000 -1.000000 0.000000
vn 0.000000 1.000000 0.000000
vn 0.000000 1.000000 0.000000
vn 0.000000 1.000000 0.000000
vn 0.000000 1.000000 0.000000
vn 0.000000 1.000000 0.000000
vn 0.000000 1.000000 0.000000
vn 0.000000 1.000000 0.000000
vn 0.000000 1.000000 0.000000
vn 0.000000 1.000000 0.000000
vn 0.000000 1.000000 0.000000
vn 0.000000 1.000000 0.000000
vn 0.000000 1.000000 0.000000
vn 0.992268 0.000000 0.124111
vn 0.992268 0.000000 0.124111
vn 0.992268 0.000000 0.124111
vn 0.992268 0.000000 0.124111
vn 0.992221 0.000000 -0.124487
vn 0.992221 0.000000 -0.124487
vn 0.992221 0.000000 -0.124487
vn 0.992221 0.000000 -0.124487
vn 1.000000 0.000000 0.000000
vn 1.000000 0.000000 0.000000
vn 1.000000 0.000000 0.000000
vn 1.000000 0.000000 0.000000
vn 0.000000 0.000000 1.000000
vn 0.000000 0.000000 1.000000
vn 0.000000 0.000000 1.000000
vn 0.000000 0.000000 1.000000
vn 0.000000 0.000000 -1.000000
vn 0.000000 0.000000 -1.000000
vn 0.000000 0.000000 -1.000000
vn 0.000000 0.000000 -1.000000
vn -0.757131 0.144265 0.637135
vn -0.757131 0.144265 0.637135
vn -0.757131 0.144265 0.637135
vn -0.193739 0.000000 -0.981053
vn -0.193739 0.000000 -0.981053
vn -0.193739 0.000000 -0.981053
vn -0.193739 0.000000 -0.981053
vn -0.182804 0.000000 0.983149
vn -0.182804 0.000000 0.983149
vn -0.182804 0.000000 0.983149
vn -0.182804 0.000000 0.983149
vn -0.193739 0.000000 -0.981053
vn -0.193739 0.000000 -0.981053
vn -0.193739 0.000000 -0.981053
vn -0.193739 0.000000 -0.981053
vn -1.000000 0.000000 0.000000
vn -1.000000 0.000000 0.000000
vn -1.000000 0.000000 0.000000
vn -1.000000 0.000000 0.000000
vn -1.000000 0.000000 0.000000
vn -1.000000 0.000000 0.000000
vn -1.000000 0.000000 0.000000
vn 0.000000 0.000000 1.000000
vn 0.000000 0.000000 1.000000
vn 0.000000 0.000000 1.000000
vn 0.000000 0.000000 1.000000
vn 0.000000 0.000000 -1.000000
vn 0.000000 0.000000 -1.000000
vn 0.000000 0.000000 -1.000000
vn 0.000000 0.000000 -1.000000
vn 0.992268 0.000000 0.124111
vn 0.992268 0.000000 0.124111
vn 0.992268 0.000000 0.124111
vn 0.992268 0.000000 0.124111
vn -0.242521 0.019719 -0.969946
vn -0.242521 0.019719 -0.969946
vn -0.242521 0.019719 -0.969946
vn -0.242521 0.019719 -0.969946
vn 1.000000 0.000000 0.000000
vn 1.000000 0.000000 0.000000
vn 1.000000 0.000000 0.000000
vn 1.000000 0.000000 0.000000
vn 1.000000 0.000000 0.000000
vn 1.000000 0.000000 0.000000
vn 1.000000 0.000000 0.000000
vn 1.000000 0.000000 0.000000
vn 0.962062 -0.036802 -0.270336
vn 0.962062 -0.036802 -0.270336
vn 0.962062 -0.036802 -0.270336
vn 0.962062 -0.036802 -0.270336
vn 0.253703 -0.042056 -0.966368
vn 0.253703 -0.042056 -0.966368
vn 0.253703 -0.042056 -0.966368
vn 0.253703 -0.042056 -0.966368
vn 0.309349 0.003036 -0.950944
vn 0.309349 0.003036 -0.950944
vn 0.309349 0.003036 -0.950944
vn 0.309349 0.003036 -0.950944
vn 0.253417 0.024091 -0.967057
vn 0.253417 0.024091 -0.967057
vn 0.253417 0.024091 -0.967057
vn 0.253417 0.024091 -0.967057
vn 0.193739 0.000000 -0.981053
vn 0.193739 0.000000 -0.981053
vn 0.193739 0.000000 -0.981053
vn 0.193739 0.000000 -0.981053
vn 0.000000 -1.000000 0.000000
vn 0.000000 -1.000000 0.000000
vn 0.000000 -1.000000 0.000000
vn 0.000000 -1.000000 0.000000
vn 0.182804 0.000000 0.983149
vn 0.182804 0.000000 0.983149
vn 0.182804 0.000000 0.983149
vn 0.182804 0.000000 0.983149
vn 0.341470 0.025628 0.939543
vn 0.341470 0.025628 0.939543
vn 0.341470 0.025628 0.939543
vn 0.295552 -0.037146 0.954604
vn 0.295552 -0.037146 0.954604
vn 0.295552 -0.037146 0.954604
vn 0.295552 -0.037146 0.954604
vn 0.182804 0.000000 0.983149
vn 0.182804 0.000000 0.983149
vn 0.182804 0.000000 0.983149
vn 0.182804 0.000000 0.983149
vn 0.000000 1.000000 0.000000
vn 0.000000 1.000000 0.000000
vn 0.000000 1.000000 0.000000
vn 0.000000 1.000000 0.000000
vn -0.992221 0.000000 -0.124486
vn -0.992221 0.000000 -0.124486
vn -0.992221 0.000000 -0.124486
vn -0.992221 0.000000 -0.124486
vn -0.963041 -0.032099 -0.267436
vn -0.963041 -0.032099 -0.267436
vn -0.963041 -0.032099 -0.267436
vn -0.963041 -0.032099 -0.267436
vn -0.965303 0.033732 -0.258943
vn -0.965303 0.033732 -0.258943
vn -0.965303 0.033732 -0.258943
vn -0.965303 0.033732 -0.258943
vn -0.992221 0.000000 -0.124486
vn -0.992221 0.000000 -0.124486
vn -0.992221 0.000000 -0.124486
vn -0.992221 0.000000 -0.124486
vn 0.000000 -1.000000 0.000000
vn 0.000000 -1.000000 0.000000
vn 0.000000 -1.000000 0.000000
vn 0.000000 -1.000000 0.000000
vn -0.992269 0.000000 0.124109
vn -0.992269 0.000000 0.124109
vn -0.992269 0.000000 0.124109
vn -0.992269 0.000000 0.124109
vn -0.985240 0.020660 0.169926
vn -0.985240 0.020660 0.169926
vn -0.985240 0.020660 0.169926
vn -0.985240 0.020660 0.169926
vn -0.988391 -0.020486 0.150542
vn -0.988391 -0.020486 0.150542
vn -0.988391 -0.020486 0.150542
vn -0.988391 -0.020486 0.150542
vn -0.992269 0.000000 0.124109
vn -0.992269 0.000000 0.124109
vn -0.992269 0.000000 0.124109
vn -0.992269 0.000000 0.124109
vn 0.000000 1.000000 0.000000
vn 0.000000 1.000000 0.000000
vn 0.000000 1.000000 0.000000
vn 0.000000 1.000000 0.000000
vn -0.634651 0.180948 -0.751316
vn -0.634651 0.180948 -0.751316
vn -0.634651 0.180948 -0.751316
vn -0.633084 -0.118434 -0.764969
vn -0.633084 -0.118434 -0.764969
vn -0.633084 -0.118434 -0.764969
vn -1.000000 -0.000000 -0.000000
vn -1.000000 -0.000000 -0.000000
vn -1.000000 -0.000000 -0.000000
vn -1.000000 0.000000 -0.000000
vn -1.000000 0.000000 -0.000000
vn -1.000000 0.000000 -0.000000
vn -1.000000 0.000000 -0.000000
vn -1.000000 -0.000000 0.000000
vn -1.000000 -0.000000 0.000000
vn -1.000000 -0.000000 0.000000
vn -1.000000 -0.000000 0.000000
vn -1.000000 0.000000 0.000000
vn -1.000000 0.000000 0.000000
vn -1.000000 0.000000 0.000000
vn -0.182804 0.000000 0.983149
vn -0.182804 0.000000 0.983149
vn -0.182804 0.000000 0.983149
vn -0.182804 0.000000 0.983149
vn -0.248250 0.025034 0.968372
vn -0.248250 0.025034 0.968372
vn -0.248250 0.025034 0.968372
vn -0.248250 0.025034 0.968372
vn 0.747425 -0.059595 0.661668
vn 0.747425 -0.059595 0.661668
vn 0.747425 -0.059595 0.661668
vn 0.838231 0.104146 0.535278
vn 0.838231 0.104146 0.535278
vn 0.838231 0.104146 0.535278
vn 0.229411 0.038365 0.972573
vn 0.229411 0.038365 0.972573
vn 0.229411 0.038365 0.972573
vn 0.341471 0.025628 0.939543
vn 0.341471 0.025628 0.939543
vn 0.341471 0.025628 0.939543
vn 1.000000 -0.000000 0.000000
vn 1.000000 -0.000000 0.000000
vn 1.000000 -0.000000 0.000000
vn 1.000000 -0.000000 0.000000
vn 1.000000 -0.000000 0.000000
vn 1.000000 -0.000000 0.000000
s off
f 23/92/1 16/93/2 2/94/3 12/95/4
f 21/1/5 22/2/6 62/3/7
f 22/2/8 4/5/9 5/6/10 62/3/11
f 19/102/12 20/103/13 15/104/14 7/105/15
f 4/112/16 22/113/17 58/114/18 59/115/19
f 16/16/20 48/17/21 49/18/22 2/19/23
f 53/120/24 21/121/25 62/122/26 52/123/27
f 41/26/28 42/27/29 7/28/30 37/29/31
f 1/20/32 47/21/33 48/17/34 16/16/35
f 65/36/36 9/37/37 18/38/38
f 44/32/39 8/33/40 19/31/41 43/30/42
f 8/106/43 14/107/44 20/103/45 19/102/46
f 57/13/47 63/4/48 3/8/49
f 13/96/50 1/97/51 16/93/52 23/92/53
f 46/68/54 24/69/55 26/70/56 45/71/57
f 24/69/58 28/72/59 29/73/60 26/70/61
f 56/76/62 30/78/63 31/79/64 55/77/65
f 33/80/66 60/81/67 51/82/68 35/83/69
f 32/84/70 36/86/71 37/87/72 34/85/73
f 36/86/74 50/88/75 41/89/76 37/87/77
f 47/21/78 1/20/79 24/24/80 46/25/81
f 8/33/82 44/32/83 45/34/84 26/35/85
f 9/37/86 11/39/87 25/41/88 27/42/89
f 1/97/90 13/96/91 28/100/92 24/101/93
f 14/107/94 8/106/95 26/110/96 29/111/97
f 57/13/98 3/8/99 64/11/100
f 6/125/101 54/124/102 55/127/103 31/128/104
f 4/112/105 59/115/106 60/118/107 33/119/108
f 52/123/109 61/129/110 35/130/111 51/131/112
f 5/6/113 4/5/114 33/9/115 61/10/116
f 61/10/117 33/9/118 35/14/119
f 12/95/120 2/94/121 36/98/122 32/99/123
f 7/105/124 15/104/125 34/108/126 37/109/127
f 2/19/128 49/18/129 50/22/130 36/23/131
f 54/124/132 6/125/133 21/121/134 53/120/135
f 10/45/136 40/44/137 39/46/138 38/47/139
f 17/40/140 18/38/141 40/44/142 10/45/143
f 7/28/144 42/27/145 43/30/146 19/31/147
f 39/132/148 40/133/149 42/134/150 41/135/151
f 43/136/152 42/134/153 40/133/154 18/137/155
f 9/138/156 44/139/157 43/136/158 18/137/159
f 45/140/160 44/139/161 9/138/162 27/141/163
f 25/74/164 46/68/165 45/71/166 27/75/167
f 11/142/168 47/143/169 46/144/170 25/145/171
f 48/147/172 66/146/173 17/148/174
f 49/149/175 48/147/176 17/148/177 10/150/178
f 50/151/179 49/149/180 10/150/181 38/152/182
f 41/89/183 50/88/184 38/90/185 39/91/186
f 15/48/187 52/49/188 51/50/189 34/51/190
f 20/52/191 53/53/192 52/49/193 15/48/194
f 14/54/195 54/55/196 53/53/197 20/52/198
f 55/56/199 54/55/200 14/54/201 29/57/202
f 28/72/203 56/76/204 55/77/205 29/73/206
f 13/58/207 57/59/208 56/60/209 28/61/210
f 23/62/211 58/63/212 57/59/213 13/58/214
f 59/64/215 58/63/216 23/62/217 12/65/218
f 60/66/219 59/64/220 12/65/221 32/67/222
f 51/82/223 60/81/224 32/84/225 34/85/226
f 52/123/227 62/122/228 5/126/229
f 52/123/230 5/126/231 61/129/232
f 22/2/233 21/1/234 63/4/235
f 21/1/236 6/7/237 3/8/238 63/4/239
f 64/11/240 3/8/241 6/7/242 31/12/243
f 64/11/244 31/12/245 30/15/246
f 57/153/247 64/154/248 30/155/249 56/156/250
f 58/114/251 22/113/252 63/116/253 57/117/254
f 17/40/255 66/43/256 65/36/257
f 65/36/258 66/43/259 11/39/260
f 66/146/261 47/143/262 11/142/263
f 48/147/264 47/143/265 66/146/266
f 65/36/267 18/38/268 17/40/269
f 11/39/270 9/37/271 65/36/272
