# This file uses centimeters as units for non-parametric coordinates.

v -91.022949 5.932067 52.656311
v -90.999016 11.081328 14.076599
v -56.509354 -16.362583 -85.035065
v 63.378708 3.967696 32.723938
v 97.141403 -16.362461 -9.279236
v 90.218193 -2.901530 -89.774658
v -70.111794 4.384542 65.542725
v -3.639109 13.893500 11.761353
v 91.400238 10.963432 -7.127289
v 94.232353 6.145283 -30.157959
v -3.046412 15.010838 -22.999359
v 0.028399 18.248531 1.076385
v 54.701431 -2.678496 -87.863525
v 4.187350 12.631616 10.607635
v 18.725479 10.101343 1.822571
v -85.767517 16.178696 11.984009
v 3.597557 -4.593971 42.124695
v 0.359583 5.450236 66.096802
v -12.343172 5.862329 -89.323502
v -34.713184 5.337866 -87.138046
v 8.675296 -7.444808 68.421692
v 47.269024 9.724007 41.089874
v -96.265503 12.224581 17.516449
v 5.360730 5.531838 67.206055
v 63.295502 11.369346 29.220490
v -102.785484 3.386220 -78.430145
v -0.068853 -8.921959 66.757507
v 0.184625 6.613943 22.262451
v 69.094658 14.548807 6.331482
v 4.218368 10.719642 25.821136
v 31.959530 -16.362530 51.936951
v 54.696770 -16.362499 39.633667
v -101.916069 -16.362686 -77.719727
v -93.756874 -16.362499 1.997284
v -5.109201 -16.362526 -56.440521
v -7.910139 -16.362591 -89.546066
v -95.646339 -16.362495 37.549866
v -91.816521 -16.362572 56.241150
v -87.321411 -16.362579 58.391663
v -73.659805 -16.362537 67.106598
v 4.301004 -16.362572 58.094025
v -46.750847 -16.362564 66.488617
v 1.335119 -16.362389 7.409485
v 97.555771 -16.362442 -1.785980
v -97.366394 -16.362530 14.610779
v 64.547012 -16.362606 -93.034348
v -50.124321 4.167202 8.905823
v -2.714824 -16.362606 -87.213913
v -1.410834 -16.362511 -34.600891
v -92.122719 -16.362480 12.611603
v 69.234619 -16.362465 14.574493
v 70.223808 -16.362450 5.892120
v -96.100533 -16.362514 25.021179
v 66.340836 -16.362476 27.891815
v -0.595311 -16.362440 -18.798340
v -32.381931 -16.362572 66.260620
v 91.994438 -16.362583 -94.943878
v 0.431870 -0.738517 -86.127930
v 5.755120 6.425052 -18.261414
vt 0.069178 0.076015
vt 0.069178 0.075935
vt 0.069178 0.076081
vt 0.069178 0.096462
vt 0.069178 0.096462
vt 0.069178 0.096462
vt 0.069178 0.096462
vt 0.069178 0.096462
vt 0.069178 0.096462
vt 0.069178 0.075914
vt 0.069178 0.075633
vt 0.069178 0.075662
vt 0.069178 0.096462
vt 0.069178 0.096462
vt 0.069178 0.096462
vt 0.069178 0.121013
vt 0.069178 0.120710
vt 0.069178 0.120725
vt 0.069178 0.121005
vt 0.069178 0.120684
vt 0.069178 0.120921
vt 0.069178 0.120794
vt 0.069178 0.120700
vt 0.069178 0.120687
vt 0.069178 0.096462
vt 0.069178 0.096462
vt 0.069178 0.096462
vt 0.069178 0.096462
vt 0.069178 0.096462
vt 0.069178 0.096462
vt 0.069178 0.121001
vt 0.069178 0.120912
vt 0.069178 0.075697
vt 0.069178 0.075624
vt 0.069178 0.075850
vt 0.069178 0.075739
vt 0.069178 0.096462
vt 0.069178 0.096462
vt 0.069178 0.075962
vt 0.069178 0.075866
vt 0.069178 0.076020
vt 0.069178 0.096462
vt 0.069178 0.096462
vt 0.069178 0.096462
vt 0.069178 0.096462
vt 0.069178 0.096462
vt 0.069178 0.096462
vt 0.069178 0.075964
vt 0.069178 0.096462
vt 0.069178 0.096462
vt 0.069178 0.096462
vt 0.069178 0.075968
vt 0.069178 0.096462
vt 0.069178 0.120988
vt 0.069178 0.120912
vt 0.069178 0.120988
vt 0.069178 0.096462
vt 0.069178 0.120992
vt 0.069178 0.075625
vt 0.069178 0.096462
vt 0.069178 0.120864
vt 0.069178 0.096462
vt 0.069178 0.096462
vt 0.069178 0.075750
vt 0.069178 0.096462
vt 0.069178 0.096462
vt 0.069178 0.096462
vt 0.069178 0.096462
vt 0.069178 0.075633
vt 0.069178 0.096462
vt 0.069178 0.096462
vt 0.069178 0.075853
vt 0.069178 0.096462
vt 0.069178 0.120699
vt 0.069178 0.096462
vt 0.069178 0.096462
vt 0.069178 0.096462
vt 0.069178 0.096462
vt 0.069178 0.121011
vt 0.069178 0.096462
vt 0.069178 0.096462
vn 0.890868 -0.005675 0.454228
vn 0.890868 -0.005675 0.454228
vn 0.890868 -0.005675 0.454228
vn 0.475608 -0.035179 0.878953
vn 0.475608 -0.035179 0.878953
vn 0.475608 -0.035179 0.878953
vn -0.021102 0.992002 0.124449
vn -0.021102 0.992002 0.124449
vn -0.021102 0.992002 0.124449
vn 0.288839 0.948939 0.126835
vn 0.288839 0.948939 0.126835
vn 0.288839 0.948939 0.126835
vn -0.993293 0.055069 0.101665
vn -0.993293 0.055069 0.101665
vn -0.993293 0.055069 0.101665
vn -0.990816 -0.038961 0.129483
vn -0.990816 -0.038961 0.129483
vn -0.990816 -0.038961 0.129483
vn -0.691797 0.721544 0.028122
vn -0.691797 0.721544 0.028122
vn -0.691797 0.721544 0.028122
vn 0.996145 0.024339 -0.084280
vn 0.996145 0.024339 -0.084280
vn 0.996145 0.024339 -0.084280
vn -0.045226 0.990271 -0.131599
vn -0.045226 0.990271 -0.131599
vn -0.045226 0.990271 -0.131599
vn -0.158912 -0.042478 -0.986378
vn -0.158912 -0.042478 -0.986378
vn -0.158912 -0.042478 -0.986378
vn -0.011420 0.988730 -0.149271
vn -0.011420 0.988730 -0.149271
vn -0.011420 0.988730 -0.149271
vn -0.802916 0.449439 0.391576
vn -0.802916 0.449439 0.391576
vn -0.802916 0.449439 0.391576
vn 0.989164 0.059297 -0.134304
vn 0.989164 0.059297 -0.134304
vn 0.989164 0.059297 -0.134304
vn -0.038028 0.444500 -0.894971
vn -0.038028 0.444500 -0.894971
vn -0.038028 0.444500 -0.894971
vn -0.028391 0.990813 0.132227
vn -0.028391 0.990813 0.132227
vn -0.028391 0.990813 0.132227
vn -0.977446 0.066996 0.200278
vn -0.977446 0.066996 0.200278
vn -0.977446 0.066996 0.200278
vn 0.483953 0.089203 0.870536
vn 0.483953 0.089203 0.870536
vn 0.483953 0.089203 0.870536
vn -0.533481 0.126565 0.836289
vn -0.533481 0.126565 0.836289
vn -0.533481 0.126565 0.836289
vn -0.019611 0.988412 0.150521
vn -0.019611 0.988412 0.150521
vn -0.019611 0.988412 0.150521
vn 0.136605 -0.777673 0.613648
vn 0.136605 -0.777673 0.613648
vn 0.136605 -0.777673 0.613648
vn 0.982146 0.164584 -0.091106
vn 0.982147 0.164584 -0.091106
vn 0.982146 0.164584 -0.091106
vn -0.510476 0.151107 0.846511
vn -0.510476 0.151107 0.846511
vn -0.510476 0.151107 0.846511
vn 0.022901 0.071250 0.997196
vn 0.022901 0.071250 0.997196
vn 0.022901 0.071250 0.997196
vn -0.066080 0.011768 -0.997745
vn -0.066080 0.011768 -0.997745
vn -0.066080 0.011768 -0.997745
vn 0.094113 0.146059 0.984789
vn 0.094113 0.146059 0.984789
vn 0.094113 0.146059 0.984789
vn -0.026105 0.046683 0.998569
vn -0.026105 0.046683 0.998569
vn -0.026105 0.046683 0.998569
vn 0.976841 0.199053 0.078480
vn 0.976841 0.199053 0.078480
vn 0.976841 0.199053 0.078480
vn -0.037333 0.977197 -0.209026
vn -0.037333 0.977197 -0.209026
vn -0.037333 0.977197 -0.209026
vn -0.092423 -0.003664 -0.995713
vn -0.092423 -0.003664 -0.995713
vn -0.092423 -0.003664 -0.995713
vn -0.127731 0.032229 -0.991285
vn -0.127731 0.032229 -0.991285
vn -0.127731 0.032229 -0.991285
vn 0.119641 0.183067 0.975793
vn 0.119641 0.183067 0.975793
vn 0.119641 0.183067 0.975793
vn -0.040196 0.990943 -0.128128
vn -0.040196 0.990943 -0.128128
vn -0.040196 0.990943 -0.128128
vn 0.029948 0.147128 -0.988664
vn 0.029948 0.147128 -0.988664
vn 0.029948 0.147128 -0.988664
vn 0.979712 0.112426 -0.165906
vn 0.979712 0.112426 -0.165906
vn 0.979712 0.112426 -0.165906
vn 0.976342 0.209381 -0.053991
vn 0.976342 0.209381 -0.053991
vn 0.976342 0.209381 -0.053991
vn 0.116824 0.215806 0.969422
vn 0.116824 0.215806 0.969422
vn 0.116824 0.215806 0.969422
vn 0.997006 0.024204 -0.073438
vn 0.997006 0.024204 -0.073438
vn 0.997006 0.024204 -0.073438
vn -0.001404 0.989920 -0.141622
vn -0.001404 0.989920 -0.141622
vn -0.001404 0.989920 -0.141622
vn 0.957561 0.188759 -0.217823
vn 0.957561 0.188759 -0.217823
vn 0.957561 0.188759 -0.217823
vn -0.987839 0.032329 0.152085
vn -0.987839 0.032329 0.152085
vn -0.987839 0.032329 0.152085
vn -0.535407 0.066867 -0.841943
vn -0.535407 0.066867 -0.841943
vn -0.535407 0.066867 -0.841943
vn -0.048074 0.352540 -0.934561
vn -0.048074 0.352540 -0.934561
vn -0.048074 0.352540 -0.934561
vn -0.956388 0.123292 -0.264803
vn -0.956388 0.123292 -0.264803
vn -0.956388 0.123292 -0.264803
vn -0.746410 0.660103 0.084481
vn -0.746410 0.660103 0.084481
vn -0.746410 0.660103 0.084481
vn 0.528705 0.367991 0.764888
vn 0.528705 0.367991 0.764888
vn 0.528705 0.367991 0.764888
vn 0.992975 0.034664 0.113130
vn 0.992975 0.034664 0.113130
vn 0.992975 0.034664 0.113130
vn -0.737283 0.563253 0.373041
vn -0.737283 0.563253 0.373041
vn -0.737283 0.563253 0.373041
vn -0.008403 0.036099 0.999313
vn -0.008403 0.036099 0.999313
vn -0.008403 0.036099 0.999313
vn -0.983072 0.179720 0.035638
vn -0.983072 0.179720 0.035638
vn -0.983072 0.179720 0.035638
vn -0.987538 0.034605 0.153529
vn -0.987538 0.034605 0.153529
vn -0.987538 0.034605 0.153529
vn 0.708612 -0.063777 0.702710
vn 0.708612 -0.063776 0.702710
vn 0.708612 -0.063777 0.702710
vn 0.000259 0.990481 0.137651
vn 0.000259 0.990481 0.137651
vn 0.000259 0.990481 0.137651
vn -0.997881 0.022963 0.060879
vn -0.997881 0.022963 0.060879
vn -0.997881 0.022963 0.060879
vn -0.354157 0.108057 -0.928922
vn -0.354157 0.108057 -0.928922
vn -0.354157 0.108057 -0.928922
vn 0.032087 0.993697 -0.107405
vn 0.032087 0.993697 -0.107405
vn 0.032087 0.993697 -0.107405
vn 0.985840 0.152763 0.069153
vn 0.985840 0.152763 0.069153
vn 0.985840 0.152763 0.069153
vn 0.879795 0.475265 0.009106
vn 0.879795 0.475265 0.009106
vn 0.879795 0.475265 0.009106
vn -0.016155 0.987831 0.154689
vn -0.016155 0.987831 0.154689
vn -0.016155 0.987831 0.154689
vn -0.992354 0.025951 0.120666
vn -0.992354 0.025951 0.120666
vn -0.992354 0.025951 0.120666
vn 0.015863 -0.016303 0.999741
vn 0.015863 -0.016303 0.999741
vn 0.015863 -0.016303 0.999741
vn -0.097011 -0.009383 -0.995239
vn -0.097011 -0.009383 -0.995239
vn -0.097011 -0.009383 -0.995239
vn -0.035625 0.991293 -0.126766
vn -0.035625 0.991293 -0.126766
vn -0.035625 0.991293 -0.126766
vn -0.065966 0.310826 -0.948175
vn -0.065966 0.310826 -0.948175
vn -0.065966 0.310826 -0.948175
vn -0.082242 0.299956 -0.950401
vn -0.082242 0.299956 -0.950401
vn -0.082242 0.299956 -0.950401
vn 0.619322 0.228556 0.751134
vn 0.619322 0.228556 0.751134
vn 0.619322 0.228556 0.751134
vn -0.846685 -0.169000 0.504542
vn -0.846685 -0.169000 0.504542
vn -0.846685 -0.169000 0.504542
vn 0.518961 0.100380 0.848884
vn 0.518961 0.100380 0.848883
vn 0.518961 0.100380 0.848883
vn 0.996155 0.070943 -0.051409
vn 0.996155 0.070943 -0.051409
vn 0.996155 0.070943 -0.051409
vn 0.995523 0.073183 -0.059814
vn 0.995523 0.073183 -0.059814
vn 0.995523 0.073183 -0.059814
vn -0.021289 0.991965 0.124710
vn -0.021289 0.991965 0.124710
vn -0.021289 0.991965 0.124710
vn -0.426119 0.158386 0.890694
vn -0.426119 0.158386 0.890694
vn -0.426119 0.158386 0.890694
vn 0.973095 0.091524 0.211448
vn 0.973095 0.091524 0.211448
vn 0.973095 0.091524 0.211448
vn 0.974723 0.104441 0.197503
vn 0.974723 0.104441 0.197503
vn 0.974723 0.104441 0.197503
vn 0.954575 0.297944 0.004100
vn 0.954575 0.297944 0.004100
vn 0.954575 0.297944 0.004100
vn 0.152976 -0.710234 0.687144
vn 0.152976 -0.710234 0.687144
vn 0.152976 -0.710234 0.687144
vn 0.967345 0.194575 -0.162433
vn 0.967345 0.194575 -0.162433
vn 0.967345 0.194575 -0.162433
vn -0.041347 0.990542 -0.130836
vn -0.041347 0.990542 -0.130836
vn -0.041347 0.990542 -0.130836
vn -0.021883 0.111739 -0.993497
vn -0.021883 0.111739 -0.993497
vn -0.021883 0.111739 -0.993497
vn 0.964408 0.072199 0.254371
vn 0.964408 0.072199 0.254371
vn 0.964408 0.072199 0.254371
vn -0.021370 0.991935 0.124934
vn -0.021370 0.991935 0.124934
vn -0.021370 0.991935 0.124934
vn -0.996056 0.080379 0.037570
vn -0.996056 0.080379 0.037570
vn -0.996056 0.080379 0.037570
vn -0.031617 -0.335136 0.941639
vn -0.031617 -0.335136 0.941639
vn -0.031617 -0.335136 0.941639
vn -0.031617 -0.335136 0.941639
vn -0.029190 0.075160 -0.996744
vn -0.029190 0.075160 -0.996744
vn -0.029190 0.075160 -0.996744
vn -0.970370 0.238210 0.040473
vn -0.970370 0.238210 0.040473
vn -0.970370 0.238210 0.040473
vn -0.970370 0.238210 0.040473
vn -0.961306 0.266229 0.070808
vn -0.961306 0.266229 0.070808
vn -0.961306 0.266229 0.070808
vn -0.038230 0.987020 -0.155981
vn -0.038230 0.987020 -0.155981
vn -0.038230 0.987020 -0.155981
s off
f 27/1/1 41/2/2 18/3/3
f 31/4/4 32/5/5 24/6/6
f 14/7/7 22/8/8 29/9/9
f 1/10/10 2/11/11 23/12/12
f 2/13/13 33/14/14 34/15/15
f 2/16/16 26/17/17 33/18/18
f 16/19/19 26/17/20 2/16/21
f 36/20/22 11/21/23 35/22/24
f 20/23/25 26/17/26 16/19/27
f 26/17/28 3/24/29 33/18/30
f 6/25/31 15/26/32 10/27/33
f 17/28/34 30/29/35 28/30/36
f 11/21/37 12/31/38 55/32/39
f 2/11/40 8/33/41 47/34/42
f 2/11/43 1/10/44 8/33/45
f 38/35/46 1/10/47 37/36/48
f 22/8/49 32/37/50 4/38/51
f 40/39/52 1/10/53 39/40/54
f 8/33/55 1/10/56 7/41/57
f 41/42/58 31/43/59 21/44/60
f 10/27/61 57/47/62 6/25/63
f 40/39/64 7/41/65 1/10/66
f 42/48/67 7/41/68 40/39/69
f 14/7/70 29/9/71 52/49/72
f 44/50/73 15/26/74 43/51/75
f 18/3/76 56/52/77 27/1/78
f 5/54/79 10/55/80 9/56/81
f 15/26/82 9/57/83 10/27/84
f 20/23/85 36/20/86 3/24/87
f 20/23/88 3/24/89 26/17/90
f 12/31/91 16/19/92 43/58/93
f 11/21/94 16/19/95 12/31/96
f 43/59/97 47/34/98 8/33/99
f 11/21/100 49/61/101 35/22/102
f 5/62/103 9/57/104 44/50/105
f 44/50/106 9/57/107 15/26/108
f 55/46/109 12/63/110 43/51/111
f 6/25/112 13/45/113 15/26/114
f 8/33/115 28/64/116 43/59/117
f 2/13/118 34/15/119 50/65/120
f 2/13/121 50/65/122 23/66/123
f 6/25/124 57/47/125 13/45/126
f 43/51/127 28/30/128 14/7/129
f 30/29/130 14/7/131 28/30/132
f 22/8/133 4/38/134 25/67/135
f 29/9/136 51/68/137 52/49/138
f 15/26/139 59/81/140 43/51/141
f 18/3/142 7/41/143 42/48/144
f 1/10/145 53/69/146 37/36/147
f 1/10/148 23/12/149 53/69/150
f 54/70/151 4/38/152 32/37/153
f 25/67/154 29/9/155 22/8/156
f 41/42/157 24/6/158 17/28/159
f 45/71/160 23/66/161 50/65/162
f 58/80/163 59/81/164 13/45/165
f 41/2/166 17/72/167 18/3/168
f 8/33/169 18/3/170 28/64/171
f 18/3/172 8/33/173 7/41/174
f 23/66/175 45/71/176 53/73/177
f 18/3/178 42/48/179 56/52/180
f 36/20/181 20/23/182 19/74/183
f 20/23/184 16/19/185 19/74/186
f 57/47/187 46/53/188 13/45/189
f 46/53/190 48/60/191 13/45/192
f 31/4/193 24/6/194 21/75/195
f 24/6/196 41/42/197 21/44/198
f 22/8/199 24/6/200 32/37/201
f 55/32/202 49/61/203 11/21/204
f 5/76/205 57/47/206 10/27/207
f 14/7/208 30/29/209 22/8/210
f 39/40/211 1/10/212 38/35/213
f 51/68/214 4/38/215 54/70/216
f 51/68/217 25/67/218 4/38/219
f 17/72/220 28/64/221 18/3/222
f 41/42/223 27/77/224 56/78/225
f 19/74/226 11/21/227 36/20/228
f 19/74/229 16/19/230 11/21/231
f 14/7/232 52/49/233 43/51/234
f 25/67/235 51/68/236 29/9/237
f 30/29/238 24/6/239 22/8/240
f 24/6/241 30/29/242 17/28/243
f 2/16/244 47/79/245 43/58/246 16/19/247
f 48/60/248 58/80/249 13/45/250
f 48/60/251 55/46/252 59/81/253 58/80/254
f 55/46/255 43/51/256 59/81/257
f 15/26/258 13/45/259 59/81/260
