# This file uses centimeters as units for non-parametric coordinates.

v -54.347427 -8.252907 -55.526611
v -49.235458 -8.252907 42.467773
v -54.347427 68.762970 -55.526611
v -49.235458 68.762970 42.467773
v 46.145508 68.784332 -48.577698
v 36.029083 68.762970 51.156616
v 43.936295 -8.252907 -44.910095
v 36.029083 -8.252907 51.156616
v -54.347488 -8.252907 -17.937988
v -47.244995 63.245773 -17.229919
v 44.580185 68.784332 7.483154
v 37.702728 -2.736115 6.921387
v -7.061462 68.762970 -6.432678
v -54.347488 68.762970 -4.497864
v -54.347488 10.999870 -18.268005
v -54.347488 68.762970 -27.515137
v 44.805328 25.848198 8.358765
v 52.579300 -8.252907 -3.015259
v -6.832184 -8.252907 -5.060242
v 44.805328 -8.252907 15.393372
v -48.973343 80.772400 -51.226807
v -48.973404 80.772400 -27.846863
v -5.981567 80.772400 -12.981873
v 48.949005 80.772400 -10.742615
v 42.740341 80.772400 -44.421326
v 54.348999 -8.252907 22.195007
v 54.348999 25.848198 16.131226
v 54.348999 68.762970 15.820618
v 45.572754 68.762970 48.250977
v 45.572754 -8.252907 48.250977
v -7.853516 80.772400 -51.226807
v -16.481232 56.499481 -59.942871
v -49.235458 30.183411 42.467773
v 36.029083 18.661499 51.156616
v 45.572754 24.586487 48.250977
v 28.822403 -4.933119 59.399414
v -39.761642 -4.933119 59.942261
v 28.822403 10.790825 59.399414
v -39.761642 21.613312 59.942261
v 50.468887 68.784332 -9.540100
vt 0.068875 0.125448
vt 0.068721 0.125432
vt 0.068758 0.125381
vt 0.068874 0.125381
vt 0.068855 0.125369
vt 0.068759 0.125369
vt 0.068693 0.125355
vt 0.068850 0.125355
vt 0.068649 0.125412
vt 0.068674 0.125347
vt 0.068605 0.125349
vt 0.068603 0.125386
vt 0.068820 0.125414
vt 0.068662 0.125433
vt 0.068720 0.125449
vt 0.068469 0.125415
vt 0.068429 0.125396
vt 0.068428 0.125352
vt 0.068467 0.125381
vt 0.068888 0.125379
vt 0.068663 0.125382
vt 0.068666 0.125366
vt 0.068440 0.125387
vt 0.068570 0.125383
vt 0.068570 0.125346
vt 0.068439 0.125349
vt 0.068575 0.125415
vt 0.068430 0.125419
vt 0.068470 0.125448
vt 0.068715 0.125384
vt 0.068610 0.125413
vt 0.068679 0.125337
vt 0.068547 0.125412
vt 0.068441 0.125415
vt 0.068816 0.125338
vt 0.068833 0.125347
vt 0.068397 0.125442
vt 0.068397 0.125419
vt 0.068396 0.125405
vt 0.068396 0.125419
vn -1.000000 -0.000000 -0.000001
vn -1.000000 -0.000000 -0.000001
vn -0.998803 0.048919 -0.000002
vn -0.999020 0.044257 -0.000002
vn 0.000000 1.000000 -0.000000
vn 0.000000 1.000000 -0.000000
vn 0.000000 1.000000 -0.000000
vn 0.000000 1.000000 -0.000000
vn 0.993667 -0.006600 -0.112169
vn 0.999006 0.023588 -0.037821
vn 0.919983 0.046236 0.389221
vn 0.919120 0.042053 0.391727
vn 0.000000 -1.000000 0.000000
vn 0.000000 -1.000000 0.000000
vn 0.000000 -1.000000 0.000000
vn 0.000000 -1.000000 0.000000
vn 0.000000 -1.000000 0.000000
vn -0.101369 0.000000 0.994849
vn -0.035244 0.000000 0.999379
vn -0.058602 0.000000 0.998281
vn -0.101369 0.000000 0.994849
vn 0.101598 -0.027559 -0.994444
vn 0.112545 -0.085493 -0.989962
vn -0.071163 0.135935 -0.988159
vn -0.995194 -0.013853 0.096940
vn -0.995944 -0.005911 0.089786
vn -0.991341 -0.008453 0.131043
vn -0.995194 -0.013853 0.096940
vn -0.000078 1.000000 0.000123
vn -0.000137 1.000000 0.000102
vn -0.000137 1.000000 0.000102
vn -0.000137 1.000000 0.000102
vn -0.000078 1.000000 0.000123
vn 0.961717 0.011614 0.273797
vn 0.962131 0.010297 0.272394
vn 0.964959 0.000939 0.262399
vn 0.964959 0.000939 0.262399
vn 0.000000 -1.000000 0.000000
vn 0.000000 -1.000000 0.000000
vn 0.000000 -1.000000 0.000000
vn -0.001445 -0.999626 0.027303
vn -0.001459 -0.999619 0.027562
vn -0.016567 0.914036 -0.405295
vn -0.016567 0.914036 -0.405295
vn -0.016567 0.914036 -0.405295
vn -0.842457 0.124911 -0.524084
vn -0.842457 0.124911 -0.524084
vn -0.842457 0.124911 -0.524084
vn -0.794165 0.096073 0.600060
vn -0.794165 0.096073 0.600060
vn -0.794165 0.096073 0.600060
vn -0.263504 0.762407 0.591017
vn -0.263504 0.762408 0.591017
vn -0.263504 0.762407 0.591017
vn 0.503694 -0.167799 0.847429
vn 0.503694 -0.167799 0.847429
vn 0.503694 -0.167799 0.847429
vn -0.016064 -0.884152 0.466923
vn -0.016064 -0.884152 0.466923
vn -0.016064 -0.884152 0.466923
vn 0.266470 -0.690107 -0.672864
vn 0.266470 -0.690107 -0.672864
vn 0.266470 -0.690108 -0.672864
vn 0.711032 -0.142023 -0.688668
vn 0.711032 -0.142023 -0.688667
vn 0.711032 -0.142023 -0.688668
vn -0.999020 0.044257 -0.000002
vn -0.998803 0.048919 -0.000002
vn -0.912785 0.408440 -0.000002
vn -0.912785 0.408440 -0.000002
vn -0.347451 0.343321 0.872587
vn -0.199748 0.600900 0.773964
vn -0.207381 0.589740 0.780512
vn -0.347451 0.343321 0.872587
vn -0.199748 0.600900 0.773964
vn -0.103268 0.725699 0.680218
vn -0.103268 0.725699 0.680218
vn -0.207381 0.589740 0.780512
vn 0.919983 0.046236 0.389221
vn 0.999006 0.023588 -0.037821
vn 0.973816 0.210468 -0.085939
vn 0.078617 0.324486 -0.942618
vn 0.101598 -0.027559 -0.994444
vn -0.071163 0.135935 -0.988159
vn -0.000200 0.337750 -0.941236
vn 0.599949 -0.150859 -0.785686
vn 0.625506 -0.067425 -0.777301
vn 0.623884 -0.073246 -0.778077
vn 0.599949 -0.150859 -0.785686
vn 0.625506 -0.067425 -0.777301
vn 0.640485 -0.008931 -0.767919
vn 0.640485 -0.008931 -0.767919
vn 0.623884 -0.073246 -0.778077
vn -0.000078 1.000000 0.000123
vn -0.000078 1.000000 0.000123
vn 0.000979 0.999999 0.000508
vn 0.000979 0.999999 0.000508
vn -0.058602 0.000000 0.998281
vn -0.035244 0.000000 0.999379
vn 0.291079 0.000000 0.956699
vn 0.291081 0.000000 0.956699
vn -0.001445 -0.999626 0.027303
vn 0.000000 -1.000000 0.000000
vn 0.000000 -1.000000 0.000000
vn 0.000000 -1.000000 0.000000
vn 0.000000 1.000000 -0.000000
vn 0.000000 1.000000 -0.000000
vn 0.000000 1.000000 0.000000
vn 0.000000 1.000000 0.000000
vn 0.139235 -0.023214 -0.989987
vn 0.101598 -0.027559 -0.994444
vn 0.078617 0.324486 -0.942618
vn 0.116619 0.317315 -0.941122
vn 0.141954 -0.096310 -0.985177
vn 0.112545 -0.085493 -0.989962
vn 0.101598 -0.027559 -0.994444
vn 0.139235 -0.023214 -0.989987
vn -1.000000 -0.000000 -0.000001
vn -1.000000 0.000000 -0.000001
vn -1.000000 -0.000000 -0.000001
vn -0.991341 -0.008453 0.131043
vn -0.995944 -0.005911 0.089786
vn -0.996464 0.000478 0.084024
vn -0.982894 0.000365 0.184170
vn 0.007929 0.000000 0.999969
vn 0.007929 0.000000 0.999969
vn 0.007929 0.000000 0.999969
vn 0.007929 0.000000 0.999969
vn 0.291079 0.000000 0.956699
vn -0.035244 0.000000 0.999379
vn 0.291074 0.000000 0.956701
vn 0.291074 0.000000 0.956701
vn 0.956891 0.026199 0.289262
vn 0.962131 0.010297 0.272394
vn 0.961717 0.011614 0.273797
vn 0.956891 0.026199 0.289262
vn -0.001459 -0.999619 0.027562
vn -0.001445 -0.999626 0.027303
vn -0.013290 -0.967881 0.251058
vn -0.013290 -0.967881 0.251058
vn 0.752837 0.000000 0.658207
vn 0.752837 0.000000 0.658207
vn 0.752837 0.000000 0.658207
vn 0.752837 0.000000 0.658207
vn 0.094295 0.842542 0.530312
vn 0.094295 0.842542 0.530312
vn 0.094295 0.842542 0.530312
vn 0.094295 0.842542 0.530312
vn -0.991341 -0.008453 0.131043
vn -0.982894 0.000365 0.184170
vn -0.879113 0.000000 0.476613
vn -0.879113 0.000000 0.476613
vn 0.987570 0.013211 -0.156627
vn 0.999006 0.023588 -0.037821
vn 0.993667 -0.006600 -0.112169
vn 0.987347 -0.011100 -0.158185
vn 0.973816 0.210468 -0.085939
vn 0.999006 0.023588 -0.037821
vn 0.987570 0.013211 -0.156627
vn 0.966368 0.215738 -0.139964
s off
f 1/1/1 15/2/2 16/3/3 3/4/4
f 21/5/5 22/6/6 23/7/7 31/8/8
f 18/9/9 40/10/10 11/11/11 17/12/12
f 7/13/13 18/9/14 19/14/15 9/15/16 1/1/17
f 33/16/18 34/17/19 6/18/20 4/19/21
f 32/20/22 1/1/23 3/4/24
f 14/21/25 15/2/26 33/16/27 4/19/28
f 11/11/29 13/22/30 14/21/31 4/19/32 6/18/33
f 35/23/34 27/24/35 28/25/36 29/26/37
f 9/15/38 19/14/39 20/27/40 8/28/41 2/29/42
f 14/21/43 13/22/44 10/30/45
f 10/30/46 15/2/47 14/21/48
f 16/3/49 15/2/50 10/30/51
f 13/22/52 16/3/53 10/30/54
f 18/9/55 17/12/56 12/31/57
f 19/14/58 18/9/59 12/31/60
f 20/27/61 19/14/62 12/31/63
f 12/31/64 17/12/65 20/27/66
f 3/4/67 16/3/68 22/6/69 21/5/70
f 16/3/71 13/22/72 23/7/73 22/6/74
f 13/22/75 11/11/76 24/32/77 23/7/78
f 11/11/79 40/10/80 24/32/81
f 31/8/82 32/20/83 3/4/84 21/5/85
f 20/27/86 17/12/87 27/24/88 26/33/89
f 17/12/90 11/11/91 28/25/92 27/24/93
f 11/11/94 6/18/95 29/26/96 28/25/97
f 6/18/98 34/17/99 35/23/100 29/26/101
f 8/28/102 20/27/103 26/33/104 30/34/105
f 31/8/106 23/7/107 24/32/108 25/35/109
f 5/36/110 32/20/111 31/8/112 25/35/113
f 7/13/114 1/1/115 32/20/116 5/36/117
f 1/1/118 9/15/119 15/2/120
f 33/16/121 15/2/122 9/15/123 2/29/124
f 37/37/125 36/38/126 38/39/127 39/40/128
f 35/23/129 34/17/130 8/28/131 30/34/132
f 26/33/133 27/24/134 35/23/135 30/34/136
f 2/29/137 8/28/138 36/38/139 37/37/140
f 8/28/141 34/17/142 38/39/143 36/38/144
f 34/17/145 33/16/146 39/40/147 38/39/148
f 33/16/149 2/29/150 37/37/151 39/40/152
f 5/36/153 40/10/154 18/9/155 7/13/156
f 24/32/157 40/10/158 5/36/159 25/35/160
