# This file uses centimeters as units for non-parametric coordinates.

v 45.150864 -27.449045 35.592068
v 22.575438 11.652763 35.592060
v 0.000000 -27.449036 35.592060
v 37.062084 -21.223852 40.907593
v 22.575436 2.365793 40.907585
v 9.341282 -21.343929 40.907585
v 110.129311 -27.449045 35.592068
v 87.553886 11.652763 35.592060
v 64.978447 -27.449036 35.592060
v 100.105736 -21.306589 40.907593
v 87.553886 2.365793 40.907585
v 73.632835 -21.594114 40.907585
v 422.359924 27.449053 35.592068
v 444.935333 -11.652756 35.592060
v 467.510773 27.449043 35.592060
v 432.295532 21.259409 40.907593
v 444.935333 -2.365786 40.907585
v 458.629028 21.559748 40.907585
v 292.403015 27.449053 35.592068
v 314.978455 -11.652756 35.592060
v 337.553894 27.449043 35.592060
v 301.177979 21.413315 40.907593
v 314.978455 -2.365786 40.907585
v 329.088379 21.145695 40.907585
v 97.467667 27.449053 35.592068
v 120.043091 -11.652756 35.592060
v 142.618530 27.449043 35.592060
v 105.347183 21.281107 40.907593
v 120.043091 -2.365786 40.907585
v 133.327957 21.459757 40.907585
v 32.489227 27.449053 35.592068
v 55.064651 -11.652756 35.592060
v 77.640091 27.449043 35.592060
v 40.587872 21.441345 40.907593
v 69.147179 20.995840 40.907585
v 357.381470 27.449055 35.592068
v 379.956879 -11.652756 35.592060
v 402.532318 27.449043 35.592060
v 365.600586 20.410618 40.907593
v 394.540527 20.643263 40.907585
v 435.021545 -27.449045 35.592068
v 412.446136 11.652764 35.592060
v 389.870697 -27.449036 35.592060
v 426.955414 -21.288351 40.907593
v 399.430573 -21.301916 40.907585
v 370.043091 -27.449047 35.592068
v 347.467682 11.652763 35.592060
v 324.892242 -27.449036 35.592060
v 361.167023 -21.362232 40.907593
v 347.467682 2.365793 40.907585
v 333.768311 -21.362232 40.907585
v 162.446121 27.449051 35.592068
v 185.021545 -11.652756 35.592060
v 207.596985 27.449043 35.592060
v 172.163940 21.021187 40.907593
v 199.110123 21.145561 40.907585
v 227.424576 27.449053 35.592068
v 250.000000 -11.652755 35.592060
v 272.575439 27.449043 35.592060
v 235.390030 21.476988 40.907593
v 250.000000 -2.365786 40.907585
v 264.826691 21.576885 40.907585
v 175.107758 -27.449045 35.592068
v 152.532333 11.652764 35.592060
v 129.956894 -27.449036 35.592060
v 167.122543 -21.583019 40.907593
v 152.532333 2.365793 40.907585
v 139.002899 -21.298449 40.907585
v 240.086212 -27.449045 35.592068
v 217.510788 11.652762 35.592060
v 194.935349 -27.449036 35.592060
v 229.798386 -21.728968 40.907593
v 202.498032 -21.685051 40.907585
v 500.000000 -27.449030 35.592072
v 477.424591 11.652779 35.592068
v 454.849152 -27.449020 35.592068
v 491.279236 -21.127605 40.907597
v 462.723724 -20.743587 40.907593
v 305.064636 -27.449045 35.592068
v 282.489227 11.652763 35.592060
v 259.913788 -27.449036 35.592060
v 297.299316 -21.479540 40.907593
v 282.489227 2.365792 40.907585
v 268.205017 -21.490694 40.907585
v 0.000000 -40.540745 29.408363
v 500.000000 -40.540745 29.408363
v 0.000000 40.540749 29.408363
v 500.000000 40.540749 29.408363
v 0.000000 40.540749 0.000000
v 500.000000 40.540749 0.000000
v 0.000000 -40.540745 0.000000
v 500.000000 -40.540745 0.000000
v 0.000000 -27.449036 35.592064
v 0.000000 27.449034 35.592064
v 500.000000 27.449034 35.592064
v 500.000000 -27.449036 35.592064
v 51.794140 3.433504 40.907585
v 60.169491 6.076047 40.907585
v 378.690826 -0.572981 40.907585
v 383.580139 2.822751 40.907585
v 379.956879 -10.210312 38.247940
v 415.766968 -3.346305 40.907585
v 407.889343 -5.126821 40.907585
v 412.446136 10.439842 37.825336
v 180.666397 4.777694 40.907585
v 188.360992 3.314242 40.907585
v 185.021545 -10.310253 38.063923
v 220.604767 -3.739301 40.907585
v 210.483795 -9.405226 40.907585
v 480.849396 -3.166195 40.907593
v 473.999756 -3.166195 40.907593
v 477.424591 9.487579 39.578712
v 176.577881 -40.540745 24.254915
v 352.314026 40.540749 23.813019
v 321.779999 27.449034 35.592064
v 202.793961 -27.449036 35.592064
vt 0.012876 0.536537
vt 0.012876 0.540775
vt 0.006623 0.525707
vt 0.002572 0.522929
vt 0.042532 0.536537
vt 0.042532 0.540775
vt 0.036279 0.525707
vt 0.032228 0.522929
vt 0.205641 0.534377
vt 0.205641 0.530138
vt 0.211893 0.545207
vt 0.215944 0.547985
vt 0.146329 0.534377
vt 0.146329 0.530138
vt 0.152581 0.545207
vt 0.156632 0.547985
vt 0.057360 0.534377
vt 0.057360 0.530138
vt 0.063612 0.545207
vt 0.067663 0.547985
vt 0.027704 0.530134
vt 0.038007 0.547985
vt 0.175985 0.530138
vt 0.186288 0.547985
vt 0.190813 0.540775
vt 0.180509 0.522929
vt 0.161157 0.536537
vt 0.161157 0.540775
vt 0.154904 0.525707
vt 0.150853 0.522929
vt 0.087016 0.530138
vt 0.097320 0.547985
vt 0.116672 0.534377
vt 0.116672 0.530138
vt 0.122925 0.545207
vt 0.126976 0.547985
vt 0.072188 0.536537
vt 0.072188 0.540775
vt 0.065935 0.525707
vt 0.061885 0.522929
vt 0.101924 0.540859
vt 0.091541 0.522929
vt 0.220469 0.540775
vt 0.210166 0.522929
vt 0.131500 0.536537
vt 0.131500 0.540775
vt 0.125248 0.525707
vt 0.121197 0.522929
vt 0.025444 0.539416
vt 0.176203 0.536847
vt 0.176371 0.531488
vt 0.193018 0.531970
vt 0.191046 0.539612
vt 0.085439 0.539413
vt 0.087267 0.531444
vt 0.104157 0.531566
vt 0.222175 0.532504
vt 0.220469 0.540116
vt 0.218763 0.532504
vt 0.099089 0.529340
vt 0.089211 0.538905
vt 0.189147 0.531332
vt 0.178500 0.538453
vt 0.029608 0.540452
vt 0.214044 0.524661
vt 0.095632 0.524454
vt 0.093677 0.546340
vt 0.184719 0.524657
vt 0.182904 0.545987
vt 0.033843 0.546486
vt 0.236557 0.618462
vt 0.236557 0.644116
vt 0.002904 0.618462
vt 0.002904 0.644116
vt 0.141804 0.522929
vt 0.137753 0.525707
vt 0.230772 0.522929
vt 0.226894 0.524661
vt 0.112148 0.522929
vt 0.108413 0.524354
vt 0.082491 0.522929
vt 0.078440 0.525707
vt 0.106369 0.547985
vt 0.110420 0.545207
vt 0.076713 0.547985
vt 0.080929 0.546227
vt 0.171460 0.522929
vt 0.167409 0.525707
vt 0.201116 0.522929
vt 0.197473 0.524544
vt 0.165681 0.547985
vt 0.170259 0.545797
vt 0.017400 0.547985
vt 0.021075 0.546519
vt 0.047056 0.547985
vt 0.051107 0.545207
vt 0.136025 0.547985
vt 0.140076 0.545207
vt 0.195338 0.547985
vt 0.199389 0.545207
vt 0.052835 0.522929
vt 0.048784 0.525707
vt 0.023179 0.522929
vt 0.019128 0.525707
vt 0.153274 0.644116
vt 0.097671 0.618462
vt 0.133141 0.909560
vt 0.139140 0.893249
vt 0.139140 0.906726
vt 0.107982 0.909560
vt 0.101982 0.893249
vt 0.101982 0.906726
vt 0.139140 0.909560
vt 0.133141 0.893249
vt 0.139140 0.896083
vt 0.101982 0.909560
vt 0.107982 0.893249
vt 0.101982 0.896083
vt 0.235132 0.908143
vt 0.073672 0.905579
vt 0.005991 0.894666
vt 0.235132 0.894666
vt 0.005991 0.908143
vt 0.235132 0.908143
vt 0.154209 0.897028
vt 0.235132 0.894666
vt 0.005991 0.908143
vt 0.005991 0.894666
vt 0.113922 0.905383
vt 0.126626 0.905438
vt 0.130907 0.908236
vt 0.110215 0.908236
vt 0.120561 0.894573
vt 0.114809 0.905421
vt 0.126941 0.905553
vt 0.130907 0.908236
vt 0.110215 0.908236
vt 0.120561 0.894573
vt 0.126354 0.897409
vt 0.114286 0.897271
vt 0.110215 0.894573
vt 0.130907 0.894573
vt 0.120561 0.908236
vt 0.126886 0.897339
vt 0.114095 0.897461
vt 0.110215 0.894573
vt 0.130907 0.894573
vt 0.120561 0.908236
vt 0.127296 0.897399
vt 0.114473 0.897317
vt 0.110215 0.894573
vt 0.130907 0.894573
vt 0.120561 0.908236
vt 0.127196 0.898655
vt 0.114107 0.898859
vt 0.110215 0.895901
vt 0.130907 0.895902
vt 0.122060 0.906907
vt 0.118222 0.905696
vt 0.127140 0.898209
vt 0.113878 0.898102
vt 0.110215 0.894983
vt 0.130907 0.894983
vt 0.121141 0.907825
vt 0.118901 0.906269
vt 0.113912 0.904104
vt 0.126526 0.904110
vt 0.130907 0.906927
vt 0.110215 0.906927
vt 0.119039 0.895881
vt 0.122649 0.896697
vt 0.114283 0.905447
vt 0.126839 0.905447
vt 0.130907 0.908236
vt 0.110215 0.908236
vt 0.120561 0.894573
vt 0.126454 0.898820
vt 0.114105 0.898763
vt 0.110215 0.895874
vt 0.130907 0.895874
vt 0.122557 0.906264
vt 0.119031 0.906935
vt 0.127257 0.897309
vt 0.113766 0.897264
vt 0.110215 0.894573
vt 0.130907 0.894573
vt 0.120561 0.908236
vt 0.113875 0.905548
vt 0.126762 0.905417
vt 0.130907 0.908236
vt 0.110215 0.908236
vt 0.120561 0.894573
vt 0.114930 0.904216
vt 0.127441 0.904196
vt 0.130907 0.906837
vt 0.110215 0.906837
vt 0.119143 0.895971
vt 0.123782 0.898568
vt 0.114212 0.904072
vt 0.127298 0.903896
vt 0.130907 0.906969
vt 0.110215 0.906969
vt 0.118992 0.895840
vt 0.122131 0.895840
vt 0.113774 0.905500
vt 0.127107 0.905505
vt 0.130907 0.908236
vt 0.110215 0.908236
vt 0.120561 0.894573
vt 0.235132 0.904404
vt 0.087666 0.904404
vt 0.073672 0.898405
vt 0.235132 0.898405
vt 0.005991 0.904404
vt 0.005991 0.898405
vt 0.235132 0.904404
vt 0.154209 0.904404
vt 0.142195 0.898405
vt 0.235132 0.898405
vt 0.005991 0.904404
vt 0.005991 0.898405
vt 0.235132 0.882825
vt 0.235132 0.919983
vt 0.005991 0.919983
vt 0.005991 0.882825
vn 0.671687 0.397089 0.625425
vn 0.671687 0.397089 0.625425
vn 0.671687 0.397089 0.625425
vn 0.671687 0.397089 0.625425
vn -0.642018 0.366022 0.673678
vn -0.642018 0.366022 0.673678
vn -0.642018 0.366022 0.673678
vn -0.642018 0.366022 0.673678
vn 0.001076 -0.653054 0.757310
vn 0.001076 -0.653054 0.757310
vn 0.001076 -0.653054 0.757310
vn 0.001076 -0.653054 0.757310
vn -0.000000 0.000000 1.000000
vn -0.000000 0.000000 1.000000
vn -0.000000 0.000000 1.000000
vn 0.627255 0.351000 0.695233
vn 0.627255 0.351000 0.695233
vn 0.627255 0.351000 0.695233
vn 0.627255 0.351000 0.695233
vn -0.654175 0.378599 0.654766
vn -0.654175 0.378599 0.654766
vn -0.654175 0.378599 0.654766
vn -0.654175 0.378599 0.654766
vn 0.002661 -0.663031 0.748587
vn 0.002661 -0.663031 0.748587
vn 0.002661 -0.663031 0.748587
vn 0.002661 -0.663031 0.748587
vn -0.000000 0.000000 1.000000
vn -0.000000 0.000000 1.000000
vn -0.000000 0.000000 1.000000
vn -0.629803 -0.353574 0.691616
vn -0.629803 -0.353574 0.691616
vn -0.629803 -0.353574 0.691616
vn -0.629803 -0.353574 0.691616
vn 0.649535 -0.373775 0.662115
vn 0.649535 -0.373775 0.662115
vn 0.649535 -0.373775 0.662115
vn 0.649535 -0.373775 0.662115
vn -0.002775 0.660544 0.750782
vn -0.002775 0.660544 0.750782
vn -0.002775 0.660544 0.750782
vn -0.002775 0.660544 0.750782
vn 0.000000 -0.000000 1.000000
vn 0.000000 -0.000000 1.000000
vn 0.000000 -0.000000 1.000000
vn -0.653818 -0.378226 0.655338
vn -0.653818 -0.378226 0.655338
vn -0.653818 -0.378226 0.655338
vn -0.653818 -0.378226 0.655338
vn 0.664266 -0.389196 0.638183
vn 0.664266 -0.389196 0.638183
vn 0.664266 -0.389196 0.638183
vn 0.664266 -0.389196 0.638183
vn 0.002391 0.652758 0.757563
vn 0.002391 0.652758 0.757563
vn 0.002391 0.652758 0.757563
vn 0.002391 0.652758 0.757563
vn 0.000000 -0.000000 1.000000
vn 0.000000 -0.000000 1.000000
vn 0.000000 -0.000000 1.000000
vn -0.675606 -0.401295 0.618481
vn -0.675606 -0.401295 0.618481
vn -0.675606 -0.401295 0.618481
vn -0.675606 -0.401295 0.618481
vn 0.641675 -0.365670 0.674195
vn 0.641675 -0.365670 0.674195
vn 0.641675 -0.365670 0.674195
vn 0.641675 -0.365670 0.674195
vn -0.001608 0.658381 0.752683
vn -0.001608 0.658381 0.752683
vn -0.001608 0.658381 0.752683
vn -0.001608 0.658381 0.752683
vn 0.000000 -0.000000 1.000000
vn 0.000000 -0.000000 1.000000
vn 0.000000 -0.000000 1.000000
vn 0.003923 0.648963 0.760810
vn 0.003923 0.648963 0.760810
vn 0.003923 0.648963 0.760810
vn 0.003923 0.648963 0.760810
vn 0.098338 -0.311675 0.945086
vn 0.098338 -0.311675 0.945086
vn 0.098338 -0.311675 0.945086
vn -0.001912 0.609029 0.793145
vn -0.001912 0.609029 0.793145
vn -0.001912 0.609029 0.793145
vn -0.001912 0.609029 0.793145
vn 0.167867 -0.241700 0.955721
vn 0.167867 -0.241700 0.955721
vn 0.167867 -0.241700 0.955721
vn 0.000122 -0.653684 0.756768
vn 0.000122 -0.653684 0.756768
vn 0.000122 -0.653684 0.756768
vn 0.000122 -0.653684 0.756768
vn -0.046829 0.207195 0.977178
vn -0.046829 0.207195 0.977178
vn -0.046829 0.207195 0.977178
vn 0.652213 0.376554 0.657895
vn 0.652213 0.376554 0.657895
vn 0.652213 0.376554 0.657895
vn 0.652213 0.376554 0.657895
vn -0.652212 0.376555 0.657895
vn -0.652212 0.376555 0.657895
vn -0.652212 0.376555 0.657895
vn -0.652212 0.376555 0.657895
vn -0.000000 -0.657773 0.753216
vn -0.000000 -0.657773 0.753216
vn -0.000000 -0.657773 0.753216
vn -0.000000 -0.657773 0.753216
vn -0.000000 0.000000 1.000000
vn -0.000000 0.000000 1.000000
vn -0.000000 0.000000 1.000000
vn -0.001105 0.640889 0.767632
vn -0.001105 0.640889 0.767632
vn -0.001105 0.640889 0.767632
vn -0.001105 0.640889 0.767632
vn -0.037170 -0.195435 0.980012
vn -0.037170 -0.195435 0.980012
vn -0.037170 -0.195435 0.980012
vn -0.671100 -0.396462 0.626453
vn -0.671100 -0.396462 0.626453
vn -0.671100 -0.396462 0.626453
vn -0.671100 -0.396462 0.626453
vn 0.674608 -0.400222 0.620264
vn 0.674608 -0.400222 0.620264
vn 0.674608 -0.400222 0.620264
vn 0.674608 -0.400222 0.620264
vn -0.000894 0.667957 0.744200
vn -0.000894 0.667957 0.744200
vn -0.000894 0.667957 0.744200
vn -0.000894 0.667957 0.744200
vn 0.000000 -0.000000 1.000000
vn 0.000000 -0.000000 1.000000
vn 0.000000 -0.000000 1.000000
vn 0.669264 0.394502 0.629645
vn 0.669264 0.394502 0.629645
vn 0.669264 0.394502 0.629645
vn 0.669264 0.394502 0.629645
vn -0.649223 0.373452 0.662603
vn -0.649223 0.373452 0.662603
vn -0.649223 0.373452 0.662603
vn -0.649223 0.373452 0.662603
vn -0.002573 -0.662478 0.749077
vn -0.002573 -0.662478 0.749077
vn -0.002573 -0.662478 0.749077
vn -0.002573 -0.662478 0.749077
vn -0.000000 0.000000 1.000000
vn -0.000000 0.000000 1.000000
vn -0.000000 0.000000 1.000000
vn -0.000412 -0.679380 0.733786
vn -0.000412 -0.679380 0.733786
vn -0.000412 -0.679380 0.733786
vn -0.000412 -0.679380 0.733786
vn -0.163724 0.292457 0.942159
vn -0.163724 0.292457 0.942159
vn -0.163724 0.292457 0.942159
vn -0.003295 -0.632390 0.774643
vn -0.003295 -0.632390 0.774643
vn -0.003295 -0.632390 0.774643
vn -0.003295 -0.632390 0.774643
vn 0.000000 0.104443 0.994531
vn 0.000000 0.104443 0.994531
vn 0.000000 0.104443 0.994531
vn 0.675525 0.401207 0.618627
vn 0.675525 0.401207 0.618627
vn 0.675525 0.401207 0.618627
vn 0.675525 0.401207 0.618627
vn -0.663642 0.388538 0.639232
vn -0.663642 0.388538 0.639232
vn -0.663642 0.388538 0.639232
vn -0.663642 0.388538 0.639232
vn 0.000100 -0.665363 0.746520
vn 0.000100 -0.665363 0.746520
vn 0.000100 -0.665363 0.746520
vn 0.000100 -0.665363 0.746520
vn -0.000000 0.000000 1.000000
vn -0.000000 0.000000 1.000000
vn -0.000000 0.000000 1.000000
vn 0.000000 1.000000 0.000000
vn 0.000000 1.000000 0.000000
vn 0.000000 1.000000 0.000000
vn 0.000000 1.000000 0.000000
vn 0.000000 -1.000000 0.000000
vn 0.000000 -1.000000 0.000000
vn 0.000000 -1.000000 0.000000
vn 0.000000 0.000000 1.000000
vn 0.000000 0.000000 1.000000
vn 0.000000 0.000000 1.000000
vn 0.000000 0.000000 1.000000
vn 0.006875 0.560230 0.828308
vn 0.006875 0.560230 0.828308
vn 0.006875 0.560230 0.828308
vn 0.006875 0.560230 0.828308
vn 1.000000 -0.000004 0.000000
vn 1.000000 -0.000004 0.000000
vn 1.000000 -0.000004 0.000000
vn -1.000000 0.000000 0.000000
vn -1.000000 0.000000 0.000000
vn -1.000000 0.000000 0.000000
vn 0.011218 -0.563832 0.825813
vn 0.011218 -0.563832 0.825813
vn 0.011218 -0.563832 0.825813
vn 0.011218 -0.563832 0.825813
vn 1.000000 0.000004 0.000000
vn 1.000000 0.000004 0.000000
vn 1.000000 0.000004 0.000000
vn -1.000000 0.000000 0.000000
vn -1.000000 0.000000 0.000000
vn -1.000000 0.000000 0.000000
vn 1.000000 0.000000 0.000000
vn 1.000000 0.000000 0.000000
vn 1.000000 0.000000 0.000000
vn 1.000000 0.000000 0.000000
vn 0.000000 0.000000 -1.000000
vn 0.000000 0.000000 -1.000000
vn 0.000000 0.000000 -1.000000
vn 0.000000 0.000000 -1.000000
vn -1.000000 0.000000 0.000000
vn -1.000000 0.000000 0.000000
vn -1.000000 0.000000 0.000000
vn -1.000000 0.000000 0.000000
vn 0.670951 -0.391891 0.629481
vn 0.670951 -0.391891 0.629481
vn 0.670951 -0.391891 0.629481
vn 0.670951 -0.391891 0.629481
vn 0.000000 -0.000000 1.000000
vn 0.000000 -0.000000 1.000000
vn 0.000000 -0.000000 1.000000
vn 0.000000 -0.000000 1.000000
vn -0.663702 -0.392595 0.636686
vn -0.663702 -0.392595 0.636686
vn -0.663702 -0.392595 0.636686
vn -0.663702 -0.392595 0.636686
vn 0.722167 -0.407030 0.559287
vn 0.722167 -0.407030 0.559287
vn 0.722167 -0.407030 0.559287
vn 0.722167 -0.407030 0.559287
vn 0.722167 -0.407030 0.559287
vn 0.000000 -0.000000 1.000000
vn 0.000000 -0.000000 1.000000
vn 0.000000 -0.000000 1.000000
vn 0.000000 -0.000000 1.000000
vn -0.705873 -0.399227 0.585116
vn -0.705873 -0.399227 0.585116
vn -0.705873 -0.399227 0.585116
vn -0.705873 -0.399227 0.585116
vn -0.705873 -0.399227 0.585116
vn -0.675087 0.363964 0.641707
vn -0.675087 0.363964 0.641707
vn -0.675087 0.363964 0.641707
vn -0.675087 0.363964 0.641707
vn -0.675087 0.363964 0.641707
vn -0.000000 0.000000 1.000000
vn -0.000000 0.000000 1.000000
vn -0.000000 0.000000 1.000000
vn -0.000000 0.000000 1.000000
vn 0.692759 0.392012 0.605320
vn 0.692759 0.392012 0.605320
vn 0.692759 0.392012 0.605320
vn 0.692759 0.392012 0.605320
vn 0.692759 0.392012 0.605320
vn 0.690055 -0.384766 0.613009
vn 0.690055 -0.384766 0.613009
vn 0.690055 -0.384766 0.613009
vn 0.690055 -0.384766 0.613009
vn 0.690055 -0.384766 0.613009
vn 0.000000 -0.000000 1.000000
vn 0.000000 -0.000000 1.000000
vn 0.000000 -0.000000 1.000000
vn 0.000000 -0.000000 1.000000
vn -0.677040 -0.363578 0.639865
vn -0.677040 -0.363578 0.639865
vn -0.677040 -0.363578 0.639865
vn -0.677040 -0.363578 0.639865
vn -0.677040 -0.363578 0.639865
vn -0.678107 0.403330 0.614407
vn -0.678107 0.403330 0.614407
vn -0.678107 0.403330 0.614407
vn -0.678107 0.403330 0.614407
vn -0.000000 0.000000 1.000000
vn -0.000000 0.000000 1.000000
vn -0.000000 0.000000 1.000000
vn -0.000000 0.000000 1.000000
vn 0.607569 0.338087 0.718719
vn 0.607569 0.338087 0.718719
vn 0.607569 0.338087 0.718719
vn 0.607569 0.338087 0.718719
vn -0.723430 0.401464 0.561673
vn -0.723430 0.401464 0.561673
vn -0.723430 0.401464 0.561673
vn -0.723430 0.401464 0.561673
vn -0.723430 0.401464 0.561673
vn 0.000000 0.000000 1.000000
vn 0.000000 0.000000 1.000000
vn 0.000000 0.000000 1.000000
vn 0.000000 0.000000 1.000000
vn 0.704417 0.379609 0.599745
vn 0.704417 0.379609 0.599745
vn 0.704417 0.379609 0.599745
vn 0.704417 0.379609 0.599745
vn 0.704417 0.379609 0.599745
vn 0.000000 1.000000 0.000000
vn 0.000000 1.000000 0.000000
vn 0.000000 1.000000 0.000000
vn 0.000000 -1.000000 0.000000
vn 0.000000 -1.000000 0.000000
vn 0.000000 -1.000000 0.000000
vn 0.000000 -1.000000 0.000000
vn 0.000000 0.000000 1.000000
vn 0.000000 0.000000 1.000000
vn 0.000000 0.000000 1.000000
vn 0.000000 0.000000 1.000000
vn -0.014024 0.576721 0.816821
vn -0.014024 0.576721 0.816821
vn -0.014024 0.576721 0.816821
vn -0.014024 0.576721 0.816821
vn -0.006927 -0.551320 0.834265
vn -0.006927 -0.551320 0.834265
vn -0.006927 -0.551320 0.834265
vn -0.006927 -0.551320 0.834265
s off
f 5/1/1 4/104/2 1/103/3 2/2/4
f 6/3/5 5/1/6 2/2/7 3/4/8
f 4/129/9 6/130/10 3/131/11 1/132/12
f 4/129/13 5/133/14 6/130/15
f 11/5/16 10/102/17 7/101/18 8/6/19
f 12/7/20 11/5/21 8/6/22 9/8/23
f 10/134/24 12/135/25 9/136/26 7/137/27
f 10/134/28 11/138/29 12/135/30
f 17/9/31 16/100/32 13/99/33 14/10/34
f 18/11/35 17/9/36 14/10/37 15/12/38
f 16/139/39 18/140/40 15/141/41 13/142/42
f 16/139/43 17/143/44 18/140/45
f 23/13/46 22/98/47 19/97/48 20/14/49
f 24/15/50 23/13/51 20/14/52 21/16/53
f 22/144/54 24/145/55 21/146/56 19/147/57
f 22/144/58 23/148/59 24/145/60
f 29/17/61 28/96/62 25/95/63 26/18/64
f 30/19/65 29/17/66 26/18/67 27/20/68
f 28/149/69 30/150/70 27/151/71 25/152/72
f 28/149/73 29/153/74 30/150/75
f 34/154/76 35/155/77 33/156/78 31/157/79
f 32/21/80 98/64/81 97/49/82
f 39/160/83 40/161/84 38/162/85 36/163/86
f 101/51/87 100/63/88 99/50/89
f 44/166/90 45/167/91 43/168/92 41/169/93
f 104/53/94 103/62/95 102/52/96
f 50/27/97 49/88/98 46/87/99 47/28/100
f 51/29/101 50/27/102 47/28/103 48/30/104
f 49/172/105 51/173/106 48/174/107 46/175/108
f 49/172/109 50/176/110 51/173/111
f 55/177/112 56/178/113 54/179/114 52/180/115
f 107/55/116 106/61/117 105/54/118
f 61/33/119 60/84/120 57/83/121 58/34/122
f 62/35/123 61/33/124 58/34/125 59/36/126
f 60/183/127 62/184/128 59/185/129 57/186/130
f 60/183/131 61/187/132 62/184/133
f 67/37/134 66/82/135 63/81/136 64/38/137
f 68/39/138 67/37/139 64/38/140 65/40/141
f 66/188/142 68/189/143 65/190/144 63/191/145
f 66/188/146 67/192/147 68/189/148
f 72/193/149 73/194/150 71/195/151 69/196/152
f 70/41/153 109/60/154 108/56/155
f 77/199/156 78/200/157 76/201/158 74/202/159
f 112/58/160 111/59/161 110/57/162
f 83/45/163 82/76/164 79/75/165 80/46/166
f 84/47/167 83/45/168 80/46/169 81/48/170
f 82/205/171 84/206/172 81/207/173 79/208/174
f 82/205/175 83/209/176 84/206/177
f 87/119/178 114/120/179 90/121/180 89/122/181
f 91/124/182 113/125/183 85/126/184
f 95/72/185 115/105/186 116/106/187 96/71/188
f 94/210/189 115/211/190 114/212/191 87/213/192
f 95/107/193 90/108/194 88/109/195
f 89/113/196 94/114/197 87/115/198
f 85/216/199 113/217/200 116/218/201 93/219/202
f 86/112/203 92/111/204 96/110/205
f 91/116/206 85/118/207 93/117/208
f 90/108/209 95/107/210 96/110/211 92/111/212
f 91/222/213 89/223/214 90/224/215 92/225/216
f 89/113/217 91/116/218 93/117/219 94/114/220
f 35/70/221 98/64/222 32/21/223 33/22/224
f 34/154/225 97/158/226 98/159/227 35/155/228
f 32/21/229 97/49/230 34/94/231 31/93/232
f 40/69/233 100/63/234 101/51/235 37/23/236 38/24/237
f 39/160/238 99/164/239 100/165/240 40/161/241
f 101/51/242 99/50/243 39/92/244 36/91/245 37/23/246
f 45/68/247 103/62/248 104/53/249 42/25/250 43/26/251
f 44/166/252 102/170/253 103/171/254 45/167/255
f 104/53/256 102/52/257 44/90/258 41/89/259 42/25/260
f 56/67/261 106/61/262 107/55/263 53/31/264 54/32/265
f 55/177/266 105/181/267 106/182/268 56/178/269
f 107/55/270 105/54/271 55/86/272 52/85/273 53/31/274
f 73/66/275 109/60/276 70/41/277 71/42/278
f 72/193/279 108/197/280 109/198/281 73/194/282
f 70/41/283 108/56/284 72/80/285 69/79/286
f 78/65/287 111/59/288 112/58/289 75/43/290 76/44/291
f 77/199/292 110/203/293 111/204/294 78/200/295
f 112/58/296 110/57/297 77/78/298 74/77/299 75/43/300
f 90/121/301 114/120/302 88/123/303
f 113/125/304 91/124/305 92/127/306 86/128/307
f 116/106/308 115/105/309 94/74/310 93/73/311
f 114/212/312 115/211/313 95/214/314 88/215/315
f 116/218/316 113/217/317 86/220/318 96/221/319
