# This file uses centimeters as units for non-parametric coordinates.

v 421.720215 828.719971 99.372070
v 233.070313 627.619629 55.061035
v 435.152832 789.473389 55.061035
v 177.778320 627.619629 99.372070
v 500.000000 961.112610 140.000000
v 378.003418 845.130493 140.000000
v 341.600098 860.672546 122.399902
v 196.109375 700.909790 140.000000
v 177.778320 627.619629 140.000000
v 0.000000 700.909790 140.000000
v 181.491211 737.309814 122.399902
v 233.070313 627.619629 -55.061035
v 421.720215 828.719971 -99.372070
v 435.152832 789.473389 -55.061035
v 341.600098 891.599976 122.399902
v 378.000000 928.000000 140.000000
v 177.778320 627.619629 -99.372070
v 421.720215 828.719971 140.000000
v 371.303833 845.130493 -140.000000
v 500.000000 1000.000000 -140.000000
v 196.109375 700.909790 -140.000000
v 341.600098 860.672546 -122.399902
v 181.491211 737.309814 -122.399902
v 0.000000 891.599976 122.399902
v 0.000000 737.309814 122.399902
v 177.778320 627.619629 -140.000000
v 0.000000 700.909790 -140.000000
v 341.600098 891.599976 -122.399902
v 378.000000 928.000000 -140.000000
v 500.000000 1000.000000 0.000000
v 0.000000 891.599976 -122.399902
v 0.000000 737.309814 -122.399902
v 0.000000 1000.000000 140.000000
v 0.000000 1000.000000 101.122559
v 0.000000 928.000000 140.000000
v 0.000000 952.203735 0.000000
v 0.000000 968.091309 65.148926
v 421.720215 828.719971 -140.000000
v 0.000000 968.091309 -65.148926
v 0.000000 1000.000000 -140.000000
v 0.000000 928.000000 -140.000000
v 0.000000 1000.000000 -101.122559
v 500.000000 895.130493 140.000000
v 450.000000 828.719971 140.000000
v 450.000000 828.719971 99.372070
v 450.000000 828.719971 -99.372070
v 450.000000 828.719971 -140.000000
v 500.000000 895.130493 -121.166840
v 500.000000 895.130493 0.012695
v 0.000000 627.619629 140.000000
v 0.000000 627.619629 -140.000000
v 333.170532 755.721558 140.000000
v 197.485413 643.865723 140.000000
v 224.616516 690.481812 140.000000
v 243.914505 682.140869 118.825668
v 271.484680 704.869141 99.372070
v 372.722046 739.470825 43.625317
v 316.412781 694.371033 -43.625317
v 258.878021 694.476440 -99.372070
v 342.160675 928.000000 140.000000
v 98.110657 928.000000 140.000000
v 263.963898 948.040771 140.000000
v 256.891266 914.286804 133.369415
v 413.752991 1000.000000 -140.000000
v 206.658997 1000.000000 -140.000000
v 250.927322 976.809631 -140.000000
v 337.150055 980.819031 -140.000000
v 327.576904 1000.000000 -123.092438
v 148.850342 936.449829 -140.000000
v 130.613876 891.599976 -122.399902
v 283.246918 820.609741 -122.399902
v 305.975372 783.347290 -140.000000
v 28.533915 700.909790 -140.000000
v 159.359848 700.909790 -140.000000
v 82.045952 685.193420 -140.000000
v 90.112633 713.020691 -134.144135
v 281.194153 725.565430 -140.000000
v 277.020569 709.432800 -118.917435
v 426.525208 1000.000000 140.000000
v 500.000000 1000.000000 112.763809
v 479.146454 867.432617 -140.000000
v 500.000000 935.410889 -140.000000
v 97.251427 705.606995 140.000000
v 94.754753 737.309814 122.399902
v 318.672485 1000.000000 -101.122559
v 297.249634 967.362427 -73.113449
v 267.151794 949.131042 7.358377
v 313.161713 966.296875 57.790550
v 331.025482 1000.000000 109.185905
v 449.792755 1000.000000 103.518410
v 422.387482 967.496216 62.708565
v 434.295746 951.388794 1.951552
v 420.863770 967.861938 -67.654747
v 447.411560 1000.000000 -101.122551
v 460.914978 1000.000000 0.440144
vt 0.127297 0.784910
vt 0.209301 0.853178
vt 0.048897 0.525754
vt 0.007403 0.760655
vt 0.126069 0.896477
vt 0.126069 0.912234
vt 0.096935 0.884536
vt 0.053496 0.641869
vt 0.088241 0.680023
vt 0.050005 0.650562
vt 0.049119 0.832592
vt 0.006663 0.850095
vt 0.006663 0.832592
vt 0.048897 0.598666
vt 0.174465 0.853178
vt 0.007403 0.751332
vt 0.127296 0.751321
vt 0.088241 0.687408
vt 0.096934 0.904326
vt 0.088241 0.680023
vt 0.095335 0.884536
vt 0.053496 0.850095
vt 0.050005 0.650562
vt 0.006663 0.687408
vt 0.006663 0.858787
vt 0.049119 0.832592
vt 0.006663 0.832592
vt 0.006663 0.850095
vt 0.088241 0.687408
vt 0.096934 0.696101
vt 0.126069 0.921521
vt 0.107375 0.880617
vt 0.006663 0.895634
vt 0.006663 0.858787
vt 0.006663 0.921521
vt 0.006663 0.921521
vt 0.006663 0.904326
vt 0.006663 0.910107
vt 0.006663 0.913901
vt 0.006663 0.913901
vt 0.107375 0.880617
vt 0.006663 0.921521
vt 0.006663 0.904326
vt 0.006663 0.921521
vt 0.007403 0.769281
vt 0.114128 0.880617
vt 0.174465 0.801976
vt 0.209301 0.801976
vt 0.114128 0.880617
vt 0.126069 0.896478
vt 0.191879 0.886602
vt 0.191883 0.919777
vt 0.006663 0.696101
vt 0.096934 0.904326
vt 0.006663 0.687408
vt 0.006663 0.650562
vt 0.006663 0.641869
vt 0.006663 0.696101
vt 0.006663 0.895634
vt 0.096934 0.696101
vt 0.006663 0.650562
vt 0.006663 0.641869
vt 0.095335 0.676311
vt 0.053496 0.641869
vt 0.096935 0.676311
vt 0.053496 0.850095
vt 0.028936 0.616346
vt 0.028936 0.525754
vt 0.118467 0.616346
vt 0.098505 0.598666
vt 0.098505 0.525754
vt 0.118467 0.525754
vt 0.010633 0.525754
vt 0.010633 0.616346
vt 0.136769 0.525754
vt 0.136769 0.616346
vt 0.028936 0.616346
vt 0.010633 0.616346
vt 0.118467 0.616346
vt 0.136769 0.616346
vt 0.160447 0.865594
vt 0.223319 0.865594
vt 0.236171 0.865594
vt 0.230213 0.886602
vt 0.147594 0.886602
vt 0.147594 0.865594
vt 0.147595 0.907484
vt 0.236171 0.919777
vt 0.007403 0.784903
vt 0.007403 0.800525
vt 0.007403 0.809151
vt 0.127297 0.818473
vt 0.007403 0.818473
vt 0.007403 0.751332
vt 0.050032 0.761074
vt 0.050032 0.751332
vt 0.050032 0.808731
vt 0.063291 0.798106
vt 0.063291 0.771700
vt 0.007403 0.818473
vt 0.050032 0.818473
vt 0.010633 0.583465
vt 0.086228 0.863185
vt 0.010633 0.533072
vt 0.053825 0.836472
vt 0.060304 0.847604
vt 0.020172 0.550313
vt 0.064913 0.845613
vt 0.028936 0.560553
vt 0.054048 0.576140
vt 0.178083 0.837358
vt 0.093354 0.555824
vt 0.205684 0.823091
vt 0.118467 0.555871
vt 0.088375 0.696100
vt 0.088375 0.904326
vt 0.030093 0.696101
vt 0.030093 0.904326
vt 0.069701 0.909112
vt 0.068012 0.692827
vt 0.068012 0.901052
vt 0.106616 0.818473
vt 0.105472 0.921521
vt 0.056958 0.818473
vt 0.056016 0.921521
vt 0.066587 0.915983
vt 0.087178 0.916940
vt 0.085952 0.814419
vt 0.088247 0.818474
vt 0.067572 0.818475
vt 0.042210 0.697737
vt 0.042210 0.906344
vt 0.037855 0.687408
vt 0.074306 0.670455
vt 0.079734 0.661556
vt 0.079734 0.869782
vt 0.013477 0.850095
vt 0.013477 0.641870
vt 0.044720 0.850095
vt 0.044720 0.641869
vt 0.026257 0.846341
vt 0.028183 0.644762
vt 0.026257 0.638829
vt 0.136769 0.566470
vt 0.073816 0.855983
vt 0.127271 0.562609
vt 0.108522 0.921521
vt 0.109679 0.751327
vt 0.127297 0.757862
vt 0.156211 0.919781
vt 0.121089 0.889862
vt 0.236171 0.877836
vt 0.126069 0.906096
vt 0.236171 0.899345
vt 0.029888 0.851217
vt 0.029888 0.642779
vt 0.029292 0.650562
vt 0.083817 0.809151
vt 0.078680 0.802435
vt 0.071463 0.783138
vt 0.082496 0.771045
vt 0.086779 0.758720
vt 0.115259 0.760085
vt 0.108687 0.769866
vt 0.108588 0.784435
vt 0.108321 0.801126
vt 0.114687 0.809155
vt 0.114971 0.784802
vn 0.490735 -0.639238 0.592076
vn 0.490735 -0.639238 0.592076
vn 0.490735 -0.639238 0.592076
vn 0.490735 -0.639238 0.592076
vn 0.000000 0.000000 1.000000
vn 0.000000 0.000000 1.000000
vn 0.000000 0.000000 1.000000
vn -0.269592 0.344570 0.899217
vn -0.269592 0.344570 0.899217
vn -0.269592 0.344570 0.899217
vn -0.269592 0.344570 0.899217
vn 0.000000 0.000000 1.000000
vn 0.000000 0.000000 1.000000
vn 0.000000 0.000000 1.000000
vn 0.000000 0.000000 1.000000
vn 0.491558 -0.633321 -0.597725
vn 0.491558 -0.633321 -0.597725
vn 0.491558 -0.633321 -0.597725
vn 0.491558 -0.633321 -0.597725
vn -0.435286 -0.000013 0.900292
vn -0.435286 -0.000013 0.900292
vn -0.435286 -0.000013 0.900292
vn -0.435286 -0.000013 0.900292
vn -0.245694 0.313715 -0.917179
vn -0.245694 0.313715 -0.917179
vn -0.245694 0.313715 -0.917179
vn -0.245694 0.313715 -0.917179
vn 0.000000 0.000000 1.000000
vn 0.000000 0.000000 1.000000
vn 0.000000 0.000000 1.000000
vn 0.000000 0.000000 -1.000000
vn 0.000000 0.000000 -1.000000
vn 0.000000 0.000000 -1.000000
vn -0.000000 0.000000 -1.000000
vn -0.000000 0.000000 -1.000000
vn -0.000000 0.000000 -1.000000
vn -0.000000 0.000000 -1.000000
vn 0.000000 0.000000 -1.000000
vn 0.000000 0.000000 -1.000000
vn 0.000000 0.000000 -1.000000
vn 0.000000 0.000000 -1.000000
vn -0.476712 0.028051 -0.878612
vn -0.476712 0.028051 -0.878612
vn -0.476712 0.028051 -0.878612
vn -0.476712 0.028051 -0.878612
vn 0.000000 0.000000 -1.000000
vn 0.000000 0.000000 -1.000000
vn 0.000000 0.000000 -1.000000
vn 0.636098 -0.771609 0.000000
vn 0.636098 -0.771609 0.000000
vn 0.636098 -0.771609 0.000000
vn 0.636097 -0.771609 0.000000
vn 0.636097 -0.771609 0.000000
vn 0.636097 -0.771609 0.000000
vn 0.636097 -0.771609 0.000000
vn 0.000000 0.000000 1.000000
vn 0.000000 0.000000 1.000000
vn 0.000000 0.000000 1.000000
vn 0.000000 0.000000 1.000000
vn 0.000000 0.000000 1.000000
vn 0.000000 0.000000 1.000000
vn 0.000000 0.000000 1.000000
vn 0.000000 0.000000 1.000000
vn 0.000000 0.000000 1.000000
vn 0.000000 0.000000 1.000000
vn 0.000000 0.000000 1.000000
vn 0.625137 -0.780515 0.000000
vn 0.625137 -0.780515 0.000000
vn 0.625137 -0.780515 0.000000
vn 0.625137 -0.780515 0.000000
vn 0.000000 0.000000 -1.000000
vn 0.000000 0.000000 -1.000000
vn 0.000000 0.000000 -1.000000
vn -1.000000 0.000000 0.000000
vn -1.000000 0.000000 0.000000
vn -1.000000 0.000000 0.000000
vn -1.000000 0.000000 0.000000
vn -1.000000 0.000000 0.000000
vn -1.000000 0.000000 0.000000
vn -1.000000 0.000000 0.000000
vn -1.000000 0.000000 0.000000
vn -1.000000 0.000000 0.000000
vn -1.000000 0.000000 0.000000
vn -1.000000 0.000000 0.000000
vn -1.000000 0.000000 0.000000
vn -0.011224 0.458807 0.888465
vn -0.011224 0.458807 0.888465
vn -0.011224 0.458807 0.888465
vn -0.011224 0.458807 0.888465
vn 0.529334 -0.721104 -0.447005
vn 0.529334 -0.721104 -0.447005
vn 0.529334 -0.721104 -0.447005
vn -1.000000 0.000000 0.000000
vn -1.000000 0.000000 0.000000
vn -1.000000 0.000000 0.000000
vn 0.000000 0.000000 -1.000000
vn 0.000000 0.000000 -1.000000
vn 0.000000 0.000000 -1.000000
vn 0.000000 0.000000 -1.000000
vn 0.000000 -0.435302 0.900285
vn 0.000000 -0.435302 0.900285
vn 0.000000 -0.435302 0.900285
vn 0.000000 -0.435302 0.900285
vn 0.000000 -0.435305 0.900283
vn 0.000000 -0.435305 0.900283
vn 0.000000 -0.435305 0.900283
vn 0.000000 -0.435303 0.900284
vn 0.000000 -0.435303 0.900284
vn 0.000000 -0.435303 0.900284
vn 0.000000 -0.435303 0.900284
vn -1.000000 0.000000 0.000000
vn -1.000000 0.000000 0.000000
vn -1.000000 0.000000 0.000000
vn -1.000000 0.000000 0.000000
vn 0.000000 0.000000 1.000000
vn 0.000000 0.000000 1.000000
vn 0.000000 0.000000 1.000000
vn 0.000000 0.000000 1.000000
vn 0.000000 0.000000 1.000000
vn 0.000000 0.000000 1.000000
vn 0.000000 0.000000 1.000000
vn 0.000000 0.000000 1.000000
vn 0.000000 0.000000 1.000000
vn 0.000000 0.000000 1.000000
vn 0.000000 0.000000 1.000000
vn 0.000000 0.435305 -0.900283
vn 0.000000 0.435305 -0.900283
vn 0.000000 0.435305 -0.900283
vn -0.000000 0.435303 -0.900284
vn -0.000000 0.435303 -0.900284
vn -0.000000 0.435303 -0.900284
vn -0.000000 0.435303 -0.900284
vn 0.000000 0.435303 -0.900284
vn 0.000000 0.435303 -0.900284
vn 0.000000 0.435303 -0.900284
vn 0.000000 0.435303 -0.900284
vn 0.000000 1.000000 0.000000
vn 0.000000 1.000000 0.000000
vn 0.000000 1.000000 0.000000
vn -0.006191 0.813711 -0.581237
vn -0.006191 0.813711 -0.581237
vn -0.006191 0.813711 -0.581237
vn -0.006191 0.813711 -0.581237
vn 0.000000 0.000000 -1.000000
vn 0.000000 0.000000 -1.000000
vn 0.000000 0.000000 -1.000000
vn 0.000000 0.000000 -1.000000
vn -0.012497 0.958995 -0.283147
vn -0.012497 0.958995 -0.283147
vn -0.012497 0.958995 -0.283147
vn -0.012497 0.958995 -0.283147
vn -0.009281 0.974474 0.224311
vn -0.009281 0.974474 0.224311
vn -0.009281 0.974474 0.224311
vn -0.009281 0.974474 0.224311
vn -1.000000 0.000000 0.000000
vn -1.000000 0.000000 0.000000
vn -1.000000 0.000000 0.000000
vn -1.000000 0.000000 0.000000
vn -0.016927 0.694865 0.718941
vn -0.016927 0.694865 0.718941
vn -0.016927 0.694865 0.718941
vn -0.016927 0.694865 0.718941
vn 0.012088 -0.399785 -0.916529
vn 0.012088 -0.399785 -0.916529
vn 0.012088 -0.399785 -0.916529
vn 0.012088 -0.399785 -0.916529
vn -1.000000 0.000000 0.000000
vn -1.000000 0.000000 0.000000
vn -1.000000 0.000000 0.000000
vn -1.000000 0.000000 0.000000
vn 0.000000 1.000000 0.000000
vn 0.000000 1.000000 0.000000
vn 0.000000 1.000000 0.000000
vn 0.000000 1.000000 0.000000
vn 0.000000 1.000000 0.000000
vn 0.000000 1.000000 0.000000
vn 0.000000 1.000000 0.000000
vn 0.000000 1.000000 0.000000
vn 0.000000 1.000000 0.000000
vn 0.000000 1.000000 0.000000
vn -0.000000 0.000000 -1.000000
vn -0.000000 0.000000 -1.000000
vn -0.000000 0.000000 -1.000000
vn 0.000000 0.000000 -1.000000
vn 0.000000 0.000000 -1.000000
vn 0.000000 0.000000 -1.000000
vn 0.000000 0.000000 -1.000000
vn -1.000000 0.000000 0.000000
vn -1.000000 0.000000 0.000000
vn -1.000000 0.000000 0.000000
vn -1.000000 0.000000 0.000000
vn 0.000000 0.000000 1.000000
vn 0.000000 0.000000 1.000000
vn 0.000000 0.000000 1.000000
vn 0.000000 0.000000 1.000000
vn 0.000000 -1.000000 0.000000
vn 0.000000 -1.000000 0.000000
vn 0.000000 -1.000000 0.000000
vn 0.000000 -1.000000 0.000000
vn 0.000000 -0.748590 0.663033
vn 0.000000 -0.748590 0.663033
vn 0.000000 -0.748590 0.663033
vn 0.000000 -0.748590 -0.663033
vn 0.000000 -0.748590 -0.663033
vn 0.000000 -0.748590 -0.663033
vn 0.000000 -1.000000 0.000000
vn 0.000000 -1.000000 0.000000
vn 0.000000 -1.000000 0.000000
vn 0.000000 -1.000000 0.000000
vn 0.000000 0.000000 -1.000000
vn 0.000000 0.000000 -1.000000
vn 0.000000 0.000000 -1.000000
vn 0.000000 0.000000 -1.000000
vn 0.000000 0.000000 -1.000000
vn 0.000000 0.000000 -1.000000
vn 0.000000 0.000000 -1.000000
vn 0.000000 0.000000 -1.000000
vn 0.935309 -0.353831 0.000000
vn 0.935309 -0.353831 0.000000
vn 0.935309 -0.353831 0.000000
vn 0.935309 -0.353831 0.000000
vn 0.798890 -0.601478 0.000000
vn 0.798890 -0.601478 0.000000
vn 0.798890 -0.601478 0.000000
vn 0.798890 -0.601478 0.000000
vn 0.798890 -0.601477 0.000000
vn 0.798890 -0.601477 0.000000
vn 0.798890 -0.601477 0.000000
vn 0.798889 -0.601478 0.000000
vn 0.798889 -0.601478 0.000000
vn 0.798889 -0.601478 0.000000
vn 0.798889 -0.601478 0.000000
vn 0.798889 -0.601478 0.000000
vn 0.798889 -0.601478 0.000000
vn 0.798889 -0.601478 0.000000
vn 1.000000 0.000000 0.000000
vn 1.000000 0.000000 0.000000
vn 1.000000 0.000000 0.000000
vn 1.000000 0.000000 0.000000
vn 1.000000 0.000000 0.000000
vn 1.000000 0.000000 0.000000
vn 1.000000 0.000000 0.000000
vn -1.000000 0.000000 0.000000
vn -1.000000 0.000000 0.000000
vn -1.000000 0.000000 0.000000
vn -1.000000 0.000000 0.000000
vn 0.000000 -1.000000 0.000000
vn 0.000000 -1.000000 0.000000
vn 0.000000 -1.000000 0.000000
vn 0.000000 -1.000000 0.000000
vn 0.000000 -1.000000 0.000000
vn 0.000000 -1.000000 0.000000
vn 0.000000 -1.000000 0.000000
vn 0.000000 -1.000000 0.000000
vn 0.000000 -1.000000 0.000000
vn 0.000000 -1.000000 0.000000
vn 0.000000 -1.000000 0.000000
vn 0.000000 -1.000000 0.000000
vn 0.000000 -1.000000 0.000000
vn 0.000000 -1.000000 0.000000
vn 0.400847 -0.666979 0.628061
vn 0.400847 -0.666979 0.628061
vn 0.400847 -0.666979 0.628061
vn 0.615477 -0.358215 0.702047
vn 0.615477 -0.358215 0.702047
vn 0.615477 -0.358215 0.702047
vn 0.636097 -0.771609 0.000000
vn 0.636097 -0.771609 0.000000
vn 0.636097 -0.771609 0.000000
vn 0.636098 -0.771608 -0.000000
vn 0.636098 -0.771608 -0.000000
vn 0.636098 -0.771608 -0.000000
vn 0.636098 -0.771608 -0.000000
vn 0.519562 -0.604652 0.603698
vn 0.519562 -0.604652 0.603698
vn 0.519562 -0.604652 0.603698
vn 0.519562 -0.604652 0.603698
vn 0.625137 -0.780515 0.000000
vn 0.625137 -0.780515 0.000000
vn 0.625137 -0.780515 0.000000
vn 0.625137 -0.780515 0.000000
vn 0.529959 -0.601060 -0.598223
vn 0.529959 -0.601060 -0.598223
vn 0.529959 -0.601060 -0.598223
vn 0.529959 -0.601060 -0.598223
vn 0.636097 -0.771609 0.000000
vn 0.636097 -0.771609 0.000000
vn 0.636097 -0.771609 0.000000
vn -0.046918 -0.183068 0.981980
vn -0.046918 -0.183068 0.981980
vn -0.046918 -0.183068 0.981980
vn 0.023866 -0.197514 0.980010
vn 0.023866 -0.197514 0.980010
vn 0.023866 -0.197514 0.980010
vn -0.152627 0.609544 -0.777921
vn -0.152627 0.609544 -0.777921
vn -0.152627 0.609544 -0.777921
vn 0.133881 0.255566 -0.957477
vn 0.133881 0.255566 -0.957477
vn 0.133881 0.255566 -0.957477
vn -0.030336 0.652384 -0.757281
vn -0.030336 0.652384 -0.757281
vn -0.030336 0.652384 -0.757281
vn 0.000000 0.000000 -1.000000
vn 0.000000 0.000000 -1.000000
vn 0.000000 0.000000 -1.000000
vn 0.000000 0.000000 -1.000000
vn -0.000000 0.000000 -1.000000
vn -0.000000 0.000000 -1.000000
vn -0.000000 0.000000 -1.000000
vn -0.000000 0.000000 -1.000000
vn -0.007550 -0.393241 -0.919405
vn -0.007550 -0.393241 -0.919405
vn -0.007550 -0.393241 -0.919405
vn -0.007550 -0.393241 -0.919405
vn 0.000000 0.000000 -1.000000
vn 0.000000 0.000000 -1.000000
vn 0.000000 0.000000 -1.000000
vn 0.000000 0.000000 -1.000000
vn -0.272779 0.331262 -0.903248
vn -0.272779 0.331262 -0.903248
vn -0.272779 0.331262 -0.903248
vn -0.272779 0.331262 -0.903248
vn 0.055827 0.190083 -0.980180
vn 0.055827 0.190083 -0.980180
vn 0.055827 0.190083 -0.980180
vn -0.044317 0.218011 -0.974940
vn -0.044317 0.218011 -0.974940
vn -0.044317 0.218011 -0.974940
vn 0.634119 -0.669533 -0.386805
vn 0.634119 -0.669533 -0.386805
vn 0.634119 -0.669533 -0.386805
vn 0.000000 0.000000 -1.000000
vn 0.000000 0.000000 -1.000000
vn 0.000000 0.000000 -1.000000
vn 0.000000 0.000000 -1.000000
vn 0.636097 -0.771609 -0.000001
vn 0.636097 -0.771609 -0.000001
vn 0.636097 -0.771609 -0.000001
vn 0.636097 -0.771609 -0.000001
vn 0.636098 -0.771609 -0.000005
vn 0.636098 -0.771609 -0.000005
vn 0.636098 -0.771609 -0.000005
vn 0.000000 0.000000 1.000000
vn 0.000000 0.000000 1.000000
vn 0.000000 0.000000 1.000000
vn 0.000000 0.000000 1.000000
vn 0.290528 0.548931 0.783753
vn 0.290528 0.548931 0.783753
vn 0.290528 0.548931 0.783753
vn 0.809884 -0.248446 -0.531377
vn 0.809884 -0.248446 -0.531377
vn 0.809884 -0.248446 -0.531377
vn 1.000000 0.000000 0.000000
vn 1.000000 0.000000 0.000000
vn 1.000000 0.000000 0.000000
vn 1.000000 0.000000 0.000000
vn 1.000000 0.000000 0.000000
vn 1.000000 0.000000 0.000000
vn 1.000000 0.000000 0.000000
vn 0.000000 0.000000 1.000000
vn 0.000000 0.000000 1.000000
vn 0.000000 0.000000 1.000000
vn 0.011679 0.461445 0.887092
vn 0.011679 0.461445 0.887092
vn 0.011679 0.461445 0.887092
vn 0.011679 0.461445 0.887092
vn 0.000000 0.000000 1.000000
vn 0.000000 0.000000 1.000000
vn 0.000000 0.000000 1.000000
vn 0.000000 0.000000 1.000000
vn 0.000001 0.000000 1.000000
vn 0.000001 0.000000 1.000000
vn 0.000001 0.000000 1.000000
vn 0.000000 1.000000 0.000000
vn 0.000000 1.000000 0.000000
vn 0.000000 1.000000 0.000000
vn 0.010036 0.702282 0.711828
vn 0.010036 0.702282 0.711828
vn 0.010036 0.702282 0.711828
vn 0.010036 0.702282 0.711828
vn 0.006802 0.973296 0.229451
vn 0.006802 0.973296 0.229451
vn 0.006802 0.973296 0.229451
vn 0.006802 0.973296 0.229451
vn 0.008056 0.960574 -0.277909
vn 0.008056 0.960574 -0.277909
vn 0.008056 0.960574 -0.277909
vn 0.008056 0.960574 -0.277909
vn 0.002884 0.799340 -0.600872
vn 0.002884 0.799340 -0.600872
vn 0.002884 0.799340 -0.600872
vn 0.002884 0.799340 -0.600872
vn 0.000000 1.000000 -0.000002
vn 0.000000 1.000000 -0.000002
vn 0.000000 1.000000 -0.000002
vn 0.000000 1.000000 -0.000002
vn 0.000000 1.000000 0.000004
vn 0.000000 1.000000 0.000004
vn 0.000000 1.000000 0.000004
vn 0.000000 1.000000 0.000000
vn 0.000000 1.000000 0.000000
vn 0.000000 1.000000 0.000000
vn 0.000000 1.000000 -0.000002
vn 0.000000 1.000000 -0.000002
vn 0.000000 1.000000 -0.000002
vn 0.000000 1.000000 0.000000
vn 0.000000 1.000000 0.000000
vn 0.000000 1.000000 0.000000
vn -0.783762 0.594246 0.180523
vn -0.783762 0.594246 0.180523
vn -0.783762 0.594246 0.180523
vn -0.783762 0.594246 0.180523
vn -0.780628 0.601743 -0.168894
vn -0.780628 0.601743 -0.168894
vn -0.780628 0.601743 -0.168894
vn -0.780628 0.601743 -0.168894
vn 0.000000 1.000000 0.000000
vn 0.000000 1.000000 0.000000
vn 0.000000 1.000000 0.000000
vn 0.000000 1.000000 0.000000
vn 0.000000 1.000000 0.000000
vn 0.000000 1.000000 0.000000
s off
f 56/109/1 57/110/2 3/14/3 1/67/4
f 43/5/5 5/6/6 6/7/7
f 8/8/8 6/65/9 7/9/10 11/10/11
f 9/11/12 83/155/13 10/12/14 50/13/15
f 13/69/16 14/70/17 58/112/18 59/114/19
f 15/18/20 7/9/21 6/65/22 16/60/23
f 71/134/24 72/135/25 21/64/26 23/23/27
f 24/24/28 25/61/29 84/157/30
f 21/22/31 26/26/32 74/139/33
f 74/139/34 26/26/35 51/27/36 75/141/37
f 73/137/38 75/141/39 51/27/40 27/28/41
f 19/63/42 22/20/43 28/29/44 29/30/45
f 20/31/46 19/21/47 29/54/48
f 55/107/49 56/109/50 52/102/51
f 52/102/52 56/109/53 1/67/54 18/74/55
f 8/66/56 9/11/57 53/105/58 54/106/59
f 6/7/60 8/66/61 54/106/62 52/103/63
f 6/7/64 52/103/65 18/32/66
f 14/2/67 3/15/68 57/111/69 58/113/70
f 31/55/71 23/23/72 32/56/73
f 33/35/74 34/36/75 35/37/76
f 36/38/77 24/59/78 37/39/79
f 31/33/80 24/59/81 36/38/82
f 36/38/83 39/40/84 31/33/85
f 83/156/86 84/157/87 25/61/88 10/62/89
f 38/76/90 78/146/91 77/144/92
f 40/42/93 41/43/94 42/44/95
f 19/21/96 38/41/97 77/145/98 72/136/99
f 15/18/100 16/60/101 60/115/102 63/120/103
f 15/18/104 63/120/105 24/24/106
f 24/24/107 63/120/108 61/117/109 35/58/110
f 32/34/111 27/28/112 10/12/113 25/25/114
f 33/35/115 35/37/116 61/118/117 62/119/118
f 33/35/119 62/119/120 79/147/121
f 79/147/122 62/119/123 60/116/124 16/19/125
f 32/56/126 23/23/127 76/142/128
f 74/140/129 76/142/130 23/23/131 21/64/132
f 32/56/133 76/142/134 73/138/135 27/57/136
f 79/148/137 90/163/138 89/162/139
f 88/161/140 89/162/141 90/163/142 91/164/143
f 31/55/144 70/133/145 71/134/146 23/23/147
f 87/160/148 88/161/149 91/164/150 92/165/151
f 86/159/152 87/160/153 92/165/154 93/166/155
f 31/33/156 32/34/157 25/25/158 24/59/159
f 85/158/160 86/159/161 93/166/162 94/167/163
f 31/55/164 41/53/165 69/131/166 70/133/167
f 35/37/168 34/36/169 37/39/170 24/59/171
f 94/167/172 64/122/173 68/128/174
f 65/124/175 40/93/176 42/91/177 68/128/178
f 94/167/179 68/128/180 85/158/181
f 66/126/182 69/132/183 65/125/184
f 40/42/185 65/125/186 69/132/187 41/43/188
f 39/40/189 42/44/190 41/43/191 31/33/192
f 18/32/193 44/46/194 43/5/195 6/7/196
f 18/74/197 1/67/198 45/77/199 44/78/200
f 1/67/201 3/14/202 45/77/203
f 13/69/204 46/79/205 14/70/206
f 38/76/207 47/80/208 46/79/209 13/69/210
f 38/41/211 19/21/212 81/151/213 47/49/214
f 20/31/215 82/153/216 81/151/217 19/21/218
f 45/81/219 3/15/220 14/2/221 46/82/222
f 49/51/223 46/82/224 47/83/225 81/152/226
f 49/51/227 81/152/228 48/84/229
f 45/81/230 46/82/231 49/51/232
f 45/81/233 49/51/234 43/85/235 44/86/236
f 43/85/237 49/51/238 5/87/239
f 49/51/240 30/52/241 80/150/242 5/87/243
f 50/13/244 10/12/245 27/28/246 51/27/247
f 50/94/248 4/95/249 9/96/250
f 4/95/251 17/97/252 12/98/253 2/99/254
f 51/100/255 26/101/256 17/97/257
f 51/100/258 17/97/259 4/95/260 50/94/261
f 52/103/262 54/106/263 55/108/264
f 55/108/265 54/106/266 53/105/267
f 56/109/268 55/107/269 4/68/270
f 4/68/271 55/107/272 53/104/273 9/73/274
f 2/3/275 57/110/276 56/109/277 4/68/278
f 58/113/279 57/111/280 2/47/281 12/48/282
f 59/114/283 58/112/284 12/71/285 17/72/286
f 26/75/287 59/114/288 17/72/289
f 60/116/290 62/119/291 63/121/292
f 63/121/293 62/119/294 61/118/295
f 67/129/296 68/128/297 64/122/298
f 65/124/299 68/128/300 66/130/301
f 66/130/302 68/128/303 67/129/304
f 29/54/305 69/132/306 66/126/307 67/127/308
f 64/123/309 20/31/310 29/54/311 67/127/312
f 70/133/313 69/131/314 29/30/315 28/29/316
f 71/134/317 70/133/318 28/29/319 22/20/320
f 22/20/321 19/63/322 72/135/323 71/134/324
f 73/138/325 76/142/326 75/143/327
f 75/143/328 76/142/329 74/140/330
f 26/75/331 77/144/332 78/146/333
f 72/136/334 77/145/335 26/26/336 21/22/337
f 59/114/338 78/146/339 38/76/340 13/69/341
f 26/75/342 78/146/343 59/114/344
f 5/6/345 79/147/346 16/19/347 6/7/348
f 80/149/349 79/148/350 5/17/351
f 81/151/352 82/153/353 48/50/354
f 20/88/355 30/52/356 82/154/357
f 30/52/358 49/51/359 48/84/360 82/154/361
f 9/11/362 8/66/363 83/155/364
f 11/10/365 84/157/366 83/156/367 8/8/368
f 15/18/369 24/24/370 84/157/371 11/10/372
f 11/10/373 7/9/374 15/18/375
f 85/158/376 68/128/377 42/91/378
f 39/90/379 86/159/380 85/158/381 42/91/382
f 36/89/383 87/160/384 86/159/385 39/90/386
f 36/89/387 37/45/388 88/161/389 87/160/390
f 37/45/391 34/4/392 89/162/393 88/161/394
f 79/148/395 89/162/396 34/4/397 33/16/398
f 79/148/399 80/149/400 90/163/401
f 30/1/402 90/163/403 80/149/404
f 94/167/405 20/92/406 64/122/407
f 95/168/408 30/1/409 94/167/410
f 92/165/411 95/168/412 94/167/413 93/166/414
f 92/165/415 91/164/416 90/163/417 95/168/418
f 90/163/419 30/1/420 95/168/421
f 30/1/422 20/92/423 94/167/424
