# This file uses centimeters as units for non-parametric coordinates.

v 122.560272 0.000000 123.416138
v 126.718475 16.247238 -46.018433
v 118.393280 26.105686 -50.714722
v 126.616913 22.874035 126.957153
v 126.715546 17.025379 54.783325
v 7.206757 26.106964 84.738403
v -49.152618 24.444725 110.876099
v 105.392303 26.095184 49.480591
v 126.684296 22.772562 58.097778
v 99.333710 24.505598 -29.691284
v 31.613983 25.797899 119.558716
v 118.265350 26.057995 67.055786
v -49.485809 12.811810 125.764282
v -23.637970 21.535172 115.521606
v 116.757538 24.148693 -30.017456
v 126.605194 15.332212 -5.591675
v 95.235077 26.105637 25.896606
v 123.702850 21.107334 -40.672729
v 55.705780 26.105888 -1.009644
v 123.232147 20.778965 45.082153
v 118.096405 22.884863 22.236450
v 79.600311 26.087183 -23.711792
v -0.157501 24.873131 103.469849
v 126.617889 0.117582 121.746704
v 23.293671 22.266439 127.067017
v 96.056366 25.348713 -5.452026
v -46.594940 20.577724 119.900024
v 61.238007 26.105785 14.046997
v 126.623749 22.855236 -49.564331
v -60.635040 26.107492 99.997192
v 121.921600 0.427563 127.138794
v -60.824493 23.676403 123.271118
v -12.284454 25.391542 94.150513
v 119.388397 20.929688 36.426880
v -24.861603 26.116911 -97.534302
v 10.138397 25.359423 112.735474
v 118.118866 26.108791 117.112427
v 65.526093 24.875940 3.863403
v 125.786835 17.903027 22.209106
v 118.716522 25.967712 -114.812378
v 98.343475 23.577948 7.913208
v 93.083710 24.725132 -11.503784
v 126.601288 0.083481 -32.320190
v 113.065155 23.967918 -18.335815
v 116.459686 21.391991 8.080200
v 124.876190 23.014570 -122.736206
v -5.106171 23.864504 -125.367065
v 126.601410 0.000013 -123.269409
v -11.891388 25.905449 -114.926636
v -10.721527 0.000015 -125.367065
v -32.054535 0.000011 -99.954956
v -65.111969 0.067110 110.768188
v -49.541901 0.129639 125.180786
v -49.485809 0.255247 126.273560
v -39.746796 26.112993 -15.342163
v -52.369110 26.109669 54.355103
v -32.416901 26.110373 20.599243
v -47.869537 19.906136 19.497925
v -27.391388 26.116245 -83.565308
v -34.718903 26.114317 -43.104858
v -22.531158 26.114628 -61.731812
v -33.057404 17.108137 -66.812134
v -40.528107 0.017212 -45.940796
v -48.893097 0.034189 7.381470
v -42.981171 8.629433 -22.230591
v -34.106049 0.020966 -22.195190
vt 0.211708 0.829969
vt 0.164118 0.870470
vt 0.147821 0.773612
vt 0.232666 0.569453
vt 0.232628 0.541678
vt 0.232628 0.541672
vt 0.229255 0.765815
vt 0.203342 0.812767
vt 0.178728 0.780563
vt 0.231327 0.573187
vt 0.224473 0.571494
vt 0.232654 0.568178
vt 0.189847 0.764700
vt 0.160613 0.543097
vt 0.182020 0.636919
vt 0.231959 0.637769
vt 0.228725 0.587426
vt 0.220571 0.580570
vt 0.229354 0.581979
vt 0.179262 0.554304
vt 0.169338 0.544394
vt 0.179674 0.546079
vt 0.192931 0.541636
vt 0.179076 0.542137
vt 0.230824 0.541608
vt 0.232630 0.609610
vt 0.229593 0.634720
vt 0.229380 0.842270
vt 0.229468 0.610053
vt 0.229322 0.788619
vt 0.223458 0.796625
vt 0.229363 0.545467
vt 0.165097 0.547867
vt 0.153052 0.768656
vt 0.145382 0.764722
vt 0.232309 0.581989
vt 0.232623 0.592688
vt 0.232622 0.602974
vt 0.227421 0.597592
vt 0.231508 0.606188
vt 0.228840 0.602088
vt 0.218830 0.807369
vt 0.169848 0.776275
vt 0.196128 0.544526
vt 0.187877 0.547151
vt 0.183921 0.550717
vt 0.229851 0.576518
vt 0.221765 0.587491
vt 0.200822 0.819627
vt 0.220697 0.832693
vt 0.217850 0.824407
vt 0.205296 0.817407
vt 0.175373 0.772030
vt 0.180063 0.767809
vt 0.231069 0.543041
vt 0.226953 0.827520
vt 0.219205 0.821650
vt 0.228635 0.832842
vt 0.220886 0.592634
vt 0.209157 0.589049
vt 0.207509 0.585130
vt 0.229419 0.564731
vt 0.232667 0.608245
vt 0.229528 0.871471
vt 0.231845 0.637956
vt 0.179413 0.634764
vt 0.170027 0.871523
vt 0.179507 0.638773
vt 0.159970 0.614623
vt 0.159688 0.580021
vt 0.164809 0.542358
vt 0.164830 0.541937
vt 0.157337 0.830168
vt 0.151587 0.795992
vt 0.157513 0.812231
vt 0.082052 0.508512
vt 0.162966 0.863621
vt 0.159628 0.843781
vt 0.163180 0.852800
vt 0.082227 0.508609
vt 0.159898 0.605753
vt 0.159827 0.596998
vt 0.082058 0.508596
vt 0.163686 0.599987
vt 0.082051 0.508598
vt 0.083051 0.508058
vt 0.083030 0.507903
vt 0.083030 0.507857
vt 0.082272 0.508386
vt 0.082125 0.508469
vt 0.082643 0.508198
vt 0.082803 0.508170
vt 0.082694 0.508297
vt 0.083039 0.507979
vt 0.083033 0.507843
vt 0.082768 0.508070
vt 0.082561 0.508123
vt 0.082491 0.508247
vt 0.082989 0.507929
vt 0.082944 0.508019
vt 0.082879 0.507954
vt 0.082863 0.508009
vt 0.082752 0.508200
vt 0.082884 0.508170
vn 0.000066 1.000000 0.000060
vn 0.000066 1.000000 0.000060
vn 0.000066 1.000000 0.000060
vn 0.000066 1.000000 0.000060
vn 0.999999 -0.000275 0.001389
vn 0.999999 -0.000275 0.001389
vn 0.999999 -0.000275 0.001389
vn -0.000009 1.000000 -0.000024
vn -0.000009 1.000000 -0.000024
vn -0.000009 1.000000 -0.000024
vn 0.232138 0.950372 -0.207138
vn 0.232138 0.950371 -0.207138
vn 0.232138 0.950371 -0.207138
vn -0.003278 0.999932 0.011173
vn -0.003278 0.999932 0.011173
vn -0.003278 0.999932 0.011173
vn 0.120011 0.985755 -0.117830
vn 0.120011 0.985755 -0.117830
vn 0.120011 0.985755 -0.117830
vn -0.007990 0.984808 0.173462
vn -0.007990 0.984808 0.173462
vn -0.007990 0.984808 0.173462
vn -0.011536 -0.048815 0.998741
vn -0.011536 -0.048815 0.998741
vn -0.011536 -0.048815 0.998741
vn 0.423758 0.905739 -0.008148
vn 0.423758 0.905739 -0.008148
vn 0.423758 0.905739 -0.008148
vn -0.000099 1.000000 0.000543
vn -0.000099 1.000000 0.000543
vn -0.000099 1.000000 0.000543
vn 0.367339 0.930087 -0.000150
vn 0.367339 0.930087 -0.000150
vn 0.367339 0.930087 -0.000150
vn 0.999988 0.004878 0.000971
vn 0.999988 0.004878 0.000971
vn 0.999988 0.004878 0.000971
vn 0.004257 0.999990 -0.001002
vn 0.004257 0.999990 -0.001002
vn 0.004257 0.999990 -0.001002
vn 0.356786 0.934186 -0.001027
vn 0.356786 0.934186 -0.001027
vn 0.356786 0.934186 -0.001027
vn 0.272258 0.909969 0.312780
vn 0.272258 0.909969 0.312780
vn 0.272258 0.909969 0.312780
vn 0.000005 1.000000 -0.000013
vn 0.000005 1.000000 -0.000013
vn 0.000005 1.000000 -0.000013
vn 0.045199 0.993534 0.104148
vn 0.045199 0.993534 0.104148
vn 0.045199 0.993534 0.104148
vn 0.537190 0.830080 -0.149646
vn 0.537190 0.830080 -0.149646
vn 0.537190 0.830080 -0.149646
vn 0.999993 0.003101 -0.001915
vn 0.999993 0.003101 -0.001915
vn 0.999993 0.003101 -0.001915
vn 0.651496 0.726902 0.217177
vn 0.651496 0.726902 0.217177
vn 0.651496 0.726902 0.217177
vn 0.317972 0.905074 0.282373
vn 0.317972 0.905074 0.282373
vn 0.317972 0.905074 0.282373
vn 0.946874 0.164518 -0.276339
vn 0.946874 0.164518 -0.276339
vn 0.946874 0.164518 -0.276339
vn 0.002657 0.999996 -0.000701
vn 0.002657 0.999996 -0.000701
vn 0.002657 0.999996 -0.000701
vn 0.031681 0.989528 0.140821
vn 0.031681 0.989528 0.140821
vn 0.031681 0.989528 0.140821
vn 0.009029 0.900978 0.433772
vn 0.009029 0.900978 0.433772
vn 0.009029 0.900978 0.433772
vn -0.127687 0.938834 0.319823
vn -0.127687 0.938834 0.319823
vn -0.127687 0.938834 0.319823
vn -0.067263 0.987512 0.142460
vn -0.067263 0.987512 0.142460
vn -0.067263 0.987512 0.142460
vn 0.253380 0.961240 -0.108701
vn 0.253380 0.961240 -0.108701
vn 0.253380 0.961240 -0.108701
vn 0.899584 0.436526 -0.013886
vn 0.899584 0.436527 -0.013886
vn 0.899584 0.436526 -0.013886
vn 0.349119 0.935929 0.046403
vn 0.349119 0.935929 0.046403
vn 0.349119 0.935929 0.046403
vn 0.118660 0.989605 0.081252
vn 0.118660 0.989605 0.081252
vn 0.118660 0.989605 0.081252
vn 0.591209 0.802221 0.083151
vn 0.591209 0.802221 0.083151
vn 0.591209 0.802221 0.083151
vn 0.029293 0.992252 0.120741
vn 0.029293 0.992252 0.120741
vn 0.029293 0.992252 0.120741
vn -0.118417 0.942629 0.312133
vn -0.118417 0.942629 0.312133
vn -0.118417 0.942629 0.312133
vn 0.138064 0.970223 0.199011
vn 0.138064 0.970223 0.199011
vn 0.138064 0.970223 0.199011
vn 0.548712 0.827124 0.121573
vn 0.548712 0.827124 0.121573
vn 0.548712 0.827124 0.121573
vn 0.051961 0.997195 0.053868
vn 0.051961 0.997195 0.053868
vn 0.051961 0.997195 0.053868
vn 0.068249 0.991287 0.112661
vn 0.068249 0.991287 0.112661
vn 0.068249 0.991287 0.112661
vn 0.301281 0.500654 0.811527
vn 0.301281 0.500654 0.811527
vn 0.301281 0.500654 0.811527
vn -0.078384 0.996315 0.034810
vn -0.078384 0.996315 0.034810
vn -0.078384 0.996315 0.034810
vn -0.106825 0.992042 0.066637
vn -0.106825 0.992042 0.066637
vn -0.106825 0.992042 0.066637
vn 0.029056 -0.999578 0.000218
vn 0.029056 -0.999578 0.000218
vn 0.029056 -0.999578 0.000218
vn 0.002269 0.994616 -0.103601
vn 0.002269 0.994616 -0.103601
vn 0.002269 0.994616 -0.103601
vn 0.020384 0.999779 -0.005063
vn 0.020384 0.999779 -0.005063
vn 0.020384 0.999779 -0.005063
vn 0.023503 0.991579 0.127353
vn 0.023503 0.991579 0.127353
vn 0.023503 0.991579 0.127353
vn 0.048341 0.998358 0.030729
vn 0.048341 0.998358 0.030729
vn 0.048341 0.998358 0.030729
vn -0.029869 0.999109 0.029805
vn -0.029869 0.999109 0.029805
vn -0.029869 0.999109 0.029805
vn 0.022179 0.995149 0.095847
vn 0.022179 0.995149 0.095847
vn 0.022179 0.995149 0.095847
vn 0.051445 0.993820 -0.098358
vn 0.051445 0.993820 -0.098358
vn 0.051445 0.993820 -0.098358
vn 0.120030 0.985756 -0.117807
vn 0.120030 0.985756 -0.117807
vn 0.120030 0.985756 -0.117807
vn 0.212840 0.964898 -0.153854
vn 0.212840 0.964898 -0.153854
vn 0.212840 0.964898 -0.153854
vn 0.085059 0.996227 0.017205
vn 0.085059 0.996228 0.017205
vn 0.085059 0.996228 0.017205
vn 0.000018 1.000000 -0.000039
vn 0.000018 1.000000 -0.000039
vn 0.000018 1.000000 -0.000039
vn 0.131663 0.565691 0.814038
vn 0.131663 0.565691 0.814038
vn 0.131663 0.565691 0.814038
vn 0.261573 0.960047 -0.099445
vn 0.261573 0.960047 -0.099445
vn 0.261573 0.960047 -0.099445
vn 0.248330 0.964153 -0.093492
vn 0.248330 0.964153 -0.093492
vn 0.248330 0.964153 -0.093492
vn 0.542669 0.837353 0.065963
vn 0.542669 0.837353 0.065963
vn 0.542669 0.837353 0.065963
vn 0.000015 1.000000 0.000001
vn 0.000015 1.000000 0.000001
vn 0.000015 1.000000 0.000001
vn 0.151169 0.986947 -0.055537
vn 0.151169 0.986947 -0.055537
vn 0.151169 0.986947 -0.055537
vn 0.138127 0.923922 0.356776
vn 0.138127 0.923922 0.356776
vn 0.138127 0.923922 0.356776
vn 0.440527 0.895022 -0.069797
vn 0.440527 0.895022 -0.069797
vn 0.440527 0.895022 -0.069797
vn -0.040636 0.995750 -0.082643
vn -0.040636 0.995750 -0.082643
vn -0.040636 0.995750 -0.082643
vn 0.999714 0.001520 -0.023873
vn 0.999714 0.001520 -0.023873
vn 0.999714 0.001520 -0.023873
vn 0.081081 -0.988526 0.127447
vn 0.081081 -0.988526 0.127447
vn 0.081081 -0.988526 0.127447
vn -0.044107 0.812773 0.580908
vn -0.044107 0.812773 0.580908
vn -0.044107 0.812773 0.580908
vn -0.005242 0.948666 0.316236
vn -0.005242 0.948666 0.316236
vn -0.005242 0.948666 0.316236
vn 0.001017 0.007879 0.999969
vn 0.001017 0.007879 0.999968
vn 0.001017 0.007879 0.999969
vn 0.999981 -0.006197 -0.000106
vn 0.999981 -0.006197 -0.000106
vn 0.999981 -0.006197 -0.000106
vn 0.999984 -0.004971 0.002690
vn 0.999984 -0.004971 0.002690
vn 0.999984 -0.004971 0.002690
vn 0.856497 0.515960 0.014078
vn 0.856497 0.515960 0.014078
vn 0.856497 0.515960 0.014078
vn 0.736562 0.676365 -0.002776
vn 0.736562 0.676365 -0.002776
vn 0.736562 0.676365 -0.002776
vn -0.006032 0.997972 0.063364
vn -0.006032 0.997972 0.063364
vn -0.006032 0.997972 0.063364
vn 0.000781 0.999997 -0.002149
vn 0.000781 0.999997 -0.002149
vn 0.000781 0.999997 -0.002149
vn 0.919564 0.195948 0.340597
vn 0.919564 0.195948 0.340597
vn 0.919564 0.195948 0.340597
vn 0.157410 0.980128 0.120712
vn 0.157410 0.980128 0.120712
vn 0.157410 0.980128 0.120712
vn 0.045762 0.990288 -0.131282
vn 0.045762 0.990288 -0.131282
vn 0.045762 0.990288 -0.131282
vn 0.363651 0.931535 0.000119
vn 0.363651 0.931535 0.000119
vn 0.363651 0.931535 0.000119
vn 0.157827 0.982069 0.103107
vn 0.157827 0.982069 0.103107
vn 0.157827 0.982069 0.103107
vn 0.741298 -0.149769 0.654252
vn 0.741298 -0.149769 0.654252
vn 0.741298 -0.149769 0.654252
vn 0.997023 0.075140 -0.017314
vn 0.997023 0.075140 -0.017314
vn 0.997023 0.075140 -0.017314
vn 0.999974 -0.007243 0.000008
vn 0.999974 -0.007243 0.000008
vn 0.999974 -0.007243 0.000008
vn 0.055942 -0.998434 0.000916
vn 0.055942 -0.998434 0.000916
vn 0.055942 -0.998434 0.000916
vn 0.020391 0.024685 -0.999487
vn 0.020391 0.024685 -0.999487
vn 0.020391 0.024685 -0.999487
vn 0.000497 1.000000 -0.000301
vn 0.000497 1.000000 -0.000301
vn 0.000497 1.000000 -0.000301
vn -0.000466 0.999922 -0.012505
vn -0.000466 0.999922 -0.012505
vn -0.000466 0.999922 -0.012505
vn 0.005645 0.965940 -0.258705
vn 0.005645 0.965940 -0.258705
vn 0.005645 0.965940 -0.258705
vn 0.005645 0.965940 -0.258705
vn 0.015273 -0.003594 -0.999877
vn 0.015273 -0.003594 -0.999877
vn 0.015273 -0.003594 -0.999877
vn 0.000000 -1.000000 -0.000000
vn 0.000000 -1.000000 -0.000000
vn 0.000000 -1.000000 -0.000000
vn 0.000000 -1.000000 -0.000000
vn -0.000375 -1.000000 0.000260
vn -0.000375 -1.000000 0.000260
vn -0.000375 -1.000000 0.000260
vn -0.000375 -1.000000 0.000260
vn -0.000701 -0.999987 0.005096
vn -0.000701 -0.999987 0.005096
vn -0.000701 -0.999987 0.005096
vn 0.000422 -0.993461 0.114175
vn 0.000422 -0.993461 0.114175
vn 0.000422 -0.993461 0.114175
vn 0.000422 -0.993461 0.114175
vn -0.005084 0.040525 0.999166
vn -0.005084 0.040525 0.999166
vn -0.005084 0.040525 0.999166
vn -0.703872 -0.029540 0.709713
vn -0.703872 -0.029540 0.709713
vn -0.703872 -0.029540 0.709713
vn -0.703872 -0.029540 0.709713
vn -0.771201 0.266004 -0.578352
vn -0.771201 0.266004 -0.578352
vn -0.771201 0.266004 -0.578352
vn -0.984784 0.173486 0.010105
vn -0.984784 0.173486 0.010105
vn -0.984784 0.173486 0.010105
vn -0.977629 0.143895 -0.153412
vn -0.977629 0.143895 -0.153412
vn -0.977629 0.143895 -0.153412
vn -0.977629 0.143895 -0.153412
vn -0.747294 0.219084 -0.627339
vn -0.747294 0.219084 -0.627339
vn -0.747294 0.219084 -0.627339
vn -0.805917 0.189634 -0.560835
vn -0.805917 0.189634 -0.560835
vn -0.805917 0.189634 -0.560835
vn -0.496367 -0.334166 0.801219
vn -0.496367 -0.334166 0.801219
vn -0.496367 -0.334166 0.801219
vn -0.376199 0.923352 0.076789
vn -0.376199 0.923352 0.076789
vn -0.376199 0.923351 0.076789
vn -0.351662 0.912763 -0.207839
vn -0.351662 0.912763 -0.207839
vn -0.351662 0.912763 -0.207839
vn -0.683952 0.713452 0.152304
vn -0.683952 0.713452 0.152304
vn -0.683952 0.713452 0.152304
vn -0.513468 0.789612 -0.335952
vn -0.513468 0.789612 -0.335952
vn -0.513468 0.789612 -0.335952
vn 0.000065 1.000000 0.000060
vn 0.000065 1.000000 0.000060
vn 0.000065 1.000000 0.000060
vn 0.000065 1.000000 0.000060
vn 0.000065 1.000000 0.000059
vn 0.000065 1.000000 0.000059
vn 0.000065 1.000000 0.000059
vn 0.000065 1.000000 0.000059
vn 0.000065 1.000000 0.000059
vn -0.978745 0.122290 -0.164629
vn -0.978745 0.122290 -0.164629
vn -0.978745 0.122290 -0.164629
vn -0.978745 0.122290 -0.164629
vn -0.945683 0.276327 -0.171252
vn -0.945683 0.276327 -0.171252
vn -0.945683 0.276327 -0.171252
vn -0.945683 0.276327 -0.171252
vn -0.945683 0.276327 -0.171253
vn -0.945683 0.276327 -0.171253
vn -0.945683 0.276327 -0.171253
vn -0.945683 0.276327 -0.171253
vn -0.657007 -0.678708 -0.328172
vn -0.657007 -0.678708 -0.328172
vn -0.657007 -0.678708 -0.328172
vn -0.961196 0.224675 -0.160072
vn -0.961196 0.224675 -0.160072
vn -0.961196 0.224675 -0.160072
vn -0.961196 0.224675 -0.160072
vn -0.684570 -0.705014 0.185255
vn -0.684570 -0.705014 0.185255
vn -0.684570 -0.705014 0.185255
vn -0.000375 -1.000000 0.000260
vn -0.000375 -1.000000 0.000260
vn -0.000375 -1.000000 0.000260
vn -0.000375 -1.000000 0.000260
vn -0.960247 0.219926 -0.171923
vn -0.960247 0.219926 -0.171923
vn -0.960247 0.219926 -0.171923
s off
f 19/49/1 35/2/2 59/77/3 61/79/4
f 5/4/5 4/5/6 24/6/7
f 37/7/8 28/8/9 6/9/10
f 20/10/11 8/11/12 9/12/13
f 6/9/14 11/13/15 37/7/16
f 45/17/17 17/18/18 21/19/19
f 33/20/20 27/21/21 14/22/22
f 25/23/23 13/24/24 31/25/25
f 29/26/26 46/16/27 40/27/28
f 3/28/29 35/2/30 22/1/31
f 40/27/32 3/29/33 29/26/34
f 9/12/35 4/5/36 5/4/37
f 12/30/38 8/31/39 37/7/40
f 4/5/41 9/12/42 37/32/43
f 27/21/44 7/33/45 32/14/46
f 30/3/47 6/9/48 28/8/49
f 7/34/50 30/3/51 32/35/52
f 21/19/53 39/36/54 45/17/55
f 16/37/56 5/4/57 43/38/58
f 44/39/59 18/40/60 15/41/61
f 18/40/62 29/26/63 3/29/64
f 20/10/65 9/12/66 5/4/67
f 8/31/68 17/42/69 37/7/70
f 30/3/71 33/43/72 6/9/73
f 11/44/74 25/23/75 37/32/76
f 13/24/77 25/23/78 36/45/79
f 23/46/80 33/20/81 14/22/82
f 34/47/83 17/18/84 8/11/85
f 39/36/86 5/4/87 16/37/88
f 18/40/89 44/39/90 45/17/91
f 44/39/92 41/48/93 45/17/94
f 18/40/95 45/17/96 16/37/97
f 33/43/98 30/3/99 7/34/100
f 36/45/101 25/23/102 11/44/103
f 3/28/104 22/1/105 10/50/106
f 18/40/107 3/29/108 15/41/109
f 42/51/110 22/1/111 19/49/112
f 42/51/113 19/49/114 38/52/115
f 27/21/116 32/14/117 13/24/118
f 6/9/119 23/53/120 36/54/121
f 36/45/122 23/46/123 14/22/124
f 1/55/125 43/38/126 24/6/127
f 44/56/128 42/51/129 26/57/130
f 15/58/131 10/50/132 42/51/133
f 26/59/134 38/60/135 41/48/136
f 15/58/137 42/51/138 44/56/139
f 11/13/140 6/9/141 36/54/142
f 3/28/143 10/50/144 15/58/145
f 38/60/146 28/61/147 41/48/148
f 45/17/149 41/48/150 17/18/151
f 9/12/152 8/11/153 12/62/154
f 10/50/155 22/1/156 42/51/157
f 17/42/158 28/8/159 37/7/160
f 27/21/161 13/24/162 14/22/163
f 20/10/164 34/47/165 8/11/166
f 34/47/167 20/10/168 39/36/169
f 21/19/170 34/47/171 39/36/172
f 19/49/173 30/3/174 28/8/175
f 38/52/176 19/49/177 28/8/178
f 7/33/179 27/21/180 33/20/181
f 39/36/182 16/37/183 45/17/184
f 42/51/185 38/52/186 26/57/187
f 46/16/188 29/26/189 2/63/190
f 1/55/191 24/6/192 31/25/193
f 36/45/194 14/22/195 13/24/196
f 25/23/197 4/5/198 37/32/199
f 4/5/200 25/23/201 31/25/202
f 5/4/203 24/6/204 43/38/205
f 2/63/206 16/37/207 43/38/208
f 18/40/209 16/37/210 2/63/211
f 20/10/212 5/4/213 39/36/214
f 6/9/215 33/43/216 23/53/217
f 35/2/218 3/28/219 40/64/220
f 29/26/221 18/40/222 2/63/223
f 21/19/224 17/18/225 34/47/226
f 41/48/227 28/61/228 17/18/229
f 9/12/230 12/62/231 37/32/232
f 44/39/233 26/59/234 41/48/235
f 4/5/236 31/25/237 24/6/238
f 46/16/239 2/63/240 48/65/241
f 2/63/242 43/38/243 48/65/244
f 1/55/245 48/65/246 43/38/247
f 48/65/248 47/15/249 46/16/250
f 22/1/251 35/2/252 19/49/253
f 40/64/254 49/67/255 35/2/256
f 46/16/257 47/15/258 49/66/259 40/27/260
f 50/68/261 47/15/262 48/65/263
f 51/69/264 50/68/265 48/65/266 1/55/267
f 1/55/268 52/70/269 64/82/270 66/84/271
f 53/71/272 52/70/273 1/55/274
f 1/55/275 31/25/276 54/72/277 53/71/278
f 13/24/279 54/72/280 31/25/281
f 13/76/282 52/80/283 53/83/284 54/85/285
f 51/86/286 35/87/287 49/88/288
f 30/89/289 52/80/290 32/90/291
f 52/80/292 58/91/293 65/92/294 64/93/295
f 51/86/296 49/88/297 50/94/298
f 50/94/299 49/88/300 47/95/301
f 32/90/302 52/80/303 13/76/304
f 55/96/305 58/91/306 57/97/307
f 57/97/308 58/91/309 56/98/310
f 59/99/311 62/100/312 61/101/313
f 61/101/314 62/100/315 60/102/316
f 19/49/317 57/75/318 56/74/319 30/3/320
f 19/49/321 61/79/322 60/78/323 55/73/324 57/75/325
f 30/89/326 56/98/327 58/91/328 52/80/329
f 62/100/330 58/91/331 55/96/332 60/102/333
f 51/86/334 62/100/335 59/99/336 35/87/337
f 65/92/338 66/103/339 64/93/340
f 65/92/341 62/100/342 51/86/343 63/104/344
f 63/104/345 66/103/346 65/92/347
f 1/55/348 66/84/349 63/81/350 51/69/351
f 65/92/352 58/91/353 62/100/354
