# This file uses centimeters as units for non-parametric coordinates.

v 0.000033 0.000000 31.195284
v 500.000061 0.000000 31.195307
v 0.000032 500.000000 31.195307
v 500.000061 500.000000 31.195307
v 125.012604 0.000000 31.195284
v 374.987488 0.000000 31.195307
v 250.000061 500.000000 31.195307
v 125.012604 350.000000 31.195307
v 250.000061 450.000000 31.195307
v 374.987488 350.000000 31.195307
v 352.687531 0.000000 18.528076
v 147.312531 0.000000 18.528053
v 250.000031 421.440948 18.528076
v 147.312531 339.282745 18.528076
v 352.687531 339.282745 18.528076
v 0.000033 0.000000 -31.195330
v 500.000061 0.000000 -31.195307
v 0.000032 500.000000 -31.195307
v 500.000061 500.000000 -31.195307
v 125.012604 0.000000 -31.195330
v 374.987488 0.000000 -31.195307
v 250.000061 500.000000 -31.195307
v 125.012604 350.000000 -31.195307
v 250.000061 450.000000 -31.195307
v 374.987488 350.000000 -31.195307
v 352.687531 0.000000 -18.528076
v 147.312531 0.000000 -18.528099
v 250.000031 421.440948 -18.528076
v 147.312531 339.282745 -18.528076
v 352.687531 339.282745 -18.528076
v 284.447235 422.439514 31.195307
v 286.458008 420.830719 31.195309
v 354.046356 366.754608 31.195307
v 313.460571 383.372894 24.163519
v 327.661011 403.786072 31.195309
v 352.687531 103.916878 -18.528076
v 352.687531 231.706711 -18.528076
v 352.687531 155.988266 -5.092570
v 363.108398 157.449478 -24.447533
v 125.012604 47.683296 31.195288
v 125.012604 172.548950 31.195295
v 134.617050 103.015625 25.739611
v 112.498154 100.773827 31.195290
v 219.972672 397.416656 -18.528076
v 176.495575 362.631500 -1.383327
v 173.755005 369.238800 -22.431267
vt 0.084687 0.984381
vt 0.084687 0.770629
vt 0.111360 0.770629
vt 0.111360 0.984381
vt 0.152152 0.984861
vt 0.125480 0.984861
vt 0.125480 0.771109
vt 0.152152 0.771109
vt 0.105467 0.771109
vt 0.121309 0.771109
vt 0.121309 0.916154
vt 0.105467 0.916154
vt 0.105467 0.951277
vt 0.113979 0.926136
vt 0.121309 0.941006
vt 0.121309 0.951277
vt 0.122977 0.928960
vt 0.102964 0.916154
vt 0.087123 0.916154
vt 0.087123 0.870165
vt 0.092866 0.837795
vt 0.087123 0.815534
vt 0.087123 0.771109
vt 0.102964 0.771109
vt 0.102964 0.951277
vt 0.087123 0.951277
vt 0.084592 0.838419
vt 0.114099 0.770629
vt 0.140771 0.770629
vt 0.140771 0.877505
vt 0.114099 0.877505
vt 0.140771 0.984381
vt 0.114099 0.984381
vt 0.076674 0.771109
vt 0.082090 0.780642
vt 0.055417 0.780642
vt 0.060832 0.771109
vt 0.082090 0.834086
vt 0.055417 0.834086
vt 0.052915 0.771109
vt 0.052915 0.824552
vt 0.026243 0.824552
vt 0.026243 0.771109
vt 0.047500 0.834086
vt 0.031658 0.834086
vt 0.065428 0.911464
vt 0.118861 0.954215
vt 0.118861 0.975590
vt 0.011985 0.975590
vt 0.074962 0.906882
vt 0.118861 0.942006
vt 0.133587 0.942433
vt 0.134447 0.941744
vt 0.152062 0.934458
vt 0.163342 0.918627
vt 0.172294 0.911464
vt 0.225737 0.975590
vt 0.011985 0.761837
vt 0.065428 0.761837
vt 0.065428 0.782222
vt 0.060078 0.804919
vt 0.065428 0.835603
vt 0.069534 0.805877
vt 0.074962 0.761837
vt 0.145991 0.925731
vt 0.162761 0.906882
vt 0.172294 0.761837
vt 0.225737 0.761837
vt 0.162761 0.761837
vt 0.068413 0.827420
vt 0.014969 0.763294
vt 0.121845 0.763294
vt 0.121845 0.784669
vt 0.014969 0.977047
vt 0.068413 0.977047
vt 0.228722 0.763294
vt 0.175278 0.827420
vt 0.121845 0.796879
vt 0.109009 0.807149
vt 0.089250 0.819195
vt 0.077946 0.832002
vt 0.077946 0.977047
vt 0.228722 0.977047
vt 0.175278 0.977047
vt 0.165745 0.832002
vt 0.165745 0.977047
vt 0.165745 0.932622
vt 0.170200 0.909736
vt 0.165745 0.877991
vn 0.000000 0.000000 1.000000
vn 0.000000 0.000000 1.000000
vn 0.000000 0.000000 1.000000
vn 0.000000 0.000000 1.000000
vn 0.000000 0.000000 1.000000
vn 0.000000 0.000000 1.000000
vn 0.000000 -0.000000 1.000000
vn 0.000000 0.000000 1.000000
vn -0.000000 0.000000 1.000000
vn 0.000000 -0.000000 1.000000
vn -0.000000 0.000000 1.000000
vn -0.000000 0.000000 1.000000
vn 0.000000 -0.000000 1.000000
vn -0.000000 0.000000 1.000000
vn 0.000000 -0.000000 1.000000
vn 0.000000 -0.000000 1.000000
vn 0.000000 -0.000000 1.000000
vn 0.000000 -0.000000 1.000000
vn 0.000000 -0.000000 1.000000
vn 0.000000 -0.000000 1.000000
vn 0.000000 0.000000 1.000000
vn 0.000000 -0.000000 1.000000
vn -0.000000 -0.000000 1.000000
vn -0.000000 -0.000000 1.000000
vn -0.000000 -0.000000 1.000000
vn -0.000000 -0.000000 1.000000
vn -0.000000 -0.000000 1.000000
vn 0.000000 -0.000000 1.000000
vn 0.000000 -0.000000 1.000000
vn -0.000000 -0.000000 1.000000
vn -0.000000 -0.000000 1.000000
vn -0.000000 -0.000000 1.000000
vn -0.000000 -0.000000 1.000000
vn -0.000000 -0.000000 1.000000
vn -0.000000 -0.000000 1.000000
vn 0.000000 -0.000000 1.000000
vn -0.000000 -0.000000 1.000000
vn 0.000000 0.000000 1.000000
vn 0.000000 0.000000 1.000000
vn 0.000000 0.000000 1.000000
vn 0.000000 0.000000 1.000000
vn 1.000000 0.000000 0.000000
vn 1.000000 0.000000 0.000000
vn 1.000000 0.000000 0.000000
vn 1.000000 0.000000 0.000000
vn 0.308565 -0.385667 0.869510
vn 0.308565 -0.385667 0.869510
vn 0.308565 -0.385667 0.869510
vn 0.308565 -0.385667 0.869510
vn 0.493916 -0.000000 0.869510
vn 0.493915 -0.000000 0.869510
vn 0.493916 -0.000000 0.869510
vn 0.493915 -0.000000 0.869510
vn 0.493916 -0.000000 0.869510
vn 0.493916 -0.000000 0.869510
vn 0.493916 -0.000000 0.869510
vn 0.493916 -0.000000 0.869510
vn 0.493916 -0.000000 0.869509
vn 0.493916 -0.000000 0.869510
vn 0.493916 -0.000000 0.869510
vn 0.493916 -0.000000 0.869509
vn 0.493915 -0.000000 0.869510
vn 0.493916 -0.000000 0.869509
vn 0.493916 -0.000000 0.869510
vn -0.493915 0.000000 0.869510
vn -0.493915 0.000000 0.869510
vn -0.493915 0.000000 0.869510
vn -0.493915 0.000000 0.869510
vn -0.112775 -0.261262 0.958658
vn -0.112775 -0.261262 0.958658
vn -0.112775 -0.261262 0.958658
vn -0.112775 -0.261262 0.958658
vn 0.624733 -0.780838 0.000000
vn 0.624733 -0.780838 0.000000
vn 0.624733 -0.780838 0.000000
vn 0.624733 -0.780838 0.000000
vn 0.624733 -0.780838 0.000000
vn 0.624733 -0.780838 0.000000
vn 0.624733 -0.780838 0.000000
vn 0.624733 -0.780838 0.000000
vn 0.624733 -0.780838 0.000000
vn 0.624733 -0.780838 0.000000
vn 0.624733 -0.780838 0.000000
vn 0.624734 -0.780838 0.000000
vn -0.624733 -0.780838 0.000000
vn -0.624733 -0.780838 0.000000
vn -0.624733 -0.780838 0.000000
vn -0.624733 -0.780838 0.000000
vn 0.000000 1.000000 0.000000
vn 0.000000 1.000000 0.000000
vn 0.000000 1.000000 0.000000
vn 0.000000 1.000000 0.000000
vn 0.000000 1.000000 0.000000
vn 0.000000 1.000000 0.000000
vn 0.000000 1.000000 0.000000
vn 0.000000 1.000000 0.000000
vn -0.000000 0.000000 -1.000000
vn -0.000000 0.000000 -1.000000
vn -0.000000 0.000000 -1.000000
vn -0.000000 0.000000 -1.000000
vn 0.000000 0.000000 -1.000000
vn 0.000000 0.000000 -1.000000
vn 0.000000 0.000000 -1.000000
vn 0.000000 0.000000 -1.000000
vn 0.000000 0.000000 -1.000000
vn 0.000000 0.000000 -1.000000
vn 0.000000 0.000000 -1.000000
vn 0.000000 0.000000 -1.000000
vn 0.000000 0.000000 -1.000000
vn 0.000000 0.000000 -1.000000
vn 0.000000 0.000000 -1.000000
vn 0.000000 0.000000 -1.000000
vn -1.000000 -0.000000 0.000000
vn -1.000000 -0.000000 0.000000
vn -1.000000 -0.000000 0.000000
vn -1.000000 -0.000000 0.000000
vn 0.308564 -0.385667 -0.869511
vn 0.308564 -0.385667 -0.869511
vn 0.308565 -0.385667 -0.869511
vn 0.308564 -0.385667 -0.869511
vn 0.308566 -0.385669 -0.869509
vn 0.308565 -0.385667 -0.869511
vn 0.308566 -0.385669 -0.869509
vn 0.308566 -0.385669 -0.869509
vn 0.308565 -0.385667 -0.869511
vn 0.308566 -0.385669 -0.869509
vn 0.308565 -0.385668 -0.869510
vn 0.308565 -0.385667 -0.869511
vn 0.493916 0.000000 -0.869510
vn 0.493916 0.000000 -0.869510
vn 0.493916 0.000000 -0.869510
vn 0.493916 0.000000 -0.869510
vn -0.493915 0.000000 -0.869510
vn -0.493915 -0.000000 -0.869510
vn -0.493915 0.000000 -0.869510
vn -0.493915 0.000000 -0.869510
vn -0.493915 -0.000000 -0.869510
vn -0.493915 -0.000000 -0.869510
vn -0.493915 -0.000000 -0.869510
vn -0.493913 0.000001 -0.869511
vn -0.493915 -0.000000 -0.869510
vn -0.493915 -0.000000 -0.869510
vn -0.493913 0.000001 -0.869511
vn -0.493915 0.000000 -0.869510
vn -0.493913 0.000001 -0.869511
vn -0.493916 0.000000 -0.869510
vn -0.493915 0.000000 -0.869510
vn -0.308565 -0.385668 -0.869510
vn -0.308565 -0.385668 -0.869510
vn -0.308565 -0.385668 -0.869510
vn -0.308565 -0.385668 -0.869510
vn 1.000000 -0.000000 0.000000
vn 1.000000 -0.000000 0.000000
vn 1.000000 -0.000000 0.000000
vn 1.000000 -0.000000 0.000000
vn -1.000000 0.000000 0.000000
vn -1.000000 0.000000 0.000000
vn -1.000000 -0.000000 0.000000
vn -1.000000 0.000000 0.000000
vn -1.000000 -0.000000 0.000000
vn -1.000000 -0.000000 0.000000
vn -1.000000 -0.000000 0.000000
vn -1.000000 -0.000000 0.000000
vn -1.000000 -0.000000 0.000000
vn -1.000000 -0.000000 0.000000
vn -1.000000 0.000000 0.000000
vn -1.000000 -0.000000 0.000000
vn -1.000000 0.000000 0.000000
vn -1.000000 0.000000 0.000000
vn -1.000000 -0.000000 0.000000
vn -0.000000 -1.000000 -0.000000
vn -0.000000 -1.000000 -0.000000
vn -0.000000 -1.000000 -0.000000
vn -0.000000 -1.000000 -0.000000
vn 0.000000 -1.000000 -0.000000
vn 0.000000 -1.000000 -0.000000
vn 0.000000 -1.000000 -0.000000
vn 0.000000 -1.000000 -0.000000
vn -0.000000 -1.000000 -0.000000
vn -0.000000 -1.000000 -0.000000
vn -0.000000 -1.000000 -0.000000
vn -0.000000 -1.000000 -0.000000
vn 0.000000 -1.000000 -0.000000
vn 0.000000 -1.000000 -0.000000
vn 0.000000 -1.000000 -0.000000
vn 0.000000 -1.000000 -0.000000
vn -0.308564 -0.385667 0.869511
vn -0.308564 -0.385667 0.869511
vn -0.308564 -0.385667 0.869511
vn -0.308564 -0.385667 0.869511
vn -0.308565 -0.385668 0.869510
vn -0.308565 -0.385667 0.869511
vn -0.308565 -0.385668 0.869510
vn -0.308564 -0.385667 0.869511
vn -0.308565 -0.385667 0.869511
vn -0.308565 -0.385667 0.869511
vn -0.308564 -0.385667 0.869511
vn -0.308564 -0.385667 0.869511
vn -0.308564 -0.385667 0.869511
vn -0.308564 -0.385667 0.869511
vn -0.308564 -0.385667 0.869511
vn -0.234286 -0.166931 0.957729
vn -0.234286 -0.166931 0.957729
vn -0.234286 -0.166931 0.957729
vn -0.874644 -0.084694 -0.477310
vn -0.874644 -0.084694 -0.477310
vn -0.874644 -0.084694 -0.477310
vn -0.877910 0.119629 -0.463642
vn -0.877910 0.119629 -0.463642
vn -0.877909 0.119629 -0.463642
vn 0.243311 -0.042423 0.969020
vn 0.243311 -0.042423 0.969020
vn 0.243311 -0.042423 0.969020
vn 0.233841 0.055121 0.970711
vn 0.233841 0.055121 0.970711
vn 0.233841 0.055121 0.970711
vn 0.513063 -0.797597 -0.317183
vn 0.513063 -0.797597 -0.317183
vn 0.513063 -0.797597 -0.317183
vn 0.696687 -0.653522 -0.295865
vn 0.696687 -0.653522 -0.295865
vn 0.696687 -0.653522 -0.295865
s off
f 8/46/1 9/47/2 7/48/3 3/49/4
f 7/48/5 9/47/6 4/57/7
f 9/47/8 31/52/9 4/57/10
f 31/52/11 32/53/12 4/57/13
f 32/53/14 35/54/15 4/57/16
f 35/54/17 33/55/18 4/57/19
f 33/55/20 10/56/21 4/57/22
f 3/49/23 1/58/24 8/46/25
f 8/46/26 1/58/27 41/62/28
f 41/62/29 1/58/30 43/61/31
f 43/61/32 1/58/33 40/60/34
f 1/58/35 5/59/36 40/60/37
f 4/57/38 10/56/39 6/67/40 2/68/41
f 4/1/42 2/2/43 17/3/44 19/4/45
f 9/47/46 8/46/47 14/50/48 13/51/49
f 8/46/50 41/62/51 14/50/52
f 5/59/53 12/64/54 40/60/55
f 40/60/56 12/64/57 42/63/58
f 12/64/59 14/50/60 42/63/61
f 41/62/62 42/63/63 14/50/64
f 6/67/65 10/56/66 15/66/67 11/69/68
f 31/52/69 34/65/70 35/54/71 32/53/72
f 29/11/73 45/14/74 14/12/75
f 14/12/76 45/14/77 13/13/78
f 45/14/79 44/15/80 13/13/81
f 13/13/82 44/15/83 28/16/84
f 15/18/85 13/25/86 28/26/87 30/19/88
f 4/28/89 19/29/90 22/30/91 7/31/92
f 7/31/93 22/30/94 18/32/95 3/33/96
f 23/70/97 18/71/98 22/72/99 24/73/100
f 24/73/101 22/72/102 19/76/103 25/77/104
f 16/74/105 18/71/106 23/70/107 20/75/108
f 19/76/109 17/83/110 21/84/111 25/77/112
f 3/5/113 18/6/114 16/7/115 1/8/116
f 24/73/117 28/78/118 23/70/119
f 28/78/120 44/79/121 23/70/122
f 44/79/123 46/80/124 23/70/125
f 46/80/126 29/81/127 23/70/128
f 23/70/129 29/81/130 27/82/131 20/75/132
f 25/77/133 21/84/134 30/85/135
f 26/86/136 36/87/137 21/84/138
f 36/87/139 39/88/140 21/84/141
f 21/84/142 39/88/143 30/85/144
f 39/88/145 37/89/146 30/85/147
f 25/77/148 30/85/149 28/78/150 24/73/151
f 12/9/152 27/10/153 29/11/154 14/12/155
f 15/18/156 30/19/157 11/24/158
f 26/23/159 11/24/160 36/22/161
f 36/22/162 11/24/163 38/21/164
f 11/24/165 30/19/166 38/21/167
f 30/19/168 37/20/169 38/21/170
f 12/34/171 5/35/172 20/36/173 27/37/174
f 5/35/175 1/38/176 16/39/177 20/36/178
f 2/40/179 6/41/180 21/42/181 17/43/182
f 6/41/183 11/44/184 26/45/185 21/42/186
f 9/47/187 13/51/188 31/52/189
f 10/56/190 33/55/191 15/66/192
f 33/55/193 34/65/194 15/66/195
f 15/66/196 34/65/197 13/51/198
f 34/65/199 31/52/200 13/51/201
f 35/54/202 34/65/203 33/55/204
f 39/27/205 38/21/206 37/20/207
f 36/22/208 38/21/209 39/27/210
f 41/62/211 43/61/212 42/63/213
f 42/63/214 43/61/215 40/60/216
f 44/15/217 45/14/218 46/17/219
f 46/17/220 45/14/221 29/11/222
