# This file uses centimeters as units for non-parametric coordinates.

v -19.375977 6.498055 47.791016
v -29.865234 6.170914 -7.311523
v 24.064888 7.219299 45.593338
v 24.460938 6.096214 -46.432617
v -25.708008 5.895226 -44.239258
v 6.437500 -18.388557 -47.590820
v -5.973633 -18.388565 -47.158203
v -26.012695 -18.388565 -46.470703
v -29.681641 -18.388565 -6.572266
v -19.108398 -18.388565 49.376953
v -11.117188 -18.388504 49.091797
v 26.180672 -18.388519 -48.535149
v 25.927734 6.438896 15.256836
v 29.365234 -18.388481 48.145508
vt 0.069237 0.098524
vt 0.069237 0.098524
vt 0.069237 0.098524
vt 0.069237 0.098524
vt 0.069237 0.098524
vt 0.069237 0.098524
vt 0.069237 0.098524
vt 0.069237 0.098524
vt 0.069237 0.098524
vt 0.069237 0.098524
vt 0.069237 0.098524
vt 0.069237 0.098524
vt 0.069237 0.098524
vt 0.069237 0.098524
vt 0.069237 0.098524
vn -0.004245 0.999976 -0.005454
vn -0.004245 0.999976 -0.005454
vn -0.004245 0.999976 -0.005454
vn -0.034690 0.091434 -0.995207
vn -0.034690 0.091434 -0.995207
vn -0.034690 0.091434 -0.995207
vn -0.002602 0.999982 -0.005442
vn -0.002602 0.999982 -0.005442
vn -0.002602 0.999982 -0.005442
vn -0.034143 0.091876 -0.995185
vn -0.034143 0.091876 -0.995185
vn -0.034143 0.091876 -0.995185
vn -0.982606 -0.001756 0.185692
vn -0.982606 -0.001756 0.185692
vn -0.982606 -0.001756 0.185692
vn 0.049274 0.068434 0.996438
vn 0.049274 0.068434 0.996438
vn 0.049274 0.068434 0.996438
vn -0.982360 0.001354 0.186993
vn -0.982360 0.001354 0.186993
vn -0.982360 0.001354 0.186993
vn 0.035587 0.063938 0.997319
vn 0.035587 0.063938 0.997319
vn 0.035587 0.063938 0.997319
vn -0.993674 -0.010793 -0.111785
vn -0.993674 -0.010793 -0.111785
vn -0.993674 -0.010793 -0.111785
vn -0.001706 0.999969 -0.007657
vn -0.001706 0.999969 -0.007657
vn -0.001706 0.999969 -0.007657
vn -0.995581 0.020904 -0.091551
vn -0.995581 0.020904 -0.091551
vn -0.995581 0.020904 -0.091551
vn -0.047643 0.074409 -0.996089
vn -0.047643 0.074409 -0.996089
vn -0.047643 0.074409 -0.996089
vn -0.017951 0.999479 -0.026814
vn -0.017951 0.999479 -0.026814
vn -0.017951 0.999479 -0.026814
vn 0.976687 0.207601 0.054634
vn 0.976687 0.207601 0.054634
vn 0.976687 0.207601 0.054634
vn 0.995000 0.094348 -0.032774
vn 0.995000 0.094348 -0.032774
vn 0.995000 0.094348 -0.032774
vn 0.997106 0.072104 -0.024109
vn 0.997106 0.072104 -0.024109
vn 0.997106 0.072104 -0.024109
vn -0.043859 0.082416 -0.995633
vn -0.043859 0.082416 -0.995633
vn -0.043859 0.082416 -0.995633
vn 0.023242 0.103908 0.994315
vn 0.023242 0.103908 0.994315
vn 0.023242 0.103908 0.994315
s off
f 13/1/1 4/2/2 5/3/3
f 5/3/4 6/4/5 7/5/6
f 2/6/7 1/7/8 13/1/9
f 8/8/10 5/3/11 7/5/12
f 2/6/13 9/9/14 10/10/15
f 3/11/16 1/7/17 11/12/18
f 2/6/19 10/10/20 1/7/21
f 1/7/22 10/10/23 11/12/24
f 2/6/25 5/3/26 9/9/27
f 13/1/28 5/3/29 2/6/30
f 5/3/31 8/8/32 9/9/33
f 5/3/34 12/13/35 6/4/36
f 1/7/37 3/11/38 13/1/39
f 13/1/40 3/11/41 14/14/42
f 12/15/43 13/1/44 14/14/45
f 4/2/46 13/1/47 12/13/48
f 12/13/49 5/3/50 4/2/51
f 14/14/52 3/11/53 11/12/54
