# This file uses centimeters as units for non-parametric coordinates.

v 75.039063 40.403259 75.039063
v 75.039063 40.403259 -75.039063
v -75.039063 40.403259 -75.039063
v -75.039063 40.403259 75.039063
v 75.039063 0.000000 -75.039063
v 75.039063 0.000000 75.039063
v 75.039063 15.297822 -75.039063
v 75.039063 24.784597 75.039063
v -75.039063 24.784597 -75.039063
v -75.039063 0.000000 -75.039063
v -75.039063 0.000000 75.039063
v -75.039063 24.784597 75.039063
v 0.000000 100.916748 0.000000
v 75.039063 60.349121 -75.039063
v -75.039063 53.771835 75.039063
v 75.039063 60.349121 75.039063
v -75.039063 60.349121 -75.039063
v 56.044922 27.791555 56.045898
v 55.865234 34.141163 55.866211
v 56.044922 27.791555 -56.045898
v 55.865234 34.141163 -55.866211
v -56.044922 27.791555 -56.045898
v -55.865234 34.141163 -55.866211
v -56.044922 27.791555 56.045898
v -55.865234 34.141163 55.866211
v -75.039063 60.349121 55.418945
v -53.304688 60.349121 75.039063
v -66.318359 65.063286 66.319336
v 75.039063 60.349117 39.547852
v 75.039063 60.349121 -38.509766
v 66.380859 65.030396 -16.591797
v 75.039063 51.356384 3.712891
v 75.039063 24.784595 -38.196289
v 57.048828 24.784597 -75.039063
v 64.287109 26.486662 -64.288086
v -75.039063 24.784597 8.821289
v -75.039063 24.784597 -56.731445
v -65.265625 26.332043 -20.659180
v -75.039063 17.053677 -23.228516
v -20.261719 89.962967 -20.261719
v -61.560547 67.635719 -61.560547
v -44.947266 76.617165 -33.167969
v -39.144531 75.166008 -47.631836
vt 0.103100 0.899114
vt 0.031506 0.843073
vt 0.030187 0.852930
vt 0.063215 0.878540
vt 0.078836 0.887332
vt 0.094489 0.902790
vt 0.102983 0.909376
vt 0.103370 0.781924
vt 0.103245 0.791235
vt 0.174900 0.843889
vt 0.103057 0.805183
vt 0.121425 0.820787
vt 0.102709 0.885803
vt 0.177584 0.868496
vt 0.160181 0.853712
vt 0.145098 0.850163
vt 0.036658 0.869720
vt 0.038412 0.875460
vt 0.028586 0.864885
vt 0.038564 0.859024
vt 0.102809 0.924686
vt 0.102792 0.918147
vt 0.106920 0.908040
vt 0.102737 0.896924
vt 0.103164 0.797273
vt 0.176673 0.860140
vt 0.139306 0.832436
vt 0.102908 0.916013
vt 0.103193 0.808754
vt 0.103160 0.811395
vt 0.048432 0.856843
vt 0.048523 0.854252
vt 0.157632 0.854868
vt 0.157660 0.857458
vt 0.102999 0.896974
vt 0.102969 0.899512
vt 0.165602 0.854384
vt 0.158827 0.839012
vt 0.175560 0.849938
vt 0.166836 0.860718
vt 0.081957 0.886635
vt 0.029332 0.859313
vt 0.097011 0.905368
vn -1.000000 0.000000 0.000000
vn -1.000000 0.000000 0.000000
vn -1.000000 0.000000 0.000000
vn -1.000000 0.000000 0.000000
vn -1.000000 0.000000 0.000000
vn -1.000000 0.000000 0.000000
vn -1.000000 0.000003 0.000000
vn -1.000000 0.000000 0.000000
vn -1.000000 0.000000 0.000000
vn -1.000000 0.000000 0.000000
vn -1.000000 0.000000 0.000000
vn -1.000000 0.000000 0.000000
vn -1.000000 0.000000 0.000000
vn -1.000000 0.000000 0.000000
vn -1.000000 0.000000 0.000000
vn 0.000000 0.000000 1.000000
vn 0.000000 0.000000 1.000000
vn 0.000000 0.000000 1.000000
vn 0.000000 0.000000 1.000000
vn 0.000000 -1.000000 0.000000
vn 0.000000 -1.000000 0.000000
vn 0.000000 -1.000000 0.000000
vn 0.000000 -1.000000 0.000000
vn 0.475572 0.879677 0.000000
vn 0.475571 0.879677 0.000000
vn 0.475572 0.879677 0.000000
vn 0.475572 0.879677 0.000000
vn 0.475572 0.879677 0.000000
vn 0.475571 0.879677 0.000000
vn 0.475562 0.879682 -0.000024
vn 0.475572 0.879677 0.000000
vn 0.475562 0.879682 -0.000024
vn 0.475568 0.879679 0.000008
vn 0.475568 0.879679 0.000008
vn 0.475572 0.879677 0.000000
vn -0.672972 0.701310 0.235101
vn -0.672972 0.701310 0.235101
vn -0.475571 0.879677 0.000000
vn 0.000000 0.879677 0.475572
vn -0.210022 0.694011 0.688651
vn -0.210022 0.694011 0.688651
vn -0.000000 0.879677 -0.475572
vn -0.000000 0.879680 -0.475567
vn -0.000000 0.879677 -0.475572
vn -0.000000 0.879680 -0.475567
vn -0.000001 0.879675 -0.475575
vn -0.000000 0.879677 -0.475572
vn -0.000001 0.879675 -0.475575
vn 0.000001 0.879677 -0.475572
vn -0.000000 0.879677 -0.475572
vn 0.000001 0.879677 -0.475572
vn -0.000000 0.879677 -0.475572
vn -0.000000 0.879677 -0.475572
vn 1.000000 0.000000 0.000000
vn 1.000000 0.000000 0.000000
vn 1.000000 0.000000 0.000000
vn 1.000000 0.000000 0.000000
vn 1.000000 -0.000000 0.000000
vn 1.000000 0.000000 0.000000
vn 1.000000 -0.000000 0.000000
vn 1.000000 -0.000000 0.000000
vn 1.000000 0.000000 0.000000
vn 1.000000 0.000000 0.000000
vn 1.000000 -0.000000 0.000000
vn 1.000000 0.000000 0.000000
vn 1.000000 -0.000000 0.000000
vn 1.000000 0.000000 0.000000
vn 1.000000 0.000000 0.000000
vn -0.000000 0.000000 -1.000000
vn -0.000000 0.000000 -1.000000
vn -0.000000 0.000000 -1.000000
vn -0.000000 0.000000 -1.000000
vn 0.000000 0.028274 0.999600
vn 0.000000 0.028274 0.999600
vn 0.000000 0.028274 0.999600
vn 0.000000 0.028274 0.999600
vn 0.999600 0.028273 0.000000
vn 0.999600 0.028273 0.000000
vn 0.999600 0.028273 0.000000
vn 0.999600 0.028273 0.000000
vn -0.000000 0.028274 -0.999600
vn -0.000000 0.028274 -0.999600
vn -0.000000 0.028274 -0.999600
vn -0.000000 0.028274 -0.999600
vn -0.999600 0.028274 0.000000
vn -0.999600 0.028274 0.000000
vn -0.999600 0.028274 0.000000
vn -0.999600 0.028274 0.000000
vn 0.604287 0.771598 -0.198681
vn 0.604287 0.771598 -0.198681
vn 0.156369 0.987699 0.000000
vn 0.424713 0.805403 -0.413454
vn 0.424713 0.805403 -0.413454
vn -0.000000 0.987699 -0.156369
vn -0.156369 0.987699 0.000000
vn -0.156362 0.987700 -0.000004
vn -0.156369 0.987699 0.000000
vn -0.156369 0.987699 0.000000
vn -0.156369 0.987699 0.000000
vn -0.156370 0.987699 0.000003
vn -0.156362 0.987700 -0.000004
vn -0.156346 0.987702 -0.000000
vn -0.156369 0.987699 0.000000
vn -0.156369 0.987699 0.000000
vn -0.156346 0.987702 -0.000000
vn -0.156369 0.987699 0.000000
vn -0.156369 0.987699 0.000000
vn -0.156346 0.987702 -0.000000
vn -0.156370 0.987699 0.000003
vn 0.000000 0.987699 0.156369
vn 0.000000 0.987699 0.156369
vn 0.000000 0.987699 0.156369
vn 0.000000 0.987699 0.156369
vn -0.000000 -0.950583 -0.310472
vn -0.000000 -0.950583 -0.310472
vn -0.000000 -0.950583 -0.310472
vn -0.000000 -0.950583 -0.310472
vn 0.310472 -0.950583 0.000000
vn 0.310472 -0.950583 0.000000
vn 0.310472 -0.950583 0.000000
vn 0.310472 -0.950583 0.000000
vn -0.310472 -0.950583 0.000000
vn -0.310472 -0.950583 0.000000
vn -0.310472 -0.950583 0.000000
vn -0.310472 -0.950583 0.000000
vn 0.000000 -0.950583 0.310472
vn 0.000000 -0.950583 0.310472
vn 0.000000 -0.950583 0.310472
vn 0.000000 -0.950583 0.310472
vn -1.000000 0.000000 0.000000
vn -1.000000 0.000000 0.000000
vn -1.000000 0.000000 0.000000
vn -1.000000 0.000000 0.000000
vn -1.000000 0.000000 0.000000
vn -1.000000 0.000000 0.000000
vn -1.000000 0.000000 0.000000
vn -1.000000 0.000000 0.000000
vn -1.000000 0.000000 0.000000
vn 0.000000 0.000000 1.000000
vn 0.000000 0.000000 1.000000
vn 0.000000 0.000000 1.000000
vn 0.000000 0.000000 1.000000
vn 0.000000 0.000000 1.000000
vn 0.000000 0.000000 1.000000
vn 0.000000 0.000000 1.000000
vn 0.000000 0.000000 1.000000
vn 0.000000 0.000000 1.000000
vn 0.000001 0.879677 0.475572
vn 0.000001 0.879677 0.475572
vn 0.000000 0.879677 0.475572
vn 0.000000 0.879677 0.475572
vn -0.475571 0.879677 0.000000
vn -0.475562 0.879682 0.000009
vn -0.475565 0.879681 -0.000000
vn -0.475565 0.879681 -0.000000
vn -0.475562 0.879682 0.000009
vn -0.475573 0.879676 -0.000002
vn -0.475571 0.879677 0.000000
vn -0.475574 0.879676 0.000001
vn -0.475560 0.879683 0.000013
vn -0.475560 0.879683 0.000013
vn -0.475574 0.879676 0.000001
vn -0.475562 0.879682 0.000009
vn -0.475562 0.879682 0.000009
vn -0.475574 0.879676 0.000001
vn -0.475573 0.879676 -0.000002
vn 0.903069 0.416579 -0.104540
vn 0.903069 0.416579 -0.104540
vn 0.903069 0.416579 -0.104540
vn 0.726145 0.672458 0.143223
vn 0.726145 0.672458 0.143223
vn 0.726145 0.672458 0.143223
vn 1.000000 0.000000 0.000000
vn 1.000000 0.000000 0.000000
vn 1.000000 0.000000 0.000000
vn 1.000000 0.000000 0.000000
vn 1.000000 0.000000 0.000000
vn 1.000000 0.000000 0.000000
vn 1.000000 0.000000 0.000000
vn 1.000000 0.000000 0.000000
vn 1.000000 0.000000 0.000000
vn -0.000000 0.000000 -1.000000
vn -0.000000 0.000000 -1.000000
vn 0.000000 0.000000 -1.000000
vn 0.000000 0.000000 -1.000000
vn -0.000000 0.000000 -1.000000
vn 0.000000 0.000000 -1.000000
vn 0.000000 0.000000 -1.000000
vn -0.000000 0.000000 -1.000000
vn -0.000000 0.000000 -1.000000
vn -0.000000 0.987699 -0.156369
vn -0.000000 0.987699 -0.156369
vn 0.000000 0.987698 -0.156371
vn 0.000001 0.987699 -0.156370
vn 0.000000 0.987698 -0.156371
vn -0.000000 0.987699 -0.156369
vn -0.000000 0.987699 -0.156369
vn -0.000000 0.987699 -0.156369
vn 0.000000 0.987698 -0.156371
vn 0.156369 0.987699 0.000000
vn 0.156363 0.987700 -0.000000
vn 0.156369 0.987699 0.000000
vn 0.156367 0.987699 -0.000005
vn 0.156369 0.987699 0.000000
vn 0.156363 0.987700 -0.000000
vn 0.156369 0.987699 0.000000
vn 0.156369 0.987699 0.000000
vn 0.156363 0.987700 -0.000000
vn -0.652575 0.736597 -0.177679
vn -0.652575 0.736597 -0.177679
vn -0.652575 0.736597 -0.177679
vn -0.701435 0.694484 0.160255
vn -0.701435 0.694484 0.160255
vn -0.701435 0.694484 0.160255
vn -0.363619 0.901083 -0.236286
vn -0.363619 0.901083 -0.236286
vn -0.363619 0.901083 -0.236286
vn -0.210402 0.960750 -0.180803
vn -0.210402 0.960751 -0.180803
vn -0.210402 0.960750 -0.180803
s off
f 10/1/1 11/2/2 9/7/3
f 12/3/4 36/4/5 11/2/6
f 37/6/7 9/7/8 39/5/9
f 9/7/10 11/2/11 39/5/12
f 11/2/13 36/4/14 39/5/15
f 11/2/16 6/8/17 8/9/18 12/3/19
f 6/8/20 11/2/21 10/1/22 5/10/23
f 16/11/24 29/12/25 13/13/26
f 14/14/27 13/13/28 30/15/29
f 30/15/30 13/13/31 31/16/32
f 29/12/33 31/16/34 13/13/35
f 28/17/36 26/18/37 15/19/38
f 15/19/39 27/20/40 28/17/41
f 17/21/42 41/22/43 14/14/44
f 41/22/45 43/23/46 14/14/47
f 43/23/48 40/24/49 14/14/50
f 40/24/51 13/13/52 14/14/53
f 1/25/54 2/26/55 16/11/56
f 14/14/57 30/15/58 2/26/59
f 30/15/60 32/27/61 2/26/62
f 2/26/63 32/27/64 16/11/65
f 32/27/66 29/12/67 16/11/68
f 17/21/69 14/14/70 2/26/71 3/28/72
f 18/29/73 19/30/74 25/31/75 24/32/76
f 19/30/77 18/29/78 20/33/79 21/34/80
f 21/34/81 20/33/82 22/35/83 23/36/84
f 23/36/85 22/35/86 24/32/87 25/31/88
f 35/37/89 33/38/90 7/39/91
f 34/40/92 35/37/93 7/39/94
f 9/7/95 37/6/96 22/35/97
f 12/3/98 24/32/99 36/4/100
f 37/6/101 38/41/102 22/35/103
f 22/35/104 38/41/105 24/32/106
f 24/32/107 38/41/108 36/4/109
f 18/29/110 24/32/111 12/3/112 8/9/113
f 3/28/114 2/26/115 21/34/116 23/36/117
f 21/34/118 2/26/119 1/25/120 19/30/121
f 4/42/122 3/28/123 23/36/124 25/31/125
f 1/25/126 4/42/127 25/31/128 19/30/129
f 3/28/130 4/42/131 17/21/132
f 4/42/133 15/19/134 17/21/135
f 15/19/136 26/18/137 17/21/138
f 1/25/139 16/11/140 4/42/141
f 4/42/142 16/11/143 15/19/144
f 16/11/145 27/20/146 15/19/147
f 28/17/148 27/20/149 16/11/150 13/13/151
f 17/21/152 26/18/153 41/22/154
f 41/22/155 26/18/156 42/43/157
f 13/13/158 40/24/159 28/17/160
f 28/17/161 40/24/162 26/18/163
f 26/18/164 40/24/165 42/43/166
f 32/27/167 31/16/168 29/12/169
f 30/15/170 31/16/171 32/27/172
f 6/8/173 5/10/174 8/9/175
f 5/10/176 7/39/177 8/9/178
f 7/39/179 33/38/180 8/9/181
f 5/10/182 10/1/183 7/39/184
f 7/39/185 10/1/186 34/40/187
f 34/40/188 10/1/189 9/7/190
f 9/7/191 22/35/192 34/40/193
f 35/37/194 34/40/195 20/33/196
f 22/35/197 20/33/198 34/40/199
f 8/9/200 33/38/201 18/29/202
f 35/37/203 20/33/204 33/38/205
f 20/33/206 18/29/207 33/38/208
f 36/4/209 38/41/210 39/5/211
f 39/5/212 38/41/213 37/6/214
f 43/23/215 42/43/216 40/24/217
f 41/22/218 42/43/219 43/23/220
