# This file uses centimeters as units for non-parametric coordinates.

v 0.000017 0.000000 42.160454
v 500.000031 0.000000 42.160454
v 0.000017 0.000000 -14.239210
v 500.000031 0.000000 -14.239210
v 0.000017 500.000000 42.160454
v 500.000031 500.000000 42.160454
v 500.000031 500.000000 -14.239210
v 0.000017 500.000000 -14.239210
v 0.000017 123.449493 42.160454
v 500.000000 123.449493 42.160454
v 0.000017 142.830551 16.651165
v 500.000031 142.830551 16.651165
v 0.000017 346.371765 16.651165
v 500.000000 346.371765 16.651165
v 0.000017 352.768951 31.195313
v 500.000000 352.768951 31.195313
v 0.000017 370.731720 31.195313
v 500.000000 370.731720 31.195313
v 0.000017 375.677399 42.160454
v 499.999969 375.677399 42.160454
v 157.509293 434.922119 42.160454
v 344.052338 436.870575 42.160454
v 157.101028 403.176331 16.651165
v 342.490753 405.616455 16.651165
v 157.509308 412.013672 31.195313
v 342.490753 412.013672 31.195313
v 157.509308 429.976440 31.195313
v 342.490753 429.976440 31.195313
v 216.374512 145.876282 16.651165
v 237.303513 123.449493 42.160454
v 424.613464 116.430511 42.160454
v 448.855835 139.997772 16.651165
v 18.734272 123.449493 42.160454
v 173.096771 123.449493 42.160454
v 79.428345 112.548859 42.160454
v 63.198444 127.312248 37.760113
v 73.194122 372.171509 16.651165
v 64.110909 380.216827 31.195313
v 393.655273 410.731689 31.195313
v 412.361298 414.232117 42.160454
v 474.615662 362.316895 31.195313
v 419.313843 383.117828 31.195313
v 460.207642 376.651093 31.195313
v 452.352661 366.840973 29.434109
v 173.160217 435.108307 42.160454
v 300.413300 435.987244 42.160454
v 211.633026 429.976410 31.195313
v 188.476166 443.215393 42.160454
v 221.090378 445.256561 42.160454
vt 0.237487 0.811349
vt 0.237487 0.753190
vt 0.237487 0.820479
vt 0.001929 0.753190
vt 0.001929 0.811349
vt 0.001929 0.820479
vt 0.237487 0.753190
vt 0.001929 0.753190
vt 0.001929 0.916371
vt 0.001929 0.988747
vt 0.237487 0.988747
vt 0.237487 0.666371
vt 0.001929 0.669385
vt 0.237487 0.919385
vt 0.001929 0.927847
vt 0.237487 0.927847
vt 0.001929 0.680177
vt 0.237487 0.930177
vt 0.001929 0.988747
vt 0.237487 0.988747
vt 0.076134 0.958088
vt 0.164017 0.959006
vt 0.076134 0.705758
vt 0.163282 0.705758
vt 0.163282 0.694282
vt 0.075942 0.943132
vt 0.163282 0.697296
vt 0.076134 0.947296
vt 0.103866 0.821914
vt 0.113726 0.811349
vt 0.201971 0.808042
vt 0.213392 0.819145
vt 0.010755 0.811349
vt 0.083478 0.811349
vt 0.039349 0.806213
vt 0.031703 0.814402
vt 0.036412 0.678526
vt 0.032133 0.932316
vt 0.187386 0.946692
vt 0.196199 0.948341
vt 0.225528 0.673883
vt 0.199474 0.683683
vt 0.218740 0.930636
vt 0.215039 0.676014
vt 0.083507 0.708176
vt 0.143458 0.708590
vt 0.101633 0.705758
vt 0.090723 0.961995
vt 0.106088 0.962957
vt 0.106088 0.712957
vt 0.143458 0.958590
vt 0.090723 0.711995
vt 0.083507 0.958176
vt 0.101633 0.955758
vt 0.163282 0.955758
vt 0.164017 0.709006
vt 0.218740 0.680636
vt 0.225528 0.923883
vt 0.199474 0.933683
vt 0.163282 0.947296
vt 0.196199 0.698341
vt 0.187386 0.696692
vt 0.032133 0.682316
vt 0.001929 0.919385
vt 0.036412 0.928526
vt 0.001929 0.666371
vt 0.237487 0.680177
vt 0.076134 0.708088
vt 0.001929 0.930177
vt 0.237487 0.677847
vt 0.076134 0.955758
vt 0.001929 0.677847
vt 0.076134 0.697296
vt 0.237487 0.669385
vt 0.075942 0.693132
vt 0.237487 0.916371
vt 0.163282 0.944282
vn 1.000000 -0.000000 0.000001
vn 1.000000 -0.000000 0.000001
vn 1.000000 -0.000000 0.000001
vn -1.000000 0.000000 0.000000
vn -1.000000 0.000000 0.000000
vn -1.000000 0.000000 0.000000
vn 1.000000 0.000001 0.000000
vn 1.000000 0.000001 0.000000
vn 1.000000 0.000001 0.000000
vn -1.000000 0.000000 0.000000
vn -1.000000 0.000000 0.000000
vn -1.000000 0.000000 0.000000
vn -1.000000 0.000000 0.000000
vn -1.000000 0.000000 0.000000
vn -1.000000 0.000000 0.000000
vn -1.000000 0.000000 0.000000
vn 1.000000 0.000000 0.000001
vn 1.000000 0.000000 0.000001
vn 1.000000 0.000000 0.000001
vn 1.000000 0.000000 0.000001
vn -1.000000 0.000000 0.000000
vn -1.000000 0.000000 0.000000
vn -1.000000 0.000000 0.000000
vn 1.000000 -0.000000 0.000000
vn 1.000000 -0.000000 0.000000
vn 1.000000 -0.000000 0.000000
vn -1.000000 0.000000 0.000000
vn -1.000000 0.000000 0.000000
vn -1.000000 0.000000 0.000000
vn 1.000000 0.000000 0.000001
vn 1.000000 0.000000 0.000001
vn 1.000000 0.000000 0.000001
vn -1.000000 0.000000 0.000000
vn -1.000000 0.000000 0.000000
vn -1.000000 0.000000 0.000000
vn 1.000000 0.000001 0.000002
vn 1.000000 0.000001 0.000002
vn 1.000000 0.000001 0.000002
vn -1.000000 0.000000 0.000000
vn -1.000000 0.000000 0.000000
vn -1.000000 0.000000 0.000000
vn 1.000000 -0.000001 0.000000
vn 1.000000 -0.000001 0.000000
vn 1.000000 -0.000001 0.000000
vn 0.000000 0.000000 1.000000
vn 0.000000 0.000000 1.000000
vn 0.000000 0.000000 1.000000
vn 0.000000 0.000000 1.000000
vn 0.000000 -1.000000 0.000000
vn 0.000000 -1.000000 0.000000
vn 0.000000 -1.000000 0.000000
vn 0.000000 -1.000000 0.000000
vn 0.000000 0.000000 -1.000000
vn 0.000000 0.000000 -1.000000
vn 0.000000 0.000000 -1.000000
vn 0.000000 0.000000 -1.000000
vn 0.000000 1.000000 0.000000
vn 0.000000 1.000000 0.000000
vn 0.000000 1.000000 0.000000
vn 0.000000 1.000000 0.000000
vn 0.000000 0.000000 1.000000
vn 0.000000 0.000000 1.000000
vn 0.000000 0.000000 1.000000
vn 0.000000 0.000000 1.000000
vn 0.004403 -0.869668 0.493618
vn 0.004403 -0.869668 0.493618
vn 0.004403 -0.869668 0.493618
vn 0.004403 -0.869668 0.493618
vn -0.000000 0.000000 1.000000
vn -0.000000 0.000000 1.000000
vn -0.000000 0.000000 1.000000
vn -0.000000 0.000000 1.000000
vn 0.022791 0.741805 0.670229
vn 0.022791 0.741805 0.670229
vn 0.022791 0.741805 0.670229
vn 0.022791 0.741805 0.670229
vn 0.005836 -0.885878 0.463882
vn 0.005836 -0.885878 0.463882
vn 0.005836 -0.885878 0.463882
vn 0.005836 -0.885878 0.463882
vn 0.000000 0.000000 1.000000
vn 0.000000 0.000000 1.000000
vn 0.000000 0.000000 1.000000
vn 0.000000 0.000000 1.000000
vn 0.000000 0.000000 1.000000
vn 0.000000 0.000000 1.000000
vn 0.000000 0.000000 1.000000
vn 0.000000 0.000000 1.000000
vn 0.000000 0.000000 1.000000
vn 0.000000 0.000000 1.000000
vn 0.000000 0.000000 1.000000
vn 0.000000 0.000000 1.000000
vn 0.000000 0.000000 1.000000
vn 0.000000 0.000000 1.000000
vn -0.346086 -0.920112 0.183355
vn -0.346086 -0.920112 0.183355
vn -0.346086 -0.920112 0.183355
vn 0.313335 -0.807970 0.499005
vn 0.313335 -0.807970 0.499005
vn 0.313335 -0.807970 0.499005
vn 0.313335 -0.807970 0.499005
vn 0.000000 0.000000 1.000000
vn 0.000000 0.000000 1.000000
vn 0.000000 0.000000 1.000000
vn 0.000000 0.000000 1.000000
vn 0.000000 0.000000 1.000000
vn 0.000000 0.000000 1.000000
vn 0.324337 -0.862289 0.388925
vn 0.324337 -0.862289 0.388925
vn 0.324337 -0.862289 0.388925
vn 0.324337 -0.862289 0.388925
vn -0.264275 -0.753854 0.601550
vn -0.264275 -0.753854 0.601550
vn -0.264275 -0.753854 0.601550
vn -0.264275 -0.753854 0.601550
vn 0.000000 0.000000 1.000000
vn 0.000000 0.000000 1.000000
vn 0.000000 0.000000 1.000000
vn 0.000000 0.000000 1.000000
vn 0.000000 0.000000 1.000000
vn 0.000000 0.000000 1.000000
vn -0.000024 0.751046 0.660250
vn -0.000024 0.751046 0.660250
vn -0.000024 0.751046 0.660250
vn -0.000024 0.751046 0.660250
vn -0.060545 0.777605 0.625832
vn -0.060545 0.777605 0.625832
vn -0.060545 0.777605 0.625832
vn -0.060545 0.777605 0.625832
vn -0.029718 0.255368 0.966387
vn -0.029718 0.255368 0.966387
vn -0.029718 0.255368 0.966387
vn 0.062406 0.347471 0.935612
vn 0.062406 0.347471 0.935612
vn 0.062406 0.347471 0.935612
vn -0.006210 0.794035 0.607840
vn -0.006210 0.794035 0.607840
vn -0.006210 0.794035 0.607840
vn -0.006210 0.794035 0.607840
vn -0.011113 0.789488 0.613666
vn -0.011113 0.789488 0.613666
vn -0.011113 0.789488 0.613666
vn 0.000000 0.000000 1.000000
vn 0.000000 0.000000 1.000000
vn 0.000000 0.000000 1.000000
vn 0.000000 0.000000 1.000000
vn 0.000000 0.000000 1.000000
vn 0.000000 0.000000 1.000000
vn 0.000000 0.000000 1.000000
vn 0.000000 0.000000 1.000000
vn 0.000000 0.000000 1.000000
vn 0.000000 0.000000 1.000000
vn 0.000000 0.000000 1.000000
vn 0.280363 -0.791538 0.543014
vn 0.280363 -0.791538 0.543014
vn 0.280363 -0.791538 0.543014
vn 0.280363 -0.791538 0.543014
vn 0.000000 0.000000 1.000000
vn 0.000000 0.000000 1.000000
vn 0.000000 0.000000 1.000000
vn 0.000000 0.000000 1.000000
vn -0.000000 0.000000 1.000000
vn -0.000000 0.000000 1.000000
vn -0.000000 0.000000 1.000000
vn -0.000000 0.000000 1.000000
vn -0.310797 -0.767484 0.560691
vn -0.310797 -0.767484 0.560691
vn -0.310797 -0.767484 0.560691
vn -0.310797 -0.767484 0.560691
vn 0.000000 0.000000 1.000000
vn 0.000000 0.000000 1.000000
vn 0.000000 0.000000 1.000000
vn -0.024877 -0.157317 0.987235
vn -0.024877 -0.157317 0.987235
vn -0.024877 -0.157317 0.987235
vn -0.098441 -0.098948 0.990211
vn -0.098441 -0.098948 0.990211
vn -0.098441 -0.098948 0.990211
vn 0.000000 0.000000 1.000000
vn 0.000000 0.000000 1.000000
vn 0.000000 0.000000 1.000000
vn 0.000000 0.000000 1.000000
vn 0.000000 0.000000 1.000000
vn 0.000000 0.000000 1.000000
vn 0.000000 0.000000 1.000000
vn -0.266910 -0.845974 0.461613
vn -0.266910 -0.845974 0.461613
vn -0.266910 -0.845974 0.461613
vn -0.266910 -0.845974 0.461613
vn -0.328895 -0.818268 0.471451
vn -0.328895 -0.818268 0.471451
vn -0.328895 -0.818268 0.471451
vn -0.328895 -0.818268 0.471451
vn 0.002420 -0.907033 0.421052
vn 0.002420 -0.907033 0.421052
vn 0.002420 -0.907033 0.421052
vn 0.002420 -0.907033 0.421052
vn -0.064854 -0.554990 0.829325
vn -0.064854 -0.554990 0.829325
vn -0.064854 -0.554990 0.829325
vn 0.204695 -0.386711 0.899196
vn 0.204695 -0.386711 0.899196
vn 0.204695 -0.386711 0.899196
vn 0.037413 -0.597798 0.800774
vn 0.037413 -0.597798 0.800774
vn 0.037413 -0.597798 0.800774
vn 0.000000 0.000000 1.000000
vn 0.000000 0.000000 1.000000
vn 0.000000 0.000000 1.000000
vn 0.000000 0.000000 1.000000
vn -0.000000 0.000000 1.000000
vn -0.000000 0.000000 1.000000
vn -0.000000 0.000000 1.000000
vn -0.000000 0.000000 1.000000
vn 0.000000 0.000000 1.000000
vn 0.000000 0.000000 1.000000
vn 0.000000 0.000000 1.000000
vn 0.000000 0.000000 1.000000
s off
f 10/1/1 4/2/2 12/3/3
f 3/4/4 9/5/5 11/6/6
f 2/7/7 4/2/8 10/1/9
f 3/4/10 1/8/11 9/5/12
f 3/4/13 11/6/14 13/9/15 8/10/16
f 12/3/17 4/2/18 7/11/19 14/76/20
f 8/10/21 13/9/22 15/64/23
f 14/76/24 7/11/25 16/14/26
f 8/10/27 15/64/28 17/15/29
f 16/14/30 7/11/31 18/16/32
f 8/10/33 17/15/34 19/69/35
f 18/16/36 7/11/37 20/18/38
f 8/10/39 19/69/40 5/19/41
f 20/18/42 7/11/43 6/20/44
f 1/8/45 35/35/46 33/33/47 9/5/48
f 1/8/49 3/4/50 4/2/51 2/7/52
f 3/4/53 8/10/54 7/11/55 4/2/56
f 8/10/57 5/19/58 6/20/59 7/11/60
f 5/19/61 21/21/62 45/53/63 48/48/64
f 22/56/65 46/46/66 47/47/67 28/24/68
f 11/6/69 29/29/70 24/77/71 23/26/72
f 29/29/73 30/30/74 31/31/75 32/32/76
f 23/75/77 24/25/78 26/27/79 25/73/80
f 27/71/81 25/28/82 26/60/83 47/54/84
f 26/60/85 28/55/86 47/54/87
f 14/76/88 24/77/89 12/3/90
f 11/6/91 23/26/92 37/65/93 13/9/94
f 14/12/95 44/44/96 24/25/97
f 13/66/98 37/37/99 38/63/100 15/13/101
f 15/64/102 38/38/103 17/15/104
f 26/60/105 39/39/106 28/55/107
f 17/72/108 27/23/109 21/68/110 19/17/111
f 39/62/112 40/61/113 22/56/114 28/24/115
f 19/69/116 21/21/117 5/19/118
f 6/20/119 22/22/120 40/40/121
f 29/29/122 36/36/123 34/34/124 30/30/125
f 32/32/126 31/31/127 10/1/128 12/3/129
f 36/36/130 35/35/131 34/34/132
f 33/33/133 35/35/134 36/36/135
f 11/6/136 9/5/137 33/33/138 36/36/139
f 11/6/140 36/36/141 29/29/142
f 35/35/143 31/31/144 30/30/145 34/34/146
f 31/31/147 2/7/148 10/1/149
f 1/8/150 2/7/151 31/31/152 35/35/153
f 38/63/154 37/37/155 23/75/156 25/73/157
f 17/15/158 38/38/159 25/28/160 27/71/161
f 43/43/162 39/39/163 26/60/164 42/59/165
f 20/67/166 40/61/167 39/62/168 18/70/169
f 6/20/170 40/40/171 20/18/172
f 42/42/173 44/44/174 43/57/175
f 43/57/176 44/44/177 41/41/178
f 18/16/179 43/43/180 41/58/181 16/14/182
f 18/16/183 39/39/184 43/43/185
f 16/74/186 41/41/187 44/44/188 14/12/189
f 24/25/190 44/44/191 42/42/192 26/27/193
f 47/47/194 45/45/195 21/68/196 27/23/197
f 47/47/198 46/46/199 49/50/200
f 47/47/201 48/52/202 45/45/203
f 47/47/204 49/50/205 48/52/206
f 6/20/207 49/49/208 46/51/209 22/22/210
f 5/19/211 48/48/212 49/49/213 6/20/214
f 24/77/215 29/29/216 32/32/217 12/3/218
