# This file uses centimeters as units for non-parametric coordinates.

v 50.000000 33.511311 50.000000
v 50.000000 33.511311 -50.000000
v -50.000000 33.511311 -50.000000
v -50.000000 33.511311 50.000000
v 39.788055 47.699497 39.788048
v 39.788055 47.699497 -39.788048
v -39.788055 47.699497 -39.788048
v -39.788055 47.699497 39.788048
v 62.092613 0.000000 -62.092651
v 62.092613 0.000000 62.092651
v 62.092613 27.497978 -62.092651
v 62.092613 27.497978 62.092651
v -62.092659 27.497978 -62.092651
v -62.092659 0.000000 -62.092651
v -62.092659 0.000000 62.092651
v -62.092659 27.497978 62.092651
v 19.896021 74.414932 -39.788048
v 39.788055 74.414932 -19.896013
v 39.788055 60.349136 -39.788048
v -19.896021 74.414932 39.788048
v -39.788055 74.414932 19.896013
v -39.788055 60.349136 39.788048
v 19.896021 74.414932 39.788048
v 39.788055 60.349136 39.788048
v 39.788055 74.414932 19.896013
v -39.788055 74.414932 -19.896013
v -19.896021 74.414932 -39.788048
v -39.788055 60.349136 -39.788048
v 50.000000 216.488678 50.000000
v 50.000000 216.488678 -50.000000
v -50.000000 216.488678 -50.000000
v -50.000000 216.488678 50.000000
v 39.788055 202.300507 39.788048
v 39.788055 202.300507 -39.788048
v -39.788055 202.300507 -39.788048
v -39.788055 202.300507 39.788048
v 62.092613 250.000000 -62.092651
v 62.092613 250.000000 62.092651
v 62.092613 222.502014 -62.092651
v 62.092613 222.502014 62.092651
v -62.092659 222.502014 -62.092651
v -62.092659 250.000000 -62.092651
v -62.092659 250.000000 62.092651
v -62.092659 222.502014 62.092651
v 19.896021 175.585083 -39.788048
v 39.788055 175.585083 -19.896013
v 39.788055 189.650879 -39.788048
v -19.896021 175.585083 39.788048
v -39.788055 175.585083 19.896013
v -39.788055 189.650879 39.788048
v 19.896021 175.585083 39.788048
v 39.788055 189.650879 39.788048
v 39.788055 175.585083 19.896013
v -39.788055 175.585083 -19.896013
v -19.896021 175.585083 -39.788048
v -39.788055 189.650879 -39.788048
v -34.913448 60.349136 34.913448
v 34.913448 60.349136 34.913448
v -34.913448 189.650879 34.913448
v 34.913448 189.650879 34.913448
v -34.913448 189.650879 -34.913448
v 34.913448 189.650879 -34.913448
v -34.913448 60.349136 -34.913448
v 34.913448 60.349136 -34.913448
v 19.896021 104.550888 39.788048
v 19.896021 167.026703 39.788048
v 23.862358 134.460388 35.821701
v 13.217779 136.165176 39.788048
v 34.913448 169.822983 -34.913448
v 34.913448 102.496330 -34.913448
v 26.350903 139.771942 -34.913445
v 34.913448 140.112000 -26.907127
v -62.092659 222.502014 29.459860
v -62.092659 222.502014 -36.210945
v -62.092697 232.353348 -8.849171
v -55.498650 219.222992 -11.528565
v 62.092613 27.497978 38.988968
v 62.092613 27.497978 -25.127283
v 54.061787 31.491493 1.431866
v 62.092590 19.207952 8.548227
v -39.788055 121.378220 -19.896013
v -39.788048 92.148071 -12.387358
v -36.148312 91.014664 -23.535757
vt 0.036872 0.846570
vt 0.065186 0.846570
vt 0.065186 0.918556
vt 0.036872 0.918556
vt 0.022718 0.836562
vt 0.079339 0.836562
vt 0.079339 0.846570
vt 0.079339 0.918556
vt 0.022718 0.928564
vt 0.079339 0.928564
vt 0.022718 0.846570
vt 0.022718 0.918556
vt 0.022718 0.912467
vt 0.025540 0.889295
vt 0.022718 0.868013
vt 0.022718 0.827561
vt 0.079339 0.827561
vt 0.022718 0.937565
vt 0.079339 0.937565
vt 0.015452 0.817466
vt 0.086606 0.817466
vt 0.015452 0.947661
vt 0.086606 0.947661
vt 0.110632 0.846570
vt 0.138945 0.846570
vt 0.138945 0.918556
vt 0.110632 0.918556
vt 0.110632 0.879986
vt 0.115974 0.859188
vt 0.096478 0.836562
vt 0.153099 0.836562
vt 0.153099 0.846570
vt 0.153099 0.918556
vt 0.096478 0.928564
vt 0.153099 0.928564
vt 0.096478 0.846570
vt 0.108042 0.858381
vt 0.096478 0.918556
vt 0.096478 0.827561
vt 0.153099 0.827561
vt 0.096478 0.937565
vt 0.153099 0.937565
vt 0.089212 0.817466
vt 0.160365 0.817466
vt 0.089212 0.947661
vt 0.160365 0.947661
vt 0.089183 0.924509
vt 0.089183 0.836146
vt 0.108749 0.836146
vt 0.108749 0.862449
vt 0.102850 0.886410
vt 0.108749 0.908070
vt 0.108749 0.924509
vt 0.111590 0.881346
vt 0.045715 0.924509
vt 0.045715 0.836146
vt 0.065281 0.836146
vt 0.065281 0.924509
vt 0.221770 0.926667
vt 0.202205 0.926667
vt 0.202205 0.838305
vt 0.221770 0.838305
vt 0.096846 0.933481
vt 0.077280 0.933481
vt 0.077280 0.915065
vt 0.084290 0.895596
vt 0.077280 0.868338
vt 0.077280 0.845119
vt 0.096846 0.845119
vt 0.074947 0.897503
vt 0.084807 0.839319
vt 0.134491 0.839319
vt 0.134491 0.869308
vt 0.128794 0.896073
vt 0.134491 0.917214
vt 0.134491 0.931322
vt 0.084807 0.931322
vt 0.134491 0.895831
vt 0.032955 0.839319
vt 0.082639 0.839319
vt 0.082639 0.931322
vt 0.032955 0.931322
vt 0.193516 0.915904
vt 0.193516 0.844751
vt 0.202120 0.836146
vt 0.202120 0.852585
vt 0.196406 0.879309
vt 0.202120 0.898206
vt 0.202120 0.924509
vt 0.122363 0.844751
vt 0.113758 0.836146
vt 0.122363 0.915904
vt 0.113758 0.924509
vt 0.186250 0.852017
vt 0.129629 0.852017
vt 0.186250 0.908638
vt 0.129629 0.908638
vt 0.108682 0.926667
vt 0.020319 0.926667
vt 0.020319 0.838305
vt 0.108682 0.838305
vt 0.191054 0.846909
vt 0.199659 0.838305
vt 0.199659 0.926667
vt 0.191054 0.918063
vt 0.119901 0.846909
vt 0.111296 0.838305
vt 0.111296 0.926667
vt 0.119901 0.918063
vt 0.111296 0.903448
vt 0.115988 0.874283
vt 0.111296 0.856721
vt 0.183788 0.854176
vt 0.127167 0.854176
vt 0.183788 0.910797
vt 0.127167 0.910797
vt 0.191211 0.821967
vt 0.191211 0.910329
vt 0.102849 0.910329
vt 0.102849 0.821967
vt 0.177056 0.836475
vt 0.205370 0.836475
vt 0.205370 0.857917
vt 0.200618 0.880412
vt 0.205370 0.902371
vt 0.205370 0.908461
vt 0.177056 0.908461
vt 0.162902 0.826466
vt 0.219523 0.826466
vt 0.208192 0.879199
vt 0.162902 0.918469
vt 0.219523 0.918469
vt 0.219523 0.817466
vt 0.162902 0.817466
vt 0.219523 0.927470
vt 0.162902 0.927470
vt 0.093264 0.931825
vt 0.064950 0.931825
vt 0.064950 0.859838
vt 0.093264 0.859838
vt 0.050796 0.941833
vt 0.107418 0.941833
vt 0.050796 0.849830
vt 0.107418 0.849830
vt 0.107418 0.950833
vt 0.050796 0.950833
vt 0.050796 0.840829
vt 0.107418 0.840829
vt 0.067449 0.836146
vt 0.087015 0.836146
vt 0.087015 0.924509
vt 0.067449 0.924509
vt 0.023981 0.924509
vt 0.023981 0.836146
vt 0.043547 0.836146
vt 0.043547 0.924509
vt 0.072475 0.845119
vt 0.072475 0.933481
vt 0.052909 0.933481
vt 0.052909 0.845119
vt 0.118617 0.933481
vt 0.099052 0.933481
vt 0.099052 0.845119
vt 0.118617 0.845119
vt 0.110024 0.840829
vt 0.159709 0.840829
vt 0.159709 0.932832
vt 0.110024 0.932832
vt 0.136659 0.821318
vt 0.186344 0.821318
vt 0.186344 0.835426
vt 0.180251 0.856809
vt 0.186344 0.883332
vt 0.186344 0.913321
vt 0.136659 0.913321
vn 0.000000 0.000000 1.000000
vn 0.000000 0.000000 1.000000
vn 0.000000 0.000000 1.000000
vn 0.000000 0.000000 1.000000
vn 0.000000 0.000000 1.000000
vn 0.000000 0.000000 1.000000
vn 0.000000 0.000000 1.000000
vn 0.000000 0.000000 1.000000
vn 0.000000 0.000000 1.000000
vn 0.000000 0.000000 1.000000
vn 0.000000 0.000000 1.000000
vn 0.000000 0.000000 1.000000
vn 0.000000 0.000000 1.000000
vn 0.000000 0.000000 1.000000
vn 0.000000 0.000000 1.000000
vn 0.000000 0.000000 -1.000000
vn 0.000000 0.000000 -1.000000
vn 0.000000 0.000000 -1.000000
vn 0.000000 0.000000 -1.000000
vn 1.000000 0.000000 0.000000
vn 1.000000 0.000000 0.000000
vn 1.000000 0.000000 0.000000
vn 1.000000 0.000000 0.000000
vn -0.707107 0.000000 -0.707107
vn -1.000000 0.000000 0.000000
vn -1.000000 0.000000 -0.000000
vn -1.000000 0.000000 0.000000
vn -1.000000 0.000000 0.000000
vn -1.000000 0.000000 -0.000000
vn -1.000000 0.000000 -0.000000
vn -1.000000 0.000000 0.000000
vn -1.000000 -0.000000 0.000000
vn -1.000000 0.000000 0.000000
vn -1.000000 0.000000 0.000000
vn -1.000000 -0.000000 0.000000
vn 0.445259 0.895402 0.000000
vn 0.445259 0.895402 0.000000
vn 0.445259 0.895402 0.000000
vn 0.445259 0.895402 0.000000
vn 0.445259 0.895402 0.000000
vn 0.445259 0.895402 0.000000
vn 0.445259 0.895402 0.000000
vn 0.445260 0.895401 0.000000
vn 0.445259 0.895402 0.000000
vn 0.445259 0.895402 0.000000
vn 0.445260 0.895401 0.000000
vn 0.445259 0.895402 0.000000
vn 0.445259 0.895402 0.000000
vn 0.445260 0.895401 0.000000
vn 0.445259 0.895402 0.000000
vn 0.000000 0.895402 -0.445258
vn 0.000000 0.895402 -0.445258
vn 0.000000 0.895402 -0.445258
vn 0.000000 0.895402 -0.445258
vn -0.445258 0.895402 0.000000
vn -0.445258 0.895402 0.000000
vn -0.445258 0.895402 0.000000
vn -0.445258 0.895402 0.000000
vn 0.000000 0.895402 0.445258
vn 0.000000 0.895402 0.445258
vn 0.000000 0.895402 0.445258
vn 0.000000 0.895402 0.445258
vn 0.000000 0.584171 -0.811630
vn 0.000000 0.584171 -0.811630
vn 0.000000 0.584171 -0.811630
vn 0.000000 0.584171 -0.811630
vn 0.811631 0.584171 0.000000
vn 0.811631 0.584171 0.000000
vn 0.811631 0.584171 0.000000
vn 0.811631 0.584171 0.000000
vn -0.811631 0.584171 0.000000
vn -0.811631 0.584171 0.000000
vn -0.811631 0.584171 0.000000
vn -0.811631 0.584171 0.000000
vn 0.000000 0.584171 0.811630
vn 0.000000 0.584171 0.811630
vn 0.000000 0.584171 0.811630
vn 0.000000 0.584171 0.811630
vn 1.000000 0.000000 0.000000
vn 1.000000 0.000000 0.000000
vn 1.000000 0.000000 0.000000
vn 1.000000 0.000000 0.000000
vn 1.000000 -0.000001 0.000000
vn 1.000000 0.000000 0.000000
vn 1.000000 -0.000001 0.000000
vn 1.000000 0.000004 -0.000001
vn 1.000000 0.000000 0.000000
vn 1.000000 0.000000 0.000000
vn 1.000000 0.000004 -0.000001
vn 1.000000 0.000000 0.000000
vn 1.000000 0.000004 -0.000001
vn 1.000000 -0.000003 0.000000
vn 1.000000 0.000000 0.000000
vn 0.000000 0.000000 -1.000000
vn 0.000000 0.000000 -1.000000
vn 0.000000 0.000000 -1.000000
vn 0.000000 0.000000 -1.000000
vn -1.000000 0.000000 0.000000
vn -1.000000 0.000000 0.000000
vn -1.000000 0.000000 0.000000
vn -1.000000 0.000000 0.000000
vn 0.000000 0.000000 1.000000
vn 0.000000 0.000000 1.000000
vn 0.000000 0.000000 1.000000
vn 0.000000 0.000000 1.000000
vn 0.000000 -1.000000 0.000000
vn 0.000000 -1.000000 0.000000
vn 0.000000 -1.000000 0.000000
vn 0.000000 -1.000000 0.000000
vn 1.000000 0.000000 0.000000
vn 1.000000 0.000000 0.000000
vn 1.000000 0.000000 0.000000
vn 1.000000 0.000000 0.000000
vn -1.000000 0.000000 0.000000
vn -1.000000 0.000000 0.000000
vn -1.000000 0.000000 0.000000
vn -1.000000 0.000000 0.000000
vn 0.000000 0.000000 1.000000
vn 0.000000 0.000000 1.000000
vn 0.000000 0.000000 1.000000
vn 0.000000 0.000000 1.000000
vn 0.000000 0.000000 -1.000000
vn 0.000000 0.000000 -1.000000
vn 0.000000 0.000000 -1.000000
vn 0.000000 0.000000 -1.000000
vn 0.707107 0.000000 -0.707107
vn 0.707107 0.000000 -0.707107
vn 0.707107 0.000000 -0.707107
vn 0.707107 0.000000 -0.707107
vn -0.707107 0.000000 0.707107
vn -0.707107 0.000000 0.707107
vn -0.707107 0.000000 0.707107
vn -0.707107 0.000000 0.707107
vn 0.707107 0.000000 0.707107
vn 0.707107 0.000000 0.707107
vn 0.707107 0.000000 0.707107
vn 0.707107 0.000000 0.707107
vn 0.707107 0.000000 0.707107
vn 0.707107 0.000000 0.707107
vn 0.707107 0.000000 0.707107
vn 0.707107 0.000000 0.707107
vn 0.707107 0.000000 0.707107
vn 0.707107 0.000000 0.707107
vn 0.707107 -0.000000 0.707107
vn 0.707107 0.000000 0.707107
vn 0.707107 0.000000 0.707107
vn 0.707107 -0.000000 0.707107
vn 0.707107 0.000000 0.707107
vn -0.707107 0.000000 -0.707107
vn -0.707107 -0.000000 -0.707107
vn -0.707107 0.000000 -0.707107
vn -0.707107 0.000000 -0.707107
vn -0.707107 -0.000000 -0.707107
vn -0.707107 0.000000 -0.707107
vn -0.707107 -0.000000 -0.707107
vn -0.707107 0.000000 -0.707107
vn -0.707107 0.000000 -0.707107
vn -0.707107 0.000000 -0.707107
vn -0.707107 0.000000 -0.707107
vn -0.707107 0.000000 -0.707107
vn 0.500000 0.707107 -0.500000
vn 0.500000 0.707107 -0.500000
vn 0.500000 0.707107 -0.500000
vn -0.500000 0.707107 0.500000
vn -0.500000 0.707107 0.500000
vn -0.500000 0.707107 0.500000
vn 0.500000 0.707107 0.500000
vn 0.500000 0.707107 0.500000
vn 0.500000 0.707107 0.500000
vn -0.500000 0.707107 -0.500000
vn -0.500000 0.707107 -0.500000
vn -0.500000 0.707107 -0.500000
vn 0.000000 0.000000 1.000000
vn 0.000000 0.000000 1.000000
vn 0.000000 0.000000 1.000000
vn 0.000000 0.000000 1.000000
vn 1.000000 0.000000 0.000000
vn 1.000000 0.000000 0.000000
vn 1.000000 0.000000 0.000000
vn 1.000000 0.000000 0.000000
vn 0.000000 0.000000 -1.000000
vn 0.000000 0.000000 -1.000000
vn 0.000000 0.000000 -1.000000
vn 0.000000 0.000000 -1.000000
vn -1.000000 0.000000 0.000000
vn -1.000000 0.000000 0.000000
vn -1.000000 0.000000 0.000000
vn -1.000000 0.000000 0.000000
vn 0.445260 -0.895402 0.000000
vn 0.445260 -0.895402 0.000000
vn 0.445260 -0.895402 0.000000
vn 0.445260 -0.895402 0.000000
vn 0.000000 -0.895402 -0.445258
vn 0.000000 -0.895402 -0.445258
vn 0.000000 -0.895402 -0.445258
vn 0.000000 -0.895402 -0.445258
vn -0.445258 -0.895402 0.000000
vn -0.445258 -0.895402 0.000001
vn -0.445258 -0.895402 0.000000
vn -0.445258 -0.895402 0.000000
vn -0.445258 -0.895402 0.000000
vn -0.445258 -0.895402 -0.000001
vn -0.445258 -0.895402 -0.000001
vn -0.445258 -0.895402 0.000000
vn -0.445257 -0.895403 -0.000000
vn -0.445258 -0.895402 0.000000
vn -0.445258 -0.895402 0.000000
vn -0.445257 -0.895403 -0.000000
vn -0.445258 -0.895402 0.000000
vn -0.445258 -0.895402 0.000001
vn -0.445257 -0.895403 -0.000000
vn 0.000000 -0.895401 0.445260
vn 0.000000 -0.895401 0.445260
vn 0.000000 -0.895401 0.445260
vn 0.000000 -0.895401 0.445260
vn 0.000000 -0.584172 -0.811630
vn 0.000000 -0.584172 -0.811630
vn 0.000000 -0.584172 -0.811630
vn 0.000000 -0.584172 -0.811630
vn 0.811630 -0.584171 0.000000
vn 0.811630 -0.584171 0.000000
vn 0.811630 -0.584171 0.000000
vn 0.811630 -0.584171 0.000000
vn -0.811630 -0.584171 0.000000
vn -0.811630 -0.584171 0.000000
vn -0.811630 -0.584171 0.000000
vn -0.811630 -0.584171 0.000000
vn 0.000000 -0.584172 0.811630
vn 0.000000 -0.584172 0.811630
vn 0.000000 -0.584172 0.811630
vn 0.000000 -0.584172 0.811630
vn 1.000000 0.000000 0.000000
vn 1.000000 0.000000 0.000000
vn 1.000000 0.000000 0.000000
vn 1.000000 0.000000 0.000000
vn 0.000000 0.000000 -1.000000
vn 0.000000 0.000000 -1.000000
vn 0.000000 0.000000 -1.000000
vn 0.000000 0.000000 -1.000000
vn -1.000000 0.000000 0.000000
vn -1.000000 0.000000 0.000000
vn -1.000000 0.000000 0.000000
vn -1.000000 0.000000 0.000000
vn -1.000000 0.000000 0.000000
vn -1.000000 -0.000000 0.000001
vn -1.000000 -0.000000 0.000001
vn -1.000000 0.000000 0.000000
vn -1.000000 0.000008 -0.000002
vn -1.000000 0.000000 0.000000
vn -1.000000 0.000000 0.000000
vn -1.000000 0.000008 -0.000002
vn -1.000000 0.000000 0.000000
vn -1.000000 -0.000004 0.000000
vn -1.000000 0.000008 -0.000002
vn 0.000000 0.000000 1.000000
vn 0.000000 0.000000 1.000000
vn 0.000000 0.000000 1.000000
vn 0.000000 0.000000 1.000000
vn 0.000000 1.000000 0.000000
vn 0.000000 1.000000 0.000000
vn 0.000000 1.000000 0.000000
vn 0.000000 1.000000 0.000000
vn 1.000000 -0.000000 0.000000
vn 1.000000 -0.000000 0.000000
vn 1.000000 -0.000000 0.000000
vn 1.000000 -0.000000 0.000000
vn -1.000000 -0.000000 0.000000
vn -1.000000 -0.000000 0.000000
vn -1.000000 -0.000000 0.000000
vn -1.000000 -0.000000 0.000000
vn 0.000000 0.000000 1.000000
vn 0.000000 0.000000 1.000000
vn 0.000000 0.000000 1.000000
vn 0.000000 0.000000 1.000000
vn 0.000000 0.000000 -1.000000
vn 0.000000 0.000000 -1.000000
vn 0.000000 0.000000 -1.000000
vn 0.000000 0.000000 -1.000000
vn 0.500000 -0.707107 -0.499999
vn 0.500000 -0.707107 -0.499999
vn 0.500000 -0.707107 -0.499999
vn -0.500000 -0.707107 0.499999
vn -0.500000 -0.707107 0.499999
vn -0.500000 -0.707107 0.499999
vn 0.500000 -0.707107 0.499999
vn 0.500000 -0.707107 0.499999
vn 0.500000 -0.707107 0.499999
vn -0.500000 -0.707107 -0.499999
vn -0.500000 -0.707107 -0.499999
vn -0.500000 -0.707107 -0.499999
vn 0.000000 0.000000 1.000000
vn 0.000000 0.000000 1.000000
vn 0.000000 0.000000 1.000000
vn 0.000000 0.000000 1.000000
vn 1.000000 0.000000 0.000000
vn 1.000000 0.000000 0.000000
vn 1.000000 0.000000 0.000000
vn 1.000000 0.000000 0.000000
vn 0.000000 0.000000 -1.000000
vn 0.000000 0.000000 -1.000000
vn 0.000000 0.000000 -1.000000
vn 0.000000 0.000000 -1.000000
vn -1.000000 0.000000 0.000000
vn -1.000000 0.000000 0.000000
vn -1.000000 0.000000 0.000000
vn -1.000000 0.000000 0.000000
vn 0.000000 0.000000 1.000000
vn 0.000000 0.000000 1.000000
vn 0.000000 0.000000 1.000000
vn 0.000000 0.000000 1.000000
vn 0.000000 0.000000 -1.000000
vn 0.000000 0.000000 -1.000000
vn 0.000000 0.000000 -1.000000
vn 0.000000 0.000000 -1.000000
vn 0.000000 -0.000000 -1.000000
vn 0.000000 0.000000 -1.000000
vn 0.000000 -0.000000 -1.000000
vn 0.000000 -0.000000 -1.000000
vn 0.000000 0.000000 -1.000000
vn 0.000000 -0.000000 -1.000000
vn 0.000000 0.000000 -1.000000
vn 0.000000 0.000000 -1.000000
vn 0.000000 0.000000 -1.000000
vn 0.000000 0.000000 -1.000000
vn 0.000000 0.000000 -1.000000
vn 1.000000 0.000000 0.000000
vn 1.000000 0.000000 0.000000
vn 1.000000 0.000000 0.000000
vn 1.000000 0.000000 0.000000
vn 1.000000 0.000000 0.000000
vn 1.000000 0.000000 0.000000
vn 1.000000 0.000000 0.000000
vn 1.000000 0.000000 0.000000
vn 1.000000 0.000000 0.000000
vn 1.000000 0.000000 0.000000
vn 1.000000 0.000000 0.000000
vn 1.000000 0.000000 0.000000
vn 1.000000 0.000000 0.000000
vn 1.000000 0.000000 0.000000
vn 1.000000 0.000000 0.000000
vn -1.000000 0.000000 0.000000
vn -1.000000 0.000000 0.000000
vn -1.000000 0.000000 0.000000
vn -1.000000 0.000000 0.000000
vn 0.337925 -0.073125 0.938328
vn 0.337925 -0.073125 0.938328
vn 0.337925 -0.073125 0.938328
vn 0.358797 0.075793 0.930333
vn 0.358797 0.075793 0.930333
vn 0.358797 0.075793 0.930333
vn 0.674319 -0.192136 -0.713006
vn 0.674319 -0.192136 -0.713006
vn 0.674319 -0.192136 -0.713006
vn 0.671534 0.154257 -0.724739
vn 0.671534 0.154257 -0.724739
vn 0.671534 0.154257 -0.724739
vn -0.866501 -0.469661 0.169097
vn -0.866501 -0.469661 0.169097
vn -0.866501 -0.469661 0.169097
vn -0.897037 -0.428030 -0.110069
vn -0.897037 -0.428029 -0.110069
vn -0.897037 -0.428029 -0.110069
vn 0.863055 0.487360 -0.132725
vn 0.863056 0.487360 -0.132725
vn 0.863055 0.487360 -0.132725
vn 0.786475 0.599717 0.147635
vn 0.786475 0.599717 0.147635
vn 0.786475 0.599717 0.147635
vn -0.950052 -0.077650 -0.302279
vn -0.950052 -0.077650 -0.302279
vn -0.950052 -0.077650 -0.302279
vn -0.937712 0.135461 -0.319917
vn -0.937712 0.135461 -0.319917
vn -0.707107 0.000000 -0.707107
s off
f 20/121/1 23/122/2 48/127/3
f 23/122/4 65/123/5 48/127/6
f 65/123/7 68/124/8 48/127/9
f 51/126/10 48/127/11 66/125/12
f 68/124/13 66/125/14 48/127/15
f 17/137/16 27/138/17 55/139/18 45/140/19
f 25/1/20 18/2/21 46/3/22 53/4/23
f 26/24/24 21/25/25 82/29/26
f 21/25/27 49/26/28 82/29/29
f 82/29/30 49/26/31 81/28/32
f 49/26/33 54/27/34 81/28/35
f 12/85/36 77/86/37 1/84/38
f 11/89/39 2/83/40 78/88/41
f 77/86/42 79/87/43 1/84/44
f 1/84/45 79/87/46 2/83/47
f 2/83/48 79/87/49 78/88/50
f 3/92/51 2/83/52 11/89/53 13/93/54
f 4/90/55 3/92/56 13/93/57 16/91/58
f 1/84/59 4/90/60 16/91/61 12/85/62
f 6/96/63 2/83/64 3/92/65 7/97/66
f 1/20/67 2/21/68 6/17/69 5/16/70
f 3/43/71 4/44/72 8/40/73 7/39/74
f 5/94/75 8/95/76 4/90/77 1/84/78
f 10/47/79 9/48/80 12/53/81
f 11/49/82 78/50/83 9/48/84
f 78/50/85 80/51/86 9/48/87
f 9/48/88 80/51/89 12/53/90
f 80/51/91 77/52/92 12/53/93
f 11/149/94 9/150/95 14/151/96 13/152/97
f 14/55/98 15/56/99 16/57/100 13/58/101
f 15/153/102 10/154/103 12/155/104 16/156/105
f 10/98/106 15/99/107 14/100/108 9/101/109
f 24/5/110 19/6/111 18/2/112 25/1/113
f 28/30/114 22/31/115 21/25/116 26/24/117
f 22/128/118 24/129/119 23/122/120 20/121/121
f 28/141/122 27/138/123 17/137/124 19/142/125
f 18/2/126 17/7/127 45/8/128 46/3/129
f 21/25/130 20/32/131 48/33/132 49/26/133
f 23/11/134 25/1/135 65/15/136
f 25/1/137 53/4/138 65/15/139
f 65/15/140 53/4/141 67/14/142
f 51/12/143 66/13/144 53/4/145
f 53/4/146 66/13/147 67/14/148
f 26/24/149 83/37/150 27/36/151
f 27/36/152 83/37/153 55/38/154
f 83/37/155 81/28/156 55/38/157
f 81/28/158 54/27/159 55/38/160
f 17/7/161 18/2/162 19/6/163
f 20/32/164 21/25/165 22/31/166
f 23/11/167 24/5/168 25/1/169
f 26/24/170 27/36/171 28/30/172
f 5/133/173 24/129/174 22/128/175 8/134/176
f 5/16/177 6/17/178 19/6/179 24/5/180
f 28/141/181 19/142/182 6/145/183 7/146/184
f 7/39/185 8/40/186 22/31/187 28/30/188
f 30/102/189 39/103/190 40/104/191 29/105/192
f 31/106/193 41/107/194 39/103/195 30/102/196
f 44/108/197 73/110/198 32/109/199
f 41/107/200 31/106/201 74/112/202
f 74/112/203 31/106/204 76/111/205
f 31/106/206 32/109/207 76/111/208
f 32/109/209 73/110/210 76/111/211
f 29/105/212 40/104/213 44/108/214 32/109/215
f 34/113/216 35/114/217 31/106/218 30/102/219
f 29/22/220 33/18/221 34/19/222 30/23/223
f 31/45/224 35/41/225 36/42/226 32/46/227
f 33/115/228 29/105/229 32/109/230 36/116/231
f 38/59/232 40/60/233 39/61/234 37/62/235
f 39/157/236 41/158/237 42/159/238 37/160/239
f 42/63/240 41/64/241 43/69/242
f 44/68/243 43/69/244 73/67/245
f 73/67/246 43/69/247 75/66/248
f 43/69/249 41/64/250 75/66/251
f 41/64/252 74/65/253 75/66/254
f 43/161/255 44/162/256 40/163/257 38/164/258
f 38/117/259 37/118/260 42/119/261 43/120/262
f 52/9/263 53/4/264 46/3/265 47/10/266
f 56/34/267 54/27/268 49/26/269 50/35/270
f 50/131/271 48/127/272 51/126/273 52/132/274
f 56/143/275 47/144/276 45/140/277 55/139/278
f 45/8/279 47/10/280 46/3/281
f 48/33/282 50/35/283 49/26/284
f 51/12/285 53/4/286 52/9/287
f 54/27/288 56/34/289 55/38/290
f 33/135/291 36/136/292 50/131/293 52/132/294
f 33/18/295 52/9/296 47/10/297 34/19/298
f 56/143/299 35/147/300 34/148/301 47/144/302
f 35/41/303 56/34/304 50/35/305 36/42/306
f 57/165/307 58/166/308 60/167/309 59/168/310
f 61/169/311 62/170/312 63/175/313
f 62/170/314 69/171/315 63/175/316
f 69/171/317 71/172/318 63/175/319
f 71/172/320 70/173/321 63/175/322
f 70/173/323 64/174/324 63/175/325
f 58/71/326 64/72/327 60/77/328
f 64/72/329 70/73/330 60/77/331
f 70/73/332 72/74/333 60/77/334
f 72/74/335 69/75/336 60/77/337
f 69/75/338 62/76/339 60/77/340
f 63/79/341 57/80/342 59/81/343 61/82/344
f 66/125/345 68/124/346 67/130/347
f 67/130/348 68/124/349 65/123/350
f 69/75/351 72/74/352 71/78/353
f 71/78/354 72/74/355 70/73/356
f 74/65/357 76/70/358 75/66/359
f 75/66/360 76/70/361 73/67/362
f 80/51/363 79/54/364 77/52/365
f 78/50/366 79/54/367 80/51/368
f 81/28/369 83/37/370 82/29/371
f 82/29/372 83/37/373 26/24/374
