# This file uses centimeters as units for non-parametric coordinates.

v -50.491150 94.333252 39.178589
v 54.652893 39.505371 35.509644
v -50.685242 99.214844 -39.476807
v 50.896301 16.120605 -43.163330
v -54.212097 -45.820679 -10.431885
v 48.021545 -50.800781 -44.098999
v -54.723572 -48.318970 34.169434
v 50.508118 -56.971069 34.169434
v -0.106140 106.817139 41.539673
v -5.273376 -64.187256 39.864990
v -4.620789 -57.151611 -49.406738
v 0.264221 107.141113 -47.819092
v 54.723206 40.830200 3.587769
v 30.544739 67.000977 -42.651855
v -30.897644 -56.604370 -44.273682
v -50.667419 -18.174683 -43.762939
v 8.500305 -13.206177 -56.319824
v 2.327942 -7.498291 56.319824
v 53.771057 -21.079834 48.452881
v 4.223816 -107.141174 24.666626
v 4.653992 -104.991333 -34.208252
v 39.371643 -103.050728 -30.708008
v 41.011414 -104.936157 20.910339
vt 0.080029 0.255841
vt 0.080523 0.256123
vt 0.080203 0.256339
vt 0.080027 0.256232
vt 0.079901 0.255955
vt 0.080009 0.256327
vt 0.079918 0.256148
vt 0.079782 0.256184
vt 0.079770 0.256471
vt 0.080501 0.256639
vt 0.080186 0.256753
vt 0.080571 0.256460
vt 0.080260 0.256648
vt 0.080288 0.256036
vt 0.080764 0.256023
vt 0.080333 0.255753
vt 0.080172 0.256264
vt 0.080480 0.256254
vt 0.080727 0.256404
vt 0.080501 0.256639
vt 0.080009 0.256327
vt 0.079770 0.256471
vt 0.080186 0.256753
vn 0.777782 0.628517 -0.004656
vn 0.777782 0.628517 -0.004656
vn 0.777782 0.628517 -0.004656
vn 0.777782 0.628517 -0.004656
vn 0.777782 0.628517 -0.004656
vn 0.220403 -0.084193 -0.971768
vn 0.220403 -0.084193 -0.971768
vn 0.220403 -0.084193 -0.971768
vn 0.220403 -0.084193 -0.971768
vn 0.057707 -0.997645 -0.037066
vn 0.057707 -0.997645 -0.037066
vn 0.057707 -0.997645 -0.037066
vn 0.057707 -0.997645 -0.037066
vn 0.242618 0.153977 0.957824
vn 0.242618 0.153977 0.957824
vn 0.242618 0.153977 0.957824
vn 0.242618 0.153977 0.957824
vn 0.998527 -0.041064 -0.035473
vn 0.998527 -0.041064 -0.035473
vn 0.998527 -0.041064 -0.035473
vn 0.998527 -0.041064 -0.035473
vn -0.999997 -0.000241 0.002453
vn -0.999997 -0.000241 0.002453
vn -0.999997 -0.000241 0.002453
vn -0.077615 0.126213 0.988962
vn -0.077615 0.126213 0.988962
vn -0.077615 0.126213 0.988962
vn -0.197323 -0.091785 -0.976032
vn -0.197323 -0.091785 -0.976032
vn -0.197323 -0.091785 -0.976032
vn -0.197323 -0.091785 -0.976032
vn 0.894679 0.360513 -0.263779
vn 0.894679 0.360513 -0.263780
vn 0.894679 0.360513 -0.263779
vn -0.345965 -0.938228 -0.005983
vn -0.345965 -0.938228 -0.005983
vn -0.345965 -0.938228 -0.005983
vn -0.345965 -0.938228 -0.005983
vn -0.807013 -0.409505 -0.425482
vn -0.807013 -0.409505 -0.425482
vn -0.807013 -0.409505 -0.425482
vn -0.195647 0.980210 0.030164
vn -0.195647 0.980210 0.030164
vn -0.195647 0.980210 0.030164
vn -0.195647 0.980210 0.030164
vn -0.998546 0.039499 -0.036693
vn -0.998546 0.039499 -0.036693
vn -0.998546 0.039499 -0.036693
vn -0.998546 0.039499 -0.036693
vn -0.191470 0.046085 -0.980416
vn -0.191470 0.046085 -0.980416
vn -0.191470 0.046085 -0.980416
vn -0.191470 0.046085 -0.980416
vn 0.256458 0.093452 -0.962027
vn 0.256458 0.093452 -0.962027
vn 0.256458 0.093452 -0.962027
vn 0.256458 0.093452 -0.962027
vn -0.036137 -0.996237 -0.078779
vn -0.036137 -0.996237 -0.078779
vn -0.036137 -0.996237 -0.078779
vn -0.308014 -0.083757 0.947688
vn -0.308014 -0.083757 0.947688
vn -0.308014 -0.083757 0.947688
vn -0.308014 -0.083757 0.947688
vn 0.099757 -0.324057 0.940763
vn 0.099757 -0.324057 0.940763
vn 0.099757 -0.324057 0.940763
vn 0.099757 -0.324057 0.940763
vn 0.997586 -0.052895 -0.044986
vn 0.997586 -0.052895 -0.044986
vn 0.997586 -0.052895 -0.044986
vn 0.997586 -0.052895 -0.044986
vn -0.979098 -0.202433 -0.019707
vn -0.979098 -0.202433 -0.019707
vn -0.979098 -0.202433 -0.019707
vn -0.979098 -0.202433 -0.019707
vn 0.122048 -0.271896 -0.954556
vn 0.122048 -0.271896 -0.954556
vn 0.122048 -0.271896 -0.954556
vn 0.122048 -0.271896 -0.954556
vn 0.983109 -0.178074 -0.042276
vn 0.983109 -0.178074 -0.042276
vn 0.983109 -0.178074 -0.042276
vn 0.983109 -0.178074 -0.042276
vn 0.126813 -0.296296 0.946640
vn 0.126813 -0.296296 0.946640
vn 0.126813 -0.296296 0.946640
vn 0.126813 -0.296296 0.946640
s off
f 12/1/1 9/2/2 2/3/3 13/4/4 14/5/5
f 11/6/6 17/7/7 4/8/8 6/9/9
f 20/20/10 21/21/11 22/22/12 23/23/13
f 9/2/14 18/12/15 19/13/16 2/3/17
f 2/3/18 19/13/19 4/8/20 13/4/21
f 16/14/22 1/15/23 3/16/24
f 1/15/25 18/12/26 9/2/27
f 16/14/28 17/7/29 11/6/30 15/17/31
f 14/5/32 13/4/33 4/8/34
f 5/18/35 15/17/36 10/10/37 7/19/38
f 16/14/39 15/17/40 5/18/41
f 1/15/42 9/2/43 12/1/44 3/16/45
f 7/19/46 1/15/47 16/14/48 5/18/49
f 3/16/50 12/1/51 17/7/52 16/14/53
f 4/8/54 17/7/55 12/1/56 14/5/57
f 10/10/58 15/17/59 11/6/60
f 7/19/61 10/10/62 18/12/63 1/15/64
f 19/13/65 18/12/66 10/10/67 8/11/68
f 4/8/69 19/13/70 8/11/71 6/9/72
f 10/10/73 11/6/74 21/21/75 20/20/76
f 11/6/77 6/9/78 22/22/79 21/21/80
f 6/9/81 8/11/82 23/23/83 22/22/84
f 8/11/85 10/10/86 20/20/87 23/23/88
