# This file uses centimeters as units for non-parametric coordinates.

v -61.733154 3.435547 97.330444
v -68.117432 7.009033 -94.968384
v -63.973145 78.800293 98.054199
v -30.183105 70.492371 -89.942261
v 50.182373 38.207031 90.892700
v 47.748779 70.492371 -71.760620
v 51.135010 7.009033 91.634766
v 51.558350 -45.914001 -76.786743
v -87.128662 -0.164063 6.295166
v 87.129395 -53.087097 6.295166
v 82.261688 77.264893 5.677246
v -82.260986 88.797546 5.677246
v -68.117432 37.590332 -94.968384
v -81.608887 82.024353 -49.785522
v 81.609131 70.492371 53.664551
v 20.695557 70.492371 92.938477
v 17.645020 84.778564 -14.832397
v 3.342010 -110.413513 -3.104004
v 13.235840 -59.110168 -98.054321
v -50.446533 161.142700 50.720093
v -12.194824 163.524048 48.761841
v -1.172607 174.049194 -5.026978
v -68.558105 168.502075 5.253906
v -68.416992 163.480103 -37.071655
v -36.813965 163.480103 -61.884644
v -39.549744 -129.859406 82.363586
v 39.679047 -128.472488 78.365356
v 6.130798 -174.049088 11.862854
v 64.945465 -151.798340 18.460754
vt 0.080503 0.256098
vt 0.080307 0.256007
vt 0.080097 0.256068
vt 0.080092 0.256154
vt 0.080503 0.256341
vt 0.079962 0.256439
vt 0.079805 0.256238
vt 0.079997 0.256055
vt 0.080104 0.256255
vt 0.079934 0.256669
vt 0.079764 0.256414
vt 0.079813 0.256337
vt 0.080173 0.256536
vt 0.080467 0.256519
vt 0.080764 0.256346
vt 0.080739 0.256562
vt 0.080131 0.256554
vt 0.080357 0.256662
vt 0.080351 0.256753
vt 0.080560 0.256189
vt 0.080429 0.256250
vt 0.080207 0.256133
vt 0.080462 0.256043
vt 0.080124 0.255982
vt 0.080313 0.255973
vt 0.080351 0.256753
vt 0.080739 0.256562
vt 0.080173 0.256536
vt 0.079934 0.256669
vn -0.989891 -0.016519 -0.140866
vn -0.989891 -0.016519 -0.140866
vn -0.989891 -0.016519 -0.140866
vn -0.989891 -0.016519 -0.140866
vn -0.989891 -0.016519 -0.140866
vn 0.103151 0.976263 -0.190448
vn 0.103151 0.976263 -0.190448
vn 0.103151 0.976263 -0.190448
vn 0.103151 0.976263 -0.190448
vn 0.915784 0.039345 -0.399739
vn 0.915784 0.039345 -0.399739
vn 0.915784 0.039345 -0.399739
vn 0.915784 0.039345 -0.399739
vn -0.694270 -0.655315 -0.297575
vn -0.694270 -0.655315 -0.297575
vn -0.694270 -0.655315 -0.297575
vn -0.694270 -0.655315 -0.297575
vn 0.032770 0.059408 -0.997696
vn 0.032770 0.059408 -0.997696
vn 0.032770 0.059408 -0.997696
vn 0.032770 0.059408 -0.997696
vn 0.059545 -0.007816 0.998195
vn 0.059545 -0.007816 0.998195
vn 0.059545 -0.007816 0.998195
vn -0.742178 -0.628802 0.231904
vn -0.742178 -0.628802 0.231904
vn -0.742178 -0.628802 0.231904
vn 0.078927 0.988053 0.132371
vn 0.078927 0.988053 0.132371
vn 0.078927 0.988053 0.132371
vn 0.078927 0.988053 0.132371
vn -0.414127 0.584106 -0.698082
vn -0.414127 0.584106 -0.698082
vn -0.414127 0.584106 -0.698082
vn 0.859274 -0.114267 0.498590
vn 0.859274 -0.114267 0.498590
vn 0.859274 -0.114267 0.498590
vn 0.859274 -0.114267 0.498590
vn 0.495689 0.404007 0.768811
vn 0.495689 0.404007 0.768811
vn 0.495689 0.404007 0.768811
vn -0.972553 0.015402 0.232171
vn -0.972553 0.015402 0.232171
vn -0.972553 0.015402 0.232171
vn -0.972553 0.015402 0.232171
vn 0.055531 0.006122 0.998438
vn 0.055531 0.006122 0.998438
vn 0.055531 0.006122 0.998438
vn 0.055531 0.006122 0.998438
vn -0.052772 0.982115 0.180734
vn -0.052772 0.982115 0.180734
vn -0.052772 0.982115 0.180734
vn -0.052772 0.982115 0.180734
vn -0.097982 0.987900 -0.120222
vn -0.097982 0.987900 -0.120222
vn -0.097982 0.987900 -0.120222
vn -0.097982 0.987900 -0.120222
vn 0.999122 0.037399 0.018865
vn 0.999122 0.037399 0.018865
vn 0.999122 0.037399 0.018865
vn 0.135520 -0.847819 0.512676
vn 0.135520 -0.847819 0.512676
vn 0.135520 -0.847819 0.512676
vn 0.135520 -0.847819 0.512676
vn 0.532894 -0.778141 -0.332446
vn 0.532894 -0.778141 -0.332446
vn 0.532894 -0.778141 -0.332446
vn 0.532894 -0.778141 -0.332446
vn 0.308219 0.109638 -0.944977
vn 0.308219 0.109638 -0.944977
vn 0.308219 0.109638 -0.944977
vn 0.308219 0.109638 -0.944977
vn 0.073242 0.467713 0.880841
vn 0.073242 0.467713 0.880841
vn 0.073242 0.467712 0.880841
vn 0.073242 0.467713 0.880841
vn 0.953392 0.287616 0.091213
vn 0.953393 0.287616 0.091213
vn 0.953393 0.287616 0.091213
vn 0.953392 0.287616 0.091213
vn -0.931316 0.237796 0.275869
vn -0.931316 0.237796 0.275869
vn -0.931316 0.237796 0.275869
vn -0.931316 0.237796 0.275869
vn -0.585272 0.205346 -0.784404
vn -0.585272 0.205346 -0.784404
vn -0.585272 0.205346 -0.784404
vn -0.585272 0.205346 -0.784404
vn -0.985620 0.166625 -0.028093
vn -0.985620 0.166625 -0.028093
vn -0.985620 0.166625 -0.028093
vn -0.985620 0.166625 -0.028093
vn 0.803312 0.226585 -0.550771
vn 0.803312 0.226585 -0.550771
vn 0.803312 0.226585 -0.550771
vn 0.803312 0.226585 -0.550771
vn 0.052769 -0.102251 0.993358
vn 0.052769 -0.102251 0.993358
vn 0.052769 -0.102251 0.993358
vn 0.052769 -0.102251 0.993358
vn -0.877827 -0.111315 -0.465863
vn -0.877827 -0.111315 -0.465863
vn -0.877827 -0.111315 -0.465863
vn -0.877827 -0.111315 -0.465863
vn 0.211235 -0.185618 -0.959649
vn 0.211235 -0.185618 -0.959649
vn 0.211235 -0.185618 -0.959649
vn 0.211235 -0.185618 -0.959649
vn 0.884920 -0.129221 0.447458
vn 0.884920 -0.129221 0.447458
vn 0.884920 -0.129221 0.447458
vn 0.884920 -0.129221 0.447458
s off
f 12/1/1 14/2/2 13/3/3 2/4/4 9/5/5
f 11/6/6 6/7/7 4/8/8 17/9/9
f 10/10/10 8/11/11 6/7/12 11/6/13
f 9/5/14 2/4/15 19/12/16 18/13/17
f 2/4/18 13/3/19 4/8/20 19/12/21
f 16/14/22 3/15/23 1/16/24
f 1/16/25 9/5/26 18/13/27
f 16/14/28 15/17/29 11/6/30 17/9/31
f 14/2/32 4/8/33 13/3/34
f 5/18/35 7/19/36 10/10/37 15/17/38
f 16/14/39 5/18/40 15/17/41
f 1/16/42 3/15/43 12/1/44 9/5/45
f 7/19/46 5/18/47 16/14/48 1/16/49
f 20/20/50 21/21/51 22/22/52 23/23/53
f 25/24/54 24/25/55 23/23/56 22/22/57
f 10/10/58 11/6/59 15/17/60
f 27/26/61 26/27/62 28/28/63 29/29/64
f 19/12/65 8/11/66 10/10/67 18/13/68
f 4/8/69 6/7/70 8/11/71 19/12/72
f 3/15/73 16/14/74 21/21/75 20/20/76
f 16/14/77 17/9/78 22/22/79 21/21/80
f 12/1/81 3/15/82 20/20/83 23/23/84
f 4/8/85 14/2/86 24/25/87 25/24/88
f 14/2/89 12/1/90 23/23/91 24/25/92
f 17/9/93 4/8/94 25/24/95 22/22/96
f 7/19/97 1/16/98 26/27/99 27/26/100
f 1/16/101 18/13/102 28/28/103 26/27/104
f 18/13/105 10/10/106 29/29/107 28/28/108
f 10/10/109 7/19/110 27/26/111 29/29/112
