# This file uses centimeters as units for non-parametric coordinates.

v 0.000000 -0.000009 125.000000
v 0.000000 12.499993 125.000000
v 38.833984 37.499992 31.248047
v 12.944336 12.499993 93.749023
v 12.944336 24.999992 93.749023
v 25.888672 24.999992 62.498047
v 25.888672 37.499996 62.498047
v 38.833984 49.999992 31.248047
v 51.778320 49.999992 -0.002930
v 51.778320 -0.000006 -0.002930
v 0.000000 -0.000006 -0.002930
v 0.000000 12.499993 93.749023
v 0.000000 24.999992 93.749023
v 0.000000 24.999992 62.498047
v 0.000000 37.499992 62.498047
v 0.000000 37.499992 31.248047
v 0.000000 49.999992 31.248047
v 0.000000 49.999992 -0.002930
v 500.002930 -0.000006 500.000000
v 375.000000 -0.000009 500.000000
v 375.000000 12.499993 500.000000
v 406.250977 12.499993 500.000000
v 406.250977 24.999992 500.000000
v 437.501953 24.999992 500.000000
v 437.501953 37.499992 500.000000
v 468.751953 37.499992 500.000000
v 468.751953 49.999992 500.000000
v 500.002930 49.999992 500.000000
v 468.751953 37.499992 461.166016
v 406.250977 12.499993 487.055664
v 406.250977 24.999992 487.055664
v 437.501953 24.999992 474.111328
v 437.501953 37.499996 474.111328
v 468.751953 49.999992 461.166016
v 500.002930 49.999992 448.221680
v 500.002930 -0.000006 448.221680
v 500.000000 -0.000006 0.000000
v 500.000000 49.999992 0.000000
v 253.792969 49.999992 246.207031
v 253.792969 37.499992 246.207031
v 127.022461 37.499996 155.014648
v 127.100586 24.999992 160.659180
v 329.783203 24.999992 405.103516
v 323.012695 12.499993 406.826172
v 187.500000 12.499993 312.500000
v 266.311523 49.999992 214.732422
v 68.345703 49.999992 21.610352
v 404.235413 49.999992 16.931620
v 284.799805 49.999992 233.220703
v 450.790833 49.999992 64.413246
v 477.571289 49.999992 431.186523
v 266.282227 46.287472 207.402344
v 83.255859 46.287472 28.854492
v 425.803711 46.287476 51.810947
v 291.719727 46.287472 233.279297
v 448.879364 46.287472 75.410522
v 470.838867 46.287472 417.225586
v 416.952148 49.999992 409.366211
v 324.096680 49.999992 316.510742
v 374.828125 37.499992 367.243164
v 388.290039 49.999992 359.829102
v 327.137695 49.999992 190.691406
v 395.442383 49.999992 122.079102
v 367.677734 46.287472 156.978516
v 358.128906 49.999992 147.545898
v 398.833008 49.999992 358.479492
v 402.804688 46.287472 347.358398
v 188.821289 49.999992 139.138672
v 135.288086 49.999992 86.914063
v 162.920898 46.287472 106.570313
v 147.410156 49.999992 114.020508
v 472.633789 46.287472 150.095703
v 479.163086 49.999992 194.237305
v 481.153900 49.999992 99.222496
v 487.895508 49.999992 147.125977
v 211.693359 24.999992 289.057617
v 130.429688 24.999992 209.201172
v 181.066406 24.999992 241.002930
v 165.787109 19.227928 247.814453
v 355.381836 49.999992 144.618164
v 414.341797 49.999992 78.533203
v 405.820313 46.287472 72.856445
v 242.448578 49.999992 14.431214
v 243.890594 46.287468 32.231430
v 403.291260 46.287472 28.787420
v 438.209442 49.999992 49.740505
v 472.969727 46.287472 100.047874
vt 0.218823 0.852446
vt 0.172594 0.594276
vt 0.175760 0.853570
vt 0.120429 0.855014
vt 0.070002 0.848679
vt 0.215239 0.842973
vt 0.210201 0.830677
vt 0.172585 0.831020
vt 0.119394 0.823285
vt 0.206508 0.820929
vt 0.210883 0.831974
vt 0.174077 0.834172
vt 0.214521 0.841584
vt 0.071717 0.846018
vt 0.191956 0.595486
vt 0.219576 0.853926
vt 0.195606 0.854551
vt 0.120330 0.856512
vt 0.176152 0.602571
vt 0.152724 0.855668
vt 0.177437 0.859497
vt 0.179487 0.861971
vt 0.124837 0.865753
vt 0.205863 0.819724
vt 0.033583 0.824391
vt 0.022708 0.862363
vt 0.220083 0.857239
vt 0.032730 0.825630
vt 0.026542 0.832745
vt 0.009577 0.852001
vt 0.232462 0.846143
vt 0.213360 0.827730
vt 0.025627 0.834057
vt 0.019490 0.841111
vt 0.018513 0.842497
vt 0.012428 0.849490
vt 0.011389 0.850950
vt 0.005355 0.857881
vt 0.022609 0.857568
vt 0.025337 0.847985
vt 0.029908 0.835501
vt 0.029025 0.836833
vt 0.026250 0.846560
vt 0.021668 0.859084
vt 0.018985 0.868525
vt 0.220874 0.835754
vt 0.214071 0.829005
vt 0.228406 0.843798
vt 0.221652 0.837102
vt 0.235956 0.851860
vt 0.229251 0.845217
vt 0.030892 0.606075
vt 0.066301 0.606254
vt 0.112229 0.606486
vt 0.114932 0.661762
vt 0.223107 0.863262
vt 0.113782 0.605354
vt 0.079240 0.605180
vt 0.064013 0.601829
vt 0.124629 0.942791
vt 0.124405 0.950844
vt 0.116418 0.865970
vt 0.100170 0.579005
vt 0.117880 0.575112
vt 0.098212 0.573682
vt 0.081569 0.866470
vt 0.124343 0.637603
vt 0.123764 0.606318
vt 0.174415 0.605357
vt 0.205471 0.604768
vt 0.145992 0.659546
vt 0.066091 0.863430
vt 0.117960 0.662806
vt 0.108639 0.676400
vt 0.057517 0.866815
vt 0.122470 0.622986
vt 0.123523 0.676500
vt 0.138423 0.669695
vt 0.148671 0.663574
vt 0.156998 0.652630
vt 0.210339 0.603625
vt 0.123013 0.650567
vt 0.027469 0.867246
vt 0.114928 0.674068
vt 0.082710 0.835848
vt 0.101989 0.839478
vt 0.119913 0.835166
vt 0.081313 0.575051
vt 0.099856 0.834063
vt 0.122125 0.898070
vt 0.121630 0.921774
vt 0.069267 0.902728
vt 0.106962 0.931493
vt 0.123368 0.898004
vt 0.125467 0.883235
vt 0.125016 0.674022
vt 0.126747 0.930855
vt 0.055371 0.605059
vt 0.140462 0.929726
vt 0.151940 0.921956
vt 0.160148 0.911358
vt 0.025518 0.604908
vt 0.214141 0.862353
vt 0.121025 0.931367
vt 0.032976 0.868248
vt 0.122122 0.605300
vt 0.120128 0.638079
vt 0.068591 0.867737
vt 0.114862 0.867075
vt 0.118612 0.920755
vt 0.118753 0.928231
vt 0.149759 0.595764
vt 0.109170 0.928553
vt 0.174114 0.600059
vt 0.073276 0.898930
vt 0.126431 0.909996
vt 0.138854 0.927557
vt 0.128583 0.927901
vt 0.127542 0.897395
vt 0.066821 0.640433
vt 0.068083 0.638144
vt 0.126493 0.866683
vt 0.104560 0.669598
vt 0.177660 0.864737
vt 0.117486 0.669961
vt 0.209111 0.863541
vt 0.149242 0.918091
vt 0.135456 0.669250
vn 0.000000 1.000000 -0.000000
vn 0.000000 1.000000 -0.000000
vn 0.000000 1.000000 -0.000000
vn 0.000000 1.000000 -0.000000
vn 0.000000 1.000000 0.000000
vn 0.000000 1.000000 0.000000
vn 0.000000 1.000000 0.000000
vn 0.000000 1.000000 -0.000000
vn 0.000000 1.000000 -0.000000
vn 0.000000 1.000000 -0.000000
vn 0.000000 1.000000 -0.000000
vn -0.692642 0.234581 0.682069
vn -0.692642 0.234581 0.682069
vn -0.692642 0.234581 0.682069
vn -0.692642 0.234581 0.682069
vn 0.000000 1.000000 -0.000000
vn 0.000000 1.000000 -0.000000
vn 0.000000 1.000000 -0.000000
vn 0.000000 1.000000 -0.000000
vn -0.705138 0.154066 0.692131
vn -0.705138 0.154066 0.692131
vn -0.705138 0.154066 0.692131
vn -0.705138 0.154066 0.692131
vn -0.707104 0.000021 0.707109
vn -0.707104 0.000021 0.707109
vn -0.707104 0.000021 0.707109
vn -0.707104 0.000021 0.707109
vn 0.000000 1.000000 -0.000000
vn 0.000000 1.000000 -0.000000
vn 0.000000 1.000000 -0.000000
vn 0.000000 1.000000 -0.000000
vn 0.000000 1.000000 0.000000
vn 0.000000 1.000000 0.000000
vn 0.000000 1.000000 0.000000
vn 0.000000 -1.000000 -0.000000
vn 0.000000 -1.000000 -0.000000
vn 0.000000 -1.000000 -0.000000
vn 0.000000 -1.000000 -0.000000
vn -1.000000 0.000000 0.000000
vn -1.000000 0.000000 0.000000
vn -1.000000 0.000000 0.000000
vn -1.000000 0.000000 0.000000
vn 0.000000 0.000000 1.000000
vn 0.000000 0.000000 1.000000
vn 0.000000 0.000000 1.000000
vn 0.000000 0.000000 1.000000
vn -0.707107 0.000000 0.707107
vn -0.707107 0.000000 0.707107
vn -0.707107 0.000000 0.707107
vn -0.707107 0.000000 0.707107
vn -0.707107 0.000000 0.707107
vn -0.707107 0.000000 0.707107
vn -0.707107 0.000000 0.707107
vn -1.000000 0.000000 0.000000
vn -1.000000 0.000000 0.000000
vn -1.000000 0.000000 0.000000
vn -1.000000 0.000000 0.000000
vn -1.000000 0.000000 0.000000
vn -1.000000 0.000000 0.000000
vn -1.000000 0.000000 0.000000
vn -1.000000 0.000000 0.000000
vn -1.000000 0.000000 0.000000
vn -1.000000 0.000000 0.000000
vn -1.000000 0.000000 0.000000
vn -1.000000 0.000000 0.000000
vn -0.000000 1.000000 0.000000
vn -0.000000 1.000000 0.000000
vn -0.000000 1.000000 0.000000
vn -0.000000 1.000000 0.000000
vn 0.000000 1.000000 0.000000
vn 0.000000 1.000000 0.000000
vn 0.000000 1.000000 0.000000
vn 0.000000 0.000000 1.000000
vn 0.000000 0.000000 1.000000
vn 0.000000 0.000000 1.000000
vn 0.000000 0.000000 1.000000
vn 0.000000 1.000000 0.000000
vn 0.000000 1.000000 0.000000
vn 0.000000 1.000000 0.000000
vn 0.000000 1.000000 0.000000
vn 0.000000 0.000000 1.000000
vn 0.000000 0.000000 1.000000
vn 0.000000 0.000000 1.000000
vn 0.000000 0.000000 1.000000
vn 0.000000 0.000000 1.000000
vn 0.000000 0.000000 1.000000
vn 0.000000 0.000000 1.000000
vn 0.000000 0.000000 1.000000
vn 0.000000 1.000000 -0.000000
vn 0.000000 1.000000 -0.000000
vn 0.000000 1.000000 -0.000000
vn 0.000000 1.000000 -0.000000
vn 0.000000 -1.000000 -0.000000
vn 0.000000 -1.000000 -0.000000
vn 0.000000 -1.000000 -0.000000
vn 0.000000 0.000000 -1.000000
vn 0.000000 0.000000 -1.000000
vn 0.000000 0.000000 -1.000000
vn 0.000000 0.000000 -1.000000
vn 0.000000 0.000000 1.000000
vn 0.000000 0.000000 1.000000
vn 0.000000 0.000000 1.000000
vn 0.000000 0.000000 1.000000
vn -0.000001 0.000000 1.000000
vn -0.000001 0.000000 1.000000
vn -0.000001 0.000000 1.000000
vn -0.000001 0.000000 1.000000
vn 0.000000 0.000000 1.000000
vn 0.000000 0.000000 1.000000
vn 0.000000 0.000000 1.000000
vn 0.000000 0.000000 1.000000
vn 0.000000 1.000000 0.000000
vn 0.000000 1.000000 0.000000
vn 0.000000 1.000000 0.000000
vn 0.000000 1.000000 0.000000
vn 0.000000 1.000000 0.000000
vn 0.000000 1.000000 0.000000
vn 0.000000 1.000000 0.000000
vn -1.000000 0.000000 0.000000
vn -1.000000 0.000000 0.000000
vn -1.000000 0.000000 0.000000
vn -1.000000 0.000000 0.000000
vn 0.000000 1.000000 0.000000
vn 0.000000 1.000000 0.000000
vn 0.000000 1.000000 0.000000
vn 0.000000 1.000000 0.000000
vn -1.000000 0.000000 0.000000
vn -1.000000 0.000000 0.000000
vn -1.000000 0.000000 0.000000
vn -1.000000 0.000000 0.000000
vn -1.000000 0.000000 0.000000
vn -1.000000 0.000000 0.000000
vn -1.000000 0.000000 0.000000
vn -1.000000 0.000000 0.000000
vn 0.000000 1.000000 0.000000
vn 0.000000 1.000000 0.000000
vn 0.000000 1.000000 0.000000
vn 0.000000 1.000000 0.000000
vn 0.000000 -1.000000 0.000000
vn 0.000000 -1.000000 0.000000
vn 0.000000 -1.000000 0.000000
vn 1.000000 0.000000 0.000000
vn 1.000000 0.000000 0.000000
vn 1.000000 0.000000 0.000000
vn 1.000000 0.000000 0.000000
vn 0.000000 -1.000000 -0.000000
vn 0.000000 -1.000000 -0.000000
vn 0.000000 -1.000000 -0.000000
vn 0.000007 0.000000 -1.000000
vn 0.000007 0.000000 -1.000000
vn 0.000007 0.000000 -1.000000
vn 0.000007 0.000000 -1.000000
vn 1.000000 0.000000 -0.000007
vn 1.000000 0.000000 -0.000007
vn 1.000000 0.000000 -0.000007
vn 1.000000 0.000000 -0.000007
vn 0.000000 1.000000 0.000000
vn 0.000000 1.000000 0.000000
vn 0.000000 1.000000 0.000000
vn 0.000000 1.000000 0.000000
vn 0.000000 1.000000 0.000000
vn 0.000000 1.000000 0.000000
vn 0.000000 1.000000 0.000000
vn 0.000000 1.000000 0.000000
vn 0.000000 1.000000 0.000000
vn 0.000000 1.000000 0.000000
vn 0.000000 1.000000 0.000000
vn 0.000000 1.000000 0.000000
vn 0.000000 1.000000 0.000000
vn 0.000000 1.000000 0.000000
vn -0.707107 0.000000 0.707107
vn -0.707107 0.000000 0.707107
vn -0.707107 0.000000 0.707107
vn -0.707107 0.000000 0.707107
vn 0.000000 1.000000 0.000000
vn 0.000000 1.000000 0.000000
vn 0.000000 1.000000 0.000000
vn 0.000000 1.000000 0.000000
vn -0.676968 0.160084 0.718393
vn -0.676968 0.160084 0.718393
vn -0.676968 0.160084 0.718393
vn -0.676968 0.160084 0.718393
vn 0.000000 1.000000 0.000000
vn 0.000000 1.000000 0.000000
vn 0.000000 1.000000 0.000000
vn 0.000000 1.000000 0.000000
vn 0.000000 1.000000 0.000000
vn 0.000000 1.000000 0.000000
vn 0.000000 1.000000 0.000000
vn 0.000000 1.000000 0.000000
vn 0.000000 1.000000 0.000000
vn 0.000000 1.000000 0.000000
vn 0.000000 1.000000 0.000000
vn 0.000000 1.000000 0.000000
vn 0.000000 1.000000 0.000000
vn -0.632386 0.431233 0.643526
vn -0.632386 0.431233 0.643526
vn -0.632386 0.431233 0.643526
vn -0.632386 0.431233 0.643526
vn -0.702210 0.123094 0.701249
vn -0.702210 0.123094 0.701249
vn -0.702210 0.123094 0.701249
vn -0.702210 0.123094 0.701249
vn -0.710249 0.027234 0.703423
vn -0.710249 0.027234 0.703423
vn -0.710249 0.027234 0.703423
vn 0.000000 1.000000 0.000000
vn 0.000000 1.000000 0.000000
vn 0.000000 1.000000 0.000000
vn 0.000000 1.000000 0.000000
vn 0.000000 1.000000 0.000000
vn 0.000000 1.000000 0.000000
vn 0.000000 1.000000 0.000000
vn 0.000000 1.000000 0.000000
vn 0.000000 1.000000 -0.000000
vn 0.000000 1.000000 -0.000000
vn 0.000000 1.000000 -0.000000
vn 0.000000 1.000000 -0.000000
vn 0.000000 1.000000 0.000000
vn 0.000000 1.000000 0.000000
vn 0.000000 1.000000 0.000000
vn 0.000000 1.000000 -0.000000
vn 0.000000 1.000000 -0.000000
vn 0.000000 1.000000 -0.000000
vn 0.000000 1.000000 -0.000000
vn 0.000000 1.000000 0.000000
vn 0.000000 1.000000 0.000000
vn 0.000000 1.000000 0.000000
vn 0.000000 1.000000 -0.000000
vn 0.000000 1.000000 -0.000000
vn 0.000000 1.000000 -0.000000
vn 0.000000 1.000000 -0.000000
vn 0.000000 1.000000 0.000000
vn 0.000000 1.000000 0.000000
vn 0.000000 1.000000 0.000000
vn 0.000000 1.000000 0.000000
vn 0.000000 1.000000 0.000000
vn 0.000000 1.000000 0.000000
vn 0.000000 1.000000 0.000000
vn 0.000000 1.000000 0.000000
vn 0.000000 1.000000 0.000000
vn -0.298786 0.900008 -0.317352
vn -0.298786 0.900008 -0.317352
vn -0.298786 0.900008 -0.317352
vn -0.298786 0.900008 -0.317352
vn -0.273595 0.923893 0.267521
vn -0.273595 0.923893 0.267521
vn -0.273595 0.923893 0.267521
vn 0.314479 0.902002 -0.295795
vn 0.314479 0.902002 -0.295795
vn 0.314479 0.902002 -0.295795
vn 0.314479 0.902002 -0.295795
vn -0.319744 0.901100 0.292888
vn -0.319744 0.901100 0.292888
vn -0.319744 0.901100 0.292888
vn -0.319744 0.901100 0.292888
vn -0.546231 0.775722 0.316049
vn -0.546231 0.775722 0.316049
vn -0.546231 0.775722 0.316049
vn -0.707109 0.000021 0.707105
vn -0.707109 0.000021 0.707105
vn -0.707109 0.000021 0.707105
vn -0.707109 0.000021 0.707105
vn -0.377383 0.738125 0.559243
vn -0.377383 0.738125 0.559243
vn -0.377383 0.738125 0.559243
vn 0.152907 0.962511 0.224037
vn 0.152907 0.962511 0.224037
vn 0.152907 0.962511 0.224037
vn 0.425460 0.799744 0.423548
vn 0.425460 0.799744 0.423548
vn 0.425460 0.799744 0.423548
vn 0.425460 0.799744 0.423548
vn 0.000000 1.000000 0.000000
vn 0.000000 1.000000 0.000000
vn 0.000000 1.000000 0.000000
vn 0.000000 1.000000 0.000000
vn 0.000000 1.000000 0.000000
vn 0.000000 1.000000 0.000000
vn 0.000000 1.000000 0.000000
vn 0.000000 1.000000 0.000000
vn 0.292289 0.907760 -0.300896
vn 0.292289 0.907760 -0.300896
vn 0.292289 0.907760 -0.300896
vn 0.292289 0.907760 -0.300896
vn 0.404376 0.815263 -0.414520
vn 0.404376 0.815263 -0.414520
vn 0.404376 0.815263 -0.414520
vn 0.404376 0.815263 -0.414520
vn 0.404410 0.815228 -0.414556
vn 0.404410 0.815228 -0.414556
vn 0.404410 0.815228 -0.414556
vn 0.404410 0.815228 -0.414556
vn 0.129353 0.968395 -0.213259
vn 0.129353 0.968395 -0.213259
vn 0.129353 0.968395 -0.213259
vn 0.192594 0.977491 -0.086129
vn 0.192594 0.977491 -0.086129
vn 0.192594 0.977491 -0.086129
vn -0.477779 0.878474 -0.003210
vn -0.477779 0.878474 -0.003210
vn -0.477779 0.878474 -0.003210
vn -0.477779 0.878474 -0.003210
vn -0.244437 0.968606 -0.045308
vn -0.244437 0.968606 -0.045308
vn -0.244437 0.968606 -0.045308
vn -0.230282 0.972584 0.032408
vn -0.230282 0.972584 0.032408
vn -0.230282 0.972584 0.032408
vn -0.204035 0.923485 0.324877
vn -0.204035 0.923485 0.324877
vn -0.204035 0.923485 0.324877
vn -0.277769 0.944195 0.177032
vn -0.277769 0.944195 0.177032
vn -0.277769 0.944195 0.177032
vn 0.219001 0.962961 0.157307
vn 0.219001 0.962961 0.157307
vn 0.219001 0.962961 0.157307
vn 0.000000 1.000000 0.000000
vn 0.000000 1.000000 0.000000
vn 0.000000 1.000000 0.000000
vn -0.239515 0.938679 0.248021
vn -0.239515 0.938679 0.248021
vn -0.239515 0.938679 0.248021
vn 0.003207 0.959315 0.282320
vn 0.003207 0.959315 0.282320
vn 0.003207 0.959315 0.282320
vn 0.003207 0.959315 0.282320
vn 0.000713 0.970060 0.242864
vn 0.000713 0.970060 0.242864
vn 0.000713 0.970060 0.242864
vn 0.000713 0.970060 0.242864
vn 0.000000 1.000000 -0.000000
vn 0.000000 1.000000 -0.000000
vn 0.000000 1.000000 -0.000000
vn -0.000000 1.000000 -0.000000
vn -0.000000 1.000000 -0.000000
vn -0.000000 1.000000 -0.000000
vn -0.000000 1.000000 -0.000000
vn -0.000000 1.000000 0.000000
vn -0.000000 1.000000 0.000000
vn -0.000000 1.000000 0.000000
vn -0.000000 1.000000 0.000000
vn -0.285022 0.925133 -0.250782
vn -0.285022 0.925133 -0.250782
vn -0.285022 0.925133 -0.250782
vn -0.285022 0.925133 -0.250782
vn 0.000000 1.000000 -0.000000
vn 0.000000 1.000000 -0.000000
vn 0.000000 1.000000 -0.000000
vn 0.000000 1.000000 -0.000000
vn 0.000000 1.000000 0.000000
vn 0.000000 1.000000 0.000000
vn 0.000000 1.000000 0.000000
vn 0.000000 1.000000 0.000000
vn 0.000000 1.000000 0.000000
vn 0.000000 1.000000 0.000000
vn 0.000000 1.000000 0.000000
vn 0.400709 0.827644 0.392985
vn 0.400709 0.827644 0.392985
vn 0.400709 0.827644 0.392985
vn 0.400709 0.827644 0.392985
vn 0.000000 1.000000 0.000000
vn 0.000000 1.000000 0.000000
vn 0.000000 1.000000 0.000000
vn 0.000000 1.000000 -0.000000
vn 0.000000 1.000000 -0.000000
vn 0.000000 1.000000 -0.000000
vn 0.000000 1.000000 -0.000000
vn 0.000000 1.000000 0.000000
vn 0.000000 1.000000 0.000000
vn 0.000000 1.000000 0.000000
vn 0.000000 1.000000 0.000000
vn -0.413335 0.910575 -0.002775
vn -0.413335 0.910575 -0.002775
vn -0.413335 0.910575 -0.002775
s off
f 40/4/1 41/5/2 33/6/3 60/3/4
f 29/1/5 60/3/6 33/6/7
f 30/7/8 44/8/9 45/9/10 21/10/11
f 31/11/12 43/12/13 44/8/14 30/7/15
f 32/13/16 42/14/17 43/12/18 31/11/19
f 33/6/20 41/5/21 42/14/22 32/13/23
f 34/16/24 58/17/25 60/3/26 29/1/27
f 61/21/28 66/22/29 49/23/30 59/20/31
f 39/18/32 59/20/33 49/23/34
f 20/24/35 1/25/36 10/26/37 36/27/38
f 12/29/39 11/30/40 1/25/41 2/28/42
f 20/24/43 19/31/44 22/32/45 21/10/46
f 20/24/47 21/10/48 45/9/49 1/25/50
f 45/9/51 2/28/52 1/25/53
f 12/29/54 13/33/55 14/34/56 11/30/57
f 14/34/58 15/35/59 16/36/60 11/30/61
f 16/36/62 17/37/63 18/38/64 11/30/65
f 3/39/66 16/36/67 15/35/68 7/40/69
f 4/41/70 12/29/71 2/28/72
f 5/42/73 13/33/74 12/29/75 4/41/76
f 6/43/77 14/34/78 13/33/79 5/42/80
f 7/40/81 15/35/82 14/34/83 6/43/84
f 8/44/85 17/37/86 16/36/87 3/39/88
f 9/45/89 18/38/90 17/37/91 8/44/92
f 1/25/93 11/30/94 10/26/95
f 10/26/96 11/30/97 18/38/98 9/45/99
f 22/32/100 19/31/101 24/46/102 23/47/103
f 24/46/104 19/31/105 26/48/106 25/49/107
f 26/48/108 19/31/109 28/50/110 27/51/111
f 29/1/112 33/6/113 25/49/114 26/48/115
f 30/7/116 21/10/117 22/32/118
f 31/11/119 30/7/120 22/32/121 23/47/122
f 32/13/123 31/11/124 23/47/125 24/46/126
f 33/6/127 32/13/128 24/46/129 25/49/130
f 34/16/131 29/1/132 26/48/133 27/51/134
f 35/56/135 34/16/136 27/51/137 28/50/138
f 20/24/139 36/27/140 19/31/141
f 36/27/142 35/56/143 28/50/144 19/31/145
f 36/27/146 10/26/147 37/60/148
f 10/26/149 9/45/150 38/61/151 37/60/152
f 35/56/153 36/27/154 37/60/155 38/61/156
f 9/45/157 8/44/158 47/83/159
f 47/83/160 8/44/161 39/18/162 71/72/163
f 39/18/164 46/62/165 68/66/166 71/72/167
f 71/72/168 69/75/169 47/83/170
f 40/4/171 39/18/172 8/44/173 3/39/174
f 41/5/175 40/4/176 3/39/177 7/40/178
f 42/14/179 41/5/180 7/40/181 6/43/182
f 42/14/183 6/43/184 5/42/185 77/85/186
f 77/85/187 78/86/188 42/14/189
f 42/14/190 78/86/191 43/12/192
f 43/12/193 78/86/194 76/87/195
f 44/8/196 43/12/197 76/87/198 79/89/199
f 77/85/200 5/42/201 4/41/202 79/89/203
f 44/8/204 79/89/205 4/41/206
f 45/9/207 44/8/208 4/41/209 2/28/210
f 39/18/211 80/90/212 81/91/213 46/62/214
f 48/93/215 38/61/216 9/45/217 83/92/218
f 9/45/219 47/83/220 83/92/221
f 80/90/222 39/18/223 49/23/224 65/94/225
f 65/94/226 49/23/227 62/95/228
f 51/103/229 35/56/230 38/61/231 75/100/232
f 50/97/233 74/99/234 38/61/235
f 74/99/236 75/100/237 38/61/238
f 75/100/239 73/101/240 51/103/241
f 46/57/242 81/73/243 82/55/244 52/54/245
f 48/74/246 85/123/247 54/84/248
f 49/106/249 66/19/250 67/69/251 55/68/252
f 87/128/253 74/78/254 50/77/255 56/96/256
f 58/15/257 61/114/258 60/2/259
f 60/3/260 59/20/261 39/18/262 40/4/263
f 60/2/264 61/114/265 59/112/266
f 63/82/267 65/107/268 64/67/269
f 64/67/270 62/76/271 49/106/272 55/68/273
f 34/16/274 35/56/275 51/103/276 58/17/277
f 66/22/278 61/21/279 58/17/280 51/103/281
f 67/69/282 66/19/283 51/81/284 57/70/285
f 70/53/286 68/58/287 46/57/288 52/54/289
f 47/102/290 69/98/291 70/53/292 53/52/293
f 70/53/294 71/59/295 68/58/296
f 69/98/297 71/59/298 70/53/299
f 51/81/300 73/80/301 72/71/302 57/70/303
f 73/80/304 75/79/305 72/71/306
f 72/71/307 75/79/308 74/78/309
f 79/65/310 78/63/311 77/88/312
f 76/64/313 78/63/314 79/65/315
f 64/67/316 65/107/317 62/76/318
f 86/104/319 38/61/320 48/93/321
f 54/84/322 86/125/323 48/74/324
f 84/121/325 83/120/326 47/102/327 53/52/328
f 85/123/329 48/74/330 83/120/331 84/121/332
f 53/105/333 70/108/334 84/115/335
f 84/115/336 70/108/337 52/109/338 82/110/339
f 82/110/340 54/111/341 85/113/342 84/115/343
f 82/55/344 81/73/345 86/125/346 54/84/347
f 81/91/348 80/90/349 38/61/350 86/104/351
f 50/97/352 38/61/353 80/90/354 65/94/355
f 50/97/356 65/94/357 63/116/358
f 56/96/359 50/77/360 63/82/361 64/67/362
f 57/126/363 72/127/364 67/124/365
f 55/122/366 67/124/367 72/127/368 64/119/369
f 87/117/370 56/118/371 64/119/372 72/127/373
f 72/71/374 74/78/375 87/128/376
