# This file uses centimeters as units for non-parametric coordinates.

v 178.929565 27.935181 -94.170746
v -250.937469 -9.952652 254.251312
v -1.232300 296.809692 24.637177
v 97.102356 86.580444 37.081482
v 39.727112 178.224426 29.471619
v -37.741516 46.446350 -141.319656
v -47.639618 57.845901 153.186646
v -4.748596 203.243896 58.967041
v -157.863800 29.117889 -114.137070
v -22.091980 292.229736 12.841492
v 31.271240 238.571533 -15.766052
v -134.647247 -9.952652 -318.059998
v -28.166992 -9.952652 -347.268280
v 144.961639 -9.952652 303.123535
v 81.229614 13.236547 259.675079
v 192.476288 15.746433 150.046936
v -12.356323 142.438904 -57.424164
v 93.288025 106.553040 -52.639786
v 253.332275 -9.952652 218.558975
v 217.293213 15.939878 83.167236
v 342.731506 -9.952652 39.833130
v 62.269104 63.055939 -113.823029
v 306.957672 -9.952652 -143.807129
v 127.538757 6.651798 -240.836594
v 154.876953 -9.952652 -301.536011
v -181.825378 11.148044 -185.417358
v -262.040955 -9.952652 -227.822418
v -338.300659 -9.952652 65.712692
v -319.801849 -9.952652 -102.881104
v -189.621277 12.508684 137.376694
v -324.230835 -9.952652 139.737885
v -104.710907 32.793350 158.044510
v -174.125671 30.873070 62.144974
v -83.622314 102.400208 19.967377
v -47.112122 -9.952652 345.773071
v 11.948730 91.434021 131.789917
v -83.342346 74.896637 64.095139
v -225.896698 12.777511 -72.083084
v -102.253265 22.350697 217.556671
v 17.028076 153.562317 79.514740
v 25.782898 45.373276 210.723587
v 11.864502 16.886997 -221.194183
v 240.348999 -9.952652 -233.127274
v -75.881012 99.905823 -39.838867
v -55.360901 77.843781 -71.141006
vt 0.400052 0.355110
vt 0.400844 0.355123
vt 0.400362 0.354679
vt 0.400275 0.354989
vt 0.400316 0.354891
vt 0.400218 0.355030
vt 0.400545 0.355065
vt 0.400519 0.355018
vt 0.400459 0.355052
vt 0.400668 0.355117
vt 0.400405 0.354927
vt 0.400597 0.355106
vt 0.400095 0.355067
vt 0.399844 0.355136
vt 0.400308 0.355044
vt 0.400336 0.355037
vt 0.400696 0.355071
vt 0.400505 0.355046
vt 0.400677 0.355088
vt 0.400765 0.355087
vt 0.400588 0.355094
vt 0.400551 0.355063
vt 0.400456 0.354969
vt 0.400775 0.355192
vt 0.400466 0.355026
vt 0.400442 0.354848
vt 0.400357 0.355036
vt 0.400382 0.354708
vt 0.400262 0.354793
vt 0.400136 0.355045
vt 0.400009 0.355060
vt 0.400548 0.355232
vt 0.400645 0.355170
vt 0.400305 0.355184
vt 0.400260 0.354914
vt 0.400169 0.354945
vt 0.400312 0.355243
vt 0.400202 0.355174
vt 0.400011 0.355222
vt 0.400151 0.355032
vt 0.399859 0.355170
vt 0.399961 0.355101
vt 0.399871 0.355103
vt 0.400368 0.354895
vt 0.400290 0.354951
vn -0.205073 0.974246 -0.093752
vn -0.205073 0.974246 -0.093752
vn -0.205073 0.974246 -0.093752
vn -0.308771 0.941705 -0.133609
vn -0.308771 0.941706 -0.133609
vn -0.308771 0.941705 -0.133609
vn -0.536915 0.838376 0.094062
vn -0.536915 0.838376 0.094062
vn -0.536915 0.838376 0.094062
vn -0.161766 0.986350 0.030747
vn -0.161766 0.986350 0.030747
vn -0.161766 0.986350 0.030747
vn -0.164008 0.986013 0.029669
vn -0.164008 0.986013 0.029669
vn -0.164008 0.986013 0.029669
vn -0.659707 0.635899 0.400523
vn -0.659707 0.635899 0.400523
vn -0.659707 0.635899 0.400523
vn -0.436667 0.898378 0.047308
vn -0.436667 0.898378 0.047308
vn -0.436667 0.898378 0.047308
vn -0.380562 0.883769 -0.272259
vn -0.380562 0.883769 -0.272259
vn -0.380562 0.883769 -0.272259
vn -0.227448 0.973471 -0.024957
vn -0.227448 0.973470 -0.024957
vn -0.227448 0.973470 -0.024957
vn -0.245163 0.967783 0.057371
vn -0.245163 0.967783 0.057371
vn -0.245163 0.967783 0.057371
vn -0.161932 0.981344 0.103643
vn -0.161932 0.981344 0.103643
vn -0.161932 0.981344 0.103643
vn -0.295154 0.895158 0.334031
vn -0.295154 0.895158 0.334031
vn -0.295154 0.895158 0.334031
vn -0.434970 0.891304 0.127980
vn -0.434970 0.891304 0.127980
vn -0.434970 0.891304 0.127980
vn -0.132647 0.946116 0.295415
vn -0.132647 0.946116 0.295415
vn -0.132647 0.946116 0.295415
vn -0.167021 0.969919 0.177090
vn -0.167021 0.969919 0.177090
vn -0.167021 0.969919 0.177090
vn -0.383223 0.906933 0.174966
vn -0.383223 0.906933 0.174966
vn -0.383223 0.906933 0.174966
vn -0.152990 0.940695 0.302798
vn -0.152990 0.940695 0.302798
vn -0.152990 0.940695 0.302798
vn -0.143831 0.913117 0.381484
vn -0.143831 0.913117 0.381484
vn -0.143831 0.913117 0.381484
vn -0.269962 0.810288 0.520148
vn -0.269962 0.810288 0.520148
vn -0.269962 0.810288 0.520148
vn 0.131416 0.890437 0.435720
vn 0.131416 0.890437 0.435720
vn 0.131416 0.890437 0.435720
vn -0.930145 0.308942 0.198456
vn -0.930145 0.308942 0.198456
vn -0.930145 0.308942 0.198456
vn -0.481711 0.327454 0.812852
vn -0.481710 0.327454 0.812852
vn -0.481710 0.327454 0.812852
vn -0.773046 0.489497 0.403475
vn -0.773046 0.489497 0.403475
vn -0.773046 0.489497 0.403475
vn -0.359424 0.879354 0.312331
vn -0.359424 0.879354 0.312331
vn -0.359424 0.879354 0.312331
vn 0.628245 0.247072 0.737742
vn 0.628245 0.247072 0.737742
vn 0.628245 0.247072 0.737742
vn 0.655773 0.515544 0.551521
vn 0.655773 0.515544 0.551521
vn 0.655773 0.515544 0.551521
vn -0.091571 0.645491 0.758259
vn -0.091571 0.645491 0.758259
vn -0.091571 0.645491 0.758259
vn 0.269332 0.466509 0.842514
vn 0.269332 0.466509 0.842514
vn 0.269332 0.466509 0.842514
vn -0.518642 0.311615 0.796182
vn -0.518642 0.311615 0.796182
vn -0.518642 0.311615 0.796183
vn -0.590712 0.799377 -0.109802
vn -0.590712 0.799377 -0.109802
vn -0.590712 0.799377 -0.109802
vn -0.109557 0.777223 -0.619614
vn -0.109557 0.777223 -0.619614
vn -0.109557 0.777223 -0.619614
vn -0.062372 0.420535 -0.905130
vn -0.062372 0.420535 -0.905130
vn -0.062372 0.420535 -0.905130
vn -0.145763 0.967681 -0.205783
vn -0.145763 0.967681 -0.205783
vn -0.145763 0.967681 -0.205783
vn -0.196602 0.943298 -0.267462
vn -0.196602 0.943298 -0.267462
vn -0.196602 0.943298 -0.267462
vn -0.092082 0.972440 -0.214199
vn -0.092082 0.972440 -0.214199
vn -0.092082 0.972440 -0.214199
vn -0.225641 0.866897 -0.444494
vn -0.225641 0.866897 -0.444494
vn -0.225641 0.866897 -0.444494
vn -0.047566 0.983701 -0.173405
vn -0.047566 0.983701 -0.173405
vn -0.047566 0.983701 -0.173405
vn 0.470125 0.795689 0.381919
vn 0.470125 0.795689 0.381919
vn 0.470125 0.795689 0.381919
vn 0.082643 0.924473 0.372184
vn 0.082643 0.924473 0.372184
vn 0.082643 0.924473 0.372184
vn 0.270367 0.916339 0.295337
vn 0.270367 0.916339 0.295337
vn 0.270367 0.916339 0.295337
vn 0.280056 0.901832 0.329041
vn 0.280056 0.901832 0.329041
vn 0.280056 0.901832 0.329041
vn 0.908543 0.324537 0.263108
vn 0.908543 0.324537 0.263108
vn 0.908543 0.324537 0.263108
vn 0.679105 0.439294 0.588080
vn 0.679105 0.439294 0.588080
vn 0.679105 0.439294 0.588080
vn 0.688364 0.476383 0.547005
vn 0.688364 0.476383 0.547005
vn 0.688364 0.476383 0.547005
vn 0.841548 0.533761 0.083042
vn 0.841548 0.533761 0.083042
vn 0.841548 0.533761 0.083042
vn 0.895414 0.340505 0.286863
vn 0.895414 0.340505 0.286863
vn 0.895414 0.340505 0.286863
vn 0.155134 0.332685 -0.930190
vn 0.155134 0.332685 -0.930190
vn 0.155134 0.332685 -0.930190
vn 0.159763 0.953967 -0.253816
vn 0.159763 0.953967 -0.253816
vn 0.159763 0.953967 -0.253816
vn -0.050879 0.925928 -0.374259
vn -0.050879 0.925928 -0.374259
vn -0.050879 0.925928 -0.374259
vn 0.027589 0.808056 -0.588460
vn 0.027589 0.808056 -0.588460
vn 0.027589 0.808056 -0.588460
vn 0.239104 0.602364 -0.761569
vn 0.239104 0.602364 -0.761569
vn 0.239104 0.602364 -0.761569
vn 0.013126 0.916341 -0.400183
vn 0.013126 0.916341 -0.400183
vn 0.013126 0.916341 -0.400183
vn 0.048350 0.973701 -0.222641
vn 0.048350 0.973701 -0.222641
vn 0.048350 0.973701 -0.222641
vn 0.059550 0.969352 -0.238348
vn 0.059550 0.969352 -0.238348
vn 0.059550 0.969352 -0.238348
vn 0.185188 0.953616 0.237321
vn 0.185188 0.953616 0.237321
vn 0.185188 0.953617 0.237321
vn 0.178204 0.962852 0.202879
vn 0.178204 0.962852 0.202879
vn 0.178204 0.962852 0.202879
vn 0.281806 0.953450 0.107327
vn 0.281806 0.953450 0.107327
vn 0.281806 0.953450 0.107327
vn 0.703307 0.699658 0.125849
vn 0.703307 0.699658 0.125849
vn 0.703307 0.699658 0.125849
vn 0.590465 0.807028 0.007525
vn 0.590465 0.807028 0.007525
vn 0.590465 0.807028 0.007525
vn 0.109462 0.993039 0.043490
vn 0.109462 0.993039 0.043490
vn 0.109462 0.993039 0.043490
vn 0.240356 0.963210 0.120227
vn 0.240356 0.963210 0.120227
vn 0.240356 0.963210 0.120227
vn 0.189753 0.981136 -0.036965
vn 0.189753 0.981136 -0.036965
vn 0.189753 0.981136 -0.036965
vn 0.284909 0.958549 0.003203
vn 0.284909 0.958549 0.003203
vn 0.284909 0.958549 0.003203
vn 0.317262 0.689539 -0.651062
vn 0.317262 0.689539 -0.651062
vn 0.317262 0.689539 -0.651062
vn 0.317022 0.916474 -0.244076
vn 0.317022 0.916474 -0.244076
vn 0.317022 0.916474 -0.244076
vn 0.201877 0.956726 -0.209572
vn 0.201877 0.956726 -0.209572
vn 0.201877 0.956726 -0.209572
vn 0.152270 0.981794 -0.113552
vn 0.152270 0.981794 -0.113552
vn 0.152270 0.981794 -0.113552
vn -0.205879 0.973938 -0.095179
vn -0.205879 0.973938 -0.095179
vn -0.205879 0.973938 -0.095179
vn 0.155845 0.968400 -0.194717
vn 0.155845 0.968400 -0.194717
vn 0.155845 0.968400 -0.194717
vn -0.944072 0.300948 -0.134752
vn -0.944072 0.300948 -0.134752
vn -0.944072 0.300948 -0.134752
vn -0.476032 0.383830 -0.791245
vn -0.476032 0.383830 -0.791245
vn -0.476031 0.383830 -0.791245
vn -0.476032 0.383830 -0.791245
vn -0.707246 0.561946 -0.428975
vn -0.707246 0.561946 -0.428975
vn -0.707246 0.561946 -0.428975
vn 0.263977 0.644909 -0.717223
vn 0.263977 0.644909 -0.717223
vn 0.263977 0.644909 -0.717223
s off
f 38/9/1 26/15/2 29/18/3
f 9/27/4 26/15/5 38/9/6
f 33/22/7 38/9/8 30/19/9
f 28/17/10 31/20/11 38/9/12
f 38/9/13 31/20/14 30/19/15
f 34/23/16 38/9/17 37/8/18
f 37/8/19 38/9/20 33/22/21
f 9/27/22 38/9/23 34/23/24
f 38/9/25 29/18/26 28/17/27
f 32/21/28 30/19/29 2/2/30
f 31/20/31 2/2/32 30/19/33
f 37/8/34 30/19/35 32/21/36
f 37/8/37 33/22/38 30/19/39
f 39/10/40 2/2/41 35/24/42
f 39/10/43 32/21/44 2/2/45
f 7/7/46 32/21/47 39/10/48
f 35/24/49 41/12/50 39/10/51
f 39/10/52 41/12/53 7/7/54
f 7/7/55 41/12/56 36/25/57
f 35/24/58 15/33/59 41/12/60
f 37/8/61 10/28/62 34/23/63
f 37/8/64 8/26/65 10/28/66
f 7/7/67 8/26/68 37/8/69
f 37/8/70 32/21/71 7/7/72
f 3/3/73 8/26/74 5/5/75
f 5/5/76 8/26/77 40/11/78
f 36/25/79 40/11/80 7/7/81
f 7/7/82 40/11/83 8/26/84
f 3/3/85 10/28/86 8/26/87
f 34/23/88 44/44/89 9/27/90
f 44/44/91 45/45/92 9/27/93
f 11/29/94 17/35/95 10/28/96
f 26/15/97 12/30/98 27/16/99
f 6/6/100 13/31/101 9/27/102
f 13/31/103 26/15/104 9/27/105
f 45/45/106 6/6/107 9/27/108
f 12/30/109 26/15/110 13/31/111
f 36/25/112 41/12/113 4/4/114
f 15/33/115 35/24/116 14/32/117
f 15/33/118 16/34/119 41/12/120
f 4/4/121 41/12/122 16/34/123
f 3/3/124 5/5/125 11/29/126
f 4/4/127 40/11/128 36/25/129
f 5/5/130 40/11/131 4/4/132
f 4/4/133 18/36/134 5/5/135
f 11/29/136 5/5/137 18/36/138
f 11/29/139 18/36/140 17/35/141
f 13/31/142 6/6/143 42/13/144
f 42/13/145 6/6/146 22/40/147
f 22/40/148 6/6/149 18/36/150
f 17/35/151 18/36/152 6/6/153
f 24/42/154 42/13/155 22/40/156
f 42/13/157 24/42/158 13/31/159
f 13/31/160 24/42/161 25/43/162
f 14/32/163 19/37/164 15/33/165
f 16/34/166 15/33/167 19/37/168
f 16/34/169 19/37/170 20/38/171
f 1/1/172 18/36/173 4/4/174
f 4/4/175 16/34/176 1/1/177
f 1/1/178 16/34/179 20/38/180
f 20/38/181 19/37/182 21/39/183
f 21/39/184 23/41/185 20/38/186
f 1/1/187 20/38/188 23/41/189
f 1/1/190 22/40/191 18/36/192
f 24/42/193 22/40/194 1/1/195
f 1/1/196 23/41/197 24/42/198
f 24/42/199 23/41/200 43/14/201
f 29/18/202 26/15/203 27/16/204
f 43/14/205 25/43/206 24/42/207
f 10/28/208 44/44/209 34/23/210
f 10/28/211 17/35/212 45/45/213 44/44/214
f 17/35/215 6/6/216 45/45/217
f 3/3/218 11/29/219 10/28/220
