# This file uses centimeters as units for non-parametric coordinates.

v 74.900391 4.047066 71.286133
v 18.540039 13.348412 44.966797
v 78.881836 11.158119 4.486328
v 56.561523 14.981239 -3.783203
v 44.772461 14.131355 -49.881836
v -65.642578 10.129494 -6.724609
v 3.127930 13.955490 4.158203
v -66.392578 4.462708 -11.431641
v 15.378281 9.479927 -29.327148
v -42.015625 5.081932 -95.732422
v 10.309570 10.780190 99.308594
v 26.671875 6.491356 45.299805
v 27.953125 3.035179 93.665039
v 25.980469 13.245712 7.869141
v -29.780273 7.043510 -5.766602
v 24.651367 11.359337 25.736328
v 22.824219 8.350212 36.633789
v -73.275391 3.142776 -73.218750
v -71.014648 8.073891 34.475586
v 51.758698 -15.023071 84.695633
v 24.303726 -15.022919 5.416016
v -43.011887 -15.023056 92.613129
v 13.408203 -15.023033 100.957031
v 21.266602 -15.022934 47.045898
v 25.839844 -15.023109 94.022461
v 73.479492 -15.023102 71.234375
v 78.420898 -15.023033 1.572266
v 23.941406 11.856331 -3.482422
v 55.994141 -15.023003 -3.774414
v 43.313477 -15.022972 -54.228516
v 21.234314 -15.022964 -60.314453
v -75.154312 -15.023033 -100.353516
v -74.407227 2.795593 -99.460938
v -68.172852 -15.023041 -3.275391
v -70.935547 -15.023033 11.068359
v 23.601563 8.484123 -58.039063
v -5.482147 -15.022964 -0.316742
v -72.520790 -15.023094 -8.845924
v 18.421875 -15.023026 69.627930
v 15.086914 7.442596 -2.626953
v 14.053955 7.500099 -81.284294
v 17.822998 -15.023003 -98.075378
v 16.015900 -15.023018 -1.511963
v 5.945923 8.268120 -93.897430
v 6.480469 -15.022949 2.316406
v -74.250977 -15.023041 32.832428
v 23.286133 -15.022934 -1.234375
v -78.507805 -15.023041 87.334961
v -77.945313 5.863998 85.235352
v -76.689453 -15.023041 -56.772461
vt 0.069237 0.098524
vt 0.069237 0.098524
vt 0.069237 0.098524
vt 0.069237 0.098524
vt 0.069237 0.098524
vt 0.069237 0.098524
vt 0.069237 0.098524
vt 0.069237 0.122926
vt 0.069237 0.122883
vt 0.069237 0.123051
vt 0.069237 0.122790
vt 0.069237 0.122929
vt 0.069237 0.122895
vt 0.069237 0.077918
vt 0.069237 0.078574
vt 0.069237 0.078630
vt 0.069237 0.122751
vt 0.069237 0.122729
vt 0.069237 0.098524
vt 0.069237 0.098524
vt 0.069237 0.122747
vt 0.069237 0.123105
vt 0.069237 0.123071
vt 0.069237 0.123097
vt 0.069237 0.098524
vt 0.069237 0.098524
vt 0.069237 0.098524
vt 0.069237 0.098524
vt 0.069237 0.098524
vt 0.069237 0.098524
vt 0.069237 0.098524
vt 0.069237 0.098524
vt 0.069237 0.098524
vt 0.069237 0.098524
vt 0.069237 0.122974
vt 0.069237 0.078078
vt 0.069237 0.078043
vt 0.069237 0.078223
vt 0.069237 0.098524
vt 0.069237 0.098524
vt 0.069237 0.098524
vt 0.069237 0.122753
vt 0.069237 0.122800
vt 0.069237 0.098524
vt 0.069237 0.122861
vt 0.069237 0.122804
vt 0.069237 0.122773
vt 0.069237 0.078642
vt 0.069237 0.078663
vt 0.069237 0.122995
vt 0.069237 0.122880
vt 0.069237 0.078442
vt 0.069237 0.078674
vt 0.069237 0.078693
vt 0.069237 0.078101
vt 0.069237 0.077885
vt 0.069237 0.098524
vt 0.069237 0.122793
vt 0.069237 0.078676
vt 0.069237 0.077921
vt 0.069237 0.077898
vt 0.069237 0.077915
vt 0.069237 0.122780
vt 0.069237 0.098524
vt 0.069237 0.098524
vt 0.069237 0.123050
vt 0.069237 0.077908
vt 0.069237 0.078400
vt 0.069237 0.098524
vt 0.069237 0.098524
vt 0.069237 0.098524
vt 0.069237 0.078686
vt 0.069237 0.078565
vn 0.425422 0.114956 0.897664
vn 0.425422 0.114956 0.897664
vn 0.425422 0.114956 0.897664
vn 0.995905 -0.074344 0.051444
vn 0.995905 -0.074344 0.051444
vn 0.995905 -0.074344 0.051444
vn -0.046212 0.982905 0.178219
vn -0.046212 0.982905 0.178219
vn -0.046212 0.982905 0.178219
vn -0.062827 0.997416 0.034845
vn -0.062827 0.997416 0.034845
vn -0.062827 0.997416 0.034845
vn -0.063272 0.997244 0.038731
vn -0.063272 0.997244 0.038731
vn -0.063272 0.997244 0.038731
vn 0.909988 0.116611 0.397900
vn 0.909988 0.116611 0.397900
vn 0.909988 0.116611 0.397900
vn -0.068393 0.997581 -0.012449
vn -0.068393 0.997581 -0.012449
vn -0.068393 0.997581 -0.012449
vn 0.046123 0.993030 0.108460
vn 0.046122 0.993030 0.108460
vn 0.046122 0.993030 0.108460
vn 0.055398 0.723810 -0.687772
vn 0.055398 0.723810 -0.687772
vn 0.055398 0.723810 -0.687772
vn 0.087128 0.629680 -0.771953
vn 0.087128 0.629680 -0.771953
vn 0.087128 0.629680 -0.771953
vn -0.146146 0.045582 0.988212
vn -0.146146 0.045582 0.988212
vn -0.146146 0.045582 0.988212
vn -0.963754 0.249749 0.093824
vn -0.963754 0.249749 0.093824
vn -0.963754 0.249749 0.093824
vn 0.338518 -0.020996 0.940726
vn 0.338518 -0.020996 0.940726
vn 0.338518 -0.020996 0.940726
vn 0.997171 -0.025429 0.070733
vn 0.997171 -0.025429 0.070733
vn 0.997171 -0.025429 0.070733
vn 0.077425 -0.001172 0.996998
vn 0.077425 -0.001172 0.996998
vn 0.077425 -0.001172 0.996998
vn 0.969674 -0.018408 -0.243709
vn 0.969674 -0.018408 -0.243709
vn 0.969674 -0.018408 -0.243709
vn -0.095304 0.995430 0.006021
vn -0.095304 0.995430 0.006021
vn -0.095304 0.995430 0.006021
vn 0.968807 -0.011575 -0.247545
vn 0.968807 -0.011575 -0.247545
vn 0.968807 -0.011575 -0.247545
vn -0.236194 0.969944 -0.058482
vn -0.236194 0.969944 -0.058482
vn -0.236194 0.969944 -0.058482
vn 0.263499 0.129338 -0.955950
vn 0.263499 0.129338 -0.955950
vn 0.263499 0.129338 -0.955950
vn -0.990798 0.013142 -0.134710
vn -0.990798 0.013142 -0.134710
vn -0.990798 0.013142 -0.134710
vn -0.987445 0.154089 -0.034783
vn -0.987445 0.154089 -0.034783
vn -0.987445 0.154089 -0.034783
vn 0.111096 0.045073 -0.992787
vn 0.111096 0.045073 -0.992787
vn 0.111096 0.045073 -0.992787
vn -0.993994 0.104466 0.032614
vn -0.993994 0.104466 0.032613
vn -0.993994 0.104466 0.032614
vn -0.979357 0.072653 -0.188630
vn -0.979357 0.072653 -0.188630
vn -0.979357 0.072653 -0.188630
vn 0.622530 0.772087 0.127824
vn 0.622530 0.772087 0.127824
vn 0.622530 0.772087 0.127824
vn 0.646151 0.752483 0.127511
vn 0.646151 0.752483 0.127511
vn 0.646151 0.752483 0.127511
vn -0.999026 0.027256 0.034696
vn -0.999026 0.027256 0.034696
vn -0.999026 0.027256 0.034696
vn -0.748692 0.313005 0.584370
vn -0.748692 0.313005 0.584370
vn -0.748692 0.313005 0.584370
vn -0.071480 0.997353 -0.013344
vn -0.071480 0.997353 -0.013344
vn -0.071480 0.997353 -0.013344
vn 0.979361 0.127621 0.156730
vn 0.979361 0.127621 0.156730
vn 0.979361 0.127621 0.156730
vn -0.986613 0.143726 -0.077058
vn -0.986613 0.143726 -0.077058
vn -0.986613 0.143726 -0.077058
vn -0.060881 0.998054 -0.013481
vn -0.060881 0.998054 -0.013481
vn -0.060881 0.998054 -0.013481
vn 0.275319 0.066299 -0.959064
vn 0.275319 0.066299 -0.959064
vn 0.275319 0.066299 -0.959064
vn -0.070142 0.046554 0.996450
vn -0.070142 0.046554 0.996450
vn -0.070142 0.046554 0.996450
vn 0.981591 0.188261 -0.032193
vn 0.981591 0.188261 -0.032193
vn 0.981591 0.188261 -0.032193
vn 0.345980 0.055816 -0.936580
vn 0.345980 0.055816 -0.936580
vn 0.345980 0.055816 -0.936580
vn -0.070558 0.090392 -0.993404
vn -0.070558 0.090392 -0.993404
vn -0.070558 0.090392 -0.993404
vn -0.069236 0.997548 -0.010211
vn -0.069236 0.997548 -0.010211
vn -0.069236 0.997548 -0.010211
vn -0.863151 0.252355 0.437364
vn -0.863151 0.252355 0.437364
vn -0.863151 0.252355 0.437364
vn 0.982435 0.105685 0.153792
vn 0.982435 0.105685 0.153792
vn 0.982435 0.105685 0.153792
vn -0.061588 0.997385 0.037809
vn -0.061588 0.997385 0.037809
vn -0.061588 0.997385 0.037809
vn 0.978422 0.165830 0.123255
vn 0.978421 0.165830 0.123255
vn 0.978422 0.165830 0.123255
vn 0.030500 0.999529 0.003350
vn 0.030500 0.999529 0.003350
vn 0.030500 0.999529 0.003350
vn 0.162118 0.075762 -0.983859
vn 0.162118 0.075762 -0.983859
vn 0.162118 0.075762 -0.983859
vn 0.024067 0.186097 -0.982237
vn 0.024067 0.186097 -0.982237
vn 0.024067 0.186097 -0.982237
vn -0.033487 0.998746 -0.037204
vn -0.033487 0.998746 -0.037204
vn -0.033487 0.998746 -0.037204
vn -0.014181 0.997013 0.075921
vn -0.014181 0.997013 0.075921
vn -0.014181 0.997013 0.075921
vn -0.062071 0.997202 0.041660
vn -0.062071 0.997202 0.041660
vn -0.062071 0.997202 0.041660
vn -0.985111 0.120698 -0.122426
vn -0.985111 0.120698 -0.122426
vn -0.985111 0.120698 -0.122426
vn 0.012322 0.997404 0.070948
vn 0.012322 0.997404 0.070948
vn 0.012322 0.997404 0.070948
vn -0.992546 0.116839 0.034643
vn -0.992546 0.116839 0.034643
vn -0.992546 0.116839 0.034643
vn -0.161222 0.077872 0.983841
vn -0.161222 0.077872 0.983841
vn -0.161222 0.077872 0.983841
vn 0.998266 0.056862 0.015232
vn 0.998266 0.056862 0.015232
vn 0.998266 0.056862 0.015232
vn -0.069930 0.991973 0.105354
vn -0.069930 0.991973 0.105354
vn -0.069930 0.991973 0.105354
vn 0.756197 0.467703 -0.457623
vn 0.756197 0.467703 -0.457623
vn 0.756197 0.467703 -0.457623
vn 0.170757 0.082161 -0.981882
vn 0.170757 0.082161 -0.981882
vn 0.170757 0.082161 -0.981882
vn 0.214161 0.086615 -0.972951
vn 0.214161 0.086615 -0.972951
vn 0.214161 0.086615 -0.972951
vn -0.998305 0.039726 0.042532
vn -0.998305 0.039726 0.042532
vn -0.998305 0.039726 0.042532
vn -0.977767 0.147600 -0.148948
vn -0.977767 0.147600 -0.148948
vn -0.977767 0.147600 -0.148948
vn 0.526326 -0.041521 0.849268
vn 0.526326 -0.041521 0.849268
vn 0.526326 -0.041521 0.849268
vn -0.962836 0.256775 0.083748
vn -0.962836 0.256775 0.083748
vn -0.962836 0.256775 0.083748
vn -0.945457 0.310438 0.098688
vn -0.945457 0.310438 0.098688
vn -0.945457 0.310438 0.098688
vn 0.900534 0.356182 0.249343
vn 0.900534 0.356182 0.249343
vn 0.900534 0.356182 0.249343
vn -0.097076 0.963430 0.249756
vn -0.097076 0.963430 0.249756
vn -0.097076 0.963430 0.249756
vn -0.146301 0.102842 0.983880
vn -0.146301 0.102842 0.983880
vn -0.146301 0.102842 0.983880
vn 0.025013 0.188850 -0.981687
vn 0.025013 0.188850 -0.981687
vn 0.025013 0.188850 -0.981687
vn -0.994968 0.100196 0.000005
vn -0.994968 0.100196 0.000005
vn -0.994968 0.100196 0.000005
vn 0.001207 0.083315 0.996523
vn 0.001207 0.083315 0.996523
vn 0.001207 0.083315 0.996523
vn -0.059037 0.111454 -0.992014
vn -0.059037 0.111454 -0.992014
vn -0.059037 0.111454 -0.992014
vn 0.053057 0.294110 0.954298
vn 0.053057 0.294110 0.954298
vn 0.053057 0.294110 0.954298
vn 0.998933 0.042235 0.018694
vn 0.998933 0.042235 0.018694
vn 0.998933 0.042235 0.018694
s off
f 1/2/1 13/3/2 20/1/3
f 3/4/4 1/2/5 26/5/6
f 12/6/7 1/2/8 14/7/9
f 2/8/10 19/9/11 49/10/12
f 7/11/13 19/9/14 2/8/15
f 2/8/16 24/12/17 17/13/18
f 10/14/19 8/15/20 15/16/21
f 3/4/22 14/7/23 1/2/24
f 7/11/25 15/17/26 8/18/27
f 6/21/28 7/11/29 8/18/30
f 11/22/31 22/23/32 23/24/33
f 12/6/34 24/25/35 25/26/36
f 25/26/37 20/1/38 13/3/39
f 3/4/40 26/5/41 27/27/42
f 4/28/43 47/70/44 29/30/45
f 29/30/46 30/31/47 4/28/48
f 5/32/49 28/29/50 4/28/51
f 30/31/52 5/32/53 4/28/54
f 5/32/55 36/33/56 28/29/57
f 31/34/58 5/32/59 30/31/60
f 49/10/61 19/9/62 48/35/63
f 18/36/64 32/37/65 50/38/66
f 33/39/67 10/40/68 32/41/69
f 6/21/70 8/18/71 34/42/72
f 6/21/73 34/42/74 35/43/75
f 14/7/76 16/44/77 12/6/78
f 2/8/79 16/45/80 14/46/81
f 28/29/82 31/69/83 47/19/84
f 8/15/85 38/48/86 34/49/87
f 10/14/88 18/36/89 8/15/90
f 39/50/91 11/22/92 23/24/93
f 19/9/94 46/51/95 48/35/96
f 15/16/97 9/52/98 10/14/99
f 15/17/100 7/11/101 37/47/102
f 40/53/103 15/16/104 43/72/105
f 41/55/106 9/52/107 42/68/108
f 36/33/109 5/32/110 31/34/111
f 14/7/112 27/71/113 21/20/114
f 33/56/115 18/36/116 10/14/117
f 12/6/118 17/57/119 24/25/120
f 2/8/121 11/22/122 24/12/123
f 11/22/124 2/8/125 49/10/126
f 11/22/127 39/50/128 24/12/129
f 14/46/130 7/11/131 2/8/132
f 7/11/133 14/46/134 21/58/135
f 10/14/136 42/67/137 32/61/138
f 41/55/139 10/14/140 9/52/141
f 9/52/142 15/16/143 40/53/144
f 7/11/145 6/21/146 19/9/147
f 6/21/148 35/43/149 19/9/150
f 12/6/151 13/3/152 1/2/153
f 25/26/154 13/3/155 12/6/156
f 11/22/157 49/10/158 22/23/159
f 40/53/160 42/73/161 9/52/162
f 44/60/163 10/14/164 41/55/165
f 44/60/166 41/55/167 42/62/168
f 7/11/169 21/58/170 45/63/171
f 7/11/172 45/63/173 37/47/174
f 33/56/175 32/37/176 18/36/177
f 19/9/178 35/43/179 46/51/180
f 1/2/181 20/64/182 26/65/183
f 38/48/184 18/36/185 50/38/186
f 18/36/187 38/48/188 8/15/189
f 16/45/190 2/8/191 17/13/192
f 12/6/193 16/44/194 17/57/195
f 22/23/196 49/10/197 48/66/198
f 10/14/199 44/60/200 42/67/201
f 28/29/202 36/33/203 31/69/204
f 4/28/205 28/29/206 47/70/207
f 14/7/208 3/4/209 27/71/210
f 43/72/211 15/16/212 37/54/213
f 43/59/214 42/73/215 40/53/216
