# This file uses centimeters as units for non-parametric coordinates.

v 0.000000 -0.000009 125.000000
v 0.000000 12.499993 125.000000
v 38.833984 37.499992 31.248047
v 12.944336 12.499993 93.749023
v 12.944336 24.999992 93.749023
v 25.888672 24.999992 62.498047
v 25.888672 37.499996 62.498047
v 38.833984 49.999992 31.248047
v 51.778320 49.999992 -0.002930
v 51.778320 -0.000006 -0.002930
v 0.000000 -0.000006 -0.002930
v 0.000000 12.499993 93.749023
v 0.000000 24.999992 93.749023
v 0.000000 24.999992 62.498047
v 0.000000 37.499992 62.498047
v 0.000000 37.499992 31.248047
v 0.000000 49.999992 31.248047
v 0.000000 49.999992 -0.002930
v 500.002930 -0.000006 500.000000
v 375.000000 -0.000009 500.000000
v 375.000000 12.499993 500.000000
v 406.250977 12.499993 500.000000
v 406.250977 24.999992 500.000000
v 437.501953 24.999992 500.000000
v 437.501953 37.499992 500.000000
v 468.751953 37.499992 500.000000
v 468.751953 49.999992 500.000000
v 500.002930 49.999992 500.000000
v 468.751953 37.499992 461.166016
v 406.250977 12.499993 487.055664
v 406.250977 24.999992 487.055664
v 437.501953 24.999992 474.111328
v 437.501953 37.499996 474.111328
v 468.751953 49.999992 461.166016
v 500.002930 49.999992 448.221680
v 500.002930 -0.000006 448.221680
v 500.000000 -0.000006 0.000000
v 500.000000 49.999992 0.000000
v 272.753967 49.999992 230.786911
v 253.514648 49.999992 237.054688
v 253.792969 37.499992 246.207031
v 114.879883 37.499996 145.850586
v 114.924805 24.999992 151.761719
v 310.896484 24.999992 381.955078
v 304.685547 12.499993 380.999023
v 187.500000 12.499993 312.500000
v 279.813904 49.999992 222.421600
v 86.488281 49.999992 17.661133
v 482.582031 49.999992 16.265625
v 481.210938 49.999992 412.383789
v 289.408203 46.287472 209.432617
v 105.251953 46.287472 25.275391
v 473.562500 46.287472 25.277344
v 473.565430 46.287472 393.588867
v 481.687500 49.999992 274.616211
v 482.052734 49.999992 169.265625
v 473.564453 46.287472 231.658203
v 493.014648 49.999992 216.416992
v 421.205078 49.999992 411.659180
v 332.682617 49.999992 319.487305
v 396.010742 49.999992 367.023438
v 377.431641 43.334866 369.845703
v 120.907227 24.999992 198.180664
v 43.226563 24.999992 123.041016
v 90.021484 24.999992 155.317383
v 80.160156 16.519064 159.930664
v 212.447266 49.999992 147.288086
v 136.475586 49.999992 69.104492
v 156.533203 49.999992 104.751953
v 177.591797 46.287472 97.615234
v 263.254883 49.999992 17.038086
v 377.629883 49.999992 16.635742
v 333.672852 46.287472 25.276367
v 325.511719 49.999992 7.148438
vt 0.214590 0.831544
vt 0.117217 0.833286
vt 0.062348 0.826757
vt 0.211042 0.822957
vt 0.206503 0.810196
vt 0.159012 0.811968
vt 0.116219 0.802909
vt 0.202835 0.801300
vt 0.206957 0.812177
vt 0.160802 0.814979
vt 0.210565 0.820917
vt 0.064020 0.823530
vt 0.215091 0.833641
vt 0.201231 0.612650
vt 0.181599 0.611494
vt 0.151742 0.835859
vt 0.115047 0.837144
vt 0.218581 0.842078
vt 0.117505 0.843862
vt 0.185204 0.616690
vt 0.202406 0.799379
vt 0.030603 0.802579
vt 0.019745 0.837234
vt 0.216551 0.833722
vt 0.029939 0.804512
vt 0.023773 0.810959
vt 0.006631 0.827681
vt 0.228880 0.823666
vt 0.209642 0.807533
vt 0.023067 0.812943
vt 0.016964 0.819315
vt 0.016216 0.821348
vt 0.010176 0.827645
vt 0.009386 0.829728
vt 0.003408 0.835950
vt 0.020269 0.835021
vt 0.022981 0.826358
vt 0.027126 0.813492
vt 0.026444 0.815486
vt 0.023682 0.824306
vt 0.019550 0.837131
vt 0.016887 0.845639
vt 0.216861 0.815666
vt 0.210117 0.809503
vt 0.224063 0.823781
vt 0.217382 0.817686
vt 0.231248 0.831876
vt 0.224629 0.825849
vt 0.121429 0.911306
vt 0.121124 0.920568
vt 0.043841 0.628208
vt 0.076017 0.627643
vt 0.125845 0.626768
vt 0.128846 0.690031
vt 0.098197 0.667740
vt 0.072178 0.623042
vt 0.040092 0.815434
vt 0.066837 0.596231
vt 0.083426 0.593534
vt 0.065628 0.592011
vt 0.208153 0.625324
vt 0.171591 0.655155
vt 0.094506 0.625177
vt 0.123737 0.624309
vt 0.029135 0.848639
vt 0.080316 0.658112
vt 0.092716 0.670182
vt 0.097953 0.898795
vt 0.120641 0.915332
vt 0.214341 0.623760
vt 0.160070 0.668128
vt 0.172471 0.661787
vt 0.174498 0.871302
vt 0.060065 0.626199
vt 0.084399 0.891950
vt 0.106269 0.677028
vt 0.072000 0.879880
vt 0.089881 0.889508
vt 0.120529 0.911799
vt 0.128958 0.693564
vt 0.063861 0.844810
vt 0.051748 0.847967
vt 0.086190 0.846945
vt 0.067701 0.849411
vt 0.035524 0.849975
vt 0.037452 0.626871
vt 0.057312 0.813779
vt 0.048408 0.593666
vt 0.075109 0.815302
vt 0.058521 0.817999
vt 0.173283 0.833262
vt 0.160058 0.614091
vt 0.192915 0.834418
vt 0.176887 0.838458
vt 0.164155 0.883555
vt 0.182814 0.649534
vt 0.151754 0.889896
vt 0.163274 0.876923
vt 0.199837 0.847091
vt 0.117529 0.848536
vt 0.206025 0.845528
vt 0.115421 0.846077
vn 0.000000 1.000000 -0.000000
vn 0.000000 1.000000 -0.000000
vn 0.000000 1.000000 -0.000000
vn 0.000000 1.000000 -0.000000
vn 0.000000 1.000000 -0.000000
vn 0.000000 1.000000 -0.000000
vn 0.000000 1.000000 -0.000000
vn 0.000000 1.000000 -0.000000
vn -0.722635 0.153758 0.673912
vn -0.722635 0.153758 0.673912
vn -0.722635 0.153758 0.673912
vn -0.722635 0.153758 0.673912
vn 0.000000 1.000000 0.000000
vn 0.000000 1.000000 0.000000
vn 0.000000 1.000000 0.000000
vn 0.000000 1.000000 0.000000
vn -0.700556 0.163006 0.694730
vn -0.700556 0.163006 0.694730
vn -0.700556 0.163006 0.694730
vn -0.700556 0.163006 0.694730
vn -0.651710 0.423235 0.629402
vn -0.651710 0.423235 0.629402
vn -0.651710 0.423235 0.629402
vn -0.651710 0.423235 0.629402
vn -0.707617 0.086072 0.701335
vn -0.707617 0.086072 0.701335
vn -0.707617 0.086072 0.701335
vn -0.707617 0.086072 0.701335
vn -0.707107 0.000009 0.707107
vn -0.707107 0.000009 0.707107
vn -0.707107 0.000009 0.707107
vn 0.000000 1.000000 0.000000
vn 0.000000 1.000000 0.000000
vn 0.000000 1.000000 0.000000
vn 0.000000 1.000000 0.000000
vn 0.000000 1.000000 -0.000000
vn 0.000000 1.000000 -0.000000
vn 0.000000 1.000000 -0.000000
vn 0.000000 1.000000 -0.000000
vn 0.000000 1.000000 0.000000
vn 0.000000 1.000000 0.000000
vn 0.000000 1.000000 0.000000
vn 0.000000 -1.000000 -0.000000
vn 0.000000 -1.000000 -0.000000
vn 0.000000 -1.000000 -0.000000
vn 0.000000 -1.000000 -0.000000
vn -1.000000 0.000000 0.000000
vn -1.000000 0.000000 0.000000
vn -1.000000 0.000000 0.000000
vn -1.000000 0.000000 0.000000
vn 0.000000 0.000000 1.000000
vn 0.000000 0.000000 1.000000
vn 0.000000 0.000000 1.000000
vn 0.000000 0.000000 1.000000
vn -0.707107 0.000000 0.707107
vn -0.707107 0.000000 0.707107
vn -0.707107 0.000000 0.707107
vn -0.707107 0.000000 0.707107
vn -0.707107 0.000000 0.707107
vn -0.707107 0.000000 0.707107
vn -0.707107 0.000000 0.707107
vn -1.000000 0.000000 0.000000
vn -1.000000 0.000000 0.000000
vn -1.000000 0.000000 0.000000
vn -1.000000 0.000000 0.000000
vn -1.000000 0.000000 0.000000
vn -1.000000 0.000000 0.000000
vn -1.000000 0.000000 0.000000
vn -1.000000 0.000000 0.000000
vn -1.000000 0.000000 0.000000
vn -1.000000 0.000000 0.000000
vn -1.000000 0.000000 0.000000
vn -1.000000 0.000000 0.000000
vn -0.000000 1.000000 0.000000
vn -0.000000 1.000000 0.000000
vn -0.000000 1.000000 0.000000
vn -0.000000 1.000000 0.000000
vn 0.000000 1.000000 0.000000
vn 0.000000 1.000000 0.000000
vn 0.000000 1.000000 0.000000
vn 0.000000 0.000000 1.000000
vn 0.000000 0.000000 1.000000
vn 0.000000 0.000000 1.000000
vn 0.000000 0.000000 1.000000
vn 0.000000 1.000000 0.000000
vn 0.000000 1.000000 0.000000
vn 0.000000 1.000000 0.000000
vn 0.000000 1.000000 0.000000
vn 0.000000 0.000000 1.000000
vn 0.000000 0.000000 1.000000
vn 0.000000 0.000000 1.000000
vn 0.000000 0.000000 1.000000
vn 0.000000 0.000000 1.000000
vn 0.000000 0.000000 1.000000
vn 0.000000 0.000000 1.000000
vn 0.000000 0.000000 1.000000
vn 0.000000 1.000000 -0.000000
vn 0.000000 1.000000 -0.000000
vn 0.000000 1.000000 -0.000000
vn 0.000000 1.000000 -0.000000
vn 0.000000 -1.000000 -0.000000
vn 0.000000 -1.000000 -0.000000
vn 0.000000 -1.000000 -0.000000
vn 0.000000 0.000000 -1.000000
vn 0.000000 0.000000 -1.000000
vn 0.000000 0.000000 -1.000000
vn 0.000000 0.000000 -1.000000
vn 0.000000 0.000000 1.000000
vn 0.000000 0.000000 1.000000
vn 0.000000 0.000000 1.000000
vn 0.000000 0.000000 1.000000
vn -0.000001 0.000000 1.000000
vn -0.000001 0.000000 1.000000
vn -0.000001 0.000000 1.000000
vn -0.000001 0.000000 1.000000
vn 0.000000 0.000000 1.000000
vn 0.000000 0.000000 1.000000
vn 0.000000 0.000000 1.000000
vn 0.000000 0.000000 1.000000
vn 0.000000 1.000000 0.000000
vn 0.000000 1.000000 0.000000
vn 0.000000 1.000000 0.000000
vn 0.000000 1.000000 0.000000
vn 0.000000 1.000000 0.000000
vn 0.000000 1.000000 0.000000
vn 0.000000 1.000000 0.000000
vn -1.000000 0.000000 0.000000
vn -1.000000 0.000000 0.000000
vn -1.000000 0.000000 0.000000
vn -1.000000 0.000000 0.000000
vn 0.000000 1.000000 0.000000
vn 0.000000 1.000000 0.000000
vn 0.000000 1.000000 0.000000
vn 0.000000 1.000000 0.000000
vn -1.000000 0.000000 0.000000
vn -1.000000 0.000000 0.000000
vn -1.000000 0.000000 0.000000
vn -1.000000 0.000000 0.000000
vn -1.000000 0.000000 0.000000
vn -1.000000 0.000000 0.000000
vn -1.000000 0.000000 0.000000
vn -1.000000 0.000000 0.000000
vn 0.000000 1.000000 0.000000
vn 0.000000 1.000000 0.000000
vn 0.000000 1.000000 0.000000
vn 0.000000 1.000000 0.000000
vn 0.000000 -1.000000 0.000000
vn 0.000000 -1.000000 0.000000
vn 0.000000 -1.000000 0.000000
vn 1.000000 0.000000 0.000000
vn 1.000000 0.000000 0.000000
vn 1.000000 0.000000 0.000000
vn 1.000000 0.000000 0.000000
vn 0.000000 -1.000000 -0.000000
vn 0.000000 -1.000000 -0.000000
vn 0.000000 -1.000000 -0.000000
vn 0.000007 0.000000 -1.000000
vn 0.000007 0.000000 -1.000000
vn 0.000007 0.000000 -1.000000
vn 0.000007 0.000000 -1.000000
vn 0.000000 1.000000 0.000000
vn 0.000000 1.000000 0.000000
vn 0.000000 1.000000 0.000000
vn 0.000000 1.000000 0.000000
vn 0.000000 1.000000 0.000000
vn 0.000000 1.000000 0.000000
vn 0.000000 1.000000 0.000000
vn 1.000000 0.000000 -0.000007
vn 1.000000 0.000000 -0.000007
vn 1.000000 0.000000 -0.000007
vn 1.000000 0.000000 -0.000007
vn 0.000000 1.000000 0.000000
vn 0.000000 1.000000 0.000000
vn 0.000000 1.000000 0.000000
vn 0.000000 1.000000 0.000000
vn 0.000000 1.000000 0.000000
vn 0.000000 1.000000 0.000000
vn 0.000000 1.000000 0.000000
vn -0.678194 0.245969 0.692497
vn -0.678194 0.245969 0.692497
vn -0.678194 0.245969 0.692497
vn -0.678194 0.245969 0.692497
vn 0.000000 1.000000 -0.000000
vn 0.000000 1.000000 -0.000000
vn 0.000000 1.000000 -0.000000
vn 0.000000 1.000000 -0.000000
vn -0.686435 0.166159 0.707953
vn -0.686435 0.166159 0.707953
vn -0.686435 0.166159 0.707953
vn -0.686435 0.166159 0.707953
vn 0.000000 1.000000 0.000000
vn 0.000000 1.000000 0.000000
vn 0.000000 1.000000 0.000000
vn 0.000000 1.000000 0.000000
vn 0.000000 1.000000 0.000000
vn 0.000000 1.000000 0.000000
vn 0.000000 1.000000 0.000000
vn 0.000000 1.000000 0.000000
vn 0.000000 1.000000 0.000000
vn 0.000000 1.000000 0.000000
vn 0.000000 1.000000 0.000000
vn -0.680957 0.217169 0.699382
vn -0.680957 0.217169 0.699382
vn -0.680957 0.217169 0.699382
vn -0.680957 0.217169 0.699382
vn -0.699949 0.022932 0.713825
vn -0.699949 0.022932 0.713825
vn -0.699949 0.022932 0.713825
vn -0.699949 0.022932 0.713825
vn -0.701600 -0.000102 0.712570
vn -0.701600 -0.000102 0.712570
vn -0.701600 -0.000102 0.712570
vn 0.000000 1.000000 0.000000
vn 0.000000 1.000000 0.000000
vn 0.000000 1.000000 0.000000
vn 0.000000 1.000000 0.000000
vn 0.000000 1.000000 -0.000000
vn 0.000000 1.000000 -0.000000
vn 0.000000 1.000000 -0.000000
vn 0.000000 1.000000 -0.000000
vn 0.000000 1.000000 0.000000
vn 0.000000 1.000000 0.000000
vn 0.000000 1.000000 0.000000
vn 0.000000 1.000000 0.000000
vn 0.000000 1.000000 0.000000
vn 0.000000 1.000000 0.000000
vn 0.000000 1.000000 0.000000
vn 0.000000 1.000000 0.000000
vn 0.000000 1.000000 0.000000
vn 0.000000 1.000000 0.000000
vn 0.000000 1.000000 0.000000
vn 0.000000 1.000000 0.000000
vn 0.000000 1.000000 -0.000001
vn 0.000000 1.000000 -0.000001
vn 0.000000 1.000000 -0.000001
vn 0.000000 1.000000 0.000000
vn 0.000000 1.000000 0.000000
vn 0.000000 1.000000 0.000000
vn 0.000000 1.000000 0.000000
vn 0.000000 1.000000 0.000000
vn 0.000000 1.000000 0.000000
vn 0.000000 1.000000 0.000000
vn 0.000000 1.000000 0.000000
vn 0.000000 1.000000 0.000000
vn 0.000000 1.000000 0.000000
vn 0.000000 1.000000 0.000000
vn 0.000000 1.000000 0.000000
vn 0.000000 1.000000 -0.000000
vn 0.000000 1.000000 -0.000000
vn 0.000000 1.000000 -0.000000
vn 0.281925 0.918094 -0.278608
vn 0.281925 0.918094 -0.278608
vn 0.281925 0.918094 -0.278608
vn 0.281925 0.918094 -0.278608
vn 0.204517 0.955902 -0.210769
vn 0.204517 0.955902 -0.210769
vn 0.204517 0.955902 -0.210769
vn 0.204517 0.955902 -0.210769
vn -0.392426 0.919784 -0.000576
vn -0.392426 0.919784 -0.000576
vn -0.392426 0.919784 -0.000576
vn -0.392426 0.919784 -0.000576
vn -0.423854 0.905730 -0.000673
vn -0.423854 0.905730 -0.000673
vn -0.423854 0.905730 -0.000673
vn -0.423854 0.905730 -0.000673
vn -0.159286 0.986538 0.037031
vn -0.159286 0.986538 0.037031
vn -0.159286 0.986538 0.037031
vn -0.219518 0.974673 -0.042724
vn -0.219518 0.974673 -0.042724
vn -0.219518 0.974673 -0.042724
vn -0.267183 0.895498 0.355944
vn -0.267183 0.895498 0.355944
vn -0.267183 0.895498 0.355944
vn -0.308924 0.934966 0.174370
vn -0.308924 0.934966 0.174370
vn -0.308924 0.934966 0.174370
vn -0.504024 0.783619 0.363182
vn -0.504024 0.783619 0.363182
vn -0.504024 0.783619 0.363182
vn -0.380419 0.742352 0.551539
vn -0.380419 0.742352 0.551539
vn -0.380419 0.742352 0.551539
vn 0.000000 1.000000 0.000000
vn 0.000000 1.000000 0.000000
vn 0.000000 1.000000 0.000000
vn 0.000000 1.000000 0.000000
vn 0.204630 0.958989 -0.196128
vn 0.204630 0.958989 -0.196128
vn 0.204630 0.958989 -0.196128
vn 0.204630 0.958989 -0.196128
vn 0.145970 0.985874 -0.082132
vn 0.145970 0.985874 -0.082132
vn 0.145970 0.985874 -0.082132
vn 0.000647 0.906979 0.421175
vn 0.000647 0.906979 0.421175
vn 0.000647 0.906979 0.421175
vn 0.000647 0.906979 0.421175
vn 0.000587 0.921145 0.389219
vn 0.000587 0.921145 0.389219
vn 0.000587 0.921145 0.389219
vn 0.000587 0.921145 0.389219
vn -0.039602 0.975244 0.217555
vn -0.039602 0.975244 0.217555
vn -0.039602 0.975244 0.217555
vn 0.029808 0.981784 0.187646
vn 0.029808 0.981784 0.187646
vn 0.029808 0.981784 0.187646
vn 0.119561 0.980309 -0.157164
vn 0.119561 0.980309 -0.157164
vn 0.119561 0.980309 -0.157164
s off
f 29/1/1 41/2/2 42/3/3 33/4/4
f 30/5/5 45/6/6 46/7/7 21/8/8
f 31/9/9 44/10/10 45/6/11 30/5/12
f 32/11/13 43/12/14 44/10/15 31/9/16
f 33/4/17 42/3/18 43/12/19 32/11/20
f 60/16/21 40/17/22 41/2/23 62/91/24
f 29/1/25 34/13/26 59/93/27 62/91/28
f 29/1/29 62/91/30 41/2/31
f 39/19/32 40/17/33 60/16/34 61/94/35
f 59/93/36 34/13/37 35/18/38 61/94/39
f 35/18/40 39/19/41 61/94/42
f 20/21/43 1/22/44 10/23/45 36/24/46
f 12/26/47 11/27/48 1/22/49 2/25/50
f 20/21/51 19/28/52 22/29/53 21/8/54
f 20/21/55 21/8/56 46/7/57 1/22/58
f 46/7/59 2/25/60 1/22/61
f 12/26/62 13/30/63 14/31/64 11/27/65
f 14/31/66 15/32/67 16/33/68 11/27/69
f 16/33/70 17/34/71 18/35/72 11/27/73
f 3/36/74 16/33/75 15/32/76 7/37/77
f 4/38/78 12/26/79 2/25/80
f 5/39/81 13/30/82 12/26/83 4/38/84
f 6/40/85 14/31/86 13/30/87 5/39/88
f 7/37/89 15/32/90 14/31/91 6/40/92
f 8/41/93 17/34/94 16/33/95 3/36/96
f 9/42/97 18/35/98 17/34/99 8/41/100
f 1/22/101 11/27/102 10/23/103
f 10/23/104 11/27/105 18/35/106 9/42/107
f 22/29/108 19/28/109 24/43/110 23/44/111
f 24/43/112 19/28/113 26/45/114 25/46/115
f 26/45/116 19/28/117 28/47/118 27/48/119
f 29/1/120 33/4/121 25/46/122 26/45/123
f 30/5/124 21/8/125 22/29/126
f 31/9/127 30/5/128 22/29/129 23/44/130
f 32/11/131 31/9/132 23/44/133 24/43/134
f 33/4/135 32/11/136 24/43/137 25/46/138
f 34/13/139 29/1/140 26/45/141 27/48/142
f 35/18/143 34/13/144 27/48/145 28/47/146
f 20/21/147 36/24/148 19/28/149
f 36/24/150 35/18/151 28/47/152 19/28/153
f 36/24/154 10/23/155 37/49/156
f 10/23/157 9/42/158 38/50/159 37/49/160
f 52/85/161 70/84/162 73/78/163
f 51/100/164 53/79/165 73/78/166 70/84/167
f 35/18/168 36/24/169 37/49/170 38/50/171
f 40/17/172 39/19/173 69/81/174 8/41/175
f 69/81/176 9/42/177 8/41/178
f 41/2/179 40/17/180 8/41/181 3/36/182
f 42/3/183 41/2/184 3/36/185 7/37/186
f 43/12/187 42/3/188 7/37/189 6/40/190
f 63/89/191 44/10/192 43/12/193 65/90/194
f 65/90/195 43/12/196 6/40/197 64/57/198
f 6/40/199 5/39/200 64/57/201
f 45/6/202 44/10/203 63/89/204 66/87/205
f 64/57/206 5/39/207 4/38/208 66/87/209
f 4/38/210 45/6/211 66/87/212
f 46/7/213 45/6/214 4/38/215 2/25/216
f 53/79/217 51/100/218 54/99/219 57/98/220
f 67/83/221 69/81/222 39/19/223 47/102/224
f 72/68/225 49/69/226 38/50/227 74/75/228
f 9/42/229 48/65/230 71/77/231 74/75/232
f 38/50/233 9/42/234 74/75/235
f 39/19/236 35/18/237 50/101/238 47/102/239
f 38/50/240 49/69/241 56/97/242 58/95/243
f 55/73/244 50/101/245 35/18/246 58/95/247
f 38/50/248 58/95/249 35/18/250
f 48/86/251 68/74/252 70/52/253 52/51/254
f 47/64/255 50/70/256 54/61/257 51/53/258
f 57/62/259 56/71/260 49/80/261 53/54/262
f 50/70/263 55/96/264 57/62/265 54/61/266
f 57/62/267 58/72/268 56/71/269
f 55/96/270 58/72/271 57/62/272
f 62/15/273 61/20/274 60/92/275
f 59/14/276 61/20/277 62/15/278
f 63/59/279 65/58/280 66/60/281
f 66/60/282 65/58/283 64/88/284
f 9/42/285 69/81/286 68/82/287 48/65/288
f 70/52/289 67/63/290 47/64/291 51/53/292
f 70/52/293 68/74/294 69/56/295
f 73/55/296 71/66/297 48/86/298 52/51/299
f 49/80/300 72/76/301 73/55/302 53/54/303
f 72/76/304 74/67/305 73/55/306
f 73/55/307 74/67/308 71/66/309
f 70/52/310 69/56/311 67/63/312
