# This file uses centimeters as units for non-parametric coordinates.

v -87.854980 -86.659744 12.252243
v -88.827148 -86.269234 46.481651
v -43.896484 -79.720871 59.161819
v -27.646240 -76.292534 37.475178
v -47.547607 -77.482521 -4.300938
v -117.002686 47.633102 4.732322
v -115.771973 48.724888 49.102707
v -85.993408 62.055717 56.601219
v -62.177490 67.183708 30.540859
v -82.255615 55.610615 -5.871048
v -57.006592 -90.499016 30.431644
v -101.891113 108.096146 28.946342
v -108.701660 -30.616058 6.277090
v -111.155518 -6.929708 53.541351
v -65.789307 4.106422 66.550919
v -33.557129 -8.655056 40.069138
v -58.787354 -27.970795 -13.812614
v -99.686523 103.536606 35.016514
v -105.971924 103.545486 24.583733
v 82.015137 -101.237953 46.550629
v 75.877197 -91.447914 7.473530
v 19.099854 -79.390709 3.833439
v 4.346436 -80.724380 32.764988
v 37.481689 -93.565872 76.082664
v 135.002686 76.340866 89.050934
v 124.076416 89.807007 39.061539
v 87.699219 109.572441 40.337776
v 64.856934 109.305321 76.248962
v 95.831055 84.035576 110.351257
v 40.012207 -101.538483 30.794128
v 118.468750 163.682098 82.314583
v 115.332275 -27.872890 65.804848
v 110.937744 16.592888 18.468048
v 54.086182 34.737511 15.864952
v 18.960449 10.416441 48.631340
v 59.070557 -29.918011 99.332993
v 113.935547 159.223343 74.486130
v 123.851318 156.429398 85.134567
v 13.812500 -26.984436 43.195869
v 71.720947 8.387519 19.530334
v 72.296387 26.147009 -38.206573
v -31.445068 54.673012 -57.824417
v 32.680176 19.266354 -86.994370
v -21.303223 -5.580713 -52.339844
v 44.200195 -12.606180 -65.029053
v 24.028076 182.863251 -24.106880
v 58.090576 172.229843 -40.333931
v 35.079102 166.563812 -92.351257
v 8.147217 195.021439 -66.769562
v -12.056885 -37.441376 1.116371
v 30.153809 -36.907631 -53.628799
v 42.129395 -41.147903 28.327717
v -3.217773 -52.769928 6.347393
v 32.639160 201.013046 -62.360962
v 30.406006 65.184906 31.026459
v 14.002197 43.411713 49.016525
v -6.901611 65.788551 13.044270
v -32.701660 59.838554 -13.725777
v -34.594238 8.935024 0.864479
v 17.210938 -14.235941 -72.921295
v 32.705566 12.396039 -85.649445
v 81.387207 85.859818 -24.856575
v 57.801514 167.107986 -64.990128
v 40.227539 194.332642 -59.771622
v 72.880371 43.844070 10.597481
v 13.512207 -60.412743 -6.011173
v 13.995850 -54.593170 21.787472
v 20.495117 -57.278015 16.415661
vt 0.051784 0.031613
vt 0.051762 0.032020
vt 0.051609 0.083620
vt 0.051548 0.068966
vt 0.052938 0.027947
vt 0.052820 0.082163
vt 0.053369 0.027110
vt 0.053572 0.068762
vt 0.052857 0.029941
vt 0.052830 0.061662
vt 0.052548 0.023813
vt 0.052319 0.149009
vt 0.051783 0.117849
vt 0.052447 0.151013
vt 0.052610 0.120546
vt 0.052479 0.147884
vt 0.053242 0.119382
vt 0.052671 0.116012
vt 0.051746 0.117413
vt 0.053326 0.033109
vt 0.053163 0.036248
vt 0.053244 0.089022
vt 0.053554 0.070621
vt 0.052064 0.031437
vt 0.052112 0.086823
vt 0.051801 0.028260
vt 0.051596 0.070141
vt 0.052473 0.028565
vt 0.052537 0.059819
vt 0.052560 0.025573
vt 0.052755 0.151603
vt 0.053104 0.122912
vt 0.052619 0.153781
vt 0.052338 0.125022
vt 0.052559 0.151059
vt 0.051922 0.120879
vt 0.052618 0.115443
vt 0.053374 0.119031
vt 0.051410 0.079374
vt 0.052647 0.063244
vt 0.052648 0.060114
vt 0.052349 0.047982
vt 0.051606 0.051925
vt 0.052480 0.137774
vt 0.051884 0.084438
vt 0.052603 0.084163
vt 0.052174 0.143313
vt 0.052694 0.130348
vt 0.052599 0.037653
vt 0.051784 0.037410
vt 0.052283 0.042174
vt 0.051350 0.058538
vt 0.052278 0.026945
vt 0.051955 0.030427
vt 0.052830 0.035722
vt 0.052412 0.028373
vt 0.052287 0.029596
vt 0.053137 0.132930
vt 0.052793 0.142999
vt 0.052647 0.146042
vt 0.053132 0.130596
vt 0.053423 0.074441
vt 0.053400 0.058288
vt 0.053411 0.066379
vt 0.053587 0.093582
vt 0.051386 0.081728
vt 0.052287 0.074244
vt 0.052869 0.048724
vn -0.951429 -0.303820 0.049765
vn -0.951429 -0.303820 0.049765
vn -0.951429 -0.303820 0.049765
vn -0.951429 -0.303820 0.049765
vn -0.243243 -0.150772 0.958176
vn -0.243243 -0.150772 0.958176
vn -0.243243 -0.150772 0.958176
vn -0.243243 -0.150772 0.958176
vn 0.710419 0.084357 0.698706
vn 0.710419 0.084357 0.698706
vn 0.710419 0.084357 0.698706
vn 0.710419 0.084357 0.698706
vn 0.890657 0.104258 -0.442562
vn 0.890657 0.104258 -0.442562
vn 0.890657 0.104258 -0.442562
vn 0.890657 0.104258 -0.442562
vn -0.338834 -0.236600 -0.910611
vn -0.338834 -0.236600 -0.910611
vn -0.338834 -0.236600 -0.910611
vn -0.338834 -0.236600 -0.910611
vn -0.127956 -0.991750 0.007681
vn -0.127956 -0.991750 0.007681
vn -0.127956 -0.991750 0.007681
vn 0.043097 -0.941722 0.333621
vn 0.043097 -0.941722 0.333621
vn 0.043097 -0.941722 0.333621
vn 0.399500 -0.903266 0.156560
vn 0.399500 -0.903266 0.156560
vn 0.399500 -0.903266 0.156560
vn 0.464901 -0.863194 -0.196881
vn 0.464901 -0.863194 -0.196881
vn 0.464901 -0.863194 -0.196881
vn 0.078111 -0.940345 -0.331134
vn 0.078111 -0.940345 -0.331134
vn 0.078111 -0.940345 -0.331134
vn -0.837233 0.340905 0.427580
vn -0.837233 0.340905 0.427580
vn -0.837233 0.340905 0.427580
vn -0.367117 0.331125 0.869242
vn -0.367117 0.331125 0.869242
vn -0.367117 0.331125 0.869242
vn 0.577856 0.518652 0.630145
vn 0.577856 0.518652 0.630145
vn 0.577856 0.518652 0.630145
vn 0.620104 0.581404 -0.526727
vn 0.620104 0.581404 -0.526727
vn 0.620104 0.581404 -0.526727
vn 0.182732 0.590048 -0.786418
vn 0.182732 0.590048 -0.786418
vn 0.182732 0.590048 -0.786418
vn -0.995355 -0.095459 0.012525
vn -0.995355 -0.095459 0.012525
vn -0.995355 -0.095459 0.012525
vn -0.995355 -0.095459 0.012525
vn -0.280860 0.059955 0.957874
vn -0.280860 0.059955 0.957874
vn -0.280860 0.059955 0.957874
vn -0.280860 0.059955 0.957874
vn 0.667404 0.340020 0.662539
vn 0.667404 0.340020 0.662539
vn 0.667404 0.340020 0.662539
vn 0.667404 0.340020 0.662539
vn 0.822905 0.263867 -0.503191
vn 0.822905 0.263867 -0.503191
vn 0.822905 0.263867 -0.503191
vn 0.822905 0.263867 -0.503191
vn -0.337464 -0.029057 -0.940890
vn -0.337464 -0.029057 -0.940890
vn -0.337464 -0.029057 -0.940890
vn -0.337464 -0.029057 -0.940890
vn 0.687921 0.677869 0.259342
vn 0.687921 0.677869 0.259342
vn 0.687921 0.677869 0.259342
vn -0.755328 0.362047 0.546261
vn -0.755328 0.362047 0.546261
vn -0.755328 0.362047 0.546261
vn -0.348170 0.373898 -0.859638
vn -0.348170 0.373898 -0.859638
vn -0.348170 0.373898 -0.859638
vn -0.982336 0.185747 0.022676
vn -0.982336 0.185747 0.022676
vn -0.982336 0.185747 0.022676
vn 0.909260 -0.293520 -0.295114
vn 0.909260 -0.293520 -0.295114
vn 0.909260 -0.293520 -0.295114
vn 0.909260 -0.293520 -0.295114
vn 0.075655 0.079166 -0.993986
vn 0.075655 0.079166 -0.993987
vn 0.075655 0.079166 -0.993987
vn 0.075655 0.079166 -0.993986
vn -0.800712 0.266403 -0.536554
vn -0.800712 0.266403 -0.536554
vn -0.800711 0.266403 -0.536554
vn -0.800712 0.266403 -0.536554
vn -0.781623 0.025312 0.623237
vn -0.781623 0.025312 0.623237
vn -0.781623 0.025312 0.623237
vn -0.781623 0.025312 0.623237
vn 0.462498 -0.426479 0.777311
vn 0.462498 -0.426479 0.777311
vn 0.462498 -0.426479 0.777311
vn 0.462498 -0.426478 0.777311
vn 0.103266 -0.960891 -0.256954
vn 0.103266 -0.960891 -0.256954
vn 0.103266 -0.960891 -0.256954
vn -0.136942 -0.814894 -0.563201
vn -0.136942 -0.814894 -0.563201
vn -0.136942 -0.814894 -0.563201
vn -0.494294 -0.819552 -0.289841
vn -0.494294 -0.819552 -0.289841
vn -0.494294 -0.819552 -0.289841
vn -0.495051 -0.860008 0.123736
vn -0.495051 -0.860008 0.123736
vn -0.495051 -0.860008 0.123736
vn -0.056740 -0.983806 0.170019
vn -0.056740 -0.983806 0.170019
vn -0.056740 -0.983806 0.170019
vn 0.768217 0.365887 -0.525327
vn 0.768218 0.365887 -0.525327
vn 0.768218 0.365887 -0.525327
vn 0.224737 0.468773 -0.854251
vn 0.224738 0.468773 -0.854251
vn 0.224737 0.468773 -0.854251
vn -0.656671 0.631042 -0.413000
vn -0.656671 0.631042 -0.413000
vn -0.656671 0.631042 -0.413000
vn -0.502584 0.410650 0.760773
vn -0.502584 0.410650 0.760773
vn -0.502584 0.410650 0.760773
vn -0.033696 0.340360 0.939691
vn -0.033696 0.340360 0.939691
vn -0.033696 0.340360 0.939691
vn 0.966474 -0.123029 -0.225371
vn 0.966474 -0.123029 -0.225371
vn 0.966474 -0.123029 -0.225371
vn 0.966474 -0.123029 -0.225371
vn 0.117386 0.255085 -0.959767
vn 0.117386 0.255085 -0.959767
vn 0.117386 0.255085 -0.959767
vn 0.117386 0.255085 -0.959767
vn -0.747581 0.479844 -0.459208
vn -0.747581 0.479844 -0.459208
vn -0.747581 0.479844 -0.459208
vn -0.747581 0.479844 -0.459208
vn -0.700179 0.145014 0.699085
vn -0.700179 0.145014 0.699085
vn -0.700179 0.145014 0.699085
vn -0.700179 0.145014 0.699085
vn 0.470405 -0.254385 0.844990
vn 0.470405 -0.254385 0.844990
vn 0.470405 -0.254385 0.844990
vn 0.470405 -0.254385 0.844990
vn -0.712779 0.701262 0.013342
vn -0.712779 0.701262 0.013342
vn -0.712779 0.701262 0.013342
vn 0.665297 0.414180 -0.621156
vn 0.665297 0.414180 -0.621156
vn 0.665297 0.414180 -0.621156
vn 0.491468 0.110672 0.863835
vn 0.491468 0.110672 0.863835
vn 0.491468 0.110672 0.863835
vn 0.975606 0.127086 -0.179006
vn 0.975606 0.127086 -0.179006
vn 0.975606 0.127086 -0.179006
vn -0.482308 -0.155953 -0.862008
vn -0.482308 -0.155953 -0.862008
vn -0.482308 -0.155953 -0.862008
vn -0.482308 -0.155953 -0.862008
vn -0.482308 -0.155953 -0.862008
vn -0.372099 0.506206 0.778009
vn -0.372099 0.506206 0.778009
vn -0.372099 0.506206 0.778009
vn -0.394010 0.219336 -0.892551
vn -0.394010 0.219336 -0.892551
vn -0.394010 0.219336 -0.892551
vn -0.394010 0.219336 -0.892551
vn -0.477526 -0.766719 -0.429081
vn -0.477526 -0.766719 -0.429081
vn -0.477526 -0.766719 -0.429081
vn -0.477526 -0.766719 -0.429081
vn -0.751253 -0.362084 0.551828
vn -0.751253 -0.362084 0.551828
vn -0.751253 -0.362084 0.551828
vn -0.649078 -0.564127 -0.510352
vn -0.649078 -0.564127 -0.510352
vn -0.649078 -0.564127 -0.510352
vn -0.649078 -0.564127 -0.510352
vn 0.654058 -0.745759 -0.126692
vn 0.654058 -0.745759 -0.126692
vn 0.654058 -0.745759 -0.126692
vn 0.654058 -0.745759 -0.126692
vn -0.714867 -0.373052 0.591437
vn -0.714867 -0.373052 0.591437
vn -0.714867 -0.373052 0.591437
vn -0.714867 -0.373052 0.591437
vn 0.446460 0.792380 0.415701
vn 0.446460 0.792380 0.415701
vn 0.446460 0.792380 0.415701
vn 0.446460 0.792380 0.415701
vn 0.790659 0.596744 -0.136953
vn 0.790659 0.596744 -0.136953
vn 0.790659 0.596744 -0.136953
vn -0.018193 0.692424 -0.721261
vn -0.018193 0.692424 -0.721261
vn -0.018193 0.692424 -0.721261
vn -0.260216 0.912786 0.314815
vn -0.260216 0.912786 0.314815
vn -0.260216 0.912786 0.314815
vn 0.999358 -0.035836 0.000364
vn 0.999358 -0.035836 0.000364
vn 0.999358 -0.035836 0.000364
vn 0.974240 -0.214602 0.069298
vn 0.974240 -0.214602 0.069298
vn 0.974240 -0.214602 0.069298
vn -0.675908 0.587516 0.444942
vn -0.675908 0.587516 0.444942
vn -0.675908 0.587516 0.444942
vn -0.675908 0.587516 0.444942
vn -0.749996 0.229672 0.620288
vn -0.749996 0.229672 0.620288
vn -0.749996 0.229672 0.620288
vn -0.749996 0.229672 0.620288
vn -0.310822 0.695484 0.647837
vn -0.310822 0.695484 0.647837
vn -0.310822 0.695484 0.647837
vn 0.130105 -0.640430 0.756916
vn 0.130105 -0.640430 0.756916
vn 0.130105 -0.640430 0.756916
vn 0.130105 -0.640430 0.756916
vn -0.885098 0.457413 -0.085879
vn -0.885098 0.457413 -0.085879
vn -0.885098 0.457413 -0.085879
vn -0.987420 -0.092895 -0.127957
vn -0.987420 -0.092895 -0.127957
vn -0.987420 -0.092895 -0.127957
vn -0.987420 -0.092895 -0.127957
vn -0.894256 -0.435144 -0.104672
vn -0.894256 -0.435144 -0.104672
vn -0.894256 -0.435144 -0.104672
vn 0.267151 -0.531504 -0.803824
vn 0.267151 -0.531504 -0.803824
vn 0.267151 -0.531504 -0.803824
vn 0.267151 -0.531504 -0.803824
vn 0.267151 -0.531504 -0.803824
vn 0.267151 -0.531504 -0.803824
vn 0.790659 0.596743 -0.136952
vn 0.790659 0.596743 -0.136952
vn 0.790659 0.596743 -0.136952
vn 0.619258 0.569750 -0.540281
vn 0.619258 0.569750 -0.540281
vn 0.619258 0.569750 -0.540281
vn 0.619258 0.569750 -0.540281
vn 0.834096 -0.532418 -0.144275
vn 0.834096 -0.532418 -0.144275
vn 0.834096 -0.532418 -0.144275
vn 0.834096 -0.532418 -0.144275
vn 0.778132 -0.144753 -0.611193
vn 0.778132 -0.144753 -0.611193
vn 0.778132 -0.144753 -0.611193
vn 0.778132 -0.144753 -0.611193
vn 0.760305 0.109737 -0.640230
vn 0.760305 0.109737 -0.640230
vn 0.760305 0.109737 -0.640230
vn 0.760305 0.109737 -0.640230
vn 0.760305 0.109737 -0.640230
vn 0.554102 0.542177 0.631677
vn 0.554102 0.542177 0.631677
vn 0.554102 0.542177 0.631677
vn 0.554102 0.542177 0.631677
vn 0.554102 0.542177 0.631677
vn 0.530391 0.217002 0.819509
vn 0.530391 0.217002 0.819509
vn 0.530391 0.217002 0.819509
vn 0.530391 0.217002 0.819509
vn 0.862586 -0.479364 -0.161725
vn 0.862586 -0.479364 -0.161725
vn 0.862586 -0.479364 -0.161725
vn -0.681117 -0.057711 0.729897
vn -0.681117 -0.057711 0.729897
vn -0.681117 -0.057711 0.729897
vn 0.419121 -0.081137 0.904298
vn 0.419121 -0.081137 0.904298
vn 0.419121 -0.081137 0.904298
vn 0.419121 -0.081137 0.904298
vn -0.265013 -0.942850 0.201993
vn -0.265013 -0.942850 0.201993
vn -0.265013 -0.942850 0.201993
vn -0.265013 -0.942850 0.201993
s off
f 1/1/1 2/2/2 14/3/3 13/4/4
f 2/2/5 3/5/6 15/6/7 14/3/8
f 3/5/9 4/7/10 16/8/11 15/6/12
f 4/7/13 5/9/14 17/10/15 16/8/16
f 5/9/17 1/1/18 13/4/19 17/10/20
f 2/2/21 1/1/22 11/11/23
f 3/5/24 2/2/25 11/11/26
f 4/7/27 3/5/28 11/11/29
f 5/9/30 4/7/31 11/11/32
f 1/1/33 5/9/34 11/11/35
f 19/12/36 7/13/37 12/14/38
f 7/13/39 8/15/40 18/16/41
f 8/15/42 9/17/43 18/16/44
f 9/17/45 10/18/46 12/14/47
f 10/18/48 19/12/49 12/14/50
f 13/4/51 14/3/52 7/13/53 6/19/54
f 14/3/55 15/6/56 8/15/57 7/13/58
f 15/6/59 16/8/60 9/17/61 8/15/62
f 16/8/63 17/10/64 10/18/65 9/17/66
f 17/10/67 13/4/68 6/19/69 10/18/70
f 18/16/71 9/17/72 12/14/73
f 7/13/74 18/16/75 12/14/76
f 10/18/77 6/19/78 19/12/79
f 6/19/80 7/13/81 19/12/82
f 20/20/83 21/21/84 33/22/85 32/23/86
f 21/21/87 22/24/88 34/25/89 33/22/90
f 22/24/91 23/26/92 35/27/93 34/25/94
f 23/26/95 24/28/96 36/29/97 35/27/98
f 24/28/99 20/20/100 32/23/101 36/29/102
f 21/21/103 20/20/104 30/30/105
f 22/24/106 21/21/107 30/30/108
f 23/26/109 22/24/110 30/30/111
f 24/28/112 23/26/113 30/30/114
f 20/20/115 24/28/116 30/30/117
f 38/31/118 26/32/119 31/33/120
f 26/32/121 27/34/122 37/35/123
f 27/34/124 28/36/125 37/35/126
f 28/36/127 29/37/128 31/33/129
f 29/37/130 38/31/131 31/33/132
f 32/23/133 33/22/134 26/32/135 25/38/136
f 33/22/137 34/25/138 27/34/139 26/32/140
f 34/25/141 35/27/142 28/36/143 27/34/144
f 35/27/145 36/29/146 29/37/147 28/36/148
f 36/29/149 32/23/150 25/38/151 29/37/152
f 37/35/153 28/36/154 31/33/155
f 26/32/156 37/35/157 31/33/158
f 29/37/159 25/38/160 38/31/161
f 25/38/162 26/32/163 38/31/164
f 42/39/165 43/40/166 61/41/167 60/42/168 44/43/169
f 46/44/170 57/45/171 55/46/172
f 43/40/173 42/39/174 49/47/175 48/48/176
f 44/43/177 60/42/178 51/49/179 50/50/180
f 39/51/181 59/52/182 50/50/183
f 50/50/184 51/49/185 66/53/186 53/54/187
f 51/49/188 52/55/189 68/56/190 66/53/191
f 39/51/192 50/50/193 53/54/194 67/57/195
f 46/44/196 47/58/197 64/59/198 54/60/199
f 47/58/200 63/61/201 64/59/202
f 48/48/203 49/47/204 54/60/205
f 49/47/206 46/44/207 54/60/208
f 65/62/209 40/63/210 41/64/211
f 62/65/212 65/62/213 41/64/214
f 49/47/215 58/66/216 57/45/217 46/44/218
f 58/66/219 59/52/220 56/67/221 57/45/222
f 55/46/223 57/45/224 56/67/225
f 52/55/226 39/51/227 67/57/228 68/56/229
f 42/39/230 58/66/231 49/47/232
f 44/43/233 59/52/234 58/66/235 42/39/236
f 50/50/237 59/52/238 44/43/239
f 60/42/240 61/41/241 45/68/242
f 51/49/243 60/42/244 45/68/245
f 62/65/246 63/61/247 47/58/248
f 64/59/249 63/61/250 48/48/251 54/60/252
f 51/49/253 45/68/254 40/63/255 52/55/256
f 41/64/257 45/68/258 61/41/259 43/40/260
f 62/65/261 41/64/262 43/40/263 48/48/264 63/61/265
f 46/44/266 55/46/267 65/62/268 62/65/269 47/58/270
f 56/67/271 40/63/272 65/62/273 55/46/274
f 41/64/275 40/63/276 45/68/277
f 56/67/278 59/52/279 39/51/280
f 40/63/281 56/67/282 39/51/283 52/55/284
f 53/54/285 66/53/286 68/56/287 67/57/288
