# This file uses centimeters as units for non-parametric coordinates.

v 45.150864 -24.322012 30.467855
v 22.575438 11.437023 30.467850
v 0.000000 -24.322012 30.467850
v 41.817421 -24.322012 35.592068
v 23.520565 6.046484 35.592068
v 3.333436 -24.322012 35.592068
v 110.129311 -24.322012 30.467855
v 87.553886 11.437023 30.467850
v 64.978447 -24.322012 30.467850
v 106.795868 -24.322012 35.592068
v 68.311882 -24.322012 35.592068
v 422.359924 24.322012 30.467855
v 444.935333 -11.739910 30.467850
v 467.510773 24.322012 30.467850
v 425.693359 24.322012 35.592068
v 464.177338 24.322012 35.592068
v 292.403015 24.322012 30.467855
v 314.978455 -11.739910 30.467850
v 337.553894 24.322012 30.467850
v 295.736481 24.322012 35.592068
v 315.876526 -8.750154 35.592068
v 334.220459 24.322012 35.592068
v 97.467667 24.322012 30.467855
v 142.618530 24.322012 30.467850
v 100.801109 24.322012 35.592068
v 139.285095 24.322012 35.592068
v 32.489227 24.322012 30.467855
v 55.064651 -11.739910 30.467850
v 77.640091 24.322012 30.467850
v 35.822670 24.322012 35.592068
v 54.886345 -7.818952 35.592068
v 74.306656 24.322012 35.592068
v 357.381470 24.322012 30.467855
v 379.956879 -11.739910 30.467850
v 402.532318 24.322012 30.467850
v 360.714905 24.322012 35.592068
v 399.198883 24.322012 35.592068
v 435.021545 -24.322012 30.467855
v 412.446136 11.437023 30.467850
v 389.870697 -24.322012 30.467850
v 431.688110 -24.322012 35.592068
v 412.839417 6.374046 35.592068
v 393.204132 -24.322012 35.592068
v 370.043091 -24.322012 30.467855
v 347.467682 11.437023 30.467850
v 324.892242 -24.322012 30.467850
v 366.709656 -24.322012 35.592068
v 347.479126 6.309484 35.592068
v 328.225677 -24.322012 35.592068
v 162.446121 24.322012 30.467855
v 185.021545 -11.739910 30.467850
v 207.596985 24.322012 30.467850
v 165.779572 24.322012 35.592068
v 204.263550 24.322012 35.592068
v 227.424576 24.322012 30.467855
v 250.000000 -11.739910 30.467850
v 272.575439 24.322012 30.467850
v 230.758026 24.322012 35.592068
v 248.984879 -8.137302 35.592068
v 269.242004 24.322012 35.592068
v 175.107758 -24.322012 30.467855
v 152.532333 11.437023 30.467850
v 129.956894 -24.322012 30.467850
v 171.774323 -24.322012 35.592068
v 133.290329 -24.322012 35.592068
v 240.086212 -24.322012 30.467855
v 217.510788 11.437023 30.467850
v 194.935349 -24.322012 30.467850
v 236.752777 -24.322012 35.592068
v 216.458267 7.147830 35.592068
v 198.268784 -24.322012 35.592068
v 500.000000 -24.322012 30.467859
v 477.424591 11.437038 30.467855
v 454.849152 -24.322012 30.467855
v 496.666565 -24.322012 35.592068
v 458.182587 -24.322012 35.592068
v 305.064636 -24.322012 30.467855
v 282.489227 11.437023 30.467850
v 259.913788 -24.322012 30.467850
v 301.731201 -24.322012 35.592068
v 263.247223 -24.322012 35.592068
v 0.000000 -40.540745 35.592064
v 500.000000 -40.540745 35.592064
v 0.000000 40.540749 35.592064
v 500.000000 40.540749 35.592064
v 0.000000 40.540749 0.000000
v 500.000000 40.540749 0.000000
v 0.000000 -40.540745 0.000000
v 500.000000 -40.540745 0.000000
v 0.000000 -24.322014 35.592064
v 0.000000 -18.234558 30.467854
v 0.000000 18.234560 30.467854
v 0.000000 24.322012 35.592064
v 500.000000 24.322012 35.592064
v 500.000000 18.234560 30.467854
v 500.000000 -18.234558 30.467854
v 500.000000 -24.322014 35.592064
v 89.949020 5.121682 35.592068
v 80.714798 -2.864452 35.592068
v 441.872955 -3.254679 35.592068
v 448.316406 -2.665121 35.592068
v 444.935333 -11.739910 30.467848
v 374.762909 1.637579 35.592068
v 383.385529 -4.828874 35.592068
v 380.628723 -10.189554 33.173771
v 183.892990 -3.607723 35.592068
v 192.559387 3.570101 35.592068
v 186.053070 -8.415231 34.408184
v 157.698624 0.118539 35.592068
v 148.547821 2.642955 35.592068
v 152.411453 9.977827 34.110573
v 481.074829 0.158180 35.592068
v 473.813202 -0.638863 35.592068
v 477.614136 8.068430 33.304462
v 284.509308 2.426615 35.592068
v 278.718781 0.542367 35.592068
v 122.635963 -7.598073 30.467850
v 118.303795 -8.961558 30.467850
v 124.319717 -3.583732 35.592068
v 118.461189 -4.905185 35.592068
v 52.158501 40.540749 35.592064
v 160.878006 40.540749 35.592064
v 80.587761 33.802567 35.592064
v 96.183601 40.540749 26.880613
v 415.837708 40.540749 35.592064
v 481.370667 40.540749 35.592064
v 473.717987 34.041958 35.592064
v 446.205261 31.936132 35.592064
v 446.296234 40.540749 29.260933
v 172.942993 -24.322014 35.592064
v 197.436493 -24.322014 35.592064
v 187.750381 -28.327621 35.592064
v 185.262512 -21.892017 33.546577
vt 0.014228 0.562336
vt 0.022560 0.548506
vt 0.024078 0.548506
vt 0.013797 0.564790
vt 0.005035 0.548506
vt 0.003517 0.548506
vt 0.043388 0.564790
vt 0.040273 0.558278
vt 0.044478 0.561915
vt 0.206134 0.554236
vt 0.207673 0.558369
vt 0.204739 0.558100
vt 0.147362 0.555597
vt 0.138191 0.570658
vt 0.136673 0.570658
vt 0.146953 0.554236
vt 0.155716 0.570658
vt 0.157234 0.570658
vt 0.057391 0.555501
vt 0.057462 0.557348
vt 0.049420 0.570658
vt 0.047902 0.570658
vt 0.066945 0.570658
vt 0.060130 0.557950
vt 0.059363 0.556122
vt 0.068463 0.570658
vt 0.028511 0.556021
vt 0.019830 0.570658
vt 0.018312 0.570658
vt 0.028592 0.554236
vt 0.037355 0.570658
vt 0.038873 0.570658
vt 0.176849 0.554942
vt 0.178105 0.557383
vt 0.174178 0.560328
vt 0.191518 0.562485
vt 0.200101 0.548506
vt 0.201619 0.548506
vt 0.191338 0.564790
vt 0.182576 0.548506
vt 0.181058 0.548506
vt 0.161754 0.562455
vt 0.170511 0.548506
vt 0.172029 0.548506
vt 0.161748 0.564790
vt 0.152986 0.548506
vt 0.151468 0.548506
vt 0.088243 0.555750
vt 0.091205 0.561208
vt 0.087259 0.557939
vt 0.116901 0.555876
vt 0.108600 0.570658
vt 0.107083 0.570658
vt 0.117363 0.554236
vt 0.126126 0.570658
vt 0.127643 0.570658
vt 0.072923 0.564126
vt 0.071163 0.560786
vt 0.075330 0.559636
vt 0.102089 0.562837
vt 0.111330 0.548506
vt 0.112848 0.548506
vt 0.102568 0.564790
vt 0.093805 0.548506
vt 0.092287 0.548506
vt 0.221015 0.563256
vt 0.219284 0.559291
vt 0.222591 0.559654
vt 0.132158 0.564790
vt 0.130441 0.559829
vt 0.133078 0.560687
vt 0.003517 0.570658
vt 0.003517 0.567886
vt 0.231209 0.567886
vt 0.231209 0.570658
vt 0.003517 0.551279
vt 0.231209 0.551279
vt 0.087883 0.549613
vt 0.034625 0.548506
vt 0.033107 0.548506
vt 0.052150 0.548506
vt 0.053668 0.548506
vt 0.214896 0.570658
vt 0.206134 0.554236
vt 0.216414 0.570658
vt 0.197371 0.570658
vt 0.195853 0.570658
vt 0.185306 0.570658
vt 0.176543 0.554236
vt 0.186824 0.570658
vt 0.167781 0.570658
vt 0.166263 0.570658
vt 0.096535 0.570658
vt 0.087773 0.554236
vt 0.098053 0.570658
vt 0.079010 0.570658
vt 0.077492 0.570658
vt 0.064215 0.548506
vt 0.072978 0.564790
vt 0.062697 0.548506
vt 0.081740 0.548506
vt 0.083258 0.548506
vt 0.212166 0.548506
vt 0.220929 0.564790
vt 0.210648 0.548506
vt 0.229691 0.548506
vt 0.231209 0.548506
vt 0.123396 0.548506
vt 0.121878 0.548506
vt 0.140921 0.548506
vt 0.142439 0.548506
vt 0.089015 0.546682
vt 0.082272 0.548506
vt 0.093426 0.548506
vt 0.003517 0.548506
vt 0.231209 0.548506
vt 0.131708 0.909560
vt 0.139140 0.893249
vt 0.139140 0.909560
vt 0.128918 0.907212
vt 0.112205 0.907212
vt 0.101982 0.893249
vt 0.109415 0.909560
vt 0.101982 0.909560
vt 0.139140 0.909560
vt 0.131708 0.893249
vt 0.139140 0.893249
vt 0.128918 0.895597
vt 0.112205 0.895597
vt 0.101982 0.909560
vt 0.109415 0.893249
vt 0.101982 0.893249
vt 0.235132 0.893249
vt 0.191053 0.905568
vt 0.030602 0.906659
vt 0.005991 0.893249
vt 0.235132 0.909560
vt 0.211229 0.909560
vt 0.161404 0.909560
vt 0.044561 0.909560
vt 0.014528 0.909560
vt 0.005991 0.909560
vt 0.198200 0.909560
vt 0.235132 0.909560
vt 0.005991 0.909560
vt 0.005991 0.893249
vt 0.235132 0.893249
vt 0.111743 0.908363
vt 0.120128 0.894446
vt 0.129379 0.908363
vt 0.129379 0.893826
vt 0.120150 0.908983
vt 0.111743 0.893826
vt 0.129379 0.894707
vt 0.121286 0.908101
vt 0.118601 0.907496
vt 0.111743 0.894707
vt 0.129379 0.894040
vt 0.120643 0.908769
vt 0.111743 0.894039
vt 0.111743 0.908438
vt 0.120381 0.894371
vt 0.129379 0.908438
vt 0.111743 0.908423
vt 0.120556 0.894385
vt 0.129379 0.908423
vt 0.129379 0.893967
vt 0.121026 0.908842
vt 0.111743 0.893967
vt 0.111743 0.908616
vt 0.121044 0.894193
vt 0.129379 0.908615
vt 0.018035 0.900666
vt 0.005991 0.905121
vt 0.005991 0.897688
vt 0.014528 0.897688
vt 0.030644 0.901631
vt 0.030602 0.897688
vt 0.235132 0.905121
vt 0.198200 0.900776
vt 0.044561 0.897688
vt 0.161404 0.897688
vt 0.211229 0.897688
vt 0.235132 0.897688
vt 0.191052 0.897688
vt 0.235132 0.905121
vt 0.149089 0.899524
vt 0.155875 0.897688
vt 0.235132 0.897688
vt 0.005991 0.905121
vt 0.005991 0.897688
vt 0.144650 0.897688
vt 0.005991 0.919983
vt 0.005991 0.882825
vt 0.235132 0.882825
vt 0.235132 0.919983
vt 0.111743 0.908151
vt 0.119464 0.894658
vt 0.123695 0.898318
vt 0.129379 0.908151
vt 0.129379 0.895086
vt 0.121965 0.907723
vt 0.119012 0.907453
vt 0.111743 0.895085
vt 0.129379 0.894725
vt 0.122941 0.905120
vt 0.118990 0.908084
vt 0.111743 0.894725
vt 0.129379 0.895005
vt 0.121078 0.907804
vt 0.117107 0.904515
vt 0.111743 0.895005
vt 0.111743 0.907583
vt 0.118194 0.896382
vt 0.122387 0.895226
vt 0.129379 0.907583
vt 0.111743 0.907014
vt 0.118888 0.895795
vt 0.122216 0.896160
vt 0.129379 0.907014
vt 0.111743 0.907534
vt 0.119635 0.895275
vt 0.122289 0.896139
vt 0.129379 0.907534
vn 0.768424 0.474949 0.428892
vn 0.768424 0.474949 0.428892
vn 0.768424 0.474949 0.428892
vn 0.768424 0.474949 0.428892
vn -0.708495 0.458161 0.536772
vn -0.708495 0.458161 0.536772
vn -0.708495 0.458161 0.536772
vn -0.708495 0.458161 0.536772
vn 0.000000 0.000000 1.000000
vn 0.000000 0.000000 1.000000
vn 0.000000 0.000000 1.000000
vn -0.411051 0.475291 0.777904
vn -0.411051 0.475291 0.777904
vn -0.411051 0.475291 0.777904
vn 0.046127 -0.504145 0.862386
vn 0.046127 -0.504145 0.862386
vn 0.046127 -0.504145 0.862386
vn -0.759501 -0.469268 0.450494
vn -0.759501 -0.469268 0.450494
vn -0.759501 -0.469268 0.450494
vn -0.759501 -0.469268 0.450494
vn 0.811461 -0.480291 0.332944
vn 0.811461 -0.480291 0.332944
vn 0.811461 -0.480291 0.332944
vn 0.811461 -0.480291 0.332944
vn 0.000000 0.000000 1.000000
vn 0.000000 0.000000 1.000000
vn 0.000000 0.000000 1.000000
vn -0.762329 -0.469468 0.445483
vn -0.762329 -0.469468 0.445483
vn -0.762329 -0.469468 0.445483
vn -0.762329 -0.469468 0.445483
vn 0.818360 -0.478054 0.318986
vn 0.818360 -0.478054 0.318986
vn 0.818360 -0.478054 0.318986
vn 0.818360 -0.478054 0.318986
vn 0.000000 0.000000 1.000000
vn 0.000000 0.000000 1.000000
vn 0.000000 0.000000 1.000000
vn 0.000000 0.000000 1.000000
vn -0.774776 -0.473015 0.419498
vn -0.774776 -0.473015 0.419498
vn -0.774776 -0.473015 0.419498
vn -0.774776 -0.473015 0.419498
vn 0.763936 -0.470391 0.441739
vn 0.763936 -0.470391 0.441739
vn 0.763936 -0.470391 0.441739
vn 0.763936 -0.470391 0.441739
vn 0.000000 0.000000 1.000000
vn 0.000000 0.000000 1.000000
vn 0.000000 0.000000 1.000000
vn -0.226143 -0.301549 0.926244
vn -0.226143 -0.301549 0.926244
vn -0.226143 -0.301549 0.926244
vn 0.757580 0.472230 0.450634
vn 0.757580 0.472230 0.450634
vn 0.757580 0.472230 0.450634
vn 0.757580 0.472230 0.450634
vn -0.732771 0.465438 0.496401
vn -0.732771 0.465438 0.496401
vn -0.732771 0.465438 0.496401
vn -0.732771 0.465438 0.496401
vn 0.000000 0.000000 1.000000
vn 0.000000 0.000000 1.000000
vn 0.000000 0.000000 1.000000
vn 0.744304 0.468686 0.475758
vn 0.744304 0.468686 0.475758
vn 0.744304 0.468686 0.475758
vn 0.744304 0.468686 0.475758
vn -0.743580 0.468487 0.477084
vn -0.743580 0.468487 0.477084
vn -0.743580 0.468487 0.477084
vn -0.743580 0.468487 0.477084
vn 0.000000 0.000000 1.000000
vn 0.000000 0.000000 1.000000
vn 0.000000 0.000000 1.000000
vn 0.144765 -0.174787 0.973906
vn 0.144765 -0.174787 0.973906
vn 0.144765 -0.174787 0.973906
vn -0.804707 -0.479178 0.350479
vn -0.804707 -0.479178 0.350479
vn -0.804707 -0.479178 0.350479
vn -0.804707 -0.479178 0.350479
vn 0.744209 -0.465204 0.479310
vn 0.744209 -0.465204 0.479310
vn 0.744209 -0.465204 0.479310
vn 0.744209 -0.465204 0.479310
vn 0.000000 0.000000 1.000000
vn 0.000000 0.000000 1.000000
vn 0.000000 0.000000 1.000000
vn 0.047856 0.173474 0.983675
vn 0.047856 0.173474 0.983675
vn 0.047856 0.173474 0.983675
vn 0.727502 0.463908 0.505500
vn 0.727502 0.463908 0.505500
vn 0.727502 0.463908 0.505500
vn 0.727502 0.463908 0.505500
vn -0.791915 0.480185 0.377218
vn -0.791915 0.480185 0.377218
vn -0.791915 0.480185 0.377218
vn -0.791915 0.480185 0.377218
vn 0.000000 0.000000 1.000000
vn 0.000000 0.000000 1.000000
vn 0.000000 0.000000 1.000000
vn -0.029185 0.265891 0.963561
vn -0.029185 0.265891 0.963561
vn -0.029185 0.265891 0.963561
vn -0.150652 0.462970 0.873477
vn -0.150652 0.462970 0.873477
vn -0.150652 0.462970 0.873477
vn 0.000000 1.000000 0.000000
vn 0.000000 1.000000 0.000000
vn 0.000000 1.000000 0.000000
vn 0.000000 1.000000 0.000000
vn 0.000000 -1.000000 0.000000
vn 0.000000 -1.000000 0.000000
vn 0.000000 -1.000000 0.000000
vn 0.000000 -1.000000 0.000000
vn 0.000000 -0.643984 0.765039
vn 0.000000 -0.643984 0.765039
vn 0.000000 -0.643984 0.765039
vn 0.000000 -0.643984 0.765039
vn 0.000000 0.000000 1.000000
vn 0.000000 0.000000 1.000000
vn 0.000000 0.000000 1.000000
vn 0.000000 0.000000 1.000000
vn 0.000000 0.643984 0.765039
vn 0.000000 0.643984 0.765039
vn 0.000000 0.643984 0.765039
vn 0.000000 0.000000 1.000000
vn 0.000000 0.000000 1.000000
vn 0.000000 0.000000 1.000000
vn 0.000000 0.000000 1.000000
vn 1.000000 0.000000 0.000000
vn 1.000000 0.000000 0.000000
vn 1.000000 0.000000 0.000000
vn -1.000000 0.000000 0.000000
vn -1.000000 0.000000 0.000000
vn -1.000000 0.000000 0.000000
vn 0.000000 0.000000 1.000000
vn 0.000000 0.000000 1.000000
vn 0.000000 0.000000 1.000000
vn 0.000000 0.000000 1.000000
vn 1.000000 0.000000 0.000000
vn 1.000000 0.000000 0.000000
vn 1.000000 0.000000 0.000000
vn -1.000000 0.000000 0.000000
vn -1.000000 0.000000 0.000000
vn -1.000000 0.000000 0.000000
vn 1.000000 -0.000007 0.000000
vn 1.000000 -0.000007 0.000000
vn 1.000000 -0.000007 0.000000
vn 1.000000 0.000000 0.000000
vn 1.000000 0.000000 0.000000
vn 1.000000 0.000000 0.000000
vn 1.000000 0.000000 0.000000
vn 1.000000 0.000000 0.000000
vn 1.000000 0.000000 0.000000
vn 1.000000 0.000000 0.000000
vn 0.000000 0.000000 -1.000000
vn 0.000000 0.000000 -1.000000
vn 0.000000 0.000000 -1.000000
vn 0.000000 0.000000 -1.000000
vn -1.000000 0.000000 0.000000
vn -1.000000 0.000000 0.000000
vn -1.000000 0.000000 0.000000
vn -1.000000 0.000000 0.000000
vn -1.000000 0.000000 0.000000
vn -1.000000 0.000000 0.000000
vn -1.000000 0.000000 0.000000
vn -1.000000 0.000000 0.000000
vn -1.000000 0.000000 0.000000
vn -1.000000 0.000000 0.000000
vn -0.782090 0.478117 0.399675
vn -0.782090 0.478117 0.399675
vn -0.782090 0.478117 0.399675
vn -0.782090 0.478117 0.399675
vn -0.000000 0.000000 1.000000
vn -0.000000 0.000000 1.000000
vn -0.000000 0.000000 1.000000
vn -0.000000 0.000000 1.000000
vn 0.795312 0.480854 0.369130
vn 0.795312 0.480854 0.369130
vn 0.795312 0.480854 0.369130
vn 0.795312 0.480854 0.369130
vn 0.000000 1.000000 0.000000
vn 0.000000 1.000000 0.000000
vn 0.000000 1.000000 0.000000
vn 0.776608 -0.473441 0.415612
vn 0.776608 -0.473441 0.415612
vn 0.776608 -0.473441 0.415612
vn 0.776608 -0.473441 0.415612
vn -0.000000 0.000000 1.000000
vn -0.000000 0.000000 1.000000
vn -0.000000 0.000000 1.000000
vn -0.000000 0.000000 1.000000
vn 0.000000 1.000000 0.000000
vn 0.000000 1.000000 0.000000
vn 0.000000 1.000000 0.000000
vn -0.777918 -0.473741 0.412811
vn -0.777918 -0.473741 0.412811
vn -0.777918 -0.473741 0.412811
vn -0.777918 -0.473741 0.412811
vn 0.840744 -0.522456 0.142091
vn 0.840744 -0.522456 0.142091
vn 0.840744 -0.522456 0.142091
vn 0.840744 -0.522456 0.142091
vn 0.763057 -0.413934 0.496389
vn 0.763057 -0.413934 0.496389
vn 0.763057 -0.413934 0.496389
vn 0.000000 0.000000 1.000000
vn 0.000000 0.000000 1.000000
vn 0.000000 0.000000 1.000000
vn 0.000000 0.000000 1.000000
vn -0.746931 -0.465948 0.474328
vn -0.746931 -0.465948 0.474328
vn -0.746931 -0.465948 0.474328
vn -0.746931 -0.465948 0.474328
vn -0.756525 -0.468500 0.456265
vn -0.756525 -0.468500 0.456265
vn -0.756525 -0.468500 0.456265
vn 0.813802 -0.499876 0.296397
vn 0.813802 -0.499876 0.296397
vn 0.813802 -0.499876 0.296397
vn 0.813802 -0.499876 0.296397
vn 0.757818 -0.427412 0.492981
vn 0.757818 -0.427412 0.492981
vn 0.757818 -0.427412 0.492981
vn -0.000000 0.000000 1.000000
vn -0.000000 0.000000 1.000000
vn -0.000000 0.000000 1.000000
vn -0.000000 0.000000 1.000000
vn -0.707796 -0.444290 0.549209
vn -0.707796 -0.444290 0.549209
vn -0.707796 -0.444290 0.549209
vn -0.707796 -0.444290 0.549209
vn -0.736453 -0.477615 0.479084
vn -0.736453 -0.477615 0.479084
vn -0.736453 -0.477615 0.479084
vn -0.823537 0.513542 0.240960
vn -0.823537 0.513542 0.240960
vn -0.823537 0.513542 0.240960
vn -0.823537 0.513542 0.240960
vn -0.757371 0.428540 0.492689
vn -0.757371 0.428540 0.492689
vn -0.757371 0.428540 0.492689
vn 0.000000 0.000000 1.000000
vn 0.000000 0.000000 1.000000
vn 0.000000 0.000000 1.000000
vn 0.000000 0.000000 1.000000
vn 0.740893 0.467741 0.481970
vn 0.740893 0.467741 0.481970
vn 0.740893 0.467741 0.481970
vn 0.844758 0.486509 0.222919
vn 0.844758 0.486509 0.222919
vn 0.844758 0.486509 0.222919
vn 0.844758 0.486509 0.222919
vn -0.702940 0.445490 0.554449
vn -0.702940 0.445490 0.554449
vn -0.702940 0.445490 0.554449
vn -0.702940 0.445490 0.554449
vn -0.733478 0.484088 0.477147
vn -0.733478 0.484088 0.477147
vn -0.733478 0.484088 0.477147
vn 0.000000 0.000000 1.000000
vn 0.000000 0.000000 1.000000
vn 0.000000 0.000000 1.000000
vn 0.000000 0.000000 1.000000
vn 0.732268 0.462295 0.500067
vn 0.732268 0.462295 0.500067
vn 0.732268 0.462295 0.500067
vn 0.737384 0.468130 0.486949
vn 0.737384 0.468130 0.486949
vn 0.737384 0.468130 0.486949
vn 0.737384 0.468130 0.486949
vn -0.748710 0.469887 0.467589
vn -0.748710 0.469887 0.467589
vn -0.748710 0.469887 0.467589
vn -0.748710 0.469887 0.467589
vn 0.000000 0.000000 1.000000
vn 0.000000 0.000000 1.000000
vn 0.000000 0.000000 1.000000
vn 0.000000 0.000000 1.000000
vn 0.729598 0.464520 0.501904
vn 0.729598 0.464520 0.501904
vn 0.729598 0.464520 0.501904
vn 0.729598 0.464520 0.501904
vn 0.207175 -0.786337 0.582025
vn 0.207175 -0.786337 0.582025
vn 0.207175 -0.786337 0.582025
vn 0.207175 -0.786337 0.582025
vn 0.150175 0.633607 0.758940
vn 0.150175 0.633607 0.758940
vn 0.150175 0.633607 0.758940
vn -0.071043 0.846524 0.527588
vn -0.071043 0.846524 0.527588
vn -0.071043 0.846524 0.527588
vn 0.165294 0.583359 0.795217
vn 0.165294 0.583359 0.795217
vn 0.165294 0.583359 0.795217
vn -0.173872 0.204744 0.963249
vn -0.173872 0.204744 0.963249
vn -0.173872 0.204744 0.963249
vn -0.045338 0.592348 0.804405
vn -0.045338 0.592348 0.804405
vn -0.045338 0.592348 0.804405
vn -0.000000 0.000000 1.000000
vn -0.000000 0.000000 1.000000
vn -0.000000 0.000000 1.000000
vn 0.000000 0.000000 1.000000
vn 0.000000 0.000000 1.000000
vn 0.000000 0.000000 1.000000
vn 0.000000 0.000000 1.000000
vn 0.000000 0.000000 1.000000
vn 0.000000 0.000000 1.000000
vn 0.000000 0.000000 1.000000
vn 0.000000 0.000000 1.000000
vn 0.000000 0.000000 1.000000
vn 0.000000 0.000000 1.000000
vn 0.000000 0.000000 1.000000
vn 0.000000 0.000000 1.000000
vn 0.000000 1.000000 0.000000
vn 0.000000 1.000000 0.000000
vn 0.000000 1.000000 0.000000
vn 0.000000 1.000000 0.000000
vn 0.000000 1.000000 0.000000
vn 0.000000 1.000000 0.000000
vn 0.000000 1.000000 0.000000
vn 0.000000 1.000000 0.000000
vn 0.000000 1.000000 0.000000
vn 0.000000 1.000000 0.000000
vn 0.000000 1.000000 0.000000
vn 0.000000 1.000000 0.000000
vn 0.090122 0.333149 0.938557
vn 0.090122 0.333149 0.938557
vn 0.090122 0.333149 0.938557
vn -0.108647 0.262723 0.958735
vn -0.108647 0.262723 0.958735
vn -0.108647 0.262723 0.958735
vn 0.000000 0.000000 1.000000
vn 0.000000 0.000000 1.000000
vn 0.000000 0.000000 1.000000
vn 0.000000 0.000000 1.000000
vn 0.000000 0.000000 1.000000
vn 0.000000 0.000000 1.000000
vn 0.000000 0.000000 1.000000
vn 0.000000 0.643984 0.765039
vn 0.000000 0.643984 0.765039
vn 0.000000 0.643984 0.765039
vn 0.000000 0.643984 0.765039
vn 0.000000 0.643984 0.765039
vn 0.000000 0.643984 0.765039
vn 0.000000 0.643984 0.765039
vn 0.000000 0.643984 0.765039
s off
f 5/1/1 4/2/2 1/3/3 2/4/4
f 6/5/5 5/1/6 2/4/7 3/6/8
f 4/148/9 5/149/10 6/150/11
f 8/7/12 99/8/13 98/9/14
f 102/10/15 101/11/16 100/12/17
f 21/13/18 20/14/19 17/15/20 18/16/21
f 22/17/22 21/13/23 18/16/24 19/18/25
f 20/151/26 21/152/27 22/153/28
f 118/19/29 120/20/30 25/21/31 23/22/32
f 26/23/33 119/24/34 117/25/35 24/26/36
f 25/154/37 120/155/38 119/156/39 26/157/40
f 31/27/41 30/28/42 27/29/43 28/30/44
f 32/31/45 31/27/46 28/30/47 29/32/48
f 30/158/49 31/159/50 32/160/51
f 105/33/52 104/34/53 103/35/54
f 42/36/55 41/37/56 38/38/57 39/39/58
f 43/40/59 42/36/60 39/39/61 40/41/62
f 41/161/63 42/162/64 43/163/65
f 48/42/66 47/43/67 44/44/68 45/45/69
f 49/46/70 48/42/71 45/45/72 46/47/73
f 47/164/74 48/165/75 49/166/76
f 108/48/77 107/49/78 106/50/79
f 59/51/80 58/52/81 55/53/82 56/54/83
f 60/55/84 59/51/85 56/54/86 57/56/87
f 58/167/88 59/168/89 60/169/90
f 111/57/91 110/58/92 109/59/93
f 70/60/94 69/61/95 66/62/96 67/63/97
f 71/64/98 70/60/99 67/63/100 68/65/101
f 69/170/102 70/171/103 71/172/104
f 114/66/105 113/67/106 112/68/107
f 78/69/108 116/70/109 115/71/110
f 86/133/111 124/134/112 129/135/113 87/136/114
f 88/144/115 89/145/116 83/146/117 82/147/118
f 93/72/119 92/73/120 95/74/121 94/75/122
f 92/73/123 91/76/124 96/77/125 95/74/126
f 91/76/127 133/78/128 96/77/129
f 127/173/130 94/174/131 85/175/132 126/176/133
f 94/117/134 87/118/135 85/119/136
f 86/125/137 93/126/138 84/127/139
f 82/186/140 132/187/141 130/188/142 90/189/143
f 83/124/144 89/122/145 97/123/146
f 88/130/147 82/132/148 90/131/149
f 96/121/150 97/123/151 89/122/152
f 94/117/153 95/120/154 87/118/155
f 95/120/156 96/121/157 89/122/158 87/118/159
f 87/193/160 89/194/161 88/195/162 86/196/163
f 90/131/164 91/129/165 88/130/166
f 91/129/167 92/128/168 86/125/169 88/130/170
f 92/128/171 93/126/172 86/125/173
f 11/79/174 99/8/175 8/7/176 9/80/177
f 10/197/178 98/198/179 99/199/180 11/200/181
f 8/7/182 98/9/183 10/81/184 7/82/185
f 13/84/186 14/85/187 102/10/188
f 101/11/189 102/10/190 14/85/191 16/83/192
f 15/201/193 100/202/194 101/203/195 16/204/196
f 13/84/197 102/10/198 12/87/199
f 12/87/200 102/10/201 100/12/202 15/86/203
f 105/33/204 34/89/205 35/90/206 104/34/207
f 37/88/208 104/34/209 35/90/210
f 36/205/211 103/206/212 104/207/213 37/208/214
f 36/91/215 33/92/216 34/89/217 105/33/218
f 105/33/219 103/35/220 36/91/221
f 108/48/222 51/94/223 52/95/224 107/49/225
f 54/93/226 107/49/227 52/95/228
f 53/209/229 106/210/230 107/211/231 54/212/232
f 50/97/233 51/94/234 108/48/235 106/50/236
f 106/50/237 53/96/238 50/97/239
f 111/57/240 62/99/241 63/100/242 110/58/243
f 65/98/244 110/58/245 63/100/246
f 64/213/247 109/214/248 110/215/249 65/216/250
f 61/102/251 62/99/252 64/101/253
f 62/99/254 111/57/255 109/59/256 64/101/257
f 114/66/258 73/104/259 74/105/260 113/67/261
f 76/103/262 113/67/263 74/105/264
f 75/217/265 112/218/266 113/219/267 76/220/268
f 73/104/269 114/66/270 72/107/271
f 72/107/272 114/66/273 112/68/274 75/106/275
f 81/108/276 116/70/277 78/69/278 79/109/279
f 80/221/280 115/222/281 116/223/282 81/224/283
f 78/69/284 115/71/285 80/110/286 77/111/287
f 118/19/288 117/25/289 119/24/290 120/20/291
f 121/183/292 123/180/293 124/185/294
f 124/134/295 123/143/296 122/139/297
f 128/177/298 129/178/299 125/181/300
f 126/176/301 129/178/302 127/173/303
f 127/173/304 129/178/305 128/177/306
f 128/177/307 94/174/308 127/173/309
f 93/179/310 94/174/311 128/177/312 123/180/313
f 123/180/314 128/177/315 125/181/316 122/182/317
f 93/179/318 123/180/319 121/183/320 84/184/321
f 84/137/322 121/138/323 124/134/324 86/133/325
f 129/135/326 124/134/327 122/139/328 125/140/329
f 87/136/330 129/135/331 126/141/332 85/142/333
f 132/112/334 133/78/335 130/113/336
f 131/114/337 133/78/338 132/112/339
f 132/187/340 83/190/341 97/191/342 131/192/343
f 82/186/344 83/190/345 132/187/346
f 91/76/347 90/115/348 130/113/349 133/78/350
f 96/77/351 133/78/352 131/114/353 97/116/354
