# This file uses centimeters as units for non-parametric coordinates.

v -256.744080 -0.000012 23.540108
v -92.484360 -0.000001 234.775131
v -133.752243 34.021729 1.719363
v -36.349766 -0.000001 247.044037
v 158.316589 17.043987 -49.209278
v 28.634279 -0.000001 -244.562424
v 187.795029 -0.000001 137.798157
v 222.579849 -0.000012 82.668404
v 194.778473 -0.000001 -122.639755
v -124.875381 24.452602 -156.672562
v -168.915604 -0.000012 -182.947372
v -165.179062 34.800671 35.978966
v -245.725723 -0.000012 -36.587055
v -169.756546 -0.000001 194.087082
v -167.598373 16.831886 158.081558
v -10.487026 23.615700 189.000336
v -18.009693 37.661999 60.667847
v -11.679060 29.154724 -43.201515
v -50.542194 -0.000001 -241.865463
v 41.212078 -0.000012 236.387558
v -64.686829 31.582476 47.110912
v -8.515763 26.973152 6.161098
v -62.920471 31.325073 -57.829124
v 86.858665 29.308937 62.094433
v 67.557625 21.577250 -19.779018
v 26.655062 44.198593 78.094421
v 80.907982 30.831518 6.099874
v 7.734026 31.687241 -99.227402
v -9.971171 27.766560 -135.325226
v 79.433418 23.846666 -93.879997
v 31.890345 24.347052 -168.310928
v 91.316681 15.873249 -153.835480
v 88.242538 -0.000001 -223.018234
v 136.727432 -0.000012 192.437912
v 136.014420 21.757174 115.942749
v 239.244888 -0.000012 23.535458
v 226.897858 -0.000012 -49.480896
v 145.744003 -0.000001 -184.435959
v 133.669388 20.297739 -119.625122
v -213.811264 -0.000012 -122.555168
v -146.540726 22.195869 -145.797791
v -137.113037 -0.000012 -209.238724
v -128.831650 27.723553 -51.204758
v -169.256638 16.588581 -97.466599
v -121.852921 28.532331 -126.518593
v -224.426041 -0.000012 138.141174
v -249.547882 -0.000001 69.435204
v -169.117813 23.413576 117.277390
v -197.019928 28.448214 67.843521
v -132.865067 37.269367 109.920403
v -84.782341 30.512335 134.417709
v -23.096704 31.366623 124.777382
v -71.551460 31.410904 14.222917
v -130.769623 42.836590 58.445019
v -192.647583 18.716152 -49.777882
v 35.024330 30.105240 121.843925
v 66.554619 18.260098 -44.086269
v 118.465813 18.789831 146.200867
v 181.101959 12.501956 93.678291
vt 0.237149 0.278970
vt 0.236774 0.279337
vt 0.236907 0.278878
vt 0.236657 0.279350
vt 0.236340 0.278737
vt 0.236639 0.278433
vt 0.236231 0.279089
vt 0.236174 0.278978
vt 0.236303 0.278595
vt 0.236919 0.278598
vt 0.237007 0.278577
vt 0.236963 0.278948
vt 0.237131 0.278856
vt 0.236937 0.279276
vt 0.236943 0.279193
vt 0.236616 0.279213
vt 0.236662 0.278960
vt 0.236673 0.278775
vt 0.236815 0.278460
vt 0.236497 0.279309
vt 0.236756 0.278974
vt 0.237032 0.278808
vt 0.237063 0.279180
vt 0.236540 0.279070
vt 0.236518 0.278764
vt 0.236366 0.279106
vt 0.236318 0.279204
vt 0.236256 0.278998
vt 0.236207 0.278736
vt 0.237086 0.278697
vt 0.236959 0.278623
vt 0.236950 0.278528
vt 0.236906 0.278785
vt 0.236994 0.278718
vt 0.236907 0.278647
vt 0.237122 0.279058
vt 0.236954 0.279111
vt 0.237021 0.279020
vt 0.236869 0.279077
vt 0.236780 0.279123
vt 0.236657 0.279087
vt 0.236781 0.278876
vt 0.236890 0.278977
vt 0.236655 0.278865
vt 0.236774 0.278783
vt 0.236714 0.278431
vt 0.236451 0.278947
vt 0.236510 0.278806
vt 0.236572 0.278945
vt 0.236477 0.278843
vt 0.236647 0.278666
vt 0.236690 0.278609
vt 0.236505 0.278668
vt 0.236615 0.278545
vt 0.236497 0.278566
vt 0.236520 0.278459
vt 0.236339 0.279042
vt 0.236160 0.278864
vt 0.236257 0.278648
vt 0.236402 0.278511
vt 0.236406 0.278614
vn -0.326716 0.944097 -0.044026
vn -0.326716 0.944097 -0.044026
vn -0.326716 0.944097 -0.044026
vn -0.246206 0.969212 -0.003272
vn -0.246206 0.969212 -0.003272
vn -0.246206 0.969212 -0.003272
vn -0.160576 0.980123 -0.116512
vn -0.160576 0.980123 -0.116512
vn -0.160576 0.980123 -0.116512
vn -0.292853 0.888116 -0.354242
vn -0.292853 0.888116 -0.354242
vn -0.292853 0.888116 -0.354242
vn -0.270707 0.895407 -0.353502
vn -0.270707 0.895407 -0.353502
vn -0.270707 0.895407 -0.353502
vn -0.385737 0.919897 -0.070687
vn -0.385737 0.919897 -0.070687
vn -0.385737 0.919897 -0.070687
vn -0.280241 0.955748 -0.089497
vn -0.280241 0.955748 -0.089497
vn -0.280241 0.955748 -0.089497
vn -0.351047 0.932007 -0.090164
vn -0.351047 0.932007 -0.090164
vn -0.351047 0.932007 -0.090164
vn -0.115040 0.985089 -0.127925
vn -0.115040 0.985089 -0.127925
vn -0.115040 0.985089 -0.127925
vn -0.172195 0.976707 -0.128035
vn -0.172195 0.976707 -0.128035
vn -0.172195 0.976707 -0.128035
vn -0.121605 0.983953 -0.130570
vn -0.121605 0.983953 -0.130570
vn -0.121605 0.983953 -0.130570
vn -0.251749 0.967706 -0.012936
vn -0.251749 0.967706 -0.012936
vn -0.251749 0.967706 -0.012936
vn -0.358866 0.923833 -0.133224
vn -0.358866 0.923833 -0.133224
vn -0.358866 0.923833 -0.133224
vn -0.258725 0.950993 -0.169330
vn -0.258725 0.950993 -0.169330
vn -0.258725 0.950993 -0.169330
vn -0.345871 0.929720 0.126466
vn -0.345871 0.929720 0.126466
vn -0.345871 0.929720 0.126466
vn -0.441070 0.833087 0.333801
vn -0.441070 0.833087 0.333801
vn -0.441070 0.833087 0.333801
vn -0.180751 0.962959 0.200096
vn -0.180751 0.962959 0.200096
vn -0.180751 0.962959 0.200096
vn -0.340117 0.936311 0.087420
vn -0.340117 0.936311 0.087420
vn -0.340117 0.936311 0.087420
vn -0.214913 0.976426 -0.020095
vn -0.214913 0.976426 -0.020095
vn -0.214913 0.976426 -0.020095
vn -0.134076 0.980264 -0.145278
vn -0.134076 0.980264 -0.145278
vn -0.134076 0.980264 -0.145278
vn -0.473174 0.877839 0.074192
vn -0.473174 0.877839 0.074192
vn -0.473174 0.877839 0.074192
vn -0.381335 0.846007 0.372635
vn -0.381335 0.846007 0.372635
vn -0.381335 0.846007 0.372635
vn -0.212387 0.890055 0.403353
vn -0.212387 0.890055 0.403353
vn -0.212387 0.890055 0.403353
vn -0.323343 0.932240 0.162410
vn -0.323343 0.932240 0.162410
vn -0.323343 0.932240 0.162410
vn -0.332143 0.929171 0.162243
vn -0.332143 0.929171 0.162243
vn -0.332143 0.929171 0.162243
vn -0.051585 0.932156 0.358364
vn -0.051585 0.932156 0.358364
vn -0.051585 0.932156 0.358364
vn -0.076514 0.955571 0.284656
vn -0.076514 0.955571 0.284657
vn -0.076514 0.955571 0.284656
vn -0.075761 0.934937 0.346632
vn -0.075761 0.934937 0.346632
vn -0.075761 0.934937 0.346632
vn 0.032560 0.955551 0.293022
vn 0.032560 0.955551 0.293022
vn 0.032560 0.955551 0.293022
vn -0.192670 0.968981 0.154773
vn -0.192670 0.968981 0.154773
vn -0.192670 0.968981 0.154773
vn 0.072878 0.984924 -0.156884
vn 0.072878 0.984924 -0.156884
vn 0.072878 0.984924 -0.156884
vn 0.161287 0.986144 -0.038810
vn 0.161287 0.986144 -0.038810
vn 0.161287 0.986144 -0.038810
vn 0.176423 0.982905 0.052655
vn 0.176423 0.982905 0.052655
vn 0.176423 0.982905 0.052655
vn 0.082889 0.990415 0.110491
vn 0.082889 0.990415 0.110491
vn 0.082889 0.990415 0.110491
vn -0.124430 0.992092 -0.016480
vn -0.124430 0.992092 -0.016480
vn -0.124430 0.992092 -0.016480
vn -0.134807 0.990530 -0.026027
vn -0.134807 0.990530 -0.026027
vn -0.134807 0.990530 -0.026027
vn 0.033321 0.954059 0.297759
vn 0.033321 0.954059 0.297759
vn 0.033321 0.954059 0.297759
vn -0.068137 0.976721 -0.203404
vn -0.068137 0.976721 -0.203404
vn -0.068137 0.976721 -0.203404
vn -0.053987 0.998525 0.005720
vn -0.053987 0.998525 0.005720
vn -0.053987 0.998525 0.005720
vn -0.066561 0.990046 -0.124008
vn -0.066561 0.990046 -0.124008
vn -0.066561 0.990046 -0.124008
vn 0.041186 0.999144 0.003743
vn 0.041186 0.999145 0.003743
vn 0.041186 0.999144 0.003743
vn 0.041248 0.999142 0.003751
vn 0.041248 0.999142 0.003751
vn 0.041248 0.999142 0.003751
vn 0.075163 0.996400 0.039219
vn 0.075163 0.996400 0.039219
vn 0.075163 0.996400 0.039219
vn 0.067752 0.997515 -0.019345
vn 0.067752 0.997515 -0.019345
vn 0.067752 0.997515 -0.019345
vn -0.019255 0.999524 -0.024118
vn -0.019255 0.999524 -0.024118
vn -0.019255 0.999524 -0.024118
vn 0.026751 0.998161 0.054389
vn 0.026751 0.998161 0.054389
vn 0.026751 0.998161 0.054389
vn -0.146591 0.909517 -0.388960
vn -0.146591 0.909517 -0.388960
vn -0.146591 0.909517 -0.388960
vn 0.016740 0.970441 -0.240756
vn 0.016740 0.970441 -0.240756
vn 0.016740 0.970441 -0.240756
vn -0.003741 0.991014 -0.133706
vn -0.003741 0.991014 -0.133706
vn -0.003741 0.991014 -0.133706
vn -0.001632 0.994238 -0.107186
vn -0.001632 0.994238 -0.107186
vn -0.001632 0.994238 -0.107186
vn -0.009662 0.958878 -0.283654
vn -0.009662 0.958878 -0.283654
vn -0.009662 0.958878 -0.283654
vn 0.027330 0.993049 0.114483
vn 0.027330 0.993049 0.114483
vn 0.027330 0.993049 0.114483
vn 0.054554 0.916170 0.397061
vn 0.054554 0.916169 0.397061
vn 0.054554 0.916169 0.397061
vn 0.139772 0.938646 0.315290
vn 0.139772 0.938646 0.315290
vn 0.139772 0.938646 0.315290
vn 0.110251 0.990478 0.082446
vn 0.110251 0.990478 0.082446
vn 0.110251 0.990478 0.082446
vn 0.088228 0.983986 0.154877
vn 0.088228 0.983986 0.154877
vn 0.088228 0.983986 0.154877
vn 0.004238 0.981440 -0.191724
vn 0.004238 0.981440 -0.191724
vn 0.004238 0.981440 -0.191724
vn -0.095009 0.951878 -0.291378
vn -0.095009 0.951878 -0.291378
vn -0.095009 0.951878 -0.291378
vn -0.055591 0.973322 -0.222606
vn -0.055591 0.973322 -0.222606
vn -0.055591 0.973322 -0.222606
vn 0.035839 0.953201 0.300206
vn 0.035839 0.953201 0.300206
vn 0.035839 0.953201 0.300206
vn 0.293060 0.924984 0.241910
vn 0.293060 0.924984 0.241910
vn 0.293060 0.924984 0.241910
vn 0.240302 0.970698 0.000857
vn 0.240302 0.970698 0.000857
vn 0.240302 0.970698 0.000857
vn 0.138361 0.986051 0.092515
vn 0.138361 0.986051 0.092515
vn 0.138361 0.986051 0.092515
vn 0.138230 0.989786 0.034885
vn 0.138230 0.989786 0.034885
vn 0.138230 0.989786 0.034885
vn 0.023827 0.990403 -0.136141
vn 0.023827 0.990403 -0.136141
vn 0.023827 0.990403 -0.136141
vn 0.005569 0.990770 -0.135438
vn 0.005569 0.990770 -0.135438
vn 0.005569 0.990770 -0.135438
vn -0.053649 0.948704 -0.311579
vn -0.053649 0.948704 -0.311579
vn -0.053649 0.948704 -0.311579
vn 0.097678 0.985899 0.135876
vn 0.097678 0.985899 0.135876
vn 0.097678 0.985899 0.135876
vn -0.155012 0.943002 -0.294481
vn -0.155012 0.943002 -0.294481
vn -0.155012 0.943002 -0.294481
vn 0.057738 0.997876 -0.030172
vn 0.057738 0.997876 -0.030172
vn 0.057738 0.997876 -0.030172
vn 0.119361 0.979064 -0.164883
vn 0.119361 0.979064 -0.164883
vn 0.119361 0.979064 -0.164883
vn 0.163857 0.981598 -0.098065
vn 0.163857 0.981598 -0.098065
vn 0.163857 0.981598 -0.098065
vn 0.110810 0.945370 -0.306588
vn 0.110810 0.945370 -0.306588
vn 0.110810 0.945370 -0.306588
vn 0.191570 0.954733 -0.227566
vn 0.191570 0.954733 -0.227566
vn 0.191570 0.954733 -0.227566
vn 0.028057 0.993123 0.113665
vn 0.028057 0.993123 0.113665
vn 0.028057 0.993123 0.113665
vn 0.147985 0.935235 0.321614
vn 0.147985 0.935235 0.321614
vn 0.147985 0.935235 0.321614
vn 0.281965 0.922522 0.263531
vn 0.281965 0.922522 0.263531
vn 0.281965 0.922522 0.263531
vn 0.281568 0.925301 0.254041
vn 0.281568 0.925301 0.254041
vn 0.281568 0.925301 0.254041
vn 0.180577 0.983532 0.007553
vn 0.180577 0.983532 0.007553
vn 0.180577 0.983532 0.007553
vn 0.159013 0.987254 -0.006702
vn 0.159013 0.987254 -0.006702
vn 0.159013 0.987254 -0.006702
vn 0.298405 0.929202 0.218033
vn 0.298405 0.929202 0.218033
vn 0.298405 0.929202 0.218033
vn 0.332834 0.919304 0.210005
vn 0.332834 0.919304 0.210006
vn 0.332834 0.919304 0.210005
vn 0.206159 0.978518 -0.000086
vn 0.206159 0.978518 -0.000086
vn 0.206159 0.978518 -0.000086
vn 0.194698 0.980771 -0.013418
vn 0.194699 0.980771 -0.013418
vn 0.194699 0.980771 -0.013418
vn 0.308587 0.947212 0.086967
vn 0.308587 0.947212 0.086967
vn 0.308587 0.947212 0.086967
vn 0.019664 0.992997 0.116494
vn 0.019664 0.992997 0.116494
vn 0.019664 0.992997 0.116494
vn 0.074697 0.997007 0.019924
vn 0.074697 0.997007 0.019924
vn 0.074697 0.997007 0.019924
vn 0.240834 0.969712 -0.040725
vn 0.240834 0.969712 -0.040725
vn 0.240834 0.969712 -0.040725
vn 0.240851 0.969758 -0.039493
vn 0.240850 0.969758 -0.039493
vn 0.240851 0.969758 -0.039493
vn 0.306375 0.942360 -0.134509
vn 0.306375 0.942360 -0.134509
vn 0.306375 0.942360 -0.134509
vn 0.152612 0.961758 -0.227446
vn 0.152612 0.961758 -0.227446
vn 0.152612 0.961758 -0.227446
vn 0.123060 0.953349 -0.275647
vn 0.123060 0.953349 -0.275647
vn 0.123060 0.953349 -0.275647
vn 0.002524 0.991335 -0.131336
vn 0.002524 0.991335 -0.131336
vn 0.002524 0.991335 -0.131336
vn -0.388499 0.875018 -0.288811
vn -0.388499 0.875018 -0.288811
vn -0.388499 0.875018 -0.288811
vn 0.295954 0.925885 -0.234835
vn 0.295954 0.925886 -0.234835
vn 0.295954 0.925885 -0.234835
s off
f 40/30/1 44/34/2 41/31/3
f 45/35/4 41/31/5 44/34/6
f 10/10/7 41/31/8 45/35/9
f 11/11/10 41/31/11 42/32/12
f 10/10/13 42/32/14 41/31/15
f 49/38/16 13/13/17 1/1/18
f 12/12/19 55/22/20 49/38/21
f 49/38/22 55/22/23 13/13/24
f 3/3/25 43/33/26 12/12/27
f 12/12/28 44/34/29 55/22/30
f 43/33/31 44/34/32 12/12/33
f 43/33/34 45/35/35 44/34/36
f 13/13/37 55/22/38 40/30/39
f 44/34/40 40/30/41 55/22/42
f 48/37/43 47/36/44 46/23/45
f 49/38/46 47/36/47 48/37/48
f 49/38/49 48/37/50 54/43/51
f 50/39/52 54/43/53 48/37/54
f 54/43/55 12/12/56 49/38/57
f 3/3/58 12/12/59 54/43/60
f 47/36/61 49/38/62 1/1/63
f 46/23/64 14/14/65 15/15/66
f 2/2/67 15/15/68 14/14/69
f 48/37/70 15/15/71 50/39/72
f 15/15/73 48/37/74 46/23/75
f 15/15/76 51/40/77 50/39/78
f 15/15/79 2/2/80 51/40/81
f 16/16/82 2/2/83 4/4/84
f 2/2/85 52/41/86 51/40/87
f 2/2/88 16/16/89 52/41/90
f 53/42/91 3/3/92 54/43/93
f 21/21/94 53/42/95 54/43/96
f 21/21/97 54/43/98 51/40/99
f 51/40/100 54/43/101 50/39/102
f 21/21/103 51/40/104 17/17/105
f 17/17/106 51/40/107 26/49/108
f 26/49/109 51/40/110 52/41/111
f 22/44/112 21/21/113 17/17/114
f 45/35/115 43/33/116 23/45/117
f 3/3/118 23/45/119 43/33/120
f 23/45/121 3/3/122 53/42/123
f 23/45/124 53/42/125 18/18/126
f 18/18/127 53/42/128 22/44/129
f 22/44/130 53/42/131 21/21/132
f 45/35/133 23/45/134 28/51/135
f 28/51/136 23/45/137 18/18/138
f 42/32/139 10/10/140 19/19/141
f 10/10/142 29/52/143 6/6/144
f 45/35/145 29/52/146 10/10/147
f 45/35/148 28/51/149 29/52/150
f 10/10/151 6/6/152 19/46/153
f 56/24/154 52/41/155 16/16/156
f 4/4/157 20/20/158 16/16/159
f 16/16/160 20/20/161 58/26/162
f 24/47/163 56/24/164 58/26/165
f 16/16/166 58/26/167 56/24/168
f 17/17/169 25/48/170 22/44/171
f 27/50/172 25/48/173 17/17/174
f 27/50/175 17/17/176 26/49/177
f 26/49/178 52/41/179 56/24/180
f 24/47/181 26/49/182 56/24/183
f 24/47/184 27/50/185 26/49/186
f 28/51/187 18/18/188 57/25/189
f 57/25/190 18/18/191 22/44/192
f 57/25/193 22/44/194 25/48/195
f 5/5/196 57/25/197 25/48/198
f 5/5/199 25/48/200 27/50/201
f 30/53/202 28/51/203 57/25/204
f 6/6/205 29/52/206 31/54/207
f 31/54/208 29/52/209 30/53/210
f 30/53/211 29/52/212 28/51/213
f 32/55/214 31/54/215 30/53/216
f 6/6/217 31/54/218 33/56/219
f 33/56/220 31/54/221 32/55/222
f 35/57/223 24/47/224 58/26/225
f 20/20/226 34/27/227 58/26/228
f 58/26/229 34/27/230 7/7/231
f 58/26/232 7/7/233 35/57/234
f 5/5/235 27/50/236 24/47/237
f 5/5/238 24/47/239 35/57/240
f 35/57/241 7/7/242 59/28/243
f 8/8/244 59/28/245 7/7/246
f 35/57/247 36/58/248 5/5/249
f 35/57/250 59/28/251 36/58/252
f 36/58/253 59/28/254 8/8/255
f 57/25/256 5/5/257 30/53/258
f 39/61/259 30/53/260 5/5/261
f 5/5/262 36/58/263 37/29/264
f 5/5/265 37/29/266 39/61/267
f 39/61/268 37/29/269 9/59/270
f 32/55/271 38/60/272 33/56/273
f 39/61/274 38/60/275 32/55/276
f 30/53/277 39/61/278 32/55/279
f 41/31/280 11/11/281 40/30/282
f 9/9/283 38/60/284 39/61/285
