# This file uses centimeters as units for non-parametric coordinates.

v -252.141495 8.043764 227.598434
v -106.988548 14.521227 284.498047
v 227.633621 51.576553 170.698822
v -315.851776 6.869544 113.799217
v 246.206589 63.107121 113.799217
v -321.180664 5.183313 -170.700775
v 196.858536 63.122452 -113.801170
v 57.122459 25.570189 -284.500000
v 150.356277 6.104866 -406.672272
v 187.091248 69.205025 -46.936722
v 265.348419 56.594761 -113.801170
v 355.314178 22.422813 -113.801170
v -258.754730 6.067675 -284.500000
v 214.491211 12.459992 -284.500000
v 441.119537 -0.000014 -318.910156
v 541.371094 -0.000019 -173.392975
v -387.716858 -0.000018 -382.776550
v 42.615650 7.962423 -412.508209
v 147.148834 21.666342 -284.500000
v -259.984039 -0.000018 -510.513275
v -197.550385 -0.000021 511.360931
v 164.221436 -0.000018 567.439819
v 88.794853 9.269077 384.493347
v 288.631256 -0.949480 506.040222
v 94.456047 34.297756 227.598434
v 220.513214 11.529719 315.843750
v 389.040070 4.535606 408.355469
v 305.667053 12.275234 227.598434
v 497.228912 0.000021 297.541809
v -451.663391 -0.000018 -191.177338
v -471.683350 -0.000019 245.792572
v 302.226501 51.249680 113.799217
v 361.503204 23.009899 113.799217
v 401.294037 19.446686 56.899609
v 554.045715 1.129768 128.095306
v 169.187729 72.329330 -0.000001
v 290.028290 68.490692 -0.000001
v 312.340881 58.465454 56.899609
v 365.870331 29.975201 -0.000001
v 362.046661 27.892452 -56.901566
v 568.854309 5.334518 0.423827
v 28.865210 46.019157 113.799217
v 161.477829 63.517349 113.799217
v 50.024426 54.085602 -0.000001
v 280.226715 64.655548 -56.901566
v 347.731354 14.815793 -170.700775
v 259.278168 4.970953 -349.772644
v 57.917187 -0.000021 -574.379700
vt 0.400301 0.357464
vt 0.400209 0.357513
vt 0.400012 0.357434
vt 0.400340 0.357374
vt 0.400009 0.357391
vt 0.400319 0.357167
vt 0.400047 0.357221
vt 0.400086 0.357098
vt 0.399991 0.357025
vt 0.400199 0.357381
vt 0.400104 0.357386
vt 0.400192 0.357296
vt 0.399957 0.357266
vt 0.399770 0.357193
vt 0.399903 0.357068
vt 0.399988 0.356949
vt 0.400220 0.357650
vt 0.399922 0.357619
vt 0.400018 0.357568
vt 0.399872 0.357576
vt 0.400110 0.357473
vt 0.399919 0.357528
vt 0.399822 0.357533
vt 0.399821 0.357488
vt 0.399725 0.357493
vt 0.400365 0.357164
vt 0.400392 0.357415
vt 0.399915 0.357395
vt 0.399772 0.357403
vt 0.399724 0.357362
vt 0.399629 0.357453
vt 0.400099 0.357301
vt 0.399958 0.357308
vt 0.399913 0.357353
vt 0.399771 0.357317
vt 0.399771 0.357275
vt 0.399630 0.357324
vt 0.400096 0.357259
vt 0.399955 0.357225
vt 0.399770 0.357234
vt 0.400266 0.357089
vt 0.399905 0.357107
vt 0.399723 0.357115
vt 0.399585 0.357243
vt 0.400307 0.357048
vt 0.400125 0.357018
vt 0.399995 0.357102
vt 0.400211 0.356976
vn -0.060126 0.997395 0.039840
vn -0.060126 0.997395 0.039840
vn -0.060126 0.997395 0.039840
vn -0.004863 0.998068 0.061944
vn -0.004863 0.998068 0.061944
vn -0.004863 0.998068 0.061944
vn -0.008377 0.998504 0.054044
vn -0.008377 0.998503 0.054044
vn -0.008377 0.998503 0.054044
vn 0.027088 0.998855 0.039440
vn 0.027088 0.998855 0.039440
vn 0.027088 0.998855 0.039440
vn -0.033712 0.998826 0.034799
vn -0.033712 0.998826 0.034799
vn -0.033712 0.998826 0.034799
vn -0.052933 0.986425 0.155450
vn -0.052933 0.986425 0.155450
vn -0.052933 0.986425 0.155450
vn 0.124105 0.954951 0.269568
vn 0.124105 0.954951 0.269568
vn 0.124105 0.954951 0.269568
vn -0.061673 0.985978 0.155063
vn -0.061673 0.985978 0.155063
vn -0.061673 0.985978 0.155063
vn 0.014326 0.998074 0.060355
vn 0.014326 0.998074 0.060355
vn 0.014326 0.998074 0.060355
vn 0.006812 0.997988 0.063040
vn 0.006812 0.997988 0.063040
vn 0.006812 0.997988 0.063040
vn 0.024079 0.999208 0.031677
vn 0.024079 0.999208 0.031677
vn 0.024079 0.999208 0.031677
vn 0.058151 0.998181 0.015918
vn 0.058151 0.998181 0.015918
vn 0.058151 0.998181 0.015918
vn -0.035807 0.999311 0.009735
vn -0.035807 0.999311 0.009735
vn -0.035807 0.999311 0.009735
vn -0.112687 0.992224 0.052850
vn -0.112687 0.992224 0.052850
vn -0.112687 0.992224 0.052850
vn -0.088231 0.989737 0.112409
vn -0.088231 0.989737 0.112409
vn -0.088231 0.989737 0.112409
vn -0.058755 0.989002 0.135733
vn -0.058755 0.989002 0.135733
vn -0.058755 0.989002 0.135733
vn -0.128802 0.976146 0.174782
vn -0.128802 0.976146 0.174782
vn -0.128802 0.976146 0.174782
vn -0.026025 0.971839 0.234206
vn -0.026025 0.971839 0.234206
vn -0.026025 0.971839 0.234206
vn 0.004744 0.979765 0.200095
vn 0.004744 0.979765 0.200095
vn 0.004744 0.979765 0.200095
vn 0.200126 0.945484 0.256924
vn 0.200126 0.945484 0.256924
vn 0.200126 0.945484 0.256924
vn 0.209772 0.939846 0.269603
vn 0.209772 0.939846 0.269603
vn 0.209772 0.939846 0.269603
vn 0.303494 0.904207 0.300501
vn 0.303494 0.904207 0.300501
vn 0.303494 0.904207 0.300501
vn 0.412384 0.865614 0.283992
vn 0.412384 0.865614 0.283992
vn 0.412384 0.865614 0.283992
vn 0.024985 0.994049 0.106028
vn 0.024985 0.994049 0.106028
vn 0.024985 0.994049 0.106028
vn 0.100425 0.994128 0.040301
vn 0.100425 0.994128 0.040301
vn 0.100425 0.994128 0.040301
vn 0.129482 0.991173 0.028479
vn 0.129482 0.991173 0.028479
vn 0.129482 0.991173 0.028479
vn -0.045815 0.998948 -0.002099
vn -0.045815 0.998948 -0.002099
vn -0.045815 0.998948 -0.002099
vn -0.112707 0.992400 0.049388
vn -0.112707 0.992400 0.049388
vn -0.112707 0.992400 0.049388
vn -0.130678 0.990362 0.045902
vn -0.130678 0.990362 0.045902
vn -0.130678 0.990362 0.045902
vn -0.151004 0.986318 0.066144
vn -0.151004 0.986318 0.066144
vn -0.151004 0.986318 0.066144
vn 0.004827 0.996979 0.077528
vn 0.004827 0.996979 0.077528
vn 0.004827 0.996979 0.077528
vn 0.204448 0.965905 0.158834
vn 0.204448 0.965905 0.158834
vn 0.204448 0.965905 0.158834
vn 0.162618 0.980649 0.109013
vn 0.162618 0.980649 0.109013
vn 0.162618 0.980649 0.109013
vn 0.031694 0.997731 0.059405
vn 0.031694 0.997731 0.059405
vn 0.031694 0.997731 0.059405
vn 0.422460 0.886765 0.187552
vn 0.422460 0.886765 0.187552
vn 0.422460 0.886765 0.187552
vn 0.527218 0.846670 0.072054
vn 0.527218 0.846670 0.072054
vn 0.527218 0.846670 0.072054
vn 0.452701 0.891428 -0.020460
vn 0.452701 0.891428 -0.020460
vn 0.452701 0.891428 -0.020460
vn 0.183735 0.980685 0.067076
vn 0.183735 0.980685 0.067076
vn 0.183735 0.980685 0.067076
vn 0.097316 0.994440 0.040240
vn 0.097316 0.994440 0.040240
vn 0.097316 0.994440 0.040240
vn 0.370017 0.927162 -0.058801
vn 0.370017 0.927162 -0.058801
vn 0.370017 0.927162 -0.058801
vn 0.098619 0.994144 0.044180
vn 0.098619 0.994144 0.044180
vn 0.098619 0.994144 0.044180
vn -0.038879 0.999230 -0.005194
vn -0.038879 0.999231 -0.005194
vn -0.038879 0.999231 -0.005194
vn -0.129046 0.991633 -0.003460
vn -0.129046 0.991633 -0.003460
vn -0.129046 0.991633 -0.003460
vn -0.150194 0.981027 -0.122591
vn -0.150194 0.981027 -0.122591
vn -0.150194 0.981027 -0.122591
vn 0.031703 0.998019 -0.054340
vn 0.031703 0.998019 -0.054340
vn 0.031703 0.998019 -0.054340
vn 0.040737 0.996413 -0.074175
vn 0.040737 0.996413 -0.074175
vn 0.040737 0.996413 -0.074175
vn 0.039562 0.995613 -0.084790
vn 0.039562 0.995613 -0.084790
vn 0.039562 0.995613 -0.084790
vn 0.093601 0.982076 -0.163603
vn 0.093601 0.982076 -0.163603
vn 0.093601 0.982076 -0.163603
vn 0.406318 0.904301 -0.130940
vn 0.406318 0.904301 -0.130940
vn 0.406318 0.904301 -0.130940
vn 0.398854 0.887689 -0.230050
vn 0.398854 0.887689 -0.230050
vn 0.398854 0.887689 -0.230050
vn 0.451898 0.889847 -0.062937
vn 0.451898 0.889847 -0.062937
vn 0.451898 0.889847 -0.062937
vn 0.352033 0.926811 -0.130746
vn 0.352033 0.926811 -0.130746
vn 0.352033 0.926811 -0.130746
vn 0.138106 0.984184 -0.110949
vn 0.138106 0.984184 -0.110948
vn 0.138106 0.984184 -0.110949
vn 0.104655 0.993396 -0.047036
vn 0.104655 0.993396 -0.047036
vn 0.104655 0.993396 -0.047036
vn -0.107289 0.992912 -0.051139
vn -0.107289 0.992912 -0.051139
vn -0.107289 0.992912 -0.051139
vn -0.103751 0.993081 -0.055007
vn -0.103751 0.993081 -0.055007
vn -0.103751 0.993081 -0.055007
vn -0.146376 0.983004 -0.110805
vn -0.146376 0.983004 -0.110805
vn -0.146376 0.983004 -0.110805
vn -0.060761 0.984124 -0.166759
vn -0.060761 0.984124 -0.166759
vn -0.060761 0.984124 -0.166759
vn 0.041977 0.968024 -0.247320
vn 0.041977 0.968024 -0.247320
vn 0.041977 0.968024 -0.247320
vn 0.091613 0.961220 -0.260122
vn 0.091613 0.961220 -0.260122
vn 0.091613 0.961220 -0.260122
vn 0.249821 0.916826 -0.311479
vn 0.249821 0.916826 -0.311479
vn 0.249821 0.916826 -0.311479
vn 0.349925 0.921260 -0.169799
vn 0.349925 0.921260 -0.169799
vn 0.349925 0.921260 -0.169799
vn 0.073559 0.987162 -0.141778
vn 0.073559 0.987162 -0.141778
vn 0.073559 0.987162 -0.141779
vn 0.075467 0.995792 -0.051992
vn 0.075467 0.995792 -0.051992
vn 0.075467 0.995792 -0.051992
vn -0.037717 0.999209 -0.012588
vn -0.037717 0.999209 -0.012588
vn -0.037717 0.999209 -0.012588
vn -0.037327 0.999222 -0.012711
vn -0.037327 0.999222 -0.012711
vn -0.037327 0.999222 -0.012711
vn -0.061612 0.997915 0.019237
vn -0.061612 0.997915 0.019237
vn -0.061612 0.997915 0.019237
vn 0.042890 0.989093 -0.140912
vn 0.042890 0.989093 -0.140912
vn 0.042890 0.989093 -0.140912
vn 0.129861 0.949903 -0.284291
vn 0.129861 0.949903 -0.284291
vn 0.129861 0.949903 -0.284291
vn 0.050412 0.995549 -0.079634
vn 0.050412 0.995549 -0.079634
vn 0.050412 0.995549 -0.079634
vn 0.134442 0.983416 -0.121731
vn 0.134442 0.983416 -0.121731
vn 0.134442 0.983416 -0.121731
vn 0.051554 0.995553 -0.078850
vn 0.051554 0.995552 -0.078850
vn 0.051554 0.995553 -0.078850
vn 0.039880 0.996425 -0.074479
vn 0.039880 0.996425 -0.074479
vn 0.039880 0.996425 -0.074479
vn -0.046977 0.997791 -0.046975
vn -0.046977 0.997791 -0.046975
vn -0.046977 0.997791 -0.046975
vn 0.018746 0.990209 -0.138329
vn 0.018746 0.990209 -0.138329
vn 0.018746 0.990209 -0.138329
vn 0.023908 0.991780 -0.125699
vn 0.023908 0.991780 -0.125699
vn 0.023908 0.991780 -0.125699
vn 0.041218 0.997405 -0.059027
vn 0.041218 0.997405 -0.059027
vn 0.041218 0.997405 -0.059027
vn 0.036593 0.997822 -0.054890
vn 0.036593 0.997822 -0.054890
vn 0.036593 0.997822 -0.054890
vn -0.010060 0.998695 -0.050077
vn -0.010060 0.998695 -0.050077
vn -0.010060 0.998695 -0.050077
vn 0.019778 0.998687 -0.047256
vn 0.019778 0.998687 -0.047256
vn 0.019778 0.998687 -0.047256
s off
f 1/1/1 21/17/2 2/2/3
f 2/2/4 21/17/5 23/19/6
f 21/17/7 22/18/8 23/19/9
f 23/19/10 22/18/11 24/20/12
f 21/17/13 1/1/14 31/27/15
f 2/2/16 23/19/17 25/21/18
f 3/3/19 23/19/20 26/22/21
f 25/21/22 23/19/23 3/3/24
f 23/19/25 24/20/26 26/22/27
f 26/22/28 24/20/29 27/23/30
f 26/22/31 27/23/32 28/24/33
f 27/23/34 29/25/35 28/24/36
f 31/27/37 1/1/38 4/4/39
f 1/1/40 42/10/41 4/4/42
f 1/1/43 2/2/44 42/10/45
f 2/2/46 25/21/47 42/10/48
f 42/10/49 25/21/50 43/11/51
f 25/21/52 3/3/53 43/11/54
f 43/11/55 3/3/56 5/5/57
f 5/5/58 3/3/59 32/28/60
f 3/3/61 26/22/62 32/28/63
f 32/28/64 26/22/65 28/24/66
f 32/28/67 28/24/68 33/29/69
f 28/24/70 29/25/71 33/29/72
f 29/25/73 35/31/74 34/30/75
f 33/29/76 29/25/77 34/30/78
f 31/27/79 4/4/80 30/26/81
f 4/4/82 42/10/83 44/12/84
f 42/10/85 43/11/86 44/12/87
f 44/12/88 43/11/89 36/32/90
f 43/11/91 5/5/92 36/32/93
f 5/5/94 32/28/95 38/34/96
f 5/5/97 38/34/98 37/33/99
f 36/32/100 5/5/101 37/33/102
f 32/28/103 33/29/104 38/34/105
f 38/34/106 33/29/107 39/35/108
f 38/34/109 39/35/110 37/33/111
f 33/29/112 34/30/113 39/35/114
f 40/36/115 34/30/116 41/37/117
f 39/35/118 34/30/119 40/36/120
f 34/30/121 35/31/122 41/37/123
f 30/26/124 4/4/125 6/6/126
f 4/4/127 44/12/128 6/6/129
f 44/12/130 36/32/131 10/38/132
f 36/32/133 37/33/134 10/38/135
f 10/38/136 37/33/137 45/13/138
f 10/38/139 45/13/140 7/7/141
f 7/7/142 45/13/143 11/39/144
f 45/13/145 37/33/146 40/36/147
f 45/13/148 40/36/149 11/39/150
f 37/33/151 39/35/152 40/36/153
f 11/39/154 40/36/155 12/40/156
f 40/36/157 41/37/158 12/40/159
f 12/40/160 41/37/161 16/44/162
f 6/6/163 44/12/164 13/41/165
f 13/41/166 44/12/167 7/7/168
f 44/12/169 10/38/170 7/7/171
f 13/41/172 7/7/173 8/8/174
f 7/7/175 19/47/176 8/8/177
f 7/7/178 11/39/179 19/47/180
f 14/42/181 11/39/182 46/14/183
f 11/39/184 12/40/185 46/14/186
f 12/40/187 16/44/188 46/14/189
f 46/14/190 16/44/191 15/43/192
f 30/26/193 6/6/194 17/45/195
f 6/6/196 13/41/197 17/45/198
f 13/41/199 8/8/200 17/45/201
f 18/46/202 8/8/203 19/47/204
f 11/39/205 14/42/206 19/47/207
f 14/42/208 46/14/209 47/15/210
f 19/47/211 14/42/212 9/9/213
f 9/9/214 14/42/215 47/15/216
f 47/15/217 46/14/218 15/43/219
f 17/45/220 8/8/221 20/48/222
f 20/48/223 8/8/224 18/46/225
f 18/46/226 19/47/227 9/9/228
f 9/9/229 47/15/230 48/16/231
f 47/15/232 15/43/233 48/16/234
f 20/48/235 18/46/236 48/16/237
f 18/46/238 9/9/239 48/16/240
