# This file uses centimeters as units for non-parametric coordinates.

v 453.008545 204.037704 16.651165
v 406.966309 164.029877 16.651165
v 453.008545 196.322510 26.305092
v 426.473541 172.080200 26.305092
v 453.008789 124.022041 16.651165
v 453.008789 131.737213 26.305092
v 500.000000 196.322510 26.305090
v 500.000000 204.037704 16.651165
v 500.000000 131.737213 26.305090
v 500.000000 124.022041 16.651165
v 456.378174 74.994858 16.651165
v 443.501465 74.994858 26.508430
v 353.199463 178.183945 16.651165
v 357.160889 161.343918 26.508430
v 56.498535 74.994858 26.508430
v 43.621826 74.994858 16.651165
v 153.239502 171.745575 26.508430
v 146.800537 178.183945 16.651165
v 46.991333 124.022041 16.651165
v 93.033691 164.029877 16.651165
v 46.991333 131.737244 26.305092
v 60.046169 153.489594 26.305092
v 46.991333 204.037704 16.651165
v 46.991333 196.322525 26.305092
v 0.000000 131.737244 26.305090
v 0.000000 124.022041 16.651165
v 0.000000 196.322525 26.305090
v 0.000000 204.037704 16.651165
v 0.000000 0.000000 31.195307
v 500.000000 0.000000 31.195307
v 0.000000 500.000000 31.195307
v 500.000000 500.000000 31.195307
v 0.000000 500.000000 -14.239197
v 500.000000 500.000000 -14.239197
v 0.000000 0.000000 -14.239197
v 500.000000 0.000000 -14.239197
v 0.000000 250.000000 31.195307
v 500.000000 250.000000 31.195307
v 500.000000 286.000000 31.195307
v 389.445313 286.000000 31.195307
v 500.000000 464.000000 31.195307
v 286.000000 385.066040 31.195307
v 286.000000 464.000000 31.195307
v 214.000000 385.066040 31.195307
v 110.554688 286.000000 31.195307
v 214.000000 464.000000 31.195307
v 0.000000 286.000000 31.195307
v 0.000000 464.000000 31.195307
v 195.800049 392.836243 16.651165
v 103.245605 304.200012 16.651165
v 195.800049 445.799957 16.651165
v 0.000000 304.200012 16.651165
v 0.000000 445.799957 16.651165
v 500.000000 304.200012 16.651165
v 396.754395 304.200012 16.651165
v 500.000000 445.799957 16.651165
v 304.199951 392.836243 16.651165
v 304.199951 445.799957 16.651165
v 0.000000 221.439117 16.651165
v 500.000000 221.439117 16.651165
v 0.000000 105.152161 16.651165
v 500.000000 105.152161 16.651165
v 0.000000 75.871384 31.195307
v 500.000000 75.871384 31.195307
v 216.635269 397.870880 31.195309
v 283.364716 438.791656 31.195307
v 90.606857 446.954803 16.651165
v 72.725525 462.845154 31.195305
v 465.816437 465.374786 31.195307
v 425.582672 444.425171 16.651165
v 411.648987 251.105927 31.195305
v 424.061493 220.333191 16.651165
v 310.898376 259.757690 31.195305
v 96.857147 249.202393 31.195307
v 69.055840 219.303360 16.651165
v 274.869446 221.439117 16.651165
v 279.004944 238.750885 25.466890
v 329.477051 250.406647 31.195305
v 211.234009 249.695953 31.195305
v 351.027161 176.011902 19.976593
v 319.086975 171.745575 26.508430
v 144.942566 163.447784 26.508430
v 91.369301 109.869141 26.508430
v 123.350891 122.164795 26.508430
v 102.804512 129.192535 20.471424
v 280.632263 179.135040 16.651165
v 227.956604 167.280472 26.508430
v 147.115021 298.332031 31.195307
v 158.054916 331.489319 31.195307
v 118.339470 305.187439 27.098278
v 411.286102 164.029877 20.550261
v 430.555969 152.249939 26.305092
v 86.629204 164.029877 22.431927
v 74.033157 171.617264 26.305092
v 54.235661 138.355621 26.305092
v 337.509857 363.778809 16.651165
v 338.647919 328.303772 31.195305
v 326.631989 75.871384 31.195307
v 460.468506 75.871384 31.195307
v 419.116852 66.354347 31.195307
v 436.977814 81.664970 28.317556
v 120.088295 75.871384 31.195309
v 249.712891 75.871384 31.195307
v 217.095276 65.856628 31.195307
v 165.051331 66.507141 31.195307
v 200.650604 82.426437 27.939325
vt 0.215235 0.815663
vt 0.215235 0.562030
vt 0.237360 0.562030
vt 0.237360 0.565663
vt 0.237360 0.846071
vt 0.237360 0.849704
vt 0.215235 0.599704
vt 0.215235 0.846071
vt 0.193556 0.580867
vt 0.202741 0.584657
vt 0.170106 0.579602
vt 0.168241 0.587531
vt 0.071061 0.587531
vt 0.074093 0.584500
vt 0.022481 0.538946
vt 0.216821 0.538946
vt 0.210758 0.538946
vt 0.028544 0.538946
vt 0.024068 0.846071
vt 0.024068 0.599704
vt 0.001942 0.599704
vt 0.001942 0.596071
vt 0.001942 0.815663
vt 0.001942 0.812030
vt 0.024068 0.562030
vt 0.024068 0.815663
vt 0.045746 0.580867
vt 0.030214 0.575904
vt 0.001942 0.871345
vt 0.001942 0.857897
vt 0.237360 0.857897
vt 0.237360 0.871345
vt 0.001942 0.753636
vt 0.001942 0.753636
vt 0.237360 0.753636
vt 0.237360 0.753636
vt 0.001942 0.989053
vt 0.237360 0.989053
vt 0.050554 0.896864
vt 0.094132 0.688597
vt 0.094132 0.713534
vt 0.001942 0.963534
vt 0.001942 0.896864
vt 0.237360 0.963534
vt 0.145170 0.713534
vt 0.145170 0.938597
vt 0.188748 0.896864
vt 0.237360 0.896864
vt 0.185307 0.888295
vt 0.237360 0.888295
vt 0.102701 0.972103
vt 0.136601 0.972103
vt 0.237360 0.989053
vt 0.001942 0.989053
vt 0.053995 0.888295
vt 0.136601 0.684938
vt 0.102701 0.684938
vt 0.001942 0.972103
vt 0.001942 0.638295
vt 0.237360 0.722103
vt 0.001942 0.803145
vt 0.237360 0.803145
vt 0.001942 0.789359
vt 0.237360 0.539359
vt 0.001942 0.539359
vt 0.237360 0.789359
vt 0.237360 0.553145
vt 0.001942 0.553145
vt 0.237360 0.607897
vt 0.001942 0.607897
vt 0.237360 0.621345
vt 0.001942 0.621345
vt 0.145170 0.688597
vt 0.145170 0.963534
vt 0.237360 0.713534
vt 0.188748 0.646864
vt 0.237360 0.972103
vt 0.237360 0.646864
vt 0.237360 0.638295
vt 0.094132 0.963534
vt 0.001942 0.713534
vt 0.001942 0.722103
vt 0.050554 0.646864
vt 0.001942 0.646864
vt 0.001942 0.888295
vt 0.094132 0.938597
vt 0.102701 0.722103
vt 0.053995 0.638295
vt 0.102701 0.934938
vt 0.136601 0.934938
vt 0.136601 0.722103
vt 0.185307 0.638295
vt 0.001942 0.849704
vt 0.001942 0.846071
vt 0.001942 0.565663
vt 0.001942 0.562030
vt 0.030214 0.825904
vt 0.024068 0.596071
vt 0.024068 0.565663
vt 0.074093 0.834500
vt 0.028544 0.788946
vt 0.210758 0.788946
vt 0.170106 0.829602
vt 0.237360 0.812030
vt 0.237360 0.815663
vt 0.237360 0.596071
vt 0.237360 0.599704
vt 0.202741 0.834657
vt 0.215235 0.565663
vt 0.215235 0.596071
vt 0.102701 0.693370
vt 0.102701 0.943370
vt 0.136601 0.957832
vt 0.136601 0.707832
vt 0.044048 0.963534
vt 0.044048 0.713534
vt 0.036739 0.722103
vt 0.036739 0.972103
vt 0.221575 0.722103
vt 0.221575 0.972103
vt 0.202012 0.963534
vt 0.202012 0.713534
vt 0.195761 0.621345
vt 0.195761 0.871345
vt 0.201605 0.607897
vt 0.140182 0.621465
vt 0.148300 0.875912
vt 0.046859 0.621345
vt 0.046859 0.871345
vt 0.034827 0.606689
vt 0.131360 0.607897
vt 0.133308 0.616048
vt 0.157072 0.621345
vt 0.157072 0.871345
vt 0.101137 0.621345
vt 0.101137 0.871345
vt 0.167218 0.586509
vt 0.152180 0.834500
vt 0.152180 0.584500
vt 0.070186 0.830593
vt 0.070186 0.580593
vt 0.044962 0.805366
vt 0.044962 0.555366
vt 0.060020 0.811156
vt 0.050346 0.564464
vt 0.057519 0.563656
vt 0.134074 0.587531
vt 0.109272 0.834500
vt 0.109272 0.584500
vt 0.071014 0.894207
vt 0.076360 0.909713
vt 0.076360 0.659713
vt 0.070198 0.645157
vt 0.057661 0.647329
vt 0.195590 0.580867
vt 0.204663 0.825321
vt 0.204663 0.575321
vt 0.042730 0.580867
vt 0.036800 0.834439
vt 0.036800 0.584439
vt 0.027478 0.568779
vt 0.027478 0.818779
vt 0.160727 0.674784
vt 0.160864 0.924896
vt 0.161390 0.908213
vt 0.161673 0.658508
vt 0.155732 0.539359
vt 0.155732 0.789359
vt 0.218747 0.539359
vt 0.218747 0.789359
vt 0.199277 0.784878
vt 0.207687 0.542087
vt 0.199277 0.535765
vt 0.058484 0.539359
vt 0.058484 0.789359
vt 0.119516 0.539359
vt 0.119516 0.789359
vt 0.104158 0.784644
vt 0.079654 0.784950
vt 0.096416 0.542445
vt 0.079654 0.535823
vt 0.104158 0.535577
vn 0.000000 -0.781183 0.624302
vn 0.000000 -0.781183 0.624302
vn 0.000000 -0.781183 0.624302
vn 0.000000 -0.781183 0.624302
vn 0.000000 0.781183 0.624303
vn 0.000000 0.781183 0.624303
vn 0.000000 0.781183 0.624303
vn 0.000000 0.781183 0.624303
vn 0.000000 0.000000 1.000000
vn 0.000000 0.000000 1.000000
vn 0.000000 0.000000 1.000000
vn 0.000000 0.000000 1.000000
vn -0.553430 0.624223 0.551417
vn -0.553430 0.624223 0.551417
vn -0.553430 0.624223 0.551417
vn -0.553430 0.624223 0.551417
vn -0.553430 0.624223 0.551417
vn -0.553430 0.624223 0.551417
vn -0.553430 0.624223 0.551417
vn -0.553852 -0.625331 0.549736
vn -0.553852 -0.625331 0.549736
vn -0.553852 -0.625331 0.549736
vn -0.553852 -0.625331 0.549736
vn -0.553852 -0.625331 0.549736
vn -0.553852 -0.625331 0.549736
vn -0.553852 -0.625331 0.549736
vn 0.000000 0.000000 1.000000
vn 0.000000 0.000000 1.000000
vn 0.000000 0.000000 1.000000
vn 0.000000 0.000000 1.000000
vn 1.000000 0.000000 0.000000
vn 1.000000 0.000000 0.000000
vn 1.000000 0.000000 0.000000
vn 1.000000 0.000000 0.000000
vn -0.035664 0.727877 0.684780
vn -0.035664 0.727877 0.684780
vn -0.035664 0.727877 0.684780
vn 0.000000 -1.000000 0.000000
vn 0.000000 -1.000000 0.000000
vn 0.000000 -1.000000 0.000000
vn 0.000000 -1.000000 0.000000
vn 0.000000 0.000000 1.000000
vn 0.000000 0.000000 1.000000
vn 0.000000 0.000000 1.000000
vn 0.000000 0.000000 1.000000
vn 0.519434 0.519382 0.678550
vn 0.519434 0.519382 0.678550
vn 0.519434 0.519382 0.678550
vn 0.519434 0.519382 0.678550
vn 0.519434 0.519382 0.678550
vn 0.519434 0.519382 0.678550
vn 0.519434 0.519382 0.678550
vn -0.519436 0.519384 0.678547
vn -0.519436 0.519384 0.678547
vn -0.519436 0.519384 0.678547
vn -0.519436 0.519384 0.678547
vn -0.000000 0.781183 0.624303
vn -0.000000 0.781183 0.624303
vn -0.000000 0.781183 0.624303
vn -0.000000 0.781183 0.624303
vn 0.000000 -0.781182 0.624304
vn 0.000000 -0.781182 0.624304
vn 0.000000 -0.781182 0.624304
vn 0.000000 -0.781182 0.624304
vn -0.000000 0.000000 1.000000
vn -0.000000 0.000000 1.000000
vn -0.000000 0.000000 1.000000
vn -0.000000 0.000000 1.000000
vn 0.169024 -0.064895 0.983473
vn 0.169024 -0.064895 0.983473
vn 0.169024 -0.064895 0.983473
vn 0.202912 -0.156563 0.966600
vn 0.202912 -0.156563 0.966600
vn 0.202912 -0.156563 0.966600
vn -1.000000 0.000000 0.000000
vn -1.000000 0.000000 0.000000
vn -1.000000 0.000000 0.000000
vn -1.000000 0.000000 0.000000
vn -0.000000 -0.440196 0.897902
vn -0.000000 -0.440196 0.897902
vn -0.000000 -0.440196 0.897902
vn -0.000000 -0.440196 0.897902
vn 0.000000 -1.000000 0.000000
vn 0.000000 -1.000000 0.000000
vn 0.000000 -1.000000 0.000000
vn 0.000000 -1.000000 0.000000
vn 0.000000 0.000000 -1.000000
vn 0.000000 0.000000 -1.000000
vn 0.000000 0.000000 -1.000000
vn 0.000000 0.000000 -1.000000
vn 0.000000 0.000000 1.000000
vn 0.000000 0.000000 1.000000
vn 0.000000 0.000000 1.000000
vn 0.000000 0.000000 1.000000
vn 0.000000 0.000000 1.000000
vn 0.000000 0.000000 1.000000
vn 0.000000 0.000000 1.000000
vn 0.000000 0.000000 1.000000
vn 0.000000 0.000000 1.000000
vn 0.000000 0.000000 1.000000
vn 0.000000 0.000000 1.000000
vn 0.000000 0.000000 1.000000
vn 0.000000 0.000000 1.000000
vn 0.000000 0.000000 1.000000
vn 0.000000 0.000000 1.000000
vn 0.000000 0.000000 1.000000
vn 0.000000 0.000000 1.000000
vn 0.000000 0.000000 1.000000
vn 0.000000 -0.000000 1.000000
vn 0.000000 -0.000000 1.000000
vn 0.000000 -0.000000 1.000000
vn -0.080737 0.239358 0.967569
vn -0.080737 0.239358 0.967569
vn -0.080737 0.239358 0.967569
vn -0.406557 -0.008996 0.913581
vn -0.406557 -0.008996 0.913581
vn -0.406557 -0.008996 0.913581
vn -0.406557 -0.008996 0.913581
vn 0.000000 -0.458745 0.888568
vn 0.000000 -0.458745 0.888568
vn 0.000000 -0.458745 0.888568
vn 0.000000 -0.458745 0.888568
vn 0.000000 0.435302 0.900284
vn 0.000000 0.435302 0.900284
vn 0.000000 0.435302 0.900284
vn 0.000000 0.435302 0.900284
vn 0.000000 0.435302 0.900284
vn 0.000000 0.435302 0.900284
vn 0.000000 0.435302 0.900284
vn 0.000000 0.435302 0.900284
vn -0.000000 -0.410029 0.912073
vn -0.000000 -0.410029 0.912073
vn -0.000000 -0.410029 0.912073
vn -0.000000 -0.410029 0.912073
vn 0.254414 0.274789 0.927235
vn 0.254414 0.274789 0.927235
vn 0.254414 0.274789 0.927235
vn 0.254414 0.274789 0.927235
vn 0.400662 -0.041885 0.915268
vn 0.400662 -0.041885 0.915268
vn 0.400662 -0.041885 0.915268
vn -0.000000 0.000000 1.000000
vn -0.000000 0.000000 1.000000
vn -0.000000 0.000000 1.000000
vn 0.000000 0.444857 0.895602
vn 0.000000 0.444857 0.895602
vn 0.000000 0.444857 0.895602
vn 0.000000 0.444857 0.895602
vn 0.000000 0.000000 1.000000
vn 0.000000 0.000000 1.000000
vn 0.000000 0.000000 1.000000
vn 0.000000 0.000000 1.000000
vn -0.000000 0.000000 1.000000
vn -0.000000 0.000000 1.000000
vn -0.000000 0.000000 1.000000
vn -0.000000 0.000000 1.000000
vn 0.000000 0.000000 1.000000
vn 0.000000 0.000000 1.000000
vn 0.000000 0.000000 1.000000
vn 0.000000 0.000000 1.000000
vn 0.000000 0.000000 1.000000
vn 0.000000 0.000000 1.000000
vn -1.000000 0.000000 0.000000
vn -1.000000 0.000000 0.000000
vn -1.000000 0.000000 0.000000
vn -1.000000 0.000000 0.000000
vn 1.000000 0.000000 0.000000
vn 1.000000 0.000000 0.000000
vn 1.000000 0.000000 0.000000
vn 1.000000 0.000000 0.000000
vn -1.000000 0.000000 0.000000
vn -1.000000 0.000000 0.000000
vn -1.000000 0.000000 0.000000
vn -1.000000 0.000000 0.000000
vn -1.000000 0.000000 0.000000
vn -1.000000 0.000000 0.000000
vn -1.000000 0.000000 0.000000
vn -1.000000 0.000000 0.000000
vn -1.000000 0.000000 0.000000
vn -1.000000 0.000000 0.000000
vn -1.000000 0.000000 0.000000
vn -1.000000 0.000000 0.000000
vn 1.000000 -0.000001 0.000000
vn 1.000000 -0.000001 0.000000
vn 1.000000 -0.000001 0.000000
vn 1.000000 -0.000001 0.000000
vn 1.000000 0.000002 0.000000
vn 1.000000 0.000002 0.000000
vn 1.000000 0.000002 0.000000
vn 1.000000 0.000002 0.000000
vn 1.000000 -0.000000 0.000000
vn 1.000000 -0.000000 0.000000
vn 1.000000 -0.000000 0.000000
vn 1.000000 -0.000000 0.000000
vn 1.000000 0.000000 0.000000
vn 1.000000 0.000000 0.000000
vn 1.000000 0.000000 0.000000
vn 1.000000 0.000000 0.000000
vn -1.000000 0.000000 0.000000
vn -1.000000 0.000000 0.000000
vn -1.000000 0.000000 0.000000
vn -1.000000 0.000000 0.000000
vn 0.000000 1.000000 0.000000
vn 0.000000 1.000000 0.000000
vn 0.000000 1.000000 0.000000
vn 0.000000 1.000000 0.000000
vn -0.404741 0.083296 0.910630
vn -0.404741 0.083296 0.910630
vn -0.404741 0.083296 0.910630
vn 0.000000 -0.000000 1.000000
vn 0.000000 -0.000000 1.000000
vn 0.000000 -0.000000 1.000000
vn 0.000000 -0.000000 1.000000
vn 0.407835 0.010074 0.913000
vn 0.407835 0.010074 0.913000
vn 0.407835 0.010074 0.913000
vn 0.407835 0.010074 0.913000
vn 0.000000 0.000000 1.000000
vn 0.000000 0.000000 1.000000
vn 0.000000 0.000000 1.000000
vn 0.000000 0.000000 1.000000
vn -0.000000 -0.458745 0.888568
vn -0.000000 -0.458745 0.888568
vn -0.000000 -0.458745 0.888568
vn -0.000000 -0.458745 0.888568
vn -0.000000 -0.000000 1.000000
vn -0.000000 -0.000000 1.000000
vn -0.000000 -0.000000 1.000000
vn -0.000000 0.000000 1.000000
vn -0.000000 0.000000 1.000000
vn -0.000000 0.000000 1.000000
vn 0.000000 -0.410028 0.912073
vn 0.000000 -0.410028 0.912073
vn 0.000000 -0.410028 0.912073
vn 0.000000 -0.410028 0.912073
vn 0.000000 0.000000 1.000000
vn 0.000000 0.000000 1.000000
vn 0.000000 0.000000 1.000000
vn -0.076661 -0.152310 0.985355
vn -0.076661 -0.152310 0.985355
vn -0.076661 -0.152310 0.985355
vn 0.000000 0.000000 1.000000
vn 0.000000 0.000000 1.000000
vn 0.000000 0.000000 1.000000
vn 0.000000 0.000000 1.000000
vn 0.000000 0.000000 1.000000
vn 0.000000 0.000000 1.000000
vn 0.000000 0.000000 1.000000
vn -0.000000 -0.464044 0.885812
vn -0.000000 -0.464044 0.885812
vn -0.000000 -0.464044 0.885812
vn -0.000000 -0.464044 0.885812
vn 0.000000 0.000000 1.000000
vn 0.000000 0.000000 1.000000
vn 0.000000 0.000000 1.000000
vn -0.000000 0.000000 1.000000
vn -0.000000 0.000000 1.000000
vn -0.000000 0.000000 1.000000
vn 0.030933 -0.306404 0.951399
vn 0.030933 -0.306404 0.951399
vn 0.030933 -0.306404 0.951399
vn -0.000270 -0.439191 0.898394
vn -0.000270 -0.439191 0.898394
vn -0.000270 -0.439191 0.898394
vn 0.000000 -0.000000 1.000000
vn 0.000000 -0.000000 1.000000
vn 0.000000 -0.000000 1.000000
vn 0.000000 -0.000000 1.000000
vn -0.000000 0.000000 1.000000
vn -0.000000 0.000000 1.000000
vn -0.000000 0.000000 1.000000
vn -0.000158 -0.464840 0.885395
vn -0.000158 -0.464840 0.885395
vn -0.000158 -0.464840 0.885395
vn 0.121800 0.445831 0.886792
vn 0.121800 0.445831 0.886792
vn 0.121800 0.445831 0.886792
vn -0.239927 0.125486 0.962647
vn -0.239927 0.125486 0.962647
vn -0.239927 0.125486 0.962647
vn -0.142672 0.371097 0.917568
vn -0.142672 0.371097 0.917568
vn -0.142672 0.371097 0.917568
vn -0.519436 0.519384 0.678548
vn -0.519436 0.519384 0.678548
vn -0.519436 0.519384 0.678548
vn -0.519436 0.519384 0.678548
vn -0.519436 0.519384 0.678547
vn -0.519436 0.519384 0.678547
vn -0.519436 0.519384 0.678547
vn 0.009543 0.821756 0.569760
vn 0.009543 0.821756 0.569760
vn 0.009543 0.821756 0.569760
vn 0.009543 0.821756 0.569760
vn 0.012109 0.718670 0.695246
vn 0.012109 0.718670 0.695246
vn 0.012109 0.718670 0.695246
vn 0.012109 0.718670 0.695246
vn 0.000000 0.000000 1.000000
vn 0.000000 0.000000 1.000000
vn 0.000000 0.000000 1.000000
vn 0.000000 0.000000 1.000000
vn 0.000000 0.000000 1.000000
vn 0.000000 0.000000 1.000000
vn 0.000000 0.000000 1.000000
vn 0.000000 0.000000 1.000000
vn 0.000000 0.000000 1.000000
vn 0.000000 0.000000 1.000000
vn 0.000000 0.000000 1.000000
vn 0.000000 -0.000000 1.000000
vn 0.000000 -0.000000 1.000000
vn 0.000000 -0.000000 1.000000
vn 0.000000 -0.000000 1.000000
vn 0.000000 0.000000 1.000000
vn 0.000000 0.000000 1.000000
vn 0.000000 0.000000 1.000000
vn 0.000000 0.000000 1.000000
vn -0.130746 0.043138 0.990477
vn -0.130746 0.043138 0.990477
vn -0.130746 0.043138 0.990477
vn -0.301080 0.314389 0.900284
vn -0.301080 0.314389 0.900284
vn -0.301080 0.314389 0.900284
vn -0.301080 0.314389 0.900284
vn -0.301079 0.314389 0.900284
vn -0.301079 0.314389 0.900284
vn -0.301079 0.314389 0.900284
vn -0.322579 -0.066409 0.944210
vn -0.322579 -0.066409 0.944210
vn -0.322579 -0.066409 0.944210
vn 0.553113 0.623400 0.552665
vn 0.553113 0.623400 0.552665
vn 0.553113 0.623400 0.552665
vn 0.553113 0.623400 0.552665
vn 0.553113 0.623400 0.552665
vn 0.553113 0.623400 0.552665
vn 0.553113 0.623400 0.552665
vn 0.000000 0.000000 1.000000
vn 0.000000 0.000000 1.000000
vn 0.000000 0.000000 1.000000
vn 0.000000 0.000000 1.000000
vn 0.554529 -0.627105 0.547026
vn 0.554529 -0.627105 0.547026
vn 0.554529 -0.627105 0.547026
vn 0.554529 -0.627105 0.547026
vn 0.554529 -0.627105 0.547026
vn 0.554529 -0.627105 0.547026
vn 0.554529 -0.627105 0.547026
vn -0.000000 0.000000 1.000000
vn -0.000000 0.000000 1.000000
vn -0.000000 0.000000 1.000000
vn -0.000000 0.000000 1.000000
vn 0.269469 0.269903 0.924413
vn 0.269469 0.269903 0.924413
vn 0.269469 0.269903 0.924413
vn 0.269469 0.269903 0.924413
vn 0.000000 -0.000000 1.000000
vn 0.000000 -0.000000 1.000000
vn 0.000000 -0.000000 1.000000
vn 0.000000 -0.000000 1.000000
vn -0.301080 0.314389 0.900284
vn -0.301080 0.314389 0.900284
vn -0.301080 0.314389 0.900284
vn -0.057181 0.248453 0.966955
vn -0.057181 0.248453 0.966955
vn -0.057181 0.248453 0.966955
vn 0.017028 0.165475 0.986067
vn 0.017028 0.165475 0.986067
vn 0.017028 0.165475 0.986067
vn 0.000000 0.000000 1.000000
vn 0.000000 0.000000 1.000000
vn 0.000000 0.000000 1.000000
vn 0.000000 0.000000 1.000000
vn -0.000000 0.444857 0.895602
vn -0.000000 0.444857 0.895602
vn -0.000000 0.444857 0.895602
vn -0.000000 0.444857 0.895602
vn 0.002439 0.195143 0.980772
vn 0.002439 0.195143 0.980772
vn 0.002439 0.195143 0.980772
vn 0.000000 0.444857 0.895602
vn 0.000000 0.444857 0.895602
vn 0.000000 0.444857 0.895602
vn 0.000000 0.444857 0.895602
vn -0.000000 0.444857 0.895601
vn -0.000000 0.444857 0.895601
vn -0.000000 0.444857 0.895601
vn -0.000000 0.444857 0.895601
vn -0.045679 0.148773 0.987816
vn -0.045679 0.148773 0.987816
vn -0.045679 0.148773 0.987816
vn 0.028771 0.138145 0.989994
vn 0.028771 0.138145 0.989994
vn 0.028771 0.138145 0.989994
vn -0.000000 -0.000000 1.000000
vn -0.000000 -0.000000 1.000000
vn -0.000000 -0.000000 1.000000
vn -0.000000 -0.000000 1.000000
vn -0.000000 0.000000 1.000000
vn -0.000000 0.000000 1.000000
vn -0.000000 0.000000 1.000000
vn -0.000000 0.000000 1.000000
vn 0.000000 0.000000 1.000000
vn 0.000000 0.000000 1.000000
vn 0.000000 0.000000 1.000000
vn -0.000270 -0.439191 0.898394
vn -0.000270 -0.439191 0.898394
vn -0.000270 -0.439191 0.898394
vn -0.000270 -0.439191 0.898394
vn -0.000158 -0.464840 0.885395
vn -0.000158 -0.464840 0.885395
vn -0.000158 -0.464840 0.885395
vn -0.000158 -0.464840 0.885395
vn 0.000000 -0.000000 1.000000
vn 0.000000 -0.000000 1.000000
vn 0.000000 -0.000000 1.000000
vn 0.000000 0.000000 1.000000
vn 0.000000 0.000000 1.000000
vn 0.000000 0.000000 1.000000
s off
f 6/109/1 5/2/2 10/3/3 9/4/4
f 7/106/5 8/107/6 1/7/7 3/110/8
f 3/8/9 6/1/10 9/105/11 7/5/12
f 1/7/13 2/9/14 91/155/15 4/10/16
f 1/7/17 4/10/18 3/110/19
f 91/155/20 2/9/21 5/2/22 92/157/23
f 5/2/24 6/109/25 92/157/26
f 3/8/27 4/108/28 92/156/29 6/1/30
f 8/6/31 7/5/32 9/105/33 10/104/34
f 81/139/35 86/147/36 87/149/37
f 16/15/38 11/16/39 12/17/40 15/18/41
f 84/144/42 14/103/43 81/138/44 87/148/45
f 12/17/46 11/16/47 13/12/48 80/137/49
f 80/137/50 14/11/51 12/17/52
f 18/13/53 85/145/54 82/141/55 17/14/56
f 24/98/57 23/20/58 28/21/59 27/22/60
f 25/95/61 26/96/62 19/25/63 21/99/64
f 21/26/65 24/19/66 27/94/67 25/23/68
f 95/161/69 93/158/70 22/28/71
f 93/158/72 94/160/73 22/28/74
f 26/24/75 25/23/76 27/94/77 28/93/78
f 71/123/79 72/125/80 60/69/81 38/71/82
f 29/33/83 35/34/84 36/35/85 30/36/86
f 33/37/87 34/38/88 36/35/89 35/34/90
f 50/39/91 67/115/92 53/42/93 52/43/94
f 56/44/95 70/121/96 55/47/97 54/48/98
f 40/49/99 38/32/100 39/50/101
f 46/51/102 43/52/103 32/53/104 31/54/105
f 68/118/106 31/54/107 48/58/108
f 40/49/109 71/124/110 38/32/111
f 45/88/112 88/153/113 90/154/114
f 49/40/115 65/111/116 46/87/117 51/41/118
f 67/116/119 68/117/120 48/82/121 53/81/122
f 47/59/123 45/88/124 50/83/125 52/84/126
f 40/92/127 39/79/128 54/78/129 55/76/130
f 56/75/131 41/60/132 69/119/133 70/122/134
f 96/163/135 97/166/136 40/92/137 55/76/138
f 43/91/139 66/114/140 58/45/141
f 60/69/142 72/125/143 62/67/144
f 62/67/145 61/68/146 106/180/147 101/172/148
f 100/171/149 30/36/150 64/66/151 99/170/152
f 43/52/153 46/51/154 65/112/155 66/113/156
f 37/29/157 45/55/158 47/85/159
f 41/77/160 32/53/161 69/120/162
f 53/42/163 48/58/164 31/54/165 33/37/166
f 60/31/167 54/48/168 39/50/169 38/32/170
f 52/43/171 59/30/172 37/29/173 47/85/174
f 61/61/175 35/34/176 29/33/177 63/63/178
f 59/30/179 33/37/180 35/34/181 61/61/182
f 36/35/183 62/62/184 64/66/185 30/36/186
f 56/44/187 34/38/188 32/53/189 41/77/190
f 56/44/191 54/48/192 60/31/193 34/38/194
f 34/38/195 60/31/196 62/62/197 36/35/198
f 53/42/199 33/37/200 59/30/201 52/43/202
f 31/54/203 32/53/204 34/38/205 33/37/206
f 44/57/207 65/111/208 49/40/209
f 66/113/210 65/112/211 44/89/212 42/90/213
f 58/45/214 66/114/215 42/56/216 57/73/217
f 50/39/218 49/86/219 51/80/220 67/115/221
f 51/41/222 46/87/223 68/117/224 67/116/225
f 46/51/226 31/54/227 68/118/228
f 69/120/229 32/53/230 43/52/231
f 70/122/232 69/119/233 43/91/234 58/45/235
f 55/47/236 70/121/237 96/164/238
f 73/126/239 77/132/240 78/133/241
f 62/67/242 72/125/243 76/131/244 61/68/245
f 45/55/246 37/29/247 74/129/248
f 37/72/249 59/70/250 75/130/251 74/128/252
f 61/68/253 75/130/254 59/70/255
f 61/68/256 76/131/257 75/130/258
f 79/135/259 77/132/260 73/126/261
f 72/125/262 77/132/263 76/131/264
f 40/49/265 73/127/266 78/134/267 71/124/268
f 45/55/269 74/129/270 88/150/271
f 77/132/272 75/130/273 76/131/274
f 14/11/275 80/137/276 81/139/277
f 82/141/278 85/145/279 84/146/280
f 84/146/281 85/145/282 83/143/283
f 15/18/284 83/143/285 85/145/286 16/15/287
f 16/15/288 85/145/289 18/13/290
f 81/139/291 80/137/292 13/12/293 86/147/294
f 87/149/295 86/147/296 18/13/297 17/14/298
f 84/144/299 87/148/300 17/100/301 82/140/302
f 12/102/303 14/103/304 84/144/305
f 12/102/306 84/144/307 83/142/308 15/101/309
f 88/150/310 74/129/311 79/136/312 73/127/313
f 89/151/314 88/150/315 40/49/316 97/165/317
f 89/152/318 90/154/319 88/153/320
f 50/83/321 90/154/322 89/152/323 49/40/324
f 45/88/325 90/154/326 50/83/327
f 91/155/328 92/157/329 4/10/330
f 93/158/331 20/27/332 23/20/333 94/160/334
f 23/20/335 24/98/336 94/160/337
f 21/26/338 95/162/339 22/97/340 24/19/341
f 19/25/342 20/27/343 93/158/344 95/161/345
f 21/99/346 19/25/347 95/161/348
f 96/164/349 70/121/350 58/74/351 57/46/352
f 42/56/353 97/166/354 96/163/355 57/73/356
f 89/151/357 97/165/358 42/90/359 44/89/360
f 49/40/361 89/152/362 44/57/363
f 99/169/364 101/172/365 100/173/366
f 100/173/367 101/172/368 98/167/369
f 104/178/370 100/171/371 98/168/372 103/177/373
f 62/67/374 101/172/375 99/169/376 64/64/377
f 104/182/378 106/180/379 105/181/380
f 106/180/381 61/68/382 63/65/383 102/174/384
f 101/172/385 106/180/386 103/176/387 98/167/388
f 103/176/389 106/180/390 104/182/391
f 105/181/392 106/180/393 102/174/394
f 63/63/395 29/33/396 105/179/397 102/175/398
f 104/178/399 29/33/400 30/36/401 100/171/402
f 105/179/403 29/33/404 104/178/405
f 78/133/406 77/132/407 72/125/408 71/123/409
f 74/128/410 75/130/411 77/132/412 79/135/413
f 88/150/414 73/127/415 40/49/416
f 24/19/417 22/97/418 94/159/419
