# This file uses centimeters as units for non-parametric coordinates.

v -80.126953 30.000000 80.125977
v 80.126953 30.000000 80.125977
v -65.062500 50.000000 59.868164
v 68.544922 45.376400 68.545898
v -65.062500 50.000000 -65.063477
v 65.062500 50.000000 -65.063477
v -80.126953 30.000000 -80.126953
v 80.126953 30.000000 -80.126953
v -52.154297 50.000000 -65.063477
v 24.781250 50.000000 -65.063477
v -30.589844 50.000000 -58.305664
v -21.611328 46.943008 -67.366211
v 65.062500 50.000000 18.956055
v 47.187500 50.000000 65.063477
v 60.226563 50.000000 56.456055
v -54.650391 50.000000 65.063477
v -73.818359 38.375641 73.818359
v 100.000000 15.062130 100.000000
v 100.000000 0.000000 100.000000
v -100.000000 0.000000 100.000000
v 100.000000 0.000000 -100.000000
v -100.000000 0.000000 -100.000000
v -100.000000 30.000000 -100.000000
v -80.000000 30.000000 100.000000
v -100.000000 25.337952 100.000000
v -100.000000 30.000000 74.161133
v -100.000000 30.000000 -89.266602
v -100.000000 30.000000 -22.150391
v -94.568359 30.000000 -73.836914
v -100.000000 23.767794 -64.882813
v 70.109375 30.000000 -100.000000
v 100.000000 23.335510 -100.000000
v 100.000000 30.000000 -82.012695
v 86.542969 30.000000 100.000000
v 100.000000 30.000000 48.730469
vt 0.095869 0.835971
vt 0.070127 0.839401
vt 0.060495 0.833063
vt 0.170752 0.942408
vt 0.157310 0.896590
vt 0.170754 0.819247
vt 0.154940 0.917785
vt 0.150872 0.902599
vt 0.154595 0.863151
vt 0.055780 0.935405
vt 0.064942 0.919189
vt 0.068314 0.926014
vt 0.154274 0.835763
vt 0.064433 0.848631
vt 0.048987 0.941995
vt 0.048256 0.820681
vt 0.154421 0.926464
vt 0.157511 0.817263
vt 0.175728 0.814810
vt 0.172358 0.829466
vt 0.182667 0.957265
vt 0.187556 0.804389
vt 0.031454 0.804573
vt 0.032525 0.954980
vt 0.055097 0.940828
vt 0.041989 0.944348
vt 0.045796 0.922595
vt 0.066233 0.814552
vt 0.051199 0.818615
vt 0.060775 0.819469
vt 0.096093 0.817582
vt 0.045851 0.821593
vt 0.168872 0.936360
vt 0.175969 0.950239
vt 0.137929 0.942483
vt 0.033249 0.804571
vt 0.185761 0.804571
vt 0.033249 0.957083
vt 0.185761 0.957083
vn 0.423264 0.904360 0.054598
vn 0.423264 0.904360 0.054598
vn 0.423264 0.904360 0.054598
vn 0.000000 0.601615 -0.798786
vn 0.000000 0.601615 -0.798786
vn 0.000000 0.601615 -0.798786
vn 0.077894 0.965479 -0.248561
vn 0.077894 0.965479 -0.248561
vn 0.077894 0.965479 -0.248561
vn -0.043691 0.932693 -0.358015
vn -0.043691 0.932693 -0.358015
vn -0.043691 0.932693 -0.358015
vn -0.258241 0.815690 0.517650
vn -0.258241 0.815690 0.517650
vn -0.258241 0.815690 0.517650
vn 0.798786 0.601616 0.000000
vn 0.798786 0.601616 0.000000
vn 0.798786 0.601616 0.000000
vn 0.165571 0.953767 0.250828
vn 0.165571 0.953767 0.250828
vn 0.165571 0.953767 0.250828
vn 0.000000 1.000000 0.000000
vn 0.000000 1.000000 0.000000
vn 0.000000 1.000000 0.000000
vn 0.000000 1.000000 0.000000
vn -0.798785 0.601616 0.000000
vn -0.798785 0.601616 0.000000
vn -0.798785 0.601616 0.000000
vn -0.000000 0.601615 0.798786
vn -0.000000 0.601615 0.798786
vn -0.000000 0.601615 0.798786
vn -0.000000 0.601615 0.798786
vn 0.000000 1.000000 -0.000000
vn 0.000000 1.000000 -0.000000
vn 0.000000 1.000000 -0.000000
vn 0.000000 1.000000 -0.000000
vn 0.000000 1.000000 0.000000
vn 0.000000 1.000000 0.000000
vn 0.000000 1.000000 0.000000
vn 0.000000 1.000000 0.000000
vn 0.000000 1.000000 0.000000
vn 0.000000 1.000000 0.000000
vn 0.000000 1.000000 0.000000
vn 0.000000 1.000000 0.000000
vn 0.000000 0.601615 -0.798786
vn 0.000000 0.601615 -0.798786
vn 0.000000 0.601615 -0.798786
vn 0.000000 0.601615 -0.798786
vn 0.000000 0.601615 -0.798786
vn 0.000000 0.601615 -0.798786
vn 0.000000 0.601615 -0.798786
vn 0.000000 0.601615 -0.798786
vn 0.798785 0.601616 -0.000000
vn 0.798785 0.601616 -0.000000
vn 0.798785 0.601616 -0.000000
vn 0.798785 0.601616 -0.000000
vn -0.000000 0.601615 0.798786
vn -0.000000 0.601615 0.798786
vn -0.000000 0.601615 0.798786
vn -0.000000 0.601615 0.798786
vn -0.798786 0.601616 0.000000
vn -0.798786 0.601616 0.000000
vn -0.798786 0.601616 0.000000
vn -0.798786 0.601616 0.000000
vn -0.223591 0.959195 0.173067
vn -0.223591 0.959195 0.173067
vn -0.223591 0.959195 0.173067
vn 0.000000 -1.000000 0.000000
vn 0.000000 -1.000000 0.000000
vn 0.000000 -1.000000 0.000000
vn 0.000000 -1.000000 0.000000
vn 0.204648 0.917861 -0.340075
vn 0.204648 0.917861 -0.340075
vn 0.204648 0.917861 -0.340075
vn -1.000000 -0.000000 0.000000
vn -1.000000 -0.000000 0.000000
vn -1.000000 -0.000000 0.000000
vn -1.000000 -0.000000 0.000000
vn -0.575405 0.792397 0.202523
vn -0.575405 0.792397 0.202523
vn -0.575405 0.792397 0.202523
vn -0.808425 0.582438 -0.084945
vn -0.808425 0.582438 -0.084945
vn -0.808425 0.582438 -0.084945
vn 0.000000 0.000000 -1.000000
vn 0.000000 0.000000 -1.000000
vn 0.000000 0.000000 -1.000000
vn -0.000000 1.000000 0.000000
vn -0.000000 1.000000 0.000000
vn -0.000000 1.000000 0.000000
vn -0.000000 1.000000 0.000000
vn 1.000000 0.000000 0.000000
vn 1.000000 0.000000 0.000000
vn 1.000000 0.000000 0.000000
vn 1.000000 0.000000 0.000000
vn 0.000000 0.000000 1.000000
vn 0.000000 0.000000 1.000000
vn 0.000000 0.000000 1.000000
vn 0.000000 0.000000 1.000000
vn 0.000000 0.000000 1.000000
vn 0.000000 0.000000 1.000000
vn 0.000000 0.000000 1.000000
vn 0.000000 0.000000 1.000000
vn 0.000000 0.000000 1.000000
vn 0.000000 0.000000 1.000000
vn 0.729228 0.656955 0.191410
vn 0.729228 0.656955 0.191410
vn 0.729228 0.656955 0.191410
vn -1.000000 -0.000000 0.000000
vn -1.000000 -0.000000 0.000000
vn -1.000000 -0.000000 0.000000
vn -1.000000 -0.000000 0.000000
vn -1.000000 -0.000000 0.000000
vn -1.000000 -0.000000 0.000000
vn -1.000000 -0.000000 0.000000
vn -1.000000 -0.000000 0.000000
vn 0.000000 0.000000 -1.000000
vn 0.000000 0.000000 -1.000000
vn 0.000000 0.000000 -1.000000
vn 0.000000 0.000000 -1.000000
vn 1.000000 0.000000 0.000000
vn 1.000000 0.000000 0.000000
vn 1.000000 0.000000 0.000000
vn 1.000000 0.000000 0.000000
vn -0.000000 1.000000 0.000000
vn -0.000000 1.000000 0.000000
vn -0.000000 1.000000 0.000000
vn -0.000000 1.000000 0.000000
vn -0.000000 1.000000 0.000000
vn -0.000000 1.000000 0.000000
vn -0.000000 1.000000 0.000000
vn -0.000000 1.000000 0.000000
vn -0.000000 1.000000 -0.000000
vn -0.000000 1.000000 -0.000000
vn -0.000000 1.000000 -0.000000
vn -0.000000 1.000000 -0.000000
s off
f 13/1/1 15/2/2 4/3/3
f 7/4/4 12/5/5 8/6/6
f 9/7/7 11/8/8 12/5/9
f 12/5/10 11/8/11 10/9/12
f 17/10/13 16/11/14 3/12/15
f 13/1/16 8/6/17 6/13/18
f 4/3/19 15/2/20 14/14/21
f 3/12/22 15/2/23 10/9/24 11/8/25
f 7/4/26 1/15/27 17/10/28
f 1/15/29 2/16/30 4/3/31 17/10/32
f 3/12/33 11/8/34 9/7/35 5/17/36
f 3/12/37 16/11/38 14/14/39 15/2/40
f 10/9/41 15/2/42 13/1/43 6/13/44
f 5/17/45 9/7/46 12/5/47 7/4/48
f 8/6/49 12/5/50 10/9/51 6/13/52
f 2/16/53 8/6/54 13/1/55 4/3/56
f 17/10/57 4/3/58 14/14/59 16/11/60
f 7/4/61 17/10/62 3/12/63 5/17/64
f 26/18/65 25/19/66 24/20/67
f 19/37/68 20/39/69 22/38/70 21/36/71
f 33/25/72 32/26/73 31/27/74
f 25/19/75 30/28/76 22/23/77 20/22/78
f 27/29/79 30/28/80 29/30/81
f 29/30/82 30/28/83 28/31/84
f 31/27/85 22/23/86 23/32/87
f 34/33/88 31/27/89 29/30/90 24/20/91
f 32/26/92 18/34/93 19/21/94 21/24/95
f 20/22/96 19/21/97 25/19/98
f 24/20/99 25/19/100 19/21/101 18/34/102
f 18/34/103 34/33/104 24/20/105
f 35/35/106 34/33/107 18/34/108
f 25/19/109 26/18/110 28/31/111 30/28/112
f 22/23/113 30/28/114 27/29/115 23/32/116
f 21/24/117 22/23/118 31/27/119 32/26/120
f 32/26/121 33/25/122 35/35/123 18/34/124
f 33/25/125 31/27/126 34/33/127 35/35/128
f 29/30/129 31/27/130 23/32/131 27/29/132
f 24/20/133 29/30/134 28/31/135 26/18/136
