# This file uses centimeters as units for non-parametric coordinates.

v 45.986328 1.541893 -76.143555
v -11.787109 8.268555 -75.124023
v 44.140625 14.423607 -22.836914
v -43.823242 6.930283 -66.658203
v -45.196289 13.712158 -18.851563
v 46.430664 7.829422 -60.388672
v -46.513672 16.863022 -9.980469
v -46.012695 9.801521 -47.704102
v 45.073242 13.190613 74.755859
v 37.026367 6.753860 -78.880859
v 43.003906 16.853859 -14.365234
v 46.553711 -15.775841 -58.708984
v 46.237305 -15.775871 -69.271484
v -21.125000 -15.775818 -15.743164
v -49.884766 -15.775818 -14.119141
v 49.563477 -15.775772 30.817383
v -48.447266 -15.775818 -17.693359
v -10.233398 -15.775864 -80.541992
v -48.615234 -15.775879 -68.682617
v 38.634766 -15.775871 -81.485352
v -48.024414 -15.775826 -44.198242
v 47.720703 -15.775810 -21.039063
v -41.800793 -15.775894 82.029297
v 51.894531 -15.775833 76.644531
v -40.466797 12.381325 80.702148
vt 0.069237 0.122423
vt 0.069237 0.122124
vt 0.069237 0.122120
vt 0.069237 0.098524
vt 0.069237 0.098524
vt 0.069237 0.098524
vt 0.069237 0.098524
vt 0.069237 0.098524
vt 0.069237 0.098524
vt 0.069237 0.098524
vt 0.069237 0.098524
vt 0.069237 0.098524
vt 0.069237 0.122120
vt 0.069237 0.122116
vt 0.069237 0.122422
vt 0.069237 0.122431
vt 0.069237 0.122127
vt 0.069237 0.122282
vt 0.069237 0.098524
vt 0.069237 0.098524
vt 0.069237 0.098524
vt 0.069237 0.098524
vt 0.069237 0.098524
vt 0.069237 0.098524
vt 0.069237 0.098524
vt 0.069237 0.098524
vt 0.069237 0.098524
vt 0.069237 0.098524
vt 0.069237 0.122430
vt 0.069237 0.098524
vt 0.069237 0.098524
vt 0.069237 0.098524
vt 0.069237 0.098524
vt 0.069237 0.098524
vt 0.069237 0.098524
vt 0.069237 0.122431
vt 0.069237 0.098524
vn -0.960088 0.255582 0.113617
vn -0.960088 0.255582 0.113617
vn -0.960088 0.255582 0.113617
vn -0.013877 0.990901 -0.133873
vn -0.013877 0.990901 -0.133873
vn -0.013877 0.990901 -0.133873
vn -0.013870 0.990905 -0.133846
vn -0.013870 0.990905 -0.133846
vn -0.013870 0.990905 -0.133846
vn -0.013938 0.990916 -0.133755
vn -0.013938 0.990916 -0.133755
vn -0.013938 0.990916 -0.133755
vn -0.193492 -0.008530 -0.981065
vn -0.193492 -0.008530 -0.981065
vn -0.193492 -0.008530 -0.981065
vn 0.999508 0.004423 -0.031052
vn 0.999508 0.004423 -0.031052
vn 0.999508 0.004423 -0.031052
vn -0.079388 0.281455 -0.956285
vn -0.079388 0.281455 -0.956285
vn -0.079388 0.281455 -0.956285
vn 0.317899 0.930931 0.179744
vn 0.317899 0.930931 0.179744
vn 0.317899 0.930931 0.179744
vn -0.041217 0.537071 -0.842529
vn -0.041217 0.537071 -0.842529
vn -0.041217 0.537071 -0.842529
vn 0.898515 0.438573 0.018026
vn 0.898515 0.438573 0.018026
vn 0.898515 0.438573 0.018026
vn -0.000387 0.110321 -0.993896
vn -0.000387 0.110321 -0.993896
vn -0.000387 0.110321 -0.993896
vn 0.031218 0.198196 0.979665
vn 0.031218 0.198196 0.979665
vn 0.031218 0.198196 0.979665
vn 0.039422 0.331013 0.942802
vn 0.039422 0.331013 0.942802
vn 0.039422 0.331013 0.942802
vn -0.022181 0.052650 -0.998367
vn -0.022181 0.052650 -0.998367
vn -0.022181 0.052650 -0.998367
vn 0.891984 0.451691 -0.018430
vn 0.891984 0.451691 -0.018430
vn 0.891984 0.451691 -0.018430
vn 0.012959 0.981844 0.189246
vn 0.012959 0.981844 0.189246
vn 0.012959 0.981844 0.189246
vn 0.046196 0.605084 0.794820
vn 0.046196 0.605084 0.794820
vn 0.046196 0.605084 0.794820
vn 0.054145 0.558022 0.828057
vn 0.054145 0.558022 0.828058
vn 0.054145 0.558022 0.828058
vn 0.568582 -0.510423 -0.645122
vn 0.568582 -0.510423 -0.645122
vn 0.568582 -0.510423 -0.645123
vn -0.235361 0.153446 -0.959718
vn -0.235361 0.153446 -0.959718
vn -0.235361 0.153446 -0.959718
vn -0.319684 0.139393 -0.937215
vn -0.319684 0.139393 -0.937215
vn -0.319684 0.139393 -0.937215
vn -0.013924 0.990905 -0.133839
vn -0.013924 0.990905 -0.133839
vn -0.013924 0.990905 -0.133839
vn 0.305002 0.881528 -0.360392
vn 0.305002 0.881528 -0.360392
vn 0.305002 0.881528 -0.360392
vn 0.999516 0.006048 -0.030528
vn 0.999516 0.006048 -0.030528
vn 0.999516 0.006048 -0.030528
vn -0.921156 0.374845 -0.104701
vn -0.921156 0.374845 -0.104701
vn -0.921156 0.374845 -0.104701
vn 0.009214 0.982497 0.186051
vn 0.009214 0.982497 0.186051
vn 0.009214 0.982497 0.186051
vn -0.013864 0.990895 -0.133918
vn -0.013864 0.990896 -0.133918
vn -0.013864 0.990896 -0.133918
vn 0.999482 0.005893 -0.031633
vn 0.999482 0.005893 -0.031633
vn 0.999482 0.005893 -0.031633
vn -0.520409 0.847239 0.106590
vn -0.520409 0.847239 0.106590
vn -0.520409 0.847239 0.106590
vn -0.987403 0.158137 -0.005245
vn -0.987403 0.158137 -0.005245
vn -0.987403 0.158137 -0.005245
vn -0.980481 0.196609 0.001095
vn -0.980481 0.196609 0.001095
vn -0.980481 0.196609 0.001095
vn -0.057287 0.327045 -0.943271
vn -0.057287 0.327045 -0.943271
vn -0.057287 0.327045 -0.943271
vn -0.982099 0.186186 -0.028571
vn -0.982099 0.186186 -0.028571
vn -0.982099 0.186186 -0.028571
vn 0.920767 0.390110 -0.001609
vn 0.920767 0.390110 -0.001609
vn 0.920767 0.390110 -0.001609
s off
f 25/1/1 7/2/2 15/3/3
f 4/4/4 8/5/5 3/6/6
f 2/7/7 3/6/8 10/8/9
f 2/7/10 4/4/11 3/6/12
f 18/9/13 2/7/14 10/8/15
f 12/10/16 13/11/17 1/12/18
f 14/13/19 7/2/20 22/14/21
f 9/15/22 24/16/23 11/17/24
f 11/17/25 22/14/26 7/2/27
f 22/14/28 11/17/29 16/18/30
f 4/19/31 2/20/32 18/21/33
f 5/22/34 17/23/35 22/24/36
f 22/24/37 3/6/38 5/22/39
f 18/25/40 19/26/41 4/27/42
f 6/28/43 3/6/44 22/24/45
f 9/15/46 11/17/47 25/1/48
f 9/15/49 23/29/50 24/16/51
f 9/15/52 25/1/53 23/29/54
f 20/30/55 1/12/56 13/11/57
f 10/8/58 20/31/59 18/9/60
f 10/8/61 1/32/62 20/31/63
f 10/8/64 3/6/65 6/28/66
f 1/32/67 10/8/68 6/28/69
f 1/12/70 6/33/71 12/10/72
f 17/23/73 5/22/74 21/34/75
f 11/17/76 7/2/77 25/1/78
f 3/6/79 8/5/80 5/22/81
f 6/33/82 22/35/83 12/10/84
f 23/36/85 25/1/86 15/3/87
f 8/5/88 4/4/89 19/37/90
f 5/22/91 8/5/92 21/34/93
f 14/13/94 15/3/95 7/2/96
f 8/5/97 19/37/98 21/34/99
f 11/17/100 24/16/101 16/18/102
