# This file uses centimeters as units for non-parametric coordinates.

v 74.361832 -942.417419 -18.825171
v 39.850384 -942.417419 -26.160250
v -19.925192 -942.417419 -26.957867
v -69.022888 -942.417419 -21.801949
v -64.384132 -942.417419 17.139078
v -32.367241 -942.417419 26.544191
v 23.087648 -942.417419 27.566959
v 68.636467 -942.417419 20.955908
v 56.891792 -1.836598 -9.159745
v 34.932888 -21.049387 -22.032616
v -20.136791 -20.524181 -26.622238
v -61.450138 -19.180092 -19.281546
v -52.626766 -1.836598 -4.014666
v -44.088383 -2.637068 11.542748
v 0.000000 -1.836598 14.681455
v 32.846489 -1.836598 13.464752
v 59.096085 -2.637068 7.847876
v 0.000000 -942.417419 0.000000
v 0.000000 -0.175638 -4.014666
v 74.361832 -18.149109 -18.825171
v -62.346600 -20.524195 17.108187
v -32.367241 -18.149109 26.544191
v 21.774412 -20.524195 27.136560
v 68.636467 -18.149109 20.955908
vt 0.400133 0.354120
vt 0.400174 0.354122
vt 0.400151 0.354105
vt 0.400226 0.354121
vt 0.400267 0.354113
vt 0.400277 0.354109
vt 0.400270 0.354094
vt 0.400248 0.354085
vt 0.400242 0.354095
vt 0.400182 0.354098
vt 0.400202 0.354079
vt 0.400169 0.354082
vt 0.400133 0.354105
vt 0.400145 0.354094
vt 0.400172 0.355053
vt 0.400133 0.355061
vt 0.400209 0.355065
vt 0.400233 0.355053
vt 0.400283 0.355059
vt 0.400288 0.355069
vt 0.400249 0.355078
vt 0.400184 0.355078
vt 0.400133 0.355071
vt 0.400205 0.354093
vn 0.029605 0.532808 -0.845718
vn 0.029605 0.532808 -0.845718
vn 0.029605 0.532808 -0.845718
vn -0.889479 0.456948 -0.005034
vn -0.889479 0.456948 -0.005034
vn -0.889480 0.456948 -0.005034
vn -0.593417 0.718566 0.362657
vn -0.593416 0.718566 0.362657
vn -0.593417 0.718566 0.362657
vn -0.291038 0.542306 0.788163
vn -0.291038 0.542306 0.788163
vn -0.291038 0.542306 0.788163
vn -0.020135 0.613848 0.789168
vn -0.020135 0.613848 0.789167
vn -0.020135 0.613848 0.789167
vn -0.020135 0.613848 0.789167
vn 0.030195 0.578469 0.815145
vn 0.030195 0.578469 0.815145
vn 0.030195 0.578469 0.815145
vn 0.113499 0.609381 0.784712
vn 0.113499 0.609381 0.784712
vn 0.113499 0.609381 0.784712
vn 0.113499 0.609381 0.784712
vn 0.799779 0.589155 0.115106
vn 0.799779 0.589155 0.115106
vn 0.799779 0.589155 0.115106
vn 0.666258 0.743953 -0.051337
vn 0.666257 0.743953 -0.051337
vn 0.666258 0.743953 -0.051337
vn 0.000000 -1.000000 0.000000
vn 0.000000 -1.000000 0.000000
vn 0.000000 -1.000000 0.000000
vn 0.000000 -1.000000 0.000000
vn 0.000000 -1.000000 0.000000
vn 0.000000 -1.000000 0.000000
vn 0.000000 -1.000000 0.000000
vn 0.000000 -1.000000 0.000000
vn 0.000000 -1.000000 0.000000
vn 0.000000 -1.000000 0.000000
vn 0.000000 -1.000000 0.000000
vn 0.000000 -1.000000 0.000000
vn 0.000000 -1.000000 0.000000
vn 0.000000 -1.000000 0.000000
vn 0.000000 -1.000000 0.000000
vn 0.000000 -1.000000 0.000000
vn 0.000000 -1.000000 0.000000
vn 0.000000 -1.000000 0.000000
vn 0.000000 -1.000000 0.000000
vn 0.000000 -1.000000 0.000000
vn 0.000000 -1.000000 0.000000
vn 0.000000 -1.000000 -0.000005
vn 0.000000 -1.000000 -0.000005
vn 0.000000 -1.000000 -0.000005
vn -0.054829 0.598281 -0.799408
vn -0.054829 0.598281 -0.799408
vn -0.054829 0.598281 -0.799408
vn 0.065045 0.712192 -0.698964
vn 0.065045 0.712192 -0.698964
vn 0.065045 0.712192 -0.698964
vn -0.085483 0.777210 -0.623408
vn -0.085483 0.777210 -0.623408
vn -0.085483 0.777210 -0.623408
vn -0.021039 0.666603 -0.745116
vn -0.021039 0.666603 -0.745116
vn -0.021039 0.666603 -0.745116
vn -0.031471 0.997149 0.068578
vn -0.031471 0.997149 0.068578
vn -0.031471 0.997149 0.068578
vn -0.024377 0.995781 0.088465
vn -0.024377 0.995781 0.088465
vn -0.024377 0.995781 0.088465
vn 0.003278 0.996072 0.088491
vn 0.003278 0.996072 0.088491
vn 0.003278 0.996072 0.088491
vn 0.036214 0.998983 0.026875
vn 0.036214 0.998983 0.026875
vn 0.036214 0.998983 0.026875
vn 0.033016 0.998541 0.042718
vn 0.033016 0.998541 0.042718
vn 0.033016 0.998541 0.042718
vn 0.141054 0.002590 -0.989999
vn 0.141054 0.002590 -0.989999
vn 0.141054 0.002590 -0.989999
vn 0.141054 0.002590 -0.989999
vn 0.046869 0.002549 -0.998898
vn 0.046869 0.002549 -0.998898
vn 0.046869 0.002549 -0.998898
vn 0.046869 0.002549 -0.998898
vn -0.136888 0.002079 -0.990584
vn -0.136888 0.002079 -0.990584
vn -0.136888 0.002079 -0.990584
vn -0.136888 0.002079 -0.990584
vn -0.998751 0.005135 0.049708
vn -0.998751 0.005135 0.049708
vn -0.998751 0.005135 0.049708
vn -0.998751 0.005135 0.049708
vn -0.290788 0.000337 0.956788
vn -0.290788 0.000337 0.956788
vn -0.290788 0.000337 0.956788
vn -0.290788 0.000337 0.956788
vn -0.014731 0.000223 0.999892
vn -0.014731 0.000223 0.999892
vn -0.014731 0.000223 0.999892
vn -0.014731 0.000223 0.999892
vn 0.137106 0.000328 0.990556
vn 0.137106 0.000328 0.990556
vn 0.137106 0.000328 0.990556
vn 0.137106 0.000328 0.990556
vn 0.989801 0.000000 0.142454
vn 0.989801 0.000000 0.142454
vn 0.989801 0.000000 0.142454
vn 0.989801 0.000000 0.142454
s off
f 20/1/1 10/2/2 9/3/3
f 12/5/4 21/6/5 13/7/6
f 21/6/7 14/8/8 13/7/9
f 21/6/10 22/9/11 14/8/12
f 22/9/13 23/10/14 15/11/15 14/8/16
f 23/10/17 16/12/18 15/11/19
f 23/10/20 24/13/21 17/14/22 16/12/23
f 24/13/24 20/1/25 17/14/26
f 20/1/27 9/3/28 17/14/29
f 2/15/30 1/16/31 18/17/32
f 3/18/33 2/15/34 18/17/35
f 4/19/36 3/18/37 18/17/38
f 5/20/39 4/19/40 18/17/41
f 6/21/42 5/20/43 18/17/44
f 7/22/45 6/21/46 18/17/47
f 8/23/48 7/22/49 18/17/50
f 1/16/51 8/23/52 18/17/53
f 9/3/54 10/2/55 19/24/56
f 10/2/57 11/4/58 19/24/59
f 11/4/60 12/5/61 19/24/62
f 12/5/63 13/7/64 19/24/65
f 13/7/66 14/8/67 19/24/68
f 14/8/69 15/11/70 19/24/71
f 15/11/72 16/12/73 19/24/74
f 16/12/75 17/14/76 19/24/77
f 17/14/78 9/3/79 19/24/80
f 1/16/81 2/15/82 10/2/83 20/1/84
f 2/15/85 3/18/86 11/4/87 10/2/88
f 3/18/89 4/19/90 12/5/91 11/4/92
f 4/19/93 5/20/94 21/6/95 12/5/96
f 5/20/97 6/21/98 22/9/99 21/6/100
f 6/21/101 7/22/102 23/10/103 22/9/104
f 7/22/105 8/23/106 24/13/107 23/10/108
f 8/23/109 1/16/110 20/1/111 24/13/112
