# This file uses centimeters as units for non-parametric coordinates.

v -177.268799 -24.370924 -173.586426
v -106.171143 423.549835 204.252319
v 114.598633 390.026276 211.130981
v -148.201660 292.895142 333.499146
v 210.968994 239.379730 280.119629
v -176.684082 15.432793 260.770752
v 199.164551 -25.084015 325.065063
v -86.986328 852.309143 609.294067
v 0.000000 348.629700 465.061401
v 0.000000 765.401306 620.147583
v 8.055908 36.619064 17.538940
v 120.128906 -120.392746 389.284790
v -139.904297 439.386169 241.709595
v 64.837891 812.917297 498.291626
v 291.316895 -6.046812 -81.351074
v -214.546875 21.606369 16.324097
v -21.941162 1049.676147 608.931030
v 100.284668 65.914467 394.221924
v 85.530762 163.056229 381.682861
v 0.187012 66.368973 419.921753
v 75.258789 317.731201 411.154663
v 35.492920 -23.711151 442.901489
v -54.790527 193.023331 388.633423
v -75.258789 315.278687 414.628296
v -65.659180 566.487244 532.822144
v -34.145508 770.352966 608.519897
v 82.060059 469.599487 464.822876
v 0.000000 921.710754 648.038208
v 5.685059 205.448898 138.146851
v -153.422607 141.677444 28.969727
v 0.562744 427.855896 248.093872
v 21.898682 832.174561 487.269653
v -2.063477 634.428040 397.899292
v -41.378906 850.094360 529.945435
v 8.229004 1096.764648 589.323120
v -159.333252 -132.432587 70.961548
v -164.388916 -80.978188 -171.017212
v -83.856201 836.548279 531.935425
v 38.167480 1000.347900 552.761841
v 63.670898 634.350159 420.359497
v 3.266113 -126.793640 -24.324707
v -235.048340 -41.727692 -144.835083
v -174.512695 167.546432 65.521362
v 281.708252 -132.898010 -154.475830
v 181.629639 -113.276276 226.668579
v 203.887451 53.761143 188.214600
v -2.792725 -121.449425 322.315552
v 172.017090 238.184189 121.120728
v 196.200684 138.572067 220.239258
v 172.025879 155.919250 308.516724
v -211.522705 -58.898930 137.188721
v -195.393066 155.937439 176.793091
v -181.456543 121.562195 271.168579
v -140.283691 525.132507 417.814331
v 108.467529 581.760864 405.285522
v 75.964355 740.041199 552.144653
v 113.605225 519.442505 446.073120
v -127.708008 549.743713 474.267944
v -39.631104 927.013977 618.138306
v 48.904541 1025.907715 574.640015
v 39.631104 927.013977 618.138306
v 300.783936 -60.151012 -13.827515
v 87.427490 -71.066269 305.374756
v -209.098145 96.893608 192.305176
v 100.121094 736.120300 486.866821
v 0.000000 1048.328613 643.536255
v -102.323242 39.077682 357.034424
v -116.091553 508.868866 502.162231
v 0.000000 578.044006 560.298706
v 34.145508 770.352966 608.519897
v 33.341309 909.533142 652.615845
v 124.587158 -63.325935 -151.582764
v -88.633057 5.811333 394.840698
v 249.162842 -55.824631 -191.957153
v 185.267822 243.617096 334.739990
v -72.199219 486.703491 287.981079
v -58.707275 743.738831 500.986450
v -20.222412 600.553284 446.269409
v -87.320801 583.965637 407.734009
v -64.518311 672.967224 554.399048
v 149.605225 339.122040 244.981812
v 173.843262 282.096710 292.868042
v 130.555420 305.988770 348.910889
v -198.469238 169.340378 127.433838
vt 0.062770 0.081798
vt 0.062709 0.081801
vt 0.062768 0.081794
vt 0.062676 0.081798
vt 0.062820 0.081743
vt 0.062667 0.081720
vt 0.062593 0.081778
vt 0.062595 0.081754
vt 0.062652 0.081755
vt 0.062682 0.081720
vt 0.062796 0.081500
vt 0.062813 0.081650
vt 0.062682 0.081305
vt 0.062654 0.081720
vt 0.062612 0.081403
vt 0.062598 0.081673
vt 0.062756 0.081609
vt 0.062740 0.081525
vt 0.062670 0.081608
vt 0.062681 0.081496
vt 0.062840 0.081611
vt 0.062775 0.081485
vt 0.062701 0.081352
vt 0.062772 0.081230
vt 0.062835 0.081355
vt 0.062834 0.081290
vt 0.062792 0.081159
vt 0.062849 0.081095
vt 0.062751 0.081107
vt 0.062754 0.081291
vt 0.062738 0.081194
vt 0.062813 0.080937
vt 0.062846 0.080912
vt 0.062878 0.081034
vt 0.062933 0.080924
vt 0.062894 0.080844
vt 0.062984 0.080837
vt 0.062828 0.080947
vt 0.062934 0.080857
vt 0.062547 0.081724
vt 0.062540 0.081643
vt 0.062562 0.081585
vt 0.062594 0.081413
vt 0.062590 0.081331
vt 0.062560 0.081735
vt 0.062597 0.081619
vt 0.062589 0.081453
vt 0.062633 0.081338
vt 0.062700 0.081106
vt 0.062680 0.081176
vt 0.062654 0.081154
vt 0.062749 0.081006
vt 0.062727 0.081017
vt 0.062642 0.081306
vt 0.062732 0.081037
vt 0.062806 0.080913
vt 0.062763 0.080903
vt 0.062812 0.081568
vt 0.062828 0.081787
vt 0.062832 0.081704
vt 0.062802 0.081400
vt 0.062875 0.081558
vt 0.062878 0.081652
vt 0.062851 0.081395
vt 0.062877 0.081071
vt 0.062832 0.081210
vt 0.062887 0.081060
vt 0.062935 0.080947
vt 0.062594 0.081662
vt 0.062767 0.081661
vt 0.062852 0.081683
vt 0.062812 0.081808
vt 0.062874 0.081642
vt 0.062857 0.081520
vt 0.062603 0.081408
vt 0.062833 0.081314
vt 0.062831 0.081071
vt 0.062768 0.081196
vt 0.062721 0.081214
vt 0.062744 0.081061
vt 0.062746 0.081517
vt 0.062635 0.081371
vt 0.062627 0.081364
vt 0.062839 0.081520
vn 0.990683 0.003439 -0.136142
vn 0.990683 0.003439 -0.136142
vn 0.990683 0.003439 -0.136142
vn 0.892237 0.405107 0.199503
vn 0.892237 0.405107 0.199503
vn 0.892237 0.405107 0.199503
vn 0.002436 -0.998641 0.052051
vn 0.002436 -0.998641 0.052051
vn 0.002436 -0.998641 0.052051
vn 0.740237 -0.632885 0.226949
vn 0.740237 -0.632885 0.226949
vn 0.740237 -0.632885 0.226949
vn 0.988577 -0.142816 -0.048165
vn 0.988577 -0.142816 -0.048165
vn 0.988577 -0.142816 -0.048165
vn 0.897493 -0.018147 0.440656
vn 0.897493 -0.018147 0.440656
vn 0.897493 -0.018147 0.440656
vn 0.823545 -0.487441 0.290129
vn 0.823545 -0.487441 0.290130
vn 0.823545 -0.487441 0.290129
vn -0.560282 -0.790772 -0.246502
vn -0.560282 -0.790772 -0.246502
vn -0.560282 -0.790772 -0.246502
vn 0.052712 -0.998477 0.016315
vn 0.052712 -0.998477 0.016315
vn 0.052712 -0.998477 0.016315
vn 0.417988 -0.491617 0.763936
vn 0.417988 -0.491617 0.763936
vn 0.417988 -0.491617 0.763936
vn 0.316728 -0.758608 -0.569383
vn 0.316728 -0.758608 -0.569383
vn 0.316728 -0.758608 -0.569383
vn 0.866923 0.438128 -0.237674
vn 0.866923 0.438128 -0.237674
vn 0.866923 0.438128 -0.237674
vn 0.928426 0.349837 0.125055
vn 0.928426 0.349837 0.125055
vn 0.928426 0.349837 0.125055
vn 0.944480 0.309999 -0.108895
vn 0.944480 0.309999 -0.108895
vn 0.944480 0.309999 -0.108895
vn 0.971280 -0.000955 -0.237939
vn 0.971280 -0.000955 -0.237939
vn 0.971280 -0.000955 -0.237939
vn 0.898057 -0.314343 0.307704
vn 0.898057 -0.314343 0.307704
vn 0.898057 -0.314343 0.307704
vn 0.948534 -0.032958 0.314955
vn 0.948534 -0.032958 0.314955
vn 0.948534 -0.032958 0.314955
vn 0.959068 0.164848 0.230247
vn 0.959068 0.164848 0.230247
vn 0.959068 0.164848 0.230247
vn 0.995463 0.063447 0.070910
vn 0.995463 0.063447 0.070910
vn 0.995463 0.063447 0.070910
vn -0.940180 -0.100527 0.325508
vn -0.940180 -0.100527 0.325508
vn -0.940180 -0.100527 0.325508
vn -0.933260 -0.076355 0.350991
vn -0.933260 -0.076355 0.350991
vn -0.933260 -0.076355 0.350991
vn -0.995824 0.062498 0.066545
vn -0.995824 0.062498 0.066545
vn -0.995824 0.062498 0.066545
vn -0.935381 0.130797 -0.328564
vn -0.935381 0.130797 -0.328564
vn -0.935381 0.130797 -0.328564
vn -0.974721 0.120815 0.187944
vn -0.974721 0.120815 0.187944
vn -0.974721 0.120815 0.187944
vn -0.930206 0.278673 0.238868
vn -0.930206 0.278673 0.238868
vn -0.930206 0.278673 0.238868
vn -0.924451 -0.101882 0.367437
vn -0.924451 -0.101882 0.367437
vn -0.924451 -0.101882 0.367437
vn -0.970907 0.214462 -0.106514
vn -0.970907 0.214462 -0.106514
vn -0.970907 0.214462 -0.106514
vn -0.980103 0.167464 0.106555
vn -0.980103 0.167464 0.106555
vn -0.980103 0.167464 0.106555
vn 0.492996 0.345300 -0.798575
vn 0.492996 0.345300 -0.798575
vn 0.492996 0.345301 -0.798575
vn 0.881856 0.359822 0.304727
vn 0.881856 0.359822 0.304727
vn 0.881856 0.359822 0.304727
vn 0.522915 0.614693 -0.590519
vn 0.522915 0.614693 -0.590519
vn 0.522915 0.614693 -0.590519
vn 0.257277 0.462377 -0.848538
vn 0.257277 0.462377 -0.848538
vn 0.257277 0.462377 -0.848538
vn 0.926530 -0.135413 0.351005
vn 0.926531 -0.135413 0.351005
vn 0.926531 -0.135413 0.351005
vn 0.988310 0.131724 0.076768
vn 0.988310 0.131724 0.076768
vn 0.988310 0.131724 0.076768
vn 0.997589 0.062479 -0.030198
vn 0.997589 0.062479 -0.030198
vn 0.997589 0.062479 -0.030198
vn -0.969416 -0.053877 0.239436
vn -0.969416 -0.053877 0.239436
vn -0.969416 -0.053877 0.239436
vn 0.810003 0.370847 0.454277
vn 0.810003 0.370847 0.454277
vn 0.810003 0.370847 0.454277
vn 0.978422 -0.000869 0.206614
vn 0.978422 -0.000869 0.206614
vn 0.978422 -0.000869 0.206614
vn 0.828754 0.158369 0.536736
vn 0.828754 0.158369 0.536736
vn 0.828754 0.158369 0.536736
vn 0.983343 0.177849 0.037506
vn 0.983343 0.177849 0.037506
vn 0.983343 0.177849 0.037506
vn -0.936134 0.158565 0.313862
vn -0.936134 0.158565 0.313862
vn -0.936134 0.158565 0.313862
vn -0.830865 0.159834 0.533026
vn -0.830865 0.159834 0.533026
vn -0.830865 0.159834 0.533026
vn -0.660178 0.607127 0.442224
vn -0.660178 0.607127 0.442224
vn -0.660178 0.607127 0.442224
vn 0.663271 0.166161 0.729700
vn 0.663271 0.166161 0.729700
vn 0.663271 0.166161 0.729700
vn 0.246132 0.160759 0.955811
vn 0.246132 0.160759 0.955811
vn 0.246132 0.160759 0.955812
vn 0.643380 -0.040087 0.764497
vn 0.643380 -0.040087 0.764497
vn 0.643380 -0.040087 0.764497
vn 0.642896 0.193312 0.741158
vn 0.642896 0.193312 0.741158
vn 0.642896 0.193312 0.741158
vn 0.505661 -0.128958 0.853040
vn 0.505661 -0.128958 0.853040
vn 0.505661 -0.128958 0.853040
vn 0.544379 -0.121981 0.829923
vn 0.544379 -0.121981 0.829923
vn 0.544379 -0.121981 0.829923
vn 0.527501 -0.133817 0.838949
vn 0.527501 -0.133817 0.838949
vn 0.527501 -0.133817 0.838949
vn 0.598623 0.042564 0.799899
vn 0.598623 0.042564 0.799899
vn 0.598623 0.042564 0.799899
vn 0.565713 0.038428 0.823706
vn 0.565713 0.038428 0.823706
vn 0.565713 0.038428 0.823706
vn 0.236472 0.326167 0.915257
vn 0.236472 0.326167 0.915257
vn 0.236472 0.326167 0.915257
vn -0.776191 -0.095956 0.623154
vn -0.776191 -0.095956 0.623154
vn -0.776191 -0.095956 0.623154
vn -0.621908 -0.158296 0.766924
vn -0.621908 -0.158296 0.766924
vn -0.621908 -0.158296 0.766924
vn -0.699215 0.069851 0.711491
vn -0.699215 0.069851 0.711491
vn -0.699215 0.069851 0.711491
vn -0.520004 -0.014742 0.854037
vn -0.520004 -0.014742 0.854037
vn -0.520004 -0.014742 0.854037
vn -0.681435 -0.259588 0.684296
vn -0.681435 -0.259588 0.684296
vn -0.681435 -0.259588 0.684296
vn -0.679868 -0.116244 0.724062
vn -0.679868 -0.116244 0.724062
vn -0.679868 -0.116244 0.724062
vn -0.456568 -0.257514 0.851606
vn -0.456568 -0.257515 0.851606
vn -0.456568 -0.257514 0.851605
vn -0.955952 -0.078703 0.282774
vn -0.955952 -0.078703 0.282774
vn -0.955952 -0.078703 0.282774
vn -0.609265 -0.429817 0.666374
vn -0.609265 -0.429817 0.666374
vn -0.609265 -0.429817 0.666374
vn -0.699067 0.256761 0.667367
vn -0.699067 0.256761 0.667367
vn -0.699067 0.256761 0.667367
vn -0.393326 -0.379069 0.837616
vn -0.393326 -0.379069 0.837616
vn -0.393326 -0.379069 0.837616
vn -0.066533 -0.422706 0.903821
vn -0.066533 -0.422706 0.903821
vn -0.066533 -0.422706 0.903821
vn -0.303919 -0.365272 0.879892
vn -0.303919 -0.365272 0.879892
vn -0.303919 -0.365272 0.879892
vn -0.439029 -0.291091 0.850011
vn -0.439029 -0.291091 0.850011
vn -0.439029 -0.291091 0.850011
vn -0.352098 -0.182259 0.918046
vn -0.352098 -0.182259 0.918046
vn -0.352097 -0.182259 0.918046
vn -0.345780 -0.285519 0.893821
vn -0.345780 -0.285519 0.893821
vn -0.345780 -0.285519 0.893821
vn 0.694872 -0.267076 0.667700
vn 0.694872 -0.267076 0.667700
vn 0.694872 -0.267076 0.667701
vn 0.464533 -0.313483 0.828214
vn 0.464533 -0.313483 0.828213
vn 0.464533 -0.313483 0.828213
vn 0.714728 -0.200262 0.670119
vn 0.714728 -0.200262 0.670119
vn 0.714728 -0.200262 0.670119
vn 0.735500 -0.193111 0.649421
vn 0.735500 -0.193111 0.649421
vn 0.735500 -0.193111 0.649421
vn 0.493817 -0.333398 0.803113
vn 0.493817 -0.333398 0.803113
vn 0.493817 -0.333398 0.803113
vn 0.534253 -0.293625 0.792690
vn 0.534253 -0.293625 0.792690
vn 0.534253 -0.293625 0.792690
vn 0.345780 -0.285519 0.893820
vn 0.345780 -0.285519 0.893820
vn 0.345780 -0.285519 0.893820
vn -0.084721 -0.064016 0.994346
vn -0.084721 -0.064016 0.994346
vn -0.084721 -0.064016 0.994346
vn -0.606743 -0.069860 0.791822
vn -0.606743 -0.069861 0.791822
vn -0.606743 -0.069861 0.791822
vn -0.599602 0.028437 0.799793
vn -0.599602 0.028437 0.799793
vn -0.599602 0.028437 0.799793
vn -0.339313 -0.165237 0.926047
vn -0.339313 -0.165237 0.926047
vn -0.339313 -0.165237 0.926047
vn 0.599602 0.028437 0.799793
vn 0.599602 0.028437 0.799793
vn 0.599602 0.028437 0.799793
vn 0.244063 0.846252 0.473593
vn 0.244063 0.846252 0.473593
vn 0.244063 0.846252 0.473593
vn 0.784305 -0.065340 0.616925
vn 0.784305 -0.065340 0.616925
vn 0.784305 -0.065340 0.616925
vn 0.986520 -0.044217 0.157554
vn 0.986520 -0.044217 0.157554
vn 0.986520 -0.044217 0.157554
vn -0.195475 -0.172269 0.965460
vn -0.195475 -0.172269 0.965460
vn -0.195475 -0.172269 0.965460
vn 0.345654 -0.281598 0.895112
vn 0.345654 -0.281598 0.895112
vn 0.345654 -0.281598 0.895112
vn -0.178280 0.451000 -0.874537
vn -0.178280 0.451000 -0.874537
vn -0.178280 0.451000 -0.874537
vn -0.205294 0.674069 -0.709567
vn -0.205294 0.674069 -0.709567
vn -0.205294 0.674069 -0.709567
vn -0.570473 0.472101 -0.672073
vn -0.570473 0.472101 -0.672073
vn -0.570473 0.472101 -0.672073
vn -0.143379 0.435923 -0.888490
vn -0.143379 0.435923 -0.888489
vn -0.143379 0.435923 -0.888490
vn 0.402141 0.684291 -0.608300
vn 0.402141 0.684291 -0.608300
vn 0.402141 0.684291 -0.608300
vn 0.380608 0.441480 -0.812547
vn 0.380608 0.441480 -0.812547
vn 0.380608 0.441480 -0.812547
vn 0.329308 0.424523 -0.843408
vn 0.329308 0.424523 -0.843408
vn 0.329308 0.424523 -0.843408
vn 0.307095 0.556050 -0.772335
vn 0.307095 0.556050 -0.772335
vn 0.307095 0.556050 -0.772335
vn 0.301779 0.362031 -0.881965
vn 0.301779 0.362031 -0.881965
vn 0.301779 0.362031 -0.881965
vn -0.067810 0.585155 -0.808081
vn -0.067810 0.585155 -0.808081
vn -0.067810 0.585155 -0.808081
vn 0.031328 0.587044 -0.808948
vn 0.031328 0.587044 -0.808948
vn 0.031328 0.587044 -0.808948
vn -0.424986 0.415057 -0.804434
vn -0.424986 0.415057 -0.804434
vn -0.424986 0.415057 -0.804434
vn 0.023423 0.360818 -0.932342
vn 0.023423 0.360818 -0.932342
vn 0.023423 0.360818 -0.932342
vn -0.475388 0.295113 -0.828803
vn -0.475388 0.295113 -0.828803
vn -0.475388 0.295113 -0.828803
vn -0.365523 -0.634610 0.680928
vn -0.365523 -0.634610 0.680928
vn -0.365523 -0.634610 0.680928
vn 0.044118 -0.998895 0.016171
vn 0.044118 -0.998895 0.016171
vn 0.044118 -0.998895 0.016171
vn -0.624752 -0.659574 0.417909
vn -0.624752 -0.659574 0.417909
vn -0.624752 -0.659574 0.417909
vn -0.685877 -0.603148 0.407168
vn -0.685877 -0.603148 0.407168
vn -0.685877 -0.603148 0.407168
vn -0.357753 -0.752239 0.553307
vn -0.357753 -0.752239 0.553307
vn -0.357753 -0.752239 0.553307
vn -0.086606 -0.974822 -0.205477
vn -0.086606 -0.974822 -0.205477
vn -0.086606 -0.974822 -0.205477
vn -0.881203 -0.403326 -0.246598
vn -0.881203 -0.403326 -0.246598
vn -0.881203 -0.403326 -0.246598
vn -0.336861 0.106620 0.935498
vn -0.336861 0.106620 0.935498
vn -0.336860 0.106620 0.935498
vn -0.542449 0.523483 0.657050
vn -0.542449 0.523483 0.657050
vn -0.542449 0.523483 0.657050
vn -0.398741 -0.686357 0.608211
vn -0.398740 -0.686357 0.608211
vn -0.398741 -0.686357 0.608211
vn -0.790742 0.288293 0.540013
vn -0.790742 0.288293 0.540013
vn -0.790742 0.288293 0.540013
vn -0.842697 0.381904 -0.379488
vn -0.842697 0.381904 -0.379488
vn -0.842697 0.381904 -0.379488
vn -0.126580 0.256139 -0.958316
vn -0.126580 0.256139 -0.958316
vn -0.126580 0.256139 -0.958316
vn 0.677971 0.292464 -0.674404
vn 0.677971 0.292464 -0.674404
vn 0.677971 0.292464 -0.674404
vn 0.491284 0.438028 -0.752842
vn 0.491284 0.438028 -0.752843
vn 0.491284 0.438028 -0.752842
vn 0.668985 0.293630 -0.682818
vn 0.668985 0.293630 -0.682818
vn 0.668985 0.293631 -0.682818
vn 0.153939 0.345595 -0.925671
vn 0.153939 0.345595 -0.925671
vn 0.153939 0.345595 -0.925671
vn -0.265217 0.669383 -0.693964
vn -0.265217 0.669383 -0.693964
vn -0.265217 0.669383 -0.693964
vn 0.529594 0.679559 -0.507671
vn 0.529594 0.679559 -0.507671
vn 0.529594 0.679559 -0.507671
vn -0.755565 0.183264 -0.628916
vn -0.755565 0.183264 -0.628916
vn -0.755565 0.183264 -0.628916
vn -0.122760 -0.836411 -0.534178
vn -0.122760 -0.836411 -0.534178
vn -0.122760 -0.836411 -0.534178
vn -0.369120 -0.527857 -0.764929
vn -0.369120 -0.527857 -0.764929
vn -0.369120 -0.527857 -0.764930
vn 0.891802 0.173351 -0.417898
vn 0.891802 0.173351 -0.417898
vn 0.891802 0.173351 -0.417898
vn -0.940316 -0.258574 0.221237
vn -0.940316 -0.258574 0.221237
vn -0.940316 -0.258574 0.221237
vn -0.408919 -0.134011 -0.902677
vn -0.408919 -0.134011 -0.902677
vn -0.408919 -0.134011 -0.902677
vn 0.672086 0.119755 -0.730725
vn 0.672086 0.119755 -0.730725
vn 0.672086 0.119755 -0.730725
vn 0.681898 0.162703 -0.713122
vn 0.681898 0.162703 -0.713122
vn 0.681898 0.162703 -0.713122
vn -0.874715 0.337061 -0.348230
vn -0.874715 0.337061 -0.348230
vn -0.874715 0.337061 -0.348230
vn -0.520759 0.510018 -0.684611
vn -0.520759 0.510017 -0.684611
vn -0.520759 0.510018 -0.684611
vn -0.540128 0.507854 -0.671078
vn -0.540128 0.507854 -0.671078
vn -0.540128 0.507854 -0.671078
vn -0.239674 0.721878 -0.649191
vn -0.239674 0.721878 -0.649191
vn -0.239674 0.721878 -0.649191
vn -0.965983 0.257703 0.021610
vn -0.965983 0.257703 0.021610
vn -0.965983 0.257703 0.021610
vn -0.473518 0.707676 -0.524382
vn -0.473518 0.707676 -0.524382
vn -0.473518 0.707675 -0.524382
vn 0.715416 -0.241610 0.655594
vn 0.715416 -0.241610 0.655594
vn 0.715416 -0.241610 0.655594
vn 0.682910 -0.629754 0.370193
vn 0.682910 -0.629754 0.370193
vn 0.682910 -0.629754 0.370193
vn 0.739112 -0.229561 0.633257
vn 0.739112 -0.229561 0.633257
vn 0.739112 -0.229561 0.633257
vn -0.569567 0.818492 0.075257
vn -0.569567 0.818492 0.075257
vn -0.569567 0.818492 0.075257
vn -0.569567 0.818492 0.075257
vn -0.828019 0.541917 -0.143912
vn -0.828019 0.541917 -0.143912
vn -0.828019 0.541917 -0.143912
vn -0.540697 0.301888 -0.785182
vn -0.540697 0.301888 -0.785182
vn -0.540697 0.301888 -0.785182
vn -0.540697 0.301888 -0.785182
vn -0.335698 0.923195 0.187130
vn -0.335698 0.923195 0.187130
vn -0.335698 0.923195 0.187130
vn -0.931552 -0.028569 -0.362483
vn -0.931552 -0.028569 -0.362483
vn -0.931552 -0.028569 -0.362483
vn -0.931552 -0.028569 -0.362483
vn -0.895652 0.444037 -0.025272
vn -0.895652 0.444037 -0.025272
vn -0.895652 0.444037 -0.025272
vn -0.910037 -0.089964 -0.404647
vn -0.910037 -0.089964 -0.404647
vn -0.910037 -0.089964 -0.404647
vn 0.235301 0.727659 -0.644318
vn 0.235301 0.727659 -0.644318
vn 0.235301 0.727659 -0.644318
vn -0.734198 0.609798 -0.298496
vn -0.734198 0.609798 -0.298496
vn -0.734198 0.609798 -0.298496
vn 0.158647 0.776110 -0.610316
vn 0.158647 0.776110 -0.610316
vn 0.158647 0.776110 -0.610316
vn -0.979403 -0.064091 -0.191475
vn -0.979403 -0.064091 -0.191475
vn -0.979403 -0.064091 -0.191475
vn -0.526300 -0.308473 0.792371
vn -0.526300 -0.308473 0.792371
vn -0.526300 -0.308473 0.792371
vn -0.134033 0.784223 -0.605829
vn -0.134033 0.784223 -0.605829
vn -0.134033 0.784223 -0.605829
vn -0.134033 0.784223 -0.605829
vn 0.865426 0.453514 -0.212988
vn 0.865425 0.453514 -0.212988
vn 0.865426 0.453514 -0.212988
vn 0.715139 0.675335 -0.180274
vn 0.715139 0.675335 -0.180274
vn 0.715139 0.675335 -0.180274
vn 0.761003 0.567671 0.314045
vn 0.761003 0.567671 0.314045
vn 0.761003 0.567671 0.314045
vn 0.695332 0.490626 0.525167
vn 0.695332 0.490626 0.525167
vn 0.695331 0.490626 0.525167
vn 0.941974 0.322684 -0.092520
vn 0.941974 0.322684 -0.092520
vn 0.941974 0.322684 -0.092520
vn 0.745707 0.579388 0.328985
vn 0.745707 0.579388 0.328985
vn 0.745707 0.579388 0.328985
vn 0.243707 0.659643 -0.710970
vn 0.243707 0.659643 -0.710970
vn 0.243707 0.659643 -0.710970
vn -0.963785 -0.266245 0.015247
vn -0.963785 -0.266245 0.015247
vn -0.963785 -0.266245 0.015247
vn -0.525245 -0.834508 -0.166476
vn -0.525245 -0.834508 -0.166476
vn -0.525245 -0.834508 -0.166476
vn -0.868381 0.354953 -0.346298
vn -0.868381 0.354953 -0.346298
vn -0.868381 0.354953 -0.346298
vn -0.995793 0.051232 0.075972
vn -0.995793 0.051232 0.075972
vn -0.995793 0.051232 0.075972
s off
f 44/1/1 15/3/2 62/2/3
f 15/3/4 46/4/5 62/2/6
f 41/5/7 44/1/8 45/6/9
f 44/1/10 62/2/11 45/6/12
f 7/7/13 45/6/14 46/4/15
f 45/6/16 62/2/17 46/4/18
f 7/7/19 12/8/20 45/6/21
f 12/8/22 63/9/23 45/6/24
f 41/5/25 45/6/26 47/10/27
f 45/6/28 63/9/29 47/10/30
f 12/8/31 47/10/32 63/9/33
f 3/11/34 57/13/35 81/81/36
f 15/3/37 48/12/38 49/14/39
f 57/13/40 82/82/41 81/81/42
f 5/15/43 49/14/44 48/12/45
f 5/15/46 50/16/47 49/14/48
f 15/3/49 49/14/50 46/4/51
f 50/16/52 7/7/53 49/14/54
f 7/7/55 46/4/56 49/14/57
f 51/17/58 6/19/59 64/18/60
f 6/19/61 53/20/62 64/18/63
f 16/21/64 51/17/65 52/22/66
f 51/17/67 64/18/68 52/22/69
f 4/23/70 52/22/71 53/20/72
f 52/22/73 64/18/74 53/20/75
f 4/23/76 54/24/77 52/22/78
f 54/24/79 13/25/80 52/22/81
f 13/25/82 84/84/83 52/22/84
f 40/26/85 14/28/86 65/27/87
f 14/28/88 56/29/89 65/27/90
f 3/11/91 40/26/92 55/30/93
f 40/26/94 65/27/95 55/30/96
f 56/29/97 55/30/98 65/27/99
f 56/29/100 57/13/101 55/30/102
f 57/13/103 3/11/104 55/30/105
f 4/23/106 58/31/107 54/24/108
f 60/35/109 35/37/110 66/36/111
f 14/28/112 60/35/113 61/38/114
f 60/35/115 66/36/116 61/38/117
f 56/29/118 14/28/119 61/38/120
f 38/34/121 59/33/122 17/39/123
f 66/36/124 17/39/125 59/33/126
f 66/36/127 35/37/128 17/39/129
f 7/7/130 50/16/131 18/40/132
f 20/41/133 18/40/134 19/42/135
f 5/15/136 19/42/137 50/16/138
f 19/42/139 18/40/140 50/16/141
f 75/75/142 21/43/143 19/42/144
f 21/43/145 9/44/146 19/42/147
f 9/44/148 20/41/149 19/42/150
f 7/7/151 18/40/152 12/8/153
f 18/40/154 22/45/155 12/8/156
f 18/40/157 20/41/158 22/45/159
f 53/20/160 6/19/161 67/46/162
f 4/23/163 53/20/164 23/47/165
f 53/20/166 67/46/167 23/47/168
f 20/41/169 23/47/170 67/46/171
f 4/23/172 23/47/173 24/48/174
f 20/41/175 9/44/176 23/47/177
f 9/44/178 24/48/179 23/47/180
f 58/31/181 4/23/182 68/49/183
f 4/23/184 24/48/185 68/49/186
f 58/31/187 68/49/188 25/50/189
f 9/44/190 25/50/191 24/48/192
f 25/50/193 68/49/194 24/48/195
f 9/44/196 69/51/197 25/50/198
f 26/52/199 8/32/200 69/51/201
f 80/80/202 25/50/203 69/51/204
f 10/53/205 26/52/206 69/51/207
f 21/43/208 83/83/209 27/54/210
f 9/44/211 21/43/212 27/54/213
f 56/29/214 27/54/215 57/13/216
f 27/54/217 56/29/218 70/55/219
f 9/44/220 27/54/221 69/51/222
f 27/54/223 70/55/224 69/51/225
f 10/53/226 69/51/227 70/55/228
f 8/32/229 26/52/230 59/33/231
f 26/52/232 28/56/233 59/33/234
f 66/36/235 59/33/236 28/56/237
f 26/52/238 10/53/239 28/56/240
f 66/36/241 28/56/242 61/38/243
f 28/56/244 71/57/245 61/38/246
f 56/29/247 61/38/248 70/55/249
f 61/38/250 71/57/251 70/55/252
f 28/56/253 10/53/254 71/57/255
f 10/53/256 70/55/257 71/57/258
f 3/11/259 48/12/260 29/58/261
f 48/12/262 72/59/263 29/58/264
f 11/60/265 29/58/266 72/59/267
f 31/61/268 3/11/269 29/58/270
f 11/60/271 1/63/272 30/62/273
f 30/62/274 2/64/275 29/58/276
f 2/64/277 31/61/278 29/58/279
f 11/60/280 30/62/281 29/58/282
f 32/65/283 40/26/284 33/66/285
f 3/11/286 31/61/287 33/66/288
f 31/61/289 76/76/290 33/66/291
f 34/67/292 32/65/293 33/66/294
f 39/68/295 32/65/296 35/37/297
f 32/65/298 34/67/299 35/37/300
f 47/10/301 12/8/302 73/69/303
f 41/5/304 47/10/305 36/70/306
f 47/10/307 73/69/308 36/70/309
f 6/19/310 36/70/311 73/69/312
f 6/19/313 51/17/314 36/70/315
f 41/5/316 36/70/317 37/71/318
f 51/17/319 16/21/320 36/70/321
f 22/45/322 20/41/323 73/69/324
f 20/41/325 67/46/326 73/69/327
f 12/8/328 22/45/329 73/69/330
f 6/19/331 73/69/332 67/46/333
f 35/37/334 38/34/335 17/39/336
f 34/67/337 38/34/338 35/37/339
f 60/35/340 14/28/341 39/68/342
f 35/37/343 60/35/344 39/68/345
f 39/68/346 14/28/347 40/26/348
f 32/65/349 39/68/350 40/26/351
f 74/72/352 72/59/353 48/12/354
f 15/3/355 74/72/356 48/12/357
f 11/60/358 72/59/359 41/5/360
f 41/5/361 72/59/362 74/72/363
f 41/5/364 74/72/365 44/1/366
f 15/3/367 44/1/368 74/72/369
f 16/21/370 42/73/371 36/70/372
f 42/73/373 1/63/374 37/71/375
f 1/63/376 41/5/377 37/71/378
f 1/63/379 11/60/380 41/5/381
f 43/74/382 84/84/383 13/25/384
f 2/64/385 43/74/386 13/25/387
f 2/64/388 30/62/389 43/74/390
f 30/62/391 42/73/392 43/74/393
f 16/21/394 43/74/395 42/73/396
f 30/62/397 1/63/398 42/73/399
f 82/82/400 57/13/401 83/83/402
f 5/15/403 75/75/404 19/42/405
f 57/13/406 27/54/407 83/83/408
f 54/24/409 58/31/410 25/50/411 79/79/412
f 8/32/413 59/33/414 38/34/415
f 77/77/416 38/34/417 34/67/418 33/66/419
f 25/50/420 78/78/421 79/79/422
f 25/50/423 80/80/424 77/77/425 78/78/426
f 78/78/427 33/66/428 76/76/429
f 77/77/430 33/66/431 78/78/432
f 31/61/433 2/64/434 76/76/435
f 13/25/436 54/24/437 79/79/438
f 78/78/439 76/76/440 79/79/441
f 80/80/442 8/32/443 77/77/444
f 8/32/445 80/80/446 69/51/447
f 13/25/448 79/79/449 76/76/450 2/64/451
f 3/11/452 81/81/453 48/12/454
f 82/82/455 5/15/456 48/12/457
f 5/15/458 82/82/459 75/75/460
f 21/43/461 75/75/462 83/83/463
f 82/82/464 48/12/465 81/81/466
f 75/75/467 82/82/468 83/83/469
f 33/66/470 40/26/471 3/11/472
f 8/32/473 38/34/474 77/77/475
f 36/70/476 42/73/477 37/71/478
f 16/21/479 84/84/480 43/74/481
f 52/22/482 84/84/483 16/21/484
