# This file uses centimeters as units for non-parametric coordinates.

v 0.000000 250.000000 31.195307
v 500.000000 250.000000 31.195307
v 0.000000 250.000000 -14.239197
v 500.000000 250.000000 -14.239197
v 0.000000 0.000000 31.195307
v 500.000000 0.000000 31.195307
v 500.000000 36.000000 31.195307
v 389.445313 36.000000 31.195307
v 500.000000 214.000000 31.195307
v 286.000000 135.066040 31.195307
v 286.000000 214.000000 31.195307
v 214.000000 135.066040 31.195307
v 110.554688 33.352394 31.195307
v 214.000000 214.000000 31.195307
v 0.000000 36.000000 31.195307
v 0.000000 214.000000 31.195307
v 195.800049 142.836243 16.651165
v 103.245605 54.200012 16.651165
v 195.800049 195.799957 16.651165
v 0.000000 54.200012 16.651165
v 0.000000 195.799957 16.651165
v 500.000000 54.200012 16.651165
v 388.093323 56.166245 16.651165
v 500.000000 195.799957 16.651165
v 304.199951 142.836243 16.651165
v 304.199951 195.799957 16.651165
v 500.000000 0.000000 -14.239197
v 0.000000 0.000000 -14.239197
v 216.817154 190.846863 31.195305
v 283.182831 160.215179 31.195309
v 349.771729 99.193710 16.651165
v 328.771881 87.863960 31.195305
v 172.673447 101.191879 31.195307
v 149.375671 98.377197 16.651165
v 136.841339 72.406273 25.266792
v 151.813980 65.984879 31.195307
v 479.056061 213.999985 31.195307
v 374.595795 214.000000 31.195305
v 445.097870 207.471603 25.978291
v 424.716095 223.290085 31.195307
v 472.024414 222.598145 31.195307
v 10.407185 213.999985 31.195305
v 111.945969 214.000000 31.195307
v 37.133999 220.707535 31.195307
v 37.808846 208.590378 26.872332
vt 0.001942 0.871345
vt 0.237360 0.871345
vt 0.001942 0.989053
vt 0.237360 0.989053
vt 0.050554 0.646864
vt 0.094132 0.688597
vt 0.094132 0.713534
vt 0.001942 0.963534
vt 0.001942 0.896864
vt 0.237360 0.963534
vt 0.145170 0.713534
vt 0.145170 0.688597
vt 0.188748 0.646864
vt 0.237360 0.896864
vt 0.185307 0.638295
vt 0.237360 0.888295
vt 0.102701 0.722103
vt 0.136601 0.972103
vt 0.237360 0.989053
vt 0.001942 0.989053
vt 0.053995 0.638295
vt 0.136601 0.684938
vt 0.102701 0.934938
vt 0.001942 0.972103
vt 0.001942 0.888295
vt 0.237360 0.972103
vt 0.237360 0.871345
vt 0.001942 0.871345
vt 0.136601 0.722103
vt 0.136601 0.934938
vt 0.237360 0.722103
vt 0.237360 0.713534
vt 0.237360 0.638295
vt 0.237360 0.646864
vt 0.001942 0.646864
vt 0.001942 0.638295
vt 0.053995 0.888295
vt 0.001942 0.722103
vt 0.001942 0.713534
vt 0.102701 0.684938
vt 0.102701 0.972103
vt 0.185307 0.888295
vt 0.188748 0.896864
vt 0.145170 0.938597
vt 0.145170 0.963534
vt 0.050554 0.896864
vt 0.094132 0.963534
vt 0.094132 0.938597
vt 0.102701 0.711202
vt 0.102701 0.961202
vt 0.136601 0.696780
vt 0.136601 0.946780
vt 0.166627 0.918049
vt 0.166627 0.668049
vt 0.156872 0.915526
vt 0.156872 0.665526
vt 0.083155 0.917112
vt 0.083111 0.666178
vt 0.072274 0.917664
vt 0.072274 0.667664
vt 0.066350 0.654963
vt 0.073381 0.901552
vt 0.071790 0.651590
vt 0.227499 0.722103
vt 0.227499 0.972103
vt 0.178315 0.722103
vt 0.178315 0.972103
vt 0.211510 0.719030
vt 0.201913 0.976478
vt 0.224188 0.976152
vt 0.224188 0.724574
vt 0.201913 0.724773
vt 0.006842 0.972103
vt 0.006842 0.722103
vt 0.054650 0.972103
vt 0.054650 0.722103
vt 0.019426 0.975262
vt 0.019744 0.719556
vt 0.019426 0.724031
vn 0.000000 0.000000 -1.000000
vn 0.000000 0.000000 -1.000000
vn 0.000000 0.000000 -1.000000
vn 0.000000 0.000000 -1.000000
vn 0.000000 0.000000 1.000000
vn 0.000000 0.000000 1.000000
vn 0.000000 0.000000 1.000000
vn 0.000000 0.000000 1.000000
vn 0.000000 0.000000 1.000000
vn 0.000000 0.000000 1.000000
vn 0.000000 0.000000 1.000000
vn 0.000000 0.000000 1.000000
vn 0.000000 0.000000 1.000000
vn 0.000000 0.000000 1.000000
vn 0.000000 0.000000 1.000000
vn 0.000000 0.000000 1.000000
vn 0.000000 0.000000 1.000000
vn 0.000000 0.000000 1.000000
vn 0.000000 0.000000 1.000000
vn 0.000000 -0.000000 1.000000
vn 0.000000 -0.000000 1.000000
vn 0.000000 -0.000000 1.000000
vn 0.000000 -0.000000 1.000000
vn 0.000000 -0.000000 1.000000
vn 0.000000 -0.000000 1.000000
vn 0.000000 -0.000000 1.000000
vn -0.000000 0.000000 1.000000
vn -0.000000 0.000000 1.000000
vn -0.000000 0.000000 1.000000
vn -0.000000 0.000000 1.000000
vn -0.428959 0.410850 0.804485
vn -0.428959 0.410850 0.804485
vn -0.428959 0.410850 0.804485
vn -0.578803 -0.070426 0.812420
vn -0.578803 -0.070426 0.812420
vn -0.578803 -0.070426 0.812420
vn 0.000000 -0.624279 0.781201
vn 0.000000 -0.624279 0.781201
vn 0.000000 -0.624279 0.781201
vn 0.000000 -0.624279 0.781201
vn 0.007409 0.598277 0.801255
vn 0.007409 0.598277 0.801255
vn 0.007409 0.598277 0.801255
vn 0.007409 0.598277 0.801255
vn 0.005341 0.604271 0.796761
vn 0.005341 0.604271 0.796761
vn 0.005341 0.604271 0.796761
vn 0.005341 0.604271 0.796761
vn 0.000000 -0.624279 0.781202
vn 0.000000 -0.624279 0.781202
vn 0.000000 -0.624279 0.781202
vn 0.000000 -0.624279 0.781202
vn 0.000000 -0.624279 0.781202
vn 0.000000 -0.624279 0.781202
vn 0.000000 -0.624279 0.781202
vn 0.432476 0.451179 0.780642
vn 0.432476 0.451179 0.780642
vn 0.432476 0.451179 0.780642
vn 0.432476 0.451179 0.780642
vn 0.586569 -0.015480 0.809751
vn 0.586569 -0.015480 0.809751
vn 0.586569 -0.015480 0.809751
vn 0.586569 -0.015480 0.809751
vn -0.000000 0.000000 1.000000
vn -0.000000 0.000000 1.000000
vn -0.000000 0.000000 1.000000
vn -0.000000 0.000000 1.000000
vn 0.000000 0.000000 1.000000
vn 0.000000 0.000000 1.000000
vn 0.000000 0.000000 1.000000
vn -0.000000 -0.000000 1.000000
vn -0.000000 -0.000000 1.000000
vn -0.000000 -0.000000 1.000000
vn -0.000000 -0.000000 1.000000
vn -1.000000 0.000000 0.000000
vn -1.000000 0.000000 0.000000
vn -1.000000 0.000000 0.000000
vn -1.000000 0.000000 0.000000
vn 1.000000 -0.000001 0.000000
vn 1.000000 -0.000001 0.000000
vn 1.000000 -0.000001 0.000000
vn 1.000000 -0.000001 0.000000
vn -1.000000 0.000000 0.000000
vn -1.000000 0.000000 0.000000
vn -1.000000 0.000000 0.000000
vn -1.000000 0.000000 0.000000
vn 1.000000 0.000001 0.000000
vn 1.000000 0.000001 0.000000
vn 1.000000 0.000001 0.000000
vn 1.000000 0.000001 0.000000
vn 1.000000 0.000000 0.000000
vn 1.000000 0.000000 0.000000
vn 1.000000 0.000000 0.000000
vn 1.000000 0.000000 0.000000
vn 0.000000 1.000000 0.000000
vn 0.000000 1.000000 0.000000
vn 0.000000 1.000000 0.000000
vn 0.000000 1.000000 0.000000
vn 0.000000 -1.000000 0.000000
vn 0.000000 -1.000000 0.000000
vn 0.000000 -1.000000 0.000000
vn 0.000000 -1.000000 0.000000
vn -1.000000 0.000000 0.000000
vn -1.000000 0.000000 0.000000
vn -1.000000 0.000000 0.000000
vn -1.000000 0.000000 0.000000
vn -0.592451 0.015348 0.805460
vn -0.592451 0.015348 0.805460
vn -0.592451 0.015348 0.805460
vn -0.592451 0.015348 0.805460
vn -0.000000 0.000000 1.000000
vn -0.000000 0.000000 1.000000
vn -0.000000 0.000000 1.000000
vn -0.000000 0.000000 1.000000
vn 0.605027 0.067773 0.793315
vn 0.605027 0.067773 0.793315
vn 0.605027 0.067773 0.793315
vn 0.000000 0.000000 1.000000
vn 0.000000 0.000000 1.000000
vn 0.000000 0.000000 1.000000
vn 0.000000 0.000000 1.000000
vn 0.412024 0.400681 0.818346
vn 0.412024 0.400681 0.818346
vn 0.412024 0.400681 0.818346
vn 0.412024 0.400681 0.818346
vn 0.000000 -0.000000 1.000000
vn 0.000000 -0.000000 1.000000
vn 0.000000 -0.000000 1.000000
vn 0.000000 -0.000000 1.000000
vn -0.453093 0.507567 0.732859
vn -0.453093 0.507567 0.732859
vn -0.453093 0.507567 0.732859
vn -0.453093 0.507567 0.732859
vn -0.000000 0.000000 1.000000
vn -0.000000 0.000000 1.000000
vn -0.000000 0.000000 1.000000
vn -0.000000 0.000000 1.000000
vn -0.237225 0.299938 0.923992
vn -0.237225 0.299938 0.923992
vn -0.237225 0.299938 0.923992
vn -0.296401 0.175611 0.938780
vn -0.296401 0.175611 0.938780
vn -0.296401 0.175611 0.938780
vn -0.505260 0.481443 0.716188
vn -0.505260 0.481443 0.716188
vn -0.505260 0.481443 0.716188
vn -0.449195 0.469052 0.760404
vn -0.449195 0.469052 0.760404
vn -0.449195 0.469052 0.760404
vn -0.000000 0.000000 1.000000
vn -0.000000 0.000000 1.000000
vn -0.000000 0.000000 1.000000
vn -0.000000 0.000000 1.000000
vn -0.130848 -0.107008 0.985611
vn -0.130848 -0.107008 0.985611
vn -0.130848 -0.107008 0.985611
vn 0.047631 -0.256971 0.965245
vn 0.047631 -0.256971 0.965245
vn 0.047631 -0.256971 0.965245
vn -0.004660 -0.318618 0.947872
vn -0.004660 -0.318618 0.947872
vn -0.004660 -0.318618 0.947872
vn 0.000000 0.000000 1.000000
vn 0.000000 0.000000 1.000000
vn 0.000000 0.000000 1.000000
vn 0.000000 0.000000 1.000000
vn 0.000000 0.000000 1.000000
vn 0.000000 0.000000 1.000000
vn 0.000000 0.000000 1.000000
vn -0.030247 -0.337363 0.940889
vn -0.030247 -0.337363 0.940889
vn -0.030247 -0.337363 0.940889
vn 0.083009 -0.330757 0.940058
vn 0.083009 -0.330757 0.940058
vn 0.083009 -0.330757 0.940058
vn 0.000000 0.000000 1.000000
vn 0.000000 0.000000 1.000000
vn 0.000000 0.000000 1.000000
vn 0.000000 0.000000 1.000000
vn 0.000000 -0.624279 0.781201
vn 0.000000 -0.624279 0.781201
vn 0.000000 -0.624279 0.781201
vn 0.000000 -0.624279 0.781201
vn 0.000000 -0.624279 0.781202
vn 0.000000 -0.624279 0.781202
vn 0.000000 -0.624279 0.781202
s off
f 3/3/1 4/4/2 27/27/3 28/28/4
f 18/46/5 34/59/6 21/8/7 20/9/8
f 24/10/9 31/53/10 23/43/11 22/14/12
f 8/42/13 6/2/14 7/16/15
f 14/41/16 11/18/17 2/19/18 1/20/19
f 36/62/20 32/55/21 33/57/22
f 44/77/23 1/20/24 16/24/25 42/73/26
f 13/37/27 5/1/28 6/2/29 8/42/30
f 13/21/31 35/61/32 18/5/33
f 19/7/34 29/49/35 14/17/36
f 21/39/37 45/78/38 42/74/39 16/38/40
f 15/36/41 13/21/42 18/5/43 20/35/44
f 8/15/45 7/33/46 22/34/47 23/13/48
f 24/32/49 9/31/50 37/64/51 39/68/52 38/66/53 11/29/54 26/11/55
f 31/54/56 32/56/57 8/15/58 23/13/59
f 11/29/60 30/51/61 25/12/62 26/11/63
f 11/18/64 14/41/65 29/50/66 30/52/67
f 5/1/68 13/37/69 15/25/70
f 40/69/71 2/19/72 11/18/73 38/67/74
f 21/8/75 16/24/76 1/20/77 3/3/78
f 22/14/79 7/16/80 6/2/81 27/27/82
f 5/1/83 15/25/84 20/9/85 28/28/86
f 24/10/87 4/4/88 2/19/89 9/26/90
f 4/4/91 24/10/92 22/14/93 27/27/94
f 1/20/95 2/19/96 4/4/97 3/3/98
f 6/2/99 5/1/100 28/28/101 27/27/102
f 3/3/103 28/28/104 20/9/105 21/8/106
f 12/40/107 29/49/108 19/7/109 17/6/110
f 30/52/111 29/50/112 12/23/113 10/30/114
f 25/12/115 30/51/116 10/22/117
f 24/10/118 26/45/119 25/44/120 31/53/121
f 10/22/122 32/56/123 31/54/124 25/12/125
f 33/57/126 32/55/127 10/30/128 12/23/129
f 34/60/130 33/58/131 12/40/132 17/6/133
f 21/8/134 34/59/135 17/48/136 19/47/137
f 13/21/138 36/63/139 35/61/140
f 35/61/141 36/63/142 33/58/143
f 34/60/144 35/61/145 33/58/146
f 18/5/147 35/61/148 34/60/149
f 13/37/150 8/42/151 32/55/152 36/62/153
f 41/71/154 39/68/155 37/64/156
f 38/66/157 39/68/158 40/72/159
f 40/72/160 39/68/161 41/71/162
f 9/26/163 2/19/164 41/70/165 37/65/166
f 41/70/167 2/19/168 40/69/169
f 44/79/170 45/78/171 43/76/172
f 42/74/173 45/78/174 44/79/175
f 14/41/176 1/20/177 44/77/178 43/75/179
f 19/7/180 14/17/181 43/76/182 45/78/183
f 19/7/184 45/78/185 21/39/186
