# This file uses centimeters as units for non-parametric coordinates.

v -139.813599 -9.862934 139.813599
v 139.813599 -9.862934 139.813599
v -125.531517 25.217508 125.531525
v 125.531517 25.217508 125.531525
v -130.753952 12.389889 -130.753906
v 125.531517 25.217508 -125.531494
v -139.813599 -9.862934 -139.813599
v 139.813599 -9.862934 -139.813599
v -61.745949 46.267849 61.745941
v 61.745949 46.267849 61.745941
v 61.745949 46.267849 -61.745941
v -61.745949 46.267849 -61.745941
v -31.038971 70.267853 61.745941
v 31.038971 70.267853 61.745941
v -31.038971 70.267853 -61.745941
v 31.038971 70.267853 -61.745941
v 61.745949 70.267853 31.038971
v 61.745949 70.267853 -31.038971
v -61.745949 70.267853 31.038971
v -61.745949 70.267853 -31.038971
v -25.038971 76.269569 58.248901
v 25.038971 76.269569 58.248901
v 58.248894 76.269569 25.038971
v 58.248894 76.269569 -25.038971
v -25.038971 76.269569 -58.248901
v 25.038971 76.269569 -58.248901
v -58.248898 76.269569 25.038971
v -58.248898 76.269569 -25.038971
v 56.407051 135.609787 56.407043
v 61.745949 129.791306 61.745941
v 31.038971 129.175079 61.774872
v 25.629539 134.989380 54.835663
v -56.407051 135.609787 -56.407043
v -61.745949 129.791306 -61.745941
v -31.038971 129.175079 -61.774872
v -25.629536 134.989380 -54.835663
v 54.835670 134.989349 25.629547
v 61.774879 129.175079 31.038971
v -54.835667 134.989349 -25.629547
v -61.774883 129.175079 -31.038971
v 25.038971 129.049728 58.276550
v 58.276527 129.049774 25.038971
v -25.038971 129.049728 -58.276550
v -58.276535 129.049774 -25.038971
v -0.673531 133.858841 -54.730164
v 7.486267 127.454483 -58.275726
v -54.835667 134.989365 -3.144196
v -58.275593 127.250267 4.739960
v 54.835670 134.137360 9.868805
v -110.335030 25.217508 125.531525
v 24.719170 25.217508 125.531525
v -64.507599 18.026379 128.459198
v -57.343353 33.002064 101.943176
v -37.893551 25.217508 -125.531494
v -125.531517 25.217508 -108.251984
v -96.331749 34.853935 -96.331726
v 125.531502 25.217508 40.846954
v 125.531517 25.217508 -93.815948
v 115.011513 28.689293 -5.721893
v 110.734779 30.100687 -73.940674
v 129.053253 16.567230 -59.124908
v -9.776680 134.634293 54.835663
v -54.835663 134.989380 12.247467
v -58.276077 128.174240 15.163147
v -58.265804 108.558449 25.038971
v -61.762352 103.661415 31.038971
v -61.745949 91.121704 61.745941
v -31.038971 91.542908 61.756378
v -25.038971 96.587936 58.259552
v -6.334938 118.605034 58.271088
v -8.311699 126.530891 58.275238
v -23.727509 134.661789 27.943085
v 18.141869 96.382019 -58.259430
v 25.038971 92.900818 -58.257599
v 31.038971 86.359718 -61.753845
v 61.745949 81.856445 -61.745941
v 61.760689 100.280197 -31.038971
v 58.271309 119.082222 -25.038971
v 58.276527 129.049713 -13.228485
v 54.835670 134.683136 -12.869659
v 36.903877 134.935013 -22.307587
vt 0.185183 0.836991
vt 0.181168 0.841007
vt 0.135526 0.841007
vt 0.095446 0.840184
vt 0.075041 0.841007
vt 0.068203 0.841007
vt 0.064188 0.836991
vt 0.064188 0.957987
vt 0.185183 0.957987
vt 0.182158 0.923666
vt 0.181168 0.879110
vt 0.181168 0.939701
vt 0.181168 0.953971
vt 0.066689 0.955512
vt 0.068203 0.946196
vt 0.096903 0.869707
vt 0.098884 0.851620
vt 0.152468 0.869707
vt 0.152468 0.925271
vt 0.174510 0.930758
vt 0.176434 0.900064
vt 0.107890 0.953991
vt 0.096903 0.925271
vt 0.081342 0.940833
vt 0.008073 0.746587
vt 0.090915 0.746587
vt 0.070316 0.762686
vt 0.028672 0.762686
vt 0.090915 0.746587
vt 0.008073 0.746587
vt 0.028672 0.762686
vt 0.070316 0.762686
vt 0.114716 0.747024
vt 0.196946 0.747024
vt 0.176499 0.763005
vt 0.135163 0.763005
vt 0.196946 0.747024
vt 0.114716 0.747024
vt 0.135163 0.763005
vt 0.176499 0.763005
vt 0.090874 0.540134
vt 0.123945 0.540134
vt 0.120749 0.543332
vt 0.094071 0.543332
vt 0.143112 0.538767
vt 0.178043 0.538767
vt 0.174667 0.542144
vt 0.146488 0.542144
vt 0.123945 0.540134
vt 0.090874 0.540134
vt 0.094071 0.543332
vt 0.120749 0.543332
vt 0.178043 0.538767
vt 0.143112 0.538767
vt 0.146489 0.542144
vt 0.174667 0.542144
vt 0.140304 0.571844
vt 0.137460 0.574944
vt 0.121063 0.574614
vt 0.123945 0.571516
vt 0.074516 0.571844
vt 0.077360 0.574944
vt 0.093756 0.574614
vt 0.090874 0.571516
vt 0.174667 0.566234
vt 0.168021 0.571843
vt 0.146488 0.571843
vt 0.094071 0.571449
vt 0.111398 0.570600
vt 0.117074 0.554046
vt 0.090915 0.802616
vt 0.070316 0.802203
vt 0.008073 0.802616
vt 0.028672 0.802203
vt 0.070316 0.773481
vt 0.090915 0.770460
vt 0.196946 0.770722
vt 0.176499 0.782990
vt 0.114716 0.802641
vt 0.135163 0.802230
vt 0.196946 0.802641
vt 0.176499 0.802230
vt 0.120749 0.571449
vt 0.178043 0.555655
vt 0.143112 0.571914
vt 0.120749 0.552192
vt 0.123945 0.548707
vt 0.178043 0.571914
vt 0.174667 0.571843
vt 0.128838 0.575534
vt 0.125834 0.572260
vt 0.146156 0.575185
vt 0.192318 0.575534
vt 0.195322 0.572260
vt 0.175000 0.575185
vt 0.155025 0.574706
vt 0.106635 0.574011
vt 0.157911 0.570831
vt 0.162347 0.575185
vt 0.167820 0.575013
vt 0.151120 0.574924
vt 0.153686 0.575185
vt 0.123911 0.574658
vt 0.102201 0.574425
vt 0.152046 0.571350
vt 0.146489 0.560313
vt 0.143112 0.557557
vt 0.114716 0.776892
vt 0.135163 0.785242
vt 0.028672 0.776958
vt 0.008073 0.776676
vt 0.094071 0.554156
vt 0.090874 0.551468
vt 0.104035 0.565885
vt 0.102982 0.570108
vt 0.003510 0.509109
vt 0.003511 0.509109
vt 0.003511 0.509109
vt 0.003511 0.509109
vt 0.003511 0.509109
vt 0.003510 0.509109
vt 0.003511 0.509109
vt 0.003510 0.509109
vt 0.003510 0.509109
vt 0.003510 0.509109
vt 0.003510 0.509109
vt 0.003510 0.509109
vt 0.003510 0.509109
vt 0.003510 0.509109
vt 0.003510 0.509109
vt 0.003510 0.509109
vt 0.003510 0.509109
vt 0.003510 0.509109
vt 0.003510 0.509109
vt 0.003510 0.509109
vt 0.003510 0.509109
vn -0.000000 0.377071 0.926184
vn -0.000000 0.377071 0.926184
vn -0.000000 0.377071 0.926184
vn -0.000000 0.377071 0.926184
vn 0.000000 0.377071 0.926184
vn 0.000000 0.377071 0.926184
vn 0.000000 0.377071 0.926184
vn 0.000000 0.377071 0.926184
vn 0.000000 0.377072 0.926184
vn 0.000000 0.377072 0.926184
vn 0.000000 0.377072 0.926184
vn 0.000000 -1.000000 0.000000
vn 0.000000 -1.000000 0.000000
vn 0.000000 -1.000000 0.000000
vn 0.000000 -1.000000 0.000000
vn 0.926184 0.377071 0.000000
vn 0.926184 0.377071 0.000000
vn 0.926184 0.377071 0.000000
vn 0.926184 0.377072 -0.000000
vn 0.926184 0.377072 -0.000000
vn 0.926184 0.377072 -0.000000
vn 0.926184 0.377072 -0.000000
vn 0.926184 0.377071 -0.000000
vn 0.926184 0.377071 -0.000000
vn 0.926184 0.377071 -0.000000
vn 0.926184 0.377071 -0.000000
vn -0.926185 0.377071 0.000000
vn -0.926185 0.377071 0.000000
vn -0.926185 0.377071 0.000000
vn -0.926184 0.377072 0.000000
vn -0.926184 0.377072 0.000000
vn -0.926184 0.377072 0.000000
vn -0.926184 0.377072 0.000000
vn 0.000000 0.949624 0.313392
vn 0.000000 0.949624 0.313392
vn 0.000000 0.949624 0.313392
vn 0.000000 0.949624 0.313392
vn 0.000000 0.949624 0.313392
vn 0.000000 0.949624 0.313392
vn 0.000000 0.949624 0.313392
vn -0.000000 0.949624 0.313392
vn -0.000000 0.949624 0.313392
vn -0.000000 0.949624 0.313392
vn -0.000000 0.949624 0.313392
vn 0.313392 0.949624 0.000000
vn 0.313392 0.949624 0.000000
vn 0.313392 0.949624 0.000000
vn 0.313392 0.949624 0.000000
vn 0.313392 0.949624 0.000000
vn 0.313392 0.949624 0.000000
vn 0.313392 0.949624 0.000000
vn 0.313392 0.949624 -0.000000
vn 0.313392 0.949624 -0.000000
vn 0.313392 0.949624 -0.000000
vn 0.313392 0.949624 -0.000000
vn 0.313392 0.949624 0.000000
vn 0.313392 0.949624 0.000000
vn 0.313392 0.949624 0.000000
vn 0.000000 0.949624 -0.313392
vn 0.000000 0.949624 -0.313392
vn 0.000000 0.949624 -0.313392
vn 0.000000 0.949624 -0.313392
vn -0.000000 0.949624 -0.313392
vn -0.000000 0.949624 -0.313392
vn -0.000000 0.949624 -0.313392
vn -0.093953 0.874134 -0.476510
vn -0.093953 0.874134 -0.476510
vn -0.093953 0.874134 -0.476510
vn 0.000000 0.000000 1.000000
vn 0.000000 0.000000 1.000000
vn 0.000000 0.000000 1.000000
vn 0.000000 0.000000 1.000000
vn 0.000000 0.000000 -1.000000
vn 0.000000 0.000000 -1.000000
vn 0.000000 0.000000 -1.000000
vn 0.000000 0.000000 -1.000000
vn 1.000000 0.000000 0.000000
vn 1.000000 0.000000 0.000000
vn 1.000000 0.000000 0.000000
vn 1.000000 0.000000 0.000000
vn -1.000000 0.000000 0.000000
vn -1.000000 0.000000 0.000000
vn -1.000000 0.000000 0.000000
vn -1.000000 0.000000 0.000000
vn 0.000000 0.503445 0.864027
vn 0.000000 0.503445 0.864027
vn 0.000000 0.503445 0.864027
vn 0.000000 0.503445 0.864027
vn 0.864026 0.503447 0.000000
vn 0.864026 0.503447 0.000000
vn 0.864026 0.503447 0.000000
vn 0.864026 0.503447 0.000000
vn 0.000000 0.503445 -0.864027
vn 0.000000 0.503445 -0.864027
vn 0.000000 0.503445 -0.864027
vn 0.000000 0.503445 -0.864027
vn -0.864026 0.503447 0.000000
vn -0.864026 0.503447 0.000000
vn -0.864026 0.503447 0.000000
vn -0.864026 0.503447 0.000000
vn -0.031921 0.711455 0.702006
vn -0.031921 0.711455 0.702006
vn -0.031921 0.711455 0.702006
vn -0.031921 0.711455 0.702006
vn 0.031921 0.711455 -0.702006
vn 0.031921 0.711455 -0.702006
vn 0.031921 0.711455 -0.702006
vn 0.031921 0.711455 -0.702006
vn 1.000000 -0.000524 0.000000
vn 1.000000 -0.000524 0.000000
vn 1.000000 -0.000524 0.000000
vn 1.000000 -0.000524 0.000000
vn 1.000000 -0.000524 0.000000
vn 1.000000 -0.000525 0.000000
vn 1.000000 -0.000524 0.000000
vn 0.000000 -0.000523 -1.000000
vn 0.000000 -0.000524 -1.000000
vn 0.000000 -0.000524 -1.000000
vn 0.000000 -0.000524 -1.000000
vn 0.000000 -0.000524 -1.000000
vn 0.000000 -0.000524 -1.000000
vn 0.000000 -0.000524 -1.000000
vn 0.000394 -0.000203 1.000000
vn 0.000394 -0.000203 1.000000
vn 0.000394 -0.000203 1.000000
vn 0.000394 -0.000203 1.000000
vn -0.000394 -0.000203 -1.000000
vn -0.000394 -0.000203 -1.000000
vn -0.000394 -0.000203 -1.000000
vn -0.000394 -0.000203 -1.000000
vn 0.000058 -0.000153 -1.000000
vn 0.000058 -0.000153 -1.000000
vn 0.000058 -0.000153 -1.000000
vn 0.000058 -0.000153 -1.000000
vn 1.000000 -0.000225 -0.000085
vn 1.000000 -0.000225 -0.000085
vn 1.000000 -0.000225 -0.000085
vn 1.000000 -0.000225 -0.000085
vn 1.000000 -0.000203 0.000394
vn 1.000000 -0.000203 0.000394
vn 1.000000 -0.000203 0.000394
vn 1.000000 -0.000203 0.000394
vn -1.000000 -0.000203 -0.000394
vn -1.000000 -0.000203 -0.000394
vn -1.000000 -0.000203 -0.000394
vn -1.000000 -0.000203 -0.000394
vn -0.503782 -0.000438 0.863831
vn -0.503782 -0.000438 0.863831
vn -0.503782 -0.000438 0.863831
vn -0.503782 -0.000438 0.863831
vn 0.863807 -0.000441 0.503822
vn 0.863807 -0.000441 0.503822
vn 0.863807 -0.000441 0.503822
vn 0.863807 -0.000441 0.503822
vn 0.863829 -0.000438 -0.503784
vn 0.863829 -0.000438 -0.503784
vn 0.863829 -0.000438 -0.503784
vn 0.863829 -0.000438 -0.503784
vn 0.503782 -0.000438 -0.863831
vn 0.503782 -0.000438 -0.863831
vn 0.503782 -0.000438 -0.863831
vn 0.503782 -0.000438 -0.863831
vn -0.503852 -0.000438 -0.863790
vn -0.503852 -0.000438 -0.863790
vn -0.503852 -0.000438 -0.863790
vn -0.503852 -0.000438 -0.863790
vn -0.863830 -0.000438 0.503784
vn -0.863830 -0.000438 0.503784
vn -0.863830 -0.000438 0.503784
vn -0.863830 -0.000438 0.503784
vn 0.702005 0.711456 -0.031921
vn 0.702005 0.711456 -0.031921
vn 0.702005 0.711456 -0.031921
vn 0.702005 0.711456 -0.031921
vn -0.449102 0.480889 0.753029
vn -0.449102 0.480889 0.753029
vn -0.449102 0.480889 0.753030
vn -0.702005 0.711456 0.031921
vn -0.702005 0.711456 0.031921
vn -0.702005 0.711456 0.031921
vn -0.702005 0.711456 0.031921
vn 0.449101 0.480887 -0.753031
vn 0.449101 0.480887 -0.753031
vn 0.449101 0.480887 -0.753031
vn 0.863795 0.503109 -0.027197
vn 0.863795 0.503109 -0.027197
vn 0.863795 0.503109 -0.027197
vn 0.753028 0.480892 -0.449102
vn 0.753028 0.480892 -0.449102
vn 0.753028 0.480892 -0.449102
vn 0.025593 0.506078 -0.862108
vn 0.025593 0.506078 -0.862108
vn 0.025593 0.506078 -0.862108
vn 0.025593 0.506078 -0.862108
vn -0.753027 0.480892 0.449102
vn -0.753027 0.480893 0.449102
vn -0.753027 0.480893 0.449102
vn 0.000002 -0.000523 -1.000000
vn 0.000002 -0.000523 -1.000000
vn 0.000002 -0.000523 -1.000000
vn -0.889279 0.457095 0.015754
vn -0.889279 0.457095 0.015754
vn -0.889279 0.457095 0.015754
vn -0.889279 0.457095 0.015754
vn -1.000000 -0.000524 -0.000000
vn -1.000000 -0.000524 -0.000000
vn -1.000000 -0.000524 -0.000000
vn -1.000000 -0.000524 -0.000000
vn 0.838463 0.544936 0.004874
vn 0.838463 0.544936 0.004874
vn 0.838463 0.544936 0.004874
vn 0.838463 0.544936 0.004874
vn -0.054834 0.875688 0.479755
vn -0.054834 0.875688 0.479754
vn -0.054834 0.875688 0.479754
vn 0.101473 0.854243 0.509875
vn 0.101473 0.854243 0.509875
vn 0.101473 0.854243 0.509875
vn 0.000000 0.377072 -0.926184
vn 0.000000 0.377072 -0.926184
vn 0.000000 0.377072 -0.926184
vn 0.000000 0.377072 -0.926184
vn -0.000001 0.377073 -0.926184
vn -0.000001 0.377073 -0.926184
vn -0.000001 0.377073 -0.926183
vn -0.093953 0.874134 -0.476510
vn -0.093953 0.874134 -0.476510
vn -0.093953 0.874134 -0.476510
vn -0.313392 0.949624 -0.000000
vn -0.313392 0.949624 -0.000000
vn -0.313392 0.949624 -0.000000
vn -0.313392 0.949624 -0.000000
vn -0.313392 0.949624 0.000000
vn -0.313392 0.949624 0.000000
vn -0.313392 0.949624 0.000000
vn 0.498393 0.851722 0.161783
vn 0.498393 0.851722 0.161783
vn 0.498393 0.851722 0.161783
vn 0.524208 0.849808 -0.055065
vn 0.524208 0.849808 -0.055065
vn 0.524208 0.849808 -0.055065
vn 0.605257 0.795740 -0.021481
vn 0.605257 0.795740 -0.021481
vn 0.605257 0.795740 -0.021481
vn -0.019172 0.999632 -0.019173
vn -0.007925 0.999677 -0.024149
vn -0.007269 0.999970 -0.002867
vn 0.019172 0.999632 0.019173
vn 0.028371 0.999449 0.017254
vn 0.028368 0.999449 0.017255
vn 0.006337 0.999975 0.003095
vn 0.009774 0.999765 0.019338
vn -0.002178 0.999990 0.003952
vn 0.002516 0.999991 -0.003520
vn 0.017408 0.999848 -0.001341
vn 0.015151 0.999875 -0.004625
vn 0.002516 0.999991 -0.003520
vn 0.000542 0.999983 -0.005874
vn 0.002516 0.999991 -0.003520
vn -0.006013 0.999981 -0.001146
vn -0.007269 0.999970 -0.002867
vn -0.007925 0.999677 -0.024149
vn -0.007925 0.999677 -0.024149
vn 0.006337 0.999975 0.003095
vn 0.002516 0.999991 -0.003520
vn -0.002178 0.999990 0.003952
vn 0.000542 0.999983 -0.005874
vn 0.002516 0.999991 -0.003520
vn 0.017408 0.999848 -0.001341
vn 0.000542 0.999983 -0.005874
vn 0.028368 0.999449 0.017255
vn 0.028371 0.999449 0.017254
vn -0.908218 0.418229 -0.014987
vn -0.908218 0.418229 -0.014987
vn -0.908218 0.418229 -0.014987
vn -0.908218 0.418229 -0.014987
vn -1.000000 -0.000524 0.000000
vn -1.000000 -0.000524 0.000000
vn -1.000000 -0.000524 0.000000
vn -1.000000 -0.000524 0.000000
vn -0.863806 -0.000438 -0.503824
vn -0.863806 -0.000438 -0.503824
vn -0.863806 -0.000438 -0.503824
vn -0.863806 -0.000438 -0.503824
vn -1.000000 -0.000210 0.000142
vn -1.000000 -0.000210 0.000142
vn -1.000000 -0.000210 0.000142
vn -1.000000 -0.000210 0.000142
vn -0.000107 -0.000158 1.000000
vn -0.000107 -0.000158 1.000000
vn -0.000107 -0.000158 1.000000
vn -0.000107 -0.000158 1.000000
vn 0.503842 -0.000438 0.863796
vn 0.503842 -0.000438 0.863796
vn 0.503842 -0.000438 0.863795
vn 0.503842 -0.000438 0.863795
vn 0.000000 -0.000524 1.000000
vn 0.000000 -0.000524 1.000000
vn 0.000000 -0.000524 1.000000
vn 0.000000 -0.000524 1.000000
vn 0.000000 -0.000524 1.000000
vn 0.000000 -0.000524 1.000000
vn 0.000000 -0.000524 1.000000
vn 0.000000 -0.000524 1.000000
vn -0.018366 0.438987 0.898306
vn -0.018366 0.438987 0.898306
vn -0.018366 0.438987 0.898306
vn -0.018366 0.438987 0.898306
vn -0.383040 0.442205 0.811009
vn -0.383040 0.442205 0.811009
vn -0.383040 0.442205 0.811009
vn -0.383040 0.442205 0.811009
vn -0.012826 0.925703 0.378033
vn -0.012826 0.925703 0.378033
vn -0.012826 0.925703 0.378033
vn -0.263311 0.785919 0.559462
vn -0.263311 0.785919 0.559462
vn -0.263311 0.785919 0.559462
vn -0.263311 0.785919 0.559463
vn -0.478142 0.557108 0.678977
vn -0.478142 0.557108 0.678977
vn -0.478142 0.557108 0.678977
vn -0.788637 0.361144 0.497621
vn -0.788637 0.361144 0.497621
vn -0.788637 0.361144 0.497621
vn -0.788637 0.361144 0.497621
vn 0.000000 -0.000524 1.000000
vn 0.000000 -0.000524 1.000000
vn 0.000000 -0.000524 1.000000
vn 0.398209 0.777145 -0.487314
vn 0.398209 0.777145 -0.487314
vn 0.398209 0.777145 -0.487314
vn 0.723995 0.247940 -0.643706
vn 0.723995 0.247940 -0.643706
vn 0.723995 0.247940 -0.643706
vn 0.418621 0.519135 -0.745155
vn 0.418621 0.519135 -0.745155
vn 0.418621 0.519135 -0.745155
vn 0.418621 0.519135 -0.745155
vn 0.190351 0.808522 -0.556829
vn 0.190351 0.808522 -0.556829
vn 0.190351 0.808522 -0.556829
vn 0.190351 0.808522 -0.556829
vn 0.118657 0.321781 -0.939349
vn 0.118657 0.321781 -0.939350
vn 0.118657 0.321781 -0.939349
vn 0.446209 0.609452 -0.655336
vn 0.446209 0.609452 -0.655336
vn 0.446209 0.609452 -0.655336
vn 0.446209 0.609452 -0.655336
s off
f 2/1/1 4/2/2 51/3/3 52/4/4
f 50/5/5 3/6/6 1/7/7 52/4/8
f 52/4/9 1/7/10 2/1/11
f 7/8/12 8/9/13 2/1/14 1/7/15
f 8/9/16 61/10/17 2/1/18
f 2/1/19 61/10/20 57/11/21 4/2/22
f 58/12/23 61/10/24 8/9/25 6/13/26
f 7/8/27 1/7/28 5/14/29
f 55/15/30 5/14/31 1/7/32 3/6/33
f 9/16/34 3/6/35 50/5/36 53/17/37
f 4/2/38 10/18/39 51/3/40
f 51/3/41 10/18/42 9/16/43 53/17/44
f 4/2/45 57/11/46 10/18/47
f 58/12/48 6/13/49 11/19/50 60/20/51
f 11/19/52 10/18/53 57/11/54 59/21/55
f 59/21/56 60/20/57 11/19/58
f 11/19/59 6/13/60 54/22/61 12/23/62
f 54/22/63 56/24/64 12/23/65
f 5/14/66 55/15/67 56/24/68
f 9/25/69 10/26/70 14/27/71 13/28/72
f 11/29/73 12/30/74 15/31/75 16/32/76
f 10/33/77 11/34/78 18/35/79 17/36/80
f 12/37/81 9/38/82 19/39/83 20/40/84
f 13/41/85 14/42/86 22/43/87 21/44/88
f 17/45/89 18/46/90 24/47/91 23/48/92
f 16/49/93 15/50/94 25/51/95 26/52/96
f 20/53/97 19/54/98 27/55/99 28/56/100
f 30/57/101 29/58/102 32/59/103 31/60/104
f 34/61/105 33/62/106 36/63/107 35/64/108
f 42/67/109 23/48/110 24/47/111 78/65/112
f 78/65/113 79/66/114 42/67/115
f 26/52/116 25/51/117 73/70/118
f 73/70/119 25/51/120 43/68/121 46/69/122
f 10/26/123 30/71/124 31/72/125 14/27/126
f 12/30/127 34/73/128 35/74/129 15/31/130
f 75/75/131 76/76/132 11/29/133 16/32/134
f 11/34/135 76/77/136 77/78/137 18/35/138
f 30/79/139 10/33/140 17/36/141 38/80/142
f 34/81/143 12/37/144 20/40/145 40/82/146
f 14/42/147 31/60/148 41/83/149 22/43/150
f 18/46/151 77/84/152 78/65/153 24/47/154
f 38/85/155 17/45/156 23/48/157 42/67/158
f 15/50/159 35/64/160 43/68/161 25/51/162
f 74/86/163 75/87/164 16/49/165 26/52/166
f 40/88/167 20/53/168 28/56/169 44/89/170
f 29/90/171 30/91/172 38/85/173 37/92/174
f 31/60/175 32/59/176 41/83/177
f 33/93/178 34/94/179 40/88/180 39/95/181
f 35/64/182 36/63/183 43/68/184
f 42/67/185 49/96/186 37/92/187
f 37/92/188 38/85/189 42/67/190
f 43/68/191 36/63/192 45/97/193 46/69/194
f 39/95/195 40/88/196 44/89/197
f 26/52/198 73/70/199 74/86/200
f 48/98/201 47/99/202 39/95/203 44/89/204
f 28/56/205 27/55/206 48/98/207 44/89/208
f 79/66/209 80/100/210 49/96/211 42/67/212
f 51/3/213 53/17/214 52/4/215
f 52/4/216 53/17/217 50/5/218
f 6/13/219 8/9/220 7/8/221 54/22/222
f 5/14/223 54/22/224 7/8/225
f 56/24/226 54/22/227 5/14/228
f 55/15/229 3/6/230 9/16/231 56/24/232
f 56/24/233 9/16/234 12/23/235
f 58/12/236 60/20/237 61/10/238
f 61/10/239 59/21/240 57/11/241
f 61/10/242 60/20/243 59/21/244
f 29/90/245 37/92/246 32/59/247
f 33/93/248 39/95/249 36/63/250
f 49/96/251 80/100/252 81/101/253 72/103/254
f 47/99/255 63/102/256 72/103/257 45/97/258
f 72/103/259 62/104/260 32/59/261 37/92/262
f 37/92/263 49/96/264 72/103/265
f 81/101/266 45/97/267 72/103/268
f 47/99/269 45/97/270 36/63/271 39/95/272
f 64/105/273 63/102/274 47/99/275 48/98/276
f 48/98/277 27/55/278 65/106/279 64/105/280
f 19/54/281 66/107/282 65/106/283 27/55/284
f 9/38/285 67/108/286 66/109/287 19/39/288
f 68/110/289 67/111/290 9/25/291 13/28/292
f 69/112/293 68/113/294 13/41/295 21/44/296
f 21/44/297 22/43/298 70/114/299 69/112/300
f 71/115/301 70/114/302 22/43/303 41/83/304
f 41/83/305 32/59/306 62/104/307 71/115/308
f 72/116/309 63/117/310 64/118/311 65/119/312
f 67/120/313 68/121/314 66/122/315
f 66/122/316 68/121/317 69/123/318 65/119/319
f 65/119/320 69/123/321 72/116/322
f 62/124/323 72/116/324 69/123/325 71/125/326
f 69/112/327 70/114/328 71/115/329
f 45/126/330 81/127/331 46/128/332
f 46/128/333 81/127/334 73/129/335
f 74/130/336 73/129/337 81/127/338 77/131/339
f 77/131/340 76/132/341 75/133/342 74/130/343
f 77/131/344 81/127/345 78/134/346
f 81/127/347 80/135/348 79/136/349 78/134/350
