# This file uses centimeters as units for non-parametric coordinates.

v 0.000000 0.000000 31.195307
v 500.000000 0.000000 31.195307
v 0.000000 500.000000 531.195313
v 500.000000 500.000000 531.195313
v 0.000000 500.000000 485.760773
v 500.000000 500.000000 485.760773
v 0.000000 0.000000 -14.239197
v 500.000000 0.000000 -14.239197
v 500.000000 286.000000 317.195313
v 389.445313 286.000000 317.195313
v 500.000000 464.000000 495.195313
v 286.000000 385.066040 416.261353
v 286.000000 464.000000 495.195313
v 214.000000 385.066040 416.261353
v 110.554680 286.000000 317.195313
v 214.000000 464.000000 495.195313
v 0.000000 286.000000 317.195313
v 0.000000 464.000000 495.195313
v 195.800049 398.166718 406.091553
v 103.245598 309.530487 317.455322
v 195.800049 451.130432 459.055237
v 0.000000 309.530487 317.455322
v 0.000000 451.130432 459.055237
v 500.000000 309.530487 317.455322
v 396.754395 309.530487 317.455322
v 500.000000 451.130432 459.055237
v 304.199951 398.166718 406.091553
v 304.199951 451.130432 459.055237
v 216.635269 397.870880 429.066193
v 283.364716 438.791656 469.987000
v 90.606850 452.285278 460.210114
v 72.725517 462.845154 494.040436
v 465.816437 465.374786 496.570129
v 425.582672 449.755646 457.680481
v 137.176025 298.332031 329.527344
v 158.054916 331.489319 362.684631
v 121.875374 305.818512 330.130707
v 337.509857 369.109283 377.034119
v 338.647919 328.303772 359.499084
v 250.000000 500.000000 485.760773
v 250.000000 0.000000 -14.239197
v 250.000000 500.000000 531.195313
v 250.000000 464.000000 495.195313
v 250.000000 418.331268 449.526550
v 250.000000 385.066040 416.261353
v 250.000000 329.896545 361.091858
v 250.000000 0.000000 12.542392
v 365.057159 225.072784 256.268097
v 365.057251 0.000000 31.195305
v 131.015854 224.381531 255.576843
v 131.015747 0.000000 31.195309
v 342.560699 0.000000 12.542392
v 250.000000 303.161041 315.703430
v 155.261169 0.000000 12.542392
v 342.560638 217.221237 229.763657
v 155.261169 219.520248 232.062607
vt 0.001889 0.753737
vt 0.001940 0.753736
vt 0.237372 0.753626
vt 0.237359 0.888277
vt 0.237458 0.753597
vt 0.001942 0.989053
vt 0.237360 0.989053
vt 0.050554 0.896864
vt 0.094132 0.688597
vt 0.094132 0.713534
vt 0.001942 0.963534
vt 0.001942 0.896864
vt 0.237360 0.963534
vt 0.145170 0.713534
vt 0.145170 0.938597
vt 0.188748 0.896864
vt 0.237360 0.896864
vt 0.185285 0.888166
vt 0.102701 0.972103
vt 0.136601 0.972103
vt 0.237360 0.989053
vt 0.001942 0.989053
vt 0.053995 0.888295
vt 0.136601 0.684938
vt 0.102701 0.684938
vt 0.001942 0.972103
vt 0.001942 0.638295
vt 0.237360 0.722103
vt 0.145170 0.688597
vt 0.145170 0.963534
vt 0.237360 0.713534
vt 0.188748 0.646864
vt 0.237360 0.972103
vt 0.237360 0.646864
vt 0.237388 0.638324
vt 0.094132 0.963534
vt 0.001942 0.713534
vt 0.001942 0.722103
vt 0.050554 0.646864
vt 0.001942 0.646864
vt 0.001942 0.888295
vt 0.094132 0.938597
vt 0.102701 0.722103
vt 0.053995 0.638295
vt 0.102701 0.934938
vt 0.136601 0.934938
vt 0.136601 0.722103
vt 0.185427 0.638420
vt 0.102701 0.693370
vt 0.102701 0.943370
vt 0.136601 0.957832
vt 0.136601 0.707832
vt 0.044048 0.963534
vt 0.044048 0.713534
vt 0.036739 0.722103
vt 0.036739 0.972103
vt 0.221575 0.722103
vt 0.221575 0.972103
vt 0.202012 0.963534
vt 0.202012 0.713534
vt 0.071088 0.894081
vt 0.076360 0.909713
vt 0.076360 0.659713
vt 0.070198 0.645157
vt 0.057661 0.647329
vt 0.160727 0.674784
vt 0.160864 0.924896
vt 0.161390 0.908213
vt 0.161673 0.658508
vt 0.119651 0.989053
vt 0.119657 0.753631
vt 0.119651 0.989053
vt 0.119660 0.972087
vt 0.119639 0.950625
vt 0.119667 0.934907
vt 0.119630 0.658942
vt 0.119670 0.753660
vt 0.173820 0.609552
vt 0.173882 0.519312
vt 0.063547 0.609291
vt 0.063616 0.519377
vt 0.163275 0.753636
vt 0.119623 0.643339
vt 0.075037 0.753683
vt 0.163237 0.602859
vt 0.074986 0.603989
vt 0.074986 0.853989
vt 0.075037 0.519360
vt 0.119623 0.893339
vt 0.163237 0.852859
vt 0.163275 0.519313
vt 0.173882 0.753635
vt 0.063547 0.859291
vt 0.063616 0.753700
vt 0.119630 0.908942
vt 0.173820 0.859552
vn 0.000000 -1.000000 0.000000
vn 0.000000 -1.000000 0.000000
vn 0.000000 -1.000000 0.000000
vn 0.000000 -1.000000 0.000000
vn 0.000000 0.707107 -0.707107
vn 0.000000 0.707107 -0.707107
vn 0.000000 0.707107 -0.707107
vn 0.000000 0.707107 -0.707107
vn 0.000000 -0.707107 0.707107
vn 0.000000 -0.707107 0.707107
vn 0.000000 -0.707107 0.707107
vn 0.000000 -0.707107 0.707107
vn 0.000000 -0.707107 0.707107
vn 0.000000 -0.707107 0.707107
vn 0.000000 -0.707107 0.707107
vn 0.000000 -0.707107 0.707107
vn 0.000000 -0.707107 0.707107
vn 0.000000 -0.707107 0.707107
vn 0.000000 -0.707107 0.707107
vn 0.000000 -0.707107 0.707107
vn 0.000000 -0.707107 0.707107
vn 0.000000 -0.707107 0.707107
vn 0.000000 -0.707107 0.707107
vn -0.189964 -0.458223 0.868300
vn -0.189964 -0.458223 0.868300
vn -0.189964 -0.458223 0.868300
vn -0.636939 -0.552120 0.538026
vn -0.636939 -0.552120 0.538026
vn -0.636939 -0.552120 0.538026
vn -0.636939 -0.552120 0.538026
vn 0.000000 -0.948251 0.317521
vn 0.000000 -0.948251 0.317521
vn 0.000000 -0.948251 0.317521
vn 0.000000 -0.948251 0.317521
vn 0.000000 -0.011049 0.999939
vn 0.000000 -0.011049 0.999939
vn 0.000000 -0.011049 0.999939
vn 0.000000 -0.011049 0.999939
vn 0.000000 -0.011049 0.999939
vn 0.000000 -0.011049 0.999939
vn 0.000000 -0.011049 0.999939
vn 0.000000 -0.011049 0.999939
vn 0.000000 -0.934877 0.354971
vn 0.000000 -0.934877 0.354971
vn 0.000000 -0.934877 0.354971
vn 0.000000 -0.934877 0.354971
vn 0.503767 -0.274839 0.818952
vn 0.503767 -0.274839 0.818952
vn 0.503767 -0.274839 0.818952
vn 0.503767 -0.274839 0.818952
vn 0.620475 -0.586013 0.521151
vn 0.620475 -0.586013 0.521151
vn 0.620475 -0.586013 0.521151
vn 0.000000 -0.707107 0.707107
vn 0.000000 -0.707107 0.707107
vn 0.000000 -0.707107 0.707107
vn 0.000000 -0.707107 0.707107
vn 0.000000 -0.707107 0.707107
vn 0.000000 -0.707107 0.707107
vn 0.000000 -0.707107 0.707107
vn 0.000000 -0.707107 0.707107
vn 0.000000 -0.707107 0.707107
vn 0.000000 -0.707107 0.707107
vn -1.000000 0.000000 0.000000
vn -1.000000 0.000000 0.000000
vn -1.000000 0.000000 0.000000
vn -1.000000 0.000000 0.000000
vn -1.000000 0.000000 0.000000
vn -1.000000 0.000000 0.000000
vn -1.000000 0.000000 0.000000
vn -1.000000 0.000000 0.000000
vn 1.000000 -0.000001 0.000000
vn 1.000000 -0.000001 0.000000
vn 1.000000 -0.000001 0.000000
vn 1.000000 -0.000001 0.000000
vn 1.000000 0.000000 0.000000
vn 1.000000 0.000000 0.000000
vn 1.000000 0.000000 0.000000
vn 1.000000 0.000000 0.000000
vn -1.000000 0.000000 0.000000
vn -1.000000 0.000000 0.000000
vn -1.000000 0.000000 0.000000
vn -1.000000 0.000000 0.000000
vn 0.000000 1.000000 0.000000
vn 0.000000 1.000000 0.000000
vn 0.000000 1.000000 0.000000
vn 0.000000 1.000000 0.000000
vn -0.661479 -0.457852 0.593984
vn -0.661479 -0.457852 0.593984
vn -0.661479 -0.457852 0.593984
vn -0.000001 -0.707107 0.707107
vn -0.000001 -0.707107 0.707107
vn -0.000001 -0.707107 0.707107
vn -0.000001 -0.707107 0.707107
vn 0.644011 -0.532936 0.548843
vn 0.644011 -0.532936 0.548843
vn 0.644011 -0.532936 0.548843
vn 0.644011 -0.532936 0.548843
vn -0.000000 -0.707107 0.707107
vn -0.000000 -0.707107 0.707107
vn -0.000000 -0.707107 0.707107
vn -0.000000 -0.707107 0.707107
vn -0.000000 -0.948252 0.317520
vn -0.000000 -0.948252 0.317520
vn -0.000000 -0.948252 0.317520
vn -0.000000 -0.948252 0.317520
vn -0.000000 -0.707106 0.707107
vn -0.000000 -0.707106 0.707107
vn -0.000000 -0.707106 0.707107
vn -0.000000 -0.707106 0.707107
vn -0.000000 -0.707106 0.707107
vn -0.000000 -0.707106 0.707107
vn -0.000000 -0.934877 0.354971
vn -0.000000 -0.934877 0.354971
vn -0.000000 -0.934877 0.354971
vn -0.000000 -0.934877 0.354971
vn 0.000000 -0.707107 0.707107
vn 0.000000 -0.707107 0.707107
vn 0.000000 -0.707107 0.707107
vn 0.000000 -0.707107 0.707107
vn 0.000000 -0.707107 0.707107
vn 0.000000 -0.707107 0.707107
vn 0.000000 -0.707107 0.707107
vn -0.261306 -0.595290 0.759835
vn -0.261306 -0.595290 0.759835
vn -0.261306 -0.595290 0.759835
vn -0.578807 -0.189134 0.793228
vn -0.578807 -0.189134 0.793228
vn -0.578807 -0.189134 0.793228
vn -0.578807 -0.189134 0.793228
vn -0.577834 -0.188263 0.794144
vn -0.577834 -0.188263 0.794144
vn -0.577834 -0.188263 0.794144
vn 0.000000 -0.707107 0.707107
vn 0.000000 -0.707107 0.707107
vn 0.000000 -0.707107 0.707107
vn 0.000000 -0.707107 0.707107
vn 0.526564 -0.276502 0.803914
vn 0.526564 -0.276502 0.803914
vn 0.526564 -0.276502 0.803914
vn 0.526564 -0.276502 0.803914
vn 0.000000 -0.707107 0.707107
vn 0.000000 -0.707107 0.707107
vn 0.000000 -0.707107 0.707107
vn 0.000000 -0.707107 0.707107
vn -0.579000 -0.188615 0.793211
vn -0.579000 -0.188615 0.793211
vn -0.579000 -0.188615 0.793211
vn 1.000000 0.000000 0.000000
vn 1.000000 0.000000 0.000000
vn 1.000000 -0.000004 0.000000
vn 1.000000 -0.000004 0.000000
vn -0.000000 -0.707107 0.707107
vn -0.000000 -0.707107 0.707107
vn -0.000000 -0.707107 0.707107
vn -0.000000 -0.707107 0.707107
vn 0.000000 0.707107 -0.707107
vn 0.000000 0.707107 -0.707107
vn 0.000000 0.707107 -0.707107
vn 0.000000 0.707107 -0.707107
vn 0.000000 -0.707107 0.707107
vn 0.000000 -0.707107 0.707107
vn 0.000000 -0.707107 0.707107
vn 0.000000 -0.707107 0.707107
vn -0.000000 -0.707107 0.707107
vn -0.000000 -0.707107 0.707107
vn -0.000000 -0.707107 0.707107
vn -0.000000 -0.707107 0.707107
vn 0.000000 -0.707106 0.707107
vn 0.000000 -0.707106 0.707107
vn 0.000000 -0.707106 0.707107
vn 0.000000 -0.707106 0.707107
vn 0.000000 -0.707107 0.707107
vn 0.000000 -0.707107 0.707107
vn 0.000000 -0.707107 0.707107
vn 0.000000 -0.707107 0.707107
vn 0.000000 -1.000000 0.000000
vn 0.000000 -1.000000 0.000000
vn 0.000000 -1.000000 0.000000
vn 0.000000 -1.000000 0.000000
vn 0.000000 -0.707107 0.707107
vn 0.000000 -0.707107 0.707107
vn 0.000000 -0.707107 0.707107
vn 0.000000 -0.707107 0.707107
vn 0.000000 -0.707107 0.707107
vn 0.000000 1.000000 0.000000
vn 0.000000 1.000000 0.000000
vn 0.000000 1.000000 0.000000
vn 0.000000 1.000000 0.000000
vn -0.000000 -0.707107 0.707107
vn -0.000000 -0.707107 0.707107
vn -0.000000 -0.707107 0.707107
vn -0.000000 -0.707107 0.707107
vn -0.000000 -0.707107 0.707107
vn -0.000000 -0.707107 0.707107
vn -0.000000 -0.707107 0.707107
vn -0.000000 -0.707107 0.707107
vn 0.000000 -0.707107 0.707107
vn 0.000000 -0.707107 0.707107
vn 0.000000 -0.707107 0.707107
vn 0.000000 -0.707107 0.707107
vn 0.000001 -0.707107 0.707107
vn 0.000001 -0.707107 0.707107
vn 0.000001 -0.707107 0.707107
vn -0.303017 -0.818270 0.488483
vn -0.303017 -0.818270 0.488483
vn -0.303017 -0.818270 0.488483
vn -0.303017 -0.818270 0.488483
vn 0.477871 -0.621144 0.621144
vn 0.477871 -0.621144 0.621144
vn 0.477871 -0.621144 0.621144
vn 0.477871 -0.621144 0.621144
vn -0.505776 -0.609996 0.609996
vn -0.505776 -0.609996 0.609996
vn -0.505776 -0.609996 0.609996
vn -0.505776 -0.609996 0.609996
vn 0.300532 -0.822480 0.482916
vn 0.300532 -0.822480 0.482916
vn 0.300532 -0.822480 0.482916
vn 0.300532 -0.822480 0.482916
vn 0.000000 -1.000000 0.000000
vn 0.000000 -1.000000 0.000000
vn 0.000000 -1.000000 0.000000
vn 0.000000 -1.000000 0.000000
vn 0.000000 -1.000000 0.000000
vn 0.000000 -1.000000 0.000000
vn 0.000000 -1.000000 0.000000
vn 0.000000 -1.000000 0.000000
s off
f 54/84/1 7/2/2 41/71/3 47/77/4
f 5/6/5 40/70/6 41/71/7 7/2/8
f 20/8/9 31/53/10 23/11/11 22/12/12
f 26/13/13 34/59/14 25/16/15 24/17/16
f 42/72/17 43/73/18 13/20/19 4/21/20
f 32/56/21 3/22/22 18/26/23
f 15/44/24 35/64/25 37/65/26
f 19/9/27 29/49/28 16/43/29 21/10/30
f 31/54/31 32/55/32 18/38/33 23/37/34
f 17/27/35 15/44/36 20/39/37 22/40/38
f 10/48/39 9/35/40 24/34/41 25/32/42
f 26/31/43 11/28/44 33/57/45 34/60/46
f 38/66/47 39/69/48 10/48/49 25/32/50
f 13/47/51 30/52/52 28/14/53
f 13/20/54 43/73/55 44/74/56 30/51/57
f 1/1/58 15/23/59 17/41/60
f 11/33/61 4/21/62 33/58/63
f 23/11/64 18/26/65 3/22/66 5/6/67
f 22/12/68 7/2/69 1/1/70 17/41/71
f 26/13/72 6/7/73 4/21/74 11/33/75
f 26/13/76 24/17/77 8/3/78 6/7/79
f 23/11/80 5/6/81 7/2/82 22/12/83
f 3/22/84 42/72/85 40/70/86 5/6/87
f 14/25/88 29/49/89 19/9/90
f 30/51/91 44/74/92 45/75/93 12/46/94
f 28/14/95 30/52/96 12/24/97 27/29/98
f 20/8/99 19/42/100 21/36/101 31/53/102
f 21/10/103 16/43/104 32/55/105 31/54/106
f 16/19/107 3/22/108 32/56/109
f 33/58/110 4/21/111 13/20/112
f 34/60/113 33/57/114 13/47/115 28/14/116
f 25/16/117 34/59/118 38/67/119
f 46/95/120 48/96/121 10/18/122 39/68/123
f 36/63/124 37/65/125 35/64/126
f 20/39/127 37/65/128 36/63/129 19/9/130
f 15/44/131 37/65/132 20/39/133
f 38/67/134 34/59/135 28/30/136 27/15/137
f 12/24/138 39/69/139 38/66/140 27/29/141
f 45/75/142 46/95/143 39/68/144 12/46/145
f 19/9/146 36/63/147 14/25/148
f 9/4/149 2/5/150 8/3/151 24/17/152
f 53/89/153 56/87/154 54/84/155 47/77/156
f 41/71/157 40/70/158 6/7/159 8/3/160
f 16/19/161 43/73/162 42/72/163 3/22/164
f 44/74/165 43/73/166 16/19/167 29/50/168
f 45/75/169 44/74/170 29/50/171 14/45/172
f 36/62/173 46/95/174 45/75/175 14/45/176
f 52/82/177 8/3/178 2/5/179 49/92/180
f 48/96/181 49/92/182 2/5/183 9/4/184 10/18/185
f 40/70/186 42/72/187 4/21/188 6/7/189
f 52/82/190 55/90/191 53/89/192 47/77/193
f 36/62/194 35/61/195 50/93/196 46/95/197
f 1/1/198 51/94/199 50/93/200 15/23/201
f 15/23/202 50/93/203 35/61/204
f 46/76/205 53/83/206 55/85/207 48/78/208
f 50/80/209 51/81/210 54/88/211 56/86/212
f 48/78/213 55/85/214 52/91/215 49/79/216
f 50/80/217 56/86/218 53/83/219 46/76/220
f 47/77/221 41/71/222 8/3/223 52/82/224
f 1/1/225 7/2/226 54/84/227 51/94/228
