# This file uses centimeters as units for non-parametric coordinates.

v -105.749634 -61.332397 98.134033
v 92.525146 -126.213623 98.134033
v -99.096191 156.562988 91.518799
v 94.618530 223.470581 87.913818
v -129.685913 179.746216 -101.200439
v 94.618530 279.017456 -79.582886
v -136.339722 -105.119873 -107.821411
v 101.272705 -61.332397 -107.821411
v -53.258057 156.562988 91.518799
v -17.332886 225.985840 59.170532
v -38.799316 201.830566 13.726685
v -35.947266 51.307861 95.786133
v -33.280518 147.030518 62.529785
v -21.268555 179.746216 -101.200439
v -28.909790 -160.252441 -107.821411
v -50.589844 -92.434692 98.134033
v -24.008789 -13.717163 129.597412
v -28.083740 54.271240 127.425293
v 73.511108 -13.717163 120.085938
v 77.543457 218.960693 113.964355
v -10.432739 218.960693 123.476318
v -94.754517 125.027588 -123.459229
v -45.286011 125.027588 -123.459229
v -51.401978 -14.282349 -129.597046
v -100.078003 -14.282349 -129.597046
v -98.471069 89.799072 88.984619
v -129.060547 89.799072 -100.805542
v -93.564453 88.954956 -122.856323
v -47.874756 96.370728 -126.059692
v -24.501953 97.214355 -104.003174
v 97.432617 97.214355 -104.003174
v 97.432617 97.214355 94.316162
v 69.956909 96.743408 116.553467
v 6.347168 311.763916 -89.566406
v 136.339478 -58.846069 -94.645386
v 136.339478 -58.846069 84.958740
v 132.993530 84.426025 -91.316040
v 132.993530 84.426025 81.634277
v 2.203003 317.503174 3.842285
v -125.665161 201.830566 -4.001221
v -123.254639 89.799072 -33.270996
v -132.319214 -105.119873 -30.034668
v -36.446167 -160.252441 16.202515
v 97.657349 -275.370605 -99.982788
v 97.657349 -275.370605 70.049438
v 130.387695 -127.814087 -87.810669
v 130.387695 -127.814087 57.883545
v 8.799194 -317.503174 18.577881
v 15.721069 -317.503174 -99.982788
v 94.618530 279.017456 14.118164
vt 0.080635 0.255170
vt 0.080696 0.255212
vt 0.080714 0.254988
vt 0.080652 0.254934
vt 0.080649 0.254829
vt 0.080699 0.254826
vt 0.080802 0.254759
vt 0.080726 0.254765
vt 0.080897 0.254950
vt 0.080951 0.254935
vt 0.080952 0.255110
vt 0.080898 0.255115
vt 0.080749 0.255253
vt 0.080803 0.255324
vt 0.080912 0.255144
vt 0.081114 0.255159
vt 0.081106 0.254937
vt 0.080911 0.254925
vt 0.080762 0.254944
vt 0.080753 0.254841
vt 0.080774 0.254717
vt 0.080952 0.254799
vt 0.080857 0.254576
vt 0.080968 0.254589
vt 0.080952 0.255336
vt 0.080951 0.254930
vt 0.081083 0.254921
vt 0.081091 0.255168
vt 0.080851 0.255250
vt 0.080687 0.254981
vt 0.080690 0.255085
vt 0.080806 0.255078
vt 0.080805 0.254909
vt 0.080859 0.254907
vt 0.080863 0.254714
vt 0.080710 0.254725
vt 0.080816 0.254720
vt 0.080832 0.254806
vt 0.080951 0.254889
vt 0.080897 0.254892
vt 0.080833 0.255261
vt 0.080833 0.254950
vt 0.081052 0.254635
vt 0.080945 0.254631
vt 0.080888 0.255480
vt 0.081079 0.255500
vt 0.081099 0.255266
vt 0.080935 0.255252
vt 0.080850 0.255562
vt 0.080991 0.255576
vn -0.033228 0.041406 0.998590
vn -0.033228 0.041406 0.998590
vn -0.033228 0.041406 0.998590
vn -0.033228 0.041406 0.998590
vn -0.062190 0.882845 0.465528
vn -0.062190 0.882845 0.465528
vn -0.062190 0.882845 0.465528
vn -0.062190 0.882845 0.465528
vn -0.037788 0.049733 -0.998047
vn -0.037788 0.049733 -0.998047
vn -0.037788 0.049733 -0.998047
vn -0.037788 0.049733 -0.998047
vn -0.543555 -0.727537 0.418615
vn -0.543555 -0.727537 0.418615
vn -0.543555 -0.727537 0.418615
vn -0.543555 -0.727537 0.418615
vn 0.999727 0.023347 0.000000
vn 0.999727 0.023347 0.000000
vn 0.999727 0.023347 0.000000
vn 0.999727 0.023347 0.000000
vn -0.980019 0.053144 0.191675
vn -0.980019 0.053144 0.191675
vn -0.980019 0.053144 0.191675
vn -0.980019 0.053144 0.191675
vn 0.799909 0.442035 0.405896
vn 0.799909 0.442035 0.405896
vn 0.799909 0.442035 0.405896
vn 0.836590 0.158846 0.524295
vn 0.836590 0.158846 0.524295
vn 0.836590 0.158846 0.524295
vn -0.852063 0.192807 0.486636
vn -0.852063 0.192807 0.486636
vn -0.852063 0.192807 0.486636
vn -0.922701 0.200382 0.329347
vn -0.922701 0.200382 0.329347
vn -0.922701 0.200382 0.329347
vn -0.954666 0.265425 -0.134770
vn -0.954666 0.265425 -0.134770
vn -0.954666 0.265425 -0.134770
vn -0.954666 0.265425 -0.134770
vn -0.007205 0.018363 -0.999806
vn -0.007205 0.018363 -0.999806
vn -0.007205 0.018363 -0.999805
vn -0.007205 0.018363 -0.999805
vn -0.182366 -0.772652 0.608071
vn -0.182366 -0.772652 0.608071
vn -0.182366 -0.772652 0.608071
vn 0.095886 0.035899 0.994745
vn 0.095886 0.035899 0.994745
vn 0.095886 0.035899 0.994745
vn 0.095886 0.035899 0.994745
vn -0.904284 0.054174 0.423481
vn -0.904284 0.054174 0.423481
vn -0.904284 0.054174 0.423481
vn -0.904284 0.054174 0.423481
vn 0.000300 -0.269059 0.963124
vn 0.000300 -0.269059 0.963124
vn 0.000300 -0.269059 0.963124
vn 0.000300 -0.269059 0.963124
vn 0.704867 0.012756 0.709225
vn 0.704867 0.012756 0.709224
vn 0.704867 0.012756 0.709225
vn 0.704867 0.012756 0.709225
vn 0.000295 0.991945 0.126667
vn 0.000295 0.991945 0.126667
vn 0.000295 0.991945 0.126667
vn 0.000295 0.991945 0.126667
vn -0.980018 0.123376 0.156025
vn -0.980018 0.123376 0.156025
vn -0.980018 0.123376 0.156025
vn -0.980018 0.123376 0.156025
vn 0.000000 0.376803 -0.926293
vn 0.000000 0.376803 -0.926293
vn 0.000000 0.376803 -0.926293
vn 0.000000 0.376803 -0.926293
vn 0.690211 -0.000419 -0.723609
vn 0.690211 -0.000419 -0.723609
vn 0.690211 -0.000419 -0.723608
vn 0.690211 -0.000419 -0.723609
vn -0.062514 -0.177006 -0.982222
vn -0.062514 -0.177006 -0.982222
vn -0.062514 -0.177006 -0.982222
vn -0.062514 -0.177006 -0.982222
vn -0.577616 0.064267 -0.813775
vn -0.577616 0.064267 -0.813775
vn -0.577616 0.064267 -0.813775
vn -0.577616 0.064267 -0.813775
vn -0.974323 -0.055363 0.218242
vn -0.974323 -0.055363 0.218242
vn -0.974323 -0.055363 0.218242
vn -0.974323 -0.055363 0.218242
vn -0.540609 -0.014448 -0.841150
vn -0.540609 -0.014448 -0.841150
vn -0.540609 -0.014448 -0.841150
vn -0.540609 -0.014448 -0.841150
vn -0.036088 0.031604 -0.998849
vn -0.036088 0.031604 -0.998849
vn -0.036088 0.031604 -0.998849
vn -0.036088 0.031604 -0.998849
vn 0.683193 -0.000288 -0.730238
vn 0.683193 -0.000288 -0.730238
vn 0.683193 -0.000288 -0.730238
vn 0.683193 -0.000288 -0.730238
vn 0.021019 0.064113 -0.997721
vn 0.021019 0.064113 -0.997721
vn 0.021019 0.064113 -0.997721
vn 0.021019 0.064113 -0.997721
vn 0.734397 0.010452 0.678640
vn 0.734397 0.010452 0.678639
vn 0.734397 0.010452 0.678640
vn 0.734397 0.010452 0.678640
vn 0.105908 0.013342 0.994286
vn 0.105908 0.013342 0.994286
vn 0.105908 0.013342 0.994286
vn 0.105908 0.013342 0.994286
vn -0.061348 0.003660 0.998110
vn -0.061348 0.003660 0.998110
vn -0.061348 0.003660 0.998110
vn -0.061348 0.003660 0.998110
vn 0.160260 0.133843 -0.977959
vn 0.160260 0.133843 -0.977959
vn 0.160260 0.133843 -0.977959
vn 0.999880 0.015477 0.000000
vn 0.999880 0.015477 0.000000
vn 0.999880 0.015477 0.000000
vn 0.999880 0.015477 0.000000
vn 0.976271 -0.216552 0.000000
vn 0.976271 -0.216552 0.000000
vn 0.976271 -0.216552 0.000000
vn 0.976271 -0.216552 0.000000
vn 0.347616 0.030470 -0.937142
vn 0.347616 0.030470 -0.937142
vn 0.347616 0.030470 -0.937142
vn 0.347616 0.030470 -0.937142
vn 0.338401 0.941002 0.000000
vn 0.338401 0.941002 0.000000
vn 0.338401 0.941002 0.000000
vn 0.338401 0.941002 0.000000
vn 0.298911 0.017311 0.954124
vn 0.298911 0.017311 0.954124
vn 0.298911 0.017311 0.954124
vn 0.298911 0.017311 0.954124
vn 0.368656 0.929344 -0.020341
vn 0.368656 0.929343 -0.020341
vn 0.368656 0.929343 -0.020341
vn 0.368656 0.929343 -0.020341
vn -0.198311 0.537746 0.819452
vn -0.198311 0.537746 0.819452
vn -0.198311 0.537746 0.819452
vn -0.906689 0.342438 0.246276
vn -0.906689 0.342438 0.246276
vn -0.906689 0.342437 0.246276
vn 0.018400 0.979070 -0.202689
vn 0.018400 0.979070 -0.202689
vn 0.018400 0.979070 -0.202689
vn 0.018400 0.979070 -0.202689
vn -0.997743 -0.023965 0.062730
vn -0.997743 -0.023965 0.062730
vn -0.997743 -0.023965 0.062730
vn -0.997743 -0.023965 0.062730
vn -0.996877 0.041140 0.067407
vn -0.996877 0.041140 0.067407
vn -0.996877 0.041140 0.067407
vn -0.996877 0.041140 0.067407
vn -0.475288 -0.879791 -0.008280
vn -0.475288 -0.879791 -0.008280
vn -0.475288 -0.879791 -0.008280
vn -0.475288 -0.879791 -0.008280
vn 0.439868 -0.898000 0.010550
vn 0.439868 -0.898000 0.010550
vn 0.439868 -0.898000 0.010550
vn 0.439868 -0.898000 0.010550
vn 0.466125 -0.061518 -0.882577
vn 0.466125 -0.061518 -0.882577
vn 0.466125 -0.061518 -0.882577
vn 0.466125 -0.061518 -0.882577
vn 0.996297 -0.085978 0.000000
vn 0.996297 -0.085978 0.000000
vn 0.996297 -0.085978 0.000000
vn 0.996297 -0.085978 0.000000
vn 0.713776 -0.174226 0.678358
vn 0.713776 -0.174226 0.678358
vn 0.713776 -0.174226 0.678358
vn 0.713776 -0.174226 0.678358
vn -0.477301 -0.151107 0.865650
vn -0.477301 -0.151107 0.865650
vn -0.477301 -0.151107 0.865650
vn -0.477301 -0.151107 0.865650
vn -0.959443 -0.276041 -0.057184
vn -0.959443 -0.276041 -0.057184
vn -0.959443 -0.276041 -0.057184
vn -0.959443 -0.276041 -0.057184
vn 0.026127 -0.039291 -0.998886
vn 0.026127 -0.039291 -0.998886
vn 0.026127 -0.039291 -0.998886
vn 0.026127 -0.039291 -0.998886
vn 0.256926 0.772139 0.581198
vn 0.256926 0.772138 0.581198
vn 0.256926 0.772138 0.581198
vn 0.999580 0.023163 0.017435
vn 0.999580 0.023163 0.017435
vn 0.999580 0.023163 0.017435
s off
f 1/1/1 16/2/2 12/3/3 26/4/4
f 3/5/5 9/6/6 11/7/7 40/8/8
f 28/9/9 29/10/10 24/11/11 25/12/12
f 42/13/13 43/14/14 16/2/15 1/1/16
f 36/15/17 35/16/18 37/17/19 38/18/20
f 41/19/21 42/13/22 1/1/23 26/4/24
f 13/20/25 11/7/26 9/6/27
f 9/6/28 12/3/29 13/20/30
f 13/20/31 12/3/32 10/21/33
f 10/21/34 11/7/35 13/20/36
f 14/22/37 11/7/38 39/23/39 34/24/40
f 15/25/41 30/26/42 31/27/43 8/28/44
f 16/2/45 43/14/46 2/29/47
f 18/30/48 17/31/49 19/32/50 33/33/51
f 12/3/52 16/2/53 17/31/54 18/30/55
f 16/2/56 2/29/57 19/32/58 17/31/59
f 2/29/60 32/34/61 33/33/62 19/32/63
f 4/35/64 10/21/65 21/36/66 20/37/67
f 10/21/68 12/3/69 18/30/70 21/36/71
f 5/38/72 14/22/73 23/39/74 22/40/75
f 29/10/76 30/26/77 15/25/78 24/11/79
f 15/25/80 7/41/81 25/12/82 24/11/83
f 7/41/84 27/42/85 28/9/86 25/12/87
f 40/8/88 41/19/89 26/4/90 3/5/91
f 28/9/92 27/42/93 5/38/94 22/40/95
f 22/40/96 23/39/97 29/10/98 28/9/99
f 14/22/100 30/26/101 29/10/102 23/39/103
f 31/27/104 30/26/105 14/22/106 34/24/107
f 33/33/108 32/34/109 4/35/110 20/37/111
f 18/30/112 33/33/113 20/37/114 21/36/115
f 26/4/116 12/3/117 9/6/118 3/5/119
f 31/27/120 34/24/121 6/43/122
f 32/34/123 31/27/124 6/43/125 50/44/126
f 45/45/127 44/46/128 46/47/129 47/48/130
f 8/28/131 31/27/132 37/17/133 35/16/134
f 31/27/135 32/34/136 38/18/137 37/17/138
f 32/34/139 2/29/140 36/15/141 38/18/142
f 34/24/143 39/23/144 50/44/145 6/43/146
f 4/35/147 39/23/148 10/21/149
f 10/21/150 39/23/151 11/7/152
f 40/8/153 11/7/154 14/22/155 5/38/156
f 27/42/157 41/19/158 40/8/159 5/38/160
f 7/41/161 42/13/162 41/19/163 27/42/164
f 7/41/165 15/25/166 43/14/167 42/13/168
f 45/45/169 48/49/170 49/50/171 44/46/172
f 8/28/173 35/16/174 46/47/175 44/46/176
f 35/16/177 36/15/178 47/48/179 46/47/180
f 36/15/181 2/29/182 45/45/183 47/48/184
f 2/29/185 43/14/186 48/49/187 45/45/188
f 43/14/189 15/25/190 49/50/191 48/49/192
f 15/25/193 8/28/194 44/46/195 49/50/196
f 50/44/197 39/23/198 4/35/199
f 32/34/200 50/44/201 4/35/202
