# This file uses centimeters as units for non-parametric coordinates.

v -63.977448 -9.664795 73.930298
v 95.012695 -41.148682 58.269043
v -90.907501 65.566162 51.460327
v 92.768066 68.944580 7.690063
v -98.353790 35.112549 -57.439209
v 88.623779 68.944580 -55.005127
v -99.013000 -48.714111 -58.267334
v 95.012695 -41.148682 -58.267334
v -33.659424 -17.181396 88.143188
v -33.659424 -120.884399 -88.143188
v -32.857422 76.041504 -83.205200
v -32.923340 76.041504 76.926880
v 95.012695 22.380859 58.269043
v 37.593018 68.944580 69.802124
v -70.834473 68.944580 -69.802490
v -94.488770 68.944580 -25.501709
v -99.013000 15.739258 58.269043
v -99.013000 -9.664795 7.742188
v -21.398438 83.914001 -42.290894
v -21.702393 -144.793488 -3.385132
v 99.012939 -54.977722 -14.055420
v -6.368652 208.151947 -21.109009
v 70.767822 172.257904 11.939453
v -7.788330 203.333832 58.904663
v 35.394775 172.257904 56.999268
v -36.692627 79.925354 18.130371
v -70.090088 73.296387 70.261353
v -47.504150 59.760742 57.845825
v -16.574890 -188.643524 74.983032
v -7.697784 -208.151764 7.026855
v 81.928894 -160.038025 -0.895386
v 78.958557 -155.590530 52.802734
vt 0.080542 0.256368
vt 0.080564 0.256612
vt 0.080109 0.256753
vt 0.080113 0.256675
vt 0.080318 0.256488
vt 0.080066 0.256088
vt 0.080156 0.256159
vt 0.079976 0.256470
vt 0.079802 0.256352
vt 0.080042 0.256303
vt 0.079764 0.256548
vt 0.080256 0.256510
vt 0.079881 0.256665
vt 0.080505 0.256052
vt 0.080610 0.256290
vt 0.080764 0.256317
vt 0.080718 0.256203
vt 0.080666 0.256486
vt 0.080279 0.256029
vt 0.080421 0.256069
vt 0.080415 0.256175
vt 0.080524 0.256350
vt 0.080378 0.256249
vt 0.080054 0.256395
vt 0.080177 0.256189
vt 0.080419 0.256338
vt 0.080289 0.256417
vt 0.080627 0.256302
vt 0.080564 0.256612
vt 0.080256 0.256510
vt 0.079881 0.256665
vt 0.080109 0.256753
vn 0.191247 0.043331 0.980585
vn 0.191247 0.043331 0.980585
vn 0.191247 0.043331 0.980585
vn 0.191247 0.043331 0.980585
vn 0.191247 0.043331 0.980585
vn 0.123587 0.987903 -0.093675
vn 0.123587 0.987902 -0.093675
vn 0.123587 0.987902 -0.093675
vn 0.123587 0.987903 -0.093675
vn 0.217766 0.030018 -0.975539
vn 0.217766 0.030018 -0.975539
vn 0.217766 0.030018 -0.975539
vn 0.217766 0.030018 -0.975539
vn 0.421179 -0.881237 0.214547
vn 0.421179 -0.881237 0.214547
vn 0.421179 -0.881237 0.214547
vn 0.421179 -0.881237 0.214547
vn 0.999277 0.030686 0.022447
vn 0.999277 0.030686 0.022447
vn 0.999277 0.030686 0.022447
vn 0.999277 0.030686 0.022447
vn -0.994822 0.101093 0.010480
vn -0.994822 0.101093 0.010480
vn -0.994822 0.101093 0.010480
vn -0.994822 0.101093 0.010480
vn -0.690307 -0.509743 0.513457
vn -0.690307 -0.509743 0.513457
vn -0.690307 -0.509743 0.513457
vn -0.690307 -0.509743 0.513457
vn -0.225099 0.966728 -0.121524
vn -0.225099 0.966728 -0.121524
vn -0.225099 0.966728 -0.121524
vn -0.225099 0.966728 -0.121524
vn 0.595965 0.603785 0.529405
vn 0.595965 0.603785 0.529405
vn 0.595965 0.603785 0.529405
vn -0.410892 0.009030 -0.911640
vn -0.410892 0.009030 -0.911640
vn -0.410892 0.009030 -0.911640
vn -0.410892 0.009030 -0.911640
vn -0.774431 0.478822 -0.413505
vn -0.774431 0.478822 -0.413505
vn -0.774431 0.478822 -0.413505
vn -0.647037 -0.681204 0.342498
vn -0.647037 -0.681204 0.342498
vn -0.647037 -0.681204 0.342498
vn -0.821988 0.074424 0.564621
vn -0.821988 0.074424 0.564621
vn -0.821988 0.074424 0.564621
vn -0.999307 0.034617 0.013675
vn -0.999307 0.034617 0.013675
vn -0.999307 0.034617 0.013675
vn -0.999307 0.034617 0.013675
vn -0.792312 0.603344 0.090647
vn -0.792312 0.603344 0.090647
vn -0.792312 0.603344 0.090647
vn 0.446650 0.879313 0.165264
vn 0.446650 0.879313 0.165264
vn 0.446650 0.879313 0.165264
vn 0.446650 0.879313 0.165264
vn -0.336842 0.024973 -0.941230
vn -0.336842 0.024973 -0.941230
vn -0.336842 0.024973 -0.941230
vn -0.806169 -0.578956 0.122075
vn -0.806169 -0.578955 0.122075
vn -0.806169 -0.578955 0.122075
vn -0.806169 -0.578955 0.122075
vn 0.552488 -0.779070 -0.296323
vn 0.552488 -0.779070 -0.296323
vn 0.552488 -0.779070 -0.296323
vn 0.552488 -0.779070 -0.296323
vn 0.995819 0.061025 -0.067971
vn 0.995819 0.061025 -0.067971
vn 0.995819 0.061025 -0.067971
vn 0.995819 0.061025 -0.067971
vn 0.420802 0.113478 -0.900027
vn 0.420802 0.113478 -0.900027
vn 0.420802 0.113478 -0.900027
vn 0.420802 0.113478 -0.900027
vn -0.974559 0.198792 -0.103521
vn -0.974559 0.198792 -0.103521
vn -0.974559 0.198792 -0.103521
vn -0.974559 0.198792 -0.103521
vn 0.118559 0.119963 0.985674
vn 0.118559 0.119963 0.985674
vn 0.118559 0.119963 0.985674
vn 0.118559 0.119963 0.985674
vn 0.758760 0.115397 0.641066
vn 0.758760 0.115397 0.641066
vn 0.758760 0.115397 0.641066
vn 0.758760 0.115397 0.641067
vn -0.197368 0.980219 0.014749
vn -0.197368 0.980219 0.014749
vn -0.197368 0.980219 0.014749
vn -0.474739 0.049828 0.878715
vn -0.474739 0.049828 0.878715
vn -0.474739 0.049828 0.878715
vn -0.474739 0.049828 0.878715
vn -0.474739 0.049828 0.878715
vn 0.629879 0.609775 0.481068
vn 0.629879 0.609775 0.481068
vn 0.629879 0.609775 0.481068
vn 0.610547 0.382856 0.693292
vn 0.610547 0.382856 0.693292
vn 0.610547 0.382856 0.693292
vn -0.245361 0.969256 0.018467
vn -0.245361 0.969256 0.018467
vn -0.245361 0.969256 0.018467
vn -0.245361 0.969256 0.018467
vn -0.976118 0.203506 0.076019
vn -0.976118 0.203506 0.076019
vn -0.976118 0.203506 0.076019
vn -0.991326 -0.131147 -0.008521
vn -0.991326 -0.131147 -0.008521
vn -0.991326 -0.131147 -0.008521
vn -0.991326 -0.131147 -0.008521
vn 0.003394 -0.138670 -0.990333
vn 0.003394 -0.138670 -0.990333
vn 0.003394 -0.138670 -0.990333
vn 0.003394 -0.138670 -0.990333
vn 0.986342 -0.146252 0.075767
vn 0.986342 -0.146252 0.075767
vn 0.986342 -0.146252 0.075767
vn 0.986342 -0.146252 0.075767
vn 0.228117 -0.062479 0.971627
vn 0.228117 -0.062479 0.971627
vn 0.228117 -0.062479 0.971627
vn 0.228117 -0.062479 0.971627
s off
f 12/1/1 9/2/2 2/3/3 13/4/4 14/5/5
f 11/6/6 19/7/7 4/8/8 6/9/9
f 10/10/10 11/6/11 6/9/12 8/11/13
f 29/29/14 30/30/15 31/31/16 32/32/17
f 2/3/18 21/13/19 4/8/20 13/4/21
f 16/14/22 18/15/23 17/16/24 3/17/25
f 18/15/26 20/12/27 9/2/28 1/18/29
f 16/14/30 19/7/31 11/6/32 15/19/33
f 14/5/34 13/4/35 4/8/36
f 5/20/37 15/19/38 10/10/39 7/21/40
f 16/14/41 15/19/42 5/20/43
f 17/16/44 18/15/45 1/18/46
f 28/22/47 9/2/48 12/1/49
f 7/21/50 18/15/51 16/14/52 5/20/53
f 26/23/54 28/22/55 12/1/56
f 23/24/57 22/25/58 24/26/59 25/27/60
f 10/10/61 15/19/62 11/6/63
f 7/21/64 10/10/65 20/12/66 18/15/67
f 21/13/68 20/12/69 10/10/70 8/11/71
f 4/8/72 21/13/73 8/11/74 6/9/75
f 4/8/76 19/7/77 22/25/78 23/24/79
f 19/7/80 26/23/81 24/26/82 22/25/83
f 12/1/84 14/5/85 25/27/86 24/26/87
f 14/5/88 4/8/89 23/24/90 25/27/91
f 16/14/92 26/23/93 19/7/94
f 17/16/95 1/18/96 9/2/97 27/28/98 3/17/99
f 26/23/100 27/28/101 28/22/102
f 27/28/103 9/2/104 28/22/105
f 3/17/106 27/28/107 26/23/108 16/14/109
f 24/26/110 26/23/111 12/1/112
f 9/2/113 20/12/114 30/30/115 29/29/116
f 20/12/117 21/13/118 31/31/119 30/30/120
f 21/13/121 2/3/122 32/32/123 31/31/124
f 2/3/125 9/2/126 29/29/127 32/32/128
