# This file uses centimeters as units for non-parametric coordinates.

v -80.126953 0.000000 -120.780273
v -80.126953 0.000000 120.780273
v -65.062500 18.013502 -110.461914
v 65.062500 18.013502 -110.461914
v 65.062500 18.013502 110.461914
v 80.126953 0.000000 -120.780273
v 80.126953 0.000000 120.780273
v -56.222656 18.013502 -110.461914
v 22.072266 18.013502 -110.461914
v -21.113281 12.565052 -113.583008
v -11.941406 18.013502 -107.294922
v 10.994141 18.013502 110.461914
v 55.285156 18.013502 110.461914
v 44.878906 18.013502 105.964844
v 38.238281 14.511936 112.467773
v -65.062500 18.013502 103.833984
v -68.302734 14.138953 112.681641
v -51.828125 18.013502 110.461914
v 100.000000 -1.878896 100.000000
v -100.000000 -1.878896 100.000000
v 100.000000 -1.878896 -100.000000
v -100.000000 -1.878896 -100.000000
v -80.126953 30.000000 80.125977
v 80.126953 30.000000 80.125977
v -66.814453 47.673698 66.815430
v 65.062500 50.000000 65.063477
v 65.062500 50.000000 -65.063477
v -80.126953 30.000000 -80.126953
v 80.126953 30.000000 -80.126953
v -53.351563 50.000000 -65.063477
v -65.062500 50.000000 -53.351563
v -73.421875 38.901165 -73.422852
v 65.062500 50.000000 50.189453
v 65.062500 50.000000 -28.745117
v 67.800781 46.365501 21.417969
v 58.179688 50.000000 38.460938
v 56.484375 50.000000 -5.180664
v -65.062500 50.000000 54.932617
v -25.097656 50.000000 65.063477
v -120.779297 0.000000 80.125977
v 120.779297 0.000000 80.125977
v -110.462891 18.013502 65.063477
v 110.462891 18.013502 65.063477
v -113.425781 12.839466 -69.389648
v 113.115234 13.379910 -68.937500
v -120.779297 0.000000 -80.126953
v 120.779297 0.000000 -80.126953
v -104.058594 18.013502 -65.063477
v -110.462891 18.013502 -20.613281
v 103.677734 18.013502 -65.063477
v 110.462891 18.013502 -40.103516
v -90.000000 30.000000 100.000000
v -100.000000 22.079464 100.000000
v -100.000000 30.000000 90.000000
v -75.927734 30.000000 -100.000000
v -100.000000 28.500000 -100.000000
v -100.000000 30.000000 -90.500000
v 72.000000 30.000000 -100.000000
v 100.000000 28.500000 -100.000000
v 100.000000 30.000000 -90.000000
v 90.500000 30.000000 100.000000
v 100.000000 8.116907 100.000000
v 100.000000 30.000000 90.500000
vt 0.051351 0.874243
vt 0.166871 0.904934
vt 0.049925 0.916191
vt 0.050025 0.893024
vt 0.168933 0.915772
vt 0.179044 0.927207
vt 0.039966 0.928352
vt 0.178408 0.833457
vt 0.170843 0.901603
vt 0.039253 0.927448
vt 0.046965 0.868919
vt 0.049775 0.850037
vt 0.049954 0.845366
vt 0.168815 0.886208
vt 0.169115 0.910579
vt 0.170174 0.842998
vt 0.168383 0.852212
vt 0.165017 0.845060
vt 0.065623 0.836557
vt 0.064068 0.829703
vt 0.069892 0.832999
vt 0.169089 0.827103
vt 0.055738 0.821201
vt 0.049806 0.940454
vt 0.169204 0.940119
vt 0.157998 0.924508
vt 0.157381 0.928425
vt 0.145600 0.930099
vt 0.062336 0.834095
vt 0.097708 0.844144
vt 0.082516 0.846368
vt 0.074941 0.846673
vt 0.150603 0.921481
vt 0.138298 0.914700
vt 0.144021 0.908782
vt 0.074528 0.916868
vt 0.075193 0.894413
vt 0.080914 0.915287
vt 0.156674 0.834128
vt 0.155907 0.927010
vt 0.112310 0.850564
vt 0.125185 0.846364
vt 0.088851 0.849796
vt 0.063730 0.927559
vt 0.144089 0.846659
vt 0.179714 0.928092
vt 0.156126 0.810576
vt 0.049355 0.916237
vt 0.169731 0.916552
vt 0.169014 0.869917
vt 0.165681 0.846011
vt 0.171188 0.842474
vt 0.053560 0.845535
vt 0.050336 0.859017
vt 0.047968 0.842287
vt 0.041096 0.833540
vt 0.062884 0.951079
vt 0.061120 0.928211
vt 0.060593 0.924524
vt 0.070861 0.929299
vt 0.165770 0.830752
vt 0.157926 0.842131
vt 0.154197 0.838492
vt 0.178124 0.833819
vt 0.156105 0.951092
vt 0.039295 0.928114
vt 0.062905 0.810562
vt 0.051334 0.822657
vt 0.167675 0.822656
vt 0.051334 0.938998
vt 0.167676 0.938998
vt 0.039983 0.833302
vt 0.179771 0.927427
vt 0.039239 0.834227
vt 0.179757 0.834206
vn 0.000000 1.000000 0.000000
vn 0.000000 1.000000 0.000000
vn 0.000000 1.000000 0.000000
vn 0.000000 1.000000 0.000000
vn 0.767132 0.641490 0.000000
vn 0.767132 0.641490 0.000000
vn 0.767132 0.641490 0.000000
vn 0.767132 0.641490 0.000000
vn 0.000000 0.497028 0.867735
vn 0.000000 0.497028 0.867735
vn 0.000000 0.497028 0.867735
vn 0.000000 0.497023 -0.867737
vn 0.000000 0.497023 -0.867737
vn 0.000000 0.497023 -0.867737
vn 0.049669 0.717836 -0.694438
vn 0.049669 0.717836 -0.694438
vn 0.049669 0.717836 -0.694438
vn -0.056389 0.793804 -0.605554
vn -0.056389 0.793804 -0.605554
vn -0.056389 0.793804 -0.605554
vn 0.000000 0.497027 -0.867735
vn 0.000000 0.497027 -0.867735
vn 0.000000 0.497027 -0.867735
vn 0.000000 0.497027 -0.867735
vn 0.000000 0.497027 -0.867735
vn 0.000000 0.497027 -0.867735
vn 0.000000 0.497027 -0.867735
vn 0.000000 0.497027 -0.867735
vn 0.069999 0.846704 0.527440
vn 0.069999 0.846704 0.527440
vn 0.069999 0.846704 0.527440
vn -0.000001 0.497025 0.867736
vn -0.000001 0.497025 0.867736
vn -0.000001 0.497025 0.867736
vn -0.000001 0.497025 0.867736
vn -0.149537 0.926214 0.346072
vn -0.149537 0.926214 0.346072
vn -0.149537 0.926214 0.346072
vn 0.000000 1.000000 -0.000000
vn 0.000000 1.000000 -0.000000
vn 0.000000 1.000000 -0.000000
vn 0.000000 1.000000 -0.000000
vn -0.171228 0.923987 0.341948
vn -0.171228 0.923987 0.341948
vn -0.171228 0.923987 0.341948
vn 0.000000 0.497025 0.867736
vn 0.000000 0.497025 0.867736
vn 0.000000 0.497025 0.867736
vn 0.000000 0.497025 0.867736
vn 0.000000 1.000000 -0.000000
vn 0.000000 1.000000 -0.000000
vn 0.000000 1.000000 -0.000000
vn 0.000000 1.000000 -0.000000
vn -0.767128 0.641494 0.000000
vn -0.767128 0.641494 0.000000
vn -0.767128 0.641494 0.000000
vn 0.000000 1.000000 -0.000000
vn 0.000000 1.000000 -0.000000
vn 0.000000 1.000000 -0.000000
vn 0.000000 1.000000 -0.000000
vn -0.767131 0.641490 0.000000
vn -0.767131 0.641490 0.000000
vn -0.767131 0.641490 0.000000
vn -0.767131 0.641490 0.000000
vn 0.000000 0.497019 0.867740
vn 0.000000 0.497019 0.867740
vn 0.000000 0.497019 0.867740
vn 0.000000 1.000000 0.000000
vn 0.000000 1.000000 0.000000
vn 0.000000 1.000000 0.000000
vn -0.527484 0.665972 0.527486
vn -0.527484 0.665972 0.527486
vn -0.527484 0.665972 0.527486
vn 0.000000 -1.000000 0.000000
vn 0.000000 -1.000000 0.000000
vn 0.000000 -1.000000 0.000000
vn 0.000000 -1.000000 0.000000
vn 0.052906 0.987551 -0.148133
vn 0.052906 0.987551 -0.148133
vn 0.052906 0.987551 -0.148133
vn 0.798785 0.601617 0.000000
vn 0.798785 0.601617 0.000000
vn 0.798785 0.601617 0.000000
vn 0.798785 0.601617 0.000000
vn -0.341770 0.875437 -0.341765
vn -0.341770 0.875437 -0.341765
vn -0.341770 0.875437 -0.341765
vn -0.046955 0.981571 0.185241
vn -0.046955 0.981571 0.185241
vn -0.046955 0.981571 0.185241
vn 0.000000 0.601615 -0.798786
vn 0.000000 0.601615 -0.798786
vn 0.000000 0.601615 -0.798786
vn 0.000000 0.601615 -0.798786
vn 0.170227 0.983455 0.061966
vn 0.170227 0.983455 0.061966
vn 0.170227 0.983455 0.061966
vn 0.181108 0.977704 -0.106275
vn 0.181108 0.977704 -0.106275
vn 0.181108 0.977704 -0.106275
vn 0.333242 0.942753 -0.012945
vn 0.333242 0.942753 -0.012945
vn 0.333242 0.942753 -0.012945
vn -0.798785 0.601616 0.000000
vn -0.798785 0.601616 0.000000
vn -0.798785 0.601616 0.000000
vn -0.798785 0.601616 0.000000
vn 0.000000 0.601615 0.798786
vn 0.000000 0.601615 0.798786
vn 0.000000 0.601615 0.798786
vn 0.000000 0.601615 0.798786
vn 0.000000 1.000000 -0.000000
vn 0.000000 1.000000 -0.000000
vn 0.000000 1.000000 -0.000000
vn 0.000000 1.000000 -0.000000
vn 0.000000 1.000000 -0.000000
vn 0.000000 1.000000 -0.000000
vn 0.000000 1.000000 -0.000000
vn 0.000000 1.000000 -0.000000
vn 0.000000 1.000000 0.000000
vn 0.000000 1.000000 0.000000
vn 0.000000 1.000000 0.000000
vn 0.000000 1.000000 0.000000
vn 0.000000 1.000000 -0.000000
vn 0.000000 1.000000 -0.000000
vn 0.000000 1.000000 -0.000000
vn 0.000000 1.000000 -0.000000
vn 0.798785 0.601616 -0.000000
vn 0.798785 0.601616 -0.000000
vn 0.798785 0.601616 -0.000000
vn 0.798785 0.601616 -0.000000
vn 0.798786 0.601616 0.000000
vn 0.798786 0.601616 0.000000
vn 0.798786 0.601616 0.000000
vn 0.000000 0.601615 0.798786
vn 0.000000 0.601615 0.798786
vn 0.000000 0.601615 0.798786
vn -0.798786 0.601615 0.000000
vn -0.798786 0.601615 0.000000
vn -0.798786 0.601615 0.000000
vn -0.798786 0.601615 0.000000
vn 0.000000 0.601615 -0.798786
vn 0.000000 0.601615 -0.798786
vn 0.000000 0.601615 -0.798786
vn 0.000000 0.641490 0.767132
vn 0.000000 0.641490 0.767132
vn 0.000000 0.641490 0.767132
vn 0.000000 0.641490 0.767132
vn -0.458870 0.886041 -0.066108
vn -0.458870 0.886041 -0.066108
vn -0.458870 0.886041 -0.066108
vn -0.867736 0.497026 0.000000
vn -0.867736 0.497026 0.000000
vn -0.867736 0.497026 0.000000
vn 0.401575 0.909297 -0.109158
vn 0.401575 0.909297 -0.109158
vn 0.401575 0.909297 -0.109158
vn 0.000000 1.000000 0.000000
vn 0.000000 1.000000 0.000000
vn 0.000000 1.000000 0.000000
vn 0.000000 1.000000 0.000000
vn 0.867735 0.497027 0.000000
vn 0.867735 0.497027 0.000000
vn 0.867735 0.497027 0.000000
vn 0.000000 0.641493 -0.767129
vn 0.000000 0.641493 -0.767129
vn 0.000000 0.641493 -0.767129
vn 0.000000 0.641493 -0.767129
vn 0.867735 0.497027 0.000000
vn 0.867735 0.497027 0.000000
vn 0.867735 0.497027 0.000000
vn 0.867735 0.497027 0.000000
vn 0.000000 1.000000 -0.000000
vn 0.000000 1.000000 -0.000000
vn 0.000000 1.000000 -0.000000
vn 0.000000 1.000000 -0.000000
vn -0.867735 0.497027 0.000000
vn -0.867735 0.497027 0.000000
vn -0.867735 0.497027 0.000000
vn -0.867735 0.497027 0.000000
vn 0.000000 0.641483 -0.767137
vn 0.000000 0.641483 -0.767137
vn 0.000000 0.641483 -0.767137
vn 0.000000 0.641483 -0.767137
vn 0.000000 -1.000000 0.000000
vn 0.000000 -1.000000 0.000000
vn 0.000000 -1.000000 0.000000
vn 0.000000 -1.000000 0.000000
vn 0.000000 -1.000000 0.000000
vn 0.000000 -1.000000 0.000000
vn 0.000000 -1.000000 0.000000
vn 0.000000 -1.000000 0.000000
vn -0.061433 0.985897 -0.155668
vn -0.061433 0.985897 -0.155668
vn -0.061433 0.985897 -0.155668
vn -1.000000 0.000000 0.000000
vn -1.000000 0.000000 0.000000
vn -1.000000 0.000000 0.000000
vn -1.000000 0.000000 0.000000
vn -1.000000 0.000000 0.000000
vn -1.000000 0.000000 0.000000
vn -1.000000 0.000000 0.000000
vn -1.000000 0.000000 0.000000
vn 0.000000 0.000000 -1.000000
vn 0.000000 0.000000 -1.000000
vn 0.000000 0.000000 -1.000000
vn 0.000000 0.000000 -1.000000
vn 0.000000 0.000000 -1.000000
vn 0.000000 0.000000 -1.000000
vn 0.000000 0.000000 -1.000000
vn 0.000000 0.000000 -1.000000
vn 0.675977 0.293457 0.675973
vn 0.675977 0.293457 0.675973
vn 0.675977 0.293457 0.675973
vn 0.000000 1.000000 0.000000
vn 0.000000 1.000000 0.000000
vn 0.000000 1.000000 0.000000
vn 0.000000 1.000000 0.000000
vn 0.000000 1.000000 0.000000
vn 0.000000 1.000000 0.000000
vn 0.000000 1.000000 0.000000
vn 0.000000 1.000000 0.000000
vn 0.000000 1.000000 0.000000
vn 0.000000 1.000000 0.000000
vn 0.000000 1.000000 0.000000
vn 0.000000 1.000000 0.000000
vn -0.000000 0.000000 1.000000
vn -0.000000 0.000000 1.000000
vn -0.000000 0.000000 1.000000
vn -0.000000 0.000000 1.000000
vn -0.000000 0.000000 1.000000
vn -0.000000 0.000000 1.000000
vn -0.000000 0.000000 1.000000
vn -0.000000 0.000000 1.000000
vn -0.000000 0.000000 1.000000
vn -0.000000 0.000000 1.000000
vn 1.000000 0.000000 0.000000
vn 1.000000 0.000000 0.000000
vn 1.000000 0.000000 0.000000
vn 1.000000 0.000000 0.000000
vn 1.000000 0.000000 0.000000
vn 1.000000 0.000000 0.000000
vn 1.000000 0.000000 0.000000
vn 1.000000 0.000000 0.000000
vn 1.000000 0.000000 0.000000
vn 1.000000 0.000000 0.000000
s off
f 11/1/1 14/2/2 4/3/3 9/4/4
f 4/3/5 5/5/6 7/6/7 6/7/8
f 2/8/9 7/6/10 15/9/11
f 6/7/12 1/72/13 10/11/14
f 11/1/15 10/11/16 8/12/17
f 9/4/18 10/11/19 11/1/20
f 10/11/21 1/72/22 3/13/23 8/12/24
f 6/7/25 10/11/26 9/4/27 4/3/28
f 12/14/29 15/9/30 14/2/31
f 15/9/32 7/6/33 5/5/34 13/15/35
f 14/2/36 15/9/37 13/15/38
f 4/3/39 14/2/40 13/15/41 5/5/42
f 17/16/43 18/17/44 16/18/45
f 2/8/46 15/9/47 12/14/48 18/17/49
f 14/2/50 16/18/51 18/17/52 12/14/53
f 16/18/54 2/8/55 17/16/56
f 8/12/57 16/18/58 14/2/59 11/1/60
f 1/72/61 2/8/62 16/18/63 3/13/64
f 2/8/65 18/17/66 17/16/67
f 8/12/68 3/13/69 16/18/70
f 54/19/71 53/20/72 52/21/73
f 19/69/74 20/71/75 22/70/76 21/68/77
f 60/26/78 59/27/79 58/28/80
f 24/29/81 35/30/82 33/31/83 26/32/84
f 32/33/85 31/34/86 30/35/87
f 25/36/88 39/37/89 38/38/90
f 32/33/91 30/35/92 29/39/93 28/40/94
f 37/41/95 35/30/96 34/42/97
f 33/31/98 35/30/99 36/43/100
f 36/43/101 35/30/102 37/41/103
f 28/40/104 23/44/105 25/36/106 32/33/107
f 23/44/108 24/29/109 39/37/110 25/36/111
f 30/35/112 39/37/113 36/43/114 37/41/115
f 36/43/116 39/37/117 26/32/118 33/31/119
f 30/35/120 37/41/121 34/42/122 27/45/123
f 38/38/124 39/37/125 30/35/126 31/34/127
f 35/30/128 29/39/129 27/45/130 34/42/131
f 24/29/132 29/39/133 35/30/134
f 39/37/135 24/29/136 26/32/137
f 32/33/138 25/36/139 38/38/140 31/34/141
f 29/39/142 30/35/143 27/45/144
f 40/46/145 41/66/146 43/48/147 42/49/148
f 49/50/149 48/51/150 44/52/151
f 49/50/152 40/46/153 42/49/154
f 50/53/155 51/54/156 45/55/157
f 42/49/158 43/48/159 51/54/160 49/50/161
f 41/66/162 51/54/163 43/48/164
f 44/52/165 45/55/166 47/56/167 46/64/168
f 41/66/169 47/56/170 45/55/171 51/54/172
f 49/50/173 51/54/174 50/53/175 48/51/176
f 46/64/177 40/46/178 49/50/179 44/52/180
f 44/52/181 48/51/182 50/53/183 45/55/184
f 41/47/185 40/65/186 46/57/187 47/67/188
f 2/73/189 1/10/190 6/74/191 7/75/192
f 56/58/193 57/59/194 55/60/195
f 56/58/196 22/24/197 20/23/198 57/59/199
f 57/59/200 20/23/201 53/20/202 54/19/203
f 59/27/204 21/25/205 22/24/206 58/28/207
f 22/24/208 56/58/209 55/60/210 58/28/211
f 62/61/212 63/62/213 61/63/214
f 63/62/215 60/26/216 58/28/217 55/60/218
f 61/63/219 63/62/220 55/60/221 57/59/222
f 61/63/223 57/59/224 54/19/225 52/21/226
f 20/23/227 19/22/228 53/20/229
f 52/21/230 53/20/231 19/22/232 62/61/233
f 62/61/234 61/63/235 52/21/236
f 19/22/237 21/25/238 62/61/239
f 63/62/240 62/61/241 21/25/242 60/26/243
f 59/27/244 60/26/245 21/25/246
