# This file uses centimeters as units for non-parametric coordinates.

v -177.462646 -6.023070 179.441223
v 26.262024 9.506816 196.644836
v -181.680176 40.841248 171.953979
v 8.994812 51.182747 188.900940
v -177.462646 31.448528 -102.994476
v 187.853516 51.182747 -113.793724
v -161.940308 -6.023070 -176.332367
v 176.138916 15.129140 -133.875366
v 105.501160 51.182747 18.087708
v 106.294922 -6.023070 118.488861
v -155.839294 20.369366 -182.201233
v -109.461426 51.182747 -192.686737
v -187.853333 -6.023070 -105.374069
v -187.853455 -6.023070 57.716827
v -187.853333 6.873408 -56.789780
v -167.358826 -6.023072 -32.343445
v 139.812744 -6.023070 -186.332520
v 24.834229 51.182747 -195.499481
v 139.911621 51.182747 -186.324646
v 79.996948 51.182747 -166.343185
v 85.631531 42.214233 -190.652237
v -103.448975 51.182747 182.365784
v -181.680176 51.182747 134.454407
v 7.270508 -6.023070 188.511902
v 58.202881 -6.023070 177.527405
v 74.015442 51.182747 87.294403
v 128.645264 51.182747 1.323364
v 115.303162 40.933121 46.083923
v 144.403687 -6.023067 3.883698
v 170.283325 -6.023070 -141.956726
v 172.866089 -6.023070 -56.449142
v 92.822266 15.601613 101.437378
v 19.923462 27.762669 194.655151
v -55.961487 18.665764 194.042358
v -177.462646 19.552994 179.441223
v -183.593689 6.272277 57.884003
v -183.593628 28.254700 -50.503952
v -18.345093 23.662128 -181.017563
v 112.395752 12.741050 -196.644852
v 132.382080 19.720192 -176.189026
v 163.427612 18.982632 -57.163086
v 128.145752 26.677326 2.258118
v 124.457642 22.864323 51.607208
v -173.944397 51.182747 -74.060272
v -164.673645 51.182747 -58.673187
v -161.121216 51.182747 -16.237091
v -187.853333 51.182747 17.982758
v -183.793030 40.950985 -49.266464
v -183.136658 42.837105 -57.728668
vt 0.121402 0.974702
vt 0.216072 0.977768
vt 0.084609 0.508018
vt 0.119702 0.930549
vt 0.113272 0.952943
vt 0.084251 0.508228
vt 0.197306 0.971639
vt 0.205308 0.915085
vt 0.212569 0.920225
vt 0.231144 0.955525
vt 0.216104 0.977766
vt 0.117636 0.943341
vt 0.084181 0.508219
vt 0.084263 0.508082
vt 0.083755 0.507694
vt 0.120544 0.938623
vt 0.083763 0.507823
vt 0.180000 0.980579
vt 0.137866 0.979717
vt 0.115209 0.879402
vt 0.139752 0.864711
vt 0.175030 0.862707
vt 0.121659 0.925610
vt 0.083854 0.507698
vt 0.113272 0.915117
vt 0.174489 0.862826
vt 0.116532 0.865607
vt 0.113272 0.902933
vt 0.083726 0.507767
vt 0.083563 0.507721
vt 0.083648 0.507731
vt 0.083754 0.507833
vt 0.083828 0.507893
vt 0.083818 0.507838
vt 0.083972 0.507937
vt 0.083260 0.507903
vt 0.083336 0.507878
vt 0.083370 0.507873
vt 0.083412 0.507812
vt 0.084189 0.507935
vt 0.084153 0.507949
vt 0.084133 0.507886
vt 0.083864 0.508307
vt 0.083746 0.508358
vt 0.083820 0.508319
vt 0.083584 0.508153
vt 0.083467 0.508157
vt 0.083454 0.508095
vt 0.083396 0.508093
vt 0.084309 0.507735
vt 0.084373 0.507810
vt 0.225632 0.964161
vt 0.226442 0.937941
vt 0.217513 0.919440
vt 0.084416 0.507827
vt 0.084362 0.507731
vt 0.084314 0.507679
vt 0.083861 0.507880
vt 0.083835 0.508027
vt 0.083751 0.507966
vt 0.084192 0.507629
vt 0.083959 0.507658
vt 0.084516 0.507977
vt 0.084648 0.507952
vt 0.084661 0.508145
vt 0.084689 0.508028
vt 0.084032 0.507966
vt 0.083945 0.508192
vt 0.083915 0.507955
vt 0.084091 0.508242
vt 0.083689 0.507870
vt 0.083689 0.507775
vt 0.083724 0.507874
vt 0.083991 0.508071
vt 0.084234 0.508129
vt 0.084406 0.508137
vt 0.084676 0.508081
vt 0.084592 0.507962
vt 0.084425 0.507788
vt 0.084029 0.507712
vt 0.083798 0.507774
vt 0.083758 0.507740
vt 0.083786 0.507939
vt 0.083850 0.507943
vt 0.083929 0.508067
vt 0.205557 0.884298
vt 0.083788 0.507748
vt 0.190468 0.866194
vt 0.195429 0.893863
vt 0.084507 0.507805
vt 0.227469 0.961683
vt 0.084445 0.507754
vt 0.084124 0.507742
vt 0.083822 0.507755
vt 0.085001 0.508147
vt 0.085047 0.507940
vt 0.085189 0.508002
vt 0.084912 0.508168
vt 0.084616 0.507889
vt 0.084189 0.508006
vn -0.049117 -0.160845 0.985757
vn -0.049117 -0.160845 0.985757
vn -0.049117 -0.160845 0.985757
vn -0.049117 -0.160845 0.985757
vn 0.563466 0.438518 -0.700149
vn 0.563466 0.438518 -0.700149
vn 0.563466 0.438518 -0.700149
vn -0.000000 -1.000000 -0.000000
vn -0.000000 -1.000000 -0.000000
vn -0.000000 -1.000000 -0.000000
vn -0.000000 -1.000000 -0.000000
vn -0.959961 0.270756 -0.071871
vn -0.959961 0.270756 -0.071871
vn -0.959961 0.270756 -0.071871
vn 0.825004 0.384176 0.414459
vn 0.825005 0.384176 0.414459
vn 0.825004 0.384176 0.414459
vn 0.825004 0.384176 0.414459
vn -0.574457 0.774401 -0.265146
vn -0.574457 0.774401 -0.265146
vn -0.574457 0.774401 -0.265147
vn -0.699160 0.627381 -0.342883
vn -0.699160 0.627381 -0.342883
vn -0.699160 0.627381 -0.342883
vn -0.699160 0.627381 -0.342883
vn -0.674748 -0.713344 0.189354
vn -0.674748 -0.713344 0.189354
vn -0.674748 -0.713344 0.189354
vn -0.441326 -0.891709 -0.100431
vn -0.441326 -0.891709 -0.100431
vn -0.441326 -0.891709 -0.100431
vn -0.969810 0.222532 -0.099735
vn -0.969810 0.222532 -0.099735
vn -0.969810 0.222532 -0.099735
vn -0.122879 0.921489 -0.368454
vn -0.122879 0.921489 -0.368454
vn -0.122879 0.921489 -0.368454
vn 0.162831 0.937325 -0.308071
vn 0.162831 0.937325 -0.308071
vn 0.162831 0.937325 -0.308071
vn 0.000000 1.000000 0.000000
vn 0.000000 1.000000 0.000000
vn 0.000000 1.000000 0.000000
vn 0.000000 1.000000 0.000000
vn 0.000000 1.000000 0.000000
vn 0.000000 1.000000 0.000000
vn 0.000000 1.000000 0.000000
vn 0.000000 1.000000 0.000000
vn 0.000000 1.000000 0.000000
vn 0.000000 1.000000 0.000000
vn -0.160701 0.951485 0.262397
vn -0.160701 0.951485 0.262397
vn -0.160701 0.951485 0.262397
vn 0.013667 -0.220056 -0.975391
vn 0.013667 -0.220056 -0.975391
vn 0.013667 -0.220056 -0.975391
vn -0.970461 0.238359 0.037298
vn -0.970461 0.238359 0.037298
vn -0.970461 0.238359 0.037298
vn -0.970461 0.238359 0.037298
vn 0.000000 1.000000 0.000000
vn 0.000000 1.000000 0.000000
vn 0.000000 1.000000 0.000000
vn 0.000000 1.000000 0.000000
vn 0.000000 1.000000 0.000000
vn -0.991896 0.111298 0.061286
vn -0.991896 0.111298 0.061286
vn -0.991896 0.111298 0.061286
vn -0.991896 0.111298 0.061286
vn 0.167061 -0.609964 0.774619
vn 0.167061 -0.609964 0.774619
vn 0.167061 -0.609964 0.774619
vn 0.406807 0.894569 0.185078
vn 0.406807 0.894569 0.185078
vn 0.406807 0.894569 0.185078
vn -0.076049 -0.203076 0.976205
vn -0.076049 -0.203076 0.976205
vn -0.076049 -0.203076 0.976205
vn -0.076049 -0.203076 0.976205
vn -0.000000 -1.000000 0.000000
vn -0.000000 -1.000000 0.000000
vn -0.000000 -1.000000 0.000000
vn -0.000000 -1.000000 0.000000
vn 0.000000 -1.000000 0.000000
vn 0.000000 -1.000000 0.000000
vn 0.000000 -1.000000 0.000000
vn 0.000000 -1.000000 0.000000
vn 0.000000 -1.000000 0.000000
vn 0.000000 -1.000000 0.000000
vn 0.000000 -1.000000 0.000000
vn 0.000000 -1.000000 0.000000
vn 0.000000 -1.000000 0.000000
vn 0.198997 0.940705 0.274727
vn 0.198997 0.940705 0.274727
vn 0.198997 0.940705 0.274727
vn 0.551827 0.700560 0.452441
vn 0.551827 0.700560 0.452441
vn 0.551827 0.700560 0.452441
vn 0.000000 1.000000 0.000000
vn 0.000000 1.000000 0.000000
vn 0.000000 1.000000 0.000000
vn 0.000000 1.000000 0.000000
vn 0.000000 1.000000 0.000000
vn 0.000000 1.000000 0.000000
vn 0.646877 0.579649 0.495537
vn 0.646877 0.579649 0.495537
vn 0.646877 0.579649 0.495537
vn 0.646877 0.579649 0.495537
vn 0.646877 0.579649 0.495537
vn 0.925641 0.353259 0.135634
vn 0.925641 0.353259 0.135634
vn 0.925641 0.353259 0.135634
vn -0.062347 -0.155664 -0.985840
vn -0.062347 -0.155664 -0.985841
vn -0.062347 -0.155664 -0.985841
vn -0.062347 -0.155664 -0.985840
vn 0.888850 0.446936 0.100961
vn 0.888850 0.446936 0.100961
vn 0.888850 0.446936 0.100961
vn 0.000000 -1.000000 -0.000000
vn 0.000000 -1.000000 -0.000000
vn 0.000000 -1.000000 -0.000000
vn 0.966154 -0.256311 -0.029183
vn 0.966154 -0.256311 -0.029183
vn 0.966154 -0.256311 -0.029183
vn 0.739259 0.265364 -0.618933
vn 0.739259 0.265364 -0.618933
vn 0.739259 0.265364 -0.618933
vn 0.739259 0.265364 -0.618933
vn 0.653892 0.551500 0.517951
vn 0.653892 0.551500 0.517951
vn 0.653892 0.551500 0.517951
vn 0.712826 0.518511 0.472256
vn 0.712826 0.518511 0.472256
vn 0.712826 0.518511 0.472256
vn 0.712826 0.518511 0.472256
vn -0.048792 0.250353 0.966924
vn -0.048792 0.250353 0.966924
vn -0.048792 0.250353 0.966924
vn -0.048792 0.250353 0.966924
vn -0.131428 0.218129 0.967030
vn -0.131428 0.218129 0.967030
vn -0.131428 0.218129 0.967030
vn -0.131428 0.218129 0.967030
vn -0.996296 -0.076223 0.039812
vn -0.996296 -0.076223 0.039812
vn -0.996296 -0.076223 0.039812
vn -0.996296 -0.076223 0.039812
vn -0.997363 -0.071352 0.013290
vn -0.997363 -0.071352 0.013290
vn -0.997363 -0.071352 0.013290
vn -0.997363 -0.071352 0.013290
vn -0.997363 -0.071352 0.013290
vn -0.993326 -0.024693 -0.112669
vn -0.993326 -0.024693 -0.112669
vn -0.993326 -0.024693 -0.112669
vn -0.993326 -0.024693 -0.112669
vn -0.011453 -0.451519 -0.892188
vn -0.011453 -0.451519 -0.892188
vn -0.011453 -0.451519 -0.892188
vn -0.011453 -0.451519 -0.892188
vn -0.109716 0.101410 -0.988776
vn -0.109716 0.101410 -0.988776
vn -0.109716 0.101410 -0.988776
vn 0.129344 -0.331964 -0.934382
vn 0.129344 -0.331964 -0.934382
vn 0.129344 -0.331964 -0.934382
vn 0.833689 0.036052 -0.551056
vn 0.833689 0.036052 -0.551056
vn 0.833689 0.036052 -0.551056
vn 0.881871 0.128747 0.453573
vn 0.881871 0.128747 0.453573
vn 0.881871 0.128747 0.453573
vn 0.859960 0.001937 0.510358
vn 0.859960 0.001937 0.510358
vn 0.859960 0.001937 0.510358
vn 0.952381 0.224850 0.205943
vn 0.952381 0.224850 0.205943
vn 0.952381 0.224850 0.205943
vn 0.952381 0.224850 0.205943
vn 0.692036 0.507530 0.513321
vn 0.692036 0.507530 0.513321
vn 0.692036 0.507530 0.513321
vn 0.625183 -0.370851 -0.686743
vn 0.625183 -0.370851 -0.686743
vn 0.625183 -0.370851 -0.686743
vn -0.390327 0.890134 0.235173
vn -0.390327 0.890134 0.235173
vn -0.390327 0.890134 0.235173
vn -0.448473 0.891876 0.058568
vn -0.448473 0.891876 0.058568
vn -0.448473 0.891876 0.058568
vn -0.448473 0.891876 0.058568
vn -0.203891 0.965950 -0.159277
vn -0.203891 0.965950 -0.159277
vn -0.203891 0.965950 -0.159277
vn 0.940517 0.132736 0.312743
vn 0.940517 0.132736 0.312743
vn 0.940517 0.132736 0.312743
vn 0.905616 -0.388714 0.169588
vn 0.905616 -0.388714 0.169588
vn 0.905616 -0.388714 0.169588
vn 0.480768 0.571750 -0.664804
vn 0.480768 0.571750 -0.664804
vn 0.480768 0.571750 -0.664804
vn -0.924770 0.221916 -0.309119
vn -0.924770 0.221916 -0.309119
vn -0.924770 0.221916 -0.309119
vn -0.924770 0.221916 -0.309119
vn 0.016321 -0.344035 -0.938815
vn 0.016321 -0.344035 -0.938815
vn 0.016321 -0.344035 -0.938815
s off
f 33/75/1 34/76/2 24/6/3 2/13/4
f 39/81/5 40/82/6 17/17/7
f 7/1/8 17/2/9 16/4/10 13/5/11
f 5/56/12 13/51/13 15/55/14
f 41/83/15 42/84/16 29/59/17 31/60/18
f 5/29/19 12/30/20 11/31/21
f 49/94/22 44/87/23 12/30/24 5/29/25
f 13/32/26 16/33/27 15/34/28
f 15/34/29 16/33/30 14/35/31
f 5/56/32 15/55/33 37/79/34
f 19/36/35 21/37/36 20/38/37
f 20/38/38 21/37/39 18/39/40
f 20/7/41 9/8/42 27/9/43 6/10/44 19/11/45
f 44/12/46 45/16/47 20/7/48 18/18/49 12/19/50
f 3/40/51 22/41/52 23/42/53
f 11/57/54 38/80/55 7/50/56
f 36/78/57 37/79/58 15/55/59 14/63/60
f 23/20/61 22/21/62 4/22/63 46/23/64 47/25/65
f 35/77/66 36/78/67 14/63/68 1/65/69
f 24/43/70 25/44/71 2/45/72
f 26/46/73 28/47/74 9/48/75
f 1/65/76 24/6/77 34/76/78 35/77/79
f 16/4/80 24/26/81 1/27/82 14/28/83
f 16/4/84 17/2/85 30/52/86 31/53/87 29/54/88
f 16/4/89 10/86/90 25/88/91 24/26/92
f 9/48/93 28/47/94 27/49/95
f 43/85/96 32/74/97 10/68/98
f 45/16/99 46/23/100 4/22/101 26/89/102 9/8/103 20/7/104
f 2/13/105 25/70/106 10/68/107 32/74/108 33/75/109
f 8/71/110 41/83/111 31/60/112
f 7/50/113 38/80/114 39/81/115 17/17/116
f 42/84/117 43/85/118 29/59/119
f 16/4/120 29/54/121 10/86/122
f 31/53/123 30/52/124 8/91/125
f 8/71/126 30/73/127 17/17/128 40/82/129
f 26/67/130 32/74/131 28/69/132
f 33/75/133 32/74/134 26/67/135 4/14/136
f 22/3/137 34/76/138 33/75/139 4/14/140
f 35/77/141 34/76/142 22/3/143 3/66/144
f 23/64/145 36/78/146 35/77/147 3/66/148
f 47/90/149 48/92/150 37/79/151 36/78/152 23/64/153
f 5/56/154 37/79/155 48/92/156 49/93/157
f 38/80/158 12/61/159 18/62/160 21/24/161
f 39/81/162 38/80/163 21/24/164
f 19/15/165 40/82/166 21/24/167
f 8/71/168 19/15/169 6/72/170
f 27/58/171 41/83/172 6/72/173
f 27/58/174 42/84/175 41/83/176
f 27/58/177 28/69/178 43/85/179 42/84/180
f 28/69/181 32/74/182 43/85/183
f 8/71/184 40/82/185 19/15/186
f 49/95/187 45/96/188 44/97/189
f 48/98/190 46/99/191 45/96/192 49/95/193
f 47/100/194 46/99/195 48/98/196
f 29/59/197 43/85/198 10/68/199
f 6/72/200 41/83/201 8/71/202
f 21/24/203 40/82/204 39/81/205
f 7/50/206 13/51/207 5/56/208 11/57/209
f 11/57/210 12/61/211 38/80/212
