# This file uses centimeters as units for non-parametric coordinates.

v -18.401672 -26.833317 -0.834961
v -31.450684 47.385788 -17.092041
v -25.236084 41.303761 -13.010864
v -27.242859 41.584797 -10.579285
v -9.822021 -26.976334 4.066101
v -16.199219 -27.149113 8.723389
v -18.323669 21.471748 -5.024353
v -16.189453 21.356678 -1.284546
v -14.122559 21.135895 -4.466370
v 6.244751 -26.816246 5.901428
v 31.450684 81.005905 2.277344
v 22.337402 72.454262 3.368103
v 22.569458 72.436867 0.287170
v -3.521484 -27.089722 3.889282
v 1.129211 -26.989193 -2.526306
v 14.401245 44.911655 2.808105
v 10.125854 46.309425 1.113342
v 10.503296 46.367165 4.900208
v -12.176636 -26.833317 13.712341
v -18.259399 43.969135 27.940613
v -12.318359 -26.976334 3.832581
v -5.065613 -27.149117 6.956116
v -15.862427 21.426666 15.733826
v -13.697021 21.293404 12.035156
v -17.484802 21.111961 11.805481
v -2.017822 -26.816383 -9.023315
v -9.080688 75.899940 -28.777283
v -4.088379 -27.089451 0.730652
v -10.475952 -26.989075 -3.958313
v -5.039856 45.010502 -17.136597
v -6.797607 46.407444 -12.922546
v -2.979736 46.391499 -13.194641
v -2.540039 -26.805740 10.727783
v 7.795532 30.235462 28.777283
v 3.275635 25.822636 23.120178
v 5.844849 25.953800 21.702454
v -8.242432 -27.056427 3.575073
v -1.166504 -27.136070 1.691833
v -1.646484 11.936964 14.056274
v -2.270020 11.779154 10.103210
v -5.098511 11.740777 12.149658
vt 0.307702 0.352854
vt 0.307613 0.352928
vt 0.307645 0.352913
vt 0.307543 0.353196
vt 0.307585 0.353177
vt 0.307598 0.353232
vt 0.307510 0.353851
vt 0.307449 0.353855
vt 0.307465 0.353824
vt 0.307702 0.352854
vt 0.307613 0.352928
vt 0.307645 0.352913
vt 0.307543 0.353196
vt 0.307585 0.353177
vt 0.307598 0.353232
vt 0.307510 0.353851
vt 0.307449 0.353855
vt 0.307465 0.353824
vt 0.307653 0.352898
vt 0.307543 0.353196
vt 0.307585 0.353177
vt 0.307598 0.353232
vt 0.307510 0.353851
vt 0.307449 0.353855
vt 0.307465 0.353824
vt 0.307653 0.352898
vt 0.307543 0.353196
vt 0.307585 0.353177
vt 0.307598 0.353232
vt 0.307510 0.353851
vt 0.307449 0.353855
vt 0.307465 0.353824
vt 0.307702 0.352854
vt 0.307613 0.352928
vt 0.307645 0.352913
vt 0.307543 0.353196
vt 0.307585 0.353177
vt 0.307598 0.353232
vt 0.307510 0.353851
vt 0.307449 0.353855
vt 0.307465 0.353824
vn 0.529351 0.774011 0.347411
vn 0.529351 0.774011 0.347411
vn 0.529351 0.774011 0.347411
vn 0.686321 0.573906 0.446761
vn 0.686321 0.573906 0.446761
vn 0.688757 0.262330 0.675867
vn 0.689961 0.270658 0.671340
vn -0.940321 -0.054062 0.335967
vn -0.946469 0.000878 0.322793
vn -0.880002 -0.285377 0.379680
vn -0.880002 -0.285377 0.379680
vn 0.369045 -0.128183 -0.920530
vn 0.347435 -0.156075 -0.924624
vn 0.233004 -0.292302 -0.927507
vn 0.233004 -0.292302 -0.927507
vn -0.949251 0.046479 0.311067
vn -0.949251 0.046479 0.311067
vn -0.946469 0.000878 0.322793
vn -0.940321 -0.054062 0.335967
vn 0.689961 0.270658 0.671340
vn 0.688757 0.262330 0.675867
vn 0.671170 0.168342 0.721936
vn 0.671170 0.168342 0.721936
vn 0.387378 -0.103904 -0.916047
vn 0.387378 -0.103904 -0.916047
vn 0.347435 -0.156075 -0.924624
vn 0.369045 -0.128183 -0.920530
vn -0.686757 0.724741 -0.055821
vn -0.686757 0.724741 -0.055821
vn -0.686757 0.724741 -0.055821
vn -0.906427 0.422111 0.014571
vn -0.906427 0.422111 0.014571
vn -0.926514 0.207816 -0.313662
vn -0.927448 0.212113 -0.307973
vn 0.650450 -0.110676 -0.751443
vn 0.644759 -0.112607 -0.756046
vn 0.359617 -0.190379 -0.913472
vn 0.359617 -0.190379 -0.913472
vn 0.077879 -0.015719 0.996839
vn 0.071766 -0.013215 0.997334
vn 0.288792 -0.102566 0.951882
vn 0.288792 -0.102566 0.951882
vn 0.725516 -0.083237 -0.683153
vn 0.725516 -0.083238 -0.683153
vn 0.644759 -0.112607 -0.756046
vn 0.650450 -0.110676 -0.751443
vn -0.927448 0.212113 -0.307973
vn -0.926514 0.207816 -0.313662
vn -0.911438 0.155053 -0.381102
vn -0.911438 0.155053 -0.381102
vn 0.006999 0.013272 0.999887
vn 0.006999 0.013272 0.999887
vn 0.071766 -0.013215 0.997334
vn 0.077879 -0.015719 0.996839
vn 0.021861 0.577055 -0.816413
vn 0.252870 0.229759 -0.939823
vn 0.248665 0.237227 -0.939089
vn 0.769396 0.008164 0.638720
vn 0.757162 0.030811 0.652500
vn 0.845740 -0.181738 0.501692
vn -0.981747 -0.118793 0.148533
vn -0.975169 -0.137919 0.173277
vn -0.872663 -0.301009 0.384517
vn 0.748185 0.046701 0.661844
vn 0.748185 0.046701 0.661844
vn 0.757162 0.030811 0.652500
vn 0.769396 0.008164 0.638720
vn 0.248665 0.237227 -0.939089
vn 0.252870 0.229759 -0.939823
vn 0.286336 0.168459 -0.943204
vn 0.286336 0.168459 -0.943204
vn -0.986116 -0.104028 0.129433
vn -0.986116 -0.104028 0.129433
vn -0.975169 -0.137919 0.173277
vn -0.981747 -0.118793 0.148533
vn 0.064483 0.476384 0.876869
vn -0.336369 0.200765 0.920081
vn -0.339968 0.197771 0.919407
vn -0.715528 -0.103099 -0.690934
vn -0.721023 -0.105917 -0.684769
vn -0.922164 -0.236095 -0.306386
vn 0.998308 0.004882 -0.057947
vn 0.998343 0.004970 -0.057335
vn 0.892443 -0.052135 -0.448138
vn -0.675464 -0.083108 -0.732695
vn -0.675464 -0.083108 -0.732695
vn -0.721023 -0.105917 -0.684769
vn -0.715528 -0.103099 -0.690934
vn -0.339968 0.197771 0.919407
vn -0.336369 0.200765 0.920081
vn -0.390964 0.154153 0.907405
vn -0.390964 0.154153 0.907405
vn 0.999914 0.013121 -0.000299
vn 0.999914 0.013121 -0.000299
vn 0.998343 0.004970 -0.057335
vn 0.998308 0.004882 -0.057947
vn -0.284988 0.852834 -0.437556
vn -0.284988 0.852834 -0.437556
vn -0.284988 0.852834 -0.437556
vn -0.399610 0.703050 -0.588245
vn -0.399610 0.703050 -0.588245
vn -0.379974 0.325089 -0.865989
vn -0.381395 0.334772 -0.861664
vn 0.988529 -0.146905 0.035062
vn 0.997089 -0.057892 0.049616
vn 0.886416 -0.462424 -0.020758
vn 0.886416 -0.462424 -0.020758
vn -0.688326 -0.095441 0.719095
vn -0.667051 -0.135299 0.732623
vn -0.555323 -0.307525 0.772687
vn -0.555323 -0.307525 0.772687
vn 0.998306 -0.006049 0.057871
vn 0.998306 -0.006049 0.057871
vn 0.997089 -0.057892 0.049616
vn 0.988529 -0.146905 0.035062
vn -0.381395 0.334772 -0.861664
vn -0.379974 0.325089 -0.865989
vn -0.359960 0.208230 -0.909433
vn -0.359960 0.208230 -0.909433
vn -0.699752 -0.072660 0.710681
vn -0.699752 -0.072660 0.710681
vn -0.667051 -0.135299 0.732623
vn -0.688326 -0.095441 0.719095
s off
f 2/1/1 4/2/2 3/3/3
f 3/3/4 4/2/5 8/4/6 9/5/7
f 7/6/8 8/4/9 4/2/10 2/1/11
f 9/5/12 7/6/13 2/1/14 3/3/15
f 1/7/16 6/8/17 8/4/18 7/6/19
f 9/5/20 8/4/21 6/8/22 5/9/23
f 5/9/24 1/7/25 7/6/26 9/5/27
f 11/10/28 13/11/29 12/12/30
f 12/12/31 13/11/32 17/13/33 18/14/34
f 16/15/35 17/13/36 13/11/37 11/10/38
f 18/14/39 16/15/40 11/10/41 12/12/42
f 10/16/43 15/17/44 17/13/45 16/15/46
f 18/14/47 17/13/48 15/17/49 14/18/50
f 14/18/51 10/16/52 16/15/53 18/14/54
f 20/19/55 24/20/56 25/21/57
f 23/22/58 24/20/59 20/19/60
f 25/21/61 23/22/62 20/19/63
f 19/23/64 22/24/65 24/20/66 23/22/67
f 25/21/68 24/20/69 22/24/70 21/25/71
f 21/25/72 19/23/73 23/22/74 25/21/75
f 27/26/76 31/27/77 32/28/78
f 30/29/79 31/27/80 27/26/81
f 32/28/82 30/29/83 27/26/84
f 26/30/85 29/31/86 31/27/87 30/29/88
f 32/28/89 31/27/90 29/31/91 28/32/92
f 28/32/93 26/30/94 30/29/95 32/28/96
f 34/33/97 36/34/98 35/35/99
f 35/35/100 36/34/101 40/36/102 41/37/103
f 39/38/104 40/36/105 36/34/106 34/33/107
f 41/37/108 39/38/109 34/33/110 35/35/111
f 33/39/112 38/40/113 40/36/114 39/38/115
f 41/37/116 40/36/117 38/40/118 37/41/119
f 37/41/120 33/39/121 39/38/122 41/37/123
