# This file uses centimeters as units for non-parametric coordinates.

v 0.000017 500.000000 30.541306
v 0.000016 500.000000 -30.541306
v 88.269043 500.000000 30.541306
v 0.000017 0.000000 30.541306
v 0.000017 0.000000 -30.541306
v 88.269043 0.000000 30.541306
v 101.669044 500.000000 18.641306
v 101.669044 0.000000 18.641306
v 128.620850 500.000000 -17.789421
v 125.769043 500.000000 18.641310
v 125.769043 0.000000 18.641304
v 128.620850 0.000000 -17.789421
v 101.769043 0.000001 -34.085896
v 101.769043 500.000000 -34.085896
v 194.819336 500.000000 -136.428040
v 194.819336 0.000000 -136.428040
v 69.400017 0.000000 -30.541306
v 69.400017 500.000000 -30.541321
v 164.550003 500.000000 -161.142090
v 164.550003 0.000000 -161.142090
v 499.999969 500.000000 30.541306
v 500.000000 500.000000 -30.541306
v 411.730957 500.000000 30.541306
v 499.999969 -0.000000 30.541306
v 499.999969 -0.000000 -30.541306
v 411.730957 -0.000000 30.541306
v 398.330963 500.000000 18.641306
v 398.330963 -0.000000 18.641306
v 371.379150 500.000000 -17.789421
v 374.230957 500.000000 18.641310
v 374.230957 -0.000000 18.641304
v 371.379150 -0.000000 -17.789421
v 398.230957 0.000001 -34.085896
v 398.230957 500.000000 -34.085896
v 305.180664 500.000000 -136.428040
v 305.180664 0.000000 -136.428040
v 430.599976 -0.000000 -30.541306
v 430.599976 500.000000 -30.541321
v 335.450012 500.000000 -161.142090
v 335.450012 0.000000 -161.142090
v 125.769043 426.419495 18.641310
v 125.769043 227.091995 18.641306
v 127.073586 378.802582 1.976549
v 109.750031 377.877075 18.641308
v 398.330963 191.182495 18.641306
v 411.730957 223.519501 30.541306
v 411.730957 79.685989 30.541306
v 423.526611 190.337326 30.541283
v 374.230957 240.506989 18.641308
v 374.230957 485.775787 18.641308
v 386.459991 315.852142 18.641333
v 373.058136 308.340942 3.658885
v 190.006042 320.079437 -136.428040
v 308.846130 97.684326 -136.428040
v 101.669044 377.400024 18.641306
v 81.845222 85.788879 30.541306
v 0.000017 372.003510 30.541306
vt 0.134636 0.983937
vt 0.107068 0.983937
vt 0.107068 0.758273
vt 0.134636 0.758273
vt 0.134636 0.926168
vt 0.102301 0.983937
vt 0.085859 0.983937
vt 0.085859 0.950728
vt 0.093380 0.929237
vt 0.085859 0.860766
vt 0.085859 0.758273
vt 0.102301 0.758273
vt 0.085859 0.928819
vt 0.109656 0.758273
vt 0.109656 0.983937
vt 0.155845 0.758273
vt 0.155845 0.902734
vt 0.155845 0.983937
vt 0.107068 0.983937
vt 0.107068 0.758273
vt 0.134636 0.758273
vt 0.134636 0.983937
vt 0.139403 0.983937
vt 0.139403 0.758273
vt 0.155845 0.758273
vt 0.155845 0.866821
vt 0.149083 0.897436
vt 0.155845 0.977517
vt 0.155845 0.983937
vt 0.132048 0.983937
vt 0.132048 0.758273
vt 0.155845 0.900826
vt 0.085858 0.983937
vt 0.085858 0.802361
vt 0.085858 0.758273
vt 0.158737 0.938051
vt 0.164108 0.944099
vt 0.136540 0.952615
vt 0.134940 0.938006
vt 0.164108 0.983937
vt 0.136540 0.983937
vt 0.088750 0.896010
vt 0.077596 0.909671
vt 0.142295 0.925887
vt 0.158737 0.927174
vt 0.088750 0.846200
vt 0.077596 0.832539
vt 0.134940 0.804204
vt 0.136540 0.789595
vt 0.158737 0.804159
vt 0.164108 0.798111
vt 0.158737 0.815036
vt 0.142295 0.816323
vt 0.136540 0.758273
vt 0.164108 0.758273
vt 0.164108 0.909671
vt 0.152954 0.896009
vt 0.152954 0.846201
vt 0.164108 0.832539
vt 0.105164 0.952615
vt 0.106764 0.938006
vt 0.106764 0.804204
vt 0.105164 0.789596
vt 0.077596 0.944099
vt 0.082967 0.938051
vt 0.082967 0.804159
vt 0.077596 0.798112
vt 0.105164 0.983937
vt 0.077596 0.983937
vt 0.082967 0.927174
vt 0.099409 0.925886
vt 0.099409 0.816324
vt 0.082967 0.815036
vt 0.077596 0.758273
vt 0.105164 0.758273
vt 0.129409 0.796992
vt 0.092470 0.926168
vt 0.092470 0.758273
vt 0.132309 0.758273
vt 0.132309 0.983937
vt 0.092470 0.983937
vt 0.138356 0.928604
vt 0.138356 0.758273
vt 0.138356 0.983937
vt 0.142004 0.928819
vt 0.149233 0.758273
vt 0.149233 0.860766
vt 0.149233 0.950728
vt 0.149233 0.983937
vt 0.008020 0.983937
vt 0.008020 0.758273
vt 0.039342 0.758273
vt 0.039342 0.983937
vt 0.082286 0.758273
vt 0.082286 0.983937
vt 0.159418 0.758273
vt 0.159418 0.983937
vt 0.202362 0.983937
vt 0.202362 0.758273
vt 0.233684 0.983937
vt 0.233684 0.758273
vt 0.185410 0.983937
vt 0.185410 0.859154
vt 0.190733 0.844178
vt 0.185410 0.794238
vt 0.185410 0.758273
vt 0.225248 0.758273
vt 0.225248 0.983937
vt 0.179362 0.983937
vt 0.179362 0.844559
vt 0.179362 0.758273
vt 0.168485 0.983937
vt 0.168485 0.977517
vt 0.174004 0.900826
vt 0.168485 0.866821
vt 0.168485 0.758273
vt 0.021758 0.902734
vt 0.075394 0.802361
vt 0.073740 0.983937
vt 0.023930 0.983937
vt 0.023930 0.758273
vt 0.073740 0.758273
vn 0.000000 -1.000000 -0.000000
vn 0.000000 -1.000000 -0.000000
vn 0.000000 -1.000000 -0.000000
vn 0.000000 -1.000000 -0.000000
vn -1.000000 0.000000 0.000000
vn -1.000000 -0.000000 0.000000
vn -1.000000 -0.000000 0.000000
vn -1.000000 -0.000000 0.000000
vn -1.000000 -0.000000 0.000000
vn -1.000000 -0.000000 0.000000
vn -1.000000 -0.000000 0.000000
vn -1.000000 0.000000 0.000000
vn -1.000000 -0.000000 0.000000
vn 0.996950 0.000000 0.078042
vn 0.996950 -0.000000 0.078042
vn 0.996950 -0.000000 0.078042
vn 0.996950 0.000000 0.078042
vn 0.996950 0.000000 0.078042
vn 0.996950 0.000000 0.078042
vn 0.996950 0.000000 0.078042
vn 0.996950 -0.000000 0.078042
vn 0.996950 0.000000 0.078042
vn 0.996950 0.000000 0.078042
vn 0.996950 -0.000000 0.078042
vn 0.996950 -0.000000 0.078038
vn 0.996950 -0.000000 0.078042
vn 0.996950 -0.000000 0.078042
vn 0.996950 -0.000000 0.078038
vn -0.000000 0.000000 1.000000
vn -0.000000 0.000000 1.000000
vn 0.000000 0.000000 1.000000
vn 0.000000 0.000000 1.000000
vn 0.622782 -0.007102 0.782363
vn 0.540152 0.007142 0.841537
vn 0.538211 0.007464 0.842777
vn 0.538211 0.007464 0.842777
vn 0.000000 0.000000 1.000000
vn 0.000000 -0.000000 1.000000
vn -0.000000 -0.000000 1.000000
vn -0.000000 -0.000000 1.000000
vn 0.000000 -0.000000 1.000000
vn -0.000000 -0.000000 1.000000
vn -0.000000 -0.000000 1.000000
vn 0.000000 -0.000000 1.000000
vn 0.000000 -0.000000 1.000000
vn -0.000000 -1.000000 -0.000000
vn -0.000000 -1.000000 -0.000000
vn -0.000000 -1.000000 -0.000000
vn -0.000000 -1.000000 -0.000000
vn 0.518829 0.000000 -0.854878
vn 0.518829 0.000000 -0.854878
vn 0.518829 0.000000 -0.854878
vn 0.518829 0.000000 -0.854878
vn 0.739897 0.000000 0.672720
vn 0.741990 0.006976 0.670374
vn 0.743046 -0.001298 0.669239
vn 0.743046 -0.001298 0.669239
vn 0.741990 0.006976 0.670374
vn 0.778582 -0.014033 0.627386
vn 0.741990 0.006976 0.670374
vn 0.739851 0.011126 0.672679
vn 0.778582 -0.014033 0.627386
vn -0.000000 -0.000000 -1.000000
vn -0.000000 -0.000000 -1.000000
vn -0.000000 -0.000000 -1.000000
vn -0.000000 -0.000000 -1.000000
vn 0.000000 -1.000000 0.000000
vn 0.000000 -1.000000 0.000000
vn 0.000000 -1.000000 0.000000
vn 0.000000 -1.000000 0.000000
vn -0.808242 -0.000000 -0.588850
vn -0.808242 -0.000000 -0.588850
vn -0.808242 -0.000000 -0.588850
vn -0.808242 -0.000000 -0.588850
vn -0.000000 -1.000000 -0.000000
vn -0.000000 -1.000000 -0.000000
vn -0.000000 -1.000000 -0.000000
vn -0.000000 -1.000000 -0.000000
vn 1.000000 -0.000000 0.000000
vn 1.000000 -0.000000 0.000000
vn 1.000000 -0.000000 0.000000
vn 1.000000 -0.000000 0.000000
vn -0.996950 0.000000 0.078042
vn -0.996950 0.000000 0.078042
vn -0.996950 -0.000000 0.078042
vn -0.996950 0.000005 0.078041
vn -0.996950 -0.000000 0.078042
vn -0.996950 0.000000 0.078041
vn -0.996950 0.000000 0.078041
vn -0.996950 -0.000000 0.078042
vn -0.996950 -0.000000 0.078042
vn -0.996950 -0.000000 0.078042
vn -0.996950 0.000000 0.078042
vn -0.996950 -0.000000 0.078042
vn -0.996950 0.000000 0.078042
vn -0.996950 0.000000 0.078041
vn -0.996950 -0.000000 0.078042
vn 0.000000 0.000000 1.000000
vn -0.000000 -0.000000 1.000000
vn 0.000000 0.000000 1.000000
vn 0.000000 0.000000 1.000000
vn -0.000000 -0.000000 1.000000
vn 0.000000 0.000000 1.000000
vn -0.000000 -0.000000 1.000000
vn -0.000002 -0.000001 1.000000
vn 0.000000 0.000000 1.000000
vn -0.000002 -0.000001 1.000000
vn 0.000000 0.000000 1.000000
vn 0.000000 0.000000 1.000000
vn 0.000000 0.000000 1.000000
vn 0.000000 0.000000 1.000000
vn 0.000000 0.000000 1.000000
vn -0.664018 0.000000 0.747717
vn -0.664018 0.000000 0.747717
vn -0.664018 0.000000 0.747717
vn -0.664018 0.000000 0.747717
vn 0.000000 0.000000 1.000000
vn 0.000000 -0.000000 1.000000
vn 0.000000 -0.000000 1.000000
vn 0.000000 -0.000000 1.000000
vn -0.000003 -0.000000 1.000000
vn 0.000000 -0.000000 1.000000
vn -0.000003 -0.000000 1.000000
vn 0.000010 0.000001 1.000000
vn 0.000000 -0.000000 1.000000
vn 0.000010 0.000001 1.000000
vn -0.000000 -0.000000 1.000000
vn 0.000000 -0.000000 1.000000
vn -0.000000 -0.000000 1.000000
vn -0.000000 -0.000000 1.000000
vn 0.000000 -0.000000 1.000000
vn -0.000000 -0.000000 1.000000
vn -0.000000 0.000000 1.000000
vn 0.000000 -0.000000 1.000000
vn 0.000000 -1.000000 -0.000000
vn 0.000000 -1.000000 -0.000000
vn 0.000000 -1.000000 -0.000000
vn 0.000000 -1.000000 -0.000000
vn -0.518829 0.000000 -0.854878
vn -0.518829 0.000000 -0.854878
vn -0.518829 0.000000 -0.854878
vn -0.518829 0.000000 -0.854878
vn -0.739897 0.000000 0.672720
vn -0.742199 -0.000949 0.670179
vn -0.749484 -0.000317 0.662022
vn -0.739612 0.027753 0.672461
vn -0.749484 -0.000317 0.662022
vn -0.754808 -0.003465 0.655936
vn -0.742199 -0.000949 0.670179
vn -0.754808 -0.003465 0.655936
vn -0.749484 -0.000317 0.662022
vn -0.000000 0.000000 1.000000
vn -0.000000 0.000000 1.000000
vn -0.000000 0.000000 1.000000
vn -0.000000 0.000000 1.000000
vn 0.000000 -0.000000 -1.000000
vn 0.000000 -0.000000 -1.000000
vn 0.000000 -0.000000 -1.000000
vn 0.000000 -0.000000 -1.000000
vn 0.000000 -1.000000 -0.000000
vn 0.000000 -1.000000 -0.000000
vn 0.000000 -1.000000 -0.000000
vn 0.000000 -1.000000 -0.000000
vn 0.808242 -0.000000 -0.588850
vn 0.808243 -0.000000 -0.588850
vn 0.808243 -0.000000 -0.588850
vn 0.808243 -0.000000 -0.588850
vn -0.000000 0.000000 -1.000000
vn -0.000000 0.000000 -1.000000
vn -0.000000 0.000000 -1.000000
vn -0.000000 0.000000 -1.000000
vn -0.000000 -1.000000 0.000000
vn -0.000000 -1.000000 0.000000
vn -0.000000 -1.000000 0.000000
vn -0.000000 -1.000000 0.000000
vn 0.000000 -1.000000 0.000000
vn 0.000000 -1.000000 0.000000
vn 0.000000 -1.000000 0.000000
vn 0.000000 -1.000000 0.000000
vn 0.000000 -1.000000 0.000000
vn 0.000000 -1.000000 0.000000
vn 0.000000 -1.000000 0.000000
vn 0.000000 -1.000000 0.000000
vn 0.000000 1.000000 0.000002
vn 0.000000 1.000000 0.000002
vn 0.000000 1.000000 0.000002
vn 0.000000 1.000000 0.000002
vn 0.000000 1.000000 -0.000001
vn 0.000000 1.000000 -0.000001
vn 0.000000 1.000000 -0.000001
vn 0.000000 1.000000 -0.000001
vn 0.000000 1.000000 -0.000001
vn 0.000000 1.000000 -0.000001
vn 0.000000 1.000000 -0.000001
vn 0.000000 1.000000 -0.000001
vn 0.000000 1.000000 0.000000
vn 0.000000 1.000000 0.000000
vn 0.000000 1.000000 0.000000
vn 0.000000 1.000000 0.000000
vn 0.000000 1.000000 -0.000000
vn 0.000000 1.000000 -0.000000
vn 0.000000 1.000000 -0.000000
vn 0.000000 1.000000 -0.000000
vn 0.000000 1.000000 0.000000
vn 0.000000 1.000000 0.000000
vn 0.000000 1.000000 0.000000
vn 0.000000 1.000000 0.000000
vn 0.000000 1.000000 -0.000000
vn 0.000000 1.000000 -0.000000
vn 0.000000 1.000000 -0.000000
vn 0.000000 1.000000 -0.000000
vn 0.000000 1.000000 -0.000001
vn 0.000000 1.000000 -0.000001
vn 0.000000 1.000000 -0.000001
vn 0.000000 1.000000 -0.000001
vn 0.000000 1.000000 0.000000
vn 0.000000 1.000000 0.000000
vn 0.000000 1.000000 0.000000
vn 0.000000 1.000000 0.000000
vn 0.681715 -0.224966 0.696171
vn 0.681715 -0.224966 0.696171
vn 0.681715 -0.224966 0.696171
vn 0.689374 0.073237 0.720694
vn 0.689374 0.073237 0.720694
vn 0.689374 0.073237 0.720694
vn -0.664018 0.000000 0.747717
vn -0.664018 0.000000 0.747717
vn -0.664018 0.000000 0.747717
vn -0.664018 0.000000 0.747717
vn -0.426286 -0.151538 0.891805
vn -0.426286 -0.151537 0.891805
vn -0.426286 -0.151537 0.891805
vn -0.425383 0.045347 0.903877
vn -0.425382 0.045347 0.903877
vn -0.425382 0.045347 0.903877
vn -0.731045 -0.052612 0.680298
vn -0.731045 -0.052612 0.680298
vn -0.731045 -0.052612 0.680298
vn -0.769793 0.124942 0.625946
vn -0.769793 0.124942 0.625946
vn -0.769793 0.124942 0.625946
vn 0.000000 0.000000 1.000000
vn 0.000000 0.000000 1.000000
vn 0.000000 0.000000 1.000000
vn 0.000000 0.000000 1.000000
vn -0.000000 -0.000000 1.000000
vn -0.000000 -0.000000 1.000000
vn -0.000000 0.000000 1.000000
vn -0.000000 -0.000000 1.000000
vn -0.000000 0.000000 1.000000
vn -0.000000 0.000000 1.000000
vn -0.000000 0.000000 1.000000
vn -0.000000 0.000000 1.000000
vn -0.000000 0.000000 1.000000
vn 0.624880 -0.007478 0.780685
vn 0.540152 0.007142 0.841537
vn 0.622782 -0.007102 0.782363
vn 0.624880 -0.007478 0.780685
vn -0.000000 0.000000 1.000000
vn -0.000000 0.000000 1.000000
vn -0.000000 0.000000 1.000000
vn -0.000000 0.000000 1.000000
s off
f 8/36/1 6/37/2 17/38/3 13/39/4
f 1/1/5 2/2/6 57/5/7
f 2/2/8 5/3/9 57/5/10
f 5/3/11 4/4/12 57/5/13
f 10/7/14 41/8/15 9/6/16
f 11/11/17 12/12/18 42/10/19
f 12/12/20 9/6/21 42/10/22
f 42/10/23 9/6/24 43/9/25
f 9/6/26 41/8/27 43/9/28
f 56/76/29 57/77/30 4/78/31 6/79/32
f 55/82/33 56/76/34 6/79/35 8/83/36
f 8/83/37 11/86/38 55/82/39
f 55/82/40 11/86/41 44/85/42
f 44/85/43 11/86/44 42/87/45
f 8/36/46 13/39/47 12/44/48 11/45/49
f 9/6/50 12/12/51 13/14/52 14/15/53
f 14/15/54 13/14/55 15/18/56
f 15/18/57 13/14/58 53/17/59
f 13/14/60 16/16/61 53/17/62
f 5/90/63 2/91/64 18/92/65 17/93/66
f 17/38/67 6/37/68 4/40/69 5/41/70
f 17/93/71 18/92/72 19/94/73 20/95/74
f 28/50/75 33/48/76 37/49/77 26/51/78
f 21/19/79 24/20/80 25/21/81 22/22/82
f 32/24/83 31/25/84 29/23/85
f 30/29/86 29/23/87 50/28/88
f 50/28/89 29/23/90 52/27/91
f 29/23/92 31/25/93 52/27/94
f 31/25/95 49/26/96 52/27/97
f 23/102/98 46/103/99 21/108/100
f 21/108/101 46/103/102 24/107/103
f 46/103/104 48/104/105 24/107/106
f 48/104/107 47/105/108 24/107/109
f 47/105/110 26/106/111 24/107/112
f 23/102/113 27/109/114 45/110/115 46/103/116
f 27/109/117 30/112/118 45/110/119
f 30/112/120 50/113/121 45/110/122
f 50/113/123 51/114/124 45/110/125
f 51/114/126 49/115/127 45/110/128
f 49/115/129 31/116/130 45/110/131
f 31/116/132 28/111/133 45/110/134
f 28/50/135 31/52/136 32/53/137 33/48/138
f 29/23/139 34/30/140 33/31/141 32/24/142
f 34/30/143 35/33/144 33/31/145
f 36/35/146 33/31/147 54/34/148
f 35/33/149 54/34/150 33/31/151
f 53/117/152 54/118/153 35/119/154 15/120/155
f 25/100/156 37/98/157 38/99/158 22/101/159
f 37/49/160 25/54/161 24/55/162 26/51/163
f 37/98/164 40/97/165 39/96/166 38/99/167
f 20/95/168 19/94/169 39/96/170 40/97/171
f 33/48/172 36/46/173 40/47/174 37/49/175
f 36/46/176 16/42/177 20/43/178 40/47/179
f 16/42/180 13/39/181 17/38/182 20/43/183
f 19/56/184 15/57/185 35/58/186 39/59/187
f 3/64/188 18/60/189 2/68/190 1/69/191
f 39/59/192 35/58/193 34/62/194 38/63/195
f 27/66/196 34/62/197 29/72/198 30/73/199
f 19/56/200 18/60/201 14/61/202 15/57/203
f 14/61/204 7/65/205 10/70/206 9/71/207
f 14/61/208 18/60/209 3/64/210 7/65/211
f 38/63/212 23/67/213 21/74/214 22/75/215
f 38/63/216 34/62/217 27/66/218 23/67/219
f 41/8/220 44/13/221 43/9/222
f 43/9/223 44/13/224 42/10/225
f 47/105/226 45/110/227 28/111/228 26/106/229
f 46/103/230 45/110/231 48/104/232
f 48/104/233 45/110/234 47/105/235
f 50/28/236 52/27/237 51/32/238
f 51/32/239 52/27/240 49/26/241
f 16/121/242 36/122/243 54/118/244 53/117/245
f 55/82/246 44/85/247 7/84/248
f 44/85/249 41/88/250 7/84/251
f 7/84/252 41/88/253 10/89/254
f 3/80/255 56/76/256 55/82/257 7/84/258
f 3/80/259 1/81/260 57/77/261 56/76/262
