# This file uses centimeters as units for non-parametric coordinates.

v 0.000000 0.000015 8.725494
v -0.017761 75.330353 8.725372
v 0.000000 0.000000 -8.644012
v 0.208984 75.217072 -8.644012
v -0.012207 86.809387 13.749115
v -0.010529 86.809387 -13.749115
v -0.010529 75.344849 13.749115
v -0.012207 75.344849 -13.749115
v -168.589386 75.330353 8.725372
v -161.900146 86.809387 12.268250
v -167.654510 75.344849 13.749115
v -69.308533 75.330353 8.725372
v -90.562317 75.217072 -8.644012
v -84.260803 86.809387 14.310375
v -100.116150 86.809387 -14.310375
v -63.155334 75.344849 13.749115
v -96.861511 75.344849 -13.749115
v -11.862061 86.809387 13.847872
v -52.225525 86.809387 14.184262
v -28.187439 86.809387 10.988937
v -25.258667 79.796165 13.749115
v -151.239441 86.809387 -8.300126
v -145.004883 82.819649 -12.865168
v -144.421158 75.344849 -13.749115
v -153.341919 75.217072 -8.644012
v -212.292542 0.000000 -8.644012
v -215.155518 0.000015 8.725494
v -159.463531 57.682968 -8.644012
v -183.862976 39.219585 -8.644012
v -201.869141 35.415028 8.725437
v -177.973694 59.472515 8.725398
v -166.578598 73.693016 1.235967
v -172.175812 56.736214 -2.418920
vt 0.200095 0.764226
vt 0.200083 0.815801
vt 0.152643 0.815801
vt 0.200238 0.815723
vt 0.200095 0.764226
vt 0.138092 0.815723
vt 0.180796 0.823660
vt 0.200088 0.823660
vt 0.131551 0.823660
vt 0.200088 0.815811
vt 0.156856 0.815811
vt 0.182802 0.818858
vt 0.200086 0.815811
vt 0.133779 0.815811
vt 0.200086 0.823660
vt 0.084671 0.815801
vt 0.089250 0.823660
vt 0.085311 0.815811
vt 0.142406 0.823660
vt 0.096549 0.823660
vt 0.100818 0.820928
vt 0.164339 0.823660
vt 0.191974 0.823660
vt 0.187569 0.833381
vt 0.210305 0.853342
vt 0.129530 0.853795
vt 0.079676 0.832349
vt 0.142323 0.830701
vt 0.088278 0.848946
vt 0.168173 0.830803
vt 0.210303 0.831154
vt 0.200742 0.831074
vt 0.101217 0.815811
vt 0.095110 0.815723
vt 0.054749 0.764226
vt 0.052789 0.764226
vt 0.090919 0.803718
vt 0.074214 0.791077
vt 0.061886 0.788473
vt 0.078246 0.804944
vt 0.277460 0.800654
vt 0.277460 0.757083
vt 0.258163 0.757083
vt 0.258163 0.796427
vt 0.258164 0.823154
vt 0.258164 0.840771
vt 0.252213 0.842370
vt 0.254228 0.853523
vt 0.277078 0.853523
vt 0.282149 0.849091
vt 0.283132 0.840787
vt 0.277460 0.840645
vt 0.277460 0.821166
vt 0.266484 0.838952
vt 0.270544 0.820114
vn 0.000000 0.000002 1.000000
vn 0.000000 0.000002 1.000000
vn 0.000000 0.000002 1.000000
vn 0.000000 0.000000 -1.000000
vn 0.000000 0.000000 -1.000000
vn 0.000000 0.000000 -1.000000
vn 0.000000 1.000000 -0.000000
vn 0.000000 1.000000 -0.000000
vn 0.000000 1.000000 -0.000000
vn 0.000000 -0.999996 0.002886
vn 0.000000 -0.999996 0.002886
vn 0.000000 -0.999996 0.002886
vn 0.000000 -0.999996 0.002886
vn 0.000000 0.000000 1.000000
vn 0.000000 0.000000 1.000000
vn 0.000000 0.000000 1.000000
vn 0.000000 -0.999687 -0.025021
vn 0.000000 -0.999687 -0.025021
vn 0.000000 -0.999687 -0.025021
vn 0.000000 -0.999687 -0.025021
vn 0.002849 -0.024067 -0.999706
vn 0.002849 -0.024067 -0.999706
vn 0.002849 -0.024067 -0.999706
vn 0.002849 -0.024067 -0.999706
vn 0.999978 -0.001270 0.006531
vn 0.999978 -0.001270 0.006531
vn 0.999978 -0.001270 0.006531
vn 0.999978 -0.001270 0.006531
vn 0.999944 0.009291 0.005067
vn 0.999944 0.009291 0.005067
vn 0.999944 0.009291 0.005067
vn 0.999944 0.009291 0.005067
vn 0.999999 0.000146 -0.001440
vn 0.999999 0.000146 -0.001440
vn 0.999999 0.000146 -0.001440
vn 0.999063 -0.000146 -0.043291
vn 0.999063 -0.000146 -0.043291
vn 0.999063 -0.000146 -0.043291
vn 0.000000 1.000000 0.000000
vn 0.000000 1.000000 0.000000
vn 0.000000 1.000000 0.000000
vn 0.000000 1.000000 0.000000
vn 0.000000 -0.999996 0.002885
vn 0.000000 -0.999996 0.002885
vn 0.000000 -0.999996 0.002885
vn 0.000000 -0.999996 0.002885
vn -0.011205 0.032581 0.999406
vn -0.011205 0.032581 0.999406
vn -0.011205 0.032581 0.999406
vn -0.011205 0.032581 0.999406
vn 0.120380 0.406688 0.905601
vn 0.120380 0.406688 0.905601
vn 0.120380 0.406688 0.905601
vn -0.164498 0.300996 0.939331
vn -0.164498 0.300996 0.939331
vn -0.164498 0.300996 0.939331
vn 0.001859 -0.006692 0.999976
vn 0.001859 -0.006692 0.999976
vn 0.001859 -0.006692 0.999976
vn 0.001859 -0.006692 0.999976
vn 0.004488 -0.042200 0.999099
vn 0.004488 -0.042200 0.999099
vn 0.004488 -0.042200 0.999099
vn 0.004488 -0.042200 0.999099
vn 0.000000 1.000000 0.000000
vn 0.000000 1.000000 0.000000
vn 0.000000 1.000000 0.000000
vn 0.000000 1.000000 0.000000
vn 0.000000 1.000000 0.000000
vn 0.000000 1.000000 0.000000
vn 0.000000 1.000000 0.000000
vn 0.000000 1.000000 0.000000
vn -0.084485 0.690237 -0.718634
vn -0.084485 0.690237 -0.718634
vn -0.084485 0.690237 -0.718634
vn -0.016222 0.013746 -0.999774
vn -0.016222 0.013746 -0.999774
vn -0.016222 0.013746 -0.999774
vn -0.016222 0.013746 -0.999774
vn 0.000000 -0.999687 -0.025022
vn 0.000000 -0.999687 -0.025022
vn 0.000000 -0.999687 -0.025022
vn 0.000000 -0.999687 -0.025022
vn 0.000000 0.000000 -1.000000
vn 0.000000 0.000000 -1.000000
vn 0.000000 0.000000 -1.000000
vn 0.000000 0.000000 -1.000000
vn 0.000000 0.000000 -1.000000
vn 0.000000 0.000000 -1.000000
vn 0.000000 0.000000 -1.000000
vn 0.000000 0.000000 -1.000000
vn 0.000000 -1.000000 0.000001
vn 0.000000 -1.000000 0.000001
vn 0.000000 -1.000000 0.000001
vn 0.000000 -1.000000 0.000001
vn 0.000000 0.000002 1.000000
vn 0.000000 0.000002 1.000000
vn 0.000000 0.000002 1.000000
vn 0.000000 0.000002 1.000000
vn 0.000000 0.000002 1.000000
vn 0.000000 0.000002 1.000000
vn 0.000000 0.000002 1.000000
vn 0.000000 0.000002 1.000000
vn 0.000000 0.000002 1.000000
vn 0.000000 0.000002 1.000000
vn -0.613429 0.609296 -0.502457
vn -0.613429 0.609296 -0.502457
vn -0.613429 0.609296 -0.502457
vn -0.873538 0.459278 0.161233
vn -0.873538 0.459278 0.161233
vn -0.873538 0.459278 0.161233
vn -0.735853 0.569969 -0.365588
vn -0.735853 0.569969 -0.365588
vn -0.735853 0.569969 -0.365588
vn -0.735853 0.569969 -0.365588
vn -0.517916 0.095991 -0.850029
vn -0.517916 0.095991 -0.850029
vn -0.517916 0.095991 -0.850029
vn -0.517916 0.095991 -0.850029
vn -0.814195 0.481822 -0.323935
vn -0.814195 0.481822 -0.323935
vn -0.814195 0.481822 -0.323935
vn -0.641073 0.598479 -0.480467
vn -0.641073 0.598479 -0.480467
vn -0.641073 0.598479 -0.480467
vn -0.925325 0.347147 -0.152520
vn -0.925325 0.347147 -0.152520
vn -0.925325 0.347147 -0.152520
vn -0.659936 0.478375 -0.579345
vn -0.659936 0.478375 -0.579345
vn -0.659936 0.478375 -0.579345
vn -0.602634 0.132642 -0.786917
vn -0.602634 0.132642 -0.786917
vn -0.602634 0.132642 -0.786917
vn -0.600256 0.209564 -0.771865
vn -0.600256 0.209564 -0.771865
vn -0.600256 0.209564 -0.771865
vn -0.403696 0.533485 -0.743252
vn -0.403696 0.533485 -0.743252
vn -0.403696 0.533485 -0.743252
vn -0.785401 0.366729 -0.498653
vn -0.785401 0.366729 -0.498653
vn -0.785401 0.366729 -0.498653
vn -0.435359 0.324689 -0.839667
vn -0.435359 0.324689 -0.839667
vn -0.435359 0.324689 -0.839667
s off
f 1/1/1 2/2/2 12/3/3
f 4/4/4 3/5/5 13/6/6
f 20/24/7 6/25/8 15/26/9
f 2/2/10 7/10/11 16/11/12 12/3/13
f 7/10/14 21/12/15 16/11/16
f 8/13/17 4/4/18 13/6/19 17/14/20
f 6/8/21 8/13/22 17/14/23 15/9/24
f 2/2/25 1/1/26 3/5/27 4/4/28
f 6/8/29 5/15/30 2/2/31 4/4/32
f 2/2/33 5/15/34 7/10/35
f 4/4/36 8/13/37 6/8/38
f 14/28/39 15/26/40 22/29/41 10/27/42
f 12/3/43 16/11/44 11/18/45 9/16/46
f 16/11/47 14/19/48 10/17/49 11/18/50
f 19/22/51 21/12/52 20/7/53
f 20/7/54 21/12/55 18/23/56
f 7/10/57 5/15/58 18/23/59 21/12/60
f 16/11/61 21/12/62 19/22/63 14/19/64
f 20/24/65 15/26/66 14/28/67 19/30/68
f 5/31/69 6/25/70 20/24/71 18/32/72
f 15/9/73 23/21/74 22/20/75
f 15/9/76 17/14/77 24/33/78 23/21/79
f 17/14/80 13/6/81 25/34/82 24/33/83
f 3/5/84 26/35/85 29/38/86 28/37/87
f 3/5/88 28/37/89 25/34/90 13/6/91
f 3/5/92 1/1/93 27/36/94 26/35/95
f 27/36/96 1/1/97 12/3/98 30/39/99
f 30/39/100 12/3/101 31/40/102
f 12/3/103 9/16/104 31/40/105
f 29/41/106 30/44/107 31/45/108
f 10/48/109 9/46/110 11/47/111
f 22/49/112 32/54/113 9/46/114 10/48/115
f 25/52/116 22/49/117 23/50/118 24/51/119
f 32/54/120 31/45/121 9/46/122
f 29/41/123 31/45/124 33/55/125
f 30/44/126 26/42/127 27/43/128
f 29/41/129 26/42/130 30/44/131
f 25/52/132 32/54/133 22/49/134
f 28/53/135 32/54/136 25/52/137
f 29/41/138 33/55/139 28/53/140
f 33/55/141 31/45/142 32/54/143
f 28/53/144 33/55/145 32/54/146
