# This file uses centimeters as units for non-parametric coordinates.

v 125.002930 0.000003 125.000000
v 0.000000 -0.000000 125.000000
v 0.000000 12.500002 125.000000
v 31.250977 12.500002 125.000000
v 31.250977 25.000002 125.000000
v 62.501953 25.000002 125.000000
v 62.501953 37.500000 125.000000
v 93.751953 37.500000 125.000000
v 93.751953 50.000000 125.000000
v 125.002930 50.000000 125.000000
v 65.458984 37.500004 58.630859
v 31.250977 12.500002 93.749023
v 31.250977 25.000002 93.749023
v 62.501953 25.000002 62.498047
v 93.751953 37.500000 31.248047
v 93.751953 50.000000 31.248047
v 125.002930 0.000003 -0.002930
v 125.002930 50.000000 -0.002930
v 0.000000 0.000003 -0.002930
v 0.000000 12.500002 93.749023
v 0.000000 25.000002 93.749023
v 0.000000 25.000002 62.498047
v 0.000000 37.500000 62.498047
v 0.000000 37.500000 31.248047
v 0.000000 50.000000 31.248047
v 0.000000 50.000000 -0.002930
v 16.385742 12.500002 93.749023
v 13.478516 25.000002 91.265625
v 82.730469 50.000000 31.248047
v 25.165039 50.000000 31.248047
v 60.684570 37.500000 31.248047
v 47.467773 50.000000 23.104492
v 62.501953 25.000002 100.408203
v 67.536133 37.500000 99.720703
vt 0.158506 0.869284
vt 0.122638 0.843944
vt 0.109529 0.833413
vt 0.109555 0.829699
vt 0.135606 0.858063
vt 0.122804 0.847850
vt 0.148458 0.872056
vt 0.135960 0.862158
vt 0.161198 0.885928
vt 0.148998 0.876337
vt 0.112153 0.901529
vt 0.111065 0.885050
vt 0.127801 0.872334
vt 0.110463 0.854803
vt 0.110451 0.858787
vt 0.111328 0.878719
vt 0.125823 0.866386
vt 0.112164 0.905966
vt 0.112859 0.905961
vt 0.112940 0.923309
vt 0.064389 0.871933
vt 0.097389 0.844690
vt 0.097185 0.848603
vt 0.085364 0.859509
vt 0.084986 0.863614
vt 0.073477 0.874157
vt 0.072929 0.878450
vt 0.061725 0.888638
vt 0.138838 0.629451
vt 0.104305 0.850040
vt 0.102010 0.853911
vt 0.123742 0.623377
vt 0.130201 0.632546
vt 0.107772 0.902886
vt 0.090350 0.895308
vt 0.147622 0.640124
vt 0.083891 0.886138
vt 0.098988 0.892212
vn 0.000000 0.000000 1.000000
vn 0.000000 0.000000 1.000000
vn 0.000000 0.000000 1.000000
vn 0.000000 0.000000 1.000000
vn 0.000000 0.000000 1.000000
vn 0.000000 0.000000 1.000000
vn 0.000000 -0.000000 1.000000
vn 0.000000 -0.000000 1.000000
vn 0.000000 -0.000000 1.000000
vn 0.000000 0.000000 1.000000
vn 0.000000 0.000000 1.000000
vn 0.000000 0.000000 1.000000
vn 0.000000 0.000000 1.000000
vn 0.000000 0.000000 1.000000
vn 0.000000 0.000000 1.000000
vn 0.000000 0.000000 1.000000
vn 0.000000 1.000000 0.000000
vn 0.000000 1.000000 0.000000
vn 0.000000 1.000000 0.000000
vn 0.000000 1.000000 0.000000
vn 0.000000 1.000000 0.000000
vn 0.000000 1.000000 0.000000
vn 0.000000 1.000000 0.000000
vn 0.000000 1.000000 0.000000
vn 0.000000 1.000000 0.000000
vn 0.000000 1.000000 0.000000
vn -1.000000 0.000000 0.000000
vn -1.000000 0.000000 0.000000
vn -1.000000 0.000000 0.000000
vn -1.000000 0.000000 0.000000
vn 0.000000 1.000000 -0.000000
vn 0.000000 1.000000 -0.000000
vn 0.000000 1.000000 0.000000
vn 0.000000 1.000000 0.000000
vn 0.000000 1.000000 -0.000000
vn 0.000000 1.000000 -0.000000
vn 0.000000 1.000000 -0.000000
vn -1.000000 0.000000 0.000000
vn -1.000000 0.000000 0.000000
vn -0.950894 0.308507 0.025002
vn -0.950894 0.308507 0.025002
vn -1.000000 0.000000 -0.000000
vn -1.000000 0.000000 -0.000000
vn -1.000000 0.000000 -0.000000
vn -1.000000 0.000000 -0.000000
vn 0.000000 -1.000000 0.000000
vn 0.000000 -1.000000 0.000000
vn 0.000000 -1.000000 0.000000
vn 0.000000 1.000000 0.000000
vn 0.000000 1.000000 0.000000
vn 0.000000 1.000000 0.000000
vn 0.000000 1.000000 0.000000
vn 1.000000 0.000000 0.000000
vn 1.000000 0.000000 0.000000
vn 1.000000 0.000000 0.000000
vn 1.000000 0.000000 0.000000
vn -1.000000 0.000000 0.000000
vn -1.000000 0.000000 0.000000
vn -1.000000 0.000000 0.000000
vn -1.000000 0.000000 0.000000
vn -1.000000 0.000000 0.000000
vn -1.000000 0.000000 0.000000
vn -1.000000 0.000000 0.000000
vn -1.000000 0.000000 0.000000
vn -1.000000 0.000000 0.000000
vn -1.000000 0.000000 0.000000
vn -1.000000 0.000000 0.000000
vn -1.000000 0.000000 0.000000
vn -1.000000 0.000000 0.000000
vn -1.000000 0.000000 0.000000
vn -1.000000 0.000000 0.000000
vn -1.000000 0.000000 0.000000
vn -0.000000 1.000000 0.000000
vn -0.000000 1.000000 0.000000
vn -0.000000 1.000000 0.000000
vn -0.000000 1.000000 0.000000
vn -0.000000 1.000000 0.000000
vn -0.000000 1.000000 0.000000
vn -0.000000 1.000000 0.000000
vn 0.000000 1.000000 0.000000
vn 0.000000 1.000000 0.000000
vn 0.000000 1.000000 0.000000
vn 0.000000 1.000000 0.000000
vn 0.082385 0.107996 0.990732
vn 0.082386 0.107996 0.990732
vn 0.000000 0.000000 1.000000
vn 0.000000 0.000000 1.000000
vn 0.000000 1.000000 -0.000000
vn 0.000000 1.000000 -0.000000
vn 0.000000 1.000000 -0.000000
vn 0.000000 1.000000 0.000000
vn 0.000000 1.000000 -0.000000
vn 0.000000 1.000000 -0.000000
vn 0.000000 1.000000 0.000000
vn 0.000000 0.000000 1.000000
vn 0.000000 0.000000 1.000000
vn 0.000000 0.000000 1.000000
vn 0.000000 0.000000 1.000000
vn 0.000000 -1.000000 -0.000000
vn 0.000000 -1.000000 -0.000000
vn 0.000000 -1.000000 -0.000000
vn 0.000000 1.000000 -0.000000
vn 0.000000 1.000000 -0.000000
vn 0.000000 1.000000 -0.000000
vn 0.000000 1.000000 0.000000
vn 0.000000 1.000000 0.000000
vn 0.000000 1.000000 -0.000000
vn 0.000000 1.000000 0.000000
vn 0.000000 1.000000 0.000000
vn 0.000000 1.000000 0.000000
vn 0.000000 1.000000 -0.000000
vn 0.000000 1.000000 -0.000000
vn 0.000000 0.000000 -1.000000
vn 0.000000 0.000000 -1.000000
vn 0.000000 0.000000 -1.000000
vn 0.000000 0.000000 -1.000000
vn 0.000000 0.000000 1.000000
vn -0.075564 0.089862 0.993084
vn -0.075564 0.089862 0.993084
vn 0.000000 0.000000 1.000000
vn 0.000000 0.000000 1.000000
vn 0.000000 0.000000 1.000000
vn 0.000000 0.000000 1.000000
vn 0.000000 0.000000 1.000000
vn 0.000000 0.000000 1.000000
vn 0.000000 0.000000 1.000000
vn 0.000000 0.000000 1.000000
vn 0.000000 0.000000 1.000000
vn -0.209149 0.368870 0.905644
vn -0.209149 0.368870 0.905644
vn -0.209149 0.368870 0.905644
vn -0.976073 0.193840 -0.098529
vn -0.976073 0.193840 -0.098529
vn -1.000000 0.000000 0.000000
vn -1.000000 0.000000 0.000000
vn 0.245626 0.697961 0.672695
vn 0.245626 0.697961 0.672695
vn 0.245626 0.697961 0.672695
s off
f 1/1/1 4/2/2 3/3/3 2/4/4
f 4/2/5 1/1/6 6/5/7 5/6/8
f 6/5/9 1/1/10 8/7/11 7/8/12
f 8/7/13 1/1/14 10/9/15 9/10/16
f 8/7/17 15/11/18 11/12/19 34/13/20
f 7/8/21 8/7/22 34/13/23
f 12/14/24 3/3/25 4/2/26
f 13/15/27 12/14/28 4/2/29 5/6/30
f 14/16/31 13/15/32 33/17/33
f 33/17/34 13/15/35 5/6/36 6/5/37
f 11/12/38 14/16/39 33/17/40 34/13/41
f 16/18/42 15/11/43 8/7/44 9/10/45
f 2/4/46 17/19/47 1/1/48
f 18/20/49 16/18/50 9/10/51 10/9/52
f 17/19/53 18/20/54 10/9/55 1/1/56
f 19/21/57 2/4/58 3/3/59 20/22/60
f 20/22/61 21/23/62 22/24/63 19/21/64
f 22/24/65 23/25/66 24/26/67 19/21/68
f 24/26/69 25/27/70 26/28/71 19/21/72
f 15/11/73 31/38/74 11/12/75
f 23/25/76 11/12/77 31/38/78 24/26/79
f 12/14/80 27/30/81 20/22/82 3/3/83
f 27/30/84 28/31/85 21/23/86 20/22/87
f 13/15/88 14/16/89 22/24/90 28/31/91
f 22/24/92 21/23/93 28/31/94
f 11/12/95 23/25/96 22/24/97 14/16/98
f 2/4/99 19/21/100 17/19/101
f 16/18/102 18/20/103 26/28/104 29/34/105
f 29/34/106 26/28/107 32/35/108
f 30/37/109 32/35/110 26/28/111 25/27/112
f 17/19/113 19/21/114 26/28/115 18/20/116
f 13/15/117 28/31/118 27/30/119 12/14/120
f 31/38/121 30/37/122 25/27/123 24/26/124
f 16/18/125 29/34/126 31/38/127 15/11/128
f 29/36/129 32/33/130 31/29/131
f 34/13/132 33/17/133 6/5/134 7/8/135
f 31/29/136 32/33/137 30/32/138
