# This file uses centimeters as units for non-parametric coordinates.

v -85.470825 -55.344604 74.551025
v 46.428101 -164.836182 74.551025
v -71.279175 115.548218 61.818115
v 60.817749 154.782959 45.671387
v -81.052612 89.279785 -72.492432
v 54.228027 168.677734 -71.362793
v -84.362061 -50.295166 -80.948975
v 46.428101 -164.836182 -82.655029
v -26.618042 -101.573364 56.992676
v -10.054932 152.525391 82.654785
v -85.470825 97.586548 -6.635254
v -85.470825 -55.344604 2.151855
v 18.269653 180.923950 -71.739258
v 60.817749 175.177490 -45.908936
v 60.817749 91.905762 -71.739258
v 65.811890 72.598633 82.460938
v -22.692749 25.042847 82.654785
v -85.470825 -8.738770 74.551025
v -85.470825 15.243530 -2.088379
v -82.053467 24.589844 -76.029541
v -71.279175 32.408203 61.818115
v -29.061646 97.586548 -82.655029
v -0.714966 40.349365 -82.655029
v 8.121216 179.351074 -38.030029
v -3.970673 -110.609589 -68.637024
v -35.969971 115.548584 35.547363
v 63.274902 91.347168 78.443115
v 42.632446 149.422974 76.630371
v -17.038208 -180.924072 12.723877
v -12.589844 -180.924072 81.354004
v -25.150146 -69.343567 82.654785
v -28.495239 115.548218 76.379150
v -6.698242 102.976563 -44.877686
v 81.976074 -99.064941 -56.061035
v 81.976074 -99.064941 9.828613
v 81.976074 65.256958 -51.486572
v 85.471069 51.746826 13.144043
vt 0.080419 0.255335
vt 0.080590 0.255474
vt 0.080533 0.255365
vt 0.080480 0.254783
vt 0.080620 0.254781
vt 0.080611 0.254854
vt 0.080858 0.255530
vt 0.080980 0.255037
vt 0.081114 0.255561
vt 0.080716 0.255559
vt 0.080564 0.255544
vt 0.080938 0.255452
vt 0.081095 0.255465
vt 0.081085 0.254937
vt 0.080938 0.254969
vt 0.080792 0.255348
vt 0.080590 0.255349
vt 0.080600 0.255120
vt 0.080785 0.255102
vt 0.080892 0.254578
vt 0.081026 0.254585
vt 0.080996 0.254576
vt 0.080419 0.255184
vt 0.081088 0.254857
vt 0.081073 0.254610
vt 0.080732 0.254895
vt 0.080808 0.254638
vt 0.080736 0.254836
vt 0.080566 0.254651
vt 0.080538 0.255062
vt 0.080695 0.254654
vt 0.080480 0.255051
vt 0.080779 0.254890
vt 0.080918 0.254856
vt 0.080540 0.254773
vt 0.080876 0.254829
vt 0.080740 0.255528
vn -0.241421 -0.597714 0.764496
vn -0.241421 -0.597714 0.764496
vn -0.241421 -0.597714 0.764496
vn -0.162739 0.962123 -0.218715
vn -0.162739 0.962123 -0.218715
vn -0.162739 0.962123 -0.218715
vn -0.345486 -0.079378 -0.935061
vn -0.345487 -0.079378 -0.935061
vn -0.345487 -0.079378 -0.935061
vn -0.985897 -0.154675 0.063902
vn -0.985897 -0.154675 0.063902
vn -0.985897 -0.154675 0.063902
vn 0.999558 -0.010389 -0.027841
vn 0.999558 -0.010389 -0.027841
vn 0.999558 -0.010389 -0.027841
vn 0.999558 -0.010389 -0.027841
vn -0.999498 0.015989 -0.027341
vn -0.999498 0.015989 -0.027341
vn -0.999498 0.015989 -0.027341
vn -0.999498 0.015989 -0.027341
vn -0.974130 -0.111944 0.196314
vn -0.974130 -0.111944 0.196314
vn -0.974130 -0.111944 0.196314
vn 0.089631 0.993272 0.073331
vn 0.089631 0.993272 0.073331
vn 0.089631 0.993272 0.073331
vn -0.617716 -0.786401 0.000000
vn -0.617716 -0.786401 0.000000
vn -0.617716 -0.786401 0.000000
vn -1.000000 0.000000 0.000000
vn -1.000000 0.000000 0.000000
vn -1.000000 0.000000 0.000000
vn -1.000000 0.000000 0.000000
vn 0.012504 0.005976 -0.999904
vn 0.012504 0.005976 -0.999904
vn 0.012504 0.005976 -0.999904
vn 0.959299 0.083664 -0.269716
vn 0.959299 0.083664 -0.269716
vn 0.959299 0.083664 -0.269716
vn 0.309438 0.899077 -0.309693
vn 0.309438 0.899077 -0.309693
vn 0.309438 0.899077 -0.309693
vn 0.999434 0.032198 -0.009721
vn 0.999434 0.032198 -0.009721
vn 0.999434 0.032198 -0.009721
vn 0.999434 0.032198 -0.009721
vn 0.999434 0.032198 -0.009721
vn 0.047241 0.035028 0.998269
vn 0.047241 0.035028 0.998269
vn 0.047241 0.035028 0.998269
vn 0.047241 0.035028 0.998269
vn 0.047241 0.035028 0.998269
vn -0.315846 0.378210 0.870172
vn -0.315846 0.378210 0.870172
vn -0.315846 0.378210 0.870172
vn -0.928432 0.354550 0.110947
vn -0.928432 0.354550 0.110947
vn -0.928432 0.354550 0.110947
vn -0.998415 0.006412 -0.055913
vn -0.998415 0.006412 -0.055913
vn -0.998415 0.006412 -0.055913
vn -0.998415 0.006412 -0.055913
vn -0.125058 0.000734 -0.992149
vn -0.125058 0.000734 -0.992149
vn -0.125058 0.000734 -0.992149
vn -0.125058 0.000734 -0.992149
vn -0.390658 0.038727 0.919721
vn -0.390658 0.038727 0.919721
vn -0.390658 0.038727 0.919721
vn -0.978066 0.005721 0.208219
vn -0.978066 0.005721 0.208219
vn -0.978066 0.005721 0.208219
vn -0.978066 0.005721 0.208219
vn 0.125439 0.059956 -0.990288
vn 0.125439 0.059956 -0.990288
vn 0.125439 0.059956 -0.990288
vn -0.948656 0.149751 -0.278613
vn -0.948656 0.149751 -0.278613
vn -0.948656 0.149751 -0.278613
vn -0.851945 0.208379 -0.480384
vn -0.851945 0.208379 -0.480384
vn -0.851945 0.208379 -0.480384
vn -0.182015 0.973976 -0.135062
vn -0.182015 0.973976 -0.135062
vn -0.182015 0.973976 -0.135062
vn 0.094835 0.970146 0.223211
vn 0.094835 0.970146 0.223211
vn 0.094835 0.970146 0.223211
vn 0.094835 0.970146 0.223211
vn 0.094835 0.970146 0.223211
vn 0.147057 0.033788 -0.988551
vn 0.147057 0.033788 -0.988551
vn 0.147057 0.033788 -0.988551
vn -0.908052 0.208753 -0.363129
vn -0.908052 0.208753 -0.363129
vn -0.908052 0.208753 -0.363129
vn 0.023873 -0.040830 -0.998881
vn 0.023873 -0.040830 -0.998881
vn 0.023873 -0.040830 -0.998881
vn 0.023873 -0.040830 -0.998881
vn -0.893646 0.417891 0.163596
vn -0.893646 0.417891 0.163596
vn -0.893646 0.417891 0.163596
vn -0.820879 0.571092 0.003310
vn -0.820879 0.571092 0.003310
vn -0.820879 0.571092 0.003310
vn 0.798866 0.300218 0.521231
vn 0.798866 0.300218 0.521231
vn 0.798866 0.300218 0.521231
vn 0.250222 -0.968176 -0.004929
vn 0.250222 -0.968176 -0.004929
vn 0.250222 -0.968176 -0.004929
vn 0.250222 -0.968176 -0.004929
vn 0.002221 -0.000058 0.999998
vn 0.002221 -0.000058 0.999998
vn 0.002221 -0.000058 0.999998
vn 0.075777 -0.027786 0.996738
vn 0.075777 -0.027786 0.996738
vn 0.075777 -0.027786 0.996738
vn 0.075777 -0.027786 0.996738
vn -0.682409 -0.495259 -0.537621
vn -0.682409 -0.495259 -0.537621
vn -0.682409 -0.495259 -0.537621
vn -0.984185 -0.020667 -0.175933
vn -0.984185 -0.020667 -0.175933
vn -0.984185 -0.020667 -0.175933
vn -0.130896 0.002281 0.991393
vn -0.130896 0.002281 0.991394
vn -0.130896 0.002281 0.991393
vn -0.130896 0.002281 0.991393
vn -0.214241 0.963757 -0.158974
vn -0.214241 0.963757 -0.158974
vn -0.214241 0.963757 -0.158974
vn -0.000003 1.000000 0.000010
vn -0.000003 1.000000 0.000010
vn -0.000003 1.000000 0.000010
vn -0.359641 0.021696 0.932838
vn -0.359641 0.021696 0.932838
vn -0.359641 0.021696 0.932838
vn -0.359641 0.021696 0.932838
vn 0.770516 0.381598 -0.510576
vn 0.770516 0.381598 -0.510576
vn 0.770516 0.381598 -0.510576
vn 0.014108 0.988674 -0.149414
vn 0.014108 0.988674 -0.149414
vn 0.014108 0.988674 -0.149414
vn 0.879729 -0.475475 0.000000
vn 0.879729 -0.475475 0.000000
vn 0.879729 -0.475475 0.000000
vn 0.879729 -0.475475 0.000000
vn 0.634103 0.006775 -0.773219
vn 0.634103 0.006775 -0.773219
vn 0.634103 0.006775 -0.773219
vn 0.634103 0.006775 -0.773219
vn 0.787493 0.613256 0.061418
vn 0.787493 0.613256 0.061418
vn 0.787493 0.613256 0.061418
vn 0.787493 0.613256 0.061418
vn 0.930183 -0.065259 0.361248
vn 0.930184 -0.065259 0.361248
vn 0.930184 -0.065259 0.361248
vn 0.930184 -0.065259 0.361248
vn -0.583315 -0.810242 -0.057016
vn -0.583315 -0.810242 -0.057016
vn -0.583315 -0.810242 -0.057015
vn -0.594542 -0.802543 -0.049454
vn -0.594542 -0.802543 -0.049454
vn -0.594542 -0.802543 -0.049454
s off
f 1/1/1 9/2/2 31/3/3
f 3/4/4 26/5/5 11/6/6
f 25/7/7 23/8/8 8/9/9
f 9/2/10 29/10/11 30/11/12
f 35/12/13 34/13/14 36/14/15 37/15/16
f 7/16/17 12/17/18 19/18/19 20/19/20
f 30/11/21 31/3/22 9/2/23
f 24/20/24 14/21/25 13/22/26
f 12/17/27 9/2/28 1/1/29
f 18/23/30 19/18/31 12/17/32 1/1/33
f 15/24/34 13/22/35 6/25/36
f 14/21/37 15/24/38 6/25/39
f 13/22/40 14/21/41 6/25/42
f 16/26/43 15/24/44 14/21/45 4/27/46 27/28/47
f 10/29/48 17/30/49 16/26/50 27/28/51 28/31/52
f 18/23/53 17/30/54 21/32/55
f 21/32/56 19/18/57 18/23/58
f 20/19/59 19/18/60 11/6/61 5/33/62
f 5/33/63 22/34/64 23/8/65 20/19/66
f 32/35/67 17/30/68 10/29/69
f 11/6/70 19/18/71 21/32/72 3/4/73
f 23/8/74 13/22/75 15/24/76
f 23/8/77 24/20/78 13/22/79
f 23/8/80 33/36/81 24/20/82
f 11/6/83 22/34/84 5/33/85
f 24/20/86 10/29/87 28/31/88 4/27/89 14/21/90
f 8/9/91 23/8/92 15/24/93
f 33/36/94 26/5/95 24/20/96
f 20/19/97 23/8/98 25/7/99 7/16/100
f 26/5/101 32/35/102 10/29/103
f 24/20/104 26/5/105 10/29/106
f 28/31/107 27/28/108 4/27/109
f 30/11/110 29/10/111 8/9/112 2/37/113
f 16/26/114 17/30/115 31/3/116
f 16/26/117 31/3/118 30/11/119 2/37/120
f 8/9/121 29/10/122 25/7/123
f 9/2/124 25/7/125 29/10/126
f 1/1/127 31/3/128 17/30/129 18/23/130
f 11/6/131 26/5/132 22/34/133
f 3/4/134 32/35/135 26/5/136
f 21/32/137 17/30/138 32/35/139 3/4/140
f 23/8/141 22/34/142 33/36/143
f 22/34/144 26/5/145 33/36/146
f 2/37/147 8/9/148 34/13/149 35/12/150
f 8/9/151 15/24/152 36/14/153 34/13/154
f 15/24/155 16/26/156 37/15/157 36/14/158
f 16/26/159 2/37/160 35/12/161 37/15/162
f 7/16/163 9/2/164 12/17/165
f 7/16/166 25/7/167 9/2/168
