# This file uses centimeters as units for non-parametric coordinates.

v -49.988708 -41.498505 86.582886
v 49.988647 -41.498505 86.582886
v 99.977295 -41.498505 0.000122
v 49.988647 -41.498505 -86.582886
v -49.988678 -41.498505 -86.582886
v -99.977295 -41.498505 0.000000
v -45.983276 31.541994 79.645386
v 45.983246 31.541994 79.645386
v 85.385742 31.541994 0.000122
v 45.983276 31.541994 -79.645264
v -45.983246 31.541994 -79.645264
v -81.001678 31.541994 0.000000
v 0.000000 -41.498505 0.000000
v -35.991882 31.541994 62.339722
v 35.991821 31.541994 62.339722
v 71.983704 31.541994 0.000000
v 35.991882 31.541994 -62.339722
v -35.991821 31.541994 -62.339722
v -71.983704 31.541994 0.000000
v -34.367615 38.991341 59.526489
v 34.367615 38.991341 59.526489
v 68.735291 38.991341 0.000000
v 34.367645 38.991341 -59.526489
v -34.367615 38.991341 -59.526489
v -68.735291 38.991341 0.000000
v -9.049500 38.991325 48.909912
v 37.832458 38.991333 -32.292114
v -37.832458 38.991333 -32.291992
v -10.188995 276.039368 -10.267944
v -2.510925 276.039368 12.696167
v 10.189026 276.039368 -10.267944
v -46.881897 38.991325 -16.617798
v -13.986755 276.039368 -3.690063
v 9.049500 38.991325 48.909912
v 46.881958 38.991325 -16.617798
v 3.797791 276.039368 13.957886
v 13.986816 276.039368 -3.690063
v -4.475098 286.937805 -4.601929
v -6.222900 286.937744 -1.574585
v -1.747772 286.937805 6.176514
v 1.747803 286.937744 6.176514
v 6.222961 286.937805 -1.574585
v 4.475159 286.937744 -4.601929
v -10.693115 276.039368 2.014771
v -2.933075 280.636353 10.675659
v -3.896820 271.568390 14.617188
v 15.947357 261.911255 -4.460571
v 21.174988 224.240082 -6.515015
v 15.827332 240.126114 -0.204468
v 16.527954 242.679947 -9.126099
v -7.298035 118.046364 37.253540
v -6.240295 165.791168 30.213623
v -0.876892 146.592010 33.044556
v -8.839844 148.130890 28.992676
v -22.221375 216.699326 -6.926270
v -27.286926 180.196075 -8.916992
v -22.057953 203.218323 -11.184692
v -22.936035 202.209854 -5.471680
v 34.550293 67.136513 -29.677124
v 30.303833 103.550644 -26.293823
v 34.102112 87.651291 -24.403687
v 26.375458 82.332687 -28.265259
v -83.135925 31.541994 -15.295044
v -74.229675 31.541994 30.721069
v -94.199524 21.006163 0.000000
v 80.056091 31.541994 20.629517
v 84.158325 31.541994 -13.524170
v 94.403259 20.044991 0.000122
vt 0.069640 0.100927
vt 0.069323 0.100889
vt 0.069300 0.124844
vt 0.069024 0.124728
vt 0.069235 0.100699
vt 0.069263 0.100612
vt 0.069435 0.100560
vt 0.069032 0.124662
vt 0.069720 0.100590
vt 0.069300 0.124769
vt 0.069835 0.100767
vt 0.069797 0.100671
vt 0.069532 0.100732
vt 0.069016 0.124479
vt 0.069021 0.124445
vt 0.069026 0.124482
vt 0.069203 0.124359
vt 0.069206 0.124317
vt 0.069057 0.124409
vt 0.069381 0.100751
vt 0.069609 0.100777
vt 0.069313 0.100617
vt 0.069460 0.100517
vt 0.069671 0.100539
vt 0.069752 0.100666
vt 0.069387 0.100727
vt 0.069606 0.100752
vt 0.069322 0.100600
vt 0.069462 0.100505
vt 0.069665 0.100526
vt 0.069743 0.100646
vt 0.069417 0.124424
vt 0.069415 0.124378
vt 0.069500 0.124649
vt 0.069497 0.124606
vt 0.069478 0.124542
vt 0.069532 0.099994
vt 0.069505 0.099992
vt 0.069426 0.124653
vt 0.069295 0.123850
vt 0.069299 0.123857
vt 0.069268 0.123868
vt 0.069253 0.123865
vt 0.069563 0.099976
vt 0.069531 0.099974
vt 0.069532 0.100008
vt 0.069477 0.099997
vt 0.069464 0.100095
vt 0.069473 0.100057
vt 0.069479 0.100041
vt 0.069531 0.100479
vt 0.069531 0.100332
vt 0.069513 0.100389
vt 0.069536 0.100384
vt 0.069604 0.100128
vt 0.069620 0.100226
vt 0.069607 0.100161
vt 0.069605 0.100170
vt 0.069443 0.100480
vt 0.069453 0.100388
vt 0.069444 0.100433
vt 0.069467 0.100444
vt 0.069794 0.100642
vt 0.069744 0.100729
vt 0.069820 0.100699
vt 0.069275 0.100656
vt 0.069285 0.100589
vt 0.069248 0.100638
vt 0.069245 0.123848
vt 0.069257 0.123844
vt 0.069083 0.124624
vt 0.069286 0.124703
vt 0.069069 0.124445
vt 0.069213 0.124353
vt 0.069381 0.124403
vt 0.069464 0.124578
vt 0.069438 0.124569
vt 0.069222 0.124623
vt 0.069285 0.124682
vt 0.069089 0.124607
vt 0.069171 0.124605
vt 0.069368 0.124453
vt 0.069377 0.124396
vt 0.069432 0.124555
vt 0.069382 0.124495
vt 0.069217 0.124373
vt 0.069232 0.124452
vt 0.069324 0.123888
vt 0.069349 0.124140
vt 0.069349 0.124110
vt 0.069332 0.123903
vt 0.069182 0.124395
vt 0.069145 0.124419
vt 0.069076 0.124436
vt 0.069214 0.124347
vt 0.069181 0.124331
vt 0.069214 0.123992
vt 0.069194 0.124053
vt 0.069231 0.123925
vt 0.069204 0.124019
vt 0.069209 0.123934
vt 0.069216 0.123883
vt 0.069205 0.124338
vt 0.069186 0.124356
vt 0.069310 0.123912
vt 0.069266 0.123904
vt 0.069241 0.123874
vt 0.069249 0.124367
vt 0.069346 0.124157
vt 0.069358 0.124212
vt 0.069039 0.124435
vt 0.069193 0.124300
vt 0.069263 0.123951
vt 0.069240 0.124325
vn 0.000000 0.094556 0.995520
vn 0.000000 0.094556 0.995520
vn 0.000000 0.094556 0.995520
vn 0.000000 0.094556 0.995520
vn 0.859612 0.092527 0.502499
vn 0.859612 0.092527 0.502499
vn 0.859612 0.092527 0.502499
vn 0.859612 0.092527 0.502499
vn 0.859612 0.092527 0.502499
vn 0.859582 0.093135 -0.502439
vn 0.859582 0.093135 -0.502438
vn 0.859582 0.093135 -0.502438
vn 0.859582 0.093135 -0.502438
vn 0.859582 0.093135 -0.502439
vn 0.000000 0.094558 -0.995519
vn 0.000000 0.094558 -0.995519
vn 0.000000 0.094558 -0.995519
vn 0.000000 0.094558 -0.995519
vn -0.859806 0.093118 -0.502058
vn -0.859806 0.093118 -0.502058
vn -0.859806 0.093118 -0.502058
vn -0.859806 0.093118 -0.502058
vn -0.859806 0.093118 -0.502058
vn -0.859871 0.091899 0.502172
vn -0.859871 0.091899 0.502172
vn -0.859871 0.091899 0.502172
vn -0.859871 0.091899 0.502172
vn -0.859871 0.091899 0.502172
vn 0.000000 -1.000000 0.000000
vn 0.000000 -1.000000 0.000000
vn 0.000000 -1.000000 0.000000
vn 0.000000 -1.000000 0.000000
vn 0.000000 -1.000000 0.000000
vn 0.000000 -1.000000 0.000000
vn 0.000000 -1.000000 0.000000
vn 0.000000 -1.000000 0.000000
vn 0.000000 -1.000000 0.000000
vn 0.000000 -1.000000 0.000000
vn 0.000000 -1.000000 0.000000
vn 0.000000 -1.000000 0.000000
vn 0.000000 -1.000000 0.000000
vn 0.000000 -1.000000 0.000000
vn 0.000000 -1.000000 0.000000
vn 0.000000 -1.000000 0.000000
vn 0.000000 -1.000000 0.000000
vn 0.000000 -1.000000 0.000000
vn 0.000000 1.000000 0.000003
vn 0.000000 1.000000 0.000003
vn 0.000000 1.000000 0.000003
vn 0.000000 1.000000 0.000003
vn 0.000000 1.000000 0.000003
vn 0.000000 1.000000 0.000003
vn 0.000000 1.000000 -0.000000
vn 0.000000 1.000000 -0.000000
vn 0.000000 1.000000 -0.000000
vn 0.000000 1.000000 -0.000000
vn 0.000000 1.000000 0.000000
vn 0.000000 1.000000 0.000000
vn 0.000000 1.000000 0.000000
vn 0.000000 1.000000 0.000000
vn 0.000000 1.000000 0.000000
vn 0.000000 1.000000 0.000000
vn 0.000000 1.000000 0.000000
vn 0.000000 1.000000 0.000000
vn 0.000000 1.000000 0.000000
vn 0.000000 1.000000 0.000000
vn 0.000000 1.000000 0.000000
vn 0.000000 1.000000 0.000000
vn 0.000000 1.000000 0.000000
vn 0.000000 1.000000 0.000000
vn 0.000000 1.000000 0.000000
vn 0.000000 1.000000 0.000000
vn 0.000000 1.000000 0.000000
vn 0.000000 1.000000 -0.000000
vn 0.000000 1.000000 -0.000000
vn 0.000000 1.000000 -0.000000
vn 0.000000 1.000000 -0.000000
vn 0.000000 1.000000 -0.000000
vn 0.000000 0.353294 0.935512
vn 0.000000 0.353294 0.935512
vn 0.000000 0.353294 0.935512
vn 0.000000 0.353294 0.935512
vn 0.810178 0.353292 0.467757
vn 0.810178 0.353292 0.467757
vn 0.810178 0.353292 0.467757
vn 0.810178 0.353292 0.467757
vn 0.810178 0.353294 -0.467756
vn 0.810178 0.353294 -0.467756
vn 0.810178 0.353294 -0.467756
vn 0.810178 0.353294 -0.467756
vn 0.000000 0.353295 -0.935512
vn 0.000000 0.353295 -0.935512
vn 0.000000 0.353295 -0.935512
vn 0.000000 0.353295 -0.935512
vn -0.810178 0.353292 -0.467757
vn -0.810178 0.353292 -0.467757
vn -0.810178 0.353292 -0.467757
vn -0.810178 0.353292 -0.467757
vn -0.810177 0.353295 0.467756
vn -0.810177 0.353295 0.467756
vn -0.810177 0.353295 0.467756
vn -0.810177 0.353296 0.467756
vn 0.000000 1.000000 -0.000002
vn 0.000000 1.000000 -0.000002
vn 0.000000 1.000000 -0.000002
vn 0.000000 1.000000 -0.000002
vn 0.000001 1.000000 0.000001
vn 0.000001 1.000000 0.000001
vn 0.000001 1.000000 0.000001
vn 0.000001 1.000000 0.000001
vn 0.000000 1.000000 -0.000000
vn 0.000000 1.000000 -0.000000
vn 0.000000 1.000000 -0.000000
vn 0.000000 1.000000 -0.000000
vn -0.707950 0.452457 0.542300
vn -0.707950 0.452457 0.542300
vn -0.707950 0.452457 0.542300
vn 0.000001 0.145869 0.989304
vn 0.000001 0.145869 0.989304
vn 0.000005 0.145870 0.989304
vn 0.000001 0.145869 0.989304
vn -0.856760 0.145869 -0.494655
vn -0.856764 0.145870 -0.494648
vn -0.856760 0.145869 -0.494657
vn -0.856760 0.145869 -0.494657
vn -0.000001 1.000000 0.000000
vn -0.000001 1.000000 0.000000
vn -0.000001 1.000000 0.000000
vn -0.000001 1.000000 0.000000
vn 0.856762 0.145869 -0.494652
vn 0.856760 0.145870 -0.494656
vn 0.856762 0.145869 -0.494652
vn 0.856763 0.145870 -0.494650
vn 0.862312 0.092512 0.497856
vn 0.862312 0.092512 0.497856
vn 0.862313 0.092512 0.497854
vn 0.862313 0.092512 0.497854
vn -0.000000 1.000000 -0.000000
vn -0.000000 1.000000 -0.000000
vn -0.000000 1.000000 -0.000000
vn -0.000000 1.000000 -0.000000
vn -0.000002 0.092511 -0.995712
vn -0.000001 0.092511 -0.995712
vn -0.000001 0.092511 -0.995712
vn -0.000001 0.092511 -0.995712
vn 0.000000 1.000000 0.000000
vn 0.000000 1.000000 0.000000
vn 0.000000 1.000000 0.000000
vn 0.000000 1.000000 0.000000
vn -0.704813 0.581082 -0.406918
vn -0.704813 0.581082 -0.406918
vn -0.704813 0.581082 -0.406918
vn -0.704813 0.581082 -0.406918
vn -0.768386 0.461278 0.443627
vn -0.768386 0.461278 0.443627
vn -0.768386 0.461278 0.443627
vn -0.768386 0.461278 0.443627
vn -0.768386 0.461278 0.443627
vn 0.000002 0.581079 0.813847
vn 0.000002 0.581079 0.813847
vn 0.000002 0.581079 0.813847
vn 0.000002 0.581079 0.813847
vn 0.768386 0.461277 0.443629
vn 0.768386 0.461277 0.443629
vn 0.768386 0.461277 0.443629
vn 0.768386 0.461277 0.443629
vn 0.704809 0.581081 -0.406926
vn 0.704809 0.581081 -0.406926
vn 0.704809 0.581081 -0.406926
vn 0.704809 0.581081 -0.406926
vn 0.000001 0.461279 -0.887255
vn 0.000001 0.461279 -0.887255
vn 0.000001 0.461279 -0.887255
vn 0.000001 0.461279 -0.887255
vn -0.779265 0.190809 0.596940
vn -0.779265 0.190809 0.596940
vn -0.779265 0.190809 0.596940
vn -0.181263 0.381714 0.906332
vn -0.181263 0.381714 0.906332
vn -0.181263 0.381714 0.906332
vn -0.176656 0.434280 0.883286
vn -0.176656 0.434280 0.883286
vn -0.176656 0.434280 0.883286
vn -0.862312 0.092512 0.497855
vn -0.862312 0.092511 0.497855
vn -0.862312 0.092512 0.497856
vn -0.862312 0.092512 0.497855
vn 0.953519 0.261499 0.149736
vn 0.953518 0.261499 0.149736
vn 0.953518 0.261499 0.149736
vn 0.996641 0.010380 0.081238
vn 0.996641 0.010380 0.081238
vn 0.996641 0.010380 0.081238
vn -0.407694 0.222294 0.885647
vn -0.407694 0.222294 0.885647
vn -0.407694 0.222294 0.885647
vn -0.452734 0.004998 0.891632
vn -0.452734 0.004998 0.891632
vn -0.452734 0.004998 0.891632
vn -0.971327 0.209553 -0.112302
vn -0.971327 0.209553 -0.112302
vn -0.971327 0.209553 -0.112302
vn -0.988705 0.034115 -0.145941
vn -0.988705 0.034115 -0.145941
vn -0.988705 0.034115 -0.145941
vn 0.293928 0.243983 -0.924164
vn 0.293928 0.243983 -0.924164
vn 0.293928 0.243983 -0.924164
vn 0.446834 0.000393 -0.894617
vn 0.446834 0.000393 -0.894617
vn 0.446834 0.000393 -0.894617
vn -0.618067 0.774230 0.136244
vn -0.618067 0.774230 0.136244
vn -0.618067 0.774230 0.136244
vn -0.621534 0.778572 0.086728
vn -0.621534 0.778572 0.086728
vn -0.621534 0.778572 0.086728
vn 0.784846 0.615583 -0.071230
vn 0.784846 0.615583 -0.071230
vn 0.784846 0.615583 -0.071230
vn 0.771074 0.604781 0.199209
vn 0.771074 0.604781 0.199209
vn 0.771074 0.604781 0.199209
vn 0.000000 1.000000 0.000000
vn 0.000000 1.000000 0.000000
vn 0.000000 1.000000 0.000000
vn 0.000000 1.000000 0.000000
vn 0.000000 1.000000 0.000000
vn 0.000000 1.000000 0.000000
vn 0.856762 0.145869 -0.494652
vn 0.856763 0.145870 -0.494650
vn 0.856764 0.145870 -0.494649
vn 0.856764 0.145870 -0.494649
vn 0.856760 0.145869 -0.494656
vn 0.856760 0.145869 -0.494656
vn 0.856760 0.145870 -0.494656
vn 0.856760 0.145869 -0.494656
vn 0.856760 0.145869 -0.494656
vn 0.856760 0.145870 -0.494656
vn 0.856762 0.145869 -0.494652
vn 0.856760 0.145870 -0.494656
vn 0.862312 0.092512 0.497856
vn 0.862312 0.092512 0.497856
vn 0.862312 0.092512 0.497856
vn 0.862312 0.092512 0.497856
vn 0.862312 0.092512 0.497856
vn 0.862312 0.092512 0.497856
vn 0.862312 0.092512 0.497856
vn 0.000005 0.145870 0.989304
vn -0.000000 0.145870 0.989304
vn -0.000001 0.145870 0.989304
vn -0.000001 0.145870 0.989304
vn 0.000005 0.145870 0.989304
vn 0.000001 0.145869 0.989304
vn -0.000000 0.145870 0.989304
vn -0.862312 0.092512 0.497855
vn -0.862312 0.092512 0.497855
vn -0.862312 0.092512 0.497855
vn -0.862312 0.092512 0.497855
vn -0.862313 0.092512 0.497853
vn -0.862313 0.092512 0.497853
vn -0.862312 0.092511 0.497855
vn -0.862313 0.092511 0.497853
vn -0.862313 0.092512 0.497853
vn -0.862313 0.092511 0.497853
vn -0.862312 0.092511 0.497855
vn -0.862312 0.092512 0.497855
vn -0.862313 0.092511 0.497854
vn -0.856763 0.145870 -0.494651
vn -0.856763 0.145870 -0.494651
vn -0.856763 0.145870 -0.494651
vn -0.856764 0.145870 -0.494648
vn -0.856763 0.145870 -0.494651
vn -0.856764 0.145870 -0.494648
vn -0.856760 0.145869 -0.494655
vn 0.000003 0.092512 -0.995712
vn 0.000003 0.092512 -0.995712
vn -0.000001 0.092511 -0.995712
vn 0.000001 0.092512 -0.995712
vn 0.000001 0.092512 -0.995712
vn -0.000001 0.092511 -0.995712
vn -0.000002 0.092511 -0.995712
s off
f 1/3/1 2/4/2 8/8/3 7/10/4
f 2/4/5 3/14/6 68/15/7 66/16/8 8/8/9
f 3/14/10 4/17/11 10/18/12 67/19/13 68/15/14
f 4/17/15 5/32/16 11/33/17 10/18/18
f 5/32/19 6/34/20 65/35/21 63/36/22 11/33/23
f 6/34/24 1/3/25 7/10/26 64/39/27 65/35/28
f 2/2/29 1/1/30 13/13/31
f 3/5/32 2/2/33 13/13/34
f 4/7/35 3/5/36 13/13/37
f 5/9/38 4/7/39 13/13/40
f 6/11/41 5/9/42 13/13/43
f 1/1/44 6/11/45 13/13/46
f 38/40/47 39/41/48 40/42/49 41/43/50 42/69/51 43/70/52
f 7/10/53 8/8/54 15/71/55 14/72/56
f 8/8/57 66/16/58 16/73/59 15/71/60
f 10/18/61 17/74/62 16/73/63 67/19/64
f 10/18/65 11/33/66 18/75/67 17/74/68
f 11/33/69 63/36/70 12/76/71 19/77/72 18/75/73
f 12/76/74 64/39/75 7/10/76 14/72/77 19/77/78
f 14/21/79 15/20/80 21/26/81 20/27/82
f 15/20/83 16/22/84 22/28/85 21/26/86
f 16/22/87 17/23/88 23/29/89 22/28/90
f 17/23/91 18/24/92 24/30/93 23/29/94
f 18/24/95 19/25/96 25/31/97 24/30/98
f 19/25/99 14/21/100 20/27/101 25/31/102
f 26/78/103 20/79/104 21/80/105 34/81/106
f 28/82/107 24/83/108 25/84/109 32/85/110
f 25/84/111 20/79/112 26/78/113 32/85/114
f 44/44/115 46/46/116 30/37/117
f 26/78/118 34/81/119 53/86/120 51/87/121
f 29/88/122 57/89/123 55/90/124 33/91/125
f 27/92/126 35/93/127 22/94/128 23/95/129
f 61/96/130 50/97/131 48/98/132 35/93/133
f 36/99/134 49/100/135 47/101/136 37/102/137
f 21/80/138 22/94/139 35/93/140 34/81/141
f 28/82/142 62/103/143 59/104/144 27/92/145
f 23/95/146 24/83/147 28/82/148 27/92/149
f 29/88/150 33/91/151 39/41/152 38/40/153
f 33/91/154 44/105/155 45/106/156 40/42/157 39/41/158
f 45/106/159 36/99/160 41/43/161 40/42/162
f 36/99/163 37/102/164 42/69/165 41/43/166
f 37/102/167 31/107/168 43/70/169 42/69/170
f 31/107/171 29/88/172 38/40/173 43/70/174
f 45/45/175 44/44/176 30/37/177
f 30/37/178 36/38/179 45/45/180
f 46/46/181 36/38/182 30/37/183
f 54/108/184 58/109/185 56/110/186 32/85/187
f 48/48/188 50/50/189 49/49/190
f 49/49/191 50/50/192 47/47/193
f 51/51/194 53/53/195 54/54/196
f 54/54/197 53/53/198 52/52/199
f 56/56/200 58/58/201 57/57/202
f 57/57/203 58/58/204 55/55/205
f 59/59/206 62/62/207 61/61/208
f 61/61/209 62/62/210 60/60/211
f 65/65/212 64/64/213 12/12/214
f 63/63/215 65/65/216 12/12/217
f 68/68/218 67/67/219 9/6/220
f 66/66/221 68/68/222 9/6/223
f 16/73/224 66/16/225 9/111/226
f 9/111/227 67/19/228 16/73/229
f 61/96/230 35/93/231 27/92/232 59/104/233
f 37/102/234 47/101/235 50/97/236 31/107/237
f 31/107/238 50/97/239 61/96/240 60/112/241
f 49/100/242 34/81/243 35/93/244 48/98/245
f 36/99/246 34/81/247 49/100/248
f 53/86/249 36/99/250 46/113/251 52/114/252
f 53/86/253 34/81/254 36/99/255
f 54/108/256 32/85/257 26/78/258 51/87/259
f 33/91/260 55/90/261 58/109/262 46/113/263 44/105/264
f 46/113/265 58/109/266 54/108/267 52/114/268
f 28/82/269 32/85/270 56/110/271 57/89/272
f 28/82/273 57/89/274 29/88/275
f 31/107/276 60/112/277 62/103/278 29/88/279
f 29/88/280 62/103/281 28/82/282
