# This file uses centimeters as units for non-parametric coordinates.

v 11.798935 -12.054744 414.884430
v 15.596146 468.668701 13.825287
v 359.793823 207.807678 120.793747
v 114.515366 84.950066 268.630859
v 15.596146 258.420258 207.711365
v 15.596146 303.279968 96.744751
v 279.776001 174.634888 158.202652
v 364.053894 368.403076 13.825287
v 256.322601 504.348846 13.825287
v 109.884613 385.755737 13.825287
v 73.725494 269.938110 110.267761
v 196.574982 295.859711 76.812683
v 174.528351 216.356628 147.947556
v 265.666840 347.008209 71.347687
v 441.726685 272.690613 73.889038
v 444.355621 371.143921 13.825287
v 494.391968 297.178497 14.045761
v 481.236206 302.828247 -8.277802
v 11.798935 -12.054744 414.884430
v 15.596146 468.668701 13.825287
v 359.793823 207.807678 120.793747
v 114.515366 84.950066 268.630859
v 15.596146 258.420258 207.711365
v 15.596146 303.279968 96.744751
v 279.776001 174.634888 158.202652
v 364.053894 368.403076 13.825287
v 256.322601 504.348846 13.825287
v 109.884613 385.755737 13.825287
v 73.725494 269.938110 110.267761
v 196.574982 295.859711 76.812683
v 174.528351 216.356628 147.947556
v 265.666840 347.008209 71.347687
v 441.726685 272.690613 73.889038
v 444.355621 371.143921 13.825287
v 494.391968 297.178497 14.045761
v 481.236206 302.828247 -8.277802
vt 0.008001 0.547812
vt 0.010581 0.991685
vt 0.686712 0.833395
vt 0.174367 0.657556
vt 0.009257 0.763873
vt 0.009877 0.870619
vt 0.528999 0.779267
vt 0.695999 0.989548
vt 0.484091 0.990208
vt 0.196047 0.991107
vt 0.124103 0.850518
vt 0.366033 0.898611
vt 0.302792 0.819074
vt 0.501983 0.906166
vt 0.848272 0.901375
vt 0.853953 0.989055
vt 0.978266 0.956073
vt 0.952578 0.988747
vt 0.008001 0.547812
vt 0.174367 0.657556
vt 0.009257 0.763873
vt 0.366033 0.898611
vt 0.501983 0.906166
vt 0.484091 0.990208
vt 0.302792 0.819074
vt 0.528999 0.779267
vt 0.695999 0.989548
vt 0.686712 0.833395
vt 0.848272 0.901375
vt 0.853953 0.989055
vt 0.009877 0.870619
vt 0.124103 0.850518
vt 0.196047 0.991107
vt 0.010581 0.991685
vt 0.978266 0.956073
vt 0.952578 0.988747
vn -0.492763 -0.524757 -0.694129
vn -0.492763 -0.524757 -0.694129
vn -0.492763 -0.524757 -0.694129
vn 0.170397 -0.329401 -0.928687
vn 0.170397 -0.329401 -0.928687
vn 0.170397 -0.329401 -0.928687
vn -0.172355 -0.622440 -0.763454
vn -0.172355 -0.622440 -0.763454
vn -0.172355 -0.622440 -0.763454
vn -0.017297 -0.541501 -0.840522
vn -0.017297 -0.541501 -0.840522
vn -0.017297 -0.541501 -0.840522
vn -0.017297 -0.541501 -0.840522
vn -0.420753 -0.333429 -0.843678
vn -0.420753 -0.333429 -0.843678
vn -0.420753 -0.333429 -0.843678
vn -0.297684 -0.485874 -0.821773
vn -0.297684 -0.485874 -0.821773
vn -0.297684 -0.485874 -0.821773
vn -0.297684 -0.485874 -0.821773
vn -0.626361 -0.637255 -0.448975
vn -0.626361 -0.637255 -0.448975
vn -0.626361 -0.637255 -0.448975
vn -0.626361 -0.637255 -0.448975
vn 0.284260 -0.351003 -0.892185
vn 0.284260 -0.351003 -0.892185
vn 0.284260 -0.351003 -0.892185
vn -0.175535 -0.628964 -0.757358
vn -0.175535 -0.628964 -0.757358
vn -0.175535 -0.628964 -0.757358
vn -0.074792 -0.636394 -0.767730
vn -0.074792 -0.636394 -0.767730
vn -0.074792 -0.636394 -0.767730
vn -0.074792 -0.636394 -0.767730
vn -0.069049 -0.657513 -0.750273
vn -0.069049 -0.657513 -0.750273
vn -0.069049 -0.657513 -0.750273
vn 0.242281 -0.420686 -0.874256
vn 0.242281 -0.420686 -0.874256
vn 0.242281 -0.420686 -0.874256
vn -0.347142 -0.513489 -0.784743
vn -0.347142 -0.513489 -0.784743
vn -0.347142 -0.513489 -0.784743
vn -0.708323 -0.480709 -0.516911
vn -0.708323 -0.480709 -0.516911
vn -0.708323 -0.480709 -0.516911
vn -0.708323 -0.480709 -0.516911
vn -0.216279 -0.453392 -0.864673
vn -0.216279 -0.453392 -0.864673
vn -0.216279 -0.453392 -0.864673
vn 0.492763 0.524757 0.694129
vn 0.492763 0.524757 0.694129
vn 0.492763 0.524757 0.694129
vn -0.170398 0.329401 0.928687
vn -0.170398 0.329401 0.928687
vn -0.170398 0.329401 0.928687
vn 0.172355 0.622440 0.763454
vn 0.172355 0.622440 0.763454
vn 0.172355 0.622440 0.763454
vn 0.017297 0.541501 0.840522
vn 0.017297 0.541501 0.840522
vn 0.017297 0.541501 0.840522
vn 0.017297 0.541501 0.840522
vn 0.420753 0.333429 0.843678
vn 0.420753 0.333429 0.843678
vn 0.420753 0.333429 0.843678
vn 0.297684 0.485874 0.821773
vn 0.297684 0.485874 0.821773
vn 0.297684 0.485874 0.821773
vn 0.297684 0.485874 0.821773
vn 0.626361 0.637255 0.448975
vn 0.626361 0.637255 0.448975
vn 0.626361 0.637255 0.448975
vn 0.626361 0.637255 0.448975
vn -0.284260 0.351003 0.892185
vn -0.284260 0.351003 0.892185
vn -0.284260 0.351003 0.892185
vn 0.175535 0.628964 0.757358
vn 0.175535 0.628964 0.757358
vn 0.175535 0.628964 0.757358
vn 0.074792 0.636394 0.767730
vn 0.074792 0.636394 0.767730
vn 0.074792 0.636393 0.767730
vn 0.074792 0.636394 0.767730
vn 0.069049 0.657513 0.750273
vn 0.069049 0.657513 0.750273
vn 0.069049 0.657513 0.750273
vn -0.242281 0.420686 0.874256
vn -0.242281 0.420686 0.874256
vn -0.242281 0.420686 0.874256
vn 0.347142 0.513489 0.784743
vn 0.347142 0.513489 0.784743
vn 0.347142 0.513489 0.784743
vn 0.708323 0.480709 0.516911
vn 0.708323 0.480709 0.516911
vn 0.708323 0.480709 0.516911
vn 0.708323 0.480709 0.516911
vn 0.216279 0.453392 0.864673
vn 0.216279 0.453392 0.864673
vn 0.216279 0.453392 0.864673
s off
f 1/1/1 5/5/2 4/4/3
f 12/12/4 9/9/5 14/14/6
f 13/13/7 7/7/8 4/4/9
f 8/8/10 16/16/11 15/15/12 3/3/13
f 9/9/14 8/8/15 14/14/16
f 6/6/17 2/2/18 10/10/19 11/11/20
f 5/5/21 6/6/22 11/11/23 4/4/24
f 10/10/25 9/9/26 12/12/27
f 12/12/28 7/7/29 13/13/30
f 10/10/31 12/12/32 13/13/33 11/11/34
f 11/11/35 13/13/36 4/4/37
f 12/12/38 14/14/39 7/7/40
f 8/8/41 3/3/42 14/14/43
f 16/16/44 18/18/45 17/17/46 15/15/47
f 3/3/48 7/7/49 14/14/50
f 19/19/51 22/20/52 23/21/53
f 30/22/54 32/23/55 27/24/56
f 31/25/57 22/20/58 25/26/59
f 26/27/60 21/28/61 33/29/62 34/30/63
f 27/24/64 32/23/65 26/27/66
f 24/31/67 29/32/68 28/33/69 20/34/70
f 23/21/71 22/20/72 29/32/73 24/31/74
f 28/33/75 30/22/76 27/24/77
f 30/22/78 31/25/79 25/26/80
f 28/33/81 29/32/82 31/25/83 30/22/84
f 29/32/85 22/20/86 31/25/87
f 30/22/88 25/26/89 32/23/90
f 26/27/91 32/23/92 21/28/93
f 34/30/94 33/29/95 35/35/96 36/36/97
f 21/28/98 32/23/99 25/26/100
