# This file uses centimeters as units for non-parametric coordinates.

v 62.636730 50.000000 62.636810
v 0.000010 50.000000 88.582123
v -62.636707 50.000000 62.636810
v -88.582024 50.000000 0.000093
v 0.000010 50.000000 -88.581940
v 62.636730 50.000000 -62.636627
v 90.423836 47.904839 0.000093
v 75.072273 30.000000 75.072357
v 0.000010 30.000000 106.168060
v -75.072258 30.000000 75.072357
v -106.167961 30.000000 0.000093
v -75.072258 30.000000 -75.072174
v 0.000010 30.000000 -106.167877
v 75.072273 30.000000 -75.072174
v 106.167976 30.000000 0.000093
v 0.000010 50.000000 0.000093
v -67.640617 50.000000 -50.556549
v -44.343739 50.000000 -70.213776
v -64.501945 47.000000 -64.501862
v -53.242176 50.000000 -53.241119
v 78.492195 50.000000 -24.360258
v 81.083992 50.000000 18.103609
v 78.380867 50.000000 0.000093
v 46.783215 50.000000 69.204193
v 6.291025 50.000000 85.975677
v 24.701181 47.567722 80.489349
v 23.441416 50.000000 73.330170
v 104.537117 0.000000 -104.537994
v 0.000010 0.000000 -147.838776
v -104.537102 0.000000 -104.537994
v -147.839828 0.000000 0.000093
v -104.537102 0.000000 104.538177
v 0.000010 0.000000 147.838959
v 104.537117 0.000000 104.538177
v 147.839859 0.000000 0.000093
v 83.654305 26.485518 -83.654205
v 0.000010 30.000000 -114.162994
v -80.724602 30.000000 -80.725494
v -117.744133 26.961700 0.000093
v -80.724602 30.000000 80.725677
v 80.724617 30.000000 80.725677
v 114.162117 30.000000 0.000093
v 95.341805 12.461399 -95.342682
v 134.834000 12.461399 0.000093
v 95.341805 12.461399 95.341888
v 0.000010 12.461399 134.834076
v -95.341789 12.461399 95.341888
v -134.833969 12.461399 0.000093
v -95.341789 12.461399 -95.342682
v 0.000010 12.461399 -134.834869
v 104.537117 11.280964 -104.537994
v 0.000010 11.280964 -147.838776
v -104.537102 8.212790 -104.537994
v -147.839828 11.280964 0.000093
v 0.000010 11.280964 147.838959
v 104.537117 11.280964 104.538177
v 147.839859 11.280964 0.000093
v 0.000010 30.000000 0.000093
v 0.000010 0.000000 0.000093
v -104.537102 8.460724 104.538177
v -115.363274 11.280964 78.403412
v -78.404289 11.280964 115.363373
v -94.509758 11.280964 -108.691315
v -99.107414 11.978172 -99.106354
v -120.212883 11.280964 -66.696198
v 73.054695 30.000002 -83.903229
v 75.705086 30.000000 -75.704987
v 93.783211 30.000000 -49.201080
v 126.365242 11.280964 51.843842
v 142.328140 11.280964 13.304780
v 139.236343 8.329762 20.767672
v 130.644547 11.794018 27.867281
v -4.916006 30.000000 112.127045
v 11.314463 30.000000 109.476654
v 0.000010 19.961792 125.994232
v -96.533195 30.000000 42.564545
v -111.169914 30.000000 -7.227447
v -110.085930 30.000000 0.000093
vt 0.062784 0.828522
vt 0.089517 0.830152
vt 0.079951 0.837548
vt 0.076339 0.839649
vt 0.063574 0.880463
vt 0.046509 0.882396
vt 0.084091 0.918219
vt 0.073551 0.931760
vt 0.124469 0.922250
vt 0.125479 0.932950
vt 0.117233 0.928118
vt 0.162916 0.909979
vt 0.175312 0.869018
vt 0.192332 0.866815
vt 0.176646 0.921079
vt 0.162844 0.846162
vt 0.155830 0.830018
vt 0.142831 0.827914
vt 0.113871 0.819730
vt 0.112180 0.802192
vt 0.150867 0.836282
vt 0.119484 0.874937
vt 0.092786 0.833957
vt 0.136425 0.924484
vt 0.104387 0.824464
vt 0.165178 0.818151
vt 0.126995 0.947234
vt 0.182003 0.949976
vt 0.110794 0.972092
vt 0.111621 0.963793
vt 0.176674 0.943539
vt 0.051387 0.940182
vt 0.051258 0.931739
vt 0.048518 0.934228
vt 0.037113 0.911571
vt 0.022293 0.866121
vt 0.030738 0.866749
vt 0.128766 0.777271
vt 0.195257 0.812185
vt 0.188760 0.817487
vt 0.127970 0.785638
vt 0.205948 0.848192
vt 0.208861 0.883215
vt 0.207558 0.864414
vt 0.214380 0.875910
vt 0.216960 0.883978
vt 0.191278 0.881567
vt 0.175458 0.828633
vt 0.045352 0.867911
vt 0.062420 0.805810
vt 0.061410 0.842198
vt 0.073623 0.819180
vt 0.064759 0.920436
vt 0.049427 0.872752
vt 0.113149 0.946529
vt 0.185821 0.941116
vt 0.119420 0.968619
vt 0.053019 0.941116
vt 0.044026 0.938359
vt 0.025514 0.874713
vt 0.056597 0.798821
vt 0.074882 0.794201
vt 0.129535 0.770204
vt 0.185821 0.808311
vt 0.213326 0.874713
vt 0.214105 0.870353
vt 0.167713 0.932807
vt 0.160719 0.931605
vt 0.162943 0.926757
vt 0.119871 0.874512
vt 0.050537 0.868316
vt 0.127348 0.793125
vt 0.133317 0.806504
vt 0.123403 0.804018
vt 0.175866 0.911292
vt 0.119420 0.874713
vt 0.052721 0.794164
vt 0.048703 0.815988
vt 0.053019 0.808311
vt 0.014926 0.865483
vt 0.119420 0.780807
vt 0.223914 0.884965
vt 0.186610 0.955348
vt 0.200702 0.807281
vt 0.040151 0.941931
vt 0.110087 0.979223
vn 0.297021 0.630544 0.717072
vn 0.297021 0.630544 0.717072
vn 0.297021 0.630544 0.717072
vn 0.297021 0.630544 0.717072
vn -0.297021 0.630545 0.717072
vn -0.297021 0.630545 0.717072
vn -0.297021 0.630545 0.717072
vn -0.297021 0.630545 0.717072
vn -0.717072 0.630544 0.297021
vn -0.717072 0.630544 0.297021
vn -0.717072 0.630544 0.297021
vn -0.717072 0.630544 0.297021
vn -0.040816 0.974892 -0.218904
vn -0.040816 0.974892 -0.218904
vn -0.040816 0.974892 -0.218904
vn 0.297021 0.630544 -0.717072
vn 0.297021 0.630544 -0.717072
vn 0.297021 0.630544 -0.717072
vn 0.297021 0.630544 -0.717072
vn 0.717072 0.630544 -0.297021
vn 0.717072 0.630544 -0.297021
vn 0.717072 0.630544 -0.297021
vn 0.717072 0.630544 -0.297021
vn 0.717072 0.630544 0.297021
vn 0.717072 0.630544 0.297021
vn 0.717072 0.630544 0.297021
vn 0.717072 0.630544 0.297021
vn 0.000000 1.000000 -0.000000
vn 0.000000 1.000000 -0.000000
vn 0.000000 1.000000 -0.000000
vn 0.000000 1.000000 -0.000000
vn 0.000000 1.000000 -0.000000
vn 0.000000 1.000000 -0.000000
vn 0.000000 1.000000 -0.000000
vn 0.000000 1.000000 -0.000000
vn 0.000000 1.000000 0.000000
vn 0.000000 1.000000 0.000000
vn 0.000000 1.000000 0.000000
vn 0.000000 1.000000 -0.000000
vn 0.000000 1.000000 -0.000000
vn 0.000000 1.000000 -0.000000
vn 0.000000 1.000000 0.000000
vn 0.000000 1.000000 0.000000
vn 0.000000 1.000000 0.000000
vn 0.000000 1.000000 0.000000
vn 0.000000 1.000000 0.000000
vn 0.000000 1.000000 0.000000
vn 0.000000 1.000000 0.000000
vn 0.000000 1.000000 0.000000
vn 0.000000 1.000000 0.000000
vn 0.000000 1.000000 0.000000
vn 0.000000 1.000000 0.000000
vn 0.000000 1.000000 -0.000000
vn 0.000000 1.000000 -0.000000
vn 0.000000 1.000000 -0.000000
vn 0.000000 1.000000 -0.000000
vn -0.297021 0.630544 -0.717072
vn -0.297021 0.630544 -0.717072
vn -0.297021 0.630544 -0.717072
vn -0.297021 0.630544 -0.717072
vn -0.717072 0.630544 -0.297021
vn -0.717072 0.630544 -0.297021
vn -0.717072 0.630544 -0.297021
vn -0.717072 0.630544 -0.297021
vn -0.171476 0.981079 -0.089893
vn -0.171476 0.981079 -0.089893
vn -0.171476 0.981079 -0.089893
vn 0.171347 0.984879 -0.025571
vn 0.171347 0.984879 -0.025571
vn 0.171347 0.984879 -0.025571
vn 0.171403 0.985201 0.000773
vn 0.171403 0.985201 0.000773
vn 0.171403 0.985201 0.000773
vn 0.055233 0.948323 0.312461
vn 0.055233 0.948323 0.312461
vn 0.055233 0.948323 0.312461
vn 0.207725 0.936742 0.281718
vn 0.207725 0.936742 0.281718
vn 0.207725 0.936742 0.281718
vn 0.297021 0.630544 0.717072
vn 0.297021 0.630544 0.717072
vn 0.297021 0.630544 0.717072
vn 0.297021 0.630544 0.717072
vn 0.297021 0.630545 0.717072
vn 0.297021 0.630545 0.717072
vn 0.297021 0.630545 0.717072
vn 0.717072 0.630544 0.297021
vn 0.717072 0.630544 0.297021
vn 0.717072 0.630544 0.297021
vn 0.717072 0.630544 -0.297021
vn 0.717072 0.630544 -0.297021
vn 0.717072 0.630544 -0.297021
vn -0.297020 0.630545 -0.717072
vn -0.297020 0.630545 -0.717072
vn -0.297020 0.630545 -0.717072
vn -0.717072 0.630544 -0.297021
vn -0.717072 0.630544 -0.297021
vn -0.717072 0.630544 -0.297021
vn 0.000000 1.000000 -0.000000
vn 0.000000 1.000000 -0.000000
vn 0.000000 1.000000 -0.000000
vn 0.000000 1.000000 -0.000000
vn 0.037418 0.995208 -0.090335
vn 0.037418 0.995208 -0.090335
vn 0.037418 0.995208 -0.090335
vn 0.037418 0.995208 -0.090335
vn -0.037418 0.995208 -0.090335
vn -0.037418 0.995208 -0.090335
vn -0.037418 0.995208 -0.090335
vn -0.037418 0.995208 -0.090335
vn -0.037418 0.995208 -0.090335
vn -0.037418 0.995208 -0.090335
vn -0.037418 0.995208 -0.090335
vn -0.090336 0.995208 -0.037418
vn -0.090336 0.995208 -0.037418
vn -0.090336 0.995208 -0.037418
vn -0.090336 0.995208 -0.037418
vn -0.090336 0.995208 -0.037418
vn -0.090336 0.995208 -0.037418
vn -0.090336 0.995208 -0.037418
vn 0.037419 0.995208 0.090336
vn 0.037419 0.995208 0.090336
vn 0.037419 0.995208 0.090336
vn 0.037419 0.995208 0.090336
vn 0.090336 0.995208 0.037418
vn 0.090336 0.995208 0.037418
vn 0.090336 0.995208 0.037418
vn 0.090336 0.995208 0.037418
vn 0.090336 0.995208 0.037418
vn 0.090336 0.995208 0.037418
vn 0.090336 0.995208 0.037418
vn 0.090336 0.995208 0.037418
vn 0.090336 0.995208 0.037418
vn 0.090336 0.995208 0.037418
vn 0.090336 0.995208 0.037418
vn 0.090336 0.995208 -0.037418
vn 0.090336 0.995208 -0.037418
vn 0.090336 0.995208 -0.037418
vn 0.090336 0.995208 -0.037418
vn 0.624912 0.736534 0.258847
vn 0.624912 0.736534 0.258847
vn 0.624912 0.736534 0.258847
vn 0.624912 0.736534 0.258847
vn -0.624912 0.736534 0.258847
vn -0.624912 0.736534 0.258847
vn -0.624912 0.736534 0.258847
vn -0.624912 0.736534 0.258847
vn -0.624912 0.736534 0.258847
vn -0.624912 0.736534 0.258847
vn -0.624912 0.736534 0.258847
vn -0.624912 0.736534 -0.258848
vn -0.624912 0.736534 -0.258848
vn -0.624912 0.736534 -0.258848
vn -0.624912 0.736534 -0.258848
vn -0.624912 0.736534 -0.258848
vn -0.624912 0.736534 -0.258848
vn -0.624912 0.736534 -0.258848
vn -0.258848 0.736534 -0.624912
vn -0.258848 0.736534 -0.624912
vn -0.258848 0.736534 -0.624912
vn -0.258848 0.736534 -0.624912
vn 0.382685 0.000000 -0.923879
vn 0.382685 0.000000 -0.923879
vn 0.382685 0.000000 -0.923879
vn 0.382685 0.000000 -0.923879
vn -0.382685 -0.000000 -0.923879
vn -0.382685 -0.000000 -0.923879
vn -0.382685 -0.000000 -0.923879
vn -0.382685 -0.000000 -0.923879
vn -0.382685 -0.000000 -0.923879
vn -0.382685 -0.000000 -0.923879
vn -0.382685 -0.000000 -0.923879
vn -0.923879 0.000000 -0.382684
vn -0.923879 0.000000 -0.382684
vn -0.923879 0.000000 -0.382684
vn -0.923879 0.000000 -0.382684
vn -0.923879 0.000000 -0.382684
vn -0.923879 0.000000 -0.382684
vn -0.923879 0.000000 -0.382684
vn -0.194692 0.955628 0.221066
vn -0.194692 0.955628 0.221066
vn -0.194692 0.955628 0.221066
vn 0.382683 0.000000 0.923880
vn 0.382683 0.000000 0.923880
vn 0.382683 0.000000 0.923880
vn 0.382683 0.000000 0.923880
vn 0.923880 -0.000001 0.382683
vn 0.923880 -0.000001 0.382683
vn 0.923880 -0.000001 0.382683
vn 0.923880 -0.000001 0.382683
vn 0.923880 -0.000001 0.382683
vn 0.923880 -0.000001 0.382683
vn 0.923880 -0.000001 0.382683
vn 0.923880 -0.000001 0.382683
vn 0.923880 -0.000001 0.382683
vn 0.923880 -0.000001 0.382683
vn 0.923880 -0.000001 0.382683
vn 0.923880 0.000000 -0.382683
vn 0.923880 0.000000 -0.382683
vn 0.923880 0.000000 -0.382683
vn 0.923880 0.000000 -0.382683
vn 0.315209 0.943534 -0.101917
vn 0.315209 0.943534 -0.101917
vn 0.315209 0.943534 -0.101917
vn 0.000000 1.000000 0.000000
vn 0.000000 1.000000 0.000000
vn 0.000000 1.000000 0.000000
vn 0.000000 1.000000 0.000000
vn 0.000000 1.000000 0.000000
vn 0.000000 1.000000 0.000000
vn 0.000000 1.000000 0.000000
vn 0.000000 1.000000 0.000000
vn 0.000000 1.000000 0.000000
vn 0.000000 1.000000 0.000000
vn 0.000000 1.000000 0.000000
vn 0.091818 0.821806 0.562320
vn 0.091818 0.821806 0.562320
vn 0.091818 0.821806 0.562320
vn 0.000000 1.000000 -0.000000
vn 0.000000 1.000000 -0.000000
vn 0.000000 1.000000 -0.000000
vn 0.250449 0.952938 -0.170836
vn 0.250449 0.952938 -0.170836
vn 0.250449 0.952938 -0.170836
vn 0.000000 -1.000000 0.000000
vn 0.000000 -1.000000 0.000000
vn 0.000000 -1.000000 0.000000
vn 0.000000 -1.000000 0.000000
vn 0.000000 -1.000000 0.000000
vn 0.000000 -1.000000 0.000000
vn 0.000000 -1.000000 -0.000000
vn 0.000000 -1.000000 -0.000000
vn 0.000000 -1.000000 -0.000000
vn 0.000000 -1.000000 0.000000
vn 0.000000 -1.000000 0.000000
vn 0.000000 -1.000000 0.000000
vn 0.000000 -1.000000 0.000000
vn 0.000000 -1.000000 0.000000
vn 0.000000 -1.000000 0.000000
vn 0.000000 -1.000000 0.000000
vn 0.000000 -1.000000 0.000000
vn 0.000000 -1.000000 0.000000
vn 0.000000 -1.000000 -0.000000
vn 0.000000 -1.000000 -0.000000
vn 0.000000 -1.000000 -0.000000
vn 0.000000 -1.000000 -0.000000
vn 0.000000 -1.000000 -0.000000
vn 0.000000 -1.000000 -0.000000
vn -0.923880 -0.000001 0.382684
vn -0.923880 -0.000001 0.382684
vn -0.923880 -0.000001 0.382684
vn -0.923880 -0.000001 0.382684
vn -0.923880 -0.000001 0.382684
vn -0.923880 -0.000001 0.382684
vn -0.923880 -0.000001 0.382684
vn -0.382683 -0.000000 0.923880
vn -0.382683 -0.000000 0.923880
vn -0.382683 -0.000000 0.923880
vn -0.382683 -0.000000 0.923880
vn -0.382683 -0.000000 0.923880
vn -0.382683 -0.000000 0.923880
vn -0.382683 -0.000000 0.923880
vn -0.037419 0.995208 0.090337
vn -0.037419 0.995208 0.090337
vn -0.037419 0.995208 0.090337
vn -0.037419 0.995208 0.090337
vn -0.090336 0.995208 0.037418
vn -0.090336 0.995208 0.037418
vn -0.090336 0.995208 0.037418
vn -0.090336 0.995208 0.037418
vn -0.221066 0.955628 0.194693
vn -0.221066 0.955628 0.194693
vn -0.221066 0.955628 0.194693
vn -0.374994 0.894103 -0.244867
vn -0.374994 0.894103 -0.244867
vn -0.374994 0.894103 -0.244867
vn -0.386385 0.892575 -0.232416
vn -0.386385 0.892575 -0.232416
vn -0.386385 0.892575 -0.232416
vn -0.000000 1.000000 -0.000000
vn -0.000000 1.000000 -0.000000
vn -0.000000 1.000000 -0.000000
vn -0.000000 1.000000 -0.000000
vn 0.000000 1.000000 0.000000
vn 0.000000 1.000000 0.000000
vn 0.000000 1.000000 0.000000
vn 0.000000 1.000000 0.000000
vn 0.624912 0.736534 -0.258848
vn 0.624912 0.736534 -0.258848
vn 0.624912 0.736534 -0.258848
vn 0.624912 0.736534 -0.258848
vn 0.624912 0.736534 -0.258848
vn 0.624912 0.736534 -0.258848
vn 0.624912 0.736534 -0.258848
vn 0.258848 0.736534 -0.624912
vn 0.258848 0.736534 -0.624912
vn 0.258848 0.736534 -0.624912
vn 0.258848 0.736534 -0.624912
vn 0.258848 0.736534 -0.624912
vn 0.258848 0.736534 -0.624912
vn 0.258848 0.736534 -0.624912
vn 0.644672 0.581043 0.496778
vn 0.644672 0.581043 0.496778
vn 0.644672 0.581043 0.496778
vn 0.440518 0.892410 0.097718
vn 0.440518 0.892410 0.097718
vn 0.440518 0.892410 0.097718
vn 0.258847 0.736535 0.624911
vn 0.258847 0.736535 0.624911
vn 0.258847 0.736535 0.624911
vn 0.258847 0.736535 0.624911
vn 0.258847 0.736535 0.624911
vn 0.258847 0.736535 0.624911
vn 0.258847 0.736535 0.624911
vn 0.000000 1.000000 0.000000
vn 0.000000 1.000000 0.000000
vn 0.000000 1.000000 0.000000
vn 0.000000 1.000000 0.000000
vn 0.000000 1.000000 -0.000000
vn 0.000000 1.000000 -0.000000
vn 0.000000 1.000000 -0.000000
vn -0.258847 0.736535 0.624911
vn -0.258847 0.736535 0.624911
vn -0.258847 0.736535 0.624911
vn -0.258847 0.736535 0.624911
vn -0.258847 0.736535 0.624911
vn -0.258847 0.736535 0.624911
vn -0.258847 0.736535 0.624911
vn -0.368246 0.928090 0.055176
vn -0.368246 0.928090 0.055176
vn -0.368246 0.928090 0.055176
vn -0.366290 0.923161 0.116642
vn -0.366290 0.923161 0.116642
vn -0.366290 0.923161 0.116642
s off
f 9/1/1 26/2/2 25/3/3 2/4/4
f 2/4/5 3/5/6 10/6/7 9/1/8
f 3/5/9 4/7/10 11/8/11 10/6/12
f 20/9/13 19/10/14 17/11/15
f 5/12/16 6/13/17 14/14/18 13/15/19
f 6/13/20 21/16/21 7/17/22 14/14/23
f 7/17/24 22/18/25 1/19/26 8/20/27
f 1/19/28 22/18/29 23/21/30 16/22/31
f 23/21/32 21/16/33 6/13/34 16/22/35
f 6/13/36 5/12/37 16/22/38
f 4/7/39 3/5/40 16/22/41
f 3/5/42 2/4/43 16/22/44
f 2/4/45 25/3/46 27/23/47 16/22/48
f 20/9/49 17/11/50 4/7/51 16/22/52
f 5/12/53 18/24/54 20/9/55 16/22/56
f 19/10/57 18/24/58 5/12/59 13/15/60
f 4/7/61 17/11/62 19/10/63 11/8/64
f 20/9/65 18/24/66 19/10/67
f 23/21/68 22/18/69 7/17/70
f 7/17/71 21/16/72 23/21/73
f 27/23/74 26/2/75 24/25/76
f 25/3/77 26/2/78 27/23/79
f 1/19/80 24/25/81 26/2/82 8/20/83
f 8/20/84 26/2/85 9/1/86
f 7/17/87 8/20/88 15/26/89
f 14/14/90 7/17/91 15/26/92
f 19/10/93 13/15/94 12/27/95
f 11/8/96 19/10/97 12/27/98
f 16/22/99 27/23/100 24/25/101 1/19/102
f 51/28/103 52/29/104 50/30/105 43/31/106
f 50/30/107 52/29/108 63/32/109 49/33/110
f 64/34/111 49/33/112 63/32/113
f 65/35/114 54/36/115 48/37/116 49/33/117
f 64/34/118 65/35/119 49/33/120
f 55/38/121 56/39/122 45/40/123 46/41/124
f 45/40/125 56/39/126 69/42/127 44/43/128
f 69/42/129 72/44/130 44/43/131
f 44/43/132 72/44/133 70/45/134 57/46/135
f 57/46/136 51/28/137 43/31/138 44/43/139
f 45/40/140 44/43/141 42/47/142 41/48/143
f 39/49/144 48/37/145 47/50/146 76/51/147
f 47/50/148 40/52/149 76/51/150
f 38/53/151 49/33/152 48/37/153 77/54/154
f 48/37/155 39/49/156 77/54/157
f 50/30/158 49/33/159 38/53/160 37/55/161
f 28/83/162 29/86/163 52/29/164 51/28/165
f 52/29/166 29/86/167 30/85/168 53/59/169
f 53/59/170 63/32/171 52/29/172
f 53/59/173 30/85/174 31/80/175 65/35/176
f 31/80/177 54/36/178 65/35/179
f 47/50/180 60/61/181 62/62/182
f 33/63/183 34/84/184 56/39/185 55/38/186
f 56/39/187 34/84/188 35/82/189 69/42/190
f 69/42/191 35/82/192 71/66/193
f 70/45/194 71/66/195 35/82/196 57/46/197
f 35/82/198 28/83/199 51/28/200 57/46/201
f 36/67/202 66/68/203 67/69/204
f 37/55/205 38/53/206 58/70/207
f 38/53/208 77/54/209 78/71/210 58/70/211
f 78/71/212 76/51/213 40/52/214 58/70/215
f 75/72/216 74/73/217 73/74/218
f 41/48/219 42/47/220 58/70/221
f 67/69/222 68/75/223 36/67/224
f 28/56/225 35/65/226 59/76/227
f 35/65/228 34/64/229 59/76/230
f 34/64/231 33/81/232 59/76/233
f 33/81/234 32/79/235 59/76/236
f 32/79/237 31/60/238 59/76/239
f 31/60/240 30/58/241 59/76/242
f 30/58/243 29/57/244 59/76/245
f 29/57/246 28/56/247 59/76/248
f 54/36/249 31/80/250 32/77/251 61/78/252
f 60/61/253 61/78/254 32/77/255
f 60/61/256 32/77/257 33/63/258 62/62/259
f 33/63/260 55/38/261 62/62/262
f 47/50/263 62/62/264 55/38/265 46/41/266
f 54/36/267 61/78/268 47/50/269 48/37/270
f 61/78/271 60/61/272 47/50/273
f 64/34/274 63/32/275 53/59/276
f 53/59/277 65/35/278 64/34/279
f 67/69/280 66/68/281 37/55/282 58/70/283
f 42/47/284 68/75/285 67/69/286 58/70/287
f 42/47/288 44/43/289 43/31/290 68/75/291
f 43/31/292 36/67/293 68/75/294
f 43/31/295 50/30/296 36/67/297
f 66/68/298 36/67/299 50/30/300 37/55/301
f 72/44/302 71/66/303 70/45/304
f 69/42/305 71/66/306 72/44/307
f 46/41/308 45/40/309 75/72/310
f 74/73/311 75/72/312 45/40/313 41/48/314
f 73/74/315 74/73/316 41/48/317 58/70/318
f 40/52/319 73/74/320 58/70/321
f 40/52/322 47/50/323 46/41/324 75/72/325
f 75/72/326 73/74/327 40/52/328
f 78/71/329 77/54/330 39/49/331
f 39/49/332 76/51/333 78/71/334
