# This file uses centimeters as units for non-parametric coordinates.

v 250.000015 -20.000000 -25.000000
v 250.000015 20.000000 -25.000000
v -250.000000 -20.000000 -25.000000
v -246.424805 20.000000 -25.000000
v -250.000000 -14.218170 -25.000000
v -250.000000 -7.612823 -25.000000
v -234.571686 -8.990875 -25.000000
v -176.402649 -10.270508 -25.000000
v -226.394531 -15.587524 -25.000000
v -250.000000 -11.105804 -22.703094
v -224.968597 -12.594482 -22.703094
v 3.574750 -20.000000 -11.312225
v -142.864532 2.922043 -25.000000
v -3.599609 7.215424 -25.000000
v 154.126740 -2.177719 -25.000000
v 67.478760 -1.657959 -25.000000
v -57.289581 -4.005615 -25.000000
v 24.849854 20.000000 -25.000000
v 250.000015 4.359863 -25.000000
v 250.000015 14.002960 -25.000000
v 216.160934 5.935303 -25.000000
v 183.465912 12.021622 -25.000000
v 250.000015 9.919449 -21.725708
v 219.667953 10.766785 -21.725708
v 40.316147 1.509079 -22.671631
v -47.142303 0.240891 -22.671631
v -180.576538 -20.000000 -25.000000
v -29.229980 -12.058655 -25.000000
v 209.937897 -20.000000 -25.000000
v -144.736938 -14.747772 -25.000000
v -135.217865 20.000000 -25.000000
v -202.822083 20.000000 -25.000000
v -161.402008 15.049652 -25.000000
v -164.945526 20.000000 -18.558533
v 53.608246 20.000000 -25.000000
v 37.572433 17.039612 -25.000000
v 42.764046 20.000000 -14.875946
v 196.802582 20.000000 -25.000000
v 111.163605 20.000000 -25.000000
v 145.593384 15.862503 -25.000000
v 146.154922 20.000000 -19.207397
v -250.000000 20.000000 -18.221558
v -250.000000 4.106873 -25.000000
v -250.000015 20.000000 25.000000
v -250.000015 -20.000000 25.000000
v 250.000000 20.000000 25.000000
v 246.424805 -20.000000 25.000000
v 250.000000 14.218170 25.000000
v 250.000000 7.612823 25.000000
v 234.571686 8.990875 25.000000
v 176.402649 10.270508 25.000000
v 226.394531 15.587524 25.000000
v 250.000000 11.105804 22.703094
v 224.968597 12.594482 22.703094
v -2.859505 20.000000 12.577820
v 142.864532 -2.922043 25.000000
v 3.599609 -7.215424 25.000000
v -154.126740 2.177719 25.000000
v -67.478760 1.657959 25.000000
v 57.289581 4.005615 25.000000
v -24.849854 -20.000000 25.000000
v -250.000015 -4.359863 25.000000
v -250.000015 -14.002960 25.000000
v -216.160934 -5.935303 25.000000
v -183.465912 -12.021622 25.000000
v -250.000015 -9.919449 21.725708
v -219.667953 -10.766785 21.725708
v -40.316147 -1.509079 22.671631
v 47.142303 -0.240891 22.671631
v 180.576538 20.000000 25.000000
v 29.229980 12.058655 25.000000
v -209.937897 20.000000 25.000000
v 144.736938 14.747772 25.000000
v 135.217865 -20.000000 25.000000
v 202.822083 -20.000000 25.000000
v 161.402008 -15.049652 25.000000
v 164.945526 -20.000000 18.558533
v -53.608246 -20.000000 25.000000
v -37.572433 -17.039612 25.000000
v -43.479290 -20.000000 13.610352
v -196.802582 -20.000000 25.000000
v -111.163605 -20.000000 25.000000
v -145.593384 -15.862503 25.000000
v -146.154922 -20.000000 19.207397
v 250.000000 -20.000000 18.221558
v 250.000000 -4.106873 25.000000
vt 0.016766 0.302261
vt 0.016745 0.302306
vt 0.016741 0.302287
vt 0.016862 0.301741
vt 0.016850 0.301741
vt 0.016845 0.301741
vt 0.016839 0.301741
vt 0.016775 0.301751
vt 0.016774 0.301740
vt 0.016791 0.301740
vt 0.016794 0.302733
vt 0.016741 0.302731
vt 0.016734 0.302731
vt 0.016714 0.302730
vt 0.016726 0.302731
vt 0.016763 0.301908
vt 0.016799 0.302654
vt 0.016825 0.302233
vt 0.016845 0.301785
vt 0.016840 0.301771
vt 0.016850 0.301788
vt 0.016835 0.301833
vt 0.016789 0.302087
vt 0.016796 0.302194
vt 0.016781 0.302228
vt 0.016765 0.302515
vt 0.016779 0.302317
vt 0.016787 0.302351
vt 0.016738 0.302310
vt 0.016772 0.301955
vt 0.016769 0.301840
vt 0.016853 0.301870
vt 0.016742 0.302664
vt 0.016736 0.302671
vt 0.016739 0.302599
vt 0.016812 0.302214
vt 0.016835 0.301974
vt 0.016761 0.301968
vt 0.016738 0.302341
vt 0.016731 0.302456
vt 0.016735 0.302523
vt 0.016725 0.302522
vt 0.016720 0.302625
vt 0.016766 0.302261
vt 0.016745 0.302306
vt 0.016741 0.302287
vt 0.016862 0.301741
vt 0.016850 0.301741
vt 0.016845 0.301741
vt 0.016839 0.301741
vt 0.016775 0.301751
vt 0.016774 0.301740
vt 0.016791 0.301740
vt 0.016794 0.302733
vt 0.016741 0.302731
vt 0.016734 0.302731
vt 0.016714 0.302730
vt 0.016726 0.302731
vt 0.016763 0.301908
vt 0.016799 0.302654
vt 0.016825 0.302233
vt 0.016845 0.301785
vt 0.016840 0.301771
vt 0.016850 0.301788
vt 0.016835 0.301833
vt 0.016789 0.302087
vt 0.016796 0.302194
vt 0.016781 0.302228
vt 0.016765 0.302515
vt 0.016779 0.302317
vt 0.016787 0.302351
vt 0.016738 0.302310
vt 0.016772 0.301955
vt 0.016769 0.301840
vt 0.016853 0.301870
vt 0.016742 0.302664
vt 0.016736 0.302671
vt 0.016739 0.302599
vt 0.016812 0.302214
vt 0.016835 0.301974
vt 0.016761 0.301968
vt 0.016738 0.302341
vt 0.016731 0.302456
vt 0.016735 0.302523
vt 0.016725 0.302522
vt 0.016720 0.302625
vn 0.000000 0.000000 -1.000000
vn 0.000000 0.000000 -1.000000
vn 0.000000 0.000000 -1.000000
vn -0.867504 0.195146 -0.457553
vn -0.867504 0.195146 -0.457553
vn -0.867504 0.195146 -0.457553
vn -0.041212 -0.581652 -0.812393
vn -0.041212 -0.581652 -0.812393
vn -0.041212 -0.581652 -0.812393
vn -0.041212 -0.581652 -0.812393
vn 0.035001 0.595634 -0.802493
vn 0.035001 0.595634 -0.802493
vn 0.035001 0.595634 -0.802493
vn 0.035001 0.595634 -0.802493
vn -0.066714 0.627258 -0.775949
vn -0.066714 0.627258 -0.775949
vn -0.066714 0.627258 -0.775949
vn -0.012333 -0.560614 -0.827985
vn -0.012333 -0.560614 -0.827985
vn -0.012333 -0.560614 -0.827985
vn -0.000000 0.000001 -1.000000
vn -0.000000 0.000001 -1.000000
vn -0.000000 0.000001 -1.000000
vn 0.033777 0.417238 -0.908169
vn 0.033777 0.417238 -0.908169
vn 0.033777 0.417238 -0.908169
vn 0.003675 0.612598 -0.790386
vn 0.003675 0.612598 -0.790386
vn 0.003675 0.612598 -0.790386
vn -0.008814 0.517304 -0.855756
vn -0.008814 0.517304 -0.855756
vn -0.008814 0.517304 -0.855756
vn -0.008814 0.517304 -0.855756
vn 0.000000 0.000000 -1.000000
vn 0.000000 0.000000 -1.000000
vn 0.000000 0.000000 -1.000000
vn 0.000000 0.000000 -1.000000
vn 0.094994 0.510300 -0.854734
vn 0.094994 0.510300 -0.854734
vn 0.094994 0.510300 -0.854734
vn 0.024246 -0.814184 -0.580100
vn 0.024246 -0.814184 -0.580100
vn 0.024246 -0.814184 -0.580100
vn 0.019943 0.528234 -0.848864
vn 0.019943 0.528234 -0.848864
vn 0.019943 0.528234 -0.848864
vn 0.019943 0.528234 -0.848864
vn -0.017473 -0.625471 -0.780052
vn -0.017473 -0.625471 -0.780052
vn -0.017473 -0.625471 -0.780052
vn -0.035809 -0.601284 -0.798232
vn -0.035809 -0.601284 -0.798232
vn -0.035809 -0.601284 -0.798232
vn 0.004997 -0.344582 -0.938743
vn 0.004997 -0.344582 -0.938743
vn 0.004997 -0.344582 -0.938743
vn 0.011777 -0.382019 -0.924079
vn 0.011777 -0.382019 -0.924079
vn 0.011777 -0.382019 -0.924079
vn 0.000000 -0.000000 -1.000000
vn 0.000000 -0.000000 -1.000000
vn 0.000000 -0.000000 -1.000000
vn 0.000000 -0.000000 -1.000000
vn 0.019641 -0.843648 -0.536538
vn 0.019641 -0.843648 -0.536538
vn 0.019641 -0.843648 -0.536538
vn -0.029678 -0.893819 -0.447445
vn -0.029678 -0.893819 -0.447445
vn -0.029678 -0.893819 -0.447445
vn 0.066145 -0.451351 -0.889891
vn 0.066145 -0.451351 -0.889891
vn 0.066145 -0.451351 -0.889891
vn 0.097320 0.814283 -0.572252
vn 0.097320 0.814283 -0.572252
vn 0.097320 0.814283 -0.572252
vn -0.141033 0.745972 -0.650873
vn -0.141033 0.745972 -0.650873
vn -0.141033 0.745972 -0.650873
vn 0.210350 0.903999 -0.372207
vn 0.210350 0.903999 -0.372207
vn 0.210350 0.903999 -0.372207
vn -0.178205 0.965302 -0.190882
vn -0.178205 0.965302 -0.190882
vn -0.178205 0.965302 -0.190882
vn 0.096793 0.805456 -0.584699
vn 0.096793 0.805456 -0.584699
vn 0.096793 0.805456 -0.584699
vn -0.065847 0.814981 -0.575735
vn -0.065847 0.814981 -0.575735
vn -0.065847 0.814981 -0.575735
vn 0.000000 0.000000 -1.000000
vn 0.000000 0.000000 -1.000000
vn 0.000000 0.000000 -1.000000
vn 0.000000 0.000000 -1.000000
vn -0.000000 0.000000 -1.000000
vn -0.000000 0.000000 -1.000000
vn -0.000000 0.000000 -1.000000
vn -0.000000 0.000000 -1.000000
vn 0.000000 0.000000 -1.000000
vn 0.000000 0.000000 -1.000000
vn 0.000000 0.000000 -1.000000
vn 0.000000 0.000000 -1.000000
vn -0.000000 0.000000 -1.000000
vn -0.000000 0.000000 -1.000000
vn -0.000000 0.000000 -1.000000
vn -0.000000 0.000000 -1.000000
vn 0.000000 0.000000 -1.000000
vn 0.000000 0.000000 -1.000000
vn 0.000000 0.000000 -1.000000
vn 0.000000 0.000000 -1.000000
vn 0.000000 0.000000 -1.000000
vn 0.000000 0.000000 -1.000000
vn 0.000000 0.000000 -1.000000
vn 0.000000 0.000000 -1.000000
vn 0.000000 0.000000 -1.000000
vn 0.000000 0.000000 -1.000000
vn 0.000000 0.000000 -1.000000
vn 0.000000 0.000000 -1.000000
vn 0.000000 0.000000 -1.000000
vn 0.000000 0.000000 -1.000000
vn 0.000000 0.000000 -1.000000
vn 0.000000 0.000000 -1.000000
vn 0.000000 0.000000 -1.000000
vn 0.000000 0.000000 -1.000000
vn 0.000000 0.000000 -1.000000
vn 0.000000 0.000000 -1.000000
vn 0.000000 0.000000 -1.000000
vn 0.000000 0.000000 -1.000000
vn 0.000000 0.000000 -1.000000
vn 0.000000 0.000000 -1.000000
vn 0.000000 0.000000 -1.000000
vn 0.000000 0.000000 -1.000000
vn 0.000000 -0.000000 -1.000000
vn 0.000000 -0.000000 -1.000000
vn 0.000000 -0.000000 -1.000000
vn 0.000000 -0.000000 -1.000000
vn 0.000000 0.000000 -1.000000
vn 0.000000 0.000000 -1.000000
vn 0.000000 0.000000 -1.000000
vn -0.000000 -0.000000 -1.000000
vn -0.000000 -0.000000 -1.000000
vn -0.000000 -0.000000 -1.000000
vn -0.000000 -0.000000 -1.000000
vn 0.000000 0.000000 -1.000000
vn 0.000000 0.000000 -1.000000
vn 0.000000 0.000000 -1.000000
vn 0.000000 0.000000 1.000000
vn 0.000000 0.000000 1.000000
vn 0.000000 0.000000 1.000000
vn 0.867504 -0.195146 0.457553
vn 0.867504 -0.195146 0.457553
vn 0.867504 -0.195146 0.457553
vn -1.000000 -0.000000 -0.000000
vn -1.000000 -0.000000 -0.000000
vn -1.000000 -0.000000 -0.000000
vn -1.000000 -0.000000 -0.000000
vn 0.000000 -1.000000 0.000000
vn 0.000000 -1.000000 0.000000
vn 0.000000 -1.000000 0.000000
vn 0.000000 -1.000000 0.000000
vn 0.000000 1.000000 -0.000000
vn 0.000000 1.000000 -0.000000
vn 0.000000 1.000000 -0.000000
vn 0.000000 1.000000 -0.000000
vn 0.041212 0.581652 0.812393
vn 0.041212 0.581652 0.812393
vn 0.041212 0.581652 0.812393
vn 0.041212 0.581652 0.812393
vn -0.035001 -0.595634 0.802493
vn -0.035001 -0.595634 0.802493
vn -0.035001 -0.595634 0.802493
vn -0.035001 -0.595634 0.802493
vn 0.066714 -0.627258 0.775949
vn 0.066714 -0.627258 0.775949
vn 0.066714 -0.627258 0.775949
vn 0.012333 0.560614 0.827986
vn 0.012333 0.560614 0.827986
vn 0.012333 0.560614 0.827986
vn 0.000000 -0.000001 1.000000
vn 0.000000 -0.000001 1.000000
vn 0.000000 -0.000001 1.000000
vn -0.033777 -0.417238 0.908169
vn -0.033777 -0.417238 0.908169
vn -0.033777 -0.417238 0.908169
vn -0.003675 -0.612598 0.790386
vn -0.003675 -0.612598 0.790386
vn -0.003675 -0.612598 0.790386
vn 0.008814 -0.517304 0.855756
vn 0.008814 -0.517304 0.855756
vn 0.008814 -0.517304 0.855756
vn 0.008814 -0.517304 0.855756
vn 0.000000 0.000000 1.000000
vn 0.000000 0.000000 1.000000
vn 0.000000 0.000000 1.000000
vn 0.000000 0.000000 1.000000
vn 0.000000 1.000000 0.000000
vn 0.000000 1.000000 0.000000
vn 0.000000 1.000000 0.000000
vn 0.000000 1.000000 0.000000
vn -0.094994 -0.510300 0.854734
vn -0.094994 -0.510300 0.854734
vn -0.094994 -0.510300 0.854734
vn -0.024246 0.814184 0.580100
vn -0.024246 0.814184 0.580100
vn -0.024246 0.814184 0.580100
vn -0.019943 -0.528234 0.848864
vn -0.019943 -0.528234 0.848864
vn -0.019943 -0.528234 0.848864
vn -0.019943 -0.528234 0.848864
vn 0.017473 0.625471 0.780052
vn 0.017473 0.625471 0.780052
vn 0.017473 0.625471 0.780052
vn 0.035809 0.601284 0.798232
vn 0.035809 0.601284 0.798232
vn 0.035809 0.601284 0.798232
vn -0.004997 0.344582 0.938743
vn -0.004997 0.344582 0.938743
vn -0.004997 0.344582 0.938743
vn -0.011777 0.382019 0.924079
vn -0.011777 0.382019 0.924079
vn -0.011777 0.382019 0.924079
vn -0.000000 0.000000 1.000000
vn -0.000000 0.000000 1.000000
vn -0.000000 0.000000 1.000000
vn -0.000000 0.000000 1.000000
vn -0.019074 0.819303 0.573043
vn -0.019074 0.819303 0.573043
vn -0.019074 0.819303 0.573043
vn 0.029038 0.874546 0.484073
vn 0.029038 0.874546 0.484073
vn 0.029038 0.874546 0.484073
vn -0.061358 0.418686 0.906056
vn -0.061358 0.418686 0.906056
vn -0.061358 0.418686 0.906056
vn -0.097320 -0.814283 0.572252
vn -0.097320 -0.814283 0.572252
vn -0.097320 -0.814283 0.572252
vn 0.141033 -0.745972 0.650873
vn 0.141033 -0.745972 0.650873
vn 0.141033 -0.745972 0.650873
vn -0.212503 -0.913253 0.347580
vn -0.212503 -0.913253 0.347580
vn -0.212503 -0.913253 0.347580
vn 0.179223 -0.970812 0.159385
vn 0.179223 -0.970812 0.159385
vn 0.179223 -0.970812 0.159385
vn -0.096793 -0.805456 0.584699
vn -0.096793 -0.805456 0.584699
vn -0.096793 -0.805456 0.584699
vn 0.065847 -0.814981 0.575735
vn 0.065847 -0.814981 0.575735
vn 0.065847 -0.814981 0.575735
vn 0.000000 0.000000 1.000000
vn 0.000000 0.000000 1.000000
vn 0.000000 0.000000 1.000000
vn 0.000000 0.000000 1.000000
vn 0.000000 0.000000 1.000000
vn 0.000000 0.000000 1.000000
vn 0.000000 0.000000 1.000000
vn 0.000000 0.000000 1.000000
vn -0.000000 0.000000 1.000000
vn -0.000000 0.000000 1.000000
vn -0.000000 0.000000 1.000000
vn -0.000000 0.000000 1.000000
vn 0.000000 0.000000 1.000000
vn 0.000000 0.000000 1.000000
vn 0.000000 0.000000 1.000000
vn 0.000000 0.000000 1.000000
vn -0.000000 0.000000 1.000000
vn -0.000000 0.000000 1.000000
vn -0.000000 0.000000 1.000000
vn -0.000000 0.000000 1.000000
vn -0.000000 0.000000 1.000000
vn -0.000000 0.000000 1.000000
vn -0.000000 0.000000 1.000000
vn -0.000000 0.000000 1.000000
vn 0.000000 0.000000 1.000000
vn 0.000000 0.000000 1.000000
vn 0.000000 0.000000 1.000000
vn 0.000000 0.000000 1.000000
vn 0.000000 0.000000 1.000000
vn 0.000000 0.000000 1.000000
vn 0.000000 0.000000 1.000000
vn 0.000000 0.000000 1.000000
vn 0.000000 0.000000 1.000000
vn 0.000000 0.000000 1.000000
vn 0.000000 0.000000 1.000000
vn 0.000000 0.000000 1.000000
vn 0.000000 0.000000 1.000000
vn 0.000000 0.000000 1.000000
vn 0.000000 0.000000 1.000000
vn 0.000000 0.000000 1.000000
vn 0.000000 0.000000 1.000000
vn 0.000000 0.000000 1.000000
vn -0.000000 0.000000 1.000000
vn -0.000000 0.000000 1.000000
vn -0.000000 0.000000 1.000000
vn -0.000000 0.000000 1.000000
vn 0.000000 0.000000 1.000000
vn 0.000000 0.000000 1.000000
vn 0.000000 0.000000 1.000000
vn 0.000000 0.000000 1.000000
vn 0.000000 0.000000 1.000000
vn 0.000000 0.000000 1.000000
vn 0.000000 0.000000 1.000000
vn 0.000000 0.000000 1.000000
vn 0.000000 0.000000 1.000000
vn 0.000000 0.000000 1.000000
vn 0.000000 -1.000000 0.000000
vn 0.000000 -1.000000 0.000000
vn 0.000000 -1.000000 0.000000
vn 0.000000 -1.000000 0.000000
vn 0.000000 -1.000000 0.000000
vn 0.000000 -1.000000 0.000000
vn 0.000000 -1.000000 0.000000
vn 1.000000 0.000009 0.000000
vn 1.000000 0.000009 0.000000
vn 1.000000 0.000009 0.000000
vn 1.000000 0.000000 0.000000
vn 1.000000 0.000000 0.000000
vn 1.000000 0.000000 0.000000
vn 1.000000 0.000000 0.000000
vn 1.000000 0.000000 0.000000
vn 1.000000 0.000000 0.000000
vn 1.000000 0.000000 0.000000
vn 1.000000 0.000000 0.000000
vn 1.000000 0.000000 0.000000
vn 1.000000 0.000000 0.000000
vn 1.000000 -0.000000 0.000000
vn 1.000000 -0.000000 0.000000
vn 1.000000 -0.000000 0.000000
vn 1.000000 -0.000000 0.000000
vn 1.000000 0.000000 0.000000
vn 1.000000 0.000000 0.000000
vn 1.000000 0.000000 0.000000
vn 1.000000 0.000000 0.000000
vn 0.000000 -1.000000 0.000000
vn 0.000000 -1.000000 0.000000
vn 0.000000 -1.000000 0.000000
vn 0.000000 -1.000000 0.000000
vn 0.000000 1.000000 0.000000
vn 0.000000 1.000000 0.000000
vn 0.000000 1.000000 0.000000
vn 0.000000 1.000000 0.000000
vn 0.000000 1.000000 0.000000
vn 0.000000 1.000000 0.000000
vn 0.000000 1.000000 0.000000
vn 0.000000 1.000000 -0.000000
vn 0.000000 1.000000 -0.000000
vn 0.000000 1.000000 -0.000000
vn 0.000000 1.000000 -0.000000
vn 0.000000 1.000000 0.000000
vn 0.000000 1.000000 0.000000
vn 0.000000 1.000000 0.000000
vn 0.000000 1.000000 0.000000
vn 0.000000 1.000000 0.000000
vn 0.000000 1.000000 0.000000
vn 0.000000 1.000000 0.000000
vn 0.000000 1.000000 0.000000
vn -1.000000 0.000000 -0.000000
vn -1.000000 0.000000 -0.000000
vn -1.000000 0.000000 -0.000000
vn -1.000000 0.000000 -0.000000
vn -1.000000 0.000001 -0.000000
vn -1.000000 0.000001 -0.000000
vn -1.000000 0.000001 -0.000000
vn -1.000000 0.000001 -0.000000
vn -1.000000 -0.000001 -0.000000
vn -1.000000 -0.000001 -0.000000
vn -1.000000 -0.000001 -0.000000
vn -1.000000 -0.000001 -0.000000
vn -1.000000 0.000000 -0.000000
vn -1.000000 0.000000 -0.000000
vn -1.000000 0.000000 -0.000000
vn 0.000000 -1.000000 0.000000
vn 0.000000 -1.000000 0.000000
vn 0.000000 -1.000000 0.000000
vn 0.000000 -1.000000 0.000000
vn 0.000000 -1.000000 0.000000
vn 0.000000 -1.000000 0.000000
vn 0.000000 -1.000000 0.000000
vn 0.000000 -1.000000 0.000000
vn 0.000000 -1.000000 0.000000
vn 0.000000 -1.000000 0.000000
vn 0.000000 -1.000000 0.000000
vn 0.000000 -1.000000 0.000000
vn 0.000000 -1.000000 -0.000000
vn 0.000000 -1.000000 -0.000000
vn 0.000000 -1.000000 -0.000000
vn 0.000000 -1.000000 -0.000000
vn 0.000000 1.000000 -0.000000
vn 0.000000 1.000000 -0.000000
vn 0.000000 1.000000 -0.000000
vn 0.000000 1.000000 -0.000000
s off
f 14/1/1 18/3/2 36/2/3
f 4/8/4 43/10/5 42/9/6
f 10/6/7 6/7/8 7/20/9 11/19/10
f 5/5/11 10/6/12 11/19/13 9/21/14
f 11/19/15 8/22/16 9/21/17
f 7/20/18 8/22/19 11/19/20
f 3/4/21 5/5/22 9/21/23
f 13/23/24 26/25/25 17/24/26
f 15/26/27 16/28/28 25/27/29
f 25/27/30 16/28/31 17/24/32 26/25/33
f 8/22/34 4/8/35 32/31/36 33/30/37
f 21/33/38 22/35/39 24/34/40
f 20/15/41 24/34/42 22/35/43
f 23/13/44 19/12/45 21/33/46 24/34/47
f 20/15/48 23/13/49 24/34/50
f 14/1/51 15/26/52 25/27/53
f 14/1/54 25/27/55 26/25/56
f 13/23/57 14/1/58 26/25/59
f 29/17/60 15/26/61 22/35/62 21/33/63
f 12/18/64 30/37/65 28/36/66
f 29/17/67 12/18/68 28/36/69
f 12/18/70 27/32/71 30/37/72
f 32/31/73 34/16/74 33/30/75
f 34/16/76 31/38/77 33/30/78
f 18/3/79 37/29/80 36/2/81
f 37/29/82 35/39/83 36/2/84
f 39/40/85 41/42/86 40/41/87
f 41/42/88 38/43/89 40/41/90
f 27/32/91 3/4/92 9/21/93 8/22/94
f 13/23/95 17/24/96 28/36/97 30/37/98
f 7/20/99 6/7/100 43/10/101 4/8/102
f 14/1/103 13/23/104 31/38/105 18/3/106
f 13/23/107 8/22/108 33/30/109 31/38/110
f 27/32/111 8/22/112 13/23/113 30/37/114
f 15/26/115 36/2/116 35/39/117 39/40/118
f 15/26/119 14/1/120 36/2/121
f 15/26/122 40/41/123 38/43/124 22/35/125
f 15/26/126 39/40/127 40/41/128
f 38/43/129 2/14/130 20/15/131 22/35/132
f 28/36/133 16/28/134 15/26/135 29/17/136
f 16/28/137 28/36/138 17/24/139
f 1/11/140 29/17/141 21/33/142 19/12/143
f 8/22/144 7/20/145 4/8/146
f 57/44/147 79/45/148 61/46/149
f 47/51/150 85/52/151 86/53/152
f 43/10/153 62/55/154 44/54/155 42/9/156
f 85/52/157 47/51/158 29/17/159 1/11/160
f 34/16/161 72/60/162 55/61/163 37/29/164
f 53/49/165 54/62/166 50/63/167 49/50/168
f 48/48/169 52/64/170 54/62/171 53/49/172
f 54/62/173 52/64/174 51/65/175
f 50/63/176 54/62/177 51/65/178
f 46/47/179 52/64/180 48/48/181
f 56/66/182 60/67/183 69/68/184
f 58/69/185 68/70/186 59/71/187
f 68/70/188 69/68/189 60/67/190 59/71/191
f 51/65/192 76/73/193 75/74/194 47/51/195
f 38/43/196 70/75/197 46/47/198 2/14/199
f 64/76/200 67/77/201 65/78/202
f 63/58/203 65/78/204 67/77/205
f 66/56/206 67/77/207 64/76/208 62/55/209
f 63/58/210 67/77/211 66/56/212
f 57/44/213 68/70/214 58/69/215
f 57/44/216 69/68/217 68/70/218
f 56/66/219 69/68/220 57/44/221
f 72/60/222 64/76/223 65/78/224 58/69/225
f 55/61/226 71/79/227 73/80/228
f 72/60/229 71/79/230 55/61/231
f 55/61/232 73/80/233 70/75/234
f 75/74/235 76/73/236 77/59/237
f 77/59/238 76/73/239 74/81/240
f 61/46/241 79/45/242 80/72/243
f 80/72/244 79/45/245 78/82/246
f 82/83/247 83/84/248 84/85/249
f 84/85/250 83/84/251 81/86/252
f 70/75/253 51/65/254 52/64/255 46/47/256
f 56/66/257 73/80/258 71/79/259 60/67/260
f 50/63/261 47/51/262 86/53/263 49/50/264
f 57/44/265 61/46/266 74/81/267 56/66/268
f 56/66/269 74/81/270 76/73/271 51/65/272
f 70/75/273 73/80/274 56/66/275 51/65/276
f 58/69/277 82/83/278 78/82/279 79/45/280
f 58/69/281 79/45/282 57/44/283
f 58/69/284 65/78/285 81/86/286 83/84/287
f 58/69/288 83/84/289 82/83/290
f 81/86/291 65/78/292 63/58/293 45/57/294
f 71/79/295 72/60/296 58/69/297 59/71/298
f 59/71/299 60/67/300 71/79/301
f 44/54/302 62/55/303 64/76/304 72/60/305
f 51/65/306 47/51/307 50/63/308
f 84/85/309 81/86/310 27/32/311
f 3/4/312 27/32/313 81/86/314 45/57/315
f 53/49/316 46/47/317 48/48/318
f 85/52/319 53/49/320 49/50/321 86/53/322
f 23/13/323 1/11/324 19/12/325
f 2/14/326 23/13/327 20/15/328
f 53/49/329 23/13/330 2/14/331 46/47/332
f 85/52/333 1/11/334 23/13/335 53/49/336
f 29/17/337 47/51/338 75/74/339 77/59/340
f 55/61/341 70/75/342 41/42/343 37/29/344
f 41/42/345 70/75/346 38/43/347
f 37/29/348 41/42/349 39/40/350 35/39/351
f 34/16/352 37/29/353 18/3/354 31/38/355
f 42/9/356 34/16/357 32/31/358 4/8/359
f 62/55/360 43/10/361 6/7/362 10/6/363
f 66/56/364 3/4/365 45/57/366 63/58/367
f 62/55/368 10/6/369 5/5/370 66/56/371
f 66/56/372 5/5/373 3/4/374
f 82/83/375 84/85/376 80/72/377 78/82/378
f 80/72/379 77/59/380 74/81/381 61/46/382
f 80/72/383 84/85/384 27/32/385 12/18/386
f 80/72/387 12/18/388 29/17/389 77/59/390
f 44/54/391 72/60/392 34/16/393 42/9/394
