# This file uses centimeters as units for non-parametric coordinates.

v 70.730469 4.472189 -17.791992
v 63.495117 4.878375 8.820313
v 37.197266 9.961754 -17.316406
v 70.483398 5.002315 36.780273
v 43.901367 9.588668 14.101563
v 31.050781 10.257099 1.634766
v 31.101563 11.776310 73.209961
v 38.807617 9.069832 77.642578
v 73.200195 5.880227 56.492188
v 80.140625 3.143816 43.785156
v 31.696289 -17.003670 -19.136719
v 29.518555 -17.003658 -13.872070
v 70.626953 5.513089 21.074219
v 71.337891 2.439949 11.881836
v 79.159180 3.858860 36.879883
v 30.912109 11.385663 10.710938
v 73.936523 -1.093133 -13.928711
v 72.461914 -17.003685 -14.853516
v 63.753906 -17.003677 -16.142578
v 31.430664 -17.003687 73.453125
v 39.091797 -17.003685 77.853516
v 73.429688 -17.003683 56.662109
v 80.331055 -17.003683 43.925781
v 70.863281 -17.003685 21.248047
v 71.530273 -17.003687 12.024414
v 79.362305 -17.003685 37.031250
v 31.046875 -17.003693 7.117188
v -68.375000 3.969913 72.859375
v -73.413086 8.719396 -17.244141
v -74.020508 8.023520 -24.242188
v -42.792969 5.990136 -22.432617
v -74.759766 1.812922 -76.283203
v -71.419922 4.125992 68.146484
v 21.750977 6.878538 74.384766
v 20.433594 7.622767 59.937500
v -9.208008 7.122353 -24.966797
v 11.173828 11.557178 -17.791016
v 9.303711 7.337205 58.403320
v 14.150391 9.990180 12.736328
v -13.583008 4.364849 -53.763672
v -76.699219 -17.003693 -77.853516
v 10.034180 -17.003654 76.336914
v -76.011719 -17.003662 -20.448242
v 13.729492 -17.003637 -18.267578
v 6.852539 -17.003633 -21.568359
v 21.620117 -17.003649 31.458008
v -22.607422 -17.003628 -23.349609
v -7.928711 -17.003632 -23.985352
v -11.216797 -17.003670 -54.244141
v -72.856445 -17.003662 76.040039
v -79.685547 -17.003660 -22.861328
v 22.966797 -17.003647 77.114258
v -80.331055 -17.003674 -66.768555
vt 0.069237 0.099602
vt 0.069237 0.099442
vt 0.069237 0.099328
vt 0.069237 0.099588
vt 0.069237 0.099369
vt 0.069237 0.099677
vt 0.069237 0.099594
vt 0.069237 0.099375
vt 0.069237 0.099664
vt 0.069237 0.099693
vt 0.069237 0.099437
vt 0.069237 0.099512
vt 0.069237 0.099479
vt 0.069237 0.099389
vt 0.069237 0.099623
vt 0.069237 0.099676
vt 0.069237 0.099755
vt 0.069237 0.099809
vt 0.069237 0.099720
vt 0.069237 0.099447
vt 0.069237 0.099474
vt 0.069237 0.099691
vt 0.069237 0.099767
vt 0.069237 0.099732
vt 0.069237 0.099754
vt 0.069237 0.099772
vt 0.069237 0.099510
vt 0.069237 0.098524
vt 0.069237 0.098524
vt 0.069237 0.098524
vt 0.069237 0.098524
vt 0.069237 0.098524
vt 0.069237 0.098524
vt 0.069237 0.098524
vt 0.069237 0.098524
vt 0.069237 0.098524
vt 0.069237 0.098524
vt 0.069237 0.098524
vt 0.069237 0.098524
vt 0.069237 0.098524
vt 0.069237 0.098524
vt 0.069237 0.098524
vt 0.069237 0.098524
vt 0.069237 0.098524
vt 0.069237 0.098524
vt 0.069237 0.098524
vt 0.069237 0.098524
vt 0.069237 0.098524
vt 0.069237 0.098524
vt 0.069237 0.098524
vt 0.069237 0.098524
vt 0.069237 0.098524
vt 0.069237 0.098524
vt 0.069237 0.098524
vt 0.069237 0.098524
vt 0.069237 0.098524
vt 0.069237 0.098524
vt 0.069237 0.098524
vt 0.069237 0.098524
vn 0.181756 0.983241 -0.014189
vn 0.181756 0.983241 -0.014189
vn 0.181756 0.983241 -0.014189
vn 0.131793 0.989322 -0.062228
vn 0.131793 0.989322 -0.062228
vn 0.131793 0.989322 -0.062228
vn 0.420972 0.698019 0.579268
vn 0.420972 0.698020 0.579268
vn 0.420972 0.698020 0.579268
vn 0.241564 0.967374 -0.076380
vn 0.241564 0.967374 -0.076380
vn 0.241564 0.967374 -0.076380
vn 0.182058 0.965576 -0.185788
vn 0.182058 0.965576 -0.185789
vn 0.182058 0.965576 -0.185789
vn 0.274853 0.959606 0.060095
vn 0.274853 0.959606 0.060095
vn 0.274853 0.959606 0.060095
vn -0.596170 0.399240 -0.696555
vn -0.596170 0.399240 -0.696555
vn -0.596170 0.399240 -0.696555
vn 0.161475 0.986863 -0.005266
vn 0.161475 0.986863 -0.005266
vn 0.161475 0.986863 -0.005266
vn 0.379522 0.885877 -0.266805
vn 0.379522 0.885877 -0.266805
vn 0.379522 0.885877 -0.266805
vn 0.129236 0.988053 0.083956
vn 0.129236 0.988053 0.083956
vn 0.129236 0.988053 0.083956
vn 0.142132 0.989281 0.033476
vn 0.142132 0.989281 0.033476
vn 0.142132 0.989281 0.033476
vn 0.189600 0.968648 -0.160538
vn 0.189600 0.968648 -0.160538
vn 0.189600 0.968648 -0.160538
vn 0.861184 0.508003 0.017166
vn 0.861184 0.508003 0.017166
vn 0.861184 0.508003 0.017166
vn 0.006586 -0.177626 -0.984076
vn 0.006586 -0.177626 -0.984076
vn 0.006586 -0.177626 -0.984076
vn 0.130202 0.990924 0.033421
vn 0.130202 0.990924 0.033421
vn 0.130202 0.990924 0.033421
vn 0.708386 -0.078778 -0.701415
vn 0.708386 -0.078778 -0.701415
vn 0.708386 -0.078778 -0.701415
vn 0.176856 0.954878 -0.238599
vn 0.176856 0.954878 -0.238599
vn 0.176856 0.954878 -0.238599
vn 0.103502 0.110207 -0.988505
vn 0.103502 0.110207 -0.988505
vn 0.103502 0.110207 -0.988505
vn -0.037685 -0.144636 -0.988767
vn -0.037685 -0.144636 -0.988767
vn -0.037685 -0.144636 -0.988767
vn -0.644164 0.723576 -0.247972
vn -0.644164 0.723576 -0.247972
vn -0.644164 0.723576 -0.247972
vn 0.142669 0.989522 -0.022170
vn 0.142669 0.989522 -0.022170
vn 0.142669 0.989522 -0.022170
vn 0.178783 0.983314 0.033608
vn 0.178783 0.983314 0.033608
vn 0.178783 0.983314 0.033608
vn -0.498125 0.001609 0.867104
vn -0.498125 0.001609 0.867104
vn -0.498125 0.001609 0.867104
vn -0.498125 0.001609 0.867104
vn 0.524881 0.012128 0.851089
vn 0.524881 0.012128 0.851089
vn 0.524881 0.012128 0.851089
vn 0.524881 0.012128 0.851089
vn 0.878902 0.012018 0.476851
vn 0.878902 0.012018 0.476851
vn 0.878902 0.012018 0.476851
vn 0.878902 0.012018 0.476851
vn 0.997287 0.010738 0.072827
vn 0.997287 0.010738 0.072827
vn 0.997287 0.010738 0.072827
vn 0.997287 0.010738 0.072827
vn 0.990187 0.008510 -0.139493
vn 0.990187 0.008510 -0.139493
vn 0.990187 0.008510 -0.139493
vn 0.990187 0.008510 -0.139493
vn -0.999955 -0.008376 0.004475
vn -0.999955 -0.008376 0.004475
vn -0.999955 -0.008376 0.004475
vn -0.999955 -0.008376 0.004475
vn -0.997251 0.014746 0.072614
vn -0.997251 0.014746 0.072614
vn -0.997251 0.014746 0.072614
vn 0.996882 -0.037689 0.069321
vn 0.996882 -0.037689 0.069321
vn 0.996882 -0.037689 0.069321
vn 0.996882 -0.037689 0.069321
vn 0.880321 0.005362 -0.474348
vn 0.880321 0.005362 -0.474348
vn 0.880321 0.005362 -0.474348
vn 0.880321 0.005362 -0.474348
vn -0.999885 -0.002858 -0.014922
vn -0.999885 -0.002858 -0.014922
vn -0.999885 -0.002858 -0.014922
vn -0.040280 0.995201 -0.089179
vn -0.040280 0.995201 -0.089179
vn -0.040280 0.995201 -0.089179
vn -0.033127 0.997966 0.054458
vn -0.033127 0.997966 0.054458
vn -0.033127 0.997966 0.054458
vn -0.033129 0.997966 0.054457
vn -0.033129 0.997966 0.054457
vn -0.033129 0.997966 0.054457
vn 0.044821 0.346679 -0.936913
vn 0.044821 0.346679 -0.936912
vn 0.044821 0.346679 -0.936913
vn -0.036184 0.938041 -0.344630
vn -0.036184 0.938041 -0.344630
vn -0.036184 0.938041 -0.344630
vn -0.989918 0.141615 -0.002832
vn -0.989918 0.141615 -0.002832
vn -0.989918 0.141615 -0.002832
vn -0.820363 0.569672 0.049790
vn -0.820363 0.569672 0.049790
vn -0.820363 0.569672 0.049790
vn -0.028353 0.643726 0.764730
vn -0.028353 0.643726 0.764730
vn -0.028353 0.643726 0.764730
vn -0.906239 0.419433 0.052989
vn -0.906239 0.419433 0.052989
vn -0.906239 0.419433 0.052989
vn -0.016797 0.997584 -0.067410
vn -0.016797 0.997584 -0.067410
vn -0.016797 0.997584 -0.067410
vn 0.339084 0.113105 -0.933932
vn 0.339084 0.113105 -0.933932
vn 0.339084 0.113105 -0.933932
vn -0.032146 0.562982 0.825844
vn -0.032146 0.562982 0.825844
vn -0.032146 0.562982 0.825844
vn -0.033118 0.997965 0.054493
vn -0.033118 0.997965 0.054493
vn -0.033118 0.997965 0.054493
vn -0.030671 0.798546 -0.601152
vn -0.030671 0.798546 -0.601152
vn -0.030671 0.798546 -0.601152
vn -0.071574 0.644291 -0.761424
vn -0.071574 0.644291 -0.761424
vn -0.071574 0.644291 -0.761424
vn 0.147954 0.302352 -0.941644
vn 0.147954 0.302352 -0.941644
vn 0.147954 0.302352 -0.941644
vn -0.230764 0.834617 0.500163
vn -0.230764 0.834617 0.500163
vn -0.230764 0.834617 0.500163
vn 0.882238 0.470783 -0.004391
vn 0.882238 0.470783 -0.004391
vn 0.882238 0.470783 -0.004391
vn 0.071395 0.990300 -0.119198
vn 0.071395 0.990300 -0.119198
vn 0.071395 0.990300 -0.119198
vn 0.016908 0.797065 0.603657
vn 0.016908 0.797065 0.603657
vn 0.016908 0.797065 0.603657
vn -0.484656 0.805972 0.339877
vn -0.484656 0.805972 0.339877
vn -0.484656 0.805972 0.339877
vn -0.033134 0.997967 0.054452
vn -0.033134 0.997967 0.054452
vn -0.033134 0.997967 0.054452
vn 0.419946 0.907532 0.005627
vn 0.419946 0.907532 0.005627
vn 0.419946 0.907532 0.005627
vn -0.033128 0.997968 0.054431
vn -0.033128 0.997968 0.054431
vn -0.033128 0.997968 0.054431
vn 0.968357 0.237697 -0.076058
vn 0.968357 0.237697 -0.076058
vn 0.968357 0.237697 -0.076058
vn -0.455181 0.854235 -0.251184
vn -0.455181 0.854235 -0.251184
vn -0.455181 0.854235 -0.251184
vn -0.033125 0.997966 0.054460
vn -0.033125 0.997966 0.054460
vn -0.033125 0.997966 0.054460
vn -0.033113 0.997967 0.054461
vn -0.033113 0.997967 0.054461
vn -0.033113 0.997967 0.054461
vn 0.068977 0.158708 0.984913
vn 0.068977 0.158708 0.984913
vn 0.068977 0.158708 0.984913
vn 0.962101 0.215699 -0.166841
vn 0.962101 0.215699 -0.166841
vn 0.962101 0.215699 -0.166841
vn 0.052643 0.207592 0.976798
vn 0.052643 0.207592 0.976798
vn 0.052643 0.207592 0.976798
vn 0.067678 0.665552 -0.743277
vn 0.067678 0.665552 -0.743277
vn 0.067678 0.665552 -0.743277
vn -0.051329 0.604970 0.794592
vn -0.051329 0.604970 0.794592
vn -0.051329 0.604970 0.794592
vn 0.489013 0.871980 0.022756
vn 0.489013 0.871980 0.022756
vn 0.489013 0.871980 0.022756
vn 0.334359 0.060939 -0.940474
vn 0.334359 0.060939 -0.940474
vn 0.334359 0.060939 -0.940474
vn 0.962641 0.213041 -0.167139
vn 0.962641 0.213041 -0.167139
vn 0.962641 0.213041 -0.167139
vn 0.604400 0.795649 -0.040546
vn 0.604400 0.795649 -0.040546
vn 0.604400 0.795649 -0.040546
s off
f 4/1/1 5/2/2 7/3/3
f 4/1/4 7/3/5 9/4/6
f 9/4/7 7/3/8 8/5/9
f 10/6/10 4/1/11 9/4/12
f 2/7/13 16/8/14 5/2/15
f 14/9/16 1/10/17 2/7/18
f 3/11/19 11/12/20 12/13/21
f 3/11/22 6/14/23 1/10/24
f 14/9/25 2/7/26 13/15/27
f 15/16/28 4/1/29 10/6/30
f 4/1/31 13/15/32 5/2/33
f 13/15/34 2/7/35 5/2/36
f 14/9/37 17/17/38 1/10/39
f 1/10/40 18/18/41 19/19/42
f 13/15/43 4/1/44 15/16/45
f 1/10/46 17/17/47 18/18/48
f 2/7/49 6/14/50 16/8/51
f 3/11/52 19/19/53 11/12/54
f 1/10/55 19/19/56 3/11/57
f 3/11/58 12/13/59 6/14/60
f 5/2/61 16/8/62 7/3/63
f 1/10/64 6/14/65 2/7/66
f 8/5/67 7/3/68 20/20/69 21/21/70
f 9/4/71 8/5/72 21/21/73 22/22/74
f 10/6/75 9/4/76 22/22/77 23/23/78
f 14/9/79 13/15/80 24/24/81 25/25/82
f 15/16/83 10/6/84 23/23/85 26/26/86
f 7/3/87 16/8/88 27/27/89 20/20/90
f 6/14/91 12/13/92 27/27/93
f 17/17/94 14/9/95 25/25/96 18/18/97
f 13/15/98 15/16/99 26/26/100 24/24/101
f 16/8/102 6/14/103 27/27/104
f 36/28/105 40/29/106 31/30/107
f 37/31/108 28/32/109 39/33/110
f 37/31/111 29/34/112 33/35/113
f 45/36/114 31/30/115 37/31/116
f 30/37/117 41/38/118 53/39/119
f 30/37/120 32/40/121 41/38/122
f 33/35/123 29/34/124 43/41/125
f 28/32/126 50/42/127 42/43/128
f 33/35/129 43/41/130 50/42/131
f 40/29/132 32/40/133 31/30/134
f 32/40/135 40/29/136 49/44/137
f 34/45/138 28/32/139 42/43/140
f 35/46/141 38/47/142 28/32/143
f 29/34/144 37/31/145 31/30/146
f 29/34/147 31/30/148 43/41/149
f 37/31/150 44/48/151 45/36/152
f 30/37/153 51/49/154 43/41/155
f 35/50/156 52/51/157 46/52/158
f 31/30/159 32/40/160 30/37/161
f 31/30/162 30/37/163 43/41/164
f 33/35/165 50/42/166 28/32/167
f 28/32/168 37/31/169 33/35/170
f 44/48/171 37/31/172 39/33/173
f 34/45/174 35/46/175 28/32/176
f 35/53/177 34/54/178 52/55/179
f 30/37/180 53/39/181 51/49/182
f 28/32/183 38/47/184 39/33/185
f 35/46/186 39/33/187 38/47/188
f 36/28/189 31/30/190 47/56/191
f 40/29/192 36/28/193 48/57/194
f 36/28/195 47/56/196 48/57/197
f 45/36/198 47/56/199 31/30/200
f 42/58/201 52/55/202 34/54/203
f 44/48/204 39/33/205 46/59/206
f 32/40/207 49/44/208 41/38/209
f 40/29/210 48/57/211 49/44/212
f 46/59/213 39/33/214 35/46/215
