# This file uses centimeters as units for non-parametric coordinates.

v 865.622070 -71.796143 -499.768005
v 499.767334 -71.796143 -865.623047
v 0.000000 -71.796143 -999.535217
v -499.767334 -71.796143 -865.623047
v -865.622192 -71.796143 -499.768005
v -999.534424 -71.796143 -0.000854
v -865.622192 -71.796143 499.766235
v -499.767334 -71.796143 865.622070
v 0.000000 -71.796143 999.533936
v 499.767334 -71.796143 865.622070
v 865.622070 -71.796143 499.766235
v 999.534424 -71.796143 -0.000854
v 865.622070 71.796631 -499.768005
v 499.767334 71.796631 -865.623047
v 0.000000 71.796631 -999.535217
v -499.767334 71.796631 -865.623047
v -865.622192 71.796631 -499.768005
v -999.534424 71.796631 -0.000854
v -865.622192 71.796631 499.766235
v -499.767334 71.796631 865.622070
v 0.000000 71.796631 999.533936
v 499.767334 71.796631 865.622070
v 865.622070 71.796631 499.766235
v 999.534424 71.796631 -0.000854
v 749.596191 -71.796143 -432.780396
v 432.779419 -71.796143 -749.597107
v 0.000000 -71.796143 -865.560059
v -432.779907 -71.796143 -749.597107
v -749.596313 -71.796143 -432.780396
v -865.559143 -71.796143 -0.000854
v -749.596313 -71.796143 432.778564
v -432.779907 -71.796143 749.595093
v 0.000000 -71.796143 865.558350
v 432.779419 -71.796143 749.595093
v 749.596191 -71.796143 432.778564
v 865.559082 -71.796143 -0.000854
v 749.596191 71.796631 -432.780396
v 432.779419 71.796631 -749.597107
v 0.000000 71.796631 -865.560059
v -432.779907 71.796631 -749.597107
v -749.596313 71.796631 -432.780396
v -865.559143 71.796631 -0.000854
v -749.596313 71.796631 432.778564
v -432.779907 71.796631 749.595093
v 0.000000 71.796631 865.558350
v 432.779419 71.796631 749.595093
v 749.596191 71.796631 432.778564
v 865.559082 71.796631 -0.000854
v 787.635010 -0.000244 -454.741943
v 454.740967 -0.000244 -787.635620
v 0.000000 -0.000244 -909.483276
v -454.741699 -0.000244 -787.635620
v -787.635010 -0.000244 -454.741943
v -909.482300 -0.000244 -0.000732
v -787.635010 -0.000244 454.740845
v -454.741699 -0.000244 787.633545
v 0.000000 -0.000244 909.481201
v 454.740967 -0.000244 787.633545
v 787.635010 -0.000244 454.740845
v 909.482422 -0.000244 -0.000732
v 912.178955 -0.000244 -526.647705
v 526.646973 -0.000244 -912.180054
v 0.000000 -0.000244 -1053.294922
v -526.647217 -0.000244 -912.180054
v -912.179382 -0.000244 -526.647705
v -1053.293945 -0.000244 -0.000854
v -912.179382 -0.000244 526.646118
v -526.647217 -0.000244 912.178711
v 0.000000 -0.000244 1053.293457
v 526.646973 -0.000244 912.178711
v 912.178955 -0.000244 526.646118
v 1053.293701 -0.000244 -0.000854
v 345.893555 -141.181885 -1272.111572
v 336.503174 -141.181885 -1274.627808
v 312.916748 -24.941162 -1184.394775
v 321.203613 -24.940674 -1182.174561
v 332.394043 -172.330322 -1223.360840
v 323.818848 -172.330322 -1225.658447
v -1272.110840 -141.181885 -345.894348
v -1274.626953 -141.181885 -336.503662
v -1184.394043 -24.941650 -312.917542
v -1182.173584 -24.941162 -321.204224
v -1223.359863 -172.330811 -332.394592
v -1225.657715 -172.330322 -323.819275
v -345.893555 -141.181885 1272.110352
v -336.502930 -141.181885 1274.626709
v -312.916504 -24.941650 1184.393799
v -321.203369 -24.941162 1182.173340
v -332.394287 -172.330322 1223.359619
v -323.818848 -172.330322 1225.657227
v 1272.110840 -141.181885 345.892700
v 1274.626953 -141.181885 336.502075
v 1184.394043 -24.941650 312.915649
v 1182.173584 -24.941650 321.202393
v 1223.359619 -172.330322 332.392944
v 1225.657471 -172.330322 323.817749
vt 0.080825 0.232158
vt 0.081000 0.232179
vt 0.081004 0.232150
vt 0.080838 0.232130
vt 0.081098 0.232249
vt 0.081102 0.232249
vt 0.081100 0.232202
vt 0.081097 0.232203
vt 0.081191 0.232176
vt 0.081358 0.232151
vt 0.081344 0.232123
vt 0.081185 0.232147
vt 0.081461 0.232107
vt 0.081442 0.232080
vt 0.081581 0.232132
vt 0.081581 0.232131
vt 0.081544 0.232089
vt 0.081544 0.232090
vt 0.081468 0.232054
vt 0.081363 0.232006
vt 0.081347 0.231983
vt 0.081447 0.232029
vt 0.081170 0.231979
vt 0.081164 0.231957
vt 0.081053 0.232003
vt 0.081049 0.232003
vt 0.081051 0.231967
vt 0.081055 0.231967
vt 0.080946 0.231983
vt 0.080765 0.232015
vt 0.080783 0.231992
vt 0.080953 0.231960
vt 0.080681 0.232066
vt 0.080702 0.232040
vt 0.080581 0.232145
vt 0.080581 0.232146
vt 0.080617 0.232103
vt 0.080617 0.232102
vt 0.080708 0.232118
vt 0.080726 0.232090
vt 0.081003 0.232199
vt 0.080837 0.232179
vt 0.080868 0.232171
vt 0.081013 0.232188
vt 0.081186 0.232196
vt 0.081172 0.232186
vt 0.081345 0.232173
vt 0.081311 0.232165
vt 0.081442 0.232132
vt 0.081394 0.232130
vt 0.081448 0.232083
vt 0.081397 0.232087
vt 0.081348 0.232039
vt 0.081310 0.232049
vt 0.081165 0.232013
vt 0.081152 0.232028
vt 0.080953 0.232017
vt 0.080971 0.232030
vt 0.080782 0.232047
vt 0.080823 0.232056
vt 0.080702 0.232094
vt 0.080753 0.232096
vt 0.080726 0.232142
vt 0.080772 0.232138
vt 0.081013 0.232138
vt 0.080868 0.232121
vt 0.081172 0.232136
vt 0.081310 0.232115
vt 0.081393 0.232078
vt 0.081396 0.232033
vt 0.081309 0.231994
vt 0.081152 0.231972
vt 0.080971 0.231974
vt 0.080824 0.232001
vt 0.080753 0.232043
vt 0.080773 0.232086
vt 0.080858 0.232149
vt 0.081010 0.232167
vt 0.081176 0.232165
vt 0.081321 0.232142
vt 0.081410 0.232104
vt 0.081413 0.232059
vt 0.081322 0.232018
vt 0.081156 0.231995
vt 0.080965 0.231998
vt 0.080810 0.232026
vt 0.080736 0.232069
vt 0.080757 0.232113
vt 0.081098 0.232255
vt 0.081101 0.232255
vt 0.081561 0.232144
vt 0.081562 0.232143
vt 0.081054 0.232022
vt 0.081050 0.232022
vt 0.080600 0.232156
vt 0.080600 0.232157
vn 0.572956 0.586041 -0.572955
vn 0.572956 0.586041 -0.572955
vn 0.572956 0.586041 -0.572955
vn 0.572956 0.586041 -0.572955
vn 0.201854 0.625799 -0.753412
vn 0.201854 0.625799 -0.753412
vn 0.201854 0.625799 -0.753412
vn 0.201854 0.625799 -0.753412
vn -0.209716 0.586043 -0.782671
vn -0.209716 0.586043 -0.782670
vn -0.209716 0.586043 -0.782670
vn -0.209716 0.586043 -0.782670
vn -0.572955 0.586043 -0.572955
vn -0.572955 0.586043 -0.572955
vn -0.572955 0.586043 -0.572955
vn -0.572955 0.586043 -0.572955
vn -0.753410 0.625802 -0.201856
vn -0.753410 0.625802 -0.201856
vn -0.753410 0.625802 -0.201856
vn -0.753410 0.625802 -0.201856
vn -0.782670 0.586043 0.209716
vn -0.782670 0.586043 0.209716
vn -0.782670 0.586043 0.209716
vn -0.782670 0.586043 0.209716
vn -0.572955 0.586042 0.572954
vn -0.572955 0.586042 0.572954
vn -0.572955 0.586042 0.572954
vn -0.572955 0.586042 0.572954
vn -0.201863 0.625801 0.753409
vn -0.201863 0.625801 0.753409
vn -0.201863 0.625801 0.753409
vn -0.201863 0.625801 0.753409
vn 0.209716 0.586041 0.782672
vn 0.209716 0.586041 0.782672
vn 0.209716 0.586041 0.782672
vn 0.209716 0.586041 0.782672
vn 0.572956 0.586040 0.572955
vn 0.572956 0.586040 0.572955
vn 0.572956 0.586040 0.572955
vn 0.572956 0.586040 0.572955
vn 0.753405 0.625802 0.201872
vn 0.753406 0.625802 0.201872
vn 0.753406 0.625802 0.201872
vn 0.753406 0.625802 0.201872
vn 0.782672 0.586041 -0.209717
vn 0.782672 0.586041 -0.209717
vn 0.782672 0.586041 -0.209717
vn 0.782672 0.586041 -0.209717
vn 0.000000 -1.000000 -0.000000
vn 0.000000 -1.000000 -0.000000
vn 0.000000 -1.000000 -0.000000
vn 0.000000 -1.000000 -0.000000
vn 0.000000 -1.000000 0.000000
vn 0.000000 -1.000000 0.000000
vn 0.000000 -1.000000 0.000000
vn 0.000000 -1.000000 0.000000
vn 0.000000 -1.000000 0.000000
vn 0.000000 -1.000000 0.000000
vn 0.000000 -1.000000 0.000000
vn 0.000000 -1.000000 0.000000
vn 0.000000 -1.000000 0.000000
vn 0.000000 -1.000000 0.000000
vn 0.000000 -1.000000 0.000000
vn 0.000000 -1.000000 0.000000
vn 0.000000 -1.000000 0.000000
vn 0.000000 -1.000000 0.000000
vn 0.000000 -1.000000 0.000000
vn 0.000000 -1.000000 0.000000
vn 0.000000 -1.000000 -0.000000
vn 0.000000 -1.000000 -0.000000
vn 0.000000 -1.000000 -0.000000
vn 0.000000 -1.000000 -0.000000
vn 0.000000 -1.000000 0.000000
vn 0.000000 -1.000000 0.000000
vn 0.000000 -1.000000 0.000000
vn 0.000000 -1.000000 0.000000
vn 0.000000 -1.000000 0.000000
vn 0.000000 -1.000000 0.000000
vn 0.000000 -1.000000 0.000000
vn 0.000000 -1.000000 0.000000
vn 0.000000 -1.000000 -0.000000
vn 0.000000 -1.000000 -0.000000
vn 0.000000 -1.000000 -0.000000
vn 0.000000 -1.000000 -0.000000
vn 0.000000 -1.000000 0.000000
vn 0.000000 -1.000000 0.000000
vn 0.000000 -1.000000 0.000000
vn 0.000000 -1.000000 0.000000
vn 0.000000 -1.000000 0.000000
vn 0.000000 -1.000000 0.000000
vn 0.000000 -1.000000 0.000000
vn 0.000000 -1.000000 0.000000
vn 0.000000 -1.000000 0.000000
vn 0.000000 -1.000000 0.000000
vn 0.000000 -1.000000 0.000000
vn 0.000000 -1.000000 0.000000
vn 0.000000 1.000000 0.000000
vn 0.000000 1.000000 0.000000
vn 0.000000 1.000000 0.000000
vn 0.000000 1.000000 0.000000
vn 0.000000 1.000000 -0.000000
vn 0.000000 1.000000 -0.000000
vn 0.000000 1.000000 -0.000000
vn 0.000000 1.000000 -0.000000
vn 0.000000 1.000000 -0.000000
vn 0.000000 1.000000 -0.000000
vn 0.000000 1.000000 -0.000000
vn 0.000000 1.000000 -0.000000
vn 0.000000 1.000000 0.000000
vn 0.000000 1.000000 0.000000
vn 0.000000 1.000000 0.000000
vn 0.000000 1.000000 0.000000
vn 0.000000 1.000000 0.000000
vn 0.000000 1.000000 0.000000
vn 0.000000 1.000000 0.000000
vn 0.000000 1.000000 0.000000
vn 0.000000 1.000000 -0.000000
vn 0.000000 1.000000 -0.000000
vn 0.000000 1.000000 -0.000000
vn 0.000000 1.000000 -0.000000
vn 0.000000 1.000000 0.000000
vn 0.000000 1.000000 0.000000
vn 0.000000 1.000000 0.000000
vn 0.000000 1.000000 0.000000
vn 0.000000 1.000000 0.000000
vn 0.000000 1.000000 0.000000
vn 0.000000 1.000000 0.000000
vn 0.000000 1.000000 0.000000
vn 0.000000 1.000000 0.000000
vn 0.000000 1.000000 0.000000
vn 0.000000 1.000000 0.000000
vn 0.000000 1.000000 0.000000
vn 0.000000 1.000000 0.000000
vn 0.000000 1.000000 0.000000
vn 0.000000 1.000000 0.000000
vn 0.000000 1.000000 0.000000
vn 0.000000 1.000000 0.000000
vn 0.000000 1.000000 0.000000
vn 0.000000 1.000000 0.000000
vn 0.000000 1.000000 0.000000
vn 0.000000 1.000000 -0.000000
vn 0.000000 1.000000 -0.000000
vn 0.000000 1.000000 -0.000000
vn 0.000000 1.000000 -0.000000
vn -0.608760 0.508744 0.608761
vn -0.608760 0.508744 0.608761
vn -0.608760 0.508744 0.608761
vn -0.608761 0.508744 0.608761
vn -0.222822 0.508744 0.831583
vn -0.222822 0.508744 0.831583
vn -0.222822 0.508744 0.831583
vn -0.222822 0.508744 0.831583
vn 0.222822 0.508744 0.831583
vn 0.222822 0.508744 0.831583
vn 0.222822 0.508744 0.831583
vn 0.222822 0.508744 0.831583
vn 0.608761 0.508745 0.608760
vn 0.608761 0.508745 0.608760
vn 0.608761 0.508745 0.608760
vn 0.608761 0.508745 0.608760
vn 0.831583 0.508744 0.222822
vn 0.831583 0.508744 0.222822
vn 0.831583 0.508744 0.222822
vn 0.831583 0.508744 0.222822
vn 0.831582 0.508745 -0.222821
vn 0.831582 0.508745 -0.222821
vn 0.831582 0.508745 -0.222821
vn 0.831582 0.508745 -0.222821
vn 0.608760 0.508747 -0.608760
vn 0.608760 0.508747 -0.608760
vn 0.608760 0.508747 -0.608760
vn 0.608760 0.508747 -0.608760
vn 0.222822 0.508743 -0.831584
vn 0.222822 0.508743 -0.831583
vn 0.222822 0.508743 -0.831584
vn 0.222822 0.508743 -0.831584
vn -0.222823 0.508742 -0.831584
vn -0.222823 0.508742 -0.831584
vn -0.222823 0.508742 -0.831584
vn -0.222823 0.508742 -0.831584
vn -0.608759 0.508747 -0.608760
vn -0.608759 0.508747 -0.608760
vn -0.608759 0.508747 -0.608760
vn -0.608759 0.508747 -0.608760
vn -0.831581 0.508747 -0.222821
vn -0.831581 0.508747 -0.222821
vn -0.831581 0.508747 -0.222821
vn -0.831581 0.508747 -0.222821
vn -0.831582 0.508746 0.222821
vn -0.831582 0.508746 0.222822
vn -0.831582 0.508746 0.222821
vn -0.831582 0.508746 0.222822
vn -0.608763 -0.508739 0.608763
vn -0.608763 -0.508739 0.608763
vn -0.608763 -0.508739 0.608763
vn -0.608763 -0.508739 0.608763
vn -0.222823 -0.508739 0.831586
vn -0.222823 -0.508739 0.831586
vn -0.222823 -0.508739 0.831586
vn -0.222823 -0.508739 0.831586
vn 0.222823 -0.508739 0.831586
vn 0.222823 -0.508739 0.831586
vn 0.222823 -0.508739 0.831586
vn 0.222823 -0.508739 0.831586
vn 0.608763 -0.508740 0.608762
vn 0.608763 -0.508740 0.608762
vn 0.608763 -0.508740 0.608762
vn 0.608763 -0.508740 0.608762
vn 0.831585 -0.508740 0.222822
vn 0.831585 -0.508740 0.222822
vn 0.831585 -0.508740 0.222822
vn 0.831585 -0.508740 0.222822
vn 0.831585 -0.508740 -0.222822
vn 0.831585 -0.508740 -0.222822
vn 0.831585 -0.508740 -0.222822
vn 0.831585 -0.508740 -0.222822
vn 0.608762 -0.508742 -0.608762
vn 0.608762 -0.508742 -0.608762
vn 0.608762 -0.508742 -0.608762
vn 0.608762 -0.508742 -0.608762
vn 0.222823 -0.508738 -0.831586
vn 0.222823 -0.508737 -0.831587
vn 0.222823 -0.508737 -0.831586
vn 0.222823 -0.508737 -0.831586
vn -0.222823 -0.508737 -0.831587
vn -0.222823 -0.508737 -0.831587
vn -0.222823 -0.508737 -0.831587
vn -0.222823 -0.508737 -0.831587
vn -0.608761 -0.508742 -0.608763
vn -0.608761 -0.508742 -0.608763
vn -0.608761 -0.508742 -0.608763
vn -0.608761 -0.508742 -0.608763
vn -0.831584 -0.508742 -0.222822
vn -0.831584 -0.508742 -0.222822
vn -0.831584 -0.508742 -0.222822
vn -0.831584 -0.508742 -0.222822
vn -0.831585 -0.508740 0.222822
vn -0.831585 -0.508740 0.222822
vn -0.831585 -0.508740 0.222822
vn -0.831585 -0.508740 0.222822
vn 0.572953 -0.586046 -0.572953
vn 0.572953 -0.586046 -0.572953
vn 0.572953 -0.586046 -0.572953
vn 0.572953 -0.586046 -0.572953
vn 0.135704 -0.851508 -0.506477
vn 0.135704 -0.851508 -0.506477
vn 0.135704 -0.851508 -0.506477
vn 0.135704 -0.851508 -0.506477
vn -0.209715 -0.586048 -0.782667
vn -0.209715 -0.586048 -0.782667
vn -0.209715 -0.586048 -0.782667
vn -0.209715 -0.586048 -0.782667
vn -0.572952 -0.586048 -0.572952
vn -0.572952 -0.586048 -0.572952
vn -0.572952 -0.586048 -0.572952
vn -0.572952 -0.586048 -0.572952
vn -0.506485 -0.851505 -0.135689
vn -0.506485 -0.851505 -0.135689
vn -0.506485 -0.851505 -0.135689
vn -0.506485 -0.851505 -0.135689
vn -0.782667 -0.586048 0.209715
vn -0.782667 -0.586048 0.209715
vn -0.782667 -0.586048 0.209715
vn -0.782667 -0.586048 0.209715
vn -0.572953 -0.586047 0.572952
vn -0.572953 -0.586047 0.572952
vn -0.572953 -0.586047 0.572952
vn -0.572953 -0.586047 0.572952
vn -0.135707 -0.851508 0.506476
vn -0.135707 -0.851508 0.506477
vn -0.135707 -0.851508 0.506476
vn -0.135707 -0.851508 0.506476
vn 0.209715 -0.586046 0.782668
vn 0.209715 -0.586046 0.782668
vn 0.209715 -0.586046 0.782668
vn 0.209715 -0.586046 0.782668
vn 0.572954 -0.586046 0.572952
vn 0.572954 -0.586046 0.572952
vn 0.572954 -0.586046 0.572952
vn 0.572954 -0.586046 0.572952
vn 0.506472 -0.851509 0.135711
vn 0.506472 -0.851509 0.135711
vn 0.506472 -0.851509 0.135711
vn 0.506472 -0.851509 0.135711
vn 0.782668 -0.586046 -0.209716
vn 0.782668 -0.586046 -0.209716
vn 0.782668 -0.586046 -0.209716
vn 0.782668 -0.586046 -0.209716
vn -0.281483 0.560892 -0.778567
vn -0.281483 0.560892 -0.778567
vn -0.281483 0.560892 -0.778567
vn -0.281483 0.560892 -0.778567
vn 0.090390 0.937032 -0.337344
vn 0.090390 0.937032 -0.337344
vn 0.090390 0.937032 -0.337344
vn 0.090390 0.937032 -0.337344
vn 0.633059 0.560889 -0.533517
vn 0.633059 0.560889 -0.533517
vn 0.633059 0.560889 -0.533517
vn 0.633059 0.560889 -0.533517
vn -0.081693 -0.948880 0.304883
vn -0.081693 -0.948880 0.304883
vn -0.081693 -0.948880 0.304883
vn -0.081693 -0.948880 0.304883
vn -0.600525 -0.526527 -0.601780
vn -0.600525 -0.526527 -0.601780
vn -0.600525 -0.526527 -0.601780
vn -0.600525 -0.526527 -0.601780
vn 0.820961 -0.526525 -0.220895
vn 0.820961 -0.526525 -0.220895
vn 0.820961 -0.526525 -0.220895
vn 0.820961 -0.526525 -0.220895
vn -0.778567 0.560893 0.281483
vn -0.778567 0.560893 0.281483
vn -0.778567 0.560893 0.281483
vn -0.778567 0.560893 0.281483
vn -0.337346 0.937031 -0.090391
vn -0.337346 0.937031 -0.090391
vn -0.337346 0.937031 -0.090391
vn -0.337346 0.937031 -0.090391
vn -0.533517 0.560892 -0.633056
vn -0.533517 0.560892 -0.633056
vn -0.533517 0.560892 -0.633056
vn -0.533517 0.560892 -0.633056
vn 0.304883 -0.948880 0.081694
vn 0.304883 -0.948879 0.081694
vn 0.304883 -0.948879 0.081694
vn 0.304883 -0.948879 0.081694
vn -0.601780 -0.526526 0.600526
vn -0.601780 -0.526526 0.600526
vn -0.601780 -0.526526 0.600526
vn -0.601780 -0.526526 0.600526
vn -0.220894 -0.526525 -0.820961
vn -0.220894 -0.526525 -0.820961
vn -0.220894 -0.526525 -0.820961
vn -0.220894 -0.526525 -0.820961
vn 0.281484 0.560892 0.778567
vn 0.281484 0.560892 0.778567
vn 0.281484 0.560892 0.778567
vn 0.281484 0.560892 0.778567
vn -0.090390 0.937031 0.337346
vn -0.090390 0.937031 0.337346
vn -0.090390 0.937031 0.337346
vn -0.090390 0.937031 0.337346
vn -0.633057 0.560891 0.533517
vn -0.633057 0.560891 0.533517
vn -0.633057 0.560891 0.533517
vn -0.633057 0.560891 0.533517
vn 0.081693 -0.948880 -0.304883
vn 0.081693 -0.948880 -0.304883
vn 0.081693 -0.948880 -0.304883
vn 0.081693 -0.948880 -0.304883
vn 0.600525 -0.526528 0.601779
vn 0.600525 -0.526528 0.601779
vn 0.600525 -0.526528 0.601779
vn 0.600525 -0.526528 0.601779
vn -0.820962 -0.526524 0.220895
vn -0.820962 -0.526524 0.220895
vn -0.820962 -0.526524 0.220895
vn -0.820962 -0.526524 0.220895
vn 0.778567 0.560892 -0.281484
vn 0.778567 0.560892 -0.281484
vn 0.778567 0.560892 -0.281484
vn 0.778567 0.560892 -0.281484
vn 0.337346 0.937031 0.090392
vn 0.337346 0.937031 0.090392
vn 0.337346 0.937031 0.090392
vn 0.337346 0.937031 0.090392
vn 0.533517 0.560893 0.633055
vn 0.533517 0.560893 0.633055
vn 0.533517 0.560893 0.633055
vn 0.533517 0.560893 0.633055
vn -0.304883 -0.948880 -0.081693
vn -0.304883 -0.948880 -0.081693
vn -0.304883 -0.948880 -0.081693
vn -0.304883 -0.948880 -0.081693
vn 0.601780 -0.526525 -0.600526
vn 0.601780 -0.526525 -0.600526
vn 0.601780 -0.526525 -0.600526
vn 0.601780 -0.526525 -0.600526
vn 0.220893 -0.526527 0.820960
vn 0.220893 -0.526527 0.820960
vn 0.220893 -0.526527 0.820960
vn 0.220893 -0.526527 0.820960
s off
f 61/1/1 62/2/2 14/3/3 13/4/4
f 73/5/5 74/6/6 75/7/7 76/8/8
f 63/9/9 64/10/10 16/11/11 15/12/12
f 64/10/13 65/13/14 17/14/15 16/11/16
f 79/15/17 80/16/18 81/17/19 82/18/20
f 66/19/21 67/20/22 19/21/23 18/22/24
f 67/20/25 68/23/26 20/24/27 19/21/28
f 85/25/29 86/26/30 87/27/31 88/28/32
f 69/29/33 70/30/34 22/31/35 21/32/36
f 70/30/37 71/33/38 23/34/39 22/31/40
f 91/35/41 92/36/42 93/37/43 94/38/44
f 72/39/45 61/1/46 13/4/47 24/40/48
f 2/41/49 1/42/50 25/43/51 26/44/52
f 3/45/53 2/41/54 26/44/55 27/46/56
f 4/47/57 3/45/58 27/46/59 28/48/60
f 5/49/61 4/47/62 28/48/63 29/50/64
f 6/51/65 5/49/66 29/50/67 30/52/68
f 7/53/69 6/51/70 30/52/71 31/54/72
f 8/55/73 7/53/74 31/54/75 32/56/76
f 9/57/77 8/55/78 32/56/79 33/58/80
f 10/59/81 9/57/82 33/58/83 34/60/84
f 11/61/85 10/59/86 34/60/87 35/62/88
f 12/63/89 11/61/90 35/62/91 36/64/92
f 1/42/93 12/63/94 36/64/95 25/43/96
f 13/4/97 14/3/98 38/65/99 37/66/100
f 14/3/101 15/12/102 39/67/103 38/65/104
f 15/12/105 16/11/106 40/68/107 39/67/108
f 16/11/109 17/14/110 41/69/111 40/68/112
f 17/14/113 18/22/114 42/70/115 41/69/116
f 18/22/117 19/21/118 43/71/119 42/70/120
f 19/21/121 20/24/122 44/72/123 43/71/124
f 20/24/125 21/32/126 45/73/127 44/72/128
f 21/32/129 22/31/130 46/74/131 45/73/132
f 22/31/133 23/34/134 47/75/135 46/74/136
f 23/34/137 24/40/138 48/76/139 47/75/140
f 24/40/141 13/4/142 37/66/143 48/76/144
f 26/44/145 25/43/146 49/77/147 50/78/148
f 27/46/149 26/44/150 50/78/151 51/79/152
f 28/48/153 27/46/154 51/79/155 52/80/156
f 29/50/157 28/48/158 52/80/159 53/81/160
f 30/52/161 29/50/162 53/81/163 54/82/164
f 31/54/165 30/52/166 54/82/167 55/83/168
f 32/56/169 31/54/170 55/83/171 56/84/172
f 33/58/173 32/56/174 56/84/175 57/85/176
f 34/60/177 33/58/178 57/85/179 58/86/180
f 35/62/181 34/60/182 58/86/183 59/87/184
f 36/64/185 35/62/186 59/87/187 60/88/188
f 25/43/189 36/64/190 60/88/191 49/77/192
f 37/66/193 38/65/194 50/78/195 49/77/196
f 38/65/197 39/67/198 51/79/199 50/78/200
f 39/67/201 40/68/202 52/80/203 51/79/204
f 40/68/205 41/69/206 53/81/207 52/80/208
f 41/69/209 42/70/210 54/82/211 53/81/212
f 42/70/213 43/71/214 55/83/215 54/82/216
f 43/71/217 44/72/218 56/84/219 55/83/220
f 44/72/221 45/73/222 57/85/223 56/84/224
f 45/73/225 46/74/226 58/86/227 57/85/228
f 46/74/229 47/75/230 59/87/231 58/86/232
f 47/75/233 48/76/234 60/88/235 59/87/236
f 48/76/237 37/66/238 49/77/239 60/88/240
f 1/42/241 2/41/242 62/2/243 61/1/244
f 77/89/245 78/90/246 74/6/247 73/5/248
f 3/45/249 4/47/250 64/10/251 63/9/252
f 4/47/253 5/49/254 65/13/255 64/10/256
f 83/91/257 84/92/258 80/16/259 79/15/260
f 6/51/261 7/53/262 67/20/263 66/19/264
f 7/53/265 8/55/266 68/23/267 67/20/268
f 89/93/269 90/94/270 86/26/271 85/25/272
f 9/57/273 10/59/274 70/30/275 69/29/276
f 10/59/277 11/61/278 71/33/279 70/30/280
f 95/95/281 96/96/282 92/36/283 91/35/284
f 12/63/285 1/42/286 61/1/287 72/39/288
f 63/9/289 15/12/290 75/7/291 74/6/292
f 15/12/293 14/3/294 76/8/295 75/7/296
f 14/3/297 62/2/298 73/5/299 76/8/300
f 2/41/301 3/45/302 78/90/303 77/89/304
f 3/45/305 63/9/306 74/6/307 78/90/308
f 62/2/309 2/41/310 77/89/311 73/5/312
f 66/19/313 18/22/314 81/17/315 80/16/316
f 18/22/317 17/14/318 82/18/319 81/17/320
f 17/14/321 65/13/322 79/15/323 82/18/324
f 5/49/325 6/51/326 84/92/327 83/91/328
f 6/51/329 66/19/330 80/16/331 84/92/332
f 65/13/333 5/49/334 83/91/335 79/15/336
f 69/29/337 21/32/338 87/27/339 86/26/340
f 21/32/341 20/24/342 88/28/343 87/27/344
f 20/24/345 68/23/346 85/25/347 88/28/348
f 8/55/349 9/57/350 90/94/351 89/93/352
f 9/57/353 69/29/354 86/26/355 90/94/356
f 68/23/357 8/55/358 89/93/359 85/25/360
f 72/39/361 24/40/362 93/37/363 92/36/364
f 24/40/365 23/34/366 94/38/367 93/37/368
f 23/34/369 71/33/370 91/35/371 94/38/372
f 11/61/373 12/63/374 96/96/375 95/95/376
f 12/63/377 72/39/378 92/36/379 96/96/380
f 71/33/381 11/61/382 95/95/383 91/35/384
