# This file uses centimeters as units for non-parametric coordinates.

v -514.141602 -0.000003 46.230873
v -173.598740 -0.000003 484.162933
v -259.155212 21.517866 0.992159
v -57.220615 -0.000003 509.598724
v 346.361267 17.934368 -104.592972
v 77.504181 -0.000003 -509.598663
v 407.475952 -0.000003 283.110443
v 479.591736 -0.000003 168.815536
v 421.953949 -0.000003 -256.828918
v -240.751724 19.498106 -327.385651
v -332.055817 -0.000003 -381.858551
v -324.309174 21.682280 72.019112
v -491.298431 -0.000003 -78.424606
v -333.799286 -0.000003 399.808472
v -329.324921 17.889599 325.161896
v -3.602016 19.321461 389.262665
v -19.197987 22.286219 123.204041
v -6.073347 20.490585 -92.137703
v -86.644302 -0.000003 -504.007385
v 103.580482 -0.000003 487.505798
v -115.968933 21.003012 95.097816
v 0.484786 20.030119 10.200770
v -112.306946 20.948681 -122.463646
v 198.214844 20.523136 126.161613
v 158.199997 18.891205 -43.578243
v 73.400909 23.665901 159.332779
v 185.877899 20.844507 10.073843
v 34.173786 21.025124 -208.290451
v -2.532573 20.197586 -283.128357
v 182.820847 19.370211 -197.204254
v 84.254631 19.475828 -351.514313
v 207.457245 17.687258 -321.503815
v 201.083908 -0.000003 -464.933350
v 301.602692 -0.000003 396.389435
v 300.124451 18.929180 237.799850
v 514.141663 -0.000003 46.221249
v 488.543793 -0.000003 -105.156097
v 320.295807 -0.000003 -384.944641
v 295.262756 18.621138 -250.578979
v -425.133423 -0.000003 -256.653564
v -285.668304 19.021776 -304.840088
v -266.122803 -0.000003 -436.365692
v -248.953842 20.188507 -108.730026
v -332.762787 17.838245 -204.639969
v -234.485550 20.359217 -264.870483
v -447.139893 -0.000003 283.821594
v -499.222504 -0.000003 141.380508
v -332.475067 19.278799 240.566803
v -390.321625 20.341463 138.080612
v -257.315948 22.203346 225.314331
v -157.630905 20.777138 276.102112
v -29.744349 20.957451 256.115784
v -130.200699 20.966797 26.914507
v -252.971649 23.378422 118.595657
v -381.256897 18.287312 -105.771805
v 90.752052 20.691212 250.034164
v 156.120560 18.191051 -93.971977
v 263.742737 18.302862 300.530914
v 393.599823 16.975679 191.641220
vt 0.237149 0.278970
vt 0.236774 0.279337
vt 0.236907 0.278878
vt 0.236657 0.279350
vt 0.236340 0.278737
vt 0.236639 0.278433
vt 0.236231 0.279089
vt 0.236174 0.278978
vt 0.236303 0.278595
vt 0.236919 0.278598
vt 0.237007 0.278577
vt 0.236963 0.278948
vt 0.237131 0.278856
vt 0.236937 0.279276
vt 0.236943 0.279193
vt 0.236616 0.279213
vt 0.236662 0.278960
vt 0.236673 0.278775
vt 0.236815 0.278460
vt 0.236497 0.279309
vt 0.236756 0.278974
vt 0.237032 0.278808
vt 0.237063 0.279180
vt 0.236540 0.279070
vt 0.236518 0.278764
vt 0.236366 0.279106
vt 0.236318 0.279204
vt 0.236256 0.278998
vt 0.236207 0.278736
vt 0.237086 0.278697
vt 0.236959 0.278623
vt 0.236950 0.278528
vt 0.236906 0.278785
vt 0.236994 0.278718
vt 0.236907 0.278647
vt 0.237122 0.279058
vt 0.236954 0.279111
vt 0.237021 0.279020
vt 0.236869 0.279077
vt 0.236780 0.279123
vt 0.236657 0.279087
vt 0.236781 0.278876
vt 0.236890 0.278977
vt 0.236655 0.278865
vt 0.236774 0.278783
vt 0.236714 0.278431
vt 0.236451 0.278947
vt 0.236510 0.278806
vt 0.236572 0.278945
vt 0.236477 0.278843
vt 0.236647 0.278666
vt 0.236690 0.278609
vt 0.236505 0.278668
vt 0.236615 0.278545
vt 0.236497 0.278566
vt 0.236520 0.278459
vt 0.236339 0.279042
vt 0.236160 0.278864
vt 0.236257 0.278648
vt 0.236402 0.278511
vt 0.236406 0.278614
vn -0.155731 0.985880 -0.061549
vn -0.155731 0.985880 -0.061549
vn -0.155731 0.985880 -0.061549
vn -0.025854 0.999666 -0.000344
vn -0.025854 0.999666 -0.000344
vn -0.025854 0.999666 -0.000344
vn -0.016676 0.999788 -0.012100
vn -0.016676 0.999788 -0.012100
vn -0.016676 0.999788 -0.012100
vn -0.133292 0.977874 -0.161232
vn -0.133292 0.977874 -0.161232
vn -0.133292 0.977874 -0.161232
vn -0.088454 0.983878 -0.155437
vn -0.088454 0.983878 -0.155437
vn -0.088454 0.983878 -0.155437
vn -0.143085 0.989363 -0.026220
vn -0.143085 0.989363 -0.026220
vn -0.143085 0.989363 -0.026220
vn -0.029837 0.999509 -0.009529
vn -0.029837 0.999509 -0.009529
vn -0.029837 0.999509 -0.009529
vn -0.167432 0.985777 -0.014528
vn -0.167432 0.985777 -0.014528
vn -0.167432 0.985777 -0.014528
vn -0.011887 0.999842 -0.013219
vn -0.011887 0.999842 -0.013219
vn -0.011888 0.999842 -0.013219
vn -0.017945 0.999750 -0.013343
vn -0.017945 0.999750 -0.013343
vn -0.017945 0.999750 -0.013343
vn -0.012580 0.999830 -0.013508
vn -0.012580 0.999830 -0.013508
vn -0.012580 0.999830 -0.013508
vn -0.026476 0.999649 -0.001360
vn -0.026476 0.999649 -0.001360
vn -0.026476 0.999649 -0.001360
vn -0.179682 0.981461 -0.066704
vn -0.179682 0.981461 -0.066704
vn -0.179682 0.981461 -0.066704
vn -0.147245 0.986122 -0.076702
vn -0.147245 0.986122 -0.076702
vn -0.147245 0.986122 -0.076702
vn -0.145957 0.987850 0.053368
vn -0.145957 0.987850 0.053368
vn -0.145957 0.987850 0.053368
vn -0.179213 0.977495 0.111289
vn -0.179213 0.977495 0.111289
vn -0.179213 0.977495 0.111289
vn -0.019102 0.999594 0.021147
vn -0.019102 0.999594 0.021147
vn -0.019102 0.999594 0.021147
vn -0.036955 0.999272 0.009499
vn -0.036955 0.999272 0.009499
vn -0.036955 0.999272 0.009499
vn -0.022403 0.999747 -0.002095
vn -0.022403 0.999747 -0.002095
vn -0.022403 0.999747 -0.002095
vn -0.013922 0.999789 -0.015085
vn -0.013922 0.999789 -0.015085
vn -0.013922 0.999789 -0.015085
vn -0.182699 0.982751 0.028647
vn -0.182699 0.982751 0.028647
vn -0.182699 0.982752 0.028647
vn -0.219887 0.951568 0.214870
vn -0.219887 0.951568 0.214870
vn -0.219887 0.951568 0.214870
vn -0.118321 0.967216 0.224708
vn -0.118321 0.967216 0.224708
vn -0.118321 0.967216 0.224708
vn -0.035284 0.999220 0.017723
vn -0.035284 0.999220 0.017723
vn -0.035284 0.999220 0.017723
vn -0.157657 0.987247 0.022083
vn -0.157657 0.987247 0.022083
vn -0.157657 0.987247 0.022083
vn -0.005630 0.999219 0.039110
vn -0.005630 0.999219 0.039110
vn -0.005630 0.999219 0.039110
vn 0.011918 0.994889 0.100265
vn 0.011918 0.994889 0.100265
vn 0.011918 0.994889 0.100265
vn -0.031626 0.988970 0.144700
vn -0.031626 0.988970 0.144700
vn -0.031626 0.988970 0.144700
vn 0.014295 0.994840 0.100443
vn 0.014295 0.994840 0.100443
vn 0.014295 0.994840 0.100443
vn -0.095760 0.994921 0.031026
vn -0.095760 0.994921 0.031026
vn -0.095760 0.994921 0.031026
vn 0.007532 0.999840 -0.016214
vn 0.007532 0.999840 -0.016214
vn 0.007532 0.999840 -0.016214
vn 0.016649 0.999853 -0.004006
vn 0.016649 0.999853 -0.004006
vn 0.016649 0.999853 -0.004006
vn 0.018271 0.999818 0.005453
vn 0.018271 0.999818 0.005453
vn 0.018271 0.999818 0.005453
vn 0.008520 0.999899 0.011357
vn 0.008520 0.999899 0.011357
vn 0.008520 0.999899 0.011357
vn -0.012768 0.999917 -0.001691
vn -0.012768 0.999917 -0.001691
vn -0.012768 0.999917 -0.001691
vn -0.013854 0.999901 -0.002675
vn -0.013854 0.999900 -0.002675
vn -0.013854 0.999900 -0.002675
vn 0.003554 0.999489 0.031758
vn 0.003554 0.999489 0.031758
vn 0.003554 0.999489 0.031758
vn -0.007101 0.999750 -0.021197
vn -0.007101 0.999750 -0.021197
vn -0.007101 0.999750 -0.021197
vn -0.005504 0.999985 0.000583
vn -0.005504 0.999985 0.000583
vn -0.005504 0.999985 0.000583
vn -0.006844 0.999895 -0.012751
vn -0.006844 0.999895 -0.012751
vn -0.006844 0.999895 -0.012751
vn 0.004197 0.999991 0.000381
vn 0.004197 0.999991 0.000381
vn 0.004197 0.999991 0.000381
vn 0.004203 0.999991 0.000382
vn 0.004203 0.999991 0.000382
vn 0.004203 0.999991 0.000382
vn 0.007680 0.999963 0.004007
vn 0.007680 0.999963 0.004007
vn 0.007680 0.999963 0.004007
vn 0.006915 0.999974 -0.001974
vn 0.006915 0.999974 -0.001974
vn 0.006915 0.999974 -0.001974
vn -0.001961 0.999995 -0.002457
vn -0.001961 0.999995 -0.002457
vn -0.001961 0.999995 -0.002457
vn 0.002728 0.999981 0.005547
vn 0.002728 0.999981 0.005547
vn 0.002728 0.999981 0.005547
vn -0.061054 0.984900 -0.161999
vn -0.061054 0.984900 -0.161999
vn -0.061054 0.984900 -0.161999
vn 0.012746 0.996354 -0.084355
vn 0.012746 0.996354 -0.084355
vn 0.012746 0.996354 -0.084355
vn -0.000384 0.999906 -0.013735
vn -0.000384 0.999906 -0.013735
vn -0.000384 0.999906 -0.013735
vn -0.000167 0.999940 -0.010975
vn -0.000167 0.999940 -0.010975
vn -0.000167 0.999940 -0.010975
vn -0.003851 0.993582 -0.113046
vn -0.003851 0.993582 -0.113046
vn -0.003851 0.993582 -0.113046
vn 0.002802 0.999927 0.011736
vn 0.002802 0.999927 0.011736
vn 0.002802 0.999927 0.011736
vn 0.023156 0.985423 0.168540
vn 0.023156 0.985423 0.168540
vn 0.023156 0.985423 0.168540
vn 0.050157 0.988913 0.139768
vn 0.050157 0.988913 0.139768
vn 0.050157 0.988913 0.139768
vn 0.011331 0.999900 0.008474
vn 0.011331 0.999900 0.008474
vn 0.011331 0.999900 0.008474
vn 0.009127 0.999830 0.016022
vn 0.009127 0.999830 0.016022
vn 0.009127 0.999830 0.016022
vn 0.000440 0.999802 -0.019884
vn 0.000440 0.999802 -0.019884
vn 0.000440 0.999802 -0.019884
vn -0.010156 0.999463 -0.031148
vn -0.010156 0.999463 -0.031148
vn -0.010156 0.999463 -0.031148
vn -0.005813 0.999712 -0.023278
vn -0.005813 0.999712 -0.023278
vn -0.005813 0.999712 -0.023278
vn 0.003826 0.999479 0.032048
vn 0.003826 0.999479 0.032048
vn 0.003826 0.999479 0.032048
vn 0.032228 0.999126 0.026603
vn 0.032228 0.999126 0.026603
vn 0.032228 0.999126 0.026603
vn 0.025195 0.999683 0.000090
vn 0.025195 0.999683 0.000090
vn 0.025195 0.999683 0.000090
vn 0.014284 0.999852 0.009551
vn 0.014284 0.999852 0.009551
vn 0.014284 0.999852 0.009551
vn 0.014217 0.999893 0.003588
vn 0.014217 0.999893 0.003588
vn 0.014217 0.999893 0.003588
vn 0.002449 0.999899 -0.013993
vn 0.002449 0.999899 -0.013993
vn 0.002449 0.999899 -0.013993
vn 0.000572 0.999903 -0.013916
vn 0.000572 0.999903 -0.013916
vn 0.000572 0.999903 -0.013916
vn -0.005754 0.999425 -0.033418
vn -0.005754 0.999425 -0.033418
vn -0.005754 0.999425 -0.033418
vn 0.010085 0.999851 0.014029
vn 0.010085 0.999851 0.014029
vn 0.010085 0.999851 0.014029
vn -0.084956 0.989342 -0.118258
vn -0.084956 0.989342 -0.118258
vn -0.084956 0.989342 -0.118258
vn 0.005891 0.999978 -0.003078
vn 0.005891 0.999978 -0.003078
vn 0.005891 0.999978 -0.003078
vn 0.012409 0.999776 -0.017142
vn 0.012409 0.999776 -0.017142
vn 0.012409 0.999776 -0.017142
vn 0.016992 0.999804 -0.010169
vn 0.016992 0.999804 -0.010169
vn 0.016992 0.999804 -0.010169
vn 0.044831 0.991264 -0.124037
vn 0.044831 0.991264 -0.124037
vn 0.044831 0.991264 -0.124037
vn 0.044649 0.991250 -0.124222
vn 0.044649 0.991250 -0.124222
vn 0.044649 0.991250 -0.124222
vn 0.002876 0.999928 0.011651
vn 0.002876 0.999928 0.011651
vn 0.002876 0.999928 0.011651
vn 0.073196 0.984549 0.159077
vn 0.073196 0.984549 0.159077
vn 0.073196 0.984549 0.159077
vn 0.140910 0.981224 0.131698
vn 0.140910 0.981224 0.131698
vn 0.140910 0.981224 0.131698
vn 0.136422 0.986648 0.088971
vn 0.136422 0.986647 0.088971
vn 0.136422 0.986647 0.088971
vn 0.018689 0.999825 0.000782
vn 0.018689 0.999825 0.000782
vn 0.018689 0.999825 0.000782
vn 0.016396 0.999865 -0.000691
vn 0.016396 0.999865 -0.000691
vn 0.016396 0.999865 -0.000691
vn 0.102679 0.980693 0.166429
vn 0.102679 0.980693 0.166429
vn 0.102679 0.980693 0.166429
vn 0.228320 0.962869 0.144061
vn 0.228320 0.962869 0.144061
vn 0.228320 0.962869 0.144061
vn 0.097183 0.995214 0.010232
vn 0.097183 0.995214 0.010232
vn 0.097183 0.995214 0.010232
vn -0.061232 0.984281 -0.165658
vn -0.061232 0.984281 -0.165658
vn -0.061232 0.984281 -0.165658
vn 0.208315 0.976298 0.058708
vn 0.208315 0.976298 0.058708
vn 0.208315 0.976298 0.058708
vn 0.002016 0.999927 0.011943
vn 0.002016 0.999927 0.011943
vn 0.002016 0.999927 0.011943
vn 0.007627 0.999969 0.002034
vn 0.007627 0.999969 0.002034
vn 0.007627 0.999969 0.002034
vn 0.125034 0.991927 -0.021143
vn 0.125034 0.991927 -0.021143
vn 0.125034 0.991927 -0.021143
vn 0.124897 0.991401 -0.039053
vn 0.124897 0.991401 -0.039053
vn 0.124897 0.991401 -0.039053
vn 0.142121 0.987881 -0.062396
vn 0.142121 0.987881 -0.062396
vn 0.142121 0.987881 -0.062396
vn 0.084304 0.988487 -0.125643
vn 0.084304 0.988487 -0.125643
vn 0.084304 0.988487 -0.125643
vn 0.087073 0.988849 -0.120818
vn 0.087073 0.988849 -0.120818
vn 0.087073 0.988849 -0.120818
vn 0.000259 0.999909 -0.013487
vn 0.000259 0.999909 -0.013487
vn 0.000259 0.999909 -0.013487
vn -0.178913 0.974833 -0.133004
vn -0.178913 0.974833 -0.133004
vn -0.178913 0.974833 -0.133004
vn 0.139193 0.984087 -0.110448
vn 0.139193 0.984087 -0.110448
vn 0.139193 0.984087 -0.110448
s off
f 40/30/1 44/34/2 41/31/3
f 45/35/4 41/31/5 44/34/6
f 10/10/7 41/31/8 45/35/9
f 11/11/10 41/31/11 42/32/12
f 10/10/13 42/32/14 41/31/15
f 49/38/16 13/13/17 1/1/18
f 12/12/19 55/22/20 49/38/21
f 49/38/22 55/22/23 13/13/24
f 3/3/25 43/33/26 12/12/27
f 12/12/28 44/34/29 55/22/30
f 43/33/31 44/34/32 12/12/33
f 43/33/34 45/35/35 44/34/36
f 13/13/37 55/22/38 40/30/39
f 44/34/40 40/30/41 55/22/42
f 48/37/43 47/36/44 46/23/45
f 49/38/46 47/36/47 48/37/48
f 49/38/49 48/37/50 54/43/51
f 50/39/52 54/43/53 48/37/54
f 54/43/55 12/12/56 49/38/57
f 3/3/58 12/12/59 54/43/60
f 47/36/61 49/38/62 1/1/63
f 46/23/64 14/14/65 15/15/66
f 2/2/67 15/15/68 14/14/69
f 48/37/70 15/15/71 50/39/72
f 15/15/73 48/37/74 46/23/75
f 15/15/76 51/40/77 50/39/78
f 15/15/79 2/2/80 51/40/81
f 16/16/82 2/2/83 4/4/84
f 2/2/85 52/41/86 51/40/87
f 2/2/88 16/16/89 52/41/90
f 53/42/91 3/3/92 54/43/93
f 21/21/94 53/42/95 54/43/96
f 21/21/97 54/43/98 51/40/99
f 51/40/100 54/43/101 50/39/102
f 21/21/103 51/40/104 17/17/105
f 17/17/106 51/40/107 26/49/108
f 26/49/109 51/40/110 52/41/111
f 22/44/112 21/21/113 17/17/114
f 45/35/115 43/33/116 23/45/117
f 3/3/118 23/45/119 43/33/120
f 23/45/121 3/3/122 53/42/123
f 23/45/124 53/42/125 18/18/126
f 18/18/127 53/42/128 22/44/129
f 22/44/130 53/42/131 21/21/132
f 45/35/133 23/45/134 28/51/135
f 28/51/136 23/45/137 18/18/138
f 42/32/139 10/10/140 19/19/141
f 10/10/142 29/52/143 6/6/144
f 45/35/145 29/52/146 10/10/147
f 45/35/148 28/51/149 29/52/150
f 10/10/151 6/6/152 19/46/153
f 56/24/154 52/41/155 16/16/156
f 4/4/157 20/20/158 16/16/159
f 16/16/160 20/20/161 58/26/162
f 24/47/163 56/24/164 58/26/165
f 16/16/166 58/26/167 56/24/168
f 17/17/169 25/48/170 22/44/171
f 27/50/172 25/48/173 17/17/174
f 27/50/175 17/17/176 26/49/177
f 26/49/178 52/41/179 56/24/180
f 24/47/181 26/49/182 56/24/183
f 24/47/184 27/50/185 26/49/186
f 28/51/187 18/18/188 57/25/189
f 57/25/190 18/18/191 22/44/192
f 57/25/193 22/44/194 25/48/195
f 5/5/196 57/25/197 25/48/198
f 5/5/199 25/48/200 27/50/201
f 30/53/202 28/51/203 57/25/204
f 6/6/205 29/52/206 31/54/207
f 31/54/208 29/52/209 30/53/210
f 30/53/211 29/52/212 28/51/213
f 32/55/214 31/54/215 30/53/216
f 6/6/217 31/54/218 33/56/219
f 33/56/220 31/54/221 32/55/222
f 35/57/223 24/47/224 58/26/225
f 20/20/226 34/27/227 58/26/228
f 58/26/229 34/27/230 7/7/231
f 58/26/232 7/7/233 35/57/234
f 5/5/235 27/50/236 24/47/237
f 5/5/238 24/47/239 35/57/240
f 35/57/241 7/7/242 59/28/243
f 8/8/244 59/28/245 7/7/246
f 35/57/247 36/58/248 5/5/249
f 35/57/250 59/28/251 36/58/252
f 36/58/253 59/28/254 8/8/255
f 57/25/256 5/5/257 30/53/258
f 39/61/259 30/53/260 5/5/261
f 5/5/262 36/58/263 37/29/264
f 5/5/265 37/29/266 39/61/267
f 39/61/268 37/29/269 9/59/270
f 32/55/271 38/60/272 33/56/273
f 39/61/274 38/60/275 32/55/276
f 30/53/277 39/61/278 32/55/279
f 41/31/280 11/11/281 40/30/282
f 9/9/283 38/60/284 39/61/285
