# This file uses centimeters as units for non-parametric coordinates.

v 227.178162 0.016693 37.283417
v 71.073242 0.016687 269.054932
v 13.916870 0.016699 275.935852
v 10.641113 0.016687 -242.373108
v -165.106812 0.016733 135.117828
v -212.625046 0.016687 -130.197205
v 207.064056 25.060268 -145.944656
v 246.723389 0.016691 -175.843033
v 240.953918 0.016699 -24.105499
v 132.775513 0.016687 236.294250
v 6.804718 31.134029 220.918365
v -58.992889 0.016682 248.977905
v -66.032669 28.701193 95.703369
v 104.000122 31.442265 -86.334427
v -95.932922 35.799385 -84.479050
v -67.369278 0.016687 -227.339401
v -252.497070 0.016691 4.413666
v -249.444260 0.016680 -67.207245
v -139.072357 0.016687 -190.393814
v 263.464172 0.016699 -103.001129
v 149.094299 0.016682 -224.568985
v 183.465729 28.984676 -109.805725
v 158.169312 22.714714 127.552765
v 176.463196 25.964342 68.930359
v 98.879822 17.096106 123.860443
v 124.029541 41.154026 63.854797
v -113.667328 40.509190 -55.484131
v -94.346664 10.834676 162.857239
v -215.698196 0.016714 69.974670
v 75.262848 16.734444 25.831696
v 35.990601 41.308220 111.243561
v -14.111664 35.306171 39.430573
v 149.636536 39.471210 -48.903458
v 119.016510 29.328712 -121.839493
v 6.293091 40.651634 171.721405
v -45.476486 23.411369 198.430084
v -65.697281 16.222723 147.066406
v -64.927643 45.751419 19.281219
v -13.889648 41.546238 92.562073
v -34.958374 38.639465 57.391663
v 2.916901 11.000373 -79.130981
v 24.676361 9.439912 -43.815063
v -49.435928 38.468353 -3.536591
v 0.102448 10.771804 -117.311874
v -8.959320 8.438992 -167.995605
v -58.652206 24.966267 -128.578354
v -80.334549 13.406767 -178.796219
v -149.696762 21.410976 55.497620
v -129.866867 0.016680 191.267761
v -121.807938 39.909382 -12.186310
v -182.195190 21.725880 -34.514511
v -219.004944 11.936764 -72.845184
v -165.660889 18.629322 -112.131882
v 220.375122 19.960386 -111.707550
v 159.917816 37.799164 21.154907
v 190.786438 34.281879 -23.072525
v 175.706146 39.576805 -34.937653
v 198.371857 33.390503 -59.130798
v 186.131409 0.016680 177.169525
v 215.742432 0.016684 100.040527
v 149.804535 16.378365 180.396973
v 148.994202 25.838276 139.775330
v 126.274414 37.871307 87.866669
v 28.634766 39.693077 187.845428
v 98.690247 8.786400 197.259583
v 49.010223 29.848452 212.855713
v 2.742523 26.244785 -0.730408
v -100.279129 49.727467 -19.105209
v -119.661972 45.758934 -36.926941
v -220.224686 11.385898 -5.158936
v -168.650848 30.586590 -58.587570
vt 0.237142 0.278992
vt 0.236744 0.279341
vt 0.236617 0.279340
vt 0.236657 0.278432
vt 0.236238 0.279045
vt 0.236304 0.278600
vt 0.236928 0.278623
vt 0.237010 0.278589
vt 0.237135 0.278885
vt 0.236896 0.279291
vt 0.236607 0.279212
vt 0.236453 0.279283
vt 0.236448 0.278950
vt 0.236724 0.278722
vt 0.236511 0.278662
vt 0.236550 0.278453
vt 0.236172 0.278832
vt 0.236220 0.278714
vt 0.236431 0.278498
vt 0.237097 0.278737
vt 0.236883 0.278494
vt 0.236903 0.278722
vt 0.236963 0.279103
vt 0.237024 0.279006
vt 0.236777 0.279112
vt 0.236888 0.278982
vt 0.236509 0.278713
vt 0.236350 0.279065
vt 0.236185 0.278948
vt 0.236781 0.279215
vt 0.236682 0.279213
vt 0.236584 0.278840
vt 0.236437 0.278777
vt 0.236442 0.278748
vt 0.236254 0.278815
vt 0.236429 0.278700
vt 0.236989 0.278728
vt 0.236962 0.278925
vt 0.236999 0.278877
vt 0.236937 0.278855
vt 0.236977 0.278827
vt 0.237031 0.279204
vt 0.237108 0.279088
vt 0.236930 0.279191
vt 0.236922 0.279127
vt 0.236878 0.279042
vt 0.236640 0.279159
vt 0.236731 0.278905
vt 0.236673 0.279033
vt 0.236565 0.278897
vt 0.236841 0.278830
vt 0.236714 0.278431
vt 0.236748 0.278641
vt 0.236605 0.279123
vt 0.236496 0.279164
vt 0.236414 0.279031
vt 0.236487 0.278855
vt 0.236578 0.278962
vt 0.236530 0.278904
vt 0.236584 0.278716
vt 0.236605 0.278769
vt 0.236517 0.278815
vt 0.236603 0.278633
vt 0.236600 0.278546
vt 0.236554 0.278583
vt 0.236544 0.278523
vt 0.236334 0.278892
vt 0.236296 0.279175
vt 0.236420 0.278804
vt 0.236350 0.278750
vt 0.236305 0.278678
vt 0.236452 0.278589
vn 0.424900 0.904729 -0.030431
vn 0.424900 0.904729 -0.030431
vn 0.424900 0.904729 -0.030431
vn 0.239681 0.969499 0.051229
vn 0.239681 0.969499 0.051229
vn 0.239681 0.969499 0.051229
vn 0.219157 0.871293 -0.439111
vn 0.219157 0.871293 -0.439111
vn 0.219157 0.871293 -0.439111
vn 0.525896 0.835851 0.157438
vn 0.525896 0.835851 0.157438
vn 0.525896 0.835851 0.157438
vn 0.561287 0.817981 0.125954
vn 0.561287 0.817981 0.125954
vn 0.561287 0.817981 0.125954
vn 0.296430 0.945935 0.131666
vn 0.296430 0.945935 0.131666
vn 0.296430 0.945935 0.131666
vn 0.562669 0.820844 0.098075
vn 0.562669 0.820844 0.098075
vn 0.562669 0.820844 0.098075
vn 0.111701 0.993741 -0.001067
vn 0.111701 0.993741 -0.001067
vn 0.111701 0.993741 -0.001067
vn 0.134754 0.982950 -0.125099
vn 0.134754 0.982950 -0.125099
vn 0.134754 0.982951 -0.125099
vn 0.397602 0.906714 0.140648
vn 0.397602 0.906714 0.140648
vn 0.397602 0.906714 0.140648
vn 0.227469 0.962076 -0.150556
vn 0.227469 0.962076 -0.150556
vn 0.227469 0.962076 -0.150556
vn 0.529766 0.834566 0.151151
vn 0.529766 0.834566 0.151151
vn 0.529766 0.834566 0.151151
vn 0.428012 0.902312 -0.051363
vn 0.428012 0.902312 -0.051363
vn 0.428012 0.902312 -0.051363
vn 0.428865 0.888238 0.164648
vn 0.428865 0.888238 0.164648
vn 0.428865 0.888238 0.164648
vn 0.435615 0.880964 0.184774
vn 0.435615 0.880964 0.184774
vn 0.435615 0.880964 0.184774
vn 0.263601 0.955109 0.135205
vn 0.263601 0.955109 0.135205
vn 0.263601 0.955109 0.135205
vn 0.324776 0.940675 0.098238
vn 0.324776 0.940675 0.098238
vn 0.324776 0.940675 0.098238
vn 0.379005 0.924131 0.048339
vn 0.379005 0.924131 0.048339
vn 0.379005 0.924131 0.048339
vn 0.262274 0.953964 0.145484
vn 0.262274 0.953964 0.145484
vn 0.262274 0.953964 0.145484
vn 0.192809 0.977526 0.085249
vn 0.192809 0.977526 0.085249
vn 0.192809 0.977526 0.085249
vn 0.497892 0.862480 0.090727
vn 0.497892 0.862480 0.090727
vn 0.497892 0.862480 0.090727
vn 0.408757 0.834775 0.368874
vn 0.408757 0.834775 0.368874
vn 0.408757 0.834776 0.368874
vn 0.080296 0.985232 0.151232
vn 0.080296 0.985232 0.151232
vn 0.080296 0.985232 0.151232
vn -0.055615 0.962686 0.264845
vn -0.055615 0.962686 0.264845
vn -0.055615 0.962686 0.264845
vn 0.417107 0.886975 0.198237
vn 0.417107 0.886975 0.198237
vn 0.417107 0.886975 0.198237
vn 0.472693 0.871258 0.132180
vn 0.472693 0.871258 0.132180
vn 0.472693 0.871258 0.132180
vn -0.261796 0.908675 0.325226
vn -0.261796 0.908675 0.325226
vn -0.261796 0.908675 0.325226
vn -0.069189 0.971299 0.227575
vn -0.069189 0.971299 0.227575
vn -0.069189 0.971299 0.227575
vn -0.204489 0.972714 0.109595
vn -0.204489 0.972714 0.109595
vn -0.204489 0.972714 0.109595
vn 0.117707 0.870816 0.477309
vn 0.117707 0.870816 0.477309
vn 0.117707 0.870816 0.477309
vn 0.054347 0.890646 0.451438
vn 0.054347 0.890646 0.451438
vn 0.054347 0.890646 0.451438
vn 0.389625 0.915015 0.104597
vn 0.389625 0.915015 0.104597
vn 0.389625 0.915015 0.104597
vn 0.447311 0.850734 0.275980
vn 0.447311 0.850734 0.275980
vn 0.447311 0.850734 0.275980
vn 0.399426 0.916090 0.035188
vn 0.399426 0.916090 0.035188
vn 0.399426 0.916090 0.035188
vn 0.086770 0.949069 0.302885
vn 0.086770 0.949069 0.302885
vn 0.086770 0.949069 0.302885
vn 0.003516 0.999894 -0.014124
vn 0.003516 0.999894 -0.014124
vn 0.003516 0.999894 -0.014124
vn -0.381782 0.918782 -0.100413
vn -0.381782 0.918782 -0.100413
vn -0.381782 0.918782 -0.100413
vn -0.518738 0.846205 0.121852
vn -0.518738 0.846205 0.121852
vn -0.518738 0.846205 0.121852
vn -0.452086 0.877107 0.162177
vn -0.452086 0.877107 0.162177
vn -0.452086 0.877107 0.162177
vn 0.170190 0.965027 -0.199394
vn 0.170190 0.965027 -0.199394
vn 0.170190 0.965027 -0.199394
vn 0.373997 0.922704 -0.093507
vn 0.373997 0.922704 -0.093507
vn 0.373997 0.922704 -0.093507
vn 0.048443 0.991984 -0.116707
vn 0.048443 0.991984 -0.116707
vn 0.048443 0.991984 -0.116707
vn -0.003016 0.999779 0.020791
vn -0.003016 0.999779 0.020791
vn -0.003016 0.999779 0.020791
vn 0.349451 0.935438 0.053280
vn 0.349451 0.935438 0.053280
vn 0.349451 0.935439 0.053280
vn -0.093497 0.990733 -0.098520
vn -0.093497 0.990733 -0.098520
vn -0.093497 0.990733 -0.098520
vn 0.033554 0.987893 -0.151463
vn 0.033554 0.987893 -0.151463
vn 0.033554 0.987893 -0.151463
vn 0.067209 0.988844 -0.132933
vn 0.067209 0.988844 -0.132933
vn 0.067209 0.988844 -0.132933
vn -0.227537 0.971317 0.069069
vn -0.227537 0.971317 0.069069
vn -0.227537 0.971317 0.069069
vn -0.014153 0.974431 -0.224242
vn -0.014153 0.974431 -0.224242
vn -0.014153 0.974431 -0.224242
vn -0.109976 0.983968 -0.140403
vn -0.109976 0.983968 -0.140403
vn -0.109976 0.983968 -0.140403
vn 0.022725 0.995383 -0.093252
vn 0.022725 0.995383 -0.093252
vn 0.022725 0.995383 -0.093252
vn 0.042646 0.942444 -0.331632
vn 0.042646 0.942445 -0.331632
vn 0.042646 0.942445 -0.331632
vn -0.095220 0.977150 0.190029
vn -0.095220 0.977150 0.190029
vn -0.095220 0.977150 0.190029
vn -0.185544 0.844839 0.501818
vn -0.185544 0.844839 0.501818
vn -0.185544 0.844839 0.501818
vn -0.279206 0.897711 0.340822
vn -0.279206 0.897711 0.340822
vn -0.279206 0.897711 0.340822
vn -0.219503 0.947705 0.231675
vn -0.219503 0.947705 0.231675
vn -0.219503 0.947705 0.231675
vn -0.221962 0.956873 0.187424
vn -0.221962 0.956873 0.187424
vn -0.221962 0.956873 0.187424
vn -0.319189 0.947666 -0.006973
vn -0.319189 0.947666 -0.006973
vn -0.319189 0.947666 -0.006973
vn -0.350220 0.931333 0.099819
vn -0.350220 0.931333 0.099819
vn -0.350220 0.931333 0.099819
vn -0.212628 0.975703 -0.052848
vn -0.212628 0.975703 -0.052848
vn -0.212628 0.975703 -0.052848
vn 0.180301 0.973032 -0.143876
vn 0.180301 0.973032 -0.143876
vn 0.180301 0.973032 -0.143876
vn 0.250806 0.958486 -0.135653
vn 0.250806 0.958486 -0.135653
vn 0.250806 0.958486 -0.135653
vn 0.232558 0.965131 -0.120163
vn 0.232558 0.965131 -0.120163
vn 0.232558 0.965131 -0.120163
vn 0.187642 0.981591 0.035621
vn 0.187642 0.981591 0.035621
vn 0.187642 0.981591 0.035621
vn 0.057997 0.991474 -0.116687
vn 0.057997 0.991474 -0.116687
vn 0.057997 0.991474 -0.116687
vn 0.042546 0.999094 0.000444
vn 0.042545 0.999094 0.000444
vn 0.042546 0.999094 0.000444
vn -0.235296 0.970021 0.060783
vn -0.235296 0.970021 0.060783
vn -0.235296 0.970021 0.060783
vn 0.225830 0.969394 -0.096309
vn 0.225830 0.969394 -0.096309
vn 0.225830 0.969394 -0.096309
vn -0.185011 0.970137 0.156859
vn -0.185011 0.970137 0.156859
vn -0.185011 0.970137 0.156859
vn -0.232890 0.970155 0.067545
vn -0.232890 0.970155 0.067545
vn -0.232890 0.970155 0.067545
vn 0.233557 0.939151 -0.251889
vn 0.233557 0.939150 -0.251889
vn 0.233556 0.939151 -0.251889
vn 0.232158 0.940373 -0.248597
vn 0.232158 0.940373 -0.248597
vn 0.232158 0.940373 -0.248597
vn 0.217483 0.941732 -0.256598
vn 0.217483 0.941732 -0.256598
vn 0.217483 0.941732 -0.256598
vn -0.347535 0.921616 0.172753
vn -0.347535 0.921616 0.172753
vn -0.347535 0.921616 0.172753
vn 0.041186 0.964827 -0.259641
vn 0.041186 0.964827 -0.259641
vn 0.041186 0.964827 -0.259641
vn 0.300714 0.892277 -0.336769
vn 0.300714 0.892277 -0.336769
vn 0.300714 0.892277 -0.336769
vn -0.350879 0.913744 0.204832
vn -0.350879 0.913744 0.204832
vn -0.350879 0.913744 0.204832
vn -0.289506 0.887488 0.358542
vn -0.289506 0.887488 0.358542
vn -0.289506 0.887488 0.358542
vn 0.253178 0.958105 -0.133921
vn 0.253178 0.958105 -0.133921
vn 0.253178 0.958106 -0.133921
vn 0.243756 0.969800 -0.008440
vn 0.243756 0.969800 -0.008440
vn 0.243756 0.969800 -0.008440
vn 0.244478 0.969362 -0.023824
vn 0.244478 0.969362 -0.023824
vn 0.244478 0.969362 -0.023824
vn -0.197613 0.980242 0.008699
vn -0.197613 0.980242 0.008699
vn -0.197613 0.980242 0.008699
vn 0.240951 0.969922 -0.034569
vn 0.240951 0.969921 -0.034569
vn 0.240951 0.969921 -0.034569
vn 0.250006 0.964138 -0.089075
vn 0.250006 0.964138 -0.089075
vn 0.250006 0.964138 -0.089075
vn -0.154824 0.987782 -0.017784
vn -0.154824 0.987782 -0.017784
vn -0.154824 0.987782 -0.017784
vn -0.157622 0.979559 -0.124975
vn -0.157622 0.979559 -0.124975
vn -0.157622 0.979559 -0.124975
vn -0.104944 0.941581 -0.320020
vn -0.104944 0.941581 -0.320020
vn -0.104944 0.941581 -0.320020
vn -0.022822 0.992701 -0.118425
vn -0.022822 0.992701 -0.118425
vn -0.022822 0.992701 -0.118425
vn 0.103331 0.965570 -0.238743
vn 0.103331 0.965569 -0.238743
vn 0.103331 0.965569 -0.238743
vn 0.107021 0.957823 -0.266686
vn 0.107021 0.957823 -0.266686
vn 0.107021 0.957823 -0.266686
vn -0.102441 0.983411 0.149693
vn -0.102441 0.983411 0.149693
vn -0.102441 0.983411 0.149693
vn -0.194878 0.952811 0.232754
vn -0.194878 0.952811 0.232754
vn -0.194878 0.952811 0.232754
vn -0.277893 0.897944 0.341281
vn -0.277893 0.897944 0.341281
vn -0.277893 0.897944 0.341281
vn -0.269370 0.962577 0.029745
vn -0.269370 0.962577 0.029745
vn -0.269370 0.962577 0.029745
vn -0.197198 0.972520 0.123764
vn -0.197198 0.972520 0.123764
vn -0.197198 0.972520 0.123764
vn -0.114788 0.980228 0.161173
vn -0.114788 0.980228 0.161173
vn -0.114788 0.980228 0.161173
vn -0.312947 0.858478 0.406299
vn -0.312947 0.858479 0.406299
vn -0.312947 0.858479 0.406299
vn -0.327072 0.937173 0.121366
vn -0.327072 0.937173 0.121366
vn -0.327072 0.937173 0.121366
vn -0.176092 0.965597 0.191345
vn -0.176092 0.965598 0.191345
vn -0.176092 0.965597 0.191345
vn -0.255598 0.940377 0.224414
vn -0.255598 0.940377 0.224414
vn -0.255598 0.940377 0.224414
vn -0.205386 0.975603 0.077567
vn -0.205386 0.975603 0.077567
vn -0.205386 0.975603 0.077567
vn -0.273998 0.949354 0.153793
vn -0.273998 0.949354 0.153793
vn -0.273998 0.949354 0.153793
vn -0.281702 0.944047 0.171518
vn -0.281702 0.944048 0.171518
vn -0.281702 0.944048 0.171518
vn -0.211753 0.963388 0.164451
vn -0.211753 0.963388 0.164451
vn -0.211753 0.963388 0.164451
vn -0.158093 0.954783 -0.251787
vn -0.158093 0.954783 -0.251787
vn -0.158093 0.954783 -0.251787
vn -0.151415 0.937252 -0.314057
vn -0.151415 0.937252 -0.314057
vn -0.151415 0.937252 -0.314057
vn -0.350187 0.925597 0.143662
vn -0.350187 0.925597 0.143662
vn -0.350187 0.925597 0.143662
vn -0.559777 0.828583 -0.009969
vn -0.559777 0.828583 -0.009969
vn -0.559777 0.828583 -0.009969
vn -0.260087 0.965580 0.003171
vn -0.260087 0.965580 0.003171
vn -0.260087 0.965580 0.003171
vn -0.336015 0.941748 -0.014323
vn -0.336015 0.941748 -0.014323
vn -0.336015 0.941748 -0.014323
vn -0.364477 0.931212 0.001011
vn -0.364477 0.931212 0.001011
vn -0.364477 0.931212 0.001011
vn -0.043358 0.977184 -0.207922
vn -0.043358 0.977184 -0.207922
vn -0.043358 0.977184 -0.207922
vn -0.391418 0.891317 -0.228794
vn -0.391418 0.891317 -0.228794
vn -0.391418 0.891317 -0.228794
vn -0.155076 0.940941 -0.300967
vn -0.155076 0.940941 -0.300967
vn -0.155075 0.940941 -0.300967
vn -0.160565 0.946575 -0.279669
vn -0.160565 0.946575 -0.279669
vn -0.160565 0.946575 -0.279669
vn -0.248062 0.920106 -0.303100
vn -0.248062 0.920106 -0.303100
vn -0.248062 0.920106 -0.303100
vn -0.148607 0.963326 -0.223424
vn -0.148607 0.963326 -0.223424
vn -0.148607 0.963326 -0.223424
vn -0.283366 0.932471 -0.224059
vn -0.283366 0.932471 -0.224059
vn -0.283366 0.932471 -0.224059
vn 0.471146 0.875384 -0.108281
vn 0.471146 0.875384 -0.108281
vn 0.471146 0.875384 -0.108281
vn -0.086792 0.978377 -0.187736
vn -0.086792 0.978377 -0.187736
vn -0.086792 0.978377 -0.187736
s off
f 7/7/1 54/37/2 20/20/3
f 54/37/4 7/7/5 22/22/6
f 21/21/7 7/7/8 8/8/9
f 24/24/10 1/1/11 56/39/12
f 9/9/13 56/39/14 1/1/15
f 24/24/16 56/39/17 55/38/18
f 58/41/19 56/39/20 9/9/21
f 55/38/22 56/39/23 58/41/24
f 57/40/25 58/41/26 22/22/27
f 55/38/28 58/41/29 57/40/30
f 54/37/31 22/22/32 58/41/33
f 9/9/34 20/20/35 58/41/36
f 58/41/37 20/20/38 54/37/39
f 60/43/40 23/23/41 59/42/42
f 24/24/43 23/23/44 60/43/45
f 24/24/46 26/26/47 23/23/48
f 23/23/49 26/26/50 63/46/51
f 23/23/52 63/46/53 62/45/54
f 24/24/55 55/38/56 26/26/57
f 57/40/58 26/26/59 55/38/60
f 24/24/61 60/43/62 1/1/63
f 10/10/64 59/42/65 61/44/66
f 2/2/67 10/10/68 65/30/69
f 61/44/70 65/30/71 10/10/72
f 62/45/73 61/44/74 59/42/75
f 23/23/76 62/45/77 59/42/78
f 25/25/79 62/45/80 63/46/81
f 61/44/82 62/45/83 65/30/84
f 25/25/85 65/30/86 62/45/87
f 11/11/88 3/3/89 66/31/90
f 66/31/91 3/3/92 2/2/93
f 64/47/94 65/30/95 25/25/96
f 2/2/97 65/30/98 66/31/99
f 65/30/100 64/47/101 66/31/102
f 11/11/103 66/31/104 64/47/105
f 33/51/106 26/26/107 57/40/108
f 33/51/109 30/48/110 26/26/111
f 30/48/112 25/25/113 26/26/114
f 26/26/115 25/25/116 63/46/117
f 32/50/118 31/49/119 30/48/120
f 30/48/121 31/49/122 25/25/123
f 39/58/124 31/49/125 32/50/126
f 64/47/127 31/49/128 39/58/129
f 25/25/130 31/49/131 64/47/132
f 14/14/133 33/51/134 34/53/135
f 22/22/136 34/53/137 33/51/138
f 22/22/139 33/51/140 57/40/141
f 14/14/142 30/48/143 33/51/144
f 7/7/145 4/4/146 34/53/147
f 34/53/148 4/4/149 45/64/150
f 7/7/151 34/53/152 22/22/153
f 7/7/154 21/52/155 4/4/156
f 11/11/157 64/47/158 35/54/159
f 12/12/160 3/3/161 11/11/162
f 11/11/163 36/55/164 12/12/165
f 39/58/166 13/13/167 37/56/168
f 11/11/169 35/54/170 36/55/171
f 36/55/172 35/54/173 37/56/174
f 39/58/175 37/56/176 35/54/177
f 28/28/178 36/55/179 37/56/180
f 32/50/181 30/48/182 67/32/183
f 38/57/184 32/50/185 43/62/186
f 43/62/187 32/50/188 67/32/189
f 38/57/190 40/59/191 32/50/192
f 39/58/193 32/50/194 40/59/195
f 64/47/196 39/58/197 35/54/198
f 40/59/199 13/13/200 39/58/201
f 27/27/202 42/61/203 41/60/204
f 42/61/205 14/14/206 41/60/207
f 14/14/208 42/61/209 30/48/210
f 43/62/211 67/32/212 27/27/213
f 27/27/214 67/32/215 42/61/216
f 30/48/217 42/61/218 67/32/219
f 51/70/220 68/33/221 69/34/222
f 69/34/223 68/33/224 27/27/225
f 27/27/226 68/33/227 43/62/228
f 51/70/229 50/69/230 68/33/231
f 50/69/232 38/57/233 68/33/234
f 43/62/235 68/33/236 38/57/237
f 27/27/238 41/60/239 15/15/240
f 15/15/241 41/60/242 44/63/243
f 14/14/244 44/63/245 41/60/246
f 15/15/247 44/63/248 46/65/249
f 46/65/250 44/63/251 45/64/252
f 34/53/253 45/64/254 44/63/255
f 34/53/256 44/63/257 14/14/258
f 15/15/259 46/65/260 53/72/261
f 4/4/262 16/16/263 45/64/264
f 47/66/265 45/64/266 16/16/267
f 45/64/268 47/66/269 46/65/270
f 28/28/271 37/56/272 48/67/273
f 13/13/274 48/67/275 37/56/276
f 12/12/277 36/55/278 49/68/279
f 28/28/280 49/68/281 36/55/282
f 28/28/283 5/5/284 49/68/285
f 13/13/286 40/59/287 50/69/288
f 38/57/289 50/69/290 40/59/291
f 51/70/292 48/67/293 50/69/294
f 50/69/295 48/67/296 13/13/297
f 28/28/298 48/67/299 29/29/300
f 51/70/301 70/35/302 48/67/303
f 29/29/304 48/67/305 17/17/306
f 17/17/307 48/67/308 70/35/309
f 28/28/310 29/29/311 5/5/312
f 15/15/313 71/36/314 27/27/315
f 27/27/316 71/36/317 69/34/318
f 51/70/319 69/34/320 71/36/321
f 51/70/322 71/36/323 6/6/324
f 51/70/325 52/71/326 70/35/327
f 17/17/328 70/35/329 18/18/330
f 18/18/331 70/35/332 52/71/333
f 6/6/334 52/71/335 51/70/336
f 18/18/337 52/71/338 6/6/339
f 16/16/340 19/19/341 47/66/342
f 53/72/343 47/66/344 19/19/345
f 19/19/346 6/6/347 53/72/348
f 15/15/349 53/72/350 71/36/351
f 6/6/352 71/36/353 53/72/354
f 20/20/355 8/8/356 7/7/357
f 46/65/358 47/66/359 53/72/360
