# This file uses centimeters as units for non-parametric coordinates.

v -21.366943 -0.894394 35.411804
v -23.575317 0.000010 -31.141663
v -22.140137 17.966614 35.661743
v -10.446045 15.887508 -29.401855
v 17.367920 7.807646 33.183960
v 16.525513 15.887508 -23.109375
v 17.695740 0.000010 33.439941
v 17.842651 0.000010 -24.848206
v -30.155029 -1.795092 3.904602
v 30.153320 -1.795092 3.904602
v 28.470093 17.582283 3.691162
v -28.469727 20.468483 3.691162
v -23.575317 7.653198 -31.141663
v -28.244446 18.773518 -15.503784
v 28.242798 15.887508 20.299011
v 7.162720 15.887508 33.891357
v 6.106445 19.462547 -3.406799
v 1.156616 -5.693951 0.651733
v 4.579407 -3.302612 -32.209900
v -17.459351 25.660858 19.279541
v -4.220581 26.256714 18.602295
v -0.406982 28.890762 -0.013489
v -23.728333 27.502594 3.544800
v -23.678833 26.245842 -11.103271
v -12.740967 26.245842 -19.691223
vt 0.068623 0.125413
vt 0.068766 0.125415
vt 0.068883 0.125429
vt 0.068883 0.125441
vt 0.068623 0.125449
vt 0.068619 0.125380
vt 0.068818 0.125389
vt 0.068868 0.125407
vt 0.068673 0.125391
vt 0.068618 0.125409
vt 0.068831 0.125413
vt 0.068888 0.125427
vt 0.068645 0.125434
vt 0.068397 0.125398
vt 0.068384 0.125414
vt 0.068387 0.125443
vt 0.068496 0.125383
vt 0.068402 0.125403
vt 0.068401 0.125415
vt 0.068506 0.125398
vt 0.068510 0.125388
vt 0.068648 0.125381
vt 0.068623 0.125399
vt 0.068795 0.125393
vt 0.068733 0.125400
vn -0.989767 -0.022834 -0.140854
vn -0.989767 -0.022834 -0.140854
vn -0.989767 -0.022834 -0.140854
vn -0.989767 -0.022834 -0.140854
vn -0.989767 -0.022834 -0.140854
vn 0.075422 0.987378 -0.139268
vn 0.075422 0.987378 -0.139268
vn 0.075422 0.987378 -0.139268
vn 0.075422 0.987378 -0.139268
vn 0.912371 0.094834 -0.398228
vn 0.912371 0.094834 -0.398228
vn 0.912371 0.094834 -0.398228
vn 0.912371 0.094834 -0.398228
vn -0.125538 -0.988902 -0.079451
vn -0.125538 -0.988902 -0.079451
vn -0.125538 -0.988902 -0.079451
vn -0.125538 -0.988902 -0.079451
vn 0.003561 0.105943 -0.994366
vn 0.003561 0.105943 -0.994366
vn 0.003561 0.105943 -0.994366
vn 0.003561 0.105943 -0.994366
vn 0.059468 -0.010890 0.998171
vn 0.059468 -0.010890 0.998171
vn 0.059468 -0.010890 0.998171
vn -0.117083 -0.991247 0.061001
vn -0.117083 -0.991247 0.061001
vn -0.117083 -0.991247 0.061001
vn 0.057396 0.993701 0.096249
vn 0.057396 0.993701 0.096249
vn 0.057396 0.993701 0.096249
vn 0.057396 0.993701 0.096249
vn -0.361714 0.705432 -0.609532
vn -0.361714 0.705432 -0.609532
vn -0.361714 0.705432 -0.609532
vn 0.869836 -0.207053 0.447788
vn 0.869836 -0.207053 0.447788
vn 0.869836 -0.207053 0.447788
vn 0.869836 -0.207053 0.447788
vn 0.462400 0.521249 0.717277
vn 0.462400 0.521249 0.717277
vn 0.462400 0.521249 0.717277
vn -0.972454 0.021342 0.232118
vn -0.972454 0.021342 0.232118
vn -0.972454 0.021342 0.232118
vn -0.972454 0.021342 0.232118
vn 0.055443 0.008275 0.998428
vn 0.055443 0.008275 0.998428
vn 0.055443 0.008275 0.998428
vn 0.055443 0.008275 0.998428
vn -0.038470 0.990528 0.131816
vn -0.038470 0.990527 0.131816
vn -0.038470 0.990527 0.131816
vn -0.038470 0.990528 0.131816
vn -0.071281 0.993616 -0.087439
vn -0.071281 0.993616 -0.087439
vn -0.071281 0.993616 -0.087439
vn -0.071281 0.993616 -0.087439
vn 0.995971 0.086830 0.022405
vn 0.995971 0.086830 0.022405
vn 0.995971 0.086830 0.022405
vn 0.066989 -0.988190 0.137813
vn 0.066989 -0.988190 0.137813
vn 0.066989 -0.988190 0.137813
vn 0.066989 -0.988190 0.137813
vn 0.190122 -0.977265 -0.093838
vn 0.190122 -0.977266 -0.093838
vn 0.190123 -0.977265 -0.093838
vn 0.190122 -0.977266 -0.093838
vn 0.291834 0.255419 -0.921734
vn 0.291834 0.255419 -0.921734
vn 0.291834 0.255419 -0.921734
vn 0.291834 0.255419 -0.921734
vn 0.058281 0.872426 0.485259
vn 0.058281 0.872426 0.485259
vn 0.058281 0.872426 0.485259
vn 0.058281 0.872426 0.485259
vn 0.702524 0.702685 0.112667
vn 0.702524 0.702685 0.112667
vn 0.702524 0.702685 0.112667
vn 0.702524 0.702685 0.112667
vn -0.671899 0.700271 0.241190
vn -0.671899 0.700271 0.241190
vn -0.671899 0.700271 0.241190
vn -0.671899 0.700271 0.241190
vn -0.462251 0.585792 -0.665712
vn -0.462251 0.585792 -0.665712
vn -0.462251 0.585792 -0.665712
vn -0.462251 0.585792 -0.665712
vn -0.833089 0.550416 -0.054819
vn -0.833089 0.550416 -0.054819
vn -0.833089 0.550416 -0.054819
vn -0.833089 0.550416 -0.054819
vn 0.634791 0.602649 -0.483585
vn 0.634791 0.602649 -0.483585
vn 0.634791 0.602649 -0.483585
vn 0.634791 0.602649 -0.483585
s off
f 12/1/1 14/2/2 13/3/3 2/4/4 9/5/5
f 11/6/6 6/7/7 4/8/8 17/9/9
f 10/10/10 8/11/11 6/7/12 11/6/13
f 9/5/14 2/4/15 19/12/16 18/13/17
f 2/4/18 13/3/19 4/8/20 19/12/21
f 16/14/22 3/15/23 1/16/24
f 1/16/25 9/5/26 18/13/27
f 16/14/28 15/17/29 11/6/30 17/9/31
f 14/2/32 4/8/33 13/3/34
f 5/18/35 7/19/36 10/10/37 15/17/38
f 16/14/39 5/18/40 15/17/41
f 1/16/42 3/15/43 12/1/44 9/5/45
f 7/19/46 5/18/47 16/14/48 1/16/49
f 20/20/50 21/21/51 22/22/52 23/23/53
f 25/24/54 24/25/55 23/23/56 22/22/57
f 10/10/58 11/6/59 15/17/60
f 7/19/61 1/16/62 18/13/63 10/10/64
f 19/12/65 8/11/66 10/10/67 18/13/68
f 4/8/69 6/7/70 8/11/71 19/12/72
f 3/15/73 16/14/74 21/21/75 20/20/76
f 16/14/77 17/9/78 22/22/79 21/21/80
f 12/1/81 3/15/82 20/20/83 23/23/84
f 4/8/85 14/2/86 24/25/87 25/24/88
f 14/2/89 12/1/90 23/23/91 24/25/92
f 17/9/93 4/8/94 25/24/95 22/22/96
