# This file uses centimeters as units for non-parametric coordinates.

v 18.799406 32.745090 11.647801
v 18.799406 44.391769 -0.000050
v 18.799406 32.745090 -11.647890
v 18.799412 9.841663 -11.647890
v 18.799412 9.841663 11.647801
v 20.660843 31.775276 9.306633
v 20.660843 31.775276 -9.306696
v 20.660847 9.841660 -9.306696
v 20.660847 9.841660 9.306633
v 18.799410 34.739613 -16.462709
v 18.799410 51.200676 -0.000000
v 14.441182 34.739613 -16.462709
v 14.441182 51.200676 0.000000
v 18.799410 34.739613 16.462709
v 14.441182 34.739613 16.462709
v -18.799423 34.739616 19.655760
v 18.799423 34.739616 22.086592
v 18.799423 34.739616 -22.086592
v -18.799423 34.739616 -22.086592
v -14.959843 54.702019 10.546082
v 14.959843 54.702019 10.546082
v -14.959843 41.006996 16.502075
v -14.959843 48.972820 16.502075
v 14.959843 48.972820 16.502075
v 14.959843 41.006996 16.502075
v 14.959843 41.006996 -16.502075
v -14.959843 41.006996 -16.502075
v -14.959843 48.972820 -16.502075
v 14.959843 54.702019 -10.546101
v -18.799423 9.841662 22.086592
v 18.799423 9.841663 22.086592
v 18.799423 9.841662 -22.086592
v -18.799423 9.841663 -22.086592
v 21.735540 0.000000 25.536098
v -21.735540 0.000000 25.536098
v -21.735540 9.841662 25.536098
v 21.735540 9.841662 -25.536119
v 21.735540 0.000000 -25.536119
v -21.735540 0.000000 -25.536119
v 4.632713 54.702019 10.546082
v -4.632713 54.702019 10.546082
v -4.632713 41.006996 16.502075
v 4.632713 41.006996 16.502075
v -4.632713 54.702019 0.000000
v 4.632713 54.702019 -0.000000
v -4.632713 48.972820 16.502075
v 4.632713 48.972820 16.502075
v -4.632713 48.972820 -0.000000
v 4.632713 48.972820 -0.000000
v 4.632713 41.006996 10.546080
v -4.632713 41.006996 10.546080
v -18.799410 34.739613 -16.462709
v -14.441182 34.739613 -16.462709
v -14.441182 51.200676 0.000000
v -18.799410 34.739613 16.462709
v -14.441182 34.739613 16.462709
v -18.799406 32.745090 11.647801
v -18.799406 44.391769 -0.000050
v -18.799406 32.745090 -11.647890
v -18.799412 9.841663 -11.647890
v -18.799412 9.841663 11.647801
v -20.660843 30.618748 8.768424
v -20.660843 40.102028 0.491210
v -20.660843 31.775276 -9.306696
v -20.660847 9.841660 -9.306696
v -20.660847 9.841660 9.306633
v 20.660843 36.497780 -4.583730
v 20.660843 38.754578 2.326621
v 19.580763 43.002045 -0.000050
v 18.799408 22.205780 -11.647890
v 20.660845 24.846008 -8.752435
v 20.660845 18.518463 8.752372
v 18.799408 22.205780 11.647801
v -18.799423 29.154455 22.086592
v -7.124315 34.739616 22.086592
v -16.246662 38.906509 18.373701
v 21.735540 6.330755 25.536098
v 17.388432 9.841663 25.536098
v 21.735540 9.841663 20.428877
v -14.959843 54.702019 -5.273055
v -14.959843 51.604370 -13.766361
v -7.479921 54.702019 -10.546101
v 14.959843 45.281860 -16.502075
v 14.959843 51.827682 -13.534211
v 10.680323 48.972820 -16.502075
v -21.735540 4.264841 -25.536119
v -14.498930 9.841663 -25.536119
v -21.735540 9.841663 -19.918175
v -18.799410 45.721661 5.479565
v -18.799410 48.237686 -2.963288
v -17.252893 51.200676 0.000000
vt 0.180427 0.695920
vt 0.175683 0.824736
vt 0.189773 0.820134
vt 0.198273 0.796377
vt 0.162581 0.645998
vt 0.161451 0.628306
vt 0.199403 0.765783
vt 0.204176 0.653516
vt 0.204176 0.628306
vt 0.092795 0.682476
vt 0.084035 0.682476
vt 0.084035 0.715562
vt 0.092795 0.715562
vt 0.084035 0.682476
vt 0.092795 0.682476
vt 0.076476 0.848561
vt 0.085078 0.854299
vt 0.085078 0.841142
vt 0.039975 0.860076
vt 0.024941 0.853850
vt 0.024941 0.860076
vt 0.017223 0.819953
vt 0.129293 0.919010
vt 0.106318 0.895547
vt 0.106318 0.872085
vt 0.017223 0.808727
vt 0.040690 0.819953
vt 0.017223 0.632432
vt 0.017223 0.819953
vt 0.092795 0.819953
vt 0.092795 0.769909
vt 0.045698 0.832550
vt 0.092795 0.819953
vt 0.064321 0.832550
vt 0.085078 0.832550
vt 0.024941 0.832550
vt 0.011322 0.750128
vt 0.098697 0.750128
vt 0.098697 0.750128
vt 0.011322 0.750128
vt 0.085078 0.832550
vt 0.129293 0.872085
vt 0.085704 0.895547
vt 0.062729 0.907278
vt 0.024941 0.848561
vt 0.062729 0.872085
vt 0.024941 0.832550
vt 0.045698 0.848561
vt 0.045698 0.860076
vt 0.024941 0.860076
vt 0.085078 0.848561
vt 0.011631 0.008656
vt 0.012274 0.008725
vt 0.012163 0.009653
vt 0.011514 0.009576
vt 0.064321 0.848561
vt 0.064321 0.860076
vt 0.064321 0.832550
vt 0.045698 0.832550
vt 0.064321 0.860076
vt 0.156677 0.628306
vt 0.156677 0.653516
vt 0.146860 0.816549
vt 0.213994 0.816549
vt 0.180427 0.850113
vt 0.214074 0.845571
vt 0.214074 0.829328
vt 0.146779 0.829328
vt 0.146779 0.845571
vt 0.225461 0.628306
vt 0.225461 0.816549
vt 0.135393 0.816549
vt 0.135393 0.628306
vt 0.225461 0.816549
vt 0.225461 0.628306
vt 0.135393 0.628306
vt 0.135393 0.805161
vt 0.045698 0.860076
vt 0.045698 0.848561
vt 0.064321 0.848561
vt 0.085078 0.860076
vt 0.022354 0.828328
vt 0.140349 0.816549
vt 0.085704 0.872085
vt 0.017223 0.769909
vt 0.079370 0.919010
vt 0.092795 0.632432
vt 0.011322 0.769909
vt 0.089959 0.769909
vt 0.098697 0.762852
vt 0.024941 0.848561
vt 0.214074 0.829328
vt 0.085078 0.860076
vt 0.025867 0.769909
vt 0.098697 0.769909
vt 0.146779 0.829328
vt 0.142963 0.825046
vt 0.138773 0.628306
vt 0.128359 0.621148
vt 0.221039 0.628306
vt 0.232494 0.616935
vt 0.180427 0.850113
vt 0.186469 0.844072
vt 0.169254 0.838941
vt 0.162548 0.670670
vt 0.179425 0.690006
vt 0.199403 0.673028
vt 0.199403 0.628306
vt 0.161451 0.765783
vt 0.156677 0.675006
vt 0.180427 0.698753
vt 0.204176 0.675006
vt 0.204176 0.628306
vt 0.156677 0.628306
vt 0.180427 0.698753
vt 0.199403 0.810505
vt 0.204176 0.675006
vt 0.156677 0.675006
vt 0.161451 0.810505
vt 0.232494 0.765783
vt 0.232494 0.745716
vt 0.128359 0.745716
vt 0.128359 0.628306
vt 0.158924 0.857252
vt 0.191178 0.857252
vt 0.208496 0.850936
vt 0.214074 0.838045
vt 0.208023 0.851391
vt 0.201930 0.857252
vt 0.158924 0.857252
vt 0.146779 0.845571
vt 0.128359 0.765783
vt 0.232494 0.745716
vt 0.128359 0.745716
vt 0.232494 0.628306
vt 0.146860 0.816549
vt 0.213994 0.816549
vt 0.011322 0.758700
vt 0.020332 0.715562
vt 0.017223 0.704549
vt 0.017223 0.682476
vt 0.025983 0.682476
vt 0.025983 0.715562
vt 0.017223 0.682476
vt 0.017223 0.709606
vt 0.025983 0.682476
vt 0.232494 0.754412
vt 0.221039 0.765783
vt 0.025867 0.632432
vt 0.232494 0.628306
vt 0.098697 0.632432
vt 0.128359 0.758624
vt 0.138773 0.765783
vt 0.089959 0.632432
vt 0.128359 0.628306
vt 0.011322 0.632432
vt 0.162581 0.783475
vt 0.161451 0.765783
vt 0.198273 0.658900
vt 0.199403 0.673028
vt 0.180427 0.833396
vt 0.175683 0.687259
vt 0.189773 0.682658
vt 0.161451 0.673028
vt 0.161451 0.628306
vt 0.199403 0.765783
vt 0.162548 0.808147
vt 0.199403 0.810505
vt 0.179425 0.827483
vt 0.017223 0.769909
vt 0.225461 0.765783
vt 0.017223 0.632432
vt 0.135393 0.765783
vt 0.225461 0.765783
vt 0.092795 0.632432
vt 0.092795 0.769909
vt 0.135393 0.765783
vt 0.199403 0.628306
vn 0.975209 0.210352 -0.068698
vn 0.975209 0.210352 -0.068698
vn 0.975209 0.210352 -0.068698
vn 1.000000 0.000000 0.000000
vn 1.000000 0.000000 0.000000
vn 1.000000 0.000000 0.000000
vn 1.000000 0.000000 0.000000
vn 0.812147 0.011814 -0.583333
vn 0.812147 0.011814 -0.583333
vn 0.812147 0.011814 -0.583333
vn 0.812147 0.011814 -0.583333
vn 0.819914 0.015076 0.572289
vn 0.819914 0.015076 0.572289
vn 0.819914 0.015076 0.572289
vn 0.819914 0.015076 0.572289
vn 1.000000 0.000000 0.000000
vn 1.000000 0.000000 0.000000
vn 1.000000 0.000000 0.000000
vn 0.000000 0.707142 -0.707071
vn 0.000000 0.707142 -0.707071
vn 0.000000 0.707142 -0.707071
vn 0.000000 0.707142 -0.707071
vn 0.000000 0.707142 0.707071
vn 0.000000 0.707142 0.707071
vn 0.000000 0.707142 0.707071
vn 0.000000 0.707142 0.707071
vn -1.000000 0.000000 0.000000
vn -1.000000 0.000000 0.000000
vn -1.000000 0.000000 0.000000
vn -1.000000 0.000000 0.000000
vn 0.335503 0.389003 -0.857971
vn 0.335503 0.389003 -0.857971
vn 0.335503 0.389003 -0.857971
vn -0.234794 0.913204 -0.333061
vn -0.234794 0.913204 -0.333061
vn -0.234794 0.913204 -0.333061
vn -0.187522 0.391992 0.900654
vn -0.187522 0.391992 0.900654
vn -0.187522 0.391992 0.900654
vn 1.000000 0.000000 0.000000
vn 1.000000 0.000000 0.000000
vn 1.000000 0.000000 0.000000
vn 1.000000 0.000000 0.000000
vn 0.000000 0.000000 -1.000000
vn 0.000000 0.000000 -1.000000
vn 0.000000 0.000000 -1.000000
vn 0.000000 0.000000 -1.000000
vn -1.000000 0.000000 0.000000
vn -1.000000 0.000000 0.000000
vn -1.000000 0.000000 0.000000
vn -1.000000 0.000000 0.000000
vn -1.000000 0.000000 0.000000
vn 0.852705 0.522392 0.000000
vn 0.852705 0.522392 0.000000
vn 0.852705 0.522392 0.000000
vn 0.852705 0.522392 0.000000
vn 0.000000 0.665263 0.746609
vn 0.000000 0.665263 0.746609
vn 0.000000 0.665263 0.746609
vn 0.000000 0.665263 0.746609
vn 0.000000 0.665263 -0.746609
vn 0.000000 0.665263 -0.746609
vn 0.000000 0.665263 -0.746609
vn 0.000000 0.665263 -0.746609
vn -0.852705 0.522392 -0.000000
vn -0.852705 0.522392 -0.000000
vn -0.852705 0.522392 -0.000000
vn -0.852705 0.522392 -0.000000
vn -0.852705 0.522392 -0.000000
vn 0.304638 0.784896 0.539569
vn 0.304638 0.784896 0.539569
vn 0.304638 0.784896 0.539569
vn -0.461563 0.629579 -0.624972
vn -0.461563 0.629579 -0.624972
vn -0.461563 0.629579 -0.624972
vn 0.000000 -1.000000 0.000000
vn 0.000000 -1.000000 0.000000
vn 0.000000 -1.000000 0.000000
vn 0.000000 -1.000000 0.000000
vn 0.000000 1.000000 0.000000
vn 0.000000 1.000000 0.000000
vn 0.000000 1.000000 0.000000
vn 0.000000 1.000000 0.000000
vn 0.000000 0.665263 0.746609
vn 0.000000 0.665263 0.746609
vn 0.000000 0.665263 0.746609
vn 0.000000 0.000000 1.000000
vn 0.000000 0.000000 1.000000
vn 0.000000 0.000000 1.000000
vn 0.000000 0.000000 1.000000
vn 0.000000 0.720695 0.693252
vn 0.000000 0.720695 0.693252
vn 0.000000 0.720695 0.693252
vn 0.000000 0.720695 0.693252
vn 0.000000 0.000000 1.000000
vn 0.000000 0.000000 1.000000
vn 0.000000 0.000000 1.000000
vn 0.000000 0.000000 1.000000
vn -1.000000 0.000000 0.000000
vn -1.000000 0.000000 0.000000
vn -1.000000 0.000000 0.000000
vn -1.000000 0.000000 0.000000
vn 1.000000 0.000000 0.000000
vn 1.000000 0.000000 0.000000
vn 1.000000 0.000000 0.000000
vn 1.000000 0.000000 0.000000
vn 0.000000 -0.000000 1.000000
vn 0.000000 -0.000000 1.000000
vn 0.000000 -0.000000 1.000000
vn 0.000000 -0.000000 1.000000
vn 0.000000 1.000000 0.000000
vn 0.000000 1.000000 0.000000
vn 0.000000 1.000000 0.000000
vn 0.000000 1.000000 0.000000
vn 0.000000 0.720695 0.693252
vn 0.000000 0.720695 0.693252
vn 0.000000 0.720695 0.693252
vn 0.000000 0.720695 0.693252
vn -0.187522 0.391992 0.900654
vn -0.187522 0.391992 0.900654
vn -0.187522 0.391992 0.900654
vn 0.000000 0.797952 0.602721
vn 0.000000 0.797952 0.602721
vn 0.000000 0.797952 0.602721
vn 0.000000 0.797952 0.602721
vn -1.000000 0.000000 0.000000
vn -1.000000 0.000000 0.000000
vn -1.000000 0.000000 0.000000
vn -1.000000 0.000000 0.000000
vn 1.000000 0.000000 0.000000
vn 1.000000 0.000000 0.000000
vn 1.000000 0.000000 0.000000
vn 1.000000 0.000000 0.000000
vn -0.922121 0.370788 0.110497
vn -0.922121 0.370788 0.110497
vn -0.922121 0.370788 0.110497
vn -1.000000 0.000000 0.000000
vn -1.000000 0.000000 0.000000
vn -1.000000 0.000000 0.000000
vn -1.000000 0.000000 0.000000
vn -1.000000 0.000000 0.000000
vn -1.000000 0.000000 0.000000
vn -1.000000 0.000000 0.000000
vn -0.855068 0.355732 0.377244
vn -0.855068 0.355732 0.377244
vn -0.855068 0.355732 0.377244
vn -0.855068 0.355732 0.377244
vn -0.840673 0.396290 -0.369083
vn -0.840673 0.396290 -0.369083
vn -0.840673 0.396290 -0.369083
vn -0.840673 0.396290 -0.369083
vn -0.782744 0.000000 -0.622344
vn -0.782744 0.000000 -0.622344
vn -0.782744 0.000000 -0.622344
vn -0.782744 0.000000 -0.622344
vn -0.815532 0.007130 0.578668
vn -0.815532 0.007130 0.578668
vn -0.815532 0.007130 0.578668
vn -0.815532 0.007130 0.578668
vn 0.782742 0.440087 -0.440043
vn 0.782742 0.440087 -0.440043
vn 0.782742 0.440087 -0.440043
vn 0.782742 0.440087 -0.440043
vn 0.782742 0.440087 -0.440043
vn 0.782741 0.440088 0.440044
vn 0.782741 0.440088 0.440044
vn 0.782741 0.440088 0.440044
vn 0.782741 0.440088 0.440044
vn 0.782741 0.440088 0.440044
vn 1.000000 0.000000 0.000000
vn 1.000000 0.000000 0.000000
vn 1.000000 0.000000 0.000000
vn 1.000000 0.000000 0.000000
vn 0.817632 -0.018259 -0.575452
vn 0.817632 -0.018259 -0.575452
vn 0.817632 -0.018259 -0.575452
vn 0.817632 -0.018259 -0.575452
vn 1.000000 0.000000 0.000000
vn 1.000000 0.000000 0.000000
vn 1.000000 0.000000 0.000000
vn 1.000000 0.000000 0.000000
vn 0.809161 -0.013682 0.587428
vn 0.809161 -0.013682 0.587428
vn 0.809161 -0.013682 0.587428
vn 0.809161 -0.013682 0.587428
vn 0.000000 0.000000 1.000000
vn 0.000000 0.000000 1.000000
vn 0.000000 0.000000 1.000000
vn 0.000000 0.000000 1.000000
vn 0.000000 0.000000 1.000000
vn -0.000000 0.665262 0.746610
vn -0.000000 0.665262 0.746610
vn -0.000000 0.665262 0.746610
vn -0.000000 0.665262 0.746610
vn -0.000000 1.000000 -0.000000
vn -0.000000 1.000000 -0.000000
vn -0.000000 1.000000 -0.000000
vn -0.000000 1.000000 -0.000000
vn -0.000000 1.000000 0.000000
vn -0.000000 1.000000 0.000000
vn -0.000000 1.000000 0.000000
vn -0.000000 1.000000 0.000000
vn -0.000000 0.000000 1.000000
vn -0.000000 0.000000 1.000000
vn -0.000000 0.000000 1.000000
vn -0.000000 0.000000 1.000000
vn -0.000000 0.000000 1.000000
vn 1.000000 0.000000 0.000000
vn 1.000000 0.000000 0.000000
vn 1.000000 0.000000 0.000000
vn 1.000000 0.000000 0.000000
vn 1.000000 0.000000 0.000000
vn 0.608537 0.753474 0.248917
vn 0.608537 0.753474 0.248917
vn 0.608537 0.753474 0.248917
vn -1.000000 0.000000 0.000000
vn -1.000000 0.000000 0.000000
vn -1.000000 0.000000 0.000000
vn -1.000000 0.000000 0.000000
vn -1.000000 0.000000 0.000000
vn 0.000000 1.000000 0.000000
vn 0.000000 1.000000 0.000000
vn 0.000000 1.000000 0.000000
vn 0.000000 1.000000 0.000000
vn 0.000000 1.000000 0.000000
vn 0.000000 1.000000 0.000000
vn 0.000000 1.000000 0.000000
vn 0.000000 1.000000 0.000000
vn 0.000000 1.000000 0.000000
vn 0.000000 0.000000 -1.000000
vn 0.000000 0.000000 -1.000000
vn 0.000000 0.000000 -1.000000
vn 0.000000 0.000000 -1.000000
vn 0.000000 0.000000 -1.000000
vn -0.000000 0.720694 -0.693253
vn -0.000000 0.720694 -0.693253
vn -0.000000 0.720694 -0.693253
vn -0.000000 0.720694 -0.693253
vn -0.000000 0.720694 -0.693253
vn -0.000000 0.720694 -0.693253
vn 1.000000 0.000000 0.000000
vn 1.000000 0.000000 0.000000
vn 1.000000 0.000000 0.000000
vn 1.000000 0.000000 0.000000
vn 1.000000 0.000000 0.000000
vn 1.000000 0.000000 0.000000
vn 1.000000 0.000000 0.000000
vn 1.000000 0.000000 0.000000
vn 1.000000 0.000000 0.000000
vn 0.000000 1.000000 0.000000
vn 0.000000 1.000000 0.000000
vn 0.000000 1.000000 0.000000
vn 0.000000 1.000000 0.000000
vn 0.000000 1.000000 0.000000
vn 0.000000 1.000000 0.000000
vn 0.000000 1.000000 0.000000
vn 0.000000 1.000000 0.000000
vn 0.000000 0.000000 -1.000000
vn 0.000000 0.000000 -1.000000
vn 0.000000 0.000000 -1.000000
vn 0.000000 0.000000 -1.000000
vn 0.000000 0.000000 -1.000000
vn -1.000000 0.000000 0.000000
vn -1.000000 0.000000 0.000000
vn -1.000000 0.000000 0.000000
vn -1.000000 0.000000 0.000000
vn -1.000000 0.000000 0.000000
vn -0.485754 0.630325 -0.605585
vn -0.485754 0.630325 -0.605585
vn -0.485754 0.630325 -0.605585
vn 0.000000 0.707142 0.707071
vn 0.000000 0.707142 0.707071
vn 0.000000 0.707142 0.707071
vn 0.000000 0.707142 0.707071
vn 0.000000 0.707142 0.707071
vn 0.000000 0.707142 -0.707071
vn 0.000000 0.707142 -0.707071
vn 0.000000 0.707142 -0.707071
vn 0.000000 0.707142 -0.707071
vn 0.000000 0.707142 -0.707071
vn -1.000000 0.000000 0.000000
vn -1.000000 0.000000 0.000000
vn -1.000000 0.000000 0.000000
vn -1.000000 0.000000 0.000000
s off
f 69/161/1 68/2/2 67/3/3
f 71/4/4 72/157/5 9/158/6 8/7/7
f 70/8/8 71/159/9 8/178/10 4/9/11
f 5/61/12 9/6/13 72/5/14 73/62/15
f 14/63/16 10/64/17 11/65/18
f 10/10/19 12/11/20 13/12/21 11/13/22
f 11/13/23 13/12/24 15/14/25 14/15/26
f 28/66/27 27/67/28 22/68/29 23/69/30
f 85/16/31 84/17/32 83/18/33
f 82/19/34 81/20/35 80/21/36
f 16/22/37 74/26/38 75/27/39
f 32/174/40 18/71/41 17/72/42 31/177/43
f 33/170/44 19/29/45 18/30/46 32/31/47
f 19/74/48 33/171/49 30/173/50 74/77/51 16/83/52
f 18/71/53 26/92/54 25/96/55 17/72/56
f 42/32/57 75/27/58 17/33/59 43/34/60
f 26/35/61 18/30/62 19/29/63 27/36/64
f 27/67/65 19/74/66 16/83/67 76/97/68 22/68/69
f 79/98/70 31/73/71 77/99/72
f 88/100/73 33/75/74 86/101/75
f 39/37/76 38/38/77 34/39/78 35/40/79
f 29/23/80 45/24/81 40/25/82 21/42/83
f 43/34/84 17/33/85 25/41/86
f 23/45/87 22/47/88 42/32/89 46/48/90
f 23/45/91 46/48/92 41/49/93 20/50/94
f 43/34/95 25/41/96 24/51/97 47/56/98
f 47/56/99 40/57/100 50/58/101 43/34/102
f 51/59/103 41/49/104 46/48/105 42/32/106
f 45/60/107 44/78/108 48/79/109 49/80/110
f 50/58/111 51/59/112 42/32/113 43/34/114
f 40/57/115 47/56/116 24/51/117 21/81/118
f 16/22/119 75/27/120 76/82/121
f 49/52/122 48/53/123 51/54/124 50/55/125
f 49/80/126 50/58/127 40/57/128 45/60/129
f 41/49/130 51/59/131 48/79/132 44/78/133
f 91/102/134 90/103/135 89/104/136
f 62/167/137 63/169/138 64/168/139
f 62/167/140 64/168/141 65/166/142 66/109/143
f 57/110/144 58/111/145 63/106/146 62/105/147
f 58/111/148 59/112/149 64/107/150 63/106/151
f 59/112/152 60/113/153 65/108/154 64/107/155
f 61/114/156 57/110/157 62/105/158 66/165/159
f 2/115/160 69/1/161 67/163/162 7/160/163 3/117/164
f 1/118/165 6/164/166 68/162/167 69/1/168 2/115/169
f 6/119/170 7/116/171 67/3/172 68/2/173
f 3/117/174 7/160/175 71/159/176 70/8/177
f 6/119/178 72/157/179 71/4/180 7/116/181
f 73/62/182 72/5/183 6/164/184 1/118/185
f 75/27/186 74/26/187 30/85/188 31/176/189 17/33/190
f 76/82/191 75/27/192 42/32/193 22/47/194
f 37/150/195 32/70/196 31/73/197 79/98/198
f 30/172/199 36/156/200 78/154/201 31/87/202
f 36/88/203 35/40/204 34/39/205 77/90/206 78/89/207
f 38/121/208 37/120/209 79/153/210 77/152/211 34/122/212
f 77/99/213 31/73/214 78/123/215
f 20/124/216 80/125/217 81/126/218 28/66/219 23/69/220
f 44/43/221 80/44/222 20/46/223 41/84/224
f 44/43/225 45/24/226 29/23/227 82/86/228 80/44/229
f 28/91/230 85/16/231 83/18/232 26/35/233 27/36/234
f 81/20/235 82/19/236 29/93/237 84/17/238 85/16/239 28/91/240
f 83/127/241 84/128/242 29/129/243 21/130/244 24/131/245
f 26/92/246 83/127/247 24/131/248 25/96/249
f 33/75/250 88/100/251 36/155/252 30/76/253
f 87/149/254 33/28/255 32/175/256 37/151/257
f 39/37/258 86/138/259 87/94/260 37/95/261 38/38/262
f 88/148/263 86/147/264 39/133/265 35/134/266 36/132/267
f 86/101/268 33/75/269 87/135/270
f 91/139/271 89/140/272 55/141/273 56/142/274 54/143/275
f 52/144/276 90/145/277 91/139/278 54/143/279 53/146/280
f 55/136/281 89/104/282 90/103/283 52/137/284
