# This file uses centimeters as units for non-parametric coordinates.

v -0.014339 -28.241592 2.852108
v -1.447880 -28.233551 2.924519
v -1.380608 -28.087494 4.239942
v 0.633217 -28.027588 4.779631
v 1.757629 -28.251534 2.762590
v 0.705032 -2.307297 -2.759058
v -2.727581 -2.162567 -1.455604
v -2.541046 -1.757568 2.191866
v 1.006855 -1.652000 3.142672
v 3.013046 -1.991745 0.082835
v -0.014339 -28.241592 2.852108
v 0.000000 0.000000 0.000000
v 0.424915 -4.190712 -1.146457
v -1.483490 -4.114311 -0.458436
v -1.380608 -3.890945 1.553279
v 0.633217 -3.831024 2.092967
v 1.770844 -4.026283 0.334406
v -9.270256 -72.630020 13.815178
v 7.721497 -70.272469 16.422071
v -9.270256 -27.705322 5.260801
v 8.613911 -27.705322 5.260801
v -9.270256 -27.705322 2.433655
v 8.613911 -27.705322 2.433655
v -9.270256 -73.369263 11.086392
v 8.689171 -72.002174 14.406015
v -9.270256 -43.850021 6.018574
v 8.613911 -46.215405 6.659365
v -9.270256 -45.162544 3.445091
v 8.613911 -47.527935 4.085884
v -2.220993 -72.431244 13.501975
v -0.992725 -74.104370 11.562458
v 7.904465 -64.283478 11.371532
v 8.867348 -66.170151 9.487850
vt 0.057622 0.228305
vt 0.057670 0.228292
vt 0.057609 0.227342
vt 0.057525 0.227350
vt 0.057691 0.228314
vt 0.057645 0.227366
vt 0.057634 0.228342
vt 0.057581 0.227388
vt 0.057562 0.228321
vt 0.057506 0.227378
vt 0.057622 0.228305
vt 0.057573 0.227365
vt 0.057532 0.227424
vt 0.057614 0.227416
vt 0.057649 0.227440
vt 0.057585 0.227462
vt 0.057510 0.227451
vt 0.454528 0.190262
vt 0.468930 0.190262
vt 0.489814 0.202425
vt 0.489814 0.232740
vt 0.454528 0.236543
vt 0.454528 0.261023
vt 0.489814 0.261023
vt 0.489814 0.261023
vt 0.454528 0.261023
vt 0.489814 0.231818
vt 0.454528 0.235621
vt 0.454528 0.190262
vt 0.469477 0.190262
vt 0.489814 0.190262
vt 0.489814 0.190262
vt 0.489814 0.202107
vn -0.240466 -0.222279 -0.944864
vn -0.240563 -0.222721 -0.944735
vn -0.304068 -0.587004 -0.750312
vn -0.304068 -0.587004 -0.750312
vn -0.994830 -0.081957 0.059977
vn -0.994984 -0.080201 0.059790
vn -0.861317 -0.498255 0.099372
vn -0.861317 -0.498255 0.099372
vn -0.259708 0.037084 0.964975
vn -0.259751 0.039482 0.964868
vn -0.227418 -0.390701 0.891983
vn -0.227418 -0.390701 0.891983
vn 0.855215 -0.004813 0.518250
vn 0.855423 -0.002588 0.517924
vn 0.751147 -0.389071 0.533294
vn 0.751147 -0.389071 0.533294
vn 0.465509 -0.191805 -0.864009
vn 0.466106 -0.192544 -0.863523
vn 0.682859 -0.512866 -0.520261
vn 0.682859 -0.512866 -0.520261
vn -0.000001 -0.993892 0.110354
vn 0.000000 0.000000 0.000000
vn -0.000004 -0.993893 0.110349
vn -0.000005 -0.993893 0.110351
vn -0.000001 -0.993892 0.110354
vn -0.000004 -0.993893 0.110349
vn -0.000005 -0.993893 0.110349
vn -0.000005 -0.993893 0.110351
vn -0.000004 -0.993893 0.110349
vn -0.000001 -0.993893 0.110347
vn -0.000005 -0.993893 0.110349
vn -0.000004 -0.993893 0.110349
vn 0.000000 0.000000 0.000000
vn -0.000001 -0.993893 0.110347
vn -0.000004 -0.993893 0.110349
vn 0.132139 0.776745 -0.615797
vn -0.445400 0.813488 -0.373974
vn 0.008671 0.993667 -0.112033
vn -0.445400 0.813488 -0.373974
vn -0.411422 0.881897 0.230193
vn 0.008671 0.993667 -0.112033
vn -0.411422 0.881897 0.230193
vn 0.182745 0.893153 0.410953
vn 0.008671 0.993667 -0.112033
vn 0.182745 0.893153 0.410953
vn 0.549831 0.826842 -0.118395
vn 0.008671 0.993667 -0.112033
vn 0.549831 0.826842 -0.118395
vn 0.132139 0.776745 -0.615797
vn 0.008671 0.993667 -0.112033
vn -0.223000 -0.145830 -0.963849
vn -0.223000 -0.145830 -0.963849
vn -0.240563 -0.222721 -0.944735
vn -0.240466 -0.222279 -0.944864
vn -0.998711 0.005602 0.050453
vn -0.998711 0.005602 0.050453
vn -0.994984 -0.080201 0.059790
vn -0.994830 -0.081957 0.059977
vn -0.260340 0.106551 0.959620
vn -0.260340 0.106551 0.959620
vn -0.259751 0.039482 0.964868
vn -0.259708 0.037084 0.964975
vn 0.859205 0.053513 0.508825
vn 0.859205 0.053513 0.508825
vn 0.855423 -0.002588 0.517924
vn 0.855215 -0.004813 0.518250
vn 0.409481 -0.124160 -0.903830
vn 0.409481 -0.124160 -0.903830
vn 0.466106 -0.192544 -0.863523
vn 0.465509 -0.191805 -0.864009
vn 0.007685 0.254839 0.966953
vn -0.000357 0.263974 0.964530
vn -0.004888 0.269103 0.963099
vn -0.000289 0.184055 0.982916
vn -0.001963 0.169071 0.985602
vn 0.000000 1.000000 0.000000
vn 0.000000 1.000000 0.000000
vn 0.000000 1.000000 0.000000
vn 0.000000 1.000000 0.000000
vn 0.013155 -0.071263 -0.997371
vn 0.013155 -0.071263 -0.997371
vn 0.012425 -0.197281 -0.980268
vn 0.012536 -0.180385 -0.983516
vn -0.035997 -0.891650 0.451293
vn -0.027456 -0.808703 0.587576
vn -0.029677 -0.831575 0.554618
vn -0.035997 -0.891650 0.451293
vn 0.939308 0.203948 0.275873
vn 0.939308 0.203948 0.275873
vn 0.969469 0.104713 0.221732
vn 0.975081 0.078965 0.207320
vn -1.000000 -0.000000 0.000000
vn -1.000000 -0.000000 0.000000
vn -1.000000 -0.000000 0.000000
vn -1.000000 -0.000000 0.000000
vn -0.001963 0.169071 0.985602
vn -0.000289 0.184055 0.982916
vn -0.013772 0.062097 0.997975
vn -0.013772 0.062097 0.997975
vn 0.012536 -0.180385 -0.983516
vn 0.012425 -0.197281 -0.980268
vn 0.022947 -0.282299 -0.959052
vn 0.019208 -0.278030 -0.960380
vn 0.011904 -0.269666 -0.962880
vn 0.997211 0.015295 0.073050
vn 0.993858 0.022679 0.108318
vn 1.000000 0.000000 0.000000
vn 1.000000 0.000000 0.000000
vn -1.000000 -0.000000 0.000000
vn -1.000000 -0.000000 0.000000
vn -1.000000 0.000000 0.000000
vn -1.000000 0.000000 0.000000
vn -0.004888 0.269103 0.963099
vn -0.000357 0.263974 0.964530
vn -0.342281 0.611822 0.713104
vn -0.029677 -0.831575 0.554618
vn -0.027456 -0.808703 0.587576
vn -0.023348 -0.764251 0.644496
vn -0.023348 -0.764251 0.644496
vn 0.975081 0.078965 0.207320
vn 0.969469 0.104713 0.221732
vn 0.993858 0.022679 0.108318
vn 0.997211 0.015295 0.073050
vn 0.019208 -0.278030 -0.960380
vn 0.022947 -0.282299 -0.959052
vn 0.342281 -0.611821 -0.713105
s off
f 13/13/1 14/14/2 7/3/3 6/4/4
f 14/14/5 15/15/6 8/6/7 7/3/8
f 15/15/9 16/16/10 9/8/11 8/6/12
f 16/16/13 17/17/14 10/10/15 9/8/16
f 17/17/17 13/13/18 6/4/19 10/10/20
f 2/2/21 1/1/22 11/11/23
f 3/5/24 2/2/25 11/11/26
f 4/7/27 3/5/28 11/11/29
f 5/9/30 4/7/31 11/11/32
f 1/1/33 5/9/34 11/11/35
f 6/4/36 7/3/37 12/12/38
f 7/3/39 8/6/40 12/12/41
f 8/6/42 9/8/43 12/12/44
f 9/8/45 10/10/46 12/12/47
f 10/10/48 6/4/49 12/12/50
f 1/1/51 2/2/52 14/14/53 13/13/54
f 2/2/55 3/5/56 15/15/57 14/14/58
f 3/5/59 4/7/60 16/16/61 15/15/62
f 4/7/63 5/9/64 17/17/65 16/16/66
f 5/9/67 1/1/68 13/13/69 17/17/70
f 18/18/71 30/19/72 32/20/73 27/21/74 26/22/75
f 20/23/76 21/24/77 23/25/78 22/26/79
f 22/26/80 23/25/81 29/27/82 28/28/83
f 24/29/84 31/30/85 30/19/86 18/18/87
f 19/31/88 25/32/89 33/33/90 32/20/91
f 24/29/92 18/18/93 26/22/94 28/28/95
f 26/22/96 27/21/97 21/24/98 20/23/99
f 28/28/100 29/27/101 33/33/102 31/30/103 24/29/104
f 27/21/105 29/27/106 23/25/107 21/24/108
f 28/28/109 26/22/110 20/23/111 22/26/112
f 32/20/113 30/19/114 19/31/115
f 30/19/116 31/30/117 25/32/118 19/31/119
f 32/20/120 33/33/121 29/27/122 27/21/123
f 31/30/124 33/33/125 25/32/126
