# This file uses centimeters as units for non-parametric coordinates.

v 3.779813 -6.546828 91.742264
v -3.779812 -6.546828 91.742264
v -7.559627 -0.000001 91.742264
v -3.779815 6.546828 91.742264
v 3.779812 6.546828 91.742264
v 7.559625 -0.000000 91.742264
v 3.779813 -6.546828 7.645386
v 7.559625 -0.000000 7.645386
v 3.779812 6.546828 7.645386
v -3.779815 6.546828 7.645386
v -7.559627 -0.000001 7.645386
v -3.779812 -6.546828 7.645386
v 4.806763 -8.325554 100.000000
v -4.806760 -8.325556 100.000000
v -0.000001 0.000000 100.000000
v -9.613523 -0.000001 100.000000
v -4.806763 8.325555 100.000000
v 4.806760 8.325555 100.000000
v 9.613521 0.000000 100.000000
v -4.806760 -8.325556 92.923088
v 4.806763 -8.325554 92.923088
v -9.613523 -0.000001 92.923088
v -4.806763 8.325555 92.923088
v 4.806760 8.325555 92.923088
v 9.613521 0.000000 92.923088
v 4.806763 -8.325554 0.000000
v -4.806760 -8.325556 0.000000
v -0.000001 0.000000 0.000000
v -9.613523 -0.000001 0.000000
v -4.806763 8.325555 0.000000
v 4.806760 8.325555 0.000000
v 9.613521 0.000000 0.000000
v 4.806763 -8.325554 6.464565
v 9.613521 0.000000 6.464565
v 4.806760 8.325555 6.464565
v -4.806763 8.325555 6.464565
v -9.613523 -0.000001 6.464565
v -4.806760 -8.325556 6.464565
v -3.402213 5.892801 39.329556
v -0.605017 5.892800 18.785431
v -4.552388 3.900638 24.586943
v -6.804423 -0.000001 81.068771
v -6.804423 -0.000001 51.149872
v -5.738426 1.846357 61.598583
v -4.997854 -3.129059 59.348537
v 6.804421 -0.000000 71.727798
v 6.466288 1.893718 86.304611
v 5.089518 -2.970297 83.029716
v 3.402212 -5.892800 64.215591
v 3.402212 -5.892800 37.447723
v 4.088215 -4.704601 56.691822
v 0.382349 -5.892800 52.764881
vt 0.163681 0.107959
vt 0.163672 0.108013
vt 0.164476 0.108063
vt 0.164470 0.108007
vt 0.163665 0.108001
vt 0.164491 0.108052
vt 0.163666 0.107931
vt 0.164500 0.107982
vt 0.163675 0.107877
vt 0.164493 0.107925
vt 0.163682 0.107892
vt 0.164478 0.107940
vt 0.163594 0.108026
vt 0.163607 0.107958
vt 0.163595 0.107941
vt 0.163582 0.108011
vt 0.163583 0.107922
vt 0.163597 0.107853
vt 0.163608 0.107873
vt 0.164539 0.108015
vt 0.164548 0.108086
vt 0.164560 0.108000
vt 0.164570 0.108073
vt 0.164582 0.107983
vt 0.164571 0.107911
vt 0.164550 0.107929
vt 0.163661 0.108030
vt 0.163672 0.107962
vt 0.163651 0.108016
vt 0.163652 0.107927
vt 0.163664 0.107857
vt 0.163674 0.107877
vt 0.164488 0.107926
vt 0.164478 0.108011
vt 0.164507 0.107907
vt 0.164516 0.107979
vt 0.164505 0.108069
vt 0.164486 0.108082
vt 0.163747 0.080269
vt 0.163736 0.080334
vt 0.164699 0.080394
vt 0.164692 0.080327
vt 0.163728 0.080320
vt 0.164717 0.080381
vt 0.163729 0.080236
vt 0.164728 0.080297
vt 0.163740 0.080171
vt 0.164719 0.080229
vt 0.163749 0.080189
vt 0.164702 0.080246
vt 0.164352 0.080274
vt 0.164592 0.080261
vt 0.164542 0.080300
vt 0.163853 0.080327
vt 0.164205 0.080349
vt 0.164083 0.080315
vt 0.164059 0.080344
vt 0.163976 0.080203
vt 0.163819 0.080191
vt 0.163846 0.080235
vt 0.164056 0.080288
vt 0.164357 0.080307
vt 0.164149 0.080286
vt 0.164185 0.080325
vn 0.155232 -0.987878 0.000000
vn 0.155232 -0.987878 0.000000
vn 0.155232 -0.987878 0.000000
vn -0.941968 -0.335703 0.000000
vn -0.941968 -0.335703 0.000000
vn -0.941968 -0.335703 0.000000
vn -0.865381 0.499628 0.038576
vn -0.865381 0.499628 0.038576
vn -0.865381 0.499628 0.038576
vn -0.147525 0.989058 0.000000
vn -0.147525 0.989058 0.000000
vn -0.147525 0.989058 0.000000
vn 0.866025 0.500000 0.000000
vn 0.866025 0.500000 0.000000
vn 0.866025 0.500000 0.000000
vn 0.863596 -0.498597 -0.074857
vn 0.863596 -0.498597 -0.074857
vn 0.863596 -0.498597 -0.074857
vn 0.000000 0.000000 1.000000
vn 0.000000 0.000000 1.000000
vn 0.000000 0.000000 1.000000
vn -0.000001 0.000000 1.000000
vn -0.000001 0.000000 1.000000
vn -0.000001 0.000000 1.000000
vn 0.000002 0.000000 1.000000
vn 0.000002 0.000000 1.000000
vn 0.000002 0.000000 1.000000
vn 0.000000 0.000000 1.000000
vn 0.000000 0.000000 1.000000
vn 0.000000 0.000000 1.000000
vn 0.000000 0.000000 1.000000
vn 0.000000 0.000000 1.000000
vn 0.000000 0.000000 1.000000
vn 0.000000 0.000000 1.000000
vn 0.000000 0.000000 1.000000
vn 0.000000 0.000000 1.000000
vn 0.000000 0.000000 -1.000000
vn 0.000000 0.000000 -1.000000
vn 0.000000 0.000000 -1.000000
vn 0.000000 0.000000 -1.000000
vn 0.000000 0.000000 -1.000000
vn 0.000000 0.000000 -1.000000
vn 0.000000 0.000000 -1.000000
vn 0.000000 0.000000 -1.000000
vn 0.000000 0.000000 -1.000000
vn 0.000000 0.000000 -1.000000
vn 0.000000 0.000000 -1.000000
vn 0.000000 0.000000 -1.000000
vn 0.000000 0.000000 -1.000000
vn 0.000000 0.000000 -1.000000
vn 0.000000 0.000000 -1.000000
vn 0.000000 0.000000 -1.000000
vn 0.000000 0.000000 -1.000000
vn 0.000000 0.000000 -1.000000
vn 0.000000 -1.000000 0.000000
vn 0.000000 -1.000000 0.000000
vn 0.000000 -1.000000 0.000000
vn 0.000000 -1.000000 0.000000
vn -0.866026 -0.500000 0.000000
vn -0.866026 -0.500000 0.000000
vn -0.866026 -0.500000 0.000000
vn -0.866026 -0.500000 0.000000
vn -0.866026 0.500000 0.000000
vn -0.866026 0.500000 0.000000
vn -0.866026 0.500000 0.000000
vn -0.866026 0.500000 0.000000
vn 0.000000 1.000000 0.000000
vn 0.000000 1.000000 0.000000
vn 0.000000 1.000000 0.000000
vn 0.000000 1.000000 0.000000
vn 0.866025 0.500000 0.000000
vn 0.866025 0.500000 0.000000
vn 0.866025 0.500000 0.000000
vn 0.866025 0.500000 0.000000
vn 0.866026 -0.500000 0.000000
vn 0.866026 -0.500000 0.000000
vn 0.866026 -0.500000 0.000000
vn 0.866026 -0.500000 0.000000
vn 0.866026 -0.500000 0.000000
vn 0.866026 -0.500000 0.000000
vn 0.866026 -0.500000 0.000000
vn 0.866026 -0.500000 0.000000
vn 0.866025 0.500000 0.000000
vn 0.866025 0.500000 0.000000
vn 0.866025 0.500000 0.000000
vn 0.866025 0.500000 0.000000
vn 0.000000 1.000000 0.000000
vn 0.000000 1.000000 0.000000
vn 0.000000 1.000000 0.000000
vn 0.000000 1.000000 0.000000
vn -0.866026 0.500000 0.000000
vn -0.866026 0.500000 0.000000
vn -0.866026 0.500000 0.000000
vn -0.866026 0.500000 0.000000
vn -0.866025 -0.500000 0.000000
vn -0.866025 -0.500000 0.000000
vn -0.866025 -0.500000 0.000000
vn -0.866025 -0.500000 0.000000
vn 0.000000 -1.000000 0.000000
vn 0.000000 -1.000000 0.000000
vn 0.000000 -1.000000 0.000000
vn 0.000000 -1.000000 0.000000
vn 0.000000 -0.553080 -0.833128
vn 0.000000 -0.553080 -0.833128
vn 0.000000 -0.553080 -0.833128
vn 0.000000 -0.553080 -0.833128
vn -0.478979 -0.276540 -0.833129
vn -0.478979 -0.276540 -0.833129
vn -0.478979 -0.276540 -0.833129
vn -0.478979 -0.276540 -0.833129
vn -0.478983 0.276540 -0.833127
vn -0.478983 0.276540 -0.833127
vn -0.478983 0.276540 -0.833127
vn -0.478983 0.276540 -0.833127
vn 0.000000 0.553080 -0.833128
vn 0.000000 0.553080 -0.833128
vn 0.000000 0.553080 -0.833128
vn 0.000000 0.553080 -0.833128
vn 0.478984 0.276540 -0.833127
vn 0.478984 0.276540 -0.833127
vn 0.478984 0.276540 -0.833127
vn 0.478984 0.276540 -0.833127
vn 0.478982 -0.276540 -0.833128
vn 0.478982 -0.276540 -0.833128
vn 0.478982 -0.276540 -0.833128
vn 0.478982 -0.276540 -0.833128
vn 0.478980 -0.276539 0.833129
vn 0.478980 -0.276539 0.833129
vn 0.478980 -0.276539 0.833129
vn 0.478980 -0.276539 0.833129
vn 0.478980 0.276539 0.833129
vn 0.478980 0.276539 0.833129
vn 0.478980 0.276539 0.833129
vn 0.478980 0.276539 0.833129
vn 0.000000 0.553079 0.833129
vn 0.000000 0.553079 0.833129
vn 0.000000 0.553079 0.833129
vn 0.000000 0.553079 0.833129
vn -0.478980 0.276539 0.833129
vn -0.478980 0.276539 0.833129
vn -0.478980 0.276539 0.833129
vn -0.478980 0.276539 0.833129
vn -0.478980 -0.276539 0.833129
vn -0.478980 -0.276539 0.833129
vn -0.478980 -0.276539 0.833129
vn -0.478980 -0.276539 0.833129
vn 0.000000 -0.553078 0.833129
vn 0.000000 -0.553079 0.833129
vn 0.000000 -0.553079 0.833129
vn 0.000000 -0.553079 0.833129
vn -0.280226 0.950301 0.135654
vn -0.280226 0.950301 0.135653
vn -0.280226 0.950301 0.135653
vn -0.532202 0.843510 -0.072462
vn -0.532202 0.843510 -0.072462
vn -0.532202 0.843510 -0.072462
vn -0.969294 -0.205412 0.135187
vn -0.969294 -0.205412 0.135187
vn -0.969294 -0.205412 0.135187
vn -0.990868 -0.117897 -0.065430
vn -0.990868 -0.117897 -0.065430
vn -0.990868 -0.117897 -0.065430
vn 0.965282 -0.115472 -0.234302
vn 0.965282 -0.115472 -0.234302
vn 0.965282 -0.115472 -0.234302
vn 0.404231 -0.908423 -0.106607
vn 0.404231 -0.908423 -0.106607
vn 0.404231 -0.908423 -0.106607
vn 0.855276 -0.518116 0.007610
vn 0.855277 -0.518116 0.007610
vn 0.855277 -0.518116 0.007610
vn 0.855276 -0.518116 0.007610
vn 0.903633 -0.428060 -0.014548
vn 0.903633 -0.428060 -0.014548
vn 0.903633 -0.428060 -0.014548
vn 0.903633 -0.428060 -0.014548
vn 0.849964 -0.526643 0.014437
vn 0.849964 -0.526643 0.014437
vn 0.849964 -0.526643 0.014437
vn 0.849964 -0.526643 0.014437
vn 0.023545 -0.999591 0.016262
vn 0.023545 -0.999591 0.016262
vn 0.023545 -0.999591 0.016262
vn 0.023545 -0.999591 0.016262
vn 0.020046 -0.999628 -0.018521
vn 0.020046 -0.999628 -0.018521
vn 0.020046 -0.999628 -0.018521
vn 0.020046 -0.999628 -0.018521
vn 0.256028 -0.965350 0.050477
vn 0.256028 -0.965350 0.050477
vn 0.256028 -0.965350 0.050477
vn 0.948542 -0.310457 0.062335
vn 0.948541 -0.310457 0.062335
vn 0.948541 -0.310457 0.062335
vn 0.866025 0.500000 0.000000
vn 0.866025 0.500000 0.000000
vn 0.866025 0.500000 0.000000
vn 0.900114 0.435651 0.002023
vn 0.900114 0.435651 0.002023
vn 0.900114 0.435651 0.002023
vn 0.900114 0.435651 0.002023
vn 0.000000 0.998281 0.058609
vn 0.000000 0.998281 0.058609
vn 0.000000 0.998281 0.058609
vn -0.019458 0.999763 -0.009809
vn -0.019458 0.999763 -0.009809
vn -0.019458 0.999763 -0.009809
vn -0.019458 0.999763 -0.009809
vn -0.884825 0.465851 -0.008177
vn -0.884825 0.465851 -0.008177
vn -0.884825 0.465851 -0.008177
vn -0.884825 0.465852 -0.008177
vn -0.836621 0.547699 0.009497
vn -0.836621 0.547699 0.009497
vn -0.836622 0.547699 0.009497
vn -0.836621 0.547699 0.009497
vn -0.890676 0.453894 -0.026010
vn -0.890676 0.453894 -0.026010
vn -0.890676 0.453894 -0.026010
vn -0.890676 0.453894 -0.026010
vn -0.890332 -0.454540 -0.026504
vn -0.890332 -0.454540 -0.026504
vn -0.890332 -0.454540 -0.026504
vn -0.890332 -0.454540 -0.026504
vn -0.870825 -0.491411 0.013407
vn -0.870825 -0.491411 0.013407
vn -0.870825 -0.491411 0.013407
vn -0.870825 -0.491411 0.013407
s off
f 52/64/1 2/40/2 12/41/3
f 2/40/4 45/57/5 12/41/6
f 11/44/7 41/53/8 10/46/9
f 40/52/10 5/47/11 9/48/12
f 5/47/13 6/49/14 47/59/15
f 6/49/16 1/39/17 48/60/18
f 14/13/19 13/14/20 15/15/21
f 16/16/22 14/13/23 15/15/24
f 17/17/25 16/16/26 15/15/27
f 18/18/28 17/17/29 15/15/30
f 19/19/31 18/18/32 15/15/33
f 13/14/34 19/19/35 15/15/36
f 26/20/37 27/21/38 28/22/39
f 27/21/40 29/23/41 28/22/42
f 29/23/43 30/24/44 28/22/45
f 30/24/46 31/25/47 28/22/48
f 31/25/49 32/26/50 28/22/51
f 32/26/52 26/20/53 28/22/54
f 13/14/55 14/13/56 20/27/57 21/28/58
f 14/13/59 16/16/60 22/29/61 20/27/62
f 16/16/63 17/17/64 23/30/65 22/29/66
f 17/17/67 18/18/68 24/31/69 23/30/70
f 18/18/71 19/19/72 25/32/73 24/31/74
f 19/19/75 13/14/76 21/28/77 25/32/78
f 34/33/79 33/34/80 26/20/81 32/26/82
f 35/35/83 34/33/84 32/26/85 31/25/86
f 36/36/87 35/35/88 31/25/89 30/24/90
f 37/37/91 36/36/92 30/24/93 29/23/94
f 38/38/95 37/37/96 29/23/97 27/21/98
f 33/34/99 38/38/100 27/21/101 26/20/102
f 2/2/103 1/1/104 21/28/105 20/27/106
f 3/5/107 2/2/108 20/27/109 22/29/110
f 4/7/111 3/5/112 22/29/113 23/30/114
f 5/9/115 4/7/116 23/30/117 24/31/118
f 6/11/119 5/9/120 24/31/121 25/32/122
f 1/1/123 6/11/124 25/32/125 21/28/126
f 8/12/127 7/4/128 33/34/129 34/33/130
f 9/10/131 8/12/132 34/33/133 35/35/134
f 10/8/135 9/10/136 35/35/137 36/36/138
f 11/6/139 10/8/140 36/36/141 37/37/142
f 12/3/143 11/6/144 37/37/145 38/38/146
f 7/4/147 12/3/148 38/38/149 33/34/150
f 41/53/151 40/52/152 10/46/153
f 39/51/154 40/52/155 41/53/156
f 45/57/157 44/56/158 43/55/159
f 42/54/160 44/56/161 45/57/162
f 6/49/163 48/60/164 47/59/165
f 49/61/166 52/64/167 51/63/168
f 48/60/169 51/63/170 8/50/171 46/58/172
f 48/60/173 1/39/174 49/61/175 51/63/176
f 8/50/177 51/63/178 50/62/179 7/42/180
f 52/64/181 12/41/182 7/42/183 50/62/184
f 1/39/185 2/40/186 52/64/187 49/61/188
f 51/63/189 52/64/190 50/62/191
f 47/59/192 48/60/193 46/58/194
f 5/47/195 47/59/196 9/48/197
f 9/48/198 47/59/199 46/58/200 8/50/201
f 40/52/202 9/48/203 10/46/204
f 4/45/205 5/47/206 40/52/207 39/51/208
f 44/56/209 4/45/210 39/51/211 41/53/212
f 44/56/213 41/53/214 11/44/215 43/55/216
f 3/43/217 4/45/218 44/56/219 42/54/220
f 2/40/221 3/43/222 42/54/223 45/57/224
f 12/41/225 45/57/226 43/55/227 11/44/228
