# This file uses centimeters as units for non-parametric coordinates.

v 4.412110 -241.965225 -7.596494
v -4.359375 -241.965225 -7.596494
v -8.744141 -241.965225 -0.000000
v -4.359375 -241.965225 7.594541
v 4.412109 -241.965225 7.594541
v 8.745773 -233.864227 -0.070643
v 4.199219 231.996155 -7.229307
v -4.148438 231.996155 -7.229307
v -8.322266 231.996155 -0.000000
v -2.528623 242.849167 4.424481
v 4.199219 231.996155 7.229307
v 8.375000 231.996155 0.000000
v 0.027344 -268.156250 0.000000
v 0.025391 268.156250 0.000000
v 2.861087 131.232315 -6.565794
v -4.243747 146.363770 -5.738134
v -7.077490 154.525620 0.827659
v -2.808353 147.555923 6.565794
v 4.294528 132.424408 5.738134
v 7.130225 118.800179 -0.827660
v 2.803279 -130.635956 -7.053875
v -4.694315 -137.453857 -5.931168
v -7.470250 -134.044724 1.122707
v -2.750545 -123.817612 7.053875
v 4.747049 -116.999687 5.931168
v 7.522985 -120.408844 -1.122707
v -5.266722 231.996155 5.294245
v -1.330409 231.996155 7.229307
v -3.593695 213.349228 6.954166
v 6.067477 127.319626 1.630990
v 7.310068 130.637146 -0.707798
v 4.753852 128.141556 -4.020749
v 6.499640 -241.965225 3.981276
v 7.888431 -241.965225 -1.578150
v 5.320040 -246.919693 0.000000
v -5.752696 -130.321579 3.281741
v -2.752837 -113.490608 7.029574
v -2.058120 -120.056953 5.678224
vt 0.372987 0.379630
vt 0.372988 0.379629
vt 0.372988 0.379623
vt 0.372987 0.379623
vt 0.372988 0.379631
vt 0.372989 0.379624
vt 0.372988 0.379632
vt 0.372989 0.379625
vt 0.372989 0.379624
vt 0.372987 0.379633
vt 0.372988 0.379624
vt 0.372987 0.379632
vt 0.372986 0.379631
vt 0.372987 0.379623
vt 0.372987 0.379631
vt 0.372987 0.379631
vt 0.372987 0.379631
vt 0.372988 0.379601
vt 0.372989 0.379601
vt 0.372989 0.379600
vt 0.372990 0.379600
vt 0.372991 0.379600
vt 0.372990 0.379600
vt 0.372990 0.379600
vt 0.372989 0.379600
vt 0.372987 0.379600
vt 0.372988 0.379607
vt 0.372989 0.379606
vt 0.372990 0.379605
vt 0.372990 0.379605
vt 0.372990 0.379602
vt 0.372988 0.379607
vt 0.372988 0.379608
vt 0.372987 0.379607
vt 0.372988 0.379607
vt 0.372989 0.379624
vt 0.372987 0.379609
vt 0.372988 0.379624
vn -0.072823 0.009546 -0.997299
vn -0.072823 0.009546 -0.997299
vn -0.072823 0.009546 -0.997299
vn -0.072823 0.009546 -0.997299
vn -0.897485 0.009754 -0.440936
vn -0.897485 0.009754 -0.440936
vn -0.897485 0.009754 -0.440936
vn -0.897485 0.009754 -0.440936
vn -0.832740 0.009192 0.553588
vn -0.832740 0.009192 0.553588
vn -0.832740 0.009192 0.553588
vn -0.832740 0.009192 0.553588
vn -0.832740 0.009192 0.553588
vn 0.065287 0.008524 0.997830
vn 0.065287 0.008524 0.997830
vn 0.065287 0.008524 0.997830
vn 0.065287 0.008524 0.997830
vn 0.898851 0.008358 0.438174
vn 0.898851 0.008358 0.438174
vn 0.898851 0.008358 0.438174
vn 0.898851 0.008358 0.438174
vn 0.898851 0.008358 0.438174
vn 0.825215 0.008868 -0.564749
vn 0.825215 0.008868 -0.564749
vn 0.825215 0.008868 -0.564749
vn 0.825215 0.008868 -0.564749
vn 0.825215 0.008868 -0.564749
vn 0.000000 -0.278562 -0.960418
vn 0.000000 -0.278562 -0.960418
vn 0.000000 -0.278562 -0.960418
vn -0.831795 -0.278571 -0.480121
vn -0.831795 -0.278572 -0.480121
vn -0.831795 -0.278572 -0.480121
vn -0.831746 -0.278555 0.480215
vn -0.831746 -0.278555 0.480215
vn -0.831746 -0.278555 0.480215
vn 0.000000 -0.278496 0.960437
vn 0.000000 -0.278496 0.960437
vn 0.000000 -0.278496 0.960437
vn 0.919070 -0.270662 0.286449
vn 0.919070 -0.270662 0.286449
vn 0.919070 -0.270662 0.286449
vn 0.919070 -0.270662 0.286449
vn 0.909074 -0.290830 -0.298333
vn 0.909074 -0.290830 -0.298333
vn 0.909074 -0.290830 -0.298333
vn 0.909074 -0.290830 -0.298333
vn 0.000000 0.196045 -0.980595
vn 0.000000 0.196045 -0.980595
vn 0.000000 0.196045 -0.980595
vn -0.849221 0.196045 -0.490297
vn -0.849220 0.196045 -0.490297
vn -0.849220 0.196045 -0.490297
vn -0.802985 0.199734 0.561535
vn -0.802985 0.199734 0.561535
vn -0.802985 0.199734 0.561535
vn -0.802985 0.199734 0.561535
vn -0.086893 0.198436 0.976255
vn -0.086893 0.198436 0.976255
vn -0.086893 0.198436 0.976255
vn -0.086893 0.198436 0.976255
vn 0.849118 0.196067 0.490466
vn 0.849118 0.196067 0.490466
vn 0.849118 0.196067 0.490466
vn 0.849118 0.196067 -0.490466
vn 0.849118 0.196067 -0.490466
vn 0.849118 0.196067 -0.490466
vn -0.064259 -0.011041 -0.997872
vn -0.064259 -0.011041 -0.997872
vn -0.064259 -0.011041 -0.997872
vn -0.064259 -0.011041 -0.997872
vn -0.894497 -0.012657 -0.446894
vn -0.894498 -0.012657 -0.446894
vn -0.894498 -0.012657 -0.446894
vn -0.894497 -0.012657 -0.446894
vn -0.829184 -0.012155 0.558844
vn -0.829184 -0.012155 0.558844
vn -0.829184 -0.012155 0.558844
vn -0.829184 -0.012155 0.558844
vn -0.829184 -0.012155 0.558844
vn 0.036632 -0.011424 0.999264
vn 0.036632 -0.011424 0.999264
vn 0.036632 -0.011424 0.999264
vn 0.036632 -0.011424 0.999264
vn 0.036632 -0.011424 0.999264
vn 0.884862 -0.009810 0.465749
vn 0.884862 -0.009810 0.465749
vn 0.884863 -0.009810 0.465749
vn 0.884862 -0.009810 0.465749
vn 0.884863 -0.009810 0.465749
vn 0.834259 -0.009823 -0.551285
vn 0.834259 -0.009823 -0.551285
vn 0.834259 -0.009823 -0.551285
vn 0.834259 -0.009823 -0.551285
vn 0.834259 -0.009823 -0.551285
vn -0.131628 0.001360 -0.991298
vn -0.131628 0.001360 -0.991298
vn -0.131628 0.001360 -0.991298
vn -0.131628 0.001360 -0.991298
vn -0.924252 0.001294 -0.381781
vn -0.924252 0.001294 -0.381781
vn -0.924252 0.001294 -0.381781
vn -0.924252 0.001294 -0.381781
vn -0.792363 0.001329 0.610049
vn -0.792363 0.001329 0.610049
vn -0.792363 0.001329 0.610049
vn -0.792363 0.001329 0.610049
vn -0.792363 0.001329 0.610049
vn 0.132530 0.001407 0.991178
vn 0.132530 0.001407 0.991178
vn 0.132530 0.001407 0.991178
vn 0.132530 0.001407 0.991178
vn 0.925215 0.001513 0.379441
vn 0.925215 0.001513 0.379441
vn 0.925215 0.001513 0.379441
vn 0.925215 0.001513 0.379441
vn 0.925215 0.001513 0.379441
vn 0.792398 0.001477 -0.610003
vn 0.792398 0.001477 -0.610003
vn 0.792398 0.001477 -0.610003
vn 0.792398 0.001477 -0.610003
vn 0.792398 0.001477 -0.610003
vn -0.759924 0.082723 0.644727
vn -0.759924 0.082723 0.644727
vn -0.759924 0.082723 0.644727
vn -0.025853 0.086337 0.995931
vn -0.025853 0.086337 0.995931
vn -0.025853 0.086337 0.995930
vn 0.963954 0.177459 -0.198243
vn 0.963955 0.177459 -0.198243
vn 0.963955 0.177459 -0.198243
vn 0.827014 -0.496141 -0.264371
vn 0.827014 -0.496141 -0.264371
vn 0.827014 -0.496141 -0.264371
vn 0.759192 -0.195852 0.620700
vn 0.759192 -0.195852 0.620700
vn 0.759192 -0.195852 0.620700
vn 0.966885 -0.253552 0.029054
vn 0.966885 -0.253552 0.029054
vn 0.966885 -0.253552 0.029054
vn -0.058022 -0.207121 0.976593
vn -0.058022 -0.207121 0.976593
vn -0.058022 -0.207121 0.976593
vn 0.051683 -0.196057 0.979230
vn 0.051683 -0.196057 0.979230
vn 0.051683 -0.196057 0.979230
vn -0.924104 0.269320 0.271106
vn -0.924104 0.269320 0.271106
vn -0.924104 0.269320 0.271106
vn -0.199437 0.368815 0.907855
vn -0.199437 0.368815 0.907855
vn -0.199437 0.368815 0.907855
s off
f 1/1/1 2/2/2 22/3/3 21/4/4
f 2/2/5 3/5/6 23/6/7 22/3/8
f 3/5/9 4/7/10 24/8/11 36/9/12 23/6/13
f 4/7/14 5/10/15 25/11/16 24/8/17
f 5/10/18 33/12/19 6/13/20 26/14/21 25/11/22
f 6/13/23 34/15/24 1/1/25 21/4/26 26/14/27
f 2/2/28 1/1/29 13/16/30
f 3/5/31 2/2/32 13/16/33
f 4/7/34 3/5/35 13/16/36
f 5/10/37 4/7/38 13/16/39
f 35/17/40 33/12/41 5/10/42 13/16/43
f 1/1/44 34/15/45 35/17/46 13/16/47
f 7/18/48 8/19/49 14/20/50
f 8/19/51 9/21/52 14/20/53
f 9/21/54 27/22/55 10/23/56 14/20/57
f 10/23/58 28/24/59 11/25/60 14/20/61
f 11/25/62 12/26/63 14/20/64
f 12/26/65 7/18/66 14/20/67
f 15/27/68 16/28/69 8/19/70 7/18/71
f 16/28/72 17/29/73 9/21/74 8/19/75
f 17/29/76 18/30/77 29/31/78 27/22/79 9/21/80
f 18/30/81 19/32/82 11/25/83 28/24/84 29/31/85
f 19/32/86 30/33/87 31/34/88 12/26/89 11/25/90
f 31/34/91 32/35/92 15/27/93 7/18/94 12/26/95
f 21/4/96 22/3/97 16/28/98 15/27/99
f 22/3/100 23/6/101 17/29/102 16/28/103
f 23/6/104 36/9/105 37/36/106 18/30/107 17/29/108
f 37/36/109 25/11/110 19/32/111 18/30/112
f 25/11/113 26/14/114 20/37/115 30/33/116 19/32/117
f 26/14/118 21/4/119 15/27/120 32/35/121 20/37/122
f 29/31/123 28/24/124 10/23/125
f 27/22/126 29/31/127 10/23/128
f 32/35/129 30/33/130 20/37/131
f 31/34/132 30/33/133 32/35/134
f 35/17/135 34/15/136 6/13/137
f 6/13/138 33/12/139 35/17/140
f 37/36/141 36/9/142 38/38/143
f 38/38/144 25/11/145 37/36/146
f 38/38/147 36/9/148 24/8/149
f 24/8/150 25/11/151 38/38/152
