# This file uses centimeters as units for non-parametric coordinates.

v -6.494219 9.530470 -28.207668
v 18.046919 18.571255 -29.056362
v 17.697920 9.364823 -17.048550
v -2.017900 32.600437 -27.897915
v -22.296831 31.221849 -7.931483
v -26.984209 23.578909 5.680333
v -20.500811 37.756271 12.644933
v 25.021284 57.987190 -6.033534
v 29.843184 28.263981 22.173313
v 35.344772 34.184807 -16.757717
v -20.910112 18.315353 12.446202
v -10.475176 9.000000 -7.385646
v 5.286787 8.977836 14.751500
v 1.486006 36.561520 24.869114
v 25.257734 42.884846 17.288975
v 1.277388 55.931076 10.736424
v 33.656906 19.837996 14.679723
v 28.429609 24.208372 -23.809292
v 15.082808 21.157160 27.731663
v 1.961958 24.361427 28.587925
v -16.673418 21.423172 -27.064968
v -18.563189 40.067413 1.259923
v -25.086382 28.352457 12.063329
v -6.540483 57.889660 5.818334
v 15.280439 62.493687 -7.026027
v 1.160322 63.644020 -7.472743
v 15.294722 60.014225 -14.761561
v 19.023115 51.749268 -19.326443
v 6.902510 58.924210 -16.528530
v 22.021528 8.900198 4.241796
v -6.751421 45.590622 -17.198818
v -1.331499 38.008747 -25.750149
v -16.581377 44.583530 4.921605
v 15.517744 29.457336 -28.920315
v -20.841753 14.595674 -14.288051
v -11.925859 54.089375 5.750279
v -11.059649 54.433468 -5.527980
v -16.650469 45.056068 9.217565
v -14.534746 47.936588 -0.713038
v 30.836226 46.694534 -15.770167
v 22.773481 45.906631 -18.772366
v 20.785810 61.444756 -8.398402
v 20.912519 49.053345 -11.263087
v 25.865889 62.848454 -19.471401
v 33.963425 58.492661 -13.580226
v 28.511152 57.631355 -7.909389
v 34.025192 51.794044 -12.602077
v 18.723310 53.356758 -20.802517
v 25.583540 44.050999 -15.193568
v 28.133345 56.429993 -22.321743
v 14.834272 52.784981 -15.607081
v 34.441574 42.034351 7.479100
v 26.378950 39.153214 8.633702
v 24.391279 47.517620 -8.072291
v 24.517988 46.213718 4.578893
v 29.471357 36.356064 -8.090236
v 37.568893 42.742458 -4.499660
v 32.116623 48.476326 -4.349147
v 37.630661 44.544785 2.025670
v 22.328779 36.213757 1.493260
v 29.188887 42.934711 10.030614
v 31.738813 34.324692 -1.367579
v 18.439741 41.439949 1.415563
vt 0.068775 0.124232
vt 0.068775 0.124232
vt 0.068775 0.124232
vt 0.068775 0.124232
vt 0.068775 0.124232
vt 0.068775 0.124232
vt 0.068775 0.124232
vt 0.068775 0.124232
vt 0.068775 0.124232
vt 0.068775 0.124232
vt 0.068775 0.124232
vt 0.068775 0.124232
vt 0.068775 0.124232
vt 0.068775 0.124232
vt 0.068775 0.124232
vt 0.068775 0.124232
vt 0.068775 0.124232
vt 0.068775 0.124232
vt 0.068775 0.124232
vt 0.068775 0.124232
vt 0.068775 0.124232
vt 0.068775 0.124232
vt 0.068775 0.124232
vt 0.068775 0.124232
vt 0.068775 0.124232
vt 0.068775 0.124232
vt 0.068775 0.124232
vt 0.068775 0.124232
vt 0.068775 0.124232
vt 0.068775 0.124232
vt 0.068775 0.124232
vt 0.068775 0.124232
vt 0.068775 0.124232
vt 0.068775 0.124232
vt 0.068775 0.124232
vt 0.068775 0.124232
vt 0.068775 0.124232
vt 0.068775 0.124232
vt 0.068775 0.124232
vt 0.053938 0.082704
vt 0.053736 0.073918
vt 0.053942 0.070132
vt 0.054387 0.079709
vt 0.054201 0.078835
vt 0.054389 0.072912
vt 0.054006 0.066939
vt 0.054101 0.065056
vt 0.053868 0.074498
vt 0.054111 0.084129
vt 0.054188 0.077616
vt 0.054280 0.067738
vt 0.054061 0.068573
vt 0.053858 0.062407
vt 0.054065 0.067250
vt 0.054509 0.063728
vt 0.054324 0.069546
vt 0.054512 0.065557
vt 0.054129 0.060087
vt 0.054224 0.063923
vt 0.053991 0.057104
vt 0.054234 0.057248
vt 0.054311 0.055187
vt 0.054403 0.063010
vn 0.263264 -0.769277 -0.582155
vn 0.263264 -0.769277 -0.582155
vn 0.263264 -0.769277 -0.582155
vn -0.042523 0.021663 -0.998861
vn -0.042523 0.021663 -0.998861
vn -0.042523 0.021663 -0.998861
vn -0.895925 0.439925 -0.061509
vn -0.895925 0.439925 -0.061509
vn -0.895925 0.439925 -0.061509
vn 0.929453 0.321883 0.180300
vn 0.929453 0.321883 0.180300
vn 0.929453 0.321883 0.180300
vn -0.344575 -0.906377 0.244435
vn -0.344575 -0.906377 0.244435
vn -0.344575 -0.906377 0.244435
vn 0.099952 0.587170 0.803269
vn 0.099952 0.587170 0.803269
vn 0.099952 0.587170 0.803269
vn 0.758577 -0.627834 -0.174315
vn 0.758577 -0.627834 -0.174315
vn 0.758577 -0.627834 -0.174315
vn -0.118244 -0.678042 0.725450
vn -0.118244 -0.678042 0.725450
vn -0.118244 -0.678042 0.725450
vn -0.547511 0.681729 -0.485260
vn -0.547511 0.681729 -0.485260
vn -0.547511 0.681729 -0.485260
vn 0.295679 0.803218 0.517122
vn 0.295679 0.803218 0.517122
vn 0.295679 0.803218 0.517122
vn -0.299401 -0.673011 0.676324
vn -0.299401 -0.673011 0.676324
vn -0.299401 -0.673011 0.676324
vn -0.491848 0.187248 0.850308
vn -0.491848 0.187248 0.850308
vn -0.491848 0.187248 0.850308
vn 0.060086 0.902864 0.425707
vn 0.060086 0.902864 0.425707
vn 0.060086 0.902864 0.425707
vn 0.111177 0.518443 -0.847854
vn 0.111177 0.518443 -0.847854
vn 0.111177 0.518443 -0.847854
vn -0.003640 -0.999992 0.001591
vn -0.003640 -0.999992 0.001591
vn -0.003640 -0.999992 0.001591
vn 0.310600 -0.808076 0.500541
vn 0.310600 -0.808076 0.500541
vn 0.310600 -0.808076 0.500541
vn -0.895472 -0.181980 -0.406218
vn -0.895472 -0.181980 -0.406218
vn -0.895472 -0.181980 -0.406218
vn 0.027272 0.394270 -0.918590
vn 0.027272 0.394270 -0.918590
vn 0.027272 0.394270 -0.918590
vn -0.078450 0.028602 -0.996508
vn -0.078450 0.028602 -0.996508
vn -0.078450 0.028602 -0.996508
vn -0.950757 0.034552 -0.308005
vn -0.950757 0.034552 -0.308005
vn -0.950757 0.034552 -0.308005
vn -0.386019 0.541016 0.747189
vn -0.386019 0.541016 0.747189
vn -0.386019 0.541016 0.747189
vn -0.893291 0.446101 -0.054993
vn -0.893291 0.446101 -0.054993
vn -0.893291 0.446101 -0.054993
vn -0.602236 0.798311 -0.003307
vn -0.602236 0.798311 -0.003307
vn -0.602237 0.798311 -0.003307
vn -0.455237 0.503104 -0.734606
vn -0.455237 0.503104 -0.734606
vn -0.455237 0.503104 -0.734606
vn 0.681054 0.564691 -0.466143
vn 0.681054 0.564691 -0.466143
vn 0.681054 0.564691 -0.466143
vn 0.862257 -0.476649 -0.171229
vn 0.862257 -0.476649 -0.171229
vn 0.862257 -0.476649 -0.171229
vn 0.445397 0.290000 -0.847066
vn 0.445397 0.290000 -0.847066
vn 0.445397 0.290000 -0.847066
vn -0.058398 -0.001089 -0.998293
vn -0.058398 -0.001089 -0.998293
vn -0.058398 -0.001089 -0.998293
vn -0.894573 0.442536 -0.062455
vn -0.894573 0.442536 -0.062455
vn -0.894573 0.442536 -0.062455
vn -0.892362 0.448936 -0.046330
vn -0.892362 0.448936 -0.046330
vn -0.892362 0.448936 -0.046330
vn -0.364488 0.518013 0.773829
vn -0.364488 0.518013 0.773829
vn -0.364488 0.518013 0.773829
vn 0.011316 0.935032 0.354384
vn 0.011316 0.935032 0.354384
vn 0.011316 0.935032 0.354384
vn -0.678740 -0.532340 -0.505892
vn -0.678740 -0.532340 -0.505892
vn -0.678740 -0.532339 -0.505892
vn 0.005656 -0.999687 -0.024387
vn 0.005656 -0.999687 -0.024387
vn 0.005656 -0.999687 -0.024387
vn 0.309403 0.786496 0.534503
vn 0.309403 0.786496 0.534503
vn 0.309403 0.786496 0.534503
vn 0.625025 0.529500 -0.573561
vn 0.625025 0.529500 -0.573562
vn 0.625025 0.529500 -0.573562
vn -0.465925 0.724491 -0.507963
vn -0.465926 0.724491 -0.507963
vn -0.465926 0.724491 -0.507963
vn -0.954816 0.029504 -0.295731
vn -0.954816 0.029504 -0.295731
vn -0.954816 0.029504 -0.295731
vn 0.906346 0.358803 0.223155
vn 0.906346 0.358803 0.223155
vn 0.906346 0.358803 0.223155
vn 0.193352 0.364892 0.910752
vn 0.193352 0.364892 0.910752
vn 0.193352 0.364892 0.910752
vn -0.526033 0.570384 -0.630834
vn -0.526033 0.570384 -0.630834
vn -0.526033 0.570384 -0.630834
vn -0.015687 0.882563 -0.469933
vn -0.015687 0.882563 -0.469933
vn -0.015687 0.882563 -0.469933
vn -0.418496 -0.902359 -0.103002
vn -0.418496 -0.902359 -0.103002
vn -0.418495 -0.902359 -0.103002
vn -0.530280 -0.839918 0.115506
vn -0.530280 -0.839918 0.115506
vn -0.530280 -0.839918 0.115506
vn 0.086906 0.948722 -0.303932
vn 0.086906 0.948722 -0.303932
vn 0.086906 0.948722 -0.303932
vn 0.426616 0.861500 -0.275347
vn 0.426616 0.861500 -0.275347
vn 0.426616 0.861500 -0.275347
vn 0.750494 -0.639594 -0.166368
vn 0.750494 -0.639594 -0.166368
vn 0.750494 -0.639594 -0.166368
vn 0.003551 -0.999740 -0.022539
vn 0.003551 -0.999740 -0.022539
vn 0.003551 -0.999740 -0.022539
vn -0.895372 0.440856 -0.062881
vn -0.895372 0.440856 -0.062881
vn -0.895372 0.440856 -0.062881
vn -0.894694 0.442322 -0.062244
vn -0.894694 0.442322 -0.062244
vn -0.894694 0.442322 -0.062244
vn -0.575147 0.652468 -0.493448
vn -0.575147 0.652468 -0.493448
vn -0.575147 0.652468 -0.493448
vn -0.894036 0.443521 -0.063153
vn -0.894036 0.443521 -0.063153
vn -0.894036 0.443521 -0.063153
vn 0.175171 0.293310 0.939832
vn 0.175171 0.293310 0.939832
vn 0.175171 0.293310 0.939832
vn -0.461373 0.242170 0.853515
vn -0.461373 0.242170 0.853515
vn -0.461373 0.242170 0.853515
vn -0.903396 -0.133405 -0.407528
vn -0.903396 -0.133405 -0.407528
vn -0.903396 -0.133405 -0.407528
vn -0.529788 0.570349 -0.627715
vn -0.529788 0.570349 -0.627715
vn -0.529788 0.570349 -0.627715
vn -0.710366 -0.697363 0.095211
vn -0.710366 -0.697363 0.095211
vn -0.710366 -0.697363 0.095211
vn -0.532102 -0.189922 0.825104
vn -0.532102 -0.189922 0.825104
vn -0.532102 -0.189922 0.825104
vn 0.452206 0.291645 -0.842884
vn 0.452206 0.291645 -0.842884
vn 0.452206 0.291645 -0.842884
vn 0.020123 0.392565 -0.919504
vn 0.020123 0.392565 -0.919504
vn 0.020123 0.392565 -0.919504
vn 0.593310 -0.647056 -0.478854
vn 0.593310 -0.647056 -0.478854
vn 0.593310 -0.647056 -0.478854
vn 0.402599 0.104903 -0.909346
vn 0.402599 0.104903 -0.909346
vn 0.402599 0.104903 -0.909346
vn -0.899461 0.431936 -0.066339
vn -0.899461 0.431936 -0.066339
vn -0.899461 0.431936 -0.066339
vn -0.885980 0.148254 -0.439387
vn -0.885980 0.148254 -0.439387
vn -0.885980 0.148254 -0.439387
vn 0.154379 0.389518 0.907989
vn 0.154379 0.389518 0.907989
vn 0.154379 0.389518 0.907989
vn 0.307022 -0.798616 0.517638
vn 0.307022 -0.798617 0.517638
vn 0.307022 -0.798617 0.517638
vn 0.494572 -0.441798 0.748474
vn 0.494572 -0.441798 0.748474
vn 0.494572 -0.441798 0.748474
vn 0.946094 0.272459 0.175135
vn 0.946094 0.272459 0.175135
vn 0.946094 0.272459 0.175135
vn -0.365754 0.504291 0.782250
vn -0.365754 0.504291 0.782250
vn -0.365754 0.504291 0.782250
vn -0.576300 0.817010 -0.019332
vn -0.576300 0.817010 -0.019332
vn -0.576300 0.817010 -0.019332
vn 0.011708 0.367776 -0.929841
vn 0.011708 0.367776 -0.929841
vn 0.011708 0.367776 -0.929841
vn -0.829232 0.294017 -0.475319
vn -0.829232 0.294016 -0.475319
vn -0.829232 0.294017 -0.475319
vn -0.815178 -0.320779 0.482270
vn -0.815179 -0.320779 0.482270
vn -0.815179 -0.320779 0.482270
vn -0.895490 0.440569 -0.063225
vn -0.895490 0.440569 -0.063225
vn -0.895490 0.440569 -0.063225
vn -0.642390 -0.178849 0.745217
vn -0.642390 -0.178849 0.745217
vn -0.642390 -0.178849 0.745217
vn 0.708343 0.108387 0.697497
vn 0.708343 0.108387 0.697497
vn 0.708343 0.108387 0.697497
vn -0.629951 -0.770807 0.094967
vn -0.629951 -0.770807 0.094967
vn -0.629951 -0.770807 0.094967
vn -0.251266 0.317322 -0.914425
vn -0.251266 0.317322 -0.914425
vn -0.251266 0.317322 -0.914425
vn 0.190670 -0.499328 0.845172
vn 0.190670 -0.499328 0.845172
vn 0.190670 -0.499328 0.845172
vn 0.837515 -0.071381 -0.541732
vn 0.837515 -0.071381 -0.541732
vn 0.837515 -0.071381 -0.541732
vn 0.227862 0.906011 0.356685
vn 0.227862 0.906010 0.356685
vn 0.227862 0.906011 0.356685
vn 0.669838 0.485941 -0.561408
vn 0.669838 0.485941 -0.561407
vn 0.669838 0.485941 -0.561407
vn 0.810142 -0.155464 -0.565244
vn 0.810142 -0.155464 -0.565244
vn 0.810142 -0.155464 -0.565244
vn 0.189474 -0.491136 0.850226
vn 0.189474 -0.491136 0.850226
vn 0.189474 -0.491136 0.850227
vn -0.171101 -0.223578 0.959550
vn -0.171101 -0.223578 0.959550
vn -0.171101 -0.223578 0.959550
vn -0.620109 -0.752724 0.221067
vn -0.620109 -0.752724 0.221067
vn -0.620109 -0.752724 0.221067
vn -0.683117 0.576864 -0.447861
vn -0.683117 0.576864 -0.447861
vn -0.683117 0.576864 -0.447861
vn -0.698714 0.675739 -0.234895
vn -0.698714 0.675739 -0.234895
vn -0.698714 0.675739 -0.234895
vn 0.398445 -0.650731 0.646368
vn 0.398445 -0.650731 0.646368
vn 0.398445 -0.650731 0.646368
vn 0.299990 -0.730014 -0.614072
vn 0.299990 -0.730015 -0.614072
vn 0.299990 -0.730015 -0.614072
vn -0.058734 -0.292054 -0.954597
vn -0.058734 -0.292054 -0.954597
vn -0.058734 -0.292054 -0.954597
vn -0.661031 -0.509474 -0.550885
vn -0.661031 -0.509473 -0.550885
vn -0.661031 -0.509473 -0.550885
vn 0.349503 -0.454377 -0.819383
vn 0.349503 -0.454377 -0.819383
vn 0.349503 -0.454377 -0.819383
vn 0.407575 0.863703 0.296479
vn 0.407575 0.863703 0.296479
vn 0.407575 0.863703 0.296479
vn -0.642390 0.761657 0.084935
vn -0.642390 0.761657 0.084935
vn -0.642390 0.761657 0.084935
vn 0.708343 0.678642 -0.194153
vn 0.708343 0.678642 -0.194153
vn 0.708343 0.678642 -0.194153
vn -0.629950 0.189931 0.753053
vn -0.629950 0.189931 0.753053
vn -0.629950 0.189931 0.753053
vn -0.251268 -0.946748 -0.201328
vn -0.251268 -0.946748 -0.201328
vn -0.251268 -0.946748 -0.201328
vn 0.190671 0.900630 0.390524
vn 0.190671 0.900631 0.390525
vn 0.190671 0.900631 0.390525
vn 0.837515 -0.528677 0.138091
vn 0.837515 -0.528677 0.138091
vn 0.837515 -0.528677 0.138091
vn 0.227862 0.241431 -0.943287
vn 0.227862 0.241431 -0.943287
vn 0.227862 0.241431 -0.943287
vn 0.669838 -0.617399 -0.412475
vn 0.669838 -0.617399 -0.412475
vn 0.669838 -0.617399 -0.412475
vn 0.810141 -0.541566 0.224448
vn 0.810141 -0.541566 0.224448
vn 0.810141 -0.541566 0.224448
vn 0.189475 0.904629 0.381767
vn 0.189475 0.904629 0.381767
vn 0.189475 0.904629 0.381767
vn -0.171101 0.979886 0.102705
vn -0.171101 0.979886 0.102705
vn -0.171101 0.979886 0.102705
vn -0.620109 0.312819 0.719451
vn -0.620109 0.312819 0.719451
vn -0.620109 0.312819 0.719451
vn -0.683115 -0.516026 -0.516789
vn -0.683115 -0.516026 -0.516789
vn -0.683115 -0.516026 -0.516789
vn -0.698714 -0.316980 -0.641344
vn -0.698714 -0.316980 -0.641344
vn -0.698714 -0.316980 -0.641344
vn 0.398450 0.722157 0.565443
vn 0.398450 0.722157 0.565443
vn 0.398450 0.722157 0.565443
vn 0.299992 -0.518676 0.800612
vn 0.299992 -0.518676 0.800612
vn 0.299992 -0.518676 0.800612
vn -0.058735 -0.910947 0.408321
vn -0.058735 -0.910947 0.408321
vn -0.058735 -0.910947 0.408321
vn -0.661029 -0.483367 0.573931
vn -0.661029 -0.483367 0.573931
vn -0.661029 -0.483367 0.573931
vn 0.349506 -0.756624 0.552599
vn 0.349506 -0.756624 0.552599
vn 0.349506 -0.756624 0.552599
vn 0.407575 0.186943 -0.893832
vn 0.407575 0.186943 -0.893832
vn 0.407575 0.186943 -0.893832
s off
f 1/1/1 2/2/2 3/3/3
f 4/4/4 2/2/5 1/1/6
f 5/5/7 6/6/8 7/7/9
f 8/8/10 9/9/11 10/10/12
f 11/11/13 12/12/14 13/13/15
f 14/14/16 15/15/17 16/16/18
f 17/17/19 3/3/20 18/18/21
f 19/19/22 20/20/23 13/13/24
f 4/4/25 21/21/26 22/22/27
f 16/16/28 15/15/29 8/8/30
f 13/13/31 20/20/32 11/11/33
f 23/23/34 20/20/35 7/7/36
f 24/24/37 25/25/38 26/26/39
f 27/27/40 28/28/41 29/29/42
f 30/30/43 13/13/44 12/12/45
f 13/13/46 30/30/47 17/17/48
f 31/31/49 32/32/50 33/33/51
f 32/32/52 29/29/53 34/34/54
f 21/21/55 4/4/56 1/1/57
f 6/6/58 5/5/59 35/35/60
f 14/14/61 16/16/62 7/7/63
f 36/36/64 37/37/65 38/38/66
f 37/37/67 24/24/68 26/26/69
f 29/29/70 32/32/71 31/31/72
f 10/10/73 28/28/74 27/27/75
f 18/18/76 10/10/77 17/17/78
f 28/28/79 10/10/80 18/18/81
f 4/4/82 34/34/83 2/2/84
f 5/5/85 7/7/86 38/38/87
f 36/36/88 38/38/89 7/7/90
f 7/7/91 16/16/92 36/36/93
f 24/24/94 16/16/95 25/25/96
f 21/21/97 1/1/98 35/35/99
f 12/12/100 1/1/101 30/30/102
f 16/16/103 8/8/104 25/25/105
f 8/8/106 10/10/107 27/27/108
f 22/22/109 21/21/110 5/5/111
f 5/5/112 21/21/113 35/35/114
f 15/15/115 9/9/116 8/8/117
f 15/15/118 14/14/119 9/9/120
f 31/31/121 26/26/122 29/29/123
f 29/29/124 26/26/125 27/27/126
f 1/1/127 12/12/128 35/35/129
f 11/11/130 35/35/131 12/12/132
f 25/25/133 27/27/134 26/26/135
f 8/8/136 27/27/137 25/25/138
f 3/3/139 17/17/140 30/30/141
f 1/1/142 3/3/143 30/30/144
f 38/38/145 39/39/146 33/33/147
f 5/5/148 38/38/149 22/22/150
f 4/4/151 22/22/152 33/33/153
f 22/22/154 38/38/155 33/33/156
f 9/9/157 14/14/158 20/20/159
f 20/20/160 14/14/161 7/7/162
f 39/39/163 31/31/164 33/33/165
f 37/37/166 26/26/167 31/31/168
f 6/6/169 35/35/170 11/11/171
f 20/20/172 23/23/173 11/11/174
f 34/34/175 28/28/176 18/18/177
f 29/29/178 28/28/179 34/34/180
f 2/2/181 18/18/182 3/3/183
f 34/34/184 18/18/185 2/2/186
f 37/37/187 39/39/188 38/38/189
f 39/39/190 37/37/191 31/31/192
f 19/19/193 9/9/194 20/20/195
f 17/17/196 19/19/197 13/13/198
f 9/9/199 19/19/200 17/17/201
f 9/9/202 17/17/203 10/10/204
f 36/36/205 16/16/206 24/24/207
f 37/37/208 36/36/209 24/24/210
f 34/34/211 4/4/212 32/32/213
f 4/4/214 33/33/215 32/32/216
f 6/6/217 11/11/218 23/23/219
f 6/6/220 23/23/221 7/7/222
f 42/40/223 51/41/224 43/42/225
f 45/43/226 46/44/227 47/45/228
f 51/41/229 41/46/230 49/47/231
f 48/48/232 44/49/233 50/50/234
f 47/45/235 46/44/236 43/42/237
f 50/50/238 45/43/239 47/45/240
f 44/49/241 46/44/242 45/43/243
f 50/50/244 44/49/245 45/43/246
f 50/50/247 47/45/248 40/51/249
f 43/42/250 49/47/251 47/45/252
f 46/44/253 42/40/254 43/42/255
f 43/42/256 51/41/257 49/47/258
f 44/49/259 48/48/260 51/41/261
f 44/49/262 51/41/263 42/40/264
f 47/45/265 49/47/266 40/51/267
f 41/46/268 40/51/269 49/47/270
f 48/48/271 50/50/272 41/46/273
f 41/46/274 51/41/275 48/48/276
f 41/46/277 50/50/278 40/51/279
f 42/40/280 46/44/281 44/49/282
f 54/52/283 63/53/284 55/54/285
f 57/55/286 58/56/287 59/57/288
f 63/53/289 53/58/290 61/59/291
f 60/60/292 56/61/293 62/62/294
f 59/57/295 58/56/296 55/54/297
f 62/62/298 57/55/299 59/57/300
f 56/61/301 58/56/302 57/55/303
f 62/62/304 56/61/305 57/55/306
f 62/62/307 59/57/308 52/63/309
f 55/54/310 61/59/311 59/57/312
f 58/56/313 54/52/314 55/54/315
f 55/54/316 63/53/317 61/59/318
f 56/61/319 60/60/320 63/53/321
f 56/61/322 63/53/323 54/52/324
f 59/57/325 61/59/326 52/63/327
f 53/58/328 52/63/329 61/59/330
f 60/60/331 62/62/332 53/58/333
f 53/58/334 63/53/335 60/60/336
f 53/58/337 62/62/338 52/63/339
f 54/52/340 58/56/341 56/61/342
