# This file uses centimeters as units for non-parametric coordinates.

v 11.842831 0.000010 8.679187
v 8.696450 0.000010 11.825566
v 3.350776 -7.169913 -0.000000
v -0.000000 -7.169913 3.350776
v -3.350776 -7.169913 0.000000
v -12.377388 0.000018 9.206554
v -9.154959 0.000018 12.428983
v 12.906816 0.000010 15.543948
v 15.543944 0.000010 12.906816
v 0.000000 -11.431341 2.829705
v 2.829706 -11.431341 -0.000000
v -2.829706 -11.431341 0.000000
v -12.874945 0.000010 15.575819
v -15.575815 0.000010 12.874944
v 2.829706 -13.651727 -0.000000
v 0.000000 -13.651727 2.829705
v -2.829706 -13.651727 0.000000
v -0.000000 -22.811163 -0.000000
v -5.453858 -0.114388 14.336204
v 5.453858 -0.114388 14.336204
v -5.453858 2.498669 14.336204
v 5.453858 2.498669 14.336204
v 14.336204 -0.114388 4.913287
v 14.336204 2.498669 4.913287
v -14.336204 2.498669 4.913287
v -14.336204 -0.114388 4.913287
v 13.359311 2.498669 19.028309
v 13.359311 -0.114388 19.028309
v 19.028301 -0.114388 13.359313
v 19.028301 2.498669 13.359313
v -19.028301 2.498669 13.359313
v -19.028301 -0.114388 13.359313
v -13.359311 -0.114388 19.028309
v -13.359311 2.498669 19.028309
v 3.879617 2.498669 11.119196
v -4.066705 2.498669 10.932108
v 11.119196 2.498669 3.879617
v -10.932108 2.498669 4.066705
v -10.932108 -0.114388 4.066705
v 11.119196 -0.114388 3.879617
v 3.879617 -0.114388 11.119196
v -4.066705 -0.114388 10.932108
v 3.296045 -2.338613 3.286608
v -3.139928 -2.338613 3.341212
v 3.296410 -4.188834 3.286605
v -3.140293 -4.188834 3.341216
v -11.025652 2.498669 0.000000
v -3.217950 -2.338613 -0.000000
v 3.218023 -2.338613 0.000000
v 11.025652 2.498669 0.000000
v 14.336204 2.498669 0.000000
v 14.336204 -0.114388 0.000000
v 11.025652 -0.114388 0.000000
v 3.218205 -4.188834 0.000000
v -3.218133 -4.188834 0.000000
v -11.025652 -0.114388 0.000000
v -14.336204 -0.114388 0.000000
v -14.336204 2.498669 0.000000
vt 0.080960 0.276285
vt 0.081081 0.276277
vt 0.081148 0.275909
vt 0.081014 0.275917
vt 0.081171 0.275963
vt 0.081562 0.276434
vt 0.081591 0.276494
vt 0.081100 0.276299
vt 0.081158 0.275995
vt 0.081001 0.276005
vt 0.080956 0.276309
vt 0.081507 0.276432
vt 0.081540 0.276504
vt 0.081185 0.276060
vt 0.081148 0.275909
vt 0.081014 0.275917
vt 0.081171 0.275963
vt 0.081092 0.275940
vt 0.081136 0.276862
vt 0.081124 0.276884
vt 0.080984 0.277026
vt 0.080992 0.277007
vt 0.080961 0.276120
vt 0.080954 0.276155
vt 0.081092 0.276274
vt 0.081102 0.276240
vt 0.080989 0.276485
vt 0.080995 0.276648
vt 0.081003 0.276621
vt 0.080997 0.276455
vt 0.080728 0.276905
vt 0.080730 0.276883
vt 0.080728 0.276216
vt 0.080726 0.276250
vt 0.080896 0.276619
vt 0.080888 0.276451
vt 0.080728 0.276778
vt 0.080732 0.276310
vt 0.080891 0.276646
vt 0.080726 0.276802
vt 0.080883 0.276481
vt 0.080730 0.276343
vt 0.080730 0.276626
vt 0.080731 0.276462
vt 0.080729 0.276492
vt 0.080728 0.276653
vt 0.080640 0.276460
vt 0.080643 0.276308
vt 0.080637 0.276623
vt 0.080634 0.276775
vt 0.080635 0.276882
vt 0.080635 0.276904
vt 0.080634 0.276799
vt 0.080637 0.276650
vt 0.080640 0.276489
vt 0.080643 0.276340
vt 0.080642 0.276250
vt 0.080642 0.276216
vn 0.377334 -0.845718 0.377334
vn 0.377334 -0.845718 0.377334
vn 0.377334 -0.845717 0.377334
vn 0.377334 -0.845717 0.377334
vn -0.377334 -0.845718 0.377334
vn -0.377334 -0.845718 0.377334
vn -0.377334 -0.845718 0.377334
vn -0.377334 -0.845718 0.377334
vn -0.657634 -0.088439 0.748129
vn -0.657634 -0.088439 0.748129
vn -0.657634 -0.088439 0.748129
vn -0.657634 -0.088439 0.748129
vn 0.748884 -0.092204 -0.656256
vn 0.748884 -0.092204 -0.656256
vn 0.748884 -0.092204 -0.656256
vn 0.748884 -0.092204 -0.656256
vn 0.652492 -0.107368 0.750151
vn 0.652492 -0.107368 0.750151
vn 0.652492 -0.107368 0.750151
vn 0.652492 -0.107368 0.750151
vn -0.747892 -0.095600 -0.656901
vn -0.747892 -0.095600 -0.656901
vn -0.747892 -0.095600 -0.656901
vn -0.747892 -0.095600 -0.656901
vn 0.343668 0.873948 -0.343668
vn 0.343668 0.873948 -0.343668
vn 0.343668 0.873948 -0.343668
vn 0.343668 0.873948 -0.343668
vn -0.359546 0.861077 -0.359546
vn -0.359546 0.861077 -0.359546
vn -0.359546 0.861077 -0.359546
vn -0.359546 0.861077 -0.359546
vn 0.000000 1.000000 0.000000
vn 0.000000 1.000000 0.000000
vn 0.000000 1.000000 0.000000
vn 0.707107 0.000000 0.707107
vn 0.707107 0.000000 0.707107
vn 0.707107 0.000000 0.707107
vn 0.707107 0.000000 0.707107
vn -0.707107 0.000000 0.707107
vn -0.707107 0.000000 0.707107
vn -0.707107 0.000000 0.707107
vn -0.707107 0.000000 0.707107
vn 0.690815 -0.213420 0.690816
vn 0.690815 -0.213420 0.690816
vn 0.690815 -0.213420 0.690816
vn -0.690815 -0.213420 0.690816
vn -0.690815 -0.213420 0.690816
vn -0.690815 -0.213420 0.690816
vn -0.000000 0.000000 -1.000000
vn -0.000000 0.000000 -1.000000
vn -0.000000 0.000000 -1.000000
vn -0.000000 0.000000 -1.000000
vn -0.000000 0.000000 -1.000000
vn -0.000000 0.000000 -1.000000
vn -0.000000 0.000000 -1.000000
vn -0.000000 0.000000 -1.000000
vn -0.000000 0.000000 -1.000000
vn -0.000000 0.000000 -1.000000
vn -0.000000 0.000000 -1.000000
vn 0.707107 0.000000 0.707107
vn 0.707107 0.000000 0.707107
vn 0.707107 0.000000 0.707107
vn 0.707107 0.000000 0.707107
vn -0.707107 0.000000 0.707107
vn -0.707107 0.000000 0.707107
vn -0.707107 0.000000 0.707107
vn -0.707107 0.000000 0.707107
vn -0.000000 0.000000 1.000000
vn -0.000000 0.000000 1.000000
vn -0.000000 0.000000 1.000000
vn -0.000000 0.000000 1.000000
vn -0.510397 0.000000 0.859939
vn -0.510397 0.000000 0.859939
vn -0.510397 0.000000 0.859939
vn -0.510397 0.000000 0.859939
vn 0.000000 -1.000000 0.000000
vn 0.000000 -1.000000 0.000000
vn 0.000000 -1.000000 0.000000
vn 0.000000 -1.000000 0.000000
vn 0.874163 0.000000 -0.485632
vn 0.874163 0.000000 -0.485632
vn 0.874163 0.000000 -0.485632
vn 0.874163 0.000000 -0.485632
vn 0.000000 1.000000 0.000000
vn 0.000000 1.000000 0.000000
vn 0.000000 1.000000 0.000000
vn 0.000000 1.000000 0.000000
vn -0.874163 0.000000 -0.485632
vn -0.874163 0.000000 -0.485632
vn -0.874163 0.000000 -0.485632
vn -0.874163 0.000000 -0.485632
vn -0.000000 -1.000000 0.000000
vn -0.000000 -1.000000 0.000000
vn -0.000000 -1.000000 0.000000
vn -0.000000 -1.000000 0.000000
vn 0.510397 0.000000 0.859939
vn 0.510397 0.000000 0.859939
vn 0.510397 0.000000 0.859939
vn 0.510397 0.000000 0.859939
vn -0.000000 1.000000 -0.000000
vn -0.000000 1.000000 -0.000000
vn -0.000000 1.000000 -0.000000
vn -0.000000 1.000000 -0.000000
vn 0.000000 1.000000 0.000000
vn 0.000000 1.000000 0.000000
vn 0.000000 1.000000 0.000000
vn 0.000000 1.000000 0.000000
vn -0.000000 1.000000 -0.000000
vn -0.000000 1.000000 -0.000000
vn -0.000000 1.000000 -0.000000
vn -0.000000 1.000000 -0.000000
vn 0.000000 1.000000 0.000000
vn 0.000000 1.000000 0.000000
vn 0.000000 1.000000 0.000000
vn 0.000000 1.000000 0.000000
vn 0.000000 -1.000000 0.000000
vn 0.000000 -1.000000 0.000000
vn 0.000000 -1.000000 0.000000
vn 0.000000 -1.000000 0.000000
vn 0.000000 -1.000000 0.000000
vn 0.000000 -1.000000 0.000000
vn 0.000000 -1.000000 0.000000
vn 0.000000 -1.000000 0.000000
vn 0.000000 -1.000000 0.000000
vn 0.000000 -1.000000 0.000000
vn 0.000000 -1.000000 0.000000
vn 0.000000 -1.000000 0.000000
vn 0.002989 0.945876 -0.324516
vn 0.002989 0.945876 -0.324516
vn 0.002989 0.945876 -0.324516
vn 0.002989 0.945876 -0.324516
vn -0.002281 -0.968856 0.247613
vn -0.002281 -0.968856 0.247613
vn -0.002281 -0.968856 0.247613
vn -0.002281 -0.968856 0.247613
vn 0.320968 0.947061 -0.007434
vn 0.320968 0.947061 -0.007434
vn 0.320968 0.947061 -0.007434
vn 0.320968 0.947061 -0.007434
vn 0.000000 1.000000 0.000000
vn 0.000000 1.000000 0.000000
vn 0.000000 1.000000 0.000000
vn 0.000000 1.000000 0.000000
vn -0.320970 0.947058 0.007684
vn -0.320970 0.947058 0.007684
vn -0.320970 0.947058 0.007684
vn -0.320970 0.947058 0.007684
vn 0.000000 1.000000 0.000000
vn 0.000000 1.000000 0.000000
vn 0.000000 1.000000 0.000000
vn 0.000000 1.000000 0.000000
vn 1.000000 0.000000 -0.000000
vn 1.000000 0.000000 -0.000000
vn 1.000000 0.000000 -0.000000
vn 1.000000 0.000000 -0.000000
vn 0.000000 -1.000000 0.000000
vn 0.000000 -1.000000 0.000000
vn 0.000000 -1.000000 0.000000
vn 0.000000 -1.000000 0.000000
vn 0.244788 -0.969559 -0.005867
vn 0.244788 -0.969559 -0.005867
vn 0.244788 -0.969559 -0.005867
vn 0.244788 -0.969559 -0.005867
vn 0.000000 -1.000000 0.000000
vn 0.000000 -1.000000 0.000000
vn 0.000000 -1.000000 0.000000
vn 0.000000 -1.000000 0.000000
vn -0.244787 -0.969560 0.005663
vn -0.244787 -0.969560 0.005663
vn -0.244787 -0.969560 0.005663
vn -0.244787 -0.969560 0.005663
vn 0.000000 -1.000000 0.000000
vn 0.000000 -1.000000 0.000000
vn 0.000000 -1.000000 0.000000
vn 0.000000 -1.000000 0.000000
vn -1.000000 0.000000 -0.000000
vn -1.000000 0.000000 -0.000000
vn -1.000000 0.000000 -0.000000
vn -1.000000 0.000000 -0.000000
vn -0.000000 1.000000 -0.000000
vn -0.000000 1.000000 -0.000000
vn -0.000000 1.000000 -0.000000
vn -0.000000 1.000000 -0.000000
vn -0.000000 0.000000 -1.000000
vn -0.000000 0.000000 -1.000000
vn -0.000000 0.000000 -1.000000
vn -0.000000 0.000000 -1.000000
vn -0.000000 -0.000000 -1.000000
vn -0.000000 -0.000000 -1.000000
vn -0.000000 -0.000000 -1.000000
vn -0.000000 -0.000000 -1.000000
vn -0.000000 0.000000 -1.000000
vn -0.000000 0.000000 -1.000000
vn -0.000000 0.000000 -1.000000
vn -0.000000 0.000000 -1.000000
vn 0.000000 -0.000000 -1.000000
vn 0.000000 -0.000000 -1.000000
vn 0.000000 -0.000000 -1.000000
vn 0.000000 -0.000000 -1.000000
vn -0.000000 0.000000 -1.000000
vn -0.000000 0.000000 -1.000000
vn -0.000000 0.000000 -1.000000
vn -0.000000 0.000000 -1.000000
vn 0.284441 0.915525 -0.284441
vn 0.284441 0.915525 -0.284441
vn 0.284441 0.915525 -0.284441
vn -0.219965 -0.950385 0.219965
vn -0.219965 -0.950385 0.219965
vn -0.219965 -0.950385 0.219965
vn -0.287308 0.913733 -0.287308
vn -0.287308 0.913733 -0.287308
vn -0.287308 0.913733 -0.287308
vn 0.222357 -0.949271 0.222357
vn 0.222357 -0.949271 0.222357
vn 0.222357 -0.949271 0.222357
s off
f 9/1/1 8/2/2 10/3/3 11/4/4
f 12/5/5 10/3/6 13/6/7 14/7/8
f 2/8/9 4/9/10 10/3/11 8/2/12
f 3/10/13 1/11/14 9/1/15 11/4/16
f 4/9/17 7/12/18 13/6/19 10/3/20
f 6/13/21 5/14/22 12/5/23 14/7/24
f 7/12/25 4/9/26 5/14/27 6/13/28
f 4/9/29 2/8/30 1/11/31 3/10/32
f 3/10/33 5/14/34 4/9/35
f 11/4/36 10/3/37 16/15/38 15/16/39
f 10/3/40 12/5/41 17/17/42 16/15/43
f 15/16/44 16/15/45 18/18/46
f 16/15/47 17/17/48 18/18/49
f 17/17/50 15/16/51 18/18/52
f 11/4/53 12/5/54 5/14/55 3/10/56
f 17/17/57 12/5/58 11/4/59 15/16/60
f 27/19/61 28/20/62 29/21/63 30/22/64
f 31/23/65 32/24/66 33/25/67 34/26/68
f 19/27/69 20/28/70 22/29/71 21/30/72
f 22/29/73 20/28/74 28/20/75 27/19/76
f 20/28/77 23/31/78 29/21/79 28/20/80
f 23/31/81 24/32/82 30/22/83 29/21/84
f 24/32/85 22/29/86 27/19/87 30/22/88
f 25/33/89 26/34/90 32/24/91 31/23/92
f 26/34/93 19/27/94 33/25/95 32/24/96
f 19/27/97 21/30/98 34/26/99 33/25/100
f 21/30/101 25/33/102 31/23/103 34/26/104
f 21/30/105 22/29/106 35/35/107 36/36/108
f 22/29/109 24/32/110 37/37/111 35/35/112
f 25/33/113 21/30/114 36/36/115 38/38/116
f 23/31/117 20/28/118 41/39/119 40/40/120
f 20/28/121 19/27/122 42/41/123 41/39/124
f 19/27/125 26/34/126 39/42/127 42/41/128
f 36/36/129 35/35/130 43/43/131 44/44/132
f 41/39/133 42/41/134 46/45/135 45/46/136
f 44/44/137 48/47/138 47/48/139 38/38/140
f 49/49/141 48/47/142 44/44/143 43/43/144
f 37/37/145 50/50/146 49/49/147 43/43/148
f 24/32/149 51/51/150 50/50/151 37/37/152
f 23/31/153 52/52/154 51/51/155 24/32/156
f 53/53/157 52/52/158 23/31/159 40/40/160
f 54/54/161 53/53/162 40/40/163 45/46/164
f 45/46/165 46/45/166 55/55/167 54/54/168
f 56/56/169 55/55/170 46/45/171 39/42/172
f 26/34/173 57/57/174 56/56/175 39/42/176
f 25/33/177 58/58/178 57/57/179 26/34/180
f 47/48/181 58/58/182 25/33/183 38/38/184
f 58/58/185 47/48/186 56/56/187 57/57/188
f 47/48/189 48/47/190 55/55/191 56/56/192
f 48/47/193 49/49/194 54/54/195 55/55/196
f 49/49/197 50/50/198 53/53/199 54/54/200
f 50/50/201 51/51/202 52/52/203 53/53/204
f 44/44/205 38/38/206 36/36/207
f 46/45/208 42/41/209 39/42/210
f 43/43/211 35/35/212 37/37/213
f 45/46/214 40/40/215 41/39/216
