# This file uses centimeters as units for non-parametric coordinates.

v 169.403275 192.231232 11.250000
v 192.231232 192.231232 11.250000
v 192.231232 192.231232 -11.250000
v 169.403290 192.231232 -11.250000
v 157.222443 192.231232 7.961792
v 145.857025 186.190384 11.250000
v 145.083939 188.574966 7.961792
v 145.856995 186.190369 -11.250000
v 157.222412 192.231232 -7.961792
v 147.441757 181.302032 11.250000
v 120.213394 192.231232 7.961792
v 147.441757 181.302032 -11.250000
v 145.083954 188.574982 -7.961792
v 120.213379 192.231232 -7.961792
v 84.831421 149.500687 11.250000
v 83.313751 151.483871 -7.961792
v 83.313751 151.483856 7.961792
v 84.831421 149.500671 -11.250000
v 114.748840 192.231232 -11.250000
v 114.748840 192.231232 11.250000
v 103.546677 192.231232 -11.250000
v 103.546677 192.231232 11.250000
v 74.408760 163.119827 7.961792
v 72.891083 165.102890 11.250000
v 87.942589 145.435425 11.250000
v 72.891098 165.102905 -11.250000
v 74.408730 163.119797 -7.961792
v 69.779938 169.168167 11.250000
v 87.942589 145.435425 -11.250000
v 69.779938 169.168167 -11.250000
v 0.000000 22.827957 -11.250000
v 0.000000 0.000000 -11.250000
v 0.000000 0.000000 11.250000
v 0.000000 22.827942 11.250000
v 0.000000 35.008789 -7.961792
v 6.040848 46.374210 -11.250000
v 3.656265 47.147297 -7.961792
v 6.040855 46.374233 11.250000
v 0.000000 35.008816 7.961792
v 10.929207 44.789471 -11.250000
v -0.000000 72.017838 -7.961792
v 10.929207 44.789471 11.250000
v 3.656258 47.147274 7.961792
v -0.000000 72.017853 7.961792
v 42.730495 107.399826 -11.250000
v 40.747421 108.917480 7.961792
v 40.747437 108.917480 -7.961792
v 42.730495 107.399841 11.250000
v -0.000000 77.482391 11.250000
v -0.000000 77.482391 -11.250000
v -0.000000 88.684555 11.250000
v -0.000000 88.684555 -11.250000
v 29.111420 117.822472 -7.961792
v 27.128347 119.340149 -11.250000
v 46.795773 104.288643 -11.250000
v 27.128332 119.340134 11.250000
v 29.111420 117.822502 7.961792
v 23.063068 122.451294 -11.250000
v 46.795773 104.288643 11.250000
v 23.063068 122.451294 11.250000
vt 0.058981 0.226787
vt 0.058980 0.226977
vt 0.059002 0.226993
vt 0.059002 0.226796
vt 0.059300 0.228006
vt 0.059253 0.228012
vt 0.059353 0.228022
vt 0.059240 0.228001
vt 0.059258 0.228031
vt 0.059160 0.228020
vt 0.059233 0.228012
vt 0.059253 0.228036
vt 0.059437 0.228056
vt 0.059187 0.227913
vt 0.059160 0.228045
vt 0.059341 0.228067
vt 0.059002 0.226648
vt 0.058984 0.226696
vt 0.059174 0.228006
vt 0.059122 0.227916
vt 0.059070 0.227993
vt 0.058993 0.227988
vt 0.059003 0.226292
vt 0.058984 0.226484
vt 0.059057 0.227983
vt 0.058980 0.228000
vt 0.059023 0.226002
vt 0.058982 0.226384
vt 0.059023 0.225745
vt 0.058982 0.226318
vt 0.059056 0.227902
vt 0.059069 0.227891
vt 0.059070 0.228015
vt 0.058979 0.227894
vt 0.058993 0.227905
vt 0.059187 0.227896
vt 0.059163 0.227872
vt 0.059069 0.227869
vt 0.058980 0.228023
vt 0.059071 0.227874
vt 0.058979 0.227871
vt 0.059095 0.227900
vt 0.058981 0.226787
vt 0.058980 0.226977
vt 0.059002 0.226993
vt 0.059002 0.226796
vt 0.059253 0.228012
vt 0.059353 0.228022
vt 0.059300 0.228006
vt 0.059240 0.228001
vt 0.059233 0.228012
vt 0.059258 0.228031
vt 0.059160 0.228020
vt 0.059174 0.228006
vt 0.059253 0.228036
vt 0.059437 0.228056
vt 0.059187 0.227913
vt 0.059160 0.228045
vt 0.059341 0.228067
vt 0.059002 0.226648
vt 0.058984 0.226696
vt 0.059122 0.227916
vt 0.059070 0.227993
vt 0.059057 0.227983
vt 0.058993 0.227988
vt 0.058980 0.228000
vt 0.059003 0.226292
vt 0.058984 0.226484
vt 0.059023 0.226002
vt 0.058982 0.226384
vt 0.059023 0.225745
vt 0.058982 0.226318
vt 0.059056 0.227902
vt 0.059069 0.227891
vt 0.059070 0.228015
vt 0.058979 0.227894
vt 0.058993 0.227905
vt 0.059187 0.227896
vt 0.059163 0.227872
vt 0.059069 0.227869
vt 0.058980 0.228023
vt 0.059071 0.227874
vt 0.058979 0.227871
vt 0.059095 0.227900
vn 0.000000 1.000000 -0.000000
vn 0.000000 1.000000 -0.000000
vn 0.000000 1.000000 -0.000000
vn 0.000000 1.000000 -0.000000
vn -0.124707 0.789053 0.601534
vn -0.124707 0.789053 0.601534
vn -0.124707 0.789053 0.601534
vn -0.124707 0.789053 0.601534
vn -0.124707 0.789053 -0.601535
vn -0.124707 0.789053 -0.601535
vn -0.124707 0.789053 -0.601535
vn -0.124707 0.789053 -0.601535
vn 0.000000 0.000000 1.000000
vn 0.000000 0.000000 1.000000
vn 0.000000 0.000000 1.000000
vn 0.000000 0.000000 1.000000
vn 0.000000 0.000000 1.000000
vn 0.000000 0.000000 1.000000
vn 0.000000 0.000000 1.000000
vn 0.156109 -0.987740 0.000000
vn 0.156109 -0.987740 0.000000
vn 0.156109 -0.987740 0.000000
vn 0.156109 -0.987740 0.000000
vn 0.000000 1.000000 -0.000000
vn 0.000000 1.000000 -0.000000
vn 0.000000 1.000000 -0.000000
vn 0.000000 1.000000 -0.000000
vn -0.000000 -0.000000 -1.000000
vn -0.000000 -0.000000 -1.000000
vn -0.000000 -0.000000 -1.000000
vn -0.361966 0.712136 0.601534
vn -0.361966 0.712136 0.601534
vn -0.361966 0.712136 0.601534
vn -0.361966 0.712136 0.601534
vn -0.000000 -0.000000 -1.000000
vn -0.000000 -0.000000 -1.000000
vn -0.000000 -0.000000 -1.000000
vn -0.000000 -0.000000 -1.000000
vn -0.361965 0.712136 -0.601535
vn -0.361965 0.712136 -0.601535
vn -0.361965 0.712136 -0.601535
vn -0.361965 0.712136 -0.601535
vn 0.000000 1.000000 -0.000000
vn 0.000000 1.000000 -0.000000
vn 0.000000 1.000000 -0.000000
vn 0.000000 1.000000 -0.000000
vn 0.000000 1.000000 -0.000000
vn 0.000000 1.000000 -0.000000
vn 0.000000 1.000000 -0.000000
vn 0.000000 1.000000 -0.000000
vn 0.000000 1.000000 -0.000000
vn 0.000000 1.000000 -0.000000
vn 0.000000 1.000000 -0.000000
vn 0.000000 1.000000 -0.000000
vn 0.563938 -0.565798 0.601536
vn 0.563938 -0.565798 0.601536
vn 0.565800 -0.563940 0.601532
vn 0.565800 -0.563940 0.601532
vn -0.563940 0.565800 0.601533
vn -0.563940 0.565800 0.601533
vn -0.565800 0.563940 0.601534
vn -0.565800 0.563940 0.601534
vn 0.000000 0.000000 1.000000
vn 0.000000 0.000000 1.000000
vn 0.000000 0.000000 1.000000
vn 0.000000 0.000000 1.000000
vn 0.000000 0.000000 1.000000
vn 0.000000 0.000000 1.000000
vn 0.000000 0.000000 1.000000
vn 0.000000 0.000000 1.000000
vn 0.563940 -0.565800 -0.601532
vn 0.563940 -0.565800 -0.601532
vn 0.565798 -0.563938 -0.601536
vn 0.565798 -0.563938 -0.601536
vn -0.563940 0.565800 -0.601534
vn -0.563940 0.565800 -0.601534
vn -0.565800 0.563940 -0.601533
vn -0.565800 0.563940 -0.601533
vn 0.361966 -0.712136 0.601535
vn 0.361966 -0.712136 0.601535
vn 0.361966 -0.712136 0.601535
vn 0.361966 -0.712136 0.601535
vn -0.000000 -0.000000 1.000000
vn -0.000000 -0.000000 1.000000
vn -0.000000 -0.000000 1.000000
vn -0.000000 -0.000000 1.000000
vn 0.453110 -0.891455 0.000000
vn 0.453110 -0.891455 0.000000
vn 0.453110 -0.891455 0.000000
vn 0.453110 -0.891455 0.000000
vn -0.000000 -0.000000 -1.000000
vn -0.000000 -0.000000 -1.000000
vn -0.000000 -0.000000 -1.000000
vn -0.000000 -0.000000 -1.000000
vn -0.000000 -0.000000 -1.000000
vn -0.000000 -0.000000 -1.000000
vn -0.000000 -0.000000 -1.000000
vn -0.000000 -0.000000 -1.000000
vn -0.453110 0.891455 -0.000000
vn -0.453110 0.891455 -0.000000
vn -0.453110 0.891455 -0.000000
vn -0.453110 0.891455 -0.000000
vn 0.361966 -0.712136 -0.601535
vn 0.361966 -0.712136 -0.601535
vn 0.361966 -0.712136 -0.601535
vn 0.361966 -0.712136 -0.601535
vn -0.000000 -0.000000 -1.000000
vn -0.000000 -0.000000 -1.000000
vn -0.000000 -0.000000 -1.000000
vn -0.000000 -0.000000 -1.000000
vn 0.000000 0.000000 1.000000
vn 0.000000 0.000000 1.000000
vn 0.000000 0.000000 1.000000
vn 0.000000 0.000000 1.000000
vn 0.000000 0.000000 1.000000
vn 0.000000 0.000000 1.000000
vn 0.000000 0.000000 1.000000
vn 0.000000 0.000000 1.000000
vn 0.000000 0.000000 1.000000
vn 0.000000 0.000000 1.000000
vn 0.000000 0.000000 1.000000
vn 0.000000 0.000000 1.000000
vn -0.705942 0.708270 -0.000000
vn -0.705942 0.708270 -0.000000
vn -0.708270 0.705942 0.000000
vn -0.708270 0.705942 0.000000
vn 0.705942 -0.708270 0.000000
vn 0.705942 -0.708270 0.000000
vn 0.708270 -0.705942 0.000000
vn 0.708270 -0.705942 0.000000
vn -0.000000 -0.000000 -1.000000
vn -0.000000 -0.000000 -1.000000
vn 0.000000 0.000000 -1.000000
vn 0.000000 0.000000 -1.000000
vn -0.000000 -0.000000 -1.000000
vn -0.000000 -0.000000 -1.000000
vn 0.000000 0.000000 -1.000000
vn 0.000000 0.000000 -1.000000
vn -0.000000 -0.000000 -1.000000
vn -0.000000 -0.000000 -1.000000
vn 0.000000 0.000000 -1.000000
vn 0.000000 0.000000 -1.000000
vn -1.000000 -0.000000 0.000000
vn -1.000000 -0.000000 0.000000
vn -1.000000 -0.000000 0.000000
vn -1.000000 -0.000000 0.000000
vn -0.789053 0.124707 -0.601534
vn -0.789053 0.124707 -0.601534
vn -0.789053 0.124707 -0.601534
vn -0.789053 0.124707 -0.601534
vn -0.789053 0.124707 0.601535
vn -0.789053 0.124707 0.601535
vn -0.789053 0.124707 0.601535
vn -0.789053 0.124707 0.601535
vn 0.000000 0.000000 -1.000000
vn 0.000000 0.000000 -1.000000
vn 0.000000 0.000000 -1.000000
vn 0.000000 0.000000 -1.000000
vn 0.000000 0.000000 -1.000000
vn 0.000000 0.000000 -1.000000
vn 0.000000 0.000000 -1.000000
vn 0.987740 -0.156109 0.000000
vn 0.987740 -0.156109 0.000000
vn 0.987740 -0.156109 0.000000
vn 0.987740 -0.156109 0.000000
vn -1.000000 -0.000000 0.000000
vn -1.000000 -0.000000 0.000000
vn -1.000000 -0.000000 0.000000
vn -1.000000 -0.000000 0.000000
vn 0.000000 0.000000 1.000000
vn 0.000000 0.000000 1.000000
vn 0.000000 0.000000 1.000000
vn -0.712136 0.361966 -0.601534
vn -0.712136 0.361966 -0.601534
vn -0.712136 0.361966 -0.601534
vn -0.712136 0.361966 -0.601534
vn 0.000000 0.000000 1.000000
vn 0.000000 0.000000 1.000000
vn 0.000000 0.000000 1.000000
vn 0.000000 0.000000 1.000000
vn -0.712136 0.361965 0.601535
vn -0.712136 0.361965 0.601535
vn -0.712136 0.361965 0.601535
vn -0.712136 0.361965 0.601535
vn -1.000000 -0.000000 0.000000
vn -1.000000 -0.000000 0.000000
vn -1.000000 -0.000000 0.000000
vn -1.000000 -0.000000 0.000000
vn -1.000000 -0.000000 0.000000
vn -1.000000 -0.000000 0.000000
vn -1.000000 -0.000000 0.000000
vn -1.000000 -0.000000 0.000000
vn -1.000000 -0.000000 0.000000
vn -1.000000 -0.000000 0.000000
vn -1.000000 -0.000000 0.000000
vn -1.000000 -0.000000 0.000000
vn 0.000000 0.000000 -1.000000
vn 0.000000 0.000000 -1.000000
vn 0.000000 0.000000 -1.000000
vn 0.000000 0.000000 -1.000000
vn 0.000000 0.000000 -1.000000
vn 0.000000 0.000000 -1.000000
vn 0.000000 0.000000 -1.000000
vn 0.000000 0.000000 -1.000000
vn 0.712136 -0.361966 -0.601535
vn 0.712136 -0.361966 -0.601535
vn 0.712136 -0.361966 -0.601535
vn 0.712136 -0.361966 -0.601535
vn 0.000000 0.000000 -1.000000
vn 0.000000 0.000000 -1.000000
vn 0.000000 0.000000 -1.000000
vn 0.000000 0.000000 -1.000000
vn 0.891455 -0.453110 0.000000
vn 0.891455 -0.453110 0.000000
vn 0.891455 -0.453110 0.000000
vn 0.891455 -0.453110 0.000000
vn 0.000000 0.000000 1.000000
vn 0.000000 0.000000 1.000000
vn 0.000000 0.000000 1.000000
vn 0.000000 0.000000 1.000000
vn 0.000000 0.000000 1.000000
vn 0.000000 0.000000 1.000000
vn 0.000000 0.000000 1.000000
vn 0.000000 0.000000 1.000000
vn -0.891455 0.453110 0.000000
vn -0.891455 0.453110 0.000000
vn -0.891455 0.453110 0.000000
vn -0.891455 0.453110 0.000000
vn 0.712136 -0.361966 0.601535
vn 0.712136 -0.361966 0.601535
vn 0.712136 -0.361966 0.601535
vn 0.712136 -0.361966 0.601535
vn 0.000000 0.000000 1.000000
vn 0.000000 0.000000 1.000000
vn 0.000000 0.000000 1.000000
vn 0.000000 0.000000 1.000000
s off
f 1/1/1 2/2/2 3/3/3 4/4/4
f 6/6/5 1/7/6 5/5/7 7/8/8
f 9/11/9 4/9/10 8/10/11 13/19/12
f 1/7/13 6/6/14 10/12/15 2/13/16
f 11/14/17 7/8/18 5/5/19
f 12/15/20 3/16/21 2/13/22 10/12/23
f 1/1/24 4/4/25 9/17/26 5/18/27
f 9/11/28 13/19/29 14/20/30
f 15/21/31 6/6/32 7/8/33 17/25/34
f 3/16/35 12/15/36 8/10/37 4/9/38
f 16/22/39 13/19/40 8/10/41 18/26/42
f 5/18/43 9/17/44 14/23/45 11/24/46
f 11/24/47 14/23/48 19/27/49 20/28/50
f 20/28/51 19/27/52 21/29/53 22/30/54
f 23/31/55 24/32/56 56/76/57 57/77/58
f 15/21/59 17/25/60 46/65/61 48/66/62
f 10/12/63 6/6/64 15/21/65 25/33/66
f 11/14/67 23/31/68 17/25/69 7/8/70
f 26/34/71 27/35/72 53/73/73 54/74/74
f 16/22/75 18/26/76 45/63/77 47/64/78
f 20/36/79 24/32/80 23/31/81 11/14/82
f 22/37/83 28/38/84 24/32/85 20/36/86
f 29/39/87 12/15/88 10/12/89 25/33/90
f 14/20/91 13/19/92 16/22/93 27/35/94
f 8/10/95 12/15/96 29/39/97 18/26/98
f 21/40/99 30/41/100 28/38/101 22/37/102
f 14/20/103 27/35/104 26/34/105 19/42/106
f 19/42/107 26/34/108 30/41/109 21/40/110
f 24/32/111 28/38/112 60/83/113 56/76/114
f 25/33/115 15/21/116 48/66/117 59/81/118
f 17/25/119 23/31/120 57/77/121 46/65/122
f 28/38/123 30/41/124 58/80/125 60/83/126
f 29/39/127 25/33/128 59/81/129 55/75/130
f 27/35/131 16/22/132 47/64/133 53/73/134
f 30/41/135 26/34/136 54/74/137 58/80/138
f 18/26/139 29/39/140 55/75/141 45/63/142
f 31/43/143 32/44/144 33/45/145 34/46/146
f 36/47/147 31/48/148 35/49/149 37/50/150
f 39/51/151 34/52/152 38/53/153 43/54/154
f 31/48/155 36/47/156 40/55/157 32/56/158
f 41/57/159 37/50/160 35/49/161
f 42/58/162 33/59/163 32/56/164 40/55/165
f 31/43/166 34/46/167 39/60/168 35/61/169
f 39/51/170 43/54/171 44/62/172
f 45/63/173 36/47/174 37/50/175 47/64/176
f 33/59/177 42/58/178 38/53/179 34/52/180
f 46/65/181 43/54/182 38/53/183 48/66/184
f 35/61/185 39/60/186 44/67/187 41/68/188
f 41/68/189 44/67/190 49/69/191 50/70/192
f 50/70/193 49/69/194 51/71/195 52/72/196
f 40/55/197 36/47/198 45/63/199 55/75/200
f 41/57/201 53/73/202 47/64/203 37/50/204
f 50/78/205 54/74/206 53/73/207 41/57/208
f 52/79/209 58/80/210 54/74/211 50/78/212
f 59/81/213 42/58/214 40/55/215 55/75/216
f 44/62/217 43/54/218 46/65/219 57/77/220
f 38/53/221 42/58/222 59/81/223 48/66/224
f 51/82/225 60/83/226 58/80/227 52/79/228
f 44/62/229 57/77/230 56/76/231 49/84/232
f 49/84/233 56/76/234 60/83/235 51/82/236
