# This file uses centimeters as units for non-parametric coordinates.

v 124.652954 20.114014 -5.378052
v 124.652954 13.150452 -3.029663
v 212.835144 20.114014 -5.378052
v 212.835144 13.150452 -3.029663
v 124.652954 60.361664 -96.321045
v 212.835144 60.361664 -96.321045
v 212.835144 66.924042 -93.013245
v 124.652954 66.924042 -93.013245
v 124.652954 115.507568 -215.163879
v 124.652954 108.945221 -218.471680
v 212.835144 115.507568 -215.163879
v 212.835144 108.945221 -218.471680
v 36.470825 20.114014 -5.378052
v 36.470825 13.150452 -3.029663
v 36.470825 60.361664 -96.321045
v 36.470825 66.924042 -93.013245
v 36.470825 115.507568 -215.163879
v 36.470825 108.945221 -218.471680
v 124.652954 106.716309 -188.283630
v 212.835144 106.716309 -188.283630
v 212.835144 113.278687 -184.975830
v 124.652954 113.278687 -184.975830
v 36.470825 113.278687 -184.975830
v 36.470825 106.716309 -188.283630
v 212.835144 97.867828 -154.402283
v 212.835144 91.305450 -157.710083
v 124.652954 91.305450 -157.710083
v 36.470825 91.305450 -157.710083
v 36.470825 97.867828 -154.402283
v 124.652954 97.867828 -154.402283
v 212.835144 82.010742 -122.943542
v 212.835144 75.448364 -126.251343
v 124.652954 75.448364 -126.251343
v 36.470825 75.448364 -126.251343
v 36.470825 82.010742 -122.943542
v 124.652954 82.010742 -122.943542
v 124.652954 44.177002 -64.212402
v 36.470825 44.177002 -64.212402
v 36.470825 50.739380 -60.904602
v 124.652954 50.739380 -60.904602
v 212.835144 50.739380 -60.904602
v 212.835144 44.177002 -64.212402
v 124.652954 28.185333 -32.486694
v 36.470825 28.185333 -32.486694
v 36.470825 34.747711 -29.178894
v 124.652954 34.747711 -29.178894
v 212.835144 34.747711 -29.178894
v 212.835144 28.185333 -32.486694
v 124.652954 13.381042 -32.085632
v 36.470825 13.381042 -32.085632
v 36.470825 19.943390 -28.777832
v 124.652954 19.943390 -28.777832
v 212.835144 19.943390 -28.777832
v 212.835144 13.381042 -32.085632
v 36.470825 36.673004 -59.567505
v 36.470825 30.110657 -62.875305
v 124.652954 30.110657 -62.875305
v 212.835144 30.110657 -62.875305
v 212.835144 36.673004 -59.567505
v 124.652954 36.673004 -59.567505
v 212.835144 52.274719 -90.600952
v 124.652954 52.274719 -90.600952
v 36.470825 52.274719 -90.600952
v 36.470825 45.712372 -93.908813
v 124.652954 45.712372 -93.908813
v 212.835144 45.712372 -93.908813
v 212.835144 68.101440 -121.801086
v 212.835144 61.539063 -125.108887
v 124.653076 61.539063 -125.108887
v 36.470825 61.539063 -125.108887
v 36.470825 68.101440 -121.801086
v 124.652954 68.101440 -121.801086
v 212.835144 77.651184 -156.148132
v 212.835144 84.213531 -152.840332
v 124.653076 84.213531 -152.840332
v 36.470825 84.213531 -152.840332
v 36.470825 77.651184 -156.148132
v 124.653076 77.651184 -156.148132
v 124.652954 93.117249 -187.769409
v 212.835144 93.117249 -187.769409
v 212.835144 99.679596 -184.461548
v 124.652954 99.679596 -184.461548
v 36.470825 99.679596 -184.461548
v 36.470825 93.117249 -187.769409
vt 0.865875 0.353741
vt 0.865875 0.396373
vt 0.865875 0.353741
vt 0.865875 0.396373
vt 0.990820 0.487950
vt 0.820541 0.396373
vt 0.820541 0.396373
vt 0.820541 0.353741
vt 0.820541 0.396373
vt 0.820541 0.353741
vt 0.865875 0.353741
vt 0.865875 0.396373
vt 0.865875 0.353741
vt 0.865875 0.396373
vt 0.991109 0.487980
vt 0.820541 0.396373
vt 0.820541 0.396373
vt 0.865875 0.396373
vt 0.865875 0.353741
vt 0.820541 0.353741
vt 0.865875 0.396373
vt 0.865875 0.353741
vt 0.820541 0.396373
vt 0.991396 0.487823
vt 0.820541 0.396373
vt 0.820541 0.353741
vt 0.865875 0.353741
vt 0.865875 0.396373
vt 0.865875 0.353741
vt 0.865875 0.396373
vt 0.991149 0.487803
vt 0.820541 0.396373
vt 0.991380 0.487700
vt 0.991594 0.487714
vt 0.991421 0.488012
vt 0.991657 0.487844
vt 0.991820 0.487729
vt 0.991546 0.487741
vt 0.991324 0.487725
vt 0.854814 0.396373
vt 0.854814 0.396373
vt 0.854814 0.353741
vt 0.854814 0.353741
vt 0.854814 0.396373
vt 0.854814 0.396373
vt 0.991780 0.487757
vt 0.843419 0.396373
vt 0.991266 0.487751
vt 0.843419 0.396373
vt 0.991496 0.487768
vt 0.843419 0.396373
vt 0.991739 0.487786
vt 0.843419 0.396373
vt 0.843419 0.353741
vt 0.843419 0.353741
vt 0.831695 0.396373
vt 0.991206 0.487777
vt 0.831695 0.396373
vt 0.991445 0.487796
vt 0.831695 0.396373
vt 0.991697 0.487816
vt 0.831695 0.396373
vt 0.831695 0.353741
vt 0.831695 0.353741
vt 0.991298 0.487876
vt 0.991577 0.487901
vt 0.835948 0.396373
vt 0.835948 0.396373
vt 0.835948 0.353741
vt 0.835948 0.353741
vt 0.835948 0.396373
vt 0.835948 0.396373
vt 0.991037 0.487853
vt 0.991202 0.487929
vt 0.991497 0.487958
vt 0.851171 0.396373
vt 0.851171 0.396373
vt 0.851171 0.353741
vt 0.851171 0.353741
vt 0.851171 0.396373
vt 0.851171 0.396373
vt 0.990927 0.487902
vt 0.991160 0.487952
vt 0.991462 0.487982
vt 0.857857 0.396373
vt 0.857857 0.396373
vt 0.857857 0.353741
vt 0.857857 0.353741
vt 0.857857 0.396373
vt 0.857857 0.396373
vt 0.990878 0.487924
vt 0.842771 0.396373
vt 0.991541 0.487927
vt 0.842771 0.396373
vt 0.991255 0.487900
vt 0.842771 0.396373
vt 0.990988 0.487875
vt 0.842771 0.396373
vt 0.842771 0.353741
vt 0.842771 0.353741
vt 0.828094 0.396373
vt 0.828094 0.353741
vt 0.828094 0.353741
vt 0.828094 0.396373
vt 0.991618 0.487872
vt 0.828094 0.396373
vt 0.991348 0.487849
vt 0.828094 0.396373
vt 0.991094 0.487827
vt 0.827419 0.396373
vt 0.991184 0.487787
vt 0.827419 0.396373
vt 0.991426 0.487806
vt 0.827419 0.396373
vt 0.991682 0.487827
vt 0.827419 0.396373
vt 0.827419 0.353741
vt 0.827419 0.353741
vt 0.991246 0.487760
vt 0.839495 0.396373
vt 0.839495 0.396373
vt 0.839495 0.353741
vt 0.839495 0.353741
vt 0.839495 0.396373
vt 0.839495 0.396373
vt 0.991725 0.487796
vt 0.991479 0.487777
vt 0.991522 0.487754
vt 0.991296 0.487737
vt 0.849398 0.396373
vt 0.849398 0.396373
vt 0.849398 0.353741
vt 0.849398 0.353741
vt 0.849398 0.396373
vt 0.849398 0.396373
vt 0.991761 0.487771
vn 0.000000 0.892973 0.450111
vn 0.000000 0.892973 0.450111
vn 0.000000 0.893446 0.449170
vn 0.000000 0.893446 0.449170
vn 0.000000 0.319557 0.947567
vn 0.000000 0.319557 0.947567
vn 0.000000 0.319557 0.947567
vn 0.000000 0.319557 0.947567
vn -0.000000 -0.893447 -0.449169
vn -0.000000 -0.893447 -0.449169
vn -0.000000 -0.892973 -0.450111
vn -0.000000 -0.892973 -0.450111
vn 1.000000 0.000000 -0.000001
vn 1.000000 0.000000 -0.000000
vn 1.000000 0.000000 0.000000
vn 1.000000 0.000000 0.000001
vn 0.000000 0.898309 0.439364
vn 0.000000 0.898308 0.439366
vn 0.000000 0.892973 0.450111
vn 0.000000 0.892973 0.450111
vn -0.000000 0.450108 -0.892974
vn -0.000000 0.450108 -0.892974
vn -0.000000 0.450108 -0.892974
vn -0.000000 0.450108 -0.892974
vn -0.000000 -0.892973 -0.450111
vn -0.000000 -0.892973 -0.450111
vn -0.000000 -0.898309 -0.439365
vn -0.000000 -0.898309 -0.439364
vn 1.000000 0.000000 -0.000000
vn 1.000000 0.000000 -0.000000
vn 1.000000 0.000000 -0.000000
vn 1.000000 0.000000 -0.000000
vn 0.000000 0.892973 0.450111
vn 0.000000 0.892973 0.450111
vn 0.000000 0.893446 0.449170
vn 0.000000 0.893446 0.449170
vn 0.000000 0.319557 0.947567
vn 0.000000 0.319557 0.947567
vn 0.000000 0.319557 0.947567
vn 0.000000 0.319557 0.947567
vn -0.000000 -0.893447 -0.449169
vn -0.000000 -0.893447 -0.449169
vn -0.000000 -0.892973 -0.450111
vn -0.000000 -0.892973 -0.450111
vn -1.000000 0.000000 0.000000
vn -1.000000 0.000000 0.000000
vn -1.000000 0.000000 0.000000
vn -1.000000 0.000000 0.000000
vn 0.000000 0.898308 0.439366
vn 0.000000 0.898307 0.439368
vn 0.000000 0.892973 0.450111
vn 0.000000 0.892973 0.450111
vn -0.000000 0.450108 -0.892974
vn -0.000000 0.450108 -0.892974
vn -0.000000 0.450108 -0.892974
vn -0.000000 0.450108 -0.892974
vn -0.000000 -0.892973 -0.450111
vn -0.000000 -0.892973 -0.450111
vn -0.000000 -0.898308 -0.439367
vn -0.000000 -0.898308 -0.439366
vn -1.000000 0.000000 0.000000
vn -1.000000 0.000000 0.000000
vn -1.000000 0.000000 0.000000
vn -1.000000 0.000000 0.000000
vn -0.000000 -0.997285 -0.073634
vn -0.000000 -0.888837 -0.458223
vn -0.000000 -0.888837 -0.458223
vn -0.000000 -0.997285 -0.073634
vn 1.000000 0.000000 -0.000001
vn 1.000000 0.000000 -0.000001
vn 1.000000 0.000000 -0.000001
vn 1.000000 0.000000 -0.000000
vn 0.000000 0.888838 0.458222
vn 0.000000 0.888838 0.458222
vn 0.000000 0.997285 0.073633
vn 0.000000 0.997285 0.073633
vn 0.000000 0.888838 0.458222
vn 0.000000 0.888838 0.458222
vn 0.000000 0.997285 0.073633
vn 0.000000 0.997285 0.073633
vn -1.000000 0.000000 0.000000
vn -1.000000 0.000000 0.000000
vn -1.000000 0.000000 0.000000
vn -1.000000 0.000000 0.000000
vn -0.000000 -0.997285 -0.073634
vn -0.000000 -0.997285 -0.073634
vn -0.000000 -0.888837 -0.458223
vn -0.000000 -0.888837 -0.458223
vn 1.000000 0.000000 -0.000001
vn 1.000000 0.000000 -0.000000
vn 1.000000 0.000000 -0.000001
vn 1.000000 0.000000 -0.000000
vn -0.000000 -0.892972 -0.450112
vn -0.000000 -0.892972 -0.450112
vn -0.000000 -0.887548 -0.460716
vn -0.000000 -0.887548 -0.460715
vn -0.000000 -0.892972 -0.450112
vn -0.000000 -0.892973 -0.450111
vn -0.000000 -0.887547 -0.460717
vn -0.000000 -0.887548 -0.460716
vn -1.000000 0.000000 0.000000
vn -1.000000 0.000000 0.000000
vn -1.000000 0.000000 -0.000000
vn -1.000000 0.000000 -0.000000
vn 0.000000 0.887548 0.460715
vn 0.000000 0.887549 0.460714
vn 0.000000 0.892973 0.450110
vn 0.000000 0.892973 0.450111
vn 0.000000 0.887547 0.460716
vn 0.000000 0.887548 0.460716
vn 0.000000 0.892972 0.450112
vn 0.000000 0.892972 0.450112
vn 1.000000 0.000000 -0.000000
vn 1.000000 0.000000 -0.000001
vn 1.000000 0.000000 0.000000
vn 1.000000 0.000000 0.000000
vn -0.000000 -0.887548 -0.460715
vn -0.000000 -0.887548 -0.460716
vn -0.000000 -0.892972 -0.450112
vn -0.000000 -0.892972 -0.450113
vn -0.000000 -0.887548 -0.460716
vn -0.000000 -0.887547 -0.460717
vn -0.000000 -0.892972 -0.450112
vn -0.000000 -0.892972 -0.450112
vn -1.000000 0.000000 -0.000000
vn -1.000000 0.000000 -0.000000
vn -1.000000 0.000000 -0.000000
vn -1.000000 0.000000 -0.000000
vn 0.000000 0.892972 0.450112
vn 0.000000 0.892972 0.450112
vn 0.000000 0.887549 0.460714
vn 0.000000 0.887548 0.460715
vn 0.000000 0.892972 0.450112
vn 0.000000 0.892972 0.450112
vn 0.000000 0.887548 0.460716
vn 0.000000 0.887547 0.460716
vn -0.000000 -0.878671 -0.477427
vn -0.000000 -0.878671 -0.477427
vn -0.000000 -0.892972 -0.450112
vn -0.000000 -0.892972 -0.450112
vn -1.000000 0.000000 0.000000
vn -1.000000 0.000000 0.000000
vn -1.000000 0.000000 0.000000
vn -1.000000 0.000000 0.000000
vn 0.000000 0.892972 0.450112
vn 0.000000 0.892972 0.450112
vn 0.000000 0.878671 0.477427
vn 0.000000 0.878671 0.477427
vn 0.000000 0.892972 0.450112
vn 0.000000 0.892972 0.450112
vn 0.000000 0.878671 0.477427
vn 0.000000 0.878671 0.477427
vn 1.000000 0.000000 -0.000001
vn 1.000000 0.000000 -0.000000
vn 1.000000 0.000000 -0.000001
vn 1.000000 0.000000 -0.000000
vn -0.000000 -0.878671 -0.477427
vn -0.000000 -0.878671 -0.477427
vn -0.000000 -0.892972 -0.450112
vn -0.000000 -0.892972 -0.450112
vn -0.000000 -0.890691 -0.454609
vn -0.000000 -0.890691 -0.454609
vn -0.000000 -0.878671 -0.477427
vn -0.000000 -0.878671 -0.477427
vn -1.000000 0.000000 0.000000
vn -1.000000 0.000000 0.000000
vn -1.000000 0.000000 0.000000
vn -1.000000 0.000000 0.000000
vn 0.000000 0.878671 0.477427
vn 0.000000 0.878671 0.477427
vn 0.000000 0.851866 0.523761
vn 0.000000 0.851866 0.523761
vn 0.000000 0.878671 0.477427
vn 0.000000 0.878671 0.477427
vn 0.000000 0.851866 0.523761
vn 0.000000 0.851866 0.523761
vn 1.000000 0.000000 -0.000000
vn 1.000000 0.000000 -0.000000
vn 1.000000 0.000000 -0.000000
vn 1.000000 0.000000 -0.000001
vn -0.000000 -0.890691 -0.454609
vn -0.000000 -0.890691 -0.454609
vn -0.000000 -0.878671 -0.477427
vn -0.000000 -0.878671 -0.477427
vn -0.000000 -0.999969 -0.007936
vn -0.000000 -0.890691 -0.454609
vn -0.000000 -0.890691 -0.454609
vn -0.000000 -0.999969 -0.007936
vn -1.000000 0.000000 -0.000000
vn -1.000000 0.000000 -0.000000
vn -1.000000 0.000000 0.000000
vn -1.000000 0.000000 0.000000
vn 0.000000 0.851866 0.523761
vn 0.000000 0.851866 0.523761
vn -0.000000 0.999973 -0.007291
vn -0.000000 0.999973 -0.007291
vn 0.000000 0.851866 0.523761
vn 0.000000 0.851866 0.523761
vn -0.000000 0.999973 -0.007291
vn -0.000000 0.999973 -0.007291
vn 1.000000 0.000000 -0.000000
vn 1.000000 0.000000 -0.000000
vn 1.000000 0.000000 -0.000000
vn 1.000000 0.000000 -0.000000
vn -0.000000 -0.999969 -0.007936
vn -0.000000 -0.999969 -0.007936
vn -0.000000 -0.890691 -0.454609
vn -0.000000 -0.890691 -0.454609
vn -1.000000 0.000000 0.000000
vn -1.000000 0.000000 0.000000
vn -1.000000 0.000000 0.000000
vn -1.000000 0.000000 0.000000
vn -0.000000 -0.892972 -0.450112
vn -0.000000 -0.892972 -0.450112
vn -0.000000 -0.893447 -0.449169
vn -0.000000 -0.893447 -0.449169
vn -0.000000 -0.892972 -0.450112
vn -0.000000 -0.892972 -0.450112
vn -0.000000 -0.893447 -0.449169
vn -0.000000 -0.893447 -0.449169
vn 1.000000 0.000000 -0.000000
vn 1.000000 0.000000 -0.000001
vn 1.000000 0.000000 -0.000000
vn 1.000000 0.000000 -0.000001
vn 0.000000 0.893446 0.449170
vn 0.000000 0.893446 0.449170
vn 0.000000 0.892972 0.450112
vn 0.000000 0.892972 0.450112
vn 0.000000 0.893446 0.449170
vn 0.000000 0.893446 0.449170
vn 0.000000 0.892972 0.450112
vn 0.000000 0.892972 0.450112
vn 0.000000 0.162481 0.986712
vn 0.000000 0.162481 0.986712
vn 0.000000 0.892973 0.450111
vn 0.000000 0.892973 0.450111
vn 0.000000 0.162481 0.986712
vn 0.000000 0.892973 0.450111
vn 0.000000 0.892973 0.450111
vn 0.000000 0.162481 0.986712
vn -1.000000 0.000000 0.000000
vn -1.000000 0.000000 0.000000
vn -1.000000 0.000000 0.000000
vn -1.000000 0.000000 0.000000
vn -0.000000 -0.892973 -0.450111
vn -0.000000 -0.892973 -0.450111
vn -0.000000 -0.162477 -0.986712
vn -0.000000 -0.162477 -0.986712
vn -0.000000 -0.892973 -0.450111
vn -0.000000 -0.892973 -0.450111
vn -0.000000 -0.162477 -0.986712
vn -0.000000 -0.162477 -0.986712
vn 1.000000 0.000000 0.000001
vn 1.000000 0.000000 0.000000
vn 1.000000 0.000000 0.000004
vn 1.000000 0.000000 0.000004
vn 1.000000 0.000000 0.000000
vn 1.000000 0.000000 0.000000
vn 1.000000 0.000000 0.000000
vn 1.000000 0.000000 0.000000
vn -0.000000 -0.892972 -0.450113
vn -0.000000 -0.892972 -0.450112
vn -0.000000 -0.999165 -0.040865
vn -0.000000 -0.999165 -0.040865
vn -0.000000 -0.892972 -0.450112
vn -0.000000 -0.892972 -0.450112
vn -0.000000 -0.999165 -0.040865
vn -0.000000 -0.999165 -0.040865
vn -1.000000 0.000000 -0.000000
vn -1.000000 0.000000 -0.000000
vn -1.000000 0.000000 0.000000
vn -1.000000 0.000000 0.000000
vn 0.000000 0.999165 0.040865
vn 0.000000 0.999165 0.040865
vn 0.000000 0.892972 0.450112
vn 0.000000 0.892972 0.450112
vn 0.000000 0.999165 0.040865
vn 0.000000 0.892972 0.450112
vn 0.000000 0.892972 0.450112
vn 0.000000 0.999165 0.040865
vn 1.000000 0.000000 -0.000000
vn 1.000000 0.000000 -0.000000
vn 1.000000 0.000000 -0.000000
vn 1.000000 0.000000 -0.000001
vn 0.000000 0.892972 0.450112
vn 0.000000 0.892972 0.450112
vn 0.000000 0.898308 0.439366
vn 0.000000 0.898309 0.439364
vn 0.000000 0.892973 0.450111
vn 0.000000 0.892973 0.450110
vn 0.000000 0.898307 0.439368
vn 0.000000 0.898308 0.439366
vn -1.000000 0.000000 0.000000
vn -1.000000 0.000000 0.000000
vn -1.000000 0.000000 0.000000
vn -1.000000 0.000000 0.000000
vn -0.000000 -0.898308 -0.439366
vn -0.000000 -0.898308 -0.439367
vn -0.000000 -0.892973 -0.450111
vn -0.000000 -0.892972 -0.450112
vn -0.000000 -0.898309 -0.439364
vn -0.000000 -0.898309 -0.439365
vn -0.000000 -0.892972 -0.450112
vn -0.000000 -0.892972 -0.450112
vn -0.000000 -0.888837 -0.458223
vn -0.000000 -0.888837 -0.458223
vn -0.000000 -0.892973 -0.450111
vn -0.000000 -0.892973 -0.450111
vn 1.000000 0.000000 -0.000000
vn 1.000000 0.000000 -0.000001
vn 1.000000 0.000000 -0.000000
vn 1.000000 0.000000 -0.000000
vn 0.000000 0.892973 0.450111
vn 0.000000 0.892973 0.450111
vn 0.000000 0.888838 0.458222
vn 0.000000 0.888838 0.458222
vn 0.000000 0.892973 0.450111
vn 0.000000 0.892973 0.450111
vn 0.000000 0.888838 0.458222
vn 0.000000 0.888838 0.458222
vn -1.000000 0.000000 0.000000
vn -1.000000 0.000000 0.000000
vn -1.000000 0.000000 0.000000
vn -1.000000 0.000000 0.000000
vn -0.000000 -0.888837 -0.458223
vn -0.000000 -0.888837 -0.458223
vn -0.000000 -0.892973 -0.450111
vn -0.000000 -0.892973 -0.450111
s off
f 61/101/1 62/102/2 40/69/3 41/71/4
f 3/2/5 1/1/6 2/3/7 4/4/8
f 42/73/9 37/65/10 65/107/11 66/109/12
f 41/71/13 42/72/14 66/108/15 61/101/16
f 30/55/17 25/47/18 81/131/19 82/133/20
f 11/12/21 12/14/22 10/13/23 9/11/24
f 79/128/25 80/129/26 26/48/27 27/50/28
f 80/130/29 81/131/30 25/47/31 26/49/32
f 62/103/33 63/104/34 39/68/35 40/70/36
f 13/18/37 14/21/38 2/22/39 1/19/40
f 37/65/41 38/66/42 64/105/43 65/107/44
f 38/67/45 39/68/46 63/104/47 64/106/48
f 29/53/49 30/54/50 82/132/51 83/134/52
f 17/28/53 9/27/54 10/29/55 18/30/56
f 84/136/57 79/128/58 27/50/59 28/52/60
f 83/134/61 84/135/62 28/51/63 29/53/64
f 12/33/65 20/39/66 19/38/67 10/34/68
f 12/14/69 11/12/70 21/41/71 20/40/72
f 22/43/73 21/41/74 11/12/75 9/11/76
f 23/44/77 22/42/78 9/27/79 17/28/80
f 18/30/81 24/45/82 23/44/83 17/28/84
f 18/37/85 10/34/86 19/38/87 24/46/88
f 73/120/89 74/121/90 31/56/91 32/58/92
f 78/127/93 73/119/94 32/57/95 33/59/96
f 77/126/97 78/127/98 33/59/99 34/61/100
f 76/124/101 77/125/102 34/60/103 35/62/104
f 35/62/105 36/63/106 75/122/107 76/124/108
f 36/64/109 31/56/110 74/121/111 75/123/112
f 32/58/113 31/56/114 67/110/115 68/112/116
f 33/59/117 32/57/118 68/111/119 69/113/120
f 34/61/121 33/59/122 69/113/123 70/115/124
f 35/62/125 34/60/126 70/114/127 71/116/128
f 71/116/129 72/117/130 36/63/131 35/62/132
f 72/118/133 67/110/134 31/56/135 36/64/136
f 43/74/137 44/75/138 56/93/139 57/95/140
f 44/76/141 45/77/142 55/92/143 56/94/144
f 60/100/145 55/92/146 45/77/147 46/79/148
f 59/98/149 60/99/150 46/78/151 47/80/152
f 47/80/153 48/81/154 58/96/155 59/98/156
f 48/82/157 43/74/158 57/95/159 58/97/160
f 49/83/161 50/84/162 44/75/163 43/74/164
f 50/85/165 51/86/166 45/77/167 44/76/168
f 46/79/169 45/77/170 51/86/171 52/88/172
f 47/80/173 46/78/174 52/87/175 53/89/176
f 53/89/177 54/90/178 48/81/179 47/80/180
f 54/91/181 49/83/182 43/74/183 48/82/184
f 14/35/185 50/84/186 49/83/187 2/15/188
f 14/21/189 13/18/190 51/86/191 50/85/192
f 52/88/193 51/86/194 13/18/195 1/19/196
f 53/89/197 52/87/198 1/1/199 3/2/200
f 4/4/201 54/90/202 53/89/203 3/2/204
f 4/5/205 2/15/206 49/83/207 54/91/208
f 56/94/209 55/92/210 39/68/211 38/67/212
f 57/95/213 56/93/214 38/66/215 37/65/216
f 58/97/217 57/95/218 37/65/219 42/73/220
f 59/98/221 58/96/222 42/72/223 41/71/224
f 41/71/225 40/69/226 60/99/227 59/98/228
f 40/70/229 39/68/230 55/92/231 60/100/232
f 7/7/233 8/8/234 62/102/235 61/101/236
f 16/17/237 63/104/238 62/103/239 8/20/240
f 64/106/241 63/104/242 16/17/243 15/23/244
f 65/107/245 64/105/246 15/36/247 5/24/248
f 66/109/249 65/107/250 5/24/251 6/31/252
f 61/101/253 66/108/254 6/6/255 7/7/256
f 68/112/257 67/110/258 7/9/259 6/16/260
f 69/113/261 68/111/262 6/31/263 5/24/264
f 70/115/265 69/113/266 5/24/267 15/36/268
f 71/116/269 70/114/270 15/32/271 16/25/272
f 16/25/273 8/26/274 72/117/275 71/116/276
f 7/9/277 67/110/278 72/118/279 8/10/280
f 26/49/281 25/47/282 74/121/283 73/120/284
f 75/123/285 74/121/286 25/47/287 30/55/288
f 76/124/289 75/122/290 30/54/291 29/53/292
f 29/53/293 28/51/294 77/125/295 76/124/296
f 28/52/297 27/50/298 78/127/299 77/126/300
f 27/50/301 26/48/302 73/119/303 78/127/304
f 19/38/305 20/39/306 80/129/307 79/128/308
f 20/40/309 21/41/310 81/131/311 80/130/312
f 82/133/313 81/131/314 21/41/315 22/43/316
f 83/134/317 82/132/318 22/42/319 23/44/320
f 23/44/321 24/45/322 84/135/323 83/134/324
f 24/46/325 19/38/326 79/128/327 84/136/328
