# This file uses centimeters as units for non-parametric coordinates.

v 4.266953 7.951849 -1.282330
v -4.062454 7.951849 -1.282330
v -4.062454 2.543350 -1.282330
v 4.266953 2.543350 -1.282330
v 4.266953 7.951849 1.282241
v -4.062454 7.951849 1.282241
v -4.062454 2.543350 1.282241
v 4.266953 2.543350 1.282241
v -1.303818 9.599928 -1.390442
v 1.508316 9.599930 -1.390442
v 1.508316 9.599930 1.390352
v -1.303818 9.599928 1.390353
v 3.203430 2.084690 1.421438
v 3.203308 2.083044 -1.421336
v 1.921921 1.310530 1.423001
v 1.923950 1.309557 -1.422997
v 0.861511 0.819742 1.254701
v 0.861511 0.819742 -1.254805
v -0.657013 0.819746 1.254702
v -0.657013 0.819744 -1.254806
v -1.717422 1.310530 1.423001
v -1.719452 1.309557 -1.422997
v -2.998932 2.084692 1.421438
v -2.998810 2.083046 -1.421336
v 6.479233 -8.249476 -0.888500
v 7.731567 -7.463021 -0.863260
v 7.728668 -7.450781 0.970452
v 6.463257 -8.232407 0.990406
v -7.524261 -7.459189 -0.864917
v -6.275131 -8.254469 -0.886591
v -6.259201 -8.237807 0.988572
v -7.521164 -7.446588 0.972051
v -4.579620 5.247599 1.303680
v -4.579620 5.247599 -1.303785
v 4.784134 5.247599 1.303680
v 4.784134 5.247599 -1.303785
v 9.816803 -16.477116 0.411993
v -9.816788 -16.318163 0.412207
v 2.561646 6.808580 -1.385892
v 0.648270 7.872343 -1.359814
v -2.357132 6.808578 -1.385891
v -2.490509 5.247599 -1.342490
v -2.286987 3.639154 -1.354282
v -1.987946 3.206144 -1.349345
v 2.491501 3.639154 -1.354284
v 2.695007 5.247599 -1.342489
v 2.561646 6.808580 1.385803
v 0.648270 7.872343 1.359709
v -2.357132 6.808578 1.385802
v -2.490509 5.247599 1.342386
v -2.286987 3.639154 1.354193
v -1.987946 3.206146 1.349248
v 2.491501 3.639154 1.354195
v 2.695007 5.247599 1.342384
v -0.443771 7.872345 -1.359814
v -0.443771 7.872345 1.359710
v 2.192444 3.206148 1.349247
v 2.192444 3.206148 -1.349344
v 1.599487 2.759226 1.366678
v 1.599487 2.759224 -1.366790
v 0.266846 2.732706 1.245768
v 0.266846 2.732706 -1.245857
v -0.062332 2.732710 1.245765
v -0.062332 2.732710 -1.245854
v -1.394989 2.759226 1.366678
v -1.394989 2.759224 -1.366790
v -1.188080 16.477114 -1.117756
v 1.392578 16.477114 -1.117757
v -1.188080 16.477114 1.117667
v 1.392578 16.477114 1.117668
vt 0.094940 0.306847
vt 0.094940 0.306847
vt 0.094940 0.306847
vt 0.094940 0.306847
vt 0.094940 0.306847
vt 0.094940 0.306847
vt 0.094940 0.306847
vt 0.094940 0.306847
vt 0.094940 0.306847
vt 0.094940 0.306847
vt 0.094940 0.306847
vt 0.094940 0.306847
vt 0.094940 0.306847
vt 0.094940 0.306847
vt 0.094940 0.306847
vt 0.094940 0.306847
vt 0.094940 0.306847
vt 0.094940 0.306847
vt 0.094940 0.306847
vt 0.094940 0.306847
vt 0.094940 0.306847
vt 0.094940 0.306847
vt 0.094940 0.306847
vt 0.094940 0.306847
vt 0.094940 0.306847
vt 0.094940 0.306847
vt 0.094940 0.306847
vt 0.094940 0.306847
vt 0.094940 0.306845
vt 0.094940 0.306845
vt 0.094940 0.306845
vt 0.094940 0.306845
vt 0.094940 0.306845
vt 0.094940 0.306845
vt 0.094940 0.306845
vt 0.094940 0.306845
vt 0.094940 0.306845
vt 0.094940 0.306845
vt 0.094940 0.306847
vt 0.094940 0.306847
vt 0.094940 0.306847
vt 0.094940 0.306847
vt 0.094940 0.306847
vt 0.094940 0.306847
vt 0.094940 0.306847
vt 0.094940 0.306847
vt 0.094940 0.306847
vt 0.094940 0.306847
vt 0.094940 0.306847
vt 0.094940 0.306847
vt 0.094940 0.306847
vt 0.094940 0.306847
vt 0.094940 0.306847
vt 0.094940 0.306847
vt 0.094940 0.306847
vt 0.094940 0.306847
vt 0.094940 0.306847
vt 0.094940 0.306847
vt 0.094940 0.306847
vt 0.094940 0.306847
vt 0.094940 0.306847
vt 0.094940 0.306847
vt 0.094940 0.306847
vt 0.094940 0.306847
vt 0.094940 0.306847
vt 0.094940 0.306847
vt 0.094940 0.306847
vt 0.094940 0.306847
vt 0.094940 0.306847
vt 0.094940 0.306847
vn 0.512870 0.858466 0.000000
vn 0.512870 0.858466 0.000000
vn 0.512870 0.858466 0.000000
vn 0.512870 0.858466 0.000000
vn -0.512870 0.858467 0.000000
vn -0.512870 0.858467 0.000000
vn -0.512870 0.858467 0.000000
vn -0.512870 0.858467 0.000000
vn -1.000000 0.000000 0.000000
vn -0.982200 -0.187838 0.000000
vn -0.982200 -0.187838 0.000000
vn -1.000000 0.000000 0.000000
vn 0.396588 -0.917997 0.000270
vn 0.396588 -0.917997 0.000270
vn 0.396588 -0.917997 0.000270
vn 0.396588 -0.917997 0.000270
vn 1.000000 0.000000 0.000000
vn 0.982199 0.187843 0.000000
vn 0.982199 0.187843 0.000000
vn 1.000000 0.000000 0.000000
vn -0.000000 0.039620 -0.999215
vn -0.000000 0.039620 -0.999215
vn -0.000000 0.039620 -0.999215
vn -0.000000 0.039620 -0.999215
vn -0.999858 0.016827 0.000000
vn -0.999858 0.016827 0.000000
vn -0.999858 0.016827 0.000000
vn -0.999858 0.016827 0.000000
vn -0.000000 0.039620 0.999215
vn -0.000000 0.039620 0.999215
vn -0.000000 0.039620 0.999215
vn -0.000000 0.039620 0.999215
vn 0.999858 0.016827 0.000000
vn 0.999858 0.016827 0.000000
vn 0.999858 0.016827 0.000000
vn 0.999858 0.016827 0.000000
vn 0.419349 -0.907825 0.000324
vn 0.419349 -0.907825 0.000324
vn 0.419349 -0.907825 0.000324
vn 0.419349 -0.907825 0.000324
vn -0.419347 -0.907826 0.000324
vn -0.419347 -0.907826 0.000324
vn -0.419347 -0.907826 0.000324
vn -0.419347 -0.907826 0.000324
vn -0.396586 -0.917997 0.000271
vn -0.396586 -0.917997 0.000271
vn -0.396586 -0.917997 0.000271
vn -0.396586 -0.917997 0.000271
vn 0.035420 -0.040265 -0.998561
vn 0.035420 -0.040265 -0.998561
vn 0.035420 -0.040265 -0.998561
vn 0.035420 -0.040265 -0.998561
vn 0.903467 0.428658 -0.000736
vn 0.903467 0.428658 -0.000736
vn 0.903467 0.428658 -0.000736
vn 0.903467 0.428658 -0.000736
vn 0.028446 -0.032751 0.999059
vn 0.028446 -0.032751 0.999059
vn 0.028446 -0.032751 0.999059
vn 0.028446 -0.032751 0.999059
vn -0.902847 -0.429958 -0.001799
vn -0.902847 -0.429958 -0.001799
vn -0.902847 -0.429958 -0.001799
vn -0.902847 -0.429958 -0.001799
vn -0.034483 -0.040726 -0.998575
vn -0.034483 -0.040726 -0.998575
vn -0.034483 -0.040726 -0.998575
vn -0.034483 -0.040726 -0.998575
vn 0.902923 -0.429800 -0.001829
vn 0.902922 -0.429800 -0.001829
vn 0.902923 -0.429800 -0.001829
vn 0.902923 -0.429800 -0.001829
vn -0.027536 -0.033198 0.999069
vn -0.027536 -0.033198 0.999069
vn -0.027536 -0.033198 0.999069
vn -0.027536 -0.033198 0.999069
vn -0.903503 0.428580 -0.000730
vn -0.903503 0.428580 -0.000730
vn -0.903503 0.428580 -0.000730
vn -0.903503 0.428580 -0.000730
vn -0.982200 0.187838 0.000000
vn -1.000000 0.000000 0.000000
vn -1.000000 0.000000 0.000000
vn -0.982200 0.187838 0.000000
vn 0.982199 -0.187843 0.000000
vn 1.000000 0.000000 0.000000
vn 1.000000 0.000000 0.000000
vn 0.982199 -0.187843 0.000000
vn 0.094081 -0.118087 -0.988536
vn 0.094081 -0.118087 -0.988536
vn 0.094081 -0.118087 -0.988536
vn 0.974270 0.225384 0.000036
vn 0.974270 0.225384 0.000036
vn 0.974270 0.225384 0.000036
vn 0.047122 -0.050820 0.997596
vn 0.047122 -0.050820 0.997596
vn 0.047122 -0.050820 0.997596
vn -0.926405 -0.376504 -0.004456
vn -0.926404 -0.376504 -0.004456
vn -0.926404 -0.376504 -0.004456
vn -0.092630 -0.118550 -0.988618
vn -0.092630 -0.118550 -0.988618
vn -0.092630 -0.118550 -0.988618
vn 0.915324 -0.402696 -0.004197
vn 0.915324 -0.402696 -0.004197
vn 0.915324 -0.402696 -0.004197
vn -0.045201 -0.051261 0.997662
vn -0.045201 -0.051261 0.997662
vn -0.045201 -0.051261 0.997662
vn -0.968113 0.250516 -0.000086
vn -0.968113 0.250516 -0.000086
vn -0.968113 0.250516 -0.000086
vn 0.021266 0.006395 -0.999753
vn 0.028690 0.003688 -0.999582
vn 0.028608 0.003718 -0.999584
vn 0.021266 0.006395 -0.999753
vn -0.031932 -0.003134 -0.999485
vn -0.028690 0.003688 -0.999582
vn -0.028608 0.003718 -0.999584
vn -0.031869 -0.003178 -0.999487
vn -0.053756 0.067520 -0.996269
vn -0.053756 0.067520 -0.996269
vn -0.053756 0.067520 -0.996269
vn -0.053756 0.067520 -0.996269
vn 0.031932 -0.003134 -0.999485
vn 0.026722 -0.006704 -0.999620
vn 0.026722 -0.006704 -0.999620
vn 0.031869 -0.003177 -0.999487
vn 0.028689 0.003684 0.999582
vn 0.021262 0.006394 0.999754
vn 0.021262 0.006394 0.999753
vn 0.028607 0.003714 0.999584
vn -0.028689 0.003684 0.999582
vn -0.031934 -0.003134 0.999485
vn -0.031871 -0.003177 0.999487
vn -0.028607 0.003714 0.999584
vn -0.053824 0.067748 0.996250
vn -0.053824 0.067748 0.996250
vn -0.053824 0.067748 0.996249
vn -0.053824 0.067748 0.996250
vn 0.026724 -0.006698 0.999620
vn 0.031934 -0.003134 0.999485
vn 0.031871 -0.003177 0.999487
vn 0.026724 -0.006698 0.999620
vn -0.028690 0.003688 -0.999582
vn -0.021266 0.006395 -0.999753
vn -0.021266 0.006395 -0.999753
vn -0.028608 0.003718 -0.999584
vn -0.021262 0.006393 0.999754
vn -0.028689 0.003684 0.999582
vn -0.028607 0.003714 0.999584
vn -0.021262 0.006393 0.999753
vn 0.000000 -0.017726 -0.999843
vn 0.000000 -0.017726 -0.999843
vn 0.000000 -0.017726 -0.999843
vn 0.000000 -0.017726 -0.999843
vn 0.000000 -0.017735 0.999843
vn 0.000000 -0.017735 0.999843
vn 0.000000 -0.017735 0.999843
vn 0.000000 -0.017735 0.999843
vn 0.053823 0.067746 0.996250
vn 0.053823 0.067746 0.996250
vn 0.053823 0.067746 0.996250
vn 0.053823 0.067746 0.996250
vn 0.053755 0.067518 -0.996269
vn 0.053755 0.067518 -0.996269
vn 0.053755 0.067518 -0.996269
vn 0.053755 0.067518 -0.996269
vn -0.016755 0.041260 0.999008
vn -0.016755 0.041260 0.999008
vn -0.016755 0.041260 0.999008
vn -0.016755 0.041260 0.999008
vn -0.016628 0.041150 -0.999015
vn -0.016628 0.041150 -0.999015
vn -0.016628 0.041150 -0.999015
vn -0.016628 0.041150 -0.999015
vn -0.117262 -0.012714 0.993020
vn -0.117262 -0.012714 0.993020
vn -0.117262 -0.012714 0.993020
vn -0.117262 -0.012714 0.993020
vn -0.117122 -0.012773 -0.993035
vn -0.117122 -0.012773 -0.993035
vn -0.117122 -0.012773 -0.993035
vn -0.117122 -0.012773 -0.993035
vn -0.954925 -0.296849 0.000000
vn -0.954925 -0.296849 0.000000
vn -0.954925 -0.296849 0.000000
vn -0.954925 -0.296849 0.000000
vn 0.954922 -0.296855 0.000000
vn 0.954922 -0.296855 0.000000
vn 0.954922 -0.296855 0.000000
vn 0.954922 -0.296855 0.000000
vn 0.117262 -0.012713 0.993020
vn 0.117262 -0.012713 0.993020
vn 0.117262 -0.012713 0.993020
vn 0.117262 -0.012713 0.993020
vn 0.117122 -0.012772 -0.993035
vn 0.117122 -0.012772 -0.993035
vn 0.117122 -0.012772 -0.993035
vn 0.117122 -0.012772 -0.993035
vn 0.016755 0.041260 0.999008
vn 0.016755 0.041260 0.999008
vn 0.016755 0.041260 0.999008
vn 0.016755 0.041260 0.999008
vn 0.016628 0.041149 -0.999015
vn 0.016628 0.041149 -0.999015
vn 0.016628 0.041149 -0.999015
vn 0.016628 0.041149 -0.999015
vn -0.031934 -0.003134 0.999485
vn -0.026724 -0.006698 0.999620
vn -0.026724 -0.006698 0.999620
vn -0.031871 -0.003177 0.999487
vn -0.026722 -0.006705 -0.999620
vn -0.031932 -0.003134 -0.999485
vn -0.031869 -0.003178 -0.999487
vn -0.026722 -0.006705 -0.999620
vn 0.031934 -0.003134 0.999485
vn 0.028689 0.003684 0.999582
vn 0.028607 0.003714 0.999584
vn 0.031871 -0.003177 0.999487
vn 0.028690 0.003688 -0.999582
vn 0.031932 -0.003134 -0.999485
vn 0.031869 -0.003177 -0.999487
vn 0.028608 0.003718 -0.999584
vn -0.019895 0.999802 -0.000000
vn -0.019895 0.999802 -0.000000
vn -0.019895 0.999802 -0.000000
vn -0.019895 0.999802 -0.000000
vn -0.601900 0.798572 -0.000000
vn -0.601900 0.798572 -0.000000
vn -0.601900 0.798572 -0.000000
vn -0.601900 0.798572 -0.000000
vn -0.996370 -0.085125 0.000000
vn -0.996370 -0.085125 0.000000
vn -0.996370 -0.085125 0.000000
vn -0.996370 -0.085125 0.000000
vn -0.992091 0.125523 0.000000
vn -0.992091 0.125523 0.000000
vn -0.992091 0.125523 0.000000
vn -0.992091 0.125523 0.000000
vn -0.822829 0.568289 0.000000
vn -0.822829 0.568289 0.000000
vn -0.822829 0.568289 0.000000
vn -0.822829 0.568289 0.000000
vn -0.000002 -1.000000 0.000000
vn -0.000002 -1.000000 0.000000
vn -0.000002 -1.000000 0.000000
vn -0.000002 -1.000000 0.000000
vn -0.485914 -0.874007 0.000000
vn -0.485914 -0.874007 0.000000
vn -0.485914 -0.874007 0.000000
vn -0.485914 -0.874007 0.000000
vn 0.996369 -0.085134 0.000000
vn 0.996370 -0.085134 0.000000
vn 0.996370 -0.085134 0.000000
vn 0.996369 -0.085134 0.000000
vn 0.485918 -0.874004 0.000000
vn 0.485918 -0.874004 0.000000
vn 0.485918 -0.874004 0.000000
vn 0.485918 -0.874004 0.000000
vn 0.019892 0.999802 -0.000000
vn 0.019892 0.999802 -0.000000
vn 0.019892 0.999802 -0.000000
vn 0.019892 0.999802 -0.000000
vn 0.601897 0.798574 -0.000001
vn 0.601897 0.798574 -0.000001
vn 0.601897 0.798574 -0.000001
vn 0.601897 0.798574 -0.000001
vn 0.822844 0.568267 -0.000000
vn 0.822844 0.568267 -0.000000
vn 0.822844 0.568267 -0.000000
vn 0.822844 0.568267 -0.000000
vn 0.992090 0.125532 0.000000
vn 0.992090 0.125532 0.000000
vn 0.992090 0.125532 0.000000
vn 0.992090 0.125532 0.000000
vn 0.000000 1.000000 0.000000
vn 0.000000 1.000000 0.000000
vn 0.000000 1.000000 0.000000
vn 0.000000 1.000000 0.000000
s off
f 1/1/1 10/2/2 11/3/3 5/4/4
f 12/5/5 9/6/6 2/7/7 6/8/8
f 34/9/9 3/10/10 7/11/11 33/12/12
f 14/13/13 4/14/14 8/15/15 13/16/16
f 36/17/17 1/1/18 5/4/19 35/18/20
f 10/2/21 9/6/22 67/67/23 68/68/24
f 9/6/25 12/5/26 69/69/27 67/67/28
f 12/5/29 11/3/30 70/70/31 69/69/32
f 11/3/33 10/2/34 68/68/35 70/70/36
f 18/19/37 16/20/38 15/21/39 17/22/40
f 22/23/41 20/24/42 19/25/43 21/26/44
f 3/10/45 24/27/46 23/28/47 7/11/48
f 16/20/49 14/13/50 26/29/51 25/30/52
f 14/13/53 13/16/54 27/31/55 26/29/56
f 13/16/57 15/21/58 28/32/59 27/31/60
f 15/21/61 16/20/62 25/30/63 28/32/64
f 24/27/65 22/23/66 30/33/67 29/34/68
f 22/23/69 21/26/70 31/35/71 30/33/72
f 21/26/73 23/28/74 32/36/75 31/35/76
f 23/28/77 24/27/78 29/34/79 32/36/80
f 2/7/81 34/9/82 33/12/83 6/8/84
f 4/14/85 36/17/86 35/18/87 8/15/88
f 25/30/89 26/29/90 37/37/91
f 26/29/92 27/31/93 37/37/94
f 27/31/95 28/32/96 37/37/97
f 28/32/98 25/30/99 37/37/100
f 29/34/101 30/33/102 38/38/103
f 30/33/104 31/35/105 38/38/106
f 31/35/107 32/36/108 38/38/109
f 32/36/110 29/34/111 38/38/112
f 10/2/113 1/1/114 39/39/115 40/40/116
f 34/9/117 2/7/118 41/41/119 42/42/120
f 24/27/121 3/10/122 43/43/123 44/44/124
f 36/17/125 4/14/126 45/45/127 46/46/128
f 5/4/129 11/3/130 48/47/131 47/48/132
f 6/8/133 33/12/134 50/49/135 49/50/136
f 7/11/137 23/28/138 52/51/139 51/52/140
f 8/15/141 35/18/142 54/53/143 53/54/144
f 2/7/145 9/6/146 55/55/147 41/41/148
f 12/5/149 6/8/150 49/50/151 56/56/152
f 9/6/153 10/2/154 40/40/155 55/55/156
f 11/3/157 12/5/158 56/56/159 48/47/160
f 13/16/161 8/15/162 53/54/163 57/57/164
f 4/14/165 14/13/166 58/58/167 45/45/168
f 15/21/169 13/16/170 57/57/171 59/59/172
f 14/13/173 16/20/174 60/60/175 58/58/176
f 17/22/177 15/21/178 59/59/179 61/61/180
f 16/20/181 18/19/182 62/62/183 60/60/184
f 18/19/185 17/22/186 61/61/187 62/62/188
f 19/25/189 20/24/190 64/63/191 63/64/192
f 21/26/193 19/25/194 63/64/195 65/65/196
f 20/24/197 22/23/198 66/66/199 64/63/200
f 23/28/201 21/26/202 65/65/203 52/51/204
f 22/23/205 24/27/206 44/44/207 66/66/208
f 33/12/209 7/11/210 51/52/211 50/49/212
f 3/10/213 34/9/214 42/42/215 43/43/216
f 35/18/217 5/4/218 47/48/219 54/53/220
f 1/1/221 36/17/222 46/46/223 39/39/224
f 61/61/225 59/59/226 60/60/227 62/62/228
f 59/59/229 57/57/230 58/58/231 60/60/232
f 39/39/233 46/46/234 54/53/235 47/48/236
f 46/46/237 45/45/238 53/54/239 54/53/240
f 57/57/241 53/54/242 45/45/243 58/58/244
f 55/55/245 40/40/246 48/47/247 56/56/248
f 40/40/249 39/39/250 47/48/251 48/47/252
f 42/42/253 41/41/254 49/50/255 50/49/256
f 41/41/257 55/55/258 56/56/259 49/50/260
f 65/65/261 63/64/262 64/63/263 66/66/264
f 66/66/265 44/44/266 52/51/267 65/65/268
f 44/44/269 43/43/270 51/52/271 52/51/272
f 43/43/273 42/42/274 50/49/275 51/52/276
f 68/68/277 67/67/278 69/69/279 70/70/280
