# This file uses centimeters as units for non-parametric coordinates.

v 23.664167 33.652008 -20.865017
v 9.478132 44.844471 -26.247158
v 9.267439 38.572884 -29.176723
v 11.939558 29.338030 -21.277370
v 6.162519 35.899120 -21.212551
v 15.847578 46.223114 -24.773220
v 18.826765 37.640610 -13.024989
v 16.552839 31.223217 -28.149136
v 13.302595 44.017849 -16.180996
v 24.811079 41.116219 -19.841763
v 22.505903 37.332691 -29.095669
v 15.339949 29.560345 8.164891
v 29.929792 40.963287 11.971410
v 20.364851 21.660725 15.338536
v 18.169233 32.734535 27.160618
v 8.691999 44.179176 19.936008
v 12.228987 24.203007 20.645115
v 20.333052 53.219494 9.490087
v 18.084578 58.303905 18.464512
v 30.089827 54.349598 17.194736
v 12.150801 38.607918 7.195165
v 26.903059 30.761223 22.976170
v 26.386091 39.839256 25.685825
v 23.499189 56.011860 22.224277
v 17.189253 44.838993 5.359776
v 14.727827 44.608429 25.358494
v 23.476423 42.438255 7.154881
v -2.200396 33.044968 21.743076
v -10.263140 32.257061 18.740879
v -12.250750 47.795189 29.114841
v -12.123980 35.403774 26.250217
v -7.170671 49.198883 18.041904
v 0.926802 44.843094 23.933018
v -4.525408 43.981785 29.603855
v 0.988630 38.144478 24.911228
v -14.313311 39.707191 16.710728
v -7.453081 30.401430 22.319675
v -4.903276 42.780430 15.191503
v -18.202349 39.135414 21.906162
v 36.391647 20.386219 -11.159083
v -6.842119 35.354534 -23.329617
v 29.766829 31.807224 24.550449
v -19.548540 22.976170 4.552342
v 5.504255 52.924629 -4.148829
v 24.254622 42.242733 -10.633204
v 8.722761 14.704422 33.531101
v 3.978559 29.432659 27.785618
v 16.303389 11.507891 -24.761684
v 36.016464 17.538662 26.417271
v -4.542009 8.999999 -4.164882
v -13.684771 43.067482 1.723973
v 32.270920 9.023067 -11.701564
v -9.597612 9.249764 22.004429
v 20.659956 8.819873 28.307896
v 20.098188 45.224205 17.393284
v 25.354841 39.205040 9.033971
v -12.548845 24.008610 20.981968
v 16.186995 44.922760 -19.667751
v 26.403242 36.048698 -26.142788
v 8.438093 27.870899 31.268894
v 10.370100 25.675993 -30.639736
v 0.262922 34.165703 30.839085
v 24.983625 9.674737 -20.746243
v -10.415422 22.606112 19.366245
v 8.145796 37.506126 -23.065701
v 37.081711 19.617050 17.389988
vt 0.054029 0.063060
vt 0.053898 0.063899
vt 0.053786 0.054822
vt 0.053891 0.057535
vt 0.053982 0.048165
vt 0.054381 0.052542
vt 0.054139 0.050078
vt 0.054342 0.056277
vt 0.054115 0.065297
vt 0.054217 0.056589
vt 0.054420 0.060116
vt 0.054098 0.048391
vt 0.054595 0.059960
vt 0.054269 0.040375
vt 0.054194 0.051611
vt 0.053872 0.063223
vt 0.053992 0.042955
vt 0.054268 0.072396
vt 0.054191 0.077555
vt 0.054600 0.073543
vt 0.053989 0.057571
vt 0.054492 0.049609
vt 0.054474 0.058820
vt 0.054376 0.075229
vt 0.054161 0.063893
vt 0.054077 0.063659
vt 0.054375 0.061457
vt 0.053159 0.066892
vt 0.052956 0.058106
vt 0.053163 0.054320
vt 0.053607 0.063897
vt 0.053422 0.063023
vt 0.053609 0.057100
vt 0.053226 0.051127
vt 0.053322 0.049244
vt 0.053089 0.058686
vt 0.053332 0.068317
vt 0.053409 0.061804
vt 0.053501 0.051926
vt 0.068942 0.124138
vt 0.068942 0.124138
vt 0.068942 0.124138
vt 0.068942 0.124138
vt 0.068942 0.124138
vt 0.068942 0.124138
vt 0.068942 0.124138
vt 0.068942 0.124138
vt 0.068942 0.124138
vt 0.068942 0.124138
vt 0.068942 0.124138
vt 0.068942 0.124138
vt 0.068942 0.124138
vt 0.068942 0.124138
vt 0.068942 0.124138
vt 0.068942 0.124138
vt 0.068942 0.124138
vt 0.068942 0.124138
vt 0.068942 0.124138
vt 0.068942 0.124138
vt 0.068942 0.124138
vt 0.068942 0.124138
vt 0.068942 0.124138
vt 0.068942 0.124138
vt 0.068942 0.124138
vt 0.068942 0.124138
vt 0.068942 0.124138
vn -0.800473 0.490534 0.344412
vn -0.800473 0.490534 0.344412
vn -0.800473 0.490534 0.344412
vn -0.669621 -0.585079 -0.457483
vn -0.669621 -0.585079 -0.457483
vn -0.669621 -0.585079 -0.457483
vn 0.345975 -0.937910 -0.025038
vn 0.345975 -0.937910 -0.025038
vn 0.345975 -0.937910 -0.025038
vn -0.007603 -0.145853 -0.989277
vn -0.007603 -0.145853 -0.989277
vn -0.007603 -0.145853 -0.989277
vn 0.094006 0.491374 -0.865861
vn 0.094006 0.491374 -0.865861
vn 0.094006 0.491374 -0.865861
vn -0.935820 0.174494 -0.306256
vn -0.935820 0.174494 -0.306256
vn -0.935820 0.174494 -0.306256
vn 0.267864 -0.781823 0.563029
vn 0.267864 -0.781823 0.563029
vn 0.267864 -0.781823 0.563029
vn -0.555947 -0.627329 -0.545327
vn -0.555947 -0.627329 -0.545327
vn -0.555947 -0.627329 -0.545327
vn -0.246230 0.953849 0.171881
vn -0.246230 0.953849 0.171881
vn -0.246230 0.953849 0.171881
vn 0.784693 -0.200957 0.586407
vn 0.784693 -0.200957 0.586407
vn 0.784693 -0.200957 0.586407
vn 0.973599 -0.123251 -0.192133
vn 0.973599 -0.123251 -0.192133
vn 0.973599 -0.123251 -0.192133
vn 0.628780 -0.673020 -0.389461
vn 0.628780 -0.673020 -0.389461
vn 0.628780 -0.673020 -0.389461
vn -0.455234 -0.408644 0.791058
vn -0.455234 -0.408644 0.791058
vn -0.455234 -0.408644 0.791058
vn 0.613193 0.665865 -0.424992
vn 0.613193 0.665865 -0.424992
vn 0.613193 0.665865 -0.424992
vn 0.327034 0.887498 0.324649
vn 0.327034 0.887498 0.324649
vn 0.327034 0.887498 0.324649
vn 0.374215 0.650993 0.660433
vn 0.374215 0.650993 0.660433
vn 0.374215 0.650993 0.660433
vn -0.537513 -0.049002 0.841830
vn -0.537513 -0.049002 0.841830
vn -0.537513 -0.049002 0.841830
vn 0.045039 0.421552 -0.905685
vn 0.045039 0.421552 -0.905685
vn 0.045039 0.421552 -0.905685
vn 0.502285 -0.384042 -0.774740
vn 0.502285 -0.384042 -0.774740
vn 0.502285 -0.384042 -0.774740
vn -0.672182 -0.092943 0.734529
vn -0.672182 -0.092943 0.734529
vn -0.672182 -0.092943 0.734529
vn 0.240569 0.869132 -0.432130
vn 0.240569 0.869132 -0.432130
vn 0.240569 0.869132 -0.432130
vn -0.966596 -0.177701 -0.184699
vn -0.966596 -0.177701 -0.184699
vn -0.966596 -0.177701 -0.184699
vn 0.866005 -0.462350 -0.190442
vn 0.866005 -0.462350 -0.190442
vn 0.866005 -0.462350 -0.190442
vn 0.626265 0.268455 0.731931
vn 0.626265 0.268455 0.731931
vn 0.626265 0.268455 0.731931
vn -0.772180 0.468792 -0.428920
vn -0.772180 0.468792 -0.428920
vn -0.772180 0.468792 -0.428920
vn -0.607882 0.470834 0.639371
vn -0.607882 0.470834 0.639371
vn -0.607882 0.470834 0.639371
vn -0.517740 -0.731795 -0.443194
vn -0.517740 -0.731795 -0.443194
vn -0.517740 -0.731795 -0.443194
vn 0.212697 -0.713282 0.667823
vn 0.212697 -0.713282 0.667823
vn 0.212697 -0.713282 0.667823
vn 0.497624 -0.375725 -0.781794
vn 0.497624 -0.375725 -0.781794
vn 0.497624 -0.375725 -0.781794
vn -0.761767 0.491715 -0.421813
vn -0.761767 0.491715 -0.421813
vn -0.761768 0.491715 -0.421813
vn 0.188769 -0.675667 0.712629
vn 0.188769 -0.675667 0.712629
vn 0.188769 -0.675667 0.712629
vn 0.062471 0.219541 0.973601
vn 0.062471 0.219541 0.973601
vn 0.062471 0.219541 0.973601
vn 0.614474 0.280397 -0.737428
vn 0.614474 0.280397 -0.737428
vn 0.614474 0.280397 -0.737428
vn 0.978118 -0.085674 0.189594
vn 0.978118 -0.085674 0.189594
vn 0.978118 -0.085674 0.189594
vn -0.663076 -0.079203 0.744350
vn -0.663076 -0.079203 0.744351
vn -0.663076 -0.079203 0.744351
vn 0.038053 0.160719 0.986266
vn 0.038053 0.160719 0.986266
vn 0.038053 0.160719 0.986266
vn 0.321449 0.940469 0.110400
vn 0.321449 0.940469 0.110400
vn 0.321449 0.940469 0.110400
vn -0.348833 0.488193 0.799989
vn -0.348833 0.488193 0.799989
vn -0.348833 0.488193 0.799989
vn -0.865704 -0.344114 -0.363514
vn -0.865704 -0.344114 -0.363514
vn -0.865704 -0.344114 -0.363514
vn -0.157272 -0.159888 -0.974526
vn -0.157272 -0.159888 -0.974526
vn -0.157272 -0.159888 -0.974526
vn 0.941900 -0.045689 0.332772
vn 0.941900 -0.045689 0.332772
vn 0.941900 -0.045689 0.332772
vn 0.373098 -0.245793 0.894642
vn 0.373098 -0.245793 0.894642
vn 0.373098 -0.245793 0.894642
vn 0.561686 0.328262 -0.759443
vn 0.561686 0.328262 -0.759443
vn 0.561686 0.328262 -0.759443
vn -0.727136 0.503020 -0.467166
vn -0.727136 0.503020 -0.467166
vn -0.727136 0.503020 -0.467166
vn 0.197587 -0.200106 -0.959644
vn 0.197587 -0.200106 -0.959644
vn 0.197587 -0.200106 -0.959644
vn 0.365455 0.297590 -0.881977
vn 0.365455 0.297590 -0.881977
vn 0.365455 0.297590 -0.881977
vn -0.642391 -0.178849 0.745216
vn -0.642391 -0.178849 0.745216
vn -0.642391 -0.178849 0.745216
vn 0.708343 0.108388 0.697497
vn 0.708343 0.108388 0.697497
vn 0.708343 0.108388 0.697497
vn -0.629951 -0.770807 0.094965
vn -0.629951 -0.770807 0.094965
vn -0.629951 -0.770807 0.094965
vn -0.251268 0.317323 -0.914424
vn -0.251268 0.317323 -0.914424
vn -0.251268 0.317323 -0.914424
vn 0.190670 -0.499328 0.845173
vn 0.190670 -0.499328 0.845173
vn 0.190670 -0.499328 0.845173
vn 0.837515 -0.071380 -0.541732
vn 0.837515 -0.071380 -0.541732
vn 0.837515 -0.071380 -0.541732
vn 0.227861 0.906010 0.356686
vn 0.227861 0.906010 0.356686
vn 0.227861 0.906010 0.356686
vn 0.669838 0.485941 -0.561408
vn 0.669838 0.485941 -0.561408
vn 0.669838 0.485941 -0.561408
vn 0.810141 -0.155466 -0.565244
vn 0.810141 -0.155466 -0.565245
vn 0.810141 -0.155466 -0.565244
vn 0.189474 -0.491135 0.850227
vn 0.189474 -0.491135 0.850227
vn 0.189474 -0.491135 0.850227
vn -0.171100 -0.223578 0.959551
vn -0.171100 -0.223578 0.959551
vn -0.171100 -0.223578 0.959551
vn -0.620109 -0.752724 0.221068
vn -0.620109 -0.752724 0.221068
vn -0.620110 -0.752724 0.221068
vn -0.683115 0.576863 -0.447865
vn -0.683115 0.576863 -0.447865
vn -0.683115 0.576863 -0.447865
vn -0.698713 0.675739 -0.234896
vn -0.698713 0.675739 -0.234896
vn -0.698713 0.675739 -0.234896
vn 0.398450 -0.650734 0.646361
vn 0.398450 -0.650734 0.646361
vn 0.398450 -0.650734 0.646361
vn 0.299991 -0.730016 -0.614071
vn 0.299991 -0.730016 -0.614071
vn 0.299991 -0.730016 -0.614071
vn -0.058736 -0.292053 -0.954597
vn -0.058736 -0.292053 -0.954597
vn -0.058736 -0.292053 -0.954597
vn -0.661030 -0.509472 -0.550889
vn -0.661030 -0.509472 -0.550889
vn -0.661030 -0.509472 -0.550889
vn 0.349504 -0.454377 -0.819383
vn 0.349504 -0.454377 -0.819383
vn 0.349504 -0.454377 -0.819383
vn 0.407576 0.863703 0.296478
vn 0.407576 0.863703 0.296478
vn 0.407576 0.863703 0.296478
vn -0.920567 0.223587 -0.320259
vn -0.920567 0.223587 -0.320259
vn -0.920567 0.223587 -0.320259
vn 0.852151 0.522854 -0.021517
vn 0.852151 0.522854 -0.021517
vn 0.852151 0.522854 -0.021517
vn -0.102288 -0.969758 -0.221602
vn -0.102288 -0.969758 -0.221602
vn -0.102288 -0.969758 -0.221602
vn 0.501877 -0.853317 0.141314
vn 0.501877 -0.853317 0.141314
vn 0.501877 -0.853317 0.141314
vn 0.489639 0.871693 -0.020116
vn 0.489639 0.871693 -0.020116
vn 0.489639 0.871693 -0.020116
vn -0.189417 0.876900 0.441779
vn -0.189417 0.876900 0.441779
vn -0.189417 0.876900 0.441779
vn 0.374895 -0.205170 -0.904079
vn 0.374895 -0.205170 -0.904079
vn 0.374895 -0.205170 -0.904079
vn -0.236724 0.787519 -0.569012
vn -0.236724 0.787519 -0.569012
vn -0.236724 0.787519 -0.569012
vn -0.000439 -0.999986 -0.005206
vn -0.000439 -0.999986 -0.005206
vn -0.000439 -0.999986 -0.005206
vn -0.740855 0.455041 0.494036
vn -0.740855 0.455041 0.494036
vn -0.740855 0.455041 0.494036
vn -0.554911 0.129203 0.821815
vn -0.554911 0.129203 0.821815
vn -0.554911 0.129203 0.821815
vn 0.232035 0.169583 0.957811
vn 0.232035 0.169583 0.957811
vn 0.232035 0.169583 0.957811
vn -0.570286 -0.515091 -0.639887
vn -0.570286 -0.515091 -0.639887
vn -0.570286 -0.515091 -0.639887
vn -0.061191 0.529996 -0.845790
vn -0.061191 0.529996 -0.845790
vn -0.061191 0.529996 -0.845790
vn 0.252669 0.233514 0.938951
vn 0.252669 0.233514 0.938951
vn 0.252669 0.233514 0.938951
vn 0.855698 0.517432 -0.006742
vn 0.855698 0.517432 -0.006742
vn 0.855698 0.517432 -0.006742
vn -0.722541 -0.446729 -0.527605
vn -0.722541 -0.446729 -0.527605
vn -0.722541 -0.446729 -0.527605
vn -0.715487 -0.686105 -0.131674
vn -0.715487 -0.686105 -0.131674
vn -0.715487 -0.686105 -0.131674
vn -0.511912 0.771702 -0.377389
vn -0.511912 0.771702 -0.377389
vn -0.511912 0.771702 -0.377389
vn -0.313506 0.855650 0.411797
vn -0.313506 0.855650 0.411797
vn -0.313506 0.855650 0.411797
vn 0.940104 -0.339394 -0.031867
vn 0.940104 -0.339394 -0.031867
vn 0.940104 -0.339394 -0.031867
vn 0.724685 -0.175364 -0.666393
vn 0.724685 -0.175364 -0.666393
vn 0.724685 -0.175364 -0.666393
vn -0.015567 -0.999858 0.006535
vn -0.015567 -0.999857 0.006535
vn -0.015567 -0.999858 0.006535
vn -0.555224 0.128316 0.821743
vn -0.555224 0.128316 0.821743
vn -0.555224 0.128316 0.821743
vn 0.269099 -0.273732 0.923394
vn 0.269099 -0.273732 0.923394
vn 0.269099 -0.273732 0.923394
vn -0.134243 -0.796096 0.590093
vn -0.134243 -0.796096 0.590093
vn -0.134243 -0.796096 0.590093
vn 0.861330 0.508039 -0.002694
vn 0.861330 0.508039 -0.002694
vn 0.861330 0.508039 -0.002694
vn -0.028016 0.899185 0.436672
vn -0.028016 0.899185 0.436672
vn -0.028016 0.899185 0.436672
vn 0.786308 0.615717 0.051112
vn 0.786308 0.615717 0.051112
vn 0.786308 0.615717 0.051112
vn 0.702578 -0.289323 0.650136
vn 0.702578 -0.289323 0.650136
vn 0.702578 -0.289323 0.650136
vn -0.882182 0.307658 0.356513
vn -0.882182 0.307658 0.356513
vn -0.882182 0.307658 0.356513
vn -0.849510 0.051690 0.525035
vn -0.849510 0.051690 0.525035
vn -0.849510 0.051690 0.525035
vn 0.452230 0.880418 -0.142660
vn 0.452230 0.880418 -0.142660
vn 0.452230 0.880418 -0.142660
vn -0.100907 0.522914 -0.846392
vn -0.100907 0.522914 -0.846392
vn -0.100907 0.522914 -0.846392
vn 0.943516 0.331324 -0.001608
vn 0.943516 0.331324 -0.001608
vn 0.943516 0.331324 -0.001608
vn 0.011909 0.929180 -0.369435
vn 0.011909 0.929180 -0.369435
vn 0.011909 0.929180 -0.369435
vn -0.561639 0.191513 0.804912
vn -0.561639 0.191513 0.804912
vn -0.561639 0.191513 0.804913
vn -0.027737 0.898395 0.438311
vn -0.027737 0.898395 0.438311
vn -0.027737 0.898395 0.438311
vn 0.387635 -0.210046 -0.897563
vn 0.387635 -0.210046 -0.897563
vn 0.387635 -0.210046 -0.897563
vn -0.562413 -0.506634 -0.653463
vn -0.562413 -0.506634 -0.653463
vn -0.562413 -0.506634 -0.653463
vn 0.584021 -0.063595 0.809244
vn 0.584021 -0.063595 0.809244
vn 0.584021 -0.063595 0.809244
vn -0.124976 -0.605281 0.786140
vn -0.124976 -0.605281 0.786140
vn -0.124976 -0.605281 0.786140
vn 0.747105 -0.241358 -0.619339
vn 0.747105 -0.241358 -0.619339
vn 0.747105 -0.241358 -0.619339
vn -0.012100 -0.997993 -0.062157
vn -0.012100 -0.997993 -0.062157
vn -0.012100 -0.997993 -0.062157
vn -0.407544 -0.883960 0.229179
vn -0.407544 -0.883960 0.229179
vn -0.407544 -0.883960 0.229179
vn -0.014434 -0.764460 0.644510
vn -0.014434 -0.764460 0.644510
vn -0.014434 -0.764460 0.644510
vn -0.050542 0.460758 -0.886085
vn -0.050542 0.460758 -0.886085
vn -0.050542 0.460758 -0.886085
vn 0.632890 -0.376142 -0.676733
vn 0.632890 -0.376142 -0.676733
vn 0.632890 -0.376142 -0.676733
vn 0.902646 -0.430319 0.007439
vn 0.902646 -0.430319 0.007439
vn 0.902646 -0.430319 0.007439
vn 0.887535 0.414941 0.200264
vn 0.887535 0.414941 0.200264
vn 0.887535 0.414941 0.200264
s off
f 9/1/1 2/2/2 5/3/3
f 5/3/4 3/4/5 4/5/6
f 1/6/7 4/5/8 8/7/9
f 3/4/10 11/8/11 8/7/12
f 6/9/13 11/8/14 2/2/15
f 5/3/16 2/2/17 3/4/18
f 4/5/19 1/6/20 7/10/21
f 3/4/22 8/7/23 4/5/24
f 9/1/25 6/9/26 2/2/27
f 7/10/28 1/6/29 10/11/30
f 11/8/31 10/11/32 1/6/33
f 11/8/34 1/6/35 8/7/36
f 7/10/37 5/3/38 4/5/39
f 10/11/40 11/8/41 6/9/42
f 10/11/43 6/9/44 9/1/45
f 10/11/46 9/1/47 7/10/48
f 9/1/49 5/3/50 7/10/51
f 2/2/52 11/8/53 3/4/54
f 12/12/55 13/13/56 14/14/57
f 15/15/58 16/16/59 17/17/60
f 18/18/61 19/19/62 20/20/63
f 21/21/64 17/17/65 16/16/66
f 13/13/67 22/22/68 14/14/69
f 23/23/70 20/20/71 24/24/72
f 19/19/73 25/25/74 16/16/75
f 16/16/76 26/26/77 19/19/78
f 12/12/79 14/14/80 17/17/81
f 14/14/82 22/22/83 17/17/84
f 12/12/85 27/27/86 13/13/87
f 25/25/88 21/21/89 16/16/90
f 15/15/91 17/17/92 22/22/93
f 23/23/94 24/24/95 26/26/96
f 27/27/97 20/20/98 13/13/99
f 13/13/100 20/20/101 22/22/102
f 26/26/103 16/16/104 15/15/105
f 23/23/106 26/26/107 15/15/108
f 24/24/109 20/20/110 19/19/111
f 26/26/112 24/24/113 19/19/114
f 21/21/115 12/12/116 17/17/117
f 12/12/118 21/21/119 25/25/120
f 23/23/121 22/22/122 20/20/123
f 23/23/124 15/15/125 22/22/126
f 18/18/127 20/20/128 27/27/129
f 18/18/130 25/25/131 19/19/132
f 25/25/133 27/27/134 12/12/135
f 27/27/136 25/25/137 18/18/138
f 30/28/139 39/29/140 31/30/141
f 33/31/142 34/32/143 35/33/144
f 39/29/145 29/34/146 37/35/147
f 36/36/148 32/37/149 38/38/150
f 35/33/151 34/32/152 31/30/153
f 38/38/154 33/31/155 35/33/156
f 32/37/157 34/32/158 33/31/159
f 38/38/160 32/37/161 33/31/162
f 38/38/163 35/33/164 28/39/165
f 31/30/166 37/35/167 35/33/168
f 34/32/169 30/28/170 31/30/171
f 31/30/172 39/29/173 37/35/174
f 32/37/175 36/36/176 39/29/177
f 32/37/178 39/29/179 30/28/180
f 35/33/181 37/35/182 28/39/183
f 29/34/184 28/39/185 37/35/186
f 36/36/187 38/38/188 29/34/189
f 29/34/190 39/29/191 36/36/192
f 29/34/193 38/38/194 28/39/195
f 30/28/196 34/32/197 32/37/198
f 51/40/199 41/41/200 43/42/201
f 59/43/202 56/44/203 40/45/204
f 48/46/205 63/47/206 50/48/207
f 54/49/208 52/50/209 49/51/210
f 45/52/211 44/53/212 55/54/213
f 62/55/214 55/54/215 44/53/216
f 59/43/217 63/47/218 48/46/219
f 58/56/220 41/41/221 44/53/222
f 50/48/223 52/50/224 54/49/225
f 62/55/226 51/40/227 57/57/228
f 64/58/229 46/59/230 60/60/231
f 49/51/232 60/60/233 46/59/234
f 48/46/235 50/48/236 41/41/237
f 61/61/238 41/41/239 65/62/240
f 49/51/241 42/63/242 60/60/243
f 40/45/244 42/63/245 66/64/246
f 41/41/247 50/48/248 43/42/249
f 50/48/250 53/65/251 43/42/252
f 41/41/253 51/40/254 44/53/255
f 51/40/256 62/55/257 44/53/258
f 52/50/259 40/45/260 66/64/261
f 40/45/262 63/47/263 59/43/264
f 53/65/265 50/48/266 54/49/267
f 64/58/268 53/65/269 46/59/270
f 54/49/271 49/51/272 46/59/273
f 53/65/274 54/49/275 46/59/276
f 56/44/277 42/63/278 40/45/279
f 56/44/280 47/66/281 42/63/282
f 55/54/283 56/44/284 45/52/285
f 55/54/286 47/66/287 56/44/288
f 57/57/289 51/40/290 43/42/291
f 53/65/292 64/58/293 43/42/294
f 58/56/295 44/53/296 45/52/297
f 65/62/298 59/43/299 61/61/300
f 59/43/301 45/52/302 56/44/303
f 45/52/304 59/43/305 65/62/306
f 64/58/307 60/60/308 47/66/309
f 47/66/310 60/60/311 42/63/312
f 59/43/313 48/46/314 61/61/315
f 61/61/316 48/46/317 41/41/318
f 62/55/319 47/66/320 55/54/321
f 57/57/322 47/66/323 62/55/324
f 40/45/325 52/50/326 63/47/327
f 63/47/328 52/50/329 50/48/330
f 57/57/331 43/42/332 64/58/333
f 57/57/334 64/58/335 47/66/336
f 65/62/337 41/41/338 58/56/339
f 58/56/340 45/52/341 65/62/342
f 49/51/343 52/50/344 66/64/345
f 42/63/346 49/51/347 66/64/348
