# This file uses centimeters as units for non-parametric coordinates.

v 0.000000 -5.000000 0.000000
v -3.124848 1.809923 1.562582
v -1.562582 1.809923 3.124848
v 3.124848 1.809923 1.562582
v 1.562582 1.809923 3.124848
v -3.124848 1.809923 -1.562582
v -1.562582 1.809923 -3.124848
v 1.562582 1.809923 -3.124848
v 3.124848 1.809923 -1.562582
v -5.000000 0.000000 2.500250
v -5.000000 0.000000 -2.500250
v -2.500250 0.000000 -5.000000
v 2.500250 0.000000 -5.000000
v 5.000000 0.000000 -2.500250
v 5.000000 0.000000 2.500250
v 2.500250 0.000000 5.000000
v -2.500250 0.000000 5.000000
vt 0.425772 0.030550
vt 0.426259 0.030588
vt 0.426111 0.030864
vt 0.426419 0.030329
vt 0.425998 0.030301
vt 0.425736 0.030342
vt 0.425608 0.030463
vt 0.426546 0.030534
vt 0.426608 0.030403
vt 0.426357 0.030322
vt 0.426197 0.030348
vt 0.425929 0.030329
vt 0.425832 0.030286
vt 0.425897 0.030223
vt 0.426049 0.030201
vt 0.426296 0.030216
vt 0.426401 0.030255
vn 0.000000 -0.707107 0.707107
vn 0.000000 -0.707107 0.707107
vn 0.000000 -0.707107 0.707107
vn 0.000000 -0.707107 -0.707107
vn 0.000000 -0.707107 -0.707107
vn 0.000000 -0.707107 -0.707107
vn 0.707107 -0.707107 0.000000
vn 0.707107 -0.707107 0.000000
vn 0.707107 -0.707107 0.000000
vn -0.707107 -0.707107 0.000000
vn -0.707107 -0.707107 0.000000
vn -0.707107 -0.707107 0.000000
vn 0.000000 1.000000 -0.000000
vn 0.000000 1.000000 -0.000000
vn 0.000000 1.000000 -0.000000
vn 0.000000 1.000000 -0.000000
vn -0.485063 -0.727618 0.485063
vn -0.485063 -0.727618 0.485063
vn -0.485063 -0.727618 0.485063
vn 0.485063 -0.727618 0.485063
vn 0.485063 -0.727618 0.485063
vn 0.485063 -0.727618 0.485063
vn -0.485063 -0.727618 -0.485063
vn -0.485063 -0.727618 -0.485063
vn -0.485063 -0.727618 -0.485063
vn 0.485063 -0.727618 -0.485063
vn 0.485063 -0.727618 -0.485063
vn 0.485063 -0.727618 -0.485063
vn -0.694482 0.719510 0.000000
vn -0.694482 0.719510 0.000000
vn -0.694482 0.719510 0.000000
vn -0.694482 0.719510 0.000000
vn -0.475907 0.739612 -0.475907
vn -0.475907 0.739612 -0.475907
vn -0.475907 0.739612 -0.475907
vn -0.475907 0.739612 -0.475907
vn 0.000000 0.719510 -0.694482
vn 0.000000 0.719510 -0.694482
vn 0.000000 0.719510 -0.694482
vn 0.000000 0.719510 -0.694482
vn 0.475907 0.739612 -0.475907
vn 0.475907 0.739612 -0.475907
vn 0.475907 0.739612 -0.475907
vn 0.475907 0.739612 -0.475907
vn 0.694482 0.719510 0.000000
vn 0.694482 0.719510 0.000000
vn 0.694482 0.719510 0.000000
vn 0.694482 0.719510 0.000000
vn 0.475907 0.739612 0.475907
vn 0.475907 0.739612 0.475907
vn 0.475907 0.739612 0.475907
vn 0.475907 0.739612 0.475907
vn 0.000000 0.719510 0.694482
vn 0.000000 0.719510 0.694482
vn 0.000000 0.719510 0.694482
vn 0.000000 0.719510 0.694482
vn -0.475907 0.739612 0.475907
vn -0.475907 0.739612 0.475907
vn -0.475907 0.739612 0.475907
vn -0.475907 0.739612 0.475907
vn 0.000000 1.000000 -0.000000
vn 0.000000 1.000000 -0.000000
vn 0.000000 1.000000 -0.000000
vn 0.000000 1.000000 -0.000000
vn 0.000000 1.000000 -0.000000
vn 0.000000 1.000000 -0.000000
vn 0.000000 1.000000 -0.000000
vn 0.000000 1.000000 -0.000000
s off
f 16/1/1 17/2/2 1/3/3
f 1/3/4 12/4/5 13/5/6
f 14/6/7 15/7/8 1/3/9
f 10/8/10 11/9/11 1/3/12
f 6/17/13 9/14/14 8/15/15 7/16/16
f 1/3/17 17/2/18 10/8/19
f 1/3/20 15/7/21 16/1/22
f 11/9/23 12/4/24 1/3/25
f 13/5/26 14/6/27 1/3/28
f 11/9/29 10/8/30 2/10/31 6/17/32
f 12/4/33 11/9/34 6/17/35 7/16/36
f 13/5/37 12/4/38 7/16/39 8/15/40
f 14/6/41 13/5/42 8/15/43 9/14/44
f 15/7/45 14/6/46 9/14/47 4/13/48
f 16/1/49 15/7/50 4/13/51 5/12/52
f 3/11/53 17/2/54 16/1/55 5/12/56
f 10/8/57 17/2/58 3/11/59 2/10/60
f 2/10/61 3/11/62 5/12/63 4/13/64
f 2/10/65 4/13/66 9/14/67 6/17/68
