# This file uses centimeters as units for non-parametric coordinates.

v 4.543936 0.000031 2.801636
v -1.161116 0.000000 4.680786
v -4.543936 0.000000 -0.140381
v -1.064579 0.000031 -4.680908
v 4.377263 0.000000 -2.969604
v 4.543936 -702.552612 2.801636
v -1.161116 -702.552368 4.680786
v -4.543936 -702.552124 -0.140381
v -1.064579 -702.550781 -4.680908
v 4.377263 -702.551270 -2.969604
vt 0.001796 0.353023
vt 0.001780 0.353030
vt 0.002394 0.354010
vt 0.002404 0.354009
vt 0.001796 0.353032
vt 0.002406 0.354017
vt 0.001781 0.353044
vt 0.002398 0.354023
vt 0.001771 0.353042
vt 0.002390 0.354019
vn 0.312852 0.000000 0.949802
vn 0.312852 0.000000 0.949802
vn 0.312852 0.000000 0.949802
vn 0.312852 0.000000 0.949802
vn -0.818592 0.000000 0.574375
vn -0.818592 0.000000 0.574375
vn -0.818592 0.000000 0.574375
vn -0.818592 0.000000 0.574375
vn -0.793753 0.000000 -0.608240
vn -0.793753 0.000000 -0.608240
vn -0.793753 0.000000 -0.608240
vn -0.793753 0.000000 -0.608240
vn 0.300000 0.000000 -0.953939
vn 0.300000 0.000000 -0.953939
vn 0.300000 0.000000 -0.953939
vn 0.300000 0.000000 -0.953939
vn 0.999583 0.000000 -0.028868
vn 0.999583 0.000000 -0.028868
vn 0.999583 0.000000 -0.028868
vn 0.999583 0.000000 -0.028868
vn -0.000000 -1.000000 -0.000191
vn -0.000000 -1.000000 -0.000191
vn -0.000000 -1.000000 -0.000191
vn -0.000000 -1.000000 -0.000191
vn -0.000000 -1.000000 -0.000191
vn -0.000001 1.000000 0.000004
vn -0.000001 1.000000 0.000004
vn -0.000001 1.000000 0.000004
vn -0.000001 1.000000 0.000004
vn -0.000001 1.000000 0.000004
s off
f 7/1/1 6/2/2 1/3/3 2/4/4
f 8/5/5 7/1/6 2/4/7 3/6/8
f 9/7/9 8/5/10 3/6/11 4/8/12
f 10/9/13 9/7/14 4/8/15 5/10/16
f 6/2/17 10/9/18 5/10/19 1/3/20
f 6/2/21 7/1/22 8/5/23 9/7/24 10/9/25
f 4/8/26 3/6/27 2/4/28 1/3/29 5/10/30
