# This file uses centimeters as units for non-parametric coordinates.

v -0.740967 10.621759 187.086548
v -0.740967 0.000000 187.086548
v 145.011475 10.621759 186.053345
v 145.011475 0.000000 186.053345
v -6.215820 4.952032 -2.836548
v 134.199463 4.952032 1.896606
v 134.199463 15.573792 1.896606
v -6.215820 15.573792 -2.836548
v 0.000000 10.621759 -197.048462
v 0.000000 0.000000 -197.048462
v 144.451172 10.621767 -199.989868
v 144.451172 0.000008 -199.989868
v -148.846924 10.621759 196.317383
v -148.846924 0.000000 196.317383
v -150.589111 7.669353 -7.569580
v -150.589111 18.291111 -7.569580
v -144.450928 10.621759 -205.390503
v -144.450928 0.000000 -205.390503
v -4.853271 0.000000 60.846802
v 137.433105 0.000000 90.386353
v 137.334961 10.621759 91.650513
v -4.954102 10.621759 62.110474
v -147.022705 0.000000 31.331665
v -147.126465 10.621759 32.594360
v 0.000000 0.000000 -61.360718
v 144.451172 0.000000 -79.239380
v 144.451172 10.621759 -76.867554
v 0.000000 10.621759 -58.988892
v -144.450928 0.000000 -43.482056
v -144.450928 10.621759 -41.110229
vt 0.991071 0.409143
vt 0.991071 0.498227
vt 0.991071 0.409143
vt 0.991071 0.498227
vt 0.993025 0.487950
vt 0.908562 0.498227
vt 0.908563 0.498227
vt 0.908563 0.409143
vt 0.908563 0.498227
vt 0.908563 0.409143
vt 0.991071 0.409143
vt 0.991071 0.498227
vt 0.991071 0.409143
vt 0.991071 0.498227
vt 0.993315 0.487980
vt 0.908562 0.498227
vt 0.908563 0.498227
vt 0.991071 0.498227
vt 0.991071 0.409143
vt 0.908563 0.409143
vt 0.991071 0.498227
vt 0.991071 0.409143
vt 0.908562 0.498227
vt 0.993601 0.487823
vt 0.908563 0.498227
vt 0.908563 0.409143
vt 0.991071 0.409143
vt 0.991071 0.498227
vt 0.991071 0.409143
vt 0.991071 0.498227
vt 0.993355 0.487803
vt 0.908562 0.498227
vt 0.993585 0.487700
vt 0.993799 0.487714
vt 0.993626 0.488012
vt 0.993863 0.487844
vt 0.994025 0.487729
vt 0.993513 0.487871
vt 0.944820 0.498227
vt 0.993210 0.487867
vt 0.945327 0.498227
vt 0.934605 0.409143
vt 0.934605 0.409143
vt 0.993823 0.487872
vt 0.922322 0.498227
vt 0.922877 0.498227
vt 0.993663 0.487789
vt 0.993443 0.487763
vt 0.940394 0.498227
vt 0.939442 0.498227
vt 0.933263 0.409143
vt 0.933263 0.409143
vt 0.926030 0.498227
vt 0.993897 0.487820
vt 0.925077 0.498227
vn -0.007772 0.997913 0.064108
vn -0.007772 0.997913 0.064108
vn -0.003759 0.999512 0.031007
vn -0.002586 0.999769 0.021333
vn 0.007089 0.000000 0.999975
vn 0.007089 0.000000 0.999975
vn 0.007089 0.000000 0.999975
vn 0.007089 0.000000 0.999975
vn 0.000000 -1.000000 0.000000
vn 0.000000 -1.000000 0.000000
vn 0.003767 -0.999510 -0.031071
vn 0.002580 -0.999770 -0.021283
vn 0.996751 0.009365 -0.079999
vn 0.998337 0.008010 -0.057091
vn 0.998186 0.008161 -0.059648
vn 0.996751 0.009365 -0.079999
vn -0.003397 0.997280 -0.073624
vn -0.000963 0.999782 -0.020872
vn -0.001317 0.999592 -0.028547
vn -0.003397 0.997280 -0.073624
vn -0.020358 0.000000 -0.999793
vn -0.020358 0.000000 -0.999793
vn -0.020358 0.000000 -0.999793
vn -0.020358 0.000000 -0.999793
vn 0.000000 -1.000000 -0.000000
vn 0.000968 -0.999780 0.020977
vn 0.001312 -0.999595 0.028433
vn 0.000000 -1.000000 -0.000000
vn 1.000000 0.000000 0.000000
vn 1.000000 0.000000 0.000000
vn 0.998129 -0.006784 0.060760
vn 0.999138 -0.004605 0.041248
vn -0.004860 0.992830 0.119434
vn -0.001592 0.999234 0.039112
vn -0.001029 0.999680 0.025296
vn -0.004860 0.992830 0.119434
vn 0.062205 0.000000 0.998063
vn 0.062205 0.000000 0.998063
vn 0.062205 0.000000 0.998063
vn 0.062205 0.000000 0.998063
vn 0.000000 -1.000000 0.000000
vn 0.001672 -0.999228 -0.039245
vn 0.001075 -0.999681 -0.025230
vn 0.000000 -1.000000 0.000000
vn -0.999933 -0.004243 -0.010783
vn -0.999933 -0.004243 -0.010783
vn -0.999954 -0.005354 0.007907
vn -0.999947 -0.005406 0.008779
vn 0.002993 0.990296 -0.138940
vn 0.002993 0.990296 -0.138940
vn 0.000571 0.999649 -0.026490
vn 0.000832 0.999254 -0.038617
vn 0.057654 0.000000 -0.998337
vn 0.057654 0.000000 -0.998337
vn 0.057654 0.000000 -0.998337
vn 0.057654 0.000000 -0.998337
vn 0.000000 -1.000000 0.000000
vn 0.000000 -1.000000 0.000000
vn -0.000669 -0.999645 0.026629
vn -0.000963 -0.999264 0.038336
vn -1.000000 0.000001 0.000000
vn -0.999771 0.002376 -0.021274
vn -0.999077 0.004768 -0.042701
vn -1.000000 0.000001 0.000000
vn -0.002586 0.999769 0.021333
vn -0.003759 0.999512 0.031007
vn 0.000000 1.000000 0.000000
vn 0.000000 1.000000 0.000000
vn 0.002580 -0.999770 -0.021283
vn 0.003767 -0.999510 -0.031071
vn 0.007902 -0.997842 -0.065182
vn 0.007902 -0.997842 -0.065182
vn 0.998186 0.008161 -0.059648
vn 0.998337 0.008010 -0.057091
vn 0.999353 0.006720 -0.035336
vn 0.999353 0.006720 -0.035336
vn -0.001029 0.999680 0.025296
vn -0.001592 0.999234 0.039112
vn 0.000000 1.000000 -0.000000
vn 0.000000 1.000000 -0.000000
vn 0.001075 -0.999681 -0.025230
vn 0.001672 -0.999228 -0.039245
vn 0.005213 -0.992472 -0.122358
vn 0.005213 -0.992472 -0.122358
vn -0.999947 -0.005406 0.008779
vn -0.999954 -0.005354 0.007907
vn -0.996191 -0.010014 0.086621
vn -0.996191 -0.010014 0.086621
vn -0.001317 0.999592 -0.028547
vn -0.000963 0.999782 -0.020872
vn -0.000000 1.000000 0.000000
vn -0.000000 1.000000 0.000000
vn 0.001312 -0.999595 0.028433
vn 0.000968 -0.999780 0.020977
vn 0.003282 -0.997462 0.071122
vn 0.003282 -0.997462 0.071122
vn 0.999138 -0.004605 0.041248
vn 0.998129 -0.006784 0.060760
vn 0.991666 -0.014297 0.128043
vn 0.991666 -0.014297 0.128043
vn 0.000832 0.999254 -0.038617
vn 0.000571 0.999649 -0.026490
vn 0.000000 1.000000 0.000000
vn 0.000000 1.000000 0.000000
vn -0.000963 -0.999264 0.038336
vn -0.000669 -0.999645 0.026629
vn -0.003316 -0.991238 0.132044
vn -0.003316 -0.991238 0.132044
vn -0.999077 0.004768 -0.042701
vn -0.999771 0.002376 -0.021274
vn -0.983777 0.019905 -0.178286
vn -0.983777 0.019905 -0.178286
s off
f 7/7/1 8/8/2 22/42/3 21/41/4
f 3/2/5 1/1/6 2/3/7 4/4/8
f 4/5/9 2/15/10 19/38/11 20/40/12
f 4/4/13 20/39/14 21/41/15 3/2/16
f 7/9/17 27/50/18 28/52/19 8/10/20
f 11/12/21 12/14/22 10/13/23 9/11/24
f 12/33/25 26/48/26 25/47/27 10/34/28
f 12/14/29 11/12/30 27/50/31 26/49/32
f 16/17/33 24/46/34 22/43/35 8/20/36
f 13/18/37 14/21/38 2/22/39 1/19/40
f 14/35/41 23/44/42 19/38/43 2/15/44
f 14/21/45 13/18/46 24/46/47 23/45/48
f 16/25/49 8/26/50 28/51/51 30/55/52
f 17/28/53 9/27/54 10/29/55 18/30/56
f 18/37/57 10/34/58 25/47/59 29/54/60
f 18/30/61 29/53/62 30/55/63 17/28/64
f 21/41/65 22/42/66 1/1/67 3/2/68
f 20/40/69 19/38/70 5/24/71 6/31/72
f 21/41/73 20/39/74 6/6/75 7/7/76
f 22/43/77 24/46/78 13/18/79 1/19/80
f 19/38/81 23/44/82 15/36/83 5/24/84
f 23/45/85 24/46/86 16/17/87 15/23/88
f 28/52/89 27/50/90 11/12/91 9/11/92
f 25/47/93 26/48/94 6/31/95 5/24/96
f 26/49/97 27/50/98 7/9/99 6/16/100
f 30/55/101 28/51/102 9/27/103 17/28/104
f 29/54/105 25/47/106 5/24/107 15/36/108
f 30/55/109 29/53/110 15/32/111 16/25/112
