# This file uses centimeters as units for non-parametric coordinates.

v 1.551704 -25.924019 2.514686
v 0.118172 -25.915977 2.587097
v 0.185440 -25.769920 3.902520
v 2.199265 -25.710014 4.442209
v 3.323677 -25.933960 2.425168
v 0.723381 -2.900116 -2.790716
v -2.821251 -2.750664 -1.444727
v -2.628624 -2.332451 2.321769
v 1.035057 -2.223434 3.303602
v 3.106712 -2.574265 0.143915
v 1.551704 -25.924019 2.514686
v 0.000000 0.000000 0.000000
v 0.589027 -5.451241 -0.959698
v -1.299309 -5.377731 -0.297700
v -1.197929 -5.157631 1.684583
v 0.815895 -5.097710 2.224271
v 1.952965 -5.294182 0.454784
v -7.541412 -69.275085 11.571291
v 10.275803 -70.729889 11.048155
v -7.244286 -25.395790 4.850928
v 10.639885 -25.395790 4.850928
v -7.244286 -25.395790 2.023782
v 10.639885 -25.395790 2.023782
v -7.704086 -70.325279 8.951485
v 10.113136 -71.780083 8.428348
v -6.717537 -57.463913 6.785420
v 10.503777 -67.461708 9.723893
v -6.925751 -59.167099 4.430206
v 10.295555 -69.164886 7.368676
vt 0.057622 0.228305
vt 0.057670 0.228292
vt 0.057609 0.227342
vt 0.057525 0.227350
vt 0.057691 0.228314
vt 0.057645 0.227366
vt 0.057634 0.228342
vt 0.057581 0.227388
vt 0.057562 0.228321
vt 0.057506 0.227378
vt 0.057622 0.228305
vt 0.057573 0.227365
vt 0.057536 0.227461
vt 0.057616 0.227453
vt 0.057650 0.227477
vt 0.057587 0.227500
vt 0.057512 0.227488
vt 0.417102 0.190262
vt 0.452143 0.190262
vt 0.452143 0.195747
vt 0.417102 0.210084
vt 0.417102 0.261023
vt 0.452143 0.261023
vt 0.452143 0.261023
vt 0.417102 0.261023
vt 0.452143 0.194651
vt 0.417102 0.208988
vt 0.417102 0.190262
vt 0.452143 0.190262
vn -0.241336 -0.247128 -0.938448
vn -0.243972 -0.256605 -0.935217
vn -0.312098 -0.535107 -0.785019
vn -0.312098 -0.535107 -0.785020
vn -0.984629 -0.160790 0.068208
vn -0.985011 -0.158535 0.067977
vn -0.878970 -0.466950 0.096800
vn -0.878970 -0.466950 0.096800
vn -0.258862 0.000195 0.965914
vn -0.259161 0.011566 0.965765
vn -0.235671 -0.325844 0.915579
vn -0.235671 -0.325844 0.915579
vn 0.856164 0.037141 0.515368
vn 0.856630 0.044356 0.514021
vn 0.793064 -0.269661 0.546199
vn 0.793064 -0.269661 0.546199
vn 0.473128 -0.169300 -0.864573
vn 0.479759 -0.175149 -0.859741
vn 0.714086 -0.406191 -0.570167
vn 0.714086 -0.406191 -0.570167
vn -0.000001 -0.993892 0.110354
vn 0.000000 0.000000 0.000000
vn -0.000004 -0.993893 0.110349
vn -0.000005 -0.993893 0.110351
vn -0.000001 -0.993892 0.110354
vn -0.000004 -0.993893 0.110349
vn -0.000005 -0.993893 0.110348
vn -0.000005 -0.993893 0.110351
vn -0.000004 -0.993893 0.110349
vn -0.000001 -0.993893 0.110347
vn -0.000005 -0.993893 0.110348
vn -0.000004 -0.993893 0.110349
vn 0.000000 0.000000 0.000000
vn -0.000001 -0.993893 0.110347
vn -0.000004 -0.993893 0.110349
vn 0.154314 0.704795 -0.692424
vn -0.517967 0.748625 -0.413850
vn 0.009569 0.993639 -0.112206
vn -0.517967 0.748625 -0.413850
vn -0.478708 0.828559 0.290394
vn 0.009569 0.993639 -0.112206
vn -0.478708 0.828559 0.290394
vn 0.213228 0.840166 0.498653
vn 0.009569 0.993639 -0.112206
vn 0.213228 0.840166 0.498653
vn 0.636929 0.762206 -0.115601
vn 0.009569 0.993639 -0.112206
vn 0.636929 0.762206 -0.115601
vn 0.154314 0.704795 -0.692424
vn 0.009569 0.993639 -0.112206
vn -0.216811 -0.161860 -0.962702
vn -0.216811 -0.161860 -0.962702
vn -0.243972 -0.256605 -0.935217
vn -0.241336 -0.247128 -0.938448
vn -0.996489 -0.060670 0.057698
vn -0.996489 -0.060670 0.057698
vn -0.985011 -0.158535 0.067977
vn -0.984629 -0.160790 0.068208
vn -0.260285 0.086012 0.961693
vn -0.260285 0.086012 0.961693
vn -0.259161 0.011566 0.965765
vn -0.258862 0.000195 0.965914
vn 0.858738 0.108184 0.500865
vn 0.858738 0.108184 0.500865
vn 0.856630 0.044356 0.514021
vn 0.856164 0.037141 0.515368
vn 0.391225 -0.098969 -0.914958
vn 0.391225 -0.098969 -0.914958
vn 0.479759 -0.175149 -0.859741
vn 0.473128 -0.169300 -0.864573
vn 0.057539 0.371468 0.926661
vn 0.057539 0.371468 0.926661
vn -0.022452 0.178511 0.983682
vn -0.045631 0.120542 0.991659
vn 0.000000 1.000000 0.000000
vn 0.000000 1.000000 0.000000
vn 0.000000 1.000000 0.000000
vn 0.000000 1.000000 0.000000
vn 0.054873 -0.099337 -0.993540
vn 0.054873 -0.099337 -0.993540
vn 0.024033 -0.176142 -0.984071
vn 0.044751 -0.124725 -0.991182
vn -0.064514 -0.924875 0.374758
vn -0.064514 -0.924875 0.374758
vn -0.064514 -0.924875 0.374758
vn -0.064514 -0.924875 0.374758
vn 0.996257 -0.081346 -0.029251
vn 0.996257 -0.081346 -0.029251
vn 0.999184 -0.018326 -0.035988
vn 0.999244 -0.013354 -0.036513
vn -0.996257 0.081346 0.029251
vn -0.996257 0.081346 0.029251
vn -0.999141 0.008311 0.040607
vn -0.998897 0.028212 0.037535
vn -0.045631 0.120542 0.991659
vn -0.022452 0.178511 0.983682
vn -0.057305 0.090992 0.994202
vn -0.057305 0.090992 0.994201
vn 0.044751 -0.124725 -0.991182
vn 0.024033 -0.176142 -0.984071
vn -0.057539 -0.371468 -0.926661
vn -0.057539 -0.371468 -0.926661
vn 0.999244 -0.013354 -0.036513
vn 0.999184 -0.018326 -0.035988
vn 0.999270 -0.009982 -0.036869
vn 0.999270 -0.009982 -0.036869
vn -0.998897 0.028212 0.037535
vn -0.999141 0.008311 0.040607
vn -0.999008 -0.009964 0.043412
vn -0.999008 -0.009964 0.043412
s off
f 13/13/1 14/14/2 7/3/3 6/4/4
f 14/14/5 15/15/6 8/6/7 7/3/8
f 15/15/9 16/16/10 9/8/11 8/6/12
f 16/16/13 17/17/14 10/10/15 9/8/16
f 17/17/17 13/13/18 6/4/19 10/10/20
f 2/2/21 1/1/22 11/11/23
f 3/5/24 2/2/25 11/11/26
f 4/7/27 3/5/28 11/11/29
f 5/9/30 4/7/31 11/11/32
f 1/1/33 5/9/34 11/11/35
f 6/4/36 7/3/37 12/12/38
f 7/3/39 8/6/40 12/12/41
f 8/6/42 9/8/43 12/12/44
f 9/8/45 10/10/46 12/12/47
f 10/10/48 6/4/49 12/12/50
f 1/1/51 2/2/52 14/14/53 13/13/54
f 2/2/55 3/5/56 15/15/57 14/14/58
f 3/5/59 4/7/60 16/16/61 15/15/62
f 4/7/63 5/9/64 17/17/65 16/16/66
f 5/9/67 1/1/68 13/13/69 17/17/70
f 18/18/71 19/19/72 27/20/73 26/21/74
f 20/22/75 21/23/76 23/24/77 22/25/78
f 22/25/79 23/24/80 29/26/81 28/27/82
f 24/28/83 25/29/84 19/19/85 18/18/86
f 19/19/87 25/29/88 29/26/89 27/20/90
f 24/28/91 18/18/92 26/21/93 28/27/94
f 26/21/95 27/20/96 21/23/97 20/22/98
f 28/27/99 29/26/100 25/29/101 24/28/102
f 27/20/103 29/26/104 23/24/105 21/23/106
f 28/27/107 26/21/108 20/22/109 22/25/110
