# This file uses centimeters as units for non-parametric coordinates.

v 233.137909 0.676761 -2.082711
v 233.137909 -1.771647 -1.287192
v 233.137909 -1.771647 1.287225
v 233.137909 0.676761 2.082761
v 233.137909 2.189940 0.000033
v -0.734535 0.676761 -2.082711
v -0.734535 -1.771647 -1.287192
v -0.734535 -1.771647 1.287225
v -0.734535 0.676761 2.082761
v -0.734535 2.189940 0.000033
v 233.137909 0.000033 0.000033
v -0.734535 0.000033 0.000033
v 116.201683 -10.379704 -2.082711
v 116.201683 -12.828145 -1.287192
v 116.201683 -12.828145 1.287225
v 116.201683 -10.379704 2.082761
v 116.201683 -8.866557 0.000033
v 57.733574 -7.264660 -2.082711
v 57.733574 -5.751480 0.000033
v 57.733574 -7.264660 2.082761
v 57.733574 -9.713101 1.287225
v 57.733574 -9.713101 -1.287192
v 174.669800 -7.264660 -2.082711
v 174.669800 -9.713101 -1.287192
v 174.669800 -9.713101 1.287225
v 174.669800 -7.264660 2.082761
v 174.669800 -5.751480 0.000033
vt 0.366421 0.359445
vt 0.366421 0.359456
vt 0.366669 0.359443
vt 0.366669 0.359431
vt 0.366421 0.359458
vt 0.366670 0.359444
vt 0.366421 0.359447
vt 0.366671 0.359433
vt 0.366421 0.359439
vt 0.366670 0.359425
vt 0.365929 0.359405
vt 0.365930 0.359393
vt 0.365927 0.359397
vt 0.365925 0.359406
vt 0.365924 0.359395
vt 0.365927 0.359387
vt 0.366920 0.359395
vt 0.366920 0.359407
vt 0.366922 0.359399
vt 0.366923 0.359408
vt 0.366924 0.359397
vt 0.366922 0.359389
vt 0.366175 0.359430
vt 0.366175 0.359441
vt 0.366173 0.359443
vt 0.366172 0.359432
vt 0.366174 0.359424
vn -0.000000 -0.309007 -0.951060
vn -0.000000 -0.309007 -0.951060
vn -0.028461 -0.308883 -0.950674
vn -0.029913 -0.308870 -0.950634
vn 0.000000 -1.000000 0.000000
vn 0.000000 -1.000000 0.000000
vn -0.094132 -0.995560 0.000000
vn -0.094132 -0.995560 0.000000
vn 0.000000 -0.309013 0.951058
vn 0.000000 -0.309013 0.951058
vn -0.029913 -0.308876 0.950632
vn -0.028461 -0.308889 0.950672
vn 0.000000 0.809022 0.587778
vn 0.000000 0.809022 0.587778
vn 0.077417 0.806592 0.586016
vn 0.075089 0.806736 0.586121
vn 0.000000 0.809024 -0.587775
vn 0.000000 0.809024 -0.587775
vn 0.075089 0.806739 -0.586118
vn 0.077418 0.806595 -0.586013
vn 1.000000 -0.000007 0.000000
vn 1.000000 0.000000 0.000000
vn 1.000000 0.000000 0.000000
vn 1.000000 -0.000000 0.000000
vn 1.000000 -0.000007 0.000000
vn 1.000000 0.000000 0.000000
vn 1.000000 0.000007 0.000000
vn 1.000000 -0.000000 0.000000
vn 1.000000 0.000000 0.000000
vn 1.000000 0.000000 0.000000
vn 1.000000 0.000007 0.000000
vn 1.000000 0.000000 0.000000
vn 1.000000 0.000000 0.000000
vn 1.000000 0.000000 0.000000
vn 1.000000 0.000000 0.000000
vn -1.000000 -0.000000 0.000000
vn -1.000000 -0.000000 0.000000
vn -1.000000 -0.000000 0.000000
vn -1.000000 -0.000000 0.000000
vn -1.000000 -0.000000 0.000000
vn -1.000000 -0.000000 0.000000
vn -1.000000 -0.000000 0.000000
vn -1.000000 0.000000 0.000000
vn -1.000000 -0.000000 0.000000
vn -1.000000 0.000000 0.000000
vn -1.000000 0.000000 0.000000
vn -1.000000 -0.000000 0.000000
vn -1.000000 0.000000 0.000000
vn -1.000000 -0.000000 0.000000
vn -1.000000 -0.000000 0.000000
vn 0.029913 -0.308870 -0.950634
vn 0.028461 -0.308883 -0.950674
vn -0.000000 -0.309007 -0.951060
vn -0.000000 -0.309007 -0.951060
vn 0.094132 -0.995560 0.000000
vn 0.094132 -0.995560 0.000000
vn 0.000000 -1.000000 0.000000
vn 0.000000 -1.000000 0.000000
vn 0.028461 -0.308889 0.950672
vn 0.029913 -0.308876 0.950632
vn 0.000000 -0.309013 0.951058
vn 0.000000 -0.309013 0.951058
vn -0.075089 0.806736 0.586121
vn -0.077417 0.806592 0.586016
vn 0.000000 0.809022 0.587778
vn 0.000000 0.809022 0.587778
vn -0.077418 0.806595 -0.586013
vn -0.075089 0.806739 -0.586118
vn 0.000000 0.809024 -0.587775
vn 0.000000 0.809024 -0.587775
vn 0.077418 0.806595 -0.586013
vn 0.075089 0.806739 -0.586118
vn 0.109228 0.804181 -0.584263
vn 0.109228 0.804181 -0.584263
vn 0.075089 0.806736 0.586121
vn 0.077417 0.806592 0.586016
vn 0.109227 0.804178 0.584266
vn 0.109227 0.804178 0.584266
vn -0.028461 -0.308889 0.950672
vn -0.029913 -0.308876 0.950632
vn -0.041935 -0.308743 0.950221
vn -0.041935 -0.308743 0.950221
vn -0.094132 -0.995560 0.000000
vn -0.094132 -0.995560 0.000000
vn -0.134590 -0.990901 0.000000
vn -0.134590 -0.990901 0.000000
vn -0.029913 -0.308870 -0.950634
vn -0.028461 -0.308883 -0.950674
vn -0.041934 -0.308737 -0.950223
vn -0.041934 -0.308737 -0.950223
vn 0.041934 -0.308737 -0.950223
vn 0.041934 -0.308737 -0.950223
vn 0.028461 -0.308883 -0.950674
vn 0.029913 -0.308870 -0.950634
vn 0.134590 -0.990901 0.000000
vn 0.134590 -0.990901 0.000000
vn 0.094132 -0.995560 0.000000
vn 0.094132 -0.995560 0.000000
vn 0.041935 -0.308743 0.950221
vn 0.041935 -0.308743 0.950221
vn 0.029913 -0.308876 0.950632
vn 0.028461 -0.308889 0.950672
vn -0.109227 0.804178 0.584266
vn -0.109227 0.804178 0.584266
vn -0.077417 0.806592 0.586016
vn -0.075089 0.806736 0.586121
vn -0.109228 0.804181 -0.584263
vn -0.109228 0.804181 -0.584263
vn -0.075089 0.806739 -0.586118
vn -0.077418 0.806595 -0.586013
s off
f 13/1/1 14/2/2 22/3/3 18/4/4
f 14/2/5 15/5/6 21/6/7 22/3/8
f 15/5/9 16/7/10 20/8/11 21/6/12
f 16/7/13 17/9/14 19/10/15 20/8/16
f 17/9/17 13/1/18 18/4/19 19/10/20
f 2/11/21 1/12/22 11/13/23
f 3/14/24 2/11/25 11/13/26
f 4/15/27 3/14/28 11/13/29
f 5/16/30 4/15/31 11/13/32
f 1/12/33 5/16/34 11/13/35
f 6/17/36 7/18/37 12/19/38
f 7/18/39 8/20/40 12/19/41
f 8/20/42 9/21/43 12/19/44
f 9/21/45 10/22/46 12/19/47
f 10/22/48 6/17/49 12/19/50
f 23/23/51 24/24/52 14/2/53 13/1/54
f 24/24/55 25/25/56 15/5/57 14/2/58
f 25/25/59 26/26/60 16/7/61 15/5/62
f 26/26/63 27/27/64 17/9/65 16/7/66
f 27/27/67 23/23/68 13/1/69 17/9/70
f 19/10/71 18/4/72 6/17/73 10/22/74
f 20/8/75 19/10/76 10/22/77 9/21/78
f 21/6/79 20/8/80 9/21/81 8/20/82
f 22/3/83 21/6/84 8/20/85 7/18/86
f 18/4/87 22/3/88 7/18/89 6/17/90
f 1/12/91 2/11/92 24/24/93 23/23/94
f 2/11/95 3/14/96 25/25/97 24/24/98
f 3/14/99 4/15/100 26/26/101 25/25/102
f 4/15/103 5/16/104 27/27/105 26/26/106
f 5/16/107 1/12/108 23/23/109 27/27/110
