# This file uses centimeters as units for non-parametric coordinates.

v 2.524658 11.246714 4.332703
v 4.982788 11.203538 0.000671
v -2.472107 -10.179236 4.263733
v 2.512146 -10.259604 4.341980
v -2.515198 11.158266 4.304993
v 4.978149 -10.224661 -0.000671
v 2.467163 -10.179740 -4.263123
v -4.982239 11.210872 -0.010681
v -2.516052 11.237878 -4.347961
v -4.982788 -10.224240 0.001404
v -2.516296 -10.260859 -4.347717
v 2.474487 11.163315 -4.275208
v -0.548096 16.003460 -0.304993
v -0.002625 -16.003462 -0.001892
v 0.606018 12.454447 4.347961
v 0.611084 -11.611520 4.296082
v 3.732300 12.423770 2.070496
v 3.756348 -11.488947 2.111267
v 3.698730 -11.864794 -2.200012
v 3.687317 12.780499 -2.192566
v -0.659546 -11.600349 -4.300354
v -0.692322 12.483389 -4.310608
v -3.758728 -11.485933 -2.109314
v -3.717957 12.427548 -2.111877
v -3.688110 -11.891569 2.194641
v -3.703552 12.761196 2.216248
v 0.789978 15.724805 0.444031
v 0.786133 15.794725 -0.466003
v -0.113953 15.960137 -0.680481
v -0.629761 15.964956 0.378357
v 0.114197 15.805777 0.850647
vt 0.050909 0.133442
vt 0.052715 0.133800
vt 0.052027 0.138681
vt 0.053132 0.139999
vt 0.053596 0.133625
vt 0.052697 0.133463
vt 0.050483 0.139921
vt 0.050024 0.133655
vt 0.051562 0.138798
vt 0.050908 0.133764
vt 0.053148 0.138557
vt 0.050477 0.138572
vt 0.051614 0.153026
vt 0.051851 0.152227
vt 0.052093 0.151899
vt 0.052092 0.152182
vt 0.051769 0.152850
vt 0.051809 0.023660
vt 0.052029 0.041411
vt 0.050924 0.047200
vt 0.050488 0.040280
vt 0.050024 0.047019
vt 0.050463 0.041919
vt 0.050908 0.046871
vt 0.051574 0.041457
vt 0.052694 0.047198
vt 0.053136 0.040388
vt 0.053594 0.047017
vt 0.053156 0.041907
vt 0.052710 0.046876
vt 0.051584 0.152870
vn -0.005143 -0.020769 0.999771
vn -0.005143 -0.020769 0.999771
vn -0.005143 -0.020769 0.999771
vn 0.862512 0.004778 -0.506014
vn 0.862512 0.004778 -0.506014
vn 0.862512 0.004778 -0.506014
vn -0.868142 0.003083 0.496307
vn -0.868142 0.003083 0.496307
vn -0.868142 0.003083 0.496307
vn 0.014706 0.008397 -0.999857
vn 0.014706 0.008397 -0.999857
vn 0.014706 0.008397 -0.999857
vn 0.868655 0.055053 0.492350
vn 0.868655 0.055053 0.492350
vn 0.868655 0.055053 0.492350
vn -0.868331 0.050148 -0.493443
vn -0.868331 0.050148 -0.493443
vn -0.868331 0.050148 -0.493443
vn 0.162950 0.983787 0.074897
vn 0.162950 0.983787 0.074897
vn 0.162950 0.983787 0.074897
vn 0.162949 0.983787 0.074902
vn 0.162949 0.983787 0.074902
vn 0.162949 0.983787 0.074902
vn -0.306338 -0.643589 0.701392
vn -0.306338 -0.643589 0.701392
vn -0.296403 -0.642932 0.706247
vn -0.296403 -0.642932 0.706247
vn -0.756636 -0.651996 -0.049016
vn -0.756636 -0.651996 -0.049016
vn -0.756634 -0.651995 -0.049068
vn -0.756634 -0.651995 -0.049068
vn -0.447939 -0.655880 -0.607595
vn -0.447939 -0.655880 -0.607595
vn -0.457358 -0.655213 -0.601265
vn -0.457358 -0.655213 -0.601265
vn 0.300497 -0.642934 -0.704512
vn 0.300497 -0.642934 -0.704512
vn 0.300497 -0.642934 -0.704512
vn 0.300497 -0.642934 -0.704512
vn 0.756662 -0.652173 0.046195
vn 0.756662 -0.652173 0.046195
vn 0.756622 -0.652138 0.047321
vn 0.756622 -0.652138 0.047321
vn 0.445023 -0.655919 0.609693
vn 0.445023 -0.655919 0.609693
vn 0.451554 -0.655486 0.605340
vn 0.451554 -0.655486 0.605340
vn 0.162949 0.983787 0.074903
vn 0.162949 0.983787 0.074903
vn 0.162949 0.983787 0.074903
vn 0.162947 0.983788 0.074903
vn 0.162947 0.983788 0.074903
vn 0.162947 0.983788 0.074903
vn -0.010566 -0.000753 0.999944
vn -0.010566 -0.000753 0.999944
vn -0.010566 -0.000753 0.999944
vn -0.010566 -0.000753 0.999944
vn 0.869657 -0.000259 0.493657
vn 0.869657 -0.000259 0.493657
vn 0.869657 -0.000259 0.493657
vn 0.869657 -0.000259 0.493657
vn 0.862078 -0.000368 -0.506776
vn 0.862078 -0.000368 -0.506776
vn 0.862078 -0.000368 -0.506776
vn 0.862078 -0.000368 -0.506776
vn 0.015770 -0.000288 -0.999876
vn 0.015770 -0.000288 -0.999876
vn 0.015770 -0.000288 -0.999876
vn 0.015770 -0.000288 -0.999876
vn -0.869571 -0.000127 -0.493809
vn -0.869571 -0.000127 -0.493809
vn -0.869571 -0.000127 -0.493809
vn -0.869571 -0.000127 -0.493809
vn -0.864923 -0.001201 0.501903
vn -0.864923 -0.001201 0.501903
vn -0.864923 -0.001201 0.501903
vn -0.864923 -0.001201 0.501903
vn -0.869762 -0.018897 -0.493109
vn -0.869762 -0.018897 -0.493109
vn -0.869762 -0.018897 -0.493109
vn -0.861624 -0.001432 0.507545
vn -0.861624 -0.001432 0.507545
vn -0.861624 -0.001432 0.507545
vn -0.015865 -0.011564 0.999807
vn -0.015865 -0.011564 0.999807
vn -0.015865 -0.011564 0.999807
vn 0.869523 -0.015701 0.493642
vn 0.869523 -0.015701 0.493642
vn 0.869523 -0.015701 0.493642
vn 0.861621 0.008429 -0.507483
vn 0.861621 0.008429 -0.507483
vn 0.861621 0.008429 -0.507483
vn 0.017147 -0.011566 -0.999786
vn 0.017147 -0.011566 -0.999786
vn 0.017147 -0.011566 -0.999786
vn -0.734648 0.676624 -0.049715
vn -0.734648 0.676624 -0.049715
vn -0.734648 0.676624 -0.049715
vn -0.734648 0.676624 -0.049715
vn -0.734648 0.676624 -0.049715
vn 0.435905 0.680300 0.589219
vn 0.435905 0.680300 0.589219
vn 0.435905 0.680300 0.589219
vn 0.435905 0.680300 0.589219
vn 0.435905 0.680300 0.589219
vn 0.286446 0.668726 -0.686116
vn 0.286446 0.668726 -0.686116
vn 0.286446 0.668726 -0.686116
vn 0.286446 0.668726 -0.686116
vn 0.286446 0.668726 -0.686116
vn -0.439182 0.680045 -0.587076
vn -0.439182 0.680045 -0.587076
vn -0.439182 0.680045 -0.587076
vn -0.439182 0.680045 -0.587076
vn -0.439182 0.680045 -0.587076
vn 0.734585 0.676754 0.048875
vn 0.734585 0.676754 0.048875
vn 0.734585 0.676754 0.048875
vn 0.734585 0.676754 0.048875
vn 0.734585 0.676754 0.048875
vn -0.289800 0.671015 0.682463
vn -0.289800 0.671015 0.682463
vn -0.289800 0.671015 0.682463
vn -0.289800 0.671015 0.682463
vn -0.289800 0.671015 0.682463
s off
f 5/1/1 1/2/2 15/3/3
f 20/4/4 2/5/5 12/6/6
f 26/7/7 8/8/8 5/1/9
f 22/9/10 12/6/11 9/10/12
f 1/2/13 2/5/14 17/11/15
f 24/12/16 9/10/17 8/8/18
f 13/13/19 31/14/20 27/15/21
f 13/13/22 28/16/23 29/17/24
f 14/18/25 16/19/26 3/20/27 25/21/28
f 14/18/29 25/21/30 10/22/31 23/23/32
f 14/18/33 23/23/34 11/24/35 21/25/36
f 14/18/37 21/25/38 7/26/39 19/27/40
f 14/18/41 19/27/42 6/28/43 18/29/44
f 14/18/45 18/29/46 4/30/47 16/19/48
f 13/13/49 27/15/50 28/16/51
f 13/13/52 30/31/53 31/14/54
f 3/20/55 4/30/56 1/2/57 5/1/58
f 4/30/59 6/28/60 2/5/61 1/2/62
f 12/6/63 2/5/64 6/28/65 7/26/66
f 9/10/67 12/6/68 7/26/69 11/24/70
f 8/8/71 9/10/72 11/24/73 10/22/74
f 5/1/75 8/8/76 10/22/77 3/20/78
f 11/24/79 23/23/80 10/22/81
f 10/22/82 25/21/83 3/20/84
f 16/19/85 4/30/86 3/20/87
f 18/29/88 6/28/89 4/30/90
f 6/28/91 19/27/92 7/26/93
f 7/26/94 21/25/95 11/24/96
f 13/13/97 24/12/98 8/8/99 26/7/100 30/31/101
f 31/14/102 15/3/103 1/2/104 17/11/105 27/15/106
f 28/16/107 20/4/108 12/6/109 22/9/110 29/17/111
f 29/17/112 22/9/113 9/10/114 24/12/115 13/13/116
f 27/15/117 17/11/118 2/5/119 20/4/120 28/16/121
f 30/31/122 26/7/123 5/1/124 15/3/125 31/14/126
