# This file uses centimeters as units for non-parametric coordinates.

v 41.742264 -6.546828 46.220184
v 41.742264 -6.546828 53.779816
v 41.742264 -0.000001 57.559624
v 41.742268 6.546828 53.779804
v 41.742264 6.546828 46.220184
v 41.742264 -0.000000 42.440376
v 3.779814 -6.546828 7.645386
v 7.559626 -0.000000 7.645386
v 3.779813 6.546828 7.645386
v -3.779814 6.546828 7.645386
v -7.559626 -0.000001 7.645386
v -3.779811 -6.546828 7.645386
v 49.999996 -8.325554 45.193237
v 49.999992 -8.325556 54.806770
v 50.000000 0.000000 50.000000
v 50.000000 -0.000001 59.613518
v 50.000000 8.325555 54.806763
v 50.000008 8.325555 45.193237
v 50.000008 0.000000 40.386475
v 42.923080 -8.325556 54.806767
v 42.923088 -8.325554 45.193237
v 42.923088 -0.000001 59.613522
v 42.923088 8.325555 54.806767
v 42.923088 8.325555 45.193241
v 42.923096 0.000000 40.386482
v 4.806764 -8.325554 0.000000
v -4.806759 -8.325556 0.000000
v 0.000000 0.000000 0.000000
v -9.613522 -0.000001 0.000000
v -4.806762 8.325555 0.000000
v 4.806761 8.325555 0.000000
v 9.613522 0.000000 0.000000
v 4.806764 -8.325554 6.464565
v 9.613522 0.000000 6.464565
v 4.806761 8.325555 6.464565
v -4.806762 8.325555 6.464565
v -9.613522 -0.000001 6.464565
v -4.806759 -8.325556 6.464565
v 5.859724 -6.546828 44.243099
v -0.414622 -6.546828 50.328091
v -3.700630 -0.000001 53.700634
v -0.414624 6.546828 50.328091
v 5.859722 6.546828 44.243099
v 8.674786 -0.000000 41.428036
v 3.779814 -6.546828 39.099491
v 7.559626 -0.000000 39.093239
v 3.779813 6.546828 39.099491
v -5.141729 4.187921 43.650391
v -7.559626 -0.000001 45.787510
v -3.779811 -6.546828 42.446625
v 11.083495 -6.546828 46.220184
v 7.553034 -6.546828 53.779812
v 5.310755 2.381002 56.184952
v 7.553034 6.546828 53.779816
v 11.083495 6.546828 46.220188
v 11.090086 -0.000000 42.440376
v -3.779814 6.546828 29.590002
v -0.054135 6.546828 40.797028
v 19.053499 -0.000001 57.559624
v 5.824580 -3.335616 55.633804
v 24.754822 6.546828 46.220184
v 36.541294 6.546828 48.741917
v 37.929005 4.356364 44.955521
vt 0.163681 0.107959
vt 0.163672 0.108013
vt 0.164476 0.108063
vt 0.164470 0.108007
vt 0.163665 0.108001
vt 0.164491 0.108052
vt 0.163666 0.107931
vt 0.164500 0.107982
vt 0.163675 0.107877
vt 0.164493 0.107925
vt 0.163682 0.107892
vt 0.164478 0.107940
vt 0.163594 0.108026
vt 0.163607 0.107958
vt 0.163595 0.107941
vt 0.163582 0.108011
vt 0.163583 0.107922
vt 0.163597 0.107853
vt 0.163608 0.107873
vt 0.164539 0.108015
vt 0.164548 0.108086
vt 0.164560 0.108000
vt 0.164570 0.108073
vt 0.164582 0.107983
vt 0.164571 0.107911
vt 0.164550 0.107929
vt 0.163661 0.108030
vt 0.163672 0.107962
vt 0.163651 0.108016
vt 0.163652 0.107927
vt 0.163664 0.107857
vt 0.163674 0.107877
vt 0.164488 0.107926
vt 0.164478 0.108011
vt 0.164507 0.107907
vt 0.164516 0.107979
vt 0.164505 0.108069
vt 0.164486 0.108082
vt 0.163747 0.080269
vt 0.163736 0.080334
vt 0.164699 0.080394
vt 0.164692 0.080327
vt 0.163728 0.080320
vt 0.164717 0.080381
vt 0.163729 0.080236
vt 0.164728 0.080297
vt 0.163740 0.080171
vt 0.164719 0.080229
vt 0.163749 0.080189
vt 0.164702 0.080246
vt 0.164219 0.080298
vt 0.164218 0.080364
vt 0.164222 0.080350
vt 0.164228 0.080267
vt 0.164230 0.080200
vt 0.164225 0.080218
vt 0.164267 0.080301
vt 0.164273 0.080221
vt 0.164279 0.080203
vt 0.164277 0.080285
vt 0.164272 0.080353
vt 0.164266 0.080367
vt 0.164172 0.080295
vt 0.164170 0.080361
vt 0.164174 0.080332
vt 0.164179 0.080264
vt 0.164181 0.080197
vt 0.164178 0.080215
vt 0.164444 0.080280
vt 0.164279 0.080237
vt 0.163995 0.080336
vt 0.164171 0.080354
vt 0.163984 0.080185
vt 0.163811 0.080197
vt 0.163802 0.080178
vn 0.000000 -1.000000 -0.000000
vn 0.000000 -1.000000 -0.000000
vn 0.000000 -1.000000 -0.000000
vn 0.000000 -1.000000 -0.000000
vn -0.743601 -0.575658 0.340111
vn -0.743601 -0.575658 0.340111
vn -0.743601 -0.575658 0.340111
vn -0.743601 -0.575658 0.340111
vn -0.743806 0.572377 0.345163
vn -0.743806 0.572377 0.345163
vn -0.743806 0.572377 0.345163
vn -0.743806 0.572377 0.345163
vn 0.000000 1.000000 0.000000
vn 0.000000 1.000000 0.000000
vn 0.000000 1.000000 0.000000
vn 0.000000 1.000000 0.000000
vn 0.806497 0.480453 -0.344568
vn 0.806497 0.480453 -0.344568
vn 0.806497 0.480453 -0.344568
vn 0.806497 0.480453 -0.344568
vn 0.806497 -0.480453 -0.344568
vn 0.806497 -0.480453 -0.344568
vn 0.806497 -0.480453 -0.344568
vn 0.806497 -0.480453 -0.344568
vn 1.000000 -0.000002 0.000000
vn 1.000000 -0.000002 0.000000
vn 1.000000 -0.000002 0.000000
vn 1.000000 -0.000002 -0.000000
vn 1.000000 -0.000002 -0.000000
vn 1.000000 -0.000002 -0.000000
vn 1.000000 0.000000 0.000000
vn 1.000000 0.000000 0.000000
vn 1.000000 0.000000 0.000000
vn 1.000000 -0.000000 0.000001
vn 1.000000 -0.000000 0.000001
vn 1.000000 -0.000000 0.000001
vn 1.000000 -0.000001 0.000001
vn 1.000000 -0.000001 0.000001
vn 1.000000 -0.000001 0.000001
vn 1.000000 -0.000001 0.000001
vn 1.000000 -0.000001 0.000001
vn 1.000000 -0.000001 0.000001
vn 0.000000 0.000000 -1.000000
vn 0.000000 0.000000 -1.000000
vn 0.000000 0.000000 -1.000000
vn 0.000000 0.000000 -1.000000
vn 0.000000 0.000000 -1.000000
vn 0.000000 0.000000 -1.000000
vn 0.000000 0.000000 -1.000000
vn 0.000000 0.000000 -1.000000
vn 0.000000 0.000000 -1.000000
vn 0.000000 0.000000 -1.000000
vn 0.000000 0.000000 -1.000000
vn 0.000000 0.000000 -1.000000
vn 0.000000 0.000000 -1.000000
vn 0.000000 0.000000 -1.000000
vn 0.000000 0.000000 -1.000000
vn 0.000000 0.000000 -1.000000
vn 0.000000 0.000000 -1.000000
vn 0.000000 0.000000 -1.000000
vn 0.000000 -1.000000 -0.000000
vn 0.000000 -1.000000 -0.000000
vn 0.000000 -1.000000 -0.000000
vn 0.000000 -1.000000 -0.000000
vn 0.000000 -0.499999 0.866026
vn 0.000000 -0.499999 0.866026
vn 0.000000 -0.499999 0.866026
vn 0.000000 -0.499999 0.866026
vn 0.000000 0.499999 0.866026
vn 0.000000 0.499999 0.866026
vn 0.000000 0.499999 0.866026
vn 0.000000 0.499999 0.866026
vn 0.000000 1.000000 -0.000000
vn 0.000000 1.000000 -0.000000
vn 0.000000 1.000000 -0.000000
vn 0.000000 1.000000 -0.000000
vn -0.000001 0.500000 -0.866026
vn -0.000001 0.500000 -0.866026
vn -0.000001 0.500000 -0.866026
vn -0.000001 0.500000 -0.866026
vn -0.000001 -0.500000 -0.866026
vn -0.000001 -0.500000 -0.866025
vn -0.000001 -0.500000 -0.866026
vn -0.000001 -0.500000 -0.866026
vn 0.866026 -0.500000 0.000000
vn 0.866026 -0.500000 0.000000
vn 0.866026 -0.500000 0.000000
vn 0.866026 -0.500000 0.000000
vn 0.866025 0.500000 0.000000
vn 0.866025 0.500000 0.000000
vn 0.866025 0.500000 0.000000
vn 0.866025 0.500000 0.000000
vn 0.000000 1.000000 0.000000
vn 0.000000 1.000000 0.000000
vn 0.000000 1.000000 0.000000
vn 0.000000 1.000000 0.000000
vn -0.866026 0.500000 0.000000
vn -0.866026 0.500000 0.000000
vn -0.866026 0.500000 0.000000
vn -0.866026 0.500000 0.000000
vn -0.866025 -0.500000 0.000000
vn -0.866025 -0.500000 0.000000
vn -0.866025 -0.500000 0.000000
vn -0.866025 -0.500000 0.000000
vn 0.000000 -1.000000 0.000000
vn 0.000000 -1.000000 0.000000
vn 0.000000 -1.000000 0.000000
vn 0.000000 -1.000000 0.000000
vn -0.833129 -0.553079 -0.000001
vn -0.833129 -0.553079 -0.000001
vn -0.833129 -0.553079 -0.000001
vn -0.833129 -0.553079 -0.000001
vn -0.833129 -0.276539 0.478980
vn -0.833129 -0.276539 0.478980
vn -0.833129 -0.276539 0.478980
vn -0.833129 -0.276539 0.478980
vn -0.833130 0.276539 0.478979
vn -0.833130 0.276539 0.478979
vn -0.833130 0.276539 0.478979
vn -0.833130 0.276539 0.478979
vn -0.833127 0.553081 0.000000
vn -0.833127 0.553081 0.000000
vn -0.833127 0.553081 0.000000
vn -0.833127 0.553081 0.000000
vn -0.833126 0.276541 -0.478984
vn -0.833126 0.276541 -0.478984
vn -0.833126 0.276541 -0.478984
vn -0.833126 0.276541 -0.478984
vn -0.833127 -0.276540 -0.478983
vn -0.833127 -0.276540 -0.478983
vn -0.833127 -0.276540 -0.478983
vn -0.833127 -0.276540 -0.478983
vn 0.478980 -0.276539 0.833129
vn 0.478980 -0.276539 0.833129
vn 0.478980 -0.276539 0.833129
vn 0.478980 -0.276539 0.833129
vn 0.478980 0.276539 0.833129
vn 0.478980 0.276539 0.833129
vn 0.478980 0.276539 0.833129
vn 0.478980 0.276539 0.833129
vn 0.000000 0.553079 0.833129
vn 0.000000 0.553079 0.833129
vn 0.000000 0.553079 0.833129
vn 0.000000 0.553079 0.833129
vn -0.478980 0.276539 0.833129
vn -0.478980 0.276539 0.833129
vn -0.478980 0.276539 0.833129
vn -0.478980 0.276539 0.833129
vn -0.478980 -0.276539 0.833129
vn -0.478980 -0.276539 0.833129
vn -0.478980 -0.276539 0.833129
vn -0.478980 -0.276539 0.833129
vn 0.000000 -0.553078 0.833129
vn 0.000000 -0.553079 0.833129
vn 0.000000 -0.553079 0.833129
vn 0.000000 -0.553079 0.833129
vn 0.000000 -1.000000 0.000000
vn 0.000000 -1.000000 0.000000
vn 0.000000 -1.000000 0.000000
vn 0.000000 -1.000000 0.000000
vn -0.338937 -0.573595 0.745729
vn -0.338937 -0.573595 0.745729
vn -0.338937 -0.573595 0.745729
vn -0.338937 -0.573595 0.745729
vn -0.340534 0.576376 0.742850
vn -0.340534 0.576376 0.742850
vn -0.340534 0.576376 0.742850
vn -0.340534 0.576376 0.742850
vn 0.000000 1.000000 -0.000000
vn 0.000000 1.000000 -0.000000
vn 0.000000 1.000000 -0.000000
vn 0.000000 1.000000 -0.000000
vn 0.319642 0.480279 -0.816800
vn 0.319642 0.480279 -0.816800
vn 0.319642 0.480279 -0.816800
vn 0.319642 0.480279 -0.816800
vn 0.319642 -0.480279 -0.816800
vn 0.319642 -0.480279 -0.816800
vn 0.319642 -0.480279 -0.816800
vn 0.319642 -0.480279 -0.816800
vn 0.866026 -0.500000 0.000000
vn 0.866026 -0.500000 0.000000
vn 0.866026 -0.500000 0.000000
vn 0.866026 -0.500000 0.000000
vn 0.866025 0.500000 0.000000
vn 0.866026 0.500000 0.000000
vn 0.866025 0.500000 0.000000
vn 0.866025 0.500000 0.000000
vn 0.000000 1.000000 -0.000000
vn 0.000000 1.000000 -0.000000
vn 0.000000 1.000000 -0.000000
vn 0.000000 1.000000 -0.000000
vn 0.000000 1.000000 -0.000000
vn -0.866026 0.500000 0.000000
vn -0.866026 0.500000 0.000000
vn -0.866025 0.500000 0.000000
vn -0.866026 0.500000 0.000000
vn -0.866026 0.500000 0.000000
vn -0.866025 -0.500000 0.000000
vn -0.866025 -0.500000 0.000000
vn -0.866025 -0.500000 0.000000
vn -0.866025 -0.500000 0.000000
vn 0.000000 -1.000000 -0.000000
vn 0.000000 -1.000000 -0.000000
vn 0.000000 -1.000000 -0.000000
vn 0.000000 -1.000000 -0.000000
vn 0.000000 -1.000000 -0.000000
vn 0.000000 -1.000000 -0.000000
vn 0.000000 -1.000000 -0.000000
vn 0.000000 -1.000000 -0.000000
vn 0.000000 -0.500000 0.866026
vn 0.000000 -0.500000 0.866026
vn 0.000000 -0.500000 0.866026
vn 0.000000 -0.500000 0.866026
vn 0.000000 -0.500000 0.866026
vn 0.000000 0.500000 0.866025
vn 0.000000 0.500000 0.866025
vn 0.000000 0.500000 0.866025
vn 0.000000 0.500000 0.866025
vn 0.000000 0.500000 0.866025
vn -0.000000 1.000000 0.000000
vn -0.000000 1.000000 0.000000
vn -0.000000 1.000000 0.000000
vn -0.000002 0.500000 -0.866026
vn -0.000002 0.500000 -0.866026
vn -0.000002 0.500000 -0.866026
vn -0.000000 -0.500000 -0.866026
vn -0.000000 -0.500000 -0.866026
vn -0.000000 -0.500000 -0.866026
vn -0.000000 -0.500000 -0.866026
vn -0.361352 0.924659 0.120128
vn -0.361352 0.924659 0.120128
vn -0.361352 0.924659 0.120128
vn -0.428048 0.903611 -0.016190
vn -0.428048 0.903611 -0.016190
vn -0.428048 0.903611 -0.016190
vn -0.117095 -0.105729 0.987477
vn -0.117095 -0.105729 0.987477
vn -0.117095 -0.105729 0.987477
vn -0.235865 -0.114242 0.965047
vn -0.235865 -0.114242 0.965047
vn -0.235865 -0.114242 0.965047
vn -0.268723 0.787792 -0.554231
vn -0.268723 0.787791 -0.554231
vn -0.268723 0.787791 -0.554231
vn -0.000000 0.500000 -0.866026
vn -0.000000 0.500000 -0.866026
vn -0.000000 0.500000 -0.866026
vn -0.000000 0.500000 -0.866026
vn 0.000000 0.499999 -0.866026
vn 0.000000 0.499999 -0.866026
vn 0.000000 0.499999 -0.866026
vn 0.100626 0.876739 -0.470322
vn 0.100626 0.876739 -0.470322
vn 0.100626 0.876739 -0.470322
vn -0.000000 1.000000 0.000000
vn -0.000000 1.000000 0.000000
vn -0.000000 1.000000 0.000000
vn 0.000000 1.000000 0.000000
vn 0.000000 1.000000 0.000000
vn 0.000000 1.000000 0.000000
vn 0.000000 1.000000 0.000000
s off
f 39/51/1 40/52/2 50/62/3 45/57/4
f 40/52/5 41/53/6 49/61/7 50/62/8
f 41/53/9 42/54/10 48/60/11 49/61/12
f 42/54/13 43/55/14 47/59/15 58/70/16
f 43/55/17 44/56/18 46/58/19 47/59/20
f 44/56/21 39/51/22 45/57/23 46/58/24
f 14/13/25 13/14/26 15/15/27
f 16/16/28 14/13/29 15/15/30
f 17/17/31 16/16/32 15/15/33
f 18/18/34 17/17/35 15/15/36
f 19/19/37 18/18/38 15/15/39
f 13/14/40 19/19/41 15/15/42
f 26/20/43 27/21/44 28/22/45
f 27/21/46 29/23/47 28/22/48
f 29/23/49 30/24/50 28/22/51
f 30/24/52 31/25/53 28/22/54
f 31/25/55 32/26/56 28/22/57
f 32/26/58 26/20/59 28/22/60
f 13/14/61 14/13/62 20/27/63 21/28/64
f 14/13/65 16/16/66 22/29/67 20/27/68
f 16/16/69 17/17/70 23/30/71 22/29/72
f 17/17/73 18/18/74 24/31/75 23/30/76
f 18/18/77 19/19/78 25/32/79 24/31/80
f 19/19/81 13/14/82 21/28/83 25/32/84
f 34/33/85 33/34/86 26/20/87 32/26/88
f 35/35/89 34/33/90 32/26/91 31/25/92
f 36/36/93 35/35/94 31/25/95 30/24/96
f 37/37/97 36/36/98 30/24/99 29/23/100
f 38/38/101 37/37/102 29/23/103 27/21/104
f 33/34/105 38/38/106 27/21/107 26/20/108
f 2/2/109 1/1/110 21/28/111 20/27/112
f 3/5/113 2/2/114 20/27/115 22/29/116
f 4/7/117 3/5/118 22/29/119 23/30/120
f 5/9/121 4/7/122 23/30/123 24/31/124
f 6/11/125 5/9/126 24/31/127 25/32/128
f 1/1/129 6/11/130 25/32/131 21/28/132
f 8/12/133 7/4/134 33/34/135 34/33/136
f 9/10/137 8/12/138 34/33/139 35/35/140
f 10/8/141 9/10/142 35/35/143 36/36/144
f 11/6/145 10/8/146 36/36/147 37/37/148
f 12/3/149 11/6/150 37/37/151 38/38/152
f 7/4/153 12/3/154 38/38/155 33/34/156
f 51/63/157 52/64/158 40/52/159 39/51/160
f 52/64/161 60/72/162 41/53/163 40/52/164
f 41/53/165 53/65/166 54/66/167 42/54/168
f 54/66/169 55/67/170 43/55/171 42/54/172
f 55/67/173 56/68/174 44/56/175 43/55/176
f 56/68/177 51/63/178 39/51/179 44/56/180
f 46/58/181 45/57/182 7/42/183 8/50/184
f 47/59/185 46/58/186 8/50/187 9/48/188
f 57/69/189 58/70/190 47/59/191 9/48/192 10/46/193
f 49/61/194 48/60/195 57/69/196 10/46/197 11/44/198
f 50/62/199 49/61/200 11/44/201 12/41/202
f 45/57/203 50/62/204 12/41/205 7/42/206
f 1/39/207 2/40/208 52/64/209 51/63/210
f 2/40/211 3/43/212 59/71/213 60/72/214 52/64/215
f 3/43/216 4/45/217 54/66/218 53/65/219 59/71/220
f 4/45/221 5/47/222 62/74/223
f 5/47/224 6/49/225 63/75/226
f 6/49/227 1/39/228 51/63/229 56/68/230
f 48/60/231 58/70/232 57/69/233
f 42/54/234 58/70/235 48/60/236
f 60/72/237 59/71/238 53/65/239
f 41/53/240 60/72/241 53/65/242
f 63/75/243 62/74/244 5/47/245
f 63/75/246 56/68/247 55/67/248 61/73/249
f 63/75/250 6/49/251 56/68/252
f 61/73/253 62/74/254 63/75/255
f 4/45/256 62/74/257 54/66/258
f 54/66/259 62/74/260 61/73/261 55/67/262
