# This file uses centimeters as units for non-parametric coordinates.

v 21.736977 4.127335 -118.539597
v 17.027718 2.550827 -118.539597
v 17.027718 -2.550827 -118.539597
v 21.736977 -4.127335 -118.539597
v 24.647461 0.000000 -118.539597
v 21.736977 4.127335 113.084244
v 17.027718 2.550827 113.084244
v 17.027718 -2.550827 113.084244
v 21.736977 -4.127335 113.084244
v 24.647461 0.000000 113.084244
v 20.435371 0.000000 -118.539597
v 20.435371 0.000000 113.084244
v -21.836311 -4.127335 -118.539597
v -17.127068 -2.550827 -118.539597
v -17.127068 2.550827 -118.539597
v -21.836311 4.127335 -118.539597
v -24.746788 0.000000 -118.539597
v -21.836311 -4.127335 113.084244
v -17.127068 -2.550827 113.084244
v -17.127068 2.550827 113.084244
v -21.836311 4.127335 113.084244
v -24.746788 0.000000 113.084244
v -20.534721 0.000000 -118.539597
v -20.534721 0.000000 113.084244
v 0.000000 -3.078857 110.005356
v 0.000000 -4.354187 113.084244
v 0.000000 -3.078857 116.163162
v 0.000000 0.000000 117.438461
v 0.000000 3.078857 116.163162
v 0.000000 4.354187 113.084244
v 0.000000 3.078857 110.005356
v 0.000000 0.000000 108.730057
v -20.286087 -3.078857 110.005356
v -20.286087 0.000000 108.730057
v -20.286087 3.078857 110.005356
v -20.286087 4.354187 113.084244
v -20.286087 3.078857 116.163162
v -20.286087 0.000000 117.438492
v -20.286087 -3.078857 116.163162
v -20.286087 -4.354187 113.084244
v 20.286102 -3.078857 110.005325
v 20.286102 -4.354187 113.084244
v 20.286102 -3.078857 116.163162
v 20.286102 0.000000 117.438461
v 20.286102 3.078888 116.163162
v 20.286102 4.354187 113.084244
v 20.286102 3.078888 110.005325
v 20.286102 0.000000 108.730057
v -25.357613 -3.857452 109.226761
v -25.357613 -5.455292 113.084244
v -25.357613 -3.857452 116.941788
v -25.357613 0.000000 118.539566
v -25.357613 3.857452 116.941788
v -25.357613 5.455292 113.084244
v -25.357613 3.857452 109.226761
v -25.357613 0.000000 107.628983
v -20.625877 -3.857452 109.226761
v -20.625877 0.000000 107.628983
v -20.625877 3.857452 109.226761
v -20.625877 5.455292 113.084244
v -20.625877 3.857452 116.941788
v -20.625877 0.000000 118.539597
v -20.625877 -3.857452 116.941788
v -20.625877 -5.455292 113.084244
v 25.357620 0.000000 107.628983
v 25.357620 -3.857452 109.226761
v 25.357620 3.857452 109.226761
v 25.357620 5.455292 113.084244
v 25.357620 3.857452 116.941788
v 25.357620 0.000000 118.539566
v 25.357620 -3.857452 116.941788
v 25.357620 -5.455292 113.084244
v 20.625900 -5.455292 113.084244
v 20.625900 -3.857452 109.226730
v 20.625900 -3.857452 116.941788
v 20.625900 0.000000 118.539566
v 20.625900 3.857483 116.941788
v 20.625900 5.455292 113.084244
v 20.625900 3.857483 109.226730
v 20.625900 0.000000 107.628983
v -25.357613 0.000000 113.084274
v 25.357590 0.000000 113.084274
vt 0.090302 0.231829
vt 0.090308 0.231841
vt 0.089367 0.231845
vt 0.089367 0.231834
vt 0.090305 0.231861
vt 0.089367 0.231865
vt 0.090298 0.231861
vt 0.089367 0.231866
vt 0.090296 0.231842
vt 0.089367 0.231847
vt 0.090302 0.231847
vt 0.089367 0.231851
vt 0.090360 0.231915
vt 0.090354 0.231903
vt 0.089367 0.231908
vt 0.089367 0.231921
vt 0.090356 0.231882
vt 0.089367 0.231887
vt 0.090364 0.231881
vt 0.089367 0.231887
vt 0.090367 0.231902
vt 0.089367 0.231907
vt 0.090360 0.231897
vt 0.089367 0.231902
vt 0.090100 0.227187
vt 0.090006 0.227249
vt 0.090006 0.227249
vt 0.090100 0.227187
vt 0.089997 0.227345
vt 0.089997 0.227345
vt 0.090084 0.227418
vt 0.090084 0.227418
vt 0.090218 0.227422
vt 0.090218 0.227422
vt 0.090313 0.227354
vt 0.090313 0.227354
vt 0.090314 0.227258
vt 0.090314 0.227258
vt 0.090226 0.227191
vt 0.090226 0.227191
vt 0.090100 0.227187
vt 0.090006 0.227249
vt 0.089997 0.227345
vt 0.090084 0.227418
vt 0.090218 0.227422
vt 0.090313 0.227354
vt 0.090314 0.227258
vt 0.090226 0.227191
vt 0.090226 0.227191
vt 0.090100 0.227187
vt 0.090100 0.227187
vt 0.090226 0.227191
vt 0.090314 0.227258
vt 0.090314 0.227258
vt 0.090313 0.227354
vt 0.090313 0.227354
vt 0.090218 0.227422
vt 0.090218 0.227422
vt 0.090084 0.227418
vt 0.090084 0.227418
vt 0.089997 0.227345
vt 0.089997 0.227345
vt 0.090006 0.227249
vt 0.090006 0.227249
vt 0.090100 0.227187
vt 0.090006 0.227249
vt 0.090006 0.227249
vt 0.090100 0.227187
vt 0.089997 0.227345
vt 0.089997 0.227345
vt 0.090084 0.227418
vt 0.090084 0.227418
vt 0.090218 0.227422
vt 0.090218 0.227422
vt 0.090313 0.227354
vt 0.090313 0.227354
vt 0.090314 0.227258
vt 0.090314 0.227258
vt 0.090226 0.227191
vt 0.090226 0.227191
vt 0.090157 0.227303
vt 0.090100 0.227187
vt 0.090226 0.227191
vt 0.090157 0.227303
vt 0.090314 0.227258
vt 0.090313 0.227354
vt 0.090218 0.227422
vt 0.090084 0.227418
vt 0.089997 0.227345
vt 0.090006 0.227249
vn -0.317452 0.948274 0.000000
vn -0.317452 0.948274 0.000000
vn -0.317452 0.948274 0.000000
vn -0.317452 0.948274 0.000000
vn -1.000000 0.000000 0.000000
vn -1.000000 0.000000 0.000000
vn -1.000000 0.000000 0.000000
vn -1.000000 0.000000 0.000000
vn -0.317452 -0.948274 0.000000
vn -0.317452 -0.948274 0.000000
vn -0.317452 -0.948274 0.000000
vn -0.317452 -0.948274 0.000000
vn 0.817241 -0.576296 0.000000
vn 0.817241 -0.576296 0.000000
vn 0.817241 -0.576296 0.000000
vn 0.817241 -0.576296 0.000000
vn 0.817241 0.576296 0.000000
vn 0.817241 0.576296 0.000000
vn 0.817241 0.576296 0.000000
vn 0.817241 0.576296 0.000000
vn 0.000000 0.000000 -1.000000
vn 0.000000 0.000000 -1.000000
vn 0.000000 0.000000 -1.000000
vn 0.000000 0.000000 -1.000000
vn 0.000000 0.000000 -1.000000
vn 0.000000 0.000000 -1.000000
vn 0.000000 0.000000 -1.000000
vn 0.000000 0.000000 -1.000000
vn 0.000000 0.000000 -1.000000
vn 0.000000 0.000000 -1.000000
vn 0.000000 0.000000 -1.000000
vn 0.000000 0.000000 -1.000000
vn 0.000000 0.000000 -1.000000
vn 0.000000 0.000000 -1.000000
vn 0.000000 0.000000 -1.000000
vn 0.000000 0.000000 1.000000
vn 0.000000 0.000000 1.000000
vn 0.000000 0.000000 1.000000
vn 0.000000 0.000000 1.000000
vn 0.000000 0.000000 1.000000
vn 0.000000 0.000000 1.000000
vn 0.000000 0.000000 1.000000
vn 0.000000 0.000000 1.000000
vn 0.000000 0.000000 1.000000
vn 0.000000 0.000000 1.000000
vn 0.000000 0.000000 1.000000
vn 0.000000 0.000000 1.000000
vn 0.000000 0.000000 1.000000
vn 0.000000 0.000000 1.000000
vn 0.000000 0.000000 1.000000
vn 0.317453 -0.948274 0.000000
vn 0.317453 -0.948274 0.000000
vn 0.317453 -0.948274 0.000000
vn 0.317453 -0.948274 0.000000
vn 1.000000 0.000000 0.000000
vn 1.000000 0.000000 0.000000
vn 1.000000 0.000000 0.000000
vn 1.000000 0.000000 0.000000
vn 0.317453 0.948274 0.000000
vn 0.317453 0.948274 0.000000
vn 0.317453 0.948274 0.000000
vn 0.317453 0.948274 0.000000
vn -0.817241 0.576295 0.000000
vn -0.817241 0.576295 0.000000
vn -0.817241 0.576295 0.000000
vn -0.817241 0.576295 0.000000
vn -0.817241 -0.576295 0.000000
vn -0.817241 -0.576295 0.000000
vn -0.817241 -0.576295 0.000000
vn -0.817241 -0.576295 0.000000
vn 0.000000 0.000000 -1.000000
vn 0.000000 0.000000 -1.000000
vn 0.000000 0.000000 -1.000000
vn 0.000000 0.000000 -1.000000
vn 0.000000 0.000000 -1.000000
vn 0.000000 0.000000 -1.000000
vn 0.000000 0.000000 -1.000000
vn 0.000000 0.000000 -1.000000
vn 0.000000 0.000000 -1.000000
vn 0.000000 0.000000 -1.000000
vn 0.000000 0.000000 -1.000000
vn 0.000000 0.000000 -1.000000
vn 0.000000 0.000000 -1.000000
vn 0.000000 0.000000 -1.000000
vn 0.000000 0.000000 -1.000000
vn 0.000000 0.000000 1.000000
vn 0.000000 0.000000 1.000000
vn 0.000000 0.000000 1.000000
vn 0.000000 0.000000 1.000000
vn 0.000000 0.000000 1.000000
vn 0.000000 0.000000 1.000000
vn 0.000000 0.000000 1.000000
vn 0.000000 0.000000 1.000000
vn 0.000000 0.000000 1.000000
vn 0.000000 0.000000 1.000000
vn 0.000000 0.000000 1.000000
vn 0.000000 0.000000 1.000000
vn 0.000000 0.000000 1.000000
vn 0.000000 0.000000 1.000000
vn 0.000000 0.000000 1.000000
vn 0.000000 -0.923878 -0.382687
vn 0.000000 -0.923878 -0.382687
vn 0.000000 -0.923878 -0.382687
vn 0.000000 -0.923878 -0.382687
vn 0.000000 -0.923880 0.382683
vn 0.000000 -0.923880 0.382683
vn 0.000000 -0.923880 0.382683
vn 0.000000 -0.923880 0.382683
vn 0.000001 -0.382686 0.923879
vn 0.000001 -0.382686 0.923879
vn 0.000001 -0.382686 0.923878
vn 0.000001 -0.382686 0.923879
vn 0.000001 0.382686 0.923879
vn 0.000001 0.382686 0.923879
vn 0.000001 0.382686 0.923879
vn 0.000001 0.382686 0.923878
vn 0.000000 0.923880 0.382683
vn 0.000000 0.923880 0.382683
vn 0.000000 0.923880 0.382683
vn 0.000000 0.923880 0.382683
vn 0.000000 0.923878 -0.382687
vn 0.000000 0.923878 -0.382687
vn 0.000000 0.923878 -0.382687
vn 0.000000 0.923878 -0.382687
vn 0.000000 0.382682 -0.923880
vn 0.000000 0.382682 -0.923880
vn 0.000000 0.382682 -0.923880
vn 0.000000 0.382682 -0.923880
vn 0.000000 -0.382682 -0.923880
vn 0.000000 -0.382682 -0.923880
vn 0.000000 -0.382682 -0.923880
vn 0.000000 -0.382682 -0.923880
vn -0.000000 -0.923879 -0.382685
vn -0.000000 -0.923879 -0.382685
vn -0.000000 -0.923879 -0.382685
vn -0.000000 -0.923879 -0.382685
vn 0.000000 -0.923880 0.382683
vn 0.000000 -0.923880 0.382683
vn 0.000000 -0.923880 0.382683
vn 0.000000 -0.923880 0.382683
vn 0.000000 -0.382682 0.923880
vn 0.000000 -0.382682 0.923880
vn 0.000000 -0.382682 0.923880
vn 0.000000 -0.382682 0.923880
vn -0.000000 0.382680 0.923881
vn -0.000000 0.382680 0.923881
vn -0.000000 0.382680 0.923881
vn -0.000000 0.382680 0.923881
vn -0.000001 0.923881 0.382680
vn -0.000001 0.923881 0.382679
vn -0.000001 0.923881 0.382679
vn -0.000001 0.923881 0.382679
vn -0.000001 0.923881 -0.382681
vn -0.000001 0.923881 -0.382681
vn -0.000001 0.923881 -0.382681
vn -0.000001 0.923881 -0.382681
vn -0.000001 0.382677 -0.923882
vn -0.000001 0.382677 -0.923882
vn -0.000001 0.382677 -0.923882
vn -0.000001 0.382677 -0.923882
vn -0.000000 -0.382678 -0.923882
vn -0.000000 -0.382678 -0.923882
vn -0.000000 -0.382678 -0.923882
vn -0.000000 -0.382678 -0.923882
vn 0.000000 -0.382677 -0.923882
vn 0.000000 -0.382677 -0.923882
vn 0.000000 -0.382677 -0.923882
vn 0.000000 -0.382677 -0.923882
vn 0.000000 0.382677 -0.923882
vn 0.000000 0.382677 -0.923882
vn 0.000000 0.382677 -0.923882
vn 0.000000 0.382677 -0.923882
vn 0.000000 0.923878 -0.382687
vn 0.000000 0.923878 -0.382687
vn 0.000000 0.923878 -0.382687
vn 0.000000 0.923878 -0.382687
vn 0.000000 0.923880 0.382682
vn 0.000000 0.923880 0.382682
vn 0.000000 0.923880 0.382682
vn 0.000000 0.923880 0.382682
vn -0.000003 0.382680 0.923881
vn -0.000003 0.382680 0.923881
vn -0.000003 0.382680 0.923881
vn -0.000003 0.382680 0.923881
vn -0.000003 -0.382680 0.923881
vn -0.000003 -0.382680 0.923881
vn -0.000003 -0.382680 0.923881
vn -0.000003 -0.382680 0.923881
vn 0.000000 -0.923880 0.382682
vn 0.000000 -0.923880 0.382682
vn 0.000000 -0.923880 0.382682
vn 0.000000 -0.923880 0.382682
vn 0.000000 -0.923878 -0.382687
vn 0.000000 -0.923878 -0.382687
vn 0.000000 -0.923878 -0.382687
vn 0.000000 -0.923878 -0.382687
vn 0.000002 -0.923879 -0.382686
vn 0.000002 -0.923879 -0.382686
vn 0.000002 -0.923879 -0.382686
vn 0.000002 -0.923879 -0.382686
vn 0.000000 -0.923880 0.382682
vn 0.000000 -0.923880 0.382682
vn 0.000000 -0.923880 0.382682
vn 0.000000 -0.923880 0.382682
vn 0.000000 -0.382677 0.923882
vn 0.000000 -0.382677 0.923882
vn 0.000000 -0.382677 0.923882
vn 0.000000 -0.382677 0.923882
vn 0.000002 0.382676 0.923883
vn 0.000002 0.382676 0.923883
vn 0.000002 0.382676 0.923883
vn 0.000002 0.382676 0.923883
vn 0.000003 0.923882 0.382679
vn 0.000003 0.923882 0.382679
vn 0.000003 0.923882 0.382679
vn 0.000003 0.923882 0.382679
vn 0.000005 0.923880 -0.382683
vn 0.000005 0.923880 -0.382683
vn 0.000005 0.923880 -0.382683
vn 0.000005 0.923880 -0.382683
vn 0.000003 0.382673 -0.923884
vn 0.000003 0.382673 -0.923884
vn 0.000003 0.382673 -0.923884
vn 0.000003 0.382673 -0.923884
vn 0.000003 -0.382674 -0.923883
vn 0.000003 -0.382674 -0.923883
vn 0.000003 -0.382674 -0.923883
vn 0.000003 -0.382674 -0.923883
vn 0.948488 -0.121237 -0.292698
vn 0.948488 -0.121237 -0.292698
vn 0.948488 -0.121237 -0.292698
vn 0.948488 -0.121237 -0.292698
vn 0.948488 0.121238 -0.292699
vn 0.948488 0.121238 -0.292699
vn 0.948488 0.121238 -0.292699
vn 0.948488 0.121238 -0.292699
vn 0.948488 0.292697 -0.121240
vn 0.948488 0.292697 -0.121240
vn 0.948488 0.292697 -0.121240
vn 0.948488 0.292697 -0.121240
vn 0.948489 0.292694 0.121237
vn 0.948489 0.292694 0.121237
vn 0.948489 0.292694 0.121237
vn 0.948489 0.292694 0.121237
vn 0.948490 0.121237 0.292691
vn 0.948490 0.121237 0.292691
vn 0.948490 0.121237 0.292691
vn 0.948490 0.121237 0.292691
vn 0.948490 -0.121238 0.292692
vn 0.948490 -0.121238 0.292692
vn 0.948490 -0.121238 0.292692
vn 0.948490 -0.121238 0.292692
vn 0.948489 -0.292695 0.121237
vn 0.948489 -0.292695 0.121237
vn 0.948489 -0.292695 0.121237
vn 0.948489 -0.292695 0.121237
vn 0.948488 -0.292696 -0.121239
vn 0.948488 -0.292696 -0.121239
vn 0.948488 -0.292696 -0.121239
vn 0.948488 -0.292696 -0.121239
vn -0.948486 -0.292702 -0.121241
vn -0.948486 -0.292702 -0.121241
vn -0.948486 -0.292702 -0.121241
vn -0.948486 -0.292702 -0.121241
vn -0.948487 -0.292699 0.121240
vn -0.948487 -0.292699 0.121240
vn -0.948487 -0.292699 0.121240
vn -0.948487 -0.292699 0.121240
vn -0.948488 -0.121238 0.292697
vn -0.948488 -0.121238 0.292697
vn -0.948488 -0.121238 0.292697
vn -0.948488 -0.121238 0.292697
vn -0.948488 0.121236 0.292698
vn -0.948488 0.121236 0.292698
vn -0.948488 0.121236 0.292698
vn -0.948488 0.121236 0.292698
vn -0.948487 0.292700 0.121237
vn -0.948487 0.292700 0.121237
vn -0.948487 0.292700 0.121237
vn -0.948487 0.292700 0.121237
vn -0.948487 0.292702 -0.121239
vn -0.948487 0.292702 -0.121239
vn -0.948487 0.292702 -0.121239
vn -0.948487 0.292702 -0.121239
vn -0.948485 0.121238 -0.292706
vn -0.948485 0.121238 -0.292706
vn -0.948485 0.121238 -0.292706
vn -0.948485 0.121238 -0.292706
vn -0.948486 -0.121238 -0.292704
vn -0.948486 -0.121238 -0.292704
vn -0.948486 -0.121238 -0.292704
vn -0.948486 -0.121238 -0.292704
vn -1.000000 0.000000 0.000000
vn -1.000000 0.000000 0.000000
vn -1.000000 0.000000 0.000000
vn -1.000000 0.000000 0.000000
vn -1.000000 0.000000 0.000000
vn -1.000000 0.000000 0.000000
vn -1.000000 -0.000001 0.000000
vn -1.000000 -0.000001 0.000000
vn -1.000000 -0.000001 0.000000
vn -1.000000 0.000000 0.000000
vn -1.000000 0.000000 0.000000
vn -1.000000 0.000000 0.000000
vn -1.000000 -0.000001 0.000000
vn -1.000000 -0.000001 0.000000
vn -1.000000 -0.000001 0.000000
vn -1.000000 -0.000000 0.000000
vn -1.000000 -0.000000 0.000000
vn -1.000000 -0.000000 0.000000
vn -1.000000 0.000001 0.000000
vn -1.000000 0.000001 0.000000
vn -1.000000 0.000001 0.000000
vn -1.000000 0.000000 0.000000
vn -1.000000 0.000000 0.000000
vn -1.000000 0.000000 0.000000
vn 1.000000 0.000002 0.000006
vn 1.000000 0.000002 0.000006
vn 1.000000 0.000002 0.000006
vn 1.000000 -0.000003 0.000006
vn 1.000000 -0.000003 0.000006
vn 1.000000 -0.000003 0.000006
vn 1.000000 -0.000006 0.000002
vn 1.000000 -0.000006 0.000002
vn 1.000000 -0.000006 0.000002
vn 1.000000 -0.000006 -0.000002
vn 1.000000 -0.000006 -0.000002
vn 1.000000 -0.000006 -0.000002
vn 1.000000 -0.000002 -0.000006
vn 1.000000 -0.000002 -0.000006
vn 1.000000 -0.000002 -0.000006
vn 1.000000 0.000003 -0.000006
vn 1.000000 0.000003 -0.000006
vn 1.000000 0.000003 -0.000006
vn 1.000000 0.000007 -0.000002
vn 1.000000 0.000007 -0.000002
vn 1.000000 0.000007 -0.000002
vn 1.000000 0.000006 0.000002
vn 1.000000 0.000006 0.000002
vn 1.000000 0.000006 0.000002
s off
f 1/1/1 2/2/2 7/3/3 6/4/4
f 2/2/5 3/5/6 8/6/7 7/3/8
f 3/5/9 4/7/10 9/8/11 8/6/12
f 4/7/13 5/9/14 10/10/15 9/8/16
f 5/9/17 1/1/18 6/4/19 10/10/20
f 2/2/21 1/1/22 11/11/23
f 3/5/24 2/2/25 11/11/26
f 4/7/27 3/5/28 11/11/29
f 5/9/30 4/7/31 11/11/32
f 1/1/33 5/9/34 11/11/35
f 6/4/36 7/3/37 12/12/38
f 7/3/39 8/6/40 12/12/41
f 8/6/42 9/8/43 12/12/44
f 9/8/45 10/10/46 12/12/47
f 10/10/48 6/4/49 12/12/50
f 13/13/51 14/14/52 19/15/53 18/16/54
f 14/14/55 15/17/56 20/18/57 19/15/58
f 15/17/59 16/19/60 21/20/61 20/18/62
f 16/19/63 17/21/64 22/22/65 21/20/66
f 17/21/67 13/13/68 18/16/69 22/22/70
f 14/14/71 13/13/72 23/23/73
f 15/17/74 14/14/75 23/23/76
f 16/19/77 15/17/78 23/23/79
f 17/21/80 16/19/81 23/23/82
f 13/13/83 17/21/84 23/23/85
f 18/16/86 19/15/87 24/24/88
f 19/15/89 20/18/90 24/24/91
f 20/18/92 21/20/93 24/24/94
f 21/20/95 22/22/96 24/24/97
f 22/22/98 18/16/99 24/24/100
f 25/25/101 26/26/102 40/27/103 33/28/104
f 26/26/105 27/29/106 39/30/107 40/27/108
f 27/29/109 28/31/110 38/32/111 39/30/112
f 28/31/113 29/33/114 37/34/115 38/32/116
f 29/33/117 30/35/118 36/36/119 37/34/120
f 30/35/121 31/37/122 35/38/123 36/36/124
f 31/37/125 32/39/126 34/40/127 35/38/128
f 32/39/129 25/25/130 33/28/131 34/40/132
f 41/41/133 42/42/134 26/26/135 25/25/136
f 42/42/137 43/43/138 27/29/139 26/26/140
f 43/43/141 44/44/142 28/31/143 27/29/144
f 44/44/145 45/45/146 29/33/147 28/31/148
f 45/45/149 46/46/150 30/35/151 29/33/152
f 46/46/153 47/47/154 31/37/155 30/35/156
f 47/47/157 48/48/158 32/39/159 31/37/160
f 48/48/161 41/41/162 25/25/163 32/39/164
f 58/49/165 57/50/166 49/51/167 56/52/168
f 59/53/169 58/49/170 56/52/171 55/54/172
f 60/55/173 59/53/174 55/54/175 54/56/176
f 61/57/177 60/55/178 54/56/179 53/58/180
f 62/59/181 61/57/182 53/58/183 52/60/184
f 63/61/185 62/59/186 52/60/187 51/62/188
f 64/63/189 63/61/190 51/62/191 50/64/192
f 57/50/193 64/63/194 50/64/195 49/51/196
f 66/65/197 72/66/198 73/67/199 74/68/200
f 72/66/201 71/69/202 75/70/203 73/67/204
f 71/69/205 70/71/206 76/72/207 75/70/208
f 70/71/209 69/73/210 77/74/211 76/72/212
f 69/73/213 68/75/214 78/76/215 77/74/216
f 68/75/217 67/77/218 79/78/219 78/76/220
f 67/77/221 65/79/222 80/80/223 79/78/224
f 65/79/225 66/65/226 74/68/227 80/80/228
f 34/40/229 33/28/230 57/50/231 58/49/232
f 35/38/233 34/40/234 58/49/235 59/53/236
f 36/36/237 35/38/238 59/53/239 60/55/240
f 37/34/241 36/36/242 60/55/243 61/57/244
f 38/32/245 37/34/246 61/57/247 62/59/248
f 39/30/249 38/32/250 62/59/251 63/61/252
f 40/27/253 39/30/254 63/61/255 64/63/256
f 33/28/257 40/27/258 64/63/259 57/50/260
f 42/42/261 41/41/262 74/68/263 73/67/264
f 43/43/265 42/42/266 73/67/267 75/70/268
f 44/44/269 43/43/270 75/70/271 76/72/272
f 45/45/273 44/44/274 76/72/275 77/74/276
f 46/46/277 45/45/278 77/74/279 78/76/280
f 47/47/281 46/46/282 78/76/283 79/78/284
f 48/48/285 47/47/286 79/78/287 80/80/288
f 41/41/289 48/48/290 80/80/291 74/68/292
f 49/51/293 50/64/294 81/81/295
f 50/64/296 51/62/297 81/81/298
f 51/62/299 52/60/300 81/81/301
f 52/60/302 53/58/303 81/81/304
f 53/58/305 54/56/306 81/81/307
f 54/56/308 55/54/309 81/81/310
f 55/54/311 56/52/312 81/81/313
f 56/52/314 49/51/315 81/81/316
f 66/82/317 65/83/318 82/84/319
f 65/83/320 67/85/321 82/84/322
f 67/85/323 68/86/324 82/84/325
f 68/86/326 69/87/327 82/84/328
f 69/87/329 70/88/330 82/84/331
f 70/88/332 71/89/333 82/84/334
f 71/89/335 72/90/336 82/84/337
f 72/90/338 66/82/339 82/84/340
