# This file uses centimeters as units for non-parametric coordinates.

v 29.258190 -11.121710 2.969787
v 29.246780 11.135624 2.983359
v 33.187786 11.121737 0.000000
v 33.187786 -11.121713 -3.123620
v 33.187786 11.121737 -3.123620
v 29.258190 0.000000 2.969787
v 14.670033 0.021676 3.003608
v 6.700215 9.081476 1.436579
v 13.849507 -1.883928 4.383220
v 27.296425 -9.232820 4.376689
v 27.296425 -1.888892 4.376689
v 11.282619 -2.762564 4.376689
v 4.877620 2.461339 4.376689
v 4.877620 -8.061166 4.376689
v 4.178959 -6.531714 5.683396
v 8.548984 -3.087209 5.683396
v 4.186143 0.931885 5.683396
v 15.201395 2.354826 1.436578
v 26.534746 11.107845 1.436579
v 33.187786 -0.000011 0.000000
v 29.258190 -11.121710 12.452925
v 29.258190 0.000000 12.452925
v 27.296425 -1.888892 12.452936
v 33.187786 -11.121713 12.452894
v 33.187786 -0.000011 12.452894
v 33.187786 -9.232820 15.868737
v 27.296425 2.217298 18.709019
v 27.296425 2.217371 15.293172
v 33.187786 2.217350 16.805573
v 33.187786 2.217390 15.293130
v -29.258135 -11.121710 2.969787
v -29.246738 11.135624 2.983359
v -33.187733 11.121737 0.000000
v -33.187733 -11.121713 -3.123620
v -33.187733 11.121737 -3.123620
v -29.258135 -0.000000 2.969787
v -14.669989 0.021676 3.003608
v -6.700171 9.081476 1.436579
v -13.849463 -1.883928 4.383220
v -27.296368 -9.232820 4.376689
v -27.296368 -1.888892 4.376689
v -5.680473 4.851454 4.376689
v -11.282585 -2.762564 4.376689
v -4.877586 2.461339 4.376689
v -4.833243 -8.061166 4.376689
v -4.355749 -6.399318 5.683396
v -8.725541 -2.637009 5.683396
v -2.675191 0.814582 5.683396
v -15.201340 2.354826 1.436578
v -26.534702 11.107845 1.436579
v -33.187733 -0.000011 -0.000000
v -29.258135 -11.121710 12.452925
v -29.258135 -0.000000 12.452925
v -27.296368 -1.888892 12.452936
v -27.296368 -9.232820 15.868780
v -33.187733 -11.121713 12.452894
v -33.187733 -0.000011 12.452894
v -33.187733 -9.232820 15.868737
v -27.296368 2.217298 18.709019
v -27.296368 2.217371 15.293172
v -33.187733 2.217348 16.848150
v -33.187733 2.217390 15.293130
v 33.187786 0.402213 18.258739
v 30.967789 2.217298 18.708992
v -33.187733 0.643419 18.318571
v 5.935450 5.908959 3.641662
v 7.722773 3.167608 4.378322
v 5.111213 3.156703 4.376689
v 2.840278 4.851454 4.376689
v -18.718708 3.108598 2.997983
v -26.277832 8.872002 2.987483
v -22.451849 4.045736 2.990475
v -20.516716 5.355504 2.329640
v -4.433779 1.684546 4.985185
v 7.596808 11.107845 1.436579
v -14.131682 11.107844 1.436579
v -2.319125 10.235046 1.436579
v -9.395090 10.399981 1.436579
v -8.057112 11.111664 0.182837
v 33.187786 -0.000011 3.722755
v 33.187786 -0.777385 9.946074
v 31.715670 -0.000007 8.696374
v -33.187733 -0.000011 10.135611
v -33.187733 -0.853724 4.777042
v -31.430271 -0.000006 5.933545
v 27.296425 -9.232820 12.995757
v 28.769264 -9.232820 15.868769
v 27.296425 -6.370290 16.578840
vt 0.082895 0.753954
vt 0.083170 0.754127
vt 0.082938 0.753963
vt 0.082908 0.753947
vt 0.082911 0.754271
vt 0.082955 0.754297
vt 0.082949 0.754126
vt 0.083170 0.754040
vt 0.080079 0.755350
vt 0.079862 0.755467
vt 0.079856 0.755343
vt 0.079841 0.755489
vt 0.079832 0.755303
vt 0.080072 0.755310
vt 0.080204 0.755186
vt 0.080140 0.755352
vt 0.080238 0.755261
vt 0.080228 0.755355
vt 0.080228 0.755355
vt 0.080140 0.755352
vt 0.080238 0.755261
vt 0.080068 0.755256
vt 0.083143 0.754091
vt 0.082974 0.753964
vt 0.082949 0.754126
vt 0.082955 0.754297
vt 0.082910 0.754271
vt 0.082901 0.754119
vt 0.082901 0.754119
vt 0.079832 0.755303
vt 0.079856 0.755342
vt 0.079840 0.755493
vt 0.082949 0.754126
vt 0.082901 0.754119
vt 0.082908 0.754281
vt 0.082954 0.754300
vt 0.082799 0.754353
vt 0.082907 0.754284
vt 0.082901 0.754113
vt 0.082949 0.754126
vt 0.082907 0.754284
vt 0.079856 0.755351
vt 0.079862 0.755473
vt 0.082978 0.754301
vt 0.082904 0.754194
vt 0.082901 0.754113
vt 0.082973 0.754132
vt 0.082949 0.754126
vt 0.082895 0.753954
vt 0.082938 0.753963
vt 0.082901 0.754119
vt 0.082908 0.753947
vt 0.082911 0.754271
vt 0.083143 0.754091
vt 0.082974 0.753964
vt 0.083170 0.754040
vt 0.080079 0.755350
vt 0.079862 0.755467
vt 0.079856 0.755343
vt 0.080213 0.755225
vt 0.080238 0.755261
vt 0.080140 0.755352
vt 0.079832 0.755303
vt 0.080072 0.755310
vt 0.080228 0.755355
vt 0.080232 0.755264
vt 0.080228 0.755355
vt 0.080140 0.755352
vt 0.083170 0.754127
vt 0.080204 0.755186
vt 0.080068 0.755256
vt 0.082978 0.754300
vt 0.082905 0.754221
vt 0.082901 0.754113
vt 0.082973 0.754132
vt 0.079856 0.755342
vt 0.079832 0.755303
vt 0.079862 0.755481
vt 0.079841 0.755489
vt 0.079841 0.755489
vt 0.082949 0.754126
vt 0.082901 0.754119
vt 0.082901 0.754119
vt 0.082949 0.754126
vt 0.082910 0.754271
vt 0.082908 0.754281
vt 0.082955 0.754297
vt 0.082954 0.754300
vt 0.082955 0.754297
vt 0.082955 0.754297
vt 0.082907 0.754284
vt 0.082907 0.754284
vt 0.082978 0.754301
vt 0.082901 0.754113
vt 0.079856 0.755351
vt 0.079861 0.755462
vt 0.082949 0.754126
vt 0.082907 0.754284
vt 0.082934 0.754291
vt 0.082907 0.754284
vt 0.080208 0.755205
vt 0.080146 0.755287
vt 0.080225 0.755243
vt 0.080213 0.755225
vt 0.083105 0.754082
vt 0.082985 0.753996
vt 0.083048 0.754067
vt 0.083073 0.754048
vt 0.080238 0.755261
vt 0.082974 0.753964
vt 0.082974 0.753964
vt 0.083059 0.753997
vt 0.083043 0.753990
vt 0.082956 0.753959
vt 0.082909 0.754275
vt 0.082908 0.754267
vt 0.082926 0.754285
vt 0.082908 0.754278
vt 0.082909 0.754262
vt 0.082929 0.754286
vt 0.079926 0.755439
vt 0.082943 0.754293
vt 0.079862 0.755477
vt 0.082978 0.754301
vn 0.603567 -0.000354 0.797312
vn 0.603567 -0.000354 0.797312
vn 0.603567 -0.000354 0.797312
vn 0.602931 0.000000 0.797793
vn 0.602931 0.000000 0.797793
vn 0.602931 0.000000 0.797793
vn 1.000000 0.000000 0.000000
vn 1.000000 0.000000 0.000000
vn 1.000000 0.000000 0.000000
vn 1.000000 0.000000 0.000000
vn 0.000000 -0.000000 1.000000
vn 0.000000 -0.000000 1.000000
vn 0.000000 -0.000000 1.000000
vn 0.000486 0.000000 1.000000
vn 0.000486 0.000000 1.000000
vn 0.000486 0.000000 1.000000
vn 0.001723 0.591078 0.806612
vn 0.001723 0.591078 0.806612
vn 0.001723 0.591078 0.806612
vn 0.001723 0.591078 0.806612
vn -0.000269 -0.000666 1.000000
vn -0.000269 -0.000666 1.000000
vn -0.000269 -0.000666 1.000000
vn -0.000269 -0.000666 1.000000
vn 0.000000 0.000000 1.000000
vn 0.000000 0.000000 1.000000
vn 0.000000 0.000000 1.000000
vn 0.406262 -0.500679 0.764377
vn 0.406262 -0.500679 0.764377
vn 0.406262 -0.500679 0.764377
vn 0.406262 -0.500679 0.764377
vn 0.380025 0.442719 0.812146
vn 0.380025 0.442719 0.812146
vn 0.380025 0.442719 0.812146
vn 0.380025 0.442719 0.812146
vn 0.002317 -0.001216 0.999997
vn 0.002317 -0.001216 0.999997
vn 0.002317 -0.001216 0.999997
vn 0.157172 0.210608 0.964853
vn 0.157172 0.210608 0.964853
vn 0.157172 0.210608 0.964853
vn -0.426995 0.557603 0.711867
vn -0.426995 0.557603 0.711867
vn -0.426995 0.557603 0.711867
vn -0.426995 0.557603 0.711867
vn 0.364444 0.460586 0.809346
vn 0.364444 0.460586 0.809346
vn 0.364444 0.460586 0.809346
vn -0.002997 0.999987 -0.004208
vn -0.002997 0.999987 -0.004208
vn -0.002997 0.999987 -0.004208
vn -0.002997 0.999987 -0.004208
vn -0.000003 1.000000 0.000021
vn -0.000003 1.000000 0.000021
vn -0.000003 1.000000 0.000021
vn -0.693600 0.720360 0.000000
vn -0.693600 0.720360 0.000000
vn -0.693600 0.720360 0.000000
vn -0.693600 0.720360 0.000000
vn -0.772766 -0.495877 0.396156
vn -0.772766 -0.495877 0.396156
vn -0.772766 -0.495877 0.396156
vn -0.000001 -1.000000 0.000000
vn -0.000001 -1.000000 0.000000
vn -0.000001 -1.000000 0.000000
vn -0.000001 -1.000000 0.000000
vn 1.000000 0.000000 0.000000
vn 1.000000 0.000000 0.000000
vn 1.000000 0.000000 0.000000
vn 0.000003 1.000000 0.000000
vn 0.000003 1.000000 0.000000
vn 0.000003 1.000000 0.000000
vn 0.000003 1.000000 0.000000
vn 1.000000 0.000000 0.000000
vn 1.000000 0.000000 0.000000
vn 1.000000 0.000000 0.000000
vn -0.480393 0.498924 -0.721317
vn -0.480393 0.498924 -0.721317
vn -0.480393 0.498924 -0.721317
vn 1.000000 -0.000000 0.000000
vn 1.000000 -0.000000 0.000000
vn 1.000000 -0.000000 0.000000
vn 1.000000 -0.000000 0.000000
vn -0.000005 0.788233 -0.615378
vn -0.000005 0.788233 -0.615378
vn -0.000005 0.788233 -0.615378
vn -0.000005 0.788233 -0.615378
vn -0.603569 -0.000354 0.797311
vn -0.603569 -0.000354 0.797311
vn -0.603569 -0.000354 0.797311
vn -0.602931 0.000000 0.797793
vn -0.602931 0.000000 0.797793
vn -0.602931 0.000000 0.797793
vn -1.000000 0.000000 0.000000
vn -1.000000 0.000000 0.000000
vn -1.000000 0.000000 0.000000
vn -1.000000 0.000000 0.000000
vn -0.000000 -0.000000 1.000000
vn -0.000000 -0.000000 1.000000
vn -0.000000 -0.000000 1.000000
vn -0.000486 0.000000 1.000000
vn -0.000486 0.000000 1.000000
vn -0.000486 0.000000 1.000000
vn 0.001131 -0.000832 0.999999
vn 0.001131 -0.000832 0.999999
vn 0.001131 -0.000832 0.999999
vn 0.001131 -0.000832 0.999999
vn -0.001723 0.591078 0.806612
vn -0.001723 0.591078 0.806612
vn -0.001723 0.591078 0.806612
vn -0.001723 0.591078 0.806612
vn 0.000269 -0.000665 1.000000
vn 0.000269 -0.000665 1.000000
vn 0.000269 -0.000665 1.000000
vn 0.000269 -0.000665 1.000000
vn -0.397233 -0.474314 0.785642
vn -0.397233 -0.474314 0.785642
vn -0.397233 -0.474314 0.785642
vn -0.397233 -0.474314 0.785642
vn -0.195406 0.342531 0.918961
vn -0.195406 0.342531 0.918961
vn -0.195406 0.342531 0.918961
vn -0.002317 -0.001216 0.999997
vn -0.002317 -0.001216 0.999997
vn -0.002317 -0.001216 0.999997
vn -0.002317 -0.001216 0.999997
vn -0.369654 0.458224 0.808324
vn -0.369654 0.458224 0.808324
vn -0.369654 0.458224 0.808324
vn -0.369654 0.458224 0.808324
vn 0.428272 0.558736 0.710210
vn 0.428272 0.558736 0.710210
vn 0.428272 0.558736 0.710210
vn 0.428272 0.558736 0.710210
vn -0.364445 0.460587 0.809345
vn -0.364445 0.460587 0.809345
vn -0.364445 0.460587 0.809345
vn 0.002997 0.999987 -0.004208
vn 0.002997 0.999987 -0.004208
vn 0.002997 0.999987 -0.004208
vn 0.002997 0.999987 -0.004208
vn 0.000002 1.000000 0.000023
vn 0.000002 1.000000 0.000023
vn 0.000002 1.000000 0.000023
vn 0.000002 1.000000 0.000023
vn 0.693600 0.720360 0.000000
vn 0.693600 0.720360 0.000000
vn 0.693600 0.720360 0.000000
vn 0.693600 0.720360 0.000000
vn 1.000000 0.000000 0.000000
vn 1.000000 0.000000 0.000000
vn 1.000000 0.000000 0.000000
vn 1.000000 0.000000 0.000000
vn 0.693600 -0.720361 0.000000
vn 0.693600 -0.720361 0.000000
vn 0.693600 -0.720361 0.000000
vn 0.693600 -0.720361 0.000000
vn 0.000001 -1.000000 0.000000
vn 0.000001 -1.000000 0.000000
vn 0.000001 -1.000000 0.000000
vn 0.000001 -1.000000 0.000000
vn -1.000000 -0.000000 0.000000
vn -1.000000 -0.000000 0.000000
vn -1.000000 -0.000000 0.000000
vn -1.000000 -0.000000 0.000000
vn -0.000003 1.000000 0.000000
vn -0.000003 1.000000 0.000000
vn -0.000003 1.000000 0.000000
vn -0.000003 1.000000 0.000000
vn 0.000000 0.000000 1.000000
vn 0.000000 0.000000 1.000000
vn 0.000000 0.000000 1.000000
vn -0.000000 0.999995 0.003046
vn -0.000000 0.999995 0.003046
vn -0.000000 0.999995 0.003046
vn -0.000000 0.999995 0.003046
vn 0.000000 0.000000 -1.000000
vn 0.000000 0.000000 -1.000000
vn 0.000000 0.000000 -1.000000
vn 0.000000 0.000000 -1.000000
vn 0.000000 -1.000000 0.000001
vn 0.000000 -1.000000 0.000001
vn 0.000000 -1.000000 0.000001
vn 0.000000 -1.000000 0.000001
vn 0.000000 -0.597343 0.801986
vn 0.000000 -0.597343 0.801986
vn 0.000000 -0.597343 0.801986
vn 0.000000 -0.597343 0.801986
vn 0.000000 0.000000 1.000000
vn 0.000000 0.000000 1.000000
vn 0.000000 0.000000 1.000000
vn 0.000000 0.000000 1.000000
vn -0.004599 -0.633763 0.773513
vn -0.004599 -0.633763 0.773513
vn -0.004599 -0.633763 0.773513
vn -0.004599 -0.633763 0.773513
vn -0.000003 -0.875113 0.483920
vn -0.000003 -0.875113 0.483920
vn -0.000003 -0.875113 0.483920
vn -0.000003 -0.875113 0.483920
vn -1.000000 0.000000 0.000000
vn -1.000000 0.000000 0.000000
vn -1.000000 0.000000 0.000000
vn 0.480393 0.498924 -0.721316
vn 0.480393 0.498924 -0.721316
vn 0.480393 0.498924 -0.721316
vn 1.000000 0.000000 0.000000
vn 1.000000 0.000000 0.000000
vn 1.000000 0.000000 0.000000
vn 1.000000 0.000000 0.000000
vn -0.000007 -0.240757 0.970585
vn -0.000007 -0.240757 0.970585
vn -0.000007 -0.240757 0.970585
vn -0.000007 -0.240757 0.970585
vn -1.000000 0.000000 0.000000
vn -1.000000 0.000000 0.000000
vn -1.000000 0.000000 0.000000
vn -1.000000 0.000000 0.000000
vn -1.000000 0.000000 0.000000
vn -1.000000 0.000000 0.000000
vn -1.000000 0.000000 0.000000
vn 0.000005 0.788233 -0.615378
vn 0.000005 0.788233 -0.615378
vn 0.000005 0.788233 -0.615378
vn 0.000005 0.788233 -0.615378
vn 0.556220 0.519374 0.648745
vn 0.556220 0.519374 0.648745
vn 0.556220 0.519374 0.648745
vn -0.224891 0.665183 0.712008
vn -0.224891 0.665183 0.712008
vn -0.224891 0.665183 0.712008
vn 0.000007 -0.240758 0.970585
vn 0.000007 -0.240758 0.970585
vn 0.000007 -0.240758 0.970585
vn -0.000000 1.000000 0.000027
vn -0.000000 1.000000 0.000027
vn -0.000000 1.000000 0.000027
vn -0.000000 1.000000 0.000027
vn 1.000000 0.000000 0.000000
vn 1.000000 0.000000 0.000000
vn 1.000000 0.000000 0.000000
vn 0.367290 0.457137 0.810015
vn 0.367290 0.457137 0.810015
vn 0.367290 0.457137 0.810015
vn 0.367290 0.457137 0.810015
vn 0.000000 0.570736 0.821134
vn 0.000000 0.570736 0.821134
vn 0.000000 0.570736 0.821134
vn 0.000000 0.570736 0.821134
vn 0.000000 0.000000 1.000000
vn 0.000000 0.000000 1.000000
vn 0.000000 0.000000 1.000000
vn 0.000000 0.000000 1.000000
vn -0.001214 -0.001004 0.999999
vn -0.001214 -0.001004 0.999999
vn -0.001214 -0.001004 0.999999
vn -0.001214 -0.001004 0.999999
vn -0.001683 0.258491 0.966012
vn -0.001683 0.258491 0.966012
vn -0.001683 0.258491 0.966012
vn 0.000000 0.000000 1.000000
vn 0.000000 0.000000 1.000000
vn 0.000000 0.000000 1.000000
vn 0.000000 0.570736 0.821134
vn 0.000000 0.570736 0.821134
vn 0.000000 0.570736 0.821134
vn 0.381700 0.463718 0.799545
vn 0.381700 0.463718 0.799545
vn 0.381700 0.463718 0.799545
vn -0.000626 0.000210 1.000000
vn -0.000626 0.000210 1.000000
vn -0.000626 0.000210 1.000000
vn 0.084959 0.345926 0.934407
vn 0.084959 0.345926 0.934407
vn 0.084959 0.345926 0.934407
vn 0.213549 0.169885 0.962048
vn 0.213549 0.169885 0.962048
vn 0.213549 0.169885 0.962048
vn -0.000000 0.000000 1.000000
vn -0.000000 0.000000 1.000000
vn -0.000000 0.000000 1.000000
vn 0.000000 0.000000 1.000000
vn 0.000000 0.000000 1.000000
vn 0.000000 0.000000 1.000000
vn 0.000000 0.000000 1.000000
vn -0.000598 0.621096 0.783734
vn -0.000598 0.621096 0.783734
vn -0.000598 0.621096 0.783734
vn -0.000598 0.621096 0.783734
vn -0.389398 0.493261 0.777858
vn -0.389398 0.493261 0.777858
vn -0.389398 0.493261 0.777858
vn -0.389398 0.493261 0.777858
vn -0.011154 0.652441 0.757757
vn -0.011154 0.652441 0.757757
vn -0.011154 0.652441 0.757757
vn 0.119997 0.802945 0.583849
vn 0.119997 0.802945 0.583849
vn 0.119997 0.802945 0.583849
vn -0.059045 0.670818 0.739268
vn -0.059045 0.670818 0.739268
vn -0.059045 0.670818 0.739268
vn 0.020049 0.860145 0.509655
vn 0.020049 0.860145 0.509655
vn 0.020049 0.860145 0.509655
vn -0.000000 0.000000 1.000000
vn -0.000000 0.000000 1.000000
vn -0.000000 0.000000 1.000000
vn -0.000000 0.000000 1.000000
vn 0.000000 0.000000 1.000000
vn 0.000000 0.000000 1.000000
vn 0.000000 0.000000 1.000000
vn 0.000000 0.000000 1.000000
vn 0.000000 0.000000 1.000000
vn 0.000000 0.000000 1.000000
vn 0.000000 0.000000 1.000000
vn 0.000000 0.999995 0.003046
vn 0.000000 0.999995 0.003046
vn 0.000000 0.999995 0.003046
vn 0.000000 0.999995 0.003046
vn 0.000000 0.999995 0.003046
vn 0.000000 0.999995 0.003046
vn 0.000000 0.999995 0.003046
vn 0.602962 0.761974 -0.236290
vn 0.602962 0.761974 -0.236290
vn 0.602962 0.761974 -0.236290
vn 0.386270 0.915273 0.114330
vn 0.386270 0.915273 0.114330
vn 0.386270 0.915273 0.114330
vn 1.000000 0.000000 0.000000
vn 1.000000 0.000000 0.000000
vn 1.000000 0.000000 0.000000
vn 1.000000 0.000000 0.000000
vn 1.000000 0.000000 0.000000
vn 1.000000 0.000000 0.000000
vn 1.000000 0.000000 0.000000
vn 0.000003 1.000000 -0.000000
vn 0.000003 1.000000 -0.000000
vn 0.000003 1.000000 -0.000000
vn 0.000003 1.000000 0.000000
vn 0.000003 1.000000 0.000000
vn 0.000003 1.000000 0.000000
vn -0.510671 0.846367 0.151255
vn -0.510671 0.846367 0.151255
vn -0.510671 0.846367 0.151255
vn -0.352095 0.924307 -0.147258
vn -0.352095 0.924307 -0.147258
vn -0.352095 0.924307 -0.147258
vn -1.000000 -0.000000 0.000000
vn -1.000000 -0.000000 0.000000
vn -1.000000 -0.000000 0.000000
vn -1.000000 -0.000000 0.000000
vn -0.000003 1.000000 -0.000000
vn -0.000003 1.000000 -0.000000
vn -0.000003 1.000000 -0.000000
vn -0.000003 1.000000 0.000000
vn -0.000003 1.000000 0.000000
vn -0.000003 1.000000 0.000000
vn 0.000007 -0.240757 0.970585
vn 0.000007 -0.240757 0.970585
vn 0.000007 -0.240757 0.970585
vn -1.000000 0.000000 0.000000
vn -1.000000 0.000000 0.000000
vn -1.000000 0.000000 0.000000
vn -1.000000 -0.000000 0.000000
vn -1.000000 -0.000000 0.000000
vn -1.000000 -0.000000 0.000000
vn -1.000000 -0.000000 0.000000
vn -0.693601 -0.720360 0.000000
vn -0.693601 -0.720360 0.000000
vn -0.693601 -0.720360 0.000000
vn -0.693601 -0.720360 0.000000
vn 0.000003 -0.875112 0.483920
vn 0.000003 -0.875112 0.483920
vn 0.000003 -0.875112 0.483920
vn 0.000003 -0.875112 0.483920
vn -0.612085 -0.725873 0.313784
vn -0.612085 -0.725873 0.313784
vn -0.612085 -0.725873 0.313784
vn 0.000007 -0.240757 0.970585
vn 0.000007 -0.240757 0.970585
vn 0.000007 -0.240757 0.970585
vn 0.000007 -0.240757 0.970585
vn -1.000000 -0.000000 0.000000
vn -1.000000 -0.000000 0.000000
vn -1.000000 -0.000000 0.000000
vn -1.000000 -0.000000 0.000000
vn 0.428272 0.558736 0.710210
vn 0.428272 0.558736 0.710210
vn 0.428272 0.558736 0.710210
vn 0.428272 0.558736 0.710210
vn 0.428272 0.558736 0.710210
vn 0.428272 0.558736 0.710210
vn 0.428272 0.558736 0.710210
vn -0.002317 -0.001216 0.999997
vn -0.002317 -0.001216 0.999997
vn -0.002317 -0.001216 0.999997
vn -0.002317 -0.001216 0.999997
s off
f 6/7/1 3/1/2 2/3/3
f 6/7/4 20/29/5 3/1/6
f 5/4/7 3/1/8 20/29/9 4/5/10
f 18/23/11 19/24/12 8/8/13
f 9/9/14 10/10/15 11/11/16
f 6/13/17 7/14/18 9/9/19 11/11/20
f 10/10/21 9/9/22 12/16/23 14/18/24
f 17/21/25 15/19/26 16/20/27
f 14/18/28 12/16/29 16/20/30 15/19/31
f 12/16/32 13/17/33 17/21/34 16/20/35
f 7/2/36 6/7/37 2/3/38
f 68/103/39 66/101/40 69/104/41
f 7/2/42 2/3/43 19/24/44 18/23/45
f 8/15/46 7/14/47 18/22/48
f 19/24/49 2/3/50 3/1/51 5/4/52
f 27/44/53 30/46/54 28/47/55
f 6/13/56 11/11/57 23/31/58 22/30/59
f 87/122/60 88/123/61 86/121/62
f 1/25/63 4/28/64 24/34/65 21/33/66
f 4/28/67 81/116/68 24/34/69
f 20/27/70 6/26/71 82/117/72 80/115/73
f 24/38/74 25/39/75 26/41/76
f 22/30/77 23/31/78 28/42/79
f 26/41/80 25/39/81 30/46/82 63/98/83
f 25/39/84 22/40/85 28/47/86 30/46/87
f 36/48/88 32/50/89 33/49/90
f 36/48/91 33/49/92 51/51/93
f 35/52/94 34/53/95 51/51/96 33/49/97
f 49/54/98 38/56/99 50/55/100
f 39/57/101 41/59/102 40/58/103
f 42/60/104 39/57/105 43/62/106 44/61/107
f 36/63/108 41/59/109 39/57/110 37/64/111
f 40/58/112 45/65/113 43/62/114 39/57/115
f 45/65/116 46/67/117 47/68/118 43/62/119
f 74/109/120 47/68/121 48/66/122
f 36/48/123 72/107/124 71/106/125 32/50/126
f 39/57/127 42/60/128 38/70/129 37/64/130
f 37/69/131 49/54/132 73/108/133 70/105/134
f 38/70/135 49/71/136 37/64/137
f 50/55/138 35/52/139 33/49/140 32/50/141
f 59/72/142 60/75/143 62/74/144 61/73/145
f 36/63/146 53/77/147 54/76/148 41/59/149
f 41/59/150 54/76/151 55/78/152 40/58/153
f 40/58/154 55/78/155 52/80/156 31/79/157
f 31/81/158 52/84/159 56/83/160 34/82/161
f 34/82/162 56/83/163 84/119/164 51/85/165
f 53/88/166 85/120/167 83/118/168 57/86/169
f 38/56/170 77/112/171 78/113/172
f 5/4/173 79/114/174 75/110/175 19/24/176
f 4/5/177 34/53/178 35/52/179 5/4/180
f 1/6/181 31/89/182 34/53/183 4/5/184
f 10/10/185 40/58/186 31/79/187 1/12/188
f 14/18/189 45/65/190 40/58/191 10/10/192
f 15/19/193 46/67/194 45/65/195 14/18/196
f 52/90/197 55/93/198 58/92/199 56/91/200
f 56/91/201 58/92/202 57/94/203
f 53/77/204 60/95/205 54/76/206
f 54/76/207 60/95/208 59/96/209 55/78/210
f 55/93/211 59/72/212 65/100/213 58/92/214
f 62/74/215 57/94/216 58/92/217 61/73/218
f 58/92/219 65/100/220 61/73/221
f 57/94/222 62/74/223 60/75/224 53/97/225
f 64/99/226 63/98/227 29/45/228
f 65/100/229 59/72/230 61/73/231
f 27/44/232 63/98/233 64/99/234
f 27/44/235 64/99/236 29/45/237 30/46/238
f 63/98/239 30/46/240 29/45/241
f 9/9/242 7/14/243 8/15/244 67/102/245
f 8/15/246 38/70/247 42/60/248 69/104/249
f 13/17/250 69/104/251 42/60/252 44/61/253
f 67/102/254 13/17/255 12/16/256 9/9/257
f 67/102/258 66/101/259 68/103/260
f 68/103/261 69/104/262 13/17/263
f 8/15/264 69/104/265 66/101/266
f 67/102/267 8/15/268 66/101/269
f 67/102/270 68/103/271 13/17/272
f 73/108/273 72/107/274 70/105/275
f 71/106/276 72/107/277 73/108/278
f 48/66/279 47/68/280 46/67/281
f 17/21/282 48/66/283 46/67/284 15/19/285
f 13/17/286 44/61/287 74/109/288 48/66/289
f 43/62/290 47/68/291 74/109/292 44/61/293
f 13/17/294 48/66/295 17/21/296
f 78/113/297 79/114/298 76/111/299
f 75/110/300 79/114/301 77/112/302
f 77/112/303 79/114/304 78/113/305
f 38/56/306 78/113/307 76/111/308 50/55/309
f 19/24/310 75/110/311 77/112/312 8/8/313
f 8/8/314 77/112/315 38/56/316
f 79/114/317 35/52/318 50/55/319 76/111/320
f 5/4/321 35/52/322 79/114/323
f 25/35/324 81/116/325 82/117/326
f 82/117/327 81/116/328 80/115/329
f 4/28/330 20/27/331 80/115/332 81/116/333
f 24/34/334 81/116/335 25/35/336
f 82/117/337 22/36/338 25/35/339
f 82/117/340 6/26/341 22/36/342
f 51/85/343 84/119/344 85/120/345
f 85/120/346 84/119/347 83/118/348
f 84/119/349 56/83/350 57/86/351 83/118/352
f 51/85/353 85/120/354 36/87/355
f 36/87/356 85/120/357 53/88/358
f 88/124/359 87/122/360 26/41/361
f 23/31/362 86/121/363 88/123/364
f 11/11/365 10/10/366 86/121/367 23/31/368
f 10/10/369 1/12/370 21/32/371 86/121/372
f 21/37/373 24/38/374 26/41/375 87/122/376
f 87/122/377 86/121/378 21/37/379
f 88/124/380 26/41/381 63/98/382 27/44/383
f 23/31/384 88/123/385 27/43/386 28/42/387
f 73/108/388 50/55/389 32/50/390 71/106/391
f 73/108/392 49/54/393 50/55/394
f 37/69/395 70/105/396 72/107/397 36/48/398
