# This file uses centimeters as units for non-parametric coordinates.

v 8.465947 7.304986 -8.465994
v -0.000002 7.304986 -11.972677
v -8.465952 7.304986 -8.465994
v -11.972688 7.304986 -0.000036
v -8.465952 7.304986 8.465939
v -0.000002 7.304986 11.972607
v 8.465947 7.304986 8.465939
v 11.972666 7.304986 -0.000036
v 15.643033 11.216476 -15.643071
v -0.000002 11.216476 -22.122639
v -15.643038 11.216476 -15.643071
v -22.122604 11.216476 -0.000036
v -15.643038 11.216476 15.643017
v -0.000002 11.216476 22.122568
v 15.643033 11.216476 15.643017
v 22.122591 11.216476 -0.000036
v 20.438597 18.268963 -20.438637
v -0.000002 18.268963 -28.904594
v -20.438646 18.268963 -20.438637
v -28.904568 18.268963 -0.000036
v -20.438646 18.268963 20.438564
v -0.000002 18.268963 28.904522
v 20.438614 18.268963 20.438564
v 28.904572 18.268963 -0.000036
v 22.122591 28.967251 -22.122639
v -0.000002 28.967251 -31.286106
v -22.122604 28.967251 -22.122639
v -31.286081 28.967251 -0.000036
v -22.122604 28.967251 22.122568
v -0.000002 28.967251 31.286053
v 22.122591 28.967251 22.122568
v 31.286077 28.967251 -0.000036
v 20.438597 40.770947 -20.438637
v -0.000002 40.770947 -28.904594
v -20.438646 40.770947 -20.438637
v -28.904568 40.770947 -0.000036
v -20.438646 40.770947 20.438564
v -0.000002 40.770947 28.904522
v 20.438614 40.770947 20.438564
v 28.904572 40.770947 -0.000036
v 15.643033 50.169647 -15.643071
v -0.000002 50.169647 -22.122639
v -15.643038 50.169647 -15.643071
v -22.122604 50.169647 -0.000036
v -15.643038 50.169647 15.643017
v -0.000002 50.169647 22.122568
v 15.643033 50.169647 15.643017
v 22.122591 50.169647 -0.000036
v 8.465947 55.760498 -8.465994
v -0.000002 55.760498 -11.972677
v -8.465952 55.760498 -8.465994
v -11.972688 55.760498 -0.000036
v -8.465952 55.760498 8.465939
v -0.000002 55.760498 11.972607
v 8.465947 55.760498 8.465939
v 11.972666 55.760498 -0.000036
v -0.000002 8.938015 -0.000036
v 4.335736 62.662060 -4.335817
v -0.000002 62.662060 -6.131704
v -4.335740 62.662060 -4.335817
v -6.131661 62.662060 -0.000036
v -4.335740 62.662060 4.335659
v -0.000002 62.662060 6.131650
v 4.335736 62.662060 4.335659
v 6.131666 62.662060 -0.000036
v 2.762199 100.130928 -2.762245
v 0.000006 100.130928 -3.906392
v 0.000006 91.674706 -0.000036
v -2.762220 100.130928 -2.762245
v -3.906376 100.130928 -0.000036
v -2.762220 100.130928 2.762156
v 0.000006 100.130928 3.906338
v 2.762199 100.130928 2.762156
v 3.906363 100.130928 -0.000036
v 2.886321 80.366852 -2.886359
v 0.000006 80.366852 -4.081916
v -2.886325 80.366852 -2.886359
v -4.081882 80.366852 -0.000036
v -2.886325 80.366852 2.886287
v 0.000006 80.366852 4.081844
v 2.886321 80.366852 2.886287
v 4.081878 80.366852 -0.000036
v 4.784656 97.795753 -4.784702
v 6.766532 97.795753 -0.000036
v 4.784656 97.795753 4.784631
v -0.000002 97.795753 6.766490
v -4.784669 97.795753 4.784631
v -6.766527 97.795753 -0.000036
v -4.784669 97.795753 -4.784702
v -0.000002 97.795753 -6.766561
v 2.886321 95.129028 -2.886359
v 0.000006 95.129028 -4.081916
v -2.886325 95.129028 -2.886359
v -4.081882 95.129028 -0.000036
v -2.886325 95.129028 2.886287
v 0.000006 95.129028 4.081844
v 2.886321 95.129028 2.886287
v 4.081878 95.129028 -0.000036
v 4.197966 99.645805 -4.197986
v 5.936811 99.645805 -0.000036
v 4.197966 99.645805 4.197932
v -0.000002 99.645805 5.936718
v -4.197961 99.645805 4.197932
v -5.936825 99.645805 -0.000036
v -4.197961 99.645805 -4.197986
v -0.000002 99.645805 -5.936893
vt 0.006457 0.304717
vt 0.006536 0.304696
vt 0.006534 0.304613
vt 0.006391 0.304648
vt 0.006616 0.304715
vt 0.006680 0.304645
vt 0.006654 0.304764
vt 0.006753 0.304732
vt 0.006624 0.304817
vt 0.006703 0.304831
vt 0.006541 0.304840
vt 0.006543 0.304877
vt 0.006456 0.304819
vt 0.006380 0.304835
vt 0.006423 0.304767
vt 0.006323 0.304737
vt 0.006533 0.304526
vt 0.006347 0.304570
vt 0.006722 0.304566
vt 0.006823 0.304675
vt 0.006760 0.304804
vt 0.006545 0.304866
vt 0.006325 0.304810
vt 0.006253 0.304682
vt 0.006533 0.304433
vt 0.006328 0.304478
vt 0.006740 0.304473
vt 0.006853 0.304587
vt 0.006785 0.304723
vt 0.006545 0.304789
vt 0.006300 0.304729
vt 0.006222 0.304594
vt 0.006533 0.304349
vt 0.006338 0.304389
vt 0.006730 0.304385
vt 0.006836 0.304486
vt 0.006771 0.304605
vt 0.006545 0.304663
vt 0.006314 0.304610
vt 0.006239 0.304492
vt 0.006534 0.304299
vt 0.006380 0.304330
vt 0.006690 0.304327
vt 0.006771 0.304402
vt 0.006717 0.304488
vt 0.006543 0.304529
vt 0.006367 0.304492
vt 0.006305 0.304407
vt 0.006536 0.304295
vt 0.006449 0.304312
vt 0.006624 0.304310
vt 0.006666 0.304351
vt 0.006633 0.304395
vt 0.006541 0.304415
vt 0.006447 0.304397
vt 0.006411 0.304354
vt 0.006538 0.304753
vt 0.006506 0.303883
vt 0.006537 0.303879
vt 0.006538 0.303987
vt 0.006570 0.303883
vt 0.006584 0.303892
vt 0.006572 0.303902
vt 0.006539 0.303907
vt 0.006506 0.303903
vt 0.006492 0.303893
vt 0.006537 0.304258
vt 0.006491 0.304266
vt 0.006583 0.304266
vt 0.006605 0.304286
vt 0.006587 0.304307
vt 0.006540 0.304317
vt 0.006492 0.304308
vt 0.006472 0.304287
vt 0.006505 0.303939
vt 0.006537 0.303934
vt 0.006537 0.303895
vt 0.006482 0.303902
vt 0.006571 0.303938
vt 0.006592 0.303902
vt 0.006586 0.303949
vt 0.006617 0.303919
vt 0.006573 0.303960
vt 0.006597 0.303937
vt 0.006539 0.303965
vt 0.006540 0.303945
vt 0.006505 0.303960
vt 0.006482 0.303937
vt 0.006491 0.303949
vt 0.006459 0.303920
vt 0.006537 0.304091
vt 0.006506 0.304097
vt 0.006570 0.304096
vt 0.006584 0.304108
vt 0.006572 0.304121
vt 0.006539 0.304126
vt 0.006506 0.304121
vt 0.006492 0.304109
vt 0.006006 0.325728
vt 0.006176 0.325481
vt 0.006205 0.325398
vt 0.006051 0.325619
vt 0.006126 0.326003
vt 0.006162 0.325864
vt 0.006489 0.326131
vt 0.006491 0.325977
vt 0.006863 0.326019
vt 0.006829 0.325878
vt 0.007006 0.325749
vt 0.006960 0.325638
vt 0.006855 0.325495
vt 0.006823 0.325410
vt 0.006518 0.325389
vt 0.006517 0.325316
vt 0.006303 0.325444
vt 0.006204 0.325592
vt 0.006280 0.325752
vt 0.006496 0.325824
vt 0.006717 0.325761
vt 0.006807 0.325605
vt 0.006719 0.325453
vt 0.006513 0.325388
vn 0.147323 -0.922928 -0.355669
vn 0.147323 -0.922928 -0.355669
vn 0.147323 -0.922928 -0.355669
vn 0.147323 -0.922928 -0.355669
vn -0.147323 -0.922928 -0.355669
vn -0.147323 -0.922928 -0.355669
vn -0.147323 -0.922928 -0.355669
vn -0.147323 -0.922928 -0.355669
vn -0.355670 -0.922927 -0.147324
vn -0.355670 -0.922927 -0.147324
vn -0.355670 -0.922927 -0.147324
vn -0.355670 -0.922927 -0.147324
vn -0.355670 -0.922927 0.147323
vn -0.355670 -0.922927 0.147323
vn -0.355670 -0.922927 0.147323
vn -0.355670 -0.922927 0.147323
vn -0.147322 -0.922928 0.355669
vn -0.147322 -0.922928 0.355669
vn -0.147322 -0.922928 0.355669
vn -0.147322 -0.922928 0.355670
vn 0.147322 -0.922928 0.355669
vn 0.147322 -0.922928 0.355669
vn 0.147322 -0.922928 0.355669
vn 0.147322 -0.922928 0.355669
vn 0.355670 -0.922927 0.147323
vn 0.355670 -0.922927 0.147323
vn 0.355670 -0.922927 0.147323
vn 0.355670 -0.922927 0.147323
vn 0.355670 -0.922927 -0.147323
vn 0.355670 -0.922927 -0.147323
vn 0.355670 -0.922927 -0.147323
vn 0.355670 -0.922927 -0.147323
vn 0.286085 -0.664176 -0.690670
vn 0.286085 -0.664176 -0.690670
vn 0.286085 -0.664176 -0.690670
vn 0.286085 -0.664176 -0.690670
vn -0.286085 -0.664177 -0.690670
vn -0.286085 -0.664177 -0.690670
vn -0.286085 -0.664177 -0.690670
vn -0.286085 -0.664177 -0.690670
vn -0.690669 -0.664178 -0.286084
vn -0.690669 -0.664178 -0.286084
vn -0.690669 -0.664178 -0.286084
vn -0.690669 -0.664178 -0.286084
vn -0.690669 -0.664178 0.286084
vn -0.690669 -0.664178 0.286084
vn -0.690669 -0.664178 0.286084
vn -0.690669 -0.664178 0.286084
vn -0.286085 -0.664176 0.690670
vn -0.286085 -0.664176 0.690670
vn -0.286085 -0.664176 0.690670
vn -0.286085 -0.664176 0.690670
vn 0.286085 -0.664176 0.690670
vn 0.286085 -0.664176 0.690670
vn 0.286085 -0.664176 0.690670
vn 0.286085 -0.664176 0.690670
vn 0.690669 -0.664177 0.286085
vn 0.690669 -0.664177 0.286085
vn 0.690669 -0.664177 0.286085
vn 0.690669 -0.664177 0.286085
vn 0.690669 -0.664177 -0.286085
vn 0.690669 -0.664177 -0.286085
vn 0.690670 -0.664177 -0.286085
vn 0.690669 -0.664177 -0.286085
vn 0.374838 -0.201447 -0.904940
vn 0.374838 -0.201447 -0.904940
vn 0.374838 -0.201447 -0.904939
vn 0.374838 -0.201447 -0.904939
vn -0.374838 -0.201446 -0.904940
vn -0.374838 -0.201446 -0.904940
vn -0.374838 -0.201446 -0.904940
vn -0.374838 -0.201446 -0.904940
vn -0.904940 -0.201445 -0.374838
vn -0.904940 -0.201445 -0.374838
vn -0.904940 -0.201445 -0.374838
vn -0.904940 -0.201445 -0.374838
vn -0.904940 -0.201445 0.374838
vn -0.904940 -0.201445 0.374838
vn -0.904940 -0.201445 0.374838
vn -0.904940 -0.201445 0.374838
vn -0.374838 -0.201447 0.904940
vn -0.374838 -0.201447 0.904940
vn -0.374838 -0.201447 0.904940
vn -0.374838 -0.201447 0.904940
vn 0.374838 -0.201447 0.904939
vn 0.374838 -0.201447 0.904939
vn 0.374838 -0.201447 0.904939
vn 0.374838 -0.201447 0.904939
vn 0.904940 -0.201446 0.374839
vn 0.904940 -0.201446 0.374839
vn 0.904940 -0.201446 0.374839
vn 0.904940 -0.201446 0.374839
vn 0.904939 -0.201446 -0.374839
vn 0.904939 -0.201446 -0.374839
vn 0.904939 -0.201446 -0.374839
vn 0.904939 -0.201446 -0.374839
vn 0.376203 0.183246 -0.908235
vn 0.376204 0.183246 -0.908235
vn 0.376203 0.183246 -0.908235
vn 0.376204 0.183246 -0.908235
vn -0.376203 0.183246 -0.908236
vn -0.376203 0.183246 -0.908236
vn -0.376203 0.183246 -0.908236
vn -0.376203 0.183246 -0.908236
vn -0.908236 0.183245 -0.376203
vn -0.908236 0.183245 -0.376203
vn -0.908236 0.183245 -0.376203
vn -0.908236 0.183245 -0.376203
vn -0.908236 0.183245 0.376203
vn -0.908236 0.183245 0.376203
vn -0.908236 0.183245 0.376203
vn -0.908236 0.183245 0.376203
vn -0.376203 0.183247 0.908236
vn -0.376203 0.183247 0.908236
vn -0.376203 0.183247 0.908235
vn -0.376203 0.183247 0.908236
vn 0.376204 0.183247 0.908235
vn 0.376204 0.183247 0.908235
vn 0.376204 0.183247 0.908235
vn 0.376204 0.183247 0.908235
vn 0.908236 0.183245 0.376204
vn 0.908236 0.183245 0.376204
vn 0.908236 0.183245 0.376204
vn 0.908236 0.183245 0.376204
vn 0.908235 0.183246 -0.376204
vn 0.908235 0.183246 -0.376204
vn 0.908235 0.183246 -0.376204
vn 0.908235 0.183246 -0.376204
vn 0.318414 0.554695 -0.768718
vn 0.318414 0.554695 -0.768717
vn 0.318414 0.554695 -0.768717
vn 0.318414 0.554695 -0.768717
vn -0.318413 0.554695 -0.768717
vn -0.318413 0.554695 -0.768717
vn -0.318413 0.554695 -0.768717
vn -0.318413 0.554695 -0.768717
vn -0.768717 0.554696 -0.318413
vn -0.768717 0.554696 -0.318413
vn -0.768717 0.554696 -0.318413
vn -0.768717 0.554696 -0.318413
vn -0.768717 0.554696 0.318413
vn -0.768717 0.554696 0.318413
vn -0.768717 0.554696 0.318413
vn -0.768717 0.554696 0.318413
vn -0.318413 0.554694 0.768718
vn -0.318413 0.554694 0.768718
vn -0.318413 0.554694 0.768718
vn -0.318413 0.554694 0.768718
vn 0.318413 0.554694 0.768718
vn 0.318413 0.554694 0.768718
vn 0.318413 0.554694 0.768718
vn 0.318413 0.554694 0.768718
vn 0.768717 0.554695 0.318413
vn 0.768717 0.554696 0.318413
vn 0.768717 0.554696 0.318413
vn 0.768717 0.554696 0.318413
vn 0.768717 0.554695 -0.318414
vn 0.768717 0.554695 -0.318414
vn 0.768717 0.554695 -0.318414
vn 0.768717 0.554695 -0.318414
vn 0.195972 0.858926 -0.473119
vn 0.195972 0.858926 -0.473119
vn 0.195972 0.858926 -0.473119
vn 0.195972 0.858926 -0.473119
vn -0.195972 0.858926 -0.473119
vn -0.195972 0.858926 -0.473119
vn -0.195972 0.858926 -0.473119
vn -0.195972 0.858926 -0.473119
vn -0.473119 0.858925 -0.195973
vn -0.473119 0.858926 -0.195973
vn -0.473119 0.858926 -0.195973
vn -0.473119 0.858925 -0.195973
vn -0.473119 0.858926 0.195973
vn -0.473119 0.858925 0.195973
vn -0.473119 0.858925 0.195973
vn -0.473119 0.858925 0.195973
vn -0.195971 0.858926 0.473119
vn -0.195971 0.858926 0.473119
vn -0.195971 0.858926 0.473119
vn -0.195971 0.858926 0.473119
vn 0.195971 0.858926 0.473119
vn 0.195971 0.858926 0.473119
vn 0.195971 0.858926 0.473119
vn 0.195971 0.858926 0.473119
vn 0.473119 0.858926 0.195972
vn 0.473119 0.858926 0.195972
vn 0.473119 0.858926 0.195972
vn 0.473119 0.858926 0.195972
vn 0.473119 0.858926 -0.195972
vn 0.473119 0.858926 -0.195972
vn 0.473119 0.858926 -0.195972
vn 0.473119 0.858926 -0.195972
vn -0.055891 -0.989277 0.134934
vn -0.055891 -0.989277 0.134934
vn -0.055891 -0.989277 0.134934
vn 0.055891 -0.989277 0.134934
vn 0.055891 -0.989277 0.134934
vn 0.055891 -0.989277 0.134934
vn 0.134934 -0.989277 0.055892
vn 0.134934 -0.989277 0.055892
vn 0.134934 -0.989277 0.055892
vn 0.134934 -0.989277 -0.055892
vn 0.134934 -0.989277 -0.055892
vn 0.134934 -0.989277 -0.055892
vn 0.055891 -0.989277 -0.134934
vn 0.055891 -0.989277 -0.134934
vn 0.055891 -0.989277 -0.134934
vn -0.055891 -0.989277 -0.134934
vn -0.055891 -0.989277 -0.134934
vn -0.055891 -0.989277 -0.134934
vn -0.134934 -0.989277 -0.055891
vn -0.134934 -0.989277 -0.055891
vn -0.134934 -0.989277 -0.055891
vn -0.134934 -0.989277 0.055892
vn -0.134934 -0.989277 0.055892
vn -0.134934 -0.989277 0.055892
vn -0.351971 0.392531 0.849727
vn -0.351971 0.392531 0.849727
vn -0.351971 0.392531 0.849727
vn 0.351968 0.392533 0.849728
vn 0.351968 0.392533 0.849728
vn 0.351968 0.392533 0.849728
vn 0.849726 0.392534 0.351971
vn 0.849726 0.392534 0.351971
vn 0.849726 0.392534 0.351971
vn 0.849725 0.392533 -0.351973
vn 0.849725 0.392534 -0.351973
vn 0.849725 0.392534 -0.351973
vn 0.351977 0.392533 -0.849724
vn 0.351977 0.392533 -0.849724
vn 0.351977 0.392533 -0.849724
vn -0.351980 0.392531 -0.849723
vn -0.351980 0.392531 -0.849723
vn -0.351980 0.392531 -0.849723
vn -0.849724 0.392531 -0.351977
vn -0.849724 0.392531 -0.351977
vn -0.849724 0.392531 -0.351977
vn -0.849725 0.392531 0.351975
vn -0.849725 0.392531 0.351975
vn -0.849725 0.392531 0.351975
vn 0.301465 0.615963 -0.727811
vn 0.301465 0.615963 -0.727811
vn 0.301465 0.615963 -0.727811
vn 0.301465 0.615963 -0.727811
vn -0.301465 0.615964 -0.727810
vn -0.301465 0.615964 -0.727810
vn -0.301465 0.615964 -0.727810
vn -0.301465 0.615964 -0.727810
vn -0.727807 0.615966 -0.301468
vn -0.727807 0.615966 -0.301468
vn -0.727807 0.615966 -0.301468
vn -0.727807 0.615966 -0.301468
vn -0.727806 0.615967 0.301469
vn -0.727806 0.615967 0.301469
vn -0.727806 0.615967 0.301469
vn -0.727806 0.615967 0.301469
vn -0.301469 0.615966 0.727806
vn -0.301469 0.615966 0.727806
vn -0.301469 0.615966 0.727806
vn -0.301469 0.615966 0.727806
vn 0.301469 0.615966 0.727807
vn 0.301469 0.615966 0.727807
vn 0.301469 0.615966 0.727807
vn 0.301469 0.615966 0.727807
vn 0.727806 0.615966 0.301468
vn 0.727806 0.615966 0.301468
vn 0.727806 0.615966 0.301468
vn 0.727806 0.615966 0.301468
vn 0.727808 0.615965 -0.301468
vn 0.727808 0.615965 -0.301468
vn 0.727808 0.615965 -0.301468
vn 0.727808 0.615965 -0.301468
vn 0.280215 -0.681047 -0.676502
vn 0.280215 -0.681047 -0.676502
vn 0.280215 -0.681047 -0.676502
vn 0.280215 -0.681047 -0.676502
vn -0.280214 -0.681049 -0.676500
vn -0.280214 -0.681049 -0.676500
vn -0.280214 -0.681049 -0.676500
vn -0.280214 -0.681049 -0.676500
vn -0.676500 -0.681048 -0.280215
vn -0.676500 -0.681048 -0.280215
vn -0.676500 -0.681048 -0.280215
vn -0.676500 -0.681048 -0.280215
vn -0.676500 -0.681048 0.280216
vn -0.676500 -0.681048 0.280216
vn -0.676500 -0.681048 0.280216
vn -0.676500 -0.681048 0.280216
vn -0.280214 -0.681050 0.676499
vn -0.280214 -0.681049 0.676499
vn -0.280214 -0.681049 0.676499
vn -0.280214 -0.681049 0.676499
vn 0.280215 -0.681047 0.676501
vn 0.280215 -0.681047 0.676501
vn 0.280215 -0.681047 0.676501
vn 0.280215 -0.681047 0.676501
vn 0.676500 -0.681049 0.280215
vn 0.676500 -0.681049 0.280215
vn 0.676500 -0.681049 0.280215
vn 0.676500 -0.681049 0.280215
vn 0.676500 -0.681049 -0.280215
vn 0.676500 -0.681049 -0.280215
vn 0.676500 -0.681049 -0.280216
vn 0.676500 -0.681048 -0.280216
vn 0.380510 0.106357 -0.918641
vn 0.380510 0.106357 -0.918641
vn 0.380510 0.106357 -0.918641
vn 0.380510 0.106357 -0.918641
vn -0.380509 0.106357 -0.918641
vn -0.380509 0.106357 -0.918641
vn -0.380509 0.106357 -0.918641
vn -0.380509 0.106357 -0.918641
vn -0.918640 0.106356 -0.380511
vn -0.918640 0.106356 -0.380511
vn -0.918640 0.106356 -0.380511
vn -0.918640 0.106356 -0.380511
vn -0.918639 0.106355 0.380515
vn -0.918639 0.106355 0.380515
vn -0.918639 0.106355 0.380515
vn -0.918639 0.106355 0.380515
vn -0.380520 0.106356 0.918636
vn -0.380520 0.106356 0.918637
vn -0.380520 0.106356 0.918637
vn -0.380520 0.106356 0.918636
vn 0.380521 0.106355 0.918636
vn 0.380521 0.106355 0.918636
vn 0.380521 0.106355 0.918636
vn 0.380521 0.106355 0.918636
vn 0.918638 0.106356 0.380516
vn 0.918638 0.106356 0.380516
vn 0.918638 0.106356 0.380516
vn 0.918638 0.106356 0.380516
vn 0.918640 0.106357 -0.380512
vn 0.918640 0.106357 -0.380512
vn 0.918640 0.106357 -0.380512
vn 0.918640 0.106357 -0.380512
vn 0.853514 0.382787 -0.353537
vn 0.853514 0.382787 -0.353537
vn 0.853514 0.382787 -0.353537
vn 0.853514 0.382787 -0.353537
vn 0.853514 0.382786 0.353537
vn 0.853515 0.382786 0.353537
vn 0.853515 0.382786 0.353537
vn 0.853515 0.382786 0.353537
vn 0.353528 0.382796 0.853513
vn 0.353528 0.382796 0.853513
vn 0.353528 0.382796 0.853513
vn 0.353528 0.382796 0.853513
vn -0.353529 0.382798 0.853512
vn -0.353529 0.382798 0.853512
vn -0.353529 0.382798 0.853512
vn -0.353529 0.382798 0.853512
vn -0.853514 0.382786 0.353537
vn -0.853514 0.382786 0.353537
vn -0.853514 0.382786 0.353537
vn -0.853514 0.382786 0.353537
vn -0.853514 0.382787 -0.353537
vn -0.853514 0.382787 -0.353537
vn -0.853514 0.382787 -0.353537
vn -0.853514 0.382787 -0.353537
vn -0.353541 0.382781 -0.853515
vn -0.353541 0.382781 -0.853515
vn -0.353541 0.382781 -0.853515
vn -0.353541 0.382781 -0.853515
vn 0.353541 0.382779 -0.853516
vn 0.353541 0.382779 -0.853516
vn 0.353541 0.382779 -0.853516
vn 0.353541 0.382779 -0.853516
vn 0.382685 0.000000 -0.923879
vn 0.382685 0.000000 -0.923879
vn 0.382685 0.000000 -0.923879
vn 0.382685 0.000000 -0.923879
vn -0.382683 0.000000 -0.923880
vn -0.382683 0.000000 -0.923880
vn -0.382683 0.000000 -0.923880
vn -0.382683 0.000000 -0.923880
vn -0.923879 0.000000 -0.382684
vn -0.923879 0.000000 -0.382684
vn -0.923879 0.000000 -0.382684
vn -0.923879 0.000000 -0.382684
vn -0.923879 0.000000 0.382684
vn -0.923879 0.000000 0.382684
vn -0.923879 0.000000 0.382684
vn -0.923879 0.000000 0.382684
vn -0.382683 0.000000 0.923880
vn -0.382683 0.000000 0.923880
vn -0.382683 0.000000 0.923880
vn -0.382683 0.000000 0.923880
vn 0.382685 0.000000 0.923879
vn 0.382685 0.000000 0.923879
vn 0.382685 0.000000 0.923879
vn 0.382685 0.000000 0.923879
vn 0.923879 0.000000 0.382684
vn 0.923879 0.000000 0.382684
vn 0.923879 0.000000 0.382684
vn 0.923879 0.000000 0.382684
vn 0.923879 0.000000 -0.382684
vn 0.923879 0.000000 -0.382684
vn 0.923879 0.000000 -0.382684
vn 0.923879 0.000000 -0.382684
vn 0.231313 0.968150 -0.095812
vn 0.231313 0.968150 -0.095812
vn 0.231313 0.968150 -0.095812
vn 0.231313 0.968150 -0.095812
vn 0.231312 0.968150 0.095814
vn 0.231312 0.968150 0.095814
vn 0.231312 0.968150 0.095814
vn 0.231312 0.968150 0.095814
vn 0.095813 0.968150 0.231313
vn 0.095813 0.968150 0.231313
vn 0.095813 0.968150 0.231313
vn 0.095813 0.968150 0.231313
vn -0.095813 0.968149 0.231317
vn -0.095813 0.968149 0.231317
vn -0.095813 0.968149 0.231317
vn -0.095813 0.968149 0.231317
vn -0.231313 0.968150 0.095816
vn -0.231313 0.968150 0.095816
vn -0.231313 0.968149 0.095816
vn -0.231313 0.968150 0.095816
vn -0.231314 0.968149 -0.095817
vn -0.231314 0.968149 -0.095817
vn -0.231314 0.968149 -0.095817
vn -0.231314 0.968149 -0.095817
vn -0.095814 0.968151 -0.231308
vn -0.095814 0.968151 -0.231308
vn -0.095814 0.968151 -0.231308
vn -0.095814 0.968151 -0.231308
vn 0.095814 0.968152 -0.231306
vn 0.095814 0.968151 -0.231306
vn 0.095814 0.968151 -0.231306
vn 0.095814 0.968151 -0.231306
s off
f 1/1/1 2/2/2 10/3/3 9/4/4
f 2/2/5 3/5/6 11/6/7 10/3/8
f 3/5/9 4/7/10 12/8/11 11/6/12
f 4/7/13 5/9/14 13/10/15 12/8/16
f 5/9/17 6/11/18 14/12/19 13/10/20
f 6/11/21 7/13/22 15/14/23 14/12/24
f 7/13/25 8/15/26 16/16/27 15/14/28
f 8/15/29 1/1/30 9/4/31 16/16/32
f 9/4/33 10/3/34 18/17/35 17/18/36
f 10/3/37 11/6/38 19/19/39 18/17/40
f 11/6/41 12/8/42 20/20/43 19/19/44
f 12/8/45 13/10/46 21/21/47 20/20/48
f 13/10/49 14/12/50 22/22/51 21/21/52
f 14/12/53 15/14/54 23/23/55 22/22/56
f 15/14/57 16/16/58 24/24/59 23/23/60
f 16/16/61 9/4/62 17/18/63 24/24/64
f 17/18/65 18/17/66 26/25/67 25/26/68
f 18/17/69 19/19/70 27/27/71 26/25/72
f 19/19/73 20/20/74 28/28/75 27/27/76
f 20/20/77 21/21/78 29/29/79 28/28/80
f 21/21/81 22/22/82 30/30/83 29/29/84
f 22/22/85 23/23/86 31/31/87 30/30/88
f 23/23/89 24/24/90 32/32/91 31/31/92
f 24/24/93 17/18/94 25/26/95 32/32/96
f 25/26/97 26/25/98 34/33/99 33/34/100
f 26/25/101 27/27/102 35/35/103 34/33/104
f 27/27/105 28/28/106 36/36/107 35/35/108
f 28/28/109 29/29/110 37/37/111 36/36/112
f 29/29/113 30/30/114 38/38/115 37/37/116
f 30/30/117 31/31/118 39/39/119 38/38/120
f 31/31/121 32/32/122 40/40/123 39/39/124
f 32/32/125 25/26/126 33/34/127 40/40/128
f 33/34/129 34/33/130 42/41/131 41/42/132
f 34/33/133 35/35/134 43/43/135 42/41/136
f 35/35/137 36/36/138 44/44/139 43/43/140
f 36/36/141 37/37/142 45/45/143 44/44/144
f 37/37/145 38/38/146 46/46/147 45/45/148
f 38/38/149 39/39/150 47/47/151 46/46/152
f 39/39/153 40/40/154 48/48/155 47/47/156
f 40/40/157 33/34/158 41/42/159 48/48/160
f 41/42/161 42/41/162 50/49/163 49/50/164
f 42/41/165 43/43/166 51/51/167 50/49/168
f 43/43/169 44/44/170 52/52/171 51/51/172
f 44/44/173 45/45/174 53/53/175 52/52/176
f 45/45/177 46/46/178 54/54/179 53/53/180
f 46/46/181 47/47/182 55/55/183 54/54/184
f 47/47/185 48/48/186 56/56/187 55/55/188
f 48/48/189 41/42/190 49/50/191 56/56/192
f 2/2/193 1/1/194 57/57/195
f 3/5/196 2/2/197 57/57/198
f 4/7/199 3/5/200 57/57/201
f 5/9/202 4/7/203 57/57/204
f 6/11/205 5/9/206 57/57/207
f 7/13/208 6/11/209 57/57/210
f 8/15/211 7/13/212 57/57/213
f 1/1/214 8/15/215 57/57/216
f 66/58/217 67/59/218 68/60/219
f 67/59/220 69/61/221 68/60/222
f 69/61/223 70/62/224 68/60/225
f 70/62/226 71/63/227 68/60/228
f 71/63/229 72/64/230 68/60/231
f 72/64/232 73/65/233 68/60/234
f 73/65/235 74/66/236 68/60/237
f 74/66/238 66/58/239 68/60/240
f 49/50/241 50/49/242 59/67/243 58/68/244
f 50/49/245 51/51/246 60/69/247 59/67/248
f 51/51/249 52/52/250 61/70/251 60/69/252
f 52/52/253 53/53/254 62/71/255 61/70/256
f 53/53/257 54/54/258 63/72/259 62/71/260
f 54/54/261 55/55/262 64/73/263 63/72/264
f 55/55/265 56/56/266 65/74/267 64/73/268
f 56/56/269 49/50/270 58/68/271 65/74/272
f 91/75/273 92/76/274 90/77/275 83/78/276
f 92/76/277 93/79/278 89/80/279 90/77/280
f 93/79/281 94/81/282 88/82/283 89/80/284
f 94/81/285 95/83/286 87/84/287 88/82/288
f 95/83/289 96/85/290 86/86/291 87/84/292
f 96/85/293 97/87/294 85/88/295 86/86/296
f 97/87/297 98/89/298 84/90/299 85/88/300
f 98/89/301 91/75/302 83/78/303 84/90/304
f 58/68/305 59/67/306 76/91/307 75/92/308
f 59/67/309 60/69/310 77/93/311 76/91/312
f 60/69/313 61/70/314 78/94/315 77/93/316
f 61/70/317 62/71/318 79/95/319 78/94/320
f 62/71/321 63/72/322 80/96/323 79/95/324
f 63/72/325 64/73/326 81/97/327 80/96/328
f 64/73/329 65/74/330 82/98/331 81/97/332
f 65/74/333 58/68/334 75/92/335 82/98/336
f 84/99/337 83/100/338 99/101/339 100/102/340
f 85/103/341 84/99/342 100/102/343 101/104/344
f 86/105/345 85/103/346 101/104/347 102/106/348
f 87/107/349 86/105/350 102/106/351 103/108/352
f 88/109/353 87/107/354 103/108/355 104/110/356
f 89/111/357 88/109/358 104/110/359 105/112/360
f 90/113/361 89/111/362 105/112/363 106/114/364
f 83/100/365 90/113/366 106/114/367 99/101/368
f 75/92/369 76/91/370 92/76/371 91/75/372
f 76/91/373 77/93/374 93/79/375 92/76/376
f 77/93/377 78/94/378 94/81/379 93/79/380
f 78/94/381 79/95/382 95/83/383 94/81/384
f 79/95/385 80/96/386 96/85/387 95/83/388
f 80/96/389 81/97/390 97/87/391 96/85/392
f 81/97/393 82/98/394 98/89/395 97/87/396
f 82/98/397 75/92/398 91/75/399 98/89/400
f 100/102/401 99/101/402 66/115/403 74/116/404
f 101/104/405 100/102/406 74/116/407 73/117/408
f 102/106/409 101/104/410 73/117/411 72/118/412
f 103/108/413 102/106/414 72/118/415 71/119/416
f 104/110/417 103/108/418 71/119/419 70/120/420
f 105/112/421 104/110/422 70/120/423 69/121/424
f 106/114/425 105/112/426 69/121/427 67/122/428
f 99/101/429 106/114/430 67/122/431 66/115/432
