# This file uses centimeters as units for non-parametric coordinates.

v 0.000000 -5.000000 0.000000
v 1.330702 1.529040 2.304842
v 2.661402 1.529040 0.000002
v 1.330700 1.529040 -2.304839
v -1.330702 1.529040 -2.304841
v -2.661401 1.529040 -0.000002
v -1.330699 1.529040 2.304839
v 4.330127 0.000000 2.500001
v 0.000000 0.000000 5.000000
v -4.330127 0.000000 2.500000
v -4.330127 0.000000 -2.500000
v 0.000001 0.000000 -5.000000
v 4.330128 0.000000 -2.499999
v 0.000000 2.471633 0.000000
vt 0.409169 0.032806
vt 0.408840 0.032355
vt 0.408797 0.032458
vt 0.409193 0.032314
vt 0.409528 0.032368
vt 0.409524 0.032473
vt 0.409146 0.032521
vt 0.408794 0.032047
vt 0.408837 0.031965
vt 0.409196 0.031933
vt 0.409535 0.031976
vt 0.409532 0.032059
vt 0.409148 0.032098
vt 0.409174 0.032013
vn 0.755929 -0.654654 0.000000
vn 0.755929 -0.654654 0.000000
vn 0.755929 -0.654654 0.000000
vn 0.377965 -0.654654 -0.654654
vn 0.377965 -0.654654 -0.654654
vn 0.377965 -0.654654 -0.654654
vn -0.377964 -0.654654 -0.654654
vn -0.377964 -0.654654 -0.654654
vn -0.377964 -0.654654 -0.654654
vn -0.755929 -0.654654 0.000000
vn -0.755929 -0.654654 0.000000
vn -0.755929 -0.654654 0.000000
vn -0.377964 -0.654654 0.654654
vn -0.377964 -0.654654 0.654654
vn -0.377964 -0.654654 0.654654
vn 0.377964 -0.654654 0.654654
vn 0.377964 -0.654654 0.654654
vn 0.377964 -0.654654 0.654654
vn -0.000000 0.869775 0.493448
vn -0.000000 0.869775 0.493448
vn -0.000000 0.869775 0.493448
vn -0.427338 0.869775 0.246724
vn -0.427338 0.869775 0.246724
vn -0.427338 0.869775 0.246724
vn -0.427339 0.869775 -0.246724
vn -0.427339 0.869775 -0.246724
vn -0.427339 0.869775 -0.246724
vn 0.000000 0.869775 -0.493448
vn 0.000000 0.869775 -0.493448
vn 0.000000 0.869775 -0.493448
vn 0.427338 0.869775 -0.246724
vn 0.427338 0.869775 -0.246724
vn 0.427338 0.869775 -0.246724
vn 0.427339 0.869775 0.246724
vn 0.427339 0.869775 0.246724
vn 0.427339 0.869775 0.246724
vn 0.327817 0.925589 0.189265
vn 0.327817 0.925589 0.189265
vn 0.327817 0.925589 0.189265
vn 0.327818 0.925589 -0.189266
vn 0.327818 0.925589 -0.189266
vn 0.327818 0.925589 -0.189266
vn 0.000000 0.925589 -0.378531
vn 0.000000 0.925589 -0.378531
vn 0.000000 0.925589 -0.378531
vn -0.327817 0.925589 -0.189265
vn -0.327817 0.925589 -0.189265
vn -0.327817 0.925589 -0.189265
vn -0.327818 0.925589 0.189266
vn -0.327818 0.925589 0.189266
vn -0.327818 0.925589 0.189266
vn -0.000000 0.925589 0.378531
vn -0.000000 0.925589 0.378531
vn -0.000000 0.925589 0.378531
vn -0.337787 0.737292 0.585064
vn -0.337787 0.737292 0.585064
vn -0.337787 0.737292 0.585064
vn 0.337787 0.737292 0.585065
vn 0.337787 0.737292 0.585065
vn 0.337787 0.737292 0.585065
vn 0.675575 0.737292 0.000000
vn 0.675575 0.737292 0.000000
vn 0.675575 0.737292 0.000000
vn 0.337787 0.737292 -0.585064
vn 0.337787 0.737292 -0.585064
vn 0.337787 0.737292 -0.585064
vn -0.337787 0.737292 -0.585065
vn -0.337787 0.737292 -0.585065
vn -0.337787 0.737292 -0.585065
vn -0.675574 0.737292 0.000000
vn -0.675574 0.737292 0.000000
vn -0.675574 0.737292 0.000000
s off
f 1/1/1 13/2/2 8/3/3
f 1/1/4 12/4/5 13/2/6
f 1/1/7 11/5/8 12/4/9
f 1/1/10 10/6/11 11/5/12
f 1/1/13 9/7/14 10/6/15
f 1/1/16 8/3/17 9/7/18
f 9/7/19 2/8/20 7/13/21
f 10/6/22 7/13/23 6/12/24
f 11/5/25 6/12/26 5/11/27
f 12/4/28 5/11/29 4/10/30
f 13/2/31 4/10/32 3/9/33
f 8/3/34 3/9/35 2/8/36
f 2/8/37 3/9/38 14/14/39
f 3/9/40 4/10/41 14/14/42
f 4/10/43 5/11/44 14/14/45
f 5/11/46 6/12/47 14/14/48
f 6/12/49 7/13/50 14/14/51
f 7/13/52 2/8/53 14/14/54
f 10/6/55 9/7/56 7/13/57
f 9/7/58 8/3/59 2/8/60
f 8/3/61 13/2/62 3/9/63
f 13/2/64 12/4/65 4/10/66
f 12/4/67 11/5/68 5/11/69
f 11/5/70 10/6/71 6/12/72
