# This file uses centimeters as units for non-parametric coordinates.

v -0.289063 11.589998 -0.366516
v 2.508301 4.579081 4.287659
v 5.000000 5.402470 -0.018494
v 0.120422 9.861072 -4.348572
v -2.500000 -7.522417 4.311584
v 2.501953 -4.061229 4.306091
v -0.579163 7.995799 4.348572
v -2.538879 6.350967 4.344421
v 5.000000 -7.522417 -0.018494
v 2.500000 -7.522417 -4.348572
v -3.877441 9.712170 -1.970154
v -4.986267 7.401433 -0.030090
v -2.500000 9.926508 -4.348572
v -5.000000 -7.522417 -0.018494
v -2.500000 -2.759508 -4.348572
v 3.266296 8.453229 -3.021423
v 1.558289 10.408249 -3.007019
v 2.500000 7.169674 -4.348572
v 0.536072 -11.589998 0.910095
v 1.127808 -11.532409 -0.018494
v 0.760559 -11.125134 -1.335754
v -0.667175 -11.318470 1.137146
v -1.922485 -10.709416 -0.018494
v -1.054504 -10.516312 -1.844910
v 1.073853 -7.522417 4.311584
v 4.408630 -7.522417 1.005798
v 1.747803 -9.080328 3.008850
v 0.588501 -7.522417 -4.348572
v -4.203918 -7.522417 -1.397400
v -1.249390 -10.112674 -2.182434
vt 0.054973 0.118494
vt 0.054115 0.135520
vt 0.053270 0.146430
vt 0.052356 0.153026
vt 0.051242 0.123787
vt 0.051261 0.046361
vt 0.053030 0.046361
vt 0.053737 0.065678
vt 0.053740 0.113898
vt 0.052212 0.132967
vt 0.054973 0.046361
vt 0.053736 0.046361
vt 0.053736 0.128356
vt 0.050580 0.142546
vt 0.050031 0.129650
vt 0.050024 0.046361
vt 0.051261 0.143742
vt 0.052558 0.143376
vt 0.052790 0.046361
vt 0.051261 0.072942
vt 0.053057 0.023982
vt 0.052875 0.026255
vt 0.054681 0.046361
vt 0.052764 0.023660
vt 0.053364 0.037666
vt 0.051547 0.028575
vt 0.052168 0.025176
vt 0.050418 0.046361
vt 0.051880 0.031905
vt 0.051977 0.029652
vn 0.734064 0.640096 0.226776
vn 0.734064 0.640096 0.226776
vn 0.734064 0.640096 0.226776
vn 0.734064 0.640096 0.226776
vn 0.005895 -0.001115 0.999982
vn 0.005895 -0.001115 0.999982
vn 0.005895 -0.001115 0.999982
vn 0.005895 -0.001115 0.999982
vn 0.005895 -0.001115 0.999982
vn 0.005895 -0.001115 0.999982
vn 0.005895 -0.001115 0.999982
vn 0.005895 -0.001115 0.999982
vn 0.866026 0.000000 -0.500000
vn 0.866026 0.000000 -0.500000
vn 0.866026 0.000000 -0.500000
vn 0.866026 0.000000 -0.500000
vn 0.866026 0.000000 -0.500000
vn 0.866026 0.000000 -0.500000
vn 0.866026 0.000000 -0.500000
vn -0.565365 0.672390 0.477759
vn -0.565365 0.672390 0.477759
vn -0.565365 0.672390 0.477759
vn 0.651338 0.582609 0.486134
vn 0.651338 0.582609 0.486134
vn 0.651338 0.582609 0.486134
vn 0.651338 0.582609 0.486134
vn -0.869439 -0.000942 0.494040
vn -0.869439 -0.000942 0.494040
vn -0.869439 -0.000942 0.494040
vn -0.869439 -0.000942 0.494040
vn -0.403843 0.902013 -0.152592
vn -0.403843 0.902013 -0.152592
vn -0.403843 0.902013 -0.152592
vn -0.565365 0.672389 0.477760
vn -0.565365 0.672389 0.477760
vn -0.565365 0.672389 0.477760
vn -0.565365 0.672389 0.477760
vn 0.510745 0.451576 -0.731587
vn 0.510745 0.451576 -0.731587
vn 0.510745 0.451576 -0.731587
vn 0.510745 0.451576 -0.731587
vn 0.022036 0.917876 -0.396255
vn 0.022036 0.917876 -0.396255
vn 0.022036 0.917876 -0.396255
vn 0.022036 0.917876 -0.396255
vn 0.000000 0.000000 -1.000000
vn 0.000000 0.000000 -1.000000
vn 0.000000 0.000000 -1.000000
vn 0.000000 0.000000 -1.000000
vn 0.000000 0.000000 -1.000000
vn 0.000000 0.000000 -1.000000
vn 0.000000 0.000000 -1.000000
vn 0.000000 0.000000 -1.000000
vn 0.664339 -0.641513 -0.383556
vn 0.664339 -0.641513 -0.383556
vn 0.664339 -0.641513 -0.383556
vn 0.664339 -0.641513 -0.383556
vn 0.664339 -0.641513 0.383556
vn 0.664339 -0.641513 0.383556
vn 0.664339 -0.641513 0.383556
vn 0.664339 -0.641513 0.383556
vn 0.664339 -0.641513 0.383556
vn 0.664339 -0.641513 0.383556
vn 0.664339 -0.641513 0.383556
vn 0.676279 -0.277935 0.682202
vn 0.676279 -0.277935 0.682202
vn 0.676279 -0.277935 0.682202
vn -0.664339 -0.641513 0.383556
vn -0.664339 -0.641513 0.383556
vn -0.664339 -0.641513 0.383556
vn -0.664339 -0.641513 0.383556
vn -0.664339 -0.641513 -0.383556
vn -0.664339 -0.641513 -0.383556
vn -0.664339 -0.641513 -0.383556
vn -0.664339 -0.641513 -0.383556
vn -0.664339 -0.641513 -0.383556
vn -0.664339 -0.641513 -0.383556
vn -0.664339 -0.641513 -0.383556
vn -0.496448 -0.321923 -0.806167
vn -0.496448 -0.321923 -0.806167
vn -0.496448 -0.321923 -0.806167
vn -0.254093 -0.941750 -0.220327
vn -0.254093 -0.941750 -0.220327
vn -0.254093 -0.941750 -0.220327
vn -0.254091 -0.941751 -0.220323
vn -0.254091 -0.941751 -0.220323
vn -0.254091 -0.941751 -0.220323
vn -0.254091 -0.941750 -0.220329
vn -0.254091 -0.941750 -0.220329
vn -0.254091 -0.941750 -0.220329
vn -0.254091 -0.941750 -0.220329
vn -0.254091 -0.941750 -0.220329
vn -0.254091 -0.941750 -0.220329
vn 0.865756 0.000141 0.500467
vn 0.865756 0.000141 0.500467
vn 0.865756 0.000141 0.500467
vn 0.865756 0.000141 0.500467
vn 0.865756 0.000141 0.500467
vn 0.865756 0.000141 0.500467
vn 0.865756 0.000141 0.500467
vn 0.676279 -0.277935 0.682202
vn 0.676279 -0.277935 0.682202
vn 0.676279 -0.277935 0.682202
vn 0.000000 -0.641513 0.767113
vn 0.000000 -0.641513 0.767113
vn 0.000000 -0.641513 0.767113
vn 0.000000 -0.641513 0.767113
vn 0.000000 -0.641513 0.767113
vn 0.000000 -0.641513 0.767113
vn 0.000000 -0.641513 0.767113
vn -0.866340 -0.000025 -0.499454
vn -0.866340 -0.000025 -0.499454
vn -0.866340 -0.000025 -0.499454
vn -0.866340 -0.000025 -0.499454
vn -0.866340 -0.000025 -0.499454
vn -0.866340 -0.000025 -0.499454
vn -0.866340 -0.000025 -0.499454
vn -0.866340 -0.000025 -0.499454
vn -0.496447 -0.321923 -0.806167
vn -0.496447 -0.321923 -0.806167
vn -0.496447 -0.321923 -0.806167
vn -0.000000 -0.641513 -0.767113
vn -0.000000 -0.641513 -0.767113
vn -0.000000 -0.641513 -0.767113
vn -0.000000 -0.641513 -0.767113
vn -0.000000 -0.641513 -0.767113
vn -0.000000 -0.641513 -0.767113
vn -0.000000 -0.641513 -0.767113
s off
f 3/1/1 16/2/2 17/3/3 1/4/4
f 8/5/5 5/6/6 25/7/7 6/8/8
f 2/9/9 7/10/10 8/5/11 6/8/12
f 3/1/13 9/11/14 10/12/15 18/13/16
f 16/2/17 3/1/18 18/13/19
f 11/14/20 12/15/21 1/4/22
f 2/9/23 3/1/24 1/4/25 7/10/26
f 12/15/27 14/16/28 5/6/29 8/5/30
f 1/4/31 13/17/32 11/14/33
f 1/4/34 12/15/35 8/5/36 7/10/37
f 4/18/38 17/3/39 16/2/40 18/13/41
f 17/3/42 4/18/43 13/17/44 1/4/45
f 18/13/46 10/12/47 28/19/48 15/20/49
f 15/20/50 13/17/51 4/18/52 18/13/53
f 10/12/54 9/11/55 20/21/56 21/22/57
f 20/21/58 9/11/59 26/23/60 19/24/61
f 26/23/62 27/25/63 19/24/64
f 6/8/65 25/7/66 27/25/67
f 5/6/68 14/16/69 23/26/70 22/27/71
f 23/26/72 14/16/73 29/28/74 30/29/75
f 24/30/76 23/26/77 30/29/78
f 15/20/79 28/19/80 30/29/81
f 21/22/82 20/21/83 19/24/84
f 22/27/85 23/26/86 19/24/87
f 23/26/88 24/30/89 19/24/90
f 24/30/91 21/22/92 19/24/93
f 9/11/94 3/1/95 2/9/96 26/23/97
f 6/8/98 26/23/99 2/9/100
f 27/25/101 26/23/102 6/8/103
f 25/7/104 5/6/105 22/27/106 27/25/107
f 27/25/108 22/27/109 19/24/110
f 11/14/111 13/17/112 15/20/113 12/15/114
f 29/28/115 14/16/116 12/15/117 15/20/118
f 30/29/119 29/28/120 15/20/121
f 28/19/122 10/12/123 21/22/124 30/29/125
f 30/29/126 21/22/127 24/30/128
