# This file uses centimeters as units for non-parametric coordinates.

v 38.092957 65.073975 10.767334
v -0.463867 38.651550 10.767334
v -39.020447 65.074097 10.767334
v -64.458130 87.025635 10.767334
v -39.020447 108.977051 10.767334
v -0.463867 135.399475 10.767334
v 38.092957 108.977051 10.767334
v 63.530762 87.025635 10.767334
v 38.092957 65.073975 -10.767090
v -0.463867 38.651550 -10.767090
v -39.020447 65.074097 -10.767090
v -64.458130 87.025635 -10.767090
v -39.020447 108.977051 -10.767090
v -0.463867 135.399475 -10.767090
v 38.092957 108.977051 -10.767090
v 63.530762 87.025635 -10.767090
v 24.940674 72.561890 10.767334
v -0.463867 55.152527 10.767334
v -25.868103 72.562012 10.767334
v -42.628784 87.025513 10.767334
v -25.868103 101.489136 10.767334
v -0.463867 118.898560 10.767334
v 24.940674 101.489136 10.767334
v 41.701843 87.025635 10.767334
v 24.940674 72.561890 -10.767090
v -0.463867 55.152527 -10.767090
v -25.868103 72.562012 -10.767090
v -42.628784 87.025513 -10.767090
v -25.868103 101.489136 -10.767090
v -0.463867 118.898560 -10.767090
v 24.940674 101.489136 -10.767090
v 41.701843 87.025635 -10.767090
v -17.629761 -186.942261 8.488281
v 16.702026 -183.421021 8.488281
v -11.904968 25.608948 8.488281
v 10.977478 25.608948 8.488281
v -11.904968 25.608948 -8.489014
v 10.977478 25.608948 -8.489014
v -17.629761 -186.942261 -8.489014
v 16.702026 -183.421021 -8.489014
v -11.838928 7.299438 8.488281
v 10.911499 7.299438 8.488281
v 10.911499 7.299438 -8.489014
v -11.838928 7.299438 -8.489014
v 124.249817 6.088684 8.488281
v 124.249817 6.088684 -8.489014
v 120.706055 26.819885 -8.489014
v 120.706055 26.819885 8.488281
v -122.009705 6.088684 -8.489014
v -122.009705 6.088684 8.488281
v -124.249573 26.819885 8.488281
v -124.249573 26.819885 -8.489014
v -11.131592 -123.557251 7.960449
v 10.204224 -123.557129 -0.504883
v 10.204224 -123.557251 -7.961182
v -11.131592 -132.115112 -7.961182
v 63.508667 7.744019 8.075928
v 63.508667 7.744019 -8.076660
v 63.508667 25.164185 -8.076660
v 63.508667 25.164185 2.427246
v -70.812317 7.448425 -8.350830
v -70.812317 7.448425 8.350098
v -70.812317 25.460083 8.350098
v -70.812317 17.332336 -8.350830
v 48.575928 25.608948 8.488281
v 75.030640 26.232544 8.488281
v 63.508667 15.794067 8.075928
v -82.241821 26.353577 -8.489014
v -70.812317 25.460083 -2.471680
v -51.413879 25.608948 -8.489014
v 3.745728 -123.557251 7.960449
v 10.911499 -82.409424 8.488281
v 12.007507 -145.844116 8.488281
v -0.749084 -198.474121 8.488281
v -0.417847 -198.440247 -8.489014
v -11.904968 120.617615 8.488281
v 10.977478 120.617615 8.488281
v 10.977478 120.617615 -8.489014
v -11.904968 120.617615 -8.489014
v 10.533691 -62.215088 -8.206787
v -11.502747 -62.550415 -8.237793
v -11.462891 -61.876038 8.208008
v 10.911499 -61.525391 8.488281
v 10.649475 -41.599487 -8.293701
v -11.604980 -41.983032 -8.314209
v -11.575317 -41.869568 8.292480
v 10.911499 -41.480774 8.488281
v 50.980652 -62.215088 -8.206787
v 52.763123 -61.525391 8.488281
v 51.527039 -41.599487 -8.293701
v 52.763123 -41.480774 8.488281
v -52.786133 -61.876038 8.208008
v -52.974182 -62.550415 -8.237793
v -53.316406 -41.869568 8.292480
v -53.456604 -41.983032 -8.314209
vt 0.080233 0.253480
vt 0.080574 0.253608
vt 0.080595 0.253423
vt 0.080257 0.253296
vt 0.080922 0.253523
vt 0.080939 0.253338
vt 0.081075 0.253272
vt 0.081092 0.253087
vt 0.080940 0.252998
vt 0.080958 0.252814
vt 0.080591 0.252865
vt 0.080613 0.252681
vt 0.080238 0.252955
vt 0.080262 0.252772
vt 0.080092 0.253211
vt 0.080117 0.253027
vt 0.080574 0.253608
vt 0.080233 0.253480
vt 0.080922 0.253523
vt 0.081075 0.253272
vt 0.080940 0.252998
vt 0.080591 0.252865
vt 0.080238 0.252955
vt 0.080092 0.253211
vt 0.080257 0.253296
vt 0.080595 0.253423
vt 0.080939 0.253338
vt 0.081092 0.253087
vt 0.080958 0.252814
vt 0.080613 0.252681
vt 0.080262 0.252772
vt 0.080117 0.253027
vt 0.080257 0.253296
vt 0.080595 0.253423
vt 0.080939 0.253338
vt 0.081092 0.253087
vt 0.080958 0.252814
vt 0.080613 0.252681
vt 0.080262 0.252772
vt 0.080117 0.253027
vt 0.079106 0.254282
vt 0.078964 0.254282
vt 0.078966 0.254177
vt 0.079108 0.254177
vt 0.078962 0.254181
vt 0.079100 0.254180
vt 0.078960 0.254283
vt 0.079098 0.254283
vt 0.079098 0.255144
vt 0.078935 0.255143
vt 0.078938 0.255167
vt 0.079105 0.255169
vt 0.078546 0.254289
vt 0.078554 0.254290
vt 0.078554 0.254175
vt 0.078546 0.254171
vt 0.079510 0.254290
vt 0.079530 0.254289
vt 0.079534 0.254169
vt 0.079513 0.254173
vt 0.079094 0.254926
vt 0.078998 0.254925
vt 0.078959 0.254749
vt 0.078955 0.254920
vt 0.078953 0.254907
vt 0.079087 0.254908
vt 0.078672 0.254282
vt 0.078677 0.254283
vt 0.078677 0.254181
vt 0.078673 0.254178
vt 0.078607 0.254174
vt 0.078672 0.254234
vt 0.079420 0.254283
vt 0.079438 0.254282
vt 0.079442 0.254176
vt 0.079479 0.254175
vt 0.079430 0.254178
vt 0.079423 0.254203
vt 0.078948 0.255029
vt 0.078757 0.254177
vt 0.079315 0.254180
vt 0.079023 0.255168
vt 0.079016 0.255143
vt 0.079108 0.254177
vt 0.078966 0.254177
vt 0.078962 0.254181
vt 0.079100 0.254180
vt 0.078956 0.254616
vt 0.079093 0.254580
vt 0.079100 0.254624
vt 0.078960 0.254642
vt 0.078957 0.254514
vt 0.079094 0.254490
vt 0.079102 0.254522
vt 0.078961 0.254534
vt 0.078960 0.254642
vt 0.078956 0.254616
vt 0.078957 0.254514
vt 0.078961 0.254534
vt 0.079093 0.254580
vt 0.079100 0.254624
vt 0.079102 0.254522
vt 0.079094 0.254490
vn 0.565288 -0.824894 0.000000
vn 0.565288 -0.824894 0.000000
vn 0.565288 -0.824894 0.000000
vn 0.565288 -0.824894 0.000000
vn -0.565292 -0.824891 0.000000
vn -0.565292 -0.824891 0.000000
vn -0.565292 -0.824891 0.000000
vn -0.565292 -0.824891 0.000000
vn -0.653324 -0.757079 0.000000
vn -0.653324 -0.757079 0.000000
vn -0.653324 -0.757079 0.000000
vn -0.653324 -0.757079 0.000000
vn -0.653322 0.757081 0.000000
vn -0.653322 0.757081 0.000000
vn -0.653322 0.757081 0.000000
vn -0.653322 0.757081 0.000000
vn -0.565290 0.824892 0.000000
vn -0.565290 0.824892 0.000000
vn -0.565290 0.824892 0.000000
vn -0.565290 0.824892 0.000000
vn 0.565288 0.824894 0.000000
vn 0.565288 0.824894 0.000000
vn 0.565288 0.824894 0.000000
vn 0.565288 0.824894 0.000000
vn 0.653320 0.757082 0.000000
vn 0.653320 0.757082 0.000000
vn 0.653320 0.757082 0.000000
vn 0.653320 0.757082 0.000000
vn 0.653324 -0.757078 0.000000
vn 0.653324 -0.757078 0.000000
vn 0.653324 -0.757078 0.000000
vn 0.653324 -0.757078 0.000000
vn 0.000000 0.000000 1.000000
vn 0.000000 0.000000 1.000000
vn 0.000000 0.000000 1.000000
vn 0.000000 0.000000 1.000000
vn 0.000000 0.000000 1.000000
vn 0.000000 0.000000 1.000000
vn 0.000000 0.000000 1.000000
vn 0.000000 0.000000 1.000000
vn -0.000000 0.000000 1.000000
vn -0.000000 0.000000 1.000000
vn -0.000000 0.000000 1.000000
vn -0.000000 0.000000 1.000000
vn -0.000000 0.000000 1.000000
vn -0.000000 0.000000 1.000000
vn -0.000000 0.000000 1.000000
vn -0.000000 0.000000 1.000000
vn -0.000000 0.000000 1.000000
vn -0.000000 0.000000 1.000000
vn -0.000000 0.000000 1.000000
vn -0.000000 0.000000 1.000000
vn 0.000000 0.000000 1.000000
vn 0.000000 0.000000 1.000000
vn 0.000000 0.000000 1.000000
vn 0.000000 0.000000 1.000000
vn 0.000000 0.000000 1.000000
vn 0.000000 0.000000 1.000000
vn 0.000000 0.000000 1.000000
vn 0.000000 0.000000 1.000000
vn 0.000000 0.000000 1.000000
vn 0.000000 0.000000 1.000000
vn 0.000000 0.000000 1.000000
vn 0.000000 0.000000 1.000000
vn -0.000000 0.000000 -1.000000
vn -0.000000 0.000000 -1.000000
vn -0.000000 0.000000 -1.000000
vn -0.000000 0.000000 -1.000000
vn -0.000000 0.000000 -1.000000
vn -0.000000 0.000000 -1.000000
vn -0.000000 0.000000 -1.000000
vn -0.000000 0.000000 -1.000000
vn 0.000000 0.000000 -1.000000
vn 0.000000 0.000000 -1.000000
vn 0.000000 0.000000 -1.000000
vn 0.000000 0.000000 -1.000000
vn 0.000000 0.000000 -1.000000
vn 0.000000 0.000000 -1.000000
vn 0.000000 0.000000 -1.000000
vn 0.000000 0.000000 -1.000000
vn -0.000000 0.000000 -1.000000
vn -0.000000 0.000000 -1.000000
vn -0.000000 0.000000 -1.000000
vn -0.000000 0.000000 -1.000000
vn 0.000000 0.000000 -1.000000
vn 0.000000 0.000000 -1.000000
vn 0.000000 0.000000 -1.000000
vn 0.000000 0.000000 -1.000000
vn -0.000000 0.000000 -1.000000
vn -0.000000 0.000000 -1.000000
vn -0.000000 0.000000 -1.000000
vn -0.000000 0.000000 -1.000000
vn -0.000000 0.000000 -1.000000
vn -0.000000 0.000000 -1.000000
vn -0.000000 0.000000 -1.000000
vn -0.000000 0.000000 -1.000000
vn -0.565288 0.824894 0.000000
vn -0.565288 0.824894 0.000000
vn -0.565288 0.824894 0.000000
vn -0.565288 0.824894 0.000000
vn 0.565295 0.824889 0.000000
vn 0.565295 0.824889 0.000000
vn 0.565295 0.824889 0.000000
vn 0.565295 0.824889 0.000000
vn 0.653319 0.757083 0.000000
vn 0.653319 0.757083 0.000000
vn 0.653319 0.757083 0.000000
vn 0.653319 0.757083 0.000000
vn 0.653322 -0.757080 0.000000
vn 0.653322 -0.757080 0.000000
vn 0.653322 -0.757080 0.000000
vn 0.653322 -0.757080 0.000000
vn 0.565294 -0.824890 0.000000
vn 0.565294 -0.824890 0.000000
vn 0.565294 -0.824890 0.000000
vn 0.565294 -0.824890 0.000000
vn -0.565289 -0.824893 0.000000
vn -0.565289 -0.824893 0.000000
vn -0.565289 -0.824893 0.000000
vn -0.565289 -0.824893 0.000000
vn -0.653308 -0.757092 0.000000
vn -0.653308 -0.757092 0.000000
vn -0.653308 -0.757092 0.000000
vn -0.653308 -0.757092 0.000000
vn -0.653314 0.757087 0.000000
vn -0.653314 0.757087 0.000000
vn -0.653314 0.757087 0.000000
vn -0.653314 0.757087 0.000000
vn 0.000000 0.000000 1.000000
vn 0.000000 0.000000 1.000000
vn 0.000000 0.000000 1.000000
vn 0.000000 0.000000 1.000000
vn 0.000000 1.000000 0.000000
vn 0.000000 1.000000 0.000000
vn 0.000000 1.000000 0.000000
vn 0.000000 1.000000 0.000000
vn 0.000000 0.000000 -1.000000
vn 0.000000 0.000000 -1.000000
vn 0.000000 0.000000 -1.000000
vn 0.000000 0.000000 -1.000000
vn 0.094499 -0.995525 -0.000072
vn 0.109546 -0.993982 0.000077
vn 0.656300 -0.754479 0.005650
vn 0.656300 -0.754479 0.005650
vn 0.985703 0.168495 0.000000
vn 0.985703 0.168495 0.000000
vn 0.985703 0.168495 0.000000
vn 0.985703 0.168495 0.000000
vn -0.994214 -0.107418 0.000000
vn -0.994214 -0.107418 0.000000
vn -0.994214 -0.107418 0.000000
vn -0.994214 -0.107418 0.000000
vn -0.011506 -0.005497 0.999919
vn -0.011506 -0.005497 0.999919
vn -0.011506 -0.005497 0.999919
vn -0.011253 -0.004584 0.999926
vn -0.011259 -0.004606 0.999926
vn 0.999725 -0.006487 -0.022518
vn 0.999725 -0.006487 -0.022518
vn 0.999725 -0.006487 -0.022518
vn 0.999725 -0.006487 -0.022518
vn 0.999725 -0.006487 -0.022518
vn 0.000488 -0.003770 -0.999993
vn 0.000488 -0.003770 -0.999993
vn 0.000700 -0.003826 -0.999992
vn 0.000706 -0.003828 -0.999992
vn -0.999982 -0.005351 0.002758
vn -0.999982 -0.005351 0.002758
vn -0.999982 -0.005351 0.002758
vn -0.999982 -0.005351 0.002758
vn -0.027242 -0.999629 0.000000
vn -0.027242 -0.999629 0.000000
vn -0.027242 -0.999629 0.000000
vn -0.027242 -0.999629 0.000000
vn -0.006993 -0.000650 -0.999975
vn -0.006993 -0.000650 -0.999975
vn -0.006993 -0.000650 -0.999975
vn -0.006993 -0.000650 -0.999975
vn -0.026522 0.999390 -0.022721
vn -0.026522 0.999390 -0.022721
vn -0.026522 0.999390 -0.022721
vn -0.026522 0.999390 -0.022721
vn -0.026522 0.999390 -0.022721
vn -0.005323 -0.009293 0.999943
vn -0.005323 -0.009293 0.999943
vn -0.005323 -0.009293 0.999943
vn -0.005323 -0.009293 0.999943
vn -0.005323 -0.009293 0.999943
vn 0.026549 -0.999647 0.000000
vn 0.026549 -0.999647 0.000000
vn 0.026549 -0.999647 0.000000
vn 0.026549 -0.999647 0.000000
vn 0.002641 0.000153 0.999997
vn 0.002641 0.000153 0.999997
vn 0.002641 0.000153 0.999996
vn 0.002641 0.000153 0.999997
vn 0.427131 0.529934 -0.732618
vn 0.427131 0.529934 -0.732618
vn 0.427131 0.529934 -0.732618
vn -0.007039 0.007624 0.999946
vn -0.006472 0.007010 0.999954
vn 0.000000 0.000000 1.000000
vn 0.993623 0.110907 0.020342
vn 0.993623 0.110907 0.020342
vn 0.993623 0.110907 0.020342
vn 0.993623 0.110907 0.020342
vn 0.993623 0.110907 0.020342
vn -0.001070 0.008056 -0.999967
vn -0.000119 0.008057 -0.999968
vn -0.007062 0.008050 -0.999943
vn -0.993609 0.109238 -0.028416
vn -0.993609 0.109238 -0.028416
vn -0.993609 0.109238 -0.028416
vn -0.993609 0.109238 -0.028416
vn 0.008452 -0.999964 0.000000
vn 0.008452 -0.999964 0.000000
vn 0.008452 -0.999964 0.000000
vn 0.008452 -0.999964 0.000000
vn 0.007845 -0.000014 -0.999969
vn 0.007845 -0.000014 -0.999969
vn 0.007845 -0.000014 -0.999969
vn 0.007845 -0.000014 -0.999969
vn 0.007312 0.999923 -0.010004
vn 0.007312 0.999923 -0.010004
vn 0.007312 0.999923 -0.010004
vn 0.007312 0.999923 -0.010004
vn 0.007312 0.999923 -0.010004
vn 0.006193 -0.008850 0.999942
vn 0.006193 -0.008850 0.999942
vn 0.006193 -0.008850 0.999942
vn 0.006193 -0.008850 0.999942
vn 0.006193 -0.008850 0.999942
vn -0.002526 -0.999997 0.000000
vn -0.002526 -0.999997 0.000000
vn -0.002526 -0.999997 0.000000
vn -0.002526 -0.999997 0.000000
vn -0.002344 -0.000004 0.999997
vn -0.002344 -0.000004 0.999997
vn -0.002344 -0.000004 0.999997
vn -0.002344 -0.000004 0.999997
vn -0.247851 0.567800 -0.784967
vn -0.247851 0.567800 -0.784967
vn -0.247851 0.567800 -0.784967
vn -0.446055 0.462076 0.766499
vn -0.446055 0.462076 0.766499
vn -0.446055 0.462076 0.766499
vn 0.341205 0.485300 0.805024
vn 0.341205 0.485300 0.805024
vn 0.341205 0.485300 0.805024
vn 0.023350 0.999556 0.018518
vn 0.023350 0.999556 0.018518
vn 0.023350 0.999556 0.018518
vn 0.023350 0.999556 0.018518
vn 0.023350 0.999556 0.018518
vn -0.002207 0.999993 0.003136
vn -0.002207 0.999993 0.003136
vn -0.002207 0.999993 0.003136
vn -0.002207 0.999993 0.003136
vn -0.002207 0.999993 0.003136
vn -0.001959 -0.002749 -0.999994
vn -0.001959 -0.002749 -0.999994
vn -0.001959 -0.002749 -0.999994
vn -0.001959 -0.002749 -0.999994
vn -0.001959 -0.002749 -0.999994
vn 0.002119 -0.002795 -0.999994
vn 0.002119 -0.002795 -0.999994
vn 0.002119 -0.002795 -0.999994
vn 0.002119 -0.002795 -0.999994
vn 0.002119 -0.002795 -0.999994
vn 0.786671 -0.144695 0.600177
vn 0.786671 -0.144695 0.600177
vn 0.786671 -0.144695 0.600177
vn 0.759579 0.295302 0.579514
vn 0.759579 0.295302 0.579514
vn 0.759579 0.295302 0.579514
vn -0.007283 0.007888 0.999942
vn -0.006472 0.007010 0.999954
vn -0.007039 0.007624 0.999946
vn -0.007283 0.007888 0.999942
vn -0.007283 0.007888 0.999942
vn -0.559751 -0.828637 -0.006288
vn 0.109546 -0.993982 0.000077
vn 0.094499 -0.995525 -0.000072
vn -0.559751 -0.828637 -0.006288
vn 0.000615 0.008057 -0.999967
vn -0.000119 0.008057 -0.999968
vn -0.001070 0.008056 -0.999967
vn 0.000615 0.008057 -0.999967
vn 0.000000 0.000000 1.000000
vn 0.000000 0.000000 1.000000
vn 0.000000 0.000000 1.000000
vn 0.000000 0.000000 1.000000
vn 1.000000 0.000000 0.000000
vn 1.000000 0.000000 0.000000
vn 1.000000 0.000000 0.000000
vn 1.000000 0.000000 0.000000
vn 0.000000 0.000000 -1.000000
vn 0.000000 0.000000 -1.000000
vn 0.000000 0.000000 -1.000000
vn 0.000000 0.000000 -1.000000
vn -1.000000 0.000000 0.000000
vn -1.000000 0.000000 0.000000
vn -1.000000 0.000000 0.000000
vn -1.000000 0.000000 0.000000
vn -0.011259 -0.004606 0.999926
vn -0.011253 -0.004584 0.999926
vn -0.006090 -0.002047 0.999979
vn -0.006138 -0.002048 0.999979
vn 0.995897 -0.013574 -0.089470
vn 0.995897 -0.013574 -0.089470
vn 0.995897 -0.013574 -0.089470
vn 0.995897 -0.013574 -0.089470
vn 0.001459 -0.003983 -0.999991
vn 0.001457 -0.003983 -0.999991
vn 0.001533 -0.003989 -0.999991
vn 0.001533 -0.003989 -0.999991
vn -0.999633 -0.024952 0.010522
vn -0.999633 -0.024952 0.010522
vn -0.999633 -0.024952 0.010522
vn -0.999633 -0.024952 0.010522
vn 0.000706 -0.003828 -0.999992
vn 0.000700 -0.003826 -0.999992
vn 0.001457 -0.003983 -0.999991
vn 0.001459 -0.003983 -0.999991
vn -0.006138 -0.002048 0.999979
vn -0.006090 -0.002047 0.999979
vn -0.004311 -0.002011 0.999989
vn -0.004311 -0.002011 0.999989
vn 0.999966 -0.002698 -0.007752
vn 0.999966 -0.002698 -0.007752
vn 0.999966 -0.002698 -0.007752
vn 0.999966 -0.002698 -0.007752
vn -0.999987 -0.005054 0.000900
vn -0.999987 -0.005054 0.000900
vn -0.999987 -0.005054 0.000900
vn -0.999987 -0.005054 0.000900
vn 0.000000 -0.999148 0.041276
vn 0.000000 -0.999148 0.041276
vn 0.000000 -0.999148 0.041276
vn 0.000000 -0.999148 0.041276
vn 0.000000 -0.004216 -0.999991
vn 0.000000 -0.004216 -0.999991
vn 0.000000 -0.004216 -0.999991
vn 0.000000 -0.004216 -0.999991
vn 0.000000 0.999975 -0.007074
vn 0.000000 0.999975 -0.007074
vn 0.000000 0.999975 -0.007074
vn 0.000000 0.999975 -0.007074
vn 0.000000 0.000000 1.000000
vn 0.000000 0.000000 1.000000
vn 0.000000 0.000000 1.000000
vn 0.000000 0.000000 1.000000
vn 0.000000 -0.999160 0.040971
vn 0.000000 -0.999160 0.040971
vn 0.000000 -0.999160 0.040971
vn 0.000000 -0.999160 0.040971
vn 0.000000 -0.004222 0.999991
vn 0.000000 -0.004222 0.999991
vn 0.000000 -0.004222 0.999991
vn 0.000000 -0.004222 0.999991
vn 0.000000 0.999977 -0.006832
vn 0.000000 0.999977 -0.006832
vn 0.000000 0.999977 -0.006832
vn 0.000000 0.999977 -0.006832
vn 0.000000 -0.003715 -0.999993
vn 0.000000 -0.003715 -0.999993
vn 0.000000 -0.003715 -0.999993
vn 0.000000 -0.003715 -0.999993
s off
f 1/1/1 2/2/2 10/3/3 9/4/4
f 2/2/5 3/5/6 11/6/7 10/3/8
f 3/5/9 4/7/10 12/8/11 11/6/12
f 4/7/13 5/9/14 13/10/15 12/8/16
f 5/9/17 6/11/18 14/12/19 13/10/20
f 6/11/21 7/13/22 15/14/23 14/12/24
f 7/13/25 8/15/26 16/16/27 15/14/28
f 8/15/29 1/1/30 9/4/31 16/16/32
f 2/2/33 1/1/34 17/18/35 18/17/36
f 3/5/37 2/2/38 18/17/39 19/19/40
f 4/7/41 3/5/42 19/19/43 20/20/44
f 5/9/45 4/7/46 20/20/47 21/21/48
f 6/11/49 5/9/50 21/21/51 22/22/52
f 7/13/53 6/11/54 22/22/55 23/23/56
f 8/15/57 7/13/58 23/23/59 24/24/60
f 1/1/61 8/15/62 24/24/63 17/18/64
f 9/4/65 10/3/66 26/26/67 25/25/68
f 10/3/69 11/6/70 27/27/71 26/26/72
f 11/6/73 12/8/74 28/28/75 27/27/76
f 12/8/77 13/10/78 29/29/79 28/28/80
f 13/10/81 14/12/82 30/30/83 29/29/84
f 14/12/85 15/14/86 31/31/87 30/30/88
f 15/14/89 16/16/90 32/32/91 31/31/92
f 16/16/93 9/4/94 25/25/95 32/32/96
f 25/25/97 26/26/98 18/34/99 17/33/100
f 26/26/101 27/27/102 19/35/103 18/34/104
f 27/27/105 28/28/106 20/36/107 19/35/108
f 28/28/109 29/29/110 21/37/111 20/36/112
f 29/29/113 30/30/114 22/38/115 21/37/116
f 30/30/117 31/31/118 23/39/119 22/38/120
f 31/31/121 32/32/122 24/40/123 23/39/124
f 32/32/125 25/25/126 17/33/127 24/40/128
f 41/41/129 42/42/130 36/43/131 35/44/132
f 76/84/133 77/85/134 78/86/135 79/87/136
f 37/46/137 38/45/138 43/47/139 44/48/140
f 74/82/141 75/83/142 40/50/143 34/51/144
f 45/53/145 46/54/146 47/55/147 48/56/148
f 49/57/149 50/58/150 51/59/151 52/60/152
f 53/61/153 71/62/154 72/63/155 83/91/156 82/90/157
f 72/63/158 54/64/159 55/65/160 80/88/161 83/91/162
f 44/48/163 43/47/164 84/92/165 85/93/166
f 56/66/167 53/61/168 82/90/169 81/89/170
f 57/67/171 58/68/172 46/54/173 45/53/174
f 58/68/175 59/69/176 47/55/177 46/54/178
f 59/69/179 60/70/180 66/71/181 48/56/182 47/55/183
f 66/71/184 67/72/185 57/67/186 45/53/187 48/56/188
f 61/73/189 62/74/190 50/58/191 49/57/192
f 62/74/193 63/75/194 51/59/195 50/58/196
f 68/76/197 69/77/198 64/78/199
f 73/79/200 74/82/201 34/51/202
f 34/51/203 40/50/204 55/65/205 54/64/206 73/79/207
f 75/83/208 55/65/209 40/50/210
f 39/49/211 33/52/212 53/61/213 56/66/214
f 42/42/215 43/47/216 58/68/217 57/67/218
f 43/47/219 38/45/220 59/69/221 58/68/222
f 38/45/223 36/43/224 65/80/225 60/70/226 59/69/227
f 36/43/228 42/42/229 57/67/230 67/72/231 65/80/232
f 44/48/233 41/41/234 62/74/235 61/73/236
f 41/41/237 35/44/238 63/75/239 62/74/240
f 69/77/241 70/81/242 64/78/243
f 60/70/244 67/72/245 66/71/246
f 65/80/247 67/72/248 60/70/249
f 63/75/250 69/77/251 68/76/252 52/60/253 51/59/254
f 35/44/255 37/46/256 70/81/257 69/77/258 63/75/259
f 37/46/260 44/48/261 61/73/262 64/78/263 70/81/264
f 68/76/265 64/78/266 61/73/267 49/57/268 52/60/269
f 72/63/270 71/62/271 54/64/272
f 71/62/273 73/79/274 54/64/275
f 33/52/276 74/82/277 73/79/278 71/62/279 53/61/280
f 39/49/281 75/83/282 74/82/283 33/52/284
f 56/66/285 55/65/286 75/83/287 39/49/288
f 35/44/289 36/43/290 77/85/291 76/84/292
f 36/43/293 38/45/294 78/86/295 77/85/296
f 38/45/297 37/46/298 79/87/299 78/86/300
f 37/46/301 35/44/302 76/84/303 79/87/304
f 82/90/305 83/91/306 87/95/307 86/94/308
f 89/96/309 88/97/310 90/98/311 91/99/312
f 81/89/313 80/88/314 55/65/315 56/66/316
f 93/100/317 92/101/318 94/102/319 95/103/320
f 85/93/321 84/92/322 80/88/323 81/89/324
f 86/94/325 87/95/326 42/42/327 41/41/328
f 87/95/329 84/92/330 43/47/331 42/42/332
f 85/93/333 86/94/334 41/41/335 44/48/336
f 83/91/337 80/88/338 88/97/339 89/96/340
f 80/88/341 84/92/342 90/98/343 88/97/344
f 84/92/345 87/95/346 91/99/347 90/98/348
f 87/95/349 83/91/350 89/96/351 91/99/352
f 81/89/353 82/90/354 92/101/355 93/100/356
f 82/90/357 86/94/358 94/102/359 92/101/360
f 86/94/361 85/93/362 95/103/363 94/102/364
f 85/93/365 81/89/366 93/100/367 95/103/368
