# This file uses centimeters as units for non-parametric coordinates.

v 43.052338 -12.080238 2.092529
v -12.185913 10.971909 4.549561
v 3.808655 4.111969 5.353271
v 3.979523 6.642014 2.498291
v 2.928223 1.151077 4.810059
v 2.047379 0.919525 0.955078
v 4.379028 3.714584 -0.244873
v 29.347595 -7.058502 7.393311
v 30.102722 -4.623703 3.971191
v 30.751465 -7.741333 1.122803
v 28.968201 -11.136093 2.260254
v 28.858307 -10.623871 6.695068
v -0.000885 -206.902069 -0.009521
v 5.459686 -209.699066 0.394531
v 4.786011 55.387688 -0.465088
v -1.053192 -207.299469 -4.738525
v 4.043945 -210.096069 -7.460205
v 2.167236 37.124352 -0.535400
v 5.544739 37.875622 0.364502
v 1.387146 36.909477 -3.358398
v 4.415070 37.670731 -5.357178
v 6.596680 -210.620483 -4.077637
v 6.839203 36.593151 -2.940674
v 2.304749 -3.244720 2.734619
v 6.220612 -3.408875 3.507080
v 7.475220 -4.598686 -0.099854
v 5.017822 -3.662891 -2.765625
v 1.456146 -3.506329 -0.580078
v 28.333801 -206.902069 3.364258
v 31.146362 -209.699066 -1.334473
v 31.848907 66.915688 0.012451
v 23.636047 -207.299469 2.181885
v 23.493073 -210.096069 -3.593506
v 30.610382 42.961716 2.320801
v 32.931274 43.712982 -0.292725
v 27.738281 42.746834 1.752197
v 27.310944 43.508095 -1.852051
v 27.661194 -210.620483 -4.356934
v 30.559235 42.430511 -2.933594
v 26.731506 -19.789040 2.536621
v 29.179810 -19.953194 -0.615479
v 26.520233 -21.142605 -3.355469
v 23.034668 -20.207211 -2.356934
v 23.388916 -20.050648 1.806396
vt 0.090852 0.253967
vt 0.090894 0.253105
vt 0.090963 0.253765
vt 0.090678 0.253664
vt 0.091112 0.253652
vt 0.090837 0.253570
vt 0.090765 0.253613
vt 0.090973 0.253852
vt 0.090644 0.253753
vt 0.090745 0.253693
vt 0.090828 0.253644
vt 0.091141 0.253726
vt 0.090973 0.253852
vt 0.090644 0.253753
vt 0.090678 0.253664
vt 0.090963 0.253765
vt 0.090894 0.253105
vt 0.090837 0.253570
vt 0.091112 0.253652
vt 0.090745 0.253693
vt 0.090765 0.253613
vt 0.091141 0.253726
vt 0.090828 0.253644
vt 0.090546 0.254008
vt 0.090999 0.254105
vt 0.091225 0.253937
vt 0.090803 0.253858
vt 0.090686 0.253926
vt 0.090973 0.253852
vt 0.090644 0.253753
vt 0.090678 0.253664
vt 0.090963 0.253765
vt 0.090894 0.253105
vt 0.090837 0.253570
vt 0.091112 0.253652
vt 0.090745 0.253693
vt 0.090765 0.253613
vt 0.091141 0.253726
vt 0.090828 0.253644
vt 0.090546 0.254008
vt 0.090999 0.254105
vt 0.091225 0.253937
vt 0.090803 0.253858
vt 0.090686 0.253926
vn 0.317504 0.722393 0.614280
vn 0.317651 0.722351 0.614254
vn 0.276338 0.733528 0.620946
vn 0.276338 0.733528 0.620946
vn -0.538767 -0.824577 0.172634
vn -0.538767 -0.824577 0.172634
vn -0.538767 -0.824577 0.172634
vn 0.323143 0.672327 -0.665999
vn 0.317012 0.673414 -0.667845
vn 0.326702 0.671682 -0.664912
vn 0.326702 0.671682 -0.664912
vn -0.143935 -0.155691 0.977263
vn -0.032451 -0.176267 0.983807
vn -0.071568 -0.169315 0.982960
vn -0.143935 -0.155691 0.977263
vn 0.272794 0.711865 0.647172
vn 0.272794 0.711865 0.647172
vn 0.272794 0.711865 0.647172
vn -0.343103 -0.931681 0.119375
vn -0.358510 -0.925851 0.119455
vn -0.414088 -0.902362 0.119472
vn -0.414088 -0.902362 0.119472
vn 0.092766 0.687532 -0.720205
vn 0.092766 0.687532 -0.720205
vn 0.092766 0.687532 -0.720205
vn -0.112379 -0.146882 0.982750
vn -0.112379 -0.146882 0.982750
vn -0.112379 -0.146882 0.982750
vn -0.074467 -0.301977 -0.950402
vn -0.077798 -0.301908 -0.950157
vn -0.085494 -0.301735 -0.949551
vn -0.085494 -0.301735 -0.949551
vn -0.327357 -0.128789 -0.936083
vn -0.327357 -0.128789 -0.936083
vn -0.327357 -0.128789 -0.936083
vn 0.468437 0.667777 0.578481
vn 0.317651 0.722351 0.614254
vn 0.317504 0.722393 0.614280
vn 0.292189 0.677502 -0.674994
vn 0.317012 0.673414 -0.667845
vn 0.323143 0.672327 -0.665999
vn -0.077798 -0.301908 -0.950157
vn -0.074467 -0.301977 -0.950402
vn -0.031627 -0.302567 -0.952603
vn -0.358510 -0.925851 0.119455
vn -0.343103 -0.931681 0.119375
vn -0.065120 -0.991470 0.112902
vn 0.280168 -0.221378 0.934076
vn -0.071568 -0.169315 0.982960
vn -0.032451 -0.176267 0.983807
vn -0.143051 -0.000735 0.989715
vn -0.141588 -0.001999 0.989924
vn -0.228539 0.073958 0.970721
vn -0.228539 0.073958 0.970721
vn -0.575708 0.228808 -0.784988
vn -0.575708 0.228808 -0.784988
vn -0.575708 0.228808 -0.784988
vn 0.955255 0.001098 0.295781
vn 0.956620 -0.003362 0.291318
vn 0.941980 0.039169 0.333377
vn 0.941980 0.039169 0.333377
vn -0.972523 0.008748 0.232643
vn -0.972432 0.008879 0.233018
vn -0.966735 0.016638 0.255240
vn -0.966735 0.016638 0.255240
vn -0.264404 0.034202 0.963805
vn -0.264404 0.034202 0.963805
vn -0.264404 0.034202 0.963805
vn -0.531166 -0.059880 -0.845149
vn -0.531166 -0.059880 -0.845149
vn -0.493025 0.012157 -0.869930
vn -0.493375 0.011526 -0.869741
vn 0.936928 0.056930 0.344855
vn 0.936928 0.056930 0.344855
vn 0.936928 0.056930 0.344855
vn -0.957494 0.136316 0.254212
vn -0.957494 0.136316 0.254212
vn -0.957494 0.136316 0.254212
vn 0.713726 -0.035334 -0.699533
vn 0.765312 0.004981 -0.643640
vn 0.760407 0.000949 -0.649447
vn 0.713726 -0.035334 -0.699533
vn 0.732318 0.166959 -0.660178
vn 0.732318 0.166959 -0.660178
vn 0.732318 0.166959 -0.660178
vn -0.421368 -0.896591 0.136289
vn -0.421368 -0.896591 0.136289
vn -0.421368 -0.896591 0.136289
vn -0.421368 -0.896591 0.136289
vn -0.421368 -0.896591 0.136289
vn -0.128593 -0.013205 0.991610
vn -0.128593 -0.013205 0.991610
vn -0.141588 -0.001999 0.989924
vn -0.143051 -0.000735 0.989715
vn 0.958210 -0.008727 0.285933
vn 0.958210 -0.008727 0.285933
vn 0.956620 -0.003362 0.291318
vn 0.955255 0.001098 0.295781
vn 0.760407 0.000949 -0.649447
vn 0.765312 0.004981 -0.643640
vn 0.771243 0.009919 -0.636463
vn 0.771243 0.009919 -0.636463
vn -0.493375 0.011526 -0.869741
vn -0.493025 0.012157 -0.869930
vn -0.486983 0.022977 -0.873109
vn -0.486983 0.022977 -0.873109
vn -0.973305 0.007616 0.229390
vn -0.973305 0.007616 0.229390
vn -0.972432 0.008879 0.233018
vn -0.972523 0.008748 0.232643
vn 0.820116 -0.003798 0.572185
vn 0.820732 -0.003202 0.571305
vn 0.772045 -0.047136 0.633818
vn 0.772045 -0.047136 0.633818
vn -0.972431 0.176371 0.152548
vn -0.972431 0.176372 0.152548
vn -0.972431 0.176372 0.152548
vn 0.700292 -0.006326 -0.713828
vn 0.691819 0.000949 -0.722071
vn 0.739189 -0.041324 -0.672229
vn 0.739189 -0.041324 -0.672229
vn -0.226879 0.004457 0.973913
vn -0.225757 0.005048 0.974171
vn -0.205693 0.015585 0.978492
vn -0.205693 0.015585 0.978492
vn 0.743767 0.025910 0.667936
vn 0.743767 0.025910 0.667936
vn 0.743767 0.025910 0.667937
vn -0.992187 0.067273 0.105072
vn -0.992187 0.067273 0.105072
vn -0.998040 0.011816 0.061450
vn -0.997963 0.013070 0.062439
vn 0.732767 0.043114 -0.679112
vn 0.732767 0.043114 -0.679112
vn 0.732767 0.043114 -0.679112
vn -0.200647 0.104245 0.974102
vn -0.200647 0.104245 0.974102
vn -0.200647 0.104245 0.974102
vn -0.287996 0.025783 -0.957284
vn -0.235658 0.008745 -0.971797
vn -0.242386 0.010923 -0.970118
vn -0.287996 0.025783 -0.957284
vn -0.274444 0.129108 -0.952896
vn -0.274444 0.129108 -0.952896
vn -0.274444 0.129108 -0.952896
vn -0.067308 -0.896583 0.437732
vn -0.067308 -0.896583 0.437732
vn -0.067308 -0.896583 0.437732
vn -0.067307 -0.896583 0.437732
vn -0.067308 -0.896583 0.437732
vn 0.832103 0.008040 0.554562
vn 0.832103 0.008040 0.554562
vn 0.820732 -0.003202 0.571305
vn 0.820116 -0.003798 0.572185
vn 0.682395 0.008908 -0.730929
vn 0.682395 0.008908 -0.730929
vn 0.691819 0.000949 -0.722071
vn 0.700292 -0.006326 -0.713828
vn -0.242386 0.010923 -0.970118
vn -0.235658 0.008745 -0.971797
vn -0.223469 0.004808 -0.974699
vn -0.223469 0.004808 -0.974699
vn -0.997963 0.013070 0.062439
vn -0.998040 0.011816 0.061450
vn -0.998719 -0.001984 0.050554
vn -0.998719 -0.001984 0.050554
vn -0.231571 0.001982 0.972816
vn -0.231571 0.001982 0.972816
vn -0.225757 0.005048 0.974171
vn -0.226879 0.004457 0.973913
s off
f 8/8/1 9/9/2 4/4/3 3/3/4
f 2/2/5 6/6/6 5/5/7
f 9/9/8 10/10/9 7/7/10 4/4/11
f 5/5/12 12/12/13 8/8/14 3/3/15
f 3/3/16 4/4/17 2/2/18
f 11/11/19 12/12/20 5/5/21 6/6/22
f 4/4/23 7/7/24 2/2/25
f 5/5/26 3/3/27 2/2/28
f 10/10/29 11/11/30 6/6/31 7/7/32
f 2/2/33 7/7/34 6/6/35
f 1/1/36 9/9/37 8/8/38
f 1/1/39 10/10/40 9/9/41
f 11/11/42 10/10/43 1/1/44
f 12/12/45 11/11/46 1/1/47
f 1/1/48 8/8/49 12/12/50
f 24/13/51 25/14/52 19/15/53 18/16/54
f 15/17/55 21/18/56 20/19/57
f 25/14/58 26/20/59 23/21/60 19/15/61
f 28/22/62 24/13/63 18/16/64 20/19/65
f 18/16/66 19/15/67 15/17/68
f 20/19/69 21/18/70 27/23/71 28/22/72
f 19/15/73 23/21/74 15/17/75
f 20/19/76 18/16/77 15/17/78
f 23/21/79 26/20/80 27/23/81 21/18/82
f 15/17/83 23/21/84 21/18/85
f 14/24/86 13/25/87 16/26/88 17/27/89 22/28/90
f 13/25/91 14/24/92 25/14/93 24/13/94
f 14/24/95 22/28/96 26/20/97 25/14/98
f 27/23/99 26/20/100 22/28/101 17/27/102
f 28/22/103 27/23/104 17/27/105 16/26/106
f 16/26/107 13/25/108 24/13/109 28/22/110
f 40/29/111 41/30/112 35/31/113 34/32/114
f 31/33/115 37/34/116 36/35/117
f 41/30/118 42/36/119 39/37/120 35/31/121
f 44/38/122 40/29/123 34/32/124 36/35/125
f 34/32/126 35/31/127 31/33/128
f 36/35/129 37/34/130 43/39/131 44/38/132
f 35/31/133 39/37/134 31/33/135
f 36/35/136 34/32/137 31/33/138
f 39/37/139 42/36/140 43/39/141 37/34/142
f 31/33/143 39/37/144 37/34/145
f 30/40/146 29/41/147 32/42/148 33/43/149 38/44/150
f 29/41/151 30/40/152 41/30/153 40/29/154
f 30/40/155 38/44/156 42/36/157 41/30/158
f 43/39/159 42/36/160 38/44/161 33/43/162
f 44/38/163 43/39/164 33/43/165 32/42/166
f 32/42/167 29/41/168 40/29/169 44/38/170
