# This file uses centimeters as units for non-parametric coordinates.

v 63.593491 -9.183225 -7.314640
v 60.497852 -8.407531 32.793056
v 56.170902 5.746322 -10.983685
v 60.497852 8.407531 32.793056
v -63.453762 7.280686 -8.160451
v -37.958088 0.284932 31.763388
v -69.447380 -11.034960 -8.499602
v -38.929371 -7.317554 32.814339
v -17.136364 9.026340 -48.760906
v 30.350054 2.091161 61.831345
v 31.328890 -9.196986 59.190639
v -25.940660 -12.780611 -55.892628
v 26.531107 12.611246 8.014677
v 31.193920 -18.567984 19.828175
v -19.671288 -3.254899 -58.648685
v 14.442328 7.242166 -47.251392
v 14.047308 -6.988994 -52.885025
v 9.679572 -16.671953 -51.639816
v -22.565308 13.753983 -14.219942
v -69.343414 3.905523 27.694614
v -68.657516 -9.168554 27.364794
v -21.371117 -16.459538 -9.300829
v -16.786161 9.093164 23.942852
v -1.284408 1.130762 60.817226
v -2.069033 -8.123846 62.267197
v -23.418713 -10.499866 26.102512
v 42.691700 6.930871 -48.534916
v 43.978333 -7.012033 -54.624142
v 69.929604 -9.500596 -23.506573
v 62.507004 5.428954 -27.175606
v 26.246939 8.828032 53.920815
v 23.890484 18.905615 20.713665
v 44.849396 12.725496 36.002968
v 6.727145 8.235419 53.295071
v -2.838087 13.148560 30.542017
vt 0.060998 0.122767
vt 0.060574 0.122670
vt 0.060563 0.122434
vt 0.061004 0.122580
vt 0.061292 0.122150
vt 0.060699 0.122046
vt 0.061216 0.121830
vt 0.061203 0.122055
vt 0.060623 0.122378
vt 0.061271 0.122414
vt 0.061371 0.122316
vt 0.060397 0.122319
vt 0.060371 0.122169
vt 0.060647 0.121810
vt 0.060665 0.121913
vt 0.061107 0.122425
vt 0.061146 0.122588
vt 0.061132 0.122594
vt 0.060978 0.121930
vt 0.060944 0.121821
vt 0.060938 0.121985
vt 0.060941 0.122201
vt 0.060672 0.121924
vt 0.060511 0.121986
vt 0.060544 0.122096
vt 0.060644 0.122141
vt 0.061107 0.122425
vt 0.061146 0.122588
vt 0.060998 0.122767
vt 0.061004 0.122580
vt 0.060371 0.122169
vt 0.060563 0.122434
vt 0.060699 0.122046
vt 0.060511 0.121986
vt 0.060672 0.121924
vn 0.974066 0.225040 -0.023518
vn 0.974066 0.225040 -0.023518
vn 0.974066 0.225040 -0.023518
vn 0.974066 0.225040 -0.023518
vn -0.177536 0.970890 -0.160790
vn -0.177536 0.970890 -0.160790
vn -0.177536 0.970890 -0.160790
vn -0.112974 -0.991323 -0.067196
vn -0.112974 -0.991323 -0.067196
vn -0.112974 -0.991323 -0.067196
vn -0.705933 0.253523 -0.661351
vn -0.705933 0.253523 -0.661351
vn -0.705933 0.253523 -0.661351
vn -0.705933 0.253523 -0.661351
vn 0.159387 0.981509 -0.105997
vn 0.159387 0.981509 -0.105997
vn 0.159387 0.981509 -0.105997
vn 0.159387 0.981509 -0.105997
vn 0.228985 -0.947141 0.224700
vn 0.228985 -0.947141 0.224700
vn 0.228985 -0.947141 0.224700
vn 0.620330 -0.368831 -0.692210
vn 0.620330 -0.368831 -0.692210
vn 0.620330 -0.368831 -0.692210
vn 0.074066 0.955726 0.284784
vn 0.074066 0.955726 0.284784
vn 0.074066 0.955726 0.284784
vn -0.146026 0.986878 0.068912
vn -0.146026 0.986878 0.068912
vn -0.146026 0.986878 0.068912
vn 0.684966 -0.044475 0.727217
vn 0.684966 -0.044475 0.727217
vn 0.684965 -0.044475 0.727217
vn 0.684965 -0.044475 0.727217
vn -0.612722 0.178058 0.769978
vn -0.612722 0.178058 0.769978
vn -0.612722 0.178058 0.769978
vn -0.612722 0.178058 0.769978
vn -0.983593 0.167732 -0.066412
vn -0.983593 0.167732 -0.066412
vn -0.983593 0.167732 -0.066412
vn -0.983593 0.167732 -0.066412
vn 0.208041 -0.974111 -0.088471
vn 0.208041 -0.974111 -0.088471
vn 0.208041 -0.974111 -0.088471
vn -0.137913 -0.979657 0.145780
vn -0.137913 -0.979657 0.145780
vn -0.137913 -0.979657 0.145780
vn -0.111067 -0.992340 0.054088
vn -0.111067 -0.992340 0.054088
vn -0.111067 -0.992340 0.054088
vn 0.735079 0.273726 -0.620268
vn 0.735079 0.273726 -0.620268
vn 0.735079 0.273726 -0.620268
vn 0.735079 0.273726 -0.620268
vn -0.544002 0.591466 -0.595172
vn -0.544002 0.591466 -0.595172
vn -0.544002 0.591466 -0.595172
vn -0.265804 0.913187 0.308930
vn -0.265804 0.913187 0.308930
vn -0.265804 0.913187 0.308930
vn 0.061299 0.992063 -0.109787
vn 0.061299 0.992063 -0.109787
vn 0.061299 0.992063 -0.109787
vn 0.137277 0.489102 -0.861356
vn 0.137277 0.489102 -0.861356
vn 0.137277 0.489101 -0.861356
vn 0.137277 0.489101 -0.861356
vn 0.109892 -0.260652 -0.959158
vn 0.109892 -0.260652 -0.959158
vn 0.109892 -0.260652 -0.959158
vn 0.109892 -0.260652 -0.959158
vn -0.109370 -0.993980 0.006554
vn -0.109370 -0.993980 0.006554
vn -0.109370 -0.993980 0.006554
vn 0.078742 0.989275 -0.123026
vn 0.078742 0.989275 -0.123026
vn 0.078742 0.989275 -0.123026
vn -0.076790 0.963486 0.256511
vn -0.076790 0.963486 0.256511
vn -0.076790 0.963486 0.256511
vn -0.076790 0.963486 0.256511
vn -0.152757 0.036552 0.987588
vn -0.152757 0.036552 0.987588
vn -0.152757 0.036552 0.987588
vn -0.152757 0.036552 0.987588
vn -0.023149 -0.978937 0.202848
vn -0.023149 -0.978937 0.202848
vn -0.023149 -0.978937 0.202848
vn -0.023149 -0.978937 0.202848
vn 0.003842 -0.996860 -0.079090
vn 0.003842 -0.996860 -0.079090
vn 0.003842 -0.996860 -0.079090
vn -0.034098 0.991413 0.126245
vn -0.034098 0.991413 0.126245
vn -0.034098 0.991413 0.126245
vn -0.077257 0.958819 0.273309
vn -0.077257 0.958819 0.273309
vn -0.077257 0.958819 0.273309
vn -0.077257 0.958819 0.273309
vn 0.031546 -0.057541 0.997845
vn 0.031546 -0.057541 0.997845
vn 0.031546 -0.057541 0.997845
vn 0.031546 -0.057541 0.997845
vn -0.083153 -0.980835 0.176207
vn -0.083153 -0.980835 0.176207
vn -0.083153 -0.980835 0.176207
vn -0.083153 -0.980835 0.176207
vn -0.126585 -0.979366 0.157542
vn -0.126585 -0.979366 0.157542
vn -0.126585 -0.979366 0.157542
vn -0.045745 0.382523 -0.922813
vn -0.045745 0.382523 -0.922813
vn -0.045745 0.382523 -0.922813
vn -0.045745 0.382523 -0.922813
vn -0.026594 -0.999040 -0.034823
vn -0.026594 -0.999040 -0.034823
vn -0.026594 -0.999040 -0.034823
vn -0.026594 -0.999040 -0.034823
vn 0.818439 0.483287 0.310793
vn 0.818439 0.483287 0.310793
vn 0.818439 0.483287 0.310793
vn 0.818439 0.483287 0.310793
vn 0.028860 0.999359 0.021165
vn 0.028860 0.999359 0.021165
vn 0.028860 0.999359 0.021165
vn 0.028860 0.999359 0.021165
vn 0.310529 -0.949621 0.042334
vn 0.310529 -0.949621 0.042334
vn 0.310529 -0.949621 0.042334
vn 0.324439 0.796575 0.510106
vn 0.324439 0.796575 0.510106
vn 0.324439 0.796575 0.510106
vn 0.324439 0.796575 0.510106
vn 0.336186 0.914826 -0.223768
vn 0.336186 0.914826 -0.223768
vn 0.336186 0.914826 -0.223768
vn 0.336186 0.914826 -0.223768
vn -0.043931 0.749228 0.660854
vn -0.043931 0.749228 0.660854
vn -0.043931 0.749228 0.660854
vn -0.043931 0.749228 0.660854
vn -0.245931 0.906852 -0.342253
vn -0.245931 0.906852 -0.342253
vn -0.245931 0.906852 -0.342253
vn -0.245931 0.906852 -0.342253
vn -0.411772 0.839553 0.354394
vn -0.411772 0.839553 0.354394
vn -0.411772 0.839553 0.354394
vn -0.411772 0.839553 0.354394
s off
f 1/1/1 3/4/2 4/3/3 2/2/4
f 9/5/5 5/7/6 19/19/7
f 7/8/8 12/10/9 22/22/10
f 7/8/11 5/7/12 15/11/13 12/10/14
f 3/4/15 16/16/16 13/6/17 4/3/18
f 2/2/19 11/12/20 14/9/21
f 1/1/22 18/18/23 17/17/24
f 32/33/25 31/31/26 33/32/27
f 5/7/28 20/20/29 19/19/30
f 2/2/31 4/3/32 10/13/33 11/12/34
f 6/14/35 8/15/36 25/25/37 24/24/38
f 5/7/39 7/8/40 21/21/41 20/20/42
f 18/18/43 1/1/44 14/9/45
f 25/25/46 8/15/47 26/26/48
f 7/8/49 22/22/50 21/21/51
f 27/27/52 30/30/53 29/29/54 28/28/55
f 5/7/56 9/5/57 15/11/58
f 6/14/59 24/24/60 23/23/61
f 16/16/62 9/5/63 13/6/64
f 9/5/65 16/16/66 17/17/67 15/11/68
f 18/18/69 12/10/70 15/11/71 17/17/72
f 12/10/73 18/18/74 14/9/75
f 9/5/76 19/19/77 13/6/78
f 20/20/79 6/14/80 23/23/81 19/19/82
f 21/21/83 8/15/84 6/14/85 20/20/86
f 22/22/87 26/26/88 8/15/89 21/21/90
f 12/10/91 14/9/92 22/22/93
f 23/23/94 13/6/95 19/19/96
f 34/34/97 31/31/98 32/33/99 35/35/100
f 25/25/101 11/12/102 10/13/103 24/24/104
f 14/9/105 11/12/106 25/25/107 26/26/108
f 22/22/109 14/9/110 26/26/111
f 16/16/112 27/27/113 28/28/114 17/17/115
f 17/17/116 28/28/117 29/29/118 1/1/119
f 1/1/120 29/29/121 30/30/122 3/4/123
f 3/4/124 30/30/125 27/27/126 16/16/127
f 14/9/128 1/1/129 2/2/130
f 10/13/131 4/3/132 33/32/133 31/31/134
f 4/3/135 13/6/136 32/33/137 33/32/138
f 24/24/139 10/13/140 31/31/141 34/34/142
f 13/6/143 23/23/144 35/35/145 32/33/146
f 23/23/147 24/24/148 34/34/149 35/35/150
