# This file uses centimeters as units for non-parametric coordinates.

v 6.534933 4.710657 -6.534966
v -0.000002 4.710657 -9.241829
v -6.534936 4.710657 -6.534966
v -9.241793 4.710657 -0.000054
v -6.534936 4.710657 6.534924
v -0.000002 4.710657 9.241774
v 6.534933 4.710657 6.534924
v 9.241796 4.710657 -0.000054
v 12.074981 7.232981 -12.075020
v -0.000002 7.232981 -17.076622
v -12.074980 7.232981 -12.075020
v -17.076605 7.232981 -0.000054
v -12.074980 7.232981 12.074965
v -0.000002 7.232981 17.076580
v 12.074981 7.232981 12.074965
v 17.076601 7.232981 -0.000054
v 15.776721 11.780787 -15.776739
v -0.000002 11.780787 -22.311678
v -15.776724 11.780787 -15.776739
v -22.311657 11.780787 -0.000054
v -15.776724 11.780787 15.776698
v -0.000002 11.780787 22.311623
v 15.776728 11.780787 15.776698
v 22.311657 11.780787 -0.000054
v 17.984985 18.679560 -17.985006
v -0.000002 18.679560 -25.434633
v -17.984987 18.679560 -17.985006
v -25.434614 18.679560 -0.000054
v -17.984987 18.679560 17.984966
v -0.000002 18.679560 25.434578
v 17.984985 18.679560 17.984966
v 25.434614 18.679560 -0.000054
v 15.776721 25.098675 -15.776739
v -0.000002 25.098675 -22.311678
v -15.776724 25.098675 -15.776739
v -22.311657 25.098675 -0.000054
v -15.776724 25.098675 15.776698
v -0.000002 25.098675 22.311623
v 15.776728 25.098675 15.776698
v 22.311657 25.098675 -0.000054
v 8.270066 29.136343 -8.270100
v -0.000002 29.136343 -11.695688
v -8.270077 29.136343 -8.270100
v -11.695650 29.136343 -0.000054
v -8.270077 29.136343 8.270058
v -0.000002 29.136343 11.695580
v 8.270066 29.136343 8.270058
v 11.695649 29.136343 -0.000054
v -0.000002 5.763742 -0.000054
v 3.601527 37.845768 -3.601550
v -0.000002 37.845768 -5.093360
v -3.601531 37.845768 -3.601550
v -5.093328 37.845768 -0.000054
v -3.601531 37.845768 3.601495
v -0.000002 37.845768 5.093305
v 3.601527 37.845768 3.601495
v 5.093331 37.845768 -0.000054
v 1.984877 64.236839 -1.984933
v 0.000002 64.236839 -2.807075
v 0.000002 58.220894 -0.000054
v -1.984877 64.236839 -1.984933
v -2.807042 64.236839 -0.000054
v -1.984877 64.236839 1.984825
v 0.000002 64.236839 2.806966
v 1.984877 64.236839 1.984825
v 2.807042 64.236839 -0.000054
v 2.074059 52.330254 -2.074088
v 0.000002 52.330254 -2.933189
v -2.074056 52.330254 -2.074088
v -2.933161 52.330254 -0.000054
v -2.074056 52.330254 2.074033
v 0.000002 52.330254 2.933148
v 2.074059 52.330254 2.074033
v 2.933163 52.330254 -0.000054
v 3.438162 62.575504 -3.438195
v 4.862296 62.575504 -0.000054
v 3.438162 62.575504 3.438100
v -0.000002 62.575504 4.862253
v -3.438159 62.575504 3.438100
v -4.862293 62.575504 -0.000054
v -3.438159 62.575504 -3.438195
v -0.000002 62.575504 -4.862322
v 2.074059 60.678394 -2.074088
v 0.000002 60.678394 -2.933189
v -2.074056 60.678394 -2.074088
v -2.933161 60.678394 -0.000054
v -2.074056 60.678394 2.074033
v 0.000002 60.678394 2.933148
v 2.074059 60.678394 2.074033
v 2.933163 60.678394 -0.000054
v 3.016573 63.891727 -3.016589
v 4.266083 63.891727 -0.000054
v 3.016573 63.891727 3.016547
v -0.000002 63.891727 4.266050
v -3.016570 63.891727 3.016547
v -4.266082 63.891727 -0.000054
v -3.016570 63.891727 -3.016589
v -0.000002 63.891727 -4.266105
vt 0.112775 0.327520
vt 0.112863 0.327495
vt 0.112840 0.327396
vt 0.112678 0.327441
vt 0.112972 0.327518
vt 0.113037 0.327437
vt 0.113041 0.327578
vt 0.113167 0.327545
vt 0.113027 0.327643
vt 0.113148 0.327666
vt 0.112936 0.327671
vt 0.112975 0.327721
vt 0.112822 0.327645
vt 0.112758 0.327671
vt 0.112756 0.327582
vt 0.112639 0.327552
vt 0.112830 0.327298
vt 0.112619 0.327354
vt 0.113085 0.327349
vt 0.113260 0.327487
vt 0.113240 0.327644
vt 0.113010 0.327718
vt 0.112719 0.327651
vt 0.112564 0.327495
vt 0.112831 0.327189
vt 0.112590 0.327250
vt 0.113124 0.327244
vt 0.113328 0.327397
vt 0.113309 0.327574
vt 0.113042 0.327658
vt 0.112702 0.327582
vt 0.112524 0.327407
vt 0.112853 0.327132
vt 0.112638 0.327186
vt 0.113116 0.327181
vt 0.113297 0.327313
vt 0.113278 0.327464
vt 0.113043 0.327534
vt 0.112743 0.327470
vt 0.112582 0.327321
vt 0.112901 0.327163
vt 0.112785 0.327193
vt 0.113044 0.327190
vt 0.113137 0.327260
vt 0.113123 0.327336
vt 0.113001 0.327370
vt 0.112848 0.327339
vt 0.112760 0.327264
vt 0.112901 0.327567
vt 0.112986 0.326732
vt 0.113016 0.326726
vt 0.113015 0.326841
vt 0.113055 0.326732
vt 0.113079 0.326746
vt 0.113075 0.326761
vt 0.113044 0.326768
vt 0.113005 0.326762
vt 0.112981 0.326747
vt 0.112946 0.327098
vt 0.112894 0.327111
vt 0.113010 0.327110
vt 0.113051 0.327140
vt 0.113044 0.327172
vt 0.112991 0.327185
vt 0.112924 0.327173
vt 0.112884 0.327142
vt 0.112976 0.326787
vt 0.113007 0.326780
vt 0.113003 0.326737
vt 0.112951 0.326748
vt 0.113047 0.326786
vt 0.113068 0.326747
vt 0.113072 0.326802
vt 0.113110 0.326772
vt 0.113067 0.326818
vt 0.113103 0.326799
vt 0.113036 0.326825
vt 0.113050 0.326810
vt 0.112995 0.326819
vt 0.112983 0.326800
vt 0.112971 0.326803
vt 0.112942 0.326774
vt 0.112988 0.326907
vt 0.112957 0.326914
vt 0.113026 0.326913
vt 0.113051 0.326930
vt 0.113046 0.326946
vt 0.113015 0.326954
vt 0.112976 0.326947
vt 0.112952 0.326931
vt 0.112809 0.349885
vt 0.113021 0.349752
vt 0.113066 0.349666
vt 0.112878 0.349781
vt 0.112869 0.350085
vt 0.112935 0.349953
vt 0.113205 0.350237
vt 0.113233 0.350082
vt 0.113612 0.350229
vt 0.113593 0.350075
vt 0.113809 0.350067
vt 0.113768 0.349937
vt 0.113695 0.349869
vt 0.113669 0.349767
vt 0.113374 0.349746
vt 0.113381 0.349660
vt 0.113150 0.349698
vt 0.113028 0.349776
vt 0.113070 0.349888
vt 0.113266 0.349969
vt 0.113498 0.349965
vt 0.113616 0.349878
vt 0.113554 0.349766
vt 0.113363 0.349695
vn 0.125925 -0.944310 -0.304010
vn 0.125925 -0.944310 -0.304010
vn 0.125925 -0.944310 -0.304010
vn 0.125925 -0.944310 -0.304010
vn -0.125925 -0.944310 -0.304010
vn -0.125925 -0.944310 -0.304010
vn -0.125925 -0.944310 -0.304010
vn -0.125925 -0.944310 -0.304010
vn -0.304009 -0.944310 -0.125925
vn -0.304009 -0.944310 -0.125925
vn -0.304009 -0.944310 -0.125925
vn -0.304009 -0.944310 -0.125925
vn -0.304010 -0.944310 0.125924
vn -0.304010 -0.944310 0.125924
vn -0.304010 -0.944310 0.125924
vn -0.304010 -0.944310 0.125924
vn -0.125925 -0.944310 0.304010
vn -0.125925 -0.944310 0.304010
vn -0.125925 -0.944310 0.304010
vn -0.125925 -0.944310 0.304010
vn 0.125925 -0.944310 0.304010
vn 0.125925 -0.944310 0.304010
vn 0.125925 -0.944310 0.304010
vn 0.125925 -0.944310 0.304010
vn 0.304010 -0.944310 0.125924
vn 0.304010 -0.944310 0.125924
vn 0.304010 -0.944310 0.125924
vn 0.304010 -0.944310 0.125924
vn 0.304009 -0.944310 -0.125925
vn 0.304009 -0.944310 -0.125925
vn 0.304009 -0.944310 -0.125925
vn 0.304009 -0.944310 -0.125925
vn 0.262148 -0.728519 -0.632881
vn 0.262148 -0.728519 -0.632882
vn 0.262148 -0.728519 -0.632882
vn 0.262148 -0.728519 -0.632882
vn -0.262148 -0.728519 -0.632881
vn -0.262148 -0.728519 -0.632881
vn -0.262148 -0.728519 -0.632881
vn -0.262148 -0.728519 -0.632881
vn -0.632881 -0.728519 -0.262148
vn -0.632881 -0.728519 -0.262148
vn -0.632881 -0.728519 -0.262148
vn -0.632881 -0.728519 -0.262148
vn -0.632881 -0.728519 0.262147
vn -0.632881 -0.728519 0.262147
vn -0.632881 -0.728519 0.262147
vn -0.632881 -0.728519 0.262147
vn -0.262148 -0.728519 0.632881
vn -0.262148 -0.728519 0.632881
vn -0.262148 -0.728519 0.632881
vn -0.262148 -0.728519 0.632881
vn 0.262148 -0.728519 0.632881
vn 0.262148 -0.728519 0.632882
vn 0.262148 -0.728519 0.632882
vn 0.262148 -0.728519 0.632881
vn 0.632881 -0.728520 0.262147
vn 0.632881 -0.728520 0.262147
vn 0.632881 -0.728520 0.262147
vn 0.632881 -0.728520 0.262147
vn 0.632881 -0.728519 -0.262148
vn 0.632881 -0.728519 -0.262148
vn 0.632881 -0.728519 -0.262148
vn 0.632881 -0.728519 -0.262148
vn 0.353051 -0.385840 -0.852340
vn 0.353051 -0.385840 -0.852340
vn 0.353051 -0.385840 -0.852340
vn 0.353051 -0.385840 -0.852340
vn -0.353051 -0.385840 -0.852340
vn -0.353051 -0.385840 -0.852340
vn -0.353051 -0.385840 -0.852340
vn -0.353051 -0.385840 -0.852340
vn -0.852339 -0.385840 -0.353051
vn -0.852339 -0.385840 -0.353051
vn -0.852339 -0.385840 -0.353051
vn -0.852339 -0.385840 -0.353051
vn -0.852340 -0.385840 0.353050
vn -0.852340 -0.385840 0.353050
vn -0.852340 -0.385840 0.353050
vn -0.852340 -0.385840 0.353050
vn -0.353050 -0.385840 0.852340
vn -0.353050 -0.385840 0.852340
vn -0.353050 -0.385840 0.852340
vn -0.353050 -0.385840 0.852340
vn 0.353050 -0.385840 0.852340
vn 0.353050 -0.385840 0.852340
vn 0.353050 -0.385840 0.852340
vn 0.353050 -0.385840 0.852340
vn 0.852340 -0.385839 0.353050
vn 0.852340 -0.385839 0.353050
vn 0.852340 -0.385839 0.353050
vn 0.852340 -0.385839 0.353050
vn 0.852339 -0.385840 -0.353051
vn 0.852339 -0.385840 -0.353051
vn 0.852339 -0.385840 -0.353051
vn 0.852339 -0.385840 -0.353051
vn 0.349046 0.409967 -0.842671
vn 0.349046 0.409967 -0.842671
vn 0.349046 0.409967 -0.842671
vn 0.349046 0.409967 -0.842671
vn -0.349046 0.409967 -0.842671
vn -0.349046 0.409967 -0.842671
vn -0.349046 0.409967 -0.842671
vn -0.349046 0.409967 -0.842671
vn -0.842671 0.409967 -0.349046
vn -0.842671 0.409967 -0.349046
vn -0.842671 0.409967 -0.349046
vn -0.842670 0.409967 -0.349046
vn -0.842671 0.409967 0.349045
vn -0.842671 0.409967 0.349045
vn -0.842671 0.409967 0.349045
vn -0.842671 0.409967 0.349045
vn -0.349045 0.409967 0.842671
vn -0.349045 0.409967 0.842671
vn -0.349045 0.409967 0.842671
vn -0.349045 0.409967 0.842671
vn 0.349045 0.409967 0.842671
vn 0.349045 0.409967 0.842671
vn 0.349045 0.409967 0.842671
vn 0.349045 0.409967 0.842671
vn 0.842671 0.409967 0.349045
vn 0.842671 0.409967 0.349045
vn 0.842671 0.409967 0.349045
vn 0.842671 0.409967 0.349045
vn 0.842671 0.409967 -0.349046
vn 0.842670 0.409967 -0.349046
vn 0.842670 0.409967 -0.349046
vn 0.842670 0.409967 -0.349046
vn 0.145680 0.924707 -0.351701
vn 0.145680 0.924707 -0.351701
vn 0.145680 0.924707 -0.351701
vn 0.145680 0.924707 -0.351701
vn -0.145680 0.924707 -0.351701
vn -0.145680 0.924707 -0.351701
vn -0.145680 0.924707 -0.351701
vn -0.145680 0.924707 -0.351701
vn -0.351701 0.924707 -0.145680
vn -0.351701 0.924707 -0.145680
vn -0.351701 0.924707 -0.145680
vn -0.351701 0.924707 -0.145680
vn -0.351701 0.924707 0.145679
vn -0.351701 0.924707 0.145679
vn -0.351701 0.924707 0.145679
vn -0.351701 0.924707 0.145679
vn -0.145678 0.924708 0.351701
vn -0.145678 0.924708 0.351701
vn -0.145678 0.924708 0.351701
vn -0.145678 0.924708 0.351701
vn 0.145678 0.924708 0.351701
vn 0.145678 0.924708 0.351701
vn 0.145678 0.924708 0.351701
vn 0.145678 0.924708 0.351701
vn 0.351701 0.924708 0.145679
vn 0.351701 0.924708 0.145679
vn 0.351701 0.924708 0.145679
vn 0.351701 0.924708 0.145679
vn 0.351701 0.924707 -0.145680
vn 0.351701 0.924707 -0.145680
vn 0.351701 0.924707 -0.145680
vn 0.351701 0.924707 -0.145680
vn -0.046844 -0.992480 0.113092
vn -0.046844 -0.992480 0.113092
vn -0.046844 -0.992480 0.113092
vn 0.046844 -0.992480 0.113092
vn 0.046844 -0.992480 0.113092
vn 0.046844 -0.992480 0.113092
vn 0.113091 -0.992480 0.046844
vn 0.113091 -0.992480 0.046844
vn 0.113091 -0.992480 0.046844
vn 0.113091 -0.992480 -0.046844
vn 0.113091 -0.992480 -0.046844
vn 0.113091 -0.992480 -0.046844
vn 0.046844 -0.992480 -0.113091
vn 0.046844 -0.992480 -0.113091
vn 0.046844 -0.992480 -0.113091
vn -0.046844 -0.992480 -0.113091
vn -0.046844 -0.992480 -0.113091
vn -0.046844 -0.992480 -0.113091
vn -0.113091 -0.992480 -0.046844
vn -0.113091 -0.992480 -0.046844
vn -0.113091 -0.992480 -0.046844
vn -0.113091 -0.992480 0.046844
vn -0.113091 -0.992480 0.046844
vn -0.113091 -0.992480 0.046844
vn -0.351414 0.395865 0.848410
vn -0.351414 0.395865 0.848410
vn -0.351414 0.395865 0.848410
vn 0.351413 0.395865 0.848410
vn 0.351413 0.395865 0.848410
vn 0.351413 0.395865 0.848410
vn 0.848406 0.395867 0.351421
vn 0.848406 0.395867 0.351421
vn 0.848406 0.395867 0.351421
vn 0.848406 0.395867 -0.351420
vn 0.848406 0.395867 -0.351420
vn 0.848406 0.395867 -0.351420
vn 0.351413 0.395865 -0.848410
vn 0.351413 0.395865 -0.848410
vn 0.351413 0.395865 -0.848410
vn -0.351414 0.395865 -0.848410
vn -0.351414 0.395865 -0.848410
vn -0.351414 0.395865 -0.848410
vn -0.848406 0.395866 -0.351422
vn -0.848406 0.395866 -0.351422
vn -0.848406 0.395866 -0.351422
vn -0.848406 0.395866 0.351422
vn -0.848406 0.395866 0.351422
vn -0.848406 0.395866 0.351422
vn 0.313454 0.573662 -0.756742
vn 0.313454 0.573662 -0.756742
vn 0.313454 0.573662 -0.756742
vn 0.313454 0.573662 -0.756742
vn -0.313454 0.573662 -0.756742
vn -0.313454 0.573662 -0.756742
vn -0.313454 0.573662 -0.756742
vn -0.313454 0.573662 -0.756742
vn -0.756742 0.573661 -0.313454
vn -0.756742 0.573661 -0.313454
vn -0.756742 0.573661 -0.313454
vn -0.756742 0.573661 -0.313454
vn -0.756744 0.573662 0.313451
vn -0.756744 0.573662 0.313451
vn -0.756744 0.573662 0.313451
vn -0.756744 0.573662 0.313451
vn -0.313451 0.573660 0.756745
vn -0.313451 0.573660 0.756745
vn -0.313451 0.573660 0.756745
vn -0.313451 0.573660 0.756745
vn 0.313451 0.573660 0.756745
vn 0.313451 0.573660 0.756745
vn 0.313451 0.573660 0.756745
vn 0.313451 0.573660 0.756745
vn 0.756743 0.573661 0.313452
vn 0.756743 0.573661 0.313452
vn 0.756743 0.573661 0.313452
vn 0.756743 0.573661 0.313452
vn 0.756742 0.573661 -0.313455
vn 0.756742 0.573661 -0.313455
vn 0.756742 0.573661 -0.313455
vn 0.756742 0.573661 -0.313455
vn 0.278906 -0.684707 -0.673341
vn 0.278906 -0.684707 -0.673341
vn 0.278906 -0.684707 -0.673341
vn 0.278906 -0.684707 -0.673341
vn -0.278906 -0.684707 -0.673341
vn -0.278906 -0.684707 -0.673341
vn -0.278906 -0.684707 -0.673341
vn -0.278906 -0.684707 -0.673341
vn -0.673340 -0.684707 -0.278908
vn -0.673340 -0.684707 -0.278908
vn -0.673340 -0.684707 -0.278908
vn -0.673340 -0.684707 -0.278908
vn -0.673342 -0.684705 0.278906
vn -0.673342 -0.684705 0.278906
vn -0.673342 -0.684705 0.278906
vn -0.673342 -0.684705 0.278906
vn -0.278912 -0.684701 0.673344
vn -0.278912 -0.684701 0.673344
vn -0.278912 -0.684701 0.673344
vn -0.278912 -0.684701 0.673344
vn 0.278912 -0.684701 0.673345
vn 0.278912 -0.684700 0.673345
vn 0.278912 -0.684701 0.673345
vn 0.278912 -0.684701 0.673345
vn 0.673342 -0.684705 0.278907
vn 0.673342 -0.684705 0.278907
vn 0.673342 -0.684705 0.278907
vn 0.673342 -0.684705 0.278907
vn 0.673340 -0.684707 -0.278908
vn 0.673340 -0.684707 -0.278908
vn 0.673340 -0.684707 -0.278908
vn 0.673340 -0.684707 -0.278908
vn 0.379103 0.136495 -0.915232
vn 0.379103 0.136495 -0.915232
vn 0.379103 0.136495 -0.915232
vn 0.379103 0.136495 -0.915232
vn -0.379103 0.136495 -0.915232
vn -0.379103 0.136495 -0.915232
vn -0.379103 0.136495 -0.915232
vn -0.379103 0.136495 -0.915232
vn -0.915232 0.136495 -0.379105
vn -0.915232 0.136495 -0.379105
vn -0.915232 0.136495 -0.379105
vn -0.915232 0.136495 -0.379105
vn -0.915234 0.136495 0.379099
vn -0.915234 0.136495 0.379099
vn -0.915234 0.136495 0.379099
vn -0.915234 0.136495 0.379099
vn -0.379105 0.136494 0.915232
vn -0.379105 0.136494 0.915232
vn -0.379105 0.136494 0.915232
vn -0.379105 0.136494 0.915232
vn 0.379105 0.136494 0.915232
vn 0.379105 0.136494 0.915232
vn 0.379105 0.136494 0.915232
vn 0.379105 0.136494 0.915232
vn 0.915234 0.136495 0.379099
vn 0.915234 0.136495 0.379099
vn 0.915234 0.136495 0.379099
vn 0.915234 0.136495 0.379099
vn 0.915231 0.136495 -0.379106
vn 0.915231 0.136495 -0.379106
vn 0.915231 0.136495 -0.379106
vn 0.915231 0.136495 -0.379105
vn 0.852256 0.386053 -0.353020
vn 0.852256 0.386053 -0.353020
vn 0.852256 0.386053 -0.353020
vn 0.852256 0.386053 -0.353020
vn 0.852260 0.386046 0.353017
vn 0.852260 0.386046 0.353017
vn 0.852260 0.386046 0.353017
vn 0.852260 0.386046 0.353017
vn 0.353021 0.386039 0.852262
vn 0.353021 0.386039 0.852262
vn 0.353021 0.386039 0.852262
vn 0.353021 0.386039 0.852261
vn -0.353021 0.386038 0.852262
vn -0.353021 0.386038 0.852262
vn -0.353021 0.386038 0.852262
vn -0.353021 0.386038 0.852262
vn -0.852260 0.386046 0.353018
vn -0.852260 0.386046 0.353018
vn -0.852260 0.386046 0.353018
vn -0.852260 0.386046 0.353018
vn -0.852256 0.386052 -0.353021
vn -0.852256 0.386052 -0.353021
vn -0.852256 0.386052 -0.353021
vn -0.852256 0.386052 -0.353021
vn -0.353017 0.386057 -0.852255
vn -0.353017 0.386057 -0.852255
vn -0.353017 0.386057 -0.852255
vn -0.353017 0.386057 -0.852255
vn 0.353017 0.386057 -0.852255
vn 0.353017 0.386057 -0.852255
vn 0.353017 0.386057 -0.852255
vn 0.353017 0.386057 -0.852255
vn 0.382683 0.000000 -0.923880
vn 0.382683 0.000000 -0.923880
vn 0.382683 0.000000 -0.923880
vn 0.382683 0.000000 -0.923880
vn -0.382683 0.000000 -0.923880
vn -0.382683 0.000000 -0.923880
vn -0.382683 0.000000 -0.923880
vn -0.382683 0.000000 -0.923880
vn -0.923878 0.000000 -0.382688
vn -0.923878 0.000000 -0.382688
vn -0.923878 0.000000 -0.382688
vn -0.923878 0.000000 -0.382688
vn -0.923881 0.000000 0.382680
vn -0.923881 0.000000 0.382680
vn -0.923881 0.000000 0.382680
vn -0.923881 0.000000 0.382680
vn -0.382688 0.000000 0.923878
vn -0.382688 0.000000 0.923878
vn -0.382688 0.000000 0.923878
vn -0.382688 0.000000 0.923878
vn 0.382688 0.000000 0.923878
vn 0.382688 0.000000 0.923878
vn 0.382688 0.000000 0.923878
vn 0.382688 0.000000 0.923878
vn 0.923881 0.000000 0.382679
vn 0.923881 0.000000 0.382679
vn 0.923881 0.000000 0.382679
vn 0.923881 0.000000 0.382679
vn 0.923878 0.000000 -0.382688
vn 0.923878 0.000000 -0.382688
vn 0.923878 0.000000 -0.382688
vn 0.923878 0.000000 -0.382688
vn 0.229144 0.968754 -0.094916
vn 0.229144 0.968754 -0.094916
vn 0.229144 0.968754 -0.094916
vn 0.229144 0.968754 -0.094916
vn 0.229142 0.968754 0.094914
vn 0.229142 0.968754 0.094914
vn 0.229142 0.968754 0.094914
vn 0.229142 0.968754 0.094914
vn 0.094911 0.968756 0.229138
vn 0.094911 0.968756 0.229138
vn 0.094911 0.968756 0.229138
vn 0.094911 0.968756 0.229138
vn -0.094911 0.968755 0.229140
vn -0.094911 0.968755 0.229140
vn -0.094911 0.968755 0.229140
vn -0.094911 0.968755 0.229140
vn -0.229142 0.968754 0.094914
vn -0.229142 0.968754 0.094914
vn -0.229142 0.968754 0.094914
vn -0.229142 0.968754 0.094914
vn -0.229144 0.968754 -0.094916
vn -0.229144 0.968754 -0.094916
vn -0.229144 0.968754 -0.094916
vn -0.229144 0.968754 -0.094916
vn -0.094915 0.968753 -0.229149
vn -0.094915 0.968753 -0.229149
vn -0.094915 0.968753 -0.229149
vn -0.094915 0.968753 -0.229149
vn 0.094915 0.968753 -0.229147
vn 0.094915 0.968753 -0.229147
vn 0.094915 0.968753 -0.229147
vn 0.094915 0.968753 -0.229147
s off
f 1/1/1 2/2/2 10/3/3 9/4/4
f 2/2/5 3/5/6 11/6/7 10/3/8
f 3/5/9 4/7/10 12/8/11 11/6/12
f 4/7/13 5/9/14 13/10/15 12/8/16
f 5/9/17 6/11/18 14/12/19 13/10/20
f 6/11/21 7/13/22 15/14/23 14/12/24
f 7/13/25 8/15/26 16/16/27 15/14/28
f 8/15/29 1/1/30 9/4/31 16/16/32
f 9/4/33 10/3/34 18/17/35 17/18/36
f 10/3/37 11/6/38 19/19/39 18/17/40
f 11/6/41 12/8/42 20/20/43 19/19/44
f 12/8/45 13/10/46 21/21/47 20/20/48
f 13/10/49 14/12/50 22/22/51 21/21/52
f 14/12/53 15/14/54 23/23/55 22/22/56
f 15/14/57 16/16/58 24/24/59 23/23/60
f 16/16/61 9/4/62 17/18/63 24/24/64
f 17/18/65 18/17/66 26/25/67 25/26/68
f 18/17/69 19/19/70 27/27/71 26/25/72
f 19/19/73 20/20/74 28/28/75 27/27/76
f 20/20/77 21/21/78 29/29/79 28/28/80
f 21/21/81 22/22/82 30/30/83 29/29/84
f 22/22/85 23/23/86 31/31/87 30/30/88
f 23/23/89 24/24/90 32/32/91 31/31/92
f 24/24/93 17/18/94 25/26/95 32/32/96
f 25/26/97 26/25/98 34/33/99 33/34/100
f 26/25/101 27/27/102 35/35/103 34/33/104
f 27/27/105 28/28/106 36/36/107 35/35/108
f 28/28/109 29/29/110 37/37/111 36/36/112
f 29/29/113 30/30/114 38/38/115 37/37/116
f 30/30/117 31/31/118 39/39/119 38/38/120
f 31/31/121 32/32/122 40/40/123 39/39/124
f 32/32/125 25/26/126 33/34/127 40/40/128
f 34/33/129 42/41/130 41/42/131 33/34/132
f 35/35/133 43/43/134 42/41/135 34/33/136
f 36/36/137 44/44/138 43/43/139 35/35/140
f 37/37/141 45/45/142 44/44/143 36/36/144
f 38/38/145 46/46/146 45/45/147 37/37/148
f 39/39/149 47/47/150 46/46/151 38/38/152
f 40/40/153 48/48/154 47/47/155 39/39/156
f 33/34/157 41/42/158 48/48/159 40/40/160
f 2/2/161 1/1/162 49/49/163
f 3/5/164 2/2/165 49/49/166
f 4/7/167 3/5/168 49/49/169
f 5/9/170 4/7/171 49/49/172
f 6/11/173 5/9/174 49/49/175
f 7/13/176 6/11/177 49/49/178
f 8/15/179 7/13/180 49/49/181
f 1/1/182 8/15/183 49/49/184
f 58/50/185 59/51/186 60/52/187
f 59/51/188 61/53/189 60/52/190
f 61/53/191 62/54/192 60/52/193
f 62/54/194 63/55/195 60/52/196
f 63/55/197 64/56/198 60/52/199
f 64/56/200 65/57/201 60/52/202
f 65/57/203 66/58/204 60/52/205
f 66/58/206 58/50/207 60/52/208
f 41/42/209 42/41/210 51/59/211 50/60/212
f 42/41/213 43/43/214 52/61/215 51/59/216
f 43/43/217 44/44/218 53/62/219 52/61/220
f 44/44/221 45/45/222 54/63/223 53/62/224
f 45/45/225 46/46/226 55/64/227 54/63/228
f 46/46/229 47/47/230 56/65/231 55/64/232
f 47/47/233 48/48/234 57/66/235 56/65/236
f 48/48/237 41/42/238 50/60/239 57/66/240
f 83/67/241 84/68/242 82/69/243 75/70/244
f 84/68/245 85/71/246 81/72/247 82/69/248
f 85/71/249 86/73/250 80/74/251 81/72/252
f 86/73/253 87/75/254 79/76/255 80/74/256
f 87/75/257 88/77/258 78/78/259 79/76/260
f 88/77/261 89/79/262 77/80/263 78/78/264
f 89/79/265 90/81/266 76/82/267 77/80/268
f 90/81/269 83/67/270 75/70/271 76/82/272
f 50/60/273 51/59/274 68/83/275 67/84/276
f 51/59/277 52/61/278 69/85/279 68/83/280
f 52/61/281 53/62/282 70/86/283 69/85/284
f 53/62/285 54/63/286 71/87/287 70/86/288
f 54/63/289 55/64/290 72/88/291 71/87/292
f 55/64/293 56/65/294 73/89/295 72/88/296
f 56/65/297 57/66/298 74/90/299 73/89/300
f 57/66/301 50/60/302 67/84/303 74/90/304
f 76/91/305 75/92/306 91/93/307 92/94/308
f 77/95/309 76/91/310 92/94/311 93/96/312
f 78/97/313 77/95/314 93/96/315 94/98/316
f 79/99/317 78/97/318 94/98/319 95/100/320
f 80/101/321 79/99/322 95/100/323 96/102/324
f 81/103/325 80/101/326 96/102/327 97/104/328
f 82/105/329 81/103/330 97/104/331 98/106/332
f 75/92/333 82/105/334 98/106/335 91/93/336
f 67/84/337 68/83/338 84/68/339 83/67/340
f 68/83/341 69/85/342 85/71/343 84/68/344
f 69/85/345 70/86/346 86/73/347 85/71/348
f 70/86/349 71/87/350 87/75/351 86/73/352
f 71/87/353 72/88/354 88/77/355 87/75/356
f 72/88/357 73/89/358 89/79/359 88/77/360
f 73/89/361 74/90/362 90/81/363 89/79/364
f 74/90/365 67/84/366 83/67/367 90/81/368
f 92/94/369 91/93/370 58/107/371 66/108/372
f 93/96/373 92/94/374 66/108/375 65/109/376
f 94/98/377 93/96/378 65/109/379 64/110/380
f 95/100/381 94/98/382 64/110/383 63/111/384
f 96/102/385 95/100/386 63/111/387 62/112/388
f 97/104/389 96/102/390 62/112/391 61/113/392
f 98/106/393 97/104/394 61/113/395 59/114/396
f 91/93/397 98/106/398 59/114/399 58/107/400
