# This file uses centimeters as units for non-parametric coordinates.

v -24.842285 7.179398 -4.236328
v -24.842285 7.179398 4.236328
v -24.842285 -0.158493 8.472656
v -24.842285 -7.495407 4.236328
v -24.842285 -7.495407 -4.236328
v -24.842285 -0.158493 -8.472656
v 24.840332 7.179398 -4.236328
v 24.840332 7.179398 4.236328
v 24.840332 -0.158493 8.472656
v 24.840332 -7.495407 4.236328
v 24.840332 -7.495407 -4.236328
v 24.840332 -0.158493 -8.472656
v -26.689941 10.211624 -5.987305
v -26.689941 10.211624 5.987305
v -26.689941 -0.158493 11.973633
v -26.689941 -10.527634 5.987305
v -26.689941 -10.527634 -5.987305
v -26.689941 -0.158493 -11.973633
v 26.690918 10.211624 -5.987305
v 26.690918 10.211624 5.987305
v 26.690918 -0.158493 11.973633
v 26.690918 -10.527634 5.987305
v 26.690918 -10.527634 -5.987305
v 26.690918 -0.158493 -11.973633
v -34.168457 10.211624 -5.987305
v -34.168457 10.211624 5.987305
v -34.168457 -0.158493 11.973633
v -34.168457 -10.527634 5.987305
v -34.168457 -10.527634 -5.987305
v -34.168457 -0.158493 -11.973633
v 34.166992 10.211624 -5.987305
v 34.166992 10.211624 5.987305
v 34.166992 -0.158493 11.973633
v 34.166992 -10.527634 5.987305
v 34.166992 -10.527634 -5.987305
v 34.166992 -0.158493 -11.973633
v -36.578125 4.605179 -2.750000
v -36.578125 4.605179 2.750000
v -36.578125 -0.158493 5.500000
v -36.578125 -4.921188 2.750000
v -36.578125 -4.921188 -2.750000
v -36.578125 -0.158493 -5.500000
v 36.577148 4.605179 -2.750000
v 36.577148 4.605179 2.750000
v 36.577148 -0.158493 5.500000
v 36.577148 -4.921188 2.750000
v 36.577148 -4.921188 -2.750000
v 36.577148 -0.158493 -5.500000
v -42.513184 7.697952 -4.535156
v -42.513184 7.697952 4.535156
v -42.513184 -0.158493 9.071289
v -42.513184 -8.012985 4.535156
v -42.513184 -8.012985 -4.535156
v -42.513184 -0.158493 -9.071289
v 42.513184 7.697952 -4.535156
v 42.513184 7.697952 4.535156
v 42.513184 -0.158493 9.071289
v 42.513184 -8.012985 4.535156
v 42.513184 -8.012985 -4.535156
v 42.513184 -0.158493 -9.071289
v -52.747070 3.490921 -2.107422
v -52.747070 3.490921 2.107422
v -55.463379 -0.158493 0.000000
v -52.747070 -0.158493 4.215820
v -52.747070 -3.808884 2.107422
v -52.747070 -3.808884 -2.107422
v -52.747070 -0.158493 -4.215820
v 52.748047 3.490921 -2.107422
v 52.748047 3.490921 2.107422
v 55.463379 -0.158493 0.000000
v 52.748047 -0.158493 4.215820
v 52.748047 -3.808884 2.107422
v 52.748047 -3.808884 -2.107422
v 52.748047 -0.158493 -4.215820
v -21.871094 -0.158493 8.472656
v -21.871094 7.179398 4.236328
v -21.871094 7.179398 -4.236328
v -21.871094 -0.158493 -8.472656
v -21.871094 -7.495407 -4.236328
v -21.871094 -7.495407 4.236328
v 21.870605 -0.158493 8.472656
v 21.870605 7.179398 4.236328
v 21.870605 7.179398 -4.236328
v 21.870605 -0.158493 -8.472656
v 21.870605 -7.495407 -4.236328
v 21.870605 -7.495407 4.236328
v 21.487305 -5.364548 -1.995117
v 20.174805 -403.234680 -1.995117
v 29.934570 -422.543274 -1.995117
v -1.386719 -475.635071 -1.995117
v -21.634766 -5.364548 -1.995117
v -22.947266 -403.234680 -1.995117
v -32.707031 -422.543274 -1.995117
v -21.657227 -234.107712 -1.995117
v 21.464844 -234.107712 -1.995117
v 29.934570 -422.543274 3.242188
v -1.386719 -475.635071 3.242188
v 20.174805 -403.234680 3.242188
v -22.947266 -403.234680 3.242188
v -32.707031 -422.543274 3.242188
v -21.634766 -5.364548 3.242188
v 21.487305 -5.364548 3.242188
v -21.657227 -234.107712 3.242188
v 21.464844 -234.107712 3.242188
vt 0.094468 0.208853
vt 0.094468 0.208853
vt 0.094468 0.208853
vt 0.094468 0.208853
vt 0.094468 0.208853
vt 0.094468 0.208853
vt 0.094238 0.209906
vt 0.094238 0.209907
vt 0.094238 0.209907
vt 0.094238 0.209906
vt 0.094238 0.209907
vt 0.094238 0.209907
vt 0.094238 0.209907
vt 0.094238 0.209907
vt 0.094238 0.209906
vt 0.094238 0.209906
vt 0.094238 0.209907
vt 0.094238 0.209907
vt 0.094468 0.208853
vt 0.094468 0.208853
vt 0.094468 0.208853
vt 0.094468 0.208853
vt 0.094468 0.208853
vt 0.094468 0.208853
vt 0.094468 0.208853
vt 0.094468 0.208853
vt 0.094468 0.208853
vt 0.094468 0.208853
vt 0.094468 0.208853
vt 0.094468 0.208853
vt 0.094468 0.208853
vt 0.094468 0.208853
vt 0.094468 0.208853
vt 0.094468 0.208853
vt 0.094468 0.208853
vt 0.094468 0.208853
vt 0.094468 0.208853
vt 0.094468 0.208853
vt 0.094468 0.208853
vt 0.094468 0.208853
vt 0.094468 0.208853
vt 0.094468 0.208853
vt 0.094468 0.208853
vt 0.094468 0.208853
vt 0.094468 0.208853
vt 0.094468 0.208853
vt 0.094468 0.208853
vt 0.094468 0.208853
vt 0.094468 0.208853
vt 0.094468 0.208853
vt 0.094468 0.208853
vt 0.094468 0.208853
vt 0.094468 0.208853
vt 0.094468 0.208853
vt 0.094468 0.208853
vt 0.094468 0.208853
vt 0.094468 0.208853
vt 0.094468 0.208853
vt 0.094468 0.208853
vt 0.094468 0.208853
vt 0.094468 0.208853
vt 0.094468 0.208853
vt 0.094468 0.208853
vt 0.094468 0.208853
vt 0.094468 0.208853
vt 0.094468 0.208853
vt 0.094468 0.208853
vt 0.094468 0.208853
vt 0.094468 0.208853
vt 0.094468 0.208853
vt 0.094468 0.208853
vt 0.094468 0.208853
vt 0.094468 0.208853
vt 0.094468 0.208853
vt 0.094468 0.208853
vt 0.094468 0.208853
vt 0.094468 0.208853
vt 0.094468 0.208853
vt 0.094468 0.208853
vt 0.094468 0.208853
vt 0.094468 0.208853
vt 0.094468 0.208853
vt 0.094468 0.208853
vt 0.094468 0.208853
vt 0.094468 0.208853
vt 0.094468 0.208853
vt 0.525660 0.996282
vt 0.525660 0.996333
vt 0.525660 0.996333
vt 0.525660 0.996282
vt 0.525660 0.996231
vt 0.525660 0.996231
vt 0.546816 0.996282
vt 0.546816 0.996333
vt 0.546816 0.996333
vt 0.546816 0.996282
vt 0.546816 0.996231
vt 0.546816 0.996231
vt 0.094238 0.209907
vt 0.094238 0.209907
vt 0.094238 0.209907
vt 0.094238 0.209907
vt 0.094238 0.209906
vt 0.094238 0.209906
vt 0.094238 0.209907
vt 0.094238 0.209907
vt 0.094238 0.209906
vt 0.094238 0.209906
vt 0.094238 0.209907
vt 0.094238 0.209907
vt 0.536264 0.506746
vt 0.551404 0.532411
vt 0.546686 0.541744
vt 0.525841 0.541744
vt 0.521123 0.532411
vt 0.546686 0.869076
vt 0.525841 0.869076
vt 0.525841 0.765300
vt 0.546686 0.765300
vt 0.546686 0.622850
vt 0.525841 0.622850
vt 0.536264 0.506746
vt 0.521123 0.532411
vt 0.525841 0.541744
vt 0.546686 0.541744
vt 0.551404 0.532411
vt 0.546686 0.869076
vt 0.546686 0.765300
vt 0.525841 0.765300
vt 0.525841 0.869076
vt 0.546686 0.622850
vt 0.525841 0.622850
vt 0.536264 0.506746
vt 0.551404 0.532411
vt 0.546686 0.541744
vt 0.525841 0.541744
vt 0.521123 0.532411
vt 0.546686 0.869076
vt 0.525841 0.869076
vt 0.525841 0.765300
vt 0.546686 0.765300
vt 0.525841 0.622850
vt 0.546686 0.622850
vn 0.000000 1.000000 0.000000
vn 0.000000 1.000000 0.000000
vn 0.000000 1.000000 0.000000
vn 0.000000 1.000000 0.000000
vn 0.000000 0.499982 0.866036
vn 0.000000 0.499982 0.866036
vn 0.000000 0.499982 0.866036
vn 0.000000 0.499982 0.866036
vn 0.000000 -0.500032 0.866007
vn 0.000000 -0.500032 0.866007
vn 0.000000 -0.500032 0.866007
vn 0.000000 -0.500032 0.866007
vn 0.000000 -1.000000 0.000000
vn 0.000000 -1.000000 0.000000
vn 0.000000 -1.000000 0.000000
vn 0.000000 -1.000000 0.000000
vn 0.000000 -0.500032 -0.866007
vn 0.000000 -0.500032 -0.866007
vn 0.000000 -0.500032 -0.866007
vn 0.000000 -0.500032 -0.866007
vn 0.000000 0.499982 -0.866036
vn 0.000000 0.499982 -0.866036
vn 0.000000 0.499982 -0.866036
vn 0.000000 0.499982 -0.866036
vn -0.840526 0.469204 0.270857
vn -0.840526 0.469204 -0.270857
vn -1.000000 0.000002 0.000000
vn -0.840621 -0.000013 0.541623
vn -0.840526 0.469204 0.270857
vn -1.000000 0.000002 0.000000
vn -0.840576 -0.469125 0.270840
vn -0.840621 -0.000013 0.541623
vn -1.000000 0.000002 0.000000
vn -0.840576 -0.469125 -0.270840
vn -0.840576 -0.469125 0.270840
vn -1.000000 0.000002 0.000000
vn -0.840621 -0.000013 -0.541623
vn -0.840576 -0.469125 -0.270840
vn -1.000000 0.000002 0.000000
vn -0.840526 0.469204 -0.270857
vn -0.840621 -0.000013 -0.541623
vn -1.000000 0.000002 0.000000
vn 0.840615 0.469085 -0.270788
vn 0.840615 0.469085 0.270788
vn 1.000000 0.000002 0.000000
vn 0.840615 0.469085 0.270788
vn 0.840710 -0.000013 0.541486
vn 1.000000 0.000002 0.000000
vn 0.840710 -0.000013 0.541486
vn 0.840664 -0.469006 0.270771
vn 1.000000 0.000002 0.000000
vn 0.840664 -0.469006 0.270771
vn 0.840664 -0.469006 -0.270771
vn 1.000000 0.000002 0.000000
vn 0.840664 -0.469006 -0.270771
vn 0.840710 -0.000013 -0.541486
vn 1.000000 0.000002 0.000000
vn 0.840710 -0.000013 -0.541486
vn 0.840615 0.469085 -0.270788
vn 1.000000 0.000002 0.000000
vn 0.853954 0.520348 0.000000
vn 0.853954 0.520348 0.000000
vn 0.853954 0.520348 0.000000
vn 0.853954 0.520348 0.000000
vn 0.853954 0.260154 0.450647
vn 0.853954 0.260154 0.450647
vn 0.853954 0.260154 0.450647
vn 0.853954 0.260154 0.450647
vn 0.853954 -0.260176 0.450635
vn 0.853954 -0.260176 0.450635
vn 0.853954 -0.260176 0.450635
vn 0.853953 -0.260176 0.450635
vn 0.853954 -0.520348 0.000000
vn 0.853954 -0.520348 0.000000
vn 0.853954 -0.520348 0.000000
vn 0.853954 -0.520348 0.000000
vn 0.853954 -0.260176 -0.450635
vn 0.853954 -0.260176 -0.450635
vn 0.853954 -0.260176 -0.450635
vn 0.853954 -0.260176 -0.450635
vn 0.853953 0.260154 -0.450647
vn 0.853954 0.260154 -0.450647
vn 0.853954 0.260154 -0.450647
vn 0.853954 0.260154 -0.450647
vn -0.853588 0.520949 0.000000
vn -0.853588 0.520949 0.000000
vn -0.853588 0.520949 0.000000
vn -0.853588 0.520949 0.000000
vn -0.853587 0.260455 0.451168
vn -0.853587 0.260455 0.451168
vn -0.853587 0.260455 0.451168
vn -0.853587 0.260455 0.451168
vn -0.853587 -0.260476 0.451156
vn -0.853587 -0.260476 0.451156
vn -0.853587 -0.260476 0.451156
vn -0.853587 -0.260476 0.451156
vn -0.853588 -0.520949 0.000000
vn -0.853588 -0.520949 0.000000
vn -0.853588 -0.520949 0.000000
vn -0.853588 -0.520949 0.000000
vn -0.853587 -0.260476 -0.451156
vn -0.853587 -0.260476 -0.451156
vn -0.853587 -0.260476 -0.451156
vn -0.853587 -0.260476 -0.451156
vn -0.853587 0.260455 -0.451168
vn -0.853587 0.260455 -0.451168
vn -0.853587 0.260455 -0.451168
vn -0.853587 0.260455 -0.451168
vn 0.000000 1.000000 0.000000
vn 0.000000 1.000000 0.000000
vn 0.000000 1.000000 0.000000
vn 0.000000 1.000000 0.000000
vn 0.000000 0.499946 0.866057
vn 0.000000 0.499946 0.866057
vn 0.000000 0.499946 0.866057
vn 0.000000 0.499946 0.866057
vn 0.000000 -0.499981 0.866036
vn 0.000000 -0.499981 0.866036
vn 0.000000 -0.499981 0.866036
vn 0.000000 -0.499981 0.866036
vn 0.000000 -1.000000 0.000000
vn 0.000000 -1.000000 0.000000
vn 0.000000 -1.000000 0.000000
vn 0.000000 -1.000000 0.000000
vn 0.000000 -0.499981 -0.866036
vn 0.000000 -0.499981 -0.866036
vn 0.000000 -0.499981 -0.866036
vn 0.000000 -0.499981 -0.866036
vn 0.000000 0.499946 -0.866057
vn 0.000000 0.499946 -0.866057
vn 0.000000 0.499946 -0.866057
vn 0.000000 0.499946 -0.866057
vn 0.000000 1.000000 0.000000
vn 0.000000 1.000000 0.000000
vn 0.000000 1.000000 0.000000
vn 0.000000 1.000000 0.000000
vn 0.000000 0.499946 0.866057
vn 0.000000 0.499946 0.866057
vn 0.000000 0.499946 0.866057
vn 0.000000 0.499946 0.866057
vn 0.000000 -0.499981 0.866036
vn 0.000000 -0.499981 0.866036
vn 0.000000 -0.499981 0.866036
vn 0.000000 -0.499981 0.866036
vn 0.000000 -1.000000 0.000000
vn 0.000000 -1.000000 0.000000
vn 0.000000 -1.000000 0.000000
vn 0.000000 -1.000000 0.000000
vn 0.000000 -0.499981 -0.866036
vn 0.000000 -0.499981 -0.866036
vn 0.000000 -0.499981 -0.866036
vn 0.000000 -0.499981 -0.866036
vn 0.000000 0.499946 -0.866057
vn 0.000000 0.499946 -0.866057
vn 0.000000 0.499946 -0.866057
vn 0.000000 0.499946 -0.866057
vn -0.918735 0.394875 0.000000
vn -0.918735 0.394875 0.000000
vn -0.918735 0.394875 0.000000
vn -0.918735 0.394875 0.000000
vn -0.918738 0.197414 0.341977
vn -0.918738 0.197414 0.341977
vn -0.918738 0.197414 0.341977
vn -0.918738 0.197414 0.341977
vn -0.918738 -0.197433 0.341966
vn -0.918738 -0.197433 0.341966
vn -0.918738 -0.197433 0.341966
vn -0.918738 -0.197433 0.341966
vn -0.918735 -0.394875 0.000000
vn -0.918735 -0.394875 0.000000
vn -0.918735 -0.394875 0.000000
vn -0.918735 -0.394875 0.000000
vn -0.918738 -0.197433 -0.341966
vn -0.918738 -0.197433 -0.341966
vn -0.918738 -0.197433 -0.341966
vn -0.918738 -0.197433 -0.341966
vn -0.918738 0.197414 -0.341977
vn -0.918738 0.197414 -0.341977
vn -0.918738 0.197414 -0.341977
vn -0.918738 0.197414 -0.341977
vn 0.918706 0.394943 0.000000
vn 0.918706 0.394943 0.000000
vn 0.918706 0.394943 0.000000
vn 0.918706 0.394943 0.000000
vn 0.918709 0.197448 0.342035
vn 0.918709 0.197448 0.342035
vn 0.918709 0.197448 0.342035
vn 0.918709 0.197448 0.342035
vn 0.918709 -0.197467 0.342024
vn 0.918709 -0.197467 0.342024
vn 0.918709 -0.197467 0.342024
vn 0.918709 -0.197467 0.342024
vn 0.918706 -0.394943 0.000000
vn 0.918706 -0.394943 0.000000
vn 0.918706 -0.394943 0.000000
vn 0.918706 -0.394943 0.000000
vn 0.918709 -0.197467 -0.342024
vn 0.918709 -0.197467 -0.342024
vn 0.918709 -0.197467 -0.342024
vn 0.918709 -0.197467 -0.342024
vn 0.918709 0.197448 -0.342035
vn 0.918709 0.197448 -0.342035
vn 0.918709 0.197448 -0.342035
vn 0.918709 0.197448 -0.342035
vn 0.462122 0.886816 0.000000
vn 0.462122 0.886816 0.000000
vn 0.462122 0.886816 0.000000
vn 0.462122 0.886816 0.000000
vn 0.462102 0.443409 0.768017
vn 0.462102 0.443409 0.768017
vn 0.462102 0.443409 0.768017
vn 0.462102 0.443409 0.768017
vn 0.462073 -0.443494 0.767985
vn 0.462073 -0.443494 0.767985
vn 0.462073 -0.443494 0.767985
vn 0.462073 -0.443494 0.767985
vn 0.462007 -0.886876 0.000000
vn 0.462007 -0.886876 0.000000
vn 0.462007 -0.886876 0.000000
vn 0.462007 -0.886876 0.000000
vn 0.462073 -0.443494 -0.767985
vn 0.462073 -0.443494 -0.767985
vn 0.462073 -0.443494 -0.767985
vn 0.462073 -0.443494 -0.767985
vn 0.462102 0.443409 -0.768017
vn 0.462102 0.443409 -0.768017
vn 0.462102 0.443409 -0.768017
vn 0.462102 0.443409 -0.768017
vn -0.462062 0.886847 0.000000
vn -0.462062 0.886847 0.000000
vn -0.462062 0.886847 0.000000
vn -0.462062 0.886847 0.000000
vn -0.462042 0.443425 0.768044
vn -0.462042 0.443425 0.768044
vn -0.462042 0.443425 0.768044
vn -0.462042 0.443425 0.768044
vn -0.462014 -0.443509 0.768012
vn -0.462014 -0.443509 0.768012
vn -0.462014 -0.443509 0.768012
vn -0.462014 -0.443509 0.768012
vn -0.461948 -0.886907 0.000000
vn -0.461948 -0.886907 0.000000
vn -0.461948 -0.886907 0.000000
vn -0.461948 -0.886907 0.000000
vn -0.462014 -0.443509 -0.768012
vn -0.462014 -0.443509 -0.768012
vn -0.462014 -0.443509 -0.768012
vn -0.462014 -0.443509 -0.768012
vn -0.462042 0.443425 -0.768044
vn -0.462042 0.443425 -0.768044
vn -0.462042 0.443425 -0.768044
vn -0.462042 0.443425 -0.768044
vn -0.380215 0.924898 0.000000
vn -0.380215 0.924898 0.000000
vn -0.380215 0.924898 0.000000
vn -0.380215 0.924898 0.000000
vn -0.380095 0.462558 0.800979
vn -0.380095 0.462558 0.800979
vn -0.380095 0.462558 0.800979
vn -0.380095 0.462558 0.800979
vn -0.380038 -0.462599 0.800982
vn -0.380038 -0.462599 0.800982
vn -0.380038 -0.462599 0.800982
vn -0.380038 -0.462599 0.800982
vn -0.379988 -0.924991 0.000000
vn -0.379988 -0.924991 0.000000
vn -0.379988 -0.924991 0.000000
vn -0.379988 -0.924991 0.000000
vn -0.380038 -0.462600 -0.800982
vn -0.380038 -0.462600 -0.800982
vn -0.380038 -0.462600 -0.800982
vn -0.380038 -0.462600 -0.800982
vn -0.380095 0.462558 -0.800979
vn -0.380095 0.462558 -0.800979
vn -0.380095 0.462558 -0.800979
vn -0.380095 0.462558 -0.800979
vn 0.380184 0.924911 0.000000
vn 0.380184 0.924911 0.000000
vn 0.380184 0.924911 0.000000
vn 0.380184 0.924911 0.000000
vn 0.380064 0.462565 0.800990
vn 0.380064 0.462565 0.800990
vn 0.380064 0.462565 0.800990
vn 0.380064 0.462565 0.800990
vn 0.380007 -0.462606 0.800993
vn 0.380007 -0.462606 0.800993
vn 0.380007 -0.462606 0.800993
vn 0.380007 -0.462606 0.800993
vn 0.379957 -0.925004 0.000000
vn 0.379957 -0.925004 0.000000
vn 0.379957 -0.925004 0.000000
vn 0.379957 -0.925004 0.000000
vn 0.380007 -0.462606 -0.800993
vn 0.380007 -0.462606 -0.800993
vn 0.380007 -0.462606 -0.800993
vn 0.380007 -0.462606 -0.800993
vn 0.380064 0.462565 -0.800990
vn 0.380064 0.462565 -0.800990
vn 0.380064 0.462565 -0.800990
vn 0.380064 0.462565 -0.800990
vn 0.000000 0.499982 0.866036
vn 0.000000 0.499982 0.866036
vn 0.000000 0.499982 0.866036
vn 0.000000 0.499982 0.866036
vn 0.000000 1.000000 0.000000
vn 0.000000 1.000000 0.000000
vn 0.000000 1.000000 0.000000
vn 0.000000 1.000000 0.000000
vn 0.000000 0.499982 -0.866036
vn 0.000000 0.499982 -0.866036
vn 0.000000 0.499982 -0.866036
vn 0.000000 0.499982 -0.866036
vn 0.000000 -0.500032 -0.866007
vn 0.000000 -0.500032 -0.866007
vn 0.000000 -0.500032 -0.866007
vn 0.000000 -0.500032 -0.866007
vn 0.000000 -1.000000 0.000000
vn 0.000000 -1.000000 0.000000
vn 0.000000 -1.000000 0.000000
vn 0.000000 -1.000000 0.000000
vn 0.000000 -0.500032 0.866007
vn 0.000000 -0.500032 0.866007
vn 0.000000 -0.500032 0.866007
vn 0.000000 -0.500032 0.866007
vn 0.000000 0.499982 0.866036
vn 0.000000 0.499982 0.866036
vn 0.000000 0.499982 0.866036
vn 0.000000 0.499982 0.866036
vn 0.000000 1.000000 0.000000
vn 0.000000 1.000000 0.000000
vn 0.000000 1.000000 0.000000
vn 0.000000 1.000000 0.000000
vn 0.000000 0.499982 -0.866036
vn 0.000000 0.499982 -0.866036
vn 0.000000 0.499982 -0.866036
vn 0.000000 0.499982 -0.866036
vn 0.000000 -0.500032 -0.866007
vn 0.000000 -0.500032 -0.866007
vn 0.000000 -0.500032 -0.866007
vn 0.000000 -0.500032 -0.866007
vn 0.000000 -1.000000 0.000000
vn 0.000000 -1.000000 0.000000
vn 0.000000 -1.000000 0.000000
vn 0.000000 -1.000000 0.000000
vn 0.000000 -0.500032 0.866007
vn 0.000000 -0.500032 0.866007
vn 0.000000 -0.500032 0.866007
vn 0.000000 -0.500032 0.866007
vn 0.000000 0.000000 1.000000
vn 0.000000 0.000000 1.000000
vn 0.000000 0.000000 1.000000
vn 0.000000 0.000000 1.000000
vn 0.000000 0.000000 1.000000
vn 0.000000 0.000000 1.000000
vn 0.000000 0.000000 1.000000
vn 0.000000 0.000000 1.000000
vn 0.000000 0.000000 1.000000
vn 0.000000 0.000000 1.000000
vn 0.000000 0.000000 1.000000
vn 0.000000 0.000000 1.000000
vn 0.000000 0.000000 1.000000
vn 0.000000 0.000000 -1.000000
vn 0.000000 0.000000 -1.000000
vn 0.000000 0.000000 -1.000000
vn 0.000000 0.000000 -1.000000
vn 0.000000 0.000000 -1.000000
vn 0.000000 0.000000 -1.000000
vn 0.000000 0.000000 -1.000000
vn 0.000000 0.000000 -1.000000
vn 0.000000 0.000000 -1.000000
vn 0.000000 0.000000 -1.000000
vn 0.000000 0.000000 -1.000000
vn 0.000000 0.000000 -1.000000
vn 0.000000 0.000000 -1.000000
vn 0.861290 -0.508114 0.000000
vn 0.861290 -0.508114 0.000000
vn 0.861290 -0.508114 0.000000
vn 0.861290 -0.508114 0.000000
vn 0.892469 0.451109 0.000000
vn 0.998991 0.044902 0.000000
vn 0.998991 0.044902 0.000000
vn 0.892469 0.451109 0.000000
vn -0.998285 0.058539 0.000000
vn -0.892469 0.451109 0.000000
vn -0.892469 0.451109 0.000000
vn -0.998285 0.058539 0.000000
vn -0.861297 -0.508103 0.000000
vn -0.861297 -0.508103 0.000000
vn -0.861297 -0.508103 0.000000
vn -0.861297 -0.508103 0.000000
vn 0.000000 1.000000 0.000000
vn 0.000000 1.000000 0.000000
vn 0.000000 1.000000 0.000000
vn 0.000000 1.000000 0.000000
vn -1.000000 0.000098 0.000000
vn -0.999995 0.003299 0.000000
vn -0.999995 0.003299 0.000000
vn -1.000000 0.000098 0.000000
vn 0.999995 -0.003299 0.000000
vn 1.000000 -0.000098 0.000000
vn 1.000000 -0.000098 0.000000
vn 0.999995 -0.003299 0.000000
vn -0.999995 0.003299 0.000000
vn -0.998285 0.058539 0.000000
vn -0.998285 0.058539 0.000000
vn -0.999995 0.003299 0.000000
vn 0.998991 0.044902 0.000000
vn 0.999995 -0.003299 0.000000
vn 0.999995 -0.003299 0.000000
vn 0.998991 0.044902 0.000000
s off
f 1/7/1 2/8/2 76/9/3 77/10/4
f 2/8/5 3/11/6 75/12/7 76/9/8
f 3/11/9 4/13/10 80/14/11 75/12/12
f 4/13/13 5/15/14 79/16/15 80/14/16
f 5/15/17 6/17/18 78/18/19 79/16/20
f 6/17/21 1/7/22 77/10/23 78/18/24
f 62/77/25 61/78/26 63/27/27
f 64/79/28 62/77/29 63/27/30
f 65/80/31 64/79/32 63/27/33
f 66/81/34 65/80/35 63/27/36
f 67/82/37 66/81/38 63/27/39
f 61/78/40 67/82/41 63/27/42
f 68/83/43 69/84/44 70/28/45
f 69/84/46 71/85/47 70/28/48
f 71/85/49 72/86/50 70/28/51
f 72/86/52 73/20/53 70/28/54
f 73/20/55 74/19/56 70/28/57
f 74/19/58 68/83/59 70/28/60
f 2/2/61 1/1/62 13/30/63 14/29/64
f 3/3/65 2/2/66 14/29/67 15/31/68
f 4/4/69 3/3/70 15/31/71 16/32/72
f 5/5/73 4/4/74 16/32/75 17/33/76
f 6/6/77 5/5/78 17/33/79 18/34/80
f 1/1/81 6/6/82 18/34/83 13/30/84
f 7/25/85 8/24/86 20/36/87 19/35/88
f 8/24/89 9/23/90 21/37/91 20/36/92
f 9/23/93 10/22/94 22/38/95 21/37/96
f 10/22/97 11/21/98 23/39/99 22/38/100
f 11/21/101 12/26/102 24/40/103 23/39/104
f 12/26/105 7/25/106 19/35/107 24/40/108
f 14/29/109 13/30/110 25/42/111 26/41/112
f 15/31/113 14/29/114 26/41/115 27/43/116
f 16/32/117 15/31/118 27/43/119 28/44/120
f 17/33/121 16/32/122 28/44/123 29/45/124
f 18/34/125 17/33/126 29/45/127 30/46/128
f 13/30/129 18/34/130 30/46/131 25/42/132
f 19/35/133 20/36/134 32/48/135 31/47/136
f 20/36/137 21/37/138 33/49/139 32/48/140
f 21/37/141 22/38/142 34/50/143 33/49/144
f 22/38/145 23/39/146 35/51/147 34/50/148
f 23/39/149 24/40/150 36/52/151 35/51/152
f 24/40/153 19/35/154 31/47/155 36/52/156
f 26/41/157 25/42/158 37/54/159 38/53/160
f 27/43/161 26/41/162 38/53/163 39/55/164
f 28/44/165 27/43/166 39/55/167 40/56/168
f 29/45/169 28/44/170 40/56/171 41/57/172
f 30/46/173 29/45/174 41/57/175 42/58/176
f 25/42/177 30/46/178 42/58/179 37/54/180
f 31/47/181 32/48/182 44/60/183 43/59/184
f 32/48/185 33/49/186 45/61/187 44/60/188
f 33/49/189 34/50/190 46/62/191 45/61/192
f 34/50/193 35/51/194 47/63/195 46/62/196
f 35/51/197 36/52/198 48/64/199 47/63/200
f 36/52/201 31/47/202 43/59/203 48/64/204
f 38/53/205 37/54/206 49/66/207 50/65/208
f 39/55/209 38/53/210 50/65/211 51/67/212
f 40/56/213 39/55/214 51/67/215 52/68/216
f 41/57/217 40/56/218 52/68/219 53/69/220
f 42/58/221 41/57/222 53/69/223 54/70/224
f 37/54/225 42/58/226 54/70/227 49/66/228
f 43/59/229 44/60/230 56/72/231 55/71/232
f 44/60/233 45/61/234 57/73/235 56/72/236
f 45/61/237 46/62/238 58/74/239 57/73/240
f 46/62/241 47/63/242 59/75/243 58/74/244
f 47/63/245 48/64/246 60/76/247 59/75/248
f 48/64/249 43/59/250 55/71/251 60/76/252
f 50/65/253 49/66/254 61/78/255 62/77/256
f 51/67/257 50/65/258 62/77/259 64/79/260
f 52/68/261 51/67/262 64/79/263 65/80/264
f 53/69/265 52/68/266 65/80/267 66/81/268
f 54/70/269 53/69/270 66/81/271 67/82/272
f 49/66/273 54/70/274 67/82/275 61/78/276
f 55/71/277 56/72/278 69/84/279 68/83/280
f 56/72/281 57/73/282 71/85/283 69/84/284
f 57/73/285 58/74/286 72/86/287 71/85/288
f 58/74/289 59/75/290 73/20/291 72/86/292
f 59/75/293 60/76/294 74/19/295 73/20/296
f 60/76/297 55/71/298 68/83/299 74/19/300
f 76/88/301 75/87/302 81/93/303 82/94/304
f 77/89/305 76/88/306 82/94/307 83/95/308
f 78/90/309 77/89/310 83/95/311 84/96/312
f 79/91/313 78/90/314 84/96/315 85/97/316
f 80/92/317 79/91/318 85/97/319 86/98/320
f 75/87/321 80/92/322 86/98/323 81/93/324
f 82/99/325 81/100/326 9/101/327 8/102/328
f 83/103/329 82/99/330 8/102/331 7/104/332
f 84/105/333 83/103/334 7/104/335 12/106/336
f 85/107/337 84/105/338 12/106/339 11/108/340
f 86/109/341 85/107/342 11/108/343 10/110/344
f 81/100/345 86/109/346 10/110/347 9/101/348
f 97/111/349 96/112/350 98/113/351 99/114/352 100/115/353
f 102/116/354 101/117/355 103/118/356 104/119/357
f 104/120/358 103/121/359 99/114/360 98/113/361
f 90/122/362 93/123/363 92/124/364 88/125/365 89/126/366
f 87/127/367 95/128/368 94/129/369 91/130/370
f 95/131/371 88/125/372 92/124/373 94/132/374
f 90/133/375 89/134/376 96/112/377 97/111/378
f 89/134/379 88/135/380 98/113/381 96/112/382
f 92/136/383 93/137/384 100/115/385 99/114/386
f 93/137/387 90/133/388 97/111/389 100/115/390
f 87/138/391 91/139/392 101/117/393 102/116/394
f 91/139/395 94/140/396 103/118/397 101/117/398
f 95/141/399 87/138/400 102/116/401 104/119/402
f 94/142/403 92/136/404 99/114/405 103/121/406
f 88/135/407 95/143/408 104/120/409 98/113/410
