# This file uses centimeters as units for non-parametric coordinates.

v -86.157417 -1.179733 104.574539
v 86.157417 -1.179733 104.574539
v -86.157417 1.179756 104.574539
v 86.157417 1.179756 104.574539
v -86.157417 1.179756 -104.574554
v 86.157417 1.179756 -104.574554
v -86.157417 -1.179733 -104.574554
v 86.157417 -1.179733 -104.574554
v 0.000000 -1.179733 104.574539
v 0.000000 -1.179733 -104.574554
v 0.000000 1.179756 -104.574554
v 0.000000 1.179756 104.574539
v -86.157417 1.179756 0.000046
v 0.000000 1.179756 0.000046
v 86.157417 1.179756 0.000046
v 86.157417 -1.179733 0.000046
v 0.000000 -1.179733 0.000046
v -86.157417 -1.179733 0.000046
vt 0.601184 0.484878
vt 0.601211 0.484892
vt 0.601333 0.484715
vt 0.601309 0.484706
vt 0.601220 0.484274
vt 0.589260 0.499325
vt 0.601174 0.484265
vt 0.601367 0.484166
vt 0.601404 0.484171
vt 0.601361 0.484499
vt 0.601214 0.484665
vt 0.601332 0.484491
vt 0.600821 0.484499
vt 0.600958 0.484954
vt 0.600917 0.484930
vt 0.600762 0.484477
vt 0.601022 0.485166
vt 0.600991 0.485145
vt 0.589260 0.391258
vt 0.676539 0.391258
vt 0.676539 0.499325
vt 0.589260 0.499325
vt 0.676539 0.499325
vt 0.676539 0.391258
vt 0.589260 0.391258
vt 0.589260 0.499325
vt 0.589260 0.391258
vt 0.676539 0.391258
vt 0.676539 0.499325
vt 0.589260 0.499325
vt 0.676539 0.499325
vt 0.676539 0.391258
vt 0.589260 0.391258
vn 0.000000 0.000000 1.000000
vn 0.000000 0.000000 1.000000
vn 0.000000 0.000000 1.000000
vn 0.000000 0.000000 1.000000
vn 0.000000 1.000000 0.000000
vn 0.000000 1.000000 0.000000
vn 0.000000 1.000000 0.000000
vn 0.000000 1.000000 0.000000
vn 0.000000 0.000000 -1.000000
vn 0.000000 0.000000 -1.000000
vn 0.000000 0.000000 -1.000000
vn 0.000000 0.000000 -1.000000
vn 0.000000 -1.000000 0.000000
vn 0.000000 -1.000000 0.000000
vn 0.000000 -1.000000 0.000000
vn 0.000000 -1.000000 0.000000
vn 1.000000 0.000000 0.000000
vn 1.000000 0.000000 0.000000
vn 1.000000 0.000000 0.000000
vn 1.000000 0.000000 0.000000
vn -1.000000 0.000000 0.000000
vn -1.000000 0.000000 0.000000
vn -1.000000 0.000000 0.000000
vn -1.000000 0.000000 0.000000
vn 0.000000 -1.000000 0.000000
vn 0.000000 -1.000000 0.000000
vn 0.000000 -1.000000 0.000000
vn 0.000000 -1.000000 0.000000
vn 0.000000 0.000000 -1.000000
vn 0.000000 0.000000 -1.000000
vn 0.000000 0.000000 -1.000000
vn 0.000000 0.000000 -1.000000
vn 0.000000 1.000000 0.000000
vn 0.000000 1.000000 0.000000
vn 0.000000 1.000000 0.000000
vn 0.000000 1.000000 0.000000
vn 0.000000 0.000000 1.000000
vn 0.000000 0.000000 1.000000
vn 0.000000 0.000000 1.000000
vn 0.000000 0.000000 1.000000
vn 0.000000 1.000000 0.000000
vn 0.000000 1.000000 0.000000
vn 0.000000 1.000000 0.000000
vn 0.000000 1.000000 0.000000
vn 0.000000 1.000000 0.000000
vn 0.000000 1.000000 0.000000
vn 0.000000 1.000000 0.000000
vn 0.000000 1.000000 0.000000
vn 1.000000 0.000000 0.000000
vn 1.000000 0.000000 0.000000
vn 1.000000 0.000000 0.000000
vn 1.000000 0.000000 0.000000
vn 0.000000 -1.000000 0.000000
vn 0.000000 -1.000000 0.000000
vn 0.000000 -1.000000 0.000000
vn 0.000000 -1.000000 0.000000
vn 0.000000 -1.000000 0.000000
vn 0.000000 -1.000000 0.000000
vn 0.000000 -1.000000 0.000000
vn 0.000000 -1.000000 0.000000
vn -1.000000 0.000000 0.000000
vn -1.000000 0.000000 0.000000
vn -1.000000 0.000000 0.000000
vn -1.000000 0.000000 0.000000
s off
f 12/1/1 9/2/2 2/3/3 4/4/4
f 11/23/5 14/24/6 15/25/7 6/26/8
f 10/5/9 11/7/10 6/8/11 8/9/12
f 16/10/13 17/11/14 10/5/15 8/9/16
f 15/12/17 16/10/18 8/9/19 6/8/20
f 7/13/21 18/14/22 13/15/23 5/16/24
f 7/13/25 10/5/26 17/11/27 18/14/28
f 5/16/29 11/7/30 10/5/31 7/13/32
f 13/19/33 14/20/34 11/21/35 5/22/36
f 1/17/37 9/2/38 12/1/39 3/18/40
f 3/6/41 12/31/42 14/32/43 13/33/44
f 15/27/45 14/28/46 12/29/47 4/30/48
f 2/3/49 16/10/50 15/12/51 4/4/52
f 9/2/53 17/11/54 16/10/55 2/3/56
f 18/14/57 17/11/58 9/2/59 1/17/60
f 13/15/61 18/14/62 1/17/63 3/18/64
