# This file uses centimeters as units for non-parametric coordinates.

v 12.254438 47.071358 26.305149
v 29.859541 43.351830 21.606846
v 6.242781 32.946571 13.651769
v 16.756269 42.504757 2.338780
v 25.564131 32.728928 6.485082
v 19.293745 27.994699 17.463169
v 25.466658 50.706417 10.633885
v 7.986555 47.774895 17.667637
v 4.450850 37.374245 -36.495510
v -1.628069 42.945160 -21.306789
v 3.584761 41.083317 -21.095730
v 11.550703 37.966423 -28.359524
v -6.216021 32.096947 -24.609341
v 7.222334 26.856955 -26.658291
v -6.457293 32.191994 -34.721767
v -2.421343 25.397402 -28.606411
v -8.690020 34.918709 -29.231167
v -3.319170 44.255543 -31.535000
v 9.091230 32.947578 -34.900234
v 4.094038 24.707005 -29.754177
v 1.772078 44.108994 -33.404018
v 8.363081 27.559029 -32.817226
v -11.367510 41.551682 17.589573
v -17.446428 47.122589 32.778233
v -12.233599 45.260750 32.989353
v -4.267717 42.143860 25.725559
v -22.034441 36.274384 29.475742
v -8.596087 31.034389 27.426792
v -22.275713 36.369431 19.363316
v -18.239702 29.574841 25.478672
v -24.508440 39.096146 24.853855
v -19.137529 48.432972 22.550083
v -6.727190 37.125015 19.184849
v -11.724382 28.884439 24.330906
v -14.046282 48.286427 20.681065
v -7.455278 31.736465 21.267796
v 6.458357 46.800957 -23.184780
v 11.685469 50.969349 -17.329189
v 16.469831 41.285328 -17.989651
v 24.794111 28.403053 -30.189541
v -24.312151 25.900345 -7.020778
v -3.894609 49.098034 -24.459682
v 2.098555 10.208614 34.771214
v 25.844038 37.696594 -9.148158
v -11.215837 32.318596 27.560703
v 6.754683 9.099073 -28.679348
v 18.805220 6.204262 -3.246974
v 10.838484 32.510201 31.132725
v -14.362322 9.496025 1.699193
v 14.271589 41.303772 18.386509
v -2.852434 55.936394 7.681859
v -12.935503 49.842453 -9.582850
v -18.053911 20.704458 20.594822
v 27.095808 15.598762 -19.871548
v -11.126177 29.547905 -28.977383
v -8.809160 42.478363 -18.246792
v -4.061785 56.748669 -16.611843
v 5.723433 55.604549 -14.848781
v 28.637983 38.115425 8.544225
v -12.856829 41.980007 5.062596
v 20.994978 43.164848 -13.196010
v -14.816484 46.501823 -7.259547
v -1.387957 34.470215 -29.558865
v 18.936323 21.176254 31.850864
v 12.110823 51.981003 10.139195
v -9.795977 44.761513 -18.374477
v 27.336897 38.587799 -1.099513
v -18.143755 38.161873 -6.634364
v 18.166121 37.776848 -14.535609
vt 0.053656 0.067336
vt 0.053895 0.047980
vt 0.054255 0.063562
vt 0.053451 0.053004
vt 0.053809 0.062702
vt 0.054109 0.052783
vt 0.054105 0.071024
vt 0.053510 0.068049
vt 0.053360 0.061260
vt 0.053632 0.058097
vt 0.053183 0.063149
vt 0.053027 0.052142
vt 0.053484 0.046825
vt 0.053019 0.052238
vt 0.053125 0.064479
vt 0.053390 0.057496
vt 0.053548 0.053005
vt 0.053299 0.064330
vt 0.053156 0.045344
vt 0.052943 0.055005
vt 0.053378 0.044644
vt 0.053523 0.047538
vt 0.052822 0.065498
vt 0.053093 0.062336
vt 0.052645 0.067388
vt 0.052488 0.056381
vt 0.052946 0.051064
vt 0.052480 0.056477
vt 0.052587 0.068717
vt 0.052851 0.061735
vt 0.053009 0.057244
vt 0.052760 0.068568
vt 0.052618 0.049583
vt 0.052404 0.059244
vt 0.052839 0.048882
vt 0.052985 0.051776
vt 0.068942 0.124138
vt 0.068942 0.124138
vt 0.068942 0.124138
vt 0.068942 0.124138
vt 0.068942 0.124138
vt 0.068942 0.124138
vt 0.068942 0.124138
vt 0.068942 0.124138
vt 0.068942 0.124138
vt 0.068942 0.124138
vt 0.068942 0.124138
vt 0.068942 0.124138
vt 0.068942 0.124138
vt 0.068942 0.124138
vt 0.068942 0.124138
vt 0.068942 0.124138
vt 0.068942 0.124138
vt 0.068942 0.124138
vt 0.068942 0.124138
vt 0.068942 0.124138
vt 0.068942 0.124138
vt 0.068942 0.124138
vt 0.068942 0.124138
vt 0.068942 0.124138
vt 0.068942 0.124138
vt 0.068942 0.124138
vt 0.068942 0.124138
vt 0.068942 0.124138
vt 0.068942 0.124138
vt 0.068942 0.124138
vt 0.068942 0.124138
vt 0.068942 0.124138
vt 0.068942 0.124138
vn 0.167950 -0.362860 0.916583
vn 0.167950 -0.362860 0.916584
vn 0.167950 -0.362860 0.916583
vn -0.288485 -0.582297 -0.760070
vn -0.288485 -0.582297 -0.760070
vn -0.288485 -0.582297 -0.760070
vn 0.297458 0.843880 0.446525
vn 0.297458 0.843880 0.446525
vn 0.297458 0.843880 0.446525
vn -0.110824 0.984634 0.134958
vn -0.110824 0.984634 0.134958
vn -0.110824 0.984634 0.134958
vn -0.186591 -0.858888 -0.476965
vn -0.186591 -0.858888 -0.476965
vn -0.186591 -0.858888 -0.476965
vn -0.412791 -0.503972 0.758694
vn -0.412791 -0.503972 0.758694
vn -0.412791 -0.503972 0.758694
vn 0.750911 -0.368820 -0.547818
vn 0.750911 -0.368820 -0.547818
vn 0.750911 -0.368820 -0.547818
vn 0.882065 -0.101394 0.460088
vn 0.882065 -0.101394 0.460088
vn 0.882065 -0.101394 0.460088
vn 0.579970 0.186170 -0.793080
vn 0.579970 0.186170 -0.793080
vn 0.579970 0.186170 -0.793080
vn -0.804126 0.241656 -0.543124
vn -0.804126 0.241656 -0.543124
vn -0.804126 0.241656 -0.543124
vn -0.326319 0.820776 -0.468874
vn -0.326319 0.820776 -0.468874
vn -0.326319 0.820776 -0.468874
vn -0.896899 -0.014233 0.442008
vn -0.896898 -0.014233 0.442007
vn -0.896899 -0.014233 0.442007
vn 0.337373 0.940768 -0.033701
vn 0.337373 0.940767 -0.033701
vn 0.337373 0.940768 -0.033701
vn 0.000006 -0.364158 0.931337
vn 0.000006 -0.364158 0.931337
vn 0.000006 -0.364158 0.931337
vn -0.296369 0.315251 -0.901544
vn -0.296369 0.315251 -0.901544
vn -0.296369 0.315251 -0.901544
vn 0.650074 0.464826 -0.601116
vn 0.650074 0.464826 -0.601116
vn 0.650074 0.464826 -0.601116
vn -0.322999 0.285688 -0.902249
vn -0.322999 0.285688 -0.902249
vn -0.322999 0.285688 -0.902249
vn 0.625956 0.516991 -0.583866
vn 0.625956 0.516991 -0.583866
vn 0.625956 0.516991 -0.583866
vn -0.865893 -0.499975 0.015961
vn -0.865893 -0.499975 0.015961
vn -0.865893 -0.499975 0.015961
vn -0.085759 -0.545845 0.833486
vn -0.085759 -0.545845 0.833486
vn -0.085759 -0.545845 0.833486
vn 0.005411 -0.334004 -0.942556
vn 0.005411 -0.334004 -0.942556
vn 0.005411 -0.334004 -0.942556
vn -0.800805 0.338787 -0.493898
vn -0.800805 0.338787 -0.493898
vn -0.800805 0.338787 -0.493898
vn -0.826022 0.525467 0.203892
vn -0.826022 0.525467 0.203892
vn -0.826022 0.525467 0.203892
vn 0.070821 0.990811 0.115228
vn 0.070821 0.990811 0.115228
vn 0.070821 0.990811 0.115228
vn 0.441114 0.873021 0.207974
vn 0.441114 0.873021 0.207974
vn 0.441114 0.873021 0.207974
vn 0.638922 -0.132901 0.757704
vn 0.638922 -0.132901 0.757704
vn 0.638922 -0.132901 0.757704
vn 0.560093 -0.828377 0.009312
vn 0.560093 -0.828377 0.009312
vn 0.560093 -0.828377 0.009312
vn 0.006856 -0.361353 -0.932404
vn 0.006856 -0.361353 -0.932404
vn 0.006856 -0.361353 -0.932404
vn -0.193895 -0.717407 -0.669127
vn -0.193895 -0.717407 -0.669127
vn -0.193895 -0.717407 -0.669127
vn 0.011490 -0.826713 0.562507
vn 0.011490 -0.826713 0.562507
vn 0.011490 -0.826713 0.562507
vn -0.817645 0.179244 0.547109
vn -0.817645 0.179244 0.547109
vn -0.817645 0.179244 0.547109
vn -0.124803 -0.240279 0.962648
vn -0.124803 -0.240279 0.962648
vn -0.124803 -0.240279 0.962648
vn -0.761590 -0.647947 0.012081
vn -0.761590 -0.647947 0.012081
vn -0.761590 -0.647947 0.012081
vn 0.930197 -0.341999 0.133307
vn 0.930197 -0.341999 0.133307
vn 0.930197 -0.341999 0.133307
vn 0.957427 -0.207106 -0.201098
vn 0.957427 -0.207106 -0.201098
vn 0.957427 -0.207106 -0.201098
vn -0.106290 -0.649506 -0.752891
vn -0.106290 -0.649506 -0.752891
vn -0.106290 -0.649506 -0.752891
vn 0.337373 0.940768 -0.033700
vn 0.337373 0.940768 -0.033700
vn 0.337373 0.940768 -0.033700
vn 0.000005 -0.364158 0.931337
vn 0.000005 -0.364158 0.931337
vn 0.000005 -0.364158 0.931337
vn -0.296368 0.315253 -0.901544
vn -0.296368 0.315253 -0.901544
vn -0.296368 0.315253 -0.901544
vn 0.650075 0.464825 -0.601116
vn 0.650075 0.464825 -0.601116
vn 0.650075 0.464825 -0.601116
vn -0.323000 0.285689 -0.902249
vn -0.323000 0.285689 -0.902249
vn -0.323000 0.285689 -0.902249
vn 0.625956 0.516992 -0.583865
vn 0.625956 0.516992 -0.583865
vn 0.625956 0.516992 -0.583865
vn -0.865893 -0.499975 0.015961
vn -0.865893 -0.499975 0.015961
vn -0.865893 -0.499975 0.015961
vn -0.085759 -0.545845 0.833486
vn -0.085759 -0.545845 0.833486
vn -0.085759 -0.545845 0.833486
vn 0.005412 -0.334004 -0.942556
vn 0.005412 -0.334004 -0.942556
vn 0.005412 -0.334004 -0.942556
vn -0.800805 0.338788 -0.493898
vn -0.800805 0.338788 -0.493898
vn -0.800805 0.338788 -0.493898
vn -0.826022 0.525467 0.203893
vn -0.826022 0.525467 0.203893
vn -0.826022 0.525467 0.203893
vn 0.070821 0.990811 0.115230
vn 0.070821 0.990811 0.115230
vn 0.070821 0.990811 0.115230
vn 0.441114 0.873021 0.207974
vn 0.441114 0.873021 0.207974
vn 0.441113 0.873021 0.207974
vn 0.638923 -0.132900 0.757704
vn 0.638923 -0.132900 0.757704
vn 0.638923 -0.132900 0.757704
vn 0.560093 -0.828378 0.009313
vn 0.560093 -0.828378 0.009313
vn 0.560093 -0.828378 0.009313
vn 0.006857 -0.361353 -0.932404
vn 0.006857 -0.361353 -0.932404
vn 0.006857 -0.361353 -0.932404
vn -0.193897 -0.717409 -0.669125
vn -0.193897 -0.717409 -0.669125
vn -0.193897 -0.717409 -0.669125
vn 0.011491 -0.826715 0.562504
vn 0.011491 -0.826715 0.562504
vn 0.011491 -0.826715 0.562504
vn -0.817644 0.179244 0.547110
vn -0.817644 0.179244 0.547110
vn -0.817645 0.179244 0.547110
vn -0.124805 -0.240278 0.962648
vn -0.124805 -0.240278 0.962648
vn -0.124805 -0.240278 0.962647
vn -0.761591 -0.647946 0.012081
vn -0.761591 -0.647946 0.012081
vn -0.761591 -0.647946 0.012081
vn 0.930197 -0.341999 0.133306
vn 0.930197 -0.341999 0.133306
vn 0.930197 -0.341999 0.133306
vn 0.957427 -0.207106 -0.201098
vn 0.957427 -0.207106 -0.201098
vn 0.957427 -0.207106 -0.201098
vn -0.106289 -0.649505 -0.752892
vn -0.106289 -0.649505 -0.752892
vn -0.106289 -0.649505 -0.752892
vn 0.236291 0.679465 -0.694618
vn 0.236291 0.679465 -0.694618
vn 0.236291 0.679465 -0.694618
vn 0.197220 0.893107 -0.404308
vn 0.197220 0.893107 -0.404308
vn 0.197220 0.893107 -0.404308
vn -0.653341 -0.578413 -0.488450
vn -0.653341 -0.578413 -0.488450
vn -0.653341 -0.578413 -0.488450
vn -0.095915 0.831213 0.547619
vn -0.095915 0.831213 0.547619
vn -0.095915 0.831213 0.547619
vn -0.807362 0.419245 -0.415211
vn -0.807362 0.419245 -0.415211
vn -0.807362 0.419245 -0.415210
vn -0.803848 0.523064 0.283252
vn -0.803848 0.523064 0.283252
vn -0.803848 0.523064 0.283252
vn -0.088851 -0.993880 0.065638
vn -0.088851 -0.993880 0.065638
vn -0.088851 -0.993880 0.065638
vn 0.939694 -0.291047 0.179627
vn 0.939694 -0.291047 0.179627
vn 0.939695 -0.291047 0.179627
vn 0.609069 0.349464 -0.711976
vn 0.609069 0.349464 -0.711976
vn 0.609069 0.349464 -0.711976
vn 0.552068 0.548210 0.628241
vn 0.552068 0.548210 0.628241
vn 0.552068 0.548210 0.628241
vn -0.868603 0.412551 0.274463
vn -0.868603 0.412551 0.274463
vn -0.868603 0.412551 0.274463
vn -0.603620 -0.731885 0.316208
vn -0.603620 -0.731885 0.316208
vn -0.603620 -0.731885 0.316208
vn -0.035134 -0.045271 -0.998357
vn -0.035134 -0.045271 -0.998357
vn -0.035134 -0.045271 -0.998357
vn 0.989653 0.084383 -0.116050
vn 0.989653 0.084383 -0.116050
vn 0.989653 0.084383 -0.116050
vn -0.107710 -0.992253 -0.061906
vn -0.107710 -0.992253 -0.061906
vn -0.107710 -0.992253 -0.061906
vn 0.473684 -0.499405 -0.725409
vn 0.473684 -0.499405 -0.725409
vn 0.473684 -0.499405 -0.725409
vn -0.157853 0.218956 0.962881
vn -0.157853 0.218956 0.962881
vn -0.157853 0.218956 0.962881
vn 0.555127 -0.765811 0.324605
vn 0.555127 -0.765811 0.324605
vn 0.555127 -0.765811 0.324605
vn -0.874598 -0.472363 0.109324
vn -0.874598 -0.472363 0.109324
vn -0.874598 -0.472363 0.109324
vn -0.644784 -0.624995 -0.440040
vn -0.644784 -0.624995 -0.440040
vn -0.644784 -0.624995 -0.440040
vn 0.640090 0.767351 -0.038173
vn 0.640090 0.767351 -0.038173
vn 0.640090 0.767351 -0.038173
vn 0.111166 0.993416 0.027682
vn 0.111166 0.993416 0.027682
vn 0.111166 0.993416 0.027682
vn 0.055884 0.631286 0.773534
vn 0.055884 0.631286 0.773534
vn 0.055884 0.631286 0.773534
vn 0.242763 0.966932 0.078162
vn 0.242763 0.966932 0.078162
vn 0.242763 0.966932 0.078162
vn 0.572535 0.333926 -0.748797
vn 0.572535 0.333926 -0.748797
vn 0.572535 0.333926 -0.748797
vn -0.585125 0.808995 0.056177
vn -0.585125 0.808995 0.056177
vn -0.585125 0.808995 0.056177
vn -0.892663 0.386880 0.231248
vn -0.892663 0.386880 0.231248
vn -0.892663 0.386880 0.231248
vn -0.609949 -0.111443 0.784565
vn -0.609949 -0.111443 0.784565
vn -0.609949 -0.111443 0.784565
vn 0.402865 -0.868198 -0.289709
vn 0.402865 -0.868198 -0.289709
vn 0.402865 -0.868198 -0.289709
vn 0.876450 -0.444053 0.186149
vn 0.876450 -0.444053 0.186149
vn 0.876450 -0.444053 0.186149
vn -0.360867 0.633023 -0.684877
vn -0.360867 0.633023 -0.684877
vn -0.360867 0.633023 -0.684877
vn -0.035224 -0.048241 -0.998215
vn -0.035224 -0.048241 -0.998214
vn -0.035224 -0.048241 -0.998214
vn -0.784673 0.372518 -0.495498
vn -0.784673 0.372518 -0.495498
vn -0.784673 0.372518 -0.495498
vn -0.759024 0.490910 -0.427657
vn -0.759024 0.490910 -0.427657
vn -0.759024 0.490910 -0.427657
vn 0.204901 0.703030 -0.681002
vn 0.204901 0.703030 -0.681002
vn 0.204901 0.703030 -0.681002
vn -0.743101 0.471184 -0.475171
vn -0.743101 0.471184 -0.475171
vn -0.743101 0.471184 -0.475171
vn 0.603241 0.796620 -0.038681
vn 0.603241 0.796620 -0.038681
vn 0.603241 0.796620 -0.038681
vn 0.237200 0.677612 -0.696116
vn 0.237200 0.677612 -0.696116
vn 0.237200 0.677612 -0.696116
vn 0.655860 0.752823 -0.055724
vn 0.655860 0.752823 -0.055724
vn 0.655860 0.752823 -0.055724
vn 0.987179 0.094615 -0.128551
vn 0.987179 0.094615 -0.128551
vn 0.987179 0.094615 -0.128551
vn -0.798333 0.513104 0.315259
vn -0.798333 0.513104 0.315259
vn -0.798333 0.513104 0.315259
vn -0.713473 -0.686842 -0.138578
vn -0.713473 -0.686842 -0.138578
vn -0.713473 -0.686842 -0.138578
vn 0.751141 -0.241630 -0.614330
vn 0.751141 -0.241630 -0.614330
vn 0.751141 -0.241630 -0.614330
vn 0.645068 0.762508 -0.049680
vn 0.645068 0.762508 -0.049680
vn 0.645068 0.762508 -0.049680
vn -0.881335 0.197853 -0.429072
vn -0.881335 0.197853 -0.429072
vn -0.881335 0.197853 -0.429072
vn -0.766670 0.596635 0.237160
vn -0.766670 0.596635 0.237160
vn -0.766670 0.596635 0.237160
vn 0.044794 0.828985 -0.557474
vn 0.044794 0.828985 -0.557474
vn 0.044794 0.828986 -0.557474
vn 0.600919 -0.394083 -0.695410
vn 0.600919 -0.394083 -0.695410
vn 0.600919 -0.394083 -0.695410
vn 0.671067 0.513358 0.534913
vn 0.671067 0.513358 0.534913
vn 0.671067 0.513358 0.534913
vn 0.089110 0.126269 0.987986
vn 0.089110 0.126269 0.987986
vn 0.089110 0.126269 0.987986
vn -0.091858 -0.766667 -0.635440
vn -0.091858 -0.766667 -0.635440
vn -0.091858 -0.766667 -0.635440
vn -0.092083 -0.766181 -0.635993
vn -0.092083 -0.766181 -0.635993
vn -0.092083 -0.766181 -0.635993
vn 0.033252 0.615163 0.787699
vn 0.033252 0.615163 0.787699
vn 0.033252 0.615163 0.787699
vn 0.544344 0.579009 0.606991
vn 0.544344 0.579009 0.606991
vn 0.544344 0.579009 0.606991
vn 0.007676 -0.052550 -0.998589
vn 0.007676 -0.052550 -0.998589
vn 0.007676 -0.052550 -0.998589
vn -0.860478 -0.390222 -0.327573
vn -0.860478 -0.390223 -0.327573
vn -0.860478 -0.390223 -0.327573
vn 0.904943 0.370728 -0.208898
vn 0.904943 0.370728 -0.208898
vn 0.904943 0.370728 -0.208898
vn 0.798912 -0.288199 -0.527902
vn 0.798912 -0.288199 -0.527902
vn 0.798912 -0.288199 -0.527902
vn -0.484837 0.872145 -0.065544
vn -0.484837 0.872145 -0.065544
vn -0.484837 0.872145 -0.065544
vn -0.867603 0.428512 0.252274
vn -0.867603 0.428512 0.252274
vn -0.867603 0.428512 0.252274
vn 0.551716 0.290086 -0.781959
vn 0.551716 0.290086 -0.781959
vn 0.551716 0.290086 -0.781959
vn 0.099993 0.986746 -0.127806
vn 0.099993 0.986746 -0.127806
vn 0.099993 0.986746 -0.127806
s off
f 1/1/1 6/2/2 2/3/3
f 3/4/4 4/5/5 5/6/6
f 1/1/7 2/3/8 7/7/9
f 7/7/10 8/8/11 1/1/12
f 3/4/13 5/6/14 6/2/15
f 6/2/16 1/1/17 3/4/18
f 6/2/19 7/7/20 2/3/21
f 5/6/22 7/7/23 6/2/24
f 5/6/25 4/5/26 7/7/27
f 8/8/28 4/5/29 3/4/30
f 8/8/31 7/7/32 4/5/33
f 8/8/34 3/4/35 1/1/36
f 11/9/37 12/10/38 10/11/39
f 11/9/40 13/12/41 14/13/42
f 15/14/43 18/15/44 9/16/45
f 19/17/46 9/16/47 12/10/48
f 18/15/49 21/18/50 9/16/51
f 9/16/52 21/18/53 12/10/54
f 15/14/55 16/19/56 13/12/57
f 16/19/58 14/13/59 13/12/60
f 9/16/61 19/17/62 15/14/63
f 17/20/64 18/15/65 15/14/66
f 17/20/67 10/11/68 18/15/69
f 21/18/70 18/15/71 10/11/72
f 10/11/73 12/10/74 21/18/75
f 11/9/76 14/13/77 12/10/78
f 20/21/79 22/22/80 14/13/81
f 15/14/82 19/17/83 22/22/84
f 20/21/85 16/19/86 15/14/87
f 14/13/88 16/19/89 20/21/90
f 13/12/91 10/11/92 17/20/93
f 11/9/94 10/11/95 13/12/96
f 13/12/97 17/20/98 15/14/99
f 12/10/100 14/13/101 22/22/102
f 22/22/103 19/17/104 12/10/105
f 15/14/106 22/22/107 20/21/108
f 25/23/109 26/24/110 24/25/111
f 25/23/112 27/26/113 28/27/114
f 29/28/115 32/29/116 23/30/117
f 33/31/118 23/30/119 26/24/120
f 32/29/121 35/32/122 23/30/123
f 23/30/124 35/32/125 26/24/126
f 29/28/127 30/33/128 27/26/129
f 30/33/130 28/27/131 27/26/132
f 23/30/133 33/31/134 29/28/135
f 31/34/136 32/29/137 29/28/138
f 31/34/139 24/25/140 32/29/141
f 35/32/142 32/29/143 24/25/144
f 24/25/145 26/24/146 35/32/147
f 25/23/148 28/27/149 26/24/150
f 34/35/151 36/36/152 28/27/153
f 29/28/154 33/31/155 36/36/156
f 34/35/157 30/33/158 29/28/159
f 28/27/160 30/33/161 34/35/162
f 27/26/163 24/25/164 31/34/165
f 25/23/166 24/25/167 27/26/168
f 27/26/169 31/34/170 29/28/171
f 26/24/172 28/27/173 36/36/174
f 36/36/175 33/31/176 26/24/177
f 29/28/178 36/36/179 34/35/180
f 37/37/181 42/38/182 38/39/183
f 40/40/184 63/41/185 44/42/186
f 41/43/187 55/44/188 46/45/189
f 48/46/190 50/47/191 45/48/192
f 41/43/193 68/49/194 55/44/195
f 45/48/196 51/50/197 60/51/198
f 49/52/199 47/53/200 43/54/201
f 59/55/202 64/56/203 54/57/204
f 61/58/205 39/59/206 38/39/207
f 64/56/208 59/55/209 50/47/210
f 60/51/211 41/43/212 53/60/213
f 49/52/214 43/54/215 53/60/216
f 40/40/217 46/45/218 55/44/219
f 40/40/220 67/61/221 54/57/222
f 46/45/223 47/53/224 49/52/225
f 54/57/226 46/45/227 40/40/228
f 48/46/229 45/48/230 43/54/231
f 47/53/232 64/56/233 43/54/234
f 49/52/235 53/60/236 41/43/237
f 46/45/238 49/52/239 41/43/240
f 59/55/241 38/39/242 65/62/243
f 58/63/244 57/64/245 51/50/246
f 45/48/247 50/47/248 51/50/249
f 65/62/250 58/63/251 51/50/252
f 39/59/253 37/37/254 38/39/255
f 52/65/256 51/50/257 57/64/258
f 53/60/259 45/48/260 60/51/261
f 45/48/262 53/60/263 43/54/264
f 46/45/265 54/57/266 47/53/267
f 54/57/268 64/56/269 47/53/270
f 56/66/271 63/41/272 55/44/273
f 63/41/274 40/40/275 55/44/276
f 52/65/277 42/38/278 66/67/279
f 56/66/280 55/44/281 68/49/282
f 58/63/283 42/38/284 57/64/285
f 42/38/286 52/65/287 57/64/288
f 65/62/289 38/39/290 58/63/291
f 38/39/292 42/38/293 58/63/294
f 59/55/295 61/58/296 38/39/297
f 54/57/298 67/61/299 59/55/300
f 60/51/301 51/50/302 62/68/303
f 60/51/304 62/68/305 56/66/306
f 69/69/307 39/59/308 61/58/309
f 67/61/310 61/58/311 59/55/312
f 62/68/313 52/65/314 66/67/315
f 62/68/316 51/50/317 52/65/318
f 63/41/319 56/66/320 39/59/321
f 39/59/322 69/69/323 63/41/324
f 50/47/325 48/46/326 64/56/327
f 64/56/328 48/46/329 43/54/330
f 42/38/331 37/37/332 66/67/333
f 66/67/334 37/37/335 39/59/336
f 51/50/337 50/47/338 65/62/339
f 65/62/340 50/47/341 59/55/342
f 39/59/343 56/66/344 66/67/345
f 62/68/346 66/67/347 56/66/348
f 40/40/349 44/42/350 67/61/351
f 69/69/352 61/58/353 67/61/354
f 56/66/355 68/49/356 60/51/357
f 41/43/358 60/51/359 68/49/360
f 63/41/361 69/69/362 44/42/363
f 44/42/364 69/69/365 67/61/366
