# This file uses centimeters as units for non-parametric coordinates.

v 4.546875 10.621759 386.487549
v 4.539551 0.000000 386.496826
v 163.264160 10.621759 406.276123
v 163.264160 0.000000 406.276123
v -6.547607 8.161624 -16.991943
v 155.960693 8.161624 -26.445190
v 155.960693 18.783382 -26.445190
v -6.547607 18.783382 -16.991943
v -9.740967 10.621759 -390.649048
v -9.740967 0.000000 -390.649048
v 140.227295 10.621759 -422.052490
v 140.227295 0.000000 -422.052490
v -158.299561 10.621759 393.443481
v -158.299561 0.000000 393.443481
v -169.055664 8.161624 -7.538452
v -169.055664 18.783382 -7.538452
v -172.054688 10.621759 -392.563721
v -172.054688 0.000000 -392.563721
v 7.144531 0.000000 -79.121826
v 170.518311 0.000000 -83.739502
v 170.732422 10.621759 -81.568237
v 7.358643 10.621759 -76.950562
v -156.229492 0.000000 -74.504028
v -156.015137 10.621759 -72.332764
v 2.499756 0.000000 31.050537
v 164.878418 0.000000 18.406372
v 164.952393 10.621759 20.229980
v 2.573730 10.621759 32.873779
v -159.878906 0.000000 43.694824
v -159.804932 10.621759 45.518433
v -17.219727 10.050753 304.884644
v 103.549561 20.672512 406.276123
v 103.938232 10.050753 406.276123
v -162.700195 10.050753 145.305420
v -17.219727 20.672512 305.265747
v -162.699951 20.672512 145.686279
v 153.004150 0.000000 322.214355
v 153.004150 10.621759 323.067993
v 0.000000 10.621759 215.016724
v -162.699951 10.621759 101.923096
v 0.000000 0.000000 214.162231
v -162.700195 0.000000 101.068848
v -151.672119 0.000000 222.254883
v -151.673340 10.621759 222.230225
vt 0.874519 0.358136
vt 0.874694 0.403535
vt 0.874694 0.358222
vt 0.874694 0.403535
vt 0.872795 0.397393
vt 0.767368 0.403535
vt 0.767368 0.403535
vt 0.767368 0.357959
vt 0.767368 0.403535
vt 0.767368 0.357959
vt 0.874694 0.357959
vt 0.874694 0.403535
vt 0.874694 0.357959
vt 0.874694 0.403535
vt 0.873003 0.397411
vt 0.767368 0.403535
vt 0.767368 0.403535
vt 0.874694 0.403535
vt 0.874432 0.357959
vt 0.767368 0.357959
vt 0.874694 0.403535
vt 0.874694 0.357959
vt 0.767368 0.403535
vt 0.873209 0.397319
vt 0.767368 0.403535
vt 0.767368 0.357959
vt 0.874694 0.357959
vt 0.874694 0.403535
vt 0.874694 0.357959
vt 0.874694 0.403535
vt 0.873032 0.397307
vt 0.767368 0.403535
vt 0.873198 0.397247
vt 0.873351 0.397255
vt 0.873227 0.397430
vt 0.873397 0.397331
vt 0.873513 0.397264
vt 0.873233 0.397308
vt 0.873052 0.397300
vt 0.780314 0.403535
vt 0.779736 0.403535
vt 0.784580 0.357959
vt 0.784580 0.357959
vt 0.790002 0.403535
vt 0.873421 0.397317
vt 0.789425 0.403535
vt 0.873187 0.397328
vt 0.777788 0.403535
vt 0.873009 0.397315
vt 0.778271 0.403535
vt 0.779115 0.357959
vt 0.779115 0.357959
vt 0.873378 0.397342
vt 0.779476 0.403535
vt 0.779959 0.403535
vt 0.873055 0.397388
vt 0.874694 0.386808
vt 0.872871 0.397400
vt 0.874694 0.386917
vt 0.873336 0.397367
vt 0.805753 0.403535
vt 0.848010 0.357959
vt 0.848010 0.357959
vt 0.805854 0.403535
vt 0.853819 0.403535
vt 0.872841 0.397376
vt 0.854045 0.403535
vt 0.824169 0.357959
vt 0.824169 0.357959
vt 0.794293 0.403535
vt 0.873101 0.397367
vt 0.873355 0.397356
vt 0.794067 0.403535
vt 0.873299 0.397388
vt 0.829347 0.403535
vt 0.829341 0.403535
vn 0.011199 0.986287 0.164661
vn 0.011199 0.986287 0.164661
vn 0.011199 0.986287 0.164661
vn 0.011199 0.986287 0.164661
vn 0.000000 0.000000 1.000000
vn 0.000000 0.000000 1.000000
vn 0.000000 0.000000 1.000000
vn 0.000000 0.000000 1.000000
vn -0.163805 -0.966879 0.195739
vn -0.163805 -0.966879 0.195739
vn -0.163805 -0.966879 0.195739
vn 0.992547 0.004893 -0.121762
vn 0.992547 0.004893 -0.121762
vn 0.992547 0.004893 -0.121762
vn 0.992547 0.004893 -0.121762
vn -0.006128 0.989858 -0.141929
vn -0.006128 0.989858 -0.141929
vn -0.006128 0.989858 -0.141929
vn -0.006128 0.989858 -0.141929
vn -0.204955 0.000000 -0.978771
vn -0.204955 0.000000 -0.978771
vn -0.204955 0.000000 -0.978771
vn -0.204955 0.000000 -0.978771
vn 0.000000 -1.000000 0.000000
vn 0.000000 -1.000000 0.000000
vn 0.000000 -1.000000 0.000000
vn 0.000000 -1.000000 0.000000
vn 0.996013 -0.000922 -0.089207
vn 0.996013 -0.000922 -0.089207
vn 0.996013 -0.000922 -0.089207
vn 0.996013 -0.000922 -0.089207
vn 0.010529 0.987890 0.154797
vn 0.010529 0.987890 0.154797
vn 0.010529 0.987890 0.154797
vn 0.010529 0.987890 0.154797
vn 0.042648 0.000422 0.999090
vn 0.042648 0.000422 0.999090
vn 0.042648 0.000422 0.999090
vn 0.042648 0.000422 0.999090
vn 0.000000 -1.000000 0.000000
vn 0.000000 -1.000000 0.000000
vn 0.000000 -1.000000 0.000000
vn -0.999252 -0.000102 -0.038679
vn -0.999252 -0.000102 -0.038679
vn -0.999252 -0.000102 -0.038679
vn -0.999252 -0.000102 -0.038679
vn -0.005654 0.991375 -0.130937
vn -0.005654 0.991375 -0.130937
vn -0.005654 0.991375 -0.130937
vn -0.005654 0.991375 -0.130937
vn 0.011795 0.000000 -0.999931
vn 0.011795 0.000000 -0.999931
vn 0.011795 0.000000 -0.999931
vn 0.011795 0.000000 -0.999931
vn 0.000000 -1.000000 0.000000
vn 0.000000 -1.000000 0.000000
vn 0.000000 -1.000000 0.000000
vn 0.000000 -1.000000 0.000000
vn -0.998744 0.004982 0.049859
vn -0.998744 0.004982 0.049859
vn -0.998744 0.004982 0.049859
vn -0.998744 0.004982 0.049859
vn 0.000000 1.000000 0.000000
vn 0.000000 1.000000 0.000000
vn 0.000000 1.000000 0.000000
vn 0.000000 1.000000 0.000000
vn 0.005906 -0.990582 0.136793
vn 0.005906 -0.990582 0.136793
vn 0.005906 -0.990582 0.136793
vn 0.005906 -0.990582 0.136793
vn 0.965693 -0.036018 0.257176
vn 0.965693 -0.036018 0.257176
vn 0.965693 -0.036018 0.257176
vn 0.965693 -0.036018 0.257176
vn 0.000000 1.000000 -0.000000
vn 0.000000 1.000000 -0.000000
vn 0.000000 1.000000 -0.000000
vn 0.000000 1.000000 -0.000000
vn 0.005464 -0.991946 0.126547
vn 0.005464 -0.991946 0.126547
vn 0.005464 -0.991946 0.126547
vn 0.005464 -0.991946 0.126547
vn -0.980122 0.029936 -0.196123
vn -0.980122 0.029936 -0.196123
vn -0.980122 0.029936 -0.196123
vn -0.980122 0.029936 -0.196123
vn 0.000000 1.000000 0.000000
vn 0.000000 1.000000 0.000000
vn 0.000000 1.000000 0.000000
vn 0.000000 1.000000 0.000000
vn -0.011622 -0.985224 -0.170875
vn -0.011622 -0.985224 -0.170875
vn -0.011622 -0.985224 -0.170875
vn -0.011622 -0.985224 -0.170875
vn 0.981737 0.012876 -0.189805
vn 0.981737 0.012876 -0.189805
vn 0.981737 0.012876 -0.189805
vn 0.981738 0.012876 -0.189805
vn 0.000000 1.000000 -0.000000
vn 0.000000 1.000000 -0.000000
vn 0.000000 1.000000 -0.000000
vn 0.000000 1.000000 -0.000000
vn -0.010902 -0.987010 -0.160286
vn -0.010902 -0.987010 -0.160286
vn -0.010902 -0.987010 -0.160286
vn -0.010902 -0.987010 -0.160286
vn -0.984985 -0.011356 0.172264
vn -0.984985 -0.011356 0.172264
vn -0.984985 -0.011356 0.172264
vn -0.984985 -0.011356 0.172264
vn -0.195281 -0.003077 0.980743
vn -0.195281 -0.003077 0.980743
vn -0.195281 -0.003077 0.980743
vn -0.195281 -0.003077 0.980743
vn 0.129913 -0.979297 -0.155240
vn 0.129913 -0.979297 -0.155240
vn 0.129913 -0.979297 -0.155240
vn -0.116569 -0.984405 0.131749
vn -0.116569 -0.984405 0.131749
vn -0.116569 -0.984405 0.131749
vn -0.116569 -0.984405 0.131749
vn -1.000000 0.000022 -0.000005
vn -1.000000 0.000022 -0.000005
vn -1.000000 0.000022 -0.000005
vn -1.000000 0.000022 -0.000005
vn -0.130606 0.979060 0.156154
vn -0.130606 0.979060 0.156154
vn -0.130606 0.979060 0.156154
vn -0.171154 0.972255 0.159455
vn -0.171154 0.972255 0.159455
vn -0.171154 0.972255 0.159455
vn -0.171154 0.972255 0.159455
vn 0.000000 -1.000000 0.000000
vn 0.000000 -1.000000 0.000000
vn 0.000000 -1.000000 0.000000
vn 0.000000 -1.000000 0.000000
vn 0.999194 -0.008424 0.039238
vn 0.999194 -0.008424 0.039238
vn 0.999194 -0.008424 0.039238
vn 0.999194 -0.008424 0.039238
vn 0.064598 0.996387 -0.055142
vn 0.064598 0.996387 -0.055142
vn 0.064598 0.996387 -0.055142
vn 0.064598 0.996387 -0.055142
vn 0.117286 0.984211 -0.132559
vn 0.117286 0.984212 -0.132559
vn 0.117286 0.984211 -0.132559
vn 0.117286 0.984212 -0.132559
vn 0.000000 -1.000000 0.000000
vn 0.000000 -1.000000 0.000000
vn 0.000000 -1.000000 0.000000
vn 0.000000 -1.000000 0.000000
vn -0.998692 0.009813 -0.050175
vn -0.998692 0.009813 -0.050175
vn -0.998692 0.009813 -0.050175
vn -0.998692 0.009813 -0.050175
vn 0.170097 -0.972601 -0.158473
vn 0.170097 -0.972601 -0.158473
vn 0.170097 -0.972601 -0.158473
vn 0.170097 -0.972601 -0.158473
vn -0.989876 -0.002424 0.141913
vn -0.989876 -0.002424 0.141913
vn -0.989876 -0.002424 0.141913
vn -0.989876 -0.002424 0.141913
vn 0.000000 1.000000 -0.000000
vn 0.000000 1.000000 -0.000000
vn 0.000000 1.000000 -0.000000
vn 0.162804 0.967267 -0.194650
vn 0.162804 0.967267 -0.194650
vn 0.162804 0.967267 -0.194650
vn -0.064405 -0.996422 0.054733
vn -0.064405 -0.996422 0.054733
vn -0.064405 -0.996422 0.054733
vn -0.064405 -0.996422 0.054733
s off
f 7/7/1 8/8/2 28/51/3 27/50/4
f 3/2/5 32/57/6 33/59/7 4/4/8
f 4/5/9 33/58/10 31/56/11
f 4/4/12 37/65/13 38/67/14 3/2/15
f 7/9/16 21/41/17 22/43/18 8/10/19
f 11/12/20 12/14/21 10/13/22 9/11/23
f 12/33/24 20/39/25 19/38/26 10/34/27
f 12/14/28 11/12/29 21/41/30 20/40/31
f 16/17/32 30/55/33 28/52/34 8/20/35
f 13/18/36 14/21/37 2/22/38 1/19/39
f 14/35/40 43/74/41 2/15/42
f 14/21/43 13/18/44 44/76/45 43/75/46
f 16/25/47 8/26/48 22/42/49 24/46/50
f 17/28/51 9/27/52 10/29/53 18/30/54
f 18/37/55 10/34/56 19/38/57 23/45/58
f 18/30/59 23/44/60 24/46/61 17/28/62
f 22/43/63 21/41/64 11/12/65 9/11/66
f 19/38/67 20/39/68 6/31/69 5/24/70
f 20/40/71 21/41/72 7/9/73 6/16/74
f 24/46/75 22/42/76 9/27/77 17/28/78
f 23/45/79 19/38/80 5/24/81 15/36/82
f 24/46/83 23/44/84 15/32/85 16/25/86
f 27/50/87 28/51/88 39/68/89 38/67/90
f 26/49/91 25/47/92 5/24/93 6/31/94
f 27/50/95 26/48/96 6/6/97 7/7/98
f 28/52/99 30/55/100 40/70/101 39/69/102
f 25/47/103 29/53/104 15/36/105 5/24/106
f 29/54/107 30/55/108 16/17/109 15/23/110
f 33/59/111 32/57/112 1/1/113 2/3/114
f 31/56/115 33/58/116 2/15/117
f 31/56/118 34/60/119 42/72/120 41/71/121
f 34/61/122 36/64/123 40/70/124 42/73/125
f 32/57/126 35/62/127 1/1/128
f 35/63/129 36/64/130 44/76/131 1/19/132
f 37/66/133 41/71/134 25/47/135 26/49/136
f 38/67/137 37/65/138 26/48/139 27/50/140
f 38/67/141 39/68/142 35/62/143 3/2/144
f 39/69/145 40/70/146 36/64/147 35/63/148
f 41/71/149 42/72/150 29/53/151 25/47/152
f 42/73/153 40/70/154 30/55/155 29/54/156
f 2/15/157 43/74/158 34/60/159 31/56/160
f 43/75/161 44/76/162 36/64/163 34/61/164
f 1/19/165 44/76/166 13/18/167
f 3/2/168 35/62/169 32/57/170
f 4/5/171 31/56/172 41/71/173 37/66/174
