# This file uses centimeters as units for non-parametric coordinates.

v -31.846313 0.000000 -12.512695
v -27.299316 0.000000 -16.641602
v -21.402344 0.000000 -14.741211
v -20.123535 0.000000 -8.702148
v -24.741699 0.000000 -4.564453
v -30.567505 0.000000 -6.464844
v -31.846313 1.979240 -12.512695
v -27.299316 1.979240 -16.641602
v -21.402344 1.979240 -14.741211
v -20.123535 1.979240 -8.702148
v -24.741699 1.979240 -4.564453
v -30.567505 1.979240 -6.464844
v 24.315308 0.000000 1.759766
v 30.283203 0.000000 3.375977
v 31.846313 0.000000 9.353516
v 27.441406 0.000000 13.705078
v 21.473389 0.000000 12.079102
v 19.910400 0.000000 6.111328
v 24.315308 1.979240 1.759766
v 30.283203 1.979240 3.375977
v 31.846313 1.979240 9.353516
v 27.441406 1.979240 13.705078
v 21.473389 1.979240 12.079102
v 19.910400 1.979240 6.111328
v -5.670044 1.979240 -8.581055
v -7.588379 1.979240 -14.459961
v -3.467529 1.979240 -19.042969
v 2.571411 1.979240 -17.754883
v 4.489746 1.979240 -11.875977
v 0.368896 1.979240 -7.292969
v -5.670044 0.000000 -8.581055
v -7.588379 0.000000 -14.459961
v -3.467529 0.000000 -19.042969
v 2.571411 0.000000 -17.754883
v 4.489746 0.000000 -11.875977
v 0.368896 0.000000 -7.292969
v 14.912842 1.979240 20.664063
v 8.731689 1.979240 20.716797
v 5.605591 1.979240 15.397461
v 8.660645 1.979240 10.024414
v 14.841797 1.979240 9.970703
v 17.967773 1.979240 15.291016
v 14.912842 0.000000 20.664063
v 8.731689 0.000000 20.716797
v 5.605591 0.000000 15.397461
v 8.660645 0.000000 10.024414
v 14.841797 0.000000 9.970703
v 17.967773 0.000000 15.291016
v 22.418945 0.000000 28.631836
v 18.724487 0.000000 23.649414
v 21.211182 0.000000 17.992188
v 27.392212 0.000000 17.317383
v 31.015625 0.000000 22.291016
v 28.529053 0.000000 27.948242
v 22.418945 1.979240 28.631836
v 18.724487 1.979240 23.649414
v 21.211182 1.979240 17.992188
v 27.392212 1.979240 17.317383
v 31.015625 1.979240 22.291016
v 28.529053 1.979240 27.948242
v 13.608032 1.979240 -18.001953
v 7.498047 1.979240 -17.300781
v 3.803589 1.979240 -22.265625
v 6.219116 1.979240 -27.931641
v 12.400269 1.979240 -28.632813
v 16.094727 1.979240 -23.667969
v 13.608032 0.000000 -18.001953
v 7.498047 0.000000 -17.300781
v 3.803589 0.000000 -22.265625
v 6.219116 0.000000 -27.931641
v 12.400269 0.000000 -28.632813
v 16.094727 0.000000 -23.667969
vt 0.278589 0.500065
vt 0.278589 0.500065
vt 0.278597 0.500057
vt 0.278597 0.500058
vt 0.278608 0.500061
vt 0.278608 0.500061
vt 0.278611 0.500073
vt 0.278610 0.500073
vt 0.278603 0.500080
vt 0.278602 0.500080
vt 0.278592 0.500076
vt 0.278591 0.500077
vt 0.121774 0.425027
vt 0.121774 0.425028
vt 0.121786 0.425030
vt 0.121785 0.425029
vt 0.121790 0.425040
vt 0.121789 0.425039
vt 0.121782 0.425049
vt 0.121782 0.425048
vt 0.121771 0.425048
vt 0.121770 0.425047
vt 0.121766 0.425037
vt 0.121766 0.425036
vt 0.118774 0.422427
vt 0.118774 0.422427
vt 0.118774 0.422427
vt 0.118774 0.422427
vt 0.118774 0.422427
vt 0.118774 0.422427
vt 0.118774 0.422427
vt 0.118774 0.422427
vt 0.118774 0.422427
vt 0.118774 0.422427
vt 0.118774 0.422427
vt 0.118774 0.422427
vt 0.280334 0.505161
vt 0.280334 0.505161
vt 0.280334 0.505161
vt 0.280334 0.505161
vt 0.280334 0.505161
vt 0.280334 0.505161
vt 0.280334 0.505161
vt 0.280334 0.505161
vt 0.280334 0.505161
vt 0.280334 0.505161
vt 0.280334 0.505161
vt 0.280334 0.505161
vt 0.121843 0.424980
vt 0.121843 0.424981
vt 0.121836 0.424972
vt 0.121835 0.424971
vt 0.121839 0.424961
vt 0.121839 0.424960
vt 0.121851 0.424959
vt 0.121850 0.424958
vt 0.121859 0.424967
vt 0.121858 0.424966
vt 0.121855 0.424978
vt 0.121854 0.424977
vt 0.274841 0.501171
vt 0.274841 0.501171
vt 0.274841 0.501171
vt 0.274841 0.501171
vt 0.274841 0.501171
vt 0.274841 0.501171
vt 0.274841 0.501171
vt 0.274841 0.501171
vt 0.274841 0.501171
vt 0.274841 0.501171
vt 0.274841 0.501171
vt 0.274841 0.501171
vn -0.672294 0.000000 -0.740285
vn -0.672294 0.000000 -0.740285
vn -0.672294 0.000000 -0.740285
vn -0.672294 0.000000 -0.740285
vn 0.306736 0.000000 -0.951795
vn 0.306736 0.000000 -0.951795
vn 0.306736 0.000000 -0.951795
vn 0.306736 0.000000 -0.951795
vn 0.978305 0.000000 -0.207172
vn 0.978305 0.000000 -0.207172
vn 0.978305 0.000000 -0.207172
vn 0.978305 0.000000 -0.207172
vn 0.667373 0.000000 0.744724
vn 0.667373 0.000000 0.744724
vn 0.667373 0.000000 0.744724
vn 0.667373 0.000000 0.744724
vn -0.310116 0.000000 0.950699
vn -0.310116 0.000000 0.950699
vn -0.310116 0.000000 0.950699
vn -0.310116 0.000000 0.950699
vn -0.978368 0.000000 0.206871
vn -0.978368 0.000000 0.206871
vn -0.978368 0.000000 0.206871
vn -0.978368 0.000000 0.206871
vn 0.000000 1.000000 0.000000
vn 0.000000 1.000000 0.000000
vn 0.000000 1.000000 0.000000
vn 0.000000 1.000000 0.000000
vn 0.000000 1.000000 0.000000
vn 0.000000 1.000000 0.000000
vn 0.261435 0.000000 -0.965221
vn 0.261435 0.000000 -0.965221
vn 0.261435 0.000000 -0.965221
vn 0.261435 0.000000 -0.965221
vn 0.967467 0.000000 -0.252996
vn 0.967467 0.000000 -0.252996
vn 0.967467 0.000000 -0.252996
vn 0.967467 0.000000 -0.252996
vn 0.702786 0.000000 0.711401
vn 0.702786 0.000000 0.711401
vn 0.702786 0.000000 0.711401
vn 0.702786 0.000000 0.711401
vn -0.262795 0.000000 0.964852
vn -0.262795 0.000000 0.964852
vn -0.262795 0.000000 0.964852
vn -0.262795 0.000000 0.964852
vn -0.967370 0.000000 0.253368
vn -0.967370 0.000000 0.253368
vn -0.967370 0.000000 0.253368
vn -0.967370 0.000000 0.253368
vn -0.702803 0.000000 -0.711385
vn -0.702803 0.000000 -0.711385
vn -0.702803 0.000000 -0.711385
vn -0.702803 0.000000 -0.711385
vn 0.000000 1.000000 0.000000
vn 0.000000 1.000000 0.000000
vn 0.000000 1.000000 0.000000
vn 0.000000 1.000000 0.000000
vn 0.000000 1.000000 0.000000
vn 0.000000 1.000000 0.000000
vn 0.000000 1.000000 0.000000
vn 0.000000 1.000000 0.000000
vn 0.000000 1.000000 0.000000
vn 0.000000 1.000000 0.000000
vn 0.000000 1.000000 0.000000
vn 0.000000 1.000000 0.000000
vn -0.950668 0.000000 0.310211
vn -0.950668 0.000000 0.310211
vn -0.950668 0.000000 0.310211
vn -0.950668 0.000000 0.310211
vn -0.743605 0.000000 -0.668619
vn -0.743605 0.000000 -0.668619
vn -0.743605 0.000000 -0.668619
vn -0.743605 0.000000 -0.668619
vn 0.208604 0.000000 -0.978000
vn 0.208604 0.000000 -0.978000
vn 0.208604 0.000000 -0.978000
vn 0.208604 0.000000 -0.978000
vn 0.950668 0.000000 -0.310211
vn 0.950668 0.000000 -0.310211
vn 0.950668 0.000000 -0.310211
vn 0.950668 0.000000 -0.310211
vn 0.743605 0.000000 0.668619
vn 0.743605 0.000000 0.668619
vn 0.743605 0.000000 0.668619
vn 0.743605 0.000000 0.668619
vn -0.208604 0.000000 0.978000
vn -0.208604 0.000000 0.978000
vn -0.208604 0.000000 0.978000
vn -0.208604 0.000000 0.978000
vn 0.000000 1.000000 0.000000
vn 0.000000 1.000000 0.000000
vn 0.000000 1.000000 0.000000
vn 0.000000 1.000000 0.000000
vn 0.000000 1.000000 0.000000
vn 0.000000 1.000000 0.000000
vn 0.008531 0.000000 0.999964
vn 0.008531 0.000000 0.999964
vn 0.008531 0.000000 0.999964
vn 0.008531 0.000000 0.999964
vn -0.862141 0.000000 0.506668
vn -0.862141 0.000000 0.506668
vn -0.862141 0.000000 0.506668
vn -0.862141 0.000000 0.506668
vn -0.869305 0.000000 -0.494277
vn -0.869305 0.000000 -0.494277
vn -0.869305 0.000000 -0.494277
vn -0.869305 0.000000 -0.494277
vn -0.008689 0.000000 -0.999962
vn -0.008689 0.000000 -0.999962
vn -0.008689 0.000000 -0.999962
vn -0.008689 0.000000 -0.999962
vn 0.862190 0.000000 -0.506584
vn 0.862190 0.000000 -0.506584
vn 0.862190 0.000000 -0.506584
vn 0.862190 0.000000 -0.506584
vn 0.869313 0.000000 0.494262
vn 0.869313 0.000000 0.494262
vn 0.869313 0.000000 0.494262
vn 0.869313 0.000000 0.494262
vn -0.803238 0.000000 0.595658
vn -0.803238 0.000000 0.595658
vn -0.803238 0.000000 0.595658
vn -0.803238 0.000000 0.595658
vn -0.915465 0.000000 -0.402397
vn -0.915465 0.000000 -0.402397
vn -0.915465 0.000000 -0.402397
vn -0.915465 0.000000 -0.402397
vn -0.108567 0.000000 -0.994089
vn -0.108567 0.000000 -0.994089
vn -0.108567 0.000000 -0.994089
vn -0.108567 0.000000 -0.994089
vn 0.808241 0.000000 -0.588852
vn 0.808241 0.000000 -0.588852
vn 0.808241 0.000000 -0.588852
vn 0.808241 0.000000 -0.588852
vn 0.915465 0.000000 0.402397
vn 0.915465 0.000000 0.402397
vn 0.915465 0.000000 0.402397
vn 0.915465 0.000000 0.402397
vn 0.111187 0.000000 0.993800
vn 0.111187 0.000000 0.993800
vn 0.111187 0.000000 0.993800
vn 0.111187 0.000000 0.993800
vn -0.000000 1.000000 -0.000000
vn -0.000000 1.000000 -0.000000
vn -0.000000 1.000000 -0.000000
vn -0.000000 1.000000 -0.000000
vn -0.000000 1.000000 -0.000000
vn -0.000000 1.000000 -0.000000
vn 0.000000 1.000000 0.000000
vn 0.000000 1.000000 0.000000
vn 0.000000 1.000000 0.000000
vn 0.000000 1.000000 0.000000
vn 0.000000 1.000000 0.000000
vn 0.000000 1.000000 0.000000
vn 0.114010 0.000000 0.993480
vn 0.114010 0.000000 0.993480
vn 0.114010 0.000000 0.993480
vn 0.114010 0.000000 0.993480
vn -0.802257 0.000000 0.596979
vn -0.802257 0.000000 0.596979
vn -0.802257 0.000000 0.596979
vn -0.802257 0.000000 0.596979
vn -0.919894 0.000000 -0.392168
vn -0.919894 0.000000 -0.392168
vn -0.919894 0.000000 -0.392168
vn -0.919894 0.000000 -0.392168
vn -0.112714 0.000000 -0.993628
vn -0.112714 0.000000 -0.993628
vn -0.112714 0.000000 -0.993628
vn -0.112714 0.000000 -0.993628
vn 0.802257 0.000000 -0.596979
vn 0.802257 0.000000 -0.596979
vn 0.802257 0.000000 -0.596979
vn 0.802257 0.000000 -0.596979
vn 0.915693 0.000000 0.401878
vn 0.915693 0.000000 0.401878
vn 0.915693 0.000000 0.401878
vn 0.915693 0.000000 0.401878
s off
f 1/1/1 7/2/2 8/3/3 2/4/4
f 2/4/5 8/3/6 9/5/7 3/6/8
f 3/6/9 9/5/10 10/7/11 4/8/12
f 4/8/13 10/7/14 11/9/15 5/10/16
f 5/10/17 11/9/18 12/11/19 6/12/20
f 6/12/21 12/11/22 7/2/23 1/1/24
f 10/7/25 9/5/26 8/3/27 7/2/28 12/11/29 11/9/30
f 13/13/31 19/14/32 20/15/33 14/16/34
f 14/16/35 20/15/36 21/17/37 15/18/38
f 15/18/39 21/17/40 22/19/41 16/20/42
f 16/20/43 22/19/44 23/21/45 17/22/46
f 17/22/47 23/21/48 24/23/49 18/24/50
f 18/24/51 24/23/52 19/14/53 13/13/54
f 22/19/55 21/17/56 20/15/57 19/14/58 24/23/59 23/21/60
f 28/25/61 27/26/62 26/27/63 25/28/64 30/29/65 29/30/66
f 25/28/67 26/27/68 32/31/69 31/32/70
f 26/27/71 27/26/72 33/33/73 32/31/74
f 27/26/75 28/25/76 34/34/77 33/33/78
f 28/25/79 29/30/80 35/35/81 34/34/82
f 29/30/83 30/29/84 36/36/85 35/35/86
f 30/29/87 25/28/88 31/32/89 36/36/90
f 40/37/91 39/38/92 38/39/93 37/40/94 42/41/95 41/42/96
f 37/40/97 38/39/98 44/43/99 43/44/100
f 38/39/101 39/38/102 45/45/103 44/43/104
f 39/38/105 40/37/106 46/46/107 45/45/108
f 40/37/109 41/42/110 47/47/111 46/46/112
f 41/42/113 42/41/114 48/48/115 47/47/116
f 42/41/117 37/40/118 43/44/119 48/48/120
f 49/49/121 55/50/122 56/51/123 50/52/124
f 50/52/125 56/51/126 57/53/127 51/54/128
f 51/54/129 57/53/130 58/55/131 52/56/132
f 52/56/133 58/55/134 59/57/135 53/58/136
f 53/58/137 59/57/138 60/59/139 54/60/140
f 54/60/141 60/59/142 55/50/143 49/49/144
f 58/55/145 57/53/146 56/51/147 55/50/148 60/59/149 59/57/150
f 64/61/151 63/62/152 62/63/153 61/64/154 66/65/155 65/66/156
f 61/64/157 62/63/158 68/67/159 67/68/160
f 62/63/161 63/62/162 69/69/163 68/67/164
f 63/62/165 64/61/166 70/70/167 69/69/168
f 64/61/169 65/66/170 71/71/171 70/70/172
f 65/66/173 66/65/174 72/72/175 71/71/176
f 66/65/177 61/64/178 67/68/179 72/72/180
