# This file uses centimeters as units for non-parametric coordinates.

v -72.517738 -7.962859 16.463688
v 72.517731 -7.962859 16.463688
v -71.439255 8.398089 31.453106
v 77.831215 5.719049 31.453106
v -77.831223 8.398089 28.202837
v 74.775253 8.398089 31.453106
v -77.831223 2.299331 31.453106
v 77.831215 2.299331 31.453106
v -73.947563 -0.111231 19.635372
v 73.957520 -0.111231 19.635372
v -77.831223 4.277614 31.453106
v 27.273874 6.300491 31.453106
v 12.740788 2.878637 31.453106
v -32.965355 8.398089 31.453106
v -31.513895 2.299331 31.453106
v 8.194476 -0.111231 19.635372
v -31.390175 -0.111231 19.635372
v 77.831223 8.398089 22.990435
v -77.811874 8.398089 0.000000
v 77.831215 8.398089 0.000000
v 77.831215 2.894125 0.000000
v -77.831215 2.734421 0.000000
v 73.957520 -0.111231 0.000000
v -73.947563 -0.111231 0.000000
v -72.517738 -7.962859 0.000000
v 72.517731 -7.962859 0.000000
v 27.876245 8.398089 29.001085
vt 0.148854 0.883857
vt 0.149829 0.878401
vt 0.149829 0.881099
vt 0.041317 0.878253
vt 0.050133 0.885146
vt 0.041225 0.881745
vt 0.091330 0.878616
vt 0.087323 0.867328
vt 0.147097 0.867586
vt 0.032711 0.880924
vt 0.033230 0.886733
vt 0.148350 0.975854
vt 0.146569 0.859808
vt 0.040579 0.885927
vt 0.016104 0.883174
vt 0.054176 0.873900
vt 0.048987 0.883189
vt 0.012297 0.975854
vt 0.104267 0.881891
vt 0.051557 0.877783
vt 0.010260 0.878047
vt 0.051343 0.867093
vt 0.012662 0.867270
vt 0.013190 0.859327
vt 0.075245 0.874266
vt 0.075045 0.879961
vt 0.032116 0.874588
vt 0.057686 0.865517
vt 0.062367 0.886040
vt 0.065726 0.881774
vt 0.069126 0.888882
vt 0.065695 0.879668
vt 0.075083 0.885928
vt 0.053286 0.875148
vt 0.050043 0.866486
vt 0.010852 0.879748
vt 0.022843 0.910358
vt 0.032413 0.865997
vt 0.012297 0.952147
vt 0.148350 0.952147
vt 0.075113 0.865221
vt 0.104628 0.884885
vt 0.010089 0.837815
vt 0.176224 0.837815
vt 0.172089 0.828732
vt 0.014214 0.828732
vt 0.176224 0.831940
vt 0.170552 0.820351
vt 0.015740 0.820351
vt 0.010069 0.831770
vt 0.051085 0.910358
vt 0.018150 0.912744
vt 0.130174 0.910358
vt 0.132418 0.916570
vt 0.132418 0.933447
vt 0.018165 0.933447
vt 0.095747 0.912158
vn 0.000000 0.000000 1.000000
vn 0.000000 0.000000 1.000000
vn 0.000000 0.000000 1.000000
vn 1.000000 0.000000 0.000001
vn 1.000000 0.000000 0.000001
vn 1.000000 0.000000 0.000001
vn 0.641294 0.731515 0.231578
vn 0.641294 0.731515 0.231578
vn 0.641294 0.731515 0.231578
vn -0.004314 -0.974532 0.224206
vn -0.004314 -0.974532 0.224206
vn -0.004314 -0.974532 0.224206
vn -0.004314 -0.974532 0.224206
vn 0.582577 -0.812721 -0.009462
vn 0.582577 -0.812721 -0.009462
vn 0.582577 -0.812721 -0.009462
vn 0.582577 -0.812721 -0.009462
vn 0.000000 -0.374547 0.927208
vn 0.000000 -0.374547 0.927208
vn 0.000000 -0.374547 0.927208
vn 0.983599 -0.180367 0.000000
vn 0.983599 -0.180367 0.000000
vn 0.983599 -0.180367 0.000000
vn 0.983599 -0.180367 0.000000
vn -0.370779 0.575178 0.729173
vn -0.370779 0.575178 0.729173
vn -0.370779 0.575178 0.729173
vn 0.000000 1.000000 -0.000001
vn 0.000000 1.000000 -0.000001
vn 0.000000 1.000000 -0.000001
vn 0.000000 0.000000 1.000000
vn 0.000000 0.000000 1.000000
vn 0.000000 0.000000 1.000000
vn 0.000000 0.000000 1.000000
vn 0.000000 0.000000 1.000000
vn 0.000000 0.000000 1.000000
vn 0.000000 0.000000 1.000000
vn 0.000000 0.000000 1.000000
vn 0.006738 -0.975127 0.221544
vn 0.006738 -0.975127 0.221544
vn 0.006738 -0.975127 0.221544
vn 0.006738 -0.975127 0.221544
vn 0.000000 -0.979824 0.199863
vn 0.000000 -0.979824 0.199863
vn 0.000000 -0.979824 0.199863
vn 0.000000 -0.979824 0.199863
vn 0.000000 -0.374548 0.927208
vn 0.000000 -0.374548 0.927208
vn 0.000000 -0.374548 0.927208
vn 0.000000 -0.374548 0.927208
vn 0.000000 -0.374548 0.927208
vn 0.000000 -0.374548 0.927208
vn 0.000000 -0.374548 0.927208
vn -0.000001 0.000000 1.000000
vn -0.000001 0.000000 1.000000
vn -0.000001 0.000000 1.000000
vn -1.000000 0.000000 0.000000
vn -1.000000 0.000000 0.000000
vn -1.000000 0.000000 0.000000
vn -0.000000 0.000000 1.000000
vn -0.000000 0.000000 1.000000
vn -0.000000 0.000000 1.000000
vn -0.000000 0.000000 1.000000
vn 1.000000 -0.000001 -0.000000
vn 1.000000 -0.000001 -0.000000
vn 1.000000 -0.000001 -0.000000
vn 1.000000 -0.000001 -0.000000
vn 0.000000 1.000000 0.000000
vn 0.000000 1.000000 0.000000
vn 0.000000 1.000000 0.000000
vn 0.000000 -1.000000 0.000000
vn 0.000000 -1.000000 0.000000
vn 0.000000 -1.000000 0.000000
vn 0.000000 -1.000000 0.000000
vn -0.999999 0.001559 -0.000313
vn -0.999999 0.001559 -0.000313
vn -0.999999 0.001559 -0.000313
vn -0.999999 0.001559 -0.000313
vn -0.567726 -0.823188 -0.007011
vn -0.567726 -0.823188 -0.007011
vn -0.567726 -0.823188 -0.007011
vn -0.567726 -0.823188 -0.007011
vn -0.983820 -0.179160 0.000000
vn -0.983820 -0.179160 0.000000
vn -0.983820 -0.179160 0.000000
vn -0.983820 -0.179160 0.000000
vn -0.033717 0.763531 0.644890
vn -0.033717 0.763531 0.644890
vn -0.033717 0.763531 0.644890
vn 0.000000 1.000000 0.000000
vn 0.000000 1.000000 0.000000
vn 0.000000 1.000000 0.000000
vn 0.026339 0.756419 0.653557
vn 0.026339 0.756419 0.653557
vn 0.026339 0.756419 0.653557
vn 0.000000 0.000000 -1.000000
vn 0.000000 0.000000 -1.000000
vn 0.000000 0.000000 -1.000000
vn 0.000000 0.000000 -1.000000
vn 0.000000 1.000000 -0.000000
vn 0.000000 1.000000 -0.000000
vn 0.000000 1.000000 -0.000000
vn 0.000000 1.000000 0.000000
vn 0.000000 1.000000 0.000000
vn 0.000000 1.000000 0.000000
vn 0.000000 1.000000 0.000000
vn 0.000000 0.000000 -1.000000
vn 0.000000 0.000000 -1.000000
vn 0.000000 0.000000 -1.000000
vn 0.000000 0.000000 -1.000000
vn 0.000000 0.000000 -1.000000
vn 0.000000 0.000000 -1.000000
vn 0.000000 0.000000 -1.000000
vn 0.000000 0.000000 -1.000000
vn 0.000000 0.000000 -1.000000
vn 0.000000 0.000000 -1.000000
s off
f 6/1/1 8/2/2 4/3/3
f 8/4/4 18/5/5 4/6/6
f 4/6/7 18/5/8 6/14/9
f 13/7/10 16/8/11 10/9/12 8/2/13
f 10/16/14 23/25/15 21/26/16 8/4/17
f 16/8/18 2/13/19 10/9/20
f 2/28/21 26/41/22 23/25/23 10/16/24
f 5/29/25 11/30/26 3/31/27
f 3/37/28 14/51/29 5/52/30
f 14/17/31 15/20/32 13/7/33 12/19/34
f 7/21/35 15/20/36 14/17/37 3/15/38
f 15/20/39 17/22/40 16/8/41 13/7/42
f 9/23/43 17/22/44 15/20/45 7/21/46
f 1/24/47 17/22/48 9/23/49
f 1/24/50 2/13/51 16/8/52 17/22/53
f 7/21/54 3/15/55 11/36/56
f 5/29/57 7/32/58 11/30/59
f 12/19/60 13/7/61 8/2/62 6/1/63
f 8/4/64 21/26/65 20/33/66 18/5/67
f 6/53/68 18/54/69 20/55/70
f 25/39/71 26/40/72 2/12/73 1/18/74
f 19/11/75 22/10/76 7/32/77 5/29/78
f 22/10/79 24/27/80 9/34/81 7/32/82
f 24/27/83 25/38/84 1/35/85 9/34/86
f 12/19/87 6/1/88 27/42/89
f 14/51/90 19/56/91 5/52/92
f 12/19/93 27/42/94 14/17/95
f 19/43/96 20/44/97 23/45/98 24/46/99
f 27/57/100 6/53/101 20/55/102
f 14/51/103 27/57/104 20/55/105 19/56/106
f 23/45/107 20/44/108 21/47/109
f 24/46/110 23/45/111 26/48/112 25/49/113
f 19/43/114 24/46/115 22/50/116
