# This file uses centimeters as units for non-parametric coordinates.

v 0.158508 -9.383864 -1.280029
v 0.158508 -2.164830 5.405396
v -5.380432 -2.110221 -0.100830
v 0.158508 -2.501331 -5.405396
v 5.064819 0.186763 -2.110229
v 3.611694 1.209958 3.975098
v 0.393433 10.172285 0.176514
v -4.696289 0.174215 -2.154297
v 1.714844 -0.628768 -4.971436
v 0.158508 3.127253 -4.134399
v -1.370300 -0.635477 -4.994995
v -2.070496 0.013572 4.482056
v -3.658081 0.761341 3.342773
v -2.455444 3.713699 2.913818
v 0.512329 10.059258 -0.245728
v -0.338318 9.736469 -0.310913
v 0.158508 9.788727 -0.644531
v -0.141724 10.009532 0.245483
v 0.158508 -10.172284 0.605713
v -0.957581 -9.489110 -0.100830
v 0.889893 -10.130957 -0.100830
v 4.504150 -4.101087 -0.100830
v 5.380432 -0.929343 -1.125732
v 5.184631 -1.265858 0.918091
vt 0.051673 0.111957
vt 0.050995 0.093184
vt 0.051891 0.088429
vt 0.055982 0.080294
vt 0.055598 0.062265
vt 0.056092 0.082433
vt 0.055914 0.089530
vt 0.053147 0.108228
vt 0.053147 0.150587
vt 0.053347 0.152307
vt 0.053280 0.153026
vt 0.052867 0.150254
vt 0.054025 0.084345
vt 0.053147 0.072438
vt 0.052285 0.084302
vt 0.055095 0.096037
vt 0.052978 0.151991
vt 0.050410 0.089451
vt 0.053147 0.023660
vt 0.052518 0.028004
vt 0.053147 0.028673
vt 0.053560 0.023923
vt 0.050024 0.074925
vt 0.053147 0.074577
vn -0.455289 0.306875 0.835787
vn -0.455289 0.306875 0.835787
vn -0.455289 0.306875 0.835787
vn 0.966756 -0.250486 0.051373
vn 0.966756 -0.250486 0.051373
vn 0.966756 -0.250486 0.051373
vn 0.541183 0.390233 -0.744875
vn 0.541183 0.390233 -0.744875
vn 0.541183 0.390233 -0.744875
vn 0.541183 0.390233 -0.744875
vn -0.313280 0.891623 -0.326902
vn -0.313280 0.891623 -0.326902
vn -0.313280 0.891623 -0.326902
vn 0.006962 0.220249 -0.975419
vn 0.006962 0.220249 -0.975419
vn 0.006962 0.220249 -0.975419
vn 0.006962 0.220249 -0.975419
vn -0.000000 0.390233 0.920716
vn -0.000000 0.390233 0.920716
vn -0.000000 0.390233 0.920716
vn -0.000000 0.390233 0.920716
vn -0.911428 0.390233 0.130451
vn -0.911428 0.390233 0.130451
vn -0.911428 0.390233 0.130451
vn -0.911428 0.390233 0.130451
vn -0.305239 -0.878579 -0.367326
vn -0.305239 -0.878579 -0.367326
vn -0.305239 -0.878579 -0.367326
vn -0.305239 -0.878579 -0.367326
vn -0.313281 0.891624 -0.326896
vn -0.313281 0.891624 -0.326896
vn -0.313281 0.891624 -0.326896
vn -0.541183 0.390233 -0.744875
vn -0.541183 0.390233 -0.744875
vn -0.541183 0.390233 -0.744875
vn -0.541183 0.390233 -0.744875
vn -0.313281 0.891625 -0.326894
vn -0.313281 0.891625 -0.326894
vn -0.313281 0.891625 -0.326894
vn -0.651044 -0.390233 -0.651045
vn -0.651044 -0.390233 -0.651045
vn -0.651044 -0.390233 -0.651045
vn -0.651044 -0.390233 -0.651045
vn -0.651045 -0.390233 0.651045
vn -0.651045 -0.390233 0.651045
vn -0.651045 -0.390233 0.651045
vn -0.651045 -0.390233 0.651045
vn 0.908207 0.390233 0.151257
vn 0.908207 0.390233 0.151257
vn 0.908207 0.390233 0.151257
vn 0.908207 0.390233 0.151257
vn 0.651044 -0.390233 0.651045
vn 0.651044 -0.390233 0.651045
vn 0.651044 -0.390233 0.651045
vn 0.651044 -0.390233 0.651045
vn 0.651045 -0.390233 -0.651045
vn 0.651045 -0.390233 -0.651045
vn 0.651045 -0.390233 -0.651045
vn 0.651045 -0.390233 -0.651045
vn -0.000000 0.390233 0.920716
vn -0.000000 0.390233 0.920716
vn -0.000000 0.390233 0.920716
vn -0.000000 0.390233 0.920716
vn 0.908207 0.390233 0.151257
vn 0.908207 0.390233 0.151257
vn 0.908207 0.390233 0.151257
vn 0.908207 0.390233 0.151257
vn 0.541183 0.390233 -0.744875
vn 0.541183 0.390233 -0.744875
vn 0.541183 0.390233 -0.744875
vn -0.541183 0.390233 -0.744875
vn -0.541183 0.390233 -0.744875
vn -0.541183 0.390233 -0.744875
vn -0.911428 0.390233 0.130451
vn -0.911428 0.390233 0.130451
vn -0.911428 0.390233 0.130451
vn -0.911428 0.390233 0.130451
vn -0.651045 -0.390233 0.651045
vn -0.651045 -0.390233 0.651045
vn -0.651045 -0.390233 0.651045
vn -0.651045 -0.390233 0.651045
vn 0.651044 -0.390233 0.651045
vn 0.651044 -0.390233 0.651045
vn 0.651044 -0.390233 0.651045
vn 0.651044 -0.390233 0.651045
vn 0.651045 -0.390233 -0.651045
vn 0.651045 -0.390233 -0.651045
vn 0.651045 -0.390233 -0.651045
vn 0.651045 -0.390233 -0.651045
vn -0.651044 -0.390233 -0.651045
vn -0.651044 -0.390233 -0.651045
vn -0.651044 -0.390233 -0.651045
vn -0.651044 -0.390233 -0.651045
vn 0.651045 -0.390233 -0.651045
vn 0.651045 -0.390233 -0.651045
vn 0.651045 -0.390233 -0.651045
s off
f 14/1/1 13/2/2 12/3/3
f 24/4/4 22/5/5 23/6/6
f 5/7/7 10/8/8 17/9/9 15/10/10
f 7/11/11 17/9/12 16/12/13
f 10/8/14 9/13/15 4/14/16 11/15/17
f 14/1/18 6/16/19 7/11/20 18/17/21
f 8/18/22 14/1/23 18/17/24 16/12/25
f 19/19/26 20/20/27 1/21/28 21/22/29
f 15/10/30 17/9/31 7/11/32
f 16/12/33 17/9/34 10/8/35 8/18/36
f 16/12/37 18/17/38 7/11/39
f 11/15/40 4/14/41 3/23/42 8/18/43
f 3/23/44 2/24/45 12/3/46 13/2/47
f 6/16/48 24/4/49 23/6/50 5/7/51
f 2/24/52 22/5/53 24/4/54 6/16/55
f 23/6/56 22/5/57 9/13/58 5/7/59
f 2/24/60 6/16/61 14/1/62 12/3/63
f 6/16/64 5/7/65 15/10/66 7/11/67
f 5/7/68 9/13/69 10/8/70
f 8/18/71 10/8/72 11/15/73
f 8/18/74 3/23/75 13/2/76 14/1/77
f 20/20/78 19/19/79 2/24/80 3/23/81
f 2/24/82 19/19/83 21/22/84 22/5/85
f 4/14/86 22/5/87 21/22/88 1/21/89
f 3/23/90 4/14/91 1/21/92 20/20/93
f 9/13/94 22/5/95 4/14/96
