# This file uses centimeters as units for non-parametric coordinates.

v 1.755312 1.832113 -4.023596
v 0.000000 1.819180 -5.423082
v -1.755312 1.822314 -4.023598
v -2.443330 1.809923 -0.334042
v -1.727695 1.809923 1.727695
v 0.000000 1.809923 2.443329
v 1.727695 1.809923 1.727695
v 2.443331 1.809923 -0.334042
v 1.767767 -0.000000 -7.985430
v 0.000000 0.000000 -10.003498
v 3.300898 0.000000 -5.567905
v -1.767767 0.000000 -7.985430
v -3.300898 0.000000 -5.567907
v -4.267767 -0.000000 -2.353994
v -4.633883 0.000000 -0.008240
v -4.267767 0.000000 1.767767
v -3.276649 0.000000 3.276649
v -1.767767 0.000000 4.267767
v 0.000000 -0.000000 4.633883
v 1.767767 -0.000000 4.267767
v 3.276649 -0.000000 3.276651
v 4.267767 -0.000000 1.767767
v 4.633884 0.000000 -0.008240
v 4.267767 -0.000000 -2.353994
v -1.468122 0.904961 3.544361
v 1.468122 0.904961 3.544361
v 3.544361 0.904961 1.468122
v 3.535135 0.883811 -2.279976
v 1.458897 0.879337 -7.744007
v -1.458897 0.869539 -7.744007
v -3.535135 0.874012 -2.279976
v -3.544360 0.904961 1.468122
v 1.755312 -1.832113 -4.023596
v 0.000000 -1.819180 -5.423082
v -1.755312 -1.822314 -4.023598
v -2.443330 -1.809923 -0.334042
v -1.727695 -1.809923 1.727695
v 0.000000 -1.809923 2.443329
v 1.727695 -1.809923 1.727695
v 2.443331 -1.809923 -0.334042
v -1.468122 -0.904961 3.544361
v 1.468122 -0.904961 3.544361
v 3.544361 -0.904961 1.468122
v 3.535135 -0.883811 -2.279976
v 1.458897 -0.879337 -7.744007
v -1.458897 -0.869539 -7.744007
v -3.535135 -0.874012 -2.279976
v -3.544360 -0.904961 1.468122
v 0.000000 1.815403 -1.029955
v 0.000000 -1.815403 -1.029955
vt 0.475004 0.030900
vt 0.475117 0.030860
vt 0.475242 0.030851
vt 0.475363 0.030877
vt 0.475465 0.030934
vt 0.475530 0.031016
vt 0.475552 0.031113
vt 0.475519 0.031211
vt 0.475437 0.031294
vt 0.475314 0.031345
vt 0.475173 0.031356
vt 0.475039 0.031323
vt 0.474934 0.031254
vt 0.474877 0.031161
vt 0.474872 0.031062
vt 0.474918 0.030971
vt 0.474988 0.030631
vt 0.475245 0.030581
vt 0.475484 0.030664
vt 0.475580 0.030845
vt 0.475457 0.031028
vt 0.475170 0.031092
vt 0.474910 0.030988
vt 0.474844 0.030793
vt 0.475319 0.031212
vt 0.475031 0.031190
vt 0.474863 0.031027
vt 0.474907 0.030837
vt 0.475114 0.030725
vt 0.475369 0.030742
vt 0.475543 0.030882
vt 0.475532 0.031077
vt 0.474988 0.030631
vt 0.475245 0.030581
vt 0.475484 0.030664
vt 0.475580 0.030845
vt 0.475457 0.031028
vt 0.475170 0.031092
vt 0.474910 0.030988
vt 0.474844 0.030793
vt 0.475114 0.030725
vt 0.475369 0.030742
vt 0.475543 0.030882
vt 0.475532 0.031077
vt 0.475319 0.031212
vt 0.475031 0.031190
vt 0.474863 0.031027
vt 0.474907 0.030837
vt 0.475173 0.031356
vt 0.474934 0.031254
vt 0.474872 0.031062
vt 0.475004 0.030900
vt 0.475242 0.030851
vt 0.475465 0.030934
vt 0.475552 0.031113
vt 0.475437 0.031294
vt 0.475314 0.031345
vt 0.475039 0.031323
vt 0.474877 0.031161
vt 0.474918 0.030971
vt 0.475117 0.030860
vt 0.475363 0.030877
vt 0.475530 0.031016
vt 0.475519 0.031211
vt 0.475210 0.030828
vt 0.475210 0.030828
vn 0.198709 0.945498 -0.257968
vn 0.198709 0.945498 -0.257968
vn 0.198709 0.945498 -0.257968
vn -0.204089 0.944317 -0.258094
vn -0.204089 0.944317 -0.258094
vn -0.204089 0.944317 -0.258094
vn -0.541110 0.835210 -0.098100
vn -0.541110 0.835210 -0.098100
vn -0.541110 0.835210 -0.098100
vn -0.458324 0.874432 0.159085
vn -0.458324 0.874432 0.159085
vn -0.458324 0.874432 0.159085
vn -0.190284 0.867616 0.459386
vn -0.190284 0.867616 0.459386
vn -0.190284 0.867616 0.459386
vn 0.190284 0.867615 0.459386
vn 0.190284 0.867615 0.459386
vn 0.190284 0.867615 0.459386
vn 0.458324 0.874432 0.159086
vn 0.458324 0.874432 0.159086
vn 0.458324 0.874432 0.159086
vn 0.539368 0.836632 -0.095548
vn 0.539368 0.836632 -0.095548
vn 0.539368 0.836632 -0.095548
vn 0.000000 0.769253 0.638945
vn 0.000000 0.769253 0.638945
vn 0.000000 0.769253 0.638945
vn 0.451802 0.769253 0.451802
vn 0.451802 0.769253 0.451802
vn 0.451802 0.769253 0.451802
vn 0.634170 0.773171 -0.005924
vn 0.634170 0.773171 -0.005924
vn 0.634170 0.773171 -0.005924
vn 0.635977 0.732696 -0.242260
vn 0.635977 0.732696 -0.242260
vn 0.635977 0.732696 -0.242260
vn -0.003132 0.932592 -0.360919
vn -0.003132 0.932592 -0.360919
vn -0.003132 0.932592 -0.360919
vn -0.632149 0.736477 -0.240809
vn -0.632149 0.736477 -0.240809
vn -0.632149 0.736477 -0.240809
vn -0.632526 0.774499 -0.007952
vn -0.632526 0.774499 -0.007952
vn -0.632526 0.774499 -0.007952
vn -0.451802 0.769253 0.451802
vn -0.451802 0.769253 0.451802
vn -0.451802 0.769253 0.451802
vn 0.000000 0.772540 0.634967
vn 0.000000 0.772540 0.634967
vn 0.000000 0.772540 0.634967
vn 0.448990 0.772539 0.448989
vn 0.448990 0.772539 0.448989
vn 0.448990 0.772539 0.448989
vn 0.640711 0.767759 -0.005910
vn 0.640711 0.767759 -0.005910
vn 0.640711 0.767759 -0.005910
vn 0.628809 0.739742 -0.239542
vn 0.628809 0.739742 -0.239542
vn 0.628809 0.739742 -0.239542
vn -0.003110 0.926202 -0.377015
vn -0.003110 0.926202 -0.377015
vn -0.003110 0.926202 -0.377015
vn -0.628810 0.739742 -0.239542
vn -0.628810 0.739742 -0.239542
vn -0.628810 0.739742 -0.239542
vn -0.642641 0.766127 -0.007908
vn -0.642641 0.766127 -0.007908
vn -0.642641 0.766127 -0.007908
vn -0.448990 0.772539 0.448989
vn -0.448990 0.772539 0.448989
vn -0.448990 0.772539 0.448989
vn -0.154529 0.647612 0.746137
vn -0.154529 0.647612 0.746137
vn -0.154529 0.647612 0.746137
vn 0.154529 0.647612 0.746137
vn 0.154529 0.647612 0.746137
vn 0.154529 0.647612 0.746137
vn 0.418329 0.647612 0.636867
vn 0.418329 0.647612 0.636867
vn 0.418329 0.647612 0.636867
vn 0.636867 0.647612 0.418329
vn 0.636867 0.647612 0.418329
vn 0.636867 0.647612 0.418329
vn 0.746334 0.647545 0.153854
vn 0.746334 0.647545 0.153854
vn 0.746334 0.647545 0.153854
vn 0.759550 0.639555 -0.118548
vn 0.759550 0.639555 -0.118548
vn 0.759550 0.639555 -0.118548
vn 0.741237 0.633121 -0.222993
vn 0.741237 0.633121 -0.222993
vn 0.741237 0.633121 -0.222993
vn 0.771934 0.405548 -0.489540
vn 0.771934 0.405548 -0.489540
vn 0.771934 0.405548 -0.489540
vn 0.687209 0.406657 -0.601975
vn 0.687209 0.406657 -0.601975
vn 0.687209 0.406657 -0.601975
vn -0.685925 0.410471 -0.600850
vn -0.685925 0.410471 -0.600850
vn -0.685925 0.410471 -0.600850
vn -0.770499 0.409356 -0.488630
vn -0.770499 0.409356 -0.488630
vn -0.770499 0.409356 -0.488630
vn -0.737910 0.637345 -0.221992
vn -0.737910 0.637345 -0.221992
vn -0.737910 0.637345 -0.221992
vn -0.756071 0.643763 -0.118004
vn -0.756071 0.643763 -0.118004
vn -0.756071 0.643763 -0.118004
vn -0.746334 0.647546 0.153853
vn -0.746334 0.647546 0.153853
vn -0.746334 0.647546 0.153853
vn -0.636867 0.647612 0.418329
vn -0.636867 0.647612 0.418329
vn -0.636867 0.647612 0.418329
vn -0.418330 0.647612 0.636867
vn -0.418330 0.647612 0.636867
vn -0.418330 0.647612 0.636867
vn 0.198709 -0.945499 -0.257968
vn 0.198709 -0.945499 -0.257968
vn 0.198709 -0.945499 -0.257968
vn -0.204089 -0.944317 -0.258094
vn -0.204089 -0.944317 -0.258094
vn -0.204089 -0.944317 -0.258094
vn -0.541110 -0.835210 -0.098100
vn -0.541110 -0.835210 -0.098100
vn -0.541110 -0.835210 -0.098100
vn -0.458324 -0.874432 0.159086
vn -0.458324 -0.874432 0.159086
vn -0.458324 -0.874432 0.159086
vn -0.190284 -0.867615 0.459386
vn -0.190284 -0.867615 0.459386
vn -0.190284 -0.867615 0.459386
vn 0.190284 -0.867616 0.459386
vn 0.190284 -0.867616 0.459386
vn 0.190284 -0.867616 0.459386
vn 0.458324 -0.874432 0.159086
vn 0.458324 -0.874432 0.159086
vn 0.458324 -0.874432 0.159086
vn 0.539368 -0.836632 -0.095548
vn 0.539368 -0.836632 -0.095548
vn 0.539368 -0.836632 -0.095548
vn 0.000000 -0.769253 0.638945
vn 0.000000 -0.769253 0.638945
vn 0.000000 -0.769253 0.638945
vn 0.451802 -0.769253 0.451802
vn 0.451802 -0.769253 0.451802
vn 0.451802 -0.769253 0.451802
vn 0.634170 -0.773171 -0.005924
vn 0.634170 -0.773171 -0.005924
vn 0.634170 -0.773171 -0.005924
vn 0.635977 -0.732696 -0.242260
vn 0.635977 -0.732696 -0.242260
vn 0.635977 -0.732696 -0.242260
vn -0.003132 -0.932592 -0.360919
vn -0.003132 -0.932592 -0.360919
vn -0.003132 -0.932592 -0.360919
vn -0.632149 -0.736477 -0.240809
vn -0.632149 -0.736477 -0.240809
vn -0.632149 -0.736477 -0.240809
vn -0.632526 -0.774499 -0.007952
vn -0.632526 -0.774499 -0.007952
vn -0.632526 -0.774499 -0.007952
vn -0.451802 -0.769253 0.451802
vn -0.451802 -0.769253 0.451802
vn -0.451802 -0.769253 0.451802
vn 0.000000 -0.772540 0.634967
vn 0.000000 -0.772540 0.634967
vn 0.000000 -0.772540 0.634967
vn 0.448990 -0.772539 0.448989
vn 0.448990 -0.772539 0.448989
vn 0.448990 -0.772539 0.448989
vn 0.640711 -0.767759 -0.005910
vn 0.640711 -0.767759 -0.005910
vn 0.640711 -0.767759 -0.005910
vn 0.628809 -0.739742 -0.239542
vn 0.628809 -0.739742 -0.239542
vn 0.628809 -0.739742 -0.239542
vn -0.003110 -0.926202 -0.377015
vn -0.003110 -0.926202 -0.377015
vn -0.003110 -0.926202 -0.377015
vn -0.628810 -0.739742 -0.239542
vn -0.628810 -0.739742 -0.239542
vn -0.628810 -0.739742 -0.239542
vn -0.642641 -0.766127 -0.007908
vn -0.642641 -0.766127 -0.007908
vn -0.642641 -0.766127 -0.007908
vn -0.448990 -0.772539 0.448989
vn -0.448990 -0.772539 0.448989
vn -0.448990 -0.772539 0.448989
vn -0.154529 -0.647612 0.746137
vn -0.154529 -0.647612 0.746137
vn -0.154529 -0.647612 0.746137
vn 0.154529 -0.647612 0.746137
vn 0.154529 -0.647612 0.746137
vn 0.154529 -0.647612 0.746137
vn 0.418329 -0.647612 0.636867
vn 0.418329 -0.647612 0.636867
vn 0.418329 -0.647612 0.636867
vn 0.636867 -0.647612 0.418329
vn 0.636867 -0.647612 0.418329
vn 0.636867 -0.647612 0.418329
vn 0.746334 -0.647545 0.153854
vn 0.746334 -0.647545 0.153854
vn 0.746334 -0.647545 0.153854
vn 0.759550 -0.639555 -0.118548
vn 0.759550 -0.639555 -0.118548
vn 0.759550 -0.639555 -0.118548
vn 0.741237 -0.633121 -0.222993
vn 0.741237 -0.633121 -0.222993
vn 0.741237 -0.633121 -0.222993
vn 0.771934 -0.405548 -0.489540
vn 0.771934 -0.405548 -0.489540
vn 0.771934 -0.405548 -0.489540
vn 0.687209 -0.406657 -0.601975
vn 0.687209 -0.406657 -0.601975
vn 0.687209 -0.406657 -0.601975
vn -0.685925 -0.410471 -0.600850
vn -0.685925 -0.410471 -0.600850
vn -0.685925 -0.410471 -0.600850
vn -0.770499 -0.409356 -0.488630
vn -0.770499 -0.409356 -0.488630
vn -0.770499 -0.409356 -0.488630
vn -0.737910 -0.637345 -0.221992
vn -0.737910 -0.637345 -0.221992
vn -0.737910 -0.637345 -0.221992
vn -0.756071 -0.643763 -0.118004
vn -0.756071 -0.643763 -0.118004
vn -0.756071 -0.643763 -0.118004
vn -0.746334 -0.647546 0.153853
vn -0.746334 -0.647546 0.153853
vn -0.746334 -0.647546 0.153853
vn -0.636867 -0.647612 0.418329
vn -0.636867 -0.647612 0.418329
vn -0.636867 -0.647612 0.418329
vn -0.418330 -0.647612 0.636867
vn -0.418330 -0.647612 0.636867
vn -0.418330 -0.647612 0.636867
vn -0.008053 0.999967 0.000860
vn -0.008053 0.999967 0.000860
vn -0.008053 0.999967 0.000860
vn 0.002471 0.999997 0.000860
vn 0.002471 0.999997 0.000860
vn 0.002471 0.999997 0.000860
vn -0.001358 0.999994 0.003105
vn -0.001358 0.999994 0.003105
vn -0.001358 0.999994 0.003105
vn -0.002041 0.999998 0.000708
vn -0.002041 0.999998 0.000708
vn -0.002041 0.999998 0.000708
vn -0.000654 0.999999 0.001578
vn -0.000654 0.999999 0.001578
vn -0.000654 0.999999 0.001578
vn 0.000654 0.999999 0.001578
vn 0.000654 0.999999 0.001578
vn 0.000654 0.999999 0.001578
vn 0.002041 0.999998 0.000708
vn 0.002041 0.999998 0.000708
vn 0.002041 0.999998 0.000708
vn 0.000560 0.999982 0.005910
vn 0.000560 0.999982 0.005910
vn 0.000560 0.999982 0.005910
vn 0.000560 -0.999982 0.005910
vn 0.000560 -0.999982 0.005910
vn 0.000560 -0.999982 0.005910
vn 0.002041 -0.999998 0.000709
vn 0.002041 -0.999998 0.000709
vn 0.002041 -0.999998 0.000709
vn 0.000654 -0.999999 0.001578
vn 0.000654 -0.999999 0.001578
vn 0.000654 -0.999999 0.001578
vn -0.000654 -0.999999 0.001578
vn -0.000654 -0.999999 0.001578
vn -0.000654 -0.999999 0.001578
vn -0.002041 -0.999998 0.000708
vn -0.002041 -0.999998 0.000708
vn -0.002041 -0.999998 0.000708
vn -0.001358 -0.999994 0.003105
vn -0.001358 -0.999994 0.003105
vn -0.001358 -0.999994 0.003105
vn 0.002471 -0.999997 0.000860
vn 0.002471 -0.999997 0.000860
vn 0.002471 -0.999997 0.000860
vn -0.008053 -0.999967 0.000860
vn -0.008053 -0.999967 0.000860
vn -0.008053 -0.999967 0.000860
s off
f 29/29/1 2/18/2 1/17/3
f 30/30/4 3/19/5 2/18/6
f 31/31/7 4/20/8 3/19/9
f 32/32/10 5/21/11 4/20/12
f 25/25/13 6/22/14 5/21/15
f 26/26/16 7/23/17 6/22/18
f 27/27/19 8/24/20 7/23/21
f 28/28/22 1/17/23 8/24/24
f 25/25/25 19/11/26 26/26/27
f 26/26/28 21/13/29 27/27/30
f 27/27/31 23/15/32 28/28/33
f 28/28/34 11/1/35 29/29/36
f 29/29/37 10/3/38 30/30/39
f 30/30/40 13/5/41 31/31/42
f 31/31/43 15/7/44 32/32/45
f 32/32/46 17/9/47 25/25/48
f 6/22/49 25/25/50 26/26/51
f 7/23/52 26/26/53 27/27/54
f 8/24/55 27/27/56 28/28/57
f 1/17/58 28/28/59 29/29/60
f 2/18/61 29/29/62 30/30/63
f 3/19/64 30/30/65 31/31/66
f 4/20/67 31/31/68 32/32/69
f 5/21/70 32/32/71 25/25/72
f 19/11/73 25/25/74 18/10/75
f 26/26/76 19/11/77 20/12/78
f 21/13/79 26/26/80 20/12/81
f 27/27/82 21/13/83 22/14/84
f 23/15/85 27/27/86 22/14/87
f 28/28/88 23/15/89 24/16/90
f 11/1/91 28/28/92 24/16/93
f 29/29/94 11/1/95 9/2/96
f 10/3/97 29/29/98 9/2/99
f 30/30/100 10/3/101 12/4/102
f 13/5/103 30/30/104 12/4/105
f 31/31/106 13/5/107 14/6/108
f 15/7/109 31/31/110 14/6/111
f 32/32/112 15/7/113 16/8/114
f 17/9/115 32/32/116 16/8/117
f 25/25/118 17/9/119 18/10/120
f 45/41/121 33/33/122 34/34/123
f 46/42/124 34/34/125 35/35/126
f 47/43/127 35/35/128 36/36/129
f 48/44/130 36/36/131 37/37/132
f 41/45/133 37/37/134 38/38/135
f 42/46/136 38/38/137 39/39/138
f 43/47/139 39/39/140 40/40/141
f 44/48/142 40/40/143 33/33/144
f 41/45/145 42/46/146 19/49/147
f 42/46/148 43/47/149 21/50/150
f 43/47/151 44/48/152 23/51/153
f 44/48/154 45/41/155 11/52/156
f 45/41/157 46/42/158 10/53/159
f 46/42/160 47/43/161 13/54/162
f 47/43/163 48/44/164 15/55/165
f 48/44/166 41/45/167 17/56/168
f 38/38/169 42/46/170 41/45/171
f 39/39/172 43/47/173 42/46/174
f 40/40/175 44/48/176 43/47/177
f 33/33/178 45/41/179 44/48/180
f 34/34/181 46/42/182 45/41/183
f 35/35/184 47/43/185 46/42/186
f 36/36/187 48/44/188 47/43/189
f 37/37/190 41/45/191 48/44/192
f 19/49/193 18/57/194 41/45/195
f 42/46/196 20/58/197 19/49/198
f 21/50/199 20/58/200 42/46/201
f 43/47/202 22/59/203 21/50/204
f 23/51/205 22/59/206 43/47/207
f 44/48/208 24/60/209 23/51/210
f 11/52/211 24/60/212 44/48/213
f 45/41/214 9/61/215 11/52/216
f 10/53/217 9/61/218 45/41/219
f 46/42/220 12/62/221 10/53/222
f 13/54/223 12/62/224 46/42/225
f 47/43/226 14/63/227 13/54/228
f 15/55/229 14/63/230 47/43/231
f 48/44/232 16/64/233 15/55/234
f 17/56/235 16/64/236 48/44/237
f 41/45/238 18/57/239 17/56/240
f 1/17/241 2/18/242 49/65/243
f 2/18/244 3/19/245 49/65/246
f 3/19/247 4/20/248 49/65/249
f 4/20/250 5/21/251 49/65/252
f 5/21/253 6/22/254 49/65/255
f 6/22/256 7/23/257 49/65/258
f 7/23/259 8/24/260 49/65/261
f 8/24/262 1/17/263 49/65/264
f 33/33/265 40/40/266 50/66/267
f 40/40/268 39/39/269 50/66/270
f 39/39/271 38/38/272 50/66/273
f 38/38/274 37/37/275 50/66/276
f 37/37/277 36/36/278 50/66/279
f 36/36/280 35/35/281 50/66/282
f 35/35/283 34/34/284 50/66/285
f 34/34/286 33/33/287 50/66/288
