# This file uses centimeters as units for non-parametric coordinates.

v 3.317662 -3.450891 -5.746009
v -3.318211 -3.450891 -5.746009
v -6.636422 -3.450891 0.001097
v -3.318211 -3.450891 5.748203
v 3.317662 -3.450891 5.748203
v 6.636422 -3.450891 0.001097
v 2.545131 3.453089 -4.407102
v -2.545131 3.453089 -4.407102
v -5.089714 3.453089 0.001097
v -2.545131 3.453089 4.409295
v 2.545131 3.453089 4.409295
v 5.089714 3.453089 0.001097
v 0.000000 -3.450891 0.001097
v 1.831827 3.453089 -3.455020
v -1.831827 3.453089 -3.455020
v -3.662983 3.453089 0.000548
v -1.831827 3.453089 3.460503
v 1.831827 3.453089 3.460503
v 3.662983 3.453089 0.000548
v 2.895871 8.349529 -5.515133
v -2.981000 9.043153 -5.456190
v -5.796758 9.999380 -0.339817
v -2.736630 10.262126 4.715946
v 3.140243 9.568499 4.657002
v 5.955749 8.612520 -0.455924
v 0.014526 10.114346 -0.311796
vt 0.080011 0.253080
vt 0.080011 0.253080
vt 0.080011 0.253080
vt 0.080011 0.253080
vt 0.080011 0.253080
vt 0.080011 0.253080
vt 0.016697 0.279931
vt 0.016697 0.279931
vt 0.016697 0.279931
vt 0.016697 0.279931
vt 0.016697 0.279931
vt 0.016697 0.279931
vt 0.016697 0.279931
vt 0.016697 0.279931
vt 0.016697 0.279931
vt 0.016697 0.279931
vt 0.016697 0.279931
vt 0.016697 0.279931
vt 0.016697 0.279931
vt 0.016697 0.279931
vt 0.016697 0.279931
vt 0.016697 0.279931
vt 0.016697 0.279931
vt 0.016697 0.279931
vt 0.080011 0.253080
vt 0.037109 0.331520
vt 0.037109 0.331520
vt 0.037109 0.331520
vt 0.037109 0.331520
vt 0.037109 0.331520
vt 0.037109 0.331520
vt 0.037109 0.331520
vt 0.037109 0.331520
vt 0.037109 0.331520
vt 0.037109 0.331520
vt 0.037109 0.331520
vt 0.037109 0.331520
vt 0.037109 0.331520
vn 0.000000 0.190386 -0.981709
vn 0.000000 0.190386 -0.981709
vn 0.000000 0.190386 -0.981709
vn 0.000000 0.190386 -0.981709
vn -0.850192 0.190429 -0.490827
vn -0.850191 0.190429 -0.490827
vn -0.850191 0.190429 -0.490827
vn -0.850192 0.190429 -0.490827
vn -0.850192 0.190429 0.490827
vn -0.850192 0.190429 0.490827
vn -0.850192 0.190429 0.490827
vn -0.850191 0.190429 0.490827
vn 0.000000 0.190386 0.981709
vn 0.000000 0.190386 0.981709
vn 0.000000 0.190386 0.981709
vn 0.000000 0.190386 0.981709
vn 0.850177 0.190396 0.490865
vn 0.850177 0.190396 0.490865
vn 0.850177 0.190396 0.490865
vn 0.850177 0.190396 0.490865
vn 0.850177 0.190397 -0.490865
vn 0.850177 0.190397 -0.490865
vn 0.850177 0.190397 -0.490865
vn 0.850177 0.190397 -0.490865
vn 0.000000 -1.000000 0.000000
vn 0.000000 -1.000000 0.000000
vn 0.000000 -1.000000 -0.000000
vn 0.000000 -1.000000 0.000000
vn 0.000000 -1.000000 0.000000
vn 0.000000 -1.000000 -0.000000
vn 0.000000 -1.000000 0.000000
vn 0.000000 -1.000000 0.000000
vn 0.000000 -1.000000 -0.000000
vn 0.000000 -1.000000 -0.000000
vn 0.000000 -1.000000 0.000000
vn 0.000000 -1.000000 -0.000000
vn 0.000000 -1.000000 -0.000000
vn 0.000000 -1.000000 -0.000000
vn 0.000000 -1.000000 -0.000000
vn 0.000000 -1.000000 0.000000
vn 0.000000 -1.000000 -0.000000
vn 0.000000 -1.000000 -0.000000
vn 0.000000 1.000000 0.000000
vn 0.000000 1.000000 0.000000
vn 0.000000 1.000000 0.000000
vn 0.000000 1.000000 0.000000
vn 0.000000 1.000000 -0.000000
vn 0.000000 1.000000 -0.000000
vn 0.000000 1.000000 -0.000000
vn 0.000000 1.000000 -0.000000
vn 0.000000 1.000000 0.000000
vn 0.000000 1.000000 0.000000
vn 0.000000 1.000000 0.000000
vn 0.000000 1.000000 0.000000
vn 0.000000 1.000000 -0.000000
vn 0.000000 1.000000 -0.000000
vn 0.000000 1.000000 -0.000000
vn 0.000000 1.000000 -0.000000
vn 0.000000 1.000000 0.000000
vn 0.000000 1.000000 0.000000
vn 0.000000 1.000000 0.000000
vn 0.000000 1.000000 0.000000
vn 0.000000 1.000000 -0.000000
vn 0.000000 1.000000 -0.000000
vn 0.000000 1.000000 -0.000000
vn 0.000000 1.000000 -0.000000
vn -0.032017 -0.361189 -0.931943
vn -0.032017 -0.361189 -0.931943
vn -0.032017 -0.361189 -0.931943
vn -0.032017 -0.361189 -0.931943
vn -0.849419 -0.311902 -0.425683
vn -0.849418 -0.311902 -0.425683
vn -0.849418 -0.311902 -0.425683
vn -0.849418 -0.311902 -0.425683
vn -0.841857 -0.225146 0.490495
vn -0.841857 -0.225145 0.490495
vn -0.841857 -0.225146 0.490495
vn -0.841857 -0.225146 0.490495
vn -0.007464 -0.186159 0.982491
vn -0.007464 -0.186159 0.982491
vn -0.007464 -0.186159 0.982491
vn -0.007464 -0.186159 0.982491
vn 0.825777 -0.295292 0.480515
vn 0.825777 -0.295292 0.480515
vn 0.825777 -0.295292 0.480515
vn 0.825777 -0.295292 0.480515
vn 0.806362 -0.382140 -0.451385
vn 0.806362 -0.382140 -0.451385
vn 0.806362 -0.382140 -0.451385
vn 0.806362 -0.382140 -0.451385
vn 0.110449 0.958222 -0.263839
vn 0.110449 0.958222 -0.263840
vn 0.110449 0.958222 -0.263839
vn -0.018473 0.980927 -0.193497
vn -0.018473 0.980927 -0.193497
vn -0.018473 0.980927 -0.193497
vn -0.019570 0.999005 -0.040073
vn -0.019570 0.999005 -0.040073
vn -0.019570 0.999005 -0.040073
vn 0.117488 0.992453 0.035118
vn 0.117488 0.992453 0.035118
vn 0.117488 0.992453 0.035118
vn 0.243732 0.968708 -0.046907
vn 0.243732 0.968708 -0.046907
vn 0.243732 0.968708 -0.046907
vn 0.236110 0.952506 -0.192316
vn 0.236109 0.952506 -0.192316
vn 0.236110 0.952506 -0.192316
s off
f 1/7/1 2/8/2 8/9/3 7/10/4
f 2/8/5 3/11/6 9/12/7 8/9/8
f 3/11/9 4/13/10 10/14/11 9/12/12
f 4/13/13 5/15/14 11/16/15 10/14/16
f 5/15/17 6/17/18 12/18/19 11/16/20
f 6/17/21 1/7/22 7/10/23 12/18/24
f 2/2/25 1/1/26 13/25/27
f 3/3/28 2/2/29 13/25/30
f 4/4/31 3/3/32 13/25/33
f 5/5/34 4/4/35 13/25/36
f 6/6/37 5/5/38 13/25/39
f 1/1/40 6/6/41 13/25/42
f 7/10/43 8/9/44 15/19/45 14/20/46
f 8/9/47 9/12/48 16/21/49 15/19/50
f 9/12/51 10/14/52 17/22/53 16/21/54
f 10/14/55 11/16/56 18/23/57 17/22/58
f 11/16/59 12/18/60 19/24/61 18/23/62
f 12/18/63 7/10/64 14/20/65 19/24/66
f 14/26/67 15/27/68 21/28/69 20/29/70
f 15/27/71 16/30/72 22/31/73 21/28/74
f 16/30/75 17/32/76 23/33/77 22/31/78
f 17/32/79 18/34/80 24/35/81 23/33/82
f 18/34/83 19/36/84 25/37/85 24/35/86
f 19/36/87 14/26/88 20/29/89 25/37/90
f 20/29/91 21/28/92 26/38/93
f 21/28/94 22/31/95 26/38/96
f 22/31/97 23/33/98 26/38/99
f 23/33/100 24/35/101 26/38/102
f 24/35/103 25/37/104 26/38/105
f 25/37/106 20/29/107 26/38/108
