# This file uses centimeters as units for non-parametric coordinates.

v 162.730469 12.925095 -46.892578
v -172.769531 3.207710 -46.851563
v 162.513672 18.963066 -46.876953
v -172.894531 6.883972 -45.480469
v 162.707031 16.539566 -21.642578
v -172.792969 6.828827 -21.177734
v 162.833984 12.870026 -22.589844
v -172.576172 0.790855 -21.193359
v 23.423828 8.465294 -44.960938
v 38.798828 12.302650 -45.017578
v -38.972656 11.090950 -23.044922
v -62.031250 5.335426 -22.960938
v 139.353516 18.070221 -22.478516
v 162.527344 20.055161 -33.892578
v 58.972656 14.670624 -45.097656
v 36.888672 13.863182 -39.982422
v 26.269531 13.492912 -44.960938
v -172.601563 0.189407 -33.255859
v -148.585938 1.716309 -46.707031
v -52.455078 7.725830 -22.998047
v -41.449219 6.076668 -23.046875
v -52.625000 5.686096 -27.923828
v 162.484375 12.746559 23.226563
v -172.921875 3.041550 19.527344
v 162.267578 18.784531 23.242188
v -173.091797 6.716248 20.900391
v 161.591797 16.329765 48.476563
v -173.830078 6.630898 45.199219
v 161.751953 12.661354 47.527344
v -173.611328 0.592926 45.185547
v 23.156250 8.289703 23.605469
v 38.521484 12.126328 23.722656
v -29.085938 11.282776 44.779297
v -109.710938 3.454727 44.843750
v 138.271484 17.862167 47.380859
v 161.833984 19.860558 36.224609
v 58.691406 14.493629 23.865234
v 36.439453 13.680695 28.732422
v 25.996094 13.317032 23.636719
v -173.224609 0.006386 33.119141
v -114.009766 2.800262 19.792969
v -76.222656 6.706032 44.818359
v -38.125000 6.032166 44.775391
v -76.357422 4.667564 39.886719
v -159.953125 1.116470 59.937500
v -146.753906 0.230682 -52.414063
v -158.468750 -6.128601 59.886719
v -144.500000 -6.573555 -52.457031
v -135.611328 -4.670631 59.796875
v -122.859375 -4.535606 -52.537109
v -137.386719 -0.213745 59.832031
v -123.507813 1.954330 -52.509766
v -152.248047 0.763382 13.259766
v -152.482422 -4.184425 18.429688
v -129.400391 -6.720901 -7.722656
v -129.046875 0.700394 -15.474609
v -134.935547 -7.430786 51.988281
v -146.136719 -8.184868 59.824219
v -153.117188 -6.683769 25.195313
v -147.640625 -6.693695 17.773438
v -151.767578 -6.616234 14.244141
v -134.904297 4.293518 -52.451172
v -148.156250 4.465431 -44.324219
v -129.195313 -2.381958 -12.255859
v -129.900391 0.657791 -8.582031
v -133.910156 0.735420 -12.298828
v -168.556641 0.855057 12.076172
v 166.779297 15.288750 12.542969
v -168.773438 6.893028 12.091797
v 166.640625 18.972336 10.695313
v -168.828125 4.604912 -22.296875
v 166.500000 19.047394 -22.412109
v -168.693359 0.930267 -21.029297
v 166.716797 13.009422 -22.427734
v -29.292969 6.435112 9.658203
v -44.896484 9.156822 9.732422
v 4.359375 12.643532 -19.953125
v 84.498047 10.604439 -20.298828
v -145.648438 7.806000 -21.111328
v -168.884766 8.054832 -5.589844
v -65.187500 10.067566 9.820313
v -43.115234 10.879051 2.886719
v -32.488281 11.245209 9.683594
v 166.808594 12.343254 -5.994141
v 142.765625 12.063095 12.294922
v 51.210938 11.451225 -20.152344
v 13.656250 8.053246 -20.001953
v 52.074219 9.420570 -13.458984
v 132.125000 0.914268 53.216797
v 141.917969 4.473969 -59.078125
v 131.757813 11.134384 53.240234
v 140.257813 13.850311 -59.019531
v 107.388672 6.245132 53.812500
v 116.654297 12.999168 -58.462891
v 108.523438 0.063148 53.777344
v 116.988281 3.693306 -58.486328
v 134.375000 1.157967 6.623047
v 133.757813 7.228928 11.820313
v 114.619141 9.653839 -13.712891
v 115.539063 0.547913 -21.511719
v 108.671875 12.458931 46.019531
v 119.082031 12.578194 53.544922
v 133.128906 10.242058 18.601563
v 128.818359 10.104507 11.318359
v 133.964844 10.298691 7.656250
v 128.763672 2.505043 -58.767578
v 141.052734 4.541603 -51.007813
v 115.160156 4.330002 -18.271484
v 115.015625 0.512390 -14.623047
v 120.080078 0.703995 -18.468750
vt 0.372923 0.380065
vt 0.372816 0.379898
vt 0.372832 0.379918
vt 0.372845 0.379937
vt 0.372925 0.380062
vt 0.372937 0.380015
vt 0.372834 0.379907
vt 0.372831 0.379857
vt 0.372955 0.380043
vt 0.372817 0.379841
vt 0.372828 0.379859
vt 0.372953 0.380046
vt 0.372813 0.379849
vt 0.372941 0.380052
vt 0.372820 0.379898
vt 0.372685 0.379692
vt 0.372667 0.379663
vt 0.372666 0.379658
vt 0.372690 0.379648
vt 0.372812 0.379835
vt 0.372691 0.379654
vt 0.372679 0.379659
vt 0.372923 0.380065
vt 0.372816 0.379898
vt 0.372832 0.379918
vt 0.372845 0.379937
vt 0.372925 0.380062
vt 0.372937 0.380015
vt 0.372834 0.379907
vt 0.372831 0.379857
vt 0.372955 0.380043
vt 0.372817 0.379841
vt 0.372828 0.379859
vt 0.372953 0.380046
vt 0.372813 0.379849
vt 0.372941 0.380052
vt 0.372820 0.379898
vt 0.372685 0.379692
vt 0.372667 0.379663
vt 0.372666 0.379658
vt 0.372690 0.379648
vt 0.372812 0.379835
vt 0.372691 0.379654
vt 0.372679 0.379659
vt 0.372923 0.380065
vt 0.372816 0.379898
vt 0.372832 0.379918
vt 0.372845 0.379937
vt 0.372925 0.380062
vt 0.372937 0.380015
vt 0.372834 0.379907
vt 0.372831 0.379857
vt 0.372955 0.380043
vt 0.372817 0.379841
vt 0.372828 0.379859
vt 0.372953 0.380046
vt 0.372813 0.379849
vt 0.372941 0.380052
vt 0.372820 0.379898
vt 0.372685 0.379692
vt 0.372667 0.379663
vt 0.372666 0.379658
vt 0.372690 0.379648
vt 0.372812 0.379835
vt 0.372691 0.379654
vt 0.372679 0.379659
vt 0.372923 0.380065
vt 0.372816 0.379898
vt 0.372832 0.379918
vt 0.372845 0.379937
vt 0.372925 0.380062
vt 0.372937 0.380015
vt 0.372834 0.379907
vt 0.372831 0.379857
vt 0.372955 0.380043
vt 0.372817 0.379841
vt 0.372828 0.379859
vt 0.372953 0.380046
vt 0.372813 0.379849
vt 0.372941 0.380052
vt 0.372820 0.379898
vt 0.372685 0.379692
vt 0.372667 0.379663
vt 0.372666 0.379658
vt 0.372690 0.379648
vt 0.372812 0.379835
vt 0.372691 0.379654
vt 0.372679 0.379659
vt 0.372923 0.380065
vt 0.372816 0.379898
vt 0.372832 0.379918
vt 0.372845 0.379937
vt 0.372925 0.380062
vt 0.372937 0.380015
vt 0.372834 0.379907
vt 0.372831 0.379857
vt 0.372955 0.380043
vt 0.372817 0.379841
vt 0.372828 0.379859
vt 0.372953 0.380046
vt 0.372813 0.379849
vt 0.372941 0.380052
vt 0.372820 0.379898
vt 0.372685 0.379692
vt 0.372667 0.379663
vt 0.372666 0.379658
vt 0.372690 0.379648
vt 0.372812 0.379835
vt 0.372691 0.379654
vt 0.372679 0.379659
vn -0.016272 0.037072 -0.999180
vn -0.016272 0.037072 -0.999180
vn -0.016272 0.037072 -0.999180
vn -0.016272 0.037072 -0.999180
vn -0.016272 0.037072 -0.999180
vn -0.039069 0.999171 -0.011447
vn -0.039069 0.999171 -0.011447
vn -0.039069 0.999171 -0.011447
vn -0.003887 -0.024414 0.999694
vn -0.003887 -0.024414 0.999694
vn -0.003887 -0.024414 0.999694
vn -0.003887 -0.024414 0.999694
vn -0.003887 -0.024414 0.999694
vn -0.003887 -0.024414 0.999694
vn 0.032921 -0.999435 -0.006708
vn 0.032921 -0.999435 -0.006708
vn 0.032921 -0.999435 -0.006708
vn 0.032921 -0.999435 -0.006708
vn 0.032921 -0.999435 -0.006708
vn 0.999344 0.035972 -0.004186
vn 0.999344 0.035972 -0.004186
vn 0.999344 0.035972 -0.004186
vn 0.999344 0.035972 -0.004186
vn 0.999344 0.035972 -0.004186
vn 0.002557 0.129143 -0.991623
vn 0.002557 0.129143 -0.991623
vn 0.002557 0.129143 -0.991623
vn 0.002557 0.129143 -0.991623
vn 0.002557 0.129143 -0.991623
vn 0.002557 0.129143 -0.991623
vn -0.032830 0.999437 0.006863
vn -0.032830 0.999437 0.006863
vn -0.032830 0.999437 0.006863
vn -0.032830 0.999437 0.006863
vn -0.032830 0.999437 0.006863
vn 0.015892 -0.015099 0.999760
vn 0.015892 -0.015099 0.999760
vn 0.015892 -0.015099 0.999760
vn 0.015892 -0.015099 0.999760
vn 0.039087 -0.999170 0.011482
vn 0.039087 -0.999170 0.011482
vn 0.039087 -0.999170 0.011482
vn 0.053090 0.960051 0.274744
vn 0.053090 0.960051 0.274744
vn 0.053090 0.960051 0.274744
vn -0.111248 0.936533 -0.332461
vn -0.111248 0.936533 -0.332461
vn -0.111248 0.936533 -0.332461
vn 0.090049 0.960445 -0.263507
vn 0.090049 0.960445 -0.263507
vn 0.090049 0.960445 -0.263507
vn -0.999342 -0.036047 0.004107
vn -0.999342 -0.036047 0.004107
vn -0.999342 -0.036047 0.004107
vn -0.999342 -0.036047 0.004107
vn -0.999342 -0.036047 0.004107
vn -0.058821 -0.974695 -0.215660
vn -0.058821 -0.974695 -0.215660
vn -0.058821 -0.974695 -0.215660
vn 0.226725 -0.902599 0.365939
vn 0.226725 -0.902599 0.365939
vn 0.226725 -0.902599 0.365939
vn -0.135224 -0.913775 0.383053
vn -0.135224 -0.913775 0.383053
vn -0.135224 -0.913775 0.383053
vn -0.047830 0.998790 -0.011462
vn -0.047830 0.998790 -0.011462
vn -0.047830 0.998790 -0.011462
vn -0.047830 0.998790 -0.011462
vn -0.047830 0.998790 -0.011462
vn 0.015466 -0.048051 0.998725
vn 0.015466 -0.048051 0.998725
vn 0.015466 -0.048051 0.998725
vn 0.044864 -0.998971 0.006663
vn 0.044864 -0.998971 0.006663
vn 0.044864 -0.998971 0.006663
vn 0.044864 -0.998971 0.006663
vn 0.044864 -0.998971 0.006663
vn -0.005143 0.037337 -0.999290
vn -0.005143 0.037337 -0.999290
vn -0.005143 0.037337 -0.999290
vn -0.005143 0.037337 -0.999290
vn -0.005143 0.037337 -0.999290
vn -0.039119 0.999180 -0.010428
vn -0.039119 0.999180 -0.010428
vn -0.039119 0.999180 -0.010428
vn -0.014815 -0.015316 0.999773
vn -0.014815 -0.015316 0.999773
vn -0.014815 -0.015316 0.999773
vn -0.014815 -0.015316 0.999773
vn -0.014815 -0.015316 0.999773
vn -0.014815 -0.015316 0.999773
vn 0.033120 -0.999431 -0.006324
vn 0.033120 -0.999431 -0.006324
vn 0.033120 -0.999431 -0.006324
vn 0.033120 -0.999431 -0.006324
vn 0.033120 -0.999431 -0.006324
vn 0.998895 0.035967 0.030249
vn 0.998895 0.035967 0.030249
vn 0.998895 0.035967 0.030249
vn 0.998895 0.035967 0.030249
vn 0.998895 0.035967 0.030249
vn 0.011116 0.209968 -0.977645
vn 0.011116 0.209968 -0.977645
vn 0.011116 0.209968 -0.977645
vn 0.011116 0.209968 -0.977645
vn 0.011116 0.209968 -0.977645
vn 0.011116 0.209968 -0.977645
vn -0.032945 0.999438 0.006149
vn -0.032945 0.999438 0.006149
vn -0.032945 0.999438 0.006149
vn -0.032945 0.999438 0.006149
vn -0.032945 0.999438 0.006149
vn 0.004761 -0.015790 0.999864
vn 0.004761 -0.015790 0.999864
vn 0.004761 -0.015790 0.999864
vn 0.004761 -0.015790 0.999864
vn 0.039457 -0.999042 0.018905
vn 0.039457 -0.999042 0.018905
vn 0.039457 -0.999042 0.018905
vn 0.050008 0.959429 0.277479
vn 0.050008 0.959429 0.277479
vn 0.050008 0.959429 0.277479
vn -0.107492 0.936033 -0.335094
vn -0.107492 0.936033 -0.335094
vn -0.107492 0.936033 -0.335094
vn 0.093159 0.961233 -0.259523
vn 0.093159 0.961233 -0.259523
vn 0.093159 0.961233 -0.259523
vn -0.998903 -0.035680 -0.030342
vn -0.998903 -0.035680 -0.030342
vn -0.998903 -0.035680 -0.030342
vn -0.998903 -0.035680 -0.030342
vn -0.998903 -0.035680 -0.030342
vn -0.003014 -0.975943 -0.218004
vn -0.003014 -0.975943 -0.218004
vn -0.003014 -0.975943 -0.218004
vn 0.089734 -0.921298 0.378361
vn 0.089734 -0.921298 0.378361
vn 0.089734 -0.921298 0.378361
vn -0.015910 -0.923893 0.382321
vn -0.015910 -0.923893 0.382321
vn -0.015910 -0.923893 0.382321
vn -0.047675 0.998793 -0.011864
vn -0.047675 0.998792 -0.011864
vn -0.047675 0.998793 -0.011864
vn -0.047675 0.998792 -0.011864
vn -0.047675 0.998792 -0.011864
vn 0.003925 -0.031888 0.999484
vn 0.003925 -0.031888 0.999484
vn 0.003925 -0.031888 0.999484
vn 0.046352 -0.998591 0.025827
vn 0.046352 -0.998591 0.025827
vn 0.046352 -0.998591 0.025827
vn 0.046352 -0.998591 0.025827
vn 0.046352 -0.998591 0.025827
vn -0.974621 -0.163007 -0.153438
vn -0.974621 -0.163007 -0.153438
vn -0.974621 -0.163007 -0.153438
vn -0.974621 -0.163007 -0.153438
vn -0.974621 -0.163007 -0.153438
vn -0.020799 -0.999688 -0.013813
vn -0.020799 -0.999688 -0.013813
vn -0.020799 -0.999688 -0.013813
vn 0.982928 0.156358 0.096980
vn 0.982928 0.156358 0.096980
vn 0.982928 0.156358 0.096980
vn 0.982928 0.156358 0.096980
vn 0.982928 0.156358 0.096980
vn 0.982928 0.156358 0.096980
vn 0.034901 0.999348 0.009212
vn 0.034901 0.999348 0.009212
vn 0.034901 0.999348 0.009212
vn 0.034901 0.999348 0.009212
vn 0.034901 0.999348 0.009212
vn 0.004303 -0.005904 0.999973
vn 0.004303 -0.005904 0.999973
vn 0.004303 -0.005904 0.999973
vn 0.004303 -0.005904 0.999973
vn 0.004303 -0.005904 0.999973
vn -0.978224 -0.186330 -0.091425
vn -0.978224 -0.186330 -0.091425
vn -0.978224 -0.186330 -0.091425
vn -0.978224 -0.186330 -0.091425
vn -0.978224 -0.186330 -0.091425
vn -0.978224 -0.186330 -0.091425
vn 0.032823 -0.999349 -0.014954
vn 0.032823 -0.999349 -0.014954
vn 0.032823 -0.999349 -0.014954
vn 0.032823 -0.999349 -0.014954
vn 0.032823 -0.999349 -0.014954
vn 0.983498 0.101339 0.149876
vn 0.983498 0.101339 0.149876
vn 0.983498 0.101339 0.149876
vn 0.983498 0.101339 0.149876
vn 0.100379 0.992417 0.070935
vn 0.100379 0.992417 0.070935
vn 0.100379 0.992417 0.070935
vn 0.298518 -0.891432 0.340935
vn 0.298518 -0.891432 0.340935
vn 0.298518 -0.891432 0.340935
vn -0.468352 -0.813611 -0.344506
vn -0.468352 -0.813611 -0.344506
vn -0.468352 -0.813611 -0.344506
vn -0.372790 -0.828569 0.417733
vn -0.372790 -0.828569 0.417733
vn -0.372790 -0.828569 0.417733
vn -0.004302 0.004220 -0.999982
vn -0.004302 0.004220 -0.999982
vn -0.004302 0.004220 -0.999982
vn -0.004302 0.004220 -0.999982
vn -0.004302 0.004220 -0.999982
vn -0.285372 0.827903 -0.482846
vn -0.285372 0.827903 -0.482846
vn -0.285372 0.827903 -0.482846
vn 0.420904 0.645376 0.637440
vn 0.420904 0.645376 0.637440
vn 0.420904 0.645376 0.637440
vn 0.479942 0.718952 -0.502756
vn 0.479942 0.718952 -0.502756
vn 0.479942 0.718952 -0.502756
vn -0.054392 -0.998178 -0.026127
vn -0.054392 -0.998178 -0.026127
vn -0.054392 -0.998178 -0.026127
vn -0.054392 -0.998178 -0.026127
vn -0.054392 -0.998178 -0.026127
vn 0.982849 0.108973 0.148768
vn 0.982849 0.108973 0.148768
vn 0.982849 0.108973 0.148768
vn 0.115406 0.990245 0.078084
vn 0.115406 0.990245 0.078084
vn 0.115406 0.990245 0.078084
vn 0.115406 0.990245 0.078084
vn 0.115406 0.990245 0.078084
vn 0.017182 0.045787 0.998803
vn 0.017182 0.045787 0.998803
vn 0.017182 0.045787 0.998803
vn 0.017182 0.045787 0.998803
vn 0.017182 0.045787 0.998803
vn -0.032308 0.999427 0.010056
vn -0.032308 0.999427 0.010056
vn -0.032308 0.999427 0.010056
vn 0.009599 -0.023340 -0.999682
vn 0.009599 -0.023340 -0.999681
vn 0.009599 -0.023340 -0.999682
vn 0.009599 -0.023340 -0.999682
vn 0.009599 -0.023340 -0.999681
vn 0.009599 -0.023340 -0.999682
vn 0.039036 -0.999238 -0.000332
vn 0.039036 -0.999238 -0.000332
vn 0.039036 -0.999238 -0.000332
vn 0.039036 -0.999238 -0.000332
vn 0.039036 -0.999238 -0.000332
vn -0.999357 -0.035639 0.003994
vn -0.999357 -0.035639 0.003994
vn -0.999357 -0.035639 0.003994
vn -0.999357 -0.035639 0.003994
vn -0.999357 -0.035639 0.003994
vn -0.017299 0.168178 0.985605
vn -0.017299 0.168178 0.985605
vn -0.017299 0.168178 0.985605
vn -0.017299 0.168178 0.985605
vn -0.017299 0.168178 0.985605
vn -0.017299 0.168178 0.985605
vn -0.038935 0.999242 0.000687
vn -0.038935 0.999242 0.000687
vn -0.038935 0.999242 0.000687
vn -0.038935 0.999242 0.000687
vn -0.038935 0.999242 0.000687
vn -0.018737 -0.067696 -0.997530
vn -0.018737 -0.067696 -0.997530
vn -0.018737 -0.067696 -0.997530
vn -0.018737 -0.067696 -0.997530
vn 0.032893 -0.999371 -0.013288
vn 0.032893 -0.999371 -0.013288
vn 0.032893 -0.999371 -0.013288
vn -0.123908 0.971708 -0.201073
vn -0.123908 0.971708 -0.201073
vn -0.123908 0.971708 -0.201073
vn 0.044462 0.966024 0.254599
vn 0.044462 0.966024 0.254599
vn 0.044462 0.966024 0.254599
vn -0.161818 0.966143 0.200956
vn -0.161818 0.966143 0.200956
vn -0.161818 0.966143 0.200956
vn 0.999351 0.035787 -0.004138
vn 0.999351 0.035787 -0.004138
vn 0.999351 0.035787 -0.004138
vn 0.999351 0.035787 -0.004138
vn 0.999351 0.035787 -0.004138
vn 0.129923 -0.979207 0.155799
vn 0.129923 -0.979207 0.155799
vn 0.129923 -0.979207 0.155799
vn -0.025622 -0.957530 -0.287194
vn -0.025622 -0.957530 -0.287194
vn -0.025622 -0.957530 -0.287194
vn 0.084794 -0.950393 -0.299270
vn 0.084794 -0.950393 -0.299270
vn 0.084794 -0.950393 -0.299270
vn -0.024134 0.999629 0.012595
vn -0.024134 0.999629 0.012595
vn -0.024134 0.999629 0.012595
vn -0.024134 0.999629 0.012595
vn -0.024134 0.999629 0.012595
vn -0.008410 -0.165716 -0.986138
vn -0.008410 -0.165716 -0.986138
vn -0.008410 -0.165716 -0.986138
vn 0.026294 -0.999577 -0.012437
vn 0.026294 -0.999577 -0.012437
vn 0.026294 -0.999577 -0.012437
vn 0.026294 -0.999577 -0.012437
vn 0.026294 -0.999577 -0.012437
vn 0.997450 0.055355 0.045047
vn 0.997450 0.055355 0.045047
vn 0.997450 0.055355 0.045047
vn 0.997450 0.055355 0.045047
vn 0.997450 0.055355 0.045047
vn 0.043345 0.998153 -0.042559
vn 0.043345 0.998153 -0.042559
vn 0.043345 0.998153 -0.042559
vn -0.993689 -0.046272 -0.102183
vn -0.993689 -0.046272 -0.102183
vn -0.993689 -0.046272 -0.102183
vn -0.993689 -0.046272 -0.102183
vn -0.993689 -0.046272 -0.102183
vn -0.993689 -0.046272 -0.102183
vn 0.036356 -0.999334 -0.003200
vn 0.036356 -0.999334 -0.003200
vn 0.036356 -0.999334 -0.003200
vn 0.036356 -0.999334 -0.003200
vn 0.036356 -0.999334 -0.003200
vn 0.023786 -0.001466 0.999716
vn 0.023786 -0.001466 0.999716
vn 0.023786 -0.001466 0.999716
vn 0.023786 -0.001466 0.999716
vn 0.023786 -0.001466 0.999716
vn 0.988344 0.107655 0.107640
vn 0.988344 0.107655 0.107640
vn 0.988344 0.107655 0.107640
vn 0.988344 0.107655 0.107640
vn 0.988344 0.107655 0.107640
vn 0.988344 0.107655 0.107640
vn -0.060557 0.996740 0.053322
vn -0.060557 0.996740 0.053322
vn -0.060557 0.996740 0.053322
vn -0.060557 0.996740 0.053322
vn -0.060557 0.996739 0.053322
vn -0.998066 -0.043220 -0.044687
vn -0.998066 -0.043220 -0.044687
vn -0.998066 -0.043220 -0.044687
vn -0.998066 -0.043220 -0.044687
vn 0.111218 -0.992759 -0.045400
vn 0.111218 -0.992759 -0.045400
vn 0.111218 -0.992758 -0.045400
vn -0.393607 0.749261 0.532618
vn -0.393607 0.749261 0.532618
vn -0.393607 0.749261 0.532618
vn 0.501481 0.806937 -0.312040
vn 0.501481 0.806937 -0.312040
vn 0.501481 0.806937 -0.312040
vn 0.372494 0.738049 0.562612
vn 0.372494 0.738049 0.562612
vn 0.372494 0.738049 0.562612
vn -0.023723 0.001799 -0.999717
vn -0.023723 0.001799 -0.999717
vn -0.023723 0.001799 -0.999717
vn -0.023723 0.001799 -0.999717
vn -0.023723 0.001799 -0.999717
vn 0.148546 -0.988609 0.024211
vn 0.148546 -0.988609 0.024211
vn 0.148546 -0.988609 0.024211
vn -0.425139 -0.613073 0.665881
vn -0.425140 -0.613073 0.665881
vn -0.425140 -0.613073 0.665881
vn -0.468841 -0.600924 -0.647362
vn -0.468841 -0.600924 -0.647362
vn -0.468841 -0.600924 -0.647363
vn 0.062534 0.997243 -0.039946
vn 0.062534 0.997243 -0.039946
vn 0.062534 0.997243 -0.039946
vn 0.062534 0.997243 -0.039946
vn 0.062534 0.997243 -0.039946
vn -0.997034 -0.058737 -0.049734
vn -0.997034 -0.058737 -0.049734
vn -0.997034 -0.058737 -0.049734
vn 0.052076 -0.997786 -0.041359
vn 0.052076 -0.997786 -0.041359
vn 0.052076 -0.997786 -0.041359
vn 0.052076 -0.997786 -0.041359
vn 0.052077 -0.997786 -0.041359
s off
f 1/1/1 9/2/2 10/3/3 15/4/4 3/5/5
f 13/6/6 16/7/7 11/8/8
f 5/9/9 13/6/10 11/8/11 20/10/12 21/11/13 7/12/14
f 7/12/15 21/11/16 22/13/17 9/2/18 1/1/19
f 7/12/20 1/1/21 3/5/22 14/14/23 5/9/24
f 17/15/25 10/3/26 9/2/27 19/16/28 2/17/29 4/18/30
f 11/8/31 16/7/32 17/15/33 4/18/34 6/19/35
f 12/20/36 20/10/37 6/19/38 8/21/39
f 9/2/40 22/13/41 19/16/42
f 14/14/43 13/6/44 5/9/45
f 16/7/46 15/4/47 10/3/48
f 17/15/49 16/7/50 10/3/51
f 2/17/52 18/22/53 8/21/54 6/19/55 4/18/56
f 19/16/57 18/22/58 2/17/59
f 22/13/60 20/10/61 12/20/62
f 22/13/63 21/11/64 20/10/65
f 3/5/66 15/4/67 16/7/68 13/6/69 14/14/70
f 6/19/71 20/10/72 11/8/73
f 19/16/74 22/13/75 12/20/76 8/21/77 18/22/78
f 23/23/79 31/24/80 32/25/81 37/26/82 25/27/83
f 35/28/84 38/29/85 33/30/86
f 27/31/87 35/28/88 33/30/89 42/32/90 43/33/91 29/34/92
f 29/34/93 43/33/94 44/35/95 31/24/96 23/23/97
f 29/34/98 23/23/99 25/27/100 36/36/101 27/31/102
f 39/37/103 32/25/104 31/24/105 41/38/106 24/39/107 26/40/108
f 33/30/109 38/29/110 39/37/111 26/40/112 28/41/113
f 34/42/114 42/32/115 28/41/116 30/43/117
f 31/24/118 44/35/119 41/38/120
f 36/36/121 35/28/122 27/31/123
f 38/29/124 37/26/125 32/25/126
f 39/37/127 38/29/128 32/25/129
f 24/39/130 40/44/131 30/43/132 28/41/133 26/40/134
f 41/38/135 40/44/136 24/39/137
f 44/35/138 42/32/139 34/42/140
f 44/35/141 43/33/142 42/32/143
f 25/27/144 37/26/145 38/29/146 35/28/147 36/36/148
f 28/41/149 42/32/150 33/30/151
f 41/38/152 44/35/153 34/42/154 30/43/155 40/44/156
f 45/45/157 53/46/158 54/47/159 59/48/160 47/49/161
f 57/50/162 60/51/163 55/52/164
f 49/53/165 57/50/166 55/52/167 64/54/168 65/55/169 51/56/170
f 51/56/171 65/55/172 66/57/173 53/46/174 45/45/175
f 51/56/176 45/45/177 47/49/178 58/58/179 49/53/180
f 61/59/181 54/47/182 53/46/183 63/60/184 46/61/185 48/62/186
f 55/52/187 60/51/188 61/59/189 48/62/190 50/63/191
f 56/64/192 64/54/193 50/63/194 52/65/195
f 53/46/196 66/57/197 63/60/198
f 58/58/199 57/50/200 49/53/201
f 60/51/202 59/48/203 54/47/204
f 61/59/205 60/51/206 54/47/207
f 46/61/208 62/66/209 52/65/210 50/63/211 48/62/212
f 63/60/213 62/66/214 46/61/215
f 66/57/216 64/54/217 56/64/218
f 66/57/219 65/55/220 64/54/221
f 47/49/222 59/48/223 60/51/224 57/50/225 58/58/226
f 50/63/227 64/54/228 55/52/229
f 63/60/230 66/57/231 56/64/232 52/65/233 62/66/234
f 67/67/235 75/68/236 76/69/237 81/70/238 69/71/239
f 79/72/240 82/73/241 77/74/242
f 71/75/243 79/72/244 77/74/245 86/76/246 87/77/247 73/78/248
f 73/78/249 87/77/250 88/79/251 75/68/252 67/67/253
f 73/78/254 67/67/255 69/71/256 80/80/257 71/75/258
f 83/81/259 76/69/260 75/68/261 85/82/262 68/83/263 70/84/264
f 77/74/265 82/73/266 83/81/267 70/84/268 72/85/269
f 78/86/270 86/76/271 72/85/272 74/87/273
f 75/68/274 88/79/275 85/82/276
f 80/80/277 79/72/278 71/75/279
f 82/73/280 81/70/281 76/69/282
f 83/81/283 82/73/284 76/69/285
f 68/83/286 84/88/287 74/87/288 72/85/289 70/84/290
f 85/82/291 84/88/292 68/83/293
f 88/79/294 86/76/295 78/86/296
f 88/79/297 87/77/298 86/76/299
f 69/71/300 81/70/301 82/73/302 79/72/303 80/80/304
f 72/85/305 86/76/306 77/74/307
f 85/82/308 88/79/309 78/86/310 74/87/311 84/88/312
f 89/89/313 97/90/314 98/91/315 103/92/316 91/93/317
f 101/94/318 104/95/319 99/96/320
f 93/97/321 101/94/322 99/96/323 108/98/324 109/99/325 95/100/326
f 95/100/327 109/99/328 110/101/329 97/90/330 89/89/331
f 95/100/332 89/89/333 91/93/334 102/102/335 93/97/336
f 105/103/337 98/91/338 97/90/339 107/104/340 90/105/341 92/106/342
f 99/96/343 104/95/344 105/103/345 92/106/346 94/107/347
f 100/108/348 108/98/349 94/107/350 96/109/351
f 97/90/352 110/101/353 107/104/354
f 102/102/355 101/94/356 93/97/357
f 104/95/358 103/92/359 98/91/360
f 105/103/361 104/95/362 98/91/363
f 90/105/364 106/110/365 96/109/366 94/107/367 92/106/368
f 107/104/369 106/110/370 90/105/371
f 110/101/372 108/98/373 100/108/374
f 110/101/375 109/99/376 108/98/377
f 91/93/378 103/92/379 104/95/380 101/94/381 102/102/382
f 94/107/383 108/98/384 99/96/385
f 107/104/386 110/101/387 100/108/388 96/109/389 106/110/390
