# This file uses centimeters as units for non-parametric coordinates.

v 9.229401 -4.288583 -0.052917
v 2.850037 -7.673689 -9.347229
v -8.664246 1.165043 -1.734680
v 7.811096 -8.760762 -2.647034
v 4.809387 9.479556 -4.206116
v 0.677673 3.945779 -6.595886
v 2.831116 3.222414 -7.827209
v -5.378784 -3.518238 7.264465
v -2.745544 -8.613617 9.347229
v -0.658264 13.883410 -5.087830
v 9.263794 1.893781 0.871887
v -3.669312 12.613767 2.832336
v 7.622925 7.339957 -0.622375
v 8.894653 -1.577192 4.332336
v 7.399963 -1.998235 7.261658
v -4.014771 3.331930 8.021423
v 6.237854 10.350080 -0.593933
v 2.444336 12.345548 4.562683
v 4.024658 4.765078 7.899719
v 0.237488 19.619884 -2.137390
v 4.473694 16.309795 -2.285217
v 0.173157 20.668724 -0.756653
v 1.420349 20.925392 -0.580627
v -5.694885 -1.253253 7.542419
v 1.743469 20.832985 -1.082825
v -9.126221 0.599642 -0.542908
v -9.263794 -3.520013 1.789978
v 2.546204 -11.056933 6.739075
v 5.576538 -13.580850 -3.775574
v 6.325684 -10.373799 -4.928162
v 2.438721 -9.172191 -9.325134
v 5.383972 -13.554175 -4.750305
v -2.014893 -13.554326 -7.444885
v 3.005676 -16.978321 -2.218079
v -6.421448 -15.221778 2.057434
v -1.321045 -20.059326 2.186707
v 2.233765 -16.702007 -5.085510
v -3.308289 -18.584724 3.210388
v -4.674927 -16.613503 -0.681213
v -4.171631 -14.318217 5.515930
v -3.022400 -19.487301 2.708801
v -2.793396 -20.925392 -0.291809
v -0.776184 -18.457779 -5.639954
v -1.781067 -15.818118 -6.771423
v -1.972412 -17.796070 -5.404846
v -3.458435 -19.599937 -1.578796
vt 0.052749 0.100540
vt 0.053882 0.117645
vt 0.053340 0.098304
vt 0.052383 0.131258
vt 0.050188 0.091944
vt 0.050062 0.090196
vt 0.051558 0.127333
vt 0.055103 0.094197
vt 0.055002 0.083468
vt 0.055094 0.075086
vt 0.051463 0.098642
vt 0.053234 0.126504
vt 0.052953 0.153026
vt 0.052611 0.152232
vt 0.052629 0.148990
vt 0.054273 0.120336
vt 0.054653 0.111031
vt 0.053667 0.103072
vt 0.051811 0.061717
vt 0.053261 0.054165
vt 0.054592 0.082166
vt 0.053041 0.152740
vt 0.053790 0.138758
vt 0.051089 0.077468
vt 0.051002 0.084469
vt 0.050024 0.077462
vt 0.052011 0.046445
vt 0.053232 0.059991
vt 0.053345 0.064623
vt 0.054298 0.056276
vt 0.054705 0.061262
vt 0.054092 0.046363
vt 0.054039 0.046445
vt 0.053387 0.035861
vt 0.053176 0.036715
vt 0.051798 0.023660
vt 0.052201 0.026337
vt 0.051657 0.030895
vt 0.051420 0.044084
vt 0.050803 0.041291
vt 0.052351 0.031288
vt 0.051282 0.036989
vt 0.051735 0.028105
vt 0.052075 0.039447
vt 0.051615 0.027757
vt 0.052023 0.033333
vn -0.270781 0.544880 -0.793589
vn -0.270781 0.544880 -0.793589
vn -0.270781 0.544880 -0.793589
vn -0.854273 0.465220 -0.231923
vn -0.854273 0.465220 -0.231923
vn -0.854273 0.465220 -0.231923
vn -0.854273 0.465220 -0.231923
vn -0.476573 0.068926 -0.876429
vn -0.476573 0.068926 -0.876429
vn -0.476573 0.068926 -0.876429
vn 0.995985 -0.018635 0.087557
vn 0.995985 -0.018635 0.087557
vn 0.995985 -0.018635 0.087557
vn -0.218917 0.482343 0.848187
vn -0.218917 0.482343 0.848187
vn -0.218917 0.482343 0.848187
vn -0.218917 0.482342 0.848187
vn -0.218917 0.482342 0.848187
vn -0.218917 0.482342 0.848187
vn -0.218917 0.482342 0.848187
vn -0.908257 0.298469 -0.293232
vn -0.908257 0.298469 -0.293232
vn -0.908257 0.298469 -0.293232
vn -0.908257 0.298469 -0.293232
vn 0.823740 0.382998 -0.418050
vn 0.823740 0.382998 -0.418050
vn 0.823740 0.382998 -0.418050
vn -0.056056 0.392450 0.918064
vn -0.056056 0.392450 0.918064
vn -0.056056 0.392450 0.918064
vn 0.340308 -0.234865 0.910510
vn 0.340308 -0.234865 0.910510
vn 0.340308 -0.234865 0.910510
vn 0.811084 0.368913 0.453924
vn 0.811084 0.368913 0.453924
vn 0.811084 0.368913 0.453924
vn 0.811084 0.368913 0.453924
vn 0.811084 0.368913 0.453924
vn 0.811084 0.368913 0.453924
vn 0.811084 0.368913 0.453924
vn 0.811084 0.368913 0.453924
vn 0.811084 0.368913 0.453924
vn 0.811084 0.368913 0.453924
vn 0.811084 0.368913 0.453924
vn 0.811084 0.368913 0.453924
vn 0.811084 0.368913 0.453924
vn 0.811084 0.368913 0.453924
vn 0.810533 0.364508 0.458444
vn 0.810533 0.364508 0.458444
vn 0.810533 0.364508 0.458444
vn 0.810533 0.364508 0.458444
vn -0.042515 0.359120 0.932322
vn -0.042515 0.359120 0.932322
vn -0.042515 0.359120 0.932322
vn -0.197428 0.819830 -0.537495
vn -0.197428 0.819830 -0.537495
vn -0.197428 0.819830 -0.537495
vn -0.197428 0.819830 -0.537495
vn 0.015970 -0.094473 0.995399
vn 0.015970 -0.094473 0.995399
vn 0.015970 -0.094473 0.995399
vn 0.015970 -0.094473 0.995399
vn 0.035857 -0.116827 0.992505
vn 0.035857 -0.116827 0.992505
vn 0.035857 -0.116827 0.992505
vn 0.284533 0.402965 -0.869862
vn 0.284533 0.402965 -0.869862
vn 0.284533 0.402965 -0.869862
vn 0.284533 0.402965 -0.869862
vn 0.325849 0.220485 -0.919352
vn 0.325849 0.220485 -0.919352
vn 0.325849 0.220485 -0.919352
vn 0.325849 0.220485 -0.919352
vn -0.862111 0.271296 0.427976
vn -0.862111 0.271296 0.427976
vn -0.862111 0.271296 0.427976
vn -0.862111 0.271296 0.427976
vn -0.862125 0.271176 0.428023
vn -0.862125 0.271176 0.428023
vn -0.862125 0.271176 0.428023
vn -0.484261 0.116575 -0.867122
vn -0.484261 0.116575 -0.867122
vn -0.484261 0.116575 -0.867122
vn -0.484261 0.116575 -0.867122
vn -0.465121 0.120703 -0.876980
vn -0.465121 0.120703 -0.876980
vn -0.465121 0.120703 -0.876980
vn -0.465121 0.120703 -0.876980
vn 0.896658 -0.319575 -0.306392
vn 0.896658 -0.319575 -0.306392
vn 0.896658 -0.319575 -0.306392
vn 0.896658 -0.319575 -0.306392
vn 0.905178 0.155716 -0.395481
vn 0.905178 0.155716 -0.395481
vn 0.905178 0.155716 -0.395481
vn 0.807292 0.082910 -0.584300
vn 0.807292 0.082910 -0.584300
vn 0.807292 0.082910 -0.584300
vn 0.807292 0.082910 -0.584300
vn 0.807292 0.082910 -0.584300
vn 0.807292 0.082910 -0.584300
vn 0.807292 0.082910 -0.584300
vn 0.807292 0.082910 -0.584300
vn 0.807292 0.082910 -0.584300
vn 0.807292 0.082910 -0.584300
vn 0.807292 0.082910 -0.584300
vn 0.807292 0.082910 -0.584300
vn 0.696907 -0.230559 -0.679090
vn 0.696907 -0.230559 -0.679090
vn 0.696907 -0.230559 -0.679090
vn 0.696907 -0.230559 -0.679090
vn 0.710818 -0.664422 -0.230828
vn 0.710818 -0.664422 -0.230828
vn 0.710818 -0.664422 -0.230828
vn 0.710818 -0.664422 -0.230828
vn 0.553575 -0.831926 -0.038144
vn 0.553575 -0.831926 -0.038144
vn 0.553575 -0.831926 -0.038144
vn 0.762074 -0.521464 0.383821
vn 0.762074 -0.521464 0.383821
vn 0.762074 -0.521464 0.383821
vn 0.817652 -0.460074 0.346088
vn 0.817652 -0.460074 0.346088
vn 0.817652 -0.460074 0.346088
vn 0.817652 -0.460074 0.346088
vn 0.817539 -0.459299 0.347382
vn 0.817539 -0.459299 0.347382
vn 0.817539 -0.459299 0.347382
vn 0.817539 -0.459299 0.347382
vn 0.817026 -0.460446 0.347071
vn 0.817026 -0.460446 0.347071
vn 0.817026 -0.460446 0.347071
vn 0.273642 -0.600494 -0.751350
vn 0.273642 -0.600494 -0.751350
vn 0.273642 -0.600494 -0.751350
vn -0.692258 -0.446457 0.566970
vn -0.692258 -0.446457 0.566970
vn -0.692258 -0.446457 0.566970
vn 0.509885 -0.836192 -0.201993
vn 0.509885 -0.836192 -0.201993
vn 0.509885 -0.836192 -0.201993
vn 0.509885 -0.836192 -0.201993
vn -0.712451 -0.694340 -0.101514
vn -0.712451 -0.694340 -0.101514
vn -0.712451 -0.694340 -0.101514
vn 0.132269 -0.575207 0.807244
vn 0.132269 -0.575207 0.807244
vn 0.132269 -0.575207 0.807244
vn -0.172996 -0.893264 0.414911
vn -0.172996 -0.893264 0.414911
vn -0.172996 -0.893264 0.414911
vn 0.332191 -0.236101 -0.913184
vn 0.332191 -0.236101 -0.913184
vn 0.332191 -0.236101 -0.913184
vn 0.332191 -0.236101 -0.913184
vn 0.322722 -0.266440 -0.908218
vn 0.322722 -0.266440 -0.908218
vn 0.322722 -0.266440 -0.908218
vn -0.907621 -0.403988 0.114092
vn -0.907621 -0.403988 0.114092
vn -0.907621 -0.403988 0.114092
vn -0.927445 -0.359277 0.103759
vn -0.927445 -0.359277 0.103759
vn -0.927445 -0.359277 0.103759
vn -0.927445 -0.359277 0.103759
vn -0.869318 -0.221255 -0.441965
vn -0.869318 -0.221255 -0.441965
vn -0.869318 -0.221255 -0.441965
vn -0.869318 -0.221255 -0.441965
vn -0.869318 -0.221255 -0.441965
vn -0.869318 -0.221255 -0.441965
vn -0.869318 -0.221255 -0.441965
vn -0.869318 -0.221255 -0.441965
vn -0.869318 -0.221255 -0.441965
vn -0.869318 -0.221255 -0.441965
vn -0.869318 -0.221255 -0.441965
vn -0.869318 -0.221255 -0.441965
vn -0.869318 -0.221255 -0.441965
vn -0.869318 -0.221255 -0.441965
vn -0.869318 -0.221255 -0.441965
vn -0.420277 -0.487921 -0.765049
vn -0.420277 -0.487921 -0.765049
vn -0.420277 -0.487921 -0.765049
vn -0.473384 -0.715434 -0.513870
vn -0.473384 -0.715434 -0.513870
vn -0.473384 -0.715434 -0.513870
vn -0.473384 -0.715434 -0.513870
vn -0.801897 -0.181770 0.569141
vn -0.801897 -0.181770 0.569141
vn -0.801897 -0.181770 0.569141
vn -0.801897 -0.181770 0.569141
vn -0.801897 -0.181770 0.569141
vn -0.801897 -0.181770 0.569141
vn -0.801897 -0.181770 0.569141
vn 0.093945 -0.479235 0.872644
vn 0.093945 -0.479235 0.872644
vn 0.093945 -0.479235 0.872644
vn 0.093945 -0.479235 0.872644
vn 0.064560 -0.464274 0.883336
vn 0.064560 -0.464274 0.883336
vn 0.064560 -0.464274 0.883336
vn -0.801897 -0.181770 0.569140
vn -0.801897 -0.181770 0.569140
vn -0.801897 -0.181770 0.569140
s off
f 6/1/1 5/2/2 7/3/3
f 10/4/4 3/5/5 26/6/6 12/7/7
f 3/5/8 10/4/9 6/1/10
f 11/8/11 14/9/12 1/10/13
f 12/7/14 16/11/15 18/12/16
f 18/12/17 23/13/18 22/14/19 12/7/20
f 10/4/21 12/7/22 22/14/23 20/15/24
f 17/16/25 13/17/26 5/2/27
f 16/11/28 19/18/29 18/12/30
f 9/19/31 28/20/32 15/21/33
f 25/22/34 23/13/35 18/12/36 21/23/37
f 21/23/38 18/12/39 17/16/40
f 17/16/41 18/12/42 13/17/43
f 13/17/44 18/12/45 19/18/46 11/8/47
f 11/8/48 19/18/49 15/21/50 14/9/51
f 15/21/52 8/24/53 9/19/54
f 20/15/55 22/14/56 23/13/57 25/22/58
f 8/24/59 15/21/60 19/18/61 24/25/62
f 16/11/63 24/25/64 19/18/65
f 20/15/66 25/22/67 21/23/68 10/4/69
f 6/1/70 10/4/71 21/23/72 5/2/73
f 16/11/74 12/7/75 26/6/76 24/25/77
f 26/6/78 27/26/79 24/25/80
f 33/27/81 3/5/82 6/1/83 31/28/84
f 2/29/85 31/28/86 6/1/87 7/3/88
f 30/30/89 4/31/90 29/32/91 32/33/92
f 17/16/93 5/2/94 21/23/95
f 7/3/96 5/2/97 13/17/98 11/8/99
f 2/29/100 7/3/101 11/8/102 1/10/103
f 2/29/104 1/10/105 4/31/106 30/30/107
f 2/29/108 30/30/109 32/33/110 31/28/111
f 32/33/112 29/32/113 34/34/114 37/35/115
f 42/36/116 34/34/117 36/37/118
f 36/37/119 34/34/120 28/20/121
f 28/20/122 34/34/123 29/32/124 4/31/125
f 15/21/126 28/20/127 4/31/128 14/9/129
f 4/31/130 1/10/131 14/9/132
f 33/27/133 31/28/134 32/33/135
f 38/38/136 40/39/137 35/40/138
f 37/35/139 34/34/140 42/36/141 43/41/142
f 39/42/143 38/38/144 35/40/145
f 28/20/146 9/19/147 40/39/148
f 36/37/149 41/43/150 42/36/151
f 33/27/152 32/33/153 37/35/154 44/44/155
f 37/35/156 43/41/157 44/44/158
f 39/42/159 46/45/160 38/38/161
f 41/43/162 38/38/163 46/45/164 42/36/165
f 45/46/166 46/45/167 39/42/168 44/44/169
f 3/5/170 33/27/171 26/6/172
f 27/26/173 26/6/174 33/27/175 35/40/176
f 39/42/177 35/40/178 33/27/179 44/44/180
f 44/44/181 43/41/182 45/46/183
f 46/45/184 45/46/185 43/41/186 42/36/187
f 24/25/188 27/26/189 8/24/190
f 9/19/191 27/26/192 35/40/193 40/39/194
f 41/43/195 36/37/196 28/20/197 38/38/198
f 40/39/199 38/38/200 28/20/201
f 9/19/202 8/24/203 27/26/204
