# This file uses centimeters as units for non-parametric coordinates.

v 4.330126 1.171420 2.500002
v 0.000000 1.171420 5.000000
v -4.330126 1.171420 2.500000
v -4.330126 1.171420 -2.500000
v 0.000002 1.171420 -5.000000
v 4.330126 1.171420 -2.500000
v 8.041862 0.005565 4.642975
v 0.000000 0.005565 9.285945
v -8.041862 0.005565 4.642972
v -8.041862 0.005565 -4.642972
v 0.000004 0.005565 -9.285945
v 8.041862 0.005565 -4.642972
v 4.930126 1.909549 2.846412
v -0.000000 1.909549 5.692821
v 6.985944 1.909549 3.798881
v -4.930126 1.909549 2.846410
v -7.169225 1.909549 3.963682
v -4.930126 1.909549 -2.846410
v -6.648087 1.909549 -3.690080
v 0.000002 1.909549 -5.692821
v -0.199417 1.909549 -7.924150
v 4.930126 1.909549 -2.846410
v 6.626622 1.909549 -2.523778
v 0.000000 1.433553 8.469481
v -0.000000 1.909549 6.547677
v 2.464575 1.909549 6.774404
v -1.774773 1.909549 7.172660
v 7.291426 0.966233 -4.213643
v 4.730530 1.909549 -4.908002
v 1.330702 2.700459 2.304842
v 2.661402 2.700459 0.000002
v 1.330700 2.700459 -2.304838
v -1.330702 2.700459 -2.304842
v -2.661402 2.700459 -0.000002
v -1.330700 2.700459 2.304838
v 4.330126 1.171420 2.500002
v 0.000000 1.171420 5.000000
v -4.330126 1.171420 2.500000
v -4.330126 1.171420 -2.500000
v 0.000002 1.171420 -5.000000
v 4.330126 1.171420 -2.500000
v 0.000000 3.643053 0.000000
vt 0.323561 0.382799
vt 0.323867 0.382841
vt 0.323424 0.382816
vt 0.324163 0.382802
vt 0.324305 0.382820
vt 0.324132 0.382731
vt 0.324247 0.382717
vt 0.323847 0.382697
vt 0.323843 0.382671
vt 0.323572 0.382728
vt 0.323454 0.382730
vt 0.323598 0.382839
vt 0.323865 0.382876
vt 0.323873 0.383018
vt 0.323365 0.382938
vt 0.324123 0.382841
vt 0.324365 0.382944
vt 0.324098 0.382776
vt 0.324293 0.382814
vt 0.323847 0.382745
vt 0.323840 0.382758
vt 0.323605 0.382774
vt 0.323404 0.382810
vt 0.323873 0.382948
vt 0.323870 0.382860
vt 0.323648 0.382847
vt 0.324089 0.382849
vt 0.323429 0.382761
vt 0.323558 0.382702
vt 0.409146 0.032521
vt 0.408794 0.032047
vt 0.409148 0.032098
vt 0.409524 0.032473
vt 0.409532 0.032059
vt 0.409528 0.032368
vt 0.409535 0.031976
vt 0.409193 0.032314
vt 0.409196 0.031933
vt 0.408840 0.032355
vt 0.408837 0.031965
vt 0.408797 0.032458
vt 0.409174 0.032013
vn -0.022112 0.970432 0.240359
vn -0.022112 0.970432 0.240359
vn -0.022112 0.970432 0.240359
vn 0.000000 1.000000 0.000000
vn 0.000000 1.000000 0.000000
vn 0.000000 1.000000 0.000000
vn 0.000000 1.000000 0.000000
vn 0.000000 1.000000 0.000000
vn 0.000000 1.000000 0.000000
vn 0.000000 1.000000 0.000000
vn 0.000000 1.000000 0.000000
vn 0.000000 1.000000 -0.000000
vn 0.000000 1.000000 -0.000000
vn 0.000000 1.000000 -0.000000
vn 0.000000 1.000000 -0.000000
vn 0.000000 1.000000 0.000000
vn 0.000000 1.000000 0.000000
vn 0.000000 1.000000 0.000000
vn 0.000000 1.000000 0.000000
vn -0.387987 0.630764 -0.672014
vn -0.387987 0.630764 -0.672014
vn -0.387987 0.630764 -0.672014
vn -0.387987 0.630764 -0.672014
vn 0.387988 0.630764 -0.672014
vn 0.387988 0.630764 -0.672014
vn 0.387988 0.630764 -0.672014
vn 0.387988 0.630764 -0.672014
vn 0.775975 0.630763 0.000000
vn 0.775975 0.630763 0.000000
vn 0.775975 0.630763 0.000000
vn 0.775975 0.630763 0.000000
vn -0.858182 0.512666 -0.026401
vn -0.858182 0.512666 -0.026401
vn -0.858182 0.512666 -0.026401
vn -0.858182 0.512666 -0.026401
vn 0.387987 0.630764 0.672014
vn 0.387987 0.630764 0.672014
vn 0.387987 0.630764 0.672014
vn 0.387987 0.630764 0.672014
vn -0.431535 0.563534 -0.704420
vn -0.431535 0.563534 -0.704420
vn -0.431535 0.563534 -0.704420
vn -0.431535 0.563534 -0.704420
vn -0.387988 0.630764 0.672014
vn -0.387988 0.630764 0.672014
vn -0.387988 0.630764 0.672014
vn -0.387988 0.630764 0.672014
vn 0.409729 0.619363 -0.669710
vn 0.409729 0.619363 -0.669710
vn 0.409729 0.619363 -0.669710
vn -0.775975 0.630764 0.000000
vn -0.775975 0.630764 0.000000
vn -0.775975 0.630764 0.000000
vn -0.775975 0.630764 0.000000
vn 0.777612 0.627190 -0.044192
vn 0.777612 0.627190 -0.044192
vn 0.777612 0.627190 -0.044192
vn 0.000000 -1.000000 0.000000
vn 0.000000 -1.000000 0.000000
vn 0.000000 -1.000000 0.000000
vn 0.000000 -1.000000 0.000000
vn 0.000000 -1.000000 0.000000
vn 0.000000 -1.000000 0.000000
vn 0.000000 -1.000000 0.000000
vn 0.000000 -1.000000 0.000000
vn 0.000000 1.000000 -0.000000
vn 0.000000 1.000000 -0.000000
vn 0.000000 1.000000 -0.000000
vn 0.000000 1.000000 -0.000000
vn 0.000000 1.000000 -0.000000
vn 0.000000 1.000000 -0.000000
vn -0.448078 0.443739 0.776094
vn -0.448078 0.443739 0.776094
vn -0.448078 0.443739 0.776094
vn -0.448078 0.443739 0.776094
vn -0.449673 0.475788 0.755923
vn -0.449673 0.475788 0.755923
vn -0.449673 0.475788 0.755923
vn 0.448078 0.443739 0.776094
vn 0.448078 0.443739 0.776094
vn 0.448078 0.443739 0.776094
vn 0.448078 0.443739 0.776094
vn 0.455606 0.559590 0.692302
vn 0.455606 0.559590 0.692302
vn 0.455606 0.559590 0.692302
vn 0.084361 0.967210 0.239560
vn 0.084361 0.967210 0.239560
vn 0.084361 0.967210 0.239560
vn -0.000000 1.000000 -0.000000
vn -0.000000 1.000000 -0.000000
vn -0.000000 1.000000 -0.000000
vn -0.000000 1.000000 -0.000000
vn -0.000000 1.000000 -0.000000
vn -0.000000 1.000000 -0.000000
vn -0.000000 1.000000 -0.000000
vn -0.000000 1.000000 -0.000000
vn 0.402690 0.857487 -0.320246
vn 0.402690 0.857487 -0.320246
vn 0.402690 0.857487 -0.320246
vn 0.000000 1.000000 0.000000
vn 0.000000 1.000000 0.000000
vn 0.000000 1.000000 0.000000
vn 0.835739 0.548790 -0.019239
vn 0.835739 0.548790 -0.019239
vn 0.835739 0.548790 -0.019239
vn 0.835739 0.548790 -0.019239
vn 0.413244 0.582570 -0.699887
vn 0.413244 0.582570 -0.699887
vn 0.413244 0.582570 -0.699887
vn 0.413244 0.582570 -0.699887
vn 0.000000 1.000000 -0.000000
vn 0.000000 1.000000 -0.000000
vn 0.000000 1.000000 -0.000000
vn 0.000000 1.000000 -0.000000
vn 0.000000 1.000000 0.000000
vn 0.000000 1.000000 0.000000
vn 0.000000 1.000000 0.000000
vn 0.000000 1.000000 0.000000
vn -0.000000 0.869775 0.493448
vn -0.000000 0.869775 0.493448
vn -0.000000 0.869775 0.493448
vn -0.427338 0.869775 0.246724
vn -0.427338 0.869775 0.246724
vn -0.427338 0.869775 0.246724
vn -0.427339 0.869775 -0.246724
vn -0.427339 0.869775 -0.246724
vn -0.427339 0.869775 -0.246724
vn 0.000000 0.869775 -0.493448
vn 0.000000 0.869775 -0.493448
vn 0.000000 0.869775 -0.493448
vn 0.427338 0.869775 -0.246724
vn 0.427338 0.869775 -0.246724
vn 0.427338 0.869775 -0.246724
vn 0.427339 0.869775 0.246724
vn 0.427339 0.869775 0.246724
vn 0.427339 0.869775 0.246724
vn 0.327817 0.925589 0.189265
vn 0.327817 0.925589 0.189265
vn 0.327817 0.925589 0.189265
vn 0.327818 0.925589 -0.189266
vn 0.327818 0.925589 -0.189266
vn 0.327818 0.925589 -0.189266
vn 0.000000 0.925589 -0.378531
vn 0.000000 0.925589 -0.378531
vn 0.000000 0.925589 -0.378531
vn -0.327817 0.925589 -0.189265
vn -0.327817 0.925589 -0.189265
vn -0.327817 0.925589 -0.189265
vn -0.327818 0.925589 0.189266
vn -0.327818 0.925589 0.189266
vn -0.327818 0.925589 0.189266
vn -0.000000 0.925589 0.378531
vn -0.000000 0.925589 0.378531
vn -0.000000 0.925589 0.378531
vn -0.337787 0.737292 0.585064
vn -0.337787 0.737292 0.585064
vn -0.337787 0.737292 0.585064
vn 0.337787 0.737292 0.585065
vn 0.337787 0.737292 0.585065
vn 0.337787 0.737292 0.585065
vn 0.675575 0.737292 0.000000
vn 0.675575 0.737292 0.000000
vn 0.675575 0.737292 0.000000
vn 0.337787 0.737292 -0.585064
vn 0.337787 0.737292 -0.585064
vn 0.337787 0.737292 -0.585064
vn -0.337787 0.737292 -0.585065
vn -0.337787 0.737292 -0.585065
vn -0.337787 0.737292 -0.585065
vn -0.675574 0.737292 0.000000
vn -0.675574 0.737292 0.000000
vn -0.675574 0.737292 0.000000
vn 0.000000 -1.000000 0.000000
vn 0.000000 -1.000000 0.000000
vn 0.000000 -1.000000 0.000000
vn 0.000000 -1.000000 0.000000
vn 0.000000 -1.000000 0.000000
vn 0.000000 -1.000000 0.000000
vn 0.000000 -1.000000 0.000000
vn 0.000000 -1.000000 0.000000
s off
f 26/26/1 25/25/2 24/24/3
f 16/4/4 18/6/5 19/7/6 17/5/7
f 18/6/8 20/8/9 21/9/10 19/7/11
f 20/8/12 22/10/13 29/29/14 21/9/15
f 22/10/16 13/1/17 15/3/18 23/11/19
f 1/12/20 2/13/21 14/2/22 13/1/23
f 2/13/24 3/16/25 16/4/26 14/2/27
f 3/16/28 4/18/29 18/6/30 16/4/31
f 10/19/32 9/17/33 17/5/34 19/7/35
f 4/18/36 5/20/37 20/8/38 18/6/39
f 11/21/40 10/19/41 19/7/42 21/9/43
f 5/20/44 6/22/45 22/10/46 20/8/47
f 12/23/48 29/29/49 28/28/50
f 6/22/51 1/12/52 13/1/53 22/10/54
f 23/11/55 12/23/56 28/28/57
f 8/14/58 11/21/59 12/23/60 7/15/61
f 8/14/62 9/17/63 10/19/64 11/21/65
f 14/2/66 25/25/67 26/26/68
f 14/2/69 27/27/70 25/25/71
f 9/17/72 8/14/73 24/24/74 27/27/75
f 9/17/76 27/27/77 17/5/78
f 24/24/79 8/14/80 7/15/81 26/26/82
f 7/15/83 15/3/84 26/26/85
f 24/24/86 25/25/87 27/27/88
f 2/13/89 1/12/90 6/22/91 5/20/92
f 5/20/93 4/18/94 3/16/95 2/13/96
f 28/28/97 29/29/98 23/11/99
f 29/29/100 22/10/101 23/11/102
f 7/15/103 12/23/104 23/11/105 15/3/106
f 12/23/107 11/21/108 21/9/109 29/29/110
f 14/2/111 26/26/112 15/3/113 13/1/114
f 16/4/115 17/5/116 27/27/117 14/2/118
f 37/30/119 30/31/120 35/32/121
f 38/33/122 35/32/123 34/34/124
f 39/35/125 34/34/126 33/36/127
f 40/37/128 33/36/129 32/38/130
f 41/39/131 32/38/132 31/40/133
f 36/41/134 31/40/135 30/31/136
f 30/31/137 31/40/138 42/42/139
f 31/40/140 32/38/141 42/42/142
f 32/38/143 33/36/144 42/42/145
f 33/36/146 34/34/147 42/42/148
f 34/34/149 35/32/150 42/42/151
f 35/32/152 30/31/153 42/42/154
f 38/33/155 37/30/156 35/32/157
f 37/30/158 36/41/159 30/31/160
f 36/41/161 41/39/162 31/40/163
f 41/39/164 40/37/165 32/38/166
f 40/37/167 39/35/168 33/36/169
f 39/35/170 38/33/171 34/34/172
f 41/39/173 36/41/174 37/30/175 38/33/176
f 41/39/177 38/33/178 39/35/179 40/37/180
