# This file uses centimeters as units for non-parametric coordinates.

v 1.767767 1.171420 -7.985430
v 0.000000 1.171420 -10.003498
v 3.300898 1.171420 -5.567905
v -1.767767 1.171420 -7.985430
v -3.300898 1.171420 -5.567907
v -4.267767 1.171420 -2.353994
v -4.450825 1.171420 0.879764
v -3.276649 1.171420 3.276649
v 0.000000 1.171420 4.633883
v 3.276649 1.171420 3.276651
v 4.450826 1.171420 0.879764
v 4.267767 1.171420 -2.353994
v 0.000053 1.899089 -11.691445
v 2.259936 1.888793 -9.288181
v 4.219862 1.876644 -6.409167
v -4.219802 1.878730 -6.409130
v -2.259850 1.889910 -9.288156
v -5.689898 1.847982 1.269361
v -5.455866 1.863527 -2.581702
v -4.188863 1.836046 4.123792
v -0.000035 1.828462 5.740086
v 4.188800 1.833976 4.123753
v 5.689875 1.845170 1.269309
v 5.455870 1.860831 -2.581754
v 0.000051 1.909549 -14.273024
v 3.088197 1.896382 -11.280608
v 5.766454 1.880957 -7.695770
v -5.766377 1.884841 -7.695739
v -3.088108 1.898464 -11.280558
v -7.559321 1.846781 1.865181
v -7.455464 1.866102 -2.929988
v -5.115213 1.831691 5.855330
v -0.000033 1.821607 7.762789
v 5.115146 1.827833 5.855300
v 7.559299 1.841543 1.865120
v 7.455471 1.861079 -2.930052
v 0.000056 0.072255 -15.396626
v 3.463435 0.058267 -12.094393
v 6.467120 0.041878 -8.138401
v -6.467036 0.046004 -8.138368
v -3.463338 0.060479 -12.094337
v -8.477837 0.005565 2.412434
v -8.361361 0.026093 -2.879199
v -5.736751 -0.010468 6.770565
v -0.000038 -0.021180 8.886391
v 5.736674 -0.014566 6.770531
v 8.477810 0.000000 2.412367
v 8.361365 0.020758 -2.879269
v 0.000000 1.171420 -0.008246
v 0.000000 1.171420 -5.567905
v 0.000000 1.171420 -2.353994
v 0.000006 0.023426 -2.879227
v -0.000009 0.008452 0.959297
v 0.000027 0.043941 -8.138387
v 1.755312 3.003532 -4.023596
v 0.000000 2.990600 -5.423082
v -1.755312 2.993733 -4.023598
v -2.443330 2.981342 -0.334042
v -1.727695 2.981342 1.727695
v 0.000000 2.981342 2.443329
v 1.727695 2.981342 1.727695
v 2.443331 2.981342 -0.334042
v 1.767767 1.171420 -7.985430
v 0.000000 1.171420 -10.003498
v 3.300898 1.171420 -5.567905
v -1.767767 1.171420 -7.985430
v -3.300898 1.171420 -5.567907
v -4.267767 1.171420 -2.353994
v -4.633883 1.171420 -0.008240
v -4.267767 1.171420 1.767767
v -3.276649 1.171420 3.276649
v -1.767767 1.171420 4.267767
v 0.000000 1.171420 4.633883
v 1.767767 1.171420 4.267767
v 3.276649 1.171420 3.276651
v 4.267767 1.171420 1.767767
v 4.633884 1.171420 -0.008240
v 4.267767 1.171420 -2.353994
v -1.468122 2.076381 3.544361
v 1.468122 2.076381 3.544361
v 3.544361 2.076381 1.468122
v 3.535135 2.055230 -2.279976
v 1.458897 2.050757 -7.744007
v -1.458897 2.040958 -7.744007
v -3.535135 2.045431 -2.279976
v -3.544360 2.076381 1.468122
v 0.000000 2.986822 -1.029955
vt 0.324974 0.381235
vt 0.324892 0.381324
vt 0.324870 0.381258
vt 0.324976 0.381151
vt 0.324820 0.381432
vt 0.324777 0.381387
vt 0.325123 0.381436
vt 0.325054 0.381326
vt 0.325078 0.381261
vt 0.325168 0.381393
vt 0.325174 0.381732
vt 0.325167 0.381583
vt 0.325224 0.381570
vt 0.325234 0.381749
vt 0.325119 0.381843
vt 0.325163 0.381882
vt 0.324965 0.381904
vt 0.324965 0.381955
vt 0.324814 0.381838
vt 0.324769 0.381876
vt 0.324761 0.381726
vt 0.324701 0.381741
vt 0.324773 0.381578
vt 0.324716 0.381562
vt 0.324841 0.381185
vt 0.324993 0.381052
vt 0.324704 0.381344
vt 0.325136 0.381172
vt 0.325262 0.381322
vt 0.325343 0.381533
vt 0.325350 0.381757
vt 0.325247 0.381930
vt 0.324949 0.382036
vt 0.324665 0.381944
vt 0.324581 0.381779
vt 0.324608 0.381559
vt 0.324856 0.381227
vt 0.325033 0.381081
vt 0.324694 0.381400
vt 0.325193 0.381194
vt 0.325339 0.381344
vt 0.325433 0.381565
vt 0.325435 0.381811
vt 0.325316 0.382010
vt 0.324954 0.382141
vt 0.324622 0.382048
vt 0.324539 0.381869
vt 0.324575 0.381630
vt 0.324968 0.381692
vt 0.324971 0.381437
vt 0.324970 0.381584
vt 0.324992 0.381635
vt 0.324979 0.381805
vt 0.325009 0.381402
vt 0.475114 0.030725
vt 0.475245 0.030581
vt 0.474988 0.030631
vt 0.475369 0.030742
vt 0.475484 0.030664
vt 0.475543 0.030882
vt 0.475580 0.030845
vt 0.475532 0.031077
vt 0.475457 0.031028
vt 0.475319 0.031212
vt 0.475170 0.031092
vt 0.475031 0.031190
vt 0.474910 0.030988
vt 0.474863 0.031027
vt 0.474844 0.030793
vt 0.474907 0.030837
vt 0.475173 0.031356
vt 0.474934 0.031254
vt 0.474872 0.031062
vt 0.475004 0.030900
vt 0.475242 0.030851
vt 0.475465 0.030934
vt 0.475552 0.031113
vt 0.475437 0.031294
vt 0.475314 0.031345
vt 0.475039 0.031323
vt 0.474877 0.031161
vt 0.474918 0.030971
vt 0.475117 0.030860
vt 0.475363 0.030877
vt 0.475530 0.031016
vt 0.475519 0.031211
vt 0.475210 0.030828
vn -0.382292 0.855092 0.350243
vn -0.382292 0.855092 0.350243
vn -0.382292 0.855092 0.350243
vn -0.382292 0.855092 0.350243
vn -0.429850 0.856591 0.285450
vn -0.429850 0.856591 0.285450
vn -0.429850 0.856591 0.285450
vn -0.429850 0.856591 0.285450
vn 0.430689 0.856037 0.285847
vn 0.430689 0.856037 0.285847
vn 0.430689 0.856037 0.285847
vn 0.430689 0.856037 0.285847
vn 0.382704 0.854843 0.350402
vn 0.382704 0.854843 0.350402
vn 0.382704 0.854843 0.350402
vn 0.382704 0.854843 0.350402
vn 0.492513 0.869757 0.030903
vn 0.492513 0.869757 0.030903
vn 0.492513 0.869757 0.030903
vn 0.492513 0.869757 0.030903
vn 0.490647 0.857398 0.155354
vn 0.490647 0.857398 0.155354
vn 0.490647 0.857398 0.155354
vn 0.490647 0.857398 0.155354
vn 0.424961 0.879432 -0.214492
vn 0.424961 0.879432 -0.214492
vn 0.424961 0.879432 -0.214492
vn 0.424961 0.879432 -0.214492
vn 0.194370 0.852173 -0.485821
vn 0.194370 0.852173 -0.485821
vn 0.194370 0.852173 -0.485821
vn 0.194370 0.852173 -0.485821
vn -0.193957 0.852523 -0.485371
vn -0.193957 0.852523 -0.485371
vn -0.193957 0.852523 -0.485371
vn -0.193957 0.852523 -0.485371
vn -0.423727 0.880150 -0.213989
vn -0.423727 0.880150 -0.213989
vn -0.423727 0.880150 -0.213989
vn -0.423727 0.880150 -0.213989
vn -0.489368 0.858187 0.155026
vn -0.489368 0.858187 0.155026
vn -0.489368 0.858187 0.155026
vn -0.489368 0.858187 0.155026
vn -0.491014 0.870606 0.030829
vn -0.491014 0.870606 0.030829
vn -0.491014 0.870606 0.030829
vn -0.491014 0.870606 0.030829
vn 0.000343 0.999992 0.004008
vn 0.000343 0.999992 0.004008
vn 0.000343 0.999992 0.004008
vn 0.000343 0.999992 0.004008
vn 0.000441 0.999992 0.003949
vn 0.000441 0.999992 0.003949
vn 0.000441 0.999992 0.003949
vn 0.000441 0.999992 0.003949
vn 0.000441 0.999991 0.004153
vn 0.000441 0.999991 0.004153
vn 0.000441 0.999991 0.004153
vn 0.000441 0.999991 0.004153
vn 0.000343 0.999992 0.004095
vn 0.000343 0.999992 0.004095
vn 0.000343 0.999992 0.004095
vn 0.000343 0.999992 0.004095
vn 0.000615 0.999992 0.004057
vn 0.000615 0.999992 0.004057
vn 0.000615 0.999992 0.004057
vn 0.000615 0.999992 0.004057
vn 0.000543 0.999991 0.004135
vn 0.000543 0.999991 0.004135
vn 0.000543 0.999991 0.004135
vn 0.000543 0.999991 0.004135
vn 0.000551 0.999992 0.003930
vn 0.000551 0.999992 0.003930
vn 0.000551 0.999992 0.003930
vn 0.000551 0.999992 0.003930
vn 0.000344 0.999992 0.003929
vn 0.000344 0.999992 0.003929
vn 0.000344 0.999992 0.003929
vn 0.000344 0.999992 0.003929
vn 0.000344 0.999991 0.004174
vn 0.000344 0.999991 0.004174
vn 0.000344 0.999991 0.004174
vn 0.000344 0.999991 0.004174
vn 0.000552 0.999991 0.004173
vn 0.000552 0.999991 0.004173
vn 0.000552 0.999991 0.004173
vn 0.000552 0.999991 0.004173
vn 0.000543 0.999992 0.003968
vn 0.000543 0.999992 0.003968
vn 0.000543 0.999992 0.003968
vn 0.000543 0.999992 0.003968
vn 0.000615 0.999992 0.004047
vn 0.000615 0.999992 0.004047
vn 0.000615 0.999992 0.004047
vn 0.000615 0.999992 0.004047
vn 0.632584 0.410706 -0.656627
vn 0.632584 0.410706 -0.656627
vn 0.632584 0.410706 -0.656627
vn 0.632584 0.410706 -0.656627
vn 0.732069 0.402087 -0.549910
vn 0.732069 0.402087 -0.549910
vn 0.732069 0.402087 -0.549910
vn 0.732069 0.402087 -0.549910
vn -0.731956 0.402131 -0.550029
vn -0.731956 0.402131 -0.550029
vn -0.731956 0.402131 -0.550029
vn -0.731956 0.402131 -0.550029
vn -0.632431 0.410760 -0.656740
vn -0.632431 0.410760 -0.656740
vn -0.632431 0.410760 -0.656740
vn -0.632431 0.410760 -0.656740
vn -0.897007 0.441656 -0.017849
vn -0.897007 0.441656 -0.017849
vn -0.897007 0.441656 -0.017849
vn -0.897007 0.441656 -0.017849
vn -0.860125 0.408196 -0.305878
vn -0.860125 0.408196 -0.305878
vn -0.860125 0.408196 -0.305878
vn -0.860125 0.408196 -0.305878
vn -0.768920 0.496749 0.402496
vn -0.768920 0.496749 0.402496
vn -0.768920 0.496749 0.402496
vn -0.768920 0.496749 0.402496
vn -0.283418 0.504679 0.815459
vn -0.283418 0.504679 0.815459
vn -0.283418 0.504679 0.815459
vn -0.283418 0.504679 0.815459
vn 0.283722 0.504651 0.815370
vn 0.283722 0.504651 0.815370
vn 0.283722 0.504651 0.815370
vn 0.283722 0.504651 0.815370
vn 0.769035 0.496669 0.402373
vn 0.769035 0.496669 0.402373
vn 0.769035 0.496669 0.402373
vn 0.769035 0.496669 0.402373
vn 0.860177 0.408151 -0.305791
vn 0.860177 0.408151 -0.305791
vn 0.860177 0.408151 -0.305791
vn 0.860177 0.408151 -0.305791
vn 0.897037 0.441597 -0.017825
vn 0.897037 0.441597 -0.017825
vn 0.897037 0.441597 -0.017825
vn 0.897037 0.441597 -0.017825
vn 0.000000 1.000000 -0.000000
vn 0.000000 1.000000 -0.000000
vn 0.000000 1.000000 -0.000000
vn 0.000000 1.000000 -0.000000
vn 0.000000 1.000000 0.000000
vn 0.000000 1.000000 0.000000
vn 0.000000 1.000000 0.000000
vn 0.000000 1.000000 0.000000
vn -0.000000 1.000000 -0.000000
vn -0.000000 1.000000 -0.000000
vn -0.000000 1.000000 -0.000000
vn -0.000000 1.000000 0.000000
vn -0.000000 1.000000 0.000000
vn -0.000000 1.000000 0.000000
vn -0.000000 1.000000 -0.000000
vn -0.000000 1.000000 -0.000000
vn -0.000000 1.000000 -0.000000
vn -0.000000 1.000000 -0.000000
vn 0.000000 1.000000 0.000000
vn 0.000000 1.000000 0.000000
vn 0.000000 1.000000 0.000000
vn 0.000000 1.000000 0.000000
vn 0.000000 1.000000 0.000000
vn 0.000000 1.000000 0.000000
vn 0.000000 1.000000 0.000000
vn 0.000000 1.000000 0.000000
vn 0.000000 1.000000 0.000000
vn 0.000000 1.000000 0.000000
vn 0.000000 1.000000 0.000000
vn 0.000000 1.000000 0.000000
vn 0.000000 1.000000 0.000000
vn 0.000000 1.000000 0.000000
vn 0.000000 1.000000 0.000000
vn 0.000000 1.000000 0.000000
vn 0.000000 1.000000 0.000000
vn 0.000000 1.000000 0.000000
vn -0.000323 -0.999992 -0.003909
vn -0.000323 -0.999992 -0.003909
vn -0.000323 -0.999992 -0.003909
vn -0.000323 -0.999992 -0.003909
vn -0.000323 -0.999992 -0.003892
vn -0.000323 -0.999992 -0.003892
vn -0.000323 -0.999992 -0.003892
vn -0.000323 -0.999992 -0.003892
vn -0.000319 -0.999992 -0.003901
vn -0.000319 -0.999992 -0.003901
vn -0.000319 -0.999992 -0.003901
vn -0.000319 -0.999992 -0.003901
vn -0.000319 -0.999992 -0.003901
vn -0.000319 -0.999992 -0.003901
vn -0.000319 -0.999992 -0.003901
vn -0.000319 -0.999992 -0.003901
vn -0.000331 -0.999992 -0.003887
vn -0.000331 -0.999992 -0.003887
vn -0.000331 -0.999992 -0.003887
vn -0.000330 -0.999992 -0.003914
vn -0.000330 -0.999992 -0.003914
vn -0.000330 -0.999992 -0.003914
vn -0.000319 -0.999992 -0.003901
vn -0.000319 -0.999992 -0.003901
vn -0.000319 -0.999992 -0.003901
vn -0.000319 -0.999992 -0.003901
vn -0.000319 -0.999992 -0.003901
vn -0.000319 -0.999992 -0.003901
vn -0.000319 -0.999992 -0.003901
vn -0.000319 -0.999992 -0.003901
vn -0.000319 -0.999992 -0.003901
vn -0.000319 -0.999992 -0.003901
vn -0.000319 -0.999992 -0.003901
vn -0.000319 -0.999992 -0.003901
vn -0.000319 -0.999992 -0.003901
vn -0.000319 -0.999992 -0.003901
vn 0.198709 0.945498 -0.257968
vn 0.198709 0.945498 -0.257968
vn 0.198709 0.945498 -0.257968
vn -0.204089 0.944317 -0.258094
vn -0.204089 0.944317 -0.258094
vn -0.204089 0.944317 -0.258094
vn -0.541110 0.835210 -0.098100
vn -0.541110 0.835210 -0.098100
vn -0.541110 0.835210 -0.098100
vn -0.458324 0.874432 0.159085
vn -0.458324 0.874432 0.159085
vn -0.458324 0.874432 0.159085
vn -0.190284 0.867616 0.459386
vn -0.190284 0.867616 0.459386
vn -0.190284 0.867616 0.459386
vn 0.190284 0.867615 0.459386
vn 0.190284 0.867615 0.459386
vn 0.190284 0.867615 0.459386
vn 0.458324 0.874432 0.159086
vn 0.458324 0.874432 0.159086
vn 0.458324 0.874432 0.159086
vn 0.539368 0.836632 -0.095548
vn 0.539368 0.836632 -0.095548
vn 0.539368 0.836632 -0.095548
vn 0.000000 0.769253 0.638945
vn 0.000000 0.769253 0.638945
vn 0.000000 0.769253 0.638945
vn 0.451802 0.769253 0.451802
vn 0.451802 0.769253 0.451802
vn 0.451802 0.769253 0.451802
vn 0.634170 0.773171 -0.005924
vn 0.634170 0.773171 -0.005924
vn 0.634170 0.773171 -0.005924
vn 0.635977 0.732696 -0.242260
vn 0.635977 0.732696 -0.242260
vn 0.635977 0.732696 -0.242260
vn -0.003132 0.932592 -0.360919
vn -0.003132 0.932592 -0.360919
vn -0.003132 0.932592 -0.360919
vn -0.632149 0.736477 -0.240809
vn -0.632149 0.736477 -0.240809
vn -0.632149 0.736477 -0.240809
vn -0.632526 0.774499 -0.007952
vn -0.632526 0.774499 -0.007952
vn -0.632526 0.774499 -0.007952
vn -0.451802 0.769253 0.451802
vn -0.451802 0.769253 0.451802
vn -0.451802 0.769253 0.451802
vn 0.000000 0.772540 0.634967
vn 0.000000 0.772540 0.634967
vn 0.000000 0.772540 0.634967
vn 0.448990 0.772539 0.448989
vn 0.448990 0.772539 0.448989
vn 0.448990 0.772539 0.448989
vn 0.640711 0.767759 -0.005910
vn 0.640711 0.767759 -0.005910
vn 0.640711 0.767759 -0.005910
vn 0.628809 0.739742 -0.239542
vn 0.628809 0.739742 -0.239542
vn 0.628809 0.739742 -0.239542
vn -0.003110 0.926202 -0.377015
vn -0.003110 0.926202 -0.377015
vn -0.003110 0.926202 -0.377015
vn -0.628810 0.739742 -0.239542
vn -0.628810 0.739742 -0.239542
vn -0.628810 0.739742 -0.239542
vn -0.642641 0.766127 -0.007908
vn -0.642641 0.766127 -0.007908
vn -0.642641 0.766127 -0.007908
vn -0.448990 0.772539 0.448989
vn -0.448990 0.772539 0.448989
vn -0.448990 0.772539 0.448989
vn -0.154529 0.647612 0.746137
vn -0.154529 0.647612 0.746137
vn -0.154529 0.647612 0.746137
vn 0.154529 0.647612 0.746137
vn 0.154529 0.647612 0.746137
vn 0.154529 0.647612 0.746137
vn 0.418329 0.647612 0.636867
vn 0.418329 0.647612 0.636867
vn 0.418329 0.647612 0.636867
vn 0.636867 0.647612 0.418329
vn 0.636867 0.647612 0.418329
vn 0.636867 0.647612 0.418329
vn 0.746334 0.647545 0.153854
vn 0.746334 0.647545 0.153854
vn 0.746334 0.647545 0.153854
vn 0.759550 0.639555 -0.118548
vn 0.759550 0.639555 -0.118548
vn 0.759550 0.639555 -0.118548
vn 0.741237 0.633121 -0.222993
vn 0.741237 0.633121 -0.222993
vn 0.741237 0.633121 -0.222993
vn 0.771934 0.405548 -0.489540
vn 0.771934 0.405548 -0.489540
vn 0.771934 0.405548 -0.489540
vn 0.687209 0.406657 -0.601975
vn 0.687209 0.406657 -0.601975
vn 0.687209 0.406657 -0.601975
vn -0.685925 0.410471 -0.600850
vn -0.685925 0.410471 -0.600850
vn -0.685925 0.410471 -0.600850
vn -0.770499 0.409356 -0.488630
vn -0.770499 0.409356 -0.488630
vn -0.770499 0.409356 -0.488630
vn -0.737910 0.637345 -0.221992
vn -0.737910 0.637345 -0.221992
vn -0.737910 0.637345 -0.221992
vn -0.756071 0.643763 -0.118004
vn -0.756071 0.643763 -0.118004
vn -0.756071 0.643763 -0.118004
vn -0.746334 0.647546 0.153853
vn -0.746334 0.647546 0.153853
vn -0.746334 0.647546 0.153853
vn -0.636867 0.647612 0.418329
vn -0.636867 0.647612 0.418329
vn -0.636867 0.647612 0.418329
vn -0.418330 0.647612 0.636867
vn -0.418330 0.647612 0.636867
vn -0.418330 0.647612 0.636867
vn -0.008053 0.999967 0.000860
vn -0.008053 0.999967 0.000860
vn -0.008053 0.999967 0.000860
vn 0.002471 0.999997 0.000860
vn 0.002471 0.999997 0.000860
vn 0.002471 0.999997 0.000860
vn -0.001358 0.999994 0.003105
vn -0.001358 0.999994 0.003105
vn -0.001358 0.999994 0.003105
vn -0.002041 0.999998 0.000708
vn -0.002041 0.999998 0.000708
vn -0.002041 0.999998 0.000708
vn -0.000654 0.999999 0.001578
vn -0.000654 0.999999 0.001578
vn -0.000654 0.999999 0.001578
vn 0.000654 0.999999 0.001578
vn 0.000654 0.999999 0.001578
vn 0.000654 0.999999 0.001578
vn 0.002041 0.999998 0.000708
vn 0.002041 0.999998 0.000708
vn 0.002041 0.999998 0.000708
vn 0.000560 0.999982 0.005910
vn 0.000560 0.999982 0.005910
vn 0.000560 0.999982 0.005910
vn 0.000000 -1.000000 0.000000
vn 0.000000 -1.000000 0.000000
vn 0.000000 -1.000000 0.000000
vn 0.000000 -1.000000 0.000000
vn 0.000000 -1.000000 0.000000
vn 0.000000 -1.000000 0.000000
vn 0.000000 -1.000000 0.000000
vn 0.000000 -1.000000 0.000000
vn 0.000000 -1.000000 -0.000000
vn 0.000000 -1.000000 -0.000000
vn 0.000000 -1.000000 0.000000
vn 0.000000 -1.000000 0.000000
vn 0.000000 -1.000000 0.000000
vn 0.000000 -1.000000 0.000000
vn 0.000000 -1.000000 -0.000000
vn 0.000000 -1.000000 -0.000000
vn 0.000000 -1.000000 -0.000000
vn 0.000000 -1.000000 -0.000000
vn 0.000000 -1.000000 -0.000000
vn 0.000000 -1.000000 0.000000
vn 0.000000 -1.000000 0.000000
vn 0.000000 -1.000000 0.000000
vn 0.000000 -1.000000 0.000000
vn 0.000000 -1.000000 0.000000
vn 0.000000 -1.000000 0.000000
vn 0.000000 -1.000000 0.000000
vn 0.000000 -1.000000 0.000000
vn 0.000000 -1.000000 0.000000
vn 0.000000 -1.000000 0.000000
vn 0.000000 -1.000000 0.000000
s off
f 2/1/1 1/2/2 14/3/3 13/4/4
f 1/2/5 3/5/6 15/6/7 14/3/8
f 5/7/9 4/8/10 17/9/11 16/10/12
f 4/8/13 2/1/14 13/4/15 17/9/16
f 7/11/17 6/12/18 19/13/19 18/14/20
f 6/12/21 5/7/22 16/10/23 19/13/24
f 8/15/25 7/11/26 18/14/27 20/16/28
f 21/18/29 9/17/30 8/15/31 20/16/32
f 22/20/33 10/19/34 9/17/35 21/18/36
f 11/21/37 10/19/38 22/20/39 23/22/40
f 3/5/41 12/23/42 24/24/43 15/6/44
f 12/23/45 11/21/46 23/22/47 24/24/48
f 13/4/49 14/3/50 26/25/51 25/26/52
f 14/3/53 15/6/54 27/27/55 26/25/56
f 16/10/57 17/9/58 29/28/59 28/29/60
f 17/9/61 13/4/62 25/26/63 29/28/64
f 18/14/65 19/13/66 31/30/67 30/31/68
f 19/13/69 16/10/70 28/29/71 31/30/72
f 20/16/73 18/14/74 30/31/75 32/32/76
f 33/33/77 21/18/78 20/16/79 32/32/80
f 34/34/81 22/20/82 21/18/83 33/33/84
f 23/22/85 22/20/86 34/34/87 35/35/88
f 15/6/89 24/24/90 36/36/91 27/27/92
f 24/24/93 23/22/94 35/35/95 36/36/96
f 25/26/97 26/25/98 38/37/99 37/38/100
f 26/25/101 27/27/102 39/39/103 38/37/104
f 28/29/105 29/28/106 41/40/107 40/41/108
f 29/28/109 25/26/110 37/38/111 41/40/112
f 30/31/113 31/30/114 43/42/115 42/43/116
f 31/30/117 28/29/118 40/41/119 43/42/120
f 32/32/121 30/31/122 42/43/123 44/44/124
f 45/45/125 33/33/126 32/32/127 44/44/128
f 46/46/129 34/34/130 33/33/131 45/45/132
f 35/35/133 34/34/134 46/46/135 47/47/136
f 27/27/137 36/36/138 48/48/139 39/39/140
f 36/36/141 35/35/142 47/47/143 48/48/144
f 1/2/145 2/1/146 50/50/147 3/5/148
f 5/7/149 50/50/150 2/1/151 4/8/152
f 8/15/153 49/49/154 7/11/155
f 11/21/156 49/49/157 10/19/158
f 7/11/159 49/49/160 51/51/161 6/12/162
f 12/23/163 51/51/164 49/49/165 11/21/166
f 3/5/167 50/50/168 51/51/169 12/23/170
f 6/12/171 51/51/172 50/50/173 5/7/174
f 9/17/175 49/49/176 8/15/177
f 10/19/178 49/49/179 9/17/180
f 47/47/181 53/53/182 52/52/183 48/48/184
f 43/42/185 52/52/186 53/53/187 42/43/188
f 40/41/189 54/54/190 52/52/191 43/42/192
f 48/48/193 52/52/194 54/54/195 39/39/196
f 46/46/197 53/53/198 47/47/199
f 42/43/200 53/53/201 44/44/202
f 37/38/203 54/54/204 40/41/205 41/40/206
f 39/39/207 54/54/208 37/38/209 38/37/210
f 46/46/211 45/45/212 53/53/213
f 44/44/214 53/53/215 45/45/216
f 83/55/217 56/56/218 55/57/219
f 84/58/220 57/59/221 56/56/222
f 85/60/223 58/61/224 57/59/225
f 86/62/226 59/63/227 58/61/228
f 79/64/229 60/65/230 59/63/231
f 80/66/232 61/67/233 60/65/234
f 81/68/235 62/69/236 61/67/237
f 82/70/238 55/57/239 62/69/240
f 79/64/241 73/71/242 80/66/243
f 80/66/244 75/72/245 81/68/246
f 81/68/247 77/73/248 82/70/249
f 82/70/250 65/74/251 83/55/252
f 83/55/253 64/75/254 84/58/255
f 84/58/256 67/76/257 85/60/258
f 85/60/259 69/77/260 86/62/261
f 86/62/262 71/78/263 79/64/264
f 60/65/265 79/64/266 80/66/267
f 61/67/268 80/66/269 81/68/270
f 62/69/271 81/68/272 82/70/273
f 55/57/274 82/70/275 83/55/276
f 56/56/277 83/55/278 84/58/279
f 57/59/280 84/58/281 85/60/282
f 58/61/283 85/60/284 86/62/285
f 59/63/286 86/62/287 79/64/288
f 73/71/289 79/64/290 72/79/291
f 80/66/292 73/71/293 74/80/294
f 75/72/295 80/66/296 74/80/297
f 81/68/298 75/72/299 76/81/300
f 77/73/301 81/68/302 76/81/303
f 82/70/304 77/73/305 78/82/306
f 65/74/307 82/70/308 78/82/309
f 83/55/310 65/74/311 63/83/312
f 64/75/313 83/55/314 63/83/315
f 84/58/316 64/75/317 66/84/318
f 67/76/319 84/58/320 66/84/321
f 85/60/322 67/76/323 68/85/324
f 69/77/325 85/60/326 68/85/327
f 86/62/328 69/77/329 70/86/330
f 71/78/331 86/62/332 70/86/333
f 79/64/334 71/78/335 72/79/336
f 55/57/337 56/56/338 87/87/339
f 56/56/340 57/59/341 87/87/342
f 57/59/343 58/61/344 87/87/345
f 58/61/346 59/63/347 87/87/348
f 59/63/349 60/65/350 87/87/351
f 60/65/352 61/67/353 87/87/354
f 61/67/355 62/69/356 87/87/357
f 62/69/358 55/57/359 87/87/360
f 63/83/361 74/80/362 73/71/363 64/75/364
f 66/84/365 72/79/366 71/78/367 67/76/368
f 65/74/369 75/72/370 74/80/371 63/83/372
f 78/82/373 77/73/374 76/81/375 65/74/376
f 65/74/377 76/81/378 75/72/379
f 64/75/380 73/71/381 72/79/382 66/84/383
f 67/76/384 70/86/385 69/77/386 68/85/387
f 67/76/388 71/78/389 70/86/390
