# This file uses centimeters as units for non-parametric coordinates.

v -171.865082 21.475430 -371.154785
v -171.865082 21.483171 369.207642
v -160.155746 32.424789 -358.828979
v -160.155746 32.424789 356.878296
v 158.744614 32.424789 -358.828979
v 158.744614 32.424789 356.878296
v 170.188217 21.467197 -371.154785
v 170.188217 21.466969 369.207642
v -159.915955 33.166363 196.109650
v -171.607788 21.528755 205.111725
v 159.066208 33.166363 198.537750
v 169.992493 21.528755 207.619537
v -171.607788 21.528755 -223.875275
v -142.254272 34.174019 -212.456711
v -159.916534 33.166363 -215.108765
v 159.041016 33.166363 -200.791046
v 169.965088 21.528755 -209.407440
v 144.695129 34.172897 -200.597565
v 183.854980 14.372062 -243.847992
v 184.625351 14.799895 33.401802
v 149.140778 34.172897 197.521957
v 184.004913 17.616606 230.560425
v -183.906158 16.959591 -178.243256
v -171.906921 20.566116 26.960129
v -184.338959 16.497438 228.153397
v -143.867203 34.173309 195.353363
v 174.182281 20.544495 34.374348
v 162.403488 31.654314 32.919693
v -160.075989 34.066738 24.920305
v -182.665710 14.153728 -388.053650
v 6.576742 21.241234 -372.286316
v -144.086823 34.228531 340.530151
v 0.113479 33.438480 357.881592
v 184.168640 12.868412 387.236877
v 144.817078 34.266895 -341.412170
v 0.121071 21.342527 370.246399
v 5.588991 33.445354 -359.935394
v 145.858887 34.172897 30.462017
v -184.338928 13.605782 31.067539
v 144.951782 34.237671 340.564270
v -148.981400 34.348770 27.640268
v 2.730956 34.410595 -341.442719
v -143.010345 34.251030 -341.572357
v 7.922896 16.670515 -388.675476
v 1.439783 16.750435 388.675476
v 0.443051 34.433479 348.156433
v 183.981262 9.122738 -387.901611
v 162.064270 33.999542 55.761642
v 161.561966 33.861889 -20.391613
v 183.854980 -10.989887 -233.187393
v 183.981262 -10.989887 -387.901611
v -1.762058 -10.989887 -235.191132
v 7.922896 -10.989887 -388.675476
v 1.439783 -10.989887 42.295647
v 184.625351 -10.989887 41.261467
v 184.004913 -10.989887 230.560425
v 1.439783 -10.989887 233.212463
v -184.338959 -10.989887 228.153397
v -184.338928 -10.989887 38.956341
v -183.906158 -10.989887 -178.243256
v -184.625351 -10.989887 387.154053
v 1.439783 -10.989887 388.675476
v -182.665695 -10.989887 -388.053650
v 184.168640 -10.989887 387.236877
v 0.237397 11.496439 341.987640
v 129.918640 11.300625 340.564270
v 129.791718 11.235851 197.521957
v 2.290549 11.473552 -341.442719
v 129.688309 11.235849 -200.597565
v 129.797775 11.329855 -341.412170
v 130.732681 11.235851 30.462017
v -129.308563 11.236973 -212.456711
v -128.496796 11.313982 -341.572357
v -133.855179 11.411733 27.640268
v -129.265717 11.236268 195.353363
v -129.462814 11.291487 340.530151
v -113.657974 17.247797 387.734375
v -184.605179 17.479980 375.950684
v -184.625351 10.624571 387.154053
v 173.478485 17.486679 387.321045
v 184.158966 17.537399 377.984863
v 172.449554 17.442982 -387.952332
v 183.944336 17.218243 -345.752502
v -182.806992 17.454708 -364.150970
v -172.334930 17.472408 -388.087311
vt 0.196382 0.929296
vt 0.203913 0.928770
vt 0.196631 0.900966
vt 0.204840 0.900703
vt 0.190035 0.933219
vt 0.191140 0.892913
vt 0.205965 0.847134
vt 0.195475 0.847019
vt 0.176601 0.933219
vt 0.176601 0.892913
vt 0.191715 0.845918
vt 0.196631 0.792090
vt 0.204840 0.792507
vt 0.176601 0.845918
vt 0.190585 0.787004
vt 0.203913 0.761107
vt 0.196465 0.760569
vt 0.176601 0.787004
vt 0.176601 0.756459
vt 0.172156 0.760884
vt 0.164660 0.760377
vt 0.173084 0.791790
vt 0.164865 0.791462
vt 0.173955 0.829827
vt 0.171192 0.844747
vt 0.158867 0.784170
vt 0.155597 0.756458
vt 0.112906 0.762001
vt 0.163681 0.844622
vt 0.159382 0.844286
vt 0.144808 0.786220
vt 0.144808 0.756459
vt 0.174127 0.851663
vt 0.164865 0.898222
vt 0.160157 0.903303
vt 0.144808 0.844286
vt 0.173084 0.897805
vt 0.164783 0.929115
vt 0.157603 0.933442
vt 0.144808 0.903303
vt 0.172156 0.928775
vt 0.144808 0.933442
vt 0.141468 0.762332
vt 0.141440 0.795549
vt 0.149929 0.755905
vt 0.144779 0.762332
vt 0.112951 0.760569
vt 0.112879 0.755665
vt 0.075446 0.927446
vt 0.081356 0.920737
vt 0.113455 0.920707
vt 0.114158 0.927712
vt 0.075502 0.794438
vt 0.081167 0.796053
vt 0.080041 0.834999
vt 0.075465 0.835469
vt 0.150004 0.793856
vt 0.145702 0.795549
vt 0.150587 0.846330
vt 0.144979 0.834344
vt 0.150784 0.833552
vt 0.075502 0.892999
vt 0.081522 0.890754
vt 0.150704 0.828077
vt 0.144749 0.920700
vt 0.149929 0.927446
vt 0.144722 0.888000
vt 0.077237 0.756604
vt 0.077212 0.785620
vt 0.040608 0.785245
vt 0.042518 0.756459
vt 0.077364 0.842232
vt 0.041239 0.842288
vt 0.004688 0.795925
vt 0.004933 0.756576
vt 0.077242 0.899772
vt 0.041239 0.900269
vt 0.003610 0.841805
vt 0.077274 0.929156
vt 0.041239 0.929426
vt 0.004603 0.899321
vt 0.004547 0.929141
vt 0.206866 0.760561
vt 0.214325 0.759874
vt 0.205589 0.792585
vt 0.214520 0.792456
vt 0.223442 0.756459
vt 0.220031 0.792137
vt 0.214341 0.828182
vt 0.206867 0.827281
vt 0.234269 0.756459
vt 0.234269 0.792137
vt 0.220794 0.830760
vt 0.234269 0.830760
vt 0.234357 0.902303
vt 0.233084 0.935937
vt 0.225613 0.936712
vt 0.225527 0.902287
vt 0.219972 0.902028
vt 0.225664 0.868435
vt 0.233083 0.868996
vt 0.205589 0.939863
vt 0.205589 0.902028
vt 0.218442 0.864872
vt 0.205589 0.864872
vt 0.149998 0.889568
vt 0.075446 0.755905
vt 0.081119 0.762340
vt 0.113358 0.920707
vt 0.141417 0.888000
vt 0.141441 0.920700
vt 0.084373 0.890754
vt 0.084552 0.920737
vt 0.083372 0.834999
vt 0.141647 0.834344
vt 0.084383 0.796053
vt 0.084340 0.762340
vt 0.219121 0.828705
vt 0.191735 0.928627
vt 0.159648 0.764561
vt 0.219099 0.758796
vt 0.220784 0.867006
vt 0.160062 0.931662
vt 0.161379 0.933624
vt 0.220541 0.925466
vt 0.191766 0.758611
vt 0.217275 0.939863
vt 0.188210 0.756459
vn -0.694033 0.719943 0.000682
vn -0.694033 0.719943 0.000682
vn -0.694033 0.719943 0.000682
vn -0.694033 0.719943 0.000682
vn 0.001505 0.999999 -0.000454
vn 0.001505 0.999999 -0.000454
vn 0.001505 0.999999 -0.000454
vn 0.006908 0.994587 0.103678
vn 0.006908 0.994587 0.103678
vn 0.006908 0.994587 0.103678
vn 0.006908 0.994587 0.103678
vn -0.006108 0.732636 0.680593
vn -0.006108 0.732636 0.680593
vn -0.006108 0.732636 0.680593
vn -0.006108 0.732636 0.680593
vn 0.006656 0.730789 -0.682571
vn 0.006656 0.730789 -0.682571
vn 0.006656 0.730789 -0.682571
vn 0.006656 0.730789 -0.682571
vn -0.004017 0.997081 -0.076251
vn -0.004017 0.997081 -0.076251
vn -0.004017 0.997081 -0.076251
vn -0.004017 0.997081 -0.076251
vn 0.370929 0.928649 -0.004712
vn 0.370929 0.928649 -0.004712
vn 0.370929 0.928649 -0.004712
vn 0.370929 0.928649 -0.004712
vn -0.047717 0.998853 0.003913
vn -0.047717 0.998853 0.003913
vn -0.047717 0.998853 0.003913
vn -0.047717 0.998853 0.003913
vn 0.115190 0.993336 0.003955
vn 0.115190 0.993336 0.003955
vn 0.115190 0.993336 0.003955
vn 0.115190 0.993336 0.003955
vn 0.709672 0.704529 0.002048
vn 0.709672 0.704529 0.002048
vn 0.709672 0.704529 0.002048
vn 0.709672 0.704529 0.002048
vn -0.730108 0.683332 -0.000595
vn -0.730108 0.683332 -0.000595
vn -0.730108 0.683332 -0.000595
vn -0.730108 0.683332 -0.000595
vn -0.409424 0.912310 0.007907
vn -0.409424 0.912310 0.007907
vn -0.409424 0.912310 0.007907
vn -0.409424 0.912310 0.007907
vn 0.144769 0.988710 0.038656
vn 0.144769 0.988710 0.038656
vn 0.144769 0.988710 0.038656
vn 0.000000 -1.000000 -0.000000
vn 0.000000 -1.000000 -0.000000
vn 0.000000 -1.000000 -0.000000
vn 0.000000 -1.000000 -0.000000
vn -0.079933 0.996798 -0.002136
vn -0.079933 0.996798 -0.002136
vn -0.079933 0.996798 -0.002136
vn -0.079933 0.996798 -0.002136
vn 0.000000 -1.000000 0.000000
vn 0.000000 -1.000000 0.000000
vn 0.000000 -1.000000 0.000000
vn 0.000000 -1.000000 0.000000
vn 0.221763 0.971644 0.082027
vn 0.221763 0.971644 0.082027
vn 0.221763 0.971644 0.082027
vn 0.164028 0.981542 -0.098341
vn 0.164028 0.981542 -0.098341
vn 0.164028 0.981542 -0.098341
vn 0.000000 -1.000000 -0.000000
vn 0.000000 -1.000000 -0.000000
vn 0.000000 -1.000000 -0.000000
vn 0.000000 -1.000000 -0.000000
vn 0.000000 -1.000000 0.000000
vn 0.000000 -1.000000 0.000000
vn 0.000000 -1.000000 0.000000
vn 0.000000 -1.000000 0.000000
vn -0.437982 0.898940 -0.008884
vn -0.437982 0.898940 -0.008884
vn -0.437982 0.898940 -0.008884
vn -0.437982 0.898940 -0.008884
vn -0.729994 0.683453 0.000838
vn -0.729994 0.683453 0.000838
vn -0.729994 0.683453 0.000838
vn -0.729994 0.683453 0.000838
vn 0.000000 -1.000000 0.000000
vn 0.000000 -1.000000 0.000000
vn 0.000000 -1.000000 0.000000
vn 0.000000 -1.000000 0.000000
vn -0.044267 0.999016 -0.002872
vn -0.044267 0.999016 -0.002872
vn -0.044267 0.999016 -0.002872
vn -0.044267 0.999016 -0.002872
vn 0.464446 0.885595 -0.003500
vn 0.464446 0.885595 -0.003500
vn 0.464446 0.885595 -0.003500
vn 0.464446 0.885595 -0.003500
vn 0.004225 0.997101 -0.075977
vn 0.004225 0.997101 -0.075977
vn 0.004225 0.997101 -0.075977
vn 0.004225 0.997101 -0.075977
vn 0.709779 0.704422 -0.001932
vn 0.709779 0.704422 -0.001932
vn 0.709779 0.704422 -0.001932
vn 0.709779 0.704422 -0.001932
vn 0.098880 0.995097 -0.002214
vn 0.098880 0.995097 -0.002214
vn 0.098880 0.995097 -0.002214
vn 0.098880 0.995097 -0.002214
vn 0.000000 -1.000000 0.000000
vn 0.000000 -1.000000 0.000000
vn 0.000000 -1.000000 0.000000
vn 0.000000 -1.000000 0.000000
vn -0.107100 0.994238 0.004426
vn -0.107100 0.994238 0.004426
vn -0.107100 0.994238 0.004426
vn -0.062642 0.998036 -0.000474
vn -0.062642 0.998036 -0.000474
vn -0.062642 0.998036 -0.000474
vn -0.006109 0.730565 -0.682816
vn -0.006109 0.730565 -0.682816
vn -0.006109 0.730565 -0.682816
vn -0.006109 0.730565 -0.682816
vn 0.000000 -1.000000 -0.000000
vn 0.000000 -1.000000 -0.000000
vn 0.000000 -1.000000 -0.000000
vn 0.000000 -1.000000 -0.000000
vn 0.006211 0.732389 0.680858
vn 0.006211 0.732389 0.680858
vn 0.006211 0.732389 0.680858
vn 0.006211 0.732389 0.680858
vn -0.006878 0.994715 0.102448
vn -0.006878 0.994715 0.102448
vn -0.006878 0.994715 0.102448
vn -0.006878 0.994715 0.102448
vn -0.694123 0.719856 -0.000782
vn -0.694123 0.719856 -0.000782
vn -0.694123 0.719856 -0.000782
vn -0.694123 0.719856 -0.000782
vn 0.042446 0.999095 0.002648
vn 0.042446 0.999095 0.002648
vn 0.042446 0.999095 0.002648
vn 0.042446 0.999095 0.002648
vn 0.783511 0.621295 0.010116
vn 0.783511 0.621295 0.010116
vn 0.783511 0.621295 0.010116
vn 0.783511 0.621295 0.010116
vn 0.773064 0.634290 -0.007019
vn 0.773064 0.634290 -0.007019
vn 0.773064 0.634290 -0.007019
vn 0.773064 0.634290 -0.007019
vn 0.040328 0.999184 -0.002050
vn 0.040328 0.999184 -0.002050
vn 0.040328 0.999184 -0.002050
vn 0.040328 0.999184 -0.002050
vn 0.000000 -1.000000 0.000000
vn 0.000000 -1.000000 0.000000
vn 0.000000 -1.000000 0.000000
vn 0.000000 -1.000000 0.000000
vn 0.685282 0.728171 0.012436
vn 0.685282 0.728171 0.012436
vn 0.685282 0.728171 0.012436
vn 0.686705 0.726882 -0.008945
vn 0.686705 0.726882 -0.008945
vn 0.686705 0.726882 -0.008945
vn 0.004388 0.000000 -0.999990
vn 0.004388 0.000000 -0.999990
vn 0.004388 0.000000 -0.999990
vn 0.999995 0.000463 0.003207
vn 0.999995 0.000463 0.003207
vn 0.999995 0.000463 0.003207
vn 0.999995 0.000463 0.003207
vn -1.000000 -0.000001 -0.000000
vn -1.000000 -0.000001 -0.000000
vn -1.000000 -0.000001 -0.000000
vn -1.000000 -0.000001 -0.000000
vn -0.999998 -0.000305 -0.002032
vn -0.999998 -0.000305 -0.002032
vn -0.999998 -0.000305 -0.002032
vn -0.999998 -0.000305 -0.002032
vn -0.083591 0.850061 0.520009
vn -0.083591 0.850061 0.520009
vn -0.083591 0.850061 0.520009
vn -0.008178 0.000000 0.999967
vn -0.008178 0.000000 0.999967
vn -0.008178 0.000000 0.999967
vn -0.999983 0.000000 -0.005911
vn -0.999983 0.000000 -0.005911
vn -0.999983 0.000000 -0.005911
vn 1.000000 0.000000 -0.001045
vn 1.000000 0.000000 -0.001045
vn 1.000000 0.000000 -0.001045
vn 0.999996 -0.001011 -0.002792
vn 0.999996 -0.001011 -0.002792
vn 0.999996 -0.001011 -0.002792
vn 0.999996 -0.001011 -0.002792
vn 0.001127 0.999999 0.000668
vn 0.001127 0.999999 0.000668
vn 0.001127 0.999999 0.000668
vn -0.000449 0.999999 0.001376
vn -0.000449 0.999999 0.001376
vn -0.000449 0.999999 0.001376
vn -0.000449 0.999999 0.001376
vn 0.000348 1.000000 -0.000368
vn 0.000348 1.000000 -0.000368
vn 0.000348 1.000000 -0.000368
vn 0.000348 1.000000 -0.000368
vn 0.000332 1.000000 0.000521
vn 0.000332 1.000000 0.000521
vn 0.000332 1.000000 0.000521
vn 0.000332 1.000000 0.000521
vn -0.000514 0.999999 -0.001320
vn -0.000514 0.999999 -0.001320
vn -0.000514 0.999999 -0.001320
vn -0.000514 0.999999 -0.001320
vn -0.032317 0.143740 -0.989088
vn -0.032317 0.143740 -0.989088
vn -0.032317 0.143740 -0.989088
vn -0.032317 0.143740 -0.989088
vn -0.800142 0.599699 -0.011633
vn -0.800142 0.599699 -0.011633
vn -0.800142 0.599699 -0.011633
vn -0.800142 0.599699 -0.011633
vn -0.836706 0.547653 -0.000322
vn -0.836706 0.547653 -0.000322
vn -0.836706 0.547653 -0.000322
vn -0.836706 0.547653 -0.000322
vn -0.000227 0.000076 1.000000
vn -0.000227 0.000076 1.000000
vn -0.000227 0.000076 1.000000
vn -0.000227 0.000076 1.000000
vn -0.799404 0.600768 0.005601
vn -0.799404 0.600768 0.005601
vn -0.799404 0.600768 0.005601
vn -0.799404 0.600768 0.005601
vn -0.835806 0.549011 0.003994
vn -0.835806 0.549011 0.003994
vn -0.835806 0.549011 0.003994
vn -0.835806 0.549011 0.003994
vn -0.000938 -0.000288 1.000000
vn -0.000938 -0.000288 1.000000
vn -0.000938 -0.000288 1.000000
vn -0.000938 -0.000288 1.000000
vn 0.858030 0.513599 0.000491
vn 0.858030 0.513599 0.000491
vn 0.858030 0.513599 0.000491
vn 0.858030 0.513599 0.000491
vn 0.852805 0.521860 0.019642
vn 0.852805 0.521860 0.019642
vn 0.852805 0.521860 0.019642
vn 0.852805 0.521860 0.019642
vn 0.838963 0.543672 -0.023702
vn 0.838963 0.543672 -0.023702
vn 0.838963 0.543672 -0.023702
vn 0.838963 0.543672 -0.023702
vn 0.843387 0.537306 0.001006
vn 0.843387 0.537306 0.001006
vn 0.843387 0.537306 0.001006
vn 0.843387 0.537306 0.001006
vn 0.032551 0.143245 -0.989152
vn 0.032551 0.143245 -0.989152
vn 0.032551 0.143245 -0.989152
vn 0.032551 0.143245 -0.989152
vn -0.999998 0.000000 -0.001801
vn -0.999998 0.000000 -0.001801
vn -0.999998 0.000000 -0.001801
vn -0.083586 0.850060 0.520010
vn -0.083586 0.850060 0.520010
vn -0.083586 0.850060 0.520010
vn 0.362775 0.832096 0.419536
vn 0.362775 0.832096 0.419536
vn 0.362775 0.832096 0.419536
vn 0.007879 0.000000 0.999969
vn 0.007879 0.000000 0.999969
vn 0.007879 0.000000 0.999969
vn 0.578636 0.801040 -0.153347
vn 0.578636 0.801040 -0.153347
vn 0.578636 0.801040 -0.153347
vn 0.578633 0.801042 -0.153348
vn 0.578633 0.801042 -0.153348
vn 0.578633 0.801042 -0.153348
vn 1.000000 0.000000 0.000876
vn 1.000000 0.000000 0.000876
vn 1.000000 0.000000 0.000876
vn -0.303559 0.943610 -0.132108
vn -0.303559 0.943610 -0.132108
vn -0.303559 0.943610 -0.132108
vn -0.303558 0.943610 -0.132108
vn -0.303558 0.943610 -0.132108
vn -0.303558 0.943610 -0.132108
vn -0.003267 -0.000000 -0.999995
vn -0.003267 -0.000000 -0.999995
vn -0.003267 -0.000000 -0.999995
vn 0.384208 0.923190 0.010206
vn 0.384208 0.923190 0.010206
vn 0.384208 0.923190 0.010206
vn 0.384208 0.923190 0.010206
vn 1.000000 0.000194 0.000842
vn 1.000000 0.000194 0.000842
vn 1.000000 0.000194 0.000842
vn 1.000000 0.000194 0.000842
vn 0.004396 -0.000001 -0.999990
vn 0.004396 -0.000001 -0.999990
vn 0.004396 -0.000001 -0.999990
vn 0.004396 -0.000001 -0.999990
vn -0.001527 0.968019 -0.250871
vn -0.001527 0.968019 -0.250871
vn -0.001527 0.968019 -0.250871
vn -0.001527 0.968019 -0.250871
vn 0.001603 0.968465 -0.249146
vn 0.001603 0.968465 -0.249146
vn 0.001603 0.968465 -0.249146
vn 0.001603 0.968465 -0.249146
vn -0.003263 0.000001 -0.999995
vn -0.003263 0.000001 -0.999995
vn -0.003263 0.000001 -0.999995
vn -0.003263 0.000001 -0.999995
vn -0.999983 0.000001 -0.005912
vn -0.999983 0.000001 -0.005912
vn -0.999983 0.000001 -0.005912
vn -0.999983 0.000001 -0.005912
vn -0.345951 0.938252 0.000370
vn -0.345951 0.938252 0.000370
vn -0.345951 0.938252 0.000370
vn -0.345951 0.938252 0.000370
vn -0.337810 0.941208 -0.003395
vn -0.337810 0.941208 -0.003395
vn -0.337810 0.941208 -0.003395
vn -0.337810 0.941208 -0.003395
vn -0.999998 0.000000 -0.001801
vn -0.999998 0.000000 -0.001801
vn -0.999998 0.000000 -0.001801
vn -0.999998 0.000000 -0.001801
vn -0.008176 -0.000001 0.999967
vn -0.008176 -0.000001 0.999967
vn -0.008176 -0.000001 0.999967
vn -0.008176 -0.000001 0.999967
vn 0.000566 0.972843 0.231467
vn 0.000566 0.972843 0.231467
vn 0.000566 0.972843 0.231467
vn 0.000566 0.972843 0.231467
vn -0.000851 0.973546 0.228489
vn -0.000851 0.973546 0.228489
vn -0.000851 0.973546 0.228489
vn -0.000851 0.973546 0.228489
vn 0.007872 -0.000000 0.999969
vn 0.007872 -0.000000 0.999969
vn 0.007872 -0.000000 0.999969
vn 0.007872 -0.000000 0.999969
vn 1.000000 0.000000 -0.001045
vn 1.000000 0.000000 -0.001045
vn 1.000000 0.000000 -0.001045
vn 1.000000 0.000000 -0.001045
vn 0.269694 0.962946 0.000134
vn 0.269694 0.962946 0.000134
vn 0.269694 0.962946 0.000134
vn 0.269694 0.962946 0.000134
s off
f 4/16/1 9/13/2 10/12/3 2/17/4
f 65/28/5 66/43/6 67/44/7
f 6/45/8 40/46/9 46/47/10 33/48/11
f 33/95/12 4/96/13 2/97/14 36/98/15
f 37/85/16 5/83/17 7/84/18 31/86/19
f 3/49/20 43/50/21 42/51/22 37/52/23
f 12/34/24 22/35/25 20/30/26 27/29/27
f 9/53/28 26/54/29 41/55/30 29/56/31
f 11/57/32 21/58/33 40/46/34 6/45/35
f 8/38/36 12/34/37 11/37/38 6/41/39
f 29/7/40 15/4/41 13/3/42 24/8/43
f 13/3/44 23/6/45 39/11/46 24/8/47
f 49/59/48 38/60/49 28/61/50
f 51/68/51 50/69/52 52/70/53 53/71/54
f 15/62/55 14/63/56 43/50/57 3/49/58
f 54/73/59 55/72/60 56/76/61 57/77/62
f 8/38/63 80/124/64 81/123/65
f 28/61/66 38/60/67 48/64/68
f 58/81/69 59/78/70 54/73/71 57/77/72
f 54/73/73 59/78/74 60/74/75 52/70/76
f 24/8/77 39/11/78 25/15/79 10/12/80
f 29/7/81 24/8/82 10/12/83 9/13/84
f 61/82/85 58/81/86 57/77/87 62/80/88
f 29/56/89 41/55/90 14/63/91 15/62/92
f 27/29/93 20/30/94 19/26/95 17/23/96
f 37/52/97 42/51/98 35/65/99 5/66/100
f 5/20/101 16/22/102 17/23/103 7/21/104
f 5/66/105 35/65/106 18/67/107 16/106/108
f 52/70/109 60/74/110 63/75/111 53/71/112
f 4/107/113 32/108/114 9/53/115
f 9/53/116 32/108/117 26/54/118
f 37/85/119 31/86/120 1/89/121 3/90/122
f 57/77/123 56/76/124 64/79/125 62/80/126
f 33/95/127 36/98/128 8/100/129 6/101/130
f 33/48/131 46/47/132 32/108/133 4/107/134
f 1/1/135 13/3/136 15/4/137 3/2/138
f 48/64/139 38/60/140 21/58/141 11/57/142
f 12/34/143 28/25/144 48/33/145 11/37/146
f 49/24/147 28/25/148 17/23/149 16/22/150
f 16/106/151 18/67/152 38/60/153 49/59/154
f 52/70/155 50/69/156 55/72/157 54/73/158
f 27/29/159 28/25/160 12/34/161
f 17/23/162 28/25/163 27/29/164
f 51/91/165 82/121/166 47/87/167
f 20/30/168 22/35/169 56/40/170 55/36/171
f 25/15/172 39/11/173 59/14/174 58/18/175
f 39/11/176 23/6/177 60/10/178 59/14/179
f 2/17/180 78/126/181 79/128/182
f 61/102/183 77/125/184 79/127/185
f 63/9/186 84/119/187 30/5/188
f 64/42/189 81/123/190 34/39/191
f 19/26/192 20/30/193 55/36/194 50/31/195
f 68/109/196 69/110/197 70/111/198
f 72/112/199 69/110/200 68/109/201 73/113/202
f 74/114/203 71/115/204 69/110/205 72/112/206
f 67/44/207 71/115/208 74/114/209 75/116/210
f 65/28/211 67/44/212 75/116/213 76/117/214
f 46/47/215 40/46/216 66/43/217 65/28/218
f 40/46/219 21/58/220 67/44/221 66/43/222
f 18/67/223 35/65/224 70/111/225 69/110/226
f 35/65/227 42/51/228 68/109/229 70/111/230
f 21/58/231 38/60/232 71/115/233 67/44/234
f 38/60/235 18/67/236 69/110/237 71/115/238
f 42/51/239 43/50/240 73/113/241 68/109/242
f 43/50/243 14/63/244 72/112/245 73/113/246
f 14/63/247 41/55/248 74/114/249 72/112/250
f 41/55/251 26/54/252 75/116/253 74/114/254
f 26/54/255 32/108/256 76/117/257 75/116/258
f 32/108/259 46/47/260 65/28/261 76/117/262
f 79/128/263 78/126/264 61/19/265
f 79/127/266 77/125/267 2/97/268
f 81/123/269 80/124/270 34/39/271
f 34/104/272 80/122/273 64/105/274
f 82/121/275 7/84/276 47/87/277
f 7/21/278 83/120/279 47/27/280
f 47/27/281 83/120/282 51/32/283
f 84/119/284 1/1/285 30/5/286
f 1/89/287 85/118/288 30/93/289
f 30/93/290 85/118/291 63/94/292
f 17/23/293 19/26/294 83/120/295 7/21/296
f 51/32/297 83/120/298 19/26/299 50/31/300
f 44/88/301 82/121/302 51/91/303 53/92/304
f 7/84/305 82/121/306 44/88/307 31/86/308
f 31/86/309 44/88/310 85/118/311 1/89/312
f 63/94/313 85/118/314 44/88/315 53/92/316
f 23/6/317 84/119/318 63/9/319 60/10/320
f 1/1/321 84/119/322 23/6/323 13/3/324
f 78/126/325 2/17/326 10/12/327 25/15/328
f 61/19/329 78/126/330 25/15/331 58/18/332
f 45/99/333 77/125/334 61/102/335 62/103/336
f 2/97/337 77/125/338 45/99/339 36/98/340
f 36/98/341 45/99/342 80/122/343 8/100/344
f 64/105/345 80/122/346 45/99/347 62/103/348
f 22/35/349 81/123/350 64/42/351 56/40/352
f 8/38/353 81/123/354 22/35/355 12/34/356
