# This file uses centimeters as units for non-parametric coordinates.

v -0.901119 97.605835 -0.719356
v -3.541016 -94.345062 -3.038743
v 1.388672 -97.605835 -3.039063
v -3.541016 -94.345070 0.551101
v 1.388672 -97.605843 0.550781
v -2.403777 84.763222 -3.309504
v 1.698699 85.238281 -3.309504
v 1.698699 85.238281 0.821356
v -2.403777 84.763222 0.821356
v -0.712195 -15.687280 3.310325
v 3.540436 -15.687280 3.310325
v 3.540436 -15.687270 -0.943581
v -0.712195 -15.687270 -0.943581
vt 0.373050 0.379579
vt 0.373049 0.379579
vt 0.373043 0.379561
vt 0.373044 0.379561
vt 0.373042 0.379549
vt 0.373041 0.379550
vt 0.373041 0.379550
vt 0.373042 0.379550
vt 0.373044 0.379562
vt 0.373043 0.379562
vt 0.373049 0.379580
vt 0.373050 0.379580
vt 0.373050 0.379582
vn 0.000151 -0.012686 -0.999920
vn -0.000126 -0.010165 -0.999948
vn 0.004986 -0.000395 -0.999987
vn 0.005019 -0.000185 -0.999987
vn -0.551688 -0.834051 -0.000001
vn -0.551688 -0.834051 -0.000001
vn -0.551688 -0.834051 -0.000001
vn -0.551688 -0.834051 -0.000001
vn -0.006428 -0.003036 0.999975
vn -0.006383 -0.002786 0.999976
vn -0.002143 0.030336 0.999537
vn -0.002002 0.029260 0.999570
vn 0.999609 0.027969 0.000000
vn 0.999602 0.028219 0.000000
vn 1.000000 -0.000900 -0.000000
vn 1.000000 -0.000979 -0.000000
vn -0.999985 0.005510 0.000000
vn -0.999985 0.005400 0.000000
vn -0.999954 -0.009583 -0.000000
vn -0.999952 -0.009754 -0.000000
vn -0.023189 0.200256 -0.979469
vn -0.000126 -0.010165 -0.999948
vn 0.000151 -0.012686 -0.999920
vn 0.978612 0.205717 0.000000
vn 0.999602 0.028219 0.000000
vn 0.999609 0.027969 0.000000
vn -0.002002 0.029260 0.999570
vn -0.002143 0.030336 0.999537
vn -0.013979 0.120715 0.992589
vn -0.999952 -0.009754 -0.000000
vn -0.999954 -0.009583 -0.000000
vn -0.993224 0.116213 0.000000
vn -0.012030 -0.033973 0.999350
vn -0.012030 -0.033973 0.999350
vn -0.006383 -0.002786 0.999976
vn -0.006428 -0.003036 0.999975
vn 1.000000 -0.000979 -0.000000
vn 1.000000 -0.000900 -0.000000
vn 0.999655 -0.026258 -0.000000
vn 0.999655 -0.026258 -0.000000
vn 0.005019 -0.000185 -0.999987
vn 0.004986 -0.000395 -0.999987
vn 0.009129 0.025805 -0.999625
vn 0.009129 0.025805 -0.999625
vn -0.999354 0.035940 0.000000
vn -0.999985 0.005400 0.000000
vn -0.999985 0.005510 0.000000
vn -0.999354 0.035940 0.000000
s off
f 6/1/1 7/2/2 12/3/3 13/4/4
f 2/5/5 3/6/6 5/7/7 4/8/8
f 10/9/9 11/10/10 8/11/11 9/12/12
f 7/2/13 8/11/14 11/10/15 12/3/16
f 13/4/17 10/9/18 9/12/19 6/1/20
f 1/13/21 7/2/22 6/1/23
f 1/13/24 8/11/25 7/2/26
f 9/12/27 8/11/28 1/13/29
f 6/1/30 9/12/31 1/13/32
f 4/8/33 5/7/34 11/10/35 10/9/36
f 12/3/37 11/10/38 5/7/39 3/6/40
f 13/4/41 12/3/42 3/6/43 2/5/44
f 4/8/45 10/9/46 13/4/47 2/5/48
