# This file uses centimeters as units for non-parametric coordinates.

v 37.109802 74.396362 13.870117
v -0.597595 58.777527 13.870117
v -38.304871 74.396484 13.870117
v -53.923706 112.103943 13.870117
v -38.304871 149.811157 13.870117
v -0.597595 165.429993 13.870117
v 37.109802 149.811157 13.870117
v 52.728760 112.103943 13.870117
v 37.109802 74.396362 -13.870117
v -0.597595 58.777527 -13.870117
v -38.304871 74.396484 -13.870117
v -53.923706 112.103943 -13.870117
v -38.304871 149.811157 -13.870117
v -0.597595 165.429993 -13.870117
v 37.109802 149.811157 -13.870117
v 52.728760 112.103943 -13.870117
v 24.247437 87.258728 13.870117
v -0.597595 76.967712 13.870117
v -25.442383 87.258850 13.870117
v -35.733459 112.103760 13.870117
v -25.442383 136.948792 13.870117
v -0.597595 147.239807 13.870117
v 24.247437 136.948792 13.870117
v 34.538635 112.103943 13.870117
v 24.247437 87.258728 -13.870117
v -0.597595 76.967712 -13.870117
v -25.442383 87.258850 -13.870117
v -35.733459 112.103760 -13.870117
v -25.442383 136.948792 -13.870117
v -0.597595 147.239807 -13.870117
v 24.247437 136.948792 -13.870117
v 34.538635 112.103943 -13.870117
v -18.530640 -165.429993 10.934082
v 17.335144 -162.694275 10.934082
v -16.587280 66.430725 10.934082
v 15.392029 66.430725 10.934082
v -16.587280 66.430725 -10.935547
v 15.392029 66.430725 -10.935547
v -18.530640 -165.429993 -10.935547
v 17.335144 -162.694275 -10.935547
v -15.250916 42.844971 10.934082
v 14.055664 42.844971 10.934082
v 14.055664 42.844971 -10.935547
v -15.250916 42.844971 -10.935547
v 113.872742 41.285339 10.934082
v 113.872742 41.285339 -10.935547
v 110.624939 67.990601 -10.935547
v 110.624939 67.990601 10.934082
v -111.820190 41.285339 -10.935547
v -111.820190 41.285339 10.934082
v -113.872742 67.990601 10.934082
v -113.872742 67.990601 -10.935547
v -14.339783 -105.019470 10.254150
v 13.144470 -105.019409 -0.650635
v 13.144470 -105.019470 -10.255615
v -14.339783 -105.019470 -10.255615
v 81.809753 43.417786 10.402832
v 81.809753 43.417786 -10.404541
v 81.809753 65.857971 -10.404541
v 81.809753 65.857971 3.125732
v -91.218628 43.036804 -10.757813
v -91.218628 43.036804 10.756104
v -91.218628 66.238892 10.756104
v -91.218628 55.769043 -10.757813
v 62.573853 66.430725 10.934082
v 96.651917 67.234131 10.934082
v 81.809753 53.787476 10.402832
v -105.941528 67.390076 -10.935547
v -91.218628 66.238892 -3.184082
v -66.229919 66.430725 -10.935547
v 4.824951 -105.019470 10.254150
v 14.055664 -64.527649 10.934082
v 15.467712 -129.852539 10.934082
vt 0.080233 0.253480
vt 0.080574 0.253608
vt 0.080595 0.253423
vt 0.080257 0.253296
vt 0.080922 0.253523
vt 0.080939 0.253338
vt 0.081075 0.253272
vt 0.081092 0.253087
vt 0.080940 0.252998
vt 0.080958 0.252814
vt 0.080591 0.252865
vt 0.080613 0.252681
vt 0.080238 0.252955
vt 0.080262 0.252772
vt 0.080092 0.253211
vt 0.080117 0.253027
vt 0.080574 0.253608
vt 0.080233 0.253480
vt 0.080922 0.253523
vt 0.081075 0.253272
vt 0.080940 0.252998
vt 0.080591 0.252865
vt 0.080238 0.252955
vt 0.080092 0.253211
vt 0.080257 0.253296
vt 0.080595 0.253423
vt 0.080939 0.253338
vt 0.081092 0.253087
vt 0.080958 0.252814
vt 0.080613 0.252681
vt 0.080262 0.252772
vt 0.080117 0.253027
vt 0.080257 0.253296
vt 0.080595 0.253423
vt 0.080939 0.253338
vt 0.081092 0.253087
vt 0.080958 0.252814
vt 0.080613 0.252681
vt 0.080262 0.252772
vt 0.080117 0.253027
vt 0.079106 0.254282
vt 0.078964 0.254282
vt 0.078966 0.254177
vt 0.079108 0.254177
vt 0.078962 0.254181
vt 0.079100 0.254180
vt 0.078960 0.254283
vt 0.079098 0.254283
vt 0.079098 0.255144
vt 0.078935 0.255143
vt 0.078938 0.255167
vt 0.079105 0.255169
vt 0.078546 0.254289
vt 0.078554 0.254290
vt 0.078554 0.254175
vt 0.078546 0.254171
vt 0.079510 0.254290
vt 0.079530 0.254289
vt 0.079534 0.254169
vt 0.079513 0.254173
vt 0.079094 0.254926
vt 0.078998 0.254925
vt 0.078959 0.254749
vt 0.078955 0.254920
vt 0.078953 0.254907
vt 0.079087 0.254908
vt 0.078672 0.254282
vt 0.078677 0.254283
vt 0.078677 0.254181
vt 0.078673 0.254178
vt 0.078607 0.254174
vt 0.078672 0.254234
vt 0.079420 0.254283
vt 0.079438 0.254282
vt 0.079442 0.254176
vt 0.079479 0.254175
vt 0.079430 0.254178
vt 0.079423 0.254203
vt 0.078948 0.255029
vt 0.078757 0.254177
vt 0.079315 0.254180
vn 0.382682 -0.923880 0.000000
vn 0.382682 -0.923880 0.000000
vn 0.382682 -0.923880 0.000000
vn 0.382682 -0.923880 0.000000
vn -0.382685 -0.923879 0.000000
vn -0.382685 -0.923879 0.000000
vn -0.382685 -0.923879 0.000000
vn -0.382685 -0.923879 0.000000
vn -0.923881 -0.382681 0.000000
vn -0.923881 -0.382681 0.000000
vn -0.923881 -0.382681 0.000000
vn -0.923881 -0.382681 0.000000
vn -0.923880 0.382683 0.000000
vn -0.923880 0.382683 0.000000
vn -0.923880 0.382683 0.000000
vn -0.923880 0.382683 0.000000
vn -0.382683 0.923880 0.000000
vn -0.382683 0.923880 0.000000
vn -0.382683 0.923880 0.000000
vn -0.382683 0.923880 0.000000
vn 0.382682 0.923880 0.000000
vn 0.382682 0.923880 0.000000
vn 0.382682 0.923880 0.000000
vn 0.382682 0.923880 0.000000
vn 0.923878 0.382686 0.000000
vn 0.923878 0.382686 0.000000
vn 0.923878 0.382686 0.000000
vn 0.923878 0.382686 0.000000
vn 0.923880 -0.382683 0.000000
vn 0.923880 -0.382683 0.000000
vn 0.923880 -0.382683 0.000000
vn 0.923880 -0.382683 0.000000
vn 0.000000 0.000000 1.000000
vn 0.000000 0.000000 1.000000
vn 0.000000 0.000000 1.000000
vn 0.000000 0.000000 1.000000
vn 0.000000 0.000000 1.000000
vn 0.000000 0.000000 1.000000
vn 0.000000 0.000000 1.000000
vn 0.000000 0.000000 1.000000
vn 0.000000 0.000000 1.000000
vn 0.000000 0.000000 1.000000
vn 0.000000 0.000000 1.000000
vn 0.000000 0.000000 1.000000
vn 0.000000 0.000000 1.000000
vn 0.000000 0.000000 1.000000
vn 0.000000 0.000000 1.000000
vn 0.000000 0.000000 1.000000
vn 0.000000 0.000000 1.000000
vn 0.000000 0.000000 1.000000
vn 0.000000 0.000000 1.000000
vn 0.000000 0.000000 1.000000
vn 0.000000 0.000000 1.000000
vn 0.000000 0.000000 1.000000
vn 0.000000 0.000000 1.000000
vn 0.000000 0.000000 1.000000
vn 0.000000 0.000000 1.000000
vn 0.000000 0.000000 1.000000
vn 0.000000 0.000000 1.000000
vn 0.000000 0.000000 1.000000
vn 0.000000 0.000000 1.000000
vn 0.000000 0.000000 1.000000
vn 0.000000 0.000000 1.000000
vn 0.000000 0.000000 1.000000
vn 0.000000 0.000000 -1.000000
vn 0.000000 0.000000 -1.000000
vn 0.000000 0.000000 -1.000000
vn 0.000000 0.000000 -1.000000
vn 0.000000 0.000000 -1.000000
vn 0.000000 0.000000 -1.000000
vn 0.000000 0.000000 -1.000000
vn 0.000000 0.000000 -1.000000
vn 0.000000 0.000000 -1.000000
vn 0.000000 0.000000 -1.000000
vn 0.000000 0.000000 -1.000000
vn 0.000000 0.000000 -1.000000
vn -0.000000 0.000000 -1.000000
vn -0.000000 0.000000 -1.000000
vn -0.000000 0.000000 -1.000000
vn -0.000000 0.000000 -1.000000
vn 0.000000 0.000000 -1.000000
vn 0.000000 0.000000 -1.000000
vn 0.000000 0.000000 -1.000000
vn 0.000000 0.000000 -1.000000
vn 0.000000 0.000000 -1.000000
vn 0.000000 0.000000 -1.000000
vn 0.000000 0.000000 -1.000000
vn 0.000000 0.000000 -1.000000
vn 0.000000 0.000000 -1.000000
vn 0.000000 0.000000 -1.000000
vn 0.000000 0.000000 -1.000000
vn 0.000000 0.000000 -1.000000
vn 0.000000 0.000000 -1.000000
vn 0.000000 0.000000 -1.000000
vn 0.000000 0.000000 -1.000000
vn 0.000000 0.000000 -1.000000
vn -0.382679 0.923881 0.000000
vn -0.382679 0.923881 0.000000
vn -0.382679 0.923881 0.000000
vn -0.382679 0.923881 0.000000
vn 0.382686 0.923878 0.000000
vn 0.382686 0.923878 0.000000
vn 0.382686 0.923878 0.000000
vn 0.382686 0.923878 0.000000
vn 0.923880 0.382683 0.000000
vn 0.923880 0.382683 0.000000
vn 0.923880 0.382683 0.000000
vn 0.923880 0.382683 0.000000
vn 0.923881 -0.382681 0.000000
vn 0.923881 -0.382681 0.000000
vn 0.923881 -0.382681 0.000000
vn 0.923881 -0.382681 0.000000
vn 0.382682 -0.923880 0.000000
vn 0.382682 -0.923880 0.000000
vn 0.382682 -0.923880 0.000000
vn 0.382682 -0.923880 0.000000
vn -0.382679 -0.923881 0.000000
vn -0.382679 -0.923881 0.000000
vn -0.382679 -0.923881 0.000000
vn -0.382679 -0.923881 0.000000
vn -0.923878 -0.382687 0.000000
vn -0.923878 -0.382687 0.000000
vn -0.923878 -0.382687 0.000000
vn -0.923878 -0.382687 0.000000
vn -0.923880 0.382683 0.000000
vn -0.923880 0.382683 0.000000
vn -0.923880 0.382683 0.000000
vn -0.923880 0.382683 0.000000
vn 0.000000 0.000000 1.000000
vn 0.000000 0.000000 1.000000
vn 0.000000 0.000000 1.000000
vn 0.000000 0.000000 1.000000
vn 0.000000 1.000000 0.000000
vn 0.000000 1.000000 0.000000
vn 0.000000 1.000000 0.000000
vn 0.000000 1.000000 0.000000
vn 0.000000 0.000000 -1.000000
vn 0.000000 0.000000 -1.000000
vn 0.000000 0.000000 -1.000000
vn 0.000000 0.000000 -1.000000
vn 0.076056 -0.997104 0.000000
vn 0.076056 -0.997104 0.000000
vn 0.076056 -0.997104 0.000000
vn 0.076056 -0.997104 0.000000
vn 0.992686 0.120727 0.000000
vn 0.992686 0.120727 0.000000
vn 0.992686 0.120727 0.000000
vn 0.992686 0.120727 0.000000
vn -0.997059 -0.076633 0.000000
vn -0.997059 -0.076633 0.000000
vn -0.997059 -0.076633 0.000000
vn -0.997059 -0.076633 0.000000
vn -0.008948 -0.004040 0.999952
vn -0.008948 -0.004040 0.999952
vn -0.008948 -0.004040 0.999952
vn -0.008948 -0.004040 0.999952
vn -0.008948 -0.004040 0.999952
vn 0.999851 -0.004862 -0.016586
vn 0.999851 -0.004862 -0.016586
vn 0.999851 -0.004862 -0.016586
vn 0.999851 -0.004862 -0.016586
vn 0.999851 -0.004862 -0.016586
vn 0.000000 -0.004598 -0.999989
vn 0.000000 -0.004598 -0.999990
vn 0.000000 -0.004598 -0.999989
vn 0.000000 -0.004598 -0.999989
vn -0.999981 -0.006162 0.000000
vn -0.999981 -0.006162 0.000000
vn -0.999981 -0.006162 0.000000
vn -0.999981 -0.006162 0.000000
vn -0.066361 -0.997796 0.000000
vn -0.066361 -0.997796 0.000000
vn -0.066361 -0.997796 0.000000
vn -0.066361 -0.997796 0.000000
vn -0.017442 -0.001153 -0.999847
vn -0.017442 -0.001153 -0.999847
vn -0.017442 -0.001153 -0.999847
vn -0.017442 -0.001153 -0.999847
vn -0.071902 0.997387 -0.007068
vn -0.071902 0.997387 -0.007068
vn -0.071902 0.997387 -0.007068
vn -0.071902 0.997387 -0.007068
vn -0.071902 0.997387 -0.007068
vn -0.014562 -0.006905 0.999870
vn -0.014562 -0.006905 0.999870
vn -0.014562 -0.006905 0.999870
vn -0.014562 -0.006905 0.999870
vn -0.014562 -0.006905 0.999870
vn 0.084711 -0.996406 0.000000
vn 0.084711 -0.996406 0.000000
vn 0.084711 -0.996406 0.000000
vn 0.084711 -0.996406 0.000000
vn 0.008229 0.000338 0.999966
vn 0.008229 0.000338 0.999966
vn 0.008229 0.000338 0.999966
vn 0.008229 0.000338 0.999966
vn 0.427143 0.529951 -0.732599
vn 0.427143 0.529951 -0.732599
vn 0.427143 0.529951 -0.732599
vn -0.006787 0.010142 0.999926
vn -0.006787 0.010142 0.999926
vn -0.006787 0.010142 0.999926
vn -0.006787 0.010142 0.999926
vn -0.006787 0.010142 0.999926
vn 0.997472 0.069746 -0.013594
vn 0.997472 0.069746 -0.013594
vn 0.997472 0.069746 -0.013594
vn 0.997472 0.069746 -0.013594
vn 0.997472 0.069746 -0.013594
vn -0.000497 0.011515 -0.999934
vn -0.000497 0.011515 -0.999934
vn -0.000497 0.011515 -0.999934
vn -0.000497 0.011515 -0.999934
vn -0.997602 0.069207 0.000000
vn -0.997602 0.069207 0.000000
vn -0.997602 0.069207 0.000000
vn -0.997602 0.069207 0.000000
vn 0.008454 -0.999964 0.000000
vn 0.008454 -0.999964 0.000000
vn 0.008454 -0.999964 0.000000
vn 0.008454 -0.999964 0.000000
vn 0.007915 -0.000230 -0.999969
vn 0.007915 -0.000230 -0.999969
vn 0.007915 -0.000230 -0.999969
vn 0.007915 -0.000230 -0.999969
vn 0.007455 0.999923 -0.009936
vn 0.007455 0.999923 -0.009936
vn 0.007455 0.999923 -0.009936
vn 0.007455 0.999923 -0.009936
vn 0.007455 0.999923 -0.009936
vn 0.006258 -0.008941 0.999940
vn 0.006258 -0.008941 0.999941
vn 0.006258 -0.008941 0.999940
vn 0.006258 -0.008941 0.999941
vn 0.006258 -0.008941 0.999940
vn -0.002525 -0.999997 0.000000
vn -0.002525 -0.999997 0.000000
vn -0.002525 -0.999997 0.000000
vn -0.002525 -0.999997 0.000000
vn -0.002364 -0.000068 0.999997
vn -0.002364 -0.000068 0.999997
vn -0.002364 -0.000068 0.999997
vn -0.002364 -0.000068 0.999997
vn -0.247850 0.567822 -0.784951
vn -0.247850 0.567822 -0.784951
vn -0.247850 0.567822 -0.784951
vn -0.446081 0.462094 0.766473
vn -0.446081 0.462094 0.766473
vn -0.446081 0.462094 0.766473
vn 0.341222 0.485322 0.805003
vn 0.341222 0.485322 0.805003
vn 0.341222 0.485322 0.805003
vn 0.076982 0.997032 0.000330
vn 0.076982 0.997032 0.000330
vn 0.076982 0.997032 0.000330
vn 0.076982 0.997032 0.000330
vn 0.076982 0.997032 0.000330
vn -0.002247 0.999993 0.003115
vn -0.002247 0.999993 0.003115
vn -0.002247 0.999993 0.003115
vn -0.002247 0.999993 0.003115
vn -0.002247 0.999993 0.003115
vn -0.001973 -0.002770 -0.999994
vn -0.001973 -0.002770 -0.999994
vn -0.001973 -0.002770 -0.999994
vn -0.001973 -0.002770 -0.999994
vn -0.001973 -0.002770 -0.999994
vn 0.007458 -0.001129 -0.999972
vn 0.007458 -0.001129 -0.999972
vn 0.007458 -0.001129 -0.999972
vn 0.007458 -0.001129 -0.999972
vn 0.007458 -0.001129 -0.999972
vn 0.780863 -0.188013 0.595738
vn 0.780863 -0.188013 0.595738
vn 0.780863 -0.188013 0.595738
vn 0.748676 0.336501 0.571185
vn 0.748676 0.336501 0.571185
vn 0.748676 0.336501 0.571185
s off
f 1/1/1 2/2/2 10/3/3 9/4/4
f 2/2/5 3/5/6 11/6/7 10/3/8
f 3/5/9 4/7/10 12/8/11 11/6/12
f 4/7/13 5/9/14 13/10/15 12/8/16
f 5/9/17 6/11/18 14/12/19 13/10/20
f 6/11/21 7/13/22 15/14/23 14/12/24
f 7/13/25 8/15/26 16/16/27 15/14/28
f 8/15/29 1/1/30 9/4/31 16/16/32
f 2/2/33 1/1/34 17/18/35 18/17/36
f 3/5/37 2/2/38 18/17/39 19/19/40
f 4/7/41 3/5/42 19/19/43 20/20/44
f 5/9/45 4/7/46 20/20/47 21/21/48
f 6/11/49 5/9/50 21/21/51 22/22/52
f 7/13/53 6/11/54 22/22/55 23/23/56
f 8/15/57 7/13/58 23/23/59 24/24/60
f 1/1/61 8/15/62 24/24/63 17/18/64
f 9/4/65 10/3/66 26/26/67 25/25/68
f 10/3/69 11/6/70 27/27/71 26/26/72
f 11/6/73 12/8/74 28/28/75 27/27/76
f 12/8/77 13/10/78 29/29/79 28/28/80
f 13/10/81 14/12/82 30/30/83 29/29/84
f 14/12/85 15/14/86 31/31/87 30/30/88
f 15/14/89 16/16/90 32/32/91 31/31/92
f 16/16/93 9/4/94 25/25/95 32/32/96
f 25/25/97 26/26/98 18/34/99 17/33/100
f 26/26/101 27/27/102 19/35/103 18/34/104
f 27/27/105 28/28/106 20/36/107 19/35/108
f 28/28/109 29/29/110 21/37/111 20/36/112
f 29/29/113 30/30/114 22/38/115 21/37/116
f 30/30/117 31/31/118 23/39/119 22/38/120
f 31/31/121 32/32/122 24/40/123 23/39/124
f 32/32/125 25/25/126 17/33/127 24/40/128
f 41/41/129 42/42/130 36/43/131 35/44/132
f 35/44/133 36/43/134 38/45/135 37/46/136
f 37/46/137 38/45/138 43/47/139 44/48/140
f 39/49/141 40/50/142 34/51/143 33/52/144
f 45/53/145 46/54/146 47/55/147 48/56/148
f 49/57/149 50/58/150 51/59/151 52/60/152
f 53/61/153 71/62/154 72/63/155 42/42/156 41/41/157
f 72/63/158 54/64/159 55/65/160 43/47/161 42/42/162
f 44/48/163 43/47/164 55/65/165 56/66/166
f 56/66/167 53/61/168 41/41/169 44/48/170
f 57/67/171 58/68/172 46/54/173 45/53/174
f 58/68/175 59/69/176 47/55/177 46/54/178
f 59/69/179 60/70/180 66/71/181 48/56/182 47/55/183
f 66/71/184 67/72/185 57/67/186 45/53/187 48/56/188
f 61/73/189 62/74/190 50/58/191 49/57/192
f 62/74/193 63/75/194 51/59/195 50/58/196
f 68/76/197 69/77/198 64/78/199
f 33/52/200 34/51/201 73/79/202 71/62/203 53/61/204
f 34/51/205 40/50/206 55/65/207 54/64/208 73/79/209
f 56/66/210 55/65/211 40/50/212 39/49/213
f 39/49/214 33/52/215 53/61/216 56/66/217
f 42/42/218 43/47/219 58/68/220 57/67/221
f 43/47/222 38/45/223 59/69/224 58/68/225
f 38/45/226 36/43/227 65/80/228 60/70/229 59/69/230
f 36/43/231 42/42/232 57/67/233 67/72/234 65/80/235
f 44/48/236 41/41/237 62/74/238 61/73/239
f 41/41/240 35/44/241 63/75/242 62/74/243
f 69/77/244 70/81/245 64/78/246
f 60/70/247 67/72/248 66/71/249
f 65/80/250 67/72/251 60/70/252
f 63/75/253 69/77/254 68/76/255 52/60/256 51/59/257
f 35/44/258 37/46/259 70/81/260 69/77/261 63/75/262
f 37/46/263 44/48/264 61/73/265 64/78/266 70/81/267
f 68/76/268 64/78/269 61/73/270 49/57/271 52/60/272
f 72/63/273 71/62/274 54/64/275
f 71/62/276 73/79/277 54/64/278
