# This file uses centimeters as units for non-parametric coordinates.

v 3.317662 5.747355 -3.450895
v -3.318211 5.747355 -3.450895
v -6.636422 0.000069 -3.450895
v -3.318211 -5.747243 -3.450895
v 3.317662 -5.747243 -3.450895
v 6.636422 0.000069 -3.450895
v 2.544948 4.407990 3.453089
v -2.544948 4.407990 3.453089
v -5.089896 0.000077 3.453089
v -2.544948 -4.407973 3.453089
v 2.544948 -4.407973 3.453089
v 5.089896 0.000077 3.453089
v 0.000000 0.000069 -3.450895
v 1.497362 2.593089 3.453088
v -1.497362 2.593089 3.453088
v -2.994175 0.000069 3.453089
v -1.497362 -2.592969 3.453089
v 1.497362 -2.592969 3.453089
v 2.994175 0.000069 3.453089
v 1.497362 2.593089 6.110070
v -1.497362 2.593089 6.110070
v -2.994175 0.000069 6.110070
v -1.497362 -2.592969 6.110070
v 1.497362 -2.592969 6.110070
v 2.994175 0.000069 6.110070
v 1.497362 0.895604 10.959087
v -1.497362 0.895604 10.959087
v -2.994175 -1.114746 9.321914
v -1.497362 -3.125618 7.685836
v 1.497362 -3.125618 7.685836
v 2.994175 -1.114746 9.321914
v 1.497362 -2.937891 13.607296
v -1.497362 -2.937891 13.607296
v -2.994175 -4.072332 11.498598
v -1.497362 -5.207295 9.389900
v 1.497362 -5.207295 9.389900
v 2.994175 -4.072332 11.498598
v 0.859160 -3.421476 12.711401
v -0.859160 -3.421476 12.711401
v 0.000000 -4.072443 11.498598
v -1.718320 -4.072443 11.498598
v -0.859160 -4.723710 10.289085
v 0.859160 -4.723710 10.289085
v 1.718320 -4.072443 11.498598
vt 0.080011 0.253080
vt 0.080011 0.253080
vt 0.080011 0.253080
vt 0.080011 0.253080
vt 0.080011 0.253080
vt 0.080011 0.253080
vt 0.016697 0.279931
vt 0.016697 0.279931
vt 0.016697 0.279931
vt 0.016697 0.279931
vt 0.016697 0.279931
vt 0.016697 0.279931
vt 0.016697 0.279931
vt 0.016697 0.279931
vt 0.016697 0.279931
vt 0.016697 0.279931
vt 0.016697 0.279931
vt 0.016697 0.279931
vt 0.016697 0.279931
vt 0.016697 0.279931
vt 0.016697 0.279931
vt 0.016697 0.279931
vt 0.016697 0.279931
vt 0.016697 0.279931
vt 0.009766 0.009132
vt 0.009766 0.009132
vt 0.080011 0.253080
vt 0.009766 0.009132
vt 0.080011 0.253080
vt 0.080011 0.253080
vt 0.080011 0.253080
vt 0.080011 0.253080
vt 0.080011 0.253080
vt 0.080011 0.253080
vt 0.080011 0.253080
vt 0.080011 0.253080
vt 0.080011 0.253080
vt 0.080011 0.253080
vt 0.080011 0.253080
vt 0.080011 0.253080
vt 0.080011 0.253080
vt 0.080011 0.253080
vt 0.080011 0.253080
vt 0.080011 0.253080
vt 0.080011 0.253080
vt 0.080011 0.253080
vt 0.080011 0.253080
vt 0.080011 0.253080
vt 0.080011 0.253080
vt 0.080011 0.253080
vt 0.080011 0.253080
vt 0.080011 0.253080
vt 0.080011 0.253080
vt 0.080011 0.253080
vt 0.080011 0.253080
vt 0.080011 0.253080
vt 0.080011 0.253080
vt 0.080011 0.253080
vt 0.009766 0.009132
vt 0.009766 0.009132
vt 0.009766 0.009132
vt 0.009766 0.009132
vn 0.000000 0.981697 0.190448
vn 0.000000 0.981697 0.190448
vn 0.000000 0.981697 0.190448
vn 0.000000 0.981697 0.190448
vn -0.850173 0.490852 0.190444
vn -0.850173 0.490852 0.190444
vn -0.850174 0.490852 0.190444
vn -0.850174 0.490852 0.190444
vn -0.850177 -0.490847 0.190442
vn -0.850177 -0.490847 0.190442
vn -0.850177 -0.490847 0.190442
vn -0.850177 -0.490847 0.190442
vn 0.000000 -0.981700 0.190435
vn 0.000000 -0.981700 0.190435
vn 0.000000 -0.981700 0.190435
vn 0.000000 -0.981700 0.190435
vn 0.850163 -0.490884 0.190409
vn 0.850163 -0.490884 0.190409
vn 0.850163 -0.490884 0.190409
vn 0.850163 -0.490884 0.190409
vn 0.850159 0.490890 0.190412
vn 0.850159 0.490890 0.190412
vn 0.850159 0.490890 0.190412
vn 0.850159 0.490890 0.190412
vn 0.000000 0.000000 -1.000000
vn 0.000000 0.000000 -1.000000
vn 0.000000 0.000000 -1.000000
vn 0.000000 0.000000 -1.000000
vn 0.000000 0.000000 -1.000000
vn 0.000000 0.000000 -1.000000
vn 0.000000 0.000000 -1.000000
vn 0.000000 0.000000 -1.000000
vn 0.000000 0.000000 -1.000000
vn 0.000000 0.000000 -1.000000
vn 0.000000 0.000000 -1.000000
vn 0.000000 0.000000 -1.000000
vn 0.000000 0.000000 -1.000000
vn 0.000000 0.000000 -1.000000
vn 0.000000 0.000000 -1.000000
vn 0.000000 0.000000 -1.000000
vn 0.000000 0.000000 -1.000000
vn 0.000000 0.000000 -1.000000
vn 0.000000 -0.881101 0.472927
vn 0.000000 -0.881101 0.472927
vn 0.000000 -0.880788 0.473510
vn 0.000000 -0.881101 0.472927
vn 0.000000 -0.880788 0.473510
vn 0.000000 -0.880788 0.473510
vn 0.000000 -0.880788 0.473510
vn 0.000000 -0.880474 0.474094
vn 0.000000 -0.880788 0.473510
vn 0.000000 -0.880474 0.474094
vn 0.000000 -0.880474 0.474094
vn 0.000000 -0.880788 0.473510
vn 0.000000 -0.880474 0.474094
vn 0.000000 -0.880788 0.473510
vn 0.000000 -0.880788 0.473510
vn 0.000000 -0.880788 0.473510
vn 0.000000 -0.881101 0.472927
vn 0.000000 -0.880788 0.473510
vn 0.000000 -0.000000 1.000000
vn 0.000000 -0.000000 1.000000
vn 0.000000 -0.000000 1.000000
vn 0.000000 -0.000000 1.000000
vn 0.000000 -0.000000 1.000000
vn 0.000000 -0.000000 1.000000
vn 0.000000 -0.000000 1.000000
vn 0.000000 -0.000000 1.000000
vn -0.000000 0.000000 1.000000
vn -0.000000 0.000000 1.000000
vn -0.000000 0.000000 1.000000
vn -0.000000 0.000000 1.000000
vn 0.000000 0.000000 1.000000
vn 0.000000 0.000000 1.000000
vn 0.000000 0.000000 1.000000
vn 0.000000 0.000000 1.000000
vn 0.000000 0.000000 1.000000
vn 0.000000 0.000000 1.000000
vn 0.000000 0.000000 1.000000
vn 0.000000 0.000000 1.000000
vn -0.000000 -0.000000 1.000000
vn -0.000000 -0.000000 1.000000
vn -0.000000 -0.000000 1.000000
vn -0.000000 -0.000000 1.000000
vn 0.000000 1.000000 0.000000
vn 0.000000 1.000000 0.000000
vn 0.000000 1.000000 0.000000
vn 0.000000 1.000000 0.000000
vn -0.866064 0.499933 0.000000
vn -0.866064 0.499933 0.000000
vn -0.866064 0.499933 0.000000
vn -0.866064 0.499933 0.000000
vn -0.866066 -0.499930 0.000000
vn -0.866066 -0.499930 0.000000
vn -0.866066 -0.499930 0.000000
vn -0.866066 -0.499930 0.000000
vn 0.000000 -1.000000 0.000000
vn 0.000000 -1.000000 0.000000
vn 0.000000 -1.000000 0.000000
vn 0.000000 -1.000000 0.000000
vn 0.866066 -0.499930 0.000000
vn 0.866066 -0.499930 0.000000
vn 0.866066 -0.499930 0.000000
vn 0.866066 -0.499930 0.000000
vn 0.866064 0.499933 0.000000
vn 0.866064 0.499933 0.000000
vn 0.866064 0.499933 0.000000
vn 0.866064 0.499933 0.000000
vn 0.000000 0.943838 0.330408
vn 0.000000 0.943838 0.330408
vn 0.000000 0.943838 0.330408
vn 0.000000 0.943838 0.330408
vn -0.852668 0.493293 0.172102
vn -0.852668 0.493293 0.172102
vn -0.852668 0.493293 0.172102
vn -0.852668 0.493293 0.172102
vn -0.852667 -0.494023 -0.169998
vn -0.852667 -0.494023 -0.169998
vn -0.852667 -0.494023 -0.169998
vn -0.852667 -0.494023 -0.169998
vn 0.000000 -0.947342 -0.320225
vn 0.000000 -0.947342 -0.320225
vn 0.000000 -0.947342 -0.320225
vn 0.000000 -0.947342 -0.320225
vn 0.852667 -0.494023 -0.169998
vn 0.852667 -0.494023 -0.169998
vn 0.852667 -0.494023 -0.169998
vn 0.852667 -0.494023 -0.169998
vn 0.852668 0.493293 0.172102
vn 0.852668 0.493293 0.172102
vn 0.852668 0.493293 0.172102
vn 0.852668 0.493293 0.172102
vn 0.000000 0.568376 0.822769
vn 0.000000 0.568376 0.822769
vn 0.000000 0.568376 0.822769
vn 0.000000 0.568376 0.822769
vn -0.852157 0.303077 0.426583
vn -0.852157 0.303077 0.426583
vn -0.852157 0.303077 0.426583
vn -0.852157 0.303077 0.426583
vn -0.852698 -0.318742 -0.413896
vn -0.852698 -0.318742 -0.413896
vn -0.852698 -0.318742 -0.413896
vn -0.852698 -0.318742 -0.413896
vn 0.000000 -0.633432 -0.773798
vn 0.000000 -0.633432 -0.773798
vn 0.000000 -0.633432 -0.773798
vn 0.000000 -0.633432 -0.773798
vn 0.852698 -0.318742 -0.413896
vn 0.852698 -0.318742 -0.413896
vn 0.852698 -0.318742 -0.413896
vn 0.852698 -0.318742 -0.413896
vn 0.852157 0.303077 0.426583
vn 0.852157 0.303077 0.426583
vn 0.852157 0.303077 0.426583
vn 0.852157 0.303077 0.426583
vn 0.000000 -0.879987 0.474999
vn 0.000000 -0.879987 0.474999
vn 0.000000 -0.879986 0.474999
vn 0.000000 -0.879986 0.474999
vn -0.000734 -0.880596 0.473868
vn -0.000734 -0.880596 0.473868
vn -0.000734 -0.880596 0.473868
vn -0.000734 -0.880596 0.473868
vn -0.000196 -0.880584 0.473889
vn -0.000196 -0.880584 0.473889
vn -0.000196 -0.880584 0.473889
vn -0.000196 -0.880584 0.473889
vn 0.000000 -0.880713 0.473651
vn 0.000000 -0.880713 0.473651
vn 0.000000 -0.880713 0.473651
vn 0.000000 -0.880713 0.473651
vn 0.000196 -0.880584 0.473890
vn 0.000196 -0.880584 0.473890
vn 0.000196 -0.880584 0.473890
vn 0.000196 -0.880584 0.473890
vn 0.000734 -0.880596 0.473868
vn 0.000734 -0.880596 0.473868
vn 0.000734 -0.880596 0.473868
vn 0.000734 -0.880596 0.473868
s off
f 1/7/1 2/8/2 8/9/3 7/10/4
f 2/8/5 3/11/6 9/12/7 8/9/8
f 3/11/9 4/13/10 10/14/11 9/12/12
f 4/13/13 5/15/14 11/16/15 10/14/16
f 5/15/17 6/17/18 12/18/19 11/16/20
f 6/17/21 1/7/22 7/10/23 12/18/24
f 2/2/25 1/1/26 13/27/27
f 3/3/28 2/2/29 13/27/30
f 4/4/31 3/3/32 13/27/33
f 5/5/34 4/4/35 13/27/36
f 6/6/37 5/5/38 13/27/39
f 1/1/40 6/6/41 13/27/42
f 38/28/43 39/59/44 40/60/45
f 39/59/46 41/61/47 40/60/48
f 41/61/49 42/62/50 40/60/51
f 42/62/52 43/26/53 40/60/54
f 43/26/55 44/25/56 40/60/57
f 44/25/58 38/28/59 40/60/60
f 7/10/61 8/9/62 15/19/63 14/20/64
f 8/9/65 9/12/66 16/21/67 15/19/68
f 9/12/69 10/14/70 17/22/71 16/21/72
f 10/14/73 11/16/74 18/23/75 17/22/76
f 11/16/77 12/18/78 19/24/79 18/23/80
f 12/18/81 7/10/82 14/20/83 19/24/84
f 14/29/85 15/30/86 21/36/87 20/35/88
f 15/30/89 16/31/90 22/37/91 21/36/92
f 16/31/93 17/32/94 23/38/95 22/37/96
f 17/32/97 18/33/98 24/39/99 23/38/100
f 18/33/101 19/34/102 25/40/103 24/39/104
f 19/34/105 14/29/106 20/35/107 25/40/108
f 20/35/109 21/36/110 27/42/111 26/41/112
f 21/36/113 22/37/114 28/43/115 27/42/116
f 22/37/117 23/38/118 29/44/119 28/43/120
f 23/38/121 24/39/122 30/45/123 29/44/124
f 24/39/125 25/40/126 31/46/127 30/45/128
f 25/40/129 20/35/130 26/41/131 31/46/132
f 26/41/133 27/42/134 33/48/135 32/47/136
f 27/42/137 28/43/138 34/49/139 33/48/140
f 28/43/141 29/44/142 35/50/143 34/49/144
f 29/44/145 30/45/146 36/51/147 35/50/148
f 30/45/149 31/46/150 37/52/151 36/51/152
f 31/46/153 26/41/154 32/47/155 37/52/156
f 32/47/157 33/48/158 39/54/159 38/53/160
f 33/48/161 34/49/162 41/55/163 39/54/164
f 34/49/165 35/50/166 42/56/167 41/55/168
f 35/50/169 36/51/170 43/57/171 42/56/172
f 36/51/173 37/52/174 44/58/175 43/57/176
f 37/52/177 32/47/178 38/53/179 44/58/180
