# This file uses centimeters as units for non-parametric coordinates.

v -17.960175 -9.769114 31.152802
v 8.769592 -9.769114 29.560017
v -17.960175 6.014841 31.152802
v 8.769592 9.769114 29.560017
v -19.150553 7.280686 -29.992222
v 18.671934 0.207318 -31.581686
v -19.150553 -11.034960 -29.992222
v 17.376373 -7.239940 -30.704041
v -28.816568 9.026340 -2.456974
v 27.600618 2.091161 4.472070
v 26.305050 -9.196986 5.349710
v -28.816568 -12.780611 -2.456973
v 7.065440 13.764970 1.949980
v 12.341742 -13.909715 2.598007
v -34.529366 -3.254899 -2.456973
vt 0.060998 0.122767
vt 0.060574 0.122670
vt 0.060563 0.122434
vt 0.061004 0.122580
vt 0.061292 0.122150
vt 0.060699 0.122046
vt 0.061216 0.121830
vt 0.061203 0.122055
vt 0.060623 0.122378
vt 0.061271 0.122414
vt 0.061371 0.122316
vt 0.060397 0.122319
vt 0.060371 0.122169
vt 0.060647 0.121810
vt 0.060665 0.121913
vn 0.059483 0.000000 0.998229
vn 0.059483 0.000000 0.998229
vn 0.059483 0.000000 0.998229
vn 0.059483 0.000000 0.998229
vn -0.117661 0.987602 -0.103915
vn -0.117661 0.987602 -0.103915
vn -0.117661 0.987602 -0.103915
vn -0.018786 -0.997382 -0.069826
vn -0.018786 -0.997382 -0.069826
vn -0.018786 -0.997382 -0.069826
vn -0.879551 -0.180476 -0.440248
vn -0.879551 -0.180476 -0.440248
vn -0.879551 -0.180476 -0.440248
vn -0.879551 -0.180476 -0.440248
vn -0.139285 0.980195 0.140773
vn -0.139285 0.980195 0.140773
vn -0.139285 0.980195 0.140773
vn -0.139285 0.980195 0.140773
vn 0.282052 -0.941973 0.182029
vn 0.282052 -0.941973 0.182029
vn 0.282052 -0.941973 0.182029
vn -0.816059 -0.489411 0.307450
vn -0.816059 -0.489410 0.307450
vn -0.816059 -0.489410 0.307450
vn 0.482964 0.870345 0.096151
vn 0.482964 0.870345 0.096151
vn 0.482964 0.870345 0.096151
vn 0.160992 0.933106 -0.321552
vn 0.160992 0.933106 -0.321552
vn 0.160992 0.933106 -0.321552
vn 0.803459 -0.016824 0.595123
vn 0.803459 -0.016824 0.595123
vn 0.803459 -0.016824 0.595123
vn 0.803459 -0.016824 0.595123
vn 0.958927 -0.154884 -0.237635
vn 0.958927 -0.154884 -0.237635
vn 0.958927 -0.154884 -0.237635
vn 0.958927 -0.154884 -0.237635
vn -0.032349 -0.032404 -0.998951
vn -0.032349 -0.032404 -0.998951
vn -0.032349 -0.032404 -0.998951
vn -0.032349 -0.032404 -0.998951
vn -0.022623 -0.992526 0.119915
vn -0.022623 -0.992526 0.119915
vn -0.022623 -0.992526 0.119915
vn -0.022623 -0.992526 0.119915
vn 0.340621 -0.930478 -0.134862
vn 0.340621 -0.930478 -0.134862
vn 0.340621 -0.930478 -0.134862
vn 0.098137 -0.978547 -0.181148
vn 0.098138 -0.978547 -0.181148
vn 0.098137 -0.978547 -0.181148
vn -0.900839 0.183370 0.393528
vn -0.900839 0.183370 0.393528
vn -0.900839 0.183370 0.393528
vn -0.900839 0.183370 0.393528
vn -0.857120 0.398702 -0.326161
vn -0.857120 0.398702 -0.326161
vn -0.857120 0.398702 -0.326161
vn 0.502700 0.847822 -0.168793
vn 0.502699 0.847822 -0.168793
vn 0.502699 0.847822 -0.168793
s off
f 1/1/1 2/2/2 4/3/3 3/4/4
f 9/5/5 13/6/6 5/7/7
f 7/8/8 14/9/9 12/10/10
f 7/8/11 12/10/12 15/11/13 5/7/14
f 3/4/15 4/3/16 13/6/17 9/5/18
f 2/2/19 14/9/20 11/12/21
f 1/1/22 15/11/23 12/10/24
f 13/6/25 4/3/26 10/13/27
f 5/7/28 13/6/29 6/14/30
f 2/2/31 11/12/32 10/13/33 4/3/34
f 6/14/35 10/13/36 11/12/37 8/15/38
f 5/7/39 6/14/40 8/15/41 7/8/42
f 12/10/43 14/9/44 2/2/45 1/1/46
f 14/9/47 8/15/48 11/12/49
f 7/8/50 8/15/51 14/9/52
f 9/5/53 15/11/54 1/1/55 3/4/56
f 5/7/57 15/11/58 9/5/59
f 6/14/60 13/6/61 10/13/62
