# This file uses centimeters as units for non-parametric coordinates.

v -8.392090 10.621759 267.555176
v -8.392090 0.000000 267.555176
v 154.961548 10.621759 271.523193
v 154.961548 0.000000 271.523193
v 0.000000 0.000000 4.129761
v 162.556763 0.000000 -2.696167
v 162.556763 10.621759 -2.696167
v 0.000000 10.621759 4.129761
v -1.765137 10.621759 -303.423096
v -1.765137 0.000000 -303.423096
v 152.763672 10.621759 -307.316895
v 152.763672 0.000000 -307.316895
v -171.884888 10.621759 286.677979
v -171.884888 0.000000 286.677979
v -162.556763 0.000000 10.955688
v -162.556763 10.621759 10.955688
v -162.699951 10.621759 -304.286499
v -162.699951 0.000000 -304.286499
v -9.184937 0.000000 188.455322
v 152.161743 0.000000 230.672241
v 152.255371 10.621759 232.038696
v -9.184937 10.621759 189.824951
v -171.884888 0.000000 131.179688
v -171.884888 10.621759 132.549561
v 165.363892 21.523609 101.587524
v 2.663940 21.523609 80.079956
v -157.834229 21.523609 58.572632
v 2.663940 10.901850 78.017944
v 165.363892 10.901850 99.525513
v -157.834229 10.901850 56.510620
v 23.605713 10.621759 -297.297485
v 28.288086 0.000000 -297.297485
v 144.064819 0.000000 -181.761108
v 144.064819 10.621759 -177.801880
vt 0.988717 0.409143
vt 0.988717 0.487314
vt 0.988717 0.409143
vt 0.988717 0.487314
vt 0.992295 0.477037
vt 0.863914 0.487314
vt 0.863914 0.487314
vt 0.863914 0.409143
vt 0.863914 0.487314
vt 0.863914 0.409143
vt 0.988717 0.409143
vt 0.988717 0.487314
vt 0.988717 0.409143
vt 0.988717 0.487314
vt 0.992585 0.477067
vt 0.863914 0.487314
vt 0.863914 0.487314
vt 0.988717 0.487314
vt 0.988717 0.409143
vt 0.863914 0.409143
vt 0.988717 0.487314
vt 0.988717 0.409143
vt 0.863914 0.487314
vt 0.992871 0.476909
vt 0.863914 0.487314
vt 0.863914 0.409143
vt 0.988717 0.409143
vt 0.988717 0.487314
vt 0.988717 0.409143
vt 0.988717 0.487314
vt 0.992625 0.476889
vt 0.863914 0.487314
vt 0.992855 0.476786
vt 0.993070 0.476801
vt 0.992896 0.477099
vt 0.993133 0.476931
vt 0.993295 0.476816
vt 0.992677 0.477016
vt 0.971923 0.487314
vt 0.992339 0.477017
vt 0.972485 0.487314
vt 0.948993 0.409143
vt 0.948993 0.409143
vt 0.993017 0.477013
vt 0.924940 0.487314
vt 0.925502 0.487314
vt 0.909604 0.487314
vt 0.900782 0.409143
vt 0.900782 0.409143
vt 0.891961 0.487314
vt 0.992789 0.476955
vt 0.908758 0.487314
vt 0.992506 0.476942
vt 0.993081 0.476967
vt 0.891115 0.487314
vt 0.988717 0.415442
vt 0.988717 0.417692
vt 0.993046 0.476799
vt 0.992763 0.476828
vt 0.938464 0.487314
vt 0.936840 0.487314
vn 0.005428 0.992728 -0.120259
vn 0.005428 0.992728 -0.120259
vn -0.007099 0.999956 -0.006123
vn -0.008443 0.999945 0.006184
vn -0.024284 0.000000 0.999705
vn -0.024284 0.000000 0.999705
vn -0.024284 0.000000 0.999705
vn -0.024284 0.000000 0.999705
vn 0.000000 -1.000000 0.000000
vn 0.000000 -1.000000 0.000000
vn 0.012683 -0.997838 -0.064492
vn 0.010527 -0.998511 -0.053529
vn 0.997660 0.000001 -0.068377
vn 0.997880 -0.015992 0.063079
vn 0.998283 -0.015204 0.056575
vn 0.997660 0.000001 -0.068377
vn 0.000000 1.000000 0.000000
vn 0.000000 1.000000 0.000000
vn 0.000000 1.000000 0.000000
vn 0.000000 1.000000 0.000000
vn 0.000000 1.000000 0.000000
vn -0.078750 -0.017358 -0.996743
vn -0.078750 -0.017358 -0.996743
vn -0.044860 -0.009888 -0.998944
vn 0.002476 0.000546 -0.999997
vn 0.000000 -1.000000 0.000000
vn 0.000000 -1.000000 0.000000
vn 0.000000 -1.000000 0.000000
vn 0.997602 -0.012682 0.068044
vn 0.997602 -0.012682 0.068044
vn 0.998684 0.009398 -0.050424
vn 0.999920 0.002314 -0.012418
vn 0.007918 0.984675 -0.174221
vn -0.012931 0.999892 -0.007051
vn -0.014890 0.999850 0.008820
vn 0.007918 0.984675 -0.174221
vn 0.116172 0.000000 0.993229
vn 0.116172 0.000000 0.993229
vn 0.116172 0.000000 0.993229
vn 0.116172 0.000000 0.993229
vn 0.000000 -1.000000 0.000000
vn 0.014702 -0.998071 -0.060312
vn 0.010013 -0.999106 -0.041076
vn 0.000000 -1.000000 0.000000
vn -1.000000 0.000000 0.000000
vn -1.000000 0.000000 0.000000
vn -0.998270 0.009376 -0.058040
vn -0.997909 0.010307 -0.063803
vn 0.000000 1.000000 0.000000
vn 0.000000 1.000000 0.000000
vn 0.000000 1.000000 0.000000
vn 0.000000 1.000000 0.000000
vn 0.005365 0.000000 -0.999986
vn 0.005365 0.000000 -0.999986
vn 0.005365 0.000000 -0.999986
vn 0.005365 0.000000 -0.999986
vn 0.000000 -1.000000 0.000000
vn 0.000000 -1.000000 0.000000
vn 0.000000 -1.000000 0.000000
vn 0.000000 -1.000000 0.000000
vn -1.000000 0.000000 0.000454
vn -1.000000 0.000000 0.000454
vn -1.000000 0.000000 0.000454
vn -1.000000 0.000000 0.000454
vn -0.010656 0.998473 0.054203
vn -0.012808 0.997793 0.065153
vn 0.000000 1.000000 0.000000
vn 0.000000 1.000000 0.000000
vn 0.010527 -0.998511 -0.053529
vn 0.012683 -0.997838 -0.064492
vn 0.007147 -0.999955 0.006232
vn 0.008494 -0.999945 -0.006217
vn 0.998283 -0.015204 0.056575
vn 0.997880 -0.015992 0.063079
vn 0.999306 -0.008930 0.036157
vn 0.998569 -0.011842 0.052143
vn -0.010117 0.999087 0.041505
vn -0.014832 0.998037 0.060849
vn 0.000000 1.000000 0.000000
vn 0.000000 1.000000 0.000000
vn 0.010013 -0.999106 -0.041076
vn 0.014702 -0.998071 -0.060312
vn 0.013031 -0.999888 0.007345
vn 0.015011 -0.999847 -0.008957
vn -0.997909 0.010307 -0.063803
vn -0.998270 0.009376 -0.058040
vn -0.995055 0.017782 -0.097717
vn -0.998245 0.012290 -0.057924
vn -0.008443 0.999945 0.006184
vn -0.007099 0.999956 -0.006123
vn -0.012808 0.997793 0.065153
vn -0.010656 0.998473 0.054203
vn -0.014890 0.999850 0.008820
vn -0.012931 0.999892 -0.007051
vn -0.014832 0.998037 0.060849
vn -0.010117 0.999087 0.041505
vn 0.008494 -0.999945 -0.006217
vn 0.007147 -0.999955 0.006232
vn -0.005554 -0.992387 0.123037
vn -0.005554 -0.992387 0.123037
vn 0.998569 -0.011842 0.052143
vn 0.999306 -0.008930 0.036157
vn 0.999619 0.002666 -0.027458
vn 0.999619 0.002666 -0.027458
vn 0.015011 -0.999847 -0.008957
vn 0.013031 -0.999888 0.007345
vn -0.008183 -0.983621 0.180061
vn -0.008183 -0.983621 0.180061
vn -0.998245 0.012290 -0.057924
vn -0.995055 0.017782 -0.097717
vn -0.994613 -0.010015 0.103170
vn -0.994613 -0.010015 0.103170
vn 0.000000 1.000000 0.000000
vn 0.000000 1.000000 0.000000
vn 0.000000 1.000000 0.000000
vn 0.002476 0.000546 -0.999997
vn -0.044860 -0.009888 -0.998944
vn 0.215592 0.047519 -0.975327
vn 0.215592 0.047519 -0.975327
vn 0.000000 -1.000000 0.000000
vn 0.000000 -1.000000 0.000000
vn 0.000000 -1.000000 0.000000
vn 0.000000 -1.000000 0.000000
vn 0.000000 -1.000000 0.000000
vn 0.999920 0.002314 -0.012418
vn 0.998684 0.009398 -0.050424
vn 0.994406 0.019353 -0.103840
vn 0.994406 0.019353 -0.103840
s off
f 7/7/1 8/8/2 26/48/3 25/47/4
f 3/2/5 1/1/6 2/3/7 4/4/8
f 4/5/9 2/15/10 19/38/11 20/40/12
f 4/4/13 20/39/14 21/41/15 3/2/16
f 7/9/17 34/61/18 31/56/19 9/11/20 8/10/21
f 11/12/22 12/14/23 32/57/24 31/56/25
f 12/33/26 33/59/27 32/58/28
f 12/14/29 11/12/30 34/61/31 33/60/32
f 16/17/33 27/50/34 26/49/35 8/20/36
f 13/18/37 14/21/38 2/22/39 1/19/40
f 14/35/41 23/44/42 19/38/43 2/15/44
f 14/21/45 13/18/46 24/46/47 23/45/48
f 16/25/49 8/26/50 9/27/51 17/28/52
f 17/28/53 9/27/54 10/29/55 18/30/56
f 18/37/57 10/34/58 5/24/59 15/36/60
f 18/30/61 15/32/62 16/25/63 17/28/64
f 21/41/65 22/42/66 1/1/67 3/2/68
f 20/40/69 19/38/70 28/51/71 29/53/72
f 21/41/73 20/39/74 29/52/75 25/47/76
f 22/43/77 24/46/78 13/18/79 1/19/80
f 19/38/81 23/44/82 30/54/83 28/51/84
f 23/45/85 24/46/86 27/50/87 30/55/88
f 25/47/89 26/48/90 22/42/91 21/41/92
f 26/49/93 27/50/94 24/46/95 22/43/96
f 29/53/97 28/51/98 5/24/99 6/31/100
f 25/47/101 29/52/102 6/6/103 7/7/104
f 28/51/105 30/54/106 15/36/107 5/24/108
f 30/55/109 27/50/110 16/17/111 15/23/112
f 31/56/113 34/61/114 11/12/115
f 31/56/116 32/57/117 10/13/118 9/11/119
f 32/58/120 33/59/121 6/31/122 5/24/123 10/34/124
f 33/60/125 34/61/126 7/9/127 6/16/128
