# This file uses centimeters as units for non-parametric coordinates.

v -78.613930 -1.179733 107.329666
v 78.613930 -1.179733 107.329666
v -78.613930 1.179756 107.329666
v 78.613930 1.179756 107.329666
v -78.613930 1.179756 -107.329681
v 78.613930 1.179756 -107.329681
v -78.613930 -1.179733 -107.329681
v 78.613930 -1.179733 -107.329681
v 0.000000 -1.179733 107.329666
v 0.000000 -1.179733 -107.329681
v 0.000000 1.179756 -107.329681
v 0.000000 1.179756 107.329666
v -78.613930 1.179756 0.000046
v 0.000000 1.179756 0.000046
v 78.613930 1.179756 0.000046
v 78.613930 -1.179733 0.000046
v 0.000000 -1.179733 0.000046
v -78.613930 -1.179733 0.000046
vt 0.507576 0.492877
vt 0.507603 0.492891
vt 0.507724 0.492713
vt 0.507701 0.492704
vt 0.507612 0.492273
vt 0.501548 0.498362
vt 0.507566 0.492264
vt 0.507759 0.492165
vt 0.507796 0.492170
vt 0.507753 0.492498
vt 0.507606 0.492664
vt 0.507724 0.492490
vt 0.507213 0.492497
vt 0.507350 0.492953
vt 0.507309 0.492929
vt 0.507154 0.492476
vt 0.507414 0.493165
vt 0.507383 0.493144
vt 0.501548 0.400577
vt 0.587834 0.400577
vt 0.587834 0.498362
vt 0.501548 0.498362
vt 0.587834 0.498362
vt 0.587834 0.400577
vt 0.501548 0.400577
vt 0.501548 0.498362
vt 0.501548 0.400577
vt 0.587834 0.400577
vt 0.587834 0.498362
vt 0.501548 0.498362
vt 0.587834 0.498362
vt 0.587834 0.400577
vt 0.501548 0.400577
vn 0.000000 0.000000 1.000000
vn 0.000000 0.000000 1.000000
vn 0.000000 0.000000 1.000000
vn 0.000000 0.000000 1.000000
vn 0.000000 1.000000 0.000000
vn 0.000000 1.000000 0.000000
vn 0.000000 1.000000 0.000000
vn 0.000000 1.000000 0.000000
vn 0.000000 0.000000 -1.000000
vn 0.000000 0.000000 -1.000000
vn 0.000000 0.000000 -1.000000
vn 0.000000 0.000000 -1.000000
vn 0.000000 -1.000000 0.000000
vn 0.000000 -1.000000 0.000000
vn 0.000000 -1.000000 0.000000
vn 0.000000 -1.000000 0.000000
vn 1.000000 0.000000 0.000000
vn 1.000000 0.000000 0.000000
vn 1.000000 0.000000 0.000000
vn 1.000000 0.000000 0.000000
vn -1.000000 0.000000 0.000000
vn -1.000000 0.000000 0.000000
vn -1.000000 0.000000 0.000000
vn -1.000000 0.000000 0.000000
vn 0.000000 -1.000000 0.000000
vn 0.000000 -1.000000 0.000000
vn 0.000000 -1.000000 0.000000
vn 0.000000 -1.000000 0.000000
vn 0.000000 0.000000 -1.000000
vn 0.000000 0.000000 -1.000000
vn 0.000000 0.000000 -1.000000
vn 0.000000 0.000000 -1.000000
vn 0.000000 1.000000 0.000000
vn 0.000000 1.000000 0.000000
vn 0.000000 1.000000 0.000000
vn 0.000000 1.000000 0.000000
vn 0.000000 0.000000 1.000000
vn 0.000000 0.000000 1.000000
vn 0.000000 0.000000 1.000000
vn 0.000000 0.000000 1.000000
vn 0.000000 1.000000 0.000000
vn 0.000000 1.000000 0.000000
vn 0.000000 1.000000 0.000000
vn 0.000000 1.000000 0.000000
vn 0.000000 1.000000 0.000000
vn 0.000000 1.000000 0.000000
vn 0.000000 1.000000 0.000000
vn 0.000000 1.000000 0.000000
vn 1.000000 0.000000 0.000000
vn 1.000000 0.000000 0.000000
vn 1.000000 0.000000 0.000000
vn 1.000000 0.000000 0.000000
vn 0.000000 -1.000000 0.000000
vn 0.000000 -1.000000 0.000000
vn 0.000000 -1.000000 0.000000
vn 0.000000 -1.000000 0.000000
vn 0.000000 -1.000000 0.000000
vn 0.000000 -1.000000 0.000000
vn 0.000000 -1.000000 0.000000
vn 0.000000 -1.000000 0.000000
vn -1.000000 0.000000 0.000000
vn -1.000000 0.000000 0.000000
vn -1.000000 0.000000 0.000000
vn -1.000000 0.000000 0.000000
s off
f 12/1/1 9/2/2 2/3/3 4/4/4
f 11/23/5 14/24/6 15/25/7 6/26/8
f 10/5/9 11/7/10 6/8/11 8/9/12
f 16/10/13 17/11/14 10/5/15 8/9/16
f 15/12/17 16/10/18 8/9/19 6/8/20
f 7/13/21 18/14/22 13/15/23 5/16/24
f 7/13/25 10/5/26 17/11/27 18/14/28
f 5/16/29 11/7/30 10/5/31 7/13/32
f 13/19/33 14/20/34 11/21/35 5/22/36
f 1/17/37 9/2/38 12/1/39 3/18/40
f 3/6/41 12/31/42 14/32/43 13/33/44
f 15/27/45 14/28/46 12/29/47 4/30/48
f 2/3/49 16/10/50 15/12/51 4/4/52
f 9/2/53 17/11/54 16/10/55 2/3/56
f 18/14/57 17/11/58 9/2/59 1/17/60
f 13/15/61 18/14/62 1/17/63 3/18/64
