# This file uses centimeters as units for non-parametric coordinates.

v 21.889277 40.595062 -29.494263
v 21.889277 15.505676 -47.722412
v 21.889277 -15.506073 -47.722412
v 21.889277 -40.595398 -29.494141
v 21.889277 -50.178619 -0.000122
v 21.889277 -40.595398 29.494141
v 21.889277 -15.506073 47.722412
v 21.889277 15.505707 47.722412
v 21.889277 40.595062 29.494141
v 21.889277 50.178192 -0.000122
v -21.889277 40.595062 -29.494263
v -21.889277 15.505676 -47.722412
v -21.889277 -15.506073 -47.722412
v -21.889277 -40.595398 -29.494141
v -21.889277 -50.178619 -0.000122
v -21.889277 -40.595398 29.494141
v -21.889277 -15.506073 47.722412
v -21.889277 15.505707 47.722412
v -21.889277 40.595062 29.494141
v -21.889277 50.178192 -0.000122
v -10.943543 -15.506073 47.722412
v 10.943543 -15.506073 47.722412
v 10.943543 -40.595398 29.494141
v -10.943542 -40.595398 29.494141
v 10.943543 -50.178619 -0.000122
v -10.943542 -50.178589 -0.000122
v 10.943543 -40.595398 -29.494141
v -10.943542 -40.595398 -29.494141
v 10.943543 -15.506073 -47.722412
v -10.943543 -15.506073 -47.722412
v 10.943543 15.505676 -47.722412
v -10.943543 15.505676 -47.722412
v 10.943542 40.595062 -29.494263
v -10.943543 40.595062 -29.494263
v 10.943542 50.178192 -0.000122
v -10.943543 50.178192 -0.000122
v 10.943542 40.595062 29.494141
v -10.943543 40.595062 29.494141
v 10.943543 15.505707 47.722412
v -10.943543 15.505707 47.722412
v 0.000000 -10.206421 31.411499
v 0.000000 10.205994 31.411499
v 0.000000 26.720001 19.413208
v 0.000000 33.027802 -0.000122
v 0.000000 26.720001 -19.413452
v 0.000000 10.205994 -31.411499
v 0.000000 -10.206421 -31.411499
v 0.000000 -26.720428 -19.413452
v 0.000000 -33.028198 -0.000122
v 0.000000 -26.720428 19.413208
v -21.889277 20.939880 -15.213989
v -21.889277 7.998138 -24.616455
v -21.889277 -7.998566 -24.616455
v -21.889277 -20.940277 -15.213867
v -21.889277 -25.883575 -0.000122
v -21.889277 -20.940277 15.213745
v -21.889277 -7.998566 24.616455
v -21.889277 7.998138 24.616455
v -21.889277 20.939880 15.213745
v -21.889277 25.883087 -0.000122
v 21.889277 25.883087 -0.000122
v 21.889277 20.939880 -15.213989
v 21.889277 20.939880 15.213745
v 21.889277 7.998138 24.616455
v 21.889277 -7.998566 24.616455
v 21.889277 -20.940277 15.213745
v 21.889277 -25.883575 -0.000122
v 21.889277 -20.940277 -15.213867
v 21.889277 -7.998566 -24.616455
v 21.889277 7.998138 -24.616455
v -29.121243 15.602448 -11.336060
v -29.121244 5.959442 -18.341919
v -29.121243 -0.000214 0.000000
v -29.121243 -5.959869 -18.341919
v -29.121243 -15.602875 -11.335938
v -29.121243 -19.286163 0.000000
v -29.121243 -15.602875 11.335938
v -29.121243 -5.959869 18.341919
v -29.121244 5.959442 18.341919
v -29.121243 15.602448 11.335938
v -29.121244 19.285706 0.000000
v 29.121243 19.285675 0.000000
v 29.121244 15.602448 -11.336060
v 29.121244 -0.000214 0.000000
v 29.121244 15.602448 11.335938
v 29.121244 5.959442 18.341919
v 29.121244 -5.959900 18.341919
v 29.121243 -15.602875 11.335938
v 29.121244 -19.286163 0.000000
v 29.121243 -15.602875 -11.335938
v 29.121244 -5.959900 -18.341919
v 29.121244 5.959442 -18.341919
vt 0.100930 0.230064
vt 0.100907 0.229998
vt 0.100905 0.229755
vt 0.100928 0.229751
vt 0.100974 0.230157
vt 0.101014 0.230266
vt 0.101142 0.230283
vt 0.101075 0.230174
vt 0.101264 0.230124
vt 0.101172 0.230050
vt 0.101337 0.229853
vt 0.101231 0.229836
vt 0.101339 0.229564
vt 0.101231 0.229607
vt 0.101266 0.229355
vt 0.101173 0.229444
vt 0.101142 0.229310
vt 0.101073 0.229411
vt 0.101011 0.229459
vt 0.100970 0.229528
vt 0.101065 0.229338
vt 0.101142 0.229544
vt 0.101207 0.229551
vt 0.101132 0.229343
vt 0.101142 0.229831
vt 0.101206 0.229838
vt 0.101067 0.230100
vt 0.101132 0.230108
vt 0.100943 0.230257
vt 0.101009 0.230266
vt 0.100810 0.230238
vt 0.100878 0.230247
vt 0.100722 0.230038
vt 0.100791 0.230047
vt 0.100718 0.229728
vt 0.100787 0.229736
vt 0.100801 0.229439
vt 0.100871 0.229446
vt 0.100936 0.229292
vt 0.101004 0.229298
vt 0.101001 0.230072
vt 0.101083 0.230275
vt 0.101210 0.230292
vt 0.101330 0.230132
vt 0.101403 0.229860
vt 0.101405 0.229570
vt 0.101334 0.229361
vt 0.101211 0.229316
vt 0.101081 0.229466
vt 0.100999 0.229759
vt 0.101210 0.229812
vt 0.100939 0.229782
vt 0.101334 0.229361
vt 0.101405 0.229570
vt 0.101403 0.229860
vt 0.101330 0.230132
vt 0.101210 0.230292
vt 0.101083 0.230275
vt 0.101001 0.230072
vt 0.100999 0.229759
vt 0.101081 0.229466
vt 0.101211 0.229316
vt 0.101065 0.229338
vt 0.100936 0.229292
vt 0.100801 0.229439
vt 0.100718 0.229728
vt 0.100722 0.230038
vt 0.100810 0.230238
vt 0.100943 0.230257
vt 0.101067 0.230100
vt 0.101142 0.229831
vt 0.101142 0.229544
vt 0.101334 0.229361
vt 0.101405 0.229570
vt 0.101403 0.229860
vt 0.101330 0.230132
vt 0.101210 0.230292
vt 0.101083 0.230275
vt 0.101001 0.230072
vt 0.100999 0.229759
vt 0.101081 0.229466
vt 0.101211 0.229316
vt 0.101065 0.229338
vt 0.100936 0.229292
vt 0.100801 0.229439
vt 0.100718 0.229728
vt 0.100722 0.230038
vt 0.100810 0.230238
vt 0.100943 0.230257
vt 0.101067 0.230100
vt 0.101142 0.229831
vt 0.101142 0.229544
vn 0.830413 0.000000 0.557149
vn 0.830413 0.000000 0.557149
vn 0.830413 0.000000 0.557149
vn 0.830413 0.000000 0.557149
vn 0.830413 -0.327484 0.450743
vn 0.830413 -0.327484 0.450743
vn 0.830413 -0.327484 0.450743
vn 0.830413 -0.327484 0.450743
vn 0.830413 -0.529880 0.172168
vn 0.830413 -0.529880 0.172168
vn 0.830413 -0.529880 0.172168
vn 0.830413 -0.529880 0.172168
vn 0.830413 -0.529880 -0.172169
vn 0.830413 -0.529880 -0.172169
vn 0.830413 -0.529880 -0.172169
vn 0.830413 -0.529880 -0.172169
vn 0.830411 -0.327484 -0.450745
vn 0.830411 -0.327484 -0.450745
vn 0.830411 -0.327484 -0.450745
vn 0.830411 -0.327484 -0.450745
vn 0.830411 0.000000 -0.557151
vn 0.830411 0.000000 -0.557151
vn 0.830411 0.000000 -0.557151
vn 0.830411 0.000000 -0.557151
vn 0.830413 0.327482 -0.450744
vn 0.830413 0.327482 -0.450744
vn 0.830413 0.327482 -0.450744
vn 0.830413 0.327482 -0.450744
vn 0.830414 0.529879 -0.172168
vn 0.830414 0.529879 -0.172168
vn 0.830414 0.529879 -0.172168
vn 0.830414 0.529879 -0.172168
vn 0.830414 0.529879 0.172168
vn 0.830414 0.529879 0.172168
vn 0.830414 0.529879 0.172168
vn 0.830414 0.529879 0.172168
vn 0.830413 0.327483 0.450742
vn 0.830413 0.327483 0.450742
vn 0.830413 0.327483 0.450742
vn 0.830413 0.327483 0.450742
vn -0.000000 0.587779 -0.809021
vn -0.000000 0.587779 -0.809021
vn -0.000000 0.587779 -0.809021
vn -0.000000 0.587779 -0.809021
vn 0.000000 0.000000 -1.000000
vn 0.000000 0.000000 -1.000000
vn 0.000000 0.000000 -1.000000
vn 0.000000 0.000000 -1.000000
vn 0.000000 -0.587783 -0.809019
vn 0.000000 -0.587783 -0.809019
vn 0.000000 -0.587783 -0.809019
vn 0.000000 -0.587783 -0.809019
vn 0.000000 -0.951056 -0.309018
vn 0.000000 -0.951056 -0.309018
vn 0.000000 -0.951056 -0.309018
vn 0.000000 -0.951056 -0.309018
vn 0.000000 -0.951057 0.309016
vn 0.000000 -0.951057 0.309016
vn 0.000000 -0.951057 0.309016
vn 0.000000 -0.951057 0.309016
vn 0.000000 -0.587784 0.809018
vn 0.000000 -0.587784 0.809018
vn 0.000000 -0.587784 0.809018
vn 0.000000 -0.587784 0.809018
vn 0.000000 0.000000 1.000000
vn 0.000000 0.000000 1.000000
vn 0.000000 0.000000 1.000000
vn 0.000000 0.000000 1.000000
vn -0.000000 0.587784 0.809018
vn -0.000000 0.587784 0.809018
vn -0.000000 0.587784 0.809018
vn -0.000000 0.587784 0.809018
vn -0.000000 0.951057 0.309015
vn -0.000000 0.951057 0.309015
vn -0.000000 0.951057 0.309015
vn -0.000000 0.951057 0.309015
vn -0.000000 0.951057 -0.309015
vn -0.000000 0.951057 -0.309015
vn -0.000000 0.951057 -0.309015
vn -0.000000 0.951057 -0.309015
vn 0.000000 -0.587784 0.809018
vn 0.000000 -0.587784 0.809018
vn 0.000000 -0.587784 0.809018
vn 0.000000 -0.587784 0.809018
vn 0.000000 -0.951057 0.309016
vn 0.000000 -0.951057 0.309016
vn 0.000000 -0.951057 0.309016
vn 0.000000 -0.951057 0.309016
vn 0.000000 -0.951056 -0.309018
vn 0.000000 -0.951056 -0.309018
vn 0.000000 -0.951056 -0.309018
vn 0.000000 -0.951056 -0.309018
vn 0.000000 -0.587783 -0.809019
vn 0.000000 -0.587783 -0.809019
vn 0.000000 -0.587783 -0.809019
vn 0.000000 -0.587783 -0.809019
vn 0.000000 0.000000 -1.000000
vn 0.000000 0.000000 -1.000000
vn 0.000000 0.000000 -1.000000
vn 0.000000 0.000000 -1.000000
vn -0.000000 0.587779 -0.809021
vn -0.000000 0.587779 -0.809021
vn -0.000000 0.587779 -0.809021
vn -0.000000 0.587779 -0.809021
vn -0.000000 0.951057 -0.309015
vn -0.000000 0.951057 -0.309015
vn -0.000000 0.951057 -0.309015
vn -0.000000 0.951057 -0.309015
vn -0.000000 0.951057 0.309015
vn -0.000000 0.951057 0.309015
vn -0.000000 0.951057 0.309015
vn -0.000000 0.951057 0.309015
vn -0.000000 0.587784 0.809018
vn -0.000000 0.587784 0.809018
vn -0.000000 0.587784 0.809018
vn -0.000000 0.587784 0.809018
vn 0.000000 0.000000 1.000000
vn 0.000000 0.000000 1.000000
vn 0.000000 0.000000 1.000000
vn 0.000000 0.000000 1.000000
vn -0.830413 -0.000000 0.557149
vn -0.830413 -0.000000 0.557149
vn -0.830413 -0.000000 0.557149
vn -0.830413 -0.000000 0.557149
vn -0.830413 0.327483 0.450742
vn -0.830413 0.327483 0.450742
vn -0.830413 0.327483 0.450742
vn -0.830413 0.327483 0.450742
vn -0.830414 0.529879 0.172168
vn -0.830414 0.529879 0.172168
vn -0.830414 0.529879 0.172168
vn -0.830414 0.529879 0.172168
vn -0.830414 0.529879 -0.172168
vn -0.830414 0.529879 -0.172168
vn -0.830414 0.529879 -0.172168
vn -0.830414 0.529879 -0.172168
vn -0.830413 0.327482 -0.450744
vn -0.830413 0.327482 -0.450744
vn -0.830413 0.327482 -0.450744
vn -0.830413 0.327482 -0.450744
vn -0.830411 -0.000000 -0.557151
vn -0.830411 -0.000000 -0.557151
vn -0.830411 -0.000000 -0.557151
vn -0.830411 -0.000000 -0.557151
vn -0.830411 -0.327484 -0.450745
vn -0.830411 -0.327484 -0.450745
vn -0.830411 -0.327484 -0.450745
vn -0.830411 -0.327484 -0.450745
vn -0.830413 -0.529880 -0.172169
vn -0.830413 -0.529880 -0.172169
vn -0.830413 -0.529880 -0.172169
vn -0.830413 -0.529880 -0.172169
vn -0.830413 -0.529880 0.172168
vn -0.830413 -0.529880 0.172168
vn -0.830413 -0.529880 0.172168
vn -0.830413 -0.529880 0.172168
vn -0.830413 -0.327484 0.450743
vn -0.830413 -0.327484 0.450743
vn -0.830413 -0.327484 0.450743
vn -0.830413 -0.327484 0.450743
vn -1.000000 -0.000000 0.000000
vn -1.000000 -0.000000 0.000000
vn -1.000000 -0.000000 0.000000
vn -1.000000 -0.000000 0.000000
vn -1.000000 -0.000000 0.000000
vn -1.000000 -0.000000 0.000000
vn -1.000000 -0.000000 0.000000
vn -1.000000 -0.000000 0.000000
vn -1.000000 -0.000000 0.000000
vn -1.000000 -0.000000 0.000000
vn -1.000000 -0.000000 0.000000
vn -1.000000 -0.000000 0.000000
vn -1.000000 -0.000000 0.000000
vn -1.000000 -0.000000 0.000000
vn -1.000000 -0.000000 0.000000
vn -1.000000 -0.000000 0.000000
vn -1.000000 -0.000000 0.000000
vn -1.000000 -0.000000 0.000000
vn -1.000000 -0.000000 -0.000000
vn -1.000000 -0.000000 -0.000000
vn -1.000000 -0.000000 -0.000000
vn -1.000000 -0.000000 0.000000
vn -1.000000 -0.000000 0.000000
vn -1.000000 -0.000000 0.000000
vn -1.000000 -0.000000 0.000000
vn -1.000000 -0.000000 0.000000
vn -1.000000 -0.000000 0.000000
vn -1.000000 -0.000000 0.000000
vn -1.000000 -0.000000 0.000000
vn -1.000000 -0.000000 0.000000
vn 1.000000 0.000000 0.000000
vn 1.000000 0.000000 0.000000
vn 1.000000 0.000000 0.000000
vn 1.000000 0.000000 0.000000
vn 1.000000 0.000000 0.000000
vn 1.000000 0.000000 0.000000
vn 1.000000 0.000000 0.000000
vn 1.000000 0.000000 0.000000
vn 1.000000 0.000000 0.000000
vn 1.000000 0.000000 -0.000000
vn 1.000000 0.000000 -0.000000
vn 1.000000 0.000000 -0.000000
vn 1.000000 0.000000 -0.000000
vn 1.000000 0.000000 -0.000000
vn 1.000000 0.000000 -0.000000
vn 1.000000 0.000000 0.000000
vn 1.000000 0.000000 0.000000
vn 1.000000 0.000000 0.000000
vn 1.000000 0.000000 0.000000
vn 1.000000 0.000000 0.000000
vn 1.000000 0.000000 0.000000
vn 1.000000 0.000000 0.000000
vn 1.000000 0.000000 0.000000
vn 1.000000 0.000000 0.000000
vn 1.000000 0.000000 0.000000
vn 1.000000 0.000000 0.000000
vn 1.000000 0.000000 0.000000
vn 1.000000 0.000000 -0.000000
vn 1.000000 0.000000 -0.000000
vn 1.000000 0.000000 -0.000000
vn -1.000000 -0.000000 0.000000
vn -1.000000 -0.000000 0.000000
vn -1.000000 -0.000000 0.000000
vn -1.000000 -0.000000 0.000000
vn -1.000000 -0.000000 0.000000
vn -1.000000 -0.000000 0.000000
vn -1.000000 -0.000000 0.000000
vn -1.000000 -0.000000 0.000000
vn -1.000000 -0.000000 0.000000
vn -1.000000 -0.000000 0.000000
vn -1.000000 -0.000000 0.000000
vn -1.000000 -0.000000 0.000000
vn -1.000000 -0.000000 0.000000
vn -1.000000 -0.000000 0.000000
vn -1.000000 -0.000000 0.000000
vn -1.000000 -0.000000 0.000000
vn -1.000000 -0.000000 0.000000
vn -1.000000 -0.000000 0.000000
vn -1.000000 -0.000000 0.000000
vn -1.000000 -0.000000 0.000000
vn -1.000000 -0.000000 0.000000
vn -1.000000 -0.000000 0.000000
vn -1.000000 -0.000000 0.000000
vn -1.000000 -0.000000 0.000000
vn -1.000000 -0.000000 0.000000
vn -1.000000 -0.000000 0.000000
vn -1.000000 -0.000000 0.000000
vn -1.000000 -0.000000 0.000000
vn -1.000000 -0.000000 0.000000
vn -1.000000 -0.000000 0.000000
vn -1.000000 -0.000000 0.000000
vn -1.000000 -0.000000 0.000000
vn -1.000000 -0.000000 0.000000
vn -1.000000 -0.000000 0.000000
vn -1.000000 -0.000000 0.000000
vn -1.000000 -0.000000 0.000000
vn -1.000000 -0.000000 0.000000
vn -1.000000 -0.000000 0.000000
vn -1.000000 -0.000000 0.000000
vn -1.000000 -0.000000 0.000000
vn 1.000000 0.000000 0.000000
vn 1.000000 0.000000 0.000000
vn 1.000000 0.000000 0.000000
vn 1.000000 0.000000 0.000000
vn 1.000000 0.000000 0.000000
vn 1.000000 0.000000 0.000000
vn 1.000000 0.000000 0.000000
vn 1.000000 0.000000 0.000000
vn 1.000000 0.000000 0.000000
vn 1.000000 0.000000 0.000000
vn 1.000000 0.000000 0.000000
vn 1.000000 0.000000 0.000000
vn 1.000000 0.000000 0.000000
vn 1.000000 0.000000 0.000000
vn 1.000000 0.000000 0.000000
vn 1.000000 0.000000 0.000000
vn 1.000000 0.000000 0.000000
vn 1.000000 0.000000 0.000000
vn 1.000000 0.000000 0.000000
vn 1.000000 0.000000 0.000000
vn 1.000000 0.000000 0.000000
vn 1.000000 0.000000 0.000000
vn 1.000000 0.000000 0.000000
vn 1.000000 0.000000 0.000000
vn 1.000000 0.000000 0.000000
vn 1.000000 0.000000 0.000000
vn 1.000000 0.000000 0.000000
vn 1.000000 0.000000 0.000000
vn 1.000000 0.000000 0.000000
vn 1.000000 0.000000 0.000000
vn 1.000000 0.000000 0.000000
vn 1.000000 0.000000 0.000000
vn 1.000000 0.000000 0.000000
vn 1.000000 0.000000 0.000000
vn 1.000000 0.000000 0.000000
vn 1.000000 0.000000 0.000000
vn 1.000000 0.000000 0.000000
vn 1.000000 0.000000 0.000000
vn 1.000000 0.000000 0.000000
vn 1.000000 0.000000 0.000000
vn -0.655337 0.443972 -0.611083
vn -0.655337 0.443972 -0.611083
vn -0.655337 0.443972 -0.611083
vn -0.655337 0.443972 -0.611083
vn -0.655336 -0.000000 -0.755337
vn -0.655336 -0.000000 -0.755337
vn -0.655336 -0.000000 -0.755337
vn -0.655336 -0.000000 -0.755337
vn -0.655336 -0.443976 -0.611081
vn -0.655336 -0.443976 -0.611081
vn -0.655336 -0.443976 -0.611081
vn -0.655336 -0.443976 -0.611081
vn -0.655336 -0.718368 -0.233414
vn -0.655336 -0.718368 -0.233414
vn -0.655336 -0.718368 -0.233414
vn -0.655336 -0.718368 -0.233414
vn -0.655336 -0.718369 0.233413
vn -0.655336 -0.718369 0.233413
vn -0.655336 -0.718369 0.233413
vn -0.655336 -0.718369 0.233413
vn -0.655336 -0.443977 0.611081
vn -0.655336 -0.443977 0.611081
vn -0.655336 -0.443977 0.611081
vn -0.655336 -0.443977 0.611081
vn -0.655336 -0.000000 0.755337
vn -0.655336 -0.000000 0.755337
vn -0.655336 -0.000000 0.755337
vn -0.655336 -0.000000 0.755337
vn -0.655336 0.443976 0.611081
vn -0.655336 0.443976 0.611081
vn -0.655336 0.443976 0.611081
vn -0.655336 0.443976 0.611081
vn -0.655336 0.718369 0.233410
vn -0.655336 0.718369 0.233410
vn -0.655336 0.718369 0.233410
vn -0.655336 0.718369 0.233410
vn -0.655337 0.718369 -0.233409
vn -0.655337 0.718369 -0.233409
vn -0.655337 0.718369 -0.233409
vn -0.655337 0.718369 -0.233409
vn 0.655337 0.718369 -0.233409
vn 0.655337 0.718369 -0.233409
vn 0.655337 0.718369 -0.233409
vn 0.655337 0.718369 -0.233409
vn 0.655336 0.718369 0.233409
vn 0.655336 0.718369 0.233409
vn 0.655336 0.718369 0.233409
vn 0.655336 0.718369 0.233409
vn 0.655336 0.443976 0.611081
vn 0.655336 0.443976 0.611081
vn 0.655336 0.443976 0.611081
vn 0.655336 0.443976 0.611081
vn 0.655336 0.000000 0.755337
vn 0.655336 0.000000 0.755337
vn 0.655336 0.000000 0.755337
vn 0.655336 0.000000 0.755337
vn 0.655336 -0.443977 0.611081
vn 0.655336 -0.443977 0.611081
vn 0.655336 -0.443977 0.611081
vn 0.655336 -0.443977 0.611081
vn 0.655336 -0.718369 0.233413
vn 0.655336 -0.718369 0.233413
vn 0.655336 -0.718369 0.233413
vn 0.655336 -0.718369 0.233413
vn 0.655336 -0.718368 -0.233414
vn 0.655336 -0.718368 -0.233414
vn 0.655336 -0.718368 -0.233414
vn 0.655336 -0.718368 -0.233414
vn 0.655336 -0.443976 -0.611081
vn 0.655336 -0.443976 -0.611081
vn 0.655336 -0.443976 -0.611081
vn 0.655336 -0.443976 -0.611081
vn 0.655336 0.000000 -0.755337
vn 0.655336 0.000000 -0.755337
vn 0.655336 0.000000 -0.755337
vn 0.655336 0.000000 -0.755337
vn 0.655337 0.443972 -0.611083
vn 0.655337 0.443972 -0.611083
vn 0.655337 0.443972 -0.611083
vn 0.655337 0.443972 -0.611083
s off
f 21/1/1 41/2/2 42/3/3 40/4/4
f 50/5/5 41/2/6 21/1/7 24/6/8
f 50/5/9 24/6/10 26/7/11 49/8/12
f 49/8/13 26/7/14 28/9/15 48/10/16
f 48/10/17 28/9/18 30/11/19 47/12/20
f 47/12/21 30/11/22 32/13/23 46/14/24
f 46/14/25 32/13/26 34/15/27 45/16/28
f 45/16/29 34/15/30 36/17/31 44/18/32
f 44/18/33 36/17/34 38/19/35 43/20/36
f 43/20/37 38/19/38 40/4/39 42/3/40
f 1/21/41 2/22/42 31/23/43 33/24/44
f 2/22/45 3/25/46 29/26/47 31/23/48
f 3/25/49 4/27/50 27/28/51 29/26/52
f 4/27/53 5/29/54 25/30/55 27/28/56
f 5/29/57 6/31/58 23/32/59 25/30/60
f 6/31/61 7/33/62 22/34/63 23/32/64
f 7/33/65 8/35/66 39/36/67 22/34/68
f 8/35/69 9/37/70 37/38/71 39/36/72
f 9/37/73 10/39/74 35/40/75 37/38/76
f 10/39/77 1/21/78 33/24/79 35/40/80
f 24/6/81 21/1/82 17/41/83 16/42/84
f 26/7/85 24/6/86 16/42/87 15/43/88
f 28/9/89 26/7/90 15/43/91 14/44/92
f 30/11/93 28/9/94 14/44/95 13/45/96
f 32/13/97 30/11/98 13/45/99 12/46/100
f 34/15/101 32/13/102 12/46/103 11/47/104
f 36/17/105 34/15/106 11/47/107 20/48/108
f 38/19/109 36/17/110 20/48/111 19/49/112
f 40/4/113 38/19/114 19/49/115 18/50/116
f 21/1/117 40/4/118 18/50/119 17/41/120
f 41/2/121 22/34/122 39/36/123 42/3/124
f 37/38/125 43/20/126 42/3/127 39/36/128
f 35/40/129 44/18/130 43/20/131 37/38/132
f 33/24/133 45/16/134 44/18/135 35/40/136
f 31/23/137 46/14/138 45/16/139 33/24/140
f 29/26/141 47/12/142 46/14/143 31/23/144
f 27/28/145 48/10/146 47/12/147 29/26/148
f 25/30/149 49/8/150 48/10/151 27/28/152
f 23/32/153 50/5/154 49/8/155 25/30/156
f 22/34/157 41/2/158 50/5/159 23/32/160
f 71/73/161 72/74/162 73/51/163
f 72/74/164 74/75/165 73/51/166
f 74/75/167 75/76/168 73/51/169
f 75/76/170 76/77/171 73/51/172
f 76/77/173 77/78/174 73/51/175
f 77/78/176 78/79/177 73/51/178
f 78/79/179 79/80/180 73/51/181
f 79/80/182 80/81/183 73/51/184
f 80/81/185 81/82/186 73/51/187
f 81/82/188 71/73/189 73/51/190
f 83/83/191 82/84/192 84/52/193
f 82/84/194 85/85/195 84/52/196
f 85/85/197 86/86/198 84/52/199
f 86/86/200 87/87/201 84/52/202
f 87/87/203 88/88/204 84/52/205
f 88/88/206 89/89/207 84/52/208
f 89/89/209 90/90/210 84/52/211
f 90/90/212 91/91/213 84/52/214
f 91/91/215 92/92/216 84/52/217
f 92/92/218 83/83/219 84/52/220
f 11/47/221 12/46/222 52/54/223 51/53/224
f 12/46/225 13/45/226 53/55/227 52/54/228
f 13/45/229 14/44/230 54/56/231 53/55/232
f 14/44/233 15/43/234 55/57/235 54/56/236
f 15/43/237 16/42/238 56/58/239 55/57/240
f 16/42/241 17/41/242 57/59/243 56/58/244
f 17/41/245 18/50/246 58/60/247 57/59/248
f 18/50/249 19/49/250 59/61/251 58/60/252
f 19/49/253 20/48/254 60/62/255 59/61/256
f 20/48/257 11/47/258 51/53/259 60/62/260
f 1/21/261 10/39/262 61/64/263 62/63/264
f 10/39/265 9/37/266 63/65/267 61/64/268
f 9/37/269 8/35/270 64/66/271 63/65/272
f 8/35/273 7/33/274 65/67/275 64/66/276
f 7/33/277 6/31/278 66/68/279 65/67/280
f 6/31/281 5/29/282 67/69/283 66/68/284
f 5/29/285 4/27/286 68/70/287 67/69/288
f 4/27/289 3/25/290 69/71/291 68/70/292
f 3/25/293 2/22/294 70/72/295 69/71/296
f 2/22/297 1/21/298 62/63/299 70/72/300
f 51/53/301 52/54/302 72/74/303 71/73/304
f 52/54/305 53/55/306 74/75/307 72/74/308
f 53/55/309 54/56/310 75/76/311 74/75/312
f 54/56/313 55/57/314 76/77/315 75/76/316
f 55/57/317 56/58/318 77/78/319 76/77/320
f 56/58/321 57/59/322 78/79/323 77/78/324
f 57/59/325 58/60/326 79/80/327 78/79/328
f 58/60/329 59/61/330 80/81/331 79/80/332
f 59/61/333 60/62/334 81/82/335 80/81/336
f 60/62/337 51/53/338 71/73/339 81/82/340
f 62/63/341 61/64/342 82/84/343 83/83/344
f 61/64/345 63/65/346 85/85/347 82/84/348
f 63/65/349 64/66/350 86/86/351 85/85/352
f 64/66/353 65/67/354 87/87/355 86/86/356
f 65/67/357 66/68/358 88/88/359 87/87/360
f 66/68/361 67/69/362 89/89/363 88/88/364
f 67/69/365 68/70/366 90/90/367 89/89/368
f 68/70/369 69/71/370 91/91/371 90/90/372
f 69/71/373 70/72/374 92/92/375 91/91/376
f 70/72/377 62/63/378 83/83/379 92/92/380
