# This file uses centimeters as units for non-parametric coordinates.

v -14.935938 34.315979 -15.409389
v -3.673517 47.962578 12.754064
v 4.179396 56.781727 -5.431849
v 1.294424 33.589222 -28.573940
v 7.623983 49.365623 -19.844814
v 29.685598 34.544266 -14.053309
v 20.695486 27.595354 24.840122
v 24.315741 39.237144 18.752964
v 0.498190 31.406973 27.003574
v -17.150248 24.049654 -11.574550
v -9.229502 9.587278 -9.254725
v -11.666895 12.634171 8.881993
v 4.213156 10.176842 15.699376
v 17.608320 9.000001 -7.604091
v 26.189886 16.321571 16.040562
v 24.978613 50.483231 -1.685756
v 32.039635 28.349152 7.374669
v 31.171698 22.672960 -8.630580
v 16.465841 22.869177 -24.761806
v 6.729773 11.620718 -21.235806
v -14.677973 35.281933 16.159336
v -17.818048 31.706203 -2.766322
v 18.711424 44.126278 17.345982
v 4.643454 43.681103 20.503330
v 14.021353 54.350700 -9.265834
v 1.401907 53.754856 -11.038539
v -3.804132 22.935146 -24.789883
v -9.028467 24.549500 21.778843
v 1.464361 42.827412 -3.545009
v -18.056879 43.876984 -15.581264
v -16.027262 36.040367 -13.220180
v -10.886515 35.185295 1.006139
v -19.708521 39.152271 -3.437709
v -11.183924 48.193756 -16.145107
v -6.309809 51.077171 1.028478
v -5.311945 32.725517 -7.343104
v -14.424067 52.384647 -6.235072
v 0.369833 50.456329 -8.712977
v -0.135080 39.072540 -13.833583
vt 0.068775 0.124232
vt 0.068775 0.124232
vt 0.068775 0.124232
vt 0.068775 0.124232
vt 0.068775 0.124232
vt 0.068775 0.124232
vt 0.068775 0.124232
vt 0.068775 0.124232
vt 0.068775 0.124232
vt 0.068775 0.124232
vt 0.068775 0.124232
vt 0.068775 0.124232
vt 0.068775 0.124232
vt 0.068775 0.124232
vt 0.068775 0.124232
vt 0.068775 0.124232
vt 0.068775 0.124232
vt 0.068775 0.124232
vt 0.068775 0.124232
vt 0.068775 0.124232
vt 0.068775 0.124232
vt 0.068775 0.124232
vt 0.068775 0.124232
vt 0.068775 0.124232
vt 0.068775 0.124232
vt 0.068775 0.124232
vt 0.068775 0.124232
vt 0.068775 0.124232
vt 0.052359 0.069979
vt 0.052235 0.061347
vt 0.052179 0.056553
vt 0.052304 0.053395
vt 0.052479 0.052528
vt 0.052900 0.060282
vt 0.052669 0.050032
vt 0.052845 0.056472
vt 0.052469 0.065727
vt 0.052635 0.068652
vt 0.052862 0.068022
vn -0.758926 0.651066 -0.011983
vn -0.758926 0.651066 -0.011983
vn -0.758926 0.651067 -0.011983
vn 0.426181 0.301029 -0.853083
vn 0.426181 0.301029 -0.853083
vn 0.426181 0.301029 -0.853083
vn 0.173749 0.413339 0.893847
vn 0.173749 0.413339 0.893847
vn 0.173749 0.413339 0.893847
vn -0.874054 -0.484488 -0.036072
vn -0.874054 -0.484488 -0.036072
vn -0.874054 -0.484488 -0.036072
vn 0.261104 -0.944828 0.197801
vn 0.261104 -0.944828 0.197801
vn 0.261104 -0.944828 0.197801
vn 0.954760 0.296765 -0.019089
vn 0.954760 0.296765 -0.019089
vn 0.954760 0.296765 -0.019089
vn 0.707967 -0.705190 -0.038587
vn 0.707967 -0.705190 -0.038587
vn 0.707967 -0.705190 -0.038587
vn 0.017544 -0.312868 -0.949635
vn 0.017544 -0.312868 -0.949635
vn 0.017544 -0.312868 -0.949635
vn 0.006054 -0.469152 0.883097
vn 0.006054 -0.469152 0.883097
vn 0.006054 -0.469152 0.883097
vn -0.961943 -0.190758 0.195643
vn -0.961943 -0.190758 0.195643
vn -0.961943 -0.190758 0.195643
vn 0.072506 0.890760 0.448653
vn 0.072506 0.890760 0.448653
vn 0.072506 0.890760 0.448653
vn 0.547587 0.579068 -0.604010
vn 0.547587 0.579068 -0.604010
vn 0.547587 0.579068 -0.604010
vn -0.502596 0.568806 -0.651043
vn -0.502596 0.568806 -0.651043
vn -0.502596 0.568806 -0.651043
vn -0.629065 0.025091 -0.776948
vn -0.629065 0.025091 -0.776948
vn -0.629065 0.025091 -0.776948
vn 0.563832 -0.601777 -0.565649
vn 0.563831 -0.601777 -0.565649
vn 0.563832 -0.601777 -0.565649
vn -0.024112 -0.999039 0.036592
vn -0.024112 -0.999039 0.036592
vn -0.024112 -0.999039 0.036592
vn 0.207386 0.905309 0.370684
vn 0.207386 0.905309 0.370684
vn 0.207386 0.905309 0.370684
vn 0.892290 0.382692 0.239511
vn 0.892290 0.382692 0.239511
vn 0.892290 0.382692 0.239511
vn -0.646255 -0.452507 -0.614485
vn -0.646255 -0.452507 -0.614485
vn -0.646255 -0.452506 -0.614485
vn -0.010403 -0.983470 -0.180772
vn -0.010403 -0.983470 -0.180772
vn -0.010403 -0.983470 -0.180772
vn 0.919014 -0.384604 0.086562
vn 0.919014 -0.384604 0.086562
vn 0.919014 -0.384604 0.086562
vn 0.827972 0.001343 0.560768
vn 0.827972 0.001343 0.560768
vn 0.827972 0.001343 0.560768
vn -0.127046 -0.483407 0.866128
vn -0.127046 -0.483407 0.866127
vn -0.127046 -0.483407 0.866128
vn -0.207805 -0.968833 0.134833
vn -0.207805 -0.968833 0.134833
vn -0.207805 -0.968833 0.134833
vn 0.045833 0.892674 -0.448366
vn 0.045833 0.892674 -0.448366
vn 0.045833 0.892674 -0.448366
vn -0.515494 0.563840 -0.645253
vn -0.515494 0.563840 -0.645253
vn -0.515494 0.563840 -0.645253
vn 0.145041 -0.563891 0.813013
vn 0.145041 -0.563891 0.813013
vn 0.145041 -0.563891 0.813013
vn 0.852728 0.007921 0.522295
vn 0.852728 0.007921 0.522295
vn 0.852728 0.007921 0.522295
vn -0.739770 0.672197 -0.029883
vn -0.739769 0.672197 -0.029883
vn -0.739769 0.672197 -0.029883
vn -0.703963 -0.110250 -0.701627
vn -0.703963 -0.110250 -0.701627
vn -0.703963 -0.110250 -0.701627
vn -0.551729 0.140063 0.822179
vn -0.551729 0.140063 0.822179
vn -0.551729 0.140063 0.822179
vn 0.040044 0.892160 0.449941
vn 0.040044 0.892160 0.449941
vn 0.040044 0.892160 0.449941
vn 0.426366 0.299943 -0.853373
vn 0.426366 0.299944 -0.853373
vn 0.426366 0.299944 -0.853373
vn 0.559664 -0.646818 -0.518077
vn 0.559664 -0.646818 -0.518077
vn 0.559664 -0.646818 -0.518077
vn -0.755072 0.655640 0.001405
vn -0.755072 0.655640 0.001405
vn -0.755072 0.655640 0.001405
vn -0.402688 0.546623 0.734197
vn -0.402688 0.546623 0.734197
vn -0.402688 0.546623 0.734197
vn 0.721056 -0.211183 -0.659909
vn 0.721056 -0.211183 -0.659909
vn 0.721056 -0.211183 -0.659909
vn 0.992744 0.085787 -0.084258
vn 0.992744 0.085787 -0.084258
vn 0.992744 0.085787 -0.084258
vn 0.173155 0.414635 0.893362
vn 0.173155 0.414635 0.893362
vn 0.173155 0.414635 0.893362
vn -0.398846 0.530737 0.747823
vn -0.398846 0.530737 0.747823
vn -0.398846 0.530737 0.747823
vn -0.027549 -0.322830 -0.946056
vn -0.027549 -0.322830 -0.946056
vn -0.027549 -0.322830 -0.946056
vn -0.426043 -0.607299 -0.670578
vn -0.426043 -0.607299 -0.670578
vn -0.426043 -0.607299 -0.670578
vn 0.180873 0.457823 0.870450
vn 0.180873 0.457823 0.870450
vn 0.180873 0.457823 0.870450
vn 0.534064 0.733282 0.420800
vn 0.534064 0.733282 0.420800
vn 0.534064 0.733282 0.420800
vn -0.971509 0.137411 -0.193100
vn -0.971509 0.137411 -0.193100
vn -0.971509 0.137411 -0.193100
vn -0.964085 -0.232268 0.128809
vn -0.964085 -0.232268 0.128809
vn -0.964085 -0.232268 0.128809
vn 0.273033 0.957420 0.093811
vn 0.273033 0.957420 0.093811
vn 0.273033 0.957420 0.093811
vn 0.588146 0.597020 -0.545574
vn 0.588146 0.597020 -0.545574
vn 0.588146 0.597020 -0.545574
vn -0.385178 -0.637220 0.667525
vn -0.385178 -0.637220 0.667525
vn -0.385178 -0.637220 0.667525
vn -0.878178 -0.248156 0.408927
vn -0.878178 -0.248156 0.408927
vn -0.878178 -0.248156 0.408927
vn -0.030542 0.885792 -0.463077
vn -0.030542 0.885791 -0.463077
vn -0.030542 0.885791 -0.463077
vn -0.769039 0.638161 0.036449
vn -0.769039 0.638161 0.036449
vn -0.769039 0.638161 0.036449
vn -0.927073 0.374370 0.019565
vn -0.927073 0.374370 0.019565
vn -0.927073 0.374370 0.019565
vn -0.453440 -0.884386 0.110697
vn -0.453440 -0.884386 0.110697
vn -0.453440 -0.884386 0.110697
vn 0.575287 -0.596372 0.559808
vn 0.575287 -0.596372 0.559808
vn 0.575287 -0.596372 0.559808
vn 0.119345 -0.755771 -0.643869
vn 0.119345 -0.755771 -0.643869
vn 0.119345 -0.755771 -0.643869
vn 0.042914 -0.196266 -0.979611
vn 0.042914 -0.196266 -0.979611
vn 0.042914 -0.196266 -0.979611
vn -0.917699 -0.311836 -0.246142
vn -0.917699 -0.311836 -0.246142
vn -0.917699 -0.311836 -0.246142
vn 0.407056 -0.118506 0.905683
vn 0.407056 -0.118506 0.905683
vn 0.407056 -0.118506 0.905683
vn -0.325288 -0.943657 0.060826
vn -0.325288 -0.943657 0.060826
vn -0.325288 -0.943657 0.060826
vn -0.496623 0.729216 -0.470754
vn -0.496623 0.729216 -0.470754
vn -0.496623 0.729216 -0.470754
vn 0.753720 0.439274 0.488820
vn 0.753720 0.439274 0.488820
vn 0.753720 0.439274 0.488820
vn 0.985952 0.030167 -0.164282
vn 0.985952 0.030167 -0.164282
vn 0.985952 0.030167 -0.164282
vn 0.812594 -0.576723 0.084155
vn 0.812594 -0.576723 0.084155
vn 0.812594 -0.576723 0.084155
vn -0.405001 0.115357 0.907010
vn -0.405001 0.115357 0.907010
vn -0.405001 0.115357 0.907010
vn 0.458148 0.347659 -0.818067
vn 0.458148 0.347659 -0.818067
vn 0.458148 0.347659 -0.818067
vn 0.058310 0.926158 -0.372601
vn 0.058310 0.926158 -0.372601
vn 0.058310 0.926158 -0.372601
vn 0.133924 0.990576 0.028699
vn 0.133924 0.990576 0.028699
vn 0.133924 0.990576 0.028699
vn -0.580819 0.383724 0.717917
vn -0.580819 0.383724 0.717917
vn -0.580819 0.383724 0.717917
vn 0.017251 -0.284341 -0.958568
vn 0.017251 -0.284341 -0.958568
vn 0.017251 -0.284341 -0.958568
s off
f 1/1/1 2/2/2 3/3/3
f 4/4/4 5/5/5 6/6/6
f 7/7/7 8/8/8 9/9/9
f 10/10/10 11/11/11 12/12/12
f 13/13/13 14/14/14 15/15/15
f 16/16/16 17/17/17 6/6/18
f 15/15/19 14/14/20 18/18/21
f 4/4/22 19/19/23 20/20/24
f 7/7/25 9/9/26 13/13/27
f 21/21/28 22/22/29 12/12/30
f 23/23/31 3/3/32 24/24/33
f 25/25/34 6/6/35 5/5/36
f 4/4/37 1/1/38 26/26/39
f 27/27/40 1/1/41 4/4/42
f 14/14/43 20/20/44 18/18/45
f 11/11/46 14/14/47 13/13/48
f 23/23/49 16/16/50 3/3/51
f 8/8/52 17/17/53 16/16/54
f 10/10/55 27/27/56 11/11/57
f 20/20/58 14/14/59 11/11/60
f 15/15/61 18/18/62 17/17/63
f 8/8/64 15/15/65 17/17/66
f 9/9/67 28/28/68 13/13/69
f 11/11/70 13/13/71 12/12/72
f 25/25/73 5/5/74 3/3/75
f 26/26/76 5/5/77 4/4/78
f 7/7/79 13/13/80 15/15/81
f 7/7/82 15/15/83 8/8/84
f 22/22/85 2/2/86 1/1/87
f 27/27/88 10/10/89 1/1/90
f 9/9/91 21/21/92 28/28/93
f 2/2/94 24/24/95 3/3/96
f 19/19/97 4/4/98 6/6/99
f 19/19/100 18/18/101 20/20/102
f 21/21/103 2/2/104 22/22/105
f 24/24/106 2/2/107 21/21/108
f 19/19/109 6/6/110 18/18/111
f 17/17/112 18/18/113 6/6/114
f 9/9/115 8/8/116 24/24/117
f 9/9/118 24/24/119 21/21/120
f 20/20/121 27/27/122 4/4/123
f 20/20/124 11/11/125 27/27/126
f 24/24/127 8/8/128 23/23/129
f 23/23/130 8/8/131 16/16/132
f 22/22/133 1/1/134 10/10/135
f 10/10/136 12/12/137 22/22/138
f 16/16/139 25/25/140 3/3/141
f 16/16/142 6/6/143 25/25/144
f 13/13/145 28/28/146 12/12/147
f 21/21/148 12/12/149 28/28/150
f 3/3/151 5/5/152 26/26/153
f 3/3/154 26/26/155 1/1/156
f 37/29/157 30/30/158 33/31/159
f 33/31/160 31/32/161 32/33/162
f 29/34/163 32/33/164 36/35/165
f 31/32/166 39/36/167 36/35/168
f 34/37/169 39/36/170 30/30/171
f 33/31/172 30/30/173 31/32/174
f 32/33/175 29/34/176 35/38/177
f 31/32/178 36/35/179 32/33/180
f 37/29/181 34/37/182 30/30/183
f 35/38/184 29/34/185 38/39/186
f 39/36/187 38/39/188 29/34/189
f 39/36/190 29/34/191 36/35/192
f 35/38/193 33/31/194 32/33/195
f 38/39/196 39/36/197 34/37/198
f 38/39/199 34/37/200 37/29/201
f 38/39/202 37/29/203 35/38/204
f 37/29/205 33/31/206 35/38/207
f 30/30/208 39/36/209 31/32/210
