# This file uses centimeters as units for non-parametric coordinates.

v -117.218750 10.621759 -15.256836
v -117.218750 0.000000 -15.256836
v -130.026611 10.621759 140.931641
v -130.026611 0.000000 140.931641
v 7.021484 0.000000 0.000000
v 0.000000 0.000000 162.699951
v 0.000000 10.621759 162.699951
v 7.021484 10.621759 0.000000
v 131.261475 10.621759 15.256836
v 131.261475 0.000000 15.256836
v 130.026367 10.621759 162.699951
v 130.026367 0.000000 162.699951
v -130.026611 10.621759 -162.699951
v -130.026611 0.000000 -162.699951
v -2.584717 0.000000 -156.260010
v -2.584717 10.621759 -156.260010
v 138.586914 10.621759 -147.422241
v 138.586914 0.000000 -147.422241
v -130.026611 10.621759 38.536621
v -130.026611 0.000000 39.532959
v 0.000244 0.000000 77.500000
v 0.000000 10.621759 76.503418
v 130.026367 10.621759 114.470947
v 130.026367 0.000000 115.467285
v 130.026367 10.621759 -74.101563
v 130.026367 0.000000 -72.998535
v 16.723389 0.000000 -162.699951
v 18.116699 10.621759 -162.699951
vt 0.874112 0.353206
vt 0.874112 0.404994
vt 0.874112 0.353206
vt 0.874112 0.404994
vt 0.990820 0.487950
vt 0.833551 0.404994
vt 0.833551 0.404994
vt 0.833551 0.353206
vt 0.833551 0.404994
vt 0.833551 0.353206
vt 0.874112 0.353206
vt 0.874112 0.404994
vt 0.874112 0.353206
vt 0.874112 0.404994
vt 0.991109 0.487980
vt 0.833551 0.404994
vt 0.833551 0.404994
vt 0.874112 0.404994
vt 0.874112 0.353206
vt 0.833551 0.353206
vt 0.874112 0.404994
vt 0.874112 0.353206
vt 0.833551 0.404994
vt 0.991396 0.487823
vt 0.833551 0.404994
vt 0.833551 0.353206
vt 0.874112 0.353206
vt 0.874112 0.404994
vt 0.874112 0.353206
vt 0.874112 0.404994
vt 0.991149 0.487803
vt 0.833551 0.404994
vt 0.991380 0.487700
vt 0.991594 0.487714
vt 0.991421 0.488012
vt 0.991657 0.487844
vt 0.991820 0.487729
vt 0.874112 0.365472
vt 0.991039 0.487973
vt 0.874112 0.365789
vt 0.991278 0.487813
vt 0.833551 0.377557
vt 0.833551 0.377557
vt 0.874112 0.389642
vt 0.874112 0.389960
vt 0.991442 0.487704
vt 0.874112 0.376793
vt 0.991695 0.487721
vt 0.874112 0.376442
vt 0.838767 0.404994
vt 0.991678 0.487829
vt 0.839202 0.404994
vn 0.000000 1.000000 0.000000
vn 0.000000 1.000000 0.000000
vn 0.000000 1.000000 0.000000
vn 0.000000 1.000000 0.000000
vn -1.000000 0.000001 0.000000
vn -0.996107 -0.004130 -0.088062
vn -0.997131 -0.003546 -0.075613
vn -1.000000 0.000001 0.000000
vn 0.000000 -1.000000 0.000000
vn 0.000000 -1.000000 0.000000
vn 0.000000 -1.000000 0.000000
vn 0.000000 -1.000000 0.000000
vn -0.165116 0.000000 0.986274
vn -0.165116 0.000000 0.986274
vn -0.165116 0.000000 0.986274
vn -0.165116 0.000000 0.986274
vn 0.000000 1.000000 0.000000
vn 0.000000 1.000000 0.000000
vn 0.000000 1.000000 0.000000
vn 0.000000 1.000000 0.000000
vn 1.000000 0.000001 0.000000
vn 1.000000 0.000001 0.000000
vn 0.999968 0.000378 0.008047
vn 0.999962 0.000408 0.008693
vn 0.000000 -1.000000 -0.000000
vn 0.000000 -1.000000 -0.000000
vn 0.000000 -1.000000 0.000000
vn 0.000000 -1.000000 -0.000000
vn 0.000000 0.000000 1.000000
vn 0.000000 0.000000 1.000000
vn 0.000000 0.000000 1.000000
vn 0.000000 0.000000 1.000000
vn 0.000000 1.000000 -0.000000
vn 0.000000 1.000000 -0.000000
vn 0.000000 1.000000 -0.000000
vn 0.000000 1.000000 -0.000000
vn -0.996248 0.000000 0.086541
vn -0.996248 0.000000 0.086541
vn -0.996248 0.000000 0.086541
vn -0.996248 0.000000 0.086541
vn 0.000000 -1.000000 0.000000
vn 0.000000 -1.000000 0.000000
vn 0.000000 -1.000000 0.000000
vn 0.000000 -1.000000 0.000000
vn 0.050468 0.000000 -0.998726
vn 0.050468 0.000000 -0.998726
vn 0.050468 0.000000 -0.998726
vn 0.050468 0.000000 -0.998726
vn 0.000000 1.000000 -0.000000
vn 0.000000 1.000000 -0.000000
vn 0.000000 1.000000 -0.000000
vn 0.000000 1.000000 -0.000000
vn 0.000000 1.000000 -0.000000
vn 0.993335 0.005976 0.115111
vn 0.998785 0.002555 0.049221
vn 0.999165 0.002118 0.040797
vn 0.993335 0.005976 0.115111
vn 0.000000 -1.000000 0.000000
vn 0.000000 -1.000000 0.000000
vn 0.000000 -1.000000 0.000000
vn 0.125094 -0.008205 -0.992111
vn 0.053191 -0.003489 -0.998578
vn 0.070738 -0.004640 -0.997484
vn 0.125094 -0.008205 -0.992111
vn 0.000000 1.000000 0.000000
vn 0.000000 1.000000 0.000000
vn 0.000000 1.000000 0.000000
vn 0.000000 1.000000 0.000000
vn -0.997131 -0.003546 -0.075613
vn -0.996107 -0.004130 -0.088062
vn -0.973227 -0.010768 -0.229593
vn -0.973227 -0.010768 -0.229593
vn 0.000000 -1.000000 0.000000
vn 0.000000 -1.000000 0.000000
vn 0.000000 -1.000000 0.000000
vn 0.000000 -1.000000 0.000000
vn 0.000000 1.000000 0.000000
vn 0.000000 1.000000 0.000000
vn 0.000000 1.000000 0.000000
vn 0.000000 1.000000 0.000000
vn 0.999962 0.000408 0.008693
vn 0.999968 0.000378 0.008047
vn 0.999923 0.000581 0.012386
vn 0.999923 0.000581 0.012386
vn 0.000000 -1.000000 -0.000000
vn 0.000000 -1.000000 0.000000
vn 0.000000 -1.000000 0.000000
vn 0.000000 -1.000000 0.000000
vn 0.000000 1.000000 -0.000000
vn 0.000000 1.000000 -0.000000
vn 0.000000 1.000000 -0.000000
vn 0.999165 0.002118 0.040797
vn 0.998785 0.002555 0.049221
vn 0.999903 -0.000723 -0.013906
vn 0.999903 -0.000723 -0.013906
vn 0.000000 -1.000000 0.000000
vn 0.000000 -1.000000 0.000000
vn 0.000000 -1.000000 0.000000
vn 0.000000 -1.000000 0.000000
vn 0.000000 -1.000000 0.000000
vn 0.070738 -0.004640 -0.997484
vn 0.053191 -0.003489 -0.998578
vn -0.306372 0.020094 -0.951700
vn -0.306372 0.020094 -0.951700
s off
f 7/7/1 22/42/2 19/38/3 3/2/4
f 3/2/5 19/38/6 20/40/7 4/4/8
f 4/5/9 20/39/10 21/41/11 6/31/12
f 4/4/13 6/6/14 7/7/15 3/2/16
f 7/9/17 11/12/18 23/44/19 22/43/20
f 11/12/21 12/14/22 24/45/23 23/44/24
f 12/33/25 6/31/26 21/41/27 24/46/28
f 12/14/29 11/12/30 7/9/31 6/16/32
f 16/17/33 13/18/34 1/19/35 8/20/36
f 13/18/37 14/21/38 2/22/39 1/19/40
f 14/35/41 15/36/42 5/24/43 2/15/44
f 14/21/45 13/18/46 16/17/47 15/23/48
f 16/25/49 8/26/50 9/27/51 25/47/52 28/52/53
f 17/28/54 25/47/55 26/49/56 18/30/57
f 18/37/58 26/48/59 27/51/60
f 18/30/61 27/50/62 28/52/63 17/28/64
f 19/38/65 22/42/66 8/8/67 1/1/68
f 20/40/69 19/38/70 1/1/71 2/3/72
f 21/41/73 20/39/74 2/15/75 5/24/76
f 22/43/77 23/44/78 9/11/79 8/10/80
f 23/44/81 24/45/82 10/13/83 9/11/84
f 24/46/85 21/41/86 5/24/87 10/34/88
f 28/52/89 25/47/90 17/28/91
f 26/49/92 25/47/93 9/27/94 10/29/95
f 27/51/96 26/48/97 10/34/98 5/24/99 15/36/100
f 28/52/101 27/50/102 15/32/103 16/25/104
