# This file uses centimeters as units for non-parametric coordinates.

v 3.779814 41.742260 56.546829
v -3.779811 41.742264 56.546825
v -7.559626 41.742264 50.000004
v -3.779814 41.742264 43.453171
v 3.779813 41.742264 43.453171
v 7.559626 41.742264 50.000000
v 3.779814 -6.546828 7.645386
v 7.559626 -0.000000 7.645386
v 3.779813 6.546828 7.645386
v -3.779814 6.546828 7.645386
v -7.559626 -0.000001 7.645386
v -3.779811 -6.546828 7.645386
v 4.806764 50.000004 58.325554
v -4.806759 50.000000 58.325554
v 0.000000 50.000000 50.000000
v -9.613522 50.000000 50.000000
v -4.806762 50.000000 41.674438
v 4.806761 50.000000 41.674438
v 9.613522 50.000000 50.000000
v -4.806759 42.923088 58.325554
v 4.806764 42.923084 58.325554
v -9.613522 42.923092 50.000000
v -4.806762 42.923088 41.674446
v 4.806761 42.923088 41.674446
v 9.613522 42.923092 50.000000
v 4.806764 -8.325554 0.000000
v -4.806759 -8.325556 0.000000
v 0.000000 0.000000 0.000000
v -9.613522 -0.000001 0.000000
v -4.806762 8.325555 0.000000
v 4.806761 8.325555 0.000000
v 9.613522 0.000000 0.000000
v 4.806764 -8.325554 6.464565
v 9.613522 0.000000 6.464565
v 4.806761 8.325555 6.464565
v -4.806762 8.325555 6.464565
v -9.613522 -0.000001 6.464565
v -4.806759 -8.325556 6.464565
v -3.779811 -3.176365 52.852547
v -7.559626 2.162072 47.514107
v -3.779814 7.500512 42.175667
v 3.779813 7.500512 42.175667
v 7.559626 2.162074 47.514107
v 3.779814 -3.176364 52.852543
v -3.779814 6.546828 38.662930
v -7.559626 -0.000001 38.662930
v -3.779811 -6.546828 40.831963
v 5.292687 -3.926454 39.963806
v 7.559626 -0.000000 38.662930
v 3.779813 6.546828 38.662930
v -5.313879 10.111899 53.889744
v -7.559626 11.036794 50.000000
v -3.779814 11.036798 43.453171
v 3.779813 11.036798 43.453171
v 7.559626 11.036795 50.000000
v 3.779814 9.480105 56.546829
v 3.779813 6.546828 34.171776
v 0.395686 6.546828 23.242165
v 4.947461 4.524402 22.655989
v -3.779811 20.239956 56.546829
v 0.123359 9.480104 56.546829
v -3.779811 0.351613 53.882324
v 3.779814 -4.653905 47.582970
v 3.779814 -6.546828 26.744825
v 1.025336 -6.546828 40.831963
vt 0.163681 0.107959
vt 0.163672 0.108013
vt 0.164476 0.108063
vt 0.164470 0.108007
vt 0.163665 0.108001
vt 0.164491 0.108052
vt 0.163666 0.107931
vt 0.164500 0.107982
vt 0.163675 0.107877
vt 0.164493 0.107925
vt 0.163682 0.107892
vt 0.164478 0.107940
vt 0.163594 0.108026
vt 0.163607 0.107958
vt 0.163595 0.107941
vt 0.163582 0.108011
vt 0.163583 0.107922
vt 0.163597 0.107853
vt 0.163608 0.107873
vt 0.164539 0.108015
vt 0.164548 0.108086
vt 0.164560 0.108000
vt 0.164570 0.108073
vt 0.164582 0.107983
vt 0.164571 0.107911
vt 0.164550 0.107929
vt 0.163661 0.108030
vt 0.163672 0.107962
vt 0.163651 0.108016
vt 0.163652 0.107927
vt 0.163664 0.107857
vt 0.163674 0.107877
vt 0.164488 0.107926
vt 0.164478 0.108011
vt 0.164507 0.107907
vt 0.164516 0.107979
vt 0.164505 0.108069
vt 0.164486 0.108082
vt 0.163747 0.080269
vt 0.163736 0.080334
vt 0.164699 0.080394
vt 0.164692 0.080327
vt 0.163728 0.080320
vt 0.164717 0.080381
vt 0.163729 0.080236
vt 0.164728 0.080297
vt 0.163740 0.080171
vt 0.164719 0.080229
vt 0.163749 0.080189
vt 0.164702 0.080246
vt 0.164218 0.080364
vt 0.164222 0.080350
vt 0.164228 0.080267
vt 0.164230 0.080200
vt 0.164225 0.080218
vt 0.164219 0.080298
vt 0.164328 0.080273
vt 0.164321 0.080356
vt 0.164314 0.080370
vt 0.164315 0.080288
vt 0.164321 0.080223
vt 0.164328 0.080206
vt 0.164122 0.080355
vt 0.164123 0.080344
vt 0.164129 0.080261
vt 0.164132 0.080194
vt 0.164130 0.080212
vt 0.164125 0.080292
vt 0.164384 0.080209
vt 0.164526 0.080248
vt 0.164525 0.080220
vt 0.163993 0.080350
vt 0.164123 0.080324
vt 0.164191 0.080362
vt 0.164261 0.080301
vt 0.164474 0.080314
vt 0.164314 0.080328
vn 0.000000 -0.962866 0.269979
vn 0.000000 -0.962866 0.269979
vn 0.000000 -0.962866 0.269979
vn 0.000000 -0.962866 0.269979
vn 0.000000 -0.962866 0.269979
vn -0.871150 -0.474626 0.125810
vn -0.871150 -0.474626 0.125810
vn -0.871150 -0.474626 0.125810
vn -0.871150 -0.474626 0.125810
vn 0.000000 0.965066 -0.262009
vn 0.000000 0.965066 -0.262009
vn 0.000000 0.965066 -0.262009
vn 0.000000 0.965066 -0.262009
vn 0.861556 0.492272 -0.124054
vn 0.861556 0.492272 -0.124054
vn 0.861556 0.492272 -0.124054
vn 0.861556 0.492272 -0.124054
vn -0.000000 1.000000 -0.000001
vn -0.000000 1.000000 -0.000001
vn -0.000000 1.000000 -0.000001
vn 0.000000 1.000000 0.000000
vn 0.000000 1.000000 0.000000
vn 0.000000 1.000000 0.000000
vn 0.000000 1.000000 0.000000
vn 0.000000 1.000000 0.000000
vn 0.000000 1.000000 0.000000
vn 0.000000 1.000000 -0.000000
vn 0.000000 1.000000 -0.000000
vn 0.000000 1.000000 -0.000000
vn 0.000000 1.000000 0.000000
vn 0.000000 1.000000 0.000000
vn 0.000000 1.000000 0.000000
vn 0.000000 1.000000 0.000000
vn 0.000000 1.000000 0.000000
vn 0.000000 1.000000 0.000000
vn 0.000000 0.000000 -1.000000
vn 0.000000 0.000000 -1.000000
vn 0.000000 0.000000 -1.000000
vn 0.000000 0.000000 -1.000000
vn 0.000000 0.000000 -1.000000
vn 0.000000 0.000000 -1.000000
vn 0.000000 0.000000 -1.000000
vn 0.000000 0.000000 -1.000000
vn 0.000000 0.000000 -1.000000
vn 0.000000 0.000000 -1.000000
vn 0.000000 0.000000 -1.000000
vn 0.000000 0.000000 -1.000000
vn 0.000000 0.000000 -1.000000
vn 0.000000 0.000000 -1.000000
vn 0.000000 0.000000 -1.000000
vn 0.000000 0.000000 -1.000000
vn 0.000000 0.000000 -1.000000
vn 0.000000 0.000000 -1.000000
vn -0.000000 0.000000 1.000000
vn -0.000000 0.000000 1.000000
vn -0.000000 0.000000 1.000000
vn -0.000000 0.000000 1.000000
vn -0.866025 0.000000 0.500000
vn -0.866025 0.000000 0.500000
vn -0.866025 0.000000 0.500000
vn -0.866025 0.000000 0.500000
vn -0.866025 -0.000000 -0.500000
vn -0.866025 -0.000000 -0.500000
vn -0.866025 -0.000000 -0.500000
vn -0.866025 -0.000000 -0.500000
vn 0.000000 -0.000001 -1.000000
vn 0.000000 -0.000001 -1.000000
vn 0.000000 -0.000001 -1.000000
vn 0.000000 -0.000001 -1.000000
vn 0.866025 -0.000000 -0.500000
vn 0.866025 -0.000000 -0.500000
vn 0.866025 -0.000000 -0.500000
vn 0.866025 -0.000000 -0.500000
vn 0.866026 0.000000 0.500000
vn 0.866026 0.000000 0.500000
vn 0.866026 0.000000 0.500000
vn 0.866026 0.000000 0.500000
vn 0.866026 -0.500000 0.000000
vn 0.866026 -0.500000 0.000000
vn 0.866026 -0.500000 0.000000
vn 0.866026 -0.500000 0.000000
vn 0.866025 0.500000 0.000000
vn 0.866025 0.500000 0.000000
vn 0.866025 0.500000 0.000000
vn 0.866025 0.500000 0.000000
vn 0.000000 1.000000 0.000000
vn 0.000000 1.000000 0.000000
vn 0.000000 1.000000 0.000000
vn 0.000000 1.000000 0.000000
vn -0.866026 0.500000 0.000000
vn -0.866026 0.500000 0.000000
vn -0.866026 0.500000 0.000000
vn -0.866026 0.500000 0.000000
vn -0.866025 -0.500000 0.000000
vn -0.866025 -0.500000 0.000000
vn -0.866025 -0.500000 0.000000
vn -0.866025 -0.500000 0.000000
vn 0.000000 -1.000000 0.000000
vn 0.000000 -1.000000 0.000000
vn 0.000000 -1.000000 0.000000
vn 0.000000 -1.000000 0.000000
vn -0.000001 -0.833127 0.553081
vn -0.000001 -0.833127 0.553081
vn -0.000001 -0.833127 0.553081
vn -0.000001 -0.833127 0.553081
vn -0.478982 -0.833128 0.276540
vn -0.478982 -0.833128 0.276540
vn -0.478982 -0.833128 0.276540
vn -0.478982 -0.833128 0.276540
vn -0.478982 -0.833128 -0.276539
vn -0.478982 -0.833128 -0.276539
vn -0.478982 -0.833128 -0.276539
vn -0.478982 -0.833128 -0.276539
vn 0.000000 -0.833129 -0.553080
vn 0.000000 -0.833129 -0.553080
vn 0.000000 -0.833128 -0.553079
vn 0.000000 -0.833128 -0.553079
vn 0.478982 -0.833128 -0.276540
vn 0.478982 -0.833128 -0.276540
vn 0.478982 -0.833128 -0.276540
vn 0.478982 -0.833128 -0.276540
vn 0.478982 -0.833128 0.276539
vn 0.478982 -0.833128 0.276539
vn 0.478982 -0.833128 0.276540
vn 0.478982 -0.833128 0.276540
vn 0.478980 -0.276539 0.833129
vn 0.478980 -0.276539 0.833129
vn 0.478980 -0.276539 0.833129
vn 0.478980 -0.276539 0.833129
vn 0.478980 0.276539 0.833129
vn 0.478980 0.276539 0.833129
vn 0.478980 0.276539 0.833129
vn 0.478980 0.276539 0.833129
vn 0.000000 0.553079 0.833129
vn 0.000000 0.553079 0.833129
vn 0.000000 0.553079 0.833129
vn 0.000000 0.553079 0.833129
vn -0.478980 0.276539 0.833129
vn -0.478980 0.276539 0.833129
vn -0.478980 0.276539 0.833129
vn -0.478980 0.276539 0.833129
vn -0.478980 -0.276539 0.833129
vn -0.478980 -0.276539 0.833129
vn -0.478980 -0.276539 0.833129
vn -0.478980 -0.276539 0.833129
vn 0.000000 -0.553078 0.833129
vn 0.000000 -0.553079 0.833129
vn 0.000000 -0.553079 0.833129
vn 0.000000 -0.553079 0.833129
vn 0.870285 -0.476373 0.125189
vn 0.870285 -0.476373 0.125189
vn 0.870285 -0.476374 0.125189
vn 0.870285 -0.476374 0.125189
vn 0.870285 -0.476374 0.125189
vn -0.861556 0.492272 -0.124055
vn -0.861556 0.492272 -0.124055
vn -0.861556 0.492272 -0.124055
vn -0.861556 0.492272 -0.124055
vn -0.869414 -0.135872 0.475035
vn -0.869414 -0.135872 0.475035
vn -0.869414 -0.135872 0.475035
vn -0.869414 -0.135872 0.475035
vn -0.869414 -0.135872 0.475035
vn -0.863162 0.146521 -0.483201
vn -0.863162 0.146521 -0.483201
vn -0.863162 0.146521 -0.483201
vn -0.863162 0.146521 -0.483201
vn 0.000000 0.339765 -0.940510
vn 0.000000 0.339765 -0.940510
vn 0.000000 0.339765 -0.940510
vn 0.000000 0.339765 -0.940510
vn 0.863161 0.146522 -0.483202
vn 0.863161 0.146522 -0.483202
vn 0.863162 0.146522 -0.483202
vn 0.863162 0.146522 -0.483202
vn 0.869797 -0.136129 0.474261
vn 0.869797 -0.136129 0.474261
vn 0.869797 -0.136129 0.474260
vn 0.869797 -0.136129 0.474261
vn 0.000002 -0.280197 0.959943
vn 0.000002 -0.280197 0.959943
vn 0.000002 -0.280197 0.959943
vn 0.000002 -0.280197 0.959943
vn 0.000002 -0.280197 0.959943
vn -0.866026 0.500000 0.000000
vn -0.866026 0.500000 0.000000
vn -0.866026 0.500000 0.000000
vn -0.866026 0.500000 0.000000
vn -0.866025 -0.500000 0.000000
vn -0.866025 -0.500000 0.000000
vn -0.866025 -0.500000 0.000000
vn -0.866025 -0.500000 0.000000
vn 0.000000 -1.000000 0.000000
vn 0.000000 -1.000000 0.000000
vn 0.000000 -1.000000 0.000000
vn 0.000000 -1.000000 0.000000
vn 0.000000 -1.000000 0.000000
vn 0.866025 -0.500000 -0.000000
vn 0.866026 -0.500000 -0.000000
vn 0.866026 -0.500000 -0.000000
vn 0.866026 -0.500000 -0.000000
vn 0.866025 -0.500000 -0.000000
vn 0.866025 0.500000 0.000000
vn 0.866025 0.500000 0.000000
vn 0.866025 0.500000 0.000000
vn 0.866025 0.500000 0.000000
vn 0.000000 1.000000 0.000000
vn 0.000000 1.000000 0.000000
vn 0.000000 1.000000 0.000000
vn -0.866025 -0.000000 0.500000
vn -0.866025 -0.000000 0.500000
vn -0.866025 -0.000000 0.500000
vn -0.866025 -0.000000 0.500000
vn -0.866025 -0.000000 0.500000
vn -0.866025 0.000000 -0.500000
vn -0.866026 0.000000 -0.500000
vn -0.866026 0.000000 -0.500000
vn -0.866025 0.000000 -0.500000
vn 0.000000 0.000000 -1.000000
vn 0.000000 0.000000 -1.000000
vn 0.000000 0.000000 -1.000000
vn 0.000000 0.000000 -1.000000
vn 0.866026 0.000000 -0.500000
vn 0.866026 0.000000 -0.500000
vn 0.866025 0.000000 -0.500000
vn 0.866025 0.000000 -0.500000
vn 0.866026 0.000000 0.500000
vn 0.866026 0.000000 0.500000
vn 0.866026 0.000000 0.500000
vn 0.866026 0.000000 0.500000
vn 0.000000 0.000000 1.000000
vn 0.000000 0.000000 1.000000
vn 0.000000 0.000000 1.000000
vn 0.000000 0.000000 1.000000
vn 0.000000 0.000000 1.000000
vn 0.390039 0.912844 -0.120768
vn 0.390039 0.912844 -0.120767
vn 0.390039 0.912844 -0.120768
vn 0.414037 0.905816 0.089836
vn 0.414037 0.905816 0.089836
vn 0.414037 0.905816 0.089836
vn -0.000000 1.000000 0.000000
vn -0.000000 1.000000 0.000000
vn -0.000000 1.000000 0.000000
vn -0.000000 1.000000 0.000000
vn 0.000000 1.000000 0.000000
vn 0.000000 1.000000 0.000000
vn 0.000000 1.000000 0.000000
vn 0.866025 0.500000 0.000000
vn 0.866025 0.500000 0.000000
vn 0.866025 0.500000 0.000000
vn 0.866025 0.500000 0.000000
vn 0.866025 0.500000 0.000000
vn 0.866025 0.500000 0.000000
vn -0.448407 -0.162661 0.878904
vn -0.448407 -0.162661 0.878904
vn -0.448407 -0.162661 0.878904
vn -0.444572 -0.070554 0.892960
vn -0.444572 -0.070554 0.892960
vn -0.444572 -0.070554 0.892960
vn 0.535784 -0.837831 0.104763
vn 0.535784 -0.837831 0.104763
vn 0.535784 -0.837831 0.104763
vn 0.526586 -0.849799 0.023424
vn 0.526586 -0.849799 0.023424
vn 0.526586 -0.849799 0.023424
s off
f 44/56/1 39/51/2 47/59/3 65/77/4 63/75/5
f 46/58/6 47/59/7 39/51/8 40/52/9
f 41/53/10 42/54/11 50/62/12 45/57/13
f 49/61/14 50/62/15 42/54/16 43/55/17
f 14/13/18 13/14/19 15/15/20
f 16/16/21 14/13/22 15/15/23
f 17/17/24 16/16/25 15/15/26
f 18/18/27 17/17/28 15/15/29
f 19/19/30 18/18/31 15/15/32
f 13/14/33 19/19/34 15/15/35
f 26/20/36 27/21/37 28/22/38
f 27/21/39 29/23/40 28/22/41
f 29/23/42 30/24/43 28/22/44
f 30/24/45 31/25/46 28/22/47
f 31/25/48 32/26/49 28/22/50
f 32/26/51 26/20/52 28/22/53
f 13/14/54 14/13/55 20/27/56 21/28/57
f 14/13/58 16/16/59 22/29/60 20/27/61
f 16/16/62 17/17/63 23/30/64 22/29/65
f 17/17/66 18/18/67 24/31/68 23/30/69
f 18/18/70 19/19/71 25/32/72 24/31/73
f 19/19/74 13/14/75 21/28/76 25/32/77
f 34/33/78 33/34/79 26/20/80 32/26/81
f 35/35/82 34/33/83 32/26/84 31/25/85
f 36/36/86 35/35/87 31/25/88 30/24/89
f 37/37/90 36/36/91 30/24/92 29/23/93
f 38/38/94 37/37/95 29/23/96 27/21/97
f 33/34/98 38/38/99 27/21/100 26/20/101
f 2/2/102 1/1/103 21/28/104 20/27/105
f 3/5/106 2/2/107 20/27/108 22/29/109
f 4/7/110 3/5/111 22/29/112 23/30/113
f 5/9/114 4/7/115 23/30/116 24/31/117
f 6/11/118 5/9/119 24/31/120 25/32/121
f 1/1/122 6/11/123 25/32/124 21/28/125
f 8/12/126 7/4/127 33/34/128 34/33/129
f 9/10/130 8/12/131 34/33/132 35/35/133
f 10/8/134 9/10/135 35/35/136 36/36/137
f 11/6/138 10/8/139 36/36/140 37/37/141
f 12/3/142 11/6/143 37/37/144 38/38/145
f 7/4/146 12/3/147 38/38/148 33/34/149
f 63/75/150 48/60/151 49/61/152 43/55/153 44/56/154
f 40/52/155 41/53/156 45/57/157 46/58/158
f 40/52/159 39/51/160 62/74/161 51/63/162 52/64/163
f 52/64/164 53/65/165 41/53/166 40/52/167
f 53/65/168 54/66/169 42/54/170 41/53/171
f 43/55/172 42/54/173 54/66/174 55/67/175
f 44/56/176 43/55/177 55/67/178 56/68/179
f 56/68/180 61/73/181 62/74/182 39/51/183 44/56/184
f 46/58/185 45/57/186 10/46/187 11/44/188
f 12/41/189 47/59/190 46/58/191 11/44/192
f 64/76/193 65/77/194 47/59/195 12/41/196 7/42/197
f 8/50/198 49/61/199 48/60/200 64/76/201 7/42/202
f 49/61/203 59/71/204 57/69/205 50/62/206
f 10/46/207 58/70/208 9/48/209
f 52/64/210 51/63/211 60/72/212 2/40/213 3/43/214
f 4/45/215 53/65/216 52/64/217 3/43/218
f 5/47/219 54/66/220 53/65/221 4/45/222
f 55/67/223 54/66/224 5/47/225 6/49/226
f 56/68/227 55/67/228 6/49/229 1/39/230
f 2/40/231 60/72/232 61/73/233 56/68/234 1/39/235
f 59/71/236 58/70/237 57/69/238
f 9/48/239 58/70/240 59/71/241
f 45/57/242 50/62/243 57/69/244 58/70/245
f 45/57/246 58/70/247 10/46/248
f 9/48/249 59/71/250 8/50/251
f 8/50/252 59/71/253 49/61/254
f 61/73/255 60/72/256 51/63/257
f 62/74/258 61/73/259 51/63/260
f 48/60/261 65/77/262 64/76/263
f 63/75/264 65/77/265 48/60/266
