# This file uses centimeters as units for non-parametric coordinates.

v -0.910400 10.621759 389.133850
v -0.910400 0.000000 389.133850
v 172.825439 10.621759 390.250000
v 172.825439 0.000000 390.250000
v 1.798584 0.000000 10.686340
v 164.467529 0.000000 13.899048
v 164.467529 10.621759 13.899048
v 1.798584 10.621759 10.686340
v 2.991943 10.621759 -392.003296
v 2.991943 0.000000 -392.003296
v 163.373291 10.621759 -392.473389
v 163.373291 0.000000 -392.473389
v -163.670898 10.621759 397.305450
v -163.670898 0.000000 397.305450
v -160.869629 0.000000 7.473572
v -160.869629 10.621759 7.473572
v -165.955322 10.621759 -394.127594
v -165.955322 0.000000 -394.127594
v -1.443604 8.333436 131.220978
v 164.516846 8.333436 209.412750
v 164.614502 18.955194 211.872406
v -1.345703 18.955194 133.680664
v -159.210449 8.333436 51.564026
v -159.259033 18.955194 54.025696
v -4.683594 0.000000 199.954681
v 167.117676 0.000000 266.635132
v -168.610840 0.000000 137.529541
v 167.161865 10.621759 268.953094
v -4.639893 10.621759 202.272614
v -168.567139 10.621759 139.847412
v -40.600586 10.621759 -393.146179
v -42.117676 0.000000 -393.107086
v -161.788086 0.000000 -292.999664
v -161.760498 10.621759 -291.771790
v -168.642578 10.621759 -217.679382
v -3.994873 10.621759 -395.778992
v -2.937988 0.000000 -395.758118
v -168.666992 -0.000000 -216.465607
v -20.298828 15.503157 -393.938690
v -19.151123 4.882882 -394.056824
v -169.911621 3.478554 -254.171753
v -169.882813 14.109564 -255.155457
v 5.373047 0.000000 -171.755127
v 156.698486 0.000000 -198.508820
v 156.651855 10.621759 -196.140808
v 5.326172 10.621759 -169.387146
v -157.929199 10.621759 -142.869110
v -157.882568 0.000000 -145.237091
v 62.199219 10.621759 396.678894
v 61.170654 0.000000 396.701935
v 167.356934 0.000000 279.214661
v 167.377930 10.621759 280.306702
v 89.766357 15.816732 400.451904
v 88.927002 5.194972 400.499939
v 166.375244 5.194972 309.544403
v 166.420410 15.816732 310.429108
v 121.987061 10.621759 394.566498
v 121.531250 0.000000 394.605164
v 168.124756 0.000000 328.824860
v 168.166504 10.621759 329.370605
vt 0.995849 0.409143
vt 0.995849 0.498227
vt 0.995849 0.409143
vt 0.995849 0.498227
vt 0.990820 0.487950
vt 0.767848 0.498227
vt 0.767848 0.498227
vt 0.767848 0.409143
vt 0.767848 0.498227
vt 0.767848 0.409143
vt 0.995849 0.409143
vt 0.995849 0.498227
vt 0.995849 0.409143
vt 0.995849 0.498227
vt 0.991109 0.487980
vt 0.767848 0.498227
vt 0.767848 0.498227
vt 0.995849 0.498227
vt 0.995849 0.409143
vt 0.767848 0.409143
vt 0.995849 0.498227
vt 0.995849 0.409143
vt 0.767848 0.498227
vt 0.991396 0.487823
vt 0.767848 0.498227
vt 0.767848 0.409143
vt 0.995849 0.409143
vt 0.995849 0.498227
vt 0.995849 0.409143
vt 0.995849 0.498227
vt 0.991149 0.487803
vt 0.767848 0.498227
vt 0.991380 0.487700
vt 0.991594 0.487714
vt 0.991421 0.488012
vt 0.991657 0.487844
vt 0.991820 0.487729
vt 0.991306 0.487872
vt 0.888975 0.498227
vt 0.990974 0.487881
vt 0.890395 0.498227
vt 0.841031 0.409143
vt 0.841031 0.409143
vt 0.991634 0.487861
vt 0.790246 0.498227
vt 0.791666 0.498227
vt 0.991244 0.487906
vt 0.925020 0.498227
vt 0.990922 0.487904
vt 0.991570 0.487906
vt 0.851695 0.498227
vt 0.926306 0.498227
vt 0.889644 0.409143
vt 0.889644 0.409143
vt 0.852982 0.498227
vt 0.995849 0.428963
vt 0.991646 0.487718
vt 0.995849 0.429794
vt 0.939728 0.498227
vt 0.991780 0.487758
vt 0.939046 0.498227
vt 0.895238 0.498227
vt 0.995849 0.411717
vt 0.991599 0.487714
vt 0.995849 0.411138
vt 0.894564 0.498227
vt 0.991748 0.487780
vt 0.995849 0.419426
vt 0.991619 0.487716
vt 0.995849 0.418819
vt 0.914785 0.498227
vt 0.991762 0.487770
vt 0.915404 0.498227
vt 0.991486 0.487773
vt 0.991271 0.487748
vt 0.888090 0.498227
vt 0.886776 0.498227
vt 0.870279 0.409143
vt 0.870279 0.409143
vt 0.853781 0.498227
vt 0.855095 0.498227
vt 0.991719 0.487800
vt 0.995849 0.439441
vt 0.991013 0.487970
vt 0.995849 0.438878
vt 0.932000 0.498227
vt 0.990912 0.487909
vt 0.932606 0.498227
vt 0.995849 0.453805
vt 0.990966 0.487965
vt 0.995849 0.453345
vt 0.947917 0.498227
vt 0.990889 0.487919
vt 0.948408 0.498227
vt 0.995849 0.470303
vt 0.990911 0.487959
vt 0.995849 0.470053
vt 0.961658 0.498227
vt 0.990869 0.487928
vt 0.961962 0.498227
vn 0.012815 0.998579 -0.051733
vn 0.012815 0.998579 -0.051733
vn 0.012815 0.998579 -0.051733
vn 0.012815 0.998579 -0.051733
vn 0.084602 -0.000002 0.996415
vn 0.084602 -0.000002 0.996415
vn 0.084602 -0.000002 0.996415
vn 0.084602 -0.000002 0.996415
vn 0.000000 -1.000000 0.000000
vn 0.000000 -1.000000 0.000000
vn 0.000000 -1.000000 0.000000
vn 0.997085 0.000001 -0.076304
vn 0.997085 0.000001 -0.076304
vn 0.997085 0.000001 -0.076304
vn 0.997085 0.000001 -0.076304
vn 0.000000 1.000000 0.000000
vn 0.000000 1.000000 0.000000
vn 0.000000 1.000000 0.000000
vn 0.000000 1.000000 0.000000
vn -0.002931 0.000000 -0.999996
vn -0.002931 0.000000 -0.999996
vn -0.002931 0.000000 -0.999996
vn -0.002931 0.000000 -0.999996
vn 0.000000 -1.000000 0.000000
vn 0.000000 -1.000000 0.000000
vn 0.000000 -1.000000 0.000000
vn 0.000000 -1.000000 0.000000
vn 0.999410 -0.001630 0.034303
vn 0.999410 -0.001630 0.034303
vn 0.999410 -0.001630 0.034303
vn 0.999410 -0.001630 0.034303
vn 0.025222 0.994909 -0.097574
vn 0.025222 0.994909 -0.097574
vn 0.025222 0.994909 -0.097574
vn 0.025222 0.994909 -0.097574
vn 0.050143 0.000000 0.998742
vn 0.050143 0.000000 0.998742
vn 0.050143 0.000000 0.998742
vn 0.050143 0.000000 0.998742
vn 0.000000 -1.000000 0.000000
vn 0.000000 -1.000000 0.000000
vn 0.000000 -1.000000 0.000000
vn 0.000000 -1.000000 0.000000
vn -0.999819 -0.000017 0.019013
vn -0.999819 -0.000017 0.019013
vn -0.999819 -0.000017 0.019013
vn -0.999819 -0.000017 0.019013
vn 0.000000 1.000000 -0.000000
vn 0.000000 1.000000 -0.000000
vn 0.000000 1.000000 -0.000000
vn 0.000000 1.000000 -0.000000
vn 0.008033 -0.002414 -0.999965
vn 0.008033 -0.002414 -0.999965
vn 0.008033 -0.002414 -0.999965
vn 0.008033 -0.002414 -0.999965
vn 0.000000 -1.000000 0.000000
vn 0.000000 -1.000000 0.000000
vn 0.000000 -1.000000 0.000000
vn -0.999156 -0.001076 0.041060
vn -0.999156 -0.001076 0.041060
vn -0.999156 -0.001076 0.041060
vn -0.999156 -0.001076 0.041060
vn -0.056160 0.989799 0.130935
vn -0.056160 0.989799 0.130935
vn -0.056160 0.989799 0.130935
vn -0.056160 0.989799 0.130935
vn -0.013011 -0.998535 0.052526
vn -0.013011 -0.998535 0.052526
vn -0.013011 -0.998535 0.052526
vn -0.013011 -0.998535 0.052526
vn 0.999990 -0.004562 -0.000306
vn 0.999990 -0.004562 -0.000306
vn 0.999990 -0.004562 -0.000306
vn 0.999990 -0.004562 -0.000306
vn -0.045697 0.993578 0.103514
vn -0.045697 0.993578 0.103514
vn -0.045697 0.993578 0.103514
vn -0.045697 0.993578 0.103514
vn -0.025977 -0.994603 0.100445
vn -0.025977 -0.994603 0.100445
vn -0.025977 -0.994603 0.100445
vn -0.025977 -0.994603 0.100445
vn -0.999284 -0.006603 0.037262
vn -0.999284 -0.006603 0.037262
vn -0.999284 -0.006603 0.037262
vn -0.999284 -0.006603 0.037262
vn 0.056057 -0.989837 -0.130694
vn 0.056057 -0.989837 -0.130694
vn 0.056057 -0.989837 -0.130694
vn 0.056057 -0.989837 -0.130694
vn 0.999003 0.003339 -0.044508
vn 0.999003 0.003339 -0.044508
vn 0.999003 0.003339 -0.044508
vn 0.999004 0.003339 -0.044508
vn 0.045633 -0.993601 -0.103319
vn 0.045633 -0.993601 -0.103319
vn 0.045633 -0.993601 -0.103319
vn 0.045633 -0.993601 -0.103319
vn -0.994089 0.023613 -0.105970
vn -0.994089 0.023613 -0.105970
vn -0.994089 0.023613 -0.105970
vn -0.994089 0.023613 -0.105970
vn 0.000000 1.000000 -0.000000
vn 0.000000 1.000000 -0.000000
vn 0.000000 1.000000 -0.000000
vn 0.000000 1.000000 -0.000000
vn 0.000000 1.000000 -0.000000
vn 0.000000 1.000000 0.000000
vn 0.000000 1.000000 0.000000
vn 0.000000 1.000000 0.000000
vn 0.000000 1.000000 0.000000
vn 0.000000 1.000000 -0.000000
vn 0.000000 1.000000 -0.000000
vn 0.000000 1.000000 -0.000000
vn -0.041232 0.004435 -0.999140
vn -0.041232 0.004435 -0.999140
vn -0.041232 0.004435 -0.999140
vn -0.041232 0.004435 -0.999140
vn 0.145707 -0.976553 0.158473
vn 0.145707 -0.976553 0.158473
vn 0.145707 -0.976553 0.158473
vn 0.145707 -0.976553 0.158473
vn -0.977484 0.005018 -0.210950
vn -0.977484 0.005018 -0.210950
vn -0.977484 0.005018 -0.210950
vn -0.977484 0.005018 -0.210950
vn 0.151613 0.976269 0.154638
vn 0.151613 0.976269 0.154638
vn 0.151613 0.976269 0.154638
vn 0.151613 0.976269 0.154638
vn 0.503511 0.024202 -0.863650
vn 0.503511 0.024202 -0.863650
vn 0.503511 0.024202 -0.863650
vn 0.503511 0.024202 -0.863650
vn 0.000000 -1.000000 0.000000
vn 0.000000 -1.000000 0.000000
vn 0.000000 -1.000000 0.000000
vn 0.000000 -1.000000 0.000000
vn 0.000000 -1.000000 0.000000
vn -0.989299 -0.008947 0.145631
vn -0.989299 -0.008947 0.145631
vn -0.989299 -0.008947 0.145631
vn -0.989299 -0.008947 0.145631
vn -0.110320 -0.006899 -0.993872
vn -0.110320 -0.006899 -0.993872
vn -0.110320 -0.006899 -0.993872
vn -0.110320 -0.006899 -0.993872
vn -0.150692 -0.976556 -0.153720
vn -0.150692 -0.976556 -0.153720
vn -0.150692 -0.976556 -0.153720
vn -0.150692 -0.976556 -0.153720
vn -0.999418 0.005976 0.033586
vn -0.999418 0.005976 0.033586
vn -0.999418 0.005976 0.033586
vn -0.999418 0.005976 0.033586
vn -0.158606 0.972038 -0.173165
vn -0.158606 0.972038 -0.173166
vn -0.158606 0.972038 -0.173166
vn -0.158606 0.972038 -0.173166
vn 0.000000 1.000000 0.000000
vn 0.000000 1.000000 0.000000
vn 0.000000 1.000000 0.000000
vn 0.000000 1.000000 0.000000
vn 0.000000 -1.000000 0.000000
vn 0.000000 -1.000000 0.000000
vn 0.000000 -1.000000 0.000000
vn 0.000000 -1.000000 0.000000
vn 0.999300 0.006304 -0.036866
vn 0.999300 0.006304 -0.036866
vn 0.999300 0.006304 -0.036866
vn 0.999300 0.006304 -0.036866
vn 0.000000 1.000000 -0.000000
vn 0.000000 1.000000 -0.000000
vn 0.000000 1.000000 -0.000000
vn 0.000000 1.000000 -0.000000
vn 0.000000 1.000000 -0.000000
vn 0.000000 -1.000000 0.000000
vn 0.000000 -1.000000 0.000000
vn 0.000000 -1.000000 0.000000
vn 0.000000 -1.000000 0.000000
vn -0.999809 -0.000015 -0.019555
vn -0.999809 -0.000015 -0.019555
vn -0.999809 -0.000015 -0.019555
vn -0.999809 -0.000015 -0.019555
vn -0.119848 0.006880 0.992768
vn -0.119848 0.006880 0.992768
vn -0.119848 0.006880 0.992768
vn -0.119848 0.006880 0.992768
vn 0.000000 -1.000000 0.000000
vn 0.000000 -1.000000 0.000000
vn 0.000000 -1.000000 0.000000
vn 0.000000 -1.000000 0.000000
vn 0.000000 -1.000000 0.000000
vn 0.999819 -0.000014 -0.019021
vn 0.999819 -0.000014 -0.019021
vn 0.999819 -0.000014 -0.019021
vn 0.999819 -0.000014 -0.019021
vn -0.178693 0.971229 -0.157427
vn -0.178693 0.971229 -0.157427
vn -0.178693 0.971229 -0.157427
vn -0.178693 0.971229 -0.157427
vn -0.138424 0.015485 0.990252
vn -0.138424 0.015485 0.990252
vn -0.138424 0.015485 0.990252
vn -0.138424 0.015485 0.990252
vn 0.177597 -0.971586 0.156460
vn 0.177597 -0.971586 0.156460
vn 0.177597 -0.971586 0.156460
vn 0.177597 -0.971586 0.156460
vn 0.999432 -0.006196 0.033125
vn 0.999432 -0.006196 0.033125
vn 0.999432 -0.006196 0.033125
vn 0.999432 -0.006196 0.033125
vn 0.224706 0.958064 0.177823
vn 0.224706 0.958064 0.177823
vn 0.224706 0.958064 0.177823
vn 0.224706 0.958064 0.177823
vn 0.177732 -0.006820 0.984055
vn 0.177732 -0.006820 0.984055
vn 0.177732 -0.006820 0.984055
vn 0.177732 -0.006820 0.984055
vn -0.221725 -0.959191 -0.175475
vn -0.221725 -0.959191 -0.175475
vn -0.221725 -0.959191 -0.175475
vn -0.221725 -0.959191 -0.175475
vn 0.995892 0.002022 -0.090530
vn 0.995892 0.002022 -0.090530
vn 0.995892 0.002022 -0.090530
vn 0.995892 0.002022 -0.090530
vn 0.000000 1.000000 -0.000000
vn 0.000000 1.000000 -0.000000
vn 0.000000 1.000000 -0.000000
s off
f 7/7/1 8/8/2 22/42/3 21/41/4
f 3/2/5 57/95/6 58/97/7 4/4/8
f 4/5/9 58/96/10 59/99/11
f 4/4/12 59/98/13 60/100/14 3/2/15
f 7/9/16 45/77/17 46/79/18 8/10/19
f 11/12/20 12/14/21 10/13/22 9/11/23
f 12/33/24 44/75/25 43/74/26 10/34/27
f 12/14/28 11/12/29 45/77/30 44/76/31
f 16/17/32 24/46/33 22/43/34 8/20/35
f 13/18/36 14/21/37 2/22/38 1/19/39
f 14/35/40 27/50/41 25/47/42 2/15/43
f 14/21/44 13/18/45 30/55/46 27/51/47
f 16/25/48 8/26/49 46/78/50 47/80/51
f 17/28/52 31/56/53 32/58/54 18/30/55
f 18/37/56 32/57/57 33/60/58
f 18/30/59 33/59/60 34/61/61 17/28/62
f 21/41/63 22/42/64 29/53/65 28/52/66
f 20/40/67 19/38/68 5/24/69 6/31/70
f 21/41/71 20/39/72 6/6/73 7/7/74
f 22/43/75 24/46/76 30/55/77 29/54/78
f 19/38/79 23/44/80 15/36/81 5/24/82
f 23/45/83 24/46/84 16/17/85 15/23/86
f 26/49/87 25/47/88 19/38/89 20/40/90
f 28/52/91 26/48/92 20/39/93 21/41/94
f 25/47/95 27/50/96 23/44/97 19/38/98
f 27/51/99 30/55/100 24/46/101 23/45/102
f 28/52/103 29/53/104 1/1/105 49/83/106 52/88/107
f 29/54/108 30/55/109 13/18/110 1/19/111
f 34/61/112 31/56/113 17/28/114
f 32/58/115 31/56/116 39/68/117 40/70/118
f 33/60/119 32/57/120 40/69/121 41/72/122
f 34/61/123 33/59/124 41/71/125 42/73/126
f 35/62/127 36/63/128 39/68/129 42/73/130
f 37/65/131 36/63/132 9/27/133 10/29/134
f 38/67/135 37/64/136 10/34/137 43/74/138 48/82/139
f 35/62/140 38/66/141 48/81/142 47/80/143
f 40/70/144 39/68/145 36/63/146 37/65/147
f 41/72/148 40/69/149 37/64/150 38/67/151
f 42/73/152 41/71/153 38/66/154 35/62/155
f 42/73/156 39/68/157 31/56/158 34/61/159
f 46/79/160 45/77/161 11/12/162 9/11/163
f 43/74/164 44/75/165 6/31/166 5/24/167
f 44/76/168 45/77/169 7/9/170 6/16/171
f 47/80/172 46/78/173 9/27/174 36/63/175 35/62/176
f 48/82/177 43/74/178 5/24/179 15/36/180
f 47/80/181 48/81/182 15/32/183 16/25/184
f 50/85/185 49/83/186 1/1/187 2/3/188
f 51/87/189 50/84/190 2/15/191 25/47/192 26/49/193
f 52/88/194 51/86/195 26/48/196 28/52/197
f 52/88/198 49/83/199 53/89/200 56/94/201
f 54/91/202 53/89/203 49/83/204 50/85/205
f 55/93/206 54/90/207 50/84/208 51/87/209
f 56/94/210 55/92/211 51/86/212 52/88/213
f 56/94/214 53/89/215 57/95/216 60/100/217
f 58/97/218 57/95/219 53/89/220 54/91/221
f 59/99/222 58/96/223 54/90/224 55/93/225
f 60/100/226 59/98/227 55/92/228 56/94/229
f 60/100/230 57/95/231 3/2/232
