# This file uses centimeters as units for non-parametric coordinates.

v -12.089027 -9.769114 40.808914
v 11.487812 -8.407531 38.722427
v -12.089027 6.014842 40.808914
v 11.487812 8.407531 38.722427
v -20.629036 7.280686 -30.446041
v 35.173916 0.284932 -38.397903
v -21.961126 -11.034960 -34.547142
v 35.743435 -7.317554 -39.259354
v -37.748543 9.026340 -3.218537
v 36.155693 2.091161 5.858231
v 34.458549 -9.196986 7.007904
v -37.748543 -12.780611 -3.218536
v 9.255441 13.764970 2.554395
v 16.167183 -13.909715 3.403284
v -45.232075 -3.254899 -3.218536
v -35.804329 7.097321 18.265724
v -39.324276 -7.178483 16.582117
v -37.678135 -11.248385 12.464714
v -9.245499 10.271704 -19.987598
v 7.042814 3.905523 -53.075974
v 6.933463 -9.168554 -52.541031
v -6.469265 -12.332297 -20.022350
v 11.817914 6.784745 -22.067793
v 29.675936 1.130762 -15.925587
v 30.562799 -8.123846 -16.728458
v 14.273489 -10.499866 -20.906290
v -43.457409 7.097321 36.713451
v -46.050797 -7.178483 35.784607
v -22.973867 -9.769114 47.305763
v -22.973867 6.014842 47.305763
vt 0.060998 0.122767
vt 0.060574 0.122670
vt 0.060563 0.122434
vt 0.061004 0.122580
vt 0.061292 0.122150
vt 0.060699 0.122046
vt 0.061216 0.121830
vt 0.061203 0.122055
vt 0.060623 0.122378
vt 0.061271 0.122414
vt 0.061371 0.122316
vt 0.060397 0.122319
vt 0.060371 0.122169
vt 0.060647 0.121810
vt 0.060665 0.121913
vt 0.061107 0.122425
vt 0.061146 0.122588
vt 0.061132 0.122594
vt 0.060978 0.121930
vt 0.060944 0.121821
vt 0.060938 0.121985
vt 0.060941 0.122201
vt 0.060672 0.121924
vt 0.060511 0.121986
vt 0.060544 0.122096
vt 0.060644 0.122141
vt 0.061107 0.122425
vt 0.061146 0.122588
vt 0.060998 0.122767
vt 0.061004 0.122580
vn 0.059483 0.000000 0.998229
vn 0.059483 0.000000 0.998229
vn 0.059483 0.000000 0.998229
vn 0.059483 0.000000 0.998229
vn -0.090286 0.992719 -0.079738
vn -0.100443 0.990184 -0.097191
vn -0.090286 0.992719 -0.079738
vn -0.014356 -0.998472 -0.053362
vn -0.016472 -0.998221 -0.057294
vn -0.014356 -0.998472 -0.053362
vn -0.869471 -0.233707 -0.435203
vn -0.869471 -0.233707 -0.435203
vn -0.869471 -0.233707 -0.435203
vn -0.869471 -0.233707 -0.435203
vn -0.107208 0.988315 0.108353
vn -0.107208 0.988315 0.108353
vn -0.107208 0.988315 0.108353
vn -0.098543 0.986421 0.131387
vn 0.220561 -0.964931 0.142344
vn 0.220561 -0.964931 0.142344
vn 0.220561 -0.964931 0.142344
vn -0.753965 -0.592326 0.284056
vn -0.673059 -0.667014 0.319505
vn -0.751633 -0.625929 0.207992
vn 0.388885 0.918028 0.077421
vn 0.388885 0.918028 0.077421
vn 0.388885 0.918028 0.077421
vn 0.126354 0.959346 -0.252370
vn 0.105502 0.979505 -0.171580
vn 0.150354 0.980471 -0.126771
vn 0.803377 -0.022037 0.595063
vn 0.803377 -0.022037 0.595063
vn 0.803377 -0.022037 0.595063
vn 0.803377 -0.022037 0.595063
vn 0.950796 -0.201172 -0.235620
vn 0.999303 0.000258 -0.037329
vn 0.999902 0.005887 -0.012709
vn 0.950796 -0.201172 -0.235620
vn -0.032336 -0.042432 -0.998576
vn -0.258131 0.098214 -0.961105
vn -0.248433 0.097450 -0.963735
vn -0.032336 -0.042432 -0.998576
vn -0.010929 -0.994352 0.105571
vn -0.017324 -0.995624 0.091826
vn -0.017324 -0.995624 0.091826
vn -0.017324 -0.995624 0.091826
vn 0.203563 -0.975241 -0.086412
vn 0.204306 -0.974989 -0.087493
vn 0.267625 -0.957679 -0.105961
vn 0.075589 -0.987329 -0.139526
vn 0.076070 -0.994795 -0.067793
vn 0.064358 -0.994388 -0.083967
vn -0.451867 0.011421 0.892012
vn -0.451867 0.011421 0.892012
vn -0.890187 0.237367 0.388875
vn -0.890187 0.237367 0.388875
vn -0.812148 0.494880 -0.309048
vn -0.812148 0.494880 -0.309048
vn -0.812148 0.494880 -0.309048
vn 0.408462 0.902413 -0.137150
vn 0.370725 0.917696 -0.142822
vn 0.369251 0.918834 -0.139280
vn -0.098543 0.986421 0.131387
vn -0.107208 0.988315 0.108353
vn -0.107208 0.988315 0.108353
vn -0.890187 0.237367 0.388875
vn -0.890187 0.237367 0.388875
vn -0.905423 0.360987 0.223377
vn -0.905423 0.360987 0.223377
vn -0.751633 -0.625929 0.207992
vn -0.673059 -0.667014 0.319505
vn -0.753965 -0.592326 0.284056
vn -0.753965 -0.592326 0.284056
vn -0.017324 -0.995624 0.091826
vn -0.017324 -0.995624 0.091826
vn -0.010929 -0.994352 0.105571
vn -0.090286 0.992719 -0.079738
vn -0.090286 0.992719 -0.079738
vn -0.100443 0.990184 -0.097191
vn 0.150354 0.980471 -0.126771
vn 0.105502 0.979505 -0.171580
vn 0.165701 0.976342 -0.138926
vn 0.126354 0.959346 -0.252370
vn -0.248433 0.097450 -0.963735
vn -0.258131 0.098214 -0.961105
vn -0.032336 -0.042432 -0.998576
vn -0.032336 -0.042432 -0.998576
vn 0.064358 -0.994388 -0.083967
vn 0.076070 -0.994795 -0.067793
vn 0.075589 -0.987329 -0.139526
vn 0.088037 -0.993094 -0.077545
vn -0.014356 -0.998472 -0.053362
vn -0.016472 -0.998221 -0.057294
vn -0.014356 -0.998472 -0.053362
vn 0.165701 0.976342 -0.138926
vn 0.105502 0.979505 -0.171580
vn 0.126354 0.959346 -0.252370
vn 0.369251 0.918834 -0.139280
vn 0.370725 0.917696 -0.142822
vn 0.408462 0.902413 -0.137150
vn 0.408462 0.902413 -0.137150
vn 0.999902 0.005887 -0.012709
vn 0.999303 0.000258 -0.037329
vn 0.950796 -0.201172 -0.235620
vn 0.950796 -0.201172 -0.235620
vn 0.267625 -0.957679 -0.105961
vn 0.204306 -0.974989 -0.087493
vn 0.203563 -0.975241 -0.086412
vn 0.267625 -0.957679 -0.105961
vn 0.064358 -0.994388 -0.083967
vn 0.088037 -0.993094 -0.077545
vn 0.075589 -0.987329 -0.139526
vn -0.909881 0.226616 -0.347507
vn -0.909881 0.226616 -0.347507
vn -0.909881 0.226616 -0.347507
vn -0.909881 0.226616 -0.347507
vn -0.069016 -0.996494 -0.047296
vn -0.069016 -0.996494 -0.047296
vn -0.890187 0.237367 0.388875
vn -0.069016 -0.996494 -0.047296
vn 0.512519 0.000000 0.858676
vn 0.512519 0.000000 0.858676
vn -0.890187 0.237367 0.388875
vn -0.890187 0.237367 0.388875
vn 0.031432 0.999233 0.023359
vn 0.031432 0.999233 0.023359
vn 0.031432 0.999233 0.023359
vn -0.890187 0.237367 0.388875
s off
f 1/1/1 2/2/2 4/3/3 3/4/4
f 9/5/5 19/19/6 5/7/7
f 7/8/8 22/22/9 12/10/10
f 7/8/11 12/10/12 15/11/13 5/7/14
f 3/4/15 4/3/16 13/6/17 16/16/18
f 2/2/19 14/9/20 11/12/21
f 1/1/22 17/17/23 18/18/24
f 13/6/25 4/3/26 10/13/27
f 5/7/28 19/19/29 20/20/30
f 2/2/31 11/12/32 10/13/33 4/3/34
f 6/14/35 24/24/36 25/25/37 8/15/38
f 5/7/39 20/20/40 21/21/41 7/8/42
f 18/18/43 14/9/44 2/2/45 1/1/46
f 25/25/47 26/26/48 8/15/49
f 7/8/50 21/21/51 22/22/52
f 27/27/53 28/28/54 29/29/55 30/30/56
f 5/7/57 15/11/58 9/5/59
f 6/14/60 23/23/61 24/24/62
f 16/16/63 13/6/64 9/5/65
f 9/5/66 15/11/67 17/17/68 16/16/69
f 18/18/70 17/17/71 15/11/72 12/10/73
f 12/10/74 14/9/75 18/18/76
f 9/5/77 13/6/78 19/19/79
f 20/20/80 19/19/81 23/23/82 6/14/83
f 21/21/84 20/20/85 6/14/86 8/15/87
f 22/22/88 21/21/89 8/15/90 26/26/91
f 12/10/92 22/22/93 14/9/94
f 23/23/95 19/19/96 13/6/97
f 24/24/98 23/23/99 13/6/100 10/13/101
f 25/25/102 24/24/103 10/13/104 11/12/105
f 14/9/106 26/26/107 25/25/108 11/12/109
f 22/22/110 26/26/111 14/9/112
f 16/16/113 17/17/114 28/28/115 27/27/116
f 17/17/117 1/1/118 29/29/119 28/28/120
f 1/1/121 3/4/122 30/30/123 29/29/124
f 3/4/125 16/16/126 27/27/127 30/30/128
