# This file uses centimeters as units for non-parametric coordinates.

v -2.605872 30.757927 10.130101
v -1.824188 30.555618 10.885150
v -3.245400 41.455276 13.459929
v -2.271878 41.203308 14.400279
v 2.605872 30.757927 10.130101
v 1.824188 30.555618 10.885150
v 2.271878 41.203308 14.400279
v 3.245400 41.455276 13.459929
v -2.271878 42.883255 8.130649
v -3.245400 42.631287 9.070998
v -2.605872 31.702202 6.606042
v -1.824188 31.904510 5.850993
v 3.245400 42.631287 9.070998
v 2.271878 42.883255 8.130649
v 2.605872 31.702202 6.606042
v 1.824188 31.904510 5.850993
v -0.973523 45.047455 12.070430
v 0.000000 44.795486 13.010781
v 0.973523 45.047455 12.070430
v 0.000000 45.299423 11.130078
v -2.271878 31.806923 11.882527
v 2.271878 31.806915 11.882524
v 3.245401 32.058891 10.942176
v 3.245400 33.234894 6.553243
v 2.271878 33.486870 5.612893
v -2.271878 33.486862 5.612893
v -3.245401 33.234901 6.553245
v -3.245400 32.058884 10.942174
v -2.067079 0.308880 -1.152774
v -0.000000 0.617760 -2.305526
v 2.067079 0.308880 -1.152774
v 2.067079 -0.308887 1.152774
v 0.000000 -0.617767 2.305526
v -2.067079 -0.308887 1.152774
v -2.165439 31.553650 7.160447
v -2.165444 30.906479 9.575696
v 0.000000 30.582901 10.783307
v 2.165439 30.906479 9.575696
v 2.165439 31.553650 7.160447
v -0.000000 31.877228 5.952836
vt 0.273782 0.378780
vt 0.273706 0.378677
vt 0.273359 0.378594
vt 0.273289 0.378657
vt 0.273769 0.379158
vt 0.273692 0.379213
vt 0.273234 0.379561
vt 0.273315 0.379505
vt 0.272915 0.379380
vt 0.272990 0.379319
vt 0.273361 0.379110
vt 0.273293 0.379015
vt 0.272804 0.379318
vt 0.272880 0.379427
vt 0.272832 0.379262
vt 0.273224 0.378962
vt 0.273311 0.379083
vt 0.272906 0.379199
vt 0.272782 0.378919
vt 0.272851 0.378852
vt 0.273678 0.379223
vt 0.273346 0.379119
vt 0.273278 0.379024
vt 0.273274 0.378665
vt 0.273343 0.378602
vt 0.273691 0.378686
vt 0.273767 0.378790
vt 0.273755 0.379169
vt 0.015986 0.328414
vt 0.015992 0.328509
vt 0.016158 0.328541
vt 0.016153 0.328437
vt 0.015955 0.328606
vt 0.016119 0.328646
vt 0.015912 0.328608
vt 0.016073 0.328650
vt 0.015905 0.328512
vt 0.016068 0.328545
vt 0.015943 0.328414
vt 0.016108 0.328438
vn 0.000000 -0.965926 -0.258819
vn 0.000000 -0.965926 -0.258819
vn 0.000000 -0.965926 -0.258819
vn 0.000000 -0.965926 -0.258819
vn -0.707107 -0.183013 0.683013
vn -0.707107 -0.183013 0.683013
vn -0.707107 -0.183013 0.683013
vn -0.707107 -0.183013 0.683013
vn -0.491809 0.566732 0.661013
vn -0.491809 0.566732 0.661013
vn -0.491809 0.566732 0.661013
vn -0.491809 0.566732 0.661013
vn 0.707107 -0.183013 0.683013
vn 0.707107 -0.183013 0.683013
vn 0.707107 -0.183013 0.683013
vn 0.707107 -0.183013 0.683013
vn 0.491809 0.566732 0.661013
vn 0.491809 0.566732 0.661013
vn 0.491809 0.566732 0.661013
vn 0.491809 0.566732 0.661013
vn -0.491809 0.821311 -0.289088
vn -0.491809 0.821311 -0.289088
vn -0.491809 0.821311 -0.289088
vn -0.491809 0.821311 -0.289088
vn -0.707107 0.183013 -0.683013
vn -0.707107 0.183013 -0.683013
vn -0.707107 0.183013 -0.683013
vn -0.707107 0.183013 -0.683013
vn 0.491809 0.821311 -0.289088
vn 0.491809 0.821311 -0.289088
vn 0.491809 0.821311 -0.289088
vn 0.491809 0.821311 -0.289088
vn 0.707107 0.183013 -0.683013
vn 0.707107 0.183013 -0.683013
vn 0.707107 0.183013 -0.683013
vn 0.707107 0.183013 -0.683013
vn 0.000000 -0.258819 0.965926
vn 0.000000 -0.258819 0.965926
vn 0.000000 -0.258819 0.965926
vn 0.000000 -0.258819 0.965926
vn -0.000000 0.258819 -0.965926
vn -0.000000 0.258819 -0.965926
vn -0.000000 0.258819 -0.965926
vn -0.000000 0.258819 -0.965926
vn 1.000000 0.000000 -0.000000
vn 1.000000 0.000000 -0.000000
vn 1.000000 0.000000 -0.000000
vn 1.000000 0.000000 -0.000000
vn -1.000000 -0.000000 0.000000
vn -1.000000 -0.000000 0.000000
vn -1.000000 -0.000000 0.000000
vn -1.000000 -0.000000 0.000000
vn 0.000000 0.360763 0.932658
vn 0.000000 0.360763 0.932658
vn 0.000000 0.360763 0.932658
vn 0.807506 0.569760 0.152667
vn 0.807506 0.569760 0.152667
vn 0.807506 0.569760 0.152667
vn 0.000000 0.778758 -0.627324
vn 0.000000 0.778758 -0.627324
vn 0.000000 0.778758 -0.627324
vn -0.807506 0.569760 0.152667
vn -0.807506 0.569760 0.152667
vn -0.807506 0.569760 0.152667
vn 0.000000 0.965926 0.258819
vn 0.000000 0.965926 0.258819
vn 0.000000 0.965926 0.258819
vn 0.000000 0.965926 0.258819
vn 0.000000 -0.965926 -0.258819
vn 0.000000 -0.965926 -0.258819
vn 0.000000 -0.965926 -0.258819
vn 0.000000 -0.965926 -0.258819
vn 0.000000 -0.965926 -0.258819
vn 0.000000 -0.965926 -0.258819
vn 0.000000 -0.965926 -0.258819
vn 0.000000 -0.965926 -0.258819
vn -0.000000 -0.623296 0.781986
vn -0.000000 -0.623296 0.781986
vn -0.000000 -0.623296 0.781986
vn -0.000000 -0.623296 0.781986
vn 0.626299 -0.610501 0.484808
vn 0.626299 -0.610501 0.484808
vn 0.626299 -0.610501 0.484808
vn 0.626299 -0.610501 0.484808
vn 0.916661 -0.386047 -0.103441
vn 0.916661 -0.386047 -0.103441
vn 0.916661 -0.386047 -0.103441
vn 0.916661 -0.386047 -0.103441
vn 0.626297 -0.286306 -0.725107
vn 0.626297 -0.286306 -0.725107
vn 0.626297 -0.286306 -0.725107
vn 0.626297 -0.286306 -0.725107
vn 0.000000 -0.148798 -0.988868
vn 0.000000 -0.148798 -0.988868
vn 0.000000 -0.148798 -0.988868
vn 0.000000 -0.148798 -0.988868
vn -0.626299 -0.286306 -0.725106
vn -0.626299 -0.286306 -0.725106
vn -0.626299 -0.286306 -0.725106
vn -0.626299 -0.286306 -0.725106
vn -0.916661 -0.386047 -0.103441
vn -0.916661 -0.386047 -0.103441
vn -0.916661 -0.386047 -0.103441
vn -0.916661 -0.386047 -0.103441
vn -0.626297 -0.610502 0.484809
vn -0.626297 -0.610502 0.484809
vn -0.626297 -0.610502 0.484809
vn -0.626297 -0.610502 0.484809
vn -0.999995 -0.002938 -0.000788
vn -0.999995 -0.002938 -0.000788
vn -0.999995 -0.002938 -0.000788
vn -0.999995 -0.002938 -0.000788
vn -0.499994 -0.227082 0.835727
vn -0.499994 -0.227082 0.835727
vn -0.499994 -0.227082 0.835727
vn -0.499994 -0.227082 0.835727
vn 0.499995 -0.227082 0.835727
vn 0.499995 -0.227082 0.835727
vn 0.499995 -0.227082 0.835727
vn 0.499995 -0.227082 0.835727
vn 0.999995 -0.002939 -0.000787
vn 0.999995 -0.002939 -0.000787
vn 0.999995 -0.002939 -0.000787
vn 0.999995 -0.002939 -0.000787
vn 0.499995 0.221205 -0.837301
vn 0.499995 0.221205 -0.837301
vn 0.499995 0.221205 -0.837301
vn 0.499995 0.221205 -0.837301
vn -0.499995 0.221205 -0.837301
vn -0.499995 0.221205 -0.837301
vn -0.499995 0.221205 -0.837301
vn -0.499995 0.221205 -0.837301
s off
f 11/1/1 12/2/2 16/3/3 15/4/4
f 28/28/5 21/21/6 4/7/7 3/8/8
f 3/8/9 4/7/10 18/9/11 17/10/12
f 22/22/13 23/23/14 8/13/15 7/14/16
f 7/14/17 8/13/18 19/15/19 18/9/20
f 9/16/21 10/17/22 17/10/23 20/18/24
f 10/17/25 9/16/26 26/26/27 27/27/28
f 13/19/29 14/20/30 20/18/31 19/15/32
f 14/20/33 13/19/34 24/24/35 25/25/36
f 4/7/37 21/21/38 22/22/39 7/14/40
f 9/16/41 14/20/42 25/25/43 26/26/44
f 8/13/45 23/23/46 24/24/47 13/19/48
f 10/17/49 27/27/50 28/28/51 3/8/52
f 4/7/53 7/14/54 18/9/55
f 8/13/56 13/19/57 19/15/58
f 14/20/59 9/16/60 20/18/61
f 10/17/62 3/8/63 17/10/64
f 17/10/65 18/9/66 19/15/67 20/18/68
f 1/5/69 5/12/70 6/11/71 2/6/72
f 11/1/73 15/4/74 5/12/75 1/5/76
f 22/22/77 21/21/78 2/6/79 6/11/80
f 6/11/81 5/12/82 23/23/83 22/22/84
f 24/24/85 23/23/86 5/12/87 15/4/88
f 25/25/89 24/24/90 15/4/91 16/3/92
f 26/26/93 25/25/94 16/3/95 12/2/96
f 27/27/97 26/26/98 12/2/99 11/1/100
f 28/28/101 27/27/102 11/1/103 1/5/104
f 1/5/105 2/6/106 21/21/107 28/28/108
f 29/29/109 34/30/110 36/31/111 35/32/112
f 34/30/113 33/33/114 37/34/115 36/31/116
f 33/33/117 32/35/118 38/36/119 37/34/120
f 32/35/121 31/37/122 39/38/123 38/36/124
f 31/37/125 30/39/126 40/40/127 39/38/128
f 30/39/129 29/29/130 35/32/131 40/40/132
