# This file uses centimeters as units for non-parametric coordinates.

v 6.847557 21.846313 -15.156295
v 6.847556 28.651909 -5.789187
v 12.185711 28.651913 -5.789187
v 12.185709 21.846312 -15.156298
v 6.847557 28.651909 5.789193
v 12.185714 28.651913 5.789191
v 6.847557 21.846310 15.156298
v 12.185714 21.846310 15.156298
v 6.847557 10.834616 18.734209
v 12.185711 10.834616 18.734209
v 6.847556 10.834618 -18.734207
v 12.185709 10.834618 -18.734207
v 12.185714 20.177618 12.859540
v 12.185711 10.834617 15.895262
v 12.185709 10.834618 -15.895248
v 12.185709 20.177620 -12.859540
v 12.185711 25.951912 -4.911905
v 12.185713 25.951912 4.911908
v 14.282972 19.869707 12.240402
v 14.282969 10.834617 15.129963
v 14.282969 10.834618 -15.129951
v 14.282969 19.869709 -12.240400
v 14.282969 25.287300 -4.675414
v 14.282971 25.287300 4.675418
v -6.847557 21.846313 15.156295
v -6.847556 28.651909 5.789187
v -12.185711 28.651913 5.789187
v -12.185709 21.846312 15.156298
v -6.847557 28.651909 -5.789193
v -12.185714 28.651913 -5.789191
v -6.847557 21.846310 -15.156298
v -12.185714 21.846310 -15.156298
v -6.847557 10.834616 -18.734209
v -12.185711 10.834616 -18.734209
v -6.847556 10.834618 18.734207
v -12.185709 10.834618 18.734207
v -12.185714 20.177618 -12.859540
v -12.185711 10.834617 -15.895262
v -12.185709 10.834618 15.895248
v -12.185709 20.177620 12.859540
v -12.185711 25.951912 4.911905
v -12.185713 25.951912 -4.911908
v -14.282972 19.869707 -12.240402
v -14.282969 10.834617 -15.129963
v -14.282969 10.834618 15.129951
v -14.282969 19.869709 12.240400
v -14.282969 25.287300 4.675414
v -14.282971 25.287300 -4.675418
v 17.582008 10.834618 22.947727
v -17.582008 10.834618 22.947727
v 20.329321 -7.644720 25.476513
v -20.329321 -7.644720 25.476513
v 20.329321 -7.644720 -25.476513
v -20.329321 -7.644720 -25.476513
v 17.582008 10.834618 -22.947727
v -17.582008 10.834618 -22.947727
v 20.329321 6.663117 25.476513
v -20.329321 6.663117 25.476513
v -20.329321 6.663117 -25.476513
v 20.329321 6.663117 -25.476513
v 6.847557 10.834618 -18.747725
v -6.847556 10.834618 -18.747725
v -6.847556 10.834618 18.747725
v 6.847557 10.834618 18.747725
v 6.847557 7.215483 -18.747725
v -6.847556 7.215483 -18.747725
v -6.847556 7.215483 18.747725
v 6.847557 7.215483 18.747725
vt 0.081720 0.271075
vt 0.081673 0.271019
vt 0.081374 0.270985
vt 0.081441 0.271042
vt 0.081599 0.271162
vt 0.081282 0.271123
vt 0.081531 0.271470
vt 0.081206 0.271425
vt 0.081503 0.271797
vt 0.081185 0.271747
vt 0.081730 0.271276
vt 0.081465 0.271242
vt 0.081206 0.271425
vt 0.081198 0.271741
vt 0.081450 0.271286
vt 0.081441 0.271042
vt 0.081374 0.270985
vt 0.081282 0.271123
vt 0.081206 0.271425
vt 0.081198 0.271741
vt 0.081450 0.271286
vt 0.081441 0.271042
vt 0.081374 0.270985
vt 0.081282 0.271123
vt 0.081720 0.271075
vt 0.081673 0.271019
vt 0.081374 0.270985
vt 0.081441 0.271042
vt 0.081599 0.271162
vt 0.081282 0.271123
vt 0.081531 0.271470
vt 0.081206 0.271425
vt 0.081503 0.271797
vt 0.081185 0.271747
vt 0.081730 0.271276
vt 0.081465 0.271242
vt 0.081206 0.271425
vt 0.081198 0.271741
vt 0.081450 0.271286
vt 0.081441 0.271042
vt 0.081374 0.270985
vt 0.081282 0.271123
vt 0.081198 0.271741
vt 0.081206 0.271425
vt 0.081441 0.271042
vt 0.081450 0.271286
vt 0.081282 0.271123
vt 0.081374 0.270985
vt 0.273300 0.348482
vt 0.274032 0.348256
vt 0.274004 0.348406
vt 0.273311 0.348633
vt 0.273632 0.347885
vt 0.273070 0.348024
vt 0.273638 0.347747
vt 0.273050 0.347881
vt 0.012614 0.008207
vt 0.013170 0.008265
vt 0.013019 0.009096
vt 0.012170 0.008953
vt 0.273295 0.348424
vt 0.274043 0.348199
vt 0.273640 0.347694
vt 0.273043 0.347827
vt 0.273640 0.347694
vt 0.273043 0.347827
vt 0.274043 0.348199
vt 0.273295 0.348424
vt 0.273640 0.347694
vt 0.273043 0.347827
vt 0.274043 0.348199
vt 0.273295 0.348424
vn -0.000000 0.809017 -0.587785
vn -0.000000 0.809017 -0.587785
vn -0.000000 0.809017 -0.587785
vn -0.000000 0.809017 -0.587785
vn -0.000001 1.000000 -0.000000
vn -0.000001 1.000000 -0.000000
vn -0.000001 1.000000 -0.000000
vn -0.000001 1.000000 -0.000000
vn -0.000000 0.809017 0.587785
vn -0.000000 0.809017 0.587785
vn -0.000000 0.809017 0.587785
vn -0.000000 0.809017 0.587785
vn 0.000000 0.309017 0.951057
vn 0.000000 0.309017 0.951057
vn 0.000000 0.309017 0.951057
vn 0.000000 0.309017 0.951057
vn 0.000000 0.309017 -0.951057
vn 0.000000 0.309017 -0.951057
vn 0.000000 0.309017 -0.951057
vn 0.000000 0.309017 -0.951057
vn 1.000000 -0.000000 -0.000000
vn 1.000000 -0.000000 -0.000000
vn 1.000000 -0.000000 -0.000000
vn 1.000000 -0.000000 -0.000000
vn 1.000000 -0.000000 -0.000000
vn 1.000000 -0.000000 -0.000000
vn 1.000000 -0.000000 -0.000000
vn 1.000000 -0.000000 -0.000000
vn -1.000000 0.000000 0.000000
vn -1.000000 0.000000 0.000000
vn -1.000000 0.000000 0.000000
vn -1.000000 0.000000 0.000000
vn -1.000000 0.000000 0.000000
vn -1.000000 0.000000 0.000000
vn -1.000000 0.000000 0.000000
vn -1.000000 0.000000 0.000000
vn 1.000000 -0.000000 0.000000
vn 1.000000 -0.000000 0.000000
vn 1.000000 -0.000000 0.000000
vn 1.000000 -0.000000 0.000000
vn 1.000000 -0.000000 0.000000
vn 1.000000 -0.000000 0.000000
vn 1.000000 -0.000000 0.000000
vn 1.000000 -0.000000 0.000000
vn 1.000000 -0.000000 -0.000000
vn 1.000000 -0.000000 -0.000000
vn 1.000000 -0.000000 -0.000000
vn 1.000000 -0.000000 -0.000000
vn 1.000000 -0.000000 -0.000000
vn 1.000000 -0.000000 -0.000000
vn 1.000000 -0.000000 -0.000000
vn 1.000000 -0.000000 -0.000000
vn 1.000000 -0.000000 -0.000000
vn 1.000000 -0.000000 -0.000000
vn 1.000000 -0.000000 -0.000000
vn 1.000000 -0.000000 -0.000000
vn 0.319065 0.290817 0.902011
vn 0.319065 0.290817 0.902011
vn 0.319065 0.290817 0.902011
vn 0.319065 0.290817 0.902011
vn -0.000000 -1.000000 -0.000000
vn -0.000000 -1.000000 -0.000000
vn -0.000000 -1.000000 -0.000000
vn -0.000000 -1.000000 -0.000000
vn 0.319065 0.290816 -0.902011
vn 0.319065 0.290816 -0.902011
vn 0.319065 0.290816 -0.902011
vn 0.319065 0.290816 -0.902011
vn 0.302090 0.953279 0.000000
vn 0.302090 0.953279 0.000000
vn 0.302090 0.953279 0.000000
vn 0.302090 0.953279 0.000000
vn 0.293812 0.775175 0.559266
vn 0.293812 0.775175 0.559266
vn 0.293812 0.775175 0.559266
vn 0.293812 0.775175 0.559266
vn 0.293812 0.775175 -0.559265
vn 0.293812 0.775175 -0.559265
vn 0.293812 0.775175 -0.559265
vn 0.293812 0.775175 -0.559265
vn 0.000000 0.809017 0.587785
vn 0.000000 0.809017 0.587785
vn 0.000000 0.809017 0.587785
vn 0.000000 0.809017 0.587785
vn 0.000001 1.000000 0.000000
vn 0.000001 1.000000 0.000000
vn 0.000001 1.000000 0.000000
vn 0.000001 1.000000 0.000000
vn 0.000000 0.809017 -0.587785
vn 0.000000 0.809017 -0.587785
vn 0.000000 0.809017 -0.587785
vn 0.000000 0.809017 -0.587785
vn 0.000000 0.309017 -0.951057
vn 0.000000 0.309017 -0.951057
vn 0.000000 0.309017 -0.951057
vn 0.000000 0.309017 -0.951057
vn -0.000000 0.309017 0.951057
vn -0.000000 0.309017 0.951057
vn -0.000000 0.309017 0.951057
vn -0.000000 0.309017 0.951057
vn -1.000000 -0.000000 0.000000
vn -1.000000 -0.000000 0.000000
vn -1.000000 -0.000000 0.000000
vn -1.000000 -0.000000 0.000000
vn -1.000000 -0.000000 0.000000
vn -1.000000 -0.000000 0.000000
vn -1.000000 -0.000000 0.000000
vn -1.000000 -0.000000 0.000000
vn 1.000000 0.000000 -0.000000
vn 1.000000 0.000000 -0.000000
vn 1.000000 0.000000 -0.000000
vn 1.000000 0.000000 -0.000000
vn 1.000000 0.000000 -0.000000
vn 1.000000 0.000000 -0.000000
vn 1.000000 0.000000 -0.000000
vn 1.000000 0.000000 -0.000000
vn -1.000000 -0.000000 -0.000000
vn -1.000000 -0.000000 -0.000000
vn -1.000000 -0.000000 -0.000000
vn -1.000000 -0.000000 -0.000000
vn -1.000000 -0.000000 0.000000
vn -1.000000 -0.000000 0.000000
vn -1.000000 -0.000000 0.000000
vn -1.000000 -0.000000 0.000000
vn -1.000000 -0.000000 0.000000
vn -1.000000 -0.000000 0.000000
vn -1.000000 -0.000000 0.000000
vn -1.000000 -0.000000 0.000000
vn -1.000000 -0.000000 0.000000
vn -1.000000 -0.000000 0.000000
vn -1.000000 -0.000000 0.000000
vn -1.000000 -0.000000 0.000000
vn -1.000000 -0.000000 0.000000
vn -1.000000 -0.000000 0.000000
vn -1.000000 -0.000000 0.000000
vn -1.000000 -0.000000 0.000000
vn -0.319065 0.290817 -0.902011
vn -0.319065 0.290817 -0.902011
vn -0.319065 0.290817 -0.902011
vn -0.319065 0.290817 -0.902011
vn 0.000000 -1.000000 0.000000
vn 0.000000 -1.000000 0.000000
vn 0.000000 -1.000000 0.000000
vn 0.000000 -1.000000 0.000000
vn -0.319065 0.290816 0.902011
vn -0.319065 0.290816 0.902011
vn -0.319065 0.290816 0.902011
vn -0.319065 0.290816 0.902011
vn -0.302090 0.953279 0.000000
vn -0.302090 0.953279 0.000000
vn -0.302090 0.953279 0.000000
vn -0.302090 0.953279 0.000000
vn -0.293812 0.775175 -0.559266
vn -0.293812 0.775175 -0.559266
vn -0.293812 0.775175 -0.559266
vn -0.293812 0.775175 -0.559266
vn -0.293812 0.775175 0.559265
vn -0.293812 0.775175 0.559265
vn -0.293812 0.775175 0.559265
vn -0.293812 0.775175 0.559265
vn 0.000000 0.000000 1.000000
vn 0.000000 0.000000 1.000000
vn 0.000000 0.000000 1.000000
vn 0.000000 0.000000 1.000000
vn 0.000000 -1.000000 0.000000
vn 0.000000 -1.000000 0.000000
vn 0.000000 -1.000000 0.000000
vn 0.000000 -1.000000 0.000000
vn 0.000000 0.000000 -1.000000
vn 0.000000 0.000000 -1.000000
vn 0.000000 0.000000 -1.000000
vn 0.000000 0.000000 -1.000000
vn 0.000000 1.000000 0.000000
vn 0.000000 1.000000 0.000000
vn 0.000000 1.000000 0.000000
vn 0.000000 1.000000 0.000000
vn -1.000000 0.000000 0.000000
vn -1.000000 0.000000 0.000000
vn -1.000000 0.000000 0.000000
vn -1.000000 0.000000 0.000000
vn 1.000000 0.000000 0.000000
vn 1.000000 0.000000 0.000000
vn 1.000000 0.000000 0.000000
vn 1.000000 0.000000 0.000000
vn 0.000000 0.518392 0.855143
vn 0.000000 0.518392 0.855143
vn 0.000000 0.518392 0.855143
vn 0.000000 0.518392 0.855143
vn -0.835150 0.550022 0.000000
vn -0.835150 0.550022 0.000000
vn -0.835150 0.550022 0.000000
vn -0.835150 0.550022 0.000000
vn 0.000000 0.518392 -0.855143
vn 0.000000 0.518392 -0.855143
vn 0.000000 0.518392 -0.855143
vn 0.000000 0.518392 -0.855143
vn 0.835150 0.550022 0.000000
vn 0.835150 0.550022 0.000000
vn 0.835150 0.550022 0.000000
vn 0.835150 0.550022 0.000000
vn 0.000000 1.000000 0.000000
vn 0.000000 1.000000 0.000000
vn 0.000000 1.000000 0.000000
vn 0.000000 1.000000 0.000000
vn 0.000000 1.000000 0.000000
vn 0.000000 1.000000 0.000000
vn 0.000000 1.000000 0.000000
vn 0.000000 1.000000 0.000000
vn 0.000000 1.000000 -0.000000
vn 0.000000 1.000000 -0.000000
vn 0.000000 1.000000 -0.000000
vn 0.000000 1.000000 -0.000000
vn 0.000000 1.000000 0.000000
vn 0.000000 1.000000 0.000000
vn 0.000000 1.000000 0.000000
vn 0.000000 1.000000 0.000000
vn 0.000000 0.000000 1.000000
vn 0.000000 0.000000 1.000000
vn 0.000000 0.000000 1.000000
vn 0.000000 0.000000 1.000000
vn 1.000000 0.000000 0.000000
vn 1.000000 0.000000 0.000000
vn 1.000000 0.000000 0.000000
vn 1.000000 0.000000 0.000000
vn 0.000000 0.000000 -1.000000
vn 0.000000 0.000000 -1.000000
vn 0.000000 0.000000 -1.000000
vn 0.000000 0.000000 -1.000000
vn -1.000000 0.000000 0.000000
vn -1.000000 0.000000 0.000000
vn -1.000000 0.000000 0.000000
vn -1.000000 0.000000 0.000000
s off
f 1/1/1 2/2/2 3/3/3 4/4/4
f 2/2/5 5/5/6 6/6/7 3/3/8
f 5/5/9 7/7/10 8/8/11 6/6/12
f 7/7/13 9/9/14 10/10/15 8/8/16
f 11/11/17 1/1/18 4/4/19 12/12/20
f 19/19/21 20/20/22 21/21/23 22/22/24
f 23/23/25 24/24/26 19/19/27 22/22/28
f 9/9/29 7/7/30 1/1/31 11/11/32
f 2/2/33 1/1/34 7/7/35 5/5/36
f 8/8/37 10/10/38 14/14/39 13/13/40
f 12/12/41 4/4/42 16/16/43 15/15/44
f 3/3/45 6/6/46 18/18/47 17/17/48
f 6/6/49 8/8/50 13/13/51 18/18/52
f 4/4/53 3/3/54 17/17/55 16/16/56
f 13/13/57 14/14/58 20/20/59 19/19/60
f 14/14/61 15/15/62 21/21/63 20/20/64
f 15/15/65 16/16/66 22/22/67 21/21/68
f 17/17/69 18/18/70 24/24/71 23/23/72
f 18/18/73 13/13/74 19/19/75 24/24/76
f 16/16/77 17/17/78 23/23/79 22/22/80
f 25/25/81 26/26/82 27/27/83 28/28/84
f 26/26/85 29/29/86 30/30/87 27/27/88
f 29/29/89 31/31/90 32/32/91 30/30/92
f 31/31/93 33/33/94 34/34/95 32/32/96
f 35/35/97 25/25/98 28/28/99 36/36/100
f 43/37/101 44/38/102 45/39/103 46/40/104
f 47/41/105 48/42/106 43/37/107 46/40/108
f 33/33/109 31/31/110 25/25/111 35/35/112
f 26/26/113 25/25/114 31/31/115 29/29/116
f 32/32/117 34/34/118 38/43/119 37/44/120
f 36/36/121 28/28/122 40/45/123 39/46/124
f 27/27/125 30/30/126 42/47/127 41/48/128
f 30/30/129 32/32/130 37/44/131 42/47/132
f 28/28/133 27/27/134 41/48/135 40/45/136
f 37/44/137 38/43/138 44/38/139 43/37/140
f 38/43/141 39/46/142 45/39/143 44/38/144
f 39/46/145 40/45/146 46/40/147 45/39/148
f 41/48/149 42/47/150 48/42/151 47/41/152
f 42/47/153 37/44/154 43/37/155 48/42/156
f 40/45/157 41/48/158 47/41/159 46/40/160
f 57/49/161 58/50/162 52/51/163 51/52/164
f 51/52/165 52/51/166 54/53/167 53/54/168
f 53/54/169 54/53/170 59/55/171 60/56/172
f 65/57/173 66/58/174 67/59/175 68/60/176
f 58/50/177 59/55/178 54/53/179 52/51/180
f 60/56/181 57/49/182 51/52/183 53/54/184
f 49/61/185 50/62/186 58/50/187 57/49/188
f 50/62/189 56/63/190 59/55/191 58/50/192
f 60/56/193 59/55/194 56/63/195 55/64/196
f 55/64/197 49/61/198 57/49/199 60/56/200
f 55/64/201 56/63/202 62/65/203 61/66/204
f 56/63/205 50/62/206 63/67/207 62/65/208
f 50/62/209 49/61/210 64/68/211 63/67/212
f 49/61/213 55/64/214 61/66/215 64/68/216
f 61/66/217 62/65/218 66/69/219 65/70/220
f 62/65/221 63/67/222 67/71/223 66/69/224
f 63/67/225 64/68/226 68/72/227 67/71/228
f 64/68/229 61/66/230 65/70/231 68/72/232
