# This file uses centimeters as units for non-parametric coordinates.

v -15.187788 -2.293246 15.187790
v -17.600502 0.119466 17.600510
v -17.600502 0.119466 25.643677
v -14.593630 -2.293246 24.886633
v 17.600502 0.119466 17.600510
v 15.781946 -2.293246 14.430746
v 17.600502 0.119466 25.643677
v 14.486636 -2.293246 25.643677
v 14.583724 42.651783 14.450033
v 17.600502 40.239075 17.600510
v 15.187788 42.651783 24.946404
v 17.600502 40.239075 24.850147
v -17.600502 40.239075 17.600510
v -15.187788 42.651783 15.187790
v -17.600502 40.239075 25.643677
v -15.187788 42.651783 25.643677
v -15.187788 42.651783 -15.187790
v -17.600502 40.239075 -17.600510
v -17.600502 40.239075 -25.643677
v -13.920571 42.651783 -25.643677
v 17.600502 40.239075 -17.600510
v 14.468112 42.651783 -14.764155
v 17.600502 40.239075 -25.643677
v 15.187788 42.651783 -25.643677
v 15.065685 -2.293246 -14.777578
v 17.600502 0.119466 -17.600510
v 14.050608 -2.293246 -25.643677
v 17.600502 0.119466 -25.643677
v -17.600502 0.119466 -17.600510
v -14.091804 -2.293246 -13.737017
v -17.600502 0.119466 -24.999544
v -15.187788 -2.293246 -25.789242
v 25.643673 0.119466 -17.600510
v 25.643673 -2.293246 -15.187790
v 25.253014 0.119466 17.600510
v 25.643673 -2.293246 15.187790
v 25.643673 42.651783 -14.078374
v 24.925976 40.239075 -17.600510
v 25.643673 40.239075 17.600510
v 25.643673 42.651783 15.187790
v -25.643673 0.119466 -17.600510
v -25.643673 -2.293246 -13.133029
v -25.643673 0.119466 17.600510
v -25.643673 -2.293246 15.187790
v -25.643673 42.651783 15.187790
v -25.643673 40.239075 17.600510
v -25.643673 40.239075 -17.600510
v -25.145063 42.651783 -14.295814
v -14.862925 0.444330 25.643677
v 14.862925 0.444330 25.643677
v 14.862926 39.914215 25.643677
v -14.862926 39.914215 25.643677
v -14.862926 39.914215 -25.643677
v 14.862926 39.914215 -25.643677
v 14.862925 0.444330 -25.643677
v -14.862925 0.444330 -25.643677
v 25.643673 0.444330 14.862930
v 25.643673 0.444330 -14.862930
v 25.643673 39.914215 -14.862930
v 25.643673 39.914215 14.862930
v -25.643673 0.444330 -14.862930
v -25.643673 0.444330 14.862930
v -25.643673 39.914215 14.862930
v -25.643673 39.914215 -14.862930
v -17.600502 29.710615 24.904436
v 17.600502 38.099873 24.850147
v -17.600502 7.596043 -25.204967
v 17.600502 14.243185 -25.143589
v 25.253014 36.275421 17.600510
v 24.925976 19.901411 -17.600510
v -24.641319 22.862907 17.600510
v -24.808344 8.262765 -17.600510
v 17.237288 33.306007 17.000725
v -17.607656 25.272949 17.035677
v 17.918577 18.208637 -17.005758
v -17.823040 23.269562 -17.288942
v 14.862926 37.447449 25.643677
v -14.862926 30.363047 25.643677
v 14.862925 13.590750 -25.643692
v -14.862925 6.506358 -25.643692
v 25.643673 21.174818 -14.862930
v 25.643673 35.002022 14.862930
v -25.643673 22.778988 14.862930
v -25.643673 8.951772 -14.862930
vt 0.059450 0.229658
vt 0.059321 0.229740
vt 0.059327 0.229028
vt 0.059459 0.229029
vt 0.058706 0.229029
vt 0.058492 0.229029
vt 0.058504 0.229686
vt 0.058713 0.229616
vt 0.059075 0.229762
vt 0.058582 0.229728
vt 0.058571 0.229029
vt 0.059075 0.229028
vt 0.058920 0.229601
vt 0.059332 0.229624
vt 0.059338 0.229029
vt 0.058917 0.229029
vt 0.059293 0.229690
vt 0.059339 0.229649
vt 0.059372 0.229631
vt 0.059337 0.229665
vt 0.059451 0.229700
vt 0.059461 0.229656
vt 0.059169 0.229745
vt 0.059142 0.229777
vt 0.059080 0.229812
vt 0.059123 0.229771
vt 0.059308 0.229754
vt 0.059319 0.229789
vt 0.059144 0.228979
vt 0.059172 0.229022
vt 0.059124 0.229022
vt 0.059081 0.228976
vt 0.059326 0.228978
vt 0.059314 0.229022
vt 0.059345 0.229024
vt 0.059298 0.228985
vt 0.059343 0.228987
vt 0.059378 0.229024
vt 0.059469 0.229024
vt 0.059460 0.228984
vt 0.058852 0.228987
vt 0.058833 0.229024
vt 0.058880 0.229024
vt 0.058912 0.228989
vt 0.058708 0.228988
vt 0.058723 0.229024
vt 0.058593 0.229023
vt 0.058648 0.228981
vt 0.058565 0.228979
vt 0.058527 0.229023
vt 0.058469 0.229023
vt 0.058488 0.228982
vt 0.058658 0.229743
vt 0.058603 0.229707
vt 0.058539 0.229731
vt 0.058578 0.229775
vt 0.058502 0.229732
vt 0.058482 0.229699
vt 0.058838 0.229621
vt 0.058857 0.229663
vt 0.058915 0.229640
vt 0.058883 0.229604
vt 0.058730 0.229615
vt 0.058715 0.229655
vt 0.090891 0.228567
vt 0.091117 0.228736
vt 0.091155 0.228120
vt 0.090912 0.228005
vt 0.090155 0.228086
vt 0.090324 0.228222
vt 0.090338 0.228885
vt 0.090178 0.228687
vt 0.091053 0.228839
vt 0.090587 0.228932
vt 0.090591 0.228255
vt 0.091089 0.228190
vt 0.090281 0.228601
vt 0.090683 0.228536
vt 0.090691 0.227984
vt 0.090266 0.228027
vt 0.059467 0.229190
vt 0.059313 0.229061
vt 0.058729 0.229530
vt 0.058477 0.229461
vt 0.059124 0.229096
vt 0.058533 0.229382
vt 0.059376 0.229269
vt 0.058883 0.229495
vt 0.059171 0.229128
vt 0.059343 0.229246
vt 0.058598 0.229403
vt 0.058837 0.229480
vt 0.091152 0.228158
vt 0.059327 0.229073
vt 0.059457 0.229181
vt 0.090907 0.228141
vt 0.090333 0.228664
vt 0.058500 0.229467
vt 0.058712 0.229526
vt 0.090174 0.228595
vt 0.058577 0.229361
vt 0.090589 0.228576
vt 0.059075 0.229120
vt 0.091085 0.228271
vt 0.090687 0.228224
vt 0.059335 0.229287
vt 0.090278 0.228477
vt 0.058919 0.229478
vn -0.000000 0.000000 1.000000
vn -0.000000 0.000000 1.000000
vn -0.000000 0.000000 1.000000
vn -0.000000 0.000000 1.000000
vn -0.000000 0.000001 -1.000000
vn -0.000000 0.000001 -1.000000
vn -0.000000 0.000001 -1.000000
vn -0.000000 0.000001 -1.000000
vn 1.000000 0.000000 0.000000
vn 1.000000 0.000000 0.000000
vn 1.000000 0.000000 0.000000
vn 1.000000 0.000000 0.000000
vn -1.000000 0.000000 0.000000
vn -1.000000 0.000000 0.000000
vn -1.000000 0.000000 0.000000
vn -1.000000 0.000000 0.000000
vn 0.000000 -0.707108 0.707106
vn 0.000000 -0.707108 0.707106
vn 0.000000 -0.707108 0.707106
vn 0.000000 -0.707108 0.707106
vn -0.657604 -0.753042 0.022022
vn -0.657604 -0.753042 0.022022
vn -0.657604 -0.753042 0.022022
vn -0.657604 -0.753042 0.022022
vn -0.028434 -0.752627 0.657833
vn -0.028434 -0.752627 0.657833
vn -0.028434 -0.752627 0.657833
vn -0.028434 -0.752627 0.657833
vn 0.683322 -0.728668 0.045965
vn 0.683322 -0.728668 0.045965
vn 0.683322 -0.728668 0.045965
vn 0.683322 -0.728668 0.045965
vn -0.025601 0.748260 0.662911
vn -0.025601 0.748260 0.662911
vn -0.025601 0.748260 0.662911
vn -0.025601 0.748260 0.662911
vn 0.671279 0.740852 -0.022850
vn 0.671279 0.740852 -0.022850
vn 0.671279 0.740852 -0.022850
vn 0.671279 0.740852 -0.022850
vn 0.000000 0.707109 0.707105
vn 0.000000 0.707109 0.707105
vn 0.000000 0.707109 0.707105
vn 0.000000 0.707109 0.707105
vn -0.707106 0.707108 0.000000
vn -0.707106 0.707108 0.000000
vn -0.707106 0.707108 0.000000
vn -0.707106 0.707108 0.000000
vn -0.031478 0.771667 -0.635247
vn -0.031478 0.771667 -0.635247
vn -0.031478 0.771667 -0.635247
vn -0.031478 0.771667 -0.635247
vn -0.610102 0.791220 -0.041793
vn -0.610102 0.791220 -0.041793
vn -0.610102 0.791220 -0.041793
vn -0.610102 0.791220 -0.041793
vn 0.022204 0.800433 -0.599011
vn 0.022204 0.800433 -0.599011
vn 0.022204 0.800433 -0.599011
vn 0.022204 0.800433 -0.599011
vn 0.663562 0.747695 0.025237
vn 0.663562 0.747695 0.025237
vn 0.663562 0.747695 0.025237
vn 0.663562 0.747695 0.025237
vn -0.015014 -0.731611 -0.681557
vn -0.015014 -0.731611 -0.681557
vn -0.015014 -0.731611 -0.681557
vn -0.015014 -0.731611 -0.681557
vn 0.611634 -0.790460 -0.032833
vn 0.611634 -0.790460 -0.032833
vn 0.611634 -0.790460 -0.032833
vn 0.611634 -0.790460 -0.032833
vn -0.015298 -0.868006 -0.496319
vn -0.015298 -0.868006 -0.496319
vn -0.015298 -0.868006 -0.496319
vn -0.015298 -0.868006 -0.496319
vn -0.642530 -0.765405 0.036203
vn -0.642530 -0.765405 0.036203
vn -0.642530 -0.765405 0.036203
vn -0.642530 -0.765405 0.036203
vn 0.000000 1.000000 0.000000
vn 0.000000 1.000000 0.000000
vn 0.000000 1.000000 0.000000
vn 0.000000 1.000000 0.000000
vn 0.000000 -1.000000 0.000000
vn 0.000000 -1.000000 0.000000
vn 0.000000 -1.000000 0.000000
vn 0.000000 -1.000000 0.000000
vn 0.000000 -1.000000 -0.000000
vn 0.000000 -1.000000 -0.000000
vn 0.000000 -1.000000 -0.000000
vn 0.000000 -1.000000 -0.000000
vn 0.999695 0.004627 -0.024243
vn 0.999695 0.004627 -0.024243
vn 0.999695 0.004627 -0.024243
vn 0.999695 0.004627 -0.024243
vn 0.000000 1.000000 -0.000000
vn 0.000000 1.000000 -0.000000
vn 0.000000 1.000000 -0.000000
vn 0.000000 1.000000 -0.000000
vn -1.000000 0.000261 0.000377
vn -1.000000 0.000261 0.000377
vn -1.000000 0.000261 0.000377
vn -1.000000 0.000261 0.000377
vn 0.000000 1.000000 0.000000
vn 0.000000 1.000000 0.000000
vn 0.000000 1.000000 0.000000
vn 0.000000 1.000000 0.000000
vn 0.999757 0.006139 -0.021157
vn 0.999757 0.006139 -0.021157
vn 0.999757 0.006139 -0.021157
vn 0.999757 0.006139 -0.021157
vn 0.000000 -1.000000 0.000000
vn 0.000000 -1.000000 0.000000
vn 0.000000 -1.000000 0.000000
vn 0.000000 -1.000000 0.000000
vn -0.999948 -0.007241 -0.007119
vn -0.999948 -0.007241 -0.007119
vn -0.999948 -0.007241 -0.007119
vn -0.999948 -0.007241 -0.007119
vn 0.000000 -1.000000 0.000000
vn 0.000000 -1.000000 0.000000
vn 0.000000 -1.000000 0.000000
vn 0.000000 -1.000000 0.000000
vn -0.041194 0.015255 -0.999035
vn -0.041194 0.015255 -0.999035
vn -0.041194 0.015255 -0.999035
vn -0.041194 0.015255 -0.999035
vn 0.000000 1.000000 0.000000
vn 0.000000 1.000000 0.000000
vn 0.000000 1.000000 0.000000
vn 0.000000 1.000000 0.000000
vn -0.027474 -0.053044 0.998214
vn -0.027474 -0.053044 0.998214
vn -0.027474 -0.053044 0.998214
vn -0.027474 -0.053044 0.998214
vn 0.000000 -1.000000 -0.000000
vn 0.000000 -1.000000 -0.000000
vn 0.000000 -1.000000 -0.000000
vn 0.000000 -1.000000 -0.000000
vn 0.035672 0.011043 0.999303
vn 0.035672 0.011043 0.999303
vn 0.035672 0.011043 0.999303
vn 0.035672 0.011043 0.999303
vn 0.000000 1.000000 0.000000
vn 0.000000 1.000000 0.000000
vn 0.000000 1.000000 0.000000
vn 0.000000 1.000000 0.000000
vn 0.026744 -0.006028 -0.999624
vn 0.026744 -0.006028 -0.999624
vn 0.026744 -0.006028 -0.999624
vn 0.026744 -0.006028 -0.999624
vn 0.031275 -0.263545 0.964140
vn 0.031275 -0.263545 0.964140
vn 0.031275 -0.263545 0.964140
vn -0.012752 -0.136710 0.990529
vn -0.012752 -0.136710 0.990529
vn -0.012752 -0.136710 0.990529
vn -0.012752 -0.136710 0.990529
vn 0.000000 0.000000 1.000000
vn 0.000000 0.000000 1.000000
vn 0.000000 0.000000 1.000000
vn 0.142813 0.010474 0.989694
vn 0.142813 0.010474 0.989694
vn 0.142813 0.010474 0.989694
vn 0.142813 0.010474 0.989694
vn 0.248921 0.211212 0.945213
vn 0.248921 0.211212 0.945213
vn 0.248921 0.211212 0.945213
vn 0.011508 0.126324 0.991922
vn 0.011508 0.126324 0.991922
vn 0.011508 0.126324 0.991922
vn 0.011508 0.126324 0.991922
vn 0.000000 0.000000 1.000000
vn 0.000000 0.000000 1.000000
vn 0.000000 0.000000 1.000000
vn -0.131572 -0.036471 0.990636
vn -0.131572 -0.036471 0.990636
vn -0.131572 -0.036471 0.990636
vn -0.131572 -0.036471 0.990636
vn -0.000000 0.000000 -1.000000
vn -0.000000 0.000000 -1.000000
vn -0.000000 0.000000 -1.000000
vn 0.000000 0.000000 -1.000000
vn 0.000000 0.000000 -1.000000
vn 0.000000 0.000000 -1.000000
vn 0.000000 0.000000 -1.000000
vn 0.000000 0.000000 -1.000000
vn 0.000000 0.000000 -1.000000
vn 0.000000 0.000000 -1.000000
vn 0.092643 -0.009517 -0.995654
vn 0.092643 -0.009517 -0.995654
vn 0.092643 -0.009517 -0.995654
vn 0.092643 -0.009517 -0.995654
vn -0.000000 0.000000 -1.000000
vn -0.000000 0.000000 -1.000000
vn -0.000000 0.000000 -1.000000
vn 0.002468 0.026065 -0.999657
vn 0.002468 0.026065 -0.999657
vn 0.002468 0.026065 -0.999657
vn 0.002468 0.026065 -0.999657
vn -0.237256 0.079636 -0.968178
vn -0.237256 0.079636 -0.968178
vn -0.237256 0.079636 -0.968178
vn -0.195997 -0.014878 -0.980492
vn -0.195997 -0.014878 -0.980492
vn -0.195997 -0.014878 -0.980492
vn -0.195997 -0.014878 -0.980492
vn 0.989544 0.016996 0.143227
vn 0.989544 0.016996 0.143227
vn 0.989544 0.016996 0.143227
vn 1.000000 -0.000000 0.000000
vn 1.000000 -0.000000 0.000000
vn 1.000000 -0.000000 0.000000
vn 1.000000 -0.000000 0.000000
vn 1.000000 -0.000001 0.000000
vn 1.000000 -0.000001 0.000000
vn 1.000000 -0.000001 0.000000
vn 0.990692 0.017551 -0.134986
vn 0.990692 0.017551 -0.134986
vn 0.990692 0.017551 -0.134986
vn 0.990692 0.017551 -0.134986
vn 0.966934 0.070259 -0.245158
vn 0.966934 0.070259 -0.245158
vn 0.966934 0.070259 -0.245158
vn 1.000000 0.000001 0.000000
vn 1.000000 0.000001 0.000000
vn 1.000000 0.000001 0.000000
vn 1.000000 0.000001 0.000000
vn 1.000000 0.000001 0.000000
vn 1.000000 0.000001 0.000000
vn 1.000000 0.000001 0.000000
vn 0.995517 -0.043816 0.083822
vn 0.995517 -0.043816 0.083822
vn 0.995517 -0.043816 0.083822
vn 0.995517 -0.043816 0.083822
vn -1.000000 0.000000 0.000000
vn -1.000000 0.000000 0.000000
vn -1.000000 0.000000 0.000000
vn -1.000000 0.000000 0.000000
vn -1.000000 0.000000 0.000000
vn -1.000000 0.000000 0.000000
vn -1.000000 0.000000 0.000000
vn -1.000000 -0.000001 0.000000
vn -1.000000 -0.000001 0.000000
vn -1.000000 -0.000001 0.000000
vn -0.983246 0.021863 0.180968
vn -0.983246 0.021863 0.180968
vn -0.983246 0.021863 0.180968
vn -0.983246 0.021863 0.180968
vn -1.000000 0.000000 0.000000
vn -1.000000 0.000000 0.000000
vn -1.000000 0.000000 0.000000
vn -0.995720 0.092045 -0.008385
vn -0.995720 0.092045 -0.008385
vn -0.995720 0.092045 -0.008385
vn -0.995720 0.092045 -0.008385
vn -0.984352 0.174984 0.020765
vn -0.984352 0.174984 0.020765
vn -0.984352 0.174984 0.020765
vn -0.988606 -0.013121 -0.149956
vn -0.988606 -0.013121 -0.149956
vn -0.988606 -0.013121 -0.149956
vn -0.988606 -0.013121 -0.149956
vn 0.000000 0.000000 1.000000
vn 0.000000 0.000000 1.000000
vn 0.000000 0.000000 1.000000
vn 0.000000 0.000000 1.000000
vn 0.000000 -0.000002 -1.000000
vn 0.000000 -0.000002 -1.000000
vn 0.000000 -0.000002 -1.000000
vn 0.000000 -0.000002 -1.000000
vn 1.000000 0.000000 0.000000
vn 1.000000 0.000000 0.000000
vn 1.000000 0.000000 0.000000
vn 1.000000 0.000000 0.000000
vn -1.000000 0.000000 0.000000
vn -1.000000 0.000000 0.000000
vn -1.000000 0.000000 0.000000
vn -1.000000 0.000000 0.000000
vn 0.999163 -0.039236 -0.011578
vn 0.999163 -0.039236 -0.011578
vn 0.999163 -0.039236 -0.011578
vn 0.999163 -0.039236 -0.011578
vn -1.000000 -0.000119 0.000483
vn -1.000000 -0.000119 0.000483
vn -1.000000 -0.000119 0.000483
vn -1.000000 -0.000119 0.000483
vn 0.999806 -0.009282 -0.017379
vn 0.999806 -0.009282 -0.017379
vn 0.999806 -0.009282 -0.017379
vn 0.999806 -0.009282 -0.017379
vn -0.999828 0.004211 -0.018078
vn -0.999828 0.004211 -0.018078
vn -0.999828 0.004211 -0.018078
vn -0.999828 0.004211 -0.018078
vn -0.039767 -0.014324 -0.999106
vn -0.039767 -0.014324 -0.999106
vn -0.039767 -0.014324 -0.999106
vn -0.039767 -0.014324 -0.999106
vn -0.039847 0.008434 0.999170
vn -0.039847 0.008434 0.999170
vn -0.039847 0.008434 0.999170
vn -0.039847 0.008434 0.999170
vn 0.040021 -0.016216 0.999067
vn 0.040021 -0.016216 0.999067
vn 0.040021 -0.016216 0.999067
vn 0.040021 -0.016216 0.999067
vn 0.011004 0.009740 -0.999892
vn 0.011004 0.009740 -0.999892
vn 0.011004 0.009740 -0.999892
vn 0.011004 0.009740 -0.999892
vn 0.278404 0.000000 0.960464
vn 0.278404 0.000000 0.960464
vn 0.278404 0.000000 0.960464
vn 0.278404 0.000000 0.960464
vn -0.135951 0.012306 0.990639
vn -0.135951 0.012306 0.990639
vn -0.135951 0.012306 0.990639
vn -0.135951 0.012306 0.990639
vn 0.089863 0.018260 -0.995787
vn 0.089863 0.018260 -0.995787
vn 0.089863 0.018260 -0.995787
vn 0.089863 0.018260 -0.995787
vn -0.081571 -0.006619 -0.996646
vn -0.081571 -0.006619 -0.996646
vn -0.081571 -0.006619 -0.996646
vn -0.081571 -0.006619 -0.996646
vn 0.967311 0.000000 -0.253595
vn 0.967311 0.000000 -0.253595
vn 0.967311 0.000000 -0.253595
vn 0.967311 0.000000 -0.253595
vn 0.989971 0.000000 0.141271
vn 0.989971 0.000000 0.141271
vn 0.989971 0.000000 0.141271
vn 0.989971 0.000000 0.141271
vn -0.982871 -0.028547 0.182069
vn -0.982871 -0.028547 0.182069
vn -0.982871 -0.028547 0.182069
vn -0.982871 -0.028547 0.182069
vn -0.985945 0.049462 -0.159582
vn -0.985945 0.049462 -0.159582
vn -0.985945 0.049462 -0.159582
vn -0.985945 0.049462 -0.159582
s off
f 49/65/1 50/66/2 77/93/3 78/96/4
f 53/69/5 54/70/6 79/97/7 80/100/8
f 57/73/9 58/74/10 81/102/11 82/104/12
f 61/77/13 62/78/14 83/105/15 84/107/16
f 1/17/17 2/18/18 43/19/19 44/20/20
f 2/18/21 1/17/22 4/21/23 3/22/24
f 5/23/25 6/24/26 36/25/27 35/26/28
f 6/24/29 5/23/30 7/27/31 8/28/32
f 9/29/33 10/30/34 39/31/35 40/32/36
f 10/30/37 9/29/38 11/33/39 12/34/40
f 13/35/41 14/36/42 45/37/43 46/38/44
f 14/36/45 13/35/46 15/39/47 16/40/48
f 17/41/49 18/42/50 47/43/51 48/44/52
f 18/42/53 17/41/54 20/45/55 19/46/56
f 21/47/57 22/48/58 37/49/59 38/50/60
f 22/48/61 21/47/62 23/51/63 24/52/64
f 25/53/65 26/54/66 33/55/67 34/56/68
f 26/54/69 25/53/70 27/57/71 28/58/72
f 29/59/73 30/60/74 42/61/75 41/62/76
f 30/60/77 29/59/78 31/63/79 32/64/80
f 14/36/81 9/29/82 22/48/83 17/41/84
f 30/60/85 25/53/86 6/24/87 1/17/88
f 1/17/89 6/24/90 8/28/91 4/21/92
f 5/23/93 73/89/94 66/82/95 7/27/96
f 9/29/97 14/36/98 16/40/99 11/33/100
f 13/35/101 74/90/102 65/81/103 15/39/104
f 17/41/105 22/48/106 24/52/107 20/45/108
f 21/47/109 75/91/110 68/84/111 23/51/112
f 25/53/113 30/60/114 32/64/115 27/57/116
f 29/59/117 76/92/118 67/83/119 31/63/120
f 6/24/121 25/53/122 34/56/123 36/25/124
f 26/54/125 75/91/126 70/86/127 33/55/128
f 22/48/129 9/29/130 40/32/131 37/49/132
f 10/30/133 73/89/134 69/85/135 39/31/136
f 30/60/137 1/17/138 44/20/139 42/61/140
f 2/18/141 74/90/142 71/87/143 43/19/144
f 14/36/145 17/41/146 48/44/147 45/37/148
f 18/42/149 76/92/150 72/88/151 47/43/152
f 3/22/153 4/21/154 49/1/155
f 4/21/156 8/28/157 50/2/158 49/1/159
f 8/28/160 7/27/161 50/2/162
f 7/27/163 66/82/164 77/94/165 50/2/166
f 12/34/167 11/33/168 51/3/169
f 11/33/170 16/40/171 52/4/172 51/3/173
f 16/40/174 15/39/175 52/4/176
f 15/39/177 65/81/178 78/95/179 52/4/180
f 19/46/181 20/45/182 53/5/183
f 20/45/184 24/52/185 54/6/186 53/5/187
f 24/52/188 23/51/189 54/6/190
f 23/51/191 68/84/192 79/98/193 54/6/194
f 28/58/195 27/57/196 55/7/197
f 27/57/198 32/64/199 56/8/200 55/7/201
f 32/64/202 31/63/203 56/8/204
f 31/63/205 67/83/206 80/99/207 56/8/208
f 35/26/209 36/25/210 57/9/211
f 36/25/212 34/56/213 58/10/214 57/9/215
f 34/56/216 33/55/217 58/10/218
f 33/55/219 70/86/220 81/101/221 58/10/222
f 38/50/223 37/49/224 59/11/225
f 37/49/226 40/32/227 60/12/228 59/11/229
f 40/32/230 39/31/231 60/12/232
f 39/31/233 69/85/234 82/103/235 60/12/236
f 41/62/237 42/61/238 61/13/239
f 42/61/240 44/20/241 62/14/242 61/13/243
f 44/20/244 43/19/245 62/14/246
f 43/19/247 71/87/248 83/106/249 62/14/250
f 46/38/251 45/37/252 63/15/253
f 45/37/254 48/44/255 64/16/256 63/15/257
f 48/44/258 47/43/259 64/16/260
f 47/43/261 72/88/262 84/108/263 64/16/264
f 78/96/265 77/93/266 51/67/267 52/68/268
f 80/100/269 79/97/270 55/71/271 56/72/272
f 82/104/273 81/102/274 59/75/275 60/76/276
f 84/107/277 83/105/278 63/79/279 64/80/280
f 66/82/281 73/89/282 10/30/283 12/34/284
f 65/81/285 74/90/286 2/18/287 3/22/288
f 68/84/289 75/91/290 26/54/291 28/58/292
f 67/83/293 76/92/294 18/42/295 19/46/296
f 70/86/297 75/91/298 21/47/299 38/50/300
f 69/85/301 73/89/302 5/23/303 35/26/304
f 71/87/305 74/90/306 13/35/307 46/38/308
f 72/88/309 76/92/310 29/59/311 41/62/312
f 77/94/313 66/82/314 12/34/315 51/3/316
f 78/95/317 65/81/318 3/22/319 49/1/320
f 79/98/321 68/84/322 28/58/323 55/7/324
f 80/99/325 67/83/326 19/46/327 53/5/328
f 81/101/329 70/86/330 38/50/331 59/11/332
f 82/103/333 69/85/334 35/26/335 57/9/336
f 83/106/337 71/87/338 46/38/339 63/15/340
f 84/108/341 72/88/342 41/62/343 61/13/344
