# This file uses centimeters as units for non-parametric coordinates.

v 13.306398 0.000000 -13.784868
v 0.036876 -0.000000 -19.270739
v -13.125851 -0.000000 -13.061522
v -19.194124 -0.000000 -0.501757
v -13.941484 -0.000000 13.041227
v -0.240872 0.000000 19.471348
v 13.956685 0.000000 13.150585
v 18.933512 0.000000 0.436812
v 12.129816 2.659049 -12.129816
v 0.000000 2.659049 -17.154150
v -12.129816 2.659049 -12.129816
v -17.154148 2.659049 0.000000
v -12.129816 2.659049 12.129816
v 0.000000 2.659049 17.154150
v 12.129817 2.659049 12.129817
v 17.154150 2.659049 0.000000
v -0.365654 -0.000000 0.208074
v 0.000000 2.659049 12.902420
v -12.902420 2.659049 0.000000
v 0.000000 2.659049 -12.902420
v 12.902420 2.659049 0.000000
v 0.000000 4.705834 -5.806088
v 0.000000 4.705834 5.806088
v -5.913977 4.705834 0.000000
v 5.913977 4.705834 0.000000
v 5.301677 2.659049 -5.301677
v 3.368315 4.705834 -3.306867
v -3.368315 4.705834 3.306867
v -5.301677 2.659049 5.301677
v -5.301677 2.659049 -5.301677
v -3.368315 4.705834 -3.306867
v 0.000000 5.111991 0.000000
v 3.368315 4.705834 3.306867
v 5.301677 2.659049 5.301677
v -10.262757 2.659049 -9.826426
v -13.356340 2.659049 -4.986790
v -14.344243 2.659049 -1.311235
v -1.881981 2.659049 -14.198150
v -5.526990 2.659049 -13.083402
v -9.893142 3.217221 -9.410496
v -11.688889 3.217221 -6.424964
v -12.169066 3.217221 -4.102464
v -4.659679 3.217221 -11.868193
v -6.967717 3.217221 -11.307298
v -9.075700 3.594971 -8.622683
v -8.139868 3.293291 -7.065566
v -7.640011 2.659049 -6.530221
v -9.826426 2.659049 10.262757
v -4.986790 2.659049 13.356340
v -1.311235 2.659049 14.344243
v -14.198150 2.659049 1.881981
v -13.083402 2.659049 5.526990
v -9.410496 3.217221 9.893142
v -6.424964 3.217221 11.688889
v -4.102464 3.217221 12.169066
v -11.868193 3.217221 4.659679
v -11.307298 3.217221 6.967717
v -8.622683 3.594971 9.075700
v -7.065566 3.293291 8.139868
v -6.530221 2.659049 7.640011
v 10.262757 2.659049 9.826426
v 13.356340 2.659049 4.986790
v 14.344243 2.659049 1.311235
v 1.881981 2.659049 14.198150
v 5.526990 2.659049 13.083402
v 9.893142 3.217221 9.410496
v 11.688889 3.217221 6.424964
v 12.169066 3.217221 4.102464
v 4.659679 3.217221 11.868193
v 6.967717 3.217221 11.307298
v 9.075700 3.594971 8.622683
v 8.139868 3.293291 7.065566
v 7.640011 2.659049 6.530221
v 9.826426 2.659049 -10.262757
v 4.986790 2.659049 -13.356340
v 1.311235 2.659049 -14.344243
v 14.198150 2.659049 -1.881981
v 13.083402 2.659049 -5.526990
v 9.410496 3.217221 -9.893142
v 6.424964 3.217221 -11.688889
v 4.102464 3.217221 -12.169066
v 11.868193 3.217221 -4.659679
v 11.307298 3.217221 -6.967717
v 8.622683 3.594971 -9.075700
v 7.065566 3.293291 -8.139868
v 6.530221 2.659049 -7.640011
v 0.000001 2.659049 0.000000
vt 0.323902 0.383965
vt 0.324228 0.383854
vt 0.324228 0.383769
vt 0.323894 0.383881
vt 0.324562 0.383948
vt 0.324569 0.383863
vt 0.324731 0.384207
vt 0.324742 0.384125
vt 0.324617 0.384499
vt 0.324627 0.384421
vt 0.324261 0.384638
vt 0.324262 0.384561
vt 0.323893 0.384520
vt 0.323884 0.384441
vt 0.323754 0.384233
vt 0.323742 0.384152
vt 0.324243 0.384220
vt 0.442101 0.031554
vt 0.441855 0.031295
vt 0.442252 0.031281
vt 0.442131 0.031074
vt 0.442406 0.030854
vt 0.442653 0.031104
vt 0.442391 0.031051
vt 0.442623 0.031584
vt 0.442346 0.031813
vt 0.442362 0.031531
vt 0.442307 0.031406
vt 0.442377 0.031290
vt 0.442322 0.031166
vt 0.442899 0.031355
vt 0.442502 0.031296
vt 0.442432 0.031413
vt 0.442447 0.031173
vt 0.441572 0.029891
vt 0.441157 0.030032
vt 0.441003 0.030017
vt 0.441601 0.029813
vt 0.441849 0.030203
vt 0.442003 0.030263
vt 0.441605 0.030541
vt 0.441727 0.030372
vt 0.441826 0.030509
vt 0.441649 0.030754
vt 0.441174 0.030434
vt 0.441026 0.030599
vt 0.441470 0.030173
vt 0.441572 0.029891
vt 0.441157 0.030032
vt 0.441003 0.030017
vt 0.441601 0.029813
vt 0.441849 0.030203
vt 0.442003 0.030263
vt 0.441605 0.030541
vt 0.441727 0.030372
vt 0.441826 0.030509
vt 0.441649 0.030754
vt 0.441174 0.030434
vt 0.441026 0.030599
vt 0.441470 0.030173
vt 0.441572 0.029891
vt 0.441157 0.030032
vt 0.441003 0.030017
vt 0.441601 0.029813
vt 0.441849 0.030203
vt 0.442003 0.030263
vt 0.441605 0.030541
vt 0.441727 0.030372
vt 0.441826 0.030509
vt 0.441649 0.030754
vt 0.441174 0.030434
vt 0.441026 0.030599
vt 0.441470 0.030173
vt 0.441572 0.029891
vt 0.441157 0.030032
vt 0.441003 0.030017
vt 0.441601 0.029813
vt 0.441849 0.030203
vt 0.442003 0.030263
vt 0.441605 0.030541
vt 0.441727 0.030372
vt 0.441826 0.030509
vt 0.441649 0.030754
vt 0.441174 0.030434
vt 0.441026 0.030599
vt 0.441470 0.030173
vt 0.324242 0.384138
vn 0.306977 0.596172 -0.741852
vn 0.306977 0.596172 -0.741852
vn 0.306977 0.596172 -0.741852
vn 0.306977 0.596172 -0.741852
vn -0.348516 0.512637 -0.784691
vn -0.348516 0.512637 -0.784691
vn -0.348516 0.512637 -0.784691
vn -0.348516 0.512637 -0.784691
vn -0.771357 0.533767 -0.346557
vn -0.771357 0.533767 -0.346557
vn -0.771357 0.533767 -0.346557
vn -0.771357 0.533767 -0.346557
vn -0.760198 0.574016 0.304312
vn -0.760198 0.574016 0.304311
vn -0.760198 0.574016 0.304312
vn -0.760198 0.574016 0.304312
vn -0.330314 0.579700 0.744877
vn -0.330314 0.579700 0.744877
vn -0.330314 0.579700 0.744877
vn -0.330314 0.579700 0.744877
vn 0.325052 0.570394 0.754315
vn 0.325052 0.570394 0.754315
vn 0.325052 0.570394 0.754315
vn 0.325052 0.570394 0.754315
vn 0.748755 0.590348 0.301422
vn 0.748755 0.590348 0.301422
vn 0.748755 0.590348 0.301422
vn 0.748755 0.590348 0.301422
vn 0.794594 0.515231 -0.321180
vn 0.794594 0.515231 -0.321180
vn 0.794594 0.515231 -0.321180
vn 0.794594 0.515231 -0.321180
vn 0.000000 -1.000000 0.000000
vn 0.000000 -1.000000 0.000000
vn 0.000000 -1.000000 0.000000
vn 0.000000 -1.000000 0.000000
vn 0.000000 1.000000 0.000000
vn 0.000000 1.000000 0.000000
vn 0.000000 1.000000 -0.000000
vn 0.000000 1.000000 -0.000000
vn 0.000000 -1.000000 0.000000
vn 0.000000 -1.000000 0.000000
vn 0.000000 -1.000000 0.000000
vn 0.000000 -1.000000 0.000000
vn 0.000000 -1.000000 0.000000
vn 0.000000 -1.000000 0.000000
vn 0.000000 -1.000000 0.000000
vn 0.000000 -1.000000 0.000000
vn 0.000000 -1.000000 0.000000
vn 0.000000 -1.000000 0.000000
vn 0.000000 -1.000000 0.000000
vn 0.000000 -1.000000 0.000000
vn 0.260704 0.890134 0.373758
vn 0.260704 0.890134 0.373758
vn 0.260704 0.890134 0.373758
vn 0.260704 0.890134 -0.373758
vn 0.260704 0.890134 -0.373758
vn 0.260704 0.890134 -0.373758
vn -0.369234 0.892936 -0.257548
vn -0.369234 0.892936 -0.257548
vn -0.369234 0.892936 -0.257548
vn -0.369234 0.892936 0.257548
vn -0.369234 0.892936 0.257548
vn -0.369234 0.892936 0.257548
vn 0.068421 0.996265 0.052671
vn 0.068421 0.996265 0.052671
vn 0.068421 0.996265 0.052671
vn 0.369234 0.892936 -0.257548
vn 0.369234 0.892936 -0.257548
vn 0.369234 0.892936 -0.257548
vn 0.051708 0.996228 -0.069690
vn 0.051708 0.996228 -0.069690
vn 0.051708 0.996228 -0.069690
vn -0.260704 0.890134 0.373758
vn -0.260704 0.890134 0.373758
vn -0.260704 0.890134 0.373758
vn -0.260704 0.890134 -0.373758
vn -0.260704 0.890134 -0.373758
vn -0.260704 0.890134 -0.373758
vn -0.068421 0.996265 0.052671
vn -0.068421 0.996265 0.052671
vn -0.068421 0.996265 0.052671
vn 0.051708 0.996228 0.069690
vn 0.051708 0.996228 0.069690
vn 0.051708 0.996228 0.069690
vn 0.369234 0.892936 0.257548
vn 0.369234 0.892936 0.257548
vn 0.369234 0.892936 0.257548
vn -0.355436 0.802613 0.479038
vn -0.355436 0.802613 0.479038
vn -0.355436 0.802613 0.479038
vn -0.473242 0.802074 0.364307
vn -0.473242 0.802074 0.364307
vn -0.473242 0.802074 0.364307
vn -0.473242 0.802074 -0.364307
vn -0.473242 0.802074 -0.364307
vn -0.473242 0.802074 -0.364307
vn -0.355437 0.802613 -0.479038
vn -0.355437 0.802613 -0.479038
vn -0.355437 0.802613 -0.479038
vn 0.355436 0.802613 -0.479038
vn 0.355436 0.802613 -0.479038
vn 0.355436 0.802613 -0.479038
vn 0.473242 0.802074 -0.364307
vn 0.473242 0.802074 -0.364307
vn 0.473242 0.802074 -0.364307
vn 0.473242 0.802074 0.364307
vn 0.473242 0.802074 0.364307
vn 0.473242 0.802074 0.364307
vn 0.355437 0.802613 0.479038
vn 0.355437 0.802613 0.479038
vn 0.355437 0.802613 0.479038
vn -0.051708 0.996228 -0.069690
vn -0.051708 0.996228 -0.069690
vn -0.051708 0.996228 -0.069690
vn -0.051708 0.996228 0.069690
vn -0.051708 0.996228 0.069690
vn -0.051708 0.996228 0.069690
vn 0.068421 0.996265 -0.052671
vn 0.068421 0.996265 -0.052671
vn 0.068421 0.996265 -0.052671
vn -0.068421 0.996265 -0.052671
vn -0.068421 0.996265 -0.052671
vn -0.068421 0.996265 -0.052671
vn -0.581293 0.728136 -0.363204
vn -0.581293 0.728136 -0.363204
vn -0.581293 0.728136 -0.363204
vn -0.581293 0.728136 -0.363204
vn -0.367996 0.925455 -0.090070
vn -0.367996 0.925455 -0.090070
vn -0.367996 0.925455 -0.090070
vn -0.367996 0.925455 -0.090070
vn 0.484911 0.799562 0.354346
vn 0.424378 0.808218 0.408274
vn 0.421739 0.808467 0.410509
vn 0.484911 0.799562 0.354346
vn -0.100051 0.929325 -0.355451
vn -0.100051 0.929325 -0.355451
vn -0.100051 0.929325 -0.355451
vn -0.100051 0.929325 -0.355451
vn -0.376646 0.738010 -0.559892
vn -0.376646 0.738010 -0.559892
vn -0.376646 0.738010 -0.559892
vn -0.376646 0.738010 -0.559892
vn -0.219535 0.971053 -0.094130
vn -0.219535 0.971053 -0.094130
vn -0.219535 0.971053 -0.094130
vn -0.219535 0.971053 -0.094130
vn 0.128245 0.985192 0.113798
vn 0.115638 0.985833 0.121499
vn 0.155421 0.983069 0.097054
vn -0.101642 0.970991 -0.216437
vn -0.101642 0.970991 -0.216437
vn -0.101642 0.970991 -0.216437
vn -0.101642 0.970991 -0.216438
vn 0.084557 0.986491 0.140306
vn 0.115638 0.985833 0.121499
vn 0.128245 0.985192 0.113798
vn 0.421739 0.808467 0.410509
vn 0.424378 0.808218 0.408274
vn 0.350589 0.811525 0.467455
vn 0.350589 0.811525 0.467455
vn -0.363204 0.728135 0.581293
vn -0.363204 0.728135 0.581293
vn -0.363204 0.728135 0.581293
vn -0.363204 0.728135 0.581293
vn -0.090070 0.925455 0.367996
vn -0.090070 0.925455 0.367996
vn -0.090070 0.925455 0.367996
vn -0.090070 0.925455 0.367996
vn 0.354347 0.799562 -0.484912
vn 0.408274 0.808217 -0.424378
vn 0.410509 0.808467 -0.421739
vn 0.354347 0.799562 -0.484912
vn -0.355451 0.929325 0.100051
vn -0.355451 0.929325 0.100051
vn -0.355451 0.929325 0.100051
vn -0.355451 0.929325 0.100051
vn -0.559892 0.738010 0.376646
vn -0.559892 0.738010 0.376646
vn -0.559892 0.738010 0.376646
vn -0.559892 0.738010 0.376646
vn -0.094130 0.971053 0.219535
vn -0.094130 0.971053 0.219535
vn -0.094130 0.971053 0.219535
vn -0.094130 0.971053 0.219535
vn 0.113798 0.985192 -0.128245
vn 0.121499 0.985833 -0.115638
vn 0.097054 0.983069 -0.155421
vn -0.216437 0.970991 0.101642
vn -0.216437 0.970991 0.101642
vn -0.216437 0.970991 0.101642
vn -0.216437 0.970991 0.101642
vn 0.140306 0.986491 -0.084558
vn 0.121499 0.985833 -0.115638
vn 0.113798 0.985192 -0.128245
vn 0.410509 0.808467 -0.421739
vn 0.408274 0.808217 -0.424378
vn 0.467455 0.811525 -0.350589
vn 0.467455 0.811525 -0.350589
vn 0.581293 0.728136 0.363204
vn 0.581293 0.728136 0.363204
vn 0.581293 0.728136 0.363204
vn 0.581293 0.728136 0.363204
vn 0.367996 0.925455 0.090070
vn 0.367996 0.925455 0.090070
vn 0.367996 0.925455 0.090070
vn 0.367996 0.925455 0.090070
vn -0.484911 0.799562 -0.354346
vn -0.424378 0.808218 -0.408274
vn -0.421739 0.808467 -0.410509
vn -0.484911 0.799562 -0.354346
vn 0.100051 0.929325 0.355451
vn 0.100051 0.929325 0.355451
vn 0.100051 0.929325 0.355451
vn 0.100051 0.929325 0.355451
vn 0.376646 0.738010 0.559892
vn 0.376646 0.738010 0.559892
vn 0.376646 0.738010 0.559892
vn 0.376646 0.738010 0.559892
vn 0.219535 0.971053 0.094130
vn 0.219535 0.971053 0.094130
vn 0.219535 0.971053 0.094130
vn 0.219535 0.971053 0.094130
vn -0.128245 0.985192 -0.113798
vn -0.115638 0.985833 -0.121499
vn -0.155421 0.983069 -0.097054
vn 0.101642 0.970991 0.216437
vn 0.101642 0.970991 0.216437
vn 0.101642 0.970991 0.216437
vn 0.101642 0.970991 0.216438
vn -0.084557 0.986491 -0.140306
vn -0.115638 0.985833 -0.121499
vn -0.128245 0.985192 -0.113798
vn -0.421739 0.808467 -0.410509
vn -0.424378 0.808218 -0.408274
vn -0.350589 0.811525 -0.467455
vn -0.350589 0.811525 -0.467455
vn 0.363204 0.728135 -0.581293
vn 0.363204 0.728135 -0.581293
vn 0.363204 0.728135 -0.581293
vn 0.363204 0.728135 -0.581293
vn 0.090070 0.925455 -0.367996
vn 0.090070 0.925455 -0.367996
vn 0.090070 0.925455 -0.367996
vn 0.090070 0.925455 -0.367996
vn -0.354347 0.799562 0.484912
vn -0.408274 0.808217 0.424378
vn -0.410509 0.808467 0.421739
vn -0.354347 0.799562 0.484912
vn 0.355451 0.929325 -0.100051
vn 0.355451 0.929325 -0.100051
vn 0.355451 0.929325 -0.100051
vn 0.355451 0.929325 -0.100051
vn 0.559892 0.738010 -0.376646
vn 0.559892 0.738010 -0.376646
vn 0.559892 0.738010 -0.376646
vn 0.559892 0.738010 -0.376646
vn 0.094130 0.971053 -0.219535
vn 0.094130 0.971053 -0.219535
vn 0.094130 0.971053 -0.219535
vn 0.094130 0.971053 -0.219535
vn -0.113798 0.985192 0.128245
vn -0.121499 0.985833 0.115638
vn -0.097054 0.983069 0.155421
vn 0.216437 0.970991 -0.101642
vn 0.216437 0.970991 -0.101642
vn 0.216437 0.970991 -0.101642
vn 0.216437 0.970991 -0.101642
vn -0.140306 0.986491 0.084558
vn -0.121499 0.985833 0.115638
vn -0.113798 0.985192 0.128245
vn -0.410509 0.808467 0.421739
vn -0.408274 0.808217 0.424378
vn -0.467455 0.811525 0.350589
vn -0.467455 0.811525 0.350589
vn 0.000000 1.000000 -0.000000
vn 0.000000 1.000000 -0.000000
vn 0.000000 1.000000 -0.000000
vn 0.000000 1.000000 -0.000000
vn 0.000000 1.000000 -0.000000
vn 0.000000 1.000000 0.000000
vn 0.000000 1.000000 0.000000
vn 0.000000 1.000000 0.000000
vn 0.000000 1.000000 -0.000000
vn 0.000000 1.000000 -0.000000
vn 0.000000 1.000000 0.000000
vn 0.000000 1.000000 -0.000000
s off
f 1/1/1 2/2/2 10/3/3 9/4/4
f 2/2/5 3/5/6 11/6/7 10/3/8
f 3/5/9 4/7/10 12/8/11 11/6/12
f 4/7/13 5/9/14 13/10/15 12/8/16
f 5/9/17 6/11/18 14/12/19 13/10/20
f 6/11/21 7/13/22 15/14/23 14/12/24
f 7/13/25 8/15/26 16/16/27 15/14/28
f 8/15/29 1/1/30 9/4/31 16/16/32
f 6/11/33 17/17/34 8/15/35 7/13/36
f 9/4/37 10/3/38 87/87/39 16/16/40
f 1/1/41 8/15/42 17/17/43 2/2/44
f 4/7/45 17/17/46 6/11/47 5/9/48
f 2/2/49 17/17/50 4/7/51 3/5/52
f 34/18/53 21/19/54 25/20/55
f 26/21/56 25/20/57 21/19/58
f 20/22/59 30/23/60 22/24/61
f 29/25/62 18/26/63 23/27/64
f 33/28/65 25/20/66 32/29/67
f 22/24/68 26/21/69 20/22/70
f 32/29/71 27/30/72 22/24/73
f 19/31/74 29/25/75 24/32/76
f 30/23/77 19/31/78 24/32/79
f 28/33/80 32/29/81 24/32/82
f 23/27/83 33/28/84 32/29/85
f 18/26/86 34/18/87 23/27/88
f 29/25/89 23/27/90 28/33/91
f 24/32/92 29/25/93 28/33/94
f 30/23/95 24/32/96 31/34/97
f 22/24/98 30/23/99 31/34/100
f 22/24/101 27/30/102 26/21/103
f 27/30/104 25/20/105 26/21/106
f 34/18/107 25/20/108 33/28/109
f 23/27/110 34/18/111 33/28/112
f 32/29/113 22/24/114 31/34/115
f 23/27/116 32/29/117 28/33/118
f 32/29/119 25/20/120 27/30/121
f 24/32/122 32/29/123 31/34/124
f 41/35/125 40/36/126 35/37/127 36/38/128
f 42/39/129 41/35/130 36/38/131 37/40/132
f 43/41/133 46/42/134 47/43/135 38/44/136
f 44/45/137 43/41/138 38/44/139 39/46/140
f 40/36/141 44/45/142 39/46/143 35/37/144
f 45/47/145 40/36/146 41/35/147 42/39/148
f 45/47/149 46/42/150 43/41/151
f 45/47/152 43/41/153 44/45/154 40/36/155
f 42/39/156 46/42/157 45/47/158
f 47/43/159 46/42/160 42/39/161 37/40/162
f 54/48/163 53/49/164 48/50/165 49/51/166
f 55/52/167 54/48/168 49/51/169 50/53/170
f 56/54/171 59/55/172 60/56/173 51/57/174
f 57/58/175 56/54/176 51/57/177 52/59/178
f 53/49/179 57/58/180 52/59/181 48/50/182
f 58/60/183 53/49/184 54/48/185 55/52/186
f 58/60/187 59/55/188 56/54/189
f 58/60/190 56/54/191 57/58/192 53/49/193
f 55/52/194 59/55/195 58/60/196
f 60/56/197 59/55/198 55/52/199 50/53/200
f 67/61/201 66/62/202 61/63/203 62/64/204
f 68/65/205 67/61/206 62/64/207 63/66/208
f 69/67/209 72/68/210 73/69/211 64/70/212
f 70/71/213 69/67/214 64/70/215 65/72/216
f 66/62/217 70/71/218 65/72/219 61/63/220
f 71/73/221 66/62/222 67/61/223 68/65/224
f 71/73/225 72/68/226 69/67/227
f 71/73/228 69/67/229 70/71/230 66/62/231
f 68/65/232 72/68/233 71/73/234
f 73/69/235 72/68/236 68/65/237 63/66/238
f 80/74/239 79/75/240 74/76/241 75/77/242
f 81/78/243 80/74/244 75/77/245 76/79/246
f 82/80/247 85/81/248 86/82/249 77/83/250
f 83/84/251 82/80/252 77/83/253 78/85/254
f 79/75/255 83/84/256 78/85/257 74/76/258
f 84/86/259 79/75/260 80/74/261 81/78/262
f 84/86/263 85/81/264 82/80/265
f 84/86/266 82/80/267 83/84/268 79/75/269
f 81/78/270 85/81/271 84/86/272
f 86/82/273 85/81/274 81/78/275 76/79/276
f 16/16/277 87/87/278 14/12/279 15/14/280
f 87/87/281 10/3/282 11/6/283 12/8/284
f 14/12/285 87/87/286 12/8/287 13/10/288
