# This file uses centimeters as units for non-parametric coordinates.

v 83.019943 -2.279261 34.711403
v -57.789013 -2.279261 -56.359947
v 70.685318 -2.279261 54.221169
v 48.504887 -2.279261 63.993629
v 24.977497 -2.279261 57.179695
v 3.173450 -2.279261 32.910896
v -69.386002 -2.279261 13.258033
v -71.862656 -2.279261 -20.132074
v -27.938396 -2.279261 -71.205406
v 77.535141 -2.279261 10.502112
v 31.356098 -2.279261 -46.525505
v 40.630772 -2.279261 -15.317956
v 59.233952 -2.279261 -7.475244
v -36.586285 -2.279261 62.987373
v 5.897525 -2.279261 71.135689
v 2.953296 -2.279261 52.139503
v -11.533764 -2.279261 45.228645
v -29.252300 -2.279261 49.859718
v -26.506496 -2.279261 78.700661
v -37.759701 -2.279261 31.462530
v 1.168613 -2.279261 -70.090263
v -8.500896 -2.279261 83.703209
v -25.779797 2.350196 77.901924
v -8.837795 2.350196 82.609047
v 4.710117 2.350196 70.783913
v 1.939808 2.350196 52.909828
v -11.691525 2.350196 46.407143
v -28.363430 2.350196 50.764595
v -35.264141 2.350196 63.116829
v 57.260487 2.350196 -6.467004
v 76.005844 2.350196 10.293586
v 39.024143 2.350196 -14.154992
v 29.932316 2.350196 -44.747276
v 1.145099 2.350196 -68.709648
v -27.387966 2.350196 -69.802696
v -56.650005 2.350196 -55.249962
v -70.446182 2.350196 -19.736475
v -68.018326 2.350196 12.995246
v -36.466824 2.350196 29.487738
v 3.659214 2.350196 30.907507
v 25.033344 2.350196 54.697823
v 47.547993 2.350196 62.730431
v 69.291077 2.350196 53.150581
v 81.382507 2.350196 34.025597
vt 0.376148 0.031105
vt 0.376155 0.031142
vt 0.376138 0.031134
vt 0.376136 0.031115
vt 0.376048 0.031093
vt 0.376062 0.031071
vt 0.376078 0.031058
vt 0.376128 0.031094
vt 0.376113 0.031123
vt 0.376172 0.031133
vt 0.376155 0.031142
vt 0.376171 0.031132
vt 0.376137 0.031134
vt 0.376135 0.031114
vt 0.376148 0.031104
vt 0.376167 0.031103
vt 0.376166 0.031105
vt 0.376178 0.031114
vt 0.376177 0.031115
vt 0.376047 0.031093
vt 0.376060 0.031070
vt 0.376077 0.031057
vt 0.376077 0.031022
vt 0.376078 0.031024
vt 0.376101 0.030989
vt 0.376101 0.030990
vt 0.376131 0.030979
vt 0.376131 0.030981
vt 0.376166 0.030986
vt 0.376165 0.030987
vt 0.376191 0.031020
vt 0.376190 0.031021
vt 0.376198 0.031055
vt 0.376196 0.031055
vt 0.376170 0.031082
vt 0.376169 0.031081
vt 0.376129 0.031095
vt 0.376114 0.031125
vt 0.376092 0.031139
vt 0.376093 0.031138
vt 0.376067 0.031135
vt 0.376068 0.031134
vt 0.376049 0.031119
vt 0.376050 0.031118
vn 0.000000 1.000000 0.000000
vn 0.000000 1.000000 0.000000
vn 0.000000 1.000000 0.000000
vn 0.000000 1.000000 0.000000
vn 0.000000 1.000000 -0.000000
vn 0.000000 1.000000 -0.000000
vn 0.000000 1.000000 -0.000000
vn 0.000000 1.000000 -0.000000
vn 0.000000 1.000000 -0.000000
vn -0.262073 0.203875 0.943267
vn -0.262073 0.203875 0.943267
vn -0.262073 0.203875 0.943267
vn -0.262073 0.203875 0.943267
vn 0.641418 0.220359 0.734864
vn 0.641418 0.220359 0.734864
vn 0.641418 0.220359 0.734864
vn 0.641418 0.220359 0.734864
vn 0.960515 0.235050 -0.148871
vn 0.960515 0.235050 -0.148871
vn 0.960515 0.235050 -0.148871
vn 0.960515 0.235050 -0.148871
vn 0.418243 0.237447 -0.876751
vn 0.418243 0.237447 -0.876751
vn 0.418243 0.237447 -0.876751
vn 0.418243 0.237447 -0.876751
vn -0.246019 0.231227 -0.941280
vn -0.246019 0.231227 -0.941280
vn -0.246019 0.231227 -0.941280
vn -0.246019 0.231227 -0.941280
vn -0.844301 0.254310 -0.471681
vn -0.844301 0.254310 -0.471680
vn -0.844301 0.254310 -0.471680
vn -0.844301 0.254310 -0.471680
vn -0.821126 0.219776 0.526736
vn -0.821126 0.219776 0.526736
vn -0.821126 0.219776 0.526736
vn -0.821126 0.219776 0.526736
vn 0.651133 0.306310 -0.694406
vn 0.550804 0.324775 -0.768853
vn 0.512040 0.330221 -0.792950
vn 0.651133 0.306310 -0.694406
vn 0.550804 0.324775 -0.768853
vn 0.364767 0.343942 -0.865245
vn 0.364767 0.343942 -0.865245
vn 0.512040 0.330221 -0.792950
vn 0.888702 0.374769 -0.264116
vn 0.888702 0.374769 -0.264116
vn 0.888702 0.374769 -0.264116
vn 0.888702 0.374769 -0.264116
vn 0.589691 0.341819 -0.731727
vn 0.589691 0.341819 -0.731727
vn 0.589691 0.341819 -0.731727
vn 0.589691 0.341819 -0.731727
vn 0.036685 0.285775 -0.957594
vn -0.223504 0.306881 -0.925133
vn -0.208942 0.306242 -0.928741
vn 0.036685 0.285775 -0.957594
vn -0.223504 0.306881 -0.925133
vn -0.423586 0.308434 -0.851730
vn -0.423586 0.308434 -0.851730
vn -0.208942 0.306242 -0.928741
vn -0.888774 0.301448 -0.345268
vn -0.939684 0.301347 -0.161813
vn -0.941428 0.301038 -0.151953
vn -0.888774 0.301448 -0.345268
vn -0.939684 0.301347 -0.161813
vn -0.955514 0.286305 0.070874
vn -0.955513 0.286305 0.070874
vn -0.941428 0.301038 -0.151953
vn -0.454331 0.330476 0.827266
vn -0.252955 0.373580 0.892441
vn -0.215299 0.379515 0.899786
vn -0.454331 0.330476 0.827266
vn -0.252955 0.373580 0.892441
vn -0.032412 0.399806 0.916027
vn -0.032412 0.399806 0.916027
vn -0.215299 0.379515 0.899786
vn -0.698268 0.344751 0.627351
vn -0.505594 0.350272 0.788470
vn -0.568715 0.350940 0.743912
vn -0.698268 0.344751 0.627351
vn -0.505594 0.350272 0.788470
vn -0.289203 0.334627 0.896876
vn -0.289203 0.334627 0.896876
vn -0.568715 0.350940 0.743912
vn 0.382534 0.315982 0.868230
vn 0.382534 0.315982 0.868230
vn 0.382534 0.315982 0.868230
vn 0.382534 0.315982 0.868230
vn 0.790606 0.353690 0.499845
vn 0.790606 0.353690 0.499845
vn 0.790606 0.353690 0.499845
vn 0.790606 0.353690 0.499845
vn 0.930962 0.298035 -0.210916
vn 0.930962 0.298035 -0.210916
vn 0.930962 0.298035 -0.210916
vn 0.930962 0.298035 -0.210916
vn 0.000000 1.000000 0.000000
vn 0.000000 1.000000 0.000000
vn 0.000000 1.000000 0.000000
vn 0.000000 1.000000 0.000000
vn 0.000000 1.000000 0.000000
vn 0.000000 1.000000 0.000000
vn 0.000000 1.000000 -0.000000
vn 0.000000 1.000000 -0.000000
vn 0.000000 1.000000 0.000000
vn 0.000000 1.000000 0.000000
vn 0.000000 1.000000 0.000000
vn 0.000000 1.000000 -0.000000
vn 0.000000 1.000000 -0.000000
vn 0.000000 1.000000 0.000000
vn 0.000000 1.000000 0.000000
vn 0.000000 1.000000 0.000000
vn 0.000000 1.000000 0.000000
vn 0.000000 1.000000 0.000000
vn 0.000000 1.000000 0.000000
vn 0.000000 1.000000 0.000000
vn 0.000000 1.000000 0.000000
s off
f 27/1/1 24/2/2 25/3/3 26/4/4
f 31/5/5 30/6/6 32/7/7 40/8/8 41/9/9
f 19/10/10 22/11/11 24/2/12 23/12/13
f 22/11/14 15/13/15 25/3/16 24/2/17
f 15/13/18 16/14/19 26/4/20 25/3/21
f 16/14/22 17/15/23 27/1/24 26/4/25
f 17/15/26 18/16/27 28/17/28 27/1/29
f 18/16/30 14/18/31 29/19/32 28/17/33
f 14/18/34 19/10/35 23/12/36 29/19/37
f 10/20/38 13/21/39 30/6/40 31/5/41
f 13/21/42 12/22/43 32/7/44 30/6/45
f 12/22/46 11/23/47 33/24/48 32/7/49
f 11/23/50 21/25/51 34/26/52 33/24/53
f 21/25/54 9/27/55 35/28/56 34/26/57
f 9/27/58 2/29/59 36/30/60 35/28/61
f 2/29/62 8/31/63 37/32/64 36/30/65
f 8/31/66 7/33/67 38/34/68 37/32/69
f 7/33/70 20/35/71 39/36/72 38/34/73
f 20/35/74 6/37/75 40/8/76 39/36/77
f 6/37/78 5/38/79 41/9/80 40/8/81
f 5/38/82 4/39/83 42/40/84 41/9/85
f 4/39/86 3/41/87 43/42/88 42/40/89
f 3/41/90 1/43/91 44/44/92 43/42/93
f 1/43/94 10/20/95 31/5/96 44/44/97
f 39/36/98 34/26/99 35/28/100 36/30/101 37/32/102 38/34/103
f 40/8/104 32/7/105 33/24/106 34/26/107 39/36/108
f 31/5/109 41/9/110 42/40/111 43/42/112 44/44/113
f 23/12/114 24/2/115 27/1/116 28/17/117 29/19/118
