# This file uses centimeters as units for non-parametric coordinates.

v 13.167969 -224.520767 -6.609375
v 4.136719 -224.924759 -9.455078
v -2.839844 -225.263321 -3.052734
v -0.785156 -225.197906 6.198242
v 8.246094 -224.793915 9.044922
v 15.167969 -223.658157 2.551758
v 0.078125 225.201111 -5.443359
v -8.515625 224.816650 -8.151367
v -15.160156 224.494202 -2.058594
v -10.628906 224.681519 4.381836
v -4.609375 224.941071 9.454102
v 2.031250 225.263336 3.361328
v 6.191406 -224.859329 -0.206055
v -6.562500 224.878845 0.650391
v -0.160156 177.318375 -5.285156
v -8.078125 188.772552 -6.713867
v -13.304688 194.886810 -0.856445
v -10.617188 189.546783 6.428711
v -2.703125 178.092377 7.859375
v 2.648438 167.719727 1.994141
v 5.511719 -19.180370 -6.179688
v -2.421875 -24.861126 -7.467773
v -7.644531 -22.458168 -1.095703
v -4.929688 -14.374416 6.562500
v 3.000000 -8.693829 7.848633
v 8.218750 -11.096794 1.478516
v -13.730469 224.539841 4.388672
v -10.304688 224.686249 7.661133
v -12.136719 210.049896 6.615234
v 0.570313 174.268341 4.197266
v 2.535156 176.953873 2.194336
v 1.031250 174.950165 -2.053711
v 11.566406 -224.632782 5.997070
v 14.796875 -224.468933 0.720703
v 11.640625 -224.615540 1.512695
v -6.656250 -19.515400 1.691406
v -5.160156 -6.323463 6.551758
v -3.855469 -11.386055 5.375000
vt 0.371892 0.379768
vt 0.371904 0.379765
vt 0.371910 0.379688
vt 0.371897 0.379683
vt 0.371915 0.379780
vt 0.371920 0.379698
vt 0.371913 0.379802
vt 0.371917 0.379705
vt 0.371919 0.379701
vt 0.371900 0.379806
vt 0.371902 0.379700
vt 0.371895 0.379797
vt 0.371890 0.379783
vt 0.371893 0.379688
vt 0.371890 0.379784
vt 0.371902 0.379784
vt 0.371894 0.379787
vt 0.371904 0.379403
vt 0.371922 0.379404
vt 0.371921 0.379398
vt 0.371940 0.379399
vt 0.371940 0.379393
vt 0.371932 0.379394
vt 0.371933 0.379391
vt 0.371919 0.379389
vt 0.371901 0.379396
vt 0.371905 0.379485
vt 0.371921 0.379466
vt 0.371935 0.379454
vt 0.371932 0.379463
vt 0.371937 0.379422
vt 0.371913 0.379485
vt 0.371905 0.379491
vt 0.371900 0.379486
vt 0.371903 0.379489
vt 0.371917 0.379696
vt 0.371900 0.379502
vt 0.371915 0.379699
vn 0.231998 0.013933 -0.972616
vn 0.231998 0.013933 -0.972616
vn 0.231998 0.013933 -0.972616
vn 0.231998 0.013933 -0.972616
vn -0.724237 -0.013678 -0.689416
vn -0.724237 -0.013678 -0.689416
vn -0.724237 -0.013678 -0.689416
vn -0.724237 -0.013678 -0.689416
vn -0.959342 -0.022335 0.281363
vn -0.959342 -0.022335 0.281363
vn -0.959341 -0.022335 0.281363
vn -0.959342 -0.022335 0.281363
vn -0.959341 -0.022335 0.281363
vn -0.235625 -0.003289 0.971839
vn -0.235625 -0.003289 0.971839
vn -0.235625 -0.003289 0.971839
vn -0.235625 -0.003289 0.971839
vn 0.728168 0.024443 0.684963
vn 0.728168 0.024443 0.684963
vn 0.728168 0.024443 0.684963
vn 0.728168 0.024443 0.684963
vn 0.728168 0.024443 0.684963
vn 0.957808 0.033052 -0.285502
vn 0.957808 0.033052 -0.285502
vn 0.957808 0.033052 -0.285502
vn 0.957808 0.033052 -0.285502
vn 0.957808 0.033052 -0.285502
vn 0.045655 -0.998953 -0.003077
vn 0.045655 -0.998953 -0.003077
vn 0.045655 -0.998953 -0.003077
vn 0.045655 -0.998953 -0.003074
vn 0.045655 -0.998953 -0.003074
vn 0.045655 -0.998953 -0.003074
vn 0.045656 -0.998953 -0.003079
vn 0.045656 -0.998953 -0.003079
vn 0.045656 -0.998953 -0.003079
vn 0.045656 -0.998953 -0.003074
vn 0.045656 -0.998953 -0.003074
vn 0.045656 -0.998953 -0.003074
vn 0.045659 -0.998952 -0.003079
vn 0.045659 -0.998952 -0.003079
vn 0.045659 -0.998952 -0.003079
vn 0.045659 -0.998952 -0.003079
vn 0.045649 -0.998953 -0.003071
vn 0.045649 -0.998953 -0.003071
vn 0.045649 -0.998953 -0.003071
vn 0.045649 -0.998953 -0.003071
vn -0.045659 0.998952 0.003071
vn -0.045659 0.998952 0.003071
vn -0.045659 0.998952 0.003071
vn -0.045660 0.998952 0.003074
vn -0.045660 0.998952 0.003074
vn -0.045660 0.998952 0.003074
vn -0.045648 0.998953 0.003057
vn -0.045648 0.998953 0.003057
vn -0.045648 0.998953 0.003057
vn -0.045648 0.998953 0.003057
vn -0.045660 0.998952 0.003071
vn -0.045660 0.998952 0.003071
vn -0.045660 0.998952 0.003071
vn -0.045660 0.998952 0.003071
vn -0.045662 0.998952 0.003070
vn -0.045662 0.998952 0.003070
vn -0.045662 0.998952 0.003070
vn -0.045662 0.998952 0.003067
vn -0.045662 0.998952 0.003067
vn -0.045662 0.998952 0.003067
vn 0.231647 -0.017943 -0.972634
vn 0.231647 -0.017943 -0.972634
vn 0.231647 -0.017943 -0.972634
vn 0.231647 -0.017943 -0.972634
vn -0.721171 -0.052960 -0.690730
vn -0.721171 -0.052960 -0.690730
vn -0.721171 -0.052960 -0.690730
vn -0.721171 -0.052960 -0.690730
vn -0.963573 -0.062046 0.260149
vn -0.963573 -0.062046 0.260149
vn -0.963573 -0.062046 0.260149
vn -0.963573 -0.062046 0.260149
vn -0.963573 -0.062046 0.260149
vn -0.263910 -0.037581 0.963815
vn -0.263910 -0.037581 0.963815
vn -0.263910 -0.037581 0.963815
vn -0.263910 -0.037581 0.963815
vn -0.263910 -0.037581 0.963815
vn 0.704213 -0.003514 0.709980
vn 0.704213 -0.003514 0.709980
vn 0.704213 -0.003514 0.709980
vn 0.704213 -0.003514 0.709980
vn 0.704213 -0.003514 0.709980
vn 0.961210 0.005658 -0.275760
vn 0.961210 0.005658 -0.275760
vn 0.961210 0.005658 -0.275760
vn 0.961210 0.005658 -0.275760
vn 0.961210 0.005658 -0.275760
vn 0.172001 0.008710 -0.985058
vn 0.172001 0.008710 -0.985058
vn 0.172001 0.008710 -0.985058
vn 0.172001 0.008710 -0.985058
vn -0.766520 -0.018648 -0.641949
vn -0.766520 -0.018648 -0.641949
vn -0.766520 -0.018648 -0.641949
vn -0.766520 -0.018648 -0.641949
vn -0.938775 -0.025362 0.343596
vn -0.938775 -0.025362 0.343596
vn -0.938775 -0.025362 0.343596
vn -0.938775 -0.025362 0.343596
vn -0.938775 -0.025362 0.343596
vn -0.171223 -0.004705 0.985221
vn -0.171223 -0.004705 0.985221
vn -0.171223 -0.004705 0.985221
vn -0.171223 -0.004705 0.985221
vn 0.768070 0.022741 0.639962
vn 0.768070 0.022741 0.639962
vn 0.768070 0.022741 0.639962
vn 0.768070 0.022741 0.639962
vn 0.768070 0.022741 0.639962
vn 0.938680 0.029399 -0.343535
vn 0.938680 0.029399 -0.343535
vn 0.938680 0.029399 -0.343535
vn 0.938680 0.029399 -0.343535
vn 0.938680 0.029399 -0.343535
vn -0.988360 0.116742 0.097550
vn -0.988360 0.116742 0.097550
vn -0.988360 0.116742 0.097550
vn -0.004736 0.151369 0.988466
vn -0.004736 0.151369 0.988466
vn -0.004736 0.151369 0.988466
vn 0.957586 0.270208 0.100083
vn 0.957586 0.270208 0.100083
vn 0.957586 0.270208 0.100083
vn 0.805151 -0.593046 -0.005315
vn 0.805151 -0.593046 -0.005315
vn 0.805151 -0.593046 -0.005315
vn 0.137296 -0.915713 0.377650
vn 0.137296 -0.915713 0.377650
vn 0.137296 -0.915713 0.377650
vn 0.261770 -0.965130 0.000615
vn 0.261770 -0.965130 0.000615
vn 0.261770 -0.965130 0.000615
vn -0.328920 -0.293411 0.897620
vn -0.328920 -0.293411 0.897620
vn -0.328920 -0.293411 0.897620
vn -0.228524 -0.275906 0.933623
vn -0.228524 -0.275906 0.933623
vn -0.228524 -0.275906 0.933623
vn -0.942995 0.332394 -0.016565
vn -0.942995 0.332394 -0.016565
vn -0.942995 0.332394 -0.016565
vn -0.456403 0.465410 0.758347
vn -0.456403 0.465410 0.758347
vn -0.456403 0.465410 0.758347
s off
f 1/1/1 2/2/2 22/3/3 21/4/4
f 2/2/5 3/5/6 23/6/7 22/3/8
f 3/5/9 4/7/10 24/8/11 36/9/12 23/6/13
f 4/7/14 5/10/15 25/11/16 24/8/17
f 5/10/18 33/12/19 6/13/20 26/14/21 25/11/22
f 6/13/23 34/15/24 1/1/25 21/4/26 26/14/27
f 2/2/28 1/1/29 13/16/30
f 3/5/31 2/2/32 13/16/33
f 4/7/34 3/5/35 13/16/36
f 5/10/37 4/7/38 13/16/39
f 35/17/40 33/12/41 5/10/42 13/16/43
f 1/1/44 34/15/45 35/17/46 13/16/47
f 7/18/48 8/19/49 14/20/50
f 8/19/51 9/21/52 14/20/53
f 9/21/54 27/22/55 10/23/56 14/20/57
f 10/23/58 28/24/59 11/25/60 14/20/61
f 11/25/62 12/26/63 14/20/64
f 12/26/65 7/18/66 14/20/67
f 15/27/68 16/28/69 8/19/70 7/18/71
f 16/28/72 17/29/73 9/21/74 8/19/75
f 17/29/76 18/30/77 29/31/78 27/22/79 9/21/80
f 18/30/81 19/32/82 11/25/83 28/24/84 29/31/85
f 19/32/86 30/33/87 31/34/88 12/26/89 11/25/90
f 31/34/91 32/35/92 15/27/93 7/18/94 12/26/95
f 21/4/96 22/3/97 16/28/98 15/27/99
f 22/3/100 23/6/101 17/29/102 16/28/103
f 23/6/104 36/9/105 37/36/106 18/30/107 17/29/108
f 37/36/109 25/11/110 19/32/111 18/30/112
f 25/11/113 26/14/114 20/37/115 30/33/116 19/32/117
f 26/14/118 21/4/119 15/27/120 32/35/121 20/37/122
f 29/31/123 28/24/124 10/23/125
f 27/22/126 29/31/127 10/23/128
f 32/35/129 30/33/130 20/37/131
f 31/34/132 30/33/133 32/35/134
f 35/17/135 34/15/136 6/13/137
f 6/13/138 33/12/139 35/17/140
f 37/36/141 36/9/142 38/38/143
f 38/38/144 25/11/145 37/36/146
f 38/38/147 36/9/148 24/8/149
f 24/8/150 25/11/151 38/38/152
