# This file uses centimeters as units for non-parametric coordinates.

v -11.380994 -0.835052 0.888661
v -5.690497 -0.835052 10.744892
v 5.690496 -0.835052 10.744893
v 11.380994 -0.835052 0.888663
v -11.380994 0.835052 0.888661
v -5.690497 0.835052 10.744892
v 5.690496 0.835052 10.744893
v 11.380994 0.835052 0.888663
v -15.076035 -0.835052 0.888660
v -15.076035 0.835052 0.888661
v -7.538018 -0.835052 13.944889
v -7.538019 0.835052 13.944888
v 7.538017 -0.835052 13.944894
v 7.538018 0.835052 13.944893
v 15.076035 -0.835052 0.888662
v 15.076035 0.835052 0.888663
v 7.426653 17.548233 0.000000
v -7.426651 17.548233 0.000000
v -9.099761 0.000002 0.000000
v -7.426652 -17.548233 0.000000
v 7.426653 -17.548233 0.000000
v 9.099761 0.000000 0.000000
v 7.426653 17.548233 1.777325
v -7.426651 17.548233 1.777325
v -9.099761 0.000002 1.777325
v -7.426652 -17.548233 1.777325
v 7.426653 -17.548233 1.777325
v 9.099761 -0.000000 1.777325
v 11.275401 16.871681 0.000000
v -11.275395 16.871689 0.000000
v -11.275395 16.871687 1.777325
v 11.275403 16.871681 1.777325
v -16.043924 0.000003 0.000000
v -16.043924 0.000002 1.777325
v -11.275398 -16.871681 0.000000
v -11.275401 -16.871681 1.777325
v 11.275397 -16.871687 0.000000
v 11.275398 -16.871687 1.777325
v 16.043924 0.000000 0.000000
v 16.043924 -0.000000 1.777325
v -8.575114 -15.835052 0.888661
v -4.287558 -15.835052 8.314929
v 4.287557 -15.835052 8.314931
v 8.575114 -15.835052 0.888663
v -8.575114 -14.164949 0.888661
v -4.287558 -14.164949 8.314929
v 4.287557 -14.164949 8.314931
v 8.575114 -14.164949 0.888663
v -11.359178 -15.835052 0.888661
v -11.359178 -14.164949 0.888661
v -5.679589 -15.835052 10.725998
v -5.679591 -14.164949 10.725998
v 5.679588 -15.835052 10.726000
v 5.679589 -14.164949 10.725999
v 11.359178 -15.835052 0.888662
v 11.359178 -14.164949 0.888663
v 4.482931 17.548233 6.876002
v 4.482931 -17.548233 6.876002
v 5.319485 0.000000 8.324956
v 2.943722 17.548233 7.764665
v 2.943722 -17.548233 7.764665
v 3.780276 -0.000000 9.213618
v 6.407305 16.871681 10.209115
v 4.868097 16.871681 11.097779
v 6.407303 -16.871687 10.209111
v 4.868094 -16.871687 11.097775
v 8.791567 0.000000 14.338777
v 7.252357 -0.000000 15.227439
v -8.575114 14.164949 0.888661
v -4.287558 14.164949 8.314929
v 4.287557 14.164949 8.314931
v 8.575114 14.164949 0.888663
v -8.575114 15.835052 0.888661
v -4.287558 15.835052 8.314929
v 4.287557 15.835052 8.314931
v 8.575114 15.835052 0.888663
v -11.359178 14.164949 0.888661
v -11.359178 15.835052 0.888661
v -5.679589 14.164949 10.725998
v -5.679591 15.835052 10.725998
v 5.679588 14.164949 10.726000
v 5.679589 15.835052 10.725999
v 11.359178 14.164949 0.888662
v 11.359178 15.835052 0.888663
v -2.943722 17.548233 7.764665
v -2.943722 -17.548233 7.764665
v -3.780276 -0.000000 9.213618
v -4.482931 17.548233 6.876002
v -4.482931 -17.548233 6.876002
v -5.319485 -0.000000 8.324956
v -4.868096 16.871681 11.097777
v -6.407306 16.871681 10.209117
v -4.868094 -16.871687 11.097774
v -6.407304 -16.871687 10.209113
v -7.252357 0.000000 15.227439
v -8.791567 -0.000000 14.338777
v -10.161922 -7.956816 0.888661
v -10.161922 -4.727892 0.888662
v -5.080961 -7.956816 9.689144
v -5.080963 -4.727892 9.689144
v 5.080961 -7.956816 9.689146
v 5.080961 -4.727892 9.689145
v 10.161922 -7.956816 0.888662
v 10.161922 -4.727892 0.888663
vt 0.081415 0.279720
vt 0.081211 0.280100
vt 0.081213 0.280069
vt 0.081418 0.279688
vt 0.080695 0.280133
vt 0.080693 0.280102
vt 0.080421 0.279781
vt 0.080418 0.279749
vt 0.081294 0.279727
vt 0.081137 0.280012
vt 0.081139 0.279981
vt 0.081296 0.279695
vt 0.080751 0.280036
vt 0.080750 0.280005
vt 0.080544 0.279773
vt 0.080541 0.279741
vt 0.081128 0.279397
vt 0.081415 0.279720
vt 0.081418 0.279688
vt 0.081129 0.279364
vt 0.081211 0.280100
vt 0.081213 0.280069
vt 0.080695 0.280133
vt 0.080421 0.279781
vt 0.080418 0.279749
vt 0.080693 0.280102
vt 0.080649 0.279425
vt 0.080647 0.279392
vt 0.081078 0.279481
vt 0.081294 0.279727
vt 0.081296 0.279695
vt 0.081079 0.279448
vt 0.081137 0.280012
vt 0.081139 0.279981
vt 0.080751 0.280036
vt 0.080544 0.279773
vt 0.080541 0.279741
vt 0.080750 0.280005
vt 0.080714 0.279503
vt 0.080712 0.279470
vt 0.081415 0.279712
vt 0.081207 0.280100
vt 0.081209 0.280061
vt 0.081418 0.279672
vt 0.080697 0.280133
vt 0.080695 0.280094
vt 0.080421 0.279775
vt 0.080418 0.279735
vt 0.081294 0.279720
vt 0.081135 0.280011
vt 0.081137 0.279972
vt 0.081296 0.279680
vt 0.080752 0.280035
vt 0.080751 0.279996
vt 0.080544 0.279767
vt 0.080541 0.279727
vt 0.080695 0.280133
vt 0.080421 0.279781
vt 0.080418 0.279749
vt 0.080693 0.280102
vt 0.080649 0.279425
vt 0.080647 0.279392
vt 0.080751 0.280036
vt 0.080544 0.279773
vt 0.080541 0.279741
vt 0.080750 0.280005
vt 0.080714 0.279503
vt 0.080712 0.279470
vt 0.081414 0.279737
vt 0.081208 0.280101
vt 0.081210 0.280057
vt 0.081418 0.279691
vt 0.080696 0.280133
vt 0.080694 0.280089
vt 0.080422 0.279795
vt 0.080418 0.279750
vt 0.081293 0.279744
vt 0.081136 0.280017
vt 0.081137 0.279973
vt 0.081296 0.279699
vt 0.080752 0.280040
vt 0.080751 0.279996
vt 0.080544 0.279788
vt 0.080541 0.279743
vt 0.080695 0.280133
vt 0.080421 0.279781
vt 0.080418 0.279749
vt 0.080693 0.280102
vt 0.080649 0.279425
vt 0.080647 0.279392
vt 0.080751 0.280036
vt 0.080544 0.279773
vt 0.080541 0.279741
vt 0.080750 0.280005
vt 0.080714 0.279503
vt 0.080712 0.279470
vt 0.081415 0.279712
vt 0.081207 0.280100
vt 0.081209 0.280061
vt 0.081418 0.279672
vt 0.080697 0.280133
vt 0.080695 0.280094
vt 0.080421 0.279775
vt 0.080418 0.279735
vn -0.866025 0.000000 0.500000
vn -0.866025 0.000000 0.500000
vn -0.866025 0.000000 0.500000
vn -0.866025 0.000000 0.500000
vn -0.000000 0.000001 1.000000
vn -0.000000 0.000001 1.000000
vn -0.000000 0.000001 1.000000
vn -0.000000 0.000001 1.000000
vn 0.866025 -0.000000 0.500000
vn 0.866025 -0.000000 0.500000
vn 0.866025 -0.000000 0.500000
vn 0.866025 -0.000000 0.500000
vn 0.000000 -1.000000 0.000000
vn 0.000000 -1.000000 -0.000000
vn 0.000000 -1.000000 -0.000000
vn 0.000000 -1.000000 0.000000
vn 0.000000 1.000000 -0.000000
vn 0.000000 1.000000 0.000000
vn 0.000000 1.000000 0.000000
vn 0.000000 1.000000 -0.000000
vn 0.000000 -1.000000 -0.000000
vn 0.000000 -1.000000 -0.000000
vn 0.000000 -1.000000 -0.000000
vn 0.000000 -1.000000 -0.000000
vn 0.000000 1.000000 -0.000000
vn 0.000000 1.000000 -0.000000
vn 0.000000 1.000000 -0.000000
vn 0.000000 1.000000 -0.000000
vn 0.000000 -1.000000 -0.000000
vn 0.000000 -1.000000 -0.000000
vn 0.000000 -1.000000 -0.000000
vn 0.000000 -1.000000 -0.000000
vn 0.000000 1.000000 0.000000
vn 0.000000 1.000000 -0.000000
vn 0.000000 1.000000 -0.000000
vn 0.000000 1.000000 0.000000
vn -0.866025 0.000000 -0.500000
vn -0.866025 0.000000 -0.500000
vn -0.866025 0.000000 -0.500000
vn -0.866025 0.000000 -0.500000
vn 0.000000 0.000000 -1.000000
vn 0.000000 0.000000 -1.000000
vn 0.000000 0.000000 -1.000000
vn 0.000000 0.000000 -1.000000
vn 0.866026 0.000000 -0.500000
vn 0.866026 0.000000 -0.500000
vn 0.866026 0.000000 -0.500000
vn 0.866026 0.000000 -0.500000
vn -0.962303 0.271980 0.000000
vn -0.962303 0.271980 0.000000
vn -0.962303 0.271980 0.000000
vn -0.962303 0.271980 0.000000
vn -0.962303 -0.271980 -0.000001
vn -0.962303 -0.271980 -0.000001
vn -0.962303 -0.271980 -0.000001
vn -0.962303 -0.271980 -0.000001
vn 0.962303 -0.271980 -0.000000
vn 0.962303 -0.271980 -0.000000
vn 0.962303 -0.271980 -0.000000
vn 0.962303 -0.271980 -0.000000
vn 0.962303 0.271980 -0.000000
vn 0.962303 0.271980 -0.000000
vn 0.962303 0.271980 -0.000000
vn 0.962303 0.271980 -0.000000
vn 0.000000 0.000000 -1.000000
vn 0.000000 0.000000 -1.000000
vn 0.000000 0.000000 -1.000000
vn 0.000000 0.000000 -1.000000
vn 0.000000 0.000000 1.000000
vn -0.000000 0.000000 1.000000
vn -0.000000 0.000000 1.000000
vn 0.000000 0.000000 1.000000
vn 0.000000 0.000000 -1.000000
vn 0.000000 0.000000 -1.000000
vn 0.000000 0.000000 -1.000000
vn 0.000000 0.000000 -1.000000
vn 0.000000 0.000000 1.000000
vn 0.000000 0.000000 1.000000
vn 0.000000 0.000000 1.000000
vn 0.000000 0.000000 1.000000
vn 0.000000 0.000000 -1.000000
vn 0.000000 0.000000 -1.000000
vn 0.000000 0.000000 -1.000000
vn 0.000000 0.000000 -1.000000
vn -0.000000 0.000000 1.000000
vn 0.000000 0.000000 1.000000
vn 0.000000 0.000000 1.000000
vn -0.000000 0.000000 1.000000
vn 0.000000 0.000000 -1.000000
vn 0.000000 0.000000 -1.000000
vn 0.000000 0.000000 -1.000000
vn 0.000000 0.000000 -1.000000
vn -0.000000 0.000000 1.000000
vn -0.000000 0.000000 1.000000
vn -0.000000 0.000000 1.000000
vn -0.000000 0.000000 1.000000
vn -0.995486 -0.094913 0.000000
vn -0.995486 -0.094913 0.000000
vn -0.995486 -0.094913 0.000000
vn -0.995486 -0.094913 0.000000
vn -0.995486 0.094913 0.000000
vn -0.995486 0.094913 0.000000
vn -0.995486 0.094913 0.000000
vn -0.995486 0.094913 0.000000
vn 0.995486 0.094913 0.000000
vn 0.995486 0.094913 0.000000
vn 0.995486 0.094913 0.000000
vn 0.995486 0.094913 0.000000
vn 0.995486 -0.094913 0.000000
vn 0.995486 -0.094913 0.000000
vn 0.995486 -0.094913 0.000000
vn 0.995486 -0.094913 0.000000
vn 0.173130 0.984899 0.000000
vn 0.173130 0.984899 0.000000
vn 0.173130 0.984899 0.000000
vn 0.173130 0.984899 0.000000
vn -0.173129 0.984899 0.000000
vn -0.173129 0.984899 0.000000
vn -0.173129 0.984899 0.000000
vn -0.173129 0.984899 0.000000
vn -0.173130 -0.984899 -0.000001
vn -0.173130 -0.984899 -0.000001
vn -0.173130 -0.984899 -0.000001
vn -0.173130 -0.984899 -0.000001
vn 0.173129 -0.984899 0.000000
vn 0.173129 -0.984899 0.000000
vn 0.173129 -0.984899 0.000000
vn 0.173129 -0.984899 0.000000
vn -0.866025 -0.000000 0.500000
vn -0.866025 -0.000000 0.500000
vn -0.866025 -0.000000 0.500000
vn -0.866025 -0.000000 0.500000
vn -0.000000 0.000000 1.000000
vn -0.000000 0.000000 1.000000
vn -0.000000 0.000000 1.000000
vn -0.000000 0.000000 1.000000
vn 0.866025 -0.000000 0.500000
vn 0.866025 -0.000000 0.500000
vn 0.866025 -0.000000 0.500000
vn 0.866025 -0.000000 0.500000
vn 0.000000 -1.000000 -0.000000
vn 0.000000 -1.000000 -0.000000
vn 0.000000 -1.000000 -0.000000
vn 0.000000 -1.000000 -0.000000
vn 0.000000 1.000000 -0.000000
vn 0.000000 1.000000 -0.000000
vn 0.000000 1.000000 -0.000000
vn 0.000000 1.000000 -0.000000
vn 0.000000 -1.000000 -0.000000
vn 0.000000 -1.000000 -0.000000
vn 0.000000 -1.000000 -0.000000
vn 0.000000 -1.000000 -0.000000
vn 0.000000 1.000000 0.000000
vn 0.000000 1.000000 -0.000000
vn 0.000000 1.000000 -0.000000
vn 0.000000 1.000000 0.000000
vn 0.000000 -1.000000 -0.000000
vn 0.000000 -1.000000 -0.000000
vn 0.000000 -1.000000 -0.000000
vn 0.000000 -1.000000 -0.000000
vn 0.000000 1.000000 0.000000
vn 0.000000 1.000000 0.000000
vn 0.000000 1.000000 0.000000
vn 0.000000 1.000000 0.000000
vn -0.866026 0.000000 -0.500000
vn -0.866026 0.000000 -0.500000
vn -0.866026 0.000000 -0.500000
vn -0.866026 0.000000 -0.500000
vn 0.000000 0.000000 -1.000000
vn 0.000000 0.000000 -1.000000
vn 0.000000 0.000000 -1.000000
vn 0.000000 0.000000 -1.000000
vn 0.866026 0.000000 -0.500000
vn 0.866026 0.000000 -0.500000
vn 0.866026 0.000000 -0.500000
vn 0.866026 0.000000 -0.500000
vn 0.481152 -0.271980 0.833378
vn 0.481152 -0.271980 0.833378
vn 0.481152 -0.271980 0.833378
vn 0.481152 -0.271980 0.833378
vn 0.481152 0.271980 0.833379
vn 0.481152 0.271980 0.833379
vn 0.481152 0.271980 0.833379
vn 0.481152 0.271980 0.833379
vn 0.866025 0.000000 -0.500000
vn 0.866025 0.000000 -0.500000
vn 0.866025 0.000000 -0.500000
vn 0.866025 0.000000 -0.500000
vn -0.866025 0.000000 0.500000
vn -0.866025 0.000000 0.500000
vn -0.866026 0.000000 0.500000
vn -0.866025 0.000000 0.500000
vn 0.866025 0.000000 -0.500000
vn 0.866025 0.000000 -0.500000
vn 0.866025 0.000000 -0.500000
vn 0.866025 0.000000 -0.500000
vn -0.866025 0.000000 0.500000
vn -0.866025 0.000000 0.500000
vn -0.866025 0.000000 0.500000
vn -0.866025 0.000000 0.500000
vn -0.497743 -0.094913 -0.862116
vn -0.497743 -0.094913 -0.862116
vn -0.497743 -0.094913 -0.862116
vn -0.497743 -0.094913 -0.862116
vn -0.497743 0.094913 -0.862116
vn -0.497743 0.094913 -0.862116
vn -0.497743 0.094913 -0.862116
vn -0.497743 0.094913 -0.862116
vn 0.086565 0.984899 0.149935
vn 0.086565 0.984899 0.149935
vn 0.086565 0.984899 0.149935
vn 0.086565 0.984899 0.149935
vn 0.086565 -0.984899 0.149935
vn 0.086565 -0.984899 0.149935
vn 0.086565 -0.984899 0.149935
vn 0.086565 -0.984899 0.149935
vn -0.866025 -0.000000 0.500000
vn -0.866025 -0.000000 0.500000
vn -0.866025 -0.000000 0.500000
vn -0.866025 -0.000000 0.500000
vn -0.000000 0.000000 1.000000
vn -0.000000 0.000000 1.000000
vn -0.000000 0.000000 1.000000
vn -0.000000 0.000000 1.000000
vn 0.866025 -0.000000 0.500000
vn 0.866025 -0.000000 0.500000
vn 0.866025 -0.000000 0.500000
vn 0.866025 -0.000000 0.500000
vn 0.000000 -1.000000 0.000000
vn 0.000000 -1.000000 -0.000000
vn 0.000000 -1.000000 -0.000000
vn 0.000000 -1.000000 0.000000
vn 0.000000 1.000000 -0.000000
vn 0.000000 1.000000 -0.000000
vn 0.000000 1.000000 -0.000000
vn 0.000000 1.000000 -0.000000
vn 0.000000 -1.000000 -0.000000
vn 0.000000 -1.000000 -0.000000
vn 0.000000 -1.000000 -0.000000
vn 0.000000 -1.000000 -0.000000
vn 0.000000 1.000000 -0.000000
vn 0.000000 1.000000 -0.000000
vn 0.000000 1.000000 -0.000000
vn 0.000000 1.000000 -0.000000
vn 0.000000 -1.000000 -0.000000
vn 0.000000 -1.000000 0.000000
vn 0.000000 -1.000000 0.000000
vn 0.000000 -1.000000 -0.000000
vn 0.000000 1.000000 -0.000000
vn 0.000000 1.000000 -0.000000
vn 0.000000 1.000000 -0.000000
vn 0.000000 1.000000 -0.000000
vn -0.866026 0.000000 -0.500000
vn -0.866026 0.000000 -0.500000
vn -0.866026 0.000000 -0.500000
vn -0.866026 0.000000 -0.500000
vn 0.000000 0.000000 -1.000000
vn 0.000000 0.000000 -1.000000
vn 0.000000 0.000000 -1.000000
vn 0.000000 0.000000 -1.000000
vn 0.866026 0.000000 -0.500000
vn 0.866026 0.000000 -0.500000
vn 0.866026 0.000000 -0.500000
vn 0.866026 0.000000 -0.500000
vn -0.481151 -0.271980 0.833379
vn -0.481151 -0.271980 0.833379
vn -0.481151 -0.271980 0.833379
vn -0.481151 -0.271980 0.833379
vn -0.481151 0.271980 0.833379
vn -0.481151 0.271980 0.833379
vn -0.481151 0.271980 0.833379
vn -0.481151 0.271980 0.833379
vn 0.866025 -0.000000 0.500000
vn 0.866025 -0.000000 0.500000
vn 0.866025 -0.000000 0.500000
vn 0.866025 -0.000000 0.500000
vn -0.866025 -0.000000 -0.500000
vn -0.866025 -0.000000 -0.500000
vn -0.866025 -0.000000 -0.500000
vn -0.866025 -0.000000 -0.500000
vn 0.866025 -0.000000 0.500000
vn 0.866025 0.000000 0.500000
vn 0.866025 0.000000 0.500000
vn 0.866025 -0.000000 0.500000
vn -0.866025 0.000000 -0.500000
vn -0.866025 -0.000000 -0.500000
vn -0.866025 -0.000000 -0.500000
vn -0.866025 0.000000 -0.500000
vn 0.497743 -0.094913 -0.862116
vn 0.497743 -0.094913 -0.862116
vn 0.497743 -0.094913 -0.862116
vn 0.497743 -0.094913 -0.862116
vn 0.497743 0.094913 -0.862116
vn 0.497743 0.094913 -0.862116
vn 0.497743 0.094913 -0.862116
vn 0.497743 0.094913 -0.862116
vn -0.086565 0.984899 0.149935
vn -0.086565 0.984899 0.149935
vn -0.086565 0.984899 0.149935
vn -0.086565 0.984899 0.149935
vn -0.086564 -0.984899 0.149934
vn -0.086564 -0.984899 0.149934
vn -0.086564 -0.984899 0.149934
vn -0.086564 -0.984899 0.149934
vn -0.866025 -0.000000 0.500000
vn -0.866025 -0.000000 0.500000
vn -0.866025 -0.000000 0.500000
vn -0.866025 -0.000000 0.500000
vn -0.000000 0.000000 1.000000
vn -0.000000 0.000000 1.000000
vn -0.000000 0.000000 1.000000
vn -0.000000 0.000000 1.000000
vn 0.866025 0.000000 0.500000
vn 0.866025 0.000000 0.500000
vn 0.866025 0.000000 0.500000
vn 0.866025 0.000000 0.500000
vn 0.000000 -1.000000 -0.000000
vn 0.000000 -1.000000 -0.000000
vn 0.000000 -1.000000 -0.000000
vn 0.000000 -1.000000 -0.000000
vn 0.000000 1.000000 0.000000
vn 0.000000 1.000000 0.000000
vn 0.000000 1.000000 0.000000
vn 0.000000 1.000000 0.000000
vn 0.000000 0.000000 -1.000000
vn 0.000000 0.000000 -1.000000
vn 0.000000 0.000000 -1.000000
vn 0.000000 0.000000 -1.000000
s off
f 9/1/1 11/2/2 12/3/3 10/4/4
f 11/2/5 13/5/6 14/6/7 12/3/8
f 13/5/9 15/7/10 16/8/11 14/6/12
f 1/9/13 2/10/14 11/2/15 9/1/16
f 6/11/17 5/12/18 10/4/19 12/3/20
f 2/10/21 3/13/22 13/5/23 11/2/24
f 7/14/25 6/11/26 12/3/27 14/6/28
f 3/13/29 4/15/30 15/7/31 13/5/32
f 8/16/33 7/14/34 14/6/35 16/8/36
f 4/15/37 3/13/38 7/14/39 8/16/40
f 3/13/41 2/10/42 6/11/43 7/14/44
f 2/10/45 1/9/46 5/12/47 6/11/48
f 30/17/49 33/18/50 34/19/51 31/20/52
f 33/18/53 35/21/54 36/22/55 34/19/56
f 37/23/57 39/24/58 40/25/59 38/26/60
f 39/24/61 29/27/62 32/28/63 40/25/64
f 18/29/65 19/30/66 33/18/67 30/17/68
f 25/31/69 24/32/70 31/20/71 34/19/72
f 19/30/73 20/33/74 35/21/75 33/18/76
f 26/34/77 25/31/78 34/19/79 36/22/80
f 21/35/81 22/36/82 39/24/83 37/23/84
f 28/37/85 27/38/86 38/26/87 40/25/88
f 22/36/89 17/39/90 29/27/91 39/24/92
f 23/40/93 28/37/94 40/25/95 32/28/96
f 17/39/97 22/36/98 28/37/99 23/40/100
f 22/36/101 21/35/102 27/38/103 28/37/104
f 20/33/105 19/30/106 25/31/107 26/34/108
f 19/30/109 18/29/110 24/32/111 25/31/112
f 29/27/113 17/39/114 23/40/115 32/28/116
f 30/17/117 31/20/118 24/32/119 18/29/120
f 35/21/121 20/33/122 26/34/123 36/22/124
f 37/23/125 38/26/126 27/38/127 21/35/128
f 49/41/129 51/42/130 52/43/131 50/44/132
f 51/42/133 53/45/134 54/46/135 52/43/136
f 53/45/137 55/47/138 56/48/139 54/46/140
f 41/49/141 42/50/142 51/42/143 49/41/144
f 46/51/145 45/52/146 50/44/147 52/43/148
f 42/50/149 43/53/150 53/45/151 51/42/152
f 47/54/153 46/51/154 52/43/155 54/46/156
f 43/53/157 44/55/158 55/47/159 53/45/160
f 48/56/161 47/54/162 54/46/163 56/48/164
f 44/55/165 43/53/166 47/54/167 48/56/168
f 43/53/169 42/50/170 46/51/171 47/54/172
f 42/50/173 41/49/174 45/52/175 46/51/176
f 65/57/177 67/58/178 68/59/179 66/60/180
f 67/58/181 63/61/182 64/62/183 68/59/184
f 58/63/185 59/64/186 67/58/187 65/57/188
f 62/65/189 61/66/190 66/60/191 68/59/192
f 59/64/193 57/67/194 63/61/195 67/58/196
f 60/68/197 62/65/198 68/59/199 64/62/200
f 57/67/201 59/64/202 62/65/203 60/68/204
f 59/64/205 58/63/206 61/66/207 62/65/208
f 63/61/209 57/67/210 60/68/211 64/62/212
f 65/57/213 66/60/214 61/66/215 58/63/216
f 77/69/217 79/70/218 80/71/219 78/72/220
f 79/70/221 81/73/222 82/74/223 80/71/224
f 81/73/225 83/75/226 84/76/227 82/74/228
f 69/77/229 70/78/230 79/70/231 77/69/232
f 74/79/233 73/80/234 78/72/235 80/71/236
f 70/78/237 71/81/238 81/73/239 79/70/240
f 75/82/241 74/79/242 80/71/243 82/74/244
f 71/81/245 72/83/246 83/75/247 81/73/248
f 76/84/249 75/82/250 82/74/251 84/76/252
f 72/83/253 71/81/254 75/82/255 76/84/256
f 71/81/257 70/78/258 74/79/259 75/82/260
f 70/78/261 69/77/262 73/80/263 74/79/264
f 93/85/265 95/86/266 96/87/267 94/88/268
f 95/86/269 91/89/270 92/90/271 96/87/272
f 86/91/273 87/92/274 95/86/275 93/85/276
f 90/93/277 89/94/278 94/88/279 96/87/280
f 87/92/281 85/95/282 91/89/283 95/86/284
f 88/96/285 90/93/286 96/87/287 92/90/288
f 85/95/289 87/92/290 90/93/291 88/96/292
f 87/92/293 86/91/294 89/94/295 90/93/296
f 91/89/297 85/95/298 88/96/299 92/90/300
f 93/85/301 94/88/302 89/94/303 86/91/304
f 97/97/305 99/98/306 100/99/307 98/100/308
f 99/98/309 101/101/310 102/102/311 100/99/312
f 101/101/313 103/103/314 104/104/315 102/102/316
f 101/101/317 99/98/318 97/97/319 103/103/320
f 102/102/321 104/104/322 98/100/323 100/99/324
f 103/103/325 97/97/326 98/100/327 104/104/328
