# This file uses centimeters as units for non-parametric coordinates.

v -23.857527 66.676964 36.571465
v 23.857527 66.676964 36.571465
v -56.357529 66.676964 0.000000
v 56.357529 66.676964 0.000000
v -36.182068 86.475708 52.773502
v 34.280754 86.414810 52.773502
v 75.561409 86.475708 0.000000
v -75.561401 86.475708 0.000000
v -32.895329 86.475708 45.538719
v 32.895329 86.475708 45.538719
v 30.984388 91.000000 40.565529
v -30.731096 91.000000 42.616341
v 63.484379 91.000000 0.000000
v -63.484379 91.000000 0.000000
v 65.395340 86.475708 0.000000
v -65.395332 86.475708 0.000000
v -39.419434 77.926086 52.773502
v 39.419434 77.926086 52.773502
v 75.561409 77.498672 0.000000
v -75.561401 77.926086 0.000000
v -27.918301 73.734459 40.690025
v 27.918301 73.734459 40.690025
v 60.418301 73.734459 0.000000
v -60.418301 73.734459 0.000000
v 26.296515 91.000000 43.488270
v -26.619442 91.000000 43.488270
v -14.177421 91.000000 43.488270
v -24.061615 86.475708 45.538719
v -20.804859 91.000000 42.036083
v -39.419434 86.475708 50.592247
v -39.419434 82.027184 52.773502
v 13.813492 85.468399 52.773502
v 6.452868 78.933411 52.773502
v -14.563478 86.475708 45.538719
v -16.696062 86.475723 52.773502
v -15.960943 77.926086 52.773502
v 14.226933 86.475708 45.538719
v 41.389137 86.475708 49.606419
v 13.204206 91.000000 42.601780
v -50.225170 66.133644 0.000000
v 50.225174 66.133644 0.000000
v 17.725176 66.133644 30.490808
v -17.725176 66.133644 30.490808
v -50.225170 58.915394 0.000000
v 50.225174 58.915394 0.000000
v 17.725176 58.915394 30.490808
v -17.725176 58.915394 30.490808
v -41.324551 26.976086 0.000000
v -21.780941 23.229050 34.855812
v 21.855040 21.627491 34.855812
v 54.355042 23.229050 0.000000
v -13.416218 26.976086 25.850077
v 13.473615 26.976086 25.850077
v 41.381950 26.976086 0.000000
v -41.324551 58.915394 0.000000
v 41.381950 58.915394 0.000000
v 13.473615 58.915394 25.850077
v -13.416218 58.915394 25.850077
v -54.280941 15.710574 0.000000
v -21.780941 15.710574 34.855812
v 21.855040 15.710574 34.855812
v 54.355042 15.710574 0.000000
v -27.718281 0.000000 40.019672
v -60.218281 0.000000 0.000000
v -27.718281 8.935478 40.019672
v -60.218281 13.271665 0.000000
v 27.718271 13.271665 40.019672
v 27.718271 0.000000 40.019672
v 60.218269 0.000000 0.000000
v 60.218269 12.620863 0.000000
v -54.280941 23.229050 0.000000
v 13.496447 23.229050 34.855812
v -41.324551 55.885048 0.000000
v -36.809052 52.884697 0.000000
v -36.809052 33.006786 0.000000
v -41.324551 30.006430 0.000000
v -8.399338 52.884697 25.850077
v -13.416218 55.885048 25.850077
v -13.416218 30.006430 25.850077
v -8.399338 33.006786 25.850077
v 36.866444 52.884697 0.000000
v 13.473615 55.885048 25.850077
v 8.456724 52.884697 25.850077
v 8.456724 33.006786 25.850077
v 13.473615 30.006430 25.850077
v 41.381950 56.390018 0.000000
v 36.866444 33.006786 0.000000
v 41.381950 30.006430 0.000000
v -32.458408 13.271665 34.182804
v -23.845547 13.271665 40.019672
v -25.246346 14.287073 37.869759
v -7.627622 39.575146 25.850077
v 7.685018 48.958828 25.850077
vt 0.074621 0.817852
vt 0.078749 0.816570
vt 0.077554 0.819681
vt 0.068439 0.688515
vt 0.018453 0.845059
vt 0.097886 0.845059
vt 0.077392 0.858265
vt 0.057352 0.671698
vt 0.081863 0.812044
vt 0.033554 0.811428
vt 0.082831 0.814025
vt 0.033845 0.862703
vt 0.040076 0.857768
vt 0.095281 0.838289
vt 0.104035 0.836470
vt 0.052577 0.811743
vt 0.040111 0.819548
vt 0.075558 0.855469
vt 0.043073 0.823979
vt 0.022362 0.843521
vt 0.045154 0.818761
vt 0.043116 0.816570
vt 0.076053 0.655264
vt 0.069432 0.655264
vt 0.066430 0.818407
vt 0.091169 0.654173
vt 0.033508 0.813408
vt 0.083852 0.879118
vt 0.035533 0.812044
vt 0.066093 0.654173
vt 0.049058 0.816570
vt 0.047724 0.812044
vt 0.066811 0.812044
vt 0.065501 0.811662
vt 0.078307 0.810744
vt 0.072684 0.818726
vt 0.070051 0.823158
vt 0.118388 0.668818
vt 0.084060 0.863057
vt 0.043512 0.852390
vt 0.008904 0.840174
vt 0.038944 0.818398
vt 0.026748 0.806909
vt 0.089591 0.806908
vt 0.069258 0.825984
vt 0.047080 0.825984
vt 0.025961 0.843861
vt 0.045117 0.852507
vt 0.046539 0.827578
vt 0.066879 0.826870
vt 0.032639 0.868273
vt 0.084877 0.873496
vt 0.034715 0.873878
vt 0.084040 0.872892
vt 0.084877 0.879158
vt 0.084035 0.879939
vt 0.034069 0.879129
vt 0.032927 0.873878
vt 0.038546 0.873878
vt 0.040651 0.877796
vt 0.034215 0.877944
vt 0.032661 0.879158
vt 0.047622 0.721845
vt 0.056453 0.708197
vt 0.068627 0.698908
vt 0.068627 0.698908
vt 0.092874 0.698908
vt 0.099258 0.699133
vt 0.098619 0.698908
vt 0.107968 0.729742
vt 0.098619 0.729054
vt 0.074376 0.705098
vt 0.092859 0.705098
vt 0.056408 0.722078
vt 0.095478 0.727763
vt 0.008829 0.818651
vt 0.035090 0.850989
vt 0.064546 0.695359
vt 0.064546 0.697839
vt 0.064546 0.732618
vt 0.079885 0.850989
vt 0.106147 0.818651
vt 0.104097 0.695132
vt 0.066245 0.696836
vt 0.067208 0.695359
vt 0.032661 0.876212
vt 0.032639 0.873525
vt 0.034805 0.879158
vt 0.047711 0.879158
vt 0.084781 0.874668
vt 0.084766 0.867231
vt 0.115937 0.859575
vt 0.116694 0.863259
vt 0.116694 0.859514
vt 0.115937 0.863198
vt 0.093570 0.863753
vt 0.093570 0.859021
vt 0.093570 0.863753
vt 0.093570 0.859021
vt 0.112290 0.731500
vt 0.126313 0.878224
vt 0.192913 0.878174
vt 0.150942 0.870505
vt 0.163999 0.877887
vt 0.165371 0.879744
vt 0.149809 0.879063
vt 0.126412 0.866011
vt 0.117316 0.878293
vt 0.117317 0.882504
vt 0.090596 0.878036
vt 0.090596 0.882965
vt 0.048197 0.873496
vt 0.090596 0.881915
vt 0.090596 0.878036
vt 0.119380 0.878230
vt 0.119373 0.882770
vt 0.063042 0.874163
vt 0.067918 0.878492
vt 0.076301 0.862556
vt 0.087481 0.843709
vt 0.087481 0.849567
vt 0.089847 0.852410
vt 0.081199 0.865336
vt 0.087481 0.843709
vt 0.122969 0.843503
vt 0.087481 0.852410
vt 0.032661 0.873496
vt 0.195239 0.883043
vt 0.124459 0.881058
vt 0.124526 0.883043
vt 0.170535 0.883043
vt 0.169811 0.881552
vt 0.145472 0.883043
vt 0.145956 0.881261
vt 0.124412 0.863329
vt 0.192168 0.864625
vt 0.194563 0.861497
vt 0.194501 0.859299
vt 0.124433 0.861462
vt 0.147723 0.863577
vt 0.147684 0.861622
vt 0.166517 0.862712
vt 0.163485 0.865627
vt 0.150689 0.866022
vt 0.166409 0.860543
vt 0.079229 0.868665
vt 0.122966 0.852189
vt 0.078131 0.872781
vt 0.082617 0.868991
vt 0.082357 0.871666
vt 0.093472 0.863753
vt 0.116712 0.863753
vt 0.116712 0.865423
vt 0.093472 0.865423
vt 0.116712 0.863753
vt 0.093472 0.863753
vt 0.093472 0.859021
vt 0.116712 0.859021
vt 0.098121 0.907459
vt 0.109171 0.907459
vt 0.115008 0.882965
vt 0.091882 0.882965
vt 0.091882 0.878036
vt 0.120488 0.881915
vt 0.120488 0.878036
vt 0.095122 0.875294
vt 0.095122 0.877050
vt 0.123421 0.843709
vt 0.087079 0.843709
vt 0.087079 0.839705
vt 0.109849 0.906555
vt 0.109849 0.906934
vt 0.097444 0.907009
vt 0.097444 0.906554
vt 0.097442 0.910891
vt 0.098120 0.910441
vt 0.109172 0.910441
vt 0.109850 0.910891
vt 0.109849 0.911345
vt 0.097443 0.911346
vt 0.089618 0.852410
vt 0.087079 0.849567
vt 0.087079 0.843709
vt 0.123421 0.843709
vt 0.123421 0.852410
vt 0.120488 0.877050
vt 0.120488 0.875294
vt 0.123421 0.839901
vt 0.098774 0.687805
vt 0.037590 0.816570
vt 0.090624 0.655736
vt 0.097591 0.655264
vt 0.067070 0.816570
vt 0.101103 0.654173
vt 0.075848 0.654173
vt 0.072527 0.656037
vt 0.049300 0.817852
vt 0.041516 0.817852
vt 0.070793 0.654173
vt 0.100086 0.656819
vt 0.067244 0.655728
vt 0.195199 0.881326
vt 0.073095 0.851779
vt 0.071488 0.851956
vt 0.091312 0.840637
vt 0.087871 0.841197
vt 0.042603 0.850387
vt 0.018074 0.841368
vt 0.101616 0.731273
vt 0.099860 0.730375
vt 0.068627 0.729054
vt 0.054373 0.707790
vt 0.071456 0.726091
vt 0.074798 0.725508
vt 0.119093 0.723361
vt 0.110199 0.723188
vt 0.067953 0.685670
vt 0.055705 0.671161
vt 0.116802 0.670036
vt 0.099184 0.688904
vn 0.346090 0.756360 0.555105
vn 0.346090 0.756360 0.555105
vn 0.346090 0.756360 0.555105
vn 0.000000 0.000000 -1.000000
vn 0.000000 0.000000 -1.000000
vn 0.000000 0.000000 -1.000000
vn 0.000000 0.000000 -1.000000
vn -0.703037 0.484694 0.520395
vn -0.703037 0.484694 0.520395
vn -0.703037 0.484694 0.520395
vn -0.703037 0.484694 0.520395
vn 0.393554 0.238239 0.887895
vn 0.393554 0.238239 0.887895
vn 0.393554 0.238239 0.887895
vn 0.000000 0.000000 -1.000000
vn 0.000000 0.000000 -1.000000
vn 0.000000 0.000000 -1.000000
vn 0.000000 0.000000 -1.000000
vn -0.817319 0.072910 0.571554
vn -0.817319 0.072910 0.571554
vn -0.817319 0.072910 0.571554
vn -0.817319 0.072910 0.571554
vn 0.000000 1.000000 0.000000
vn 0.000000 1.000000 0.000000
vn 0.000000 1.000000 0.000000
vn 0.000000 1.000000 0.000000
vn -0.028590 -0.935647 0.351776
vn -0.028590 -0.935647 0.351776
vn -0.028590 -0.935647 0.351776
vn 0.214268 -0.963286 0.161769
vn 0.214268 -0.963286 0.161769
vn 0.214268 -0.963286 0.161769
vn 0.214268 -0.963286 0.161769
vn -0.226511 -0.959697 0.166356
vn -0.226511 -0.959697 0.166356
vn -0.226511 -0.959697 0.166356
vn -0.226511 -0.959697 0.166356
vn 0.647986 -0.531908 0.545150
vn 0.647986 -0.531908 0.545150
vn 0.647986 -0.531908 0.545150
vn 0.647986 -0.531908 0.545150
vn 0.663591 0.555609 0.500945
vn 0.663591 0.555609 0.500945
vn 0.663591 0.555609 0.500945
vn 0.663591 0.555609 0.500945
vn -0.158280 0.673169 0.722351
vn -0.158280 0.673169 0.722351
vn -0.158280 0.673169 0.722351
vn -0.058998 0.478818 0.875930
vn -0.058998 0.478818 0.875930
vn -0.058998 0.478818 0.875930
vn -0.058998 0.478818 0.875930
vn -0.024678 0.466542 0.884155
vn -0.024678 0.466542 0.884155
vn -0.024678 0.466542 0.884155
vn -0.024678 0.466542 0.884155
vn 0.209903 0.499571 0.840458
vn 0.209903 0.499571 0.840458
vn 0.209903 0.499571 0.840458
vn -0.517615 0.376689 0.768232
vn -0.517615 0.376689 0.768232
vn -0.517615 0.376689 0.768232
vn 0.000000 1.000000 0.000001
vn 0.000000 1.000000 0.000001
vn 0.000000 1.000000 0.000001
vn 0.000000 1.000000 0.000001
vn 0.016940 0.997232 0.072403
vn 0.016940 0.997232 0.072403
vn 0.016940 0.997232 0.072403
vn 0.016940 0.997232 0.072403
vn 0.000000 0.000000 1.000000
vn 0.000000 0.000000 1.000000
vn 0.000000 0.000000 1.000000
vn 0.000000 0.000000 1.000000
vn 0.000000 0.412793 0.910825
vn 0.000000 0.412793 0.910825
vn 0.000000 0.412793 0.910825
vn -0.000001 1.000000 -0.000002
vn -0.000001 1.000000 -0.000002
vn -0.000001 1.000000 -0.000002
vn -0.000001 1.000000 -0.000002
vn 0.000000 0.000000 1.000000
vn 0.000000 0.000000 1.000000
vn 0.000000 0.000000 1.000000
vn 0.000000 0.000000 1.000000
vn 0.011978 -0.930438 0.366253
vn 0.011978 -0.930438 0.366253
vn 0.011978 -0.930438 0.366253
vn 0.011978 -0.930438 0.366253
vn 0.000000 -0.944771 0.327731
vn 0.000000 -0.944771 0.327731
vn 0.000000 -0.944771 0.327731
vn 0.000000 -0.504025 0.863689
vn 0.000000 -0.504025 0.863689
vn 0.000000 -0.504025 0.863689
vn 0.000000 -0.504025 0.863689
vn -0.024107 0.996876 0.075214
vn -0.024107 0.996876 0.075214
vn -0.024107 0.996876 0.075214
vn -0.024107 0.996876 0.075214
vn -0.000002 0.000000 1.000000
vn -0.000002 0.000000 1.000000
vn -0.000002 0.000000 1.000000
vn -1.000000 0.000000 0.000000
vn -1.000000 0.000000 0.000000
vn -1.000000 0.000000 0.000000
vn -0.004438 0.999947 0.009266
vn -0.004438 0.999947 0.009266
vn -0.004438 0.999947 0.009266
vn -0.000000 0.000000 1.000000
vn -0.000000 0.000000 1.000000
vn -0.000000 0.000000 1.000000
vn -0.000000 0.000000 1.000000
vn 0.824293 0.009655 0.566082
vn 0.824293 0.009655 0.566082
vn 0.824293 0.009655 0.566082
vn 0.824293 0.009655 0.566082
vn 0.000000 1.000000 0.000000
vn 0.000000 1.000000 0.000000
vn 0.000000 1.000000 0.000000
vn 0.000000 1.000000 0.000000
vn 0.013814 0.483411 0.875285
vn 0.013814 0.483411 0.875285
vn 0.013814 0.483411 0.875285
vn 0.013814 0.483411 0.875285
vn 0.000000 0.000000 -1.000000
vn 0.000000 0.000000 -1.000000
vn 0.000000 0.000000 -1.000000
vn 0.000000 0.000000 -1.000000
vn 0.000000 0.000000 -1.000000
vn 0.000000 0.000000 -1.000000
vn 0.000000 0.000000 -1.000000
vn 0.000000 0.000000 -1.000000
vn -0.000000 0.000000 -1.000000
vn -0.000000 0.000000 -1.000000
vn -0.000000 0.000000 -1.000000
vn -0.000000 0.000000 -1.000000
vn 0.000000 -1.000000 -0.000000
vn 0.000000 -1.000000 -0.000000
vn 0.000000 -1.000000 -0.000000
vn 0.000000 -1.000000 -0.000000
vn -0.647986 -0.531908 0.545150
vn -0.647986 -0.531908 0.545150
vn -0.647986 -0.531908 0.545150
vn -0.647986 -0.531908 0.545150
vn 0.000000 0.000000 -1.000000
vn 0.000000 0.000000 -1.000000
vn 0.000000 0.000000 -1.000000
vn 0.000000 0.000000 -1.000000
vn 0.059635 -0.996545 0.057801
vn 0.059635 -0.996545 0.057801
vn 0.059635 -0.996545 0.057801
vn 0.059635 -0.996545 0.057801
vn 0.000000 -0.996032 0.088997
vn 0.000000 -0.996032 0.088997
vn 0.000000 -0.996032 0.088997
vn 0.000000 -0.996032 0.088997
vn -0.059635 -0.996545 0.057801
vn -0.059635 -0.996545 0.057801
vn -0.059635 -0.996545 0.057801
vn -0.059635 -0.996545 0.057801
vn 0.000000 0.000000 -1.000000
vn 0.000000 0.000000 -1.000000
vn 0.000000 0.000000 -1.000000
vn 0.000000 0.000000 -1.000000
vn 0.684205 0.000000 0.729290
vn 0.684205 0.000000 0.729290
vn 0.684205 0.000000 0.729290
vn 0.684205 0.000000 0.729290
vn 0.000000 0.000000 1.000000
vn 0.000000 0.000000 1.000000
vn 0.000000 0.000000 1.000000
vn 0.000000 0.000000 1.000000
vn -0.684205 0.000000 0.729290
vn -0.684205 0.000000 0.729290
vn -0.684205 0.000000 0.729290
vn -0.684205 0.000000 0.729290
vn 0.000000 1.000000 -0.000000
vn 0.000000 1.000000 -0.000000
vn 0.000000 1.000000 -0.000000
vn 0.000000 1.000000 -0.000000
vn 0.000000 1.000000 0.000002
vn 0.000000 1.000000 0.000002
vn 0.000000 1.000000 0.000002
vn 0.000000 1.000000 -0.000000
vn 0.000000 1.000000 -0.000000
vn 0.000000 1.000000 -0.000000
vn 0.000000 1.000000 -0.000000
vn 0.000000 1.000000 0.000000
vn 0.000000 1.000000 0.000000
vn 0.000000 1.000000 0.000000
vn 0.000000 1.000000 0.000000
vn 0.000000 0.000000 -1.000000
vn 0.000000 0.000000 -1.000000
vn 0.000000 0.000000 -1.000000
vn 0.000000 0.000000 -1.000000
vn -0.000000 0.000000 1.000000
vn -0.000000 0.000000 1.000000
vn -0.000000 0.000000 1.000000
vn -0.000000 0.000000 1.000000
vn -0.665069 0.000000 0.746782
vn -0.675634 -0.016020 0.737063
vn -0.675634 -0.016020 0.737063
vn -0.675634 -0.016020 0.737063
vn 0.699551 0.003791 0.714573
vn 0.659953 -0.010684 0.751231
vn 0.699551 0.003791 0.714573
vn 0.699551 0.003791 0.714573
vn -0.731391 0.000000 0.681958
vn -0.731391 0.000000 0.681958
vn -0.731391 0.000000 0.681958
vn -0.731391 0.000000 0.681958
vn 0.000000 0.000000 1.000000
vn 0.000000 0.000000 1.000000
vn 0.000000 0.000000 1.000000
vn 0.000000 0.000000 1.000000
vn 0.000000 0.000000 1.000000
vn 0.000000 0.000000 1.000000
vn 0.000000 0.000000 1.000000
vn 0.731391 0.000000 0.681958
vn 0.731391 0.000000 0.681958
vn 0.731391 0.000000 0.681958
vn 0.731391 0.000000 0.681958
vn 0.731391 0.000000 0.681958
vn 0.731391 0.000000 0.681958
vn 0.000000 0.000000 -1.000000
vn 0.000000 0.000000 -1.000000
vn 0.000000 0.000000 -1.000000
vn 0.000000 0.000000 -1.000000
vn 0.000000 0.923272 0.384147
vn 0.000000 0.923272 0.384147
vn 0.000000 0.923272 0.384147
vn 0.000000 0.923272 0.384147
vn -0.233641 0.944117 0.232496
vn -0.233641 0.944117 0.232496
vn -0.233641 0.944117 0.232496
vn -0.233641 0.944117 0.232496
vn 0.268306 0.918262 0.291217
vn 0.268306 0.918262 0.291217
vn 0.268306 0.918262 0.291217
vn 0.268306 0.918262 0.291217
vn 0.000000 0.000000 -1.000000
vn 0.000000 0.000000 -1.000000
vn 0.000000 0.000000 -1.000000
vn 0.000000 0.000000 -1.000000
vn -0.776266 0.000000 0.630406
vn -0.776266 0.000000 0.630406
vn -0.776266 0.000000 0.630406
vn -0.776266 0.000000 0.630406
vn -0.776266 -0.000002 0.630406
vn -0.776266 -0.000002 0.630406
vn -0.776266 -0.000002 0.630406
vn 0.776266 0.000000 0.630406
vn 0.776266 0.000000 0.630406
vn 0.776266 0.000000 0.630406
vn 0.000000 0.000000 -1.000000
vn 0.000000 0.000000 -1.000000
vn 0.000000 0.000000 -1.000000
vn 0.000000 0.000000 -1.000000
vn -0.363074 0.883877 0.294853
vn -0.363074 0.883877 0.294853
vn -0.363074 0.883877 0.294853
vn -0.230303 0.949685 0.212271
vn -0.230303 0.949685 0.212271
vn -0.230303 0.949685 0.212271
vn -0.230303 0.949685 0.212271
vn -0.582242 0.520010 0.624967
vn -0.582242 0.520010 0.624967
vn -0.582242 0.520010 0.624967
vn 0.218020 0.954538 0.203285
vn 0.218020 0.954538 0.203285
vn 0.218020 0.954538 0.203285
vn -0.000000 0.000000 -1.000000
vn -0.000000 0.000000 -1.000000
vn -0.000000 0.000000 -1.000000
vn -0.000000 0.000000 -1.000000
vn 0.000000 -1.000000 -0.000000
vn 0.000000 -1.000000 -0.000000
vn 0.000000 -1.000000 -0.000000
vn 0.000000 -1.000000 -0.000000
vn 0.174229 0.909307 0.377896
vn 0.174229 0.909307 0.377896
vn 0.174229 0.909307 0.377896
vn 0.000000 0.000000 -1.000000
vn 0.000000 0.000000 -1.000000
vn 0.000000 0.000000 -1.000000
vn 0.000000 0.000000 -1.000000
vn 0.679536 0.000000 0.733642
vn 0.679536 0.000000 0.733642
vn 0.679536 0.000000 0.733642
vn 0.679536 0.000000 0.733642
vn 0.000000 0.000000 1.000000
vn 0.000000 0.000000 1.000000
vn 0.000000 0.000000 1.000000
vn 0.000000 0.000000 1.000000
vn -0.679536 0.000000 0.733642
vn -0.679536 0.000000 0.733642
vn -0.679536 0.000000 0.733642
vn -0.679536 0.000000 0.733642
vn 0.000000 0.000000 -1.000000
vn 0.000000 0.000000 -1.000000
vn 0.000000 0.000000 -1.000000
vn 0.000000 0.000000 -1.000000
vn 0.000000 0.000000 1.000000
vn 0.000000 0.000000 1.000000
vn 0.000000 0.000000 1.000000
vn 0.000000 0.000000 1.000000
vn 0.700372 -0.137672 0.700375
vn 0.700372 -0.137672 0.700375
vn 0.700372 -0.137672 0.700375
vn -0.435650 0.728448 0.528746
vn -0.435650 0.728448 0.528746
vn -0.476937 0.712740 0.514327
vn -0.476937 0.712740 0.514327
vn 0.429065 0.766876 0.477289
vn 0.429065 0.766876 0.477289
vn 0.429065 0.766876 0.477289
vn 0.466070 0.779315 0.418865
vn 0.000000 0.000000 1.000000
vn 0.000000 0.000000 1.000000
vn 0.000000 0.000000 1.000000
vn -0.000000 0.000000 1.000000
vn -0.000000 0.000000 1.000000
vn -0.000000 0.000000 1.000000
vn -0.000000 0.000000 1.000000
vn -0.448392 0.503743 0.738368
vn -0.448392 0.503743 0.738368
vn -0.448392 0.503743 0.738368
vn 0.000000 0.904220 0.427067
vn 0.000000 0.904220 0.427067
vn 0.000000 0.904220 0.427067
vn 0.000000 0.904220 0.427067
vn -0.000000 0.904220 0.427066
vn -0.000000 0.904220 0.427066
vn -0.000000 0.904220 0.427066
vn 0.776266 0.000000 0.630406
vn 0.776266 0.000000 0.630406
vn 0.776266 0.000000 0.630406
vn 0.438047 0.831265 0.342220
vn 0.438047 0.831265 0.342220
vn 0.438047 0.831265 0.342220
vn -0.699444 0.082178 0.709947
vn -0.699444 0.082178 0.709947
vn -0.699444 0.082178 0.709947
vn 0.000000 0.000000 1.000000
vn 0.000000 0.000000 1.000000
vn 0.000000 0.000000 1.000000
vn 0.000000 0.000000 1.000000
vn 0.000000 0.000000 1.000000
vn 0.000000 0.000000 1.000000
vn 0.000000 0.000000 1.000000
vn 0.000000 0.000000 1.000000
vn 0.679536 0.000000 0.733642
vn 0.679536 0.000000 0.733642
vn 0.679536 0.000000 0.733642
vn 0.679536 0.000000 0.733642
vn 0.000000 0.000000 -1.000000
vn 0.000000 0.000000 -1.000000
vn 0.000000 0.000000 -1.000000
vn 0.000000 0.000000 -1.000000
vn -0.679536 0.000000 0.733642
vn -0.679536 0.000000 0.733642
vn -0.679536 0.000000 0.733642
vn -0.679536 0.000000 0.733642
vn -0.447183 -0.747352 0.491419
vn -0.447183 -0.747352 0.491419
vn -0.447183 -0.747352 0.491419
vn -0.456630 -0.763529 0.456631
vn 0.000000 0.000000 1.000000
vn 0.000000 0.000000 1.000000
vn 0.000000 0.000000 1.000000
vn 0.000000 0.000000 1.000000
vn 0.470950 -0.719974 0.509748
vn 0.470950 -0.719974 0.509748
vn 0.456629 -0.763529 0.456632
vn 0.456629 -0.763529 0.456632
vn 0.000000 0.000000 -1.000000
vn 0.000000 0.000000 -1.000000
vn 0.000000 0.000000 -1.000000
vn 0.000000 0.000000 -1.000000
s off
f 25/192/1 10/194/2 11/200/3
f 16/4/4 14/217/5 13/189/6 15/220/7
f 14/8/8 16/218/9 9/30/10 12/201/11
f 18/52/12 38/55/13 6/28/14
f 8/58/15 16/59/16 24/60/17 20/61/18
f 8/54/19 20/56/20 17/87/21 30/57/22
f 9/190/23 16/13/24 8/12/25 30/27/26
f 33/16/27 22/17/28 18/10/29
f 18/10/30 22/17/31 23/208/32 19/41/33
f 17/35/34 20/15/35 24/14/36 21/36/37
f 2/19/38 4/20/39 23/208/40 22/17/41
f 11/200/42 10/194/43 15/38/44 13/219/45
f 29/196/46 28/199/47 27/23/48
f 28/199/49 26/24/50 12/201/51 9/30/52
f 25/192/53 39/191/54 37/26/55 10/194/56
f 26/24/57 28/199/58 29/196/59
f 30/62/60 31/86/61 5/88/62
f 5/29/63 28/22/64 9/190/65 30/27/66
f 34/31/67 35/32/68 32/33/69 37/193/70
f 35/89/71 36/112/72 33/117/73 32/118/74
f 27/23/75 28/199/76 34/195/77
f 28/22/78 5/29/79 35/32/80 34/31/81
f 17/127/82 36/112/83 35/89/84 5/88/85
f 36/34/86 21/36/87 22/17/88 33/16/89
f 21/36/90 36/34/91 17/35/92
f 1/37/93 2/19/94 22/17/95 21/36/96
f 37/193/97 32/33/98 6/9/99 10/2/100
f 17/127/101 5/88/102 31/86/103
f 30/62/104 17/127/105 31/86/106
f 6/9/107 38/11/108 10/2/109
f 32/118/110 33/117/111 18/52/112 6/28/113
f 38/53/114 18/51/115 19/91/116 7/90/117
f 15/7/118 10/2/119 38/11/120 7/39/121
f 27/23/122 34/195/123 37/26/124 39/191/125
f 24/60/126 16/59/127 15/146/128 23/148/129
f 3/40/130 24/207/131 23/18/132 4/203/133
f 23/148/134 15/146/135 7/149/136 19/150/137
f 44/43/138 45/44/139 46/45/140 47/46/141
f 24/14/142 3/205/143 1/37/144 21/36/145
f 3/40/146 4/203/147 41/204/148 40/48/149
f 4/20/150 2/19/151 42/49/152 41/47/153
f 2/19/154 1/37/155 43/50/156 42/49/157
f 1/37/158 3/205/159 40/206/160 43/50/161
f 40/151/162 41/152/163 45/153/164 44/154/165
f 41/93/166 42/96/167 46/97/168 45/94/169
f 42/155/170 43/156/171 47/157/172 46/158/173
f 43/98/174 40/92/175 44/95/176 47/99/177
f 11/3/178 13/6/179 14/5/180 25/1/181
f 25/1/182 14/5/183 39/25/184
f 27/197/185 39/25/186 14/5/187 29/21/188
f 26/198/189 29/21/190 14/5/191 12/42/192
f 74/159/193 81/160/194 87/177/195 75/176/196
f 92/103/197 93/104/198 83/105/199 77/106/200
f 74/101/201 75/107/202 92/103/203 77/106/204
f 84/143/205 87/136/206 81/102/207 93/104/208
f 71/108/209 59/109/210 60/110/211 49/111/212
f 72/161/213 49/162/214 60/163/215 50/164/216
f 61/165/217 50/164/218 60/163/219
f 50/113/220 61/114/221 62/115/222
f 62/115/223 51/116/224 50/113/225
f 59/167/226 71/166/227 51/187/228 62/186/229
f 52/72/230 49/66/231 72/67/232 53/73/233
f 71/63/234 49/66/235 52/72/236 48/74/237
f 50/68/238 51/215/239 54/216/240 53/73/241
f 54/75/242 51/71/243 71/213/244 48/214/245
f 66/123/246 64/119/247 63/120/248 65/121/249
f 65/121/250 89/122/251 66/123/252
f 68/124/253 69/125/254 67/126/255
f 69/168/256 64/169/257 66/170/258 70/188/259
f 66/212/260 89/79/261 59/64/262
f 91/84/263 60/65/264 59/64/265 89/79/266
f 65/78/267 90/85/268 91/84/269
f 62/70/270 61/69/271 67/83/272
f 66/80/273 59/211/274 62/210/275 70/209/276
f 64/76/277 69/82/278 68/81/279 63/77/280
f 53/73/281 72/67/282 50/68/283
f 56/171/284 86/172/285 73/173/286 55/174/287
f 57/131/288 82/132/289 86/202/290 56/128/291
f 58/133/292 78/134/293 82/132/294 57/131/295
f 55/130/296 73/129/297 78/134/298 58/133/299
f 76/175/300 75/176/301 87/177/302 88/178/303
f 85/142/304 84/143/305 80/144/306 79/140/307
f 81/102/308 83/105/309 93/104/310
f 79/140/311 80/144/312 75/107/313 76/135/314
f 85/142/315 88/137/316 87/136/317 84/143/318
f 63/183/319 68/184/320 65/182/321
f 90/181/322 65/182/323 68/184/324 67/185/325
f 91/84/326 89/79/327 65/78/328
f 90/85/329 67/83/330 61/69/331 60/65/332
f 91/84/333 90/85/334 60/65/335
f 67/126/336 69/125/337 70/147/338
f 62/70/339 67/83/340 70/100/341
f 92/103/342 75/107/343 80/144/344
f 84/143/345 93/104/346 92/103/347 80/144/348
f 85/142/349 79/140/350 52/141/351 53/145/352
f 88/137/353 85/142/354 53/145/355 54/138/356
f 76/175/357 88/178/358 54/179/359 48/180/360
f 79/140/361 76/135/362 48/139/363 52/141/364
f 78/134/365 73/129/366 74/101/367 77/106/368
f 82/132/369 78/134/370 77/106/371 83/105/372
f 81/102/373 86/202/374 82/132/375 83/105/376
f 73/173/377 86/172/378 81/160/379 74/159/380
