# This file uses centimeters as units for non-parametric coordinates.

v -3.506587 116.121933 1.413457
v -0.939453 -115.123314 -0.905931
v 4.078125 -112.006340 -0.730469
v -0.439453 -116.121941 2.504226
v 4.580078 -113.004967 2.679688
v -4.577605 98.849480 -0.745051
v -1.338411 99.224693 -0.745051
v -1.338411 99.224693 2.516668
v -4.577605 98.849480 2.516668
v -3.139930 -35.979202 1.573997
v 1.114655 -35.979202 1.573997
v 1.114655 -35.979198 -2.679909
v -3.139930 -35.979198 -2.679909
vt 0.373050 0.379579
vt 0.373049 0.379579
vt 0.373043 0.379561
vt 0.373044 0.379561
vt 0.373042 0.379549
vt 0.373041 0.379550
vt 0.373041 0.379550
vt 0.373042 0.379550
vt 0.373044 0.379562
vt 0.373043 0.379562
vt 0.373049 0.379580
vt 0.373050 0.379580
vt 0.373050 0.379582
vn -0.001322 0.019189 -0.999815
vn -0.001477 0.020434 -0.999790
vn 0.010983 -0.001657 -0.999938
vn 0.010577 -0.001104 -0.999943
vn 0.509426 -0.802767 -0.309918
vn 0.509426 -0.802767 -0.309918
vn 0.509426 -0.802767 -0.309918
vn 0.509426 -0.802767 -0.309918
vn -0.009323 0.000917 0.999956
vn -0.009712 0.001234 0.999952
vn -0.000078 -0.003066 0.999995
vn 0.000009 -0.003864 0.999993
vn 0.999728 0.023327 0.000000
vn 0.999721 0.023606 0.000000
vn 0.999408 0.026431 -0.022038
vn 0.999413 0.026369 -0.021872
vn -0.999578 -0.017789 0.022953
vn -0.999575 -0.017825 0.023069
vn -0.999976 -0.006967 -0.000000
vn -0.999974 -0.007153 -0.000000
vn -0.014465 0.124874 -0.992067
vn -0.001477 0.020434 -0.999790
vn -0.001322 0.019189 -0.999815
vn 0.991868 0.127272 0.000000
vn 0.999721 0.023606 0.000000
vn 0.999728 0.023327 0.000000
vn 0.000009 -0.003864 0.999993
vn -0.000078 -0.003066 0.999995
vn -0.007436 0.064199 0.997909
vn -0.999974 -0.007153 -0.000000
vn -0.999976 -0.006967 -0.000000
vn -0.998083 0.061888 0.000000
vn -0.022963 0.012049 0.999664
vn -0.022963 0.012049 0.999664
vn -0.009712 0.001234 0.999952
vn -0.009323 0.000917 0.999956
vn 0.999413 0.026369 -0.021872
vn 0.999408 0.026431 -0.022038
vn 0.997367 0.040696 -0.060019
vn 0.997367 0.040696 -0.060019
vn 0.010577 -0.001104 -0.999943
vn 0.010983 -0.001657 -0.999938
vn 0.026675 -0.023093 -0.999377
vn 0.026675 -0.023093 -0.999377
vn -0.997683 -0.029657 0.061224
vn -0.999575 -0.017825 0.023069
vn -0.999578 -0.017789 0.022953
vn -0.997683 -0.029657 0.061224
s off
f 6/1/1 7/2/2 12/3/3 13/4/4
f 2/5/5 3/6/6 5/7/7 4/8/8
f 10/9/9 11/10/10 8/11/11 9/12/12
f 7/2/13 8/11/14 11/10/15 12/3/16
f 13/4/17 10/9/18 9/12/19 6/1/20
f 1/13/21 7/2/22 6/1/23
f 1/13/24 8/11/25 7/2/26
f 9/12/27 8/11/28 1/13/29
f 6/1/30 9/12/31 1/13/32
f 4/8/33 5/7/34 11/10/35 10/9/36
f 12/3/37 11/10/38 5/7/39 3/6/40
f 13/4/41 12/3/42 3/6/43 2/5/44
f 4/8/45 10/9/46 13/4/47 2/5/48
