# This file uses centimeters as units for non-parametric coordinates.

v 33.697754 23.009766 7.391602
v 33.698242 13.477539 7.391602
v -33.698242 13.480469 7.391602
v 13.479980 6.738281 7.391602
v 6.740234 -0.000000 7.391602
v 6.739258 13.478516 7.391602
v 0.000732 6.739258 7.391602
v 20.219482 13.478516 7.391602
v 13.480957 -6.741211 7.391602
v -20.218506 13.478516 7.391602
v 33.698730 -13.480470 7.391602
v 20.219482 -0.000977 7.391602
v 20.219971 -13.480470 7.391602
v 6.740967 -13.480470 7.391602
v 0.000732 -6.741211 7.391602
v -6.740234 13.480469 7.391602
v -6.739258 -0.000000 7.391602
v -13.479004 6.739258 7.391602
v -20.218506 -13.477540 7.391602
v -33.697754 -13.478517 7.391602
v -13.479004 -6.738281 7.391602
v -20.217773 -0.000000 7.391602
v -6.738281 -13.478517 7.391602
v 33.698730 -23.009766 7.391602
v -33.698730 23.009766 7.391602
v -33.697754 -23.009766 7.391602
v 33.697754 23.009768 -7.391602
v 20.219482 13.478518 -7.391602
v 33.698242 13.477537 -7.391602
v 13.479980 6.738279 -7.391602
v 6.739258 13.478518 -7.391602
v 0.000732 6.739256 -7.391602
v 6.740234 0.000000 -7.391602
v 20.219482 -0.000977 -7.391602
v 13.480957 -6.741211 -7.391602
v 33.698730 -13.480469 -7.391602
v 20.219971 -13.480469 -7.391602
v 0.000732 -6.741211 -7.391602
v 6.740967 -13.480469 -7.391602
v -6.740234 13.480471 -7.391602
v -13.479004 6.739256 -7.391602
v -6.739258 0.000000 -7.391602
v -20.217773 0.000000 -7.391602
v -13.479004 -6.738281 -7.391602
v -33.697754 -13.478516 -7.391602
v -20.218506 -13.477539 -7.391602
v -20.218506 13.478518 -7.391602
v -6.738281 -13.478516 -7.391602
v 33.698730 -23.009766 -7.391602
v -33.698242 13.480471 -7.391602
v -33.698730 23.009768 -7.391602
v -33.697754 -23.009766 -7.391602
v 0.520264 -23.009766 7.391602
v -20.049805 -23.009766 7.391602
v -8.298584 -16.866211 7.391602
v -11.192383 -23.009766 2.537109
v 23.342773 23.009766 7.391602
v -1.939453 23.009766 7.391602
v 7.934326 16.814453 7.391602
v 12.840820 23.009766 0.170898
vt 0.026058 0.511781
vt 0.026058 0.511781
vt 0.026058 0.511781
vt 0.026058 0.511781
vt 0.026058 0.511781
vt 0.026058 0.511781
vt 0.026058 0.511781
vt 0.026058 0.511781
vt 0.026058 0.511781
vt 0.026058 0.511781
vt 0.026058 0.511781
vt 0.026058 0.511781
vt 0.026058 0.511781
vt 0.026058 0.511781
vt 0.026058 0.511781
vt 0.026058 0.511781
vt 0.026058 0.511781
vt 0.026058 0.511781
vt 0.026058 0.511781
vt 0.026058 0.511781
vt 0.026058 0.511781
vt 0.026058 0.511781
vt 0.026058 0.511781
vt 0.026058 0.511781
vt 0.026058 0.511781
vt 0.026058 0.511781
vt 0.026058 0.511781
vt 0.026058 0.511781
vt 0.026058 0.511781
vt 0.026058 0.511781
vt 0.026058 0.511781
vt 0.026058 0.511781
vt 0.026058 0.511781
vt 0.026058 0.511781
vt 0.026058 0.511781
vt 0.026058 0.511781
vt 0.026058 0.511781
vt 0.026058 0.511781
vt 0.026058 0.511781
vt 0.026058 0.511781
vt 0.026058 0.511781
vt 0.026058 0.511781
vt 0.026058 0.511781
vt 0.026058 0.511781
vt 0.026058 0.511781
vt 0.026058 0.511781
vt 0.026058 0.511781
vt 0.026058 0.511781
vt 0.026058 0.511781
vt 0.026058 0.511781
vt 0.026058 0.511781
vt 0.026058 0.511781
vt 0.026058 0.511781
vt 0.026058 0.511781
vt 0.026058 0.511781
vt 0.026058 0.511781
vt 0.026058 0.511781
vt 0.026058 0.511781
vt 0.026058 0.511781
vt 0.026058 0.511781
vt 0.026058 0.511781
vt 0.026058 0.511781
vt 0.026058 0.511781
vt 0.026058 0.511781
vt 0.026058 0.511781
vt 0.026058 0.511781
vt 0.009277 0.508654
vt 0.009277 0.508654
vt 0.009277 0.508654
vt 0.009277 0.508654
vt 0.009277 0.508654
vt 0.009277 0.508654
vt 0.009277 0.508654
vt 0.009277 0.508654
vt 0.009277 0.508654
vt 0.009277 0.508654
vt 0.009277 0.508654
vt 0.009277 0.508654
vt 0.009277 0.508654
vt 0.009277 0.508654
vt 0.009277 0.508654
vt 0.009277 0.508654
vt 0.009277 0.508654
vt 0.009277 0.508654
vt 0.009277 0.508654
vt 0.009277 0.508654
vt 0.009277 0.508654
vt 0.009277 0.508654
vt 0.009277 0.508654
vt 0.009277 0.508654
vt 0.009277 0.508654
vt 0.009277 0.508654
vt 0.009277 0.508654
vt 0.009277 0.508654
vt 0.009277 0.508654
vt 0.009277 0.508654
vt 0.009277 0.508654
vt 0.009277 0.508654
vt 0.009277 0.508654
vt 0.009277 0.508654
vt 0.009277 0.508654
vt 0.009277 0.508654
vt 0.009277 0.508654
vt 0.009277 0.508654
vt 0.009277 0.508654
vt 0.009277 0.508654
vt 0.009277 0.508654
vt 0.009277 0.508654
vt 0.009277 0.508654
vt 0.009277 0.508654
vt 0.009277 0.508654
vt 0.009277 0.508654
vt 0.009277 0.508654
vt 0.009277 0.508654
vt 0.009277 0.508654
vt 0.009277 0.508655
vt 0.009277 0.508654
vt 0.009277 0.508654
vt 0.009277 0.508654
vt 0.009277 0.508654
vt 0.009277 0.508654
vt 0.009277 0.508654
vt 0.009277 0.508655
vt 0.009277 0.508654
vt 0.026058 0.511781
vt 0.026058 0.511781
vt 0.026058 0.511781
vt 0.026058 0.511781
vt 0.026058 0.511781
vt 0.026058 0.511781
vt 0.026058 0.511781
vt 0.026058 0.511781
vt 0.026058 0.511781
vt 0.026058 0.511781
vt 0.026058 0.511781
vn 0.000000 0.000000 1.000000
vn 0.000000 0.000000 1.000000
vn 0.000000 0.000000 1.000000
vn -0.000000 0.000000 1.000000
vn -0.000000 0.000000 1.000000
vn -0.000000 0.000000 1.000000
vn -0.000000 0.000000 1.000000
vn 0.000000 0.000000 1.000000
vn 0.000000 0.000000 1.000000
vn 0.000000 0.000000 1.000000
vn 0.000000 0.000000 1.000000
vn 0.000000 0.000000 1.000000
vn 0.000000 0.000000 1.000000
vn 0.000000 0.000000 1.000000
vn 0.000000 0.000000 1.000000
vn 0.000000 0.000000 1.000000
vn 0.000000 0.000000 1.000000
vn 0.000000 0.000000 1.000000
vn 0.000000 0.000000 1.000000
vn 0.000000 0.000000 1.000000
vn 0.000000 0.000000 1.000000
vn 0.000000 0.000000 1.000000
vn 0.000000 0.000000 1.000000
vn 0.000000 0.000000 1.000000
vn 0.000000 0.000000 1.000000
vn 0.000000 0.000000 1.000000
vn 0.000000 0.000000 1.000000
vn 0.000000 0.000000 1.000000
vn 0.000000 0.000000 1.000000
vn 0.000000 0.000000 1.000000
vn 0.000000 0.000000 1.000000
vn 0.000000 0.000000 1.000000
vn 0.000000 0.000000 1.000000
vn 0.000000 0.000000 1.000000
vn 0.000000 0.000000 1.000000
vn 0.000000 0.000000 1.000000
vn 0.000000 0.000000 1.000000
vn 0.000000 0.000000 1.000000
vn 0.000000 0.000000 1.000000
vn 0.000000 0.000000 1.000000
vn -0.000000 0.000000 1.000000
vn -0.000000 0.000000 1.000000
vn -0.000000 0.000000 1.000000
vn -0.000000 0.000000 1.000000
vn 0.000000 0.000000 1.000000
vn 0.000000 0.000000 1.000000
vn 0.000000 0.000000 1.000000
vn 0.000000 0.000000 1.000000
vn 0.000000 0.000000 1.000000
vn 0.000000 0.000000 1.000000
vn 0.000000 0.000000 1.000000
vn 0.000000 0.000000 1.000000
vn 0.000000 0.000000 1.000000
vn 0.000000 0.000000 1.000000
vn 0.000000 0.000000 1.000000
vn 0.000000 0.000000 1.000000
vn 0.000000 0.000000 1.000000
vn 0.000000 0.000000 1.000000
vn 0.000000 0.000000 1.000000
vn -0.000000 0.000000 1.000000
vn -0.000000 0.000000 1.000000
vn -0.000000 0.000000 1.000000
vn 0.000000 0.000000 1.000000
vn 0.000000 0.000000 1.000000
vn 0.000000 0.000000 1.000000
vn 0.000000 0.000000 1.000000
vn 0.000000 0.000000 1.000000
vn 0.000000 0.000000 1.000000
vn 0.000000 0.000000 1.000000
vn 0.000000 0.000000 1.000000
vn 0.000000 0.000000 1.000000
vn 0.000000 0.000000 1.000000
vn 0.000000 0.000000 1.000000
vn 0.000000 0.000000 1.000000
vn 0.000000 0.000000 1.000000
vn 0.000000 0.000000 1.000000
vn 0.000000 0.000000 1.000000
vn 0.000000 0.000000 1.000000
vn 0.000000 0.000000 1.000000
vn 0.000000 0.000000 1.000000
vn 0.000000 0.000000 1.000000
vn 0.000000 0.000000 1.000000
vn 0.000000 0.000000 1.000000
vn 0.000000 0.000000 1.000000
vn 0.000000 0.000000 1.000000
vn 0.000000 0.000000 1.000000
vn 0.000000 0.000000 1.000000
vn 0.000000 0.000000 1.000000
vn 1.000000 0.000051 0.000000
vn 1.000000 0.000051 0.000000
vn 1.000000 0.000051 0.000000
vn 1.000000 0.000051 0.000000
vn 0.707081 0.707132 0.000000
vn 0.707081 0.707132 0.000000
vn 0.707081 0.707132 0.000000
vn 0.707081 0.707132 0.000000
vn -0.707094 -0.707120 0.000000
vn -0.707094 -0.707120 0.000000
vn -0.707094 -0.707120 0.000000
vn -0.707094 -0.707120 0.000000
vn 0.707113 0.707100 0.000000
vn 0.707113 0.707100 0.000000
vn 0.707113 0.707100 0.000000
vn 0.707113 0.707100 0.000000
vn -0.707196 0.707017 0.000000
vn -0.707196 0.707017 0.000000
vn -0.707196 0.707017 0.000000
vn -0.707196 0.707017 0.000000
vn 0.707068 -0.707145 0.000000
vn 0.707068 -0.707145 0.000000
vn 0.707068 -0.707145 0.000000
vn 0.707068 -0.707145 0.000000
vn -0.707145 0.707068 0.000000
vn -0.707145 0.707068 0.000000
vn -0.707145 0.707068 0.000000
vn -0.707145 0.707068 0.000000
vn 0.707100 -0.707113 0.000000
vn 0.707100 -0.707113 0.000000
vn 0.707100 -0.707113 0.000000
vn 0.707100 -0.707113 0.000000
vn -0.707235 0.706979 0.000000
vn -0.707235 0.706979 0.000000
vn -0.707235 0.706979 0.000000
vn -0.707235 0.706979 0.000000
vn 0.707068 -0.707145 0.000000
vn 0.707068 -0.707145 0.000000
vn 0.707068 -0.707145 0.000000
vn 0.707068 -0.707145 0.000000
vn -0.707068 0.707145 0.000000
vn -0.707068 0.707145 0.000000
vn -0.707068 0.707145 0.000000
vn -0.707068 0.707145 0.000000
vn 0.707094 -0.707120 0.000000
vn 0.707094 -0.707120 0.000000
vn 0.707094 -0.707120 0.000000
vn 0.707094 -0.707120 0.000000
vn 0.707094 0.707120 0.000000
vn 0.707094 0.707120 0.000000
vn 0.707094 0.707120 0.000000
vn 0.707094 0.707120 0.000000
vn -0.707120 -0.707094 0.000000
vn -0.707120 -0.707094 0.000000
vn -0.707120 -0.707094 0.000000
vn -0.707120 -0.707094 0.000000
vn 0.707171 0.707043 0.000000
vn 0.707171 0.707043 0.000000
vn 0.707171 0.707043 0.000000
vn 0.707171 0.707043 0.000000
vn -0.707081 -0.707132 0.000000
vn -0.707081 -0.707132 0.000000
vn -0.707081 -0.707132 0.000000
vn -0.707081 -0.707132 0.000000
vn 0.000000 1.000000 0.000000
vn 0.000000 1.000000 0.000000
vn 0.000000 1.000000 0.000000
vn 0.000000 1.000000 0.000000
vn -0.707107 -0.707107 -0.000000
vn -0.707107 -0.707107 -0.000000
vn -0.707107 -0.707107 -0.000000
vn -0.707107 -0.707107 -0.000000
vn -1.000000 -0.000051 -0.000000
vn -1.000000 -0.000051 -0.000000
vn -1.000000 -0.000051 -0.000000
vn -1.000000 -0.000051 -0.000000
vn 0.000145 -1.000000 -0.000000
vn 0.000145 -1.000000 -0.000000
vn 0.000145 -1.000000 -0.000000
vn 0.000145 -1.000000 -0.000000
vn 0.000000 1.000000 0.000000
vn 0.000000 1.000000 0.000000
vn 0.000000 1.000000 0.000000
vn 0.000000 1.000000 0.000000
vn 0.000000 1.000000 0.000000
vn 0.000000 1.000000 0.000000
vn 0.000000 1.000000 0.000000
vn 0.000000 -1.000000 -0.000000
vn 0.000000 -1.000000 -0.000000
vn 0.000000 -1.000000 -0.000000
vn 0.000000 -1.000000 -0.000000
vn 1.000000 0.000000 0.000000
vn 1.000000 0.000000 0.000000
vn 1.000000 0.000000 0.000000
vn 1.000000 0.000000 0.000000
vn 0.000072 1.000000 0.000000
vn 0.000072 1.000000 0.000000
vn 0.000072 1.000000 0.000000
vn 0.000072 1.000000 0.000000
vn -1.000000 0.000000 0.000000
vn -1.000000 0.000000 0.000000
vn -1.000000 0.000000 0.000000
vn -1.000000 0.000000 0.000000
vn 0.000000 -1.000000 0.000000
vn 0.000000 -1.000000 0.000000
vn 0.000000 -1.000000 0.000000
vn 0.000000 -1.000000 0.000000
vn 0.000000 -1.000000 0.000000
vn 0.000000 -1.000000 0.000000
vn 0.000000 -1.000000 0.000000
vn -0.335542 -0.481659 0.809578
vn -0.335542 -0.481659 0.809578
vn -0.335542 -0.481659 0.809578
vn 0.353823 -0.676783 0.645580
vn 0.353823 -0.676783 0.645580
vn 0.353823 -0.676783 0.645580
vn -0.327894 0.815509 0.476896
vn -0.327894 0.815509 0.476896
vn -0.327894 0.815509 0.476896
vn 0.359676 0.573233 0.736232
vn 0.359676 0.573233 0.736232
vn 0.359676 0.573233 0.736232
s off
f 1/1/1 8/2/2 2/3/3
f 4/4/4 6/5/5 7/6/6 5/7/7
f 12/8/8 4/9/9 5/10/10 9/11/11
f 11/12/12 12/13/13 13/14/14
f 9/15/15 5/16/16 15/17/17 14/18/18
f 2/19/19 8/20/20 4/21/21 12/22/22
f 7/23/23 16/24/24 18/25/25 17/26/26
f 17/27/27 18/28/28 22/29/29 21/30/30
f 21/31/31 22/32/32 20/33/33 19/34/34
f 18/35/35 10/36/36 22/37/37
f 12/38/38 9/39/39 13/40/40
f 15/41/41 17/42/42 21/43/43 23/44/44
f 14/45/45 15/46/46 23/47/47
f 24/48/48 13/49/49 14/50/50
f 10/51/51 3/52/52 22/53/53
f 6/54/54 16/55/55 7/56/56
f 10/57/57 25/58/58 3/59/59
f 16/60/60 25/58/61 10/57/62
f 6/61/63 1/1/64 57/131/65 59/127/66 58/129/67 25/58/68 16/60/69
f 8/2/70 1/1/71 6/61/72
f 11/62/73 13/49/74 24/48/75
f 26/63/76 23/64/77 19/65/78
f 26/63/79 19/65/80 20/66/81
f 24/48/82 14/50/83 23/64/84 26/63/85 54/134/86 55/133/87 53/135/88
f 2/67/89 29/68/90 27/69/91 1/70/92
f 4/71/93 30/72/94 31/73/95 6/74/96
f 7/75/97 32/76/98 33/77/99 5/78/100
f 11/79/101 36/80/102 34/81/103 12/82/104
f 5/78/105 33/77/106 38/83/107 15/84/108
f 14/85/109 39/86/110 35/87/111 9/88/112
f 8/89/113 28/90/114 30/72/115 4/71/116
f 12/82/117 34/81/118 29/68/119 2/67/120
f 16/91/121 40/92/122 41/93/123 18/94/124
f 17/95/125 42/96/126 32/76/127 7/75/128
f 22/97/129 43/98/130 45/99/131 20/100/132
f 19/101/133 46/102/134 44/103/135 21/104/136
f 18/94/137 41/93/138 47/105/139 10/106/140
f 9/88/141 35/87/142 37/107/143 13/108/144
f 15/84/145 38/83/146 42/96/147 17/95/148
f 21/104/149 44/103/150 48/109/151 23/110/152
f 13/108/153 37/107/154 39/86/155 14/85/156
f 3/111/157 50/112/158 43/98/159 22/97/160
f 25/113/161 51/114/162 50/112/163 3/111/164
f 10/106/165 47/105/166 40/92/167 16/91/168
f 1/70/169 27/69/170 51/114/171 25/113/172 58/115/173 60/116/174 57/117/175
f 6/74/176 31/73/177 28/90/178 8/89/179
f 24/118/180 49/119/181 36/80/182 11/79/183
f 23/110/184 48/109/185 46/102/186 19/101/187
f 20/100/188 45/99/189 52/120/190 26/121/191
f 26/121/192 52/120/193 49/119/194 24/118/195 53/122/196 56/123/197 54/124/198
f 53/135/199 55/133/200 56/132/201
f 56/132/202 55/133/203 54/134/204
f 57/130/205 60/126/206 59/125/207
f 59/125/208 60/126/209 58/128/210
