# This file uses centimeters as units for non-parametric coordinates.

v -26.959229 -20.218750 7.391602
v 0.000000 6.741211 7.391602
v -26.959229 -6.739258 7.391602
v 0.000000 20.219727 7.391602
v -33.698975 -0.000000 7.391602
v -26.959229 6.741211 7.391602
v -26.959229 20.219727 7.391602
v -47.178467 -0.000000 7.391602
v -15.293701 8.554688 7.391602
v -22.033447 1.814453 7.391602
v 12.072998 8.146484 7.391602
v 5.333008 1.406250 7.391602
v -26.959229 -20.218750 -7.391602
v 0.000000 6.741213 -7.391602
v 0.000000 20.219728 -7.391602
v -26.959229 -6.739258 -7.391602
v 12.072998 8.146482 -7.391602
v -33.698975 0.000000 -7.391602
v -47.178467 0.000000 -7.391602
v -26.959229 6.741213 -7.391602
v -26.959229 20.219725 -7.391602
v -15.293701 8.554686 -7.391602
v -22.033447 1.814453 -7.391602
v 5.333008 1.406250 -7.391602
v 26.959229 -20.218750 7.391602
v 47.178467 -0.000000 7.391602
v 14.925293 -8.184570 7.391602
v 26.959229 -6.739258 7.391602
v 33.698975 -0.000000 7.391602
v 0.000000 -20.218750 7.391602
v 26.959229 6.741211 7.391602
v 0.000000 -6.739258 7.391602
v 26.959229 20.219727 1.380859
v -5.020020 -1.719727 7.391602
v -11.760254 -8.458984 7.391602
v 21.665283 -1.445313 7.391602
v 26.959229 -20.218750 -7.391602
v 26.959229 -6.739258 -7.391602
v 14.925293 -8.184570 -7.391602
v 47.178467 0.000000 -7.391602
v 33.698975 0.000000 -7.391602
v 21.665283 -1.445313 -7.391602
v 0.000000 -20.218750 -7.391602
v 26.959229 20.219728 -7.391602
v 0.000000 -6.739258 -7.391602
v 26.959229 6.741213 -7.391602
v -5.020020 -1.719727 -7.391602
v -11.760254 -8.458984 -7.391602
v -22.852295 -16.111328 7.391602
v -10.692871 -3.952148 7.391602
v -17.925049 -5.567383 7.391602
v -17.636475 -10.896484 1.621094
v 31.767822 15.412109 7.391602
v 26.959229 13.245117 7.391602
v 22.366455 15.626953 7.391602
vt 0.026058 0.511781
vt 0.026058 0.511781
vt 0.026058 0.511781
vt 0.026058 0.511781
vt 0.026058 0.511781
vt 0.026058 0.511781
vt 0.026058 0.511781
vt 0.026058 0.511781
vt 0.026058 0.511781
vt 0.026058 0.511781
vt 0.026058 0.511781
vt 0.026058 0.511781
vt 0.009277 0.508654
vt 0.009277 0.508654
vt 0.009277 0.508654
vt 0.009277 0.508654
vt 0.009277 0.508654
vt 0.009277 0.508655
vt 0.009277 0.508654
vt 0.009277 0.508654
vt 0.009277 0.508654
vt 0.009277 0.508654
vt 0.009277 0.508654
vt 0.009277 0.508654
vt 0.009277 0.508654
vt 0.009277 0.508654
vt 0.009277 0.508654
vt 0.009277 0.508654
vt 0.009277 0.508654
vt 0.009277 0.508654
vt 0.009277 0.508654
vt 0.009277 0.508654
vt 0.009277 0.508654
vt 0.009277 0.508654
vt 0.009277 0.508654
vt 0.009277 0.508654
vt 0.009277 0.508654
vt 0.009277 0.508654
vt 0.009277 0.508654
vt 0.009277 0.508654
vt 0.026058 0.511781
vt 0.026058 0.511781
vt 0.026058 0.511781
vt 0.026058 0.511781
vt 0.026058 0.511781
vt 0.026058 0.511781
vt 0.026058 0.511781
vt 0.026058 0.511781
vt 0.026058 0.511781
vt 0.026058 0.511781
vt 0.026058 0.511781
vt 0.026058 0.511781
vt 0.026058 0.511781
vt 0.026058 0.511781
vt 0.009277 0.508654
vt 0.009277 0.508654
vt 0.009277 0.508654
vt 0.009277 0.508654
vt 0.009277 0.508654
vt 0.009277 0.508654
vt 0.009277 0.508654
vt 0.009277 0.508654
vt 0.009277 0.508654
vt 0.009277 0.508654
vt 0.009277 0.508654
vt 0.009277 0.508654
vt 0.009277 0.508655
vt 0.009277 0.508654
vt 0.009277 0.508654
vt 0.009277 0.508654
vt 0.009277 0.508654
vt 0.009277 0.508654
vt 0.009277 0.508654
vt 0.009277 0.508654
vt 0.009277 0.508654
vt 0.009277 0.508654
vt 0.009277 0.508654
vt 0.009277 0.508654
vt 0.009277 0.508654
vt 0.026058 0.511781
vt 0.026058 0.511781
vt 0.026058 0.511781
vt 0.026058 0.511781
vt 0.026058 0.511781
vt 0.026058 0.511781
vt 0.026058 0.511781
vn -0.000000 0.000000 1.000000
vn -0.000000 0.000000 1.000000
vn -0.000000 0.000000 1.000000
vn -0.000000 0.000000 1.000000
vn -0.000000 0.000000 1.000000
vn -0.000000 0.000000 1.000000
vn -0.000000 0.000000 1.000000
vn 0.000000 0.000000 1.000000
vn 0.000000 0.000000 1.000000
vn 0.000000 0.000000 1.000000
vn 0.000000 0.000000 1.000000
vn 0.000000 0.000000 1.000000
vn 0.000000 0.000000 1.000000
vn 0.000000 0.000000 1.000000
vn 0.000000 0.000000 1.000000
vn 0.000000 0.000000 1.000000
vn 0.000000 0.000000 1.000000
vn 0.000000 0.000000 1.000000
vn 0.000000 0.000000 1.000000
vn 0.000000 0.000000 1.000000
vn 0.000000 0.000000 1.000000
vn 0.000000 0.000000 1.000000
vn -0.000000 0.000000 1.000000
vn -0.000000 0.000000 1.000000
vn -0.000000 0.000000 1.000000
vn -0.000000 0.000000 1.000000
vn 0.000000 0.000000 1.000000
vn 0.000000 0.000000 1.000000
vn 0.000000 0.000000 1.000000
vn 0.707118 -0.707096 -0.000009
vn 0.707118 -0.707096 -0.000009
vn 0.707118 -0.707096 -0.000009
vn 0.707118 -0.707096 -0.000009
vn 0.707118 -0.707096 -0.000009
vn 0.707118 -0.707096 -0.000009
vn 0.707118 -0.707096 -0.000009
vn -0.707104 0.707110 0.000000
vn -0.707104 0.707110 0.000000
vn -0.707104 0.707110 0.000000
vn -0.707104 0.707110 0.000000
vn 0.707114 0.707100 0.000000
vn 0.707114 0.707100 0.000000
vn 0.707114 0.707100 0.000000
vn 0.707114 0.707100 0.000000
vn 0.707081 0.707132 0.000000
vn 0.707081 0.707132 0.000000
vn 0.707081 0.707132 0.000000
vn 0.707081 0.707132 0.000000
vn -0.707098 -0.707115 0.000000
vn -0.707098 -0.707115 0.000000
vn -0.707098 -0.707115 0.000000
vn -0.707098 -0.707115 0.000000
vn 0.707184 -0.707030 -0.000000
vn 0.707184 -0.707030 -0.000000
vn 0.707184 -0.707030 -0.000000
vn 0.707184 -0.707030 -0.000000
vn -0.707115 0.707098 -0.000000
vn -0.707115 0.707098 -0.000000
vn -0.707115 0.707098 -0.000000
vn -0.707115 0.707098 -0.000000
vn 0.707132 -0.707081 0.000000
vn 0.707132 -0.707081 0.000000
vn 0.707132 -0.707081 0.000000
vn 0.707132 -0.707081 0.000000
vn 0.707092 0.707122 -0.000000
vn 0.707092 0.707122 -0.000000
vn 0.707092 0.707122 -0.000000
vn 0.707092 0.707122 -0.000000
vn -0.707177 -0.707037 -0.000000
vn -0.707177 -0.707037 -0.000000
vn -0.707177 -0.707037 -0.000000
vn -0.707177 -0.707037 -0.000000
vn 0.707120 -0.707094 0.000000
vn 0.707120 -0.707094 0.000000
vn 0.707120 -0.707094 0.000000
vn 0.707120 -0.707094 0.000000
vn -0.707236 -0.706977 -0.000000
vn -0.707236 -0.706977 -0.000000
vn -0.707236 -0.706977 -0.000000
vn -0.707236 -0.706977 -0.000000
vn 0.000000 0.000000 1.000000
vn 0.000000 0.000000 1.000000
vn 0.000000 0.000000 1.000000
vn -0.000000 0.000000 1.000000
vn -0.000000 0.000000 1.000000
vn -0.000000 0.000000 1.000000
vn -0.000000 0.000000 1.000000
vn 0.000000 0.000000 1.000000
vn 0.000000 0.000000 1.000000
vn 0.000000 0.000000 1.000000
vn -0.000000 0.000000 1.000000
vn -0.000000 0.000000 1.000000
vn -0.000000 0.000000 1.000000
vn 0.000000 0.000000 1.000000
vn 0.000000 0.000000 1.000000
vn 0.000000 0.000000 1.000000
vn 0.000000 0.000000 1.000000
vn 0.000000 0.000000 1.000000
vn 0.000000 0.000000 1.000000
vn 0.000000 0.000000 1.000000
vn 0.000000 0.000000 1.000000
vn -0.000000 0.000000 1.000000
vn -0.000000 0.000000 1.000000
vn -0.000000 0.000000 1.000000
vn -0.000000 0.000000 1.000000
vn 0.000000 0.000000 1.000000
vn 0.000000 0.000000 1.000000
vn 0.000000 0.000000 1.000000
vn -0.707114 -0.707100 0.000000
vn -0.707114 -0.707100 0.000000
vn -0.707114 -0.707100 0.000000
vn -0.707114 -0.707100 0.000000
vn 0.707098 -0.707115 0.000000
vn 0.707098 -0.707115 0.000000
vn 0.707098 -0.707115 0.000000
vn 0.707098 -0.707115 0.000000
vn -0.707081 0.707132 0.000000
vn -0.707081 0.707132 0.000000
vn -0.707081 0.707132 0.000000
vn -0.707081 0.707132 0.000000
vn 0.707107 0.707107 0.000000
vn 0.707107 0.707107 0.000000
vn 0.707107 0.707107 0.000000
vn 0.707107 0.707107 0.000000
vn -0.707068 0.707145 0.000000
vn -0.707068 0.707145 0.000000
vn -0.707068 0.707145 0.000000
vn -0.707068 0.707145 0.000000
vn -0.707103 0.707110 0.000001
vn -0.707103 0.707110 0.000001
vn -0.707103 0.707110 0.000001
vn -0.707103 0.707110 0.000001
vn -0.707103 0.707110 0.000001
vn 0.707116 -0.707097 -0.000000
vn 0.707116 -0.707097 -0.000000
vn 0.707116 -0.707097 -0.000000
vn 0.707116 -0.707097 -0.000000
vn 0.707119 0.707094 -0.000027
vn 0.707119 0.707094 -0.000027
vn 0.707119 0.707094 -0.000027
vn 0.707119 0.707094 -0.000027
vn 0.707119 0.707094 -0.000027
vn 0.707072 0.707141 0.000000
vn 0.707072 0.707141 0.000000
vn 0.707072 0.707141 0.000000
vn 0.707072 0.707141 0.000000
vn -0.707056 0.707158 0.000000
vn -0.707056 0.707158 0.000000
vn -0.707056 0.707158 0.000000
vn -0.707056 0.707158 0.000000
vn -0.707092 -0.707121 0.000000
vn -0.707092 -0.707121 0.000000
vn -0.707092 -0.707121 0.000000
vn -0.707092 -0.707121 0.000000
vn -0.707184 -0.707030 -0.000000
vn -0.707184 -0.707030 -0.000000
vn -0.707184 -0.707030 -0.000000
vn -0.707184 -0.707030 -0.000000
vn 0.830374 -0.388038 0.399882
vn 0.830374 -0.388038 0.399882
vn 0.830374 -0.388038 0.399882
vn 0.161035 -0.721031 0.673930
vn 0.161035 -0.721031 0.673930
vn 0.161035 -0.721031 0.673930
vn -0.282235 0.626284 0.726713
vn -0.282235 0.626284 0.726713
vn -0.282235 0.626284 0.726713
vn 0.320678 0.618347 0.717504
vn 0.320678 0.618347 0.717504
vn 0.320678 0.618347 0.717504
s off
f 1/1/1 49/85/2 51/84/3 50/86/4 2/2/5 4/3/6 3/4/7
f 2/2/8 11/5/9 4/3/10
f 1/1/11 3/4/12 5/6/13
f 1/1/14 5/6/15 8/7/16
f 5/6/17 6/8/18 8/7/19
f 6/8/20 7/9/21 8/7/22
f 10/10/23 9/11/24 7/9/25 6/8/26
f 12/12/27 11/5/28 2/2/29
f 1/13/30 13/14/31 14/15/32 2/16/33 50/17/34 52/18/35 49/19/36
f 4/20/37 15/21/38 16/22/39 3/23/40
f 11/24/41 17/25/42 15/21/43 4/20/44
f 3/23/45 16/22/46 18/26/47 5/27/48
f 8/28/49 19/29/50 13/14/51 1/13/52
f 5/27/53 18/26/54 20/30/55 6/31/56
f 7/32/57 21/33/58 19/29/59 8/28/60
f 10/34/61 23/35/62 22/36/63 9/37/64
f 9/37/65 22/36/66 21/33/67 7/32/68
f 6/31/69 20/30/70 23/35/71 10/34/72
f 12/38/73 24/39/74 17/25/75 11/24/76
f 2/16/77 14/15/78 24/39/79 12/38/80
f 25/41/81 28/42/82 27/43/83
f 25/41/84 26/44/85 29/45/86 28/42/87
f 27/43/88 28/42/89 36/46/90
f 30/47/91 55/80/92 32/49/93
f 30/47/94 31/50/95 54/81/96 55/80/97
f 31/50/98 26/51/99 53/82/100 54/81/101
f 30/47/102 32/49/103 34/52/104 35/53/105
f 29/54/106 26/51/107 31/50/108
f 27/40/109 39/55/110 37/56/111 25/57/112
f 25/57/113 37/56/114 40/58/115 26/59/116
f 29/60/117 41/61/118 38/62/119 28/63/120
f 28/63/121 38/62/122 42/64/123 36/65/124
f 36/65/125 42/64/126 39/55/127 27/40/128
f 55/66/129 33/67/130 44/68/131 45/69/132 32/70/133
f 30/71/134 43/72/135 46/73/136 31/74/137
f 26/59/138 40/58/139 44/68/140 33/67/141 53/75/142
f 32/70/143 45/69/144 47/76/145 34/77/146
f 34/77/147 47/76/148 48/78/149 35/79/150
f 35/79/151 48/78/152 43/72/153 30/71/154
f 31/74/155 46/73/156 41/61/157 29/60/158
f 52/83/159 51/84/160 49/85/161
f 50/86/162 51/84/163 52/83/164
f 54/81/165 53/82/166 33/48/167
f 55/80/168 54/81/169 33/48/170
