# This file uses centimeters as units for non-parametric coordinates.

v 0.003052 0.594727 7.391602
v -5.820313 -5.824219 7.391602
v 5.825439 -5.824219 7.391602
v -0.015991 -29.115234 7.391602
v 5.825439 -29.115234 7.391602
v 11.490112 29.115234 7.391602
v -29.114868 29.115234 7.391602
v -19.687134 22.239258 7.391602
v -5.189331 22.239258 7.391602
v -29.114868 22.239258 7.391602
v -12.813110 14.633789 7.391602
v 29.114868 22.239258 7.391602
v 19.688599 22.239258 7.391602
v -7.541748 8.959961 7.391602
v -12.991577 3.062500 7.391602
v -18.277466 9.338867 7.391602
v -26.623413 1.026367 7.391602
v -20.801025 -5.390625 7.391602
v 0.003052 0.594727 -7.391602
v -5.820313 -5.824219 -7.391602
v 5.825439 -5.824219 -7.391602
v -5.822388 -29.115234 -7.391602
v 5.825439 -29.115234 -7.391602
v 11.490112 29.115236 -7.391602
v -29.114868 29.115236 -7.391602
v -19.687134 22.239260 -7.391602
v -5.189331 22.239260 -7.391602
v -29.114868 22.239260 -7.391602
v -12.813110 14.633791 -7.391602
v 29.114868 22.239260 -7.391602
v 19.688599 22.239260 -7.391602
v -7.541748 8.959963 -7.391602
v -12.991577 3.062500 -7.391602
v -18.277466 9.338869 -7.391602
v -26.623413 1.026367 -7.391602
v -20.801025 -5.390625 -7.391602
v 20.534668 11.900391 7.391602
v 7.667603 -3.603516 7.391602
v 11.441650 8.258789 7.391602
v 15.826050 6.226563 3.009766
v -5.821655 -20.635742 7.391602
v -5.822388 -29.115234 -1.964844
v -4.398682 29.115234 7.391602
v -23.607056 29.115234 7.391602
v -15.428955 25.090820 7.391602
v -13.597412 29.115234 1.683594
vt 0.026058 0.511781
vt 0.026058 0.511781
vt 0.026058 0.511781
vt 0.026058 0.511781
vt 0.026058 0.511781
vt 0.026058 0.511781
vt 0.026058 0.511781
vt 0.026058 0.511781
vt 0.026058 0.511781
vt 0.026058 0.511781
vt 0.026058 0.511781
vt 0.026058 0.511781
vt 0.026058 0.511781
vt 0.026058 0.511781
vt 0.026058 0.511781
vt 0.026058 0.511781
vt 0.026058 0.511781
vt 0.026058 0.511781
vt 0.026058 0.511781
vt 0.026058 0.511781
vt 0.026058 0.511781
vt 0.026058 0.511781
vt 0.026058 0.511781
vt 0.026058 0.511781
vt 0.026058 0.511781
vt 0.026058 0.511781
vt 0.026058 0.511781
vt 0.026058 0.511781
vt 0.026058 0.511781
vt 0.026058 0.511781
vt 0.026058 0.511781
vt 0.026058 0.511781
vt 0.026058 0.511781
vt 0.026058 0.511781
vt 0.026058 0.511781
vt 0.026058 0.511781
vt 0.026058 0.511781
vt 0.026058 0.511781
vt 0.026058 0.511781
vt 0.026058 0.511781
vt 0.026058 0.511781
vt 0.009399 0.508655
vt 0.009399 0.508656
vt 0.009399 0.508656
vt 0.009399 0.508654
vt 0.009399 0.508655
vt 0.009399 0.508656
vt 0.009399 0.508655
vt 0.009399 0.508655
vt 0.009399 0.508656
vt 0.009399 0.508655
vt 0.009399 0.508655
vt 0.009399 0.508656
vt 0.009399 0.508656
vt 0.009399 0.508655
vt 0.009399 0.508655
vt 0.009399 0.508655
vt 0.009399 0.508655
vt 0.009399 0.508655
vt 0.009399 0.508656
vt 0.009399 0.508656
vt 0.009399 0.508655
vt 0.009399 0.508655
vt 0.009399 0.508656
vt 0.009399 0.508655
vt 0.009399 0.508656
vt 0.009399 0.508656
vt 0.009399 0.508655
vt 0.009399 0.508656
vt 0.009399 0.508655
vt 0.009399 0.508655
vt 0.009399 0.508655
vt 0.009399 0.508655
vt 0.009399 0.508656
vt 0.009399 0.508655
vt 0.009399 0.508655
vt 0.009399 0.508656
vt 0.009399 0.508655
vt 0.009399 0.508656
vt 0.009399 0.508656
vt 0.009399 0.508655
vt 0.009399 0.508656
vt 0.009399 0.508655
vt 0.009399 0.508656
vt 0.009399 0.508655
vt 0.026058 0.511781
vt 0.026058 0.511781
vn 0.000000 0.000000 1.000000
vn 0.000000 0.000000 1.000000
vn 0.000000 0.000000 1.000000
vn 0.000000 0.000000 1.000000
vn 0.000000 0.000000 1.000000
vn 0.000000 0.000000 1.000000
vn 0.000000 0.000000 1.000000
vn 0.000000 0.000000 1.000000
vn 0.000000 0.000000 1.000000
vn 0.000000 0.000000 1.000000
vn 0.000000 0.000000 1.000000
vn 0.000000 0.000000 1.000000
vn 0.000000 0.000000 1.000000
vn 0.000000 0.000000 1.000000
vn 0.000000 0.000000 1.000000
vn 0.000000 0.000000 1.000000
vn 0.000000 0.000000 1.000000
vn 0.000000 0.000000 1.000000
vn 0.000000 0.000000 1.000000
vn 0.000000 0.000000 1.000000
vn 0.000000 0.000000 1.000000
vn 0.000000 0.000000 1.000000
vn 0.000000 0.000000 1.000000
vn 0.000000 0.000000 1.000000
vn 0.000000 0.000000 1.000000
vn 0.000000 0.000000 1.000000
vn 0.000000 0.000000 1.000000
vn 0.000000 0.000000 1.000000
vn 0.000000 0.000000 1.000000
vn 0.000000 0.000000 1.000000
vn 0.000000 0.000000 1.000000
vn 0.000000 0.000000 1.000000
vn -0.000000 0.000000 1.000000
vn -0.000000 0.000000 1.000000
vn -0.000000 0.000000 1.000000
vn 0.000000 0.000000 1.000000
vn 0.000000 0.000000 1.000000
vn 0.000000 0.000000 1.000000
vn -0.000000 0.000000 1.000000
vn -0.000000 0.000000 1.000000
vn -0.000000 0.000000 1.000000
vn 0.000000 0.000000 1.000000
vn 0.000000 0.000000 1.000000
vn 0.000000 0.000000 1.000000
vn 0.000000 0.000000 1.000000
vn 0.000000 0.000000 1.000000
vn 0.000000 0.000000 1.000000
vn 0.000000 0.000000 1.000000
vn 0.000000 0.000000 1.000000
vn -1.000000 0.000089 -0.000001
vn -1.000000 0.000089 -0.000001
vn -1.000000 0.000089 -0.000001
vn -1.000000 0.000089 -0.000001
vn -1.000000 0.000089 -0.000001
vn 0.000000 -1.000000 0.000000
vn 0.000000 -1.000000 0.000000
vn 0.000000 -1.000000 0.000000
vn 0.000000 -1.000000 0.000000
vn 0.000000 -1.000000 0.000000
vn 1.000000 0.000000 0.000000
vn 1.000000 0.000000 0.000000
vn 1.000000 0.000000 0.000000
vn 1.000000 0.000000 0.000000
vn 0.000000 1.000000 0.000000
vn 0.000000 1.000000 0.000000
vn 0.000000 1.000000 0.000000
vn 0.000000 1.000000 0.000000
vn 0.000000 1.000000 0.000000
vn 0.000000 1.000000 0.000000
vn 0.000000 1.000000 0.000000
vn 0.000000 -1.000000 -0.000000
vn 0.000000 -1.000000 -0.000000
vn 0.000000 -1.000000 -0.000000
vn 0.000000 -1.000000 -0.000000
vn 0.741881 0.670532 0.000000
vn 0.741881 0.670532 0.000000
vn 0.741881 0.670532 0.000000
vn 0.741881 0.670532 0.000000
vn 0.000000 1.000000 0.000000
vn 0.000000 1.000000 0.000000
vn 0.000000 1.000000 0.000000
vn 0.000000 1.000000 0.000000
vn -0.739792 0.672836 0.000000
vn -0.739792 0.672836 0.000000
vn -0.739792 0.672836 0.000000
vn -0.739792 0.672836 0.000000
vn 0.769526 -0.638615 0.000014
vn 0.769526 -0.638615 0.000014
vn 0.769526 -0.638615 0.000014
vn 0.769526 -0.638615 0.000014
vn 0.769526 -0.638615 0.000014
vn 0.769527 -0.638615 0.000014
vn 0.769527 -0.638615 0.000014
vn -1.000000 0.000000 0.000000
vn -1.000000 0.000000 0.000000
vn -1.000000 0.000000 0.000000
vn -1.000000 0.000000 0.000000
vn -0.706256 0.707956 0.000000
vn -0.706256 0.707956 0.000000
vn -0.706256 0.707956 0.000000
vn -0.706256 0.707956 0.000000
vn 0.727079 -0.686553 -0.000000
vn 0.727079 -0.686553 -0.000000
vn 0.727079 -0.686553 -0.000000
vn 0.727079 -0.686553 -0.000000
vn 0.742584 0.669753 0.000000
vn 0.742584 0.669753 0.000000
vn 0.742584 0.669753 0.000000
vn 0.742584 0.669753 0.000000
vn -0.778218 -0.627994 0.000000
vn -0.778218 -0.627994 0.000000
vn -0.778218 -0.627994 0.000000
vn -0.778218 -0.627994 0.000000
vn -0.765673 -0.643229 -0.000000
vn -0.765674 -0.643230 -0.000000
vn -0.765673 -0.643229 -0.000000
vn -0.765674 -0.643230 -0.000000
vn -0.705686 0.708525 0.000000
vn -0.705686 0.708525 0.000000
vn -0.705686 0.708525 0.000000
vn -0.705686 0.708525 0.000000
vn -0.740586 -0.671962 0.000000
vn -0.740586 -0.671962 0.000000
vn -0.740586 -0.671962 0.000000
vn -0.740586 -0.671962 0.000000
vn 0.734519 -0.678588 0.000000
vn 0.734519 -0.678588 0.000000
vn 0.734519 -0.678588 0.000000
vn 0.734519 -0.678588 0.000000
vn 0.642898 -0.204541 0.738137
vn 0.642898 -0.204541 0.738137
vn 0.642898 -0.204541 0.738137
vn 0.289950 -0.724001 0.625900
vn 0.289950 -0.724001 0.625900
vn 0.289950 -0.724001 0.625900
vn -0.734443 -0.502852 0.455778
vn -0.734443 -0.502852 0.455778
vn -0.734443 -0.502852 0.455778
vn 0.349116 0.709446 0.612213
vn 0.349116 0.709446 0.612213
vn 0.349116 0.709446 0.612213
vn -0.300025 0.822319 0.483504
vn -0.300025 0.822319 0.483504
vn -0.300025 0.822319 0.483504
s off
f 1/1/1 2/2/2 3/3/3
f 3/4/4 2/5/5 41/6/6 4/7/7 5/8/8
f 6/9/9 43/10/10 45/11/11 44/12/12 7/13/13 8/14/14 9/15/15
f 8/16/16 10/17/17 11/18/18
f 12/19/19 13/20/20 1/21/21 3/22/22 38/23/23 39/24/24 37/25/25
f 7/26/26 10/27/27 8/28/28
f 6/29/29 9/30/30 11/31/31 14/32/32
f 14/33/33 2/34/34 1/35/35
f 14/33/36 15/36/37 2/34/38
f 11/18/39 10/17/40 16/37/41
f 11/18/42 16/37/43 15/36/44 14/33/45
f 15/38/46 16/39/47 17/40/48 18/41/49
f 2/42/50 20/43/51 22/44/52 42/45/53 41/46/54
f 42/45/55 22/44/56 23/47/57 5/48/58 4/49/59
f 5/48/60 23/47/61 21/50/62 3/51/63
f 6/52/64 24/53/65 25/54/66 7/55/67 44/56/68 46/57/69 43/58/70
f 8/59/71 26/60/72 27/61/73 9/62/74
f 11/63/75 29/64/76 26/60/77 8/59/78
f 12/65/79 30/66/80 31/67/81 13/68/82
f 13/68/83 31/67/84 19/69/85 1/70/86
f 3/51/87 21/50/88 30/66/89 12/65/90 37/71/91 40/72/92 38/73/93
f 7/55/94 25/54/95 28/74/96 10/75/97
f 9/62/98 27/61/99 29/64/100 11/63/101
f 14/76/102 32/77/103 24/53/104 6/52/105
f 1/70/106 19/69/107 32/77/108 14/76/109
f 15/78/110 33/79/111 20/43/112 2/42/113
f 10/75/114 28/74/115 34/80/116 16/81/117
f 16/81/118 34/80/119 35/82/120 17/83/121
f 17/83/122 35/82/123 36/84/124 18/85/125
f 18/85/126 36/84/127 33/79/128 15/78/129
f 38/23/130 40/87/131 39/24/132
f 40/87/133 37/25/134 39/24/135
f 42/45/136 4/49/137 41/46/138
f 46/86/139 44/12/140 45/11/141
f 43/10/142 46/86/143 45/11/144
