# This file uses centimeters as units for non-parametric coordinates.

v 13.479492 -20.219727 7.391602
v 33.698975 -0.000000 7.391602
v 13.479492 -6.741211 7.391602
v 20.219482 -0.000000 7.391602
v -13.479492 -20.219727 7.391602
v 13.479492 6.738281 7.391602
v -13.479492 -6.741211 7.391602
v 13.479492 20.218750 7.391602
v -33.698975 -0.000000 7.391602
v -20.219727 -0.000000 7.391602
v -13.479492 6.738281 7.391602
v -13.479492 20.218750 7.391602
v -1.814209 8.553711 7.391602
v -8.554199 1.814453 7.391602
v 8.459229 -1.719727 7.391602
v 1.719238 -8.458984 7.391602
v 13.479492 -20.219727 -7.391602
v 20.219482 0.000000 -7.391602
v 13.479492 -6.741211 -7.391602
v 33.698975 0.000000 -7.391602
v 8.459229 -1.719727 -7.391602
v 1.719238 -8.458984 -7.391602
v -13.479492 -20.219727 -7.391602
v 13.479492 20.218752 -7.391602
v -13.479492 -6.741211 -7.391602
v 13.479492 6.738283 -7.391602
v -20.219727 0.000000 -7.391602
v -33.698975 0.000000 -7.391602
v -13.479492 20.218748 -7.391602
v -13.479492 6.738279 -7.391602
v -1.814209 8.553709 -7.391602
v -8.554199 1.814453 -7.391602
v 27.926514 5.772461 7.391602
v 16.629150 17.069336 7.391602
v 17.085693 9.250977 7.391602
v 22.263672 11.435548 -0.075195
v -22.804443 -10.895509 7.391602
v -32.540771 -1.159180 7.391602
v -23.618408 -3.479492 7.391602
v -30.199707 -3.500977 1.218750
vt 0.026058 0.511781
vt 0.026058 0.511781
vt 0.026058 0.511781
vt 0.026058 0.511781
vt 0.026058 0.511781
vt 0.026058 0.511781
vt 0.026058 0.511781
vt 0.026058 0.511781
vt 0.026058 0.511781
vt 0.026058 0.511781
vt 0.026058 0.511781
vt 0.026058 0.511781
vt 0.026058 0.511781
vt 0.026058 0.511781
vt 0.026058 0.511781
vt 0.026058 0.511781
vt 0.026058 0.511781
vt 0.026058 0.511781
vt 0.009277 0.508654
vt 0.009277 0.508654
vt 0.009277 0.508654
vt 0.009277 0.508654
vt 0.009277 0.508654
vt 0.009277 0.508654
vt 0.009277 0.508654
vt 0.009277 0.508654
vt 0.009277 0.508654
vt 0.009277 0.508654
vt 0.009277 0.508654
vt 0.009277 0.508654
vt 0.009277 0.508654
vt 0.009277 0.508654
vt 0.009277 0.508654
vt 0.009277 0.508654
vt 0.009277 0.508654
vt 0.009277 0.508654
vt 0.009277 0.508654
vt 0.009277 0.508654
vt 0.009277 0.508654
vt 0.009277 0.508654
vt 0.009277 0.508654
vt 0.009277 0.508654
vt 0.009277 0.508654
vt 0.009277 0.508655
vt 0.009277 0.508654
vt 0.009277 0.508654
vt 0.009277 0.508654
vt 0.009277 0.508654
vt 0.009277 0.508654
vt 0.009277 0.508654
vt 0.009277 0.508654
vt 0.009277 0.508654
vt 0.009277 0.508654
vt 0.009277 0.508654
vt 0.026058 0.511781
vt 0.009277 0.508655
vt 0.026058 0.511781
vt 0.009277 0.508654
vt 0.026058 0.511781
vt 0.026058 0.511781
vt 0.026058 0.511781
vt 0.026058 0.511781
vt 0.026058 0.511781
vt 0.026058 0.511781
vn 0.000000 0.000000 1.000000
vn 0.000000 0.000000 1.000000
vn 0.000000 0.000000 1.000000
vn 0.000000 0.000000 1.000000
vn 0.000000 0.000000 1.000000
vn 0.000000 0.000000 1.000000
vn -0.000000 0.000000 1.000000
vn -0.000000 0.000000 1.000000
vn -0.000000 0.000000 1.000000
vn -0.000000 0.000000 1.000000
vn -0.000000 0.000000 1.000000
vn -0.000000 0.000000 1.000000
vn -0.000000 0.000000 1.000000
vn 0.000000 0.000000 1.000000
vn 0.000000 0.000000 1.000000
vn 0.000000 0.000000 1.000000
vn 0.000000 0.000000 1.000000
vn 0.000000 0.000000 1.000000
vn 0.000000 0.000000 1.000000
vn 0.000000 0.000000 1.000000
vn 0.000000 0.000000 1.000000
vn 0.000000 0.000000 1.000000
vn 0.000000 0.000000 1.000000
vn 0.000000 0.000000 1.000000
vn 0.000000 0.000000 1.000000
vn 0.000000 0.000000 1.000000
vn 0.000000 0.000000 1.000000
vn 0.000000 0.000000 1.000000
vn 0.000000 0.000000 1.000000
vn 0.000000 0.000000 1.000000
vn 0.000000 0.000000 1.000000
vn 0.000000 0.000000 1.000000
vn 0.000000 0.000000 1.000000
vn 0.000000 0.000000 1.000000
vn 0.000000 0.000000 1.000000
vn 0.000000 0.000000 1.000000
vn 0.000000 0.000000 1.000000
vn 0.000000 0.000000 1.000000
vn 0.000000 0.000000 1.000000
vn 0.000000 0.000000 1.000000
vn -0.707171 0.707043 0.000000
vn -0.707171 0.707043 0.000000
vn -0.707171 0.707043 0.000000
vn -0.707171 0.707043 0.000000
vn 0.707111 -0.707102 0.000000
vn 0.707111 -0.707102 0.000000
vn 0.707111 -0.707102 0.000000
vn 0.707111 -0.707102 0.000000
vn 0.707193 0.707021 0.000000
vn 0.707193 0.707021 0.000000
vn 0.707193 0.707021 0.000000
vn 0.707193 0.707021 0.000000
vn -0.707068 0.707145 0.000000
vn -0.707068 0.707145 0.000000
vn -0.707068 0.707145 0.000000
vn -0.707068 0.707145 0.000000
vn -0.707121 -0.707092 0.000000
vn -0.707121 -0.707092 0.000000
vn -0.707121 -0.707092 0.000000
vn -0.707121 -0.707092 0.000000
vn -0.707120 0.707094 0.000000
vn -0.707120 0.707094 0.000000
vn -0.707120 0.707094 0.000000
vn -0.707120 0.707094 0.000000
vn 0.707094 -0.707120 -0.000000
vn 0.707094 -0.707120 -0.000000
vn 0.707094 -0.707120 -0.000000
vn 0.707094 -0.707120 -0.000000
vn 0.707158 0.707056 0.000000
vn 0.707158 0.707056 0.000000
vn 0.707158 0.707056 0.000000
vn 0.707158 0.707056 0.000000
vn -0.707112 -0.707102 -0.000044
vn -0.707112 -0.707102 -0.000044
vn -0.707112 -0.707102 -0.000044
vn -0.707112 -0.707102 -0.000044
vn -0.707112 -0.707102 -0.000044
vn -0.707112 -0.707102 -0.000044
vn -0.707112 -0.707102 -0.000044
vn -0.707094 0.707120 -0.000000
vn -0.707094 0.707120 -0.000000
vn -0.707094 0.707120 -0.000000
vn -0.707094 0.707120 -0.000000
vn 0.707004 -0.707209 0.000000
vn 0.707004 -0.707209 0.000000
vn 0.707004 -0.707209 0.000000
vn 0.707004 -0.707209 0.000000
vn 0.707068 -0.707145 0.000000
vn 0.707068 -0.707145 0.000000
vn 0.707068 -0.707145 0.000000
vn 0.707068 -0.707145 0.000000
vn 0.707099 0.707114 -0.000000
vn 0.707099 0.707114 -0.000000
vn 0.707099 0.707114 -0.000000
vn 0.707099 0.707114 -0.000000
vn -0.707002 -0.707212 0.000000
vn -0.707002 -0.707212 0.000000
vn -0.707002 -0.707212 0.000000
vn -0.707002 -0.707212 0.000000
vn 0.707094 0.707119 -0.000015
vn 0.707094 0.707119 -0.000015
vn 0.707094 0.707119 -0.000015
vn 0.707094 0.707119 -0.000015
vn 0.707094 0.707119 -0.000015
vn 0.707094 0.707119 -0.000015
vn 0.707094 0.707119 -0.000015
vn -0.707017 -0.707196 -0.000000
vn -0.707017 -0.707196 -0.000000
vn -0.707017 -0.707196 -0.000000
vn -0.707017 -0.707196 -0.000000
vn 0.274313 0.854897 0.440345
vn 0.274313 0.854897 0.440345
vn 0.274313 0.854897 0.440345
vn 0.814249 0.047547 0.578566
vn 0.814249 0.047547 0.578566
vn 0.814249 0.047547 0.578566
vn -0.682061 -0.074861 0.727453
vn -0.682061 -0.074861 0.727453
vn -0.682061 -0.074861 0.727453
vn -0.242879 -0.933949 0.262200
vn -0.242879 -0.933949 0.262200
vn -0.242879 -0.933949 0.262200
s off
f 1/1/1 4/2/2 3/3/3
f 1/1/4 2/4/5 4/2/6
f 1/1/7 3/3/8 15/5/9 16/6/10
f 5/7/11 8/8/12 7/9/13
f 5/7/14 6/10/15 8/8/16
f 5/7/17 7/9/18 10/11/19 9/12/20 38/64/21 39/62/22 37/63/23
f 9/12/24 10/11/25 12/13/26
f 10/11/27 11/14/28 12/13/29
f 14/15/30 13/16/31 12/13/32 11/14/33
f 4/17/34 2/18/35 33/55/36 35/59/37 34/57/38 8/8/39 6/10/40
f 4/19/41 18/20/42 19/21/43 3/22/44
f 1/23/45 17/24/46 20/25/47 2/26/48
f 3/22/49 19/21/50 21/27/51 15/28/52
f 15/28/53 21/27/54 22/29/55 16/30/56
f 16/30/57 22/29/58 17/24/59 1/23/60
f 8/31/61 24/32/62 25/33/63 7/34/64
f 5/35/65 23/36/66 26/37/67 6/38/68
f 7/34/69 25/33/70 27/39/71 10/40/72
f 9/41/73 28/42/74 23/36/75 5/35/76 37/43/77 40/44/78 38/45/79
f 12/46/80 29/47/81 28/42/82 9/41/83
f 10/40/84 27/39/85 30/48/86 11/49/87
f 14/50/88 32/51/89 31/52/90 13/53/91
f 13/53/92 31/52/93 29/47/94 12/46/95
f 11/49/96 30/48/97 32/51/98 14/50/99
f 2/26/100 20/25/101 24/32/102 8/31/103 34/54/104 36/56/105 33/58/106
f 6/38/107 26/37/108 18/20/109 4/19/110
f 36/61/111 35/59/112 33/55/113
f 34/57/114 35/59/115 36/61/116
f 37/63/117 39/62/118 40/60/119
f 40/60/120 39/62/121 38/64/122
