# This file uses centimeters as units for non-parametric coordinates.

v 29.116577 29.116211 7.391602
v 6.552246 22.180664 7.391602
v 17.468506 22.180664 7.391602
v 29.116577 29.116213 -7.391602
v 6.552246 22.180666 -7.391602
v 17.468506 22.180666 -7.391602
v 17.468506 -17.467773 7.391602
v -17.470337 29.116211 7.391602
v -17.470337 17.467773 7.391602
v 17.468506 -29.115234 7.391602
v 17.468506 5.821289 7.391602
v 29.116211 0.000000 7.391602
v 17.468506 -5.824219 7.391602
v 29.116211 -29.115234 -1.112305
v -9.718384 29.112305 7.391602
v 17.468506 -17.467773 -7.391602
v -17.470337 29.116213 -7.391602
v -17.470337 17.467775 -7.391602
v 17.468506 -29.115234 -7.391602
v 17.468506 5.821291 -7.391602
v 29.116211 0.000000 -7.391602
v 17.468506 -5.824219 -7.391602
v 29.116211 -29.115234 -7.391602
v -9.718384 29.112307 -7.391602
v -29.116577 29.116211 7.391602
v -29.116577 5.821289 7.391602
v -17.469849 5.821289 7.391602
v -17.469849 -5.824219 7.391602
v -29.116577 -29.115234 7.391602
v -17.469849 -22.180664 7.391602
v -6.516113 -22.197266 7.391602
v -1.928589 -29.115234 7.391602
v 9.717041 -29.112305 7.391602
v -29.116577 29.116213 -7.391602
v -29.116577 5.821291 -7.391602
v -17.469849 5.821291 -7.391602
v -17.469849 -5.824219 -7.391602
v -29.116577 -29.115234 -7.391602
v -17.469849 -22.180664 -7.391602
v -6.516113 -22.197266 -7.391602
v -1.928589 -29.115234 -7.391602
v 9.717041 -29.112305 -7.391602
v -29.116577 -2.633789 7.391602
v -29.116577 -25.441406 7.391602
v -23.797974 -14.148438 7.391602
v -29.116577 -12.678711 1.054688
v 22.460083 -29.115234 7.391602
v 29.116211 -21.373047 7.391602
v 23.203247 -23.202148 7.391602
v -5.610840 23.834961 7.391602
v 9.662598 4.208008 7.391602
v 8.301880 13.560547 7.391602
v 2.015747 14.034180 1.000977
vt 0.026058 0.511781
vt 0.026058 0.511781
vt 0.026058 0.511781
vt 0.009399 0.508655
vt 0.009399 0.508656
vt 0.009399 0.508656
vt 0.009399 0.508655
vt 0.026058 0.511781
vt 0.026058 0.511781
vt 0.026058 0.511781
vt 0.026058 0.511781
vt 0.026058 0.511781
vt 0.026058 0.511781
vt 0.026058 0.511781
vt 0.026058 0.511781
vt 0.026058 0.511781
vt 0.026058 0.511781
vt 0.026058 0.511781
vt 0.026058 0.511781
vt 0.026058 0.511781
vt 0.026058 0.511781
vt 0.026058 0.511781
vt 0.026058 0.511781
vt 0.026058 0.511781
vt 0.026058 0.511781
vt 0.026058 0.511781
vt 0.026058 0.511781
vt 0.026058 0.511781
vt 0.026058 0.511781
vt 0.026058 0.511781
vt 0.026058 0.511781
vt 0.026058 0.511781
vt 0.026058 0.511781
vt 0.026058 0.511781
vt 0.026058 0.511781
vt 0.009399 0.508655
vt 0.009399 0.508656
vt 0.009399 0.508656
vt 0.009399 0.508655
vt 0.009399 0.508655
vt 0.009399 0.508656
vt 0.009399 0.508656
vt 0.009399 0.508655
vt 0.009399 0.508656
vt 0.009399 0.508655
vt 0.009399 0.508655
vt 0.009399 0.508656
vt 0.009399 0.508656
vt 0.009399 0.508655
vt 0.009399 0.508655
vt 0.009399 0.508656
vt 0.009399 0.508654
vt 0.009399 0.508656
vt 0.009399 0.508655
vt 0.009399 0.508655
vt 0.009399 0.508656
vt 0.009399 0.508655
vt 0.009399 0.508655
vt 0.009399 0.508654
vt 0.009399 0.508655
vt 0.009399 0.508656
vt 0.009399 0.508655
vt 0.009399 0.508656
vt 0.009399 0.508655
vt 0.009399 0.508655
vt 0.009399 0.508656
vt 0.009399 0.508656
vt 0.009399 0.508655
vt 0.009399 0.508655
vt 0.009399 0.508654
vt 0.009399 0.508655
vt 0.009399 0.508655
vt 0.009399 0.508656
vt 0.009399 0.508656
vt 0.009399 0.508655
vt 0.009399 0.508655
vt 0.009399 0.508656
vt 0.009399 0.508656
vt 0.026058 0.511781
vt 0.026058 0.511781
vt 0.026058 0.511781
vt 0.026058 0.511781
vt 0.026058 0.511781
vt 0.026058 0.511781
vt 0.026058 0.511781
vt 0.026058 0.511781
vt 0.026058 0.511781
vt 0.026058 0.511781
vt 0.026058 0.511781
vt 0.026058 0.511781
vt 0.026058 0.511781
vt 0.026058 0.511781
vt 0.026058 0.511781
vt 0.026058 0.511781
vt 0.026058 0.511781
vt 0.026058 0.511781
vt 0.026058 0.511781
vt 0.026058 0.511781
vt 0.026058 0.511781
vt 0.026058 0.511781
vt 0.026058 0.511781
vt 0.026058 0.511781
vt 0.026058 0.511781
vt 0.026058 0.511781
vt 0.009399 0.508655
vt 0.009399 0.508656
vt 0.009399 0.508655
vt 0.009399 0.508655
vt 0.009399 0.508655
vt 0.009399 0.508655
vn 0.000000 0.000000 1.000000
vn 0.000000 0.000000 1.000000
vn 0.000000 0.000000 1.000000
vn 0.000000 -1.000000 -0.000000
vn 0.000000 -1.000000 -0.000000
vn 0.000000 -1.000000 -0.000000
vn 0.000000 -1.000000 -0.000000
vn -0.000000 0.000000 1.000000
vn -0.000000 0.000000 1.000000
vn -0.000000 0.000000 1.000000
vn -0.000000 0.000000 1.000000
vn 0.000000 0.000000 1.000000
vn 0.000000 0.000000 1.000000
vn 0.000000 0.000000 1.000000
vn 0.000000 0.000000 1.000000
vn 0.000000 0.000000 1.000000
vn 0.000000 0.000000 1.000000
vn 0.000000 0.000000 1.000000
vn 0.000000 0.000000 1.000000
vn 0.000000 0.000000 1.000000
vn 0.000000 0.000000 1.000000
vn 0.000000 0.000000 1.000000
vn 0.000000 0.000000 1.000000
vn 0.000000 0.000000 1.000000
vn 0.000000 0.000000 1.000000
vn 0.000000 0.000000 1.000000
vn 0.000000 0.000000 1.000000
vn -0.000000 0.000000 1.000000
vn -0.000000 0.000000 1.000000
vn -0.000000 0.000000 1.000000
vn 0.000000 0.000000 1.000000
vn 0.000000 0.000000 1.000000
vn 0.000000 0.000000 1.000000
vn 0.000000 0.000000 1.000000
vn 0.000000 0.000000 1.000000
vn 0.000000 0.000000 1.000000
vn 0.000000 0.000000 1.000000
vn 0.799993 0.600009 0.000000
vn 0.799993 0.600009 0.000000
vn 0.799993 0.600009 0.000000
vn 0.799993 0.600009 0.000000
vn -0.799987 -0.600017 -0.000000
vn -0.799987 -0.600017 -0.000000
vn -0.799987 -0.600017 -0.000000
vn -0.799987 -0.600017 -0.000000
vn -1.000000 0.000000 0.000000
vn -1.000000 0.000000 0.000000
vn -1.000000 0.000000 0.000000
vn -1.000000 0.000000 0.000000
vn 1.000000 -0.000013 -0.000000
vn 1.000000 -0.000013 -0.000000
vn 1.000000 -0.000013 -0.000000
vn 1.000000 -0.000013 -0.000000
vn -1.000000 0.000000 0.000000
vn -1.000000 0.000000 0.000000
vn -1.000000 0.000000 0.000000
vn -1.000000 0.000000 0.000000
vn 1.000000 0.000000 0.000000
vn 1.000000 0.000000 0.000000
vn 1.000000 0.000000 0.000000
vn 1.000000 0.000000 0.000000
vn 1.000000 0.000000 0.000000
vn 0.000000 -1.000000 0.000000
vn 0.000000 -1.000000 0.000000
vn 0.000000 -1.000000 0.000000
vn 0.000000 -1.000000 0.000000
vn 0.000000 -1.000000 0.000000
vn -0.000101 1.000000 0.000000
vn -0.000101 1.000000 0.000000
vn -0.000101 1.000000 0.000000
vn -0.000101 1.000000 0.000000
vn -0.789199 -0.614138 0.000038
vn -0.789199 -0.614138 0.000038
vn -0.789199 -0.614138 0.000038
vn -0.789199 -0.614138 0.000038
vn -0.789199 -0.614138 0.000038
vn -0.789199 -0.614138 0.000038
vn -0.789199 -0.614138 0.000038
vn 0.831815 0.555053 0.000000
vn 0.831815 0.555053 0.000000
vn 0.831815 0.555053 0.000000
vn 0.831815 0.555053 0.000000
vn 0.000000 0.000000 1.000000
vn 0.000000 0.000000 1.000000
vn 0.000000 0.000000 1.000000
vn 0.000000 0.000000 1.000000
vn 0.000000 0.000000 1.000000
vn 0.000000 0.000000 1.000000
vn 0.000000 0.000000 1.000000
vn 0.000000 0.000000 1.000000
vn 0.000000 0.000000 1.000000
vn 0.000000 0.000000 1.000000
vn 0.000000 0.000000 1.000000
vn 0.000000 0.000000 1.000000
vn 0.000000 0.000000 1.000000
vn 0.000000 0.000000 1.000000
vn 0.000000 0.000000 1.000000
vn 0.000000 0.000000 1.000000
vn 0.000000 0.000000 1.000000
vn 0.000000 0.000000 1.000000
vn 0.000000 0.000000 1.000000
vn 0.000000 0.000000 1.000000
vn 0.000000 0.000000 1.000000
vn 0.000000 0.000000 1.000000
vn 0.000000 0.000000 1.000000
vn 0.000000 0.000000 1.000000
vn -0.000000 0.000000 1.000000
vn -0.000000 0.000000 1.000000
vn -0.000000 0.000000 1.000000
vn -0.000000 0.000000 1.000000
vn 0.000000 1.000000 0.000000
vn 0.000000 1.000000 0.000000
vn 0.000000 1.000000 0.000000
vn 0.000000 1.000000 0.000000
vn -1.000000 0.000000 0.000000
vn -1.000000 0.000000 0.000000
vn -1.000000 0.000000 0.000000
vn -1.000000 0.000000 0.000000
vn 1.000000 0.000042 0.000000
vn 1.000000 0.000042 0.000000
vn 1.000000 0.000042 0.000000
vn 1.000000 0.000042 0.000000
vn -1.000000 0.000000 0.000000
vn -1.000000 0.000000 0.000000
vn -1.000000 0.000000 0.000000
vn -1.000000 0.000000 0.000000
vn -1.000000 0.000000 0.000000
vn -1.000000 0.000000 0.000000
vn -1.000000 0.000000 0.000000
vn 1.000000 0.000000 0.000000
vn 1.000000 0.000000 0.000000
vn 1.000000 0.000000 0.000000
vn 1.000000 0.000000 0.000000
vn 0.001516 0.999999 0.000000
vn 0.001516 0.999999 0.000000
vn 0.001516 0.999999 0.000000
vn 0.001516 0.999999 0.000000
vn 0.000000 -1.000000 0.000000
vn 0.000000 -1.000000 0.000000
vn 0.000000 -1.000000 0.000000
vn 0.000000 -1.000000 0.000000
vn 0.000252 -1.000000 0.000000
vn 0.000252 -1.000000 0.000000
vn 0.000252 -1.000000 0.000000
vn 0.000252 -1.000000 0.000000
vn 0.789174 0.614170 0.000000
vn 0.789174 0.614170 0.000000
vn 0.789174 0.614170 0.000000
vn 0.789174 0.614170 0.000000
vn -0.831150 -0.556048 0.000000
vn -0.831150 -0.556048 0.000000
vn -0.831150 -0.556048 0.000000
vn -0.831150 -0.556048 0.000000
vn -0.756052 -0.349219 0.553563
vn -0.756052 -0.349219 0.553563
vn -0.756052 -0.349219 0.553563
vn -0.686555 0.323344 0.651223
vn -0.686555 0.323344 0.651223
vn -0.686555 0.323344 0.651223
vn 0.222980 -0.720831 0.656264
vn 0.222980 -0.720831 0.656264
vn 0.222980 -0.720831 0.656264
vn 0.783636 -0.098488 0.613363
vn 0.783636 -0.098488 0.613363
vn 0.783636 -0.098488 0.613363
vn -0.712898 -0.103721 0.693555
vn -0.712898 -0.103721 0.693555
vn -0.712898 -0.103721 0.693555
vn -0.526037 -0.712314 0.464644
vn -0.526037 -0.712314 0.464644
vn -0.526037 -0.712314 0.464644
s off
f 1/1/1 2/2/2 3/3/3
f 2/4/4 5/5/5 6/6/6 3/7/7
f 7/8/8 8/9/9 9/10/10 10/11/11
f 1/12/12 3/13/13 11/14/14 12/15/15
f 12/16/16 13/17/17 7/18/18 49/19/19 48/20/20
f 12/21/21 11/22/22 13/23/23
f 49/24/24 7/25/25 10/26/26 47/27/27
f 15/28/28 2/29/29 1/30/30
f 15/28/31 50/31/32 52/32/33 51/33/34 13/34/35 11/35/36 2/29/37
f 7/36/38 16/37/39 17/38/40 8/39/41
f 9/40/42 18/41/43 19/42/44 10/43/45
f 3/7/46 6/6/47 20/44/48 11/45/49
f 12/46/50 21/47/51 4/48/52 1/49/53
f 13/50/54 22/51/55 16/37/56 7/36/57
f 14/52/58 23/53/59 21/47/60 12/46/61 48/54/62
f 10/43/63 19/42/64 23/53/65 14/52/66 47/55/67
f 1/49/68 4/48/69 24/56/70 15/57/71
f 15/57/72 24/56/73 22/51/74 13/50/75 51/58/76 53/59/77 50/60/78
f 11/45/79 20/44/80 5/5/81 2/4/82
f 8/79/83 25/80/84 26/81/85 9/82/86
f 9/83/87 26/84/88 27/85/89
f 27/86/90 26/87/91 28/88/92
f 28/89/93 26/90/94 43/91/95 45/92/96 44/93/97 29/94/98 30/95/99
f 31/96/100 30/97/101 29/98/102 32/99/103
f 33/100/104 31/101/105 32/102/106
f 33/100/107 27/103/108 28/104/109 31/101/110
f 8/39/111 17/38/112 34/61/113 25/62/114
f 25/62/115 34/61/116 35/63/117 26/64/118
f 27/65/119 36/66/120 18/41/121 9/40/122
f 26/64/123 35/63/124 38/67/125 29/68/126 44/69/127 46/70/128 43/71/129
f 30/72/130 39/73/131 37/74/132 28/75/133
f 31/76/134 40/77/135 39/73/136 30/72/137
f 29/68/138 38/67/139 41/78/140 32/105/141
f 32/105/142 41/78/143 42/106/144 33/107/145
f 33/107/146 42/106/147 36/66/148 27/65/149
f 28/75/150 37/74/151 40/77/152 31/76/153
f 43/71/154 46/70/155 45/108/156
f 46/70/157 44/69/158 45/108/159
f 49/109/160 14/52/161 48/54/162
f 14/52/163 49/109/164 47/55/165
f 53/59/166 51/58/167 52/110/168
f 50/60/169 53/59/170 52/110/171
