# This file uses centimeters as units for non-parametric coordinates.

v -5.823853 -29.115234 7.391602
v -0.000488 -17.469727 7.391602
v -3.090088 -9.233399 7.391602
v 5.821777 -29.115234 7.391602
v 29.116455 29.112305 -0.864258
v 17.468506 29.112305 7.391602
v -6.998413 1.361328 7.391602
v -15.155640 22.940430 7.391602
v -29.116455 29.112305 7.391602
v -17.470581 29.112305 7.391602
v -5.823853 -29.115234 -7.391602
v -0.000488 -17.469727 -7.391602
v -3.090088 -9.233398 -7.391602
v 5.821777 -29.115234 -7.391602
v 29.116455 29.112307 -7.391602
v 17.468506 29.112307 -7.391602
v -6.998413 1.361328 -7.391602
v -15.155640 22.940432 -7.391602
v -29.116455 29.112307 -7.391602
v -17.470581 29.112307 -7.391602
v 12.062378 29.115234 7.391602
v 2.057129 23.000977 7.391602
v 12.062378 29.115236 -7.391602
v 2.057129 23.000978 -7.391602
v -24.294067 17.056641 7.391602
v -16.417114 -2.633789 7.391602
v -14.863647 10.068359 7.391602
v -21.947632 11.191406 1.653320
v 25.315186 19.611328 7.391602
v 23.886108 29.112305 7.391602
v 8.051392 -23.541992 7.391602
v 18.766602 3.243164 7.391602
v 8.598511 -7.760742 7.391602
v 12.861206 -11.519531 1.769531
vt 0.026058 0.511781
vt 0.026058 0.511781
vt 0.026058 0.511781
vt 0.026058 0.511781
vt 0.026058 0.511781
vt 0.026058 0.511781
vt 0.026058 0.511781
vt 0.026058 0.511781
vt 0.026058 0.511781
vt 0.026058 0.511781
vt 0.026058 0.511781
vt 0.026058 0.511781
vt 0.026058 0.511781
vt 0.026058 0.511781
vt 0.026058 0.511781
vt 0.026058 0.511781
vt 0.026058 0.511781
vt 0.009399 0.508655
vt 0.009399 0.508656
vt 0.009399 0.508656
vt 0.009399 0.508655
vt 0.009399 0.508655
vt 0.009399 0.508656
vt 0.009399 0.508656
vt 0.009399 0.508654
vt 0.009399 0.508655
vt 0.009399 0.508655
vt 0.009399 0.508655
vt 0.009399 0.508655
vt 0.009399 0.508656
vt 0.009399 0.508655
vt 0.009399 0.508655
vt 0.009399 0.508655
vt 0.009399 0.508656
vt 0.009399 0.508655
vt 0.009399 0.508656
vt 0.009399 0.508656
vt 0.009399 0.508655
vt 0.009399 0.508655
vt 0.009399 0.508656
vt 0.009399 0.508655
vt 0.009399 0.508655
vt 0.009399 0.508655
vt 0.009399 0.508655
vt 0.009399 0.508656
vt 0.026058 0.511781
vt 0.026058 0.511781
vt 0.026058 0.511781
vt 0.026058 0.511781
vt 0.026058 0.511781
vt 0.026058 0.511781
vt 0.009399 0.508655
vt 0.009399 0.508656
vt 0.009399 0.508656
vt 0.009399 0.508655
vt 0.026058 0.511781
vt 0.026058 0.511781
vn 0.000000 0.000000 1.000000
vn 0.000000 0.000000 1.000000
vn 0.000000 0.000000 1.000000
vn 0.000000 0.000000 1.000000
vn 0.000000 0.000000 1.000000
vn 0.000000 0.000000 1.000000
vn 0.000000 0.000000 1.000000
vn 0.000000 0.000000 1.000000
vn 0.000000 0.000000 1.000000
vn 0.000000 0.000000 1.000000
vn 0.000000 0.000000 1.000000
vn 0.000000 0.000000 1.000000
vn 0.000000 0.000000 1.000000
vn 0.000000 0.000000 1.000000
vn 0.000000 0.000000 1.000000
vn 0.000000 0.000000 1.000000
vn 0.000000 0.000000 1.000000
vn 0.000000 0.000000 1.000000
vn 0.000000 0.000000 1.000000
vn 0.000000 0.000000 1.000000
vn 0.000000 0.000000 1.000000
vn 0.000000 0.000000 1.000000
vn 0.000000 0.000000 1.000000
vn 0.000000 0.000000 1.000000
vn 0.000000 0.000000 1.000000
vn 0.000000 0.000000 1.000000
vn 0.000000 0.000000 1.000000
vn 0.936293 0.351221 0.000000
vn 0.936293 0.351221 0.000000
vn 0.936293 0.351221 0.000000
vn 0.936293 0.351221 0.000000
vn 0.928456 -0.371441 0.000015
vn 0.928456 -0.371441 0.000015
vn 0.928456 -0.371441 0.000015
vn 0.928456 -0.371441 0.000015
vn 0.928456 -0.371441 0.000015
vn 0.928456 -0.371441 0.000015
vn 0.928456 -0.371441 0.000015
vn 0.928456 -0.371441 0.000015
vn 0.000000 1.000000 0.000000
vn 0.000000 1.000000 0.000000
vn 0.000000 1.000000 0.000000
vn 0.000000 1.000000 0.000000
vn 0.000000 1.000000 0.000000
vn -0.936324 0.351136 0.000000
vn -0.936324 0.351136 0.000000
vn -0.936324 0.351136 0.000000
vn -0.936324 0.351136 0.000000
vn 0.000000 -1.000000 0.000000
vn 0.000000 -1.000000 0.000000
vn 0.000000 -1.000000 0.000000
vn 0.000000 -1.000000 0.000000
vn 0.935399 0.353595 0.000000
vn 0.935399 0.353595 0.000000
vn 0.935399 0.353595 0.000000
vn 0.935399 0.353595 0.000000
vn -0.928468 -0.371412 -0.000002
vn -0.928468 -0.371412 -0.000002
vn -0.928468 -0.371412 -0.000002
vn -0.928468 -0.371412 -0.000002
vn -0.928468 -0.371412 -0.000002
vn -0.928468 -0.371412 -0.000002
vn -0.928468 -0.371412 -0.000002
vn 0.000000 1.000000 0.000000
vn 0.000000 1.000000 0.000000
vn 0.000000 1.000000 0.000000
vn 0.000000 1.000000 0.000000
vn 0.000000 0.000000 1.000000
vn 0.000000 0.000000 1.000000
vn 0.000000 0.000000 1.000000
vn 0.000000 0.000000 1.000000
vn 0.000000 0.000000 1.000000
vn 0.000000 0.000000 1.000000
vn 0.000000 0.000000 1.000000
vn 0.000000 0.000000 1.000000
vn -0.000099 1.000000 0.000000
vn -0.000099 1.000000 0.000000
vn -0.000099 1.000000 0.000000
vn -0.000099 1.000000 0.000000
vn 0.003518 -0.999994 -0.000000
vn 0.003518 -0.999994 -0.000000
vn 0.003518 -0.999994 -0.000000
vn 0.003518 -0.999994 -0.000000
vn -0.922485 0.386032 0.000000
vn -0.922485 0.386032 0.000000
vn -0.922485 0.386032 0.000000
vn -0.922485 0.386032 0.000000
vn 0.930032 -0.367478 -0.000000
vn 0.930032 -0.367478 -0.000000
vn 0.930032 -0.367478 -0.000000
vn 0.930032 -0.367478 -0.000000
vn -0.515523 -0.695678 0.500268
vn -0.515523 -0.695678 0.500268
vn -0.515523 -0.695678 0.500268
vn -0.620335 0.075867 0.780659
vn -0.620335 0.075867 0.780659
vn -0.620335 0.075867 0.780659
vn 0.838006 0.126048 0.530903
vn 0.838006 0.126048 0.530903
vn 0.838006 0.126048 0.530903
vn 0.787678 -0.027308 0.615481
vn 0.787678 -0.027308 0.615481
vn 0.787678 -0.027308 0.615481
vn 0.516588 -0.477350 0.710826
vn 0.516588 -0.477350 0.710826
vn 0.516588 -0.477350 0.710826
s off
f 1/1/1 2/2/2 3/3/3
f 4/4/4 31/5/5 33/6/6 32/7/7 29/8/8 30/9/9 6/10/10 2/2/11
f 4/4/12 2/2/13 1/1/14
f 1/1/15 7/11/16 8/12/17 9/13/18 25/14/19 27/15/20 26/16/21
f 1/1/22 3/3/23 7/11/24
f 9/13/25 8/12/26 10/17/27
f 2/18/28 12/19/29 13/20/30 3/21/31
f 4/22/32 14/23/33 15/24/34 5/25/35 29/26/36 32/27/37 34/28/38 31/29/39
f 5/25/40 15/24/41 16/30/42 6/31/43 30/32/44
f 6/31/45 16/30/46 12/19/47 2/18/48
f 1/33/49 11/34/50 14/23/51 4/22/52
f 7/35/53 17/36/54 18/37/55 8/38/56
f 9/39/57 19/40/58 11/34/59 1/33/60 26/41/61 28/42/62 25/43/63
f 10/44/64 20/45/65 19/40/66 9/39/67
f 21/46/68 10/47/69 8/48/70 22/49/71
f 21/46/72 22/49/73 7/50/74 3/51/75
f 21/52/76 23/53/77 20/45/78 10/44/79
f 8/38/80 18/37/81 24/54/82 22/55/83
f 22/55/84 24/54/85 17/36/86 7/35/87
f 3/21/88 13/20/89 23/53/90 21/52/91
f 25/14/92 28/57/93 27/15/94
f 28/57/95 26/16/96 27/15/97
f 29/26/98 5/25/99 30/32/100
f 31/5/101 34/56/102 33/6/103
f 34/56/104 32/7/105 33/6/106
