# This file uses centimeters as units for non-parametric coordinates.

v 21.537476 15.277345 7.391602
v 30.553223 6.260742 7.391602
v -4.507935 -15.276366 7.391602
v 30.553223 -15.276366 7.391602
v 4.507813 -6.260743 7.391602
v 21.537476 -6.260743 7.391602
v -30.553223 15.277345 7.391602
v 4.507813 15.277345 7.391602
v -4.507935 6.260742 7.391602
v -21.537598 6.260742 7.391602
v -4.507935 -15.276367 -7.391602
v 30.553223 -15.276367 -7.391602
v 21.537476 -6.260742 -7.391602
v 4.507813 -6.260742 -7.391602
v -30.553223 15.277346 -7.391602
v 4.507813 15.277346 -7.391602
v -21.537598 6.260744 -7.391602
v -4.507935 6.260744 -7.391602
v 21.537476 15.277346 -7.391602
v 30.553223 6.260744 -7.391602
vt 0.026058 0.511781
vt 0.026058 0.511781
vt 0.026058 0.511781
vt 0.026058 0.511781
vt 0.026058 0.511781
vt 0.026058 0.511781
vt 0.026058 0.511781
vt 0.026058 0.511781
vt 0.026058 0.511781
vt 0.026058 0.511781
vt 0.009399 0.508654
vt 0.009399 0.508654
vt 0.009399 0.508654
vt 0.009399 0.508654
vt 0.009399 0.508654
vt 0.009399 0.508654
vt 0.009399 0.508654
vt 0.009399 0.508654
vt 0.009399 0.508654
vt 0.009399 0.508654
vt 0.009399 0.508654
vt 0.009399 0.508654
vt 0.009399 0.508654
vt 0.009399 0.508654
vt 0.009399 0.508654
vt 0.009399 0.508654
vt 0.009399 0.508654
vt 0.009399 0.508654
vt 0.009399 0.508654
vt 0.009399 0.508654
vn 0.000000 0.000000 1.000000
vn 0.000000 0.000000 1.000000
vn 0.000000 0.000000 1.000000
vn 0.000000 0.000000 1.000000
vn 0.000000 0.000000 1.000000
vn 0.000000 0.000000 1.000000
vn 0.000000 0.000000 1.000000
vn 0.000000 0.000000 1.000000
vn 0.000000 0.000000 1.000000
vn 0.000000 0.000000 1.000000
vn 0.000000 0.000000 1.000000
vn 0.000000 0.000000 1.000000
vn 0.000000 0.000000 1.000000
vn 0.000000 0.000000 1.000000
vn 0.000000 0.000000 1.000000
vn 0.000000 0.000000 1.000000
vn 0.000000 -1.000000 0.000000
vn 0.000000 -1.000000 0.000000
vn 0.000000 -1.000000 0.000000
vn 0.000000 -1.000000 0.000000
vn 0.000000 1.000000 0.000000
vn 0.000000 1.000000 0.000000
vn 0.000000 1.000000 0.000000
vn 0.000000 1.000000 0.000000
vn 0.000000 1.000000 0.000000
vn 0.000000 1.000000 0.000000
vn 0.000000 1.000000 0.000000
vn 0.000000 1.000000 0.000000
vn -0.707145 -0.707069 -0.000000
vn -0.707145 -0.707069 -0.000000
vn -0.707145 -0.707069 -0.000000
vn -0.707145 -0.707069 -0.000000
vn 0.000000 -1.000000 -0.000000
vn 0.000000 -1.000000 -0.000000
vn 0.000000 -1.000000 -0.000000
vn 0.000000 -1.000000 -0.000000
vn 1.000000 0.000000 0.000000
vn 1.000000 0.000000 0.000000
vn 1.000000 0.000000 0.000000
vn 1.000000 0.000000 0.000000
vn -1.000000 0.000000 0.000000
vn -1.000000 0.000000 0.000000
vn -1.000000 0.000000 0.000000
vn -1.000000 0.000000 0.000000
vn 0.707140 0.707073 0.000000
vn 0.707140 0.707073 0.000000
vn 0.707140 0.707073 0.000000
vn 0.707140 0.707073 0.000000
vn -1.000000 0.000000 0.000000
vn -1.000000 0.000000 0.000000
vn -1.000000 0.000000 0.000000
vn -1.000000 0.000000 0.000000
vn 1.000000 0.000000 0.000000
vn 1.000000 0.000000 0.000000
vn 1.000000 0.000000 0.000000
vn 1.000000 0.000000 0.000000
s off
f 3/1/1 4/2/2 6/3/3 5/4/4
f 8/5/5 7/6/6 10/7/7 9/8/8
f 3/1/9 5/4/10 8/5/11 9/8/12
f 2/9/13 1/10/14 6/3/15 4/2/16
f 3/11/17 11/12/18 12/13/19 4/14/20
f 6/15/21 13/16/22 14/17/23 5/18/24
f 8/19/25 16/20/26 15/21/27 7/22/28
f 7/22/29 15/21/30 17/23/31 10/24/32
f 10/24/33 17/23/34 18/25/35 9/26/36
f 5/18/37 14/17/38 16/20/39 8/19/40
f 9/26/41 18/25/42 11/12/43 3/11/44
f 2/27/45 20/28/46 19/29/47 1/30/48
f 1/30/49 19/29/50 13/16/51 6/15/52
f 4/14/53 12/13/54 20/28/55 2/27/56
