# This file uses centimeters as units for non-parametric coordinates.

v -24.792114 22.775391 0.828125
v -0.000122 -2.017579 7.391602
v -0.000122 47.565430 7.391602
v 24.791748 22.773436 7.391602
v -12.041748 22.773436 7.391602
v -0.000122 10.732423 7.391602
v 12.041748 22.773436 7.391602
v -0.000122 34.815430 7.391602
v -24.792114 22.773439 -7.391602
v -0.000122 -2.017578 -7.391602
v -0.000122 10.732424 -7.391602
v -12.041748 22.773439 -7.391602
v 24.791748 22.773439 -7.391602
v 12.041748 22.773439 -7.391602
v -0.000122 47.565430 -7.391602
v -0.000122 34.815430 -7.391602
v 34.709351 12.856446 7.391602
v -0.000122 -9.102538 7.391602
v 28.334106 19.232420 7.391602
v 25.659790 3.807617 7.391602
v 18.966919 -2.885743 7.391602
v 38.835083 -9.368163 7.391602
v 32.141846 -16.061523 7.391602
v -34.709595 12.856446 7.391602
v -28.334106 19.232420 7.391602
v -25.660156 3.807617 7.391602
v -18.966919 -2.885743 7.391602
v -38.835083 -9.368163 7.391602
v -32.141846 -16.061523 7.391602
v -5.099731 -16.752930 7.391602
v 5.099365 -16.752930 7.391602
v 5.099365 -47.565430 7.391602
v -5.099731 -47.565430 7.391602
v 25.659790 3.807617 -7.391602
v 18.966919 -2.885742 -7.391602
v 28.334106 19.232424 -7.391602
v -0.000122 -9.102539 -7.391602
v 34.709351 12.856447 -7.391602
v 32.141846 -16.061523 -7.391602
v 38.835083 -9.368164 -7.391602
v -18.966919 -2.885742 -7.391602
v -28.334106 19.232424 -7.391602
v -25.660156 3.807617 -7.391602
v -34.709595 12.856447 -7.391602
v -38.835083 -9.368164 -7.391602
v -32.141846 -16.061523 -7.391602
v -5.099731 -16.752930 -7.391602
v 5.099365 -16.752930 -7.391602
v -5.099731 -47.565430 -7.391602
v 5.099365 -47.565430 -7.391602
v 5.099365 -24.385742 7.391602
v 5.099365 -43.073242 7.391602
v -0.128784 -31.687502 7.391602
v 5.099365 -38.993164 -1.282227
v 4.495850 43.069336 7.391602
v 19.025269 28.540039 7.391602
v 7.169189 31.380859 7.391602
v 12.429077 35.136719 0.737305
v -19.133911 28.431641 7.391602
v -19.905273 17.887693 7.391602
v -17.452148 22.775389 7.391602
vt 0.026058 0.511781
vt 0.026058 0.511781
vt 0.026058 0.511781
vt 0.026058 0.511781
vt 0.026058 0.511781
vt 0.026058 0.511781
vt 0.026058 0.511781
vt 0.026058 0.511781
vt 0.009277 0.508654
vt 0.009277 0.508654
vt 0.009277 0.508654
vt 0.009277 0.508654
vt 0.009277 0.508654
vt 0.009277 0.508654
vt 0.009277 0.508654
vt 0.009277 0.508654
vt 0.009277 0.508654
vt 0.009277 0.508654
vt 0.009277 0.508654
vt 0.009277 0.508654
vt 0.009277 0.508654
vt 0.009277 0.508655
vt 0.009277 0.508654
vt 0.009277 0.508654
vt 0.026058 0.511781
vt 0.026058 0.511781
vt 0.026058 0.511781
vt 0.026058 0.511781
vt 0.026058 0.511781
vt 0.026058 0.511781
vt 0.026058 0.511781
vt 0.026058 0.511781
vt 0.026058 0.511781
vt 0.026058 0.511781
vt 0.026058 0.511781
vt 0.026058 0.511781
vt 0.026058 0.511781
vt 0.026058 0.511781
vt 0.026058 0.511781
vt 0.026058 0.511781
vt 0.026058 0.511781
vt 0.026058 0.511781
vt 0.009277 0.508654
vt 0.009277 0.508654
vt 0.009277 0.508654
vt 0.009277 0.508654
vt 0.009277 0.508654
vt 0.009277 0.508654
vt 0.009277 0.508654
vt 0.009277 0.508654
vt 0.009277 0.508654
vt 0.009277 0.508654
vt 0.009277 0.508654
vt 0.009277 0.508654
vt 0.009277 0.508654
vt 0.009277 0.508654
vt 0.009277 0.508654
vt 0.009277 0.508654
vt 0.009277 0.508654
vt 0.009277 0.508654
vt 0.009277 0.508654
vt 0.009277 0.508654
vt 0.009277 0.508654
vt 0.009277 0.508654
vt 0.009277 0.508654
vt 0.009277 0.508654
vt 0.009277 0.508654
vt 0.009277 0.508654
vt 0.009277 0.508654
vt 0.009277 0.508654
vt 0.009277 0.508654
vt 0.009277 0.508654
vt 0.009277 0.508654
vt 0.009277 0.508654
vt 0.009277 0.508654
vt 0.009277 0.508654
vt 0.009277 0.508654
vt 0.009277 0.508654
vt 0.026058 0.511781
vt 0.026058 0.511781
vt 0.026058 0.511781
vt 0.026058 0.511781
vt 0.026058 0.511781
vt 0.026058 0.511781
vt 0.026058 0.511781
vt 0.009277 0.508654
vt 0.026058 0.511781
vt 0.009277 0.508654
vt 0.026058 0.511781
vt 0.026058 0.511781
vt 0.009277 0.508654
vt 0.026058 0.511781
vt 0.009277 0.508655
vt 0.026058 0.511781
vt 0.026058 0.511781
vt 0.009277 0.508654
vt 0.026058 0.511781
vt 0.009277 0.508654
vn -0.632139 0.317270 0.706924
vn -0.632139 0.317270 0.706924
vn -0.632139 0.317269 0.706924
vn 0.000000 0.000000 1.000000
vn 0.000000 0.000000 1.000000
vn 0.000000 0.000000 1.000000
vn 0.000000 0.000000 1.000000
vn -0.000000 0.000000 1.000000
vn -0.000000 0.000000 1.000000
vn -0.000000 0.000000 1.000000
vn -0.000000 0.000000 1.000000
vn -0.000000 0.000000 1.000000
vn -0.000000 0.000000 1.000000
vn -0.000000 0.000000 1.000000
vn -0.653859 -0.194411 0.731213
vn -0.653859 -0.194411 0.731213
vn -0.653859 -0.194411 0.731213
vn 0.707089 0.707125 0.000000
vn 0.707089 0.707125 0.000000
vn 0.707089 0.707125 0.000000
vn 0.707089 0.707125 0.000000
vn 0.707095 -0.707119 -0.000000
vn 0.707095 -0.707119 -0.000000
vn 0.707095 -0.707119 -0.000000
vn 0.707095 -0.707119 -0.000000
vn -0.707082 0.707132 0.000000
vn -0.707082 0.707132 0.000000
vn -0.707082 0.707132 0.000000
vn -0.707082 0.707132 0.000000
vn 0.707109 0.707104 -0.000009
vn 0.707109 0.707104 -0.000009
vn 0.707109 0.707104 -0.000009
vn 0.707109 0.707104 -0.000009
vn 0.707109 0.707104 -0.000009
vn 0.707109 0.707104 -0.000009
vn 0.707109 0.707104 -0.000009
vn -0.707110 -0.707103 0.000000
vn -0.707110 -0.707103 0.000000
vn -0.707110 -0.707103 0.000000
vn -0.707110 -0.707103 0.000000
vn 0.707118 -0.707096 0.000000
vn 0.707118 -0.707096 0.000000
vn 0.707118 -0.707096 0.000000
vn 0.707118 -0.707096 0.000000
vn -0.000000 0.000000 1.000000
vn -0.000000 0.000000 1.000000
vn -0.000000 0.000000 1.000000
vn -0.000000 0.000000 1.000000
vn 0.000000 0.000000 1.000000
vn 0.000000 0.000000 1.000000
vn 0.000000 0.000000 1.000000
vn 0.000000 0.000000 1.000000
vn 0.000000 0.000000 1.000000
vn 0.000000 0.000000 1.000000
vn 0.000000 0.000000 1.000000
vn 0.000000 0.000000 1.000000
vn 0.000000 0.000000 1.000000
vn 0.000000 0.000000 1.000000
vn 0.000000 0.000000 1.000000
vn -0.000000 0.000000 1.000000
vn -0.000000 0.000000 1.000000
vn -0.000000 0.000000 1.000000
vn 0.000000 0.000000 1.000000
vn 0.000000 0.000000 1.000000
vn 0.000000 0.000000 1.000000
vn 0.000000 0.000000 1.000000
vn 0.000000 0.000000 1.000000
vn 0.000000 0.000000 1.000000
vn 0.000000 0.000000 1.000000
vn -0.000000 0.000000 1.000000
vn -0.000000 0.000000 1.000000
vn -0.000000 0.000000 1.000000
vn 0.000000 0.000000 1.000000
vn 0.000000 0.000000 1.000000
vn 0.000000 0.000000 1.000000
vn -0.000000 0.000000 1.000000
vn -0.000000 0.000000 1.000000
vn -0.000000 0.000000 1.000000
vn -0.000000 0.000000 1.000000
vn -0.000000 0.000000 1.000000
vn -0.000000 0.000000 1.000000
vn -0.000000 0.000000 1.000000
vn -0.707116 0.707098 0.000000
vn -0.707116 0.707098 0.000000
vn -0.707116 0.707098 0.000000
vn -0.707116 0.707098 0.000000
vn 0.707078 -0.707135 -0.000000
vn 0.707078 -0.707135 -0.000000
vn 0.707078 -0.707135 -0.000000
vn 0.707078 -0.707135 -0.000000
vn 0.707147 0.707066 0.000000
vn 0.707147 0.707066 0.000000
vn 0.707147 0.707066 0.000000
vn 0.707147 0.707066 0.000000
vn -0.707130 -0.707084 0.000000
vn -0.707130 -0.707084 0.000000
vn -0.707130 -0.707084 0.000000
vn -0.707130 -0.707084 0.000000
vn 0.707113 -0.707100 0.000000
vn 0.707113 -0.707100 0.000000
vn 0.707113 -0.707100 0.000000
vn 0.707113 -0.707100 0.000000
vn 0.707120 0.707094 -0.000000
vn 0.707120 0.707094 -0.000000
vn 0.707120 0.707094 -0.000000
vn 0.707120 0.707094 -0.000000
vn 0.707119 0.707095 0.000000
vn 0.707119 0.707095 0.000000
vn 0.707119 0.707095 0.000000
vn 0.707119 0.707095 0.000000
vn -0.707134 0.707080 0.000000
vn -0.707134 0.707080 0.000000
vn -0.707134 0.707080 0.000000
vn -0.707134 0.707080 0.000000
vn -0.707083 -0.707131 -0.000000
vn -0.707083 -0.707131 -0.000000
vn -0.707083 -0.707131 -0.000000
vn -0.707083 -0.707131 -0.000000
vn -0.707130 0.707084 -0.000000
vn -0.707130 0.707084 -0.000000
vn -0.707130 0.707084 -0.000000
vn -0.707130 0.707084 -0.000000
vn -0.707113 -0.707100 0.000000
vn -0.707113 -0.707100 0.000000
vn -0.707113 -0.707100 0.000000
vn -0.707113 -0.707100 0.000000
vn 0.707130 -0.707084 0.000000
vn 0.707130 -0.707084 0.000000
vn 0.707130 -0.707084 0.000000
vn 0.707130 -0.707084 0.000000
vn -0.707107 -0.707107 0.000000
vn -0.707107 -0.707107 0.000000
vn -0.707107 -0.707107 0.000000
vn -0.707107 -0.707107 0.000000
vn 0.707097 -0.707116 0.000000
vn 0.707097 -0.707116 0.000000
vn 0.707097 -0.707116 0.000000
vn 0.707097 -0.707116 0.000000
vn -1.000000 0.000000 0.000000
vn -1.000000 0.000000 0.000000
vn -1.000000 0.000000 0.000000
vn -1.000000 0.000000 0.000000
vn 0.000000 -1.000000 0.000000
vn 0.000000 -1.000000 0.000000
vn 0.000000 -1.000000 0.000000
vn 0.000000 -1.000000 0.000000
vn 1.000000 0.000000 0.000000
vn 1.000000 0.000000 0.000000
vn 1.000000 0.000000 0.000000
vn 1.000000 0.000000 0.000000
vn 1.000000 0.000000 0.000000
vn 1.000000 0.000000 0.000000
vn 1.000000 0.000000 0.000000
vn 0.891755 0.409479 0.192615
vn 0.891755 0.409479 0.192615
vn 0.891755 0.409479 0.192615
vn 0.580583 -0.415705 0.700080
vn 0.580583 -0.415705 0.700080
vn 0.580583 -0.415705 0.700080
vn 0.187926 0.784304 0.591228
vn 0.187926 0.784304 0.591228
vn 0.187926 0.784304 0.591228
vn 0.725883 0.166021 0.667481
vn 0.725883 0.166021 0.667481
vn 0.725883 0.166021 0.667481
vn -0.707092 0.707121 -0.000011
vn -0.707092 0.707121 -0.000011
vn -0.707092 0.707122 -0.000011
vn -0.707092 0.707121 -0.000011
vn -0.707092 0.707121 -0.000011
vn -0.707110 -0.707103 0.000032
vn -0.707110 -0.707103 0.000032
vn -0.707110 -0.707103 0.000032
vn -0.707110 -0.707103 0.000032
vn -0.707110 -0.707103 0.000032
vn -0.000000 0.000000 1.000000
vn -0.000000 0.000000 1.000000
vn -0.000000 0.000000 1.000000
vn -0.000000 0.000000 1.000000
vn -0.000000 0.000000 1.000000
vn 0.000000 0.000000 1.000000
vn 0.000000 0.000000 1.000000
vn 0.000000 0.000000 1.000000
vn 0.000000 0.000000 1.000000
vn 0.000000 0.000000 1.000000
s off
f 1/1/1 60/95/2 61/97/3
f 2/2/4 4/5/5 7/6/6 6/3/7
f 4/5/8 56/89/9 57/90/10 55/87/11 3/7/12 8/8/13 7/6/14
f 61/97/15 59/94/16 1/1/17
f 6/9/18 11/10/19 12/11/20 5/12/21
f 2/13/22 10/14/23 13/15/24 4/16/25
f 7/17/26 14/18/27 11/10/28 6/9/29
f 4/16/30 13/15/31 15/19/32 3/20/33 55/21/34 58/22/35 56/23/36
f 8/24/37 16/43/38 14/18/39 7/17/40
f 5/12/41 12/11/42 16/43/43 8/24/44
f 21/25/45 20/26/46 19/27/47 18/28/48
f 20/26/49 17/29/50 19/27/51
f 20/26/52 21/25/53 23/30/54 22/31/55
f 27/32/56 18/28/57 25/33/58 26/34/59
f 26/34/60 25/33/61 24/35/62
f 26/34/63 28/36/64 29/37/65 27/32/66
f 30/38/67 18/28/68 27/32/69
f 18/28/70 31/39/71 21/25/72
f 30/40/73 31/39/74 18/28/75
f 31/39/76 30/40/77 33/41/78 32/42/79 52/82/80 53/83/81 51/80/82
f 19/44/83 36/45/84 37/46/85 18/47/86
f 20/48/87 34/49/88 38/50/89 17/51/90
f 17/51/91 38/50/92 36/45/93 19/44/94
f 21/52/95 35/53/96 39/54/97 23/55/98
f 23/55/99 39/54/100 40/56/101 22/57/102
f 22/57/103 40/56/104 34/49/105 20/48/106
f 18/47/107 37/46/108 42/58/109 25/59/110
f 25/59/111 42/58/112 44/60/113 24/61/114
f 24/61/115 44/60/116 43/62/117 26/63/118
f 26/63/119 43/62/120 45/64/121 28/65/122
f 28/65/123 45/64/124 46/66/125 29/67/126
f 29/67/127 46/66/128 41/68/129 27/69/130
f 27/69/131 41/68/132 47/70/133 30/71/134
f 31/72/135 48/73/136 35/53/137 21/52/138
f 30/71/139 47/70/140 49/74/141 33/75/142
f 33/75/143 49/74/144 50/76/145 32/77/146
f 32/77/147 50/76/148 48/73/149 31/72/150 51/78/151 54/86/152 52/88/153
f 52/81/154 54/84/155 53/85/156
f 53/85/157 54/84/158 51/79/159
f 58/92/160 57/90/161 56/89/162
f 55/87/163 57/90/164 58/92/165
f 3/20/166 15/19/167 9/91/168 1/93/169 59/96/170
f 60/98/171 1/93/172 9/91/173 10/14/174 2/13/175
f 61/97/176 60/95/177 2/2/178 6/3/179 5/4/180
f 3/7/181 59/94/182 61/97/183 5/4/184 8/8/185
