# This file uses centimeters as units for non-parametric coordinates.

v -30.553223 0.000000 7.391602
v -30.553223 30.552734 7.391602
v 4.507813 30.552734 7.391602
v -21.537598 0.000000 7.391602
v -4.507935 21.537107 7.391602
v -21.537598 21.537107 7.391602
v -4.507935 -30.552736 7.391602
v 30.553223 -30.552736 7.391602
v 30.553223 0.000000 7.391602
v 4.507813 -21.537109 7.391602
v 21.537476 -21.537109 7.391602
v 21.537476 0.000000 7.391602
v -30.553223 30.552736 -7.391602
v 4.507813 30.552736 -7.391602
v -21.537598 21.537111 -7.391602
v -4.507935 21.537111 -7.391602
v -30.553223 0.000000 -7.391602
v -21.537598 0.000000 -7.391602
v -4.507935 -30.552734 -7.391602
v 30.553223 -30.552734 -7.391602
v 21.537476 -21.537109 -7.391602
v 4.507813 -21.537109 -7.391602
v 30.553223 0.000000 -7.391602
v 21.537476 0.000000 -7.391602
vt 0.026058 0.511781
vt 0.026058 0.511781
vt 0.026058 0.511781
vt 0.026058 0.511781
vt 0.026058 0.511781
vt 0.026058 0.511781
vt 0.026058 0.511781
vt 0.026058 0.511781
vt 0.026058 0.511781
vt 0.026058 0.511781
vt 0.026058 0.511781
vt 0.026058 0.511781
vt 0.009399 0.508654
vt 0.009399 0.508654
vt 0.009399 0.508654
vt 0.009399 0.508654
vt 0.009399 0.508654
vt 0.009399 0.508654
vt 0.009399 0.508654
vt 0.009399 0.508654
vt 0.009399 0.508654
vt 0.009399 0.508654
vt 0.009399 0.508654
vt 0.009399 0.508654
vt 0.009399 0.508654
vt 0.009399 0.508654
vt 0.009399 0.508654
vt 0.009399 0.508654
vt 0.009399 0.508654
vt 0.009399 0.508654
vt 0.009399 0.508654
vt 0.009399 0.508654
vt 0.009399 0.508654
vt 0.009399 0.508654
vt 0.009399 0.508654
vt 0.009399 0.508654
vn 0.000000 0.000000 1.000000
vn 0.000000 0.000000 1.000000
vn 0.000000 0.000000 1.000000
vn 0.000000 0.000000 1.000000
vn 0.000000 0.000000 1.000000
vn 0.000000 0.000000 1.000000
vn 0.000000 0.000000 1.000000
vn 0.000000 0.000000 1.000000
vn 0.000000 0.000000 1.000000
vn 0.000000 0.000000 1.000000
vn 0.000000 0.000000 1.000000
vn 0.000000 0.000000 1.000000
vn 0.000000 0.000000 1.000000
vn 0.000000 0.000000 1.000000
vn 0.000000 0.000000 1.000000
vn 0.000000 0.000000 1.000000
vn 0.000000 0.000000 1.000000
vn 0.000000 0.000000 1.000000
vn 0.000000 0.000000 1.000000
vn 0.000000 0.000000 1.000000
vn 0.000000 1.000000 0.000000
vn 0.000000 1.000000 0.000000
vn 0.000000 1.000000 0.000000
vn 0.000000 1.000000 0.000000
vn 0.000000 -1.000000 -0.000000
vn 0.000000 -1.000000 -0.000000
vn 0.000000 -1.000000 -0.000000
vn 0.000000 -1.000000 -0.000000
vn -1.000000 0.000000 0.000000
vn -1.000000 0.000000 0.000000
vn -1.000000 0.000000 0.000000
vn -1.000000 0.000000 0.000000
vn 0.000000 -1.000000 0.000000
vn 0.000000 -1.000000 0.000000
vn 0.000000 -1.000000 0.000000
vn 0.000000 -1.000000 0.000000
vn 1.000000 0.000000 0.000000
vn 1.000000 0.000000 0.000000
vn 1.000000 0.000000 0.000000
vn 1.000000 0.000000 0.000000
vn 0.000000 -1.000000 0.000000
vn 0.000000 -1.000000 0.000000
vn 0.000000 -1.000000 0.000000
vn 0.000000 -1.000000 0.000000
vn 0.000000 1.000000 0.000000
vn 0.000000 1.000000 0.000000
vn 0.000000 1.000000 0.000000
vn 0.000000 1.000000 0.000000
vn 1.000000 0.000000 0.000000
vn 1.000000 0.000000 0.000000
vn 1.000000 0.000000 0.000000
vn 1.000000 0.000000 0.000000
vn 0.000000 1.000000 -0.000000
vn 0.000000 1.000000 -0.000000
vn 0.000000 1.000000 -0.000000
vn 0.000000 1.000000 -0.000000
vn -1.000000 0.000000 0.000000
vn -1.000000 0.000000 0.000000
vn -1.000000 0.000000 0.000000
vn -1.000000 0.000000 0.000000
vn -1.000000 0.000000 0.000000
vn -1.000000 0.000000 0.000000
vn -1.000000 0.000000 0.000000
vn -1.000000 0.000000 0.000000
vn 1.000000 0.000000 0.000000
vn 1.000000 0.000000 0.000000
vn 1.000000 0.000000 0.000000
vn 1.000000 0.000000 0.000000
s off
f 3/1/1 2/2/2 6/3/3 5/4/4
f 2/2/5 1/5/6 4/6/7 6/3/8
f 7/7/9 8/8/10 11/9/11 10/10/12
f 8/8/13 9/11/14 12/12/15 11/9/16
f 5/4/17 7/7/18 10/10/19 3/1/20
f 3/13/21 14/14/22 13/15/23 2/16/24
f 6/17/25 15/18/26 16/19/27 5/20/28
f 2/16/29 13/15/30 17/21/31 1/22/32
f 1/22/33 17/21/34 18/23/35 4/24/36
f 4/24/37 18/23/38 15/18/39 6/17/40
f 7/25/41 19/26/42 20/27/43 8/28/44
f 11/29/45 21/30/46 22/31/47 10/32/48
f 8/28/49 20/27/50 23/33/51 9/34/52
f 9/34/53 23/33/54 24/35/55 12/36/56
f 12/36/57 24/35/58 21/30/59 11/29/60
f 5/20/61 16/19/62 19/26/63 7/25/64
f 10/32/65 22/31/66 14/14/67 3/13/68
