# This file uses centimeters as units for non-parametric coordinates.

v -17.470581 29.115234 7.391602
v -29.116455 29.112305 7.391602
v -17.470581 17.924805 7.391602
v -17.470581 29.115236 -7.391602
v -29.116455 29.112307 -7.391602
v -17.471313 17.924807 -7.391602
v -17.470581 8.228516 7.391602
v -29.116455 0.000000 7.391602
v -17.470581 -8.228516 7.391602
v -29.116455 -29.115234 7.391602
v -17.470581 -17.921875 7.391602
v -17.470581 8.228518 -7.391602
v -29.116455 0.000000 -7.391602
v -17.470581 -8.228516 -7.391602
v -29.116455 -29.115234 -7.391602
v -17.470581 -29.115234 7.391602
v -17.471313 -17.921875 -7.391602
v -17.470581 -29.115234 -7.391602
v 29.116455 -29.115234 7.391602
v 17.468506 -17.921875 7.391602
v 17.468506 -29.115234 7.391602
v 29.116455 29.112303 0.347656
v 17.468506 29.115234 7.391602
v 17.468506 17.924805 7.391602
v 29.116455 0.000000 7.391602
v 17.468506 -8.228516 7.391602
v 17.468506 8.228516 7.391602
v -6.494141 -0.002930 7.391602
v 0.007690 4.854492 7.391602
v -0.000488 -4.848633 7.391602
v 6.499512 0.012695 7.391602
v 29.116455 -29.115234 -7.391602
v 17.468506 -17.921875 -7.391602
v 17.468506 -29.115234 -7.391602
v 29.116455 29.112307 -7.391602
v 17.468506 29.115236 -7.391602
v 17.468506 17.924807 -7.391602
v 29.116455 0.000000 -7.391602
v 17.468506 -8.228516 -7.391602
v 17.468506 8.228518 -7.391602
v -6.494141 -0.002930 -7.391602
v 0.007690 4.854494 -7.391602
v -0.000488 -4.848633 -7.391602
v 6.499512 0.012695 -7.391602
v -29.116455 -2.853516 7.391602
v -29.116455 -23.471680 7.391602
v -23.672119 -14.706056 7.391602
v -29.116455 -10.977539 1.246094
v 29.116455 18.963867 7.391602
v 23.962158 24.162109 7.391602
v 23.742065 29.115234 7.391602
vt 0.026058 0.511781
vt 0.026058 0.511781
vt 0.026058 0.511781
vt 0.009399 0.508655
vt 0.009399 0.508656
vt 0.009399 0.508656
vt 0.009399 0.508655
vt 0.009399 0.508655
vt 0.009399 0.508656
vt 0.009399 0.508655
vt 0.009399 0.508656
vt 0.026058 0.511781
vt 0.026058 0.511781
vt 0.026058 0.511781
vt 0.026058 0.511781
vt 0.026058 0.511781
vt 0.026058 0.511781
vt 0.026058 0.511781
vt 0.026058 0.511781
vt 0.026058 0.511781
vt 0.026058 0.511781
vt 0.026058 0.511781
vt 0.026058 0.511781
vt 0.026058 0.511781
vt 0.026058 0.511781
vt 0.009399 0.508656
vt 0.009399 0.508655
vt 0.009399 0.508656
vt 0.009399 0.508655
vt 0.009399 0.508656
vt 0.009399 0.508655
vt 0.009399 0.508655
vt 0.009399 0.508654
vt 0.009399 0.508655
vt 0.009399 0.508656
vt 0.009399 0.508655
vt 0.009399 0.508656
vt 0.009399 0.508655
vt 0.009399 0.508654
vt 0.009399 0.508655
vt 0.026058 0.511781
vt 0.026058 0.511781
vt 0.026058 0.511781
vt 0.009399 0.508655
vt 0.009399 0.508655
vt 0.009399 0.508655
vt 0.009399 0.508656
vt 0.009399 0.508656
vt 0.009399 0.508655
vt 0.026058 0.511781
vt 0.026058 0.511781
vt 0.026058 0.511781
vt 0.009399 0.508656
vt 0.026058 0.511781
vt 0.026058 0.511781
vt 0.026058 0.511781
vt 0.026058 0.511781
vt 0.026058 0.511781
vt 0.026058 0.511781
vt 0.026058 0.511781
vt 0.026058 0.511781
vt 0.026058 0.511781
vt 0.026058 0.511781
vt 0.026058 0.511781
vt 0.026058 0.511781
vt 0.026058 0.511781
vt 0.026058 0.511781
vt 0.026058 0.511781
vt 0.026058 0.511781
vt 0.026058 0.511781
vt 0.009399 0.508655
vt 0.026058 0.511781
vt 0.026058 0.511781
vt 0.026058 0.511781
vt 0.026058 0.511781
vt 0.026058 0.511781
vt 0.026058 0.511781
vt 0.026058 0.511781
vt 0.026058 0.511781
vt 0.026058 0.511781
vt 0.026058 0.511781
vt 0.009399 0.508655
vt 0.009399 0.508656
vt 0.009399 0.508656
vt 0.009399 0.508655
vt 0.009399 0.508656
vt 0.009399 0.508655
vt 0.009399 0.508655
vt 0.009399 0.508656
vt 0.009399 0.508656
vt 0.009399 0.508655
vt 0.009399 0.508655
vt 0.009399 0.508656
vt 0.009399 0.508656
vt 0.009399 0.508655
vt 0.009399 0.508656
vt 0.009399 0.508655
vt 0.009399 0.508656
vt 0.009399 0.508655
vt 0.009399 0.508655
vt 0.009399 0.508656
vt 0.026058 0.511781
vt 0.026058 0.511781
vt 0.026058 0.511781
vt 0.026058 0.511781
vt 0.026058 0.511781
vn 0.000000 0.000000 1.000000
vn 0.000000 0.000000 1.000000
vn 0.000000 0.000000 1.000000
vn -0.000252 1.000000 0.000000
vn -0.000252 1.000000 0.000000
vn -0.000252 1.000000 0.000000
vn -0.000252 1.000000 0.000000
vn 1.000000 -0.000033 -0.000025
vn 1.000000 -0.000033 -0.000025
vn 1.000000 -0.000033 -0.000025
vn 1.000000 -0.000033 -0.000025
vn 0.000000 0.000000 1.000000
vn 0.000000 0.000000 1.000000
vn 0.000000 0.000000 1.000000
vn 0.000000 0.000000 1.000000
vn 0.000000 0.000000 1.000000
vn 0.000000 0.000000 1.000000
vn 0.000000 0.000000 1.000000
vn 0.000000 0.000000 1.000000
vn 0.000000 0.000000 1.000000
vn 0.000000 0.000000 1.000000
vn 0.000000 0.000000 1.000000
vn 0.000000 0.000000 1.000000
vn 0.000000 0.000000 1.000000
vn 0.000000 0.000000 1.000000
vn 1.000000 0.000000 0.000000
vn 1.000000 0.000000 0.000000
vn 1.000000 0.000000 0.000000
vn 1.000000 0.000000 0.000000
vn -1.000000 0.000000 0.000000
vn -1.000000 0.000000 0.000000
vn -1.000000 0.000000 0.000000
vn -1.000000 0.000000 0.000000
vn -1.000000 0.000000 0.000000
vn -1.000000 0.000000 0.000000
vn -1.000000 0.000000 0.000000
vn -1.000000 0.000000 0.000000
vn -1.000000 0.000000 0.000000
vn -1.000000 0.000000 0.000000
vn -1.000000 0.000000 0.000000
vn 0.000000 0.000000 1.000000
vn 0.000000 0.000000 1.000000
vn 0.000000 0.000000 1.000000
vn 0.000000 -1.000000 0.000000
vn 0.000000 -1.000000 0.000000
vn 0.000000 -1.000000 0.000000
vn 0.000000 -1.000000 0.000000
vn 1.000000 0.000033 -0.000025
vn 1.000000 0.000033 -0.000025
vn 1.000000 0.000033 -0.000025
vn 1.000000 0.000033 -0.000025
vn 0.000000 0.000000 1.000000
vn 0.000000 0.000000 1.000000
vn 0.000000 0.000000 1.000000
vn 0.794531 0.035305 0.606197
vn 0.794531 0.035305 0.606197
vn 0.794531 0.035305 0.606197
vn 0.000000 0.000000 1.000000
vn 0.000000 0.000000 1.000000
vn 0.000000 0.000000 1.000000
vn 0.000000 0.000000 1.000000
vn 0.000000 0.000000 1.000000
vn 0.000000 0.000000 1.000000
vn 0.000000 0.000000 1.000000
vn -0.000000 0.000000 1.000000
vn -0.000000 0.000000 1.000000
vn -0.000000 0.000000 1.000000
vn -0.000000 0.000000 1.000000
vn 0.000000 0.000000 1.000000
vn 0.000000 0.000000 1.000000
vn 0.000000 0.000000 1.000000
vn 0.000000 0.000000 1.000000
vn 0.498511 0.494297 0.712149
vn 0.498511 0.494297 0.712149
vn 0.498511 0.494297 0.712149
vn -0.000000 0.000000 1.000000
vn -0.000000 0.000000 1.000000
vn -0.000000 0.000000 1.000000
vn -0.000000 0.000000 1.000000
vn -0.000000 0.000000 1.000000
vn -0.000000 0.000000 1.000000
vn -0.000000 0.000000 1.000000
vn -0.000000 0.000000 1.000000
vn 0.000000 0.000000 1.000000
vn 0.000000 0.000000 1.000000
vn 0.000000 0.000000 1.000000
vn 0.000000 0.000000 1.000000
vn -1.000000 0.000000 0.000000
vn -1.000000 0.000000 0.000000
vn -1.000000 0.000000 0.000000
vn -1.000000 0.000000 0.000000
vn 0.000000 -1.000000 0.000000
vn 0.000000 -1.000000 0.000000
vn 0.000000 -1.000000 0.000000
vn 0.000000 -1.000000 0.000000
vn -1.000000 0.000000 0.000000
vn -1.000000 0.000000 0.000000
vn -1.000000 0.000000 0.000000
vn -1.000000 0.000000 0.000000
vn 1.000000 0.000000 0.000000
vn 1.000000 0.000000 0.000000
vn 1.000000 0.000000 0.000000
vn 1.000000 0.000000 0.000000
vn -1.000000 0.000000 0.000000
vn -1.000000 0.000000 0.000000
vn -1.000000 0.000000 0.000000
vn -1.000000 0.000000 0.000000
vn 0.598866 0.800850 -0.000015
vn 0.598866 0.800849 -0.000015
vn 0.598866 0.800849 -0.000015
vn 0.598866 0.800850 -0.000015
vn -0.599959 -0.800031 -0.000000
vn -0.599959 -0.800031 -0.000000
vn -0.599959 -0.800031 -0.000000
vn -0.599959 -0.800031 -0.000000
vn -0.599685 0.800236 0.000000
vn -0.599685 0.800236 0.000000
vn -0.599685 0.800236 0.000000
vn -0.599685 0.800236 0.000000
vn 0.599131 -0.800651 -0.000015
vn 0.599131 -0.800651 -0.000015
vn 0.599131 -0.800651 -0.000015
vn 0.599131 -0.800651 -0.000015
vn 0.600675 0.799494 0.000000
vn 0.600675 0.799494 0.000000
vn 0.600675 0.799494 0.000000
vn 0.600675 0.799494 0.000000
vn -0.599164 -0.800627 0.000000
vn -0.599164 -0.800627 0.000000
vn -0.599164 -0.800627 0.000000
vn -0.599164 -0.800627 0.000000
vn -0.599257 0.800556 0.000000
vn -0.599257 0.800556 0.000000
vn -0.599257 0.800556 0.000000
vn -0.599257 0.800556 0.000000
vn 0.599490 -0.800382 -0.000000
vn 0.599490 -0.800382 -0.000000
vn 0.599490 -0.800382 -0.000000
vn 0.599490 -0.800382 -0.000000
vn -0.579260 0.359779 0.731449
vn -0.579260 0.359779 0.731449
vn -0.579260 0.359779 0.731449
vn -0.795630 -0.365464 0.483124
vn -0.795630 -0.365464 0.483124
vn -0.795630 -0.365464 0.483124
vn -0.000000 0.000000 1.000000
vn -0.000000 0.000000 1.000000
vn -0.000000 0.000000 1.000000
vn -0.000000 0.000000 1.000000
vn -0.000000 0.000000 1.000000
vn -0.000000 0.000000 1.000000
vn -0.000000 0.000000 1.000000
vn -0.000000 0.000000 1.000000
vn -0.000000 0.000000 1.000000
vn 0.000215 1.000000 -0.000060
vn 0.000215 1.000000 -0.000060
vn 0.000215 1.000000 -0.000060
vn 0.000215 1.000000 -0.000060
vn 0.000215 1.000000 -0.000060
vn 1.000000 0.000000 0.000000
vn 1.000000 0.000000 0.000000
vn 1.000000 0.000000 0.000000
vn 1.000000 0.000000 0.000000
vn 1.000000 0.000000 0.000000
s off
f 1/1/1 2/2/2 3/3/3
f 1/4/4 4/5/5 5/6/6 2/7/7
f 3/8/8 6/9/9 4/5/10 1/4/11
f 7/12/12 8/13/13 9/14/14
f 3/15/15 2/16/16 8/17/17 7/18/18
f 9/19/19 8/20/20 45/21/21 47/22/22 46/23/23 10/24/24 11/25/25
f 9/10/26 14/11/27 12/26/28 7/27/29
f 2/7/30 5/6/31 13/28/32 8/29/33
f 8/29/34 13/28/35 15/30/36 10/31/37 46/32/38 48/33/39 45/34/40
f 11/41/41 10/42/42 16/43/43
f 10/31/44 15/30/45 18/35/46 16/36/47
f 16/36/48 18/35/49 17/37/50 11/38/51
f 19/50/52 20/51/53 21/52/54
f 22/39/55 51/40/56 50/44/57
f 25/56/58 26/57/59 20/58/60 19/59/61
f 27/60/62 26/61/63 25/62/64
f 28/63/65 29/64/66 3/65/67 7/66/68
f 30/67/69 28/68/70 9/69/71 11/70/72
f 22/39/73 50/44/74 49/45/75
f 26/74/76 31/75/77 30/76/78 20/77/79
f 24/78/80 29/79/81 31/80/82 27/81/83
f 30/76/84 31/75/85 29/64/86 28/63/87
f 20/46/88 33/47/89 34/48/90 21/49/91
f 21/49/92 34/48/93 32/53/94 19/71/95
f 23/82/96 36/83/97 37/84/98 24/85/99
f 19/71/100 32/53/101 38/86/102 25/87/103
f 27/88/104 40/89/105 39/90/106 26/91/107
f 29/92/108 42/93/109 6/9/110 3/8/111
f 7/27/112 12/26/113 41/94/114 28/95/115
f 28/95/116 41/94/117 14/11/118 9/10/119
f 11/38/120 17/37/121 43/96/122 30/97/123
f 26/91/124 39/90/125 44/98/126 31/99/127
f 30/97/128 43/96/129 33/47/130 20/46/131
f 24/85/132 37/84/133 42/93/134 29/92/135
f 31/99/136 44/98/137 40/89/138 27/88/139
f 48/33/140 46/32/141 47/100/142
f 45/34/143 48/33/144 47/100/145
f 50/72/146 24/106/147 27/105/148 25/104/149 49/73/150
f 51/54/151 23/103/152 24/102/153 50/55/154
f 22/39/155 35/101/156 36/83/157 23/82/158 51/40/159
f 25/87/160 38/86/161 35/101/162 22/39/163 49/45/164
