# This file uses centimeters as units for non-parametric coordinates.

v -20.219482 26.958984 7.391602
v 5.082275 1.657227 7.391602
v -6.739746 26.958984 7.391602
v 11.822021 8.397461 7.391602
v 0.000000 47.178711 -0.765625
v 0.000000 33.698242 7.391602
v 6.739746 26.958984 7.391602
v 20.219482 26.958984 7.391602
v 1.248779 21.467773 7.391602
v 7.988770 14.728516 7.391602
v -20.219482 26.958982 -7.391602
v 5.082275 1.657227 -7.391602
v -6.739746 26.958982 -7.391602
v 11.822021 8.397459 -7.391602
v 0.000000 33.698242 -7.391602
v 0.000000 47.178711 -7.391602
v 1.248779 21.467772 -7.391602
v 7.988770 14.728514 -7.391602
v 20.219482 26.958982 -7.391602
v 6.739746 26.958982 -7.391602
v -20.219482 -26.958984 7.391602
v 0.000000 -47.178711 7.391602
v -6.739746 -26.958984 7.391602
v 0.000000 -33.700195 7.391602
v 6.739746 -26.958984 7.391602
v 0.000000 -6.739258 7.391602
v 20.219482 -26.958984 7.391602
v -8.153564 -14.893556 7.391602
v -1.413574 -21.632813 7.391602
v -5.375000 -1.365234 7.391602
v -12.114502 -8.104492 7.391602
v -20.219482 -26.958984 -7.391602
v 0.000000 -47.178711 -7.391602
v -6.739746 -26.958984 -7.391602
v 0.000000 -33.700195 -7.391602
v 6.739746 -26.958984 -7.391602
v -12.114502 -8.104492 -7.391602
v 0.000000 -6.739258 -7.391602
v -5.375000 -1.365234 -7.391602
v 20.219482 -26.958984 -7.391602
v -1.413574 -21.632813 -7.391602
v -8.153564 -14.893555 -7.391602
v -47.178467 -0.000000 7.391602
v -26.959229 -20.219727 7.391602
v -33.698975 -0.000000 7.391602
v -26.959229 -6.741211 7.391602
v -26.959229 6.739258 7.391602
v -26.959229 20.219727 7.391602
v -8.148438 12.071289 7.391602
v -15.229248 8.489258 7.391602
v -21.969238 1.750000 7.391602
v -1.408936 5.331055 7.391602
v -47.178467 0.000000 -7.391602
v -26.959229 -20.219727 -7.391602
v -33.698975 0.000000 -7.391602
v -26.959229 -6.741211 -7.391602
v -26.959229 6.739260 -7.391602
v -26.959229 20.219725 -7.391602
v -8.148438 12.071287 -7.391602
v -21.969238 1.750000 -7.391602
v -15.229248 8.489256 -7.391602
v -1.408936 5.331053 -7.391602
v 26.959229 6.739258 7.391602
v 26.959229 -20.219727 7.391602
v 26.959229 -6.741211 7.391602
v 47.178467 -0.000000 7.391602
v 26.959229 20.219727 7.391602
v 33.698975 -0.000000 7.391602
v 21.524902 -1.305664 7.391602
v 14.785156 -8.045898 7.391602
v 1.685791 -5.055664 7.391602
v 8.426025 -11.793946 7.391602
v 1.685791 -5.055664 -7.391602
v 8.426025 -11.793945 -7.391602
v 26.959229 6.739260 -7.391602
v 14.785156 -8.045898 -7.391602
v 26.959229 -20.219727 -7.391602
v 26.959229 -6.741211 -7.391602
v 21.524902 -1.305664 -7.391602
v 47.178467 0.000000 -7.391602
v 26.959229 20.219725 -7.391602
v 33.698975 0.000000 -7.391602
v 29.132080 -18.046875 7.391602
v 43.037354 -4.141602 7.391602
v 33.932373 -4.416016 7.391602
v 35.369385 -11.809570 1.012695
v -41.865967 -5.313477 7.391602
v -31.608643 -15.570313 7.391602
v -31.549561 -6.448242 7.391602
v -37.754883 -9.423828 -0.082031
v 6.031250 41.147461 7.391602
v -4.972656 42.206055 7.391602
v 0.000000 40.054688 7.391602
v -8.462158 -11.757813 7.391602
v 2.733398 -22.953125 7.391602
v -0.705811 -14.757813 7.391602
v -3.561768 -16.657227 3.049805
vt 0.026058 0.511781
vt 0.026058 0.511781
vt 0.026058 0.511781
vt 0.026058 0.511781
vt 0.026058 0.511781
vt 0.026058 0.511781
vt 0.026058 0.511781
vt 0.026058 0.511781
vt 0.026058 0.511781
vt 0.026058 0.511781
vt 0.009277 0.508654
vt 0.009277 0.508654
vt 0.009277 0.508654
vt 0.009277 0.508654
vt 0.009277 0.508654
vt 0.009277 0.508654
vt 0.009277 0.508654
vt 0.009277 0.508654
vt 0.009277 0.508654
vt 0.009277 0.508654
vt 0.009277 0.508654
vt 0.009277 0.508654
vt 0.009277 0.508654
vt 0.009277 0.508654
vt 0.009277 0.508654
vt 0.009277 0.508654
vt 0.009277 0.508654
vt 0.009277 0.508654
vt 0.009277 0.508654
vt 0.009277 0.508654
vt 0.009277 0.508654
vt 0.009277 0.508654
vt 0.009277 0.508654
vt 0.009277 0.508654
vt 0.009277 0.508654
vt 0.009277 0.508654
vt 0.009277 0.508654
vt 0.009277 0.508654
vt 0.009277 0.508654
vt 0.009277 0.508654
vt 0.026058 0.511781
vt 0.026058 0.511781
vt 0.026058 0.511781
vt 0.026058 0.511781
vt 0.026058 0.511781
vt 0.026058 0.511781
vt 0.026058 0.511781
vt 0.026058 0.511781
vt 0.026058 0.511781
vt 0.026058 0.511781
vt 0.026058 0.511781
vt 0.009277 0.508654
vt 0.009277 0.508654
vt 0.009277 0.508654
vt 0.009277 0.508654
vt 0.009277 0.508654
vt 0.009277 0.508654
vt 0.009277 0.508654
vt 0.009277 0.508655
vt 0.009277 0.508654
vt 0.009277 0.508654
vt 0.009277 0.508654
vt 0.009277 0.508654
vt 0.009277 0.508654
vt 0.009277 0.508654
vt 0.009277 0.508654
vt 0.009277 0.508654
vt 0.009277 0.508654
vt 0.009277 0.508654
vt 0.009277 0.508655
vt 0.009277 0.508654
vt 0.009277 0.508654
vt 0.009277 0.508654
vt 0.009277 0.508654
vt 0.009277 0.508654
vt 0.009277 0.508654
vt 0.009277 0.508654
vt 0.009277 0.508654
vt 0.009277 0.508654
vt 0.009277 0.508654
vt 0.009277 0.508654
vt 0.009277 0.508654
vt 0.009277 0.508654
vt 0.026058 0.511781
vt 0.026058 0.511781
vt 0.026058 0.511781
vt 0.026058 0.511781
vt 0.026058 0.511781
vt 0.026058 0.511781
vt 0.026058 0.511781
vt 0.026058 0.511781
vt 0.026058 0.511781
vt 0.026058 0.511781
vt 0.009277 0.508654
vt 0.009277 0.508654
vt 0.009277 0.508654
vt 0.009277 0.508654
vt 0.009277 0.508654
vt 0.009277 0.508654
vt 0.009277 0.508654
vt 0.009277 0.508654
vt 0.009277 0.508654
vt 0.009277 0.508654
vt 0.009277 0.508654
vt 0.009277 0.508654
vt 0.009277 0.508654
vt 0.009277 0.508654
vt 0.009277 0.508654
vt 0.009277 0.508654
vt 0.009277 0.508654
vt 0.009277 0.508654
vt 0.009277 0.508654
vt 0.009277 0.508654
vt 0.009277 0.508654
vt 0.009277 0.508655
vt 0.009277 0.508654
vt 0.009277 0.508654
vt 0.009277 0.508654
vt 0.009277 0.508654
vt 0.009277 0.508654
vt 0.009277 0.508654
vt 0.009277 0.508655
vt 0.009277 0.508654
vt 0.026058 0.511781
vt 0.026058 0.511781
vt 0.026058 0.511781
vt 0.026058 0.511781
vt 0.026058 0.511781
vt 0.026058 0.511781
vt 0.026058 0.511781
vt 0.026058 0.511781
vt 0.026058 0.511781
vt 0.026058 0.511781
vt 0.009277 0.508654
vt 0.026058 0.511781
vt 0.026058 0.511781
vt 0.026058 0.511781
vt 0.026058 0.511781
vt 0.026058 0.511781
vt 0.026058 0.511781
vt 0.026058 0.511781
vt 0.026058 0.511781
vt 0.026058 0.511781
vt 0.026058 0.511781
vt 0.026058 0.511781
vt 0.026058 0.511781
vt 0.026058 0.511781
vt 0.026058 0.511781
vt 0.026058 0.511781
vt 0.026058 0.511781
vt 0.026058 0.511781
vt 0.026058 0.511781
vn 0.000000 0.000000 1.000000
vn 0.000000 0.000000 1.000000
vn 0.000000 0.000000 1.000000
vn 0.000000 0.000000 1.000000
vn 0.000000 0.000000 1.000000
vn 0.000000 0.000000 1.000000
vn 0.309828 0.716134 0.625427
vn 0.309828 0.716134 0.625427
vn 0.309828 0.716134 0.625427
vn -0.000000 0.000000 1.000000
vn -0.000000 0.000000 1.000000
vn -0.000000 0.000000 1.000000
vn -0.000000 0.000000 1.000000
vn -0.135215 0.746279 0.651755
vn -0.135215 0.746279 0.651755
vn -0.135215 0.746279 0.651755
vn -0.707107 -0.707107 0.000000
vn -0.707107 -0.707107 0.000000
vn -0.707107 -0.707107 0.000000
vn -0.707107 -0.707107 0.000000
vn 0.707132 -0.707081 0.000000
vn 0.707132 -0.707081 0.000000
vn 0.707132 -0.707081 0.000000
vn 0.707132 -0.707081 0.000000
vn 0.707102 0.707111 -0.000000
vn 0.707102 0.707111 -0.000000
vn 0.707102 0.707111 -0.000000
vn 0.707102 0.707111 -0.000000
vn 0.707081 -0.707132 0.000000
vn 0.707081 -0.707132 0.000000
vn 0.707081 -0.707132 0.000000
vn 0.707081 -0.707132 0.000000
vn -0.707068 -0.707145 0.000000
vn -0.707068 -0.707145 0.000000
vn -0.707068 -0.707145 0.000000
vn -0.707068 -0.707145 0.000000
vn 0.707100 -0.707114 0.000000
vn 0.707100 -0.707114 0.000000
vn 0.707100 -0.707114 0.000000
vn 0.707100 -0.707114 0.000000
vn -0.707123 0.707091 -0.000000
vn -0.707123 0.707091 -0.000000
vn -0.707123 0.707091 -0.000000
vn -0.707123 0.707091 -0.000000
vn -0.707081 -0.707132 0.000000
vn -0.707081 -0.707132 0.000000
vn -0.707081 -0.707132 0.000000
vn -0.707081 -0.707132 0.000000
vn 0.000000 0.000000 1.000000
vn 0.000000 0.000000 1.000000
vn 0.000000 0.000000 1.000000
vn 0.000000 0.000000 1.000000
vn 0.000000 0.000000 1.000000
vn 0.000000 0.000000 1.000000
vn 0.000000 0.000000 1.000000
vn 0.000000 0.000000 1.000000
vn 0.000000 0.000000 1.000000
vn -0.000000 0.000000 1.000000
vn -0.000000 0.000000 1.000000
vn -0.000000 0.000000 1.000000
vn 0.000000 0.000000 1.000000
vn 0.000000 0.000000 1.000000
vn 0.000000 0.000000 1.000000
vn 0.000000 0.000000 1.000000
vn 0.000000 0.000000 1.000000
vn 0.000000 0.000000 1.000000
vn 0.000000 0.000000 1.000000
vn 0.000000 0.000000 1.000000
vn 0.000000 0.000000 1.000000
vn 0.000000 0.000000 1.000000
vn -0.000000 0.000000 1.000000
vn -0.000000 0.000000 1.000000
vn -0.000000 0.000000 1.000000
vn -0.000000 0.000000 1.000000
vn -0.707111 -0.707103 0.000000
vn -0.707111 -0.707103 0.000000
vn -0.707111 -0.707103 0.000000
vn -0.707111 -0.707103 0.000000
vn 0.707184 0.707030 0.000000
vn 0.707184 0.707030 0.000000
vn 0.707184 0.707030 0.000000
vn 0.707184 0.707030 0.000000
vn -0.707184 0.707030 0.000000
vn -0.707184 0.707030 0.000000
vn -0.707184 0.707030 0.000000
vn -0.707184 0.707030 0.000000
vn 0.707043 0.707171 0.000000
vn 0.707043 0.707171 0.000000
vn 0.707043 0.707171 0.000000
vn 0.707043 0.707171 0.000000
vn -0.707094 0.707120 0.000000
vn -0.707094 0.707120 0.000000
vn -0.707094 0.707120 0.000000
vn -0.707094 0.707120 0.000000
vn 0.707111 0.707103 0.000000
vn 0.707111 0.707103 0.000000
vn 0.707111 0.707103 0.000000
vn 0.707111 0.707103 0.000000
vn -0.707113 -0.707101 -0.000017
vn -0.707113 -0.707101 -0.000017
vn -0.707113 -0.707101 -0.000017
vn -0.707113 -0.707101 -0.000017
vn -0.707113 -0.707101 -0.000017
vn -0.707113 -0.707101 -0.000017
vn -0.707113 -0.707101 -0.000017
vn 0.707111 -0.707103 0.000000
vn 0.707111 -0.707103 0.000000
vn 0.707111 -0.707103 0.000000
vn 0.707111 -0.707103 0.000000
vn 0.707107 -0.707107 0.000000
vn 0.707107 -0.707107 0.000000
vn 0.707107 -0.707107 0.000000
vn 0.707107 -0.707107 0.000000
vn 0.707068 0.707145 0.000000
vn 0.707068 0.707145 0.000000
vn 0.707068 0.707145 0.000000
vn 0.707068 0.707145 0.000000
vn -0.707092 0.707121 0.000000
vn -0.707093 0.707121 0.000000
vn -0.707092 0.707121 0.000000
vn -0.707092 0.707121 0.000000
vn -0.000000 0.000000 1.000000
vn -0.000000 0.000000 1.000000
vn -0.000000 0.000000 1.000000
vn -0.000000 0.000000 1.000000
vn 0.000000 0.000000 1.000000
vn 0.000000 0.000000 1.000000
vn 0.000000 0.000000 1.000000
vn 0.000000 0.000000 1.000000
vn 0.000000 0.000000 1.000000
vn 0.000000 0.000000 1.000000
vn 0.000000 0.000000 1.000000
vn 0.000000 0.000000 1.000000
vn 0.000000 0.000000 1.000000
vn 0.000000 0.000000 1.000000
vn 0.000000 0.000000 1.000000
vn 0.000000 0.000000 1.000000
vn 0.000000 0.000000 1.000000
vn 0.000000 0.000000 1.000000
vn 0.000000 0.000000 1.000000
vn 0.000000 0.000000 1.000000
vn 0.000000 0.000000 1.000000
vn 0.000000 0.000000 1.000000
vn 0.000000 0.000000 1.000000
vn 0.000000 0.000000 1.000000
vn -0.707119 -0.707094 -0.000013
vn -0.707119 -0.707094 -0.000013
vn -0.707119 -0.707094 -0.000013
vn -0.707119 -0.707094 -0.000013
vn -0.707119 -0.707094 -0.000013
vn -0.707119 -0.707094 -0.000013
vn -0.707119 -0.707094 -0.000013
vn 0.707184 0.707030 0.000000
vn 0.707184 0.707030 0.000000
vn 0.707184 0.707030 0.000000
vn 0.707184 0.707030 0.000000
vn 0.707081 -0.707132 -0.000000
vn 0.707081 -0.707132 -0.000000
vn 0.707081 -0.707132 -0.000000
vn 0.707081 -0.707132 -0.000000
vn -0.707115 0.707098 -0.000000
vn -0.707115 0.707098 -0.000000
vn -0.707115 0.707098 -0.000000
vn -0.707115 0.707098 -0.000000
vn -0.707139 0.707075 -0.000000
vn -0.707139 0.707075 -0.000000
vn -0.707139 0.707075 -0.000000
vn -0.707139 0.707075 -0.000000
vn -0.707055 -0.707159 -0.000000
vn -0.707055 -0.707159 -0.000000
vn -0.707055 -0.707159 -0.000000
vn -0.707055 -0.707159 -0.000000
vn 0.707068 -0.707145 0.000000
vn 0.707068 -0.707145 0.000000
vn 0.707068 -0.707145 0.000000
vn 0.707068 -0.707145 0.000000
vn 0.707122 0.707092 -0.000000
vn 0.707122 0.707092 -0.000000
vn 0.707122 0.707092 -0.000000
vn 0.707122 0.707092 -0.000000
vn 0.707114 -0.707100 0.000000
vn 0.707114 -0.707100 0.000000
vn 0.707114 -0.707100 0.000000
vn 0.707114 -0.707100 0.000000
vn 0.707145 0.707068 -0.000000
vn 0.707145 0.707068 -0.000000
vn 0.707145 0.707068 -0.000000
vn 0.707145 0.707068 -0.000000
vn 0.000000 0.000000 1.000000
vn 0.000000 0.000000 1.000000
vn 0.000000 0.000000 1.000000
vn 0.000000 0.000000 1.000000
vn 0.000000 0.000000 1.000000
vn 0.000000 0.000000 1.000000
vn 0.000000 0.000000 1.000000
vn -0.000000 0.000000 1.000000
vn -0.000000 0.000000 1.000000
vn -0.000000 0.000000 1.000000
vn -0.000000 0.000000 1.000000
vn 0.000000 0.000000 1.000000
vn 0.000000 0.000000 1.000000
vn 0.000000 0.000000 1.000000
vn 0.000000 0.000000 1.000000
vn 0.000000 0.000000 1.000000
vn 0.000000 0.000000 1.000000
vn 0.000000 0.000000 1.000000
vn 0.000000 0.000000 1.000000
vn 0.000000 0.000000 1.000000
vn 0.000000 0.000000 1.000000
vn 0.000000 0.000000 1.000000
vn 0.000000 0.000000 1.000000
vn 0.000000 0.000000 1.000000
vn -0.707004 -0.707209 0.000000
vn -0.707004 -0.707209 0.000000
vn -0.707004 -0.707209 0.000000
vn -0.707004 -0.707209 0.000000
vn 0.707107 -0.707107 -0.000000
vn 0.707107 -0.707107 -0.000000
vn 0.707107 -0.707107 -0.000000
vn 0.707107 -0.707107 -0.000000
vn -0.707100 -0.707114 0.000000
vn -0.707100 -0.707114 0.000000
vn -0.707100 -0.707114 0.000000
vn -0.707100 -0.707114 0.000000
vn 0.707186 0.707027 0.000000
vn 0.707186 0.707027 0.000000
vn 0.707186 0.707027 0.000000
vn 0.707186 0.707027 0.000000
vn -0.707132 0.707081 0.000000
vn -0.707132 0.707081 0.000000
vn -0.707132 0.707081 0.000000
vn -0.707132 0.707081 0.000000
vn 0.707117 -0.707097 -0.000011
vn 0.707117 -0.707097 -0.000011
vn 0.707117 -0.707097 -0.000011
vn 0.707117 -0.707097 -0.000011
vn 0.707117 -0.707097 -0.000011
vn 0.707117 -0.707097 -0.000011
vn 0.707117 -0.707097 -0.000011
vn -0.707134 0.707079 -0.000000
vn -0.707134 0.707080 -0.000000
vn -0.707134 0.707080 -0.000000
vn -0.707134 0.707080 -0.000000
vn -0.707184 0.707030 0.000000
vn -0.707184 0.707030 0.000000
vn -0.707184 0.707030 0.000000
vn -0.707184 0.707030 0.000000
vn -0.707081 -0.707132 -0.000000
vn -0.707081 -0.707132 -0.000000
vn -0.707081 -0.707132 -0.000000
vn -0.707081 -0.707132 -0.000000
vn 0.707115 0.707098 -0.000000
vn 0.707115 0.707098 -0.000000
vn 0.707115 0.707098 -0.000000
vn 0.707115 0.707098 -0.000000
vn 0.000000 0.000000 1.000000
vn 0.000000 0.000000 1.000000
vn 0.000000 0.000000 1.000000
vn 0.809701 -0.285147 0.512909
vn 0.809701 -0.285147 0.512909
vn 0.809701 -0.285147 0.512909
vn 0.019618 -0.650928 0.758886
vn 0.019618 -0.650928 0.758886
vn 0.019618 -0.650928 0.758886
vn 0.000000 0.000000 1.000000
vn 0.000000 0.000000 1.000000
vn 0.000000 0.000000 1.000000
vn -0.770335 0.004990 0.637619
vn -0.770335 0.004990 0.637619
vn -0.770335 0.004990 0.637619
vn -0.098317 -0.893826 0.437504
vn -0.098317 -0.893826 0.437504
vn -0.098317 -0.893825 0.437504
vn 0.707111 0.707102 -0.000002
vn 0.707111 0.707102 -0.000002
vn 0.707111 0.707102 -0.000002
vn 0.707111 0.707102 -0.000002
vn 0.707111 0.707102 -0.000002
vn -0.707111 0.707102 -0.000002
vn -0.707111 0.707102 -0.000002
vn -0.707111 0.707102 -0.000002
vn -0.707111 0.707102 -0.000002
vn -0.707111 0.707102 -0.000002
vn 0.000000 0.000000 1.000000
vn 0.000000 0.000000 1.000000
vn 0.000000 0.000000 1.000000
vn 0.000000 0.000000 1.000000
vn 0.000000 0.000000 1.000000
vn 0.000000 0.000000 1.000000
vn 0.000000 0.000000 1.000000
vn 0.000000 0.000000 1.000000
vn 0.000000 0.000000 1.000000
vn 0.000000 0.000000 1.000000
vn 0.000000 0.000000 1.000000
vn 0.000000 0.000000 1.000000
vn 0.000000 0.000000 1.000000
vn 0.000000 0.000000 1.000000
vn -0.728548 -0.305739 0.612978
vn -0.728548 -0.305739 0.612978
vn -0.728548 -0.305739 0.612978
vn -0.303107 -0.783667 0.542210
vn -0.303107 -0.783667 0.542210
vn -0.303107 -0.783667 0.542210
s off
f 1/1/1 2/2/2 3/3/3
f 2/2/4 4/4/5 3/3/6
f 92/143/7 93/142/8 5/6/9
f 9/7/10 10/8/11 8/9/12 7/10/13
f 93/142/14 91/144/15 5/6/16
f 1/11/17 11/12/18 12/13/19 2/14/20
f 2/14/21 12/13/22 14/15/23 4/16/24
f 4/16/25 14/15/26 13/17/27 3/18/28
f 3/18/29 13/17/30 15/19/31 6/20/32
f 9/21/33 17/22/34 18/23/35 10/24/36
f 10/24/37 18/23/38 19/25/39 8/26/40
f 7/27/41 20/28/42 17/22/43 9/21/44
f 6/20/45 15/19/46 20/28/47 7/27/48
f 21/41/49 22/42/50 23/43/51
f 22/42/52 24/44/53 23/43/54
f 24/44/55 22/42/56 25/45/57
f 31/46/58 26/47/59 30/48/60
f 31/46/61 96/137/62 27/49/63 26/47/64
f 31/46/65 94/141/66 96/137/67
f 25/45/68 22/42/69 27/49/70
f 21/41/71 23/43/72 29/50/73 28/51/74
f 21/29/75 32/30/76 33/31/77 22/32/78
f 24/33/79 35/34/80 34/35/81 23/36/82
f 25/37/83 36/38/84 35/34/85 24/33/86
f 26/39/87 38/40/88 39/52/89 30/53/90
f 30/53/91 39/52/92 37/54/93 31/55/94
f 27/56/95 40/57/96 38/40/97 26/39/98
f 31/55/99 37/54/100 36/38/101 25/37/102 95/58/103 97/59/104 94/60/105
f 22/32/106 33/31/107 40/57/108 27/56/109
f 23/36/110 34/35/111 41/61/112 29/62/113
f 29/62/114 41/61/115 42/63/116 28/64/117
f 28/64/118 42/63/119 32/30/120 21/29/121
f 43/84/122 87/148/123 89/146/124 45/86/125
f 44/85/126 46/87/127 45/86/128 89/146/129
f 43/84/130 45/86/131 47/88/132
f 43/84/133 47/88/134 48/89/135
f 46/87/136 44/85/137 49/90/138
f 47/88/139 51/91/140 50/92/141 48/89/142
f 49/90/143 44/85/144 52/93/145
f 43/65/146 53/66/147 54/67/148 44/68/149 88/69/150 90/70/151 87/71/152
f 46/72/153 56/73/154 55/74/155 45/75/156
f 45/75/157 55/74/158 57/76/159 47/77/160
f 48/78/161 58/79/162 53/66/163 43/65/164
f 49/80/165 59/81/166 56/73/167 46/72/168
f 47/77/169 57/76/170 60/82/171 51/83/172
f 51/83/173 60/82/174 61/94/175 50/95/176
f 50/95/177 61/94/178 58/79/179 48/78/180
f 44/68/181 54/67/182 62/96/183 52/97/184
f 52/97/185 62/96/186 59/81/187 49/80/188
f 71/124/189 72/125/190 63/126/191
f 70/127/192 64/128/193 65/129/194 69/130/195
f 64/128/196 83/152/197 85/150/198 65/129/199
f 71/124/200 63/126/201 67/132/202
f 65/129/203 85/150/204 66/131/205 68/133/206
f 63/126/207 68/133/208 67/132/209
f 68/133/210 66/131/211 67/132/212
f 71/98/213 73/99/214 74/100/215 72/101/216
f 72/101/217 74/100/218 75/102/219 63/103/220
f 70/104/221 76/105/222 77/106/223 64/107/224
f 65/108/225 78/109/226 79/110/227 69/111/228
f 69/111/229 79/110/230 76/105/231 70/104/232
f 64/107/233 77/106/234 80/112/235 66/113/236 84/114/237 86/115/238 83/116/239
f 67/117/240 81/118/241 73/99/242 71/98/243
f 68/119/244 82/120/245 78/109/246 65/108/247
f 63/103/248 75/102/249 82/120/250 68/119/251
f 66/113/252 80/112/253 81/118/254 67/117/255
f 85/150/256 84/151/257 66/131/258
f 85/150/259 83/152/260 86/149/261
f 85/150/262 86/149/263 84/151/264
f 89/146/265 88/147/266 44/85/267
f 89/146/268 90/145/269 88/147/270
f 89/146/271 87/148/272 90/145/273
f 8/26/274 19/25/275 16/121/276 5/122/277 91/123/278
f 92/134/279 5/122/280 16/121/281 11/12/282 1/11/283
f 1/1/284 3/3/285 6/5/286 93/142/287 92/143/288
f 6/5/289 7/10/290 8/9/291 91/144/292 93/142/293
f 96/137/294 95/139/295 25/45/296 27/49/297
f 96/135/298 97/136/299 95/138/300
f 94/140/301 97/136/302 96/135/303
