# This file uses centimeters as units for non-parametric coordinates.

v 3.796997 -18.995117 7.391602
v -15.195435 0.000000 7.391602
v 4.607300 18.993162 7.391602
v 8.604492 9.345704 7.391602
v -8.373535 6.823242 7.391602
v 7.793945 -9.346679 7.391602
v 1.781128 16.166990 7.391602
v 41.789307 18.993162 7.391602
v 60.781982 0.000000 7.391602
v 41.789307 -18.995117 7.391602
v 37.792236 -9.346679 7.391602
v 37.792236 9.345704 7.391602
v 47.129639 0.007813 7.391602
v -15.195435 0.000000 -7.391602
v 3.796997 -18.995117 -7.391602
v 7.793945 -9.346680 -7.391602
v -8.373535 6.823244 -7.391602
v 41.789307 -18.995117 -7.391602
v 37.792236 -9.346680 -7.391602
v 4.607300 18.993166 -7.391602
v 1.781128 16.166994 -7.391602
v 8.604492 9.345705 -7.391602
v 47.129639 0.007813 -7.391602
v 60.781982 0.000000 -7.391602
v 41.789307 18.993166 -7.391602
v 37.792236 9.345705 -7.391602
v -3.797119 18.993162 7.391602
v 15.195313 0.000000 7.391602
v -4.607544 -18.995117 7.391602
v -8.604492 -9.346679 7.391602
v 8.373413 -6.823243 7.391602
v -7.793945 9.345704 7.391602
v -1.781250 -16.168945 7.391602
v -41.789551 -18.995117 7.391602
v -60.781738 0.000000 7.391602
v -41.789551 18.993168 0.208984
v -37.792358 9.345704 7.391602
v -37.792358 -9.346679 7.391602
v -47.129517 -0.007812 7.391602
v 15.195313 0.000000 -7.391602
v -3.797119 18.993166 -7.391602
v -7.793945 9.345705 -7.391602
v 8.373413 -6.823242 -7.391602
v -41.789551 18.993166 -7.391602
v -37.792358 9.345705 -7.391602
v -4.607544 -18.995117 -7.391602
v -1.781250 -16.168945 -7.391602
v -8.604492 -9.346680 -7.391602
v -47.129517 -0.007813 -7.391602
v -60.781738 0.000000 -7.391602
v -41.789551 -18.995117 -7.391602
v -37.792358 -9.346680 -7.391602
v -0.006958 55.371094 -0.771484
v 17.446045 24.281250 7.391602
v -0.006958 41.720703 7.391602
v 27.098633 28.277344 7.391602
v 17.446045 20.791014 7.391602
v 27.098633 20.791014 7.391602
v -17.459717 24.281250 7.391602
v -27.112061 28.277344 7.391602
v -17.459717 20.791014 7.391602
v -27.112061 20.791014 7.391602
v 17.446045 24.281252 -7.391602
v 27.098633 28.277346 -7.391602
v -0.006958 55.371094 -7.391602
v -0.006958 41.720703 -7.391602
v 17.446045 20.791018 -7.391602
v 27.098633 20.791018 -7.391602
v -17.459717 24.281252 -7.391602
v -27.112061 28.277346 -7.391602
v -27.112061 20.791018 -7.391602
v -17.459717 20.791018 -7.391602
v 0.003418 -35.123047 7.391602
v -10.842163 -24.282227 7.391602
v 10.848999 -24.282227 7.391602
v 10.848999 -24.282227 -7.391602
v 0.003418 -35.123047 -7.391602
v -10.842163 -24.282227 -7.391602
v 17.446045 7.672852 7.391602
v 27.098633 7.672852 7.391602
v 17.446045 -7.540040 7.391602
v 27.098633 -7.540040 7.391602
v 17.446045 7.672853 -7.391602
v 27.098633 7.672853 -7.391602
v 17.446045 -7.540039 -7.391602
v 27.098633 -7.540039 -7.391602
v -17.446167 -7.672852 7.391602
v -27.098755 0.331055 7.391602
v -17.446167 7.540039 7.391602
v -27.098755 7.540039 7.391602
v -17.446167 -7.672852 -7.391602
v -27.098755 -7.672852 -7.391602
v -17.446167 7.540041 -7.391602
v -27.098755 7.540041 -7.391602
v -0.003540 35.123047 7.391602
v 10.842163 24.281250 7.391602
v -10.848999 24.281250 7.391602
v -10.848999 24.281252 -7.391602
v -0.003540 35.123047 -7.391602
v 10.842163 24.281252 -7.391602
v 0.006714 -55.371094 7.391602
v -17.446167 -24.282227 7.391602
v 0.006714 -41.720703 7.391602
v -27.098755 -28.277346 7.391602
v -17.446167 -20.791992 7.391602
v -27.098755 -20.791992 7.391602
v 17.459473 -24.282227 7.391602
v 27.112305 -28.277346 7.391602
v 17.459473 -20.791992 7.391602
v 27.112305 -20.791992 7.391602
v -17.446167 -24.282227 -7.391602
v -27.098755 -28.277344 -7.391602
v 0.006714 -55.371094 -7.391602
v 0.006714 -41.720703 -7.391602
v -17.446167 -20.791992 -7.391602
v -27.098755 -20.791992 -7.391602
v 17.459473 -24.282227 -7.391602
v 27.112305 -28.277344 -7.391602
v 27.112305 -20.791992 -7.391602
v 17.459473 -20.791992 -7.391602
v 20.840820 -34.545898 7.391602
v 2.821655 -52.557617 7.391602
v 9.041992 -38.337891 7.391602
v 7.873779 -47.507813 2.240234
v -0.006958 49.130859 7.391602
v 4.862793 50.503906 7.391602
v -3.829834 51.549805 7.391602
v -34.212158 18.993162 7.391602
v -47.356445 13.425782 7.391602
v -39.513672 13.500001 7.391602
v 18.976074 9.345704 7.391602
v 30.831787 14.202149 7.391602
v 28.871338 9.345702 2.083008
v -21.162720 -7.672852 7.391602
v -27.098755 -7.672852 0.881836
vt 0.026058 0.511781
vt 0.026058 0.511781
vt 0.026058 0.511781
vt 0.026058 0.511781
vt 0.026058 0.511781
vt 0.026058 0.511781
vt 0.026058 0.511781
vt 0.026058 0.511781
vt 0.026058 0.511781
vt 0.026058 0.511781
vt 0.026058 0.511781
vt 0.026058 0.511781
vt 0.026058 0.511781
vt 0.026058 0.511781
vt 0.026058 0.511781
vt 0.009277 0.508654
vt 0.009277 0.508654
vt 0.009277 0.508654
vt 0.009277 0.508654
vt 0.009277 0.508654
vt 0.009277 0.508654
vt 0.009277 0.508654
vt 0.009277 0.508654
vt 0.009277 0.508654
vt 0.009277 0.508654
vt 0.009277 0.508654
vt 0.009277 0.508654
vt 0.009277 0.508654
vt 0.009277 0.508654
vt 0.009277 0.508654
vt 0.009277 0.508654
vt 0.009277 0.508654
vt 0.009277 0.508654
vt 0.009277 0.508654
vt 0.009277 0.508654
vt 0.009277 0.508654
vt 0.009277 0.508654
vt 0.009277 0.508654
vt 0.009277 0.508654
vt 0.009277 0.508654
vt 0.009277 0.508654
vt 0.009277 0.508655
vt 0.009277 0.508654
vt 0.009277 0.508654
vt 0.009277 0.508654
vt 0.026058 0.511781
vt 0.026058 0.511781
vt 0.026058 0.511781
vt 0.026058 0.511781
vt 0.026058 0.511781
vt 0.026058 0.511781
vt 0.026058 0.511781
vt 0.026058 0.511781
vt 0.026058 0.511781
vt 0.026058 0.511781
vt 0.026058 0.511781
vt 0.026058 0.511781
vt 0.026058 0.511781
vt 0.026058 0.511781
vt 0.026058 0.511781
vt 0.009277 0.508654
vt 0.009277 0.508654
vt 0.009277 0.508654
vt 0.009277 0.508654
vt 0.009277 0.508654
vt 0.009277 0.508654
vt 0.009277 0.508654
vt 0.009277 0.508654
vt 0.009277 0.508654
vt 0.009277 0.508654
vt 0.009277 0.508654
vt 0.009277 0.508654
vt 0.009277 0.508654
vt 0.009277 0.508654
vt 0.009277 0.508654
vt 0.009277 0.508654
vt 0.009277 0.508654
vt 0.009277 0.508654
vt 0.009277 0.508654
vt 0.009277 0.508654
vt 0.009277 0.508654
vt 0.009277 0.508654
vt 0.009277 0.508654
vt 0.009277 0.508654
vt 0.009277 0.508654
vt 0.009277 0.508654
vt 0.009277 0.508654
vt 0.009277 0.508654
vt 0.009277 0.508654
vt 0.009277 0.508654
vt 0.026058 0.511781
vt 0.026058 0.511781
vt 0.026058 0.511781
vt 0.026058 0.511781
vt 0.026058 0.511781
vt 0.026058 0.511781
vt 0.026058 0.511781
vt 0.026058 0.511781
vt 0.026058 0.511781
vt 0.026058 0.511781
vt 0.026058 0.511781
vt 0.026058 0.511781
vt 0.009277 0.508654
vt 0.009277 0.508654
vt 0.009277 0.508654
vt 0.009277 0.508654
vt 0.009277 0.508654
vt 0.009277 0.508654
vt 0.009277 0.508654
vt 0.009277 0.508654
vt 0.009277 0.508654
vt 0.009277 0.508654
vt 0.009277 0.508654
vt 0.009277 0.508654
vt 0.009277 0.508654
vt 0.009277 0.508654
vt 0.009277 0.508654
vt 0.009277 0.508654
vt 0.009277 0.508654
vt 0.009277 0.508654
vt 0.009277 0.508654
vt 0.009277 0.508654
vt 0.009277 0.508654
vt 0.009277 0.508654
vt 0.009277 0.508654
vt 0.009277 0.508654
vt 0.026058 0.511781
vt 0.026058 0.511781
vt 0.026058 0.511781
vt 0.009277 0.508654
vt 0.009277 0.508655
vt 0.009277 0.508654
vt 0.009277 0.508654
vt 0.009277 0.508654
vt 0.009277 0.508654
vt 0.026058 0.511781
vt 0.026058 0.511781
vt 0.026058 0.511781
vt 0.026058 0.511781
vt 0.009277 0.508654
vt 0.009277 0.508654
vt 0.009277 0.508654
vt 0.009277 0.508654
vt 0.009277 0.508654
vt 0.009277 0.508654
vt 0.009277 0.508654
vt 0.009277 0.508654
vt 0.026058 0.511781
vt 0.026058 0.511781
vt 0.026058 0.511781
vt 0.026058 0.511781
vt 0.026058 0.511781
vt 0.009277 0.508654
vt 0.009277 0.508654
vt 0.009277 0.508654
vt 0.009277 0.508654
vt 0.009277 0.508654
vt 0.009277 0.508654
vt 0.009277 0.508654
vt 0.026058 0.511781
vt 0.026058 0.511781
vt 0.026058 0.511781
vt 0.009277 0.508654
vt 0.009277 0.508654
vt 0.009277 0.508654
vt 0.009277 0.508654
vt 0.009277 0.508654
vt 0.009277 0.508654
vt 0.026058 0.511781
vt 0.026058 0.511781
vt 0.026058 0.511781
vt 0.026058 0.511781
vt 0.026058 0.511781
vt 0.026058 0.511781
vt 0.026058 0.511781
vt 0.026058 0.511781
vt 0.026058 0.511781
vt 0.026058 0.511781
vt 0.026058 0.511781
vt 0.026058 0.511781
vt 0.009277 0.508654
vt 0.009277 0.508654
vt 0.009277 0.508654
vt 0.009277 0.508654
vt 0.009277 0.508654
vt 0.009277 0.508654
vt 0.009277 0.508655
vt 0.009277 0.508654
vt 0.009277 0.508654
vt 0.009277 0.508654
vt 0.009277 0.508654
vt 0.009277 0.508654
vt 0.009277 0.508654
vt 0.009277 0.508655
vt 0.009277 0.508654
vt 0.009277 0.508654
vt 0.009277 0.508654
vt 0.009277 0.508655
vt 0.009277 0.508654
vt 0.009277 0.508654
vt 0.026058 0.511781
vt 0.026058 0.511781
vt 0.026058 0.511781
vt 0.026058 0.511781
vt 0.026058 0.511781
vt 0.026058 0.511781
vt 0.026058 0.511781
vt 0.026058 0.511781
vt 0.026058 0.511781
vt 0.026058 0.511781
vt 0.026058 0.511781
vt 0.026058 0.511781
vt 0.026058 0.511781
vt 0.026058 0.511781
vt 0.026058 0.511781
vt 0.026058 0.511781
vt 0.026058 0.511781
vn -0.000000 0.000000 1.000000
vn -0.000000 0.000000 1.000000
vn -0.000000 0.000000 1.000000
vn -0.000000 0.000000 1.000000
vn 0.000000 0.000000 1.000000
vn 0.000000 0.000000 1.000000
vn 0.000000 0.000000 1.000000
vn 0.000000 0.000000 1.000000
vn 0.000000 0.000000 1.000000
vn 0.000000 0.000000 1.000000
vn 0.000000 0.000000 1.000000
vn -0.000000 0.000000 1.000000
vn -0.000000 0.000000 1.000000
vn -0.000000 0.000000 1.000000
vn -0.000000 0.000000 1.000000
vn 0.000000 0.000000 1.000000
vn 0.000000 0.000000 1.000000
vn 0.000000 0.000000 1.000000
vn 0.000000 0.000000 1.000000
vn 0.000000 0.000000 1.000000
vn 0.000000 0.000000 1.000000
vn -0.000000 0.000000 1.000000
vn -0.000000 0.000000 1.000000
vn -0.000000 0.000000 1.000000
vn -0.000000 0.000000 1.000000
vn -0.707157 -0.707057 0.000000
vn -0.707157 -0.707057 0.000000
vn -0.707157 -0.707057 0.000000
vn -0.707157 -0.707057 0.000000
vn 0.707160 0.707053 0.000000
vn 0.707160 0.707053 0.000000
vn 0.707160 0.707053 0.000000
vn 0.707160 0.707053 0.000000
vn -0.707176 0.707037 0.000000
vn -0.707176 0.707037 0.000000
vn -0.707176 0.707037 0.000000
vn -0.707176 0.707037 0.000000
vn 0.000000 -1.000000 0.000000
vn 0.000000 -1.000000 0.000000
vn 0.000000 -1.000000 0.000000
vn 0.000000 -1.000000 0.000000
vn 0.000000 1.000000 -0.000000
vn 0.000000 1.000000 -0.000000
vn 0.000000 1.000000 -0.000000
vn 0.000000 1.000000 -0.000000
vn -0.707107 0.707107 0.000000
vn -0.707107 0.707107 0.000000
vn -0.707107 0.707107 0.000000
vn -0.707107 0.707107 0.000000
vn -0.706999 -0.707214 -0.000000
vn -0.706999 -0.707214 -0.000000
vn -0.706999 -0.707214 -0.000000
vn -0.706999 -0.707214 -0.000000
vn 0.707116 0.707098 0.000000
vn 0.707116 0.707098 0.000000
vn 0.707116 0.707098 0.000000
vn 0.707116 0.707098 0.000000
vn -0.707125 -0.707088 -0.000000
vn -0.707125 -0.707088 -0.000000
vn -0.707125 -0.707088 -0.000000
vn -0.707125 -0.707088 -0.000000
vn 0.000000 -1.000000 -0.000000
vn 0.000000 -1.000000 -0.000000
vn 0.000000 -1.000000 -0.000000
vn 0.000000 -1.000000 -0.000000
vn 0.000000 -1.000000 -0.000000
vn 0.000000 -1.000000 -0.000000
vn 0.000000 1.000000 0.000000
vn 0.000000 1.000000 0.000000
vn 0.000000 1.000000 0.000000
vn 0.000000 1.000000 0.000000
vn 0.707152 -0.707061 0.000000
vn 0.707152 -0.707061 0.000000
vn 0.707152 -0.707061 0.000000
vn 0.707152 -0.707061 0.000000
vn -0.707753 0.706460 -0.000000
vn -0.707753 0.706460 -0.000000
vn -0.707753 0.706460 -0.000000
vn -0.707753 0.706460 -0.000000
vn -0.000000 0.000000 1.000000
vn -0.000000 0.000000 1.000000
vn -0.000000 0.000000 1.000000
vn -0.000000 0.000000 1.000000
vn -0.573126 0.553130 0.604626
vn -0.573126 0.553130 0.604627
vn -0.573126 0.553130 0.604627
vn 0.000000 0.000000 1.000000
vn 0.000000 0.000000 1.000000
vn 0.000000 0.000000 1.000000
vn 0.000000 0.000000 1.000000
vn 0.000000 0.000000 1.000000
vn 0.000000 0.000000 1.000000
vn 0.000000 0.000000 1.000000
vn 0.000000 0.000000 1.000000
vn 0.000000 0.000000 1.000000
vn 0.000000 0.000000 1.000000
vn 0.000000 0.000000 1.000000
vn -0.007506 0.793156 0.608973
vn -0.007506 0.793156 0.608973
vn -0.007506 0.793156 0.608973
vn 0.707120 0.707093 0.000000
vn 0.707120 0.707093 0.000000
vn 0.707120 0.707093 0.000000
vn 0.707120 0.707093 0.000000
vn -0.707142 -0.707072 -0.000000
vn -0.707142 -0.707072 -0.000000
vn -0.707142 -0.707072 -0.000000
vn -0.707142 -0.707072 -0.000000
vn 0.707176 -0.707037 -0.000000
vn 0.707176 -0.707037 -0.000000
vn 0.707176 -0.707037 -0.000000
vn 0.707176 -0.707037 -0.000000
vn 0.000000 -1.000000 -0.000000
vn 0.000000 -1.000000 -0.000000
vn 0.000000 -1.000000 -0.000000
vn 0.000000 -1.000000 -0.000000
vn 0.707092 -0.707122 0.000000
vn 0.707092 -0.707122 0.000000
vn 0.707092 -0.707122 0.000000
vn 0.707092 -0.707122 0.000000
vn 0.707056 0.707157 0.000000
vn 0.707056 0.707157 0.000000
vn 0.707056 0.707157 0.000000
vn 0.707056 0.707157 0.000000
vn -0.707161 -0.707052 0.000000
vn -0.707161 -0.707052 0.000000
vn -0.707161 -0.707052 0.000000
vn -0.707161 -0.707052 0.000000
vn 0.707171 0.707042 -0.000000
vn 0.707172 0.707042 -0.000000
vn 0.707171 0.707042 -0.000000
vn 0.707171 0.707042 -0.000000
vn 0.000000 1.000000 -0.000000
vn 0.000000 1.000000 -0.000000
vn 0.000000 1.000000 -0.000000
vn 0.000000 1.000000 -0.000000
vn 0.000000 -1.000000 0.000000
vn 0.000000 -1.000000 0.000000
vn 0.000000 -1.000000 0.000000
vn 0.000000 -1.000000 0.000000
vn 0.707725 -0.706488 -0.000000
vn 0.707725 -0.706488 -0.000000
vn 0.707725 -0.706488 -0.000000
vn 0.707725 -0.706488 -0.000000
vn -0.218584 0.775246 0.592634
vn -0.218584 0.775246 0.592634
vn -0.218584 0.775246 0.592634
vn 0.000000 0.000000 1.000000
vn 0.000000 0.000000 1.000000
vn 0.000000 0.000000 1.000000
vn 0.000000 0.000000 1.000000
vn 0.449141 0.709817 0.542617
vn 0.449140 0.709817 0.542617
vn 0.449140 0.709817 0.542617
vn 0.000000 0.000000 1.000000
vn 0.000000 0.000000 1.000000
vn 0.000000 0.000000 1.000000
vn 0.000000 0.000000 1.000000
vn -0.706832 -0.707381 0.000000
vn -0.706832 -0.707381 0.000000
vn -0.706832 -0.707381 0.000000
vn -0.706832 -0.707381 0.000000
vn -1.000000 0.000000 0.000000
vn -1.000000 0.000000 0.000000
vn -1.000000 0.000000 0.000000
vn -1.000000 0.000000 0.000000
vn 0.000000 -1.000000 -0.000000
vn 0.000000 -1.000000 -0.000000
vn 0.000000 -1.000000 -0.000000
vn 0.000000 -1.000000 -0.000000
vn 1.000000 0.000000 0.000000
vn 1.000000 0.000000 0.000000
vn 1.000000 0.000000 0.000000
vn 1.000000 0.000000 0.000000
vn 0.706837 -0.707376 0.000000
vn 0.706837 -0.707376 0.000000
vn 0.706837 -0.707376 0.000000
vn 0.706837 -0.707376 0.000000
vn -1.000000 0.000000 0.000000
vn -1.000000 0.000000 0.000000
vn -1.000000 0.000000 0.000000
vn -1.000000 0.000000 0.000000
vn 0.000000 -1.000000 -0.000000
vn 0.000000 -1.000000 -0.000000
vn 0.000000 -1.000000 -0.000000
vn 0.000000 -1.000000 -0.000000
vn 1.000000 0.000000 0.000000
vn 1.000000 0.000000 0.000000
vn 1.000000 0.000000 0.000000
vn 1.000000 0.000000 0.000000
vn 0.000000 0.000000 1.000000
vn 0.000000 0.000000 1.000000
vn 0.000000 0.000000 1.000000
vn 0.706952 -0.707262 0.000000
vn 0.706952 -0.707262 0.000000
vn 0.706952 -0.707262 0.000000
vn 0.706952 -0.707262 0.000000
vn 0.000000 1.000000 0.000000
vn 0.000000 1.000000 0.000000
vn 0.000000 1.000000 0.000000
vn 0.000000 1.000000 0.000000
vn -0.706952 -0.707262 0.000000
vn -0.706952 -0.707262 0.000000
vn -0.706952 -0.707262 0.000000
vn -0.706952 -0.707262 0.000000
vn 0.000000 0.000000 1.000000
vn 0.000000 0.000000 1.000000
vn 0.000000 0.000000 1.000000
vn 0.000000 0.000000 1.000000
vn 0.000000 1.000000 0.000000
vn 0.000000 1.000000 0.000000
vn 0.000000 1.000000 0.000000
vn 0.000000 1.000000 0.000000
vn -1.000000 0.000000 0.000000
vn -1.000000 0.000000 0.000000
vn -1.000000 0.000000 0.000000
vn -1.000000 0.000000 0.000000
vn 0.000000 -1.000000 0.000000
vn 0.000000 -1.000000 0.000000
vn 0.000000 -1.000000 0.000000
vn 0.000000 -1.000000 0.000000
vn 1.000000 0.000000 0.000000
vn 1.000000 0.000000 0.000000
vn 1.000000 0.000000 0.000000
vn 1.000000 0.000000 0.000000
vn 0.000000 0.000000 1.000000
vn 0.000000 0.000000 1.000000
vn 0.000000 0.000000 1.000000
vn 0.000000 0.000000 1.000000
vn 0.000000 0.000000 1.000000
vn -0.000000 -1.000000 -0.000000
vn -0.000000 -1.000000 -0.000000
vn -0.000000 -1.000000 -0.000000
vn -0.000000 -1.000000 -0.000000
vn -0.000000 -1.000000 -0.000000
vn 1.000000 0.000000 0.000000
vn 1.000000 0.000000 0.000000
vn 1.000000 0.000000 0.000000
vn 1.000000 0.000000 0.000000
vn 0.000000 1.000000 0.000000
vn 0.000000 1.000000 0.000000
vn 0.000000 1.000000 0.000000
vn 0.000000 1.000000 0.000000
vn -1.000000 0.000000 0.000000
vn -1.000000 0.000000 0.000000
vn -1.000000 0.000000 0.000000
vn -1.000000 0.000000 0.000000
vn -1.000000 0.000000 0.000000
vn 0.000000 0.000000 1.000000
vn 0.000000 0.000000 1.000000
vn 0.000000 0.000000 1.000000
vn -0.706987 0.707226 0.000000
vn -0.706987 0.707226 0.000000
vn -0.706987 0.707226 0.000000
vn -0.706987 0.707226 0.000000
vn 0.000000 -1.000000 -0.000000
vn 0.000000 -1.000000 -0.000000
vn 0.000000 -1.000000 -0.000000
vn 0.000000 -1.000000 -0.000000
vn 0.706979 0.707234 0.000000
vn 0.706979 0.707234 0.000000
vn 0.706979 0.707234 0.000000
vn 0.706979 0.707234 0.000000
vn 0.000000 0.000000 1.000000
vn 0.000000 0.000000 1.000000
vn 0.000000 0.000000 1.000000
vn 0.000000 0.000000 1.000000
vn 0.000000 0.000000 1.000000
vn 0.000000 0.000000 1.000000
vn 0.000000 0.000000 1.000000
vn 0.000000 0.000000 1.000000
vn -0.000000 0.000000 1.000000
vn -0.000000 0.000000 1.000000
vn -0.000000 0.000000 1.000000
vn -0.000000 0.000000 1.000000
vn -0.000000 0.000000 1.000000
vn -0.000000 0.000000 1.000000
vn -0.000000 0.000000 1.000000
vn 0.000000 0.000000 1.000000
vn 0.000000 0.000000 1.000000
vn 0.000000 0.000000 1.000000
vn 0.000000 0.000000 1.000000
vn -0.706954 -0.707260 0.000000
vn -0.706954 -0.707260 0.000000
vn -0.706954 -0.707260 0.000000
vn -0.706954 -0.707260 0.000000
vn 0.706815 0.707399 0.000000
vn 0.706815 0.707399 0.000000
vn 0.706815 0.707399 0.000000
vn 0.706815 0.707399 0.000000
vn 1.000000 0.000000 0.000000
vn 1.000000 0.000000 0.000000
vn 1.000000 0.000000 0.000000
vn 1.000000 0.000000 0.000000
vn 0.000000 1.000000 0.000000
vn 0.000000 1.000000 0.000000
vn 0.000000 1.000000 0.000000
vn 0.000000 1.000000 0.000000
vn -1.000000 0.000000 0.000000
vn -1.000000 0.000000 0.000000
vn -1.000000 0.000000 0.000000
vn -1.000000 0.000000 0.000000
vn -0.706817 0.707396 0.000000
vn -0.706817 0.707396 0.000000
vn -0.706817 0.707396 0.000000
vn -0.706817 0.707396 0.000000
vn 0.706951 -0.707262 -0.000004
vn 0.706951 -0.707262 -0.000004
vn 0.706951 -0.707262 -0.000004
vn 0.706951 -0.707262 -0.000004
vn 0.706951 -0.707262 -0.000004
vn 0.706951 -0.707262 -0.000004
vn 0.706951 -0.707262 -0.000004
vn 1.000000 0.000000 0.000000
vn 1.000000 0.000000 0.000000
vn 1.000000 0.000000 0.000000
vn 1.000000 0.000000 0.000000
vn 0.000000 1.000000 0.000000
vn 0.000000 1.000000 0.000000
vn 0.000000 1.000000 0.000000
vn 0.000000 1.000000 0.000000
vn -1.000000 0.000000 0.000000
vn -1.000000 0.000000 0.000000
vn -1.000000 0.000000 0.000000
vn -1.000000 0.000000 0.000000
vn 0.817596 -0.357653 0.451244
vn 0.817596 -0.357653 0.451244
vn 0.817596 -0.357653 0.451244
vn 0.160336 -0.498888 0.851706
vn 0.160336 -0.498888 0.851706
vn 0.160336 -0.498888 0.851706
vn 0.000000 0.000000 1.000000
vn 0.000000 0.000000 1.000000
vn 0.000000 0.000000 1.000000
vn 0.000000 0.000000 1.000000
vn 0.000000 0.000000 1.000000
vn 0.706954 0.707260 -0.000011
vn 0.706954 0.707260 -0.000011
vn 0.706954 0.707260 -0.000011
vn 0.706954 0.707260 -0.000011
vn 0.706954 0.707260 -0.000011
vn -0.706959 0.707255 0.000000
vn -0.706959 0.707255 0.000000
vn -0.706959 0.707255 0.000000
vn -0.706959 0.707255 0.000000
vn -0.706959 0.707255 0.000000
vn -0.000000 0.000000 1.000000
vn -0.000000 0.000000 1.000000
vn -0.000000 0.000000 1.000000
vn -0.000000 0.000000 1.000000
vn -0.000000 0.000000 1.000000
vn 0.000000 1.000000 0.000000
vn 0.000000 1.000000 0.000000
vn 0.000000 1.000000 0.000000
vn 0.000000 1.000000 0.000000
vn 0.000000 1.000000 0.000000
vn -0.707124 0.707090 0.000005
vn -0.707124 0.707090 0.000005
vn -0.707124 0.707090 0.000005
vn -0.707124 0.707089 0.000005
vn -0.707124 0.707089 0.000005
vn 0.000000 0.000000 1.000000
vn 0.000000 0.000000 1.000000
vn 0.000000 0.000000 1.000000
vn 0.000000 0.000000 1.000000
vn 0.000000 0.000000 1.000000
vn 0.000000 0.000000 1.000000
vn 0.000000 0.000000 1.000000
vn 0.000000 0.000000 1.000000
vn 0.000000 0.000000 1.000000
vn 0.000000 0.000000 1.000000
vn 0.309579 -0.755754 0.577058
vn 0.309579 -0.755755 0.577058
vn 0.309579 -0.755755 0.577058
vn -0.412458 -0.591152 0.693122
vn -0.412459 -0.591152 0.693122
vn -0.412458 -0.591152 0.693122
vn -0.647995 -0.480580 0.590885
vn -0.647995 -0.480580 0.590885
vn -0.647995 -0.480580 0.590885
s off
f 2/1/1 1/2/2 6/3/3 5/4/4
f 6/3/5 1/2/6 10/5/7 11/6/8
f 3/7/9 7/8/10 4/9/11
f 13/10/12 9/11/13 8/12/14 12/13/15
f 4/9/16 131/207/17 132/205/18 12/13/19 8/12/20 3/7/21
f 11/6/22 10/5/23 9/14/24 13/15/25
f 2/16/26 14/17/27 15/18/28 1/19/29
f 6/20/30 16/21/31 17/22/32 5/23/33
f 5/23/34 17/22/35 14/17/36 2/16/37
f 1/19/38 15/18/39 18/24/40 10/25/41
f 11/26/42 19/27/43 16/21/44 6/20/45
f 3/28/46 20/29/47 21/30/48 7/31/49
f 7/31/50 21/30/51 22/32/52 4/33/53
f 9/34/54 24/35/55 25/36/56 8/37/57
f 12/38/58 26/39/59 23/40/60 13/41/61
f 4/33/62 22/32/63 26/39/64 12/38/65 133/42/66 131/43/67
f 8/37/68 25/36/69 20/29/70 3/28/71
f 10/25/72 18/24/73 24/35/74 9/34/75
f 13/41/76 23/40/77 19/27/78 11/26/79
f 28/46/80 27/47/81 32/48/82 31/49/83
f 130/210/84 128/216/85 36/50/86
f 29/52/87 33/53/88 30/54/89
f 39/55/90 35/56/91 34/57/92 38/58/93
f 30/54/94 38/58/95 34/57/96 29/52/97
f 129/215/98 130/210/99 36/50/100
f 28/44/101 40/45/102 41/61/103 27/62/104
f 32/63/105 42/64/106 43/65/107 31/66/108
f 31/66/109 43/65/110 40/45/111 28/44/112
f 37/67/113 45/68/114 42/64/115 32/63/116
f 29/69/117 46/70/118 47/71/119 33/72/120
f 33/72/121 47/71/122 48/73/123 30/74/124
f 35/75/125 50/76/126 51/77/127 34/78/128
f 38/79/129 52/80/130 49/81/131 39/82/132
f 30/74/133 48/73/134 52/80/135 38/79/136
f 34/78/137 51/77/138 46/70/139 29/69/140
f 39/82/141 49/81/142 45/68/143 37/67/144
f 125/213/145 126/214/146 53/93/147
f 56/92/148 54/91/149 57/95/150 58/96/151
f 127/217/152 125/212/153 53/99/154
f 60/100/155 62/101/156 61/102/157 59/97/158
f 55/83/159 66/84/160 63/85/161 54/86/162
f 54/86/163 63/85/164 67/87/165 57/88/166
f 57/88/167 67/87/168 68/89/169 58/90/170
f 58/90/171 68/89/172 64/103/173 56/104/174
f 59/105/175 69/106/176 66/84/177 55/83/178
f 60/107/179 70/108/180 71/109/181 62/110/182
f 62/110/183 71/109/184 72/111/185 61/112/186
f 61/112/187 72/111/188 69/106/189 59/105/190
f 73/127/191 75/128/192 74/129/193
f 73/113/194 77/114/195 76/115/196 75/116/197
f 75/116/198 76/115/199 78/117/200 74/118/201
f 74/118/202 78/117/203 77/114/204 73/113/205
f 80/136/206 79/137/207 81/138/208 82/139/209
f 80/119/210 84/120/211 83/121/212 79/122/213
f 79/122/214 83/121/215 85/123/216 81/124/217
f 81/124/218 85/123/219 86/125/220 82/126/221
f 82/126/222 86/125/223 84/120/224 80/119/225
f 88/148/226 134/202/227 87/149/228 89/150/229 90/151/230
f 134/130/231 135/131/232 92/132/233 91/133/234 87/134/235
f 87/134/236 91/133/237 93/135/238 89/140/239
f 89/140/240 93/135/241 94/141/242 90/142/243
f 90/142/244 94/141/245 92/132/246 135/131/247 88/143/248
f 95/160/249 97/161/250 96/162/251
f 95/144/252 99/145/253 98/146/254 97/147/255
f 97/147/256 98/146/257 100/153/258 96/154/259
f 96/154/260 100/153/261 99/145/262 95/144/263
f 102/169/264 104/170/265 101/171/266 103/172/267
f 104/170/268 102/169/269 105/173/270 106/174/271
f 107/175/272 103/176/273 101/177/274 122/208/275 123/209/276 121/206/277 108/178/278
f 108/178/279 110/179/280 109/180/281 107/175/282
f 104/155/283 112/156/284 113/157/285 101/158/286
f 103/159/287 114/163/288 111/164/289 102/165/290
f 102/165/291 111/164/292 115/166/293 105/167/294
f 105/167/295 115/166/296 116/168/297 106/181/298
f 106/181/299 116/168/300 112/156/301 104/155/302
f 107/182/303 117/183/304 114/163/305 103/159/306
f 101/158/307 113/157/308 118/184/309 108/185/310 121/186/311 124/187/312 122/188/313
f 108/185/314 118/184/315 119/189/316 110/190/317
f 110/190/318 119/189/319 120/191/320 109/192/321
f 109/192/322 120/191/323 117/183/324 107/182/325
f 124/211/326 123/209/327 122/208/328
f 121/206/329 123/209/330 124/211/331
f 54/91/332 56/92/333 126/214/334 125/213/335 55/94/336
f 56/104/337 64/103/338 65/193/339 53/194/340 126/195/341
f 127/196/342 53/194/343 65/193/344 70/108/345 60/107/346
f 59/97/347 55/98/348 125/212/349 127/217/350 60/100/351
f 27/62/352 41/61/353 44/197/354 36/198/355 128/199/356
f 129/200/357 36/198/358 44/197/359 50/76/360 35/75/361
f 37/51/362 130/210/363 129/215/364 35/59/365 39/60/366
f 32/48/367 27/47/368 128/216/369 130/210/370 37/51/371
f 133/204/372 132/205/373 131/207/374
f 12/13/375 132/205/376 133/204/377
f 88/152/378 135/201/379 134/203/380
