# This file uses centimeters as units for non-parametric coordinates.

v 4.766357 -23.827148 7.391602
v 8.424316 -42.556641 7.391602
v -4.764404 -23.827148 7.391602
v -8.420166 -42.556641 7.391602
v 4.766357 -23.827148 -7.391602
v -4.764404 -23.827148 -7.391602
v -8.420166 -42.556641 -7.391602
v 8.424316 -42.556641 -7.391602
v 33.358643 -14.297853 7.391602
v 33.358643 -33.358398 7.391602
v 23.827393 -14.297853 7.391602
v 23.827881 -23.827148 7.391602
v 14.296387 -33.358398 7.391602
v 14.296387 -23.827148 7.391602
v 33.358643 -14.297852 -7.391602
v 23.827393 -14.297852 -7.391602
v 23.827881 -23.827148 -7.391602
v 33.358643 -33.358398 -7.391602
v 14.296387 -23.827148 -7.391602
v 14.296387 -33.358398 -7.391602
v 19.062500 19.061523 7.391602
v 9.530518 9.531250 7.391602
v -19.061523 19.061523 7.391602
v -9.530029 9.531250 7.391602
v -9.530029 -9.531251 7.391602
v -19.061523 -19.061523 7.391602
v 9.530518 -9.531251 7.391602
v 19.062500 -19.061523 7.391602
v 19.062500 19.061522 -7.391602
v -19.061523 19.061522 -7.391602
v -9.530029 9.531248 -7.391602
v 9.530518 9.531248 -7.391602
v -19.061523 -19.061523 -7.391602
v -9.530029 -9.531250 -7.391602
v 9.530518 -9.531250 -7.391602
v 19.062500 -19.061523 -7.391602
v 33.358643 33.359375 7.391602
v 14.296387 33.359375 7.391602
v 23.827881 23.827148 7.391602
v 14.296387 23.827148 7.391602
v 33.358643 14.296875 7.391602
v 23.827393 14.296875 7.391602
v 33.358643 33.359375 -7.391602
v 14.296387 33.359375 -7.391602
v 23.827881 23.827147 -7.391602
v 14.296387 23.827147 -7.391602
v 23.827393 14.296873 -7.391602
v 33.358643 14.296873 -7.391602
v 42.556152 8.421875 7.391602
v 42.556152 -8.420898 1.398438
v 23.827393 4.765625 7.391602
v 23.827393 -4.765625 7.391602
v 42.556152 8.421873 -7.391602
v 23.827393 4.765623 -7.391602
v 23.827393 -4.765625 -7.391602
v 42.556152 -8.420898 -7.391602
v 8.424316 42.556641 7.391602
v 4.766357 23.827148 7.391602
v -8.421143 42.556641 7.391602
v -4.765381 23.827148 7.391602
v 8.424316 42.556641 -7.391602
v -8.421143 42.556641 -7.391602
v -4.765381 23.827147 -7.391602
v 4.766357 23.827147 -7.391602
v -23.827393 -14.297853 7.391602
v -23.827393 -23.827148 7.391602
v -33.358643 -14.297853 7.391602
v -33.358643 -33.358398 7.391602
v -14.295410 -23.827148 7.391602
v -14.295410 -33.358398 7.391602
v -23.827393 -14.297852 -7.391602
v -33.358643 -14.297852 -7.391602
v -33.358643 -33.358398 -7.391602
v -23.827393 -23.827148 -7.391602
v -14.295410 -23.827148 -7.391602
v -14.295410 -33.358398 -7.391602
v -14.295410 33.359375 7.391602
v -14.295410 23.827148 7.391602
v -33.358643 33.359375 7.391602
v -23.827393 23.827148 7.391602
v -23.827393 14.296875 7.391602
v -33.358643 14.296875 7.391602
v -14.295410 33.359375 -7.391602
v -33.358643 33.359375 -7.391602
v -23.827393 23.827147 -7.391602
v -14.295410 23.827147 -7.391602
v -33.358643 14.296873 -7.391602
v -23.827393 14.296873 -7.391602
v -23.827393 4.765625 7.391602
v -23.827393 -4.765625 7.391602
v -42.556152 8.421875 7.391602
v -42.556152 -8.420898 7.391602
v -23.827393 4.765627 -7.391602
v -42.556152 8.421877 -7.391602
v -42.556152 -8.420898 -7.391602
v -23.827393 -4.765625 -7.391602
v 4.766357 4.765625 7.391602
v 4.766357 -4.765625 7.391602
v -4.764404 4.765625 7.391602
v -4.764404 -4.765625 7.391602
v 4.766357 4.765623 -7.391602
v -4.764404 4.765623 -7.391602
v -4.764404 -4.765625 -7.391602
v 4.766357 -4.765625 -7.391602
v 16.388428 -19.061523 7.391602
v -4.848633 -19.061523 7.391602
v -5.278076 -19.061523 7.391602
v 7.972412 -13.204103 7.391602
v 6.145752 -19.061523 1.244141
v 36.666016 -7.272461 7.391602
v 42.556152 -1.442383 7.391602
v -17.201904 33.359375 7.391602
v -29.405762 33.359375 7.391602
v -23.414795 28.072266 7.391602
v -22.637207 33.359375 2.083984
vt 0.026058 0.511781
vt 0.026058 0.511781
vt 0.026058 0.511781
vt 0.026058 0.511781
vt 0.009277 0.508654
vt 0.009277 0.508654
vt 0.009277 0.508654
vt 0.009277 0.508654
vt 0.009277 0.508654
vt 0.009277 0.508654
vt 0.009277 0.508654
vt 0.009277 0.508654
vt 0.026058 0.511781
vt 0.026058 0.511781
vt 0.026058 0.511781
vt 0.026058 0.511781
vt 0.026058 0.511781
vt 0.026058 0.511781
vt 0.026058 0.511781
vt 0.026058 0.511781
vt 0.026058 0.511781
vt 0.026058 0.511781
vt 0.009277 0.508654
vt 0.009277 0.508654
vt 0.009277 0.508654
vt 0.009277 0.508654
vt 0.009277 0.508654
vt 0.009277 0.508654
vt 0.009277 0.508654
vt 0.009277 0.508654
vt 0.009277 0.508654
vt 0.009277 0.508654
vt 0.009277 0.508654
vt 0.009277 0.508654
vt 0.009277 0.508654
vt 0.009277 0.508654
vt 0.009277 0.508654
vt 0.009277 0.508654
vt 0.009277 0.508654
vt 0.009277 0.508654
vt 0.026058 0.511781
vt 0.026058 0.511781
vt 0.026058 0.511781
vt 0.026058 0.511781
vt 0.026058 0.511781
vt 0.026058 0.511781
vt 0.026058 0.511781
vt 0.026058 0.511781
vt 0.026058 0.511781
vt 0.026058 0.511781
vt 0.026058 0.511781
vt 0.026058 0.511781
vt 0.026058 0.511781
vt 0.026058 0.511781
vt 0.026058 0.511781
vt 0.026058 0.511781
vt 0.026058 0.511781
vt 0.026058 0.511781
vt 0.009277 0.508654
vt 0.009277 0.508654
vt 0.009277 0.508654
vt 0.009277 0.508654
vt 0.009277 0.508654
vt 0.009277 0.508654
vt 0.009277 0.508654
vt 0.009277 0.508654
vt 0.009277 0.508654
vt 0.009277 0.508654
vt 0.009277 0.508654
vt 0.009277 0.508655
vt 0.009277 0.508654
vt 0.009277 0.508654
vt 0.009277 0.508654
vt 0.009277 0.508654
vt 0.009277 0.508654
vt 0.009277 0.508654
vt 0.009277 0.508654
vt 0.009277 0.508654
vt 0.009277 0.508654
vt 0.009277 0.508654
vt 0.009277 0.508654
vt 0.009277 0.508654
vt 0.009277 0.508654
vt 0.009277 0.508654
vt 0.009277 0.508654
vt 0.009277 0.508654
vt 0.009277 0.508654
vt 0.009277 0.508654
vt 0.009277 0.508654
vt 0.009277 0.508654
vt 0.026058 0.511781
vt 0.026058 0.511781
vt 0.026058 0.511781
vt 0.026058 0.511781
vt 0.026058 0.511781
vt 0.026058 0.511781
vt 0.026058 0.511781
vt 0.026058 0.511781
vt 0.026058 0.511781
vt 0.026058 0.511781
vt 0.009277 0.508655
vt 0.009277 0.508654
vt 0.009277 0.508654
vt 0.009277 0.508654
vt 0.009277 0.508654
vt 0.009277 0.508654
vt 0.009277 0.508654
vt 0.009277 0.508654
vt 0.009277 0.508654
vt 0.009277 0.508654
vt 0.009277 0.508654
vt 0.009277 0.508654
vt 0.009277 0.508654
vt 0.009277 0.508654
vt 0.009277 0.508654
vt 0.009277 0.508654
vt 0.009277 0.508654
vt 0.009277 0.508654
vt 0.026058 0.511781
vt 0.026058 0.511781
vt 0.026058 0.511781
vt 0.026058 0.511781
vt 0.009277 0.508654
vt 0.009277 0.508654
vt 0.009277 0.508654
vt 0.009277 0.508654
vt 0.009277 0.508654
vt 0.009277 0.508654
vt 0.009277 0.508654
vt 0.009277 0.508654
vt 0.026058 0.511781
vt 0.026058 0.511781
vt 0.026058 0.511781
vt 0.026058 0.511781
vt 0.009277 0.508654
vt 0.009277 0.508654
vt 0.009277 0.508655
vt 0.009277 0.508654
vt 0.009277 0.508654
vt 0.009277 0.508654
vt 0.009277 0.508654
vt 0.009277 0.508654
vt 0.026058 0.511781
vt 0.026058 0.511781
vt 0.026058 0.511781
vt 0.026058 0.511781
vt 0.026058 0.511781
vt 0.026058 0.511781
vt 0.026058 0.511781
vt 0.026058 0.511781
vt 0.009277 0.508654
vt 0.009277 0.508654
vt 0.009277 0.508654
vt 0.009277 0.508654
vt 0.009277 0.508654
vt 0.009277 0.508654
vt 0.009277 0.508654
vt 0.009277 0.508654
vt 0.009277 0.508654
vt 0.009277 0.508654
vt 0.009277 0.508654
vt 0.009277 0.508654
vt 0.009277 0.508654
vt 0.009277 0.508654
vt 0.009277 0.508654
vt 0.009277 0.508654
vt 0.026058 0.511781
vt 0.026058 0.511781
vt 0.026058 0.511781
vt 0.026058 0.511781
vt 0.026058 0.511781
vt 0.026058 0.511781
vt 0.026058 0.511781
vt 0.026058 0.511781
vt 0.026058 0.511781
vt 0.026058 0.511781
vt 0.009277 0.508654
vt 0.009277 0.508654
vt 0.009277 0.508654
vt 0.009277 0.508654
vt 0.026058 0.511781
vt 0.026058 0.511781
vt 0.026058 0.511781
vt 0.026058 0.511781
vt 0.026058 0.511781
vt 0.026058 0.511781
vt 0.026058 0.511781
vt 0.026058 0.511781
vt 0.026058 0.511781
vt 0.026058 0.511781
vt 0.026058 0.511781
vt 0.026058 0.511781
vt 0.026058 0.511781
vt 0.026058 0.511781
vt 0.026058 0.511781
vt 0.026058 0.511781
vt 0.026058 0.511781
vt 0.026058 0.511781
vt 0.026058 0.511781
vt 0.026058 0.511781
vt 0.026058 0.511781
vt 0.026058 0.511781
vt 0.026058 0.511781
vn 0.000000 0.000000 1.000000
vn 0.000000 0.000000 1.000000
vn 0.000000 0.000000 1.000000
vn 0.000000 0.000000 1.000000
vn 0.000000 1.000000 0.000000
vn 0.000000 1.000000 0.000000
vn 0.000000 1.000000 0.000000
vn 0.000000 1.000000 0.000000
vn -0.981479 0.191572 0.000000
vn -0.981479 0.191572 0.000000
vn -0.981479 0.191572 0.000000
vn -0.981479 0.191572 0.000000
vn 0.000000 -1.000000 0.000000
vn 0.000000 -1.000000 0.000000
vn 0.000000 -1.000000 0.000000
vn 0.000000 -1.000000 0.000000
vn 0.981457 0.191683 0.000000
vn 0.981457 0.191683 0.000000
vn 0.981457 0.191683 0.000000
vn 0.981457 0.191683 0.000000
vn 0.000000 0.000000 1.000000
vn 0.000000 0.000000 1.000000
vn 0.000000 0.000000 1.000000
vn 0.000000 0.000000 1.000000
vn 0.000000 0.000000 1.000000
vn 0.000000 0.000000 1.000000
vn 0.000000 0.000000 1.000000
vn 0.000000 0.000000 1.000000
vn 0.000000 0.000000 1.000000
vn 0.000000 0.000000 1.000000
vn 0.000000 1.000000 0.000000
vn 0.000000 1.000000 0.000000
vn 0.000000 1.000000 0.000000
vn 0.000000 1.000000 0.000000
vn -1.000000 -0.000051 0.000000
vn -1.000000 -0.000051 0.000000
vn -1.000000 -0.000051 0.000000
vn -1.000000 -0.000051 0.000000
vn 1.000000 0.000000 0.000000
vn 1.000000 0.000000 0.000000
vn 1.000000 0.000000 0.000000
vn 1.000000 0.000000 0.000000
vn 0.000000 1.000000 0.000000
vn 0.000000 1.000000 0.000000
vn 0.000000 1.000000 0.000000
vn 0.000000 1.000000 0.000000
vn -1.000000 0.000000 0.000000
vn -1.000000 0.000000 0.000000
vn -1.000000 0.000000 0.000000
vn -1.000000 0.000000 0.000000
vn 0.000000 -1.000000 0.000000
vn 0.000000 -1.000000 0.000000
vn 0.000000 -1.000000 0.000000
vn 0.000000 -1.000000 0.000000
vn 0.000000 0.000000 1.000000
vn 0.000000 0.000000 1.000000
vn 0.000000 0.000000 1.000000
vn 0.000000 0.000000 1.000000
vn 0.000000 0.000000 1.000000
vn 0.000000 0.000000 1.000000
vn 0.000000 0.000000 1.000000
vn 0.000000 0.000000 1.000000
vn 0.000000 0.000000 1.000000
vn 0.000000 0.000000 1.000000
vn 0.000000 0.000000 1.000000
vn 0.000000 0.000000 1.000000
vn 0.000000 0.000000 1.000000
vn 0.000000 0.000000 1.000000
vn 0.000000 0.000000 1.000000
vn 0.000000 0.000000 1.000000
vn 0.000000 0.000000 1.000000
vn 0.000000 0.000000 1.000000
vn 0.000000 0.000000 1.000000
vn 0.000000 0.000000 1.000000
vn 0.000000 0.000000 1.000000
vn 0.000000 0.000000 1.000000
vn 0.000000 1.000000 -0.000000
vn 0.000000 1.000000 -0.000000
vn 0.000000 1.000000 -0.000000
vn 0.000000 1.000000 -0.000000
vn 0.000000 -1.000000 0.000000
vn 0.000000 -1.000000 0.000000
vn 0.000000 -1.000000 0.000000
vn 0.000000 -1.000000 0.000000
vn 1.000000 0.000000 0.000000
vn 1.000000 0.000000 0.000000
vn 1.000000 0.000000 0.000000
vn 1.000000 0.000000 0.000000
vn -1.000000 0.000000 0.000000
vn -1.000000 0.000000 0.000000
vn -1.000000 0.000000 0.000000
vn -1.000000 0.000000 0.000000
vn 0.000000 1.000000 0.000000
vn 0.000000 1.000000 0.000000
vn 0.000000 1.000000 0.000000
vn 0.000000 1.000000 0.000000
vn 0.000000 -1.000000 0.000000
vn 0.000000 -1.000000 0.000000
vn 0.000000 -1.000000 0.000000
vn 0.000000 -1.000000 0.000000
vn 0.000000 -1.000000 0.000000
vn 0.000000 -1.000000 0.000000
vn 0.000000 -1.000000 0.000000
vn -1.000000 0.000000 0.000000
vn -1.000000 0.000000 0.000000
vn -1.000000 0.000000 0.000000
vn -1.000000 0.000000 0.000000
vn 1.000000 0.000000 0.000000
vn 1.000000 0.000000 0.000000
vn 1.000000 0.000000 0.000000
vn 1.000000 0.000000 0.000000
vn 0.000000 0.000000 1.000000
vn 0.000000 0.000000 1.000000
vn 0.000000 0.000000 1.000000
vn 0.000000 0.000000 1.000000
vn 0.000000 0.000000 1.000000
vn 0.000000 0.000000 1.000000
vn 0.000000 0.000000 1.000000
vn 0.000000 0.000000 1.000000
vn 0.000000 0.000000 1.000000
vn 0.000000 0.000000 1.000000
vn 0.000000 1.000000 0.000000
vn 0.000000 1.000000 0.000000
vn 0.000000 1.000000 0.000000
vn 0.000000 1.000000 0.000000
vn -1.000000 0.000000 0.000000
vn -1.000000 0.000000 0.000000
vn -1.000000 0.000000 0.000000
vn -1.000000 0.000000 0.000000
vn 0.000000 -1.000000 0.000000
vn 0.000000 -1.000000 0.000000
vn 0.000000 -1.000000 0.000000
vn 0.000000 -1.000000 0.000000
vn -1.000000 0.000051 -0.000000
vn -1.000000 0.000051 -0.000000
vn -1.000000 0.000051 -0.000000
vn -1.000000 0.000051 -0.000000
vn 0.000000 -1.000000 0.000000
vn 0.000000 -1.000000 0.000000
vn 0.000000 -1.000000 0.000000
vn 0.000000 -1.000000 0.000000
vn 1.000000 0.000000 0.000000
vn 1.000000 0.000000 0.000000
vn 1.000000 0.000000 0.000000
vn 1.000000 0.000000 0.000000
vn 0.000000 0.000000 1.000000
vn 0.000000 0.000000 1.000000
vn 0.000000 0.000000 1.000000
vn 0.000000 0.000000 1.000000
vn 0.000000 0.000000 1.000000
vn -0.191604 0.981472 -0.000000
vn -0.191604 0.981472 -0.000000
vn -0.191604 0.981472 -0.000000
vn -0.191604 0.981472 -0.000000
vn -1.000000 0.000000 0.000000
vn -1.000000 0.000000 0.000000
vn -1.000000 0.000000 0.000000
vn -1.000000 0.000000 0.000000
vn -0.191567 -0.981480 -0.000040
vn -0.191567 -0.981480 -0.000040
vn -0.191567 -0.981480 -0.000040
vn -0.191567 -0.981479 -0.000040
vn -0.191567 -0.981480 -0.000040
vn 1.000000 0.000000 0.000000
vn 1.000000 0.000000 0.000000
vn 1.000000 0.000000 0.000000
vn 1.000000 0.000000 0.000000
vn 1.000000 0.000000 0.000000
vn 0.000000 0.000000 1.000000
vn 0.000000 0.000000 1.000000
vn 0.000000 0.000000 1.000000
vn 0.000000 0.000000 1.000000
vn 0.000000 1.000000 0.000000
vn 0.000000 1.000000 0.000000
vn 0.000000 1.000000 0.000000
vn 0.000000 1.000000 0.000000
vn -0.981479 -0.191572 0.000000
vn -0.981479 -0.191572 0.000000
vn -0.981479 -0.191572 0.000000
vn -0.981479 -0.191572 0.000000
vn 0.000000 -1.000000 0.000000
vn 0.000000 -1.000000 0.000000
vn 0.000000 -1.000000 0.000000
vn 0.000000 -1.000000 0.000000
vn 0.981457 -0.191683 0.000000
vn 0.981457 -0.191683 0.000000
vn 0.981457 -0.191683 0.000000
vn 0.981457 -0.191683 0.000000
vn 0.000000 0.000000 1.000000
vn 0.000000 0.000000 1.000000
vn 0.000000 0.000000 1.000000
vn 0.000000 0.000000 1.000000
vn 0.000000 0.000000 1.000000
vn 0.000000 0.000000 1.000000
vn 0.000000 0.000000 1.000000
vn 0.000000 0.000000 1.000000
vn 0.000000 1.000000 0.000000
vn 0.000000 1.000000 0.000000
vn 0.000000 1.000000 0.000000
vn 0.000000 1.000000 0.000000
vn -1.000000 0.000000 0.000000
vn -1.000000 0.000000 0.000000
vn -1.000000 0.000000 0.000000
vn -1.000000 0.000000 0.000000
vn 1.000000 0.000000 0.000000
vn 1.000000 0.000000 0.000000
vn 1.000000 0.000000 0.000000
vn 1.000000 0.000000 0.000000
vn 0.000000 1.000000 0.000000
vn 0.000000 1.000000 0.000000
vn 0.000000 1.000000 0.000000
vn 0.000000 1.000000 0.000000
vn 0.000000 -1.000000 0.000000
vn 0.000000 -1.000000 0.000000
vn 0.000000 -1.000000 0.000000
vn 0.000000 -1.000000 0.000000
vn 1.000000 0.000000 0.000000
vn 1.000000 0.000000 0.000000
vn 1.000000 0.000000 0.000000
vn 1.000000 0.000000 0.000000
vn 0.000000 0.000000 1.000000
vn 0.000000 0.000000 1.000000
vn 0.000000 0.000000 1.000000
vn 0.000000 0.000000 1.000000
vn 0.000000 0.000000 1.000000
vn 0.000000 0.000000 1.000000
vn 0.000000 0.000000 1.000000
vn 0.000000 0.000000 1.000000
vn 0.000000 0.000000 1.000000
vn 0.000000 0.000000 1.000000
vn 0.000000 0.000000 1.000000
vn 0.000000 0.000000 1.000000
vn 0.000000 0.000000 1.000000
vn 0.000000 1.000000 -0.000000
vn 0.000000 1.000000 -0.000000
vn 0.000000 1.000000 -0.000000
vn 0.000000 1.000000 -0.000000
vn 0.000000 1.000000 -0.000000
vn 0.000000 1.000000 -0.000000
vn 0.000000 1.000000 -0.000000
vn 0.000000 -1.000000 0.000000
vn 0.000000 -1.000000 0.000000
vn 0.000000 -1.000000 0.000000
vn 0.000000 -1.000000 0.000000
vn 1.000000 0.000000 0.000000
vn 1.000000 0.000000 0.000000
vn 1.000000 0.000000 0.000000
vn 1.000000 0.000000 0.000000
vn 0.000000 -1.000000 0.000000
vn 0.000000 -1.000000 0.000000
vn 0.000000 -1.000000 0.000000
vn 0.000000 -1.000000 0.000000
vn 1.000000 0.000000 0.000000
vn 1.000000 0.000000 0.000000
vn 1.000000 0.000000 0.000000
vn 1.000000 0.000000 0.000000
vn -1.000000 0.000000 0.000000
vn -1.000000 0.000000 0.000000
vn -1.000000 0.000000 0.000000
vn -1.000000 0.000000 0.000000
vn 0.000000 0.000000 1.000000
vn 0.000000 0.000000 1.000000
vn 0.000000 0.000000 1.000000
vn 0.000000 0.000000 1.000000
vn 0.191604 0.981472 0.000000
vn 0.191604 0.981472 0.000000
vn 0.191604 0.981472 0.000000
vn 0.191604 0.981472 0.000000
vn -1.000000 0.000000 0.000000
vn -1.000000 0.000000 0.000000
vn -1.000000 0.000000 0.000000
vn -1.000000 0.000000 0.000000
vn 0.191555 -0.981482 0.000000
vn 0.191555 -0.981482 0.000000
vn 0.191555 -0.981482 0.000000
vn 0.191555 -0.981482 0.000000
vn 1.000000 0.000000 0.000000
vn 1.000000 0.000000 0.000000
vn 1.000000 0.000000 0.000000
vn 1.000000 0.000000 0.000000
vn 0.000000 0.000000 1.000000
vn 0.000000 0.000000 1.000000
vn 0.000000 0.000000 1.000000
vn 0.000000 0.000000 1.000000
vn 0.000000 1.000000 -0.000000
vn 0.000000 1.000000 -0.000000
vn 0.000000 1.000000 -0.000000
vn 0.000000 1.000000 -0.000000
vn -1.000000 0.000000 0.000000
vn -1.000000 0.000000 0.000000
vn -1.000000 0.000000 0.000000
vn -1.000000 0.000000 0.000000
vn 0.000000 -1.000000 0.000000
vn 0.000000 -1.000000 0.000000
vn 0.000000 -1.000000 0.000000
vn 0.000000 -1.000000 0.000000
vn 1.000000 0.000000 0.000000
vn 1.000000 0.000000 0.000000
vn 1.000000 0.000000 0.000000
vn 1.000000 0.000000 0.000000
vn 0.327632 -0.741160 0.585952
vn 0.327632 -0.741160 0.585952
vn 0.327632 -0.741160 0.585952
vn 0.327632 -0.741160 0.585952
vn -0.413784 -0.594530 0.689432
vn -0.413784 -0.594530 0.689432
vn -0.413784 -0.594530 0.689432
vn 0.541956 -0.547539 0.637561
vn 0.541956 -0.547539 0.637561
vn 0.541956 -0.547539 0.637561
vn 0.505706 0.573029 0.644903
vn 0.505706 0.573029 0.644903
vn 0.505706 0.573029 0.644903
vn -0.539984 0.634536 0.552974
vn -0.539984 0.634536 0.552974
vn -0.539984 0.634536 0.552974
s off
f 1/1/1 3/2/2 4/3/3 2/4/4
f 1/5/5 5/6/6 6/7/7 3/8/8
f 3/8/9 6/7/10 7/9/11 4/10/12
f 4/10/13 7/9/14 8/11/15 2/12/16
f 2/12/17 8/11/18 5/6/19 1/5/20
f 9/13/21 11/14/22 12/15/23 10/16/24
f 12/17/25 14/18/26 13/19/27
f 10/20/28 12/21/29 13/22/30
f 9/23/31 15/24/32 16/25/33 11/26/34
f 11/26/35 16/25/36 17/27/37 12/28/38
f 10/29/39 18/30/40 15/24/41 9/23/42
f 12/28/43 17/27/44 19/31/45 14/32/46
f 14/32/47 19/31/48 20/33/49 13/34/50
f 13/34/51 20/33/52 18/30/53 10/29/54
f 21/41/55 23/42/56 24/43/57 22/44/58
f 24/45/59 26/46/60 25/47/61
f 23/48/62 26/49/63 24/50/64
f 27/51/65 25/52/66 26/53/67 107/190/68 106/192/69 108/189/70 105/194/71 28/54/72
f 21/55/73 22/56/74 27/57/75 28/58/76
f 21/35/77 29/36/78 30/37/79 23/38/80
f 24/39/81 31/40/82 32/59/83 22/60/84
f 25/61/85 34/62/86 31/40/87 24/39/88
f 23/38/89 30/37/90 33/63/91 26/64/92
f 27/65/93 35/66/94 34/62/95 25/61/96
f 26/64/97 33/63/98 36/67/99 28/68/100 105/69/101 109/70/102 107/71/103
f 22/60/104 32/59/105 35/66/106 27/65/107
f 28/68/108 36/67/109 29/36/110 21/35/111
f 37/91/112 38/92/113 39/93/114
f 38/94/115 40/95/116 39/96/117
f 37/97/118 39/98/119 42/99/120 41/100/121
f 37/72/122 43/73/123 44/74/124 38/75/125
f 38/75/126 44/74/127 46/76/128 40/77/129
f 40/77/130 46/76/131 45/78/132 39/79/133
f 39/79/134 45/78/135 47/80/136 42/81/137
f 42/81/138 47/80/139 48/82/140 41/83/141
f 41/83/142 48/82/143 43/73/144 37/72/145
f 49/119/146 51/120/147 52/121/148 110/186/149 111/185/150
f 49/84/151 53/85/152 54/86/153 51/87/154
f 51/87/155 54/86/156 55/88/157 52/89/158
f 52/89/159 55/88/160 56/90/161 50/101/162 110/102/163
f 111/103/164 50/101/165 56/90/166 53/85/167 49/84/168
f 57/131/169 59/132/170 60/133/171 58/134/172
f 57/104/173 61/105/174 62/106/175 59/107/176
f 59/107/177 62/106/178 63/108/179 60/109/180
f 60/109/181 63/108/182 64/110/183 58/111/184
f 58/111/185 64/110/186 61/105/187 57/104/188
f 65/143/189 67/144/190 68/145/191 66/146/192
f 69/147/193 66/148/194 68/149/195 70/150/196
f 65/112/197 71/113/198 72/114/199 67/115/200
f 67/115/201 72/114/202 73/116/203 68/117/204
f 66/118/205 74/123/206 71/113/207 65/112/208
f 69/124/209 75/125/210 74/123/211 66/118/212
f 68/117/213 73/116/214 76/126/215 70/127/216
f 70/127/217 76/126/218 75/125/219 69/124/220
f 77/167/221 112/184/222 114/182/223 113/183/224 79/168/225 80/169/226 78/170/227
f 80/171/228 82/172/229 81/173/230
f 79/174/231 82/175/232 80/176/233
f 77/128/234 83/129/235 84/130/236 79/135/237 113/136/238 115/137/239 112/138/240
f 80/139/241 85/140/242 86/141/243 78/142/244
f 78/142/245 86/141/246 83/129/247 77/128/248
f 82/151/249 87/152/250 88/153/251 81/154/252
f 81/154/253 88/153/254 85/140/255 80/139/256
f 79/135/257 84/130/258 87/152/259 82/151/260
f 89/195/261 91/196/262 92/197/263 90/198/264
f 89/155/265 93/156/266 94/157/267 91/158/268
f 91/158/269 94/157/270 95/159/271 92/160/272
f 92/160/273 95/159/274 96/161/275 90/162/276
f 90/162/277 96/161/278 93/156/279 89/155/280
f 97/203/281 99/202/282 100/201/283 98/200/284
f 97/163/285 101/164/286 102/165/287 99/166/288
f 99/166/289 102/165/290 103/177/291 100/178/292
f 100/178/293 103/177/294 104/179/295 98/180/296
f 98/180/297 104/179/298 101/164/299 97/163/300
f 107/191/301 109/188/302 108/187/303 106/193/304
f 108/187/305 109/188/306 105/199/307
f 111/185/308 110/186/309 50/122/310
f 113/183/311 114/182/312 115/181/313
f 115/181/314 114/182/315 112/184/316
