# This file uses centimeters as units for non-parametric coordinates.

v 13.479248 6.738281 7.391602
v 6.739746 -0.000000 7.391602
v -0.000977 6.739258 7.391602
v 33.698242 13.477539 7.391602
v 26.957520 20.218750 7.391602
v 20.218994 -0.000977 7.391602
v 13.479248 -6.741211 7.391602
v -26.959473 20.218750 7.391602
v -33.698242 13.480469 7.391602
v 33.698242 -13.480470 7.391602
v 26.958496 -20.218750 7.391602
v 0.000000 -6.739258 7.391602
v -0.000977 20.218750 1.585938
v -6.740723 -0.000000 7.391602
v -13.479980 6.739258 7.391602
v -26.958496 -20.218750 7.391602
v -33.698242 -13.477540 7.391602
v -13.479248 -6.738281 7.391602
v -20.218994 -0.000000 7.391602
v 0.000977 -20.218750 7.391602
v 13.479248 6.738283 -7.391602
v -0.000977 6.739256 -7.391602
v 6.739746 0.000000 -7.391602
v 20.218994 -0.000977 -7.391602
v 13.479248 -6.741211 -7.391602
v 0.000000 -6.739258 -7.391602
v -0.000977 20.218748 -7.391602
v 33.698242 13.477541 -7.391602
v 26.957520 20.218752 -7.391602
v -13.479980 6.739256 -7.391602
v -6.740723 0.000000 -7.391602
v -13.479248 -6.738281 -7.391602
v -33.698242 -13.477539 -7.391602
v -26.958496 -20.218750 -7.391602
v -20.218994 0.000000 -7.391602
v -26.959473 20.218748 -7.391602
v -33.698242 13.480467 -7.391602
v 33.698242 -13.480469 -7.391602
v 26.958496 -20.218750 -7.391602
v 0.000977 -20.218750 -7.391602
v 31.549805 11.329102 7.391602
v 21.361084 1.140625 7.391602
v 23.256348 10.984375 7.391602
v 25.575928 5.356444 0.441406
v 6.183105 14.034180 7.391602
v -5.140381 15.079102 7.391602
v -0.000977 12.509766 7.391602
v -22.899902 2.681641 7.391602
v -32.041504 11.823242 7.391602
v -23.647217 11.670898 7.391602
v -28.227295 8.009766 1.927734
v -3.021240 -17.196289 7.391602
v -11.261475 -8.957032 7.391602
v -3.083252 -9.959962 7.391602
v -6.856689 -13.361328 0.689453
vt 0.026058 0.511781
vt 0.026058 0.511781
vt 0.026058 0.511781
vt 0.026058 0.511781
vt 0.026058 0.511781
vt 0.026058 0.511781
vt 0.026058 0.511781
vt 0.026058 0.511781
vt 0.026058 0.511781
vt 0.026058 0.511781
vt 0.026058 0.511781
vt 0.026058 0.511781
vt 0.026058 0.511781
vt 0.026058 0.511781
vt 0.026058 0.511781
vt 0.026058 0.511781
vt 0.026058 0.511781
vt 0.026058 0.511781
vt 0.026058 0.511781
vt 0.026058 0.511781
vt 0.026058 0.511781
vt 0.026058 0.511781
vt 0.026058 0.511781
vt 0.026058 0.511781
vt 0.026058 0.511781
vt 0.026058 0.511781
vt 0.026058 0.511781
vt 0.026058 0.511781
vt 0.026058 0.511781
vt 0.026058 0.511781
vt 0.026058 0.511781
vt 0.026058 0.511781
vt 0.026058 0.511781
vt 0.026058 0.511781
vt 0.026058 0.511781
vt 0.026058 0.511781
vt 0.026058 0.511781
vt 0.026058 0.511781
vt 0.026058 0.511781
vt 0.026058 0.511781
vt 0.026058 0.511781
vt 0.026058 0.511781
vt 0.026058 0.511781
vt 0.026058 0.511781
vt 0.026058 0.511781
vt 0.026058 0.511781
vt 0.009277 0.508654
vt 0.009277 0.508654
vt 0.009277 0.508654
vt 0.009277 0.508654
vt 0.009277 0.508654
vt 0.009277 0.508654
vt 0.009277 0.508654
vt 0.009277 0.508654
vt 0.009277 0.508654
vt 0.009277 0.508654
vt 0.009277 0.508654
vt 0.009277 0.508654
vt 0.009277 0.508654
vt 0.009277 0.508654
vt 0.009277 0.508654
vt 0.009277 0.508655
vt 0.009277 0.508654
vt 0.009277 0.508654
vt 0.009277 0.508654
vt 0.009277 0.508654
vt 0.009277 0.508654
vt 0.009277 0.508654
vt 0.009277 0.508654
vt 0.009277 0.508654
vt 0.009277 0.508654
vt 0.009277 0.508654
vt 0.009277 0.508654
vt 0.009277 0.508654
vt 0.009277 0.508654
vt 0.009277 0.508654
vt 0.009277 0.508654
vt 0.009277 0.508654
vt 0.009277 0.508654
vt 0.009277 0.508654
vt 0.009277 0.508655
vt 0.009277 0.508654
vt 0.009277 0.508654
vt 0.009277 0.508654
vt 0.009277 0.508654
vt 0.009277 0.508654
vt 0.009277 0.508654
vt 0.009277 0.508654
vt 0.009277 0.508654
vt 0.009277 0.508654
vt 0.009277 0.508654
vt 0.009277 0.508655
vt 0.009277 0.508654
vt 0.009277 0.508654
vt 0.009277 0.508655
vt 0.009277 0.508654
vt 0.009277 0.508654
vt 0.026058 0.511781
vt 0.026058 0.511781
vt 0.026058 0.511781
vt 0.026058 0.511781
vt 0.026058 0.511781
vt 0.026058 0.511781
vt 0.026058 0.511781
vt 0.026058 0.511781
vt 0.026058 0.511781
vt 0.026058 0.511781
vt 0.026058 0.511781
vt 0.026058 0.511781
vt 0.026058 0.511781
vt 0.026058 0.511781
vt 0.026058 0.511781
vt 0.026058 0.511781
vt 0.026058 0.511781
vt 0.026058 0.511781
vt 0.026058 0.511781
vt 0.026058 0.511781
vt 0.026058 0.511781
vt 0.026058 0.511781
vn 0.000000 0.000000 1.000000
vn 0.000000 0.000000 1.000000
vn 0.000000 0.000000 1.000000
vn 0.000000 0.000000 1.000000
vn 0.000000 0.000000 1.000000
vn 0.000000 0.000000 1.000000
vn 0.000000 0.000000 1.000000
vn -0.000000 0.000000 1.000000
vn -0.000000 0.000000 1.000000
vn -0.000000 0.000000 1.000000
vn -0.146690 0.595078 0.790167
vn -0.146690 0.595078 0.790167
vn -0.146690 0.595078 0.790167
vn 0.000000 0.000000 1.000000
vn 0.000000 0.000000 1.000000
vn 0.000000 0.000000 1.000000
vn 0.000000 0.000000 1.000000
vn 0.000000 0.000000 1.000000
vn 0.000000 0.000000 1.000000
vn 0.000000 0.000000 1.000000
vn 0.288007 0.576095 0.764962
vn 0.288007 0.576095 0.764962
vn 0.288007 0.576095 0.764962
vn 0.000000 0.000000 1.000000
vn 0.000000 0.000000 1.000000
vn 0.000000 0.000000 1.000000
vn 0.000000 0.000000 1.000000
vn 0.000000 0.000000 1.000000
vn 0.000000 0.000000 1.000000
vn 0.000000 0.000000 1.000000
vn 0.000000 0.000000 1.000000
vn 0.000000 0.000000 1.000000
vn 0.000000 0.000000 1.000000
vn 0.000000 0.000000 1.000000
vn 0.000000 0.000000 1.000000
vn 0.000000 0.000000 1.000000
vn 0.000000 0.000000 1.000000
vn 0.000000 0.000000 1.000000
vn 0.000000 0.000000 1.000000
vn 0.000000 0.000000 1.000000
vn 0.000000 0.000000 1.000000
vn 0.000000 0.000000 1.000000
vn 0.000000 0.000000 1.000000
vn 0.000000 0.000000 1.000000
vn 0.000000 0.000000 1.000000
vn 0.000000 0.000000 1.000000
vn 0.000000 0.000000 1.000000
vn 0.000000 0.000000 1.000000
vn 0.000000 0.000000 1.000000
vn 0.000000 0.000000 1.000000
vn 0.000000 0.000000 1.000000
vn 0.000000 0.000000 1.000000
vn 0.000000 0.000000 1.000000
vn 0.000000 0.000000 1.000000
vn -0.707030 -0.707184 0.000000
vn -0.707030 -0.707184 0.000000
vn -0.707030 -0.707184 0.000000
vn -0.707030 -0.707184 0.000000
vn -0.707081 0.707132 0.000000
vn -0.707081 0.707132 0.000000
vn -0.707081 0.707132 0.000000
vn -0.707081 0.707132 0.000000
vn 0.707132 0.707081 0.000000
vn 0.707132 0.707081 0.000000
vn 0.707132 0.707081 0.000000
vn 0.707132 0.707081 0.000000
vn -0.707164 0.707049 0.000000
vn -0.707164 0.707049 0.000000
vn -0.707164 0.707049 0.000000
vn -0.707164 0.707049 0.000000
vn 0.707085 -0.707128 0.000010
vn 0.707085 -0.707128 0.000010
vn 0.707085 -0.707128 0.000010
vn 0.707085 -0.707128 0.000010
vn 0.707085 -0.707128 0.000010
vn 0.707085 -0.707128 0.000010
vn 0.707085 -0.707128 0.000010
vn 0.707081 -0.707133 0.000000
vn 0.707081 -0.707133 0.000000
vn 0.707081 -0.707133 0.000000
vn 0.707081 -0.707132 0.000000
vn -0.707184 -0.707030 0.000000
vn -0.707184 -0.707030 0.000000
vn -0.707184 -0.707030 0.000000
vn -0.707184 -0.707030 0.000000
vn 0.707139 -0.707075 0.000000
vn 0.707139 -0.707075 0.000000
vn 0.707139 -0.707075 0.000000
vn 0.707139 -0.707075 0.000000
vn -0.707062 0.707152 0.000000
vn -0.707062 0.707152 0.000000
vn -0.707062 0.707152 0.000000
vn -0.707062 0.707152 0.000000
vn 0.707107 0.707107 -0.000000
vn 0.707107 0.707107 -0.000000
vn 0.707107 0.707107 -0.000000
vn 0.707107 0.707107 -0.000000
vn -0.707081 0.707132 -0.000000
vn -0.707081 0.707132 -0.000000
vn -0.707081 0.707132 -0.000000
vn -0.707081 0.707132 -0.000000
vn -0.707143 -0.707070 0.000018
vn -0.707143 -0.707070 0.000018
vn -0.707143 -0.707070 0.000018
vn -0.707143 -0.707070 0.000018
vn -0.707143 -0.707070 0.000018
vn -0.707143 -0.707070 0.000018
vn -0.707143 -0.707070 0.000018
vn 0.707113 0.707100 0.000000
vn 0.707113 0.707100 0.000000
vn 0.707113 0.707100 0.000000
vn 0.707113 0.707100 0.000000
vn -0.707062 -0.707152 0.000000
vn -0.707062 -0.707152 0.000000
vn -0.707062 -0.707152 0.000000
vn -0.707062 -0.707152 0.000000
vn 0.707030 -0.707184 0.000000
vn 0.707030 -0.707184 0.000000
vn 0.707030 -0.707184 0.000000
vn 0.707030 -0.707184 0.000000
vn 0.707030 0.707184 0.000000
vn 0.707030 0.707184 0.000000
vn 0.707030 0.707184 0.000000
vn 0.707030 0.707184 0.000000
vn -0.707121 -0.707093 -0.000016
vn -0.707121 -0.707093 -0.000016
vn -0.707121 -0.707093 -0.000016
vn -0.707121 -0.707093 -0.000016
vn -0.707121 -0.707093 -0.000016
vn -0.707121 -0.707093 -0.000016
vn -0.707121 -0.707093 -0.000016
vn 0.707088 -0.707126 0.000000
vn 0.707088 -0.707126 0.000000
vn 0.707088 -0.707126 0.000000
vn 0.707088 -0.707126 0.000000
vn 0.884982 -0.170390 0.433330
vn 0.884982 -0.170390 0.433330
vn 0.884982 -0.170390 0.433330
vn 0.032068 -0.771497 0.635424
vn 0.032068 -0.771498 0.635424
vn 0.032068 -0.771497 0.635424
vn 0.707111 0.707103 0.000010
vn 0.707111 0.707103 0.000010
vn 0.707111 0.707103 0.000010
vn 0.707111 0.707103 0.000010
vn 0.707111 0.707103 0.000010
vn -0.707119 0.707094 0.000001
vn -0.707119 0.707094 0.000001
vn -0.707119 0.707094 0.000001
vn -0.707119 0.707094 0.000001
vn -0.707119 0.707094 0.000001
vn 0.000000 0.000000 1.000000
vn 0.000000 0.000000 1.000000
vn 0.000000 0.000000 1.000000
vn 0.000000 0.000000 1.000000
vn 0.000000 0.000000 1.000000
vn -0.000000 0.000000 1.000000
vn -0.000000 0.000000 1.000000
vn -0.000000 0.000000 1.000000
vn -0.000000 0.000000 1.000000
vn -0.744104 -0.061861 0.665194
vn -0.744104 -0.061861 0.665194
vn -0.744104 -0.061861 0.665194
vn -0.014969 -0.824805 0.565219
vn -0.014969 -0.824805 0.565219
vn -0.014969 -0.824805 0.565219
vn -0.869736 -0.007453 0.493461
vn -0.869736 -0.007453 0.493461
vn -0.869736 -0.007453 0.493461
vn -0.105647 -0.861477 0.496684
vn -0.105647 -0.861478 0.496684
vn -0.105647 -0.861478 0.496684
s off
f 1/1/1 3/2/2 2/3/3
f 6/4/4 1/5/5 2/6/6 7/7/7
f 7/8/8 2/9/9 12/10/10
f 47/109/11 45/112/12 13/12/13
f 4/14/14 5/15/15 1/16/16 6/17/17 42/116/18 43/117/19 41/114/20
f 46/111/21 47/110/22 13/19/23
f 18/22/24 17/23/25 16/24/26
f 14/25/27 15/26/28 19/27/29 18/28/30
f 18/29/31 19/30/32 17/31/33
f 15/32/34 8/33/35 9/34/36 49/107/37 50/106/38 48/108/39 19/35/40
f 10/36/41 6/37/42 7/38/43 11/39/44
f 12/40/45 14/41/46 18/42/47 53/101/48 54/100/49 52/103/50 20/43/51
f 7/44/52 12/45/53 20/46/54
f 3/47/55 22/48/56 23/49/57 2/50/58
f 2/50/59 23/49/60 26/51/61 12/52/62
f 4/53/63 28/54/64 29/55/65 5/56/66
f 5/56/67 29/55/68 21/57/69 1/58/70
f 6/59/71 24/60/72 28/54/73 4/53/74 41/61/75 44/62/76 42/63/77
f 14/64/78 31/65/79 22/48/80 3/47/81
f 17/66/82 33/67/83 34/68/84 16/69/85
f 16/69/86 34/68/87 32/70/88 18/71/89
f 19/72/90 35/73/91 33/67/92 17/66/93
f 15/74/94 30/75/95 36/76/96 8/77/97
f 8/77/98 36/76/99 37/78/100 9/79/101
f 9/79/102 37/78/103 35/73/104 19/72/105 48/80/106 51/81/107 49/82/108
f 10/83/109 38/84/110 24/60/111 6/59/112
f 7/85/113 25/86/114 39/87/115 11/88/116
f 11/88/117 39/87/118 38/84/119 10/83/120
f 12/52/121 26/51/122 31/65/123 14/64/124
f 18/71/125 32/70/126 40/89/127 20/90/128 52/91/129 55/92/130 53/93/131
f 20/90/132 40/89/133 25/86/134 7/85/135
f 42/115/136 44/118/137 43/119/138
f 43/119/139 44/118/140 41/113/141
f 1/58/142 21/57/143 27/94/144 13/95/145 45/96/146
f 46/97/147 13/95/148 27/94/149 30/75/150 15/74/151
f 3/18/152 47/110/153 46/111/154 15/20/155 14/21/156
f 1/11/157 45/112/158 47/109/159 3/13/160
f 48/108/161 50/106/162 51/105/163
f 51/105/164 50/106/165 49/107/166
f 54/98/167 55/99/168 52/104/169
f 53/102/170 55/99/171 54/98/172
