# This file uses centimeters as units for non-parametric coordinates.

v 34.560303 -38.567383 7.391602
v 17.530640 -17.030273 7.391602
v 34.560303 -17.030273 7.391602
v 25.544556 -26.044924 7.391602
v 8.514893 -26.044924 7.391602
v 25.544556 -47.582031 7.391602
v 8.514893 -4.507813 7.391602
v 43.075195 -38.567383 7.391602
v 43.075195 -47.582031 7.391602
v 34.560303 38.567383 7.391602
v 17.530640 17.030272 7.391602
v 34.560303 17.030272 7.391602
v 25.544556 26.044922 7.391602
v 8.514893 26.044922 7.391602
v 25.544556 47.582031 7.391602
v 8.514893 4.507813 7.391602
v 43.075195 38.567383 7.391602
v 43.075195 47.582031 7.391602
v -34.560303 -38.567383 7.391602
v -17.530396 -17.030273 7.391602
v -34.560303 -17.030273 7.391602
v -25.544556 -26.044924 7.391602
v -8.514893 -26.044924 7.391602
v -25.544556 -47.582031 7.391602
v -8.514893 -4.507813 7.391602
v -43.075195 -38.567383 7.391602
v -43.075195 -47.582031 7.391602
v -34.560303 38.567383 7.391602
v -17.530396 17.030272 7.391602
v -34.560303 17.030272 7.391602
v -25.544556 26.044922 7.391602
v -8.514893 26.044922 7.391602
v -25.544556 47.582031 7.391602
v -8.514893 4.507813 7.391602
v -43.075195 38.567383 7.391602
v -43.075195 47.582031 7.391602
v 17.530640 -17.030273 -7.391602
v 34.560303 -17.030273 -7.391602
v 8.514893 -26.044922 -7.391602
v 25.544556 -26.044922 -7.391602
v 25.544556 -47.582031 -7.391602
v 34.560303 -38.567383 -7.391602
v 8.514893 -4.507813 -7.391602
v 17.530640 17.030275 -7.391602
v 8.514893 4.507814 -7.391602
v 43.075195 -47.582031 -7.391602
v 43.075195 -38.567383 -7.391602
v 34.560303 17.030275 -7.391602
v 25.544556 26.044924 -7.391602
v 8.514893 26.044924 -7.391602
v 34.560303 38.567383 -7.391602
v 25.544556 47.582031 -7.391602
v 43.075195 38.567383 -7.391602
v 43.075195 47.582031 -7.391602
v -34.560303 -17.030273 -7.391602
v -25.544556 -26.044922 -7.391602
v -8.514893 -26.044922 -7.391602
v -17.530396 -17.030273 -7.391602
v -34.560303 -38.567383 -7.391602
v -25.544556 -47.582031 -7.391602
v -8.514893 -4.507813 -7.391602
v -43.075195 -38.567383 -7.391602
v -43.075195 -47.582031 -7.391602
v -17.530396 17.030275 -7.391602
v -34.560303 17.030275 -7.391602
v -8.514893 26.044924 -7.391602
v -25.544556 26.044924 -7.391602
v -25.544556 47.582031 -7.391602
v -34.560303 38.567383 -7.391602
v -8.514893 4.507814 -7.391602
v -43.075195 47.582031 -7.391602
v -43.075195 38.567383 -7.391602
vt 0.026058 0.511781
vt 0.026058 0.511781
vt 0.026058 0.511781
vt 0.026058 0.511781
vt 0.026058 0.511781
vt 0.026058 0.511781
vt 0.026058 0.511781
vt 0.026058 0.511781
vt 0.026058 0.511781
vt 0.026058 0.511781
vt 0.026058 0.511781
vt 0.026058 0.511781
vt 0.026058 0.511781
vt 0.026058 0.511781
vt 0.026058 0.511781
vt 0.026058 0.511781
vt 0.026058 0.511781
vt 0.026058 0.511781
vt 0.026058 0.511781
vt 0.026058 0.511781
vt 0.026058 0.511781
vt 0.026058 0.511781
vt 0.026058 0.511781
vt 0.026058 0.511781
vt 0.026058 0.511781
vt 0.026058 0.511781
vt 0.026058 0.511781
vt 0.026058 0.511781
vt 0.026058 0.511781
vt 0.026058 0.511781
vt 0.026058 0.511781
vt 0.026058 0.511781
vt 0.026058 0.511781
vt 0.026058 0.511781
vt 0.026058 0.511781
vt 0.026058 0.511781
vt 0.026058 0.511781
vt 0.026058 0.511781
vt 0.026058 0.511781
vt 0.026058 0.511781
vt 0.026058 0.511781
vt 0.026058 0.511781
vt 0.026058 0.511781
vt 0.026058 0.511781
vt 0.009399 0.508654
vt 0.009399 0.508654
vt 0.009399 0.508654
vt 0.009399 0.508654
vt 0.009399 0.508654
vt 0.009399 0.508654
vt 0.009399 0.508654
vt 0.009399 0.508654
vt 0.009399 0.508654
vt 0.009399 0.508654
vt 0.009399 0.508654
vt 0.009399 0.508654
vt 0.009399 0.508654
vt 0.009399 0.508654
vt 0.009399 0.508654
vt 0.009399 0.508654
vt 0.009399 0.508654
vt 0.009399 0.508654
vt 0.009399 0.508654
vt 0.009399 0.508654
vt 0.009399 0.508654
vt 0.009399 0.508654
vt 0.009399 0.508654
vt 0.009399 0.508654
vt 0.009399 0.508654
vt 0.009399 0.508654
vt 0.009399 0.508654
vt 0.009399 0.508654
vt 0.009399 0.508654
vt 0.009399 0.508654
vt 0.009399 0.508654
vt 0.009399 0.508654
vt 0.009399 0.508654
vt 0.009399 0.508654
vt 0.009399 0.508654
vt 0.009399 0.508654
vt 0.009399 0.508654
vt 0.009399 0.508654
vt 0.009399 0.508654
vt 0.009399 0.508654
vt 0.009399 0.508654
vt 0.009399 0.508654
vt 0.009399 0.508654
vt 0.009399 0.508654
vt 0.009399 0.508654
vt 0.009399 0.508654
vt 0.009399 0.508654
vt 0.009399 0.508654
vt 0.009399 0.508654
vt 0.009399 0.508654
vt 0.009399 0.508654
vt 0.009399 0.508654
vt 0.009399 0.508654
vt 0.009399 0.508654
vt 0.009399 0.508654
vt 0.009399 0.508654
vt 0.009399 0.508654
vt 0.009399 0.508654
vt 0.009399 0.508654
vt 0.009399 0.508654
vt 0.009399 0.508654
vt 0.009399 0.508654
vt 0.009399 0.508654
vt 0.009399 0.508654
vt 0.009399 0.508654
vt 0.009399 0.508654
vt 0.009399 0.508654
vt 0.009399 0.508654
vt 0.009399 0.508654
vt 0.009399 0.508654
vt 0.009399 0.508654
vt 0.009399 0.508654
vn 0.000000 0.000000 1.000000
vn 0.000000 0.000000 1.000000
vn 0.000000 0.000000 1.000000
vn 0.000000 0.000000 1.000000
vn 0.000000 0.000000 1.000000
vn 0.000000 0.000000 1.000000
vn 0.000000 0.000000 1.000000
vn 0.000000 0.000000 1.000000
vn -0.000000 0.000000 1.000000
vn -0.000000 0.000000 1.000000
vn -0.000000 0.000000 1.000000
vn -0.000000 0.000000 1.000000
vn -0.000000 0.000000 1.000000
vn -0.000000 0.000000 1.000000
vn -0.000000 0.000000 1.000000
vn 0.000000 0.000000 1.000000
vn 0.000000 0.000000 1.000000
vn 0.000000 0.000000 1.000000
vn 0.000000 0.000000 1.000000
vn 0.000000 0.000000 1.000000
vn 0.000000 0.000000 1.000000
vn 0.000000 0.000000 1.000000
vn 0.000000 0.000000 1.000000
vn 0.000000 0.000000 1.000000
vn 0.000000 0.000000 1.000000
vn 0.000000 0.000000 1.000000
vn 0.000000 0.000000 1.000000
vn -0.000000 0.000000 1.000000
vn -0.000000 0.000000 1.000000
vn -0.000000 0.000000 1.000000
vn 0.000000 0.000000 1.000000
vn 0.000000 0.000000 1.000000
vn 0.000000 0.000000 1.000000
vn 0.000000 0.000000 1.000000
vn 0.000000 0.000000 1.000000
vn 0.000000 0.000000 1.000000
vn 0.000000 0.000000 1.000000
vn 0.000000 0.000000 1.000000
vn 0.000000 0.000000 1.000000
vn 0.000000 0.000000 1.000000
vn 0.000000 0.000000 1.000000
vn 0.000000 0.000000 1.000000
vn 0.000000 0.000000 1.000000
vn 0.000000 0.000000 1.000000
vn 0.000000 0.000000 1.000000
vn 0.000000 0.000000 1.000000
vn 0.000000 0.000000 1.000000
vn 0.000000 0.000000 1.000000
vn 0.000000 0.000000 1.000000
vn 0.000000 0.000000 1.000000
vn 0.000000 0.000000 1.000000
vn 0.000000 0.000000 1.000000
vn 0.000000 0.000000 1.000000
vn 0.000000 0.000000 1.000000
vn 0.000000 0.000000 1.000000
vn 0.000000 0.000000 1.000000
vn 0.000000 0.000000 1.000000
vn 0.000000 0.000000 1.000000
vn 0.000000 0.000000 1.000000
vn 0.000000 0.000000 1.000000
vn 0.000000 0.000000 1.000000
vn 0.000000 0.000000 1.000000
vn 0.000000 0.000000 1.000000
vn 0.000000 0.000000 1.000000
vn 0.000000 0.000000 1.000000
vn 0.000000 0.000000 1.000000
vn 0.000000 0.000000 1.000000
vn 0.000000 0.000000 1.000000
vn 0.000000 0.000000 1.000000
vn 0.000000 0.000000 1.000000
vn 0.000000 0.000000 1.000000
vn 0.000000 0.000000 1.000000
vn 0.000000 1.000000 0.000000
vn 0.000000 1.000000 0.000000
vn 0.000000 1.000000 0.000000
vn 0.000000 1.000000 0.000000
vn 0.000000 -1.000000 -0.000000
vn 0.000000 -1.000000 -0.000000
vn 0.000000 -1.000000 -0.000000
vn 0.000000 -1.000000 -0.000000
vn -1.000000 0.000000 0.000000
vn -1.000000 0.000000 0.000000
vn -1.000000 0.000000 0.000000
vn -1.000000 0.000000 0.000000
vn 1.000000 0.000000 0.000000
vn 1.000000 0.000000 0.000000
vn 1.000000 0.000000 0.000000
vn 1.000000 0.000000 0.000000
vn 1.000000 0.000000 0.000000
vn 1.000000 0.000000 0.000000
vn 1.000000 0.000000 0.000000
vn 1.000000 0.000000 0.000000
vn -1.000000 0.000000 0.000000
vn -1.000000 0.000000 0.000000
vn -1.000000 0.000000 0.000000
vn -1.000000 0.000000 0.000000
vn 0.000000 -1.000000 0.000000
vn 0.000000 -1.000000 0.000000
vn 0.000000 -1.000000 0.000000
vn 0.000000 -1.000000 0.000000
vn 1.000000 0.000000 0.000000
vn 1.000000 0.000000 0.000000
vn 1.000000 0.000000 0.000000
vn 1.000000 0.000000 0.000000
vn 0.000000 1.000000 0.000000
vn 0.000000 1.000000 0.000000
vn 0.000000 1.000000 0.000000
vn 0.000000 1.000000 0.000000
vn 0.000000 1.000000 0.000000
vn 0.000000 1.000000 0.000000
vn 0.000000 1.000000 0.000000
vn 0.000000 1.000000 0.000000
vn 0.000000 -1.000000 -0.000000
vn 0.000000 -1.000000 -0.000000
vn 0.000000 -1.000000 -0.000000
vn 0.000000 -1.000000 -0.000000
vn 1.000000 0.000000 0.000000
vn 1.000000 0.000000 0.000000
vn 1.000000 0.000000 0.000000
vn 1.000000 0.000000 0.000000
vn -1.000000 0.000000 0.000000
vn -1.000000 0.000000 0.000000
vn -1.000000 0.000000 0.000000
vn -1.000000 0.000000 0.000000
vn -1.000000 0.000000 0.000000
vn -1.000000 0.000000 0.000000
vn -1.000000 0.000000 0.000000
vn -1.000000 0.000000 0.000000
vn 0.000000 -1.000000 0.000000
vn 0.000000 -1.000000 0.000000
vn 0.000000 -1.000000 0.000000
vn 0.000000 -1.000000 0.000000
vn 1.000000 0.000000 0.000000
vn 1.000000 0.000000 0.000000
vn 1.000000 0.000000 0.000000
vn 1.000000 0.000000 0.000000
vn 0.000000 1.000000 0.000000
vn 0.000000 1.000000 0.000000
vn 0.000000 1.000000 0.000000
vn 0.000000 1.000000 0.000000
vn 0.000000 -1.000000 -0.000000
vn 0.000000 -1.000000 -0.000000
vn 0.000000 -1.000000 -0.000000
vn 0.000000 -1.000000 -0.000000
vn 0.000000 1.000000 0.000000
vn 0.000000 1.000000 0.000000
vn 0.000000 1.000000 0.000000
vn 0.000000 1.000000 0.000000
vn -1.000000 0.000000 0.000000
vn -1.000000 0.000000 0.000000
vn -1.000000 0.000000 0.000000
vn -1.000000 0.000000 0.000000
vn 1.000000 0.000000 0.000000
vn 1.000000 0.000000 0.000000
vn 1.000000 0.000000 0.000000
vn 1.000000 0.000000 0.000000
vn 1.000000 0.000000 0.000000
vn 1.000000 0.000000 0.000000
vn 1.000000 0.000000 0.000000
vn 1.000000 0.000000 0.000000
vn 0.000000 1.000000 0.000000
vn 0.000000 1.000000 0.000000
vn 0.000000 1.000000 0.000000
vn 0.000000 1.000000 0.000000
vn -1.000000 0.000000 0.000000
vn -1.000000 0.000000 0.000000
vn -1.000000 0.000000 0.000000
vn -1.000000 0.000000 0.000000
vn 0.000000 -1.000000 0.000000
vn 0.000000 -1.000000 0.000000
vn 0.000000 -1.000000 0.000000
vn 0.000000 -1.000000 0.000000
vn 0.000000 -1.000000 -0.000000
vn 0.000000 -1.000000 -0.000000
vn 0.000000 -1.000000 -0.000000
vn 0.000000 -1.000000 -0.000000
vn 0.000000 1.000000 0.000000
vn 0.000000 1.000000 0.000000
vn 0.000000 1.000000 0.000000
vn 0.000000 1.000000 0.000000
vn 1.000000 0.000000 0.000000
vn 1.000000 0.000000 0.000000
vn 1.000000 0.000000 0.000000
vn 1.000000 0.000000 0.000000
vn -1.000000 0.000000 0.000000
vn -1.000000 0.000000 0.000000
vn -1.000000 0.000000 0.000000
vn -1.000000 0.000000 0.000000
vn 0.000000 1.000000 0.000000
vn 0.000000 1.000000 0.000000
vn 0.000000 1.000000 0.000000
vn 0.000000 1.000000 0.000000
vn 0.000000 -1.000000 -0.000000
vn 0.000000 -1.000000 -0.000000
vn 0.000000 -1.000000 -0.000000
vn 0.000000 -1.000000 -0.000000
vn -1.000000 0.000000 0.000000
vn -1.000000 0.000000 0.000000
vn -1.000000 0.000000 0.000000
vn -1.000000 0.000000 0.000000
vn 1.000000 0.000000 0.000000
vn 1.000000 0.000000 0.000000
vn 1.000000 0.000000 0.000000
vn 1.000000 0.000000 0.000000
vn 0.000000 1.000000 0.000000
vn 0.000000 1.000000 0.000000
vn 0.000000 1.000000 0.000000
vn 0.000000 1.000000 0.000000
vn -1.000000 0.000000 0.000000
vn -1.000000 0.000000 0.000000
vn -1.000000 0.000000 0.000000
vn -1.000000 0.000000 0.000000
vn 0.000000 -1.000000 0.000000
vn 0.000000 -1.000000 0.000000
vn 0.000000 -1.000000 0.000000
vn 0.000000 -1.000000 0.000000
s off
f 3/1/1 2/2/2 5/3/3 4/4/4
f 4/4/5 6/5/6 1/6/7 3/1/8
f 7/7/9 2/8/10 11/9/11 16/10/12
f 2/8/13 7/7/14 5/11/15
f 6/5/16 9/12/17 8/13/18 1/6/19
f 12/14/20 13/15/21 14/16/22 11/17/23
f 13/15/24 12/14/25 10/18/26 15/19/27
f 11/9/28 14/20/29 16/10/30
f 15/19/31 10/18/32 17/21/33 18/22/34
f 21/23/35 22/24/36 23/25/37 20/26/38
f 22/24/39 21/23/40 19/27/41 24/28/42
f 20/29/43 23/30/44 25/31/45
f 24/28/46 19/27/47 26/32/48 27/33/49
f 30/34/50 29/35/51 32/36/52 31/37/53
f 31/37/54 33/38/55 28/39/56 30/34/57
f 16/10/58 34/40/59 25/31/60 7/7/61
f 25/31/62 34/40/63 29/41/64 20/29/65
f 29/41/66 34/40/67 32/42/68
f 33/38/69 36/43/70 35/44/71 28/39/72
f 3/45/73 38/46/74 37/47/75 2/48/76
f 5/49/77 39/50/78 40/51/79 4/52/80
f 4/52/81 40/51/82 41/53/83 6/54/84
f 1/55/85 42/56/86 38/46/87 3/45/88
f 2/48/89 37/47/90 44/57/91 11/58/92
f 7/59/93 43/60/94 39/50/95 5/49/96
f 6/54/97 41/53/98 46/61/99 9/62/100
f 9/62/101 46/61/102 47/63/103 8/64/104
f 8/64/105 47/63/106 42/56/107 1/55/108
f 13/65/109 49/66/110 50/67/111 14/68/112
f 11/58/113 44/57/114 48/69/115 12/70/116
f 12/70/117 48/69/118 51/71/119 10/72/120
f 15/73/121 52/74/122 49/66/123 13/65/124
f 14/68/125 50/67/126 45/75/127 16/76/128
f 10/72/129 51/71/130 53/77/131 17/78/132
f 17/78/133 53/77/134 54/79/135 18/80/136
f 18/80/137 54/79/138 52/74/139 15/73/140
f 22/81/141 56/82/142 57/83/143 23/84/144
f 20/85/145 58/86/146 55/87/147 21/88/148
f 21/88/149 55/87/150 59/89/151 19/90/152
f 24/91/153 60/92/154 56/82/155 22/81/156
f 23/84/157 57/83/158 61/93/159 25/94/160
f 19/90/161 59/89/162 62/95/163 26/96/164
f 26/96/165 62/95/166 63/97/167 27/98/168
f 27/98/169 63/97/170 60/92/171 24/91/172
f 30/99/173 65/100/174 64/101/175 29/102/176
f 32/103/177 66/104/178 67/105/179 31/106/180
f 31/106/181 67/105/182 68/107/183 33/108/184
f 28/109/185 69/110/186 65/100/187 30/99/188
f 16/76/189 45/75/190 70/111/191 34/112/192
f 25/94/193 61/93/194 43/60/195 7/59/196
f 29/102/197 64/101/198 58/86/199 20/85/200
f 34/112/201 70/111/202 66/104/203 32/103/204
f 33/108/205 68/107/206 71/113/207 36/114/208
f 36/114/209 71/113/210 72/115/211 35/116/212
f 35/116/213 72/115/214 69/110/215 28/109/216
