# This file uses centimeters as units for non-parametric coordinates.

v -30.508545 29.856445 7.391602
v -42.550415 41.899414 7.391602
v -30.508545 17.105467 7.391602
v -55.300659 41.899414 7.391602
v -30.508545 66.690430 7.391602
v 0.000000 36.181641 7.391602
v -23.693848 36.670898 7.391602
v -30.508545 53.940430 7.391602
v -6.374878 29.805664 7.391602
v -17.318970 30.295898 7.391602
v -26.367188 9.813478 7.391602
v 30.508789 66.690430 7.391602
v 6.375122 29.805664 7.391602
v 30.508789 53.940430 7.391602
v 0.000000 23.431641 7.391602
v -17.083130 6.347656 7.391602
v 17.318970 30.295898 7.391602
v 23.694092 36.670898 7.391602
v 55.300537 41.899414 7.391602
v 42.550781 41.899414 7.391602
v 17.083374 6.347656 7.391602
v 30.508789 29.856445 7.391602
v 26.367310 9.813478 7.391602
v 30.508789 17.105467 7.391602
v -26.367188 -97.543938 7.391602
v -17.083130 -97.543938 7.391602
v 17.083374 -97.543938 7.391602
v 26.367310 -97.543938 7.391602
v -30.508545 17.105471 -7.391602
v -30.508545 29.856447 -7.391602
v -42.550415 41.899414 -7.391602
v -55.300659 41.899414 -7.391602
v -30.508545 66.690430 -7.391602
v -30.508545 53.940430 -7.391602
v -6.374878 29.805666 -7.391602
v 0.000000 36.181641 -7.391602
v -23.693848 36.670898 -7.391602
v -17.318970 30.295900 -7.391602
v 30.508789 66.690430 -7.391602
v 6.375122 29.805666 -7.391602
v 30.508789 53.940430 -7.391602
v 0.000000 23.431643 -7.391602
v -26.367188 9.813478 -7.391602
v -17.083130 6.347658 -7.391602
v 55.300537 41.899414 -7.391602
v 42.550781 41.899414 -7.391602
v 17.083374 6.347658 -7.391602
v 26.367310 9.813478 -7.391602
v 17.318970 30.295900 -7.391602
v 23.694092 36.670898 -7.391602
v 30.508789 17.105471 -7.391602
v 30.508789 29.856447 -7.391602
v -26.367188 -97.543945 -7.391602
v -17.083130 -97.543945 -7.391602
v 17.083374 -97.543945 -7.391602
v 26.367310 -97.543945 -7.391602
v -10.251709 2.649414 7.391602
v 0.000000 12.901368 7.391602
v 10.251465 2.649414 7.391602
v -10.251709 -97.543938 7.391602
v 10.251465 -97.543938 7.391602
v 0.000000 12.901369 -7.391602
v 10.251465 2.649414 -7.391602
v -10.251709 2.649414 -7.391602
v -10.251709 -97.543945 -7.391602
v 10.251465 -97.543945 -7.391602
v -24.792114 72.751961 7.391602
v 0.000000 47.959961 7.391602
v 0.000000 97.543953 7.391602
v 24.791870 72.751961 7.391602
v -12.041626 72.751961 7.391602
v 0.000000 60.710938 7.391602
v 12.041748 72.751961 7.391602
v 0.000000 84.794930 7.391602
v -24.792114 72.751953 -7.391602
v 0.000000 47.959961 -7.391602
v 0.000000 60.710938 -7.391602
v -12.041626 72.751953 -7.391602
v 24.791870 72.751953 -7.391602
v 12.041748 72.751953 -7.391602
v 0.000000 97.543945 -7.391602
v 0.000000 84.794922 -7.391602
v 10.251465 -42.409180 7.391602
v 10.251465 -78.477531 7.391602
v 3.384521 -54.328125 7.391602
v 10.251465 -59.624023 -1.924805
v -26.367188 -36.525391 7.391602
v -26.367188 -2.447266 7.391602
v -19.695068 -19.613281 7.391602
v -26.367188 -12.675781 0.089844
v 35.811890 22.409178 7.391602
v 50.664063 37.260742 7.391602
v 39.416992 35.709961 7.391602
v 42.776367 29.374025 2.717773
v 9.283325 88.261726 7.391602
v 21.614624 75.930672 7.391602
v 17.015503 80.529297 -0.640625
v -22.908691 59.089844 7.391602
v -7.718140 43.900391 7.391602
v -21.661865 48.732422 7.391602
v -15.451660 51.633789 -0.821289
v -15.451782 51.633789 -0.821289
vt 0.026058 0.511781
vt 0.026058 0.511781
vt 0.026058 0.511781
vt 0.026058 0.511781
vt 0.026058 0.511781
vt 0.026058 0.511781
vt 0.026058 0.511781
vt 0.026058 0.511781
vt 0.026058 0.511781
vt 0.026058 0.511781
vt 0.026058 0.511781
vt 0.026058 0.511781
vt 0.026058 0.511781
vt 0.026058 0.511781
vt 0.026058 0.511781
vt 0.026058 0.511781
vt 0.026058 0.511781
vt 0.026058 0.511781
vt 0.026058 0.511781
vt 0.026058 0.511781
vt 0.026058 0.511781
vt 0.026058 0.511781
vt 0.026058 0.511781
vt 0.026058 0.511781
vt 0.026058 0.511781
vt 0.026058 0.511781
vt 0.026058 0.511781
vt 0.026058 0.511781
vt 0.009277 0.508654
vt 0.009277 0.508654
vt 0.009277 0.508654
vt 0.009277 0.508654
vt 0.009277 0.508654
vt 0.009277 0.508654
vt 0.009277 0.508654
vt 0.009277 0.508654
vt 0.009277 0.508654
vt 0.009277 0.508654
vt 0.009277 0.508654
vt 0.009277 0.508654
vt 0.009277 0.508654
vt 0.009277 0.508654
vt 0.009277 0.508654
vt 0.009277 0.508654
vt 0.009277 0.508654
vt 0.009277 0.508655
vt 0.009277 0.508654
vt 0.009277 0.508654
vt 0.009277 0.508654
vt 0.009277 0.508654
vt 0.009277 0.508654
vt 0.009277 0.508654
vt 0.009277 0.508654
vt 0.009277 0.508654
vt 0.009277 0.508654
vt 0.009277 0.508654
vt 0.009277 0.508654
vt 0.009277 0.508654
vt 0.009277 0.508654
vt 0.009277 0.508654
vt 0.009277 0.508654
vt 0.009277 0.508654
vt 0.009277 0.508654
vt 0.009277 0.508654
vt 0.009277 0.508654
vt 0.009277 0.508654
vt 0.009277 0.508654
vt 0.009277 0.508654
vt 0.009277 0.508654
vt 0.009277 0.508654
vt 0.009277 0.508654
vt 0.009277 0.508654
vt 0.009277 0.508654
vt 0.009277 0.508654
vt 0.009277 0.508654
vt 0.009277 0.508654
vt 0.009277 0.508654
vt 0.009277 0.508654
vt 0.009277 0.508654
vt 0.009277 0.508654
vt 0.009277 0.508655
vt 0.009277 0.508654
vt 0.009277 0.508654
vt 0.009277 0.508654
vt 0.026058 0.511781
vt 0.026058 0.511781
vt 0.026058 0.511781
vt 0.026058 0.511781
vt 0.026058 0.511781
vt 0.009277 0.508654
vt 0.009277 0.508655
vt 0.009277 0.508654
vt 0.009277 0.508654
vt 0.009277 0.508654
vt 0.009277 0.508654
vt 0.009277 0.508654
vt 0.009277 0.508654
vt 0.009277 0.508654
vt 0.009277 0.508654
vt 0.026058 0.511781
vt 0.026058 0.511781
vt 0.026058 0.511781
vt 0.026058 0.511781
vt 0.026058 0.511781
vt 0.026058 0.511781
vt 0.026058 0.511781
vt 0.026058 0.511781
vt 0.009277 0.508654
vt 0.009277 0.508654
vt 0.009277 0.508654
vt 0.009277 0.508654
vt 0.009277 0.508654
vt 0.009277 0.508654
vt 0.009277 0.508654
vt 0.009277 0.508654
vt 0.009277 0.508654
vt 0.009277 0.508654
vt 0.009277 0.508654
vt 0.009277 0.508654
vt 0.009277 0.508654
vt 0.009277 0.508654
vt 0.009277 0.508654
vt 0.009277 0.508654
vt 0.009277 0.508654
vt 0.026058 0.511781
vt 0.009277 0.508654
vt 0.026058 0.511781
vt 0.026058 0.511781
vt 0.009277 0.508654
vt 0.009277 0.508654
vt 0.009277 0.508654
vt 0.026058 0.511781
vt 0.009277 0.508654
vt 0.026058 0.511781
vt 0.026058 0.511781
vt 0.009277 0.508654
vt 0.026058 0.511781
vt 0.026058 0.511781
vt 0.009277 0.508654
vt 0.026058 0.511781
vt 0.009277 0.508654
vt 0.026058 0.511781
vt 0.009277 0.508654
vt 0.026058 0.511781
vt 0.009277 0.508654
vt 0.026058 0.511781
vt 0.009277 0.508655
vt 0.026058 0.511781
vt 0.009277 0.508654
vt 0.026058 0.511781
vt 0.026058 0.511781
vt 0.026058 0.511781
vt 0.026058 0.511781
vt 0.026058 0.511781
vt 0.026058 0.511781
vt 0.026058 0.511781
vt 0.026058 0.511781
vt 0.026058 0.511781
vt 0.009277 0.508654
vt 0.009277 0.508654
vt 0.009277 0.508654
vn 0.000000 0.000000 1.000000
vn 0.000000 0.000000 1.000000
vn 0.000000 0.000000 1.000000
vn 0.000000 0.000000 1.000000
vn 0.000000 0.000000 1.000000
vn 0.000000 0.000000 1.000000
vn 0.000000 0.000000 1.000000
vn 0.000000 0.000000 1.000000
vn 0.000000 0.000000 1.000000
vn 0.000000 0.000000 1.000000
vn 0.000000 0.000000 1.000000
vn 0.000000 0.000000 1.000000
vn 0.000000 0.000000 1.000000
vn 0.000000 0.000000 1.000000
vn 0.000000 0.000000 1.000000
vn 0.000000 0.000000 1.000000
vn 0.000000 0.000000 1.000000
vn 0.000000 0.000000 1.000000
vn 0.000000 0.000000 1.000000
vn 0.000000 0.000000 1.000000
vn 0.000000 0.000000 1.000000
vn 0.000000 0.000000 1.000000
vn 0.000000 0.000000 1.000000
vn 0.000000 0.000000 1.000000
vn 0.000000 0.000000 1.000000
vn 0.000000 0.000000 1.000000
vn 0.000000 0.000000 1.000000
vn -0.000000 0.000000 1.000000
vn -0.000000 0.000000 1.000000
vn -0.000000 0.000000 1.000000
vn -0.000000 0.000000 1.000000
vn -0.000000 0.000000 1.000000
vn -0.000000 0.000000 1.000000
vn -0.000000 0.000000 1.000000
vn -0.000000 0.000000 1.000000
vn 0.000000 0.000000 1.000000
vn 0.000000 0.000000 1.000000
vn 0.000000 0.000000 1.000000
vn 0.000000 0.000000 1.000000
vn 0.000000 0.000000 1.000000
vn 0.000000 0.000000 1.000000
vn 0.000000 0.000000 1.000000
vn 0.000000 0.000000 1.000000
vn 0.000000 0.000000 1.000000
vn 0.000000 0.000000 1.000000
vn 0.000000 0.000000 1.000000
vn 0.000000 0.000000 1.000000
vn 0.000000 0.000000 1.000000
vn 0.000000 0.000000 1.000000
vn 0.000000 0.000000 1.000000
vn 0.000000 0.000000 1.000000
vn 0.000000 0.000000 1.000000
vn 0.000000 0.000000 1.000000
vn 0.000000 0.000000 1.000000
vn 0.000000 0.000000 1.000000
vn 0.000000 0.000000 1.000000
vn 0.000000 0.000000 1.000000
vn 0.000000 0.000000 1.000000
vn 0.000000 0.000000 1.000000
vn 0.000000 0.000000 1.000000
vn 0.000000 0.000000 1.000000
vn 0.707139 0.707075 0.000000
vn 0.707139 0.707075 0.000000
vn 0.707139 0.707075 0.000000
vn 0.707139 0.707075 0.000000
vn -0.707133 -0.707081 0.000000
vn -0.707133 -0.707081 0.000000
vn -0.707133 -0.707081 0.000000
vn -0.707133 -0.707081 0.000000
vn -0.707123 -0.707091 0.000000
vn -0.707123 -0.707091 0.000000
vn -0.707123 -0.707091 0.000000
vn -0.707123 -0.707091 0.000000
vn 0.707114 0.707099 -0.000003
vn 0.707114 0.707099 -0.000003
vn 0.707114 0.707099 -0.000003
vn 0.707114 0.707099 -0.000003
vn 0.707114 0.707099 -0.000003
vn 0.707114 0.707099 -0.000003
vn 0.707114 0.707099 -0.000003
vn -0.707094 0.707119 0.000000
vn -0.707094 0.707119 0.000000
vn -0.707094 0.707119 0.000000
vn -0.707094 0.707119 0.000000
vn 0.707130 -0.707084 0.000000
vn 0.707130 -0.707084 0.000000
vn 0.707130 -0.707084 0.000000
vn 0.707130 -0.707084 0.000000
vn 0.707114 0.707100 0.000000
vn 0.707113 0.707100 0.000000
vn 0.707113 0.707100 0.000000
vn 0.707113 0.707100 0.000000
vn -0.707107 0.707107 0.000000
vn -0.707107 0.707107 0.000000
vn -0.707107 0.707107 0.000000
vn -0.707107 0.707107 0.000000
vn 0.707123 -0.707091 0.000000
vn 0.707123 -0.707091 0.000000
vn 0.707123 -0.707091 0.000000
vn 0.707123 -0.707091 0.000000
vn -0.707105 0.707109 0.000000
vn -0.707105 0.707109 0.000000
vn -0.707105 0.707109 0.000000
vn -0.707105 0.707109 0.000000
vn 0.707124 -0.707089 -0.000000
vn 0.707124 -0.707089 -0.000000
vn 0.707124 -0.707089 -0.000000
vn 0.707124 -0.707089 -0.000000
vn 0.707096 0.707117 0.000000
vn 0.707096 0.707117 0.000000
vn 0.707096 0.707117 0.000000
vn 0.707096 0.707117 0.000000
vn -0.707078 -0.707136 0.000000
vn -0.707078 -0.707136 0.000000
vn -0.707078 -0.707136 0.000000
vn -0.707078 -0.707136 0.000000
vn -0.707119 -0.707094 -0.000000
vn -0.707119 -0.707094 -0.000000
vn -0.707119 -0.707094 -0.000000
vn -0.707119 -0.707094 -0.000000
vn 0.707107 0.707107 0.000000
vn 0.707107 0.707107 0.000000
vn 0.707107 0.707107 0.000000
vn 0.707107 0.707107 0.000000
vn -0.707100 0.707114 0.000000
vn -0.707100 0.707114 0.000000
vn -0.707100 0.707114 0.000000
vn -0.707100 0.707114 0.000000
vn -0.707123 -0.707090 -0.000000
vn -0.707123 -0.707090 -0.000000
vn -0.707123 -0.707090 -0.000000
vn -0.707123 -0.707090 -0.000000
vn 0.707094 0.707120 0.000000
vn 0.707094 0.707120 0.000000
vn 0.707094 0.707120 0.000000
vn 0.707094 0.707120 0.000000
vn 0.707143 -0.707071 -0.000024
vn 0.707143 -0.707071 -0.000024
vn 0.707143 -0.707071 -0.000024
vn 0.707143 -0.707071 -0.000024
vn 0.707143 -0.707071 -0.000024
vn 0.707143 -0.707071 -0.000024
vn 0.707143 -0.707071 -0.000024
vn -0.707135 0.707078 0.000000
vn -0.707135 0.707078 0.000000
vn -0.707135 0.707078 0.000000
vn -0.707135 0.707078 0.000000
vn -1.000000 0.000000 0.000000
vn -1.000000 0.000000 0.000000
vn -1.000000 0.000000 0.000000
vn -1.000000 0.000000 0.000000
vn -1.000000 0.000000 0.000000
vn -1.000000 0.000000 0.000000
vn -1.000000 0.000000 0.000000
vn 0.000000 -1.000000 0.000001
vn 0.000000 -1.000000 0.000001
vn 0.000000 -1.000000 0.000001
vn 0.000000 -1.000000 0.000001
vn 1.000000 0.000000 0.000000
vn 1.000000 0.000000 0.000000
vn 1.000000 0.000000 0.000000
vn 1.000000 0.000000 0.000000
vn -1.000000 0.000000 0.000000
vn -1.000000 0.000000 0.000000
vn -1.000000 0.000000 0.000000
vn -1.000000 0.000000 0.000000
vn 0.000000 -1.000000 0.000000
vn 0.000000 -1.000000 0.000000
vn 0.000000 -1.000000 0.000000
vn 0.000000 -1.000000 0.000000
vn 1.000000 0.000000 0.000000
vn 1.000000 0.000000 0.000000
vn 1.000000 0.000000 0.000000
vn 1.000000 0.000000 0.000000
vn 0.707082 -0.707132 0.000000
vn 0.707082 -0.707132 0.000000
vn 0.707082 -0.707132 0.000000
vn 0.707082 -0.707132 0.000000
vn -0.707091 0.707122 0.000000
vn -0.707091 0.707122 0.000000
vn -0.707091 0.707122 0.000000
vn -0.707091 0.707122 0.000000
vn 0.000000 0.000000 1.000000
vn 0.000000 0.000000 1.000000
vn 0.000000 0.000000 1.000000
vn 0.000000 0.000000 1.000000
vn 0.000000 0.000000 1.000000
vn 0.000000 0.000000 1.000000
vn 0.000000 0.000000 1.000000
vn 0.000000 0.000000 1.000000
vn 0.000000 0.000000 1.000000
vn 0.000000 0.000000 1.000000
vn 0.707124 0.707090 0.000000
vn 0.707124 0.707090 0.000000
vn 0.707124 0.707090 0.000000
vn 0.707124 0.707090 0.000000
vn -0.707115 0.707098 0.000000
vn -0.707115 0.707098 0.000000
vn -0.707115 0.707098 0.000000
vn -0.707115 0.707098 0.000000
vn -1.000000 0.000000 0.000000
vn -1.000000 0.000000 0.000000
vn -1.000000 0.000000 0.000000
vn -1.000000 0.000000 0.000000
vn 0.000000 -1.000000 0.000000
vn 0.000000 -1.000000 0.000000
vn 0.000000 -1.000000 0.000000
vn 0.000000 -1.000000 0.000000
vn 1.000000 0.000000 0.000000
vn 1.000000 0.000000 0.000000
vn 1.000000 0.000000 0.000000
vn 1.000000 0.000000 0.000000
vn 1.000000 0.000000 0.000000
vn 1.000000 0.000000 0.000000
vn 1.000000 0.000000 0.000000
vn -0.000000 0.000000 1.000000
vn -0.000000 0.000000 1.000000
vn -0.000000 0.000000 1.000000
vn -0.000000 0.000000 1.000000
vn 0.000000 0.000000 1.000000
vn 0.000000 0.000000 1.000000
vn 0.000000 0.000000 1.000000
vn 0.000000 0.000000 1.000000
vn 0.000000 0.000000 1.000000
vn 0.000000 0.000000 1.000000
vn 0.000000 0.000000 1.000000
vn 0.000000 0.000000 1.000000
vn 0.000000 0.000000 1.000000
vn 0.000000 0.000000 1.000000
vn 0.000000 0.000000 1.000000
vn -0.707105 -0.707108 0.000000
vn -0.707105 -0.707108 0.000000
vn -0.707105 -0.707108 0.000000
vn -0.707105 -0.707108 0.000000
vn 0.707089 0.707125 0.000000
vn 0.707089 0.707125 0.000000
vn 0.707089 0.707125 0.000000
vn 0.707089 0.707125 0.000000
vn 0.707109 -0.707105 0.000000
vn 0.707109 -0.707105 0.000000
vn 0.707109 -0.707105 0.000000
vn 0.707109 -0.707105 0.000000
vn -0.707085 0.707128 0.000000
vn -0.707085 0.707128 0.000000
vn -0.707085 0.707128 0.000000
vn -0.707085 0.707128 0.000000
vn 0.707110 0.707104 -0.000048
vn 0.707110 0.707104 -0.000048
vn 0.707110 0.707104 -0.000048
vn 0.707110 0.707104 -0.000048
vn 0.707110 0.707104 -0.000048
vn 0.707110 0.707104 -0.000048
vn 0.707110 0.707104 -0.000048
vn -0.707143 -0.707071 0.000000
vn -0.707143 -0.707071 0.000000
vn -0.707143 -0.707071 0.000000
vn -0.707143 -0.707071 0.000000
vn -0.707105 0.707109 0.000000
vn -0.707105 0.707109 0.000000
vn -0.707105 0.707109 0.000000
vn -0.707105 0.707109 0.000000
vn 0.707146 -0.707067 0.000000
vn 0.707146 -0.707067 0.000000
vn 0.707146 -0.707067 0.000000
vn 0.707146 -0.707067 0.000000
vn 0.841559 0.239299 0.484268
vn 0.841559 0.239299 0.484268
vn 0.841559 0.239299 0.484268
vn 0.636894 -0.366938 0.678028
vn 0.636894 -0.366938 0.678028
vn 0.636894 -0.366938 0.678028
vn -0.831163 -0.323058 0.452549
vn -0.831163 -0.323058 0.452549
vn -0.831163 -0.323058 0.452549
vn -0.595899 0.235092 0.767878
vn -0.595899 0.235092 0.767878
vn -0.595899 0.235092 0.767878
vn 0.666180 -0.180564 0.723603
vn 0.666180 -0.180564 0.723603
vn 0.666180 -0.180564 0.723603
vn 0.077871 -0.564761 0.821572
vn 0.077871 -0.564761 0.821572
vn 0.077871 -0.564761 0.821572
vn 0.000000 0.000000 1.000000
vn 0.000000 0.000000 1.000000
vn 0.000000 0.000000 1.000000
vn 0.000000 0.000000 1.000000
vn 0.776619 0.138122 0.614642
vn 0.776620 0.138122 0.614642
vn 0.776620 0.138122 0.614642
vn -0.255283 0.768800 0.586325
vn -0.255283 0.768800 0.586325
vn -0.255283 0.768800 0.586325
vn 0.283071 0.816855 0.502612
vn 0.283071 0.816855 0.502612
vn 0.283071 0.816855 0.502612
vn 0.000000 0.000000 0.000000
vn 0.000000 0.717900 0.696146
vn 0.000000 0.717900 0.696146
vn 0.000000 -0.739940 0.672673
vn 0.000000 -0.739940 0.672673
vn 0.000000 -0.000000 0.000000
vn 0.777943 0.093649 0.621316
vn 0.777943 0.093649 0.621317
vn 0.777943 0.093649 0.621317
s off
f 3/1/1 1/2/2 2/3/3 4/4/4
f 5/5/5 8/6/6 9/7/7 6/8/8 99/154/9 100/155/10 98/152/11
f 7/9/12 1/2/13 3/1/14 10/10/15
f 12/11/16 6/8/17 13/12/18 14/13/19
f 9/7/20 15/14/21 13/12/22 6/8/23
f 9/7/24 11/15/25 16/16/26 15/14/27
f 19/17/28 12/11/29 14/13/30 20/18/31
f 15/14/32 21/19/33 23/20/34 13/12/35
f 18/21/36 17/22/37 24/23/38 22/24/39
f 24/23/40 91/138/41 93/142/42 92/140/43 19/17/44 20/18/45 22/24/46
f 16/16/47 11/15/48 88/134/49 89/135/50 87/132/51 25/25/52 26/26/53
f 21/19/54 27/27/55 28/28/56 23/20/57
f 4/4/58 2/3/59 8/6/60 5/5/61
f 1/29/62 30/30/63 31/31/64 2/32/65
f 4/33/66 32/34/67 29/35/68 3/36/69
f 8/37/70 34/38/71 35/39/72 9/40/73
f 6/41/74 36/42/75 33/43/76 5/44/77 98/45/78 101/46/79 99/47/80
f 7/48/81 37/49/82 30/30/83 1/29/84
f 3/36/85 29/35/86 38/50/87 10/51/88
f 10/51/89 38/50/90 37/49/91 7/48/92
f 12/52/93 39/53/94 36/42/95 6/41/96
f 13/54/97 40/55/98 41/56/99 14/57/100
f 9/40/101 35/39/102 43/58/103 11/59/104
f 16/60/105 44/61/106 42/62/107 15/63/108
f 19/64/109 45/65/110 39/53/111 12/52/112
f 14/57/113 41/56/114 46/66/115 20/67/116
f 15/63/117 42/62/118 47/68/119 21/69/120
f 23/70/121 48/71/122 40/55/123 13/54/124
f 18/72/125 50/73/126 49/74/127 17/75/128
f 17/75/129 49/74/130 51/76/131 24/77/132
f 22/78/133 52/79/134 50/73/135 18/72/136
f 24/77/137 51/76/138 45/65/139 19/64/140 92/80/141 94/81/142 91/82/143
f 20/67/144 46/66/145 52/79/146 22/78/147
f 11/59/148 43/58/149 53/83/150 25/84/151 87/90/152 90/91/153 88/92/154
f 25/84/155 53/83/156 54/93/157 26/94/158
f 26/94/159 54/93/160 44/61/161 16/60/162
f 21/69/163 47/68/164 55/95/165 27/96/166
f 27/96/167 55/95/168 56/97/169 28/98/170
f 28/98/171 56/97/172 48/71/173 23/70/174
f 2/32/175 31/31/176 34/38/177 8/37/178
f 5/44/179 33/43/180 32/34/181 4/33/182
f 59/85/183 58/86/184 57/87/185
f 59/85/186 57/87/187 60/88/188 61/89/189 84/127/190 85/128/191 83/125/192
f 59/99/193 63/108/194 62/109/195 58/110/196
f 58/110/197 62/109/198 64/111/199 57/112/200
f 57/112/201 64/111/202 65/113/203 60/114/204
f 60/114/205 65/113/206 66/115/207 61/116/208
f 61/116/209 66/115/210 63/108/211 59/99/212 83/117/213 86/118/214 84/119/215
f 67/100/216 68/101/217 72/102/218 71/103/219
f 68/101/220 70/104/221 73/105/222 72/102/223
f 70/104/224 96/148/225 73/105/226
f 69/106/227 67/100/228 71/103/229 74/107/230
f 67/120/231 75/121/232 76/122/233 68/123/234
f 72/124/235 77/126/236 78/129/237 71/130/238
f 68/123/239 76/122/240 79/131/241 70/133/242
f 73/136/243 80/139/244 77/126/245 72/124/246
f 70/133/247 79/131/248 81/141/249 69/143/250 95/145/251 97/147/252 96/149/253
f 74/159/254 82/160/255 80/139/256 73/136/257
f 69/143/258 81/141/259 75/121/260 67/120/261
f 71/130/262 78/129/263 82/160/264 74/159/265
f 84/119/266 86/118/267 85/161/268
f 85/161/269 86/118/270 83/117/271
f 90/137/272 89/135/273 88/134/274
f 87/132/275 89/135/276 90/137/277
f 94/144/278 93/142/279 91/138/280
f 92/140/281 93/142/282 94/144/283
f 73/105/284 95/146/285 69/106/286 74/107/287
f 73/105/288 97/150/289 95/146/290
f 73/105/291 96/148/292 97/150/293
f 102/158/294 100/155/295 99/154/296
f 99/153/297 101/156/298 102/157/299
f 102/157/300 101/156/301 98/151/302
f 98/152/303 100/155/304 102/158/305
