# This file uses centimeters as units for non-parametric coordinates.

v -3.796875 18.995115 7.391602
v 15.195435 0.000000 7.391602
v -4.328735 -18.993164 7.391602
v -8.325684 -9.345702 7.391602
v 8.373535 -6.823243 7.391602
v -7.793945 9.345704 7.391602
v -1.502441 -16.166992 7.391602
v -41.789307 -18.993164 7.391602
v -60.781738 0.000000 7.391602
v -41.789307 18.995115 7.391602
v -37.792358 9.345704 7.391602
v -37.792358 -9.345702 7.391602
v -47.129517 -0.007812 7.391602
v 15.195435 0.000000 -7.391602
v -3.796875 18.995119 -7.391602
v -7.793945 9.345705 -7.391602
v 8.373535 -6.823242 -7.391602
v -41.789307 18.995119 -7.391602
v -37.792358 9.345705 -7.391602
v -4.328735 -18.993164 -7.391602
v -1.502441 -16.166992 -7.391602
v -8.325684 -9.345703 -7.391602
v -47.129517 -0.007813 -7.391602
v -60.781738 0.000000 -7.391602
v -41.789307 -18.993164 -7.391602
v -37.792358 -9.345703 -7.391602
v -18.994385 28.276367 7.391602
v 0.000000 47.270508 7.391602
v 18.994385 28.276367 7.391602
v 9.345093 24.280273 7.391602
v -9.345215 24.280273 7.391602
v -0.007935 33.617188 7.391602
v -9.345215 20.927732 7.391602
v -18.994385 20.927732 7.391602
v 9.345093 20.927732 7.391602
v 18.994385 20.927732 7.391602
v 9.345093 20.927736 -7.391602
v 18.994385 20.927736 -7.391602
v 18.994385 28.276369 -7.391602
v 9.345093 24.280275 -7.391602
v -0.007935 33.617188 -7.391602
v 0.000000 47.270508 -7.391602
v -18.994385 28.276369 -7.391602
v -9.345215 24.280275 -7.391602
v -9.345215 20.927736 -7.391602
v -18.994385 20.927736 -7.391602
v 3.796997 -18.993164 7.391602
v -15.195435 0.000000 7.391602
v 4.328491 18.995115 7.391602
v 8.325684 9.345704 7.391602
v -8.373535 6.823242 7.391602
v 7.793945 -9.345702 7.391602
v 1.502319 16.168943 7.391602
v 41.789307 18.995117 2.241211
v 60.781738 0.000000 7.391602
v 41.789307 -18.993164 7.391602
v 37.792358 -9.345702 7.391602
v 37.792358 9.345704 7.391602
v 47.129517 0.007813 7.391602
v -15.195435 0.000000 -7.391602
v 3.796997 -18.993164 -7.391602
v 7.793945 -9.345703 -7.391602
v -8.373535 6.823244 -7.391602
v 41.789307 -18.993164 -7.391602
v 37.792358 -9.345703 -7.391602
v 4.328491 18.995119 -7.391602
v 1.502319 16.168947 -7.391602
v 8.325684 9.345705 -7.391602
v 47.129517 0.007813 -7.391602
v 60.781738 0.000000 -7.391602
v 41.789307 18.995119 -7.391602
v 37.792358 9.345705 -7.391602
v 18.994385 -28.278322 7.391602
v 0.000000 -47.270508 7.391602
v -18.994385 -28.278322 7.391602
v -9.345215 -24.280273 7.391602
v 9.345093 -24.280273 7.391602
v 0.007935 -33.619141 7.391602
v 9.345093 -20.927734 7.391602
v 18.994385 -20.927734 7.391602
v -9.345215 -20.927734 7.391602
v -18.994385 -20.927734 7.391602
v -9.345215 -20.927734 -7.391602
v -18.994385 -20.927734 -7.391602
v -18.994385 -28.278320 -7.391602
v -9.345215 -24.280273 -7.391602
v 0.007935 -33.619141 -7.391602
v 0.000000 -47.270508 -7.391602
v 18.994385 -28.278320 -7.391602
v 9.345093 -24.280273 -7.391602
v 9.345093 -20.927734 -7.391602
v 18.994385 -20.927734 -7.391602
v 15.035889 -18.993164 7.391602
v 37.946899 -18.993164 7.391602
v 29.154297 -14.181640 7.391602
v 26.714355 -18.993164 0.512695
v 26.714355 -18.993164 0.512695
v 47.761597 13.021485 7.391602
v 39.085083 12.465821 7.391602
v 32.864136 18.995115 7.391602
v 41.789307 18.995117 2.241211
v -16.689453 18.995115 7.391602
v -38.175171 18.995115 7.391602
v -29.684204 14.523438 7.391602
v -26.969849 18.995117 1.762695
v -26.969604 18.995117 1.762695
vt 0.026058 0.511781
vt 0.026058 0.511781
vt 0.026058 0.511781
vt 0.026058 0.511781
vt 0.026058 0.511781
vt 0.026058 0.511781
vt 0.026058 0.511781
vt 0.026058 0.511781
vt 0.026058 0.511781
vt 0.026058 0.511781
vt 0.026058 0.511781
vt 0.026058 0.511781
vt 0.026058 0.511781
vt 0.026058 0.511781
vt 0.026058 0.511781
vt 0.009277 0.508654
vt 0.009277 0.508654
vt 0.009277 0.508654
vt 0.009277 0.508654
vt 0.009277 0.508654
vt 0.009277 0.508654
vt 0.009277 0.508654
vt 0.009277 0.508654
vt 0.009277 0.508654
vt 0.009277 0.508654
vt 0.009277 0.508654
vt 0.009277 0.508655
vt 0.009277 0.508654
vt 0.009277 0.508654
vt 0.009277 0.508654
vt 0.009277 0.508654
vt 0.009277 0.508654
vt 0.009277 0.508654
vt 0.009277 0.508654
vt 0.009277 0.508654
vt 0.009277 0.508654
vt 0.009277 0.508654
vt 0.009277 0.508654
vt 0.009277 0.508654
vt 0.009277 0.508654
vt 0.009277 0.508654
vt 0.009277 0.508654
vt 0.009277 0.508654
vt 0.009277 0.508654
vt 0.009277 0.508654
vt 0.026058 0.511781
vt 0.026058 0.511781
vt 0.026058 0.511781
vt 0.026058 0.511781
vt 0.026058 0.511781
vt 0.026058 0.511781
vt 0.026058 0.511781
vt 0.026058 0.511781
vt 0.026058 0.511781
vt 0.026058 0.511781
vt 0.026058 0.511781
vt 0.026058 0.511781
vt 0.009277 0.508654
vt 0.009277 0.508654
vt 0.009277 0.508654
vt 0.009277 0.508654
vt 0.009277 0.508654
vt 0.009277 0.508654
vt 0.009277 0.508654
vt 0.009277 0.508654
vt 0.009277 0.508654
vt 0.009277 0.508654
vt 0.009277 0.508654
vt 0.009277 0.508654
vt 0.009277 0.508654
vt 0.009277 0.508654
vt 0.009277 0.508654
vt 0.009277 0.508654
vt 0.009277 0.508654
vt 0.009277 0.508654
vt 0.009277 0.508654
vt 0.009277 0.508654
vt 0.009277 0.508654
vt 0.009277 0.508654
vt 0.009277 0.508654
vt 0.009277 0.508654
vt 0.026058 0.511781
vt 0.026058 0.511781
vt 0.026058 0.511781
vt 0.026058 0.511781
vt 0.026058 0.511781
vt 0.026058 0.511781
vt 0.026058 0.511781
vt 0.026058 0.511781
vt 0.026058 0.511781
vt 0.026058 0.511781
vt 0.026058 0.511781
vt 0.026058 0.511781
vt 0.026058 0.511781
vt 0.026058 0.511781
vt 0.026058 0.511781
vt 0.009277 0.508654
vt 0.009277 0.508654
vt 0.009277 0.508654
vt 0.009277 0.508654
vt 0.009277 0.508654
vt 0.009277 0.508654
vt 0.009277 0.508655
vt 0.009277 0.508654
vt 0.009277 0.508654
vt 0.009277 0.508654
vt 0.009277 0.508654
vt 0.009277 0.508654
vt 0.009277 0.508654
vt 0.009277 0.508654
vt 0.009277 0.508654
vt 0.009277 0.508654
vt 0.009277 0.508654
vt 0.009277 0.508654
vt 0.009277 0.508654
vt 0.009277 0.508655
vt 0.009277 0.508654
vt 0.026058 0.511781
vt 0.009277 0.508654
vt 0.009277 0.508654
vt 0.009277 0.508654
vt 0.009277 0.508654
vt 0.009277 0.508654
vt 0.009277 0.508654
vt 0.009277 0.508654
vt 0.009277 0.508654
vt 0.026058 0.511781
vt 0.026058 0.511781
vt 0.026058 0.511781
vt 0.026058 0.511781
vt 0.026058 0.511781
vt 0.026058 0.511781
vt 0.026058 0.511781
vt 0.026058 0.511781
vt 0.026058 0.511781
vt 0.026058 0.511781
vt 0.026058 0.511781
vt 0.026058 0.511781
vt 0.009277 0.508654
vt 0.009277 0.508654
vt 0.009277 0.508654
vt 0.009277 0.508654
vt 0.009277 0.508654
vt 0.009277 0.508654
vt 0.009277 0.508654
vt 0.009277 0.508654
vt 0.009277 0.508654
vt 0.009277 0.508654
vt 0.009277 0.508654
vt 0.009277 0.508654
vt 0.009277 0.508654
vt 0.009277 0.508654
vt 0.009277 0.508654
vt 0.009277 0.508654
vt 0.009277 0.508654
vt 0.026058 0.511781
vt 0.026058 0.511781
vt 0.026058 0.511781
vt 0.026058 0.511781
vt 0.026058 0.511781
vt 0.026058 0.511781
vt 0.026058 0.511781
vt 0.026058 0.511781
vt 0.026058 0.511781
vt 0.026058 0.511781
vt 0.026058 0.511781
vt 0.026058 0.511781
vt 0.026058 0.511781
vt 0.026058 0.511781
vt 0.026058 0.511781
vt 0.026058 0.511781
vt 0.026058 0.511781
vt 0.026058 0.511781
vt 0.026058 0.511781
vt 0.026058 0.511781
vt 0.026058 0.511781
vt 0.026058 0.511781
vn -0.000000 0.000000 1.000000
vn -0.000000 0.000000 1.000000
vn -0.000000 0.000000 1.000000
vn -0.000000 0.000000 1.000000
vn 0.000000 0.000000 1.000000
vn 0.000000 0.000000 1.000000
vn 0.000000 0.000000 1.000000
vn 0.000000 0.000000 1.000000
vn 0.000000 0.000000 1.000000
vn 0.000000 0.000000 1.000000
vn 0.000000 0.000000 1.000000
vn 0.000000 0.000000 1.000000
vn 0.000000 0.000000 1.000000
vn 0.000000 0.000000 1.000000
vn 0.000000 0.000000 1.000000
vn 0.000000 0.000000 1.000000
vn 0.000000 0.000000 1.000000
vn 0.000000 0.000000 1.000000
vn 0.000000 0.000000 1.000000
vn 0.000000 0.000000 1.000000
vn 0.000000 0.000000 1.000000
vn 0.000000 0.000000 1.000000
vn 0.000000 0.000000 1.000000
vn 0.000000 0.000000 1.000000
vn 0.000000 0.000000 1.000000
vn 0.000000 0.000000 1.000000
vn 0.707159 0.707054 0.000000
vn 0.707159 0.707054 0.000000
vn 0.707159 0.707054 0.000000
vn 0.707159 0.707055 0.000000
vn -0.707139 -0.707075 -0.000000
vn -0.707139 -0.707075 -0.000000
vn -0.707139 -0.707075 -0.000000
vn -0.707139 -0.707075 -0.000000
vn 0.707176 -0.707037 -0.000000
vn 0.707176 -0.707037 -0.000000
vn 0.707176 -0.707037 -0.000000
vn 0.707176 -0.707037 -0.000000
vn 0.000000 1.000000 0.000000
vn 0.000000 1.000000 0.000000
vn 0.000000 1.000000 0.000000
vn 0.000000 1.000000 0.000000
vn 0.000000 1.000000 0.000000
vn 0.000000 1.000000 0.000000
vn 0.000000 1.000000 0.000000
vn 0.000000 -1.000000 -0.000000
vn 0.000000 -1.000000 -0.000000
vn 0.000000 -1.000000 -0.000000
vn 0.000000 -1.000000 -0.000000
vn 0.707092 -0.707122 0.000000
vn 0.707092 -0.707122 0.000000
vn 0.707092 -0.707122 0.000000
vn 0.707092 -0.707122 0.000000
vn 0.707006 0.707208 0.000000
vn 0.707006 0.707208 0.000000
vn 0.707006 0.707208 0.000000
vn 0.707006 0.707208 0.000000
vn -0.707120 -0.707093 0.000000
vn -0.707120 -0.707093 0.000000
vn -0.707120 -0.707093 0.000000
vn -0.707120 -0.707093 0.000000
vn 0.707135 0.707079 -0.000000
vn 0.707135 0.707079 -0.000000
vn 0.707135 0.707079 -0.000000
vn 0.707135 0.707079 -0.000000
vn 0.000000 1.000000 0.000000
vn 0.000000 1.000000 0.000000
vn 0.000000 1.000000 0.000000
vn 0.000000 1.000000 0.000000
vn 0.000000 -1.000000 0.000000
vn 0.000000 -1.000000 0.000000
vn 0.000000 -1.000000 0.000000
vn 0.000000 -1.000000 0.000000
vn -0.707157 0.707057 0.000000
vn -0.707157 0.707057 0.000000
vn -0.707157 0.707057 0.000000
vn -0.707157 0.707057 0.000000
vn 0.707725 -0.706488 -0.000000
vn 0.707725 -0.706488 -0.000000
vn 0.707725 -0.706488 -0.000000
vn 0.707725 -0.706488 -0.000000
vn 0.000000 0.000000 1.000000
vn 0.000000 0.000000 1.000000
vn 0.000000 0.000000 1.000000
vn 0.000000 0.000000 1.000000
vn 0.000000 0.000000 1.000000
vn 0.000000 0.000000 1.000000
vn 0.000000 0.000000 1.000000
vn 0.000000 0.000000 1.000000
vn -0.000000 0.000000 1.000000
vn -0.000000 0.000000 1.000000
vn -0.000000 0.000000 1.000000
vn -0.000000 0.000000 1.000000
vn 0.000000 0.000000 1.000000
vn 0.000000 0.000000 1.000000
vn 0.000000 0.000000 1.000000
vn 0.000000 0.000000 1.000000
vn 0.000000 -1.000000 -0.000000
vn 0.000000 -1.000000 -0.000000
vn 0.000000 -1.000000 -0.000000
vn 0.000000 -1.000000 -0.000000
vn 1.000000 0.000000 0.000000
vn 1.000000 0.000000 0.000000
vn 1.000000 0.000000 0.000000
vn 1.000000 0.000000 0.000000
vn -1.000000 0.000000 0.000000
vn -1.000000 0.000000 0.000000
vn -1.000000 0.000000 0.000000
vn -1.000000 0.000000 0.000000
vn -0.707102 0.707111 0.000000
vn -0.707102 0.707111 0.000000
vn -0.707102 0.707111 0.000000
vn -0.707102 0.707111 0.000000
vn 0.707093 -0.707121 0.000000
vn 0.707093 -0.707121 0.000000
vn 0.707093 -0.707121 0.000000
vn 0.707093 -0.707121 0.000000
vn 0.707102 0.707111 0.000000
vn 0.707102 0.707111 0.000000
vn 0.707102 0.707111 0.000000
vn 0.707102 0.707111 0.000000
vn -0.706497 -0.707716 0.000000
vn -0.706497 -0.707716 0.000000
vn -0.706497 -0.707716 0.000000
vn -0.706497 -0.707716 0.000000
vn 0.000000 -1.000000 -0.000000
vn 0.000000 -1.000000 -0.000000
vn 0.000000 -1.000000 -0.000000
vn 0.000000 -1.000000 -0.000000
vn 1.000000 0.000000 0.000000
vn 1.000000 0.000000 0.000000
vn 1.000000 0.000000 0.000000
vn 1.000000 0.000000 0.000000
vn -1.000000 0.000000 0.000000
vn -1.000000 0.000000 0.000000
vn -1.000000 0.000000 0.000000
vn -1.000000 0.000000 0.000000
vn -0.000000 0.000000 1.000000
vn -0.000000 0.000000 1.000000
vn -0.000000 0.000000 1.000000
vn -0.000000 0.000000 1.000000
vn 0.000000 0.000000 1.000000
vn 0.000000 0.000000 1.000000
vn 0.000000 0.000000 1.000000
vn 0.000000 0.000000 1.000000
vn 0.000000 0.000000 1.000000
vn 0.000000 0.000000 1.000000
vn 0.000000 0.000000 1.000000
vn 0.000000 0.000000 1.000000
vn 0.000000 0.000000 1.000000
vn 0.000000 0.000000 1.000000
vn 0.000000 0.000000 1.000000
vn 0.000000 0.000000 1.000000
vn 0.000000 0.000000 1.000000
vn 0.000000 0.000000 1.000000
vn 0.000000 0.000000 1.000000
vn 0.000000 0.000000 1.000000
vn 0.000000 0.000000 1.000000
vn 0.000000 0.000000 1.000000
vn 0.000000 0.000000 1.000000
vn 0.000000 0.000000 1.000000
vn -0.000000 0.000000 1.000000
vn -0.000000 0.000000 1.000000
vn -0.000000 0.000000 1.000000
vn -0.000000 0.000000 1.000000
vn -0.707120 -0.707093 0.000000
vn -0.707120 -0.707093 0.000000
vn -0.707120 -0.707093 0.000000
vn -0.707120 -0.707093 0.000000
vn 0.707139 0.707075 0.000000
vn 0.707139 0.707075 0.000000
vn 0.707139 0.707075 0.000000
vn 0.707139 0.707075 0.000000
vn -0.707176 0.707037 0.000000
vn -0.707176 0.707037 0.000000
vn -0.707176 0.707037 0.000000
vn -0.707176 0.707037 0.000000
vn 0.000000 -1.000000 -0.000000
vn 0.000000 -1.000000 -0.000000
vn 0.000000 -1.000000 -0.000000
vn 0.000000 -1.000000 -0.000000
vn 0.000000 -1.000000 -0.000000
vn 0.000000 -1.000000 -0.000000
vn 0.000000 -1.000000 -0.000000
vn 0.000000 1.000000 -0.000000
vn 0.000000 1.000000 -0.000000
vn 0.000000 1.000000 -0.000000
vn 0.000000 1.000000 -0.000000
vn -0.707107 0.707107 0.000000
vn -0.707107 0.707107 0.000000
vn -0.707107 0.707107 0.000000
vn -0.707107 0.707107 0.000000
vn -0.707100 -0.707113 -0.000000
vn -0.707100 -0.707113 -0.000000
vn -0.707100 -0.707113 -0.000000
vn -0.707100 -0.707113 -0.000000
vn 0.707155 0.707058 0.000013
vn 0.707155 0.707058 0.000013
vn 0.707155 0.707058 0.000013
vn 0.707155 0.707058 0.000013
vn 0.707155 0.707058 0.000013
vn -0.707135 -0.707079 -0.000000
vn -0.707135 -0.707079 -0.000000
vn -0.707135 -0.707079 -0.000000
vn -0.707135 -0.707079 -0.000000
vn 0.000000 -1.000000 -0.000000
vn 0.000000 -1.000000 -0.000000
vn 0.000000 -1.000000 -0.000000
vn 0.000000 -1.000000 -0.000000
vn -0.000000 1.000000 0.000000
vn -0.000000 1.000000 0.000000
vn -0.000000 1.000000 0.000000
vn -0.000000 1.000000 0.000000
vn -0.000000 1.000000 0.000000
vn 0.707120 -0.707093 0.000000
vn 0.707120 -0.707093 0.000000
vn 0.707120 -0.707093 0.000000
vn 0.707120 -0.707093 0.000000
vn -0.707725 0.706488 -0.000000
vn -0.707725 0.706488 -0.000000
vn -0.707725 0.706488 -0.000000
vn -0.707725 0.706488 -0.000000
vn 0.000000 0.000000 1.000000
vn 0.000000 0.000000 1.000000
vn 0.000000 0.000000 1.000000
vn 0.000000 0.000000 1.000000
vn -0.000000 0.000000 1.000000
vn -0.000000 0.000000 1.000000
vn -0.000000 0.000000 1.000000
vn -0.000000 0.000000 1.000000
vn 0.000000 0.000000 1.000000
vn 0.000000 0.000000 1.000000
vn 0.000000 0.000000 1.000000
vn 0.000000 0.000000 1.000000
vn 0.000000 0.000000 1.000000
vn 0.000000 0.000000 1.000000
vn 0.000000 0.000000 1.000000
vn 0.000000 0.000000 1.000000
vn 0.000000 1.000000 0.000000
vn 0.000000 1.000000 0.000000
vn 0.000000 1.000000 0.000000
vn 0.000000 1.000000 0.000000
vn -1.000000 0.000000 0.000000
vn -1.000000 0.000000 0.000000
vn -1.000000 0.000000 0.000000
vn -1.000000 0.000000 0.000000
vn 1.000000 0.000000 0.000000
vn 1.000000 0.000000 0.000000
vn 1.000000 0.000000 0.000000
vn 1.000000 0.000000 0.000000
vn 0.707066 -0.707148 0.000000
vn 0.707066 -0.707148 0.000000
vn 0.707066 -0.707148 0.000000
vn 0.707066 -0.707148 0.000000
vn -0.707171 0.707042 0.000000
vn -0.707171 0.707042 0.000000
vn -0.707171 0.707042 0.000000
vn -0.707171 0.707042 0.000000
vn -0.707066 -0.707148 0.000000
vn -0.707066 -0.707148 0.000000
vn -0.707066 -0.707148 0.000000
vn -0.707066 -0.707148 0.000000
vn 0.706566 0.707647 0.000000
vn 0.706566 0.707647 0.000000
vn 0.706566 0.707647 0.000000
vn 0.706566 0.707647 0.000000
vn 0.000000 1.000000 0.000000
vn 0.000000 1.000000 0.000000
vn 0.000000 1.000000 0.000000
vn 0.000000 1.000000 0.000000
vn -1.000000 0.000000 0.000000
vn -1.000000 0.000000 0.000000
vn -1.000000 0.000000 0.000000
vn -1.000000 0.000000 0.000000
vn 1.000000 0.000000 0.000000
vn 1.000000 0.000000 0.000000
vn 1.000000 0.000000 0.000000
vn 1.000000 0.000000 0.000000
vn 0.282930 -0.830198 0.480336
vn 0.282930 -0.830198 0.480336
vn 0.282930 -0.830198 0.480336
vn 0.000000 0.000000 0.000000
vn 0.000000 0.000000 0.000000
vn 0.000000 0.000000 0.000000
vn 0.000000 0.000000 0.000000
vn 0.000000 0.000000 0.000000
vn 0.000000 0.000000 0.000000
vn -0.377809 -0.690410 0.616923
vn -0.377809 -0.690410 0.616923
vn -0.377809 -0.690410 0.616923
vn -0.040286 0.629054 0.776317
vn -0.040286 0.629054 0.776317
vn -0.040286 0.629054 0.776317
vn 0.451259 0.429948 0.781991
vn 0.451259 0.429948 0.781991
vn 0.451259 0.429948 0.781991
vn 0.000000 0.000000 0.000000
vn 0.000000 0.000000 0.000000
vn 0.000000 0.000000 0.000000
vn 0.000000 0.000000 0.000000
vn 0.000000 0.000000 0.000000
vn 0.000000 0.000000 0.000000
vn 0.341623 0.648685 0.680075
vn 0.341623 0.648685 0.680075
vn 0.341623 0.648685 0.680075
vn 0.000000 1.000000 0.000000
vn 0.000000 1.000000 0.000000
vn 0.000000 0.000000 0.000000
vn -0.279723 0.812880 0.510863
vn -0.279723 0.812880 0.510863
vn -0.279723 0.812880 0.510863
vn 0.000000 -0.000000 0.000000
vn 0.000000 -1.000000 0.000000
vn 0.000000 -1.000000 0.000000
s off
f 2/1/1 1/2/2 6/3/3 5/4/4
f 6/3/5 1/2/6 102/177/7 104/159/8 103/161/9 10/5/10 11/6/11
f 3/7/12 7/8/13 4/9/14
f 13/10/15 9/11/16 8/12/17 12/13/18
f 4/9/19 12/13/20 8/12/21 3/7/22
f 11/6/23 10/5/24 9/14/25 13/15/26
f 2/16/27 14/17/28 15/18/29 1/19/30
f 6/20/31 16/21/32 17/22/33 5/23/34
f 5/23/35 17/22/36 14/17/37 2/16/38
f 1/19/39 15/18/40 18/24/41 10/25/42 103/26/43 105/27/44 102/28/45
f 11/29/46 19/30/47 16/21/48 6/20/49
f 3/31/50 20/32/51 21/33/52 7/34/53
f 7/34/54 21/33/55 22/35/56 4/36/57
f 9/37/58 24/38/59 25/39/60 8/40/61
f 12/41/62 26/42/63 23/43/64 13/44/65
f 4/36/66 22/35/67 26/42/68 12/41/69
f 8/40/70 25/39/71 20/32/72 3/31/73
f 10/25/74 18/24/75 24/38/76 9/37/77
f 13/44/78 23/43/79 19/30/80 11/29/81
f 35/46/82 36/47/83 29/48/84 30/49/85
f 32/50/86 28/51/87 27/52/88 31/53/89
f 30/49/90 29/48/91 28/54/92 32/55/93
f 34/56/94 33/57/95 31/53/96 27/52/97
f 35/45/98 37/58/99 38/59/100 36/60/101
f 36/60/102 38/59/103 39/61/104 29/62/105
f 30/63/106 40/64/107 37/58/108 35/45/109
f 28/65/110 42/66/111 43/67/112 27/68/113
f 31/69/114 44/70/115 41/71/116 32/72/117
f 29/62/118 39/61/119 42/66/120 28/65/121
f 32/72/122 41/71/123 40/64/124 30/63/125
f 34/73/126 46/74/127 45/75/128 33/76/129
f 33/76/130 45/75/131 44/70/132 31/69/133
f 27/68/134 43/67/135 46/74/136 34/73/137
f 48/82/138 47/83/139 52/84/140 51/85/141
f 52/84/142 47/83/143 93/163/144 95/167/145 94/165/146 56/86/147 57/87/148
f 49/88/149 53/89/150 50/90/151
f 59/91/152 55/92/153 98/171/154 99/173/155 58/94/156
f 50/90/157 58/94/158 99/173/159 100/175/160 49/88/161
f 57/87/162 56/86/163 55/95/164 59/96/165
f 48/77/166 60/78/167 61/79/168 47/80/169
f 52/81/170 62/97/171 63/98/172 51/99/173
f 51/99/174 63/98/175 60/78/176 48/77/177
f 47/80/178 61/79/179 64/100/180 56/101/181 94/102/182 96/103/183 93/104/184
f 57/105/185 65/106/186 62/97/187 52/81/188
f 49/107/189 66/108/190 67/109/191 53/110/192
f 53/110/193 67/109/194 68/111/195 50/112/196
f 55/113/197 70/114/198 71/115/199 101/116/200 98/117/201
f 58/119/202 72/120/203 69/121/204 59/122/205
f 50/112/206 68/111/207 72/120/208 58/119/209
f 100/123/210 101/116/211 71/115/212 66/108/213 49/107/214
f 56/101/215 64/100/216 70/114/217 55/113/218
f 59/122/219 69/121/220 65/106/221 57/105/222
f 81/127/223 82/128/224 75/129/225 76/130/226
f 78/131/227 74/132/228 73/133/229 77/134/230
f 76/130/231 75/129/232 74/135/233 78/136/234
f 80/137/235 79/138/236 77/134/237 73/133/238
f 81/124/239 83/125/240 84/126/241 82/139/242
f 82/139/243 84/126/244 85/140/245 75/141/246
f 76/142/247 86/143/248 83/125/249 81/124/250
f 74/144/251 88/145/252 89/146/253 73/147/254
f 77/148/255 90/149/256 87/150/257 78/151/258
f 75/141/259 85/140/260 88/145/261 74/144/262
f 78/151/263 87/150/264 86/143/265 76/142/266
f 80/152/267 92/153/268 91/154/269 79/155/270
f 79/155/271 91/154/272 90/149/273 77/148/274
f 73/147/275 89/146/276 92/153/277 80/152/278
f 97/169/279 95/167/280 93/163/281
f 93/164/282 96/168/283 97/170/284
f 97/170/285 96/168/286 94/166/287
f 94/165/288 95/167/289 97/169/290
f 99/173/291 98/171/292 54/93/293
f 100/175/294 99/173/295 54/93/296
f 54/118/297 101/176/298 100/174/299
f 98/172/300 101/176/301 54/118/302
f 103/161/303 104/159/304 106/157/305
f 106/156/306 105/158/307 103/160/308
f 106/157/309 104/159/310 102/177/311
f 102/162/312 105/158/313 106/156/314
