# This file uses centimeters as units for non-parametric coordinates.

v 4.767822 42.889648 7.391602
v 14.299561 33.358398 7.391602
v 23.831543 14.296875 7.391602
v 14.299561 4.765625 7.391602
v 14.299561 23.827148 7.391602
v 42.893799 42.889648 7.391602
v 4.767822 14.296875 7.391602
v 14.299561 14.296875 7.391602
v 23.831543 23.827148 7.391602
v 33.361572 14.239258 7.391602
v 33.361572 33.358398 7.391602
v 42.893799 4.765625 7.391602
v 4.767822 42.889648 -7.391602
v 4.767822 14.296877 -7.391602
v 14.299561 33.358398 -7.391602
v 23.831543 14.296877 -7.391602
v 14.299561 14.296877 -7.391602
v 14.299561 4.765627 -7.391602
v 33.361572 14.239256 -7.391602
v 23.831543 23.827150 -7.391602
v 14.299561 23.827150 -7.391602
v 42.893799 42.889648 -7.391602
v 33.361572 33.358398 -7.391602
v 42.893799 4.765623 -7.391602
v -14.299561 -33.360352 7.391602
v -23.831543 -14.298829 7.391602
v -14.299561 -4.767578 7.391602
v -42.893799 -4.767578 7.391602
v -14.299561 -23.830078 7.391602
v -42.893799 -42.891602 7.391602
v -4.767822 -14.298829 7.391602
v -4.767822 -42.891602 7.391602
v -14.299561 -14.298829 7.391602
v -23.831543 -23.830078 7.391602
v -33.361572 -14.298829 7.391602
v -33.361572 -33.355469 7.391602
v -42.893799 -42.891602 -7.391602
v -4.767822 -42.891602 -7.391602
v -14.299561 -33.360352 -7.391602
v -33.361572 -33.355469 -7.391602
v -33.361572 -14.298828 -7.391602
v -42.893799 -4.767578 -7.391602
v -4.767822 -14.298828 -7.391602
v -23.831543 -14.298828 -7.391602
v -14.299561 -14.298828 -7.391602
v -14.299561 -4.767578 -7.391602
v -23.831543 -23.830078 -7.391602
v -14.299561 -23.830078 -7.391602
v 10.588867 -10.589845 7.391602
v -10.583740 -10.589845 7.391602
v 10.588867 10.585938 7.391602
v -10.583740 10.585938 1.618164
v 10.588867 -10.589844 -7.391602
v 10.588867 10.585936 -7.391602
v -10.583740 10.585936 -7.391602
v -10.583740 -10.589844 -7.391602
v 33.360596 -14.297853 7.391602
v 14.298584 -23.830078 7.391602
v 4.767822 -14.297853 7.391602
v 23.829590 -14.297853 7.391602
v 42.891357 -42.891602 7.391602
v 14.298584 -4.765625 7.391602
v 42.891357 -4.765625 7.391602
v 14.298584 -14.297853 7.391602
v 23.829590 -23.830078 7.391602
v 14.298584 -33.359375 7.391602
v 33.360596 -33.359375 7.391602
v 4.767822 -42.891602 7.391602
v 42.891357 -42.891602 -7.391602
v 42.891357 -4.765625 -7.391602
v 33.360596 -14.297852 -7.391602
v 33.360596 -33.359375 -7.391602
v 4.767822 -42.891602 -7.391602
v 14.298584 -33.359375 -7.391602
v 4.767822 -14.297852 -7.391602
v 14.298584 -4.765625 -7.391602
v 14.298584 -23.830078 -7.391602
v 14.298584 -14.297852 -7.391602
v 23.829590 -23.830078 -7.391602
v 23.829590 -14.297852 -7.391602
v -33.359619 14.297852 7.391602
v -14.297363 23.830078 7.391602
v -4.766357 42.891602 7.391602
v -23.828613 14.297852 7.391602
v -42.890381 42.891602 7.391602
v -14.297363 4.765625 7.391602
v -42.890381 4.765625 7.391602
v -14.297363 14.297852 7.391602
v -4.766357 14.297852 7.391602
v -23.828613 23.830078 7.391602
v -14.297363 33.359375 7.391602
v -33.359619 33.359375 7.391602
v -42.890381 42.891602 -7.391602
v -33.359619 14.297853 -7.391602
v -33.359619 33.359375 -7.391602
v -42.890381 4.765627 -7.391602
v -14.297363 23.830080 -7.391602
v -14.297363 14.297853 -7.391602
v -4.766357 14.297850 -7.391602
v -4.766357 42.891602 -7.391602
v -14.297363 33.359375 -7.391602
v -23.828613 23.830080 -7.391602
v -23.828613 14.297853 -7.391602
v -14.297363 4.765627 -7.391602
v 37.873535 -42.890625 7.391602
v 16.711426 -42.891602 7.391602
v 27.917236 -36.455078 7.391602
v 25.277832 -42.891602 0.121094
v 42.893799 33.895508 7.391602
v 42.893799 13.887695 7.391602
v 36.243896 23.045898 7.391602
v 42.893799 19.232422 1.333984
v -2.580566 10.585938 7.391602
v -10.583740 3.019531 7.391602
v -42.890381 31.463867 7.391602
v -42.890381 10.612305 7.391602
v -37.770752 18.437500 7.391602
v -42.890381 20.135742 2.617188
vt 0.026058 0.511781
vt 0.026058 0.511781
vt 0.026058 0.511781
vt 0.026058 0.511781
vt 0.026058 0.511781
vt 0.026058 0.511781
vt 0.026058 0.511781
vt 0.026058 0.511781
vt 0.026058 0.511781
vt 0.026058 0.511781
vt 0.026058 0.511781
vt 0.026058 0.511781
vt 0.026058 0.511781
vt 0.026058 0.511781
vt 0.026058 0.511781
vt 0.026058 0.511781
vt 0.026058 0.511781
vt 0.026058 0.511781
vt 0.026058 0.511781
vt 0.026058 0.511781
vt 0.026058 0.511781
vt 0.026058 0.511781
vt 0.026058 0.511781
vt 0.026058 0.511781
vt 0.026058 0.511781
vt 0.026058 0.511781
vt 0.026058 0.511781
vt 0.026058 0.511781
vt 0.026058 0.511781
vt 0.026058 0.511781
vt 0.009277 0.508654
vt 0.009277 0.508654
vt 0.009277 0.508654
vt 0.009277 0.508654
vt 0.009277 0.508654
vt 0.009277 0.508654
vt 0.009277 0.508654
vt 0.009277 0.508654
vt 0.009277 0.508654
vt 0.009277 0.508654
vt 0.009277 0.508654
vt 0.009277 0.508654
vt 0.009277 0.508654
vt 0.009277 0.508654
vt 0.009277 0.508654
vt 0.009277 0.508654
vt 0.009277 0.508654
vt 0.009277 0.508654
vt 0.009277 0.508654
vt 0.009277 0.508654
vt 0.009277 0.508654
vt 0.009277 0.508654
vt 0.009277 0.508654
vt 0.009277 0.508654
vt 0.009277 0.508654
vt 0.009277 0.508655
vt 0.009277 0.508654
vt 0.009277 0.508654
vt 0.009277 0.508654
vt 0.009277 0.508654
vt 0.009277 0.508654
vt 0.009277 0.508654
vt 0.009277 0.508654
vt 0.009277 0.508654
vt 0.009277 0.508654
vt 0.009277 0.508654
vt 0.009277 0.508654
vt 0.009277 0.508654
vt 0.009277 0.508654
vt 0.009277 0.508654
vt 0.009277 0.508654
vt 0.009277 0.508654
vt 0.009277 0.508654
vt 0.009277 0.508654
vt 0.009277 0.508654
vt 0.009277 0.508654
vt 0.026058 0.511781
vt 0.026058 0.511781
vt 0.026058 0.511781
vt 0.026058 0.511781
vt 0.026058 0.511781
vt 0.026058 0.511781
vt 0.026058 0.511781
vt 0.026058 0.511781
vt 0.026058 0.511781
vt 0.026058 0.511781
vt 0.026058 0.511781
vt 0.026058 0.511781
vt 0.026058 0.511781
vt 0.026058 0.511781
vt 0.026058 0.511781
vt 0.026058 0.511781
vt 0.026058 0.511781
vt 0.026058 0.511781
vt 0.026058 0.511781
vt 0.026058 0.511781
vt 0.026058 0.511781
vt 0.026058 0.511781
vt 0.026058 0.511781
vt 0.026058 0.511781
vt 0.026058 0.511781
vt 0.026058 0.511781
vt 0.026058 0.511781
vt 0.026058 0.511781
vt 0.009277 0.508654
vt 0.009277 0.508654
vt 0.009277 0.508654
vt 0.009277 0.508654
vt 0.009277 0.508654
vt 0.009277 0.508654
vt 0.009277 0.508654
vt 0.009277 0.508654
vt 0.009277 0.508654
vt 0.009277 0.508654
vt 0.009277 0.508654
vt 0.009277 0.508654
vt 0.009277 0.508654
vt 0.009277 0.508654
vt 0.009277 0.508654
vt 0.009277 0.508654
vt 0.009277 0.508654
vt 0.009277 0.508654
vt 0.009277 0.508654
vt 0.009277 0.508654
vt 0.009277 0.508654
vt 0.009277 0.508654
vt 0.009277 0.508654
vt 0.009277 0.508654
vt 0.009277 0.508654
vt 0.009277 0.508654
vt 0.009277 0.508654
vt 0.009277 0.508654
vt 0.009277 0.508654
vt 0.009277 0.508654
vt 0.009277 0.508654
vt 0.009277 0.508654
vt 0.009277 0.508654
vt 0.009277 0.508654
vt 0.009277 0.508654
vt 0.009277 0.508654
vt 0.009277 0.508655
vt 0.009277 0.508654
vt 0.009277 0.508654
vt 0.009277 0.508654
vt 0.009277 0.508654
vt 0.009277 0.508654
vt 0.009277 0.508654
vt 0.009277 0.508654
vt 0.026058 0.511781
vt 0.026058 0.511781
vt 0.026058 0.511781
vt 0.026058 0.511781
vt 0.009277 0.508654
vt 0.009277 0.508654
vt 0.009277 0.508654
vt 0.009277 0.508655
vt 0.009277 0.508654
vt 0.009277 0.508654
vt 0.009277 0.508654
vt 0.009277 0.508654
vt 0.026058 0.511781
vt 0.026058 0.511781
vt 0.026058 0.511781
vt 0.026058 0.511781
vt 0.026058 0.511781
vt 0.026058 0.511781
vt 0.026058 0.511781
vt 0.026058 0.511781
vt 0.026058 0.511781
vt 0.026058 0.511781
vt 0.026058 0.511781
vt 0.026058 0.511781
vt 0.026058 0.511781
vt 0.026058 0.511781
vt 0.026058 0.511781
vt 0.026058 0.511781
vt 0.026058 0.511781
vt 0.026058 0.511781
vt 0.026058 0.511781
vt 0.026058 0.511781
vt 0.026058 0.511781
vt 0.026058 0.511781
vt 0.026058 0.511781
vt 0.026058 0.511781
vt 0.026058 0.511781
vt 0.026058 0.511781
vt 0.026058 0.511781
vt 0.026058 0.511781
vt 0.026058 0.511781
vt 0.026058 0.511781
vt 0.009277 0.508654
vt 0.009277 0.508654
vt 0.009277 0.508654
vt 0.009277 0.508654
vt 0.009277 0.508654
vt 0.009277 0.508654
vt 0.009277 0.508654
vt 0.009277 0.508654
vt 0.009277 0.508654
vt 0.009277 0.508654
vt 0.009277 0.508654
vt 0.009277 0.508654
vt 0.009277 0.508654
vt 0.009277 0.508654
vt 0.009277 0.508655
vt 0.009277 0.508654
vt 0.009277 0.508654
vt 0.026058 0.511781
vt 0.026058 0.511781
vt 0.026058 0.511781
vt 0.026058 0.511781
vt 0.026058 0.511781
vt 0.026058 0.511781
vt 0.026058 0.511781
vt 0.026058 0.511781
vt 0.026058 0.511781
vt 0.026058 0.511781
vt 0.026058 0.511781
vt 0.026058 0.511781
vt 0.026058 0.511781
vt 0.026058 0.511781
vt 0.026058 0.511781
vt 0.026058 0.511781
vt 0.026058 0.511781
vt 0.026058 0.511781
vt 0.026058 0.511781
vt 0.026058 0.511781
vt 0.026058 0.511781
vt 0.026058 0.511781
vt 0.026058 0.511781
vt 0.026058 0.511781
vt 0.026058 0.511781
vt 0.026058 0.511781
vt 0.026058 0.511781
vt 0.026058 0.511781
vt 0.026058 0.511781
vt 0.026058 0.511781
vt 0.026058 0.511781
vt 0.026058 0.511781
vt 0.026058 0.511781
vt 0.026058 0.511781
vt 0.026058 0.511781
vt 0.026058 0.511781
vt 0.026058 0.511781
vt 0.026058 0.511781
vt 0.026058 0.511781
vt 0.026058 0.511781
vt 0.026058 0.511781
vt 0.026058 0.511781
vn 0.000000 0.000000 1.000000
vn 0.000000 0.000000 1.000000
vn 0.000000 0.000000 1.000000
vn 0.000000 0.000000 1.000000
vn 0.000000 0.000000 1.000000
vn 0.000000 0.000000 1.000000
vn 0.000000 0.000000 1.000000
vn 0.000000 0.000000 1.000000
vn 0.000000 0.000000 1.000000
vn 0.000000 0.000000 1.000000
vn 0.000000 0.000000 1.000000
vn 0.000000 0.000000 1.000000
vn 0.000000 0.000000 1.000000
vn 0.000000 0.000000 1.000000
vn 0.000000 0.000000 1.000000
vn 0.000000 0.000000 1.000000
vn 0.000000 0.000000 1.000000
vn 0.000000 0.000000 1.000000
vn 0.000000 0.000000 1.000000
vn 0.000000 0.000000 1.000000
vn 0.000000 0.000000 1.000000
vn 0.000000 0.000000 1.000000
vn 0.000000 0.000000 1.000000
vn 0.000000 0.000000 1.000000
vn 0.000000 0.000000 1.000000
vn 0.000000 0.000000 1.000000
vn 0.000000 0.000000 1.000000
vn 0.000000 0.000000 1.000000
vn 0.000000 0.000000 1.000000
vn 0.000000 0.000000 1.000000
vn 0.000000 0.000000 1.000000
vn 0.000000 0.000000 1.000000
vn 0.000000 0.000000 1.000000
vn -1.000000 0.000000 0.000000
vn -1.000000 0.000000 0.000000
vn -1.000000 0.000000 0.000000
vn -1.000000 0.000000 0.000000
vn -1.000000 0.000000 0.000000
vn -1.000000 0.000000 0.000000
vn -1.000000 0.000000 0.000000
vn -1.000000 0.000000 0.000000
vn 0.006046 0.999982 0.000000
vn 0.006046 0.999982 0.000000
vn 0.006046 0.999982 0.000000
vn 0.006046 0.999982 0.000000
vn 0.000000 1.000000 0.000000
vn 0.000000 1.000000 0.000000
vn 0.000000 1.000000 0.000000
vn 0.000000 1.000000 0.000000
vn 1.000000 0.000000 0.000000
vn 1.000000 0.000000 0.000000
vn 1.000000 0.000000 0.000000
vn 1.000000 0.000000 0.000000
vn 0.000000 1.000000 0.000000
vn 0.000000 1.000000 0.000000
vn 0.000000 1.000000 0.000000
vn 0.000000 1.000000 0.000000
vn 0.000000 -1.000000 0.000000
vn 0.000000 -1.000000 0.000000
vn 0.000000 -1.000000 0.000000
vn 0.000000 -1.000000 0.000000
vn 1.000000 0.000000 0.000000
vn 1.000000 0.000000 0.000000
vn 1.000000 0.000000 0.000000
vn 1.000000 0.000000 0.000000
vn 0.000000 -1.000000 -0.000000
vn 0.000000 -1.000000 -0.000000
vn 0.000000 -1.000000 -0.000000
vn 0.000000 -1.000000 -0.000000
vn -0.000000 -1.000000 0.000000
vn -0.000000 -1.000000 0.000000
vn -0.000000 -1.000000 0.000000
vn -0.000000 -1.000000 0.000000
vn -1.000000 0.000000 0.000000
vn -1.000000 0.000000 0.000000
vn -1.000000 0.000000 0.000000
vn -1.000000 0.000000 0.000000
vn 1.000000 0.000000 0.000000
vn 1.000000 0.000000 0.000000
vn 1.000000 0.000000 0.000000
vn 1.000000 0.000000 0.000000
vn 1.000000 0.000000 0.000000
vn 1.000000 0.000000 0.000000
vn 1.000000 0.000000 0.000000
vn 0.000000 0.000000 1.000000
vn 0.000000 0.000000 1.000000
vn 0.000000 0.000000 1.000000
vn 0.000000 0.000000 1.000000
vn -0.000000 0.000000 1.000000
vn -0.000000 0.000000 1.000000
vn -0.000000 0.000000 1.000000
vn -0.000000 0.000000 1.000000
vn 0.000000 0.000000 1.000000
vn 0.000000 0.000000 1.000000
vn 0.000000 0.000000 1.000000
vn 0.000000 0.000000 1.000000
vn 0.000000 0.000000 1.000000
vn 0.000000 0.000000 1.000000
vn 0.000000 0.000000 1.000000
vn 0.000000 0.000000 1.000000
vn 0.000000 0.000000 1.000000
vn 0.000000 0.000000 1.000000
vn 0.000000 0.000000 1.000000
vn 0.000000 0.000000 1.000000
vn 0.000000 0.000000 1.000000
vn 0.000000 0.000000 1.000000
vn -0.000000 0.000000 1.000000
vn -0.000000 0.000000 1.000000
vn -0.000000 0.000000 1.000000
vn 0.000000 0.000000 1.000000
vn 0.000000 0.000000 1.000000
vn 0.000000 0.000000 1.000000
vn 0.000000 -1.000000 0.000000
vn 0.000000 -1.000000 0.000000
vn 0.000000 -1.000000 0.000000
vn 0.000000 -1.000000 0.000000
vn 0.000256 1.000000 0.000000
vn 0.000256 1.000000 0.000000
vn 0.000256 1.000000 0.000000
vn 0.000256 1.000000 0.000000
vn 1.000000 0.000000 0.000000
vn 1.000000 0.000000 0.000000
vn 1.000000 0.000000 0.000000
vn 1.000000 0.000000 0.000000
vn -1.000000 0.000000 0.000000
vn -1.000000 0.000000 0.000000
vn -1.000000 0.000000 0.000000
vn -1.000000 0.000000 0.000000
vn 1.000000 0.000000 0.000000
vn 1.000000 0.000000 0.000000
vn 1.000000 0.000000 0.000000
vn 1.000000 0.000000 0.000000
vn 1.000000 0.000000 0.000000
vn 1.000000 0.000000 0.000000
vn 1.000000 0.000000 0.000000
vn 1.000000 0.000000 0.000000
vn 0.000000 -1.000000 -0.000000
vn 0.000000 -1.000000 -0.000000
vn 0.000000 -1.000000 -0.000000
vn 0.000000 -1.000000 -0.000000
vn 0.000000 1.000000 0.000000
vn 0.000000 1.000000 0.000000
vn 0.000000 1.000000 0.000000
vn 0.000000 1.000000 0.000000
vn 0.000000 -1.000000 0.000000
vn 0.000000 -1.000000 0.000000
vn 0.000000 -1.000000 0.000000
vn 0.000000 -1.000000 0.000000
vn -1.000000 0.000000 0.000000
vn -1.000000 0.000000 0.000000
vn -1.000000 0.000000 0.000000
vn -1.000000 0.000000 0.000000
vn -1.000000 0.000000 0.000000
vn -1.000000 0.000000 0.000000
vn -1.000000 0.000000 0.000000
vn -1.000000 0.000000 0.000000
vn 0.000000 1.000000 0.000000
vn 0.000000 1.000000 0.000000
vn 0.000000 1.000000 0.000000
vn 0.000000 1.000000 0.000000
vn -0.497497 0.526215 0.689634
vn -0.497497 0.526215 0.689634
vn -0.497497 0.526215 0.689634
vn 1.000000 0.000000 0.000000
vn 1.000000 0.000000 0.000000
vn 1.000000 0.000000 0.000000
vn 1.000000 0.000000 0.000000
vn 0.000000 -1.000000 -0.000000
vn 0.000000 -1.000000 -0.000000
vn 0.000000 -1.000000 -0.000000
vn 0.000000 -1.000000 -0.000000
vn 0.000000 0.000000 1.000000
vn 0.000000 0.000000 1.000000
vn 0.000000 0.000000 1.000000
vn 0.000000 0.000000 1.000000
vn 0.000000 0.000000 1.000000
vn 0.000000 0.000000 1.000000
vn 0.000000 0.000000 1.000000
vn 0.000000 0.000000 1.000000
vn 0.000000 0.000000 1.000000
vn 0.000000 0.000000 1.000000
vn 0.000000 0.000000 1.000000
vn 0.000000 0.000000 1.000000
vn 0.000000 0.000000 1.000000
vn 0.000000 0.000000 1.000000
vn 0.000000 0.000000 1.000000
vn 0.000000 0.000000 1.000000
vn 0.000000 0.000000 1.000000
vn 0.000000 0.000000 1.000000
vn 0.000000 0.000000 1.000000
vn 0.000000 0.000000 1.000000
vn 0.000000 0.000000 1.000000
vn 0.000000 0.000000 1.000000
vn 0.000000 0.000000 1.000000
vn 0.000000 0.000000 1.000000
vn 0.000000 0.000000 1.000000
vn 0.000000 0.000000 1.000000
vn 0.000000 0.000000 1.000000
vn 0.000000 0.000000 1.000000
vn 0.000000 0.000000 1.000000
vn 0.000000 0.000000 1.000000
vn 0.000000 0.000000 1.000000
vn 0.000000 0.000000 1.000000
vn 0.000000 0.000000 1.000000
vn 1.000000 0.000000 0.000000
vn 1.000000 0.000000 0.000000
vn 1.000000 0.000000 0.000000
vn 1.000000 0.000000 0.000000
vn -1.000000 0.000000 0.000000
vn -1.000000 0.000000 0.000000
vn -1.000000 0.000000 0.000000
vn -1.000000 0.000000 0.000000
vn -1.000000 0.000000 0.000000
vn -1.000000 0.000000 0.000000
vn -1.000000 0.000000 0.000000
vn -1.000000 0.000000 0.000000
vn 0.000000 1.000000 0.000000
vn 0.000000 1.000000 0.000000
vn 0.000000 1.000000 0.000000
vn 0.000000 1.000000 0.000000
vn 0.000000 1.000000 0.000000
vn 0.000000 1.000000 0.000000
vn 0.000000 1.000000 0.000000
vn 0.000000 1.000000 0.000000
vn 1.000000 0.000000 0.000000
vn 1.000000 0.000000 0.000000
vn 1.000000 0.000000 0.000000
vn 1.000000 0.000000 0.000000
vn 1.000000 0.000000 0.000000
vn 1.000000 0.000000 0.000000
vn 1.000000 0.000000 0.000000
vn 1.000000 0.000000 0.000000
vn 0.000000 -1.000000 0.000000
vn 0.000000 -1.000000 0.000000
vn 0.000000 -1.000000 0.000000
vn 0.000000 -1.000000 0.000000
vn 0.000000 -1.000000 -0.000000
vn 0.000000 -1.000000 -0.000000
vn 0.000000 -1.000000 -0.000000
vn 0.000000 -1.000000 -0.000000
vn -1.000000 0.000000 0.000000
vn -1.000000 0.000000 0.000000
vn -1.000000 0.000000 0.000000
vn -1.000000 0.000000 0.000000
vn 0.000000 1.000000 0.000000
vn 0.000000 1.000000 0.000000
vn 0.000000 1.000000 0.000000
vn 0.000000 1.000000 0.000000
vn -0.000007 -1.000000 0.000018
vn -0.000007 -1.000000 0.000018
vn -0.000007 -1.000000 0.000018
vn -0.000007 -1.000000 0.000018
vn -0.000007 -1.000000 0.000018
vn -0.000007 -1.000000 0.000018
vn -0.000007 -1.000000 0.000018
vn 0.000000 0.000000 1.000000
vn 0.000000 0.000000 1.000000
vn 0.000000 0.000000 1.000000
vn 0.000000 0.000000 1.000000
vn 0.000000 0.000000 1.000000
vn 0.000000 0.000000 1.000000
vn 0.000000 0.000000 1.000000
vn 0.000000 0.000000 1.000000
vn 0.000000 0.000000 1.000000
vn 0.000000 0.000000 1.000000
vn 0.000000 0.000000 1.000000
vn 0.000000 0.000000 1.000000
vn 0.000000 0.000000 1.000000
vn 0.000000 0.000000 1.000000
vn 0.000000 0.000000 1.000000
vn 0.000000 0.000000 1.000000
vn 0.000000 0.000000 1.000000
vn 0.000000 0.000000 1.000000
vn 0.000000 0.000000 1.000000
vn 0.000000 0.000000 1.000000
vn 0.000000 0.000000 1.000000
vn 0.000000 0.000000 1.000000
vn 0.000000 0.000000 1.000000
vn 0.000000 0.000000 1.000000
vn 0.000000 0.000000 1.000000
vn 0.000000 0.000000 1.000000
vn 0.000000 0.000000 1.000000
vn 0.000000 0.000000 1.000000
vn 0.000000 0.000000 1.000000
vn 0.000000 0.000000 1.000000
vn 0.000000 0.000000 1.000000
vn 1.000000 0.000000 0.000000
vn 1.000000 0.000000 0.000000
vn 1.000000 0.000000 0.000000
vn 1.000000 0.000000 0.000000
vn -1.000000 0.000000 0.000000
vn -1.000000 0.000000 0.000000
vn -1.000000 0.000000 0.000000
vn -1.000000 0.000000 0.000000
vn -1.000000 0.000000 0.000000
vn -1.000000 0.000000 0.000000
vn -1.000000 0.000000 0.000000
vn -0.000000 -1.000000 0.000000
vn -0.000000 -1.000000 0.000000
vn -0.000000 -1.000000 0.000000
vn -0.000000 -1.000000 0.000000
vn 1.000000 0.000000 0.000000
vn 1.000000 0.000000 0.000000
vn 1.000000 0.000000 0.000000
vn 1.000000 0.000000 0.000000
vn -1.000000 0.000000 0.000000
vn -1.000000 0.000000 0.000000
vn -1.000000 0.000000 0.000000
vn -1.000000 0.000000 0.000000
vn -1.000000 0.000000 0.000000
vn -1.000000 0.000000 0.000000
vn -1.000000 0.000000 0.000000
vn -1.000000 0.000000 0.000000
vn 0.000000 1.000000 0.000000
vn 0.000000 1.000000 0.000000
vn 0.000000 1.000000 0.000000
vn 0.000000 1.000000 0.000000
vn 0.000000 -1.000000 -0.000000
vn 0.000000 -1.000000 -0.000000
vn 0.000000 -1.000000 -0.000000
vn 0.000000 -1.000000 -0.000000
vn 0.000000 1.000000 0.000000
vn 0.000000 1.000000 0.000000
vn 0.000000 1.000000 0.000000
vn 0.000000 1.000000 0.000000
vn 1.000000 0.000000 0.000000
vn 1.000000 0.000000 0.000000
vn 1.000000 0.000000 0.000000
vn 1.000000 0.000000 0.000000
vn 0.000000 -1.000000 0.000000
vn 0.000000 -1.000000 0.000000
vn 0.000000 -1.000000 0.000000
vn 0.000000 -1.000000 0.000000
vn 0.000000 1.000000 0.000000
vn 0.000000 1.000000 0.000000
vn 0.000000 1.000000 0.000000
vn 0.000000 1.000000 0.000000
vn 0.429567 -0.747864 0.506133
vn 0.429567 -0.747864 0.506133
vn 0.429567 -0.747864 0.506133
vn -0.395423 -0.611751 0.685128
vn -0.395423 -0.611751 0.685128
vn -0.395423 -0.611751 0.685128
vn 0.528752 -0.324080 0.784470
vn 0.528752 -0.324080 0.784470
vn 0.528752 -0.324080 0.784470
vn 0.718386 0.521630 0.460242
vn 0.718386 0.521630 0.460242
vn 0.718386 0.521630 0.460242
vn 0.000000 1.000000 -0.000000
vn 0.000000 1.000000 -0.000000
vn 0.000000 1.000000 -0.000000
vn 0.000000 1.000000 -0.000000
vn 0.000000 1.000000 -0.000000
vn -1.000000 0.000000 0.000000
vn -1.000000 0.000000 0.000000
vn -1.000000 0.000000 0.000000
vn -1.000000 0.000000 0.000000
vn -1.000000 0.000000 0.000000
vn 0.000000 0.000000 1.000000
vn 0.000000 0.000000 1.000000
vn 0.000000 0.000000 1.000000
vn 0.000000 0.000000 1.000000
vn 0.000000 0.000000 1.000000
vn -0.702895 -0.276252 0.655456
vn -0.702895 -0.276252 0.655456
vn -0.702895 -0.276252 0.655456
vn -0.565133 0.369738 0.737509
vn -0.565132 0.369738 0.737509
vn -0.565132 0.369738 0.737509
s off
f 1/1/1 7/2/2 2/3/3
f 3/4/4 8/5/5 4/6/6
f 10/7/7 3/8/8 4/9/9
f 9/10/10 5/11/11 8/12/12 3/13/13
f 6/14/14 1/15/15 2/16/16 11/17/17
f 2/18/18 7/19/19 5/20/20
f 5/21/21 7/22/22 8/23/23
f 12/24/24 10/25/25 4/26/26
f 6/27/27 11/28/28 10/29/29 12/30/30 110/216/31 111/215/32 109/217/33
f 1/31/34 13/32/35 14/33/36 7/34/37
f 8/35/38 17/36/39 18/37/40 4/38/41
f 10/39/42 19/40/43 16/41/44 3/42/45
f 9/43/46 20/44/47 21/45/48 5/46/49
f 3/42/50 16/41/51 20/44/52 9/43/53
f 6/47/54 22/48/55 13/32/56 1/31/57
f 2/49/58 15/50/59 23/51/60 11/52/61
f 5/46/62 21/45/63 15/50/64 2/49/65
f 7/34/66 14/33/67 17/36/68 8/35/69
f 4/38/70 18/37/71 24/53/72 12/54/73
f 11/52/74 23/51/75 19/40/76 10/39/77
f 12/54/78 24/53/79 22/48/80 6/47/81 109/55/82 112/56/83 110/57/84
f 30/77/85 32/78/86 25/79/87 36/80/88
f 30/81/89 36/82/90 35/83/91 28/84/92
f 32/85/93 31/86/94 25/87/95
f 26/88/96 33/89/97 27/90/98
f 35/91/99 26/92/100 27/93/101 28/94/102
f 34/95/103 29/96/104 33/97/105 26/98/106
f 25/99/107 31/100/108 29/101/109
f 29/102/110 31/103/111 33/104/112
f 30/58/113 37/59/114 38/60/115 32/61/116
f 25/62/117 39/63/118 40/64/119 36/65/120
f 36/65/121 40/64/122 41/66/123 35/67/124
f 28/68/125 42/69/126 37/59/127 30/58/128
f 32/61/129 38/60/130 43/70/131 31/71/132
f 33/72/133 45/73/134 46/74/135 27/75/136
f 35/67/137 41/66/138 44/76/139 26/105/140
f 27/75/141 46/74/142 42/69/143 28/68/144
f 34/106/145 47/107/146 48/108/147 29/109/148
f 26/105/149 44/76/150 47/107/151 34/106/152
f 29/109/153 48/108/154 39/63/155 25/62/156
f 31/71/157 43/70/158 45/73/159 33/72/160
f 114/212/161 113/213/162 52/151/163
f 49/110/164 53/111/165 54/112/166 51/113/167
f 50/114/168 56/115/169 53/111/170 49/110/171
f 61/161/172 63/162/173 57/163/174 67/164/175
f 68/165/176 66/166/177 59/167/178
f 63/168/179 62/169/180 57/170/181
f 58/171/182 64/172/183 59/173/184
f 66/174/185 58/175/186 59/176/187
f 65/177/188 60/178/189 64/179/190 58/180/191
f 57/181/192 62/182/193 60/183/194
f 60/184/195 62/185/196 64/186/197
f 61/187/198 67/188/199 66/189/200 68/190/201 106/220/202 107/219/203 105/221/204
f 61/116/205 69/117/206 70/118/207 63/119/208
f 57/120/209 71/121/210 72/122/211 67/123/212
f 59/124/213 75/125/214 73/126/215 68/127/216
f 63/119/217 70/118/218 76/128/219 62/129/220
f 64/130/221 78/131/222 75/125/223 59/124/224
f 66/132/225 74/133/226 77/134/227 58/135/228
f 65/136/229 79/137/230 80/138/231 60/139/232
f 58/135/233 77/134/234 79/137/235 65/136/236
f 60/139/237 80/138/238 71/121/239 57/120/240
f 62/129/241 76/128/242 78/131/243 64/130/244
f 67/123/245 72/122/246 74/133/247 66/132/248
f 68/127/249 73/126/250 69/117/251 61/116/252 105/140/253 108/141/254 106/142/255
f 85/237/256 81/238/257 92/239/258
f 85/240/259 115/211/260 117/209/261 116/210/262 87/241/263 81/242/264
f 82/243/265 88/244/266 89/245/267 83/246/268
f 91/247/269 82/248/270 83/249/271
f 90/236/272 84/235/273 88/234/274 82/233/275
f 81/232/276 87/231/277 86/230/278 84/229/279
f 84/228/280 86/227/281 88/226/282
f 85/225/283 92/224/284 91/223/285 83/222/286
f 81/143/287 94/144/288 95/145/289 92/146/290
f 85/147/291 93/148/292 96/153/293 87/154/294 116/155/295 118/156/296 115/157/297
f 88/158/298 98/159/299 99/160/300 89/191/301
f 89/191/302 99/160/303 100/192/304 83/193/305
f 91/194/306 101/195/307 97/196/308 82/197/309
f 90/198/310 102/199/311 103/200/312 84/201/313
f 82/197/314 97/196/315 102/199/316 90/198/317
f 87/154/318 96/153/319 104/202/320 86/203/321
f 84/201/322 103/200/323 94/144/324 81/143/325
f 86/203/326 104/202/327 98/159/328 88/158/329
f 92/146/330 95/145/331 101/195/332 91/194/333
f 83/193/334 100/192/335 93/148/336 85/147/337
f 108/218/338 107/219/339 106/220/340
f 105/221/341 107/219/342 108/218/343
f 109/217/344 111/215/345 112/214/346
f 112/214/347 111/215/348 110/216/349
f 51/113/350 54/112/351 55/204/352 52/205/353 113/206/354
f 114/207/355 52/205/356 55/204/357 56/115/358 50/114/359
f 49/149/360 51/150/361 113/213/362 114/212/363 50/152/364
f 118/208/365 117/209/366 115/211/367
f 116/210/368 117/209/369 118/208/370
