# This file uses centimeters as units for non-parametric coordinates.

v 0.000000 57.953125 7.391602
v 21.466675 36.486328 7.391602
v 12.124268 33.078125 7.391602
v 0.000000 45.202148 7.391602
v 12.124268 18.013670 7.391602
v 21.466675 8.711915 7.391602
v -21.466675 36.486328 7.391602
v -12.124268 33.078125 7.391602
v -12.124268 18.013670 7.391602
v -21.466675 8.711915 7.391602
v 0.000000 57.953125 -7.391602
v 21.466675 36.486328 -7.391602
v 0.000000 45.202148 -7.391602
v 12.124268 33.078125 -7.391602
v 12.124268 18.013674 -7.391602
v 21.466675 8.711916 -7.391602
v -21.466675 36.486328 -7.391602
v -12.124268 33.078125 -7.391602
v -21.466675 8.711916 -7.391602
v -12.124268 18.013674 -7.391602
v 0.000000 -57.953121 7.391602
v -21.466675 -36.486328 7.391602
v -12.124268 -33.078125 7.391602
v 0.000000 -45.202148 7.391602
v -12.124268 -18.013672 7.391602
v -21.466675 -8.711913 7.391602
v 21.466675 -36.486328 7.391602
v 12.124268 -33.078125 7.391602
v 12.124268 -18.013672 7.391602
v 21.466675 -8.711913 7.391602
v 0.000000 -57.953125 -7.391602
v -21.466675 -36.486328 -7.391602
v 0.000000 -45.202148 -7.391602
v -12.124268 -33.078125 -7.391602
v -12.124268 -18.013672 -7.391602
v -21.466675 -8.711914 -7.391602
v 21.466675 -36.486328 -7.391602
v 12.124268 -33.078125 -7.391602
v 21.466675 -8.711914 -7.391602
v 12.124268 -18.013672 -7.391602
v -24.791870 0.000000 7.391602
v 0.000000 -24.791994 7.391602
v 0.000000 24.791992 7.391602
v 24.791870 0.000000 7.391602
v -12.041992 0.000000 7.391602
v 0.000000 -12.041015 7.391602
v 12.041992 0.000000 7.391602
v 0.000000 12.041017 7.391602
v -24.791870 0.000000 -7.391602
v 0.000000 -24.791992 -7.391602
v 0.000000 -12.041016 -7.391602
v -12.041992 0.000000 -7.391602
v 24.791870 0.000000 -7.391602
v 12.041992 0.000000 -7.391602
v 0.000000 24.791994 -7.391602
v 0.000000 12.041018 -7.391602
v -5.616455 -52.335938 7.391602
v -19.830688 -38.122070 7.391602
v -9.855347 -39.011719 7.391602
v -13.989502 -43.962891 -0.457031
v -13.989502 -43.964844 -0.457031
v 5.551636 -19.240234 7.391602
v 19.582886 -5.208985 7.391602
v 8.480225 -7.353516 7.391602
v 11.604858 -13.187500 0.375000
v 11.604980 -13.187500 0.375000
v 4.836914 53.116211 7.391602
v 18.589600 39.362305 7.391602
v 6.887085 42.465820 7.391602
v 12.508911 45.444336 0.938477
v 12.508911 45.443359 0.938477
vt 0.026058 0.511781
vt 0.026058 0.511781
vt 0.026058 0.511781
vt 0.026058 0.511781
vt 0.026058 0.511781
vt 0.026058 0.511781
vt 0.026058 0.511781
vt 0.026058 0.511781
vt 0.026058 0.511781
vt 0.026058 0.511781
vt 0.026058 0.511781
vt 0.026058 0.511781
vt 0.009277 0.508654
vt 0.009277 0.508654
vt 0.009277 0.508654
vt 0.009277 0.508654
vt 0.009277 0.508654
vt 0.009277 0.508655
vt 0.009277 0.508654
vt 0.009277 0.508654
vt 0.009277 0.508654
vt 0.009277 0.508654
vt 0.009277 0.508654
vt 0.009277 0.508654
vt 0.009277 0.508654
vt 0.009277 0.508654
vt 0.009277 0.508654
vt 0.009277 0.508654
vt 0.009277 0.508654
vt 0.009277 0.508654
vt 0.009277 0.508654
vt 0.009277 0.508654
vt 0.009277 0.508654
vt 0.009277 0.508654
vt 0.009277 0.508654
vt 0.009277 0.508654
vt 0.026058 0.511781
vt 0.026058 0.511781
vt 0.026058 0.511781
vt 0.026058 0.511781
vt 0.026058 0.511781
vt 0.026058 0.511781
vt 0.026058 0.511781
vt 0.026058 0.511781
vt 0.026058 0.511781
vt 0.026058 0.511781
vt 0.026058 0.511781
vt 0.026058 0.511781
vt 0.009277 0.508654
vt 0.009277 0.508654
vt 0.009277 0.508654
vt 0.009277 0.508654
vt 0.009277 0.508655
vt 0.009277 0.508654
vt 0.009277 0.508654
vt 0.009277 0.508654
vt 0.009277 0.508654
vt 0.009277 0.508654
vt 0.009277 0.508654
vt 0.009277 0.508654
vt 0.009277 0.508654
vt 0.009277 0.508654
vt 0.009277 0.508654
vt 0.009277 0.508654
vt 0.009277 0.508654
vt 0.009277 0.508654
vt 0.009277 0.508654
vt 0.009277 0.508654
vt 0.009277 0.508654
vt 0.009277 0.508654
vt 0.009277 0.508654
vt 0.009277 0.508654
vt 0.026058 0.511781
vt 0.026058 0.511781
vt 0.026058 0.511781
vt 0.026058 0.511781
vt 0.026058 0.511781
vt 0.026058 0.511781
vt 0.026058 0.511781
vt 0.026058 0.511781
vt 0.009277 0.508654
vt 0.009277 0.508654
vt 0.009277 0.508654
vt 0.009277 0.508654
vt 0.009277 0.508654
vt 0.009277 0.508654
vt 0.009277 0.508654
vt 0.009277 0.508654
vt 0.009277 0.508654
vt 0.009277 0.508655
vt 0.009277 0.508654
vt 0.009277 0.508654
vt 0.009277 0.508654
vt 0.009277 0.508654
vt 0.009277 0.508654
vt 0.009277 0.508654
vt 0.026058 0.511781
vt 0.026058 0.511781
vt 0.026058 0.511781
vt 0.026058 0.511781
vt 0.026058 0.511781
vt 0.026058 0.511781
vt 0.026058 0.511781
vt 0.026058 0.511781
vt 0.026058 0.511781
vt 0.026058 0.511781
vt 0.026058 0.511781
vt 0.026058 0.511781
vt 0.026058 0.511781
vt 0.026058 0.511781
vt 0.026058 0.511781
vt 0.026058 0.511781
vt 0.026058 0.511781
vt 0.026058 0.511781
vt 0.026058 0.511781
vt 0.026058 0.511781
vt 0.026058 0.511781
vt 0.026058 0.511781
vt 0.026058 0.511781
vt 0.026058 0.511781
vt 0.009277 0.508654
vn -0.000000 0.000000 1.000000
vn -0.000000 0.000000 1.000000
vn -0.000000 0.000000 1.000000
vn -0.000000 0.000000 1.000000
vn -0.000000 0.000000 1.000000
vn -0.000000 0.000000 1.000000
vn -0.000000 0.000000 1.000000
vn -0.000000 0.000000 1.000000
vn -0.000000 0.000000 1.000000
vn -0.000000 0.000000 1.000000
vn -0.000000 0.000000 1.000000
vn 0.000000 0.000000 1.000000
vn 0.000000 0.000000 1.000000
vn 0.000000 0.000000 1.000000
vn 0.000000 0.000000 1.000000
vn 0.000000 0.000000 1.000000
vn 0.000000 0.000000 1.000000
vn 0.000000 0.000000 1.000000
vn 0.000000 0.000000 1.000000
vn 0.707104 0.707110 0.000009
vn 0.707104 0.707110 0.000009
vn 0.707104 0.707110 0.000009
vn 0.707104 0.707110 0.000009
vn 0.707104 0.707110 0.000009
vn 0.707104 0.707110 0.000009
vn 0.707104 0.707110 0.000009
vn -0.707100 -0.707114 0.000000
vn -0.707100 -0.707114 0.000000
vn -0.707100 -0.707114 0.000000
vn -0.707100 -0.707114 0.000000
vn -1.000000 0.000000 0.000000
vn -1.000000 0.000000 0.000000
vn -1.000000 0.000000 0.000000
vn -1.000000 0.000000 0.000000
vn -0.705563 -0.708647 -0.000000
vn -0.705563 -0.708647 -0.000000
vn -0.705563 -0.708647 -0.000000
vn -0.705563 -0.708647 -0.000000
vn 1.000000 0.000000 0.000000
vn 1.000000 0.000000 0.000000
vn 1.000000 0.000000 0.000000
vn 1.000000 0.000000 0.000000
vn 0.707100 -0.707114 0.000000
vn 0.707100 -0.707114 0.000000
vn 0.707100 -0.707114 0.000000
vn 0.707100 -0.707114 0.000000
vn -0.707109 0.707105 0.000000
vn -0.707109 0.707105 0.000000
vn -0.707109 0.707105 0.000000
vn -0.707109 0.707105 0.000000
vn -1.000000 0.000000 0.000000
vn -1.000000 0.000000 0.000000
vn -1.000000 0.000000 0.000000
vn -1.000000 0.000000 0.000000
vn 0.705563 -0.708647 -0.000000
vn 0.705563 -0.708647 -0.000000
vn 0.705563 -0.708647 -0.000000
vn 0.705563 -0.708647 -0.000000
vn 1.000000 0.000000 0.000000
vn 1.000000 0.000000 0.000000
vn 1.000000 0.000000 0.000000
vn 1.000000 0.000000 0.000000
vn 0.000000 0.000000 1.000000
vn 0.000000 0.000000 1.000000
vn 0.000000 0.000000 1.000000
vn 0.000000 0.000000 1.000000
vn 0.000000 0.000000 1.000000
vn 0.000000 0.000000 1.000000
vn 0.000000 0.000000 1.000000
vn 0.000000 0.000000 1.000000
vn 0.000000 0.000000 1.000000
vn 0.000000 0.000000 1.000000
vn 0.000000 0.000000 1.000000
vn 0.000000 0.000000 1.000000
vn 0.000000 0.000000 1.000000
vn 0.000000 0.000000 1.000000
vn 0.000000 0.000000 1.000000
vn 0.000000 0.000000 1.000000
vn 0.000000 0.000000 1.000000
vn 0.000000 0.000000 1.000000
vn 0.000000 0.000000 1.000000
vn -0.707111 -0.707103 0.000028
vn -0.707111 -0.707103 0.000028
vn -0.707111 -0.707102 0.000028
vn -0.707111 -0.707102 0.000028
vn -0.707111 -0.707102 0.000028
vn -0.707111 -0.707102 0.000028
vn -0.707111 -0.707102 0.000028
vn 0.707100 0.707114 0.000000
vn 0.707100 0.707114 0.000000
vn 0.707100 0.707114 0.000000
vn 0.707100 0.707114 0.000000
vn 1.000000 0.000000 0.000000
vn 1.000000 0.000000 0.000000
vn 1.000000 0.000000 0.000000
vn 1.000000 0.000000 0.000000
vn 0.705563 0.708647 0.000000
vn 0.705563 0.708647 0.000000
vn 0.705563 0.708647 0.000000
vn 0.705563 0.708647 0.000000
vn -1.000000 0.000000 0.000000
vn -1.000000 0.000000 0.000000
vn -1.000000 0.000000 0.000000
vn -1.000000 0.000000 0.000000
vn -0.707100 0.707114 0.000000
vn -0.707100 0.707114 0.000000
vn -0.707100 0.707114 0.000000
vn -0.707100 0.707114 0.000000
vn 0.707109 -0.707105 0.000000
vn 0.707109 -0.707105 0.000000
vn 0.707109 -0.707105 0.000000
vn 0.707109 -0.707105 0.000000
vn 1.000000 0.000000 0.000000
vn 1.000000 0.000000 0.000000
vn 1.000000 0.000000 0.000000
vn 1.000000 0.000000 0.000000
vn -0.705563 0.708647 0.000000
vn -0.705563 0.708647 0.000000
vn -0.705563 0.708647 0.000000
vn -0.705563 0.708647 0.000000
vn -1.000000 0.000000 0.000000
vn -1.000000 0.000000 0.000000
vn -1.000000 0.000000 0.000000
vn -1.000000 0.000000 0.000000
vn 0.000000 0.000000 1.000000
vn 0.000000 0.000000 1.000000
vn 0.000000 0.000000 1.000000
vn 0.000000 0.000000 1.000000
vn 0.000000 0.000000 1.000000
vn 0.000000 0.000000 1.000000
vn 0.000000 0.000000 1.000000
vn 0.000000 0.000000 1.000000
vn 0.000000 0.000000 1.000000
vn 0.000000 0.000000 1.000000
vn 0.000000 0.000000 1.000000
vn -0.000000 0.000000 1.000000
vn -0.000000 0.000000 1.000000
vn -0.000000 0.000000 1.000000
vn -0.000000 0.000000 1.000000
vn 0.000000 0.000000 1.000000
vn 0.000000 0.000000 1.000000
vn 0.000000 0.000000 1.000000
vn 0.000000 0.000000 1.000000
vn -0.707109 -0.707105 -0.000000
vn -0.707109 -0.707105 -0.000000
vn -0.707109 -0.707105 -0.000000
vn -0.707108 -0.707105 -0.000000
vn 0.707078 0.707136 -0.000000
vn 0.707078 0.707136 -0.000000
vn 0.707078 0.707136 -0.000000
vn 0.707078 0.707136 -0.000000
vn 0.707109 -0.707105 -0.000005
vn 0.707109 -0.707105 -0.000005
vn 0.707109 -0.707105 -0.000005
vn 0.707109 -0.707105 -0.000005
vn 0.707109 -0.707105 -0.000005
vn 0.707109 -0.707105 -0.000005
vn 0.707109 -0.707105 -0.000005
vn -0.707078 0.707136 -0.000000
vn -0.707078 0.707136 -0.000000
vn -0.707078 0.707136 -0.000000
vn -0.707078 0.707136 -0.000000
vn 0.707109 0.707105 0.000000
vn 0.707109 0.707105 0.000000
vn 0.707108 0.707105 0.000000
vn 0.707109 0.707105 0.000000
vn -0.707078 -0.707135 0.000000
vn -0.707078 -0.707135 0.000000
vn -0.707078 -0.707135 0.000000
vn -0.707078 -0.707135 0.000000
vn -0.707109 0.707105 0.000000
vn -0.707108 0.707105 0.000000
vn -0.707109 0.707105 0.000000
vn -0.707109 0.707105 0.000000
vn 0.707078 -0.707135 0.000000
vn 0.707078 -0.707135 0.000000
vn 0.707078 -0.707135 0.000000
vn 0.707078 -0.707135 0.000000
vn -0.783147 -0.249146 0.569743
vn -0.783147 -0.249146 0.569743
vn -0.783147 -0.249146 0.569743
vn 0.683851 0.000000 -0.729622
vn 0.683851 0.000000 -0.729622
vn 0.000000 0.000000 -0.000000
vn -0.073616 -0.825427 0.559688
vn -0.073616 -0.825427 0.559688
vn -0.073616 -0.825427 0.559688
vn -0.802127 0.000000 -0.597154
vn -0.802126 0.000000 -0.597154
vn -0.802126 0.000000 -0.597154
vn 0.821040 -0.202284 0.533830
vn 0.821040 -0.202284 0.533830
vn 0.821040 -0.202284 0.533830
vn 0.000000 -0.759257 -0.650791
vn 0.000000 -0.759257 -0.650791
vn 0.000000 -0.759257 -0.650791
vn 0.000000 0.658505 -0.752577
vn 0.000000 0.658505 -0.752577
vn 0.000000 0.000000 -0.000000
vn 0.140908 -0.729506 0.669303
vn 0.140908 -0.729506 0.669303
vn 0.140908 -0.729506 0.669303
vn 0.213027 0.803267 0.556220
vn 0.213027 0.803267 0.556220
vn 0.213027 0.803267 0.556220
vn -0.000000 0.000000 0.000000
vn -0.728821 0.000000 0.684704
vn -0.728821 0.000000 0.684704
vn 0.642936 0.000000 0.765920
vn 0.642936 0.000000 0.765920
vn 0.000000 0.000000 0.000000
vn 0.714531 0.137545 0.685949
vn 0.714531 0.137545 0.685949
vn 0.714531 0.137545 0.685949
s off
f 2/1/1 68/116/2 69/117/3 67/114/4 1/2/5 4/3/6 3/4/7
f 2/1/8 3/4/9 5/5/10 6/6/11
f 7/7/12 8/8/13 4/9/14 1/10/15
f 7/7/16 10/11/17 9/12/18 8/8/19
f 2/13/20 12/14/21 11/15/22 1/16/23 67/17/24 70/18/25 68/19/26
f 4/20/27 13/21/28 14/22/29 3/23/30
f 3/23/31 14/22/32 15/24/33 5/25/34
f 5/25/35 15/24/36 16/26/37 6/27/38
f 6/27/39 16/26/40 12/14/41 2/13/42
f 8/28/43 18/29/44 13/21/45 4/20/46
f 1/16/47 11/15/48 17/30/49 7/31/50
f 7/31/51 17/30/52 19/32/53 10/33/54
f 10/33/55 19/32/56 20/34/57 9/35/58
f 9/35/59 20/34/60 18/29/61 8/28/62
f 22/37/63 58/100/64 59/101/65 57/98/66 21/38/67 24/39/68 23/40/69
f 22/37/70 23/40/71 25/41/72 26/42/73
f 27/43/74 28/44/75 24/45/76 21/46/77
f 27/43/78 30/47/79 29/48/80 28/44/81
f 22/36/82 32/49/83 31/50/84 21/51/85 57/52/86 60/53/87 58/54/88
f 24/55/89 33/56/90 34/57/91 23/58/92
f 23/58/93 34/57/94 35/59/95 25/60/96
f 25/60/97 35/59/98 36/61/99 26/62/100
f 26/62/101 36/61/102 32/49/103 22/36/104
f 28/63/105 38/64/106 33/56/107 24/55/108
f 21/51/109 31/50/110 37/65/111 27/66/112
f 27/66/113 37/65/114 39/67/115 30/68/116
f 30/68/117 39/67/118 40/69/119 29/70/120
f 29/70/121 40/69/122 38/64/123 28/63/124
f 41/73/125 42/74/126 46/75/127 45/76/128
f 42/74/129 62/105/130 64/109/131 63/107/132 44/77/133 47/78/134 46/75/135
f 44/77/136 43/79/137 48/80/138 47/78/139
f 43/79/140 41/73/141 45/76/142 48/80/143
f 41/71/144 49/72/145 50/81/146 42/82/147
f 46/83/148 51/84/149 52/85/150 45/86/151
f 42/82/152 50/81/153 53/87/154 44/88/155 63/89/156 65/90/157 62/91/158
f 47/92/159 54/93/160 51/84/161 46/83/162
f 44/88/163 53/87/164 55/94/165 43/95/166
f 48/96/167 56/121/168 54/93/169 47/92/170
f 43/95/171 55/94/172 49/72/173 41/71/174
f 45/86/175 52/85/176 56/121/177 48/96/178
f 57/98/179 59/101/180 61/104/181
f 61/103/182 60/102/183 57/97/184
f 61/104/185 59/101/186 58/100/187
f 58/99/188 60/102/189 61/103/190
f 66/111/191 64/109/192 62/105/193
f 62/106/194 65/110/195 66/112/196
f 66/112/197 65/110/198 63/108/199
f 63/107/200 64/109/201 66/111/202
f 71/120/203 69/117/204 68/116/205
f 68/115/206 70/118/207 71/119/208
f 71/119/209 70/118/210 67/113/211
f 67/114/212 69/117/213 71/120/214
