# This file uses centimeters as units for non-parametric coordinates.

v 20.219482 -13.480470 7.391602
v 26.959229 -6.741211 7.391602
v 0.000000 -20.219727 7.391602
v 13.479980 -6.741211 7.391602
v 20.219482 -0.000000 7.391602
v 26.959229 6.739258 7.391602
v -13.479492 -6.741211 7.391602
v 0.000000 -6.741211 7.391602
v 6.739746 -0.000000 7.391602
v 13.479980 6.739258 7.391602
v 20.219482 13.478516 7.391602
v -20.219482 -13.480470 7.391602
v -6.739746 -0.000000 7.391602
v 0.000000 6.739258 7.391602
v 0.000000 20.218748 0.231445
v -26.959229 -6.741211 -0.141602
v -20.219482 -0.000000 7.391602
v -13.479492 6.739258 7.391602
v -26.959229 6.739258 7.391602
v -20.219482 13.478516 7.391602
v 20.219482 -13.480469 -7.391602
v 26.959229 -6.741211 -7.391602
v 20.219482 0.000000 -7.391602
v 13.479980 -6.741211 -7.391602
v 0.000000 -20.219727 -7.391602
v 0.000000 -6.741211 -7.391602
v -13.479492 -6.741211 -7.391602
v 6.739746 0.000000 -7.391602
v 13.479980 6.739260 -7.391602
v 26.959229 6.739260 -7.391602
v 20.219482 13.478518 -7.391602
v -6.739746 0.000000 -7.391602
v 0.000000 20.218752 -7.391602
v 0.000000 6.739260 -7.391602
v -20.219482 -13.480469 -7.391602
v -20.219482 0.000000 -7.391602
v -26.959229 -6.741211 -7.391602
v -13.479492 6.739260 -7.391602
v -20.219482 13.478514 -7.391602
v -26.959229 6.739256 -7.391602
v 6.179932 14.040039 7.391602
v -4.915039 15.304688 7.391602
v 0.000000 12.359375 7.391602
v -22.509521 -2.290039 7.391602
v -23.440430 -10.259767 7.391602
v -1.562012 -18.657227 7.391602
v -9.861328 -10.358399 7.391602
v -2.020752 -11.239259 7.391602
v -7.770020 -12.450195 1.092773
vt 0.026058 0.511781
vt 0.026058 0.511781
vt 0.026058 0.511781
vt 0.026058 0.511781
vt 0.026058 0.511781
vt 0.026058 0.511781
vt 0.026058 0.511781
vt 0.026058 0.511781
vt 0.026058 0.511781
vt 0.026058 0.511781
vt 0.026058 0.511781
vt 0.026058 0.511781
vt 0.026058 0.511781
vt 0.026058 0.511781
vt 0.026058 0.511781
vt 0.026058 0.511781
vt 0.026058 0.511781
vt 0.026058 0.511781
vt 0.026058 0.511781
vt 0.026058 0.511781
vt 0.009277 0.508654
vt 0.009277 0.508654
vt 0.009277 0.508654
vt 0.009277 0.508654
vt 0.009277 0.508654
vt 0.009277 0.508654
vt 0.009277 0.508654
vt 0.009277 0.508654
vt 0.009277 0.508654
vt 0.009277 0.508654
vt 0.009277 0.508654
vt 0.009277 0.508654
vt 0.009277 0.508654
vt 0.009277 0.508655
vt 0.009277 0.508654
vt 0.009277 0.508654
vt 0.009277 0.508654
vt 0.009277 0.508654
vt 0.009277 0.508654
vt 0.009277 0.508654
vt 0.009277 0.508654
vt 0.009277 0.508654
vt 0.009277 0.508654
vt 0.009277 0.508654
vt 0.009277 0.508654
vt 0.009277 0.508654
vt 0.009277 0.508654
vt 0.009277 0.508654
vt 0.009277 0.508654
vt 0.009277 0.508654
vt 0.009277 0.508654
vt 0.009277 0.508654
vt 0.009277 0.508654
vt 0.009277 0.508654
vt 0.009277 0.508654
vt 0.009277 0.508654
vt 0.009277 0.508654
vt 0.009277 0.508654
vt 0.009277 0.508654
vt 0.009277 0.508654
vt 0.026058 0.511781
vt 0.009277 0.508655
vt 0.009277 0.508654
vt 0.026058 0.511781
vt 0.026058 0.511781
vt 0.009277 0.508654
vt 0.026058 0.511781
vt 0.009277 0.508654
vt 0.026058 0.511781
vt 0.009277 0.508655
vt 0.026058 0.511781
vt 0.009277 0.508654
vt 0.026058 0.511781
vt 0.026058 0.511781
vt 0.009277 0.508654
vt 0.026058 0.511781
vn 0.000000 0.000000 1.000000
vn 0.000000 0.000000 1.000000
vn 0.000000 0.000000 1.000000
vn 0.000000 0.000000 1.000000
vn 0.000000 0.000000 1.000000
vn 0.000000 0.000000 1.000000
vn 0.000000 0.000000 1.000000
vn 0.000000 0.000000 1.000000
vn 0.000000 0.000000 1.000000
vn 0.000000 0.000000 1.000000
vn 0.000000 0.000000 1.000000
vn 0.000000 0.000000 1.000000
vn 0.000000 0.000000 1.000000
vn 0.000000 0.000000 1.000000
vn -0.000000 0.000000 1.000000
vn -0.000000 0.000000 1.000000
vn -0.000000 0.000000 1.000000
vn -0.000000 0.000000 1.000000
vn 0.000000 0.000000 1.000000
vn 0.000000 0.000000 1.000000
vn 0.000000 0.000000 1.000000
vn 0.000000 0.000000 1.000000
vn 0.000000 0.000000 1.000000
vn 0.000000 0.000000 1.000000
vn 0.000000 0.000000 1.000000
vn -0.180154 0.662440 0.727130
vn -0.180154 0.662440 0.727130
vn -0.180154 0.662440 0.727130
vn -0.881896 0.103010 0.460052
vn -0.881896 0.103010 0.460052
vn -0.881896 0.103010 0.460052
vn -0.000000 0.000000 1.000000
vn -0.000000 0.000000 1.000000
vn -0.000000 0.000000 1.000000
vn -0.000000 0.000000 1.000000
vn 0.000000 0.000000 1.000000
vn 0.000000 0.000000 1.000000
vn 0.000000 0.000000 1.000000
vn 0.374240 0.624520 0.685507
vn 0.374240 0.624520 0.685507
vn 0.374240 0.624520 0.685507
vn 0.000000 0.000000 1.000000
vn 0.000000 0.000000 1.000000
vn 0.000000 0.000000 1.000000
vn 0.000000 0.000000 1.000000
vn 0.707081 -0.707132 0.000000
vn 0.707081 -0.707132 0.000000
vn 0.707081 -0.707132 0.000000
vn 0.707081 -0.707132 0.000000
vn 0.707184 0.707030 0.000000
vn 0.707184 0.707030 0.000000
vn 0.707184 0.707030 0.000000
vn 0.707184 0.707030 0.000000
vn -0.707094 -0.707120 0.000000
vn -0.707094 -0.707120 0.000000
vn -0.707094 -0.707120 0.000000
vn -0.707094 -0.707120 0.000000
vn -0.707080 -0.707133 0.000019
vn -0.707080 -0.707133 0.000019
vn -0.707080 -0.707133 0.000019
vn -0.707080 -0.707133 0.000019
vn -0.707080 -0.707133 0.000019
vn -0.707080 -0.707133 0.000019
vn -0.707080 -0.707133 0.000019
vn 0.707068 -0.707145 0.000000
vn 0.707068 -0.707145 0.000000
vn 0.707068 -0.707145 0.000000
vn 0.707068 -0.707145 0.000000
vn -0.707184 0.707030 0.000000
vn -0.707184 0.707030 0.000000
vn -0.707184 0.707030 0.000000
vn -0.707184 0.707030 0.000000
vn 0.707081 -0.707132 -0.000000
vn 0.707081 -0.707132 -0.000000
vn 0.707081 -0.707132 -0.000000
vn 0.707081 -0.707132 -0.000000
vn 0.707081 0.707132 0.000000
vn 0.707081 0.707132 0.000000
vn 0.707081 0.707132 0.000000
vn 0.707081 0.707132 0.000000
vn -0.707094 0.707120 0.000000
vn -0.707094 0.707120 0.000000
vn -0.707094 0.707120 0.000000
vn -0.707094 0.707120 0.000000
vn 0.707184 0.707030 0.000000
vn 0.707184 0.707030 0.000000
vn 0.707184 0.707030 0.000000
vn 0.707184 0.707030 0.000000
vn -0.707081 -0.707132 -0.000000
vn -0.707081 -0.707132 -0.000000
vn -0.707081 -0.707132 -0.000000
vn -0.707081 -0.707132 -0.000000
vn 0.707068 -0.707145 0.000000
vn 0.707068 -0.707145 0.000000
vn 0.707068 -0.707145 0.000000
vn 0.707068 -0.707145 0.000000
vn 0.707081 -0.707132 -0.000000
vn 0.707081 -0.707132 -0.000000
vn 0.707081 -0.707132 -0.000000
vn 0.707081 -0.707132 -0.000000
vn 0.707068 0.707145 0.000000
vn 0.707068 0.707145 0.000000
vn 0.707068 0.707145 0.000000
vn 0.707068 0.707145 0.000000
vn -0.707081 0.707132 -0.000000
vn -0.707081 0.707132 -0.000000
vn -0.707081 0.707132 -0.000000
vn -0.707081 0.707132 -0.000000
vn -0.707081 -0.707132 0.000000
vn -0.707081 -0.707133 0.000000
vn -0.707081 -0.707133 0.000000
vn -0.707081 -0.707133 0.000000
vn 0.707101 0.707112 -0.000027
vn 0.707101 0.707113 -0.000027
vn 0.707101 0.707113 -0.000027
vn 0.707101 0.707113 -0.000027
vn 0.707101 0.707113 -0.000027
vn -0.707114 0.707100 -0.000026
vn -0.707114 0.707100 -0.000026
vn -0.707114 0.707100 -0.000026
vn -0.707114 0.707100 -0.000026
vn -0.707114 0.707100 -0.000026
vn 0.000000 0.000000 1.000000
vn 0.000000 0.000000 1.000000
vn 0.000000 0.000000 1.000000
vn 0.000000 0.000000 1.000000
vn 0.000000 0.000000 1.000000
vn 0.000000 0.000000 1.000000
vn 0.000000 0.000000 1.000000
vn 0.000000 0.000000 1.000000
vn 0.000000 0.000000 1.000000
vn -0.707176 0.707038 -0.000014
vn -0.707176 0.707038 -0.000014
vn -0.707176 0.707038 -0.000014
vn -0.707176 0.707038 -0.000014
vn -0.707176 0.707038 -0.000014
vn -0.707081 -0.707133 -0.000000
vn -0.707081 -0.707133 -0.000000
vn -0.707081 -0.707133 -0.000000
vn -0.707081 -0.707133 -0.000000
vn -0.707081 -0.707133 -0.000000
vn 0.000000 0.000000 1.000000
vn 0.000000 0.000000 1.000000
vn 0.000000 0.000000 1.000000
vn 0.000000 0.000000 1.000000
vn 0.000000 0.000000 1.000000
vn -0.733475 -0.045359 0.678201
vn -0.733475 -0.045359 0.678201
vn -0.733475 -0.045359 0.678201
vn -0.107141 -0.953669 0.281134
vn -0.107141 -0.953669 0.281134
vn -0.107141 -0.953669 0.281134
s off
f 1/1/1 2/2/2 5/3/3 4/4/4
f 3/5/5 8/6/6 7/7/7 47/73/8 48/74/9 46/71/10
f 3/5/11 4/4/12 9/8/13 8/6/14
f 4/4/15 5/3/16 10/9/17 9/8/18
f 5/3/19 6/10/20 11/11/21 10/9/22
f 7/7/23 8/6/24 13/12/25
f 43/65/26 41/61/27 15/13/28
f 45/69/29 44/67/30 16/17/31
f 7/7/32 13/12/33 18/18/34 17/16/35
f 13/12/36 14/14/37 18/18/38
f 42/64/39 43/65/40 15/13/41
f 17/16/42 18/18/43 20/19/44 19/20/45
f 1/21/46 21/22/47 22/23/48 2/24/49
f 2/24/50 22/23/51 23/25/52 5/26/53
f 4/27/54 24/28/55 21/22/56 1/21/57
f 7/29/58 27/30/59 25/31/60 3/32/61 46/33/62 49/34/63 47/35/64
f 3/32/65 25/31/66 24/28/67 4/27/68
f 9/36/69 28/37/70 26/38/71 8/39/72
f 5/26/73 23/25/74 30/40/75 6/41/76
f 6/41/77 30/40/78 31/42/79 11/43/80
f 11/43/81 31/42/82 29/44/83 10/45/84
f 8/39/85 26/38/86 32/46/87 13/47/88
f 14/48/89 34/49/90 28/37/91 9/36/92
f 12/50/93 35/51/94 27/30/95 7/29/96
f 13/47/97 32/46/98 34/49/99 14/48/100
f 18/52/101 38/53/102 39/54/103 20/55/104
f 20/55/105 39/54/106 40/56/107 19/57/108
f 19/57/109 40/56/110 36/58/111 17/59/112
f 10/45/113 29/44/114 33/60/115 15/62/116 41/63/117
f 42/66/118 15/62/119 33/60/120 38/53/121 18/52/122
f 14/14/123 43/65/124 42/64/125 18/18/126
f 9/8/127 10/9/128 41/61/129 43/65/130 14/14/131
f 17/59/132 36/58/133 37/68/134 16/70/135 44/72/136
f 45/75/137 16/70/138 37/68/139 35/51/140 12/50/141
f 12/15/142 7/7/143 17/16/144 44/67/145 45/69/146
f 46/71/147 48/74/148 49/76/149
f 49/76/150 48/74/151 47/73/152
