# This file uses centimeters as units for non-parametric coordinates.

v -8.469482 -0.000000 7.391602
v -0.000732 -8.469727 7.391602
v -0.000732 8.469727 7.391602
v 8.469482 -0.000000 7.391602
v -8.469482 0.000000 -7.391602
v -0.000732 -8.469727 -7.391602
v 8.469482 0.000000 -7.391602
v -0.000732 8.469728 -7.391602
vt 0.026058 0.511781
vt 0.026058 0.511781
vt 0.026058 0.511781
vt 0.026058 0.511781
vt 0.009277 0.508654
vt 0.009277 0.508654
vt 0.009277 0.508654
vt 0.009277 0.508654
vt 0.009277 0.508654
vt 0.009277 0.508654
vt 0.009277 0.508654
vt 0.009277 0.508654
vn 0.000000 0.000000 1.000000
vn 0.000000 0.000000 1.000000
vn 0.000000 0.000000 1.000000
vn 0.000000 0.000000 1.000000
vn -0.707148 -0.707066 0.000000
vn -0.707148 -0.707066 0.000000
vn -0.707148 -0.707066 0.000000
vn -0.707148 -0.707066 0.000000
vn 0.707086 -0.707127 0.000000
vn 0.707086 -0.707127 0.000000
vn 0.707086 -0.707127 0.000000
vn 0.707086 -0.707127 0.000000
vn 0.707086 0.707127 0.000000
vn 0.707086 0.707127 0.000000
vn 0.707086 0.707127 0.000000
vn 0.707086 0.707127 0.000000
vn -0.707148 0.707066 0.000000
vn -0.707148 0.707066 0.000000
vn -0.707148 0.707066 0.000000
vn -0.707148 0.707066 0.000000
s off
f 1/1/1 2/2/2 4/3/3 3/4/4
f 1/5/5 5/6/6 6/7/7 2/8/8
f 2/8/9 6/7/10 7/9/11 4/10/12
f 4/10/13 7/9/14 8/11/15 3/12/16
f 3/12/17 8/11/18 5/6/19 1/5/20
