# This file uses centimeters as units for non-parametric coordinates.

v 40.438965 -20.218750 7.391602
v 47.178467 -13.478517 7.391602
v 26.959229 -6.739258 7.391602
v 0.000000 -33.698242 7.391602
v 33.698975 -0.000977 7.391602
v 47.178467 13.480469 7.391602
v 0.000000 -20.218750 7.391602
v 6.739746 -13.478517 7.391602
v 13.479492 -6.739258 7.391602
v 20.219482 -0.000977 7.391602
v 26.959229 6.741211 7.391602
v 40.438965 20.219727 7.391602
v -6.739746 -13.478517 7.391602
v 0.000000 -6.739258 7.391602
v 6.739746 -0.000977 7.391602
v 13.479492 6.741211 7.391602
v -26.959229 -6.739258 7.391602
v -13.479492 -6.739258 7.391602
v -6.739746 -0.000977 7.391602
v 0.000000 6.741211 7.391602
v 6.739746 13.480469 7.391602
v -40.438965 -20.218750 7.391602
v -20.219482 -0.000977 7.391602
v -13.479492 6.741211 7.391602
v -6.739746 13.480469 7.391602
v 0.000000 20.219727 7.391602
v -47.178467 -13.478517 7.391602
v -33.698975 -0.000977 7.391602
v -26.959229 6.741211 7.391602
v 0.000000 33.700195 7.391602
v -47.178467 13.480469 1.306641
v -40.438965 20.219727 7.391602
v 40.438965 -20.218750 -7.391602
v 47.178467 -13.478516 -7.391602
v 26.959229 -6.739258 -7.391602
v 33.698975 -0.000977 -7.391602
v 0.000000 -33.698242 -7.391602
v 6.739746 -13.478516 -7.391602
v 0.000000 -20.218750 -7.391602
v 13.479492 -6.739258 -7.391602
v 20.219482 -0.000977 -7.391602
v 26.959229 6.741209 -7.391602
v 40.438965 20.219725 -7.391602
v 47.178467 13.480467 -7.391602
v -6.739746 -13.478516 -7.391602
v 6.739746 -0.000977 -7.391602
v 0.000000 -6.739258 -7.391602
v 13.479492 6.741213 -7.391602
v -13.479492 -6.739258 -7.391602
v -26.959229 -6.739258 -7.391602
v -6.739746 -0.000977 -7.391602
v 0.000000 6.741213 -7.391602
v 6.739746 13.480471 -7.391602
v -20.219482 -0.000977 -7.391602
v -6.739746 13.480471 -7.391602
v -13.479492 6.741213 -7.391602
v 0.000000 33.700195 -7.391602
v 0.000000 20.219728 -7.391602
v -40.438965 -20.218750 -7.391602
v -33.698975 -0.000977 -7.391602
v -47.178467 -13.478516 -7.391602
v -26.959229 6.741209 -7.391602
v -40.438965 20.219725 -7.391602
v -47.178467 13.480467 -7.391602
v 5.332520 -28.366211 7.391602
v 21.067871 -12.630860 7.391602
v 10.745117 -14.774415 7.391602
v 10.699951 -22.998047 1.681641
v -18.908203 14.791992 7.391602
v -5.456787 28.242188 7.391602
v -8.371826 16.792969 7.391602
v -10.758301 22.940430 2.679688
v -43.412354 17.246094 7.391602
v -41.697754 7.999023 7.391602
v -7.270264 -26.427734 7.391602
v -19.614014 -14.084962 7.391602
v -9.828125 -17.473633 7.391602
v -13.017334 -20.681641 1.081055
vt 0.026058 0.511781
vt 0.026058 0.511781
vt 0.026058 0.511781
vt 0.026058 0.511781
vt 0.026058 0.511781
vt 0.026058 0.511781
vt 0.026058 0.511781
vt 0.026058 0.511781
vt 0.026058 0.511781
vt 0.026058 0.511781
vt 0.026058 0.511781
vt 0.026058 0.511781
vt 0.026058 0.511781
vt 0.026058 0.511781
vt 0.026058 0.511781
vt 0.026058 0.511781
vt 0.026058 0.511781
vt 0.026058 0.511781
vt 0.026058 0.511781
vt 0.026058 0.511781
vt 0.026058 0.511781
vt 0.026058 0.511781
vt 0.026058 0.511781
vt 0.026058 0.511781
vt 0.026058 0.511781
vt 0.026058 0.511781
vt 0.026058 0.511781
vt 0.026058 0.511781
vt 0.026058 0.511781
vt 0.026058 0.511781
vt 0.026058 0.511781
vt 0.026058 0.511781
vt 0.009277 0.508654
vt 0.009277 0.508654
vt 0.009277 0.508654
vt 0.009277 0.508654
vt 0.009277 0.508654
vt 0.009277 0.508654
vt 0.009277 0.508654
vt 0.009277 0.508654
vt 0.009277 0.508654
vt 0.009277 0.508654
vt 0.009277 0.508654
vt 0.009277 0.508654
vt 0.009277 0.508654
vt 0.009277 0.508654
vt 0.009277 0.508654
vt 0.009277 0.508655
vt 0.009277 0.508654
vt 0.009277 0.508654
vt 0.009277 0.508654
vt 0.009277 0.508654
vt 0.009277 0.508654
vt 0.009277 0.508654
vt 0.009277 0.508654
vt 0.009277 0.508654
vt 0.009277 0.508654
vt 0.009277 0.508654
vt 0.009277 0.508654
vt 0.009277 0.508654
vt 0.009277 0.508654
vt 0.009277 0.508654
vt 0.009277 0.508654
vt 0.009277 0.508654
vt 0.009277 0.508654
vt 0.009277 0.508654
vt 0.009277 0.508654
vt 0.009277 0.508654
vt 0.009277 0.508654
vt 0.009277 0.508654
vt 0.009277 0.508655
vt 0.009277 0.508654
vt 0.009277 0.508654
vt 0.009277 0.508654
vt 0.009277 0.508654
vt 0.009277 0.508654
vt 0.009277 0.508654
vt 0.009277 0.508654
vt 0.009277 0.508654
vt 0.009277 0.508654
vt 0.009277 0.508654
vt 0.009277 0.508654
vt 0.009277 0.508654
vt 0.009277 0.508654
vt 0.009277 0.508654
vt 0.009277 0.508654
vt 0.009277 0.508654
vt 0.009277 0.508654
vt 0.009277 0.508654
vt 0.009277 0.508654
vt 0.009277 0.508654
vt 0.009277 0.508654
vt 0.009277 0.508654
vt 0.009277 0.508654
vt 0.009277 0.508654
vt 0.009277 0.508654
vt 0.026058 0.511781
vt 0.009277 0.508654
vt 0.026058 0.511781
vt 0.009277 0.508654
vt 0.026058 0.511781
vt 0.009277 0.508654
vt 0.026058 0.511781
vt 0.009277 0.508655
vt 0.026058 0.511781
vt 0.009277 0.508654
vt 0.026058 0.511781
vt 0.026058 0.511781
vt 0.009277 0.508654
vt 0.026058 0.511781
vt 0.009277 0.508654
vt 0.026058 0.511781
vt 0.009277 0.508654
vt 0.026058 0.511781
vt 0.009277 0.508655
vt 0.026058 0.511781
vt 0.009277 0.508654
vt 0.026058 0.511781
vt 0.026058 0.511781
vt 0.009277 0.508654
vt 0.026058 0.511781
vn -0.000000 0.000000 1.000000
vn -0.000000 0.000000 1.000000
vn -0.000000 0.000000 1.000000
vn 0.000000 0.000000 1.000000
vn 0.000000 0.000000 1.000000
vn 0.000000 0.000000 1.000000
vn -0.000000 0.000000 1.000000
vn -0.000000 0.000000 1.000000
vn -0.000000 0.000000 1.000000
vn 0.000000 0.000000 1.000000
vn 0.000000 0.000000 1.000000
vn 0.000000 0.000000 1.000000
vn 0.000000 0.000000 1.000000
vn 0.000000 0.000000 1.000000
vn 0.000000 0.000000 1.000000
vn 0.000000 0.000000 1.000000
vn 0.000000 0.000000 1.000000
vn 0.000000 0.000000 1.000000
vn 0.000000 0.000000 1.000000
vn -0.000000 0.000000 1.000000
vn -0.000000 0.000000 1.000000
vn -0.000000 0.000000 1.000000
vn -0.000000 0.000000 1.000000
vn 0.000000 0.000000 1.000000
vn 0.000000 0.000000 1.000000
vn 0.000000 0.000000 1.000000
vn 0.000000 0.000000 1.000000
vn 0.000000 0.000000 1.000000
vn 0.000000 0.000000 1.000000
vn 0.000000 0.000000 1.000000
vn 0.000000 0.000000 1.000000
vn 0.000000 0.000000 1.000000
vn 0.000000 0.000000 1.000000
vn 0.000000 0.000000 1.000000
vn 0.000000 0.000000 1.000000
vn 0.000000 0.000000 1.000000
vn 0.000000 0.000000 1.000000
vn 0.000000 0.000000 1.000000
vn 0.000000 0.000000 1.000000
vn -0.000000 0.000000 1.000000
vn -0.000000 0.000000 1.000000
vn -0.000000 0.000000 1.000000
vn -0.000000 0.000000 1.000000
vn -0.000000 0.000000 1.000000
vn -0.000000 0.000000 1.000000
vn -0.000000 0.000000 1.000000
vn 0.000000 0.000000 1.000000
vn 0.000000 0.000000 1.000000
vn 0.000000 0.000000 1.000000
vn 0.000000 0.000000 1.000000
vn -0.000000 0.000000 1.000000
vn -0.000000 0.000000 1.000000
vn -0.000000 0.000000 1.000000
vn -0.000000 0.000000 1.000000
vn -0.000000 0.000000 1.000000
vn -0.000000 0.000000 1.000000
vn -0.000000 0.000000 1.000000
vn -0.000000 0.000000 1.000000
vn 0.000000 0.000000 1.000000
vn 0.000000 0.000000 1.000000
vn 0.000000 0.000000 1.000000
vn 0.000000 0.000000 1.000000
vn 0.000000 0.000000 1.000000
vn 0.000000 0.000000 1.000000
vn -0.000000 0.000000 1.000000
vn -0.000000 0.000000 1.000000
vn -0.000000 0.000000 1.000000
vn -0.000000 0.000000 1.000000
vn 0.000000 0.000000 1.000000
vn 0.000000 0.000000 1.000000
vn 0.000000 0.000000 1.000000
vn 0.000000 0.000000 1.000000
vn 0.000000 0.000000 1.000000
vn 0.000000 0.000000 1.000000
vn 0.000000 0.000000 1.000000
vn 0.000000 0.000000 1.000000
vn -0.000000 0.000000 1.000000
vn -0.000000 0.000000 1.000000
vn -0.000000 0.000000 1.000000
vn -0.000000 0.000000 1.000000
vn 0.000000 0.000000 1.000000
vn 0.000000 0.000000 1.000000
vn 0.000000 0.000000 1.000000
vn 0.000000 0.000000 1.000000
vn 0.000000 0.000000 1.000000
vn 0.000000 0.000000 1.000000
vn 0.000000 0.000000 1.000000
vn 0.000000 0.000000 1.000000
vn 0.000000 0.000000 1.000000
vn 0.000000 0.000000 1.000000
vn 0.000000 0.000000 1.000000
vn 0.000000 0.000000 1.000000
vn 0.000000 0.000000 1.000000
vn 0.000000 0.000000 1.000000
vn 0.000000 0.000000 1.000000
vn 0.000000 0.000000 1.000000
vn 0.000000 0.000000 1.000000
vn 0.000000 0.000000 1.000000
vn 0.707145 -0.707068 0.000000
vn 0.707145 -0.707068 0.000000
vn 0.707145 -0.707068 0.000000
vn 0.707145 -0.707068 0.000000
vn -0.707100 -0.707113 0.000000
vn -0.707100 -0.707113 0.000000
vn -0.707100 -0.707113 0.000000
vn -0.707100 -0.707113 0.000000
vn 0.707056 0.707158 0.000000
vn 0.707056 0.707158 0.000000
vn 0.707056 0.707158 0.000000
vn 0.707056 0.707158 0.000000
vn -0.707132 0.707081 0.000000
vn -0.707132 0.707081 0.000000
vn -0.707132 0.707081 0.000000
vn -0.707132 0.707081 0.000000
vn 0.707103 -0.707110 -0.000004
vn 0.707103 -0.707110 -0.000004
vn 0.707103 -0.707110 -0.000004
vn 0.707103 -0.707110 -0.000004
vn 0.707103 -0.707110 -0.000004
vn 0.707103 -0.707110 -0.000004
vn 0.707103 -0.707110 -0.000004
vn -0.707017 0.707196 0.000000
vn -0.707017 0.707196 0.000000
vn -0.707017 0.707196 0.000000
vn -0.707017 0.707196 0.000000
vn -0.707075 0.707139 -0.000000
vn -0.707075 0.707139 -0.000000
vn -0.707075 0.707139 -0.000000
vn -0.707075 0.707139 -0.000000
vn 0.707158 -0.707056 0.000000
vn 0.707158 -0.707056 0.000000
vn 0.707158 -0.707056 0.000000
vn 0.707158 -0.707056 0.000000
vn 0.707094 0.707120 -0.000000
vn 0.707094 0.707120 -0.000000
vn 0.707094 0.707120 -0.000000
vn 0.707094 0.707120 -0.000000
vn 0.707132 0.707081 0.000000
vn 0.707132 0.707081 0.000000
vn 0.707132 0.707081 0.000000
vn 0.707132 0.707081 0.000000
vn 0.707030 0.707184 0.000000
vn 0.707030 0.707184 0.000000
vn 0.707030 0.707184 0.000000
vn 0.707030 0.707184 0.000000
vn -0.707081 -0.707132 0.000000
vn -0.707081 -0.707132 0.000000
vn -0.707081 -0.707132 0.000000
vn -0.707081 -0.707132 0.000000
vn -0.707222 -0.706992 -0.000000
vn -0.707222 -0.706992 -0.000000
vn -0.707222 -0.706992 -0.000000
vn -0.707222 -0.706992 -0.000000
vn -0.707106 -0.707107 -0.000011
vn -0.707106 -0.707107 -0.000011
vn -0.707106 -0.707107 -0.000011
vn -0.707106 -0.707107 -0.000011
vn -0.707106 -0.707107 -0.000011
vn -0.707106 -0.707107 -0.000011
vn -0.707106 -0.707107 -0.000011
vn 0.707081 -0.707132 0.000000
vn 0.707081 -0.707132 0.000000
vn 0.707081 -0.707132 0.000000
vn 0.707081 -0.707132 0.000000
vn -0.707030 0.707184 0.000000
vn -0.707030 0.707184 0.000000
vn -0.707030 0.707184 0.000000
vn -0.707030 0.707184 0.000000
vn 0.707235 -0.706979 -0.000000
vn 0.707235 -0.706979 -0.000000
vn 0.707235 -0.706979 -0.000000
vn 0.707235 -0.706979 -0.000000
vn -0.707081 0.707132 0.000000
vn -0.707081 0.707132 0.000000
vn -0.707081 0.707132 0.000000
vn -0.707081 0.707132 0.000000
vn 0.707017 0.707196 0.000000
vn 0.707017 0.707196 0.000000
vn 0.707017 0.707196 0.000000
vn 0.707017 0.707196 0.000000
vn 0.707081 0.707132 0.000000
vn 0.707081 0.707132 0.000000
vn 0.707081 0.707132 0.000000
vn 0.707081 0.707132 0.000000
vn -0.707235 -0.706979 -0.000000
vn -0.707235 -0.706979 -0.000000
vn -0.707235 -0.706979 -0.000000
vn -0.707235 -0.706979 -0.000000
vn 0.707104 0.707110 0.000000
vn 0.707104 0.707110 0.000000
vn 0.707104 0.707110 0.000000
vn 0.707104 0.707110 0.000000
vn -0.707081 -0.707132 -0.000000
vn -0.707081 -0.707132 -0.000000
vn -0.707081 -0.707132 -0.000000
vn -0.707081 -0.707132 -0.000000
vn 0.707100 -0.707113 0.000000
vn 0.707100 -0.707113 0.000000
vn 0.707100 -0.707113 0.000000
vn 0.707100 -0.707113 0.000000
vn -0.707056 0.707158 0.000000
vn -0.707056 0.707158 0.000000
vn -0.707056 0.707158 0.000000
vn -0.707056 0.707158 0.000000
vn -0.707145 -0.707068 0.000000
vn -0.707145 -0.707068 0.000000
vn -0.707145 -0.707068 0.000000
vn -0.707145 -0.707068 0.000000
vn 0.707222 -0.706992 -0.000000
vn 0.707222 -0.706992 -0.000000
vn 0.707222 -0.706992 -0.000000
vn 0.707222 -0.706992 -0.000000
vn -0.707106 0.707108 0.000036
vn -0.707106 0.707108 0.000036
vn -0.707106 0.707108 0.000036
vn -0.707106 0.707108 0.000036
vn -0.707106 0.707108 0.000036
vn -0.707106 0.707108 0.000036
vn -0.707106 0.707108 0.000036
vn 0.707081 -0.707132 -0.000000
vn 0.707081 -0.707132 -0.000000
vn 0.707081 -0.707132 -0.000000
vn 0.707081 -0.707132 -0.000000
vn 0.707075 0.707139 -0.000000
vn 0.707075 0.707139 -0.000000
vn 0.707075 0.707139 -0.000000
vn 0.707075 0.707139 -0.000000
vn -0.707098 0.707115 0.000009
vn -0.707098 0.707115 0.000009
vn -0.707098 0.707115 0.000009
vn -0.707098 0.707115 0.000009
vn -0.707098 0.707115 0.000009
vn -0.707158 -0.707055 0.000002
vn -0.707158 -0.707055 0.000002
vn -0.707158 -0.707055 0.000002
vn -0.707158 -0.707055 0.000002
vn -0.707158 -0.707055 0.000002
vn 0.822408 -0.327504 0.465174
vn 0.822408 -0.327504 0.465174
vn 0.822408 -0.327504 0.465174
vn 0.117699 -0.566807 0.815399
vn 0.117699 -0.566807 0.815399
vn 0.117699 -0.566807 0.815399
vn -0.109674 0.577500 0.808990
vn -0.109674 0.577500 0.808990
vn -0.109674 0.577500 0.808990
vn -0.752037 0.191473 0.630697
vn -0.752037 0.191473 0.630697
vn -0.752037 0.191473 0.630697
vn -0.797415 -0.147857 0.585037
vn -0.797415 -0.147857 0.585037
vn -0.797415 -0.147857 0.585037
vn -0.815172 -0.232865 0.530348
vn -0.815172 -0.232865 0.530348
vn -0.815172 -0.232865 0.530348
vn -0.274888 -0.793828 0.542470
vn -0.274888 -0.793828 0.542470
vn -0.274888 -0.793828 0.542470
s off
f 1/1/1 2/2/2 3/3/3
f 3/3/4 2/2/5 5/4/6
f 4/5/7 8/6/8 7/7/9
f 4/5/10 65/97/11 67/101/12 66/99/13 3/3/14 9/8/15 8/6/16
f 3/3/17 10/9/18 9/8/19
f 3/3/20 5/4/21 11/10/22 10/9/23
f 5/4/24 12/11/25 11/10/26
f 5/4/27 6/12/28 12/11/29
f 4/5/30 7/7/31 13/13/32
f 8/6/33 9/8/34 15/14/35 14/15/36
f 10/9/37 11/10/38 16/16/39
f 4/5/40 13/13/41 18/17/42 17/18/43 76/118/44 77/119/45 75/116/46
f 13/13/47 14/15/48 19/19/49 18/17/50
f 14/15/51 15/14/52 20/20/53 19/19/54
f 15/14/55 16/16/56 21/21/57 20/20/58
f 16/16/59 11/10/60 21/21/61
f 17/18/62 18/17/63 23/22/64
f 19/19/65 20/20/66 25/23/67 24/24/68
f 21/21/69 11/10/70 30/25/71 26/26/72
f 22/27/73 17/18/74 28/28/75 27/29/76
f 17/18/77 23/22/78 29/30/79 28/28/80
f 23/22/81 24/24/82 29/30/83
f 24/24/84 25/23/85 30/25/86 70/107/87 71/108/88 69/105/89 29/30/90
f 25/23/91 26/26/92 30/25/93
f 28/28/94 29/30/95 32/31/96 73/112/97 74/114/98
f 1/33/99 33/34/100 34/35/101 2/36/102
f 3/37/103 35/38/104 33/34/105 1/33/106
f 2/36/107 34/35/108 36/39/109 5/40/110
f 8/41/111 38/42/112 39/43/113 7/44/114
f 4/45/115 37/46/116 35/38/117 3/37/118 66/47/119 68/48/120 65/49/121
f 10/50/122 41/51/123 40/52/124 9/53/125
f 12/54/126 43/55/127 42/56/128 11/57/129
f 5/40/130 36/39/131 44/58/132 6/59/133
f 6/59/134 44/58/135 43/55/136 12/54/137
f 7/44/138 39/43/139 45/60/140 13/61/141
f 9/53/142 40/52/143 46/62/144 15/63/145
f 14/64/146 47/65/147 38/42/148 8/41/149
f 16/66/150 48/67/151 41/51/152 10/50/153
f 17/68/154 50/69/155 37/46/156 4/45/157 75/70/158 78/71/159 76/72/160
f 13/61/161 45/60/162 47/65/163 14/64/164
f 19/73/165 51/74/166 49/75/167 18/76/168
f 15/63/169 46/62/170 48/67/171 16/66/172
f 21/77/173 53/78/174 52/79/175 20/80/176
f 18/76/177 49/75/178 54/81/179 23/82/180
f 20/80/181 52/79/182 55/83/183 25/84/184
f 24/85/185 56/86/186 51/74/187 19/73/188
f 11/57/189 42/56/190 57/87/191 30/88/192
f 26/89/193 58/90/194 53/78/195 21/77/196
f 22/91/197 59/92/198 50/69/199 17/68/200
f 28/93/201 60/94/202 61/95/203 27/96/204
f 27/96/205 61/95/206 59/92/207 22/91/208
f 23/82/209 54/81/210 56/86/211 24/85/212
f 30/88/213 57/87/214 62/98/215 29/100/216 69/102/217 72/104/218 70/106/219
f 25/84/220 55/83/221 58/90/222 26/89/223
f 29/100/224 62/98/225 63/109/226 32/111/227
f 32/111/228 63/109/229 64/113/230 31/115/231 73/117/232
f 74/120/233 31/115/234 64/113/235 60/94/236 28/93/237
f 68/103/238 67/101/239 65/97/240
f 66/99/241 67/101/242 68/103/243
f 69/105/244 71/108/245 72/110/246
f 72/110/247 71/108/248 70/107/249
f 74/114/250 73/112/251 31/32/252
f 75/116/253 77/119/254 78/121/255
f 78/121/256 77/119/257 76/118/258
