# This file uses centimeters as units for non-parametric coordinates.

v 42.633789 -4.737305 7.391602
v 33.159668 4.737305 7.391602
v 42.633789 33.160156 7.391602
v 33.159668 23.685547 7.391602
v 23.685547 23.685547 7.391602
v 14.211182 33.160156 7.391602
v 23.685547 14.210938 7.391602
v 14.211182 14.210938 7.391602
v -4.737061 -42.633789 7.391602
v 4.737061 -33.159180 7.391602
v 33.159668 -42.633789 7.391602
v 23.685547 -33.159180 7.391602
v 23.685547 -23.685547 7.391602
v 33.159668 -14.210938 7.391602
v 14.211182 -14.210938 7.391602
v 14.211182 -23.685547 7.391602
v -42.633789 4.737305 7.391602
v -33.159912 -4.737305 7.391602
v -42.633789 -33.159180 7.391602
v -33.159912 -23.685547 7.391602
v -23.685547 -23.685547 7.391602
v -14.211182 -33.159180 7.391602
v -14.211182 -14.210938 7.391602
v -23.685547 -14.210938 7.391602
v 4.737061 42.633789 -0.247070
v -4.737061 33.160156 7.391602
v -33.159668 42.633789 7.391602
v -23.685547 33.160156 7.391602
v -23.685547 23.685547 7.391602
v -33.159668 14.210938 7.391602
v -14.211182 23.685547 7.391602
v -14.211182 14.210938 7.391602
v -4.737061 4.737305 7.391602
v -4.737061 -4.737305 7.391602
v 4.737061 4.737305 7.391602
v 4.737061 -4.737305 7.391602
v 42.633789 -4.737305 -7.391602
v 33.159668 4.737303 -7.391602
v 4.737061 4.737303 -7.391602
v 4.737061 -4.737305 -7.391602
v 42.633789 33.160156 -7.391602
v 33.159668 23.685545 -7.391602
v 14.211182 33.160156 -7.391602
v 23.685547 23.685545 -7.391602
v 14.211182 14.210936 -7.391602
v 23.685547 14.210936 -7.391602
v -4.737061 -42.633789 -7.391602
v 4.737061 -33.159180 -7.391602
v -4.737061 -4.737305 -7.391602
v 33.159668 -42.633789 -7.391602
v 23.685547 -33.159180 -7.391602
v 33.159668 -14.210938 -7.391602
v 23.685547 -23.685547 -7.391602
v 14.211182 -14.210938 -7.391602
v 14.211182 -23.685547 -7.391602
v -42.633789 4.737303 -7.391602
v -33.159912 -4.737305 -7.391602
v -42.633789 -33.159180 -7.391602
v -33.159912 -23.685547 -7.391602
v -14.211182 -33.159180 -7.391602
v -23.685547 -23.685547 -7.391602
v -14.211182 -14.210938 -7.391602
v -23.685547 -14.210938 -7.391602
v 4.737061 42.633789 -7.391602
v -4.737061 33.160156 -7.391602
v -33.159668 42.633789 -7.391602
v -23.685547 33.160156 -7.391602
v -33.159668 14.210936 -7.391602
v -23.685547 23.685545 -7.391602
v -14.211182 14.210936 -7.391602
v -14.211182 23.685545 -7.391602
v -4.737061 4.737303 -7.391602
v 32.936279 -4.738281 7.391602
v 10.341553 -4.737305 7.391602
v 21.965576 0.395508 7.391602
v 18.333984 -4.737305 1.069336
v 4.737061 32.327148 7.391602
v -3.754395 42.633789 7.391602
v -1.003174 36.893555 7.391602
v -42.633789 -4.028320 7.391602
v -42.633789 -25.110352 7.391602
v -37.407715 -16.413086 7.391602
v -42.633789 -13.497071 2.584961
v -4.737061 -36.586914 7.391602
v -4.737061 -15.720704 7.391602
v 0.542236 -27.006836 7.391602
v -4.737061 -24.657227 1.192383
vt 0.026058 0.511781
vt 0.026058 0.511781
vt 0.026058 0.511781
vt 0.026058 0.511781
vt 0.026058 0.511781
vt 0.026058 0.511781
vt 0.026058 0.511781
vt 0.026058 0.511781
vt 0.026058 0.511781
vt 0.026058 0.511781
vt 0.026058 0.511781
vt 0.026058 0.511781
vt 0.026058 0.511781
vt 0.026058 0.511781
vt 0.026058 0.511781
vt 0.026058 0.511781
vt 0.026058 0.511781
vt 0.026058 0.511781
vt 0.026058 0.511781
vt 0.026058 0.511781
vt 0.026058 0.511781
vt 0.026058 0.511781
vt 0.026058 0.511781
vt 0.026058 0.511781
vt 0.026058 0.511781
vt 0.026058 0.511781
vt 0.026058 0.511781
vt 0.026058 0.511781
vt 0.026058 0.511781
vt 0.026058 0.511781
vt 0.026058 0.511781
vt 0.026058 0.511781
vt 0.026058 0.511781
vt 0.026058 0.511781
vt 0.026058 0.511781
vt 0.026058 0.511781
vt 0.026058 0.511781
vt 0.026058 0.511781
vt 0.026058 0.511781
vt 0.026058 0.511781
vt 0.026058 0.511781
vt 0.026058 0.511781
vt 0.026058 0.511781
vt 0.026058 0.511781
vt 0.026058 0.511781
vt 0.026058 0.511781
vt 0.026058 0.511781
vt 0.026058 0.511781
vt 0.026058 0.511781
vt 0.026058 0.511781
vt 0.026058 0.511781
vt 0.026058 0.511781
vt 0.026058 0.511781
vt 0.026058 0.511781
vt 0.026058 0.511781
vt 0.026058 0.511781
vt 0.026058 0.511781
vt 0.026058 0.511781
vt 0.026058 0.511781
vt 0.026058 0.511781
vt 0.026058 0.511781
vt 0.026058 0.511781
vt 0.026058 0.511781
vt 0.026058 0.511781
vt 0.026058 0.511781
vt 0.026058 0.511781
vt 0.026058 0.511781
vt 0.026058 0.511781
vt 0.026058 0.511781
vt 0.026058 0.511781
vt 0.026058 0.511781
vt 0.026058 0.511781
vt 0.009277 0.508654
vt 0.009277 0.508654
vt 0.009277 0.508654
vt 0.009277 0.508654
vt 0.009277 0.508654
vt 0.009277 0.508654
vt 0.009277 0.508654
vt 0.009277 0.508654
vt 0.009277 0.508654
vt 0.009277 0.508655
vt 0.009277 0.508654
vt 0.009277 0.508654
vt 0.009277 0.508654
vt 0.009277 0.508654
vt 0.009277 0.508654
vt 0.009277 0.508654
vt 0.009277 0.508654
vt 0.009277 0.508654
vt 0.009277 0.508654
vt 0.009277 0.508654
vt 0.009277 0.508654
vt 0.009277 0.508654
vt 0.009277 0.508654
vt 0.009277 0.508654
vt 0.009277 0.508654
vt 0.009277 0.508654
vt 0.009277 0.508654
vt 0.009277 0.508654
vt 0.009277 0.508654
vt 0.009277 0.508654
vt 0.009277 0.508655
vt 0.009277 0.508654
vt 0.009277 0.508654
vt 0.009277 0.508654
vt 0.009277 0.508654
vt 0.009277 0.508654
vt 0.009277 0.508654
vt 0.009277 0.508654
vt 0.009277 0.508654
vt 0.009277 0.508654
vt 0.009277 0.508654
vt 0.009277 0.508654
vt 0.009277 0.508654
vt 0.009277 0.508654
vt 0.009277 0.508654
vt 0.009277 0.508654
vt 0.009277 0.508654
vt 0.009277 0.508654
vt 0.009277 0.508654
vt 0.009277 0.508655
vt 0.009277 0.508654
vt 0.009277 0.508654
vt 0.009277 0.508654
vt 0.009277 0.508654
vt 0.009277 0.508654
vt 0.009277 0.508654
vt 0.009277 0.508654
vt 0.009277 0.508654
vt 0.009277 0.508654
vt 0.009277 0.508654
vt 0.009277 0.508654
vt 0.009277 0.508654
vt 0.009277 0.508654
vt 0.009277 0.508654
vt 0.009277 0.508654
vt 0.009277 0.508654
vt 0.009277 0.508654
vt 0.009277 0.508654
vt 0.009277 0.508654
vt 0.009277 0.508654
vt 0.009277 0.508654
vt 0.009277 0.508654
vt 0.009277 0.508654
vt 0.009277 0.508654
vt 0.009277 0.508654
vt 0.009277 0.508654
vt 0.009277 0.508654
vt 0.009277 0.508654
vt 0.009277 0.508654
vt 0.009277 0.508654
vt 0.009277 0.508655
vt 0.009277 0.508654
vt 0.009277 0.508654
vt 0.026058 0.511781
vt 0.026058 0.511781
vt 0.026058 0.511781
vt 0.026058 0.511781
vt 0.026058 0.511781
vt 0.026058 0.511781
vt 0.026058 0.511781
vt 0.026058 0.511781
vt 0.026058 0.511781
vt 0.026058 0.511781
vt 0.026058 0.511781
vt 0.026058 0.511781
vt 0.026058 0.511781
vt 0.026058 0.511781
vt 0.026058 0.511781
vt 0.026058 0.511781
vt 0.026058 0.511781
vt 0.026058 0.511781
vt 0.026058 0.511781
vn -0.000000 0.000000 1.000000
vn -0.000000 0.000000 1.000000
vn -0.000000 0.000000 1.000000
vn -0.000000 0.000000 1.000000
vn -0.000000 0.000000 1.000000
vn -0.000000 0.000000 1.000000
vn -0.000000 0.000000 1.000000
vn 0.000000 0.000000 1.000000
vn 0.000000 0.000000 1.000000
vn 0.000000 0.000000 1.000000
vn 0.000000 0.000000 1.000000
vn 0.000000 0.000000 1.000000
vn 0.000000 0.000000 1.000000
vn 0.000000 0.000000 1.000000
vn 0.000000 0.000000 1.000000
vn 0.000000 0.000000 1.000000
vn 0.000000 0.000000 1.000000
vn 0.000000 0.000000 1.000000
vn 0.000000 0.000000 1.000000
vn -0.000000 0.000000 1.000000
vn -0.000000 0.000000 1.000000
vn -0.000000 0.000000 1.000000
vn -0.000000 0.000000 1.000000
vn -0.000000 0.000000 1.000000
vn -0.000000 0.000000 1.000000
vn -0.000000 0.000000 1.000000
vn 0.000000 0.000000 1.000000
vn 0.000000 0.000000 1.000000
vn 0.000000 0.000000 1.000000
vn 0.000000 0.000000 1.000000
vn -0.000000 0.000000 1.000000
vn -0.000000 0.000000 1.000000
vn -0.000000 0.000000 1.000000
vn -0.000000 0.000000 1.000000
vn 0.000000 0.000000 1.000000
vn 0.000000 0.000000 1.000000
vn 0.000000 0.000000 1.000000
vn 0.000000 0.000000 1.000000
vn 0.000000 0.000000 1.000000
vn 0.000000 0.000000 1.000000
vn 0.000000 0.000000 1.000000
vn 0.000000 0.000000 1.000000
vn 0.000000 0.000000 1.000000
vn 0.000000 0.000000 1.000000
vn 0.000000 0.000000 1.000000
vn 0.000000 0.000000 1.000000
vn 0.000000 0.000000 1.000000
vn 0.000000 0.000000 1.000000
vn 0.000000 0.000000 1.000000
vn 0.000000 0.000000 1.000000
vn 0.000000 0.000000 1.000000
vn -0.000000 0.000000 1.000000
vn -0.000000 0.000000 1.000000
vn -0.000000 0.000000 1.000000
vn 0.000000 0.000000 1.000000
vn 0.000000 0.000000 1.000000
vn 0.000000 0.000000 1.000000
vn 0.636870 0.305244 0.707971
vn 0.636870 0.305244 0.707971
vn 0.636870 0.305244 0.707971
vn -0.000000 0.000000 1.000000
vn -0.000000 0.000000 1.000000
vn -0.000000 0.000000 1.000000
vn -0.000000 0.000000 1.000000
vn 0.000000 0.000000 1.000000
vn 0.000000 0.000000 1.000000
vn 0.000000 0.000000 1.000000
vn 0.000000 0.000000 1.000000
vn 0.000000 0.000000 1.000000
vn 0.000000 0.000000 1.000000
vn 0.000000 0.000000 1.000000
vn 0.000000 0.000000 1.000000
vn 0.428079 0.538119 0.726069
vn 0.428079 0.538119 0.726069
vn 0.428079 0.538119 0.726069
vn 0.000000 0.000000 1.000000
vn 0.000000 0.000000 1.000000
vn 0.000000 0.000000 1.000000
vn 0.000000 0.000000 1.000000
vn 0.000000 1.000000 -0.000000
vn 0.000000 1.000000 -0.000000
vn 0.000000 1.000000 -0.000000
vn 0.000000 1.000000 -0.000000
vn 0.000006 -1.000000 -0.000024
vn 0.000006 -1.000000 -0.000024
vn 0.000006 -1.000000 -0.000024
vn 0.000006 -1.000000 -0.000024
vn 0.000006 -1.000000 -0.000024
vn 0.000006 -1.000000 -0.000024
vn 0.000006 -1.000000 -0.000024
vn 1.000000 0.000000 0.000000
vn 1.000000 0.000000 0.000000
vn 1.000000 0.000000 0.000000
vn 1.000000 0.000000 0.000000
vn -1.000000 0.000000 0.000000
vn -1.000000 0.000000 0.000000
vn -1.000000 0.000000 0.000000
vn -1.000000 0.000000 0.000000
vn 0.000000 1.000000 0.000000
vn 0.000000 1.000000 0.000000
vn 0.000000 1.000000 0.000000
vn 0.000000 1.000000 0.000000
vn 0.000000 -1.000000 0.000000
vn 0.000000 -1.000000 0.000000
vn 0.000000 -1.000000 0.000000
vn 0.000000 -1.000000 0.000000
vn -1.000000 0.000000 0.000000
vn -1.000000 0.000000 0.000000
vn -1.000000 0.000000 0.000000
vn -1.000000 0.000000 0.000000
vn 0.000000 -1.000000 0.000000
vn 0.000000 -1.000000 0.000000
vn 0.000000 -1.000000 0.000000
vn 0.000000 -1.000000 0.000000
vn 1.000000 0.000000 0.000000
vn 1.000000 0.000000 0.000000
vn 1.000000 0.000000 0.000000
vn 1.000000 0.000000 0.000000
vn 1.000000 0.000000 0.000000
vn 1.000000 0.000000 0.000000
vn 1.000000 0.000000 0.000000
vn 1.000000 0.000000 0.000000
vn -1.000000 0.000000 0.000000
vn -1.000000 0.000000 0.000000
vn -1.000000 0.000000 0.000000
vn -1.000000 0.000000 0.000000
vn -1.000000 0.000000 0.000000
vn -1.000000 0.000000 0.000000
vn -1.000000 0.000000 0.000000
vn 0.000000 -1.000000 0.000000
vn 0.000000 -1.000000 0.000000
vn 0.000000 -1.000000 0.000000
vn 0.000000 -1.000000 0.000000
vn 0.000000 1.000000 0.000000
vn 0.000000 1.000000 0.000000
vn 0.000000 1.000000 0.000000
vn 0.000000 1.000000 0.000000
vn 1.000000 0.000000 0.000000
vn 1.000000 0.000000 0.000000
vn 1.000000 0.000000 0.000000
vn 1.000000 0.000000 0.000000
vn -1.000000 0.000000 0.000000
vn -1.000000 0.000000 0.000000
vn -1.000000 0.000000 0.000000
vn -1.000000 0.000000 0.000000
vn 0.000000 1.000000 0.000000
vn 0.000000 1.000000 0.000000
vn 0.000000 1.000000 0.000000
vn 0.000000 1.000000 0.000000
vn -1.000000 0.000000 0.000000
vn -1.000000 0.000000 0.000000
vn -1.000000 0.000000 0.000000
vn -1.000000 0.000000 0.000000
vn 0.000000 -1.000000 0.000000
vn 0.000000 -1.000000 0.000000
vn 0.000000 -1.000000 0.000000
vn 0.000000 -1.000000 0.000000
vn -1.000000 0.000000 0.000000
vn -1.000000 0.000000 0.000000
vn -1.000000 0.000000 0.000000
vn -1.000000 0.000000 0.000000
vn -1.000000 0.000000 0.000000
vn -1.000000 0.000000 0.000000
vn -1.000000 0.000000 0.000000
vn 1.000000 0.000000 0.000000
vn 1.000000 0.000000 0.000000
vn 1.000000 0.000000 0.000000
vn 1.000000 0.000000 0.000000
vn 0.000000 -1.000000 0.000000
vn 0.000000 -1.000000 0.000000
vn 0.000000 -1.000000 0.000000
vn 0.000000 -1.000000 0.000000
vn 0.000000 1.000000 0.000000
vn 0.000000 1.000000 0.000000
vn 0.000000 1.000000 0.000000
vn 0.000000 1.000000 0.000000
vn 1.000000 0.000000 0.000000
vn 1.000000 0.000000 0.000000
vn 1.000000 0.000000 0.000000
vn 1.000000 0.000000 0.000000
vn 0.000000 1.000000 0.000000
vn 0.000000 1.000000 0.000000
vn 0.000000 1.000000 0.000000
vn 0.000000 1.000000 0.000000
vn -1.000000 0.000000 0.000000
vn -1.000000 0.000000 0.000000
vn -1.000000 0.000000 0.000000
vn -1.000000 0.000000 0.000000
vn 0.000000 -1.000000 0.000000
vn 0.000000 -1.000000 0.000000
vn 0.000000 -1.000000 0.000000
vn 0.000000 -1.000000 0.000000
vn -1.000000 0.000000 0.000000
vn -1.000000 0.000000 0.000000
vn -1.000000 0.000000 0.000000
vn -1.000000 0.000000 0.000000
vn 1.000000 0.000000 0.000000
vn 1.000000 0.000000 0.000000
vn 1.000000 0.000000 0.000000
vn 1.000000 0.000000 0.000000
vn 0.000000 -1.000000 0.000000
vn 0.000000 -1.000000 0.000000
vn 0.000000 -1.000000 0.000000
vn 0.000000 -1.000000 0.000000
vn 1.000000 0.000000 0.000000
vn 1.000000 0.000000 0.000000
vn 1.000000 0.000000 0.000000
vn 1.000000 0.000000 0.000000
vn 0.000000 1.000000 -0.000000
vn 0.000000 1.000000 -0.000000
vn 0.000000 1.000000 -0.000000
vn 0.000000 1.000000 -0.000000
vn 0.000000 -1.000000 0.000000
vn 0.000000 -1.000000 0.000000
vn 0.000000 -1.000000 0.000000
vn 0.000000 -1.000000 0.000000
vn 0.000000 1.000000 -0.000000
vn 0.000000 1.000000 -0.000000
vn 0.000000 1.000000 -0.000000
vn 0.000000 1.000000 -0.000000
vn -1.000000 0.000000 0.000000
vn -1.000000 0.000000 0.000000
vn -1.000000 0.000000 0.000000
vn -1.000000 0.000000 0.000000
vn 0.359750 -0.814708 0.454786
vn 0.359750 -0.814708 0.454786
vn 0.359750 -0.814708 0.454786
vn -0.302897 -0.647278 0.699489
vn -0.302897 -0.647278 0.699489
vn -0.302897 -0.647278 0.699489
vn 1.000000 0.000000 0.000000
vn 1.000000 0.000000 0.000000
vn 1.000000 0.000000 0.000000
vn 1.000000 0.000000 0.000000
vn 1.000000 0.000000 0.000000
vn 0.000000 1.000000 0.000000
vn 0.000000 1.000000 0.000000
vn 0.000000 1.000000 0.000000
vn 0.000000 1.000000 0.000000
vn 0.000000 1.000000 0.000000
vn 0.000000 0.000000 1.000000
vn 0.000000 0.000000 1.000000
vn 0.000000 0.000000 1.000000
vn 0.000000 0.000000 1.000000
vn 0.000000 0.000000 1.000000
vn 0.000000 0.000000 1.000000
vn 0.000000 0.000000 1.000000
vn 0.000000 0.000000 1.000000
vn 0.000000 0.000000 1.000000
vn 0.000000 0.000000 1.000000
vn -0.731456 -0.308657 0.608032
vn -0.731456 -0.308657 0.608033
vn -0.731456 -0.308657 0.608032
vn -0.536922 0.322630 0.779503
vn -0.536922 0.322630 0.779503
vn -0.536922 0.322630 0.779503
vn -0.773012 -0.361591 0.521253
vn -0.773012 -0.361591 0.521253
vn -0.773012 -0.361591 0.521253
vn -0.641728 0.353637 0.680534
vn -0.641728 0.353637 0.680534
vn -0.641728 0.353637 0.680534
s off
f 1/1/1 2/2/2 35/3/3 36/4/4 74/173/5 75/172/6 73/174/7
f 2/5/8 1/6/9 3/7/10 4/8/11
f 4/9/12 3/10/13 6/11/14 5/12/15
f 5/13/16 6/14/17 8/15/18 7/16/19
f 9/17/20 10/18/21 36/19/22 34/20/23 85/159/24 86/158/25 84/161/26
f 10/21/27 9/22/28 11/23/29 12/24/30
f 12/25/31 11/26/32 14/27/33 13/28/34
f 13/29/35 14/30/36 15/31/37
f 13/32/38 15/33/39 16/34/40
f 18/35/41 17/36/42 80/166/43 82/164/44 81/165/45 19/37/46 20/38/47
f 20/39/48 19/40/49 22/41/50 21/42/51
f 21/43/52 22/44/53 23/45/54
f 21/46/55 23/47/56 24/48/57
f 78/169/58 79/167/59 25/50/60
f 28/53/61 27/54/62 30/55/63 29/56/64
f 29/57/65 30/58/66 32/59/67 31/60/68
f 17/61/69 18/62/70 34/63/71 33/64/72
f 25/65/73 79/168/74 77/170/75
f 36/69/76 35/70/77 33/71/78 34/72/79
f 2/73/80 38/74/81 39/75/82 35/76/83
f 36/77/84 40/78/85 37/79/86 1/80/87 73/81/88 76/82/89 74/83/90
f 1/80/91 37/79/92 41/84/93 3/85/94
f 4/86/95 42/87/96 38/74/97 2/73/98
f 3/85/99 41/84/100 43/88/101 6/89/102
f 5/90/103 44/91/104 42/87/105 4/86/106
f 6/89/107 43/88/108 45/92/109 8/93/110
f 8/93/111 45/92/112 46/94/113 7/95/114
f 7/95/115 46/94/116 44/91/117 5/90/118
f 10/96/119 48/97/120 40/78/121 36/77/122
f 34/98/123 49/99/124 47/100/125 9/101/126 84/102/127 87/103/128 85/104/129
f 9/101/130 47/100/131 50/105/132 11/106/133
f 12/107/134 51/108/135 48/97/136 10/96/137
f 11/106/138 50/105/139 52/109/140 14/110/141
f 13/111/142 53/112/143 51/108/144 12/107/145
f 14/110/146 52/109/147 54/113/148 15/114/149
f 15/114/150 54/113/151 55/115/152 16/116/153
f 16/116/154 55/115/155 53/112/156 13/111/157
f 17/117/158 56/118/159 58/119/160 19/120/161 81/121/162 83/122/163 80/123/164
f 20/124/165 59/125/166 57/126/167 18/127/168
f 19/120/169 58/119/170 60/128/171 22/129/172
f 21/130/173 61/131/174 59/125/175 20/124/176
f 22/129/177 60/128/178 62/132/179 23/133/180
f 23/133/181 62/132/182 63/134/183 24/135/184
f 24/135/185 63/134/186 61/131/187 21/130/188
f 28/136/189 67/137/190 65/138/191 26/139/192
f 27/140/193 66/141/194 68/142/195 30/143/196
f 29/144/197 69/145/198 67/137/199 28/136/200
f 30/143/201 68/142/202 70/146/203 32/147/204
f 32/147/205 70/146/206 71/148/207 31/149/208
f 31/149/209 71/148/210 69/145/211 29/144/212
f 18/127/213 57/126/214 49/99/215 34/98/216
f 33/150/217 72/151/218 56/118/219 17/117/220
f 26/139/221 65/138/222 72/151/223 33/150/224
f 76/171/225 75/172/226 74/173/227
f 73/174/228 75/172/229 76/171/230
f 35/76/231 39/75/232 64/152/233 25/153/234 77/154/235
f 78/155/236 25/153/237 64/152/238 66/141/239 27/140/240
f 26/49/241 79/167/242 78/169/243 27/51/244 28/52/245
f 77/170/246 79/168/247 26/66/248 33/67/249 35/68/250
f 83/163/251 82/164/252 80/166/253
f 81/165/254 82/164/255 83/163/256
f 85/160/257 87/157/258 86/156/259
f 86/156/260 87/157/261 84/162/262
