# This file uses centimeters as units for non-parametric coordinates.

v 14.297363 -23.827148 7.391602
v 23.828857 -52.421875 7.391602
v 14.297363 -42.890625 7.391602
v -23.828613 -52.421875 7.391602
v -14.297119 -42.890625 7.391602
v 14.297363 42.889648 7.391602
v -14.297119 23.827148 7.391602
v 23.828857 52.421879 0.945313
v -23.828613 14.296875 7.391602
v 23.828857 -4.765625 7.391602
v 14.297363 4.765625 7.391602
v -23.828613 52.419922 7.391602
v -14.297119 42.889648 7.391602
v -4.765381 -14.296876 7.391602
v 4.765869 -23.827148 7.391602
v -4.765381 -33.359375 7.391602
v 4.765869 -33.359375 7.391602
v -4.765381 23.827148 7.391602
v 23.828857 -14.296876 7.391602
v 4.765869 14.296875 7.391602
v 4.765869 33.358398 7.391602
v -4.765381 33.358398 7.391602
v -23.828613 4.765625 7.391602
v -14.297119 -4.765625 7.391602
v 23.828857 -52.421875 -7.391602
v 14.297363 -42.890625 -7.391602
v -23.828613 -52.421875 -7.391602
v -14.297119 -42.890625 -7.391602
v -14.297119 -4.765625 -7.391602
v -23.828613 4.765623 -7.391602
v 23.828857 52.419922 -7.391602
v 14.297363 42.889648 -7.391602
v 23.828857 -4.765625 -7.391602
v 14.297363 4.765623 -7.391602
v -23.828613 52.419922 -7.391602
v -14.297119 42.889648 -7.391602
v -4.765381 -14.296875 -7.391602
v -4.765381 -33.359375 -7.391602
v 4.765869 -23.827148 -7.391602
v 4.765869 -33.359375 -7.391602
v 23.828857 -14.296875 -7.391602
v 14.297363 -23.827148 -7.391602
v -23.828613 14.296873 -7.391602
v -4.765381 23.827147 -7.391602
v -14.297119 23.827147 -7.391602
v 4.765869 14.296873 -7.391602
v 4.765869 33.358398 -7.391602
v -4.765381 33.358398 -7.391602
v 18.026855 -4.765625 7.391602
v -5.425049 -4.765625 7.391602
v 10.339600 0.540039 7.391602
v 5.008545 -4.765625 0.748047
v 23.828857 41.454102 7.391602
v 15.299072 52.419922 7.391602
v 17.465332 46.056641 7.391602
v -23.828857 47.230469 7.391602
v -23.828613 26.850586 7.391602
v -17.258789 34.003906 7.391602
v -23.828613 37.598633 1.429688
v 23.828857 -27.444336 7.391602
v 23.828857 -48.743164 7.391602
v 18.239502 -39.333984 7.391602
v 23.828857 -41.821289 0.928711
vt 0.026058 0.511781
vt 0.026058 0.511781
vt 0.026058 0.511781
vt 0.026058 0.511781
vt 0.026058 0.511781
vt 0.026058 0.511781
vt 0.026058 0.511781
vt 0.026058 0.511781
vt 0.026058 0.511781
vt 0.026058 0.511781
vt 0.026058 0.511781
vt 0.026058 0.511781
vt 0.026058 0.511781
vt 0.026058 0.511781
vt 0.026058 0.511781
vt 0.026058 0.511781
vt 0.026058 0.511781
vt 0.026058 0.511781
vt 0.026058 0.511781
vt 0.026058 0.511781
vt 0.026058 0.511781
vt 0.026058 0.511781
vt 0.026058 0.511781
vt 0.026058 0.511781
vt 0.026058 0.511781
vt 0.026058 0.511781
vt 0.026058 0.511781
vt 0.026058 0.511781
vt 0.026058 0.511781
vt 0.026058 0.511781
vt 0.026058 0.511781
vt 0.026058 0.511781
vt 0.026058 0.511781
vt 0.026058 0.511781
vt 0.026058 0.511781
vt 0.026058 0.511781
vt 0.026058 0.511781
vt 0.026058 0.511781
vt 0.026058 0.511781
vt 0.026058 0.511781
vt 0.026058 0.511781
vt 0.026058 0.511781
vt 0.026058 0.511781
vt 0.026058 0.511781
vt 0.026058 0.511781
vt 0.026058 0.511781
vt 0.026058 0.511781
vt 0.026058 0.511781
vt 0.026058 0.511781
vt 0.026058 0.511781
vt 0.026058 0.511781
vt 0.026058 0.511781
vt 0.026058 0.511781
vt 0.026058 0.511781
vt 0.009277 0.508654
vt 0.009277 0.508654
vt 0.009277 0.508654
vt 0.009277 0.508654
vt 0.009277 0.508654
vt 0.009277 0.508654
vt 0.009277 0.508654
vt 0.009277 0.508654
vt 0.009277 0.508654
vt 0.009277 0.508654
vt 0.009277 0.508654
vt 0.009277 0.508654
vt 0.009277 0.508654
vt 0.009277 0.508654
vt 0.009277 0.508654
vt 0.009277 0.508654
vt 0.009277 0.508654
vt 0.009277 0.508654
vt 0.009277 0.508654
vt 0.009277 0.508654
vt 0.009277 0.508654
vt 0.009277 0.508654
vt 0.009277 0.508654
vt 0.009277 0.508654
vt 0.009277 0.508654
vt 0.009277 0.508654
vt 0.009277 0.508654
vt 0.009277 0.508654
vt 0.009277 0.508654
vt 0.009277 0.508654
vt 0.009277 0.508654
vt 0.009277 0.508655
vt 0.009277 0.508654
vt 0.009277 0.508654
vt 0.009277 0.508654
vt 0.009277 0.508654
vt 0.009277 0.508654
vt 0.009277 0.508654
vt 0.009277 0.508655
vt 0.009277 0.508654
vt 0.009277 0.508654
vt 0.009277 0.508654
vt 0.009277 0.508654
vt 0.009277 0.508654
vt 0.009277 0.508654
vt 0.009277 0.508654
vt 0.009277 0.508654
vt 0.009277 0.508654
vt 0.009277 0.508654
vt 0.009277 0.508654
vt 0.009277 0.508654
vt 0.009277 0.508654
vt 0.009277 0.508654
vt 0.009277 0.508655
vt 0.009277 0.508654
vt 0.009277 0.508654
vt 0.009277 0.508655
vt 0.009277 0.508654
vt 0.009277 0.508654
vt 0.026058 0.511781
vt 0.026058 0.511781
vt 0.026058 0.511781
vt 0.026058 0.511781
vt 0.026058 0.511781
vt 0.026058 0.511781
vt 0.026058 0.511781
vt 0.026058 0.511781
vt 0.026058 0.511781
vt 0.026058 0.511781
vt 0.026058 0.511781
vt 0.026058 0.511781
vt 0.026058 0.511781
vt 0.026058 0.511781
vt 0.026058 0.511781
vt 0.026058 0.511781
vt 0.026058 0.511781
vt 0.026058 0.511781
vt 0.026058 0.511781
vt 0.026058 0.511781
vt 0.026058 0.511781
vt 0.026058 0.511781
vt 0.026058 0.511781
vn 0.000000 0.000000 1.000000
vn 0.000000 0.000000 1.000000
vn 0.000000 0.000000 1.000000
vn 0.000000 0.000000 1.000000
vn 0.000000 0.000000 1.000000
vn 0.000000 0.000000 1.000000
vn 0.000000 0.000000 1.000000
vn 0.000000 0.000000 1.000000
vn 0.000000 0.000000 1.000000
vn 0.000000 0.000000 1.000000
vn 0.000000 0.000000 1.000000
vn 0.000000 0.000000 1.000000
vn 0.000000 0.000000 1.000000
vn 0.000000 0.000000 1.000000
vn 0.000000 0.000000 1.000000
vn 0.590585 0.201053 0.781529
vn 0.590585 0.201053 0.781529
vn 0.590585 0.201053 0.781529
vn 0.344105 0.475764 0.809469
vn 0.344105 0.475764 0.809469
vn 0.344105 0.475764 0.809469
vn 0.000000 0.000000 1.000000
vn 0.000000 0.000000 1.000000
vn 0.000000 0.000000 1.000000
vn 0.000000 0.000000 1.000000
vn 0.000000 0.000000 1.000000
vn 0.000000 0.000000 1.000000
vn 0.000000 0.000000 1.000000
vn 0.000000 0.000000 1.000000
vn 0.000000 0.000000 1.000000
vn 0.000000 0.000000 1.000000
vn 0.000000 0.000000 1.000000
vn 0.000000 0.000000 1.000000
vn 0.000000 0.000000 1.000000
vn -0.000000 0.000000 1.000000
vn -0.000000 0.000000 1.000000
vn -0.000000 0.000000 1.000000
vn -0.000000 0.000000 1.000000
vn 0.000000 0.000000 1.000000
vn 0.000000 0.000000 1.000000
vn 0.000000 0.000000 1.000000
vn 0.000000 0.000000 1.000000
vn 0.000000 0.000000 1.000000
vn 0.000000 0.000000 1.000000
vn 0.000000 0.000000 1.000000
vn 0.000000 0.000000 1.000000
vn 0.000000 0.000000 1.000000
vn 0.000000 0.000000 1.000000
vn 0.000000 0.000000 1.000000
vn 0.000000 0.000000 1.000000
vn -0.000000 0.000000 1.000000
vn -0.000000 0.000000 1.000000
vn -0.000000 0.000000 1.000000
vn -0.000000 0.000000 1.000000
vn 0.000000 0.000000 1.000000
vn 0.000000 0.000000 1.000000
vn 0.000000 0.000000 1.000000
vn 0.000000 0.000000 1.000000
vn 0.000000 0.000000 1.000000
vn 0.000000 0.000000 1.000000
vn 0.000000 0.000000 1.000000
vn 0.000000 -1.000000 0.000000
vn 0.000000 -1.000000 0.000000
vn 0.000000 -1.000000 0.000000
vn 0.000000 -1.000000 0.000000
vn 0.000000 1.000000 0.000000
vn 0.000000 1.000000 0.000000
vn 0.000000 1.000000 0.000000
vn 0.000000 1.000000 0.000000
vn 1.000000 0.000000 0.000000
vn 1.000000 0.000000 0.000000
vn 1.000000 0.000000 0.000000
vn 1.000000 0.000000 0.000000
vn -1.000000 0.000000 0.000000
vn -1.000000 0.000000 0.000000
vn -1.000000 0.000000 0.000000
vn -1.000000 0.000000 0.000000
vn -1.000000 0.000000 0.000000
vn -1.000000 0.000000 0.000000
vn -1.000000 0.000000 0.000000
vn -1.000000 0.000000 0.000000
vn 0.000000 -1.000000 0.000000
vn 0.000000 -1.000000 0.000000
vn 0.000000 -1.000000 0.000000
vn 0.000000 -1.000000 0.000000
vn -1.000000 0.000000 0.000000
vn -1.000000 0.000000 0.000000
vn -1.000000 0.000000 0.000000
vn -1.000000 0.000000 0.000000
vn 0.000000 -1.000000 0.000000
vn 0.000000 -1.000000 0.000000
vn 0.000000 -1.000000 0.000000
vn 0.000000 -1.000000 0.000000
vn 1.000000 0.000000 0.000000
vn 1.000000 0.000000 0.000000
vn 1.000000 0.000000 0.000000
vn 1.000000 0.000000 0.000000
vn -1.000000 0.000000 0.000000
vn -1.000000 0.000000 0.000000
vn -1.000000 0.000000 0.000000
vn -1.000000 0.000000 0.000000
vn 1.000000 0.000000 0.000000
vn 1.000000 0.000000 0.000000
vn 1.000000 0.000000 0.000000
vn 1.000000 0.000000 0.000000
vn 1.000000 0.000000 0.000000
vn 1.000000 0.000000 0.000000
vn 1.000000 0.000000 0.000000
vn -1.000000 0.000001 -0.000004
vn -1.000000 0.000001 -0.000004
vn -1.000000 0.000001 -0.000004
vn -1.000000 0.000001 -0.000004
vn -1.000000 0.000001 -0.000004
vn -1.000000 0.000001 -0.000004
vn -1.000000 0.000001 -0.000004
vn 0.000000 1.000000 0.000000
vn 0.000000 1.000000 0.000000
vn 0.000000 1.000000 0.000000
vn 0.000000 1.000000 0.000000
vn 0.000000 -1.000000 0.000000
vn 0.000000 -1.000000 0.000000
vn 0.000000 -1.000000 0.000000
vn 0.000000 -1.000000 0.000000
vn 0.000000 1.000000 -0.000000
vn 0.000000 1.000000 -0.000000
vn 0.000000 1.000000 -0.000000
vn 0.000000 1.000000 -0.000000
vn 0.000000 -1.000000 0.000000
vn 0.000000 -1.000000 0.000000
vn 0.000000 -1.000000 0.000000
vn 0.000000 -1.000000 0.000000
vn 0.000000 1.000000 0.000000
vn 0.000000 1.000000 0.000000
vn 0.000000 1.000000 0.000000
vn 0.000000 1.000000 0.000000
vn -1.000000 0.000000 0.000000
vn -1.000000 0.000000 0.000000
vn -1.000000 0.000000 0.000000
vn -1.000000 0.000000 0.000000
vn 1.000000 0.000000 0.000000
vn 1.000000 0.000000 0.000000
vn 1.000000 0.000000 0.000000
vn 1.000000 0.000000 0.000000
vn 1.000000 0.000000 0.000000
vn 1.000000 0.000000 0.000000
vn 1.000000 0.000000 0.000000
vn 1.000000 0.000000 0.000000
vn 0.000000 1.000000 -0.000000
vn 0.000000 1.000000 -0.000000
vn 0.000000 1.000000 -0.000000
vn 0.000000 1.000000 -0.000000
vn 0.000000 -1.000000 0.000000
vn 0.000000 -1.000000 0.000000
vn 0.000000 -1.000000 0.000000
vn 0.000000 -1.000000 0.000000
vn 0.000000 -1.000000 0.000000
vn 0.000000 -1.000000 0.000000
vn 0.000000 -1.000000 0.000000
vn 0.285191 -0.847385 0.447888
vn 0.285191 -0.847385 0.447888
vn 0.285191 -0.847385 0.447888
vn -0.379621 -0.550024 0.743883
vn -0.379621 -0.550024 0.743883
vn -0.379621 -0.550024 0.743883
vn 1.000000 0.000000 0.000000
vn 1.000000 0.000000 0.000000
vn 1.000000 0.000000 0.000000
vn 1.000000 0.000000 0.000000
vn 1.000000 0.000000 0.000000
vn -0.000021 1.000000 -0.000012
vn -0.000021 1.000000 -0.000012
vn -0.000021 1.000000 -0.000012
vn -0.000021 1.000000 -0.000012
vn -0.000021 1.000000 -0.000012
vn 0.000000 0.000000 1.000000
vn 0.000000 0.000000 1.000000
vn 0.000000 0.000000 1.000000
vn 0.000000 0.000000 1.000000
vn 0.000000 0.000000 1.000000
vn -0.000000 0.000000 1.000000
vn -0.000000 0.000000 1.000000
vn -0.000000 0.000000 1.000000
vn -0.000000 0.000000 1.000000
vn 0.000000 0.000000 1.000000
vn 0.000000 0.000000 1.000000
vn 0.000000 0.000000 1.000000
vn -0.727261 -0.361254 0.583599
vn -0.727261 -0.361254 0.583599
vn -0.727261 -0.361254 0.583599
vn -0.467016 0.428922 0.773254
vn -0.467016 0.428922 0.773254
vn -0.467016 0.428922 0.773254
vn 0.657296 -0.308996 0.687375
vn 0.657296 -0.308996 0.687375
vn 0.657296 -0.308996 0.687375
vn 0.754282 0.448068 0.479889
vn 0.754282 0.448068 0.479889
vn 0.754282 0.448068 0.479889
s off
f 2/1/1 3/2/2 4/3/3
f 3/4/4 5/5/5 4/6/6
f 24/7/7 4/8/8 5/9/9
f 24/10/10 23/11/11 4/12/12
f 10/13/13 6/14/14 11/15/15
f 8/16/16 54/128/17 55/126/18
f 8/20/19 55/127/20 53/129/21
f 14/23/22 16/24/23 15/25/24
f 15/26/25 16/27/26 17/28/27
f 19/29/28 1/30/29 3/31/30 2/32/31 61/117/32 62/116/33 60/119/34
f 12/33/35 56/125/36 58/122/37 13/35/38
f 19/36/39 14/37/40 15/38/41 1/39/42
f 18/40/43 7/41/44 9/42/45 20/43/46
f 21/44/47 22/45/48 18/46/49 20/47/50
f 13/48/51 58/123/52 9/49/53 7/50/54
f 11/51/55 23/52/56 24/53/57 50/133/58 51/132/59 49/135/60 10/54/61
f 4/55/62 27/56/63 25/57/64 2/58/65
f 3/59/66 26/60/67 28/61/68 5/62/69
f 5/62/70 28/61/71 29/63/72 24/64/73
f 23/65/74 30/66/75 27/56/76 4/55/77
f 6/67/78 32/68/79 34/69/80 11/70/81
f 13/71/82 36/72/83 32/68/84 6/67/85
f 14/73/86 37/74/87 38/75/88 16/76/89
f 16/76/90 38/75/91 40/77/92 17/78/93
f 17/78/94 40/77/95 39/79/96 15/80/97
f 1/81/98 42/82/99 26/60/100 3/59/101
f 2/58/102 25/57/103 41/83/104 19/84/105 60/85/106 63/86/107 61/87/108
f 12/88/109 35/89/110 43/90/111 9/91/112 57/92/113 59/93/114 56/94/115
f 19/84/116 41/83/117 37/74/118 14/73/119
f 15/80/120 39/79/121 42/82/122 1/81/123
f 18/95/124 44/96/125 45/97/126 7/98/127
f 9/91/128 43/90/129 46/99/130 20/100/131
f 21/101/132 47/102/133 48/103/134 22/104/135
f 22/104/136 48/103/137 44/96/138 18/95/139
f 20/100/140 46/99/141 47/102/142 21/101/143
f 7/98/144 45/97/145 36/72/146 13/71/147
f 11/70/148 34/69/149 30/66/150 23/65/151
f 24/64/152 29/63/153 33/105/154 10/106/155 49/107/156 52/108/157 50/109/158
f 50/134/159 52/131/160 51/130/161
f 51/130/162 52/131/163 49/136/164
f 10/106/165 33/105/166 31/110/167 8/111/168 53/112/169
f 54/113/170 8/111/171 31/110/172 35/89/173 12/88/174
f 55/126/175 54/128/176 12/17/177 13/18/178 6/19/179
f 53/129/180 55/127/181 6/21/182 10/22/183
f 58/122/184 57/124/185 9/34/186
f 58/122/187 56/125/188 59/121/189
f 58/122/190 59/121/191 57/124/192
f 62/114/193 63/115/194 60/120/195
f 61/118/196 63/115/197 62/114/198
