# This file uses centimeters as units for non-parametric coordinates.

v 29.115479 29.088867 7.391602
v 17.469604 19.011719 7.391602
v 17.469604 -19.392578 7.391602
v 29.115479 -29.090820 7.391602
v 17.470581 29.090820 7.391602
v -0.005615 7.717773 7.391602
v 4.459351 2.256836 7.391602
v -4.459351 2.252930 7.391602
v -0.005615 -3.491211 7.391602
v -3.663574 -8.190430 7.391602
v -12.986938 -8.188477 7.391602
v -12.986938 -19.392578 7.391602
v -3.663574 -19.392578 7.391602
v 3.664551 -8.190430 7.391602
v 12.988037 -8.188477 7.391602
v 3.664551 -19.392578 7.391602
v 12.988037 -19.392578 7.391602
v -17.469604 19.011719 7.391602
v -29.114380 29.088867 -1.008789
v -29.115479 -29.090820 7.391602
v -17.469604 -19.392578 7.391602
v -17.469604 29.090820 7.391602
v 29.115479 29.088869 -7.391602
v 17.469604 19.011721 -7.391602
v 17.469604 -19.392578 -7.391602
v 29.115479 -29.090820 -7.391602
v 17.470581 29.090822 -7.391602
v -0.005615 7.717775 -7.391602
v 4.459351 2.256836 -7.391602
v -4.459351 2.252930 -7.391602
v -0.005615 -3.491211 -7.391602
v -3.663574 -8.190430 -7.391602
v -12.986938 -8.188477 -7.391602
v -12.986938 -19.392578 -7.391602
v -3.663574 -19.392578 -7.391602
v 3.664551 -8.190430 -7.391602
v 12.988037 -8.188477 -7.391602
v 3.664551 -19.392578 -7.391602
v 12.988037 -19.392578 -7.391602
v -17.469604 19.011721 -7.391602
v -29.114380 29.088869 -7.391602
v -29.115479 -29.090820 -7.391602
v -17.469604 -19.392578 -7.391602
v -17.469604 29.090822 -7.391602
v 29.115479 9.661133 7.391602
v 29.115479 -21.146484 7.391602
v 23.086548 -7.842773 7.391602
v 29.115479 -12.771484 -0.769531
v -22.142822 29.088867 7.391602
v -29.114502 20.287109 7.391602
v -23.078735 23.864258 7.391602
vt 0.026058 0.511781
vt 0.026058 0.511781
vt 0.026058 0.511781
vt 0.026058 0.511781
vt 0.026058 0.511781
vt 0.026058 0.511781
vt 0.026058 0.511781
vt 0.026058 0.511781
vt 0.026058 0.511781
vt 0.026058 0.511781
vt 0.026058 0.511781
vt 0.026058 0.511781
vt 0.026058 0.511781
vt 0.026058 0.511781
vt 0.026058 0.511781
vt 0.026058 0.511781
vt 0.026058 0.511781
vt 0.026058 0.511781
vt 0.026058 0.511781
vt 0.026058 0.511781
vt 0.026058 0.511781
vt 0.026058 0.511781
vt 0.026058 0.511781
vt 0.026058 0.511781
vt 0.026058 0.511781
vt 0.026058 0.511781
vt 0.026058 0.511781
vt 0.026058 0.511781
vt 0.026058 0.511781
vt 0.026058 0.511781
vt 0.026058 0.511781
vt 0.026058 0.511781
vt 0.026058 0.511781
vt 0.026058 0.511781
vt 0.026058 0.511781
vt 0.026058 0.511781
vt 0.026058 0.511781
vt 0.026058 0.511781
vt 0.026058 0.511781
vt 0.026058 0.511781
vt 0.026058 0.511781
vt 0.026058 0.511781
vt 0.026058 0.511781
vt 0.026058 0.511781
vt 0.026058 0.511781
vt 0.026058 0.511781
vt 0.026058 0.511781
vt 0.009399 0.508655
vt 0.009399 0.508656
vt 0.009399 0.508656
vt 0.009399 0.508655
vt 0.009399 0.508655
vt 0.009399 0.508656
vt 0.009399 0.508656
vt 0.009399 0.508655
vt 0.009399 0.508655
vt 0.009399 0.508654
vt 0.009399 0.508655
vt 0.009399 0.508655
vt 0.009399 0.508656
vt 0.009399 0.508656
vt 0.009399 0.508655
vt 0.009399 0.508655
vt 0.009399 0.508656
vt 0.009399 0.508655
vt 0.009399 0.508656
vt 0.009399 0.508656
vt 0.009399 0.508655
vt 0.009399 0.508655
vt 0.009399 0.508656
vt 0.009399 0.508656
vt 0.009399 0.508655
vt 0.009399 0.508655
vt 0.009399 0.508656
vt 0.009399 0.508656
vt 0.009399 0.508655
vt 0.009399 0.508655
vt 0.009399 0.508656
vt 0.009399 0.508656
vt 0.009399 0.508655
vt 0.009399 0.508654
vt 0.009399 0.508656
vt 0.009399 0.508656
vt 0.009399 0.508655
vt 0.009399 0.508655
vt 0.009399 0.508655
vt 0.009399 0.508656
vt 0.009399 0.508656
vt 0.009399 0.508655
vt 0.009399 0.508655
vt 0.009399 0.508656
vt 0.009399 0.508655
vt 0.009399 0.508655
vt 0.009399 0.508656
vt 0.009399 0.508656
vt 0.009399 0.508655
vt 0.009399 0.508655
vt 0.009399 0.508655
vn 0.000000 0.000000 1.000000
vn 0.000000 0.000000 1.000000
vn 0.000000 0.000000 1.000000
vn 0.000000 0.000000 1.000000
vn 0.000000 0.000000 1.000000
vn 0.000000 0.000000 1.000000
vn 0.000000 0.000000 1.000000
vn 0.000000 0.000000 1.000000
vn 0.000000 0.000000 1.000000
vn 0.000000 0.000000 1.000000
vn 0.000000 0.000000 1.000000
vn -0.000000 0.000000 1.000000
vn -0.000000 0.000000 1.000000
vn -0.000000 0.000000 1.000000
vn -0.000000 0.000000 1.000000
vn 0.000000 0.000000 1.000000
vn 0.000000 0.000000 1.000000
vn 0.000000 0.000000 1.000000
vn 0.000000 0.000000 1.000000
vn 0.000000 0.000000 1.000000
vn 0.000000 0.000000 1.000000
vn 0.000000 0.000000 1.000000
vn 0.000000 0.000000 1.000000
vn 0.000000 0.000000 1.000000
vn 0.000000 0.000000 1.000000
vn 0.000000 0.000000 1.000000
vn 0.000000 0.000000 1.000000
vn 0.000000 0.000000 1.000000
vn 0.000000 0.000000 1.000000
vn 0.000000 0.000000 1.000000
vn 0.000000 0.000000 1.000000
vn 0.000000 0.000000 1.000000
vn 0.000000 0.000000 1.000000
vn 0.000000 0.000000 1.000000
vn 0.000000 0.000000 1.000000
vn 0.000000 0.000000 1.000000
vn 0.000000 0.000000 1.000000
vn 0.000000 0.000000 1.000000
vn -0.000000 0.000000 1.000000
vn -0.000000 0.000000 1.000000
vn -0.000000 0.000000 1.000000
vn -0.000000 0.000000 1.000000
vn 0.000000 0.000000 1.000000
vn 0.000000 0.000000 1.000000
vn 0.000000 0.000000 1.000000
vn 0.000000 0.000000 1.000000
vn 0.000000 0.000000 1.000000
vn 0.000000 0.000000 1.000000
vn 0.000000 0.000000 1.000000
vn 0.000000 0.000000 1.000000
vn 0.000000 0.000000 1.000000
vn 0.000000 0.000000 1.000000
vn 0.000000 0.000000 1.000000
vn 0.000000 0.000000 1.000000
vn 0.000000 0.000000 1.000000
vn 0.000000 0.000000 1.000000
vn 0.000000 0.000000 1.000000
vn 0.000000 0.000000 1.000000
vn 0.000000 0.000000 1.000000
vn 0.000000 0.000000 1.000000
vn 0.000000 0.000000 1.000000
vn 0.000000 0.000000 1.000000
vn 0.000000 0.000000 1.000000
vn -1.000000 0.000000 0.000000
vn -1.000000 0.000000 0.000000
vn -1.000000 0.000000 0.000000
vn -1.000000 0.000000 0.000000
vn 1.000000 0.000000 0.000000
vn 1.000000 0.000000 0.000000
vn 1.000000 0.000000 0.000000
vn 1.000000 0.000000 0.000000
vn 1.000000 0.000000 0.000000
vn 1.000000 0.000000 0.000000
vn 1.000000 0.000000 0.000000
vn -0.774150 0.633003 0.000000
vn -0.774150 0.633003 0.000000
vn -0.774150 0.633003 0.000000
vn -0.774150 0.633003 0.000000
vn 0.789839 -0.613314 -0.000000
vn 0.789839 -0.613314 -0.000000
vn 0.789839 -0.613314 -0.000000
vn 0.789839 -0.613314 -0.000000
vn -1.000000 0.000000 0.000000
vn -1.000000 0.000000 0.000000
vn -1.000000 0.000000 0.000000
vn -1.000000 0.000000 0.000000
vn 1.000000 0.000000 0.000000
vn 1.000000 0.000000 0.000000
vn 1.000000 0.000000 0.000000
vn 1.000000 0.000000 0.000000
vn -1.000000 0.000000 0.000000
vn -1.000000 0.000000 0.000000
vn -1.000000 0.000000 0.000000
vn -1.000000 0.000000 0.000000
vn 1.000000 0.000000 0.000000
vn 1.000000 0.000000 0.000000
vn 1.000000 0.000000 0.000000
vn 1.000000 0.000000 0.000000
vn 0.000168 1.000000 0.000000
vn 0.000168 1.000000 0.000000
vn 0.000168 1.000000 0.000000
vn 0.000168 1.000000 0.000000
vn -1.000000 0.000019 0.000002
vn -1.000000 0.000019 0.000002
vn -1.000000 0.000019 0.000002
vn -1.000000 0.000019 0.000002
vn -1.000000 0.000019 0.000002
vn 1.000000 0.000000 0.000000
vn 1.000000 0.000000 0.000000
vn 1.000000 0.000000 0.000000
vn 1.000000 0.000000 0.000000
vn -0.000202 1.000000 0.000048
vn -0.000202 1.000000 0.000048
vn -0.000202 1.000000 0.000048
vn -0.000202 1.000000 0.000048
vn -0.000202 1.000000 0.000048
vn -0.774516 0.632554 0.000000
vn -0.774516 0.632554 0.000000
vn -0.774516 0.632554 0.000000
vn -0.774516 0.632554 0.000000
vn 0.789107 -0.614256 0.000000
vn 0.789107 -0.614256 0.000000
vn 0.789107 -0.614256 0.000000
vn 0.789107 -0.614256 0.000000
vn -0.789908 -0.613225 -0.000000
vn -0.789908 -0.613225 -0.000000
vn -0.789908 -0.613225 -0.000000
vn -0.789908 -0.613225 -0.000000
vn 0.774366 0.632737 0.000000
vn 0.774366 0.632737 0.000000
vn 0.774366 0.632737 0.000000
vn 0.774366 0.632737 0.000000
vn -0.788114 -0.615530 0.000000
vn -0.788114 -0.615530 0.000000
vn -0.788114 -0.615530 0.000000
vn -0.788114 -0.615530 0.000000
vn 0.774592 0.632461 0.000000
vn 0.774592 0.632461 0.000000
vn 0.774592 0.632461 0.000000
vn 0.774592 0.632461 0.000000
vn 0.000000 1.000000 0.000000
vn 0.000000 1.000000 0.000000
vn 0.000000 1.000000 0.000000
vn 0.000000 1.000000 0.000000
vn 0.000000 1.000000 0.000000
vn 0.000000 1.000000 0.000000
vn 0.000000 1.000000 0.000000
vn 0.000000 1.000000 0.000000
vn 0.000000 -1.000000 0.000000
vn 0.000000 -1.000000 0.000000
vn 0.000000 -1.000000 0.000000
vn 0.000000 -1.000000 0.000000
vn 0.000000 1.000000 0.000000
vn 0.000000 1.000000 0.000000
vn 0.000000 1.000000 0.000000
vn 0.000000 1.000000 0.000000
vn 0.838696 0.380077 0.390038
vn 0.838696 0.380077 0.390038
vn 0.838696 0.380077 0.390038
vn 0.704476 -0.242645 0.666961
vn 0.704476 -0.242645 0.666962
vn 0.704476 -0.242645 0.666961
vn -0.378708 0.638998 0.669524
vn -0.378708 0.638998 0.669524
vn -0.378708 0.638998 0.669524
vn -0.762307 0.136557 0.632645
vn -0.762307 0.136557 0.632645
vn -0.762307 0.136557 0.632645
s off
f 1/1/1 2/2/2 3/3/3 4/4/4 46/5/5 47/6/6 45/7/7
f 2/8/8 5/9/9 6/10/10 7/11/11
f 6/12/12 8/13/13 9/14/14 7/15/15
f 10/16/16 11/17/17 12/18/18 13/19/19
f 15/20/20 14/21/21 16/22/22 17/23/23
f 1/24/24 5/25/25 2/26/26
f 18/27/27 51/28/28 50/29/29 20/30/30 21/31/31
f 20/32/32 13/33/33 12/34/34
f 22/35/35 49/36/36 51/37/37 18/38/38
f 9/39/39 8/40/40 11/17/41 10/16/42
f 18/41/43 8/13/44 6/12/45 22/42/46
f 7/15/47 9/14/48 14/21/49 15/20/50
f 20/32/51 12/34/52 21/43/53
f 4/44/54 17/45/55 16/46/56
f 4/44/57 16/46/58 13/33/59 20/32/60
f 3/47/61 17/45/62 4/44/63
f 2/48/64 24/49/65 25/50/66 3/51/67
f 4/52/68 26/53/69 23/54/70 1/55/71 45/56/72 48/57/73 46/58/74
f 5/59/75 27/60/76 28/61/77 6/62/78
f 7/63/79 29/64/80 24/49/81 2/48/82
f 11/65/83 33/66/84 34/67/85 12/68/86
f 13/69/87 35/70/88 32/71/89 10/72/90
f 14/73/91 36/74/92 38/75/93 16/76/94
f 17/77/95 39/78/96 37/79/97 15/80/98
f 1/55/99 23/54/100 27/60/101 5/59/102
f 19/81/103 41/82/104 42/83/105 20/84/106 50/85/107
f 21/86/108 43/87/109 40/88/110 18/89/111
f 22/90/112 44/91/113 41/82/114 19/81/115 49/92/116
f 8/93/117 30/94/118 33/66/119 11/65/120
f 10/72/121 32/71/122 31/95/123 9/96/124
f 18/89/125 40/88/126 30/94/127 8/93/128
f 6/62/129 28/61/130 44/91/131 22/90/132
f 9/96/133 31/95/134 36/74/135 14/73/136
f 15/80/137 37/79/138 29/64/139 7/63/140
f 12/68/141 34/67/142 43/87/143 21/86/144
f 16/76/145 38/75/146 35/70/147 13/69/148
f 20/84/149 42/83/150 26/53/151 4/52/152
f 3/51/153 25/50/154 39/78/155 17/77/156
f 46/58/157 48/57/158 47/97/159
f 48/57/160 45/56/161 47/97/162
f 51/98/163 19/81/164 50/85/165
f 49/92/166 19/81/167 51/98/168
