# This file uses centimeters as units for non-parametric coordinates.

v 26.957031 -20.218750 7.391602
v 20.217529 -26.958008 7.391602
v 20.217529 -13.477540 7.391602
v 13.479004 -20.218750 7.391602
v 26.957031 -20.218750 -7.391602
v 20.217529 -13.477539 -7.391602
v 13.479004 -20.218750 -7.391602
v 20.217529 -26.958008 -7.391602
v 13.479004 33.696289 7.391602
v 6.740234 26.957031 7.391602
v -0.000732 47.174805 7.391602
v -0.000732 33.697266 7.391602
v -6.740234 26.958008 7.391602
v -13.479004 33.697266 7.391602
v 13.479004 33.696289 -7.391602
v -0.000732 47.174805 -7.391602
v -0.000732 33.697266 -7.391602
v 6.740234 26.957029 -7.391602
v -13.479004 33.697266 -7.391602
v -6.740234 26.958006 -7.391602
v -13.479004 20.218750 7.391602
v -20.218506 13.478516 7.391602
v -20.218506 26.958008 7.391602
v -26.958252 20.218750 7.391602
v -13.479004 20.218748 -7.391602
v -20.218506 26.958006 -7.391602
v -26.958252 20.218748 -7.391602
v -20.218506 13.478514 -7.391602
v -26.958252 6.739258 7.391602
v -33.697754 -0.000000 7.391602
v -33.697754 13.478516 7.391602
v -47.176025 0.000000 0.047852
v -26.957031 -6.739258 7.391602
v -33.696777 -13.478517 7.391602
v -26.958252 6.739256 -7.391602
v -33.697754 13.478514 -7.391602
v -47.176025 0.000000 -7.391602
v -33.697754 0.000000 -7.391602
v -33.696777 -13.478516 -7.391602
v -26.957031 -6.739258 -7.391602
v 47.176025 -0.000000 7.391602
v 33.696777 13.478516 7.391602
v 33.697266 -0.000000 7.391602
v 26.957031 6.739258 7.391602
v 33.696777 -13.477540 7.391602
v 26.957031 -6.739258 7.391602
v 47.176025 0.000000 -7.391602
v 33.696777 13.478518 -7.391602
v 33.697266 0.000000 -7.391602
v 26.957031 6.739260 -7.391602
v 26.957031 -6.739258 -7.391602
v 33.696777 -13.477539 -7.391602
v 13.479004 -33.697266 7.391602
v -0.000732 -47.174805 7.391602
v 6.739258 -26.958008 7.391602
v 0.000000 -33.697266 7.391602
v -13.479004 -33.697266 7.391602
v -6.740234 -26.958008 7.391602
v 13.479004 -33.697266 -7.391602
v 6.739258 -26.958008 -7.391602
v 0.000000 -33.697266 -7.391602
v -0.000732 -47.174805 -7.391602
v -6.740234 -26.958008 -7.391602
v -13.479004 -33.697266 -7.391602
v 26.958252 20.218750 7.391602
v 20.218506 13.477539 7.391602
v 20.217529 26.958008 7.391602
v 13.479004 20.218750 7.391602
v 26.958252 20.218748 -7.391602
v 20.217529 26.958006 -7.391602
v 13.479004 20.218748 -7.391602
v 20.218506 13.477537 -7.391602
v -13.479004 -20.218750 7.391602
v -20.218506 -26.958984 7.391602
v -20.218506 -13.478517 7.391602
v -26.957031 -20.218750 7.391602
v -13.479004 -20.218750 -7.391602
v -20.218506 -13.478516 -7.391602
v -26.957031 -20.218750 -7.391602
v -20.218506 -26.958984 -7.391602
v 20.219482 -0.000977 7.391602
v 6.740234 -0.000977 7.391602
v 0.000000 6.739258 7.391602
v -6.739746 -0.000000 7.391602
v -20.218506 -0.000000 7.391602
v -0.000732 20.218750 7.391602
v 0.000732 -6.739258 7.391602
v 0.001709 -20.219727 7.391602
v 20.219482 -0.000977 -7.391602
v 0.000000 6.739256 -7.391602
v 6.740234 -0.000977 -7.391602
v -0.000732 20.218748 -7.391602
v -20.218506 0.000000 -7.391602
v -6.739746 0.000000 -7.391602
v 0.000732 -6.739258 -7.391602
v 0.001709 -20.219727 -7.391602
v 17.013184 -3.208008 7.391602
v 3.496826 -16.724609 7.391602
v 6.143066 -6.147461 7.391602
v 9.661865 -10.559570 3.248047
v -41.026611 6.150391 7.391602
v -41.901123 -5.274414 7.391602
v -41.497314 -0.000000 7.391602
v 45.546143 1.629883 7.391602
v 37.550049 9.625977 7.391602
v 36.369873 3.998047 7.391602
v 39.365479 7.810547 0.271484
vt 0.026058 0.511781
vt 0.026058 0.511781
vt 0.026058 0.511781
vt 0.026058 0.511781
vt 0.009277 0.508654
vt 0.009277 0.508654
vt 0.009277 0.508654
vt 0.009277 0.508654
vt 0.009277 0.508654
vt 0.009277 0.508654
vt 0.009277 0.508654
vt 0.009277 0.508654
vt 0.026058 0.511781
vt 0.026058 0.511781
vt 0.026058 0.511781
vt 0.026058 0.511781
vt 0.026058 0.511781
vt 0.026058 0.511781
vt 0.026058 0.511781
vt 0.026058 0.511781
vt 0.009277 0.508654
vt 0.009277 0.508654
vt 0.009277 0.508654
vt 0.009277 0.508654
vt 0.009277 0.508654
vt 0.009277 0.508654
vt 0.009277 0.508654
vt 0.009277 0.508654
vt 0.009277 0.508654
vt 0.009277 0.508654
vt 0.009277 0.508654
vt 0.009277 0.508654
vt 0.009277 0.508654
vt 0.009277 0.508654
vt 0.009277 0.508654
vt 0.009277 0.508654
vt 0.026058 0.511781
vt 0.026058 0.511781
vt 0.026058 0.511781
vt 0.026058 0.511781
vt 0.009277 0.508654
vt 0.009277 0.508654
vt 0.009277 0.508654
vt 0.009277 0.508654
vt 0.009277 0.508654
vt 0.009277 0.508654
vt 0.009277 0.508654
vt 0.009277 0.508654
vt 0.026058 0.511781
vt 0.026058 0.511781
vt 0.026058 0.511781
vt 0.026058 0.511781
vt 0.026058 0.511781
vt 0.026058 0.511781
vt 0.026058 0.511781
vt 0.026058 0.511781
vt 0.026058 0.511781
vt 0.026058 0.511781
vt 0.009277 0.508654
vt 0.009277 0.508654
vt 0.009277 0.508654
vt 0.009277 0.508654
vt 0.009277 0.508654
vt 0.009277 0.508654
vt 0.009277 0.508654
vt 0.009277 0.508654
vt 0.009277 0.508654
vt 0.009277 0.508654
vt 0.009277 0.508654
vt 0.009277 0.508655
vt 0.009277 0.508654
vt 0.009277 0.508654
vt 0.009277 0.508654
vt 0.009277 0.508654
vt 0.009277 0.508654
vt 0.009277 0.508654
vt 0.026058 0.511781
vt 0.026058 0.511781
vt 0.026058 0.511781
vt 0.026058 0.511781
vt 0.026058 0.511781
vt 0.026058 0.511781
vt 0.026058 0.511781
vt 0.026058 0.511781
vt 0.026058 0.511781
vt 0.026058 0.511781
vt 0.009277 0.508654
vt 0.009277 0.508654
vt 0.009277 0.508654
vt 0.009277 0.508654
vt 0.009277 0.508654
vt 0.009277 0.508654
vt 0.009277 0.508654
vt 0.009277 0.508654
vt 0.009277 0.508654
vt 0.009277 0.508654
vt 0.009277 0.508654
vt 0.009277 0.508654
vt 0.009277 0.508654
vt 0.009277 0.508654
vt 0.009277 0.508654
vt 0.009277 0.508654
vt 0.009277 0.508654
vt 0.009277 0.508654
vt 0.026058 0.511781
vt 0.026058 0.511781
vt 0.026058 0.511781
vt 0.026058 0.511781
vt 0.026058 0.511781
vt 0.026058 0.511781
vt 0.026058 0.511781
vt 0.026058 0.511781
vt 0.026058 0.511781
vt 0.026058 0.511781
vt 0.009277 0.508654
vt 0.009277 0.508654
vt 0.009277 0.508654
vt 0.009277 0.508654
vt 0.009277 0.508654
vt 0.009277 0.508654
vt 0.009277 0.508654
vt 0.009277 0.508654
vt 0.009277 0.508654
vt 0.009277 0.508654
vt 0.009277 0.508654
vt 0.009277 0.508654
vt 0.009277 0.508654
vt 0.009277 0.508654
vt 0.009277 0.508654
vt 0.009277 0.508654
vt 0.009277 0.508654
vt 0.009277 0.508654
vt 0.026058 0.511781
vt 0.026058 0.511781
vt 0.026058 0.511781
vt 0.026058 0.511781
vt 0.009277 0.508654
vt 0.009277 0.508654
vt 0.009277 0.508654
vt 0.009277 0.508654
vt 0.009277 0.508654
vt 0.009277 0.508654
vt 0.009277 0.508654
vt 0.009277 0.508654
vt 0.026058 0.511781
vt 0.026058 0.511781
vt 0.026058 0.511781
vt 0.026058 0.511781
vt 0.009277 0.508654
vt 0.009277 0.508654
vt 0.009277 0.508654
vt 0.009277 0.508654
vt 0.009277 0.508655
vt 0.009277 0.508654
vt 0.009277 0.508654
vt 0.009277 0.508655
vt 0.026058 0.511781
vt 0.026058 0.511781
vt 0.026058 0.511781
vt 0.026058 0.511781
vt 0.026058 0.511781
vt 0.026058 0.511781
vt 0.026058 0.511781
vt 0.026058 0.511781
vt 0.026058 0.511781
vt 0.026058 0.511781
vt 0.026058 0.511781
vt 0.026058 0.511781
vt 0.026058 0.511781
vt 0.026058 0.511781
vt 0.026058 0.511781
vt 0.026058 0.511781
vt 0.026058 0.511781
vt 0.026058 0.511781
vt 0.009277 0.508654
vt 0.009277 0.508654
vt 0.026058 0.511781
vt 0.026058 0.511781
vt 0.026058 0.511781
vt 0.026058 0.511781
vt 0.026058 0.511781
vt 0.026058 0.511781
vt 0.026058 0.511781
vt 0.026058 0.511781
vt 0.026058 0.511781
vt 0.026058 0.511781
vt 0.026058 0.511781
vt 0.026058 0.511781
vt 0.026058 0.511781
vt 0.026058 0.511781
vt 0.026058 0.511781
vn 0.000000 0.000000 1.000000
vn 0.000000 0.000000 1.000000
vn 0.000000 0.000000 1.000000
vn 0.000000 0.000000 1.000000
vn 0.707196 0.707017 0.000000
vn 0.707196 0.707017 0.000000
vn 0.707196 0.707017 0.000000
vn 0.707196 0.707017 0.000000
vn -0.707248 0.706966 0.000000
vn -0.707248 0.706966 0.000000
vn -0.707248 0.706966 0.000000
vn -0.707248 0.706966 0.000000
vn -0.707145 -0.707068 0.000000
vn -0.707145 -0.707068 0.000000
vn -0.707145 -0.707068 0.000000
vn -0.707145 -0.707068 0.000000
vn 0.707094 -0.707120 0.000000
vn 0.707094 -0.707120 0.000000
vn 0.707094 -0.707120 0.000000
vn 0.707094 -0.707120 0.000000
vn 0.000000 0.000000 1.000000
vn 0.000000 0.000000 1.000000
vn 0.000000 0.000000 1.000000
vn 0.000000 0.000000 1.000000
vn 0.000000 0.000000 1.000000
vn 0.000000 0.000000 1.000000
vn 0.000000 0.000000 1.000000
vn 0.000000 0.000000 1.000000
vn 0.707075 0.707139 0.000000
vn 0.707075 0.707139 0.000000
vn 0.707075 0.707139 0.000000
vn 0.707075 0.707139 0.000000
vn -0.707068 -0.707145 0.000000
vn -0.707068 -0.707145 0.000000
vn -0.707068 -0.707145 0.000000
vn -0.707068 -0.707145 0.000000
vn 0.707133 -0.707081 0.000000
vn 0.707133 -0.707081 0.000000
vn 0.707133 -0.707081 0.000000
vn 0.707133 -0.707081 0.000000
vn -0.707088 0.707126 0.000000
vn -0.707088 0.707126 0.000000
vn -0.707088 0.707126 0.000000
vn -0.707088 0.707126 0.000000
vn -0.707133 -0.707081 0.000000
vn -0.707133 -0.707081 0.000000
vn -0.707133 -0.707081 0.000000
vn -0.707133 -0.707081 0.000000
vn 0.707094 -0.707120 0.000000
vn 0.707094 -0.707120 0.000000
vn 0.707094 -0.707120 0.000000
vn 0.707094 -0.707120 0.000000
vn 0.000000 0.000000 1.000000
vn 0.000000 0.000000 1.000000
vn 0.000000 0.000000 1.000000
vn 0.000000 0.000000 1.000000
vn 0.707094 0.707120 -0.000000
vn 0.707094 0.707120 -0.000000
vn 0.707094 0.707120 -0.000000
vn 0.707094 0.707120 -0.000000
vn -0.707081 0.707132 -0.000000
vn -0.707081 0.707132 -0.000000
vn -0.707081 0.707132 -0.000000
vn -0.707081 0.707132 -0.000000
vn -0.707132 -0.707081 0.000000
vn -0.707132 -0.707081 0.000000
vn -0.707132 -0.707081 0.000000
vn -0.707132 -0.707081 0.000000
vn 0.707145 -0.707068 0.000000
vn 0.707145 -0.707068 0.000000
vn 0.707145 -0.707068 0.000000
vn 0.707145 -0.707068 0.000000
vn -0.174768 0.013375 0.984519
vn -0.070186 0.005371 0.997520
vn -0.789631 0.060432 0.610599
vn -0.110699 0.008475 0.993818
vn -0.195850 0.014994 0.980519
vn -0.789630 0.060454 0.610598
vn 0.000000 0.000000 1.000000
vn 0.000000 0.000000 1.000000
vn 0.000000 0.000000 1.000000
vn 0.707094 0.707120 -0.000000
vn 0.707094 0.707120 -0.000000
vn 0.707094 0.707120 -0.000000
vn 0.707094 0.707120 -0.000000
vn 0.707094 -0.707120 0.000000
vn 0.707094 -0.707120 0.000000
vn 0.707094 -0.707120 0.000000
vn 0.707094 -0.707120 0.000000
vn 0.707030 0.707184 0.000000
vn 0.707030 0.707184 0.000000
vn 0.707030 0.707184 0.000000
vn 0.707030 0.707184 0.000000
vn 0.707081 -0.707132 0.000000
vn 0.707081 -0.707132 0.000000
vn 0.707081 -0.707132 0.000000
vn 0.707081 -0.707132 0.000000
vn 0.000000 0.000000 1.000000
vn 0.661865 0.693453 0.284706
vn 0.219509 0.269205 0.937734
vn 0.709329 0.642358 0.290221
vn 0.000000 0.000000 1.000000
vn 0.000000 0.000000 1.000000
vn 0.000000 0.000000 1.000000
vn 0.000000 0.000000 1.000000
vn 0.000000 0.000000 1.000000
vn 0.000000 0.000000 1.000000
vn 0.000000 0.000000 1.000000
vn 0.000000 0.000000 1.000000
vn 0.000000 0.000000 1.000000
vn 0.707084 0.707129 -0.000015
vn 0.707084 0.707129 -0.000015
vn 0.707084 0.707129 -0.000015
vn 0.707084 0.707129 -0.000015
vn 0.709329 0.642358 0.290221
vn 0.696286 0.713991 0.073502
vn 0.661865 0.693453 0.284706
vn -0.707081 0.707132 0.000000
vn -0.707081 0.707132 0.000000
vn -0.707081 0.707132 0.000000
vn -0.707081 0.707132 0.000000
vn -0.707056 -0.707158 -0.000000
vn -0.707056 -0.707158 -0.000000
vn -0.707056 -0.707158 -0.000000
vn -0.707056 -0.707158 -0.000000
vn -0.707056 0.707158 0.000000
vn -0.707056 0.707158 0.000000
vn -0.707056 0.707158 0.000000
vn -0.707056 0.707158 0.000000
vn -0.707030 -0.707184 0.000000
vn -0.707030 -0.707184 0.000000
vn -0.707030 -0.707184 0.000000
vn -0.707030 -0.707184 0.000000
vn 0.707062 -0.707152 0.000000
vn 0.707062 -0.707152 0.000000
vn 0.707062 -0.707152 0.000000
vn 0.707062 -0.707152 0.000000
vn 0.000000 0.000000 1.000000
vn 0.000000 0.000000 1.000000
vn 0.000000 0.000000 1.000000
vn 0.000000 0.000000 1.000000
vn 0.000000 0.000000 1.000000
vn 0.000000 0.000000 1.000000
vn 0.000000 0.000000 1.000000
vn 0.000000 0.000000 1.000000
vn 0.000000 0.000000 1.000000
vn 0.000000 0.000000 1.000000
vn 0.707081 0.707132 0.000000
vn 0.707081 0.707132 0.000000
vn 0.707081 0.707132 0.000000
vn 0.707081 0.707132 0.000000
vn -0.707107 0.707107 0.000000
vn -0.707107 0.707107 0.000000
vn -0.707107 0.707107 0.000000
vn -0.707107 0.707107 0.000000
vn 0.707049 -0.707164 0.000000
vn 0.707049 -0.707164 0.000000
vn 0.707049 -0.707164 0.000000
vn 0.707049 -0.707164 0.000000
vn 0.707056 0.707158 0.000000
vn 0.707056 0.707158 0.000000
vn 0.707056 0.707158 0.000000
vn 0.707056 0.707158 0.000000
vn -0.707132 0.707081 0.000000
vn -0.707132 0.707081 0.000000
vn -0.707132 0.707081 0.000000
vn -0.707132 0.707081 0.000000
vn -0.707088 -0.707126 0.000000
vn -0.707088 -0.707126 0.000000
vn -0.707088 -0.707126 0.000000
vn -0.707088 -0.707126 0.000000
vn 0.000000 0.000000 1.000000
vn 0.000000 0.000000 1.000000
vn 0.000000 0.000000 1.000000
vn 0.000000 0.000000 1.000000
vn 0.707030 0.707184 -0.000000
vn 0.707030 0.707184 -0.000000
vn 0.707030 0.707184 -0.000000
vn 0.707030 0.707184 -0.000000
vn -0.707145 0.707068 -0.000000
vn -0.707145 0.707068 -0.000000
vn -0.707145 0.707068 -0.000000
vn -0.707145 0.707068 -0.000000
vn -0.707196 -0.707017 0.000000
vn -0.707196 -0.707017 0.000000
vn -0.707196 -0.707017 0.000000
vn -0.707196 -0.707017 0.000000
vn 0.707184 -0.707030 0.000000
vn 0.707184 -0.707030 0.000000
vn 0.707184 -0.707030 0.000000
vn 0.707184 -0.707030 0.000000
vn 0.000000 0.000000 1.000000
vn 0.000000 0.000000 1.000000
vn 0.000000 0.000000 1.000000
vn 0.000000 0.000000 1.000000
vn 0.707145 0.707068 0.000000
vn 0.707145 0.707068 0.000000
vn 0.707145 0.707068 0.000000
vn 0.707145 0.707068 0.000000
vn -0.707196 0.707017 0.000000
vn -0.707196 0.707017 0.000000
vn -0.707196 0.707017 0.000000
vn -0.707196 0.707017 0.000000
vn -0.707197 -0.707017 0.000000
vn -0.707197 -0.707017 0.000000
vn -0.707197 -0.707017 0.000000
vn -0.707197 -0.707017 0.000000
vn 0.707145 -0.707068 0.000000
vn 0.707145 -0.707068 0.000000
vn 0.707145 -0.707068 0.000000
vn 0.707145 -0.707068 0.000000
vn 0.000000 0.000000 1.000000
vn 0.000000 0.000000 1.000000
vn 0.000000 0.000000 1.000000
vn 0.000000 0.000000 1.000000
vn 0.000000 0.000000 1.000000
vn 0.000000 0.000000 1.000000
vn 0.000000 0.000000 1.000000
vn 0.000000 0.000000 1.000000
vn 0.000000 0.000000 1.000000
vn 0.000000 0.000000 1.000000
vn 0.000000 0.000000 1.000000
vn 0.000000 0.000000 1.000000
vn 0.000000 0.000000 1.000000
vn 0.000000 0.000000 1.000000
vn -0.000000 0.000000 1.000000
vn -0.000000 0.000000 1.000000
vn -0.000000 0.000000 1.000000
vn -0.000000 0.000000 1.000000
vn 0.675720 -0.665492 0.317053
vn 0.092807 -0.101963 0.990450
vn 0.666747 -0.675950 0.313910
vn -0.707107 -0.707107 0.000000
vn -0.707107 -0.707107 0.000000
vn -0.707107 -0.707107 0.000000
vn -0.707107 -0.707107 0.000000
vn -0.707124 0.707090 -0.000000
vn -0.707124 0.707090 -0.000000
vn -0.707124 0.707090 -0.000000
vn -0.707124 0.707090 -0.000000
vn 0.707081 -0.707132 0.000000
vn 0.707081 -0.707132 0.000000
vn 0.707081 -0.707132 0.000000
vn 0.707081 -0.707132 0.000000
vn 0.707098 0.707115 -0.000000
vn 0.707098 0.707115 -0.000000
vn 0.707098 0.707115 -0.000000
vn 0.707098 0.707115 -0.000000
vn 0.707043 0.707171 0.000000
vn 0.707043 0.707171 0.000000
vn 0.707043 0.707171 0.000000
vn 0.707043 0.707171 0.000000
vn -0.707098 -0.707115 0.000000
vn -0.707098 -0.707115 0.000000
vn -0.707098 -0.707115 0.000000
vn -0.707098 -0.707115 0.000000
vn -0.707043 0.707171 0.000000
vn -0.707043 0.707171 0.000000
vn -0.707043 0.707171 0.000000
vn -0.707043 0.707171 0.000000
vn 0.707125 -0.707089 -0.000018
vn 0.707125 -0.707089 -0.000018
vn 0.707125 -0.707089 -0.000018
vn 0.707125 -0.707089 -0.000018
vn 0.666747 -0.675950 0.313910
vn 0.706290 -0.703916 0.075209
vn 0.675720 -0.665492 0.317053
vn 0.706290 -0.703916 0.075209
vn 0.092807 -0.101963 0.990450
vn 0.675720 -0.665492 0.317053
vn 0.666747 -0.675950 0.313910
vn 0.092807 -0.101963 0.990450
vn 0.706290 -0.703916 0.075209
vn -0.707107 0.707107 -0.000023
vn -0.707107 0.707107 -0.000023
vn -0.707107 0.707107 -0.000023
vn -0.707107 0.707107 -0.000023
vn -0.707107 0.707107 -0.000023
vn -0.707089 -0.707124 0.000005
vn -0.707089 -0.707124 0.000005
vn -0.707089 -0.707125 0.000005
vn -0.707089 -0.707125 0.000005
vn -0.707089 -0.707124 0.000005
vn 0.000000 0.000000 1.000000
vn -0.195850 0.014994 0.980519
vn -0.110699 0.008475 0.993818
vn 0.000000 0.000000 1.000000
vn 0.000000 0.000000 1.000000
vn 0.000000 0.000000 1.000000
vn -0.070186 0.005371 0.997520
vn -0.174768 0.013375 0.984519
vn 0.000000 0.000000 1.000000
vn 0.219509 0.269205 0.937734
vn 0.696286 0.713991 0.073502
vn 0.709329 0.642358 0.290221
vn 0.661865 0.693453 0.284706
vn 0.696286 0.713991 0.073502
vn 0.219509 0.269205 0.937734
s off
f 1/1/1 3/2/2 4/3/3 2/4/4
f 1/5/5 5/6/6 6/7/7 3/8/8
f 3/8/9 6/7/10 7/9/11 4/10/12
f 4/10/13 7/9/14 8/11/15 2/12/16
f 2/12/17 8/11/18 5/6/19 1/5/20
f 9/13/21 11/14/22 12/15/23 10/16/24
f 12/17/25 11/18/26 14/19/27 13/20/28
f 9/21/29 15/22/30 16/23/31 11/24/32
f 12/25/33 17/26/34 18/27/35 10/28/36
f 10/28/37 18/27/38 15/22/39 9/21/40
f 11/24/41 16/23/42 19/29/43 14/30/44
f 14/30/45 19/29/46 20/31/47 13/32/48
f 13/32/49 20/31/50 17/26/51 12/25/52
f 21/37/53 23/38/54 24/39/55 22/40/56
f 21/33/57 25/34/58 26/35/59 23/36/60
f 23/36/61 26/35/62 27/41/63 24/42/64
f 24/42/65 27/41/66 28/43/67 22/44/68
f 22/44/69 28/43/70 25/34/71 21/33/72
f 103/184/73 101/187/74 32/51/75
f 102/186/76 103/185/77 32/54/78
f 33/56/79 30/57/80 34/58/81
f 29/45/82 35/46/83 36/47/84 31/48/85
f 30/59/86 38/60/87 35/46/88 29/45/89
f 33/61/90 40/62/91 38/60/92 30/59/93
f 34/63/94 39/64/95 40/62/96 33/61/97
f 41/77/98 104/183/99 106/179/100 105/181/101 42/78/102 43/79/103
f 42/80/104 44/81/105 43/82/106
f 41/83/107 43/84/108 46/85/109 45/86/110
f 41/65/111 47/66/112 48/67/113 42/68/114 105/69/115 107/70/116 104/71/117
f 42/68/118 48/67/119 50/72/120 44/73/121
f 44/73/122 50/72/123 49/74/124 43/75/125
f 43/75/126 49/74/127 51/76/128 46/87/129
f 46/87/130 51/76/131 52/88/132 45/89/133
f 45/89/134 52/88/135 47/66/136 41/65/137
f 53/105/138 55/106/139 56/107/140 54/108/141
f 56/109/142 58/110/143 57/111/144
f 54/112/145 56/113/146 57/114/147
f 53/90/148 59/91/149 60/92/150 55/93/151
f 55/93/152 60/92/153 61/94/154 56/95/155
f 54/96/156 62/97/157 59/91/158 53/90/159
f 56/95/160 61/94/161 63/98/162 58/99/163
f 58/99/164 63/98/165 64/100/166 57/101/167
f 57/101/168 64/100/169 62/97/170 54/96/171
f 65/133/172 67/134/173 68/135/174 66/136/175
f 65/102/176 69/103/177 70/104/178 67/115/179
f 67/115/180 70/104/181 71/116/182 68/117/183
f 68/117/184 71/116/185 72/118/186 66/119/187
f 66/119/188 72/118/189 69/103/190 65/102/191
f 73/145/192 75/146/193 76/147/194 74/148/195
f 73/120/196 77/121/197 78/122/198 75/123/199
f 75/123/200 78/122/201 79/124/202 76/125/203
f 76/125/204 79/124/205 80/126/206 74/127/207
f 74/127/208 80/126/209 77/121/210 73/120/211
f 81/157/212 83/158/213 82/159/214
f 83/160/215 86/161/216 85/162/217 84/163/218
f 81/164/219 86/165/220 83/166/221
f 87/167/222 84/168/223 85/169/224 88/170/225
f 81/171/226 82/172/227 87/173/228 88/174/229 98/190/230 99/189/231 97/191/232
f 83/128/233 90/129/234 91/130/235 82/131/236
f 86/132/237 92/137/238 93/138/239 85/139/240
f 84/140/241 94/141/242 90/129/243 83/128/244
f 81/142/245 89/143/246 92/137/247 86/132/248
f 87/144/249 95/149/250 94/141/251 84/140/252
f 85/139/253 93/138/254 96/150/255 88/151/256
f 82/131/257 91/130/258 95/149/259 87/144/260
f 88/151/261 96/150/262 89/143/263 81/142/264 97/152/265 100/153/266 98/154/267
f 100/188/268 99/189/269 98/190/270
f 97/191/271 99/189/272 100/188/273
f 31/48/274 36/47/275 37/155/276 32/156/277 101/175/278
f 102/176/279 32/156/280 37/155/281 39/64/282 34/63/283
f 30/53/284 103/185/285 102/186/286 34/55/287
f 29/49/288 31/50/289 101/187/290 103/184/291 30/52/292
f 106/177/293 107/178/294 105/180/295
f 104/182/296 107/178/297 106/177/298
