# This file uses centimeters as units for non-parametric coordinates.

v 42.304810 0.000977 7.391602
v 12.221069 26.341797 -0.263672
v 12.221069 -26.341799 7.391602
v -17.862915 0.000977 7.391602
v 27.396606 0.000977 7.391602
v 12.221069 13.288087 7.391602
v -10.408936 -6.526368 7.391602
v 12.221069 -13.288085 7.391602
v 10.087769 -11.419921 7.391602
v 2.613892 -17.929688 7.391602
v 42.304810 0.000977 -7.391602
v 12.221069 26.341799 -7.391602
v 12.221069 13.288088 -7.391602
v 27.396606 0.000977 -7.391602
v -17.862915 0.000977 -7.391602
v -10.408936 -6.526367 -7.391602
v 12.221069 -26.341797 -7.391602
v 12.221069 -13.288086 -7.391602
v 2.613892 -17.929688 -7.391602
v 10.087769 -11.419922 -7.391602
v -42.304810 0.000977 7.391602
v -12.221069 -26.341799 7.391602
v -12.221069 26.341797 7.391602
v 17.862915 0.000977 7.391602
v -27.396606 0.000977 7.391602
v -12.221069 -13.288085 7.391602
v 10.408936 6.526367 7.391602
v -12.221069 13.288087 7.391602
v -10.087646 11.419923 7.391602
v -2.613892 17.929686 7.391602
v -42.304810 0.000977 -7.391602
v -12.221069 -26.341797 -7.391602
v -12.221069 -13.288086 -7.391602
v -27.396606 0.000977 -7.391602
v 17.862915 0.000977 -7.391602
v 10.408936 6.526369 -7.391602
v -12.221069 26.341799 -7.391602
v -12.221069 13.288088 -7.391602
v -2.613892 17.929689 -7.391602
v -10.087646 11.419924 -7.391602
v 34.986328 -6.408204 7.391602
v 18.214233 -21.093750 7.391602
v 24.214600 -7.404297 7.391602
v 28.155640 -12.389648 1.724609
v 20.102173 19.441404 7.391602
v 5.547485 20.498045 7.391602
v 12.220825 18.388670 7.391602
v -37.753784 3.984375 7.391602
v -22.809326 17.069334 7.391602
v -24.251709 6.793945 7.391602
v -30.041870 10.737304 0.123047
v -7.700684 -9.330077 7.391602
v 4.935791 1.734375 7.391602
v 0.648682 -8.755858 7.391602
v -0.904053 -3.377930 -1.666992
vt 0.026058 0.511781
vt 0.026058 0.511781
vt 0.026058 0.511781
vt 0.026058 0.511781
vt 0.026058 0.511781
vt 0.026058 0.511781
vt 0.026058 0.511781
vt 0.026058 0.511781
vt 0.026058 0.511781
vt 0.026058 0.511781
vt 0.009277 0.508654
vt 0.009277 0.508654
vt 0.009277 0.508654
vt 0.009277 0.508654
vt 0.009277 0.508654
vt 0.009277 0.508654
vt 0.009277 0.508654
vt 0.009277 0.508654
vt 0.009277 0.508654
vt 0.009277 0.508654
vt 0.009277 0.508654
vt 0.009277 0.508654
vt 0.009277 0.508654
vt 0.009277 0.508655
vt 0.009277 0.508654
vt 0.009277 0.508654
vt 0.009277 0.508654
vt 0.009277 0.508654
vt 0.009277 0.508654
vt 0.009277 0.508654
vt 0.026058 0.511781
vt 0.026058 0.511781
vt 0.026058 0.511781
vt 0.026058 0.511781
vt 0.026058 0.511781
vt 0.026058 0.511781
vt 0.026058 0.511781
vt 0.026058 0.511781
vt 0.026058 0.511781
vt 0.026058 0.511781
vt 0.009277 0.508654
vt 0.009399 0.508654
vt 0.009399 0.508654
vt 0.009277 0.508654
vt 0.009277 0.508654
vt 0.009277 0.508654
vt 0.009277 0.508654
vt 0.009277 0.508654
vt 0.009277 0.508654
vt 0.009277 0.508654
vt 0.009277 0.508654
vt 0.009277 0.508654
vt 0.009277 0.508654
vt 0.009277 0.508654
vt 0.009277 0.508654
vt 0.009277 0.508654
vt 0.009277 0.508654
vt 0.009277 0.508654
vt 0.009399 0.508654
vt 0.009399 0.508655
vt 0.026058 0.511781
vt 0.026058 0.511781
vt 0.026058 0.511781
vt 0.026058 0.511781
vt 0.026058 0.511781
vt 0.026058 0.511781
vt 0.026058 0.511781
vt 0.009277 0.508654
vt 0.026058 0.511781
vt 0.009277 0.508654
vt 0.026058 0.511781
vt 0.009277 0.508654
vt 0.026058 0.511781
vt 0.009277 0.508654
vt 0.026058 0.511781
vt 0.026058 0.511781
vt 0.009277 0.508654
vt 0.026058 0.511781
vt 0.026058 0.511781
vt 0.009277 0.508654
vt 0.026058 0.511781
vt 0.009277 0.508654
vt 0.026058 0.511781
vt 0.026058 0.511781
vt 0.009277 0.508654
vt 0.009277 0.508655
vt 0.009277 0.508654
vt 0.009277 0.508654
vt 0.009277 0.508654
vn -0.092236 0.690532 0.717397
vn -0.092236 0.690532 0.717397
vn -0.092236 0.690532 0.717397
vn 0.214119 0.677400 0.703763
vn 0.214119 0.677400 0.703763
vn 0.214119 0.677400 0.703763
vn 0.000000 0.000000 1.000000
vn 0.000000 0.000000 1.000000
vn 0.000000 0.000000 1.000000
vn 0.000000 0.000000 1.000000
vn 0.000000 0.000000 1.000000
vn 0.000000 0.000000 1.000000
vn 0.000000 0.000000 1.000000
vn -0.000000 0.000000 1.000000
vn -0.000000 0.000000 1.000000
vn -0.000000 0.000000 1.000000
vn -0.000000 0.000000 1.000000
vn -0.658744 -0.752367 -0.000000
vn -0.658744 -0.752367 -0.000000
vn -0.658744 -0.752367 -0.000000
vn -0.658744 -0.752367 -0.000000
vn -0.658797 -0.752321 -0.000000
vn -0.658797 -0.752321 -0.000000
vn -0.658797 -0.752321 -0.000000
vn -0.658797 -0.752321 -0.000000
vn 0.658753 -0.752359 -0.000000
vn 0.658753 -0.752359 -0.000000
vn 0.658753 -0.752359 -0.000000
vn 0.658753 -0.752359 -0.000000
vn 0.658783 -0.752333 -0.000023
vn 0.658784 -0.752333 -0.000023
vn 0.658784 -0.752333 -0.000023
vn 0.658784 -0.752333 -0.000023
vn 0.658784 -0.752333 -0.000023
vn 0.658784 -0.752333 -0.000023
vn 0.658784 -0.752333 -0.000023
vn -0.658798 0.752320 -0.000000
vn -0.658798 0.752320 -0.000000
vn -0.658798 0.752319 -0.000000
vn -0.658798 0.752320 -0.000000
vn -0.656796 0.754069 0.000000
vn -0.656796 0.754069 0.000000
vn -0.656796 0.754069 0.000000
vn -0.656796 0.754069 0.000000
vn -0.658763 -0.752350 0.000000
vn -0.658763 -0.752350 0.000000
vn -0.658763 -0.752350 0.000000
vn -0.658763 -0.752350 0.000000
vn 0.658809 0.752310 -0.000000
vn 0.658809 0.752310 -0.000000
vn 0.658809 0.752310 -0.000000
vn 0.658809 0.752310 -0.000000
vn 0.000000 0.000000 1.000000
vn 0.000000 0.000000 1.000000
vn 0.000000 0.000000 1.000000
vn 0.000000 0.000000 1.000000
vn 0.000000 0.000000 1.000000
vn 0.000000 0.000000 1.000000
vn 0.000000 0.000000 1.000000
vn 0.000000 0.000000 1.000000
vn 0.000000 0.000000 1.000000
vn 0.000000 0.000000 1.000000
vn 0.000000 0.000000 1.000000
vn 0.000000 0.000000 1.000000
vn 0.000000 0.000000 1.000000
vn 0.000000 0.000000 1.000000
vn 0.000000 0.000000 1.000000
vn 0.000000 0.000000 1.000000
vn 0.000000 0.000000 1.000000
vn 0.000000 0.000000 1.000000
vn 0.000000 0.000000 1.000000
vn 0.000000 0.000000 1.000000
vn 0.000000 0.000000 1.000000
vn 0.000000 0.000000 1.000000
vn -0.658781 -0.752335 -0.000000
vn -0.658781 -0.752335 -0.000000
vn -0.658781 -0.752335 -0.000000
vn -0.658781 -0.752335 -0.000000
vn 0.658798 0.752320 -0.000000
vn 0.658798 0.752319 -0.000000
vn 0.658798 0.752320 -0.000000
vn 0.658798 0.752320 -0.000000
vn 0.658778 -0.752338 -0.000000
vn 0.658778 -0.752338 -0.000000
vn 0.658778 -0.752338 -0.000000
vn 0.658778 -0.752338 -0.000000
vn 0.658685 0.752419 0.000000
vn 0.658685 0.752419 0.000000
vn 0.658685 0.752419 0.000000
vn 0.658685 0.752419 0.000000
vn -0.658752 0.752360 -0.000024
vn -0.658752 0.752360 -0.000024
vn -0.658752 0.752360 -0.000024
vn -0.658752 0.752360 -0.000024
vn -0.658752 0.752360 -0.000024
vn -0.658752 0.752360 -0.000024
vn -0.658752 0.752360 -0.000024
vn -0.658754 0.752359 0.000056
vn -0.658754 0.752359 0.000056
vn -0.658754 0.752359 0.000056
vn -0.658754 0.752359 0.000056
vn -0.658754 0.752359 0.000056
vn -0.658754 0.752359 0.000056
vn -0.658754 0.752359 0.000056
vn 0.658744 -0.752367 -0.000000
vn 0.658744 -0.752367 -0.000000
vn 0.658744 -0.752367 -0.000000
vn 0.658744 -0.752367 -0.000000
vn 0.656802 -0.754063 -0.000000
vn 0.656802 -0.754063 -0.000000
vn 0.656802 -0.754063 -0.000000
vn 0.656802 -0.754063 -0.000000
vn 0.658763 0.752350 0.000000
vn 0.658763 0.752350 0.000000
vn 0.658763 0.752350 0.000000
vn 0.658763 0.752350 0.000000
vn -0.658788 -0.752329 -0.000000
vn -0.658788 -0.752329 -0.000000
vn -0.658788 -0.752329 -0.000000
vn -0.658788 -0.752329 -0.000000
vn 0.067092 -0.725527 0.684916
vn 0.067092 -0.725527 0.684916
vn 0.067092 -0.725526 0.684916
vn 0.658754 0.752359 -0.000005
vn 0.658754 0.752359 -0.000005
vn 0.658754 0.752359 -0.000005
vn 0.658754 0.752359 -0.000005
vn 0.658754 0.752359 -0.000005
vn -0.658748 0.752364 0.000014
vn -0.658748 0.752364 0.000014
vn -0.658748 0.752364 0.000014
vn -0.658748 0.752364 0.000014
vn -0.658748 0.752364 0.000014
vn 0.000000 0.000000 1.000000
vn 0.000000 0.000000 1.000000
vn 0.000000 0.000000 1.000000
vn 0.000000 0.000000 1.000000
vn 0.000000 0.000000 1.000000
vn 0.000000 0.000000 1.000000
vn 0.000000 0.000000 1.000000
vn 0.000000 0.000000 1.000000
vn 0.000000 0.000000 1.000000
vn 0.000000 0.000000 1.000000
vn -0.167409 0.804527 0.569834
vn -0.167409 0.804527 0.569834
vn -0.167409 0.804527 0.569834
vn -0.749234 0.105172 0.653901
vn -0.749234 0.105172 0.653901
vn -0.749234 0.105172 0.653901
vn 0.650839 -0.285276 0.703581
vn 0.650839 -0.285276 0.703581
vn 0.650839 -0.285276 0.703581
vn -0.864372 0.353248 0.357879
vn -0.864372 0.353248 0.357879
vn -0.864372 0.353248 0.357879
vn -0.058729 0.853945 0.517039
vn -0.058729 0.853945 0.517039
vn -0.058729 0.853945 0.517039
s off
f 47/71/1 45/67/2 2/2/3
f 2/2/4 46/69/5 47/71/6
f 3/7/7 42/64/8 43/65/9 41/62/10 1/1/11 5/4/12 8/8/13
f 9/9/14 10/10/15 3/7/16 8/8/17
f 6/11/18 13/12/19 14/13/20 5/14/21
f 4/15/22 15/16/23 16/17/24 7/18/25
f 7/18/26 16/17/27 13/12/28 6/11/29
f 3/19/30 17/20/31 11/21/32 1/22/33 41/23/34 44/24/35 42/25/36
f 5/14/37 14/13/38 18/26/39 8/27/40
f 9/28/41 20/29/42 19/30/43 10/41/44
f 10/41/45 19/30/46 17/20/47 3/19/48
f 8/27/49 18/26/50 20/29/51 9/28/52
f 21/31/53 22/32/54 26/33/55 25/34/56
f 22/32/57 24/35/58 27/36/59 53/83/60 54/84/61 52/81/62 26/33/63
f 23/37/64 49/75/65 50/76/66 48/73/67 21/31/68 25/34/69 28/38/70
f 29/39/71 30/40/72 23/37/73 28/38/74
f 21/42/75 31/43/76 32/44/77 22/45/78
f 26/46/79 33/47/80 34/48/81 25/49/82
f 22/45/83 32/44/84 35/50/85 24/51/86
f 24/51/87 35/50/88 36/52/89 27/53/90
f 27/53/91 36/52/92 33/47/93 26/46/94 52/54/95 55/55/96 53/56/97
f 23/57/98 37/58/99 31/43/100 21/42/101 48/59/102 51/60/103 49/68/104
f 25/49/105 34/48/106 38/70/107 28/72/108
f 29/74/109 40/77/110 39/80/111 30/82/112
f 30/82/113 39/80/114 37/58/115 23/57/116
f 28/72/117 38/70/118 40/77/119 29/74/120
f 43/79/121 44/66/122 41/61/123
f 1/22/124 11/21/125 12/85/126 2/86/127 45/87/128
f 46/88/129 2/86/130 12/85/131 15/16/132 4/15/133
f 47/71/134 46/69/135 4/5/136 7/6/137 6/3/138
f 1/1/139 45/67/140 47/71/141 6/3/142 5/4/143
f 48/73/144 50/76/145 51/78/146
f 51/78/147 50/76/148 49/75/149
f 42/63/150 44/66/151 43/79/152
f 55/55/153 54/89/154 53/56/155
f 52/54/156 54/89/157 55/55/158
