# This file uses centimeters as units for non-parametric coordinates.

v 17.996826 -29.115234 7.391602
v 28.588257 -29.115234 7.391602
v 1.816406 -0.803711 7.391602
v -3.044922 -6.155273 7.391602
v 17.996826 29.115234 7.391602
v -16.942505 -9.810548 7.391602
v -16.942505 -0.286133 7.391602
v -28.587158 -0.286133 7.391602
v -16.942505 8.321289 7.391602
v -28.588257 -29.115234 7.391602
v -16.942505 -21.457031 7.391602
v -16.942505 21.217773 7.391602
v -28.587158 29.112305 7.391602
v -4.875488 21.216797 7.391602
v 10.918945 29.111326 1.148438
v -16.941528 -29.115234 7.391602
v 17.996826 17.011719 7.391602
v 17.996826 -29.115234 -7.391602
v 28.588257 -29.115234 -7.391602
v 1.816406 -0.803711 -7.391602
v -3.044922 -6.155273 -7.391602
v 17.996826 29.115236 -7.391602
v -16.942505 -9.810547 -7.391602
v -16.942505 -0.286133 -7.391602
v -28.587158 -0.286133 -7.391602
v -16.942505 8.321291 -7.391602
v -28.588257 -29.115234 -7.391602
v -16.942505 -21.457031 -7.391602
v -16.942505 21.217775 -7.391602
v -28.587158 29.112307 -7.391602
v -4.875488 21.216799 -7.391602
v 10.918945 29.111330 -7.391602
v -16.941528 -29.115234 -7.391602
v 17.996826 17.011721 -7.391602
v -28.587158 26.188477 7.391602
v -28.587158 5.995117 7.391602
v -22.614380 11.447266 7.391602
v -28.587158 17.724609 2.700195
v 12.646362 -23.276367 7.391602
v -0.151855 -9.311524 7.391602
v 9.897949 -13.392579 7.391602
v 5.509399 -15.488281 0.359375
v 4.933105 22.795898 7.391602
v 4.479736 29.112305 7.391602
v 3.978516 25.642578 7.391602
vt 0.026058 0.511781
vt 0.026058 0.511781
vt 0.026058 0.511781
vt 0.026058 0.511781
vt 0.026058 0.511781
vt 0.026058 0.511781
vt 0.026058 0.511781
vt 0.026058 0.511781
vt 0.026058 0.511781
vt 0.026058 0.511781
vt 0.026058 0.511781
vt 0.026058 0.511781
vt 0.026058 0.511781
vt 0.026058 0.511781
vt 0.026058 0.511781
vt 0.026058 0.511781
vt 0.026058 0.511781
vt 0.026058 0.511781
vt 0.026058 0.511781
vt 0.026058 0.511781
vt 0.026058 0.511781
vt 0.026058 0.511781
vt 0.026058 0.511781
vt 0.026058 0.511781
vt 0.026058 0.511781
vt 0.026058 0.511781
vt 0.026058 0.511781
vt 0.026058 0.511781
vt 0.026058 0.511781
vt 0.026058 0.511781
vt 0.026058 0.511781
vt 0.026058 0.511781
vt 0.026058 0.511781
vt 0.026058 0.511781
vt 0.026058 0.511781
vt 0.026058 0.511781
vt 0.026058 0.511781
vt 0.026058 0.511781
vt 0.026058 0.511781
vt 0.026058 0.511781
vt 0.026058 0.511781
vt 0.009399 0.508655
vt 0.009399 0.508656
vt 0.009399 0.508656
vt 0.009399 0.508655
vt 0.009399 0.508656
vt 0.009399 0.508655
vt 0.009399 0.508655
vt 0.009399 0.508656
vt 0.009399 0.508655
vt 0.009399 0.508654
vt 0.009399 0.508655
vt 0.009399 0.508655
vt 0.009399 0.508656
vt 0.009399 0.508656
vt 0.009399 0.508655
vt 0.009399 0.508656
vt 0.009399 0.508655
vt 0.009399 0.508655
vt 0.009399 0.508656
vt 0.009399 0.508656
vt 0.009399 0.508655
vt 0.009399 0.508655
vt 0.009399 0.508656
vt 0.009399 0.508655
vt 0.009399 0.508655
vt 0.009399 0.508655
vt 0.009399 0.508655
vt 0.009399 0.508656
vt 0.009399 0.508656
vt 0.009399 0.508655
vt 0.009399 0.508654
vt 0.009399 0.508656
vt 0.009399 0.508655
vt 0.009399 0.508656
vt 0.009399 0.508655
vt 0.009399 0.508656
vt 0.009399 0.508655
vt 0.009399 0.508656
vt 0.009399 0.508655
vt 0.009399 0.508655
vt 0.009399 0.508656
vt 0.009399 0.508655
vt 0.009399 0.508655
vt 0.009399 0.508655
vt 0.026058 0.511781
vn -0.000000 0.000000 1.000000
vn -0.000000 0.000000 1.000000
vn -0.000000 0.000000 1.000000
vn -0.000000 0.000000 1.000000
vn -0.000000 0.000000 1.000000
vn -0.000000 0.000000 1.000000
vn -0.000000 0.000000 1.000000
vn 0.000000 0.000000 1.000000
vn 0.000000 0.000000 1.000000
vn 0.000000 0.000000 1.000000
vn 0.000000 0.000000 1.000000
vn 0.000000 0.000000 1.000000
vn 0.000000 0.000000 1.000000
vn 0.000000 0.000000 1.000000
vn 0.000000 0.000000 1.000000
vn 0.000000 0.000000 1.000000
vn 0.000000 0.000000 1.000000
vn 0.000000 0.000000 1.000000
vn 0.000000 0.000000 1.000000
vn 0.000000 0.000000 1.000000
vn 0.000000 0.000000 1.000000
vn -0.000000 0.000000 1.000000
vn -0.000000 0.000000 1.000000
vn -0.000000 0.000000 1.000000
vn -0.000000 0.000000 1.000000
vn -0.000000 0.000000 1.000000
vn -0.000000 0.000000 1.000000
vn -0.000000 0.000000 1.000000
vn 0.000000 0.000000 1.000000
vn 0.000000 0.000000 1.000000
vn 0.000000 0.000000 1.000000
vn 0.000000 0.000000 1.000000
vn 0.000000 0.000000 1.000000
vn 0.000000 0.000000 1.000000
vn 0.000000 0.000000 1.000000
vn 0.000000 0.000000 1.000000
vn 0.000000 0.000000 1.000000
vn 0.000000 0.000000 1.000000
vn 0.000000 0.000000 1.000000
vn 0.000000 0.000000 1.000000
vn 0.000000 0.000000 1.000000
vn 0.000000 0.000000 1.000000
vn 0.000000 0.000000 1.000000
vn 0.000000 0.000000 1.000000
vn 0.000000 0.000000 1.000000
vn 0.000000 0.000000 1.000000
vn 0.000000 0.000000 1.000000
vn 0.000000 -1.000000 0.000000
vn 0.000000 -1.000000 0.000000
vn 0.000000 -1.000000 0.000000
vn 0.000000 -1.000000 0.000000
vn 0.726588 0.687074 0.000000
vn 0.726588 0.687074 0.000000
vn 0.726588 0.687074 0.000000
vn 0.726588 0.687074 0.000000
vn -0.737233 -0.675639 0.000035
vn -0.737233 -0.675639 0.000035
vn -0.737233 -0.675639 0.000035
vn -0.737233 -0.675639 0.000035
vn -0.737233 -0.675639 0.000035
vn -0.737233 -0.675639 0.000035
vn -0.737233 -0.675639 0.000035
vn -0.744186 0.667973 0.000000
vn -0.744186 0.667973 0.000000
vn -0.744186 0.667973 0.000000
vn -0.744186 0.667973 0.000000
vn 1.000000 0.000000 0.000000
vn 1.000000 0.000000 0.000000
vn 1.000000 0.000000 0.000000
vn 1.000000 0.000000 0.000000
vn -1.000000 0.000038 0.000000
vn -1.000000 0.000038 0.000000
vn -1.000000 0.000038 0.000000
vn -1.000000 0.000038 0.000000
vn -1.000000 0.000000 0.000000
vn -1.000000 0.000000 0.000000
vn -1.000000 0.000000 0.000000
vn -1.000000 0.000000 0.000000
vn -1.000000 0.000000 0.000000
vn -1.000000 0.000000 0.000000
vn -1.000000 0.000000 0.000000
vn 1.000000 0.000000 0.000000
vn 1.000000 0.000000 0.000000
vn 1.000000 0.000000 0.000000
vn 1.000000 0.000000 0.000000
vn 0.000020 1.000000 -0.000029
vn 0.000020 1.000000 -0.000029
vn 0.000020 1.000000 -0.000029
vn 0.000020 1.000000 -0.000029
vn 0.000020 1.000000 -0.000029
vn -0.000081 -1.000000 -0.000000
vn -0.000081 -1.000000 -0.000000
vn -0.000081 -1.000000 -0.000000
vn -0.000081 -1.000000 -0.000000
vn 0.000000 -1.000000 0.000000
vn 0.000000 -1.000000 0.000000
vn 0.000000 -1.000000 0.000000
vn 0.000000 -1.000000 0.000000
vn 1.000000 0.000128 0.000000
vn 1.000000 0.000128 0.000000
vn 1.000000 0.000128 0.000000
vn 1.000000 0.000128 0.000000
vn 0.740256 -0.672326 0.000000
vn 0.740256 -0.672326 0.000000
vn 0.740256 -0.672326 0.000000
vn 0.740256 -0.672326 0.000000
vn 1.000000 0.000000 0.000000
vn 1.000000 0.000000 0.000000
vn 1.000000 0.000000 0.000000
vn 1.000000 0.000000 0.000000
vn 0.740259 -0.672322 -0.000000
vn 0.740259 -0.672322 -0.000000
vn 0.740259 -0.672322 -0.000000
vn 0.740259 -0.672322 -0.000000
vn -0.730173 0.683262 0.000000
vn -0.730173 0.683262 0.000000
vn -0.730173 0.683262 0.000000
vn -0.730173 0.683262 0.000000
vn 0.725815 -0.687890 0.000010
vn 0.725815 -0.687890 0.000010
vn 0.725815 -0.687890 0.000010
vn 0.725815 -0.687890 0.000010
vn 0.725815 -0.687890 0.000010
vn -0.767302 -0.310892 0.560887
vn -0.767302 -0.310892 0.560887
vn -0.767302 -0.310892 0.560887
vn -0.321048 0.351705 0.879336
vn -0.321048 0.351705 0.879336
vn -0.321048 0.351705 0.879336
vn -0.796294 -0.221428 0.562926
vn -0.796294 -0.221428 0.562926
vn -0.796294 -0.221428 0.562926
vn -0.335047 -0.825071 0.454973
vn -0.335047 -0.825071 0.454973
vn -0.335047 -0.825071 0.454973
vn 0.692592 -0.100049 0.714357
vn 0.692592 -0.100049 0.714357
vn 0.692592 -0.100049 0.714357
vn 0.597908 0.200499 0.776083
vn 0.597908 0.200499 0.776084
vn 0.597908 0.200499 0.776084
s off
f 1/1/1 2/2/2 3/3/3 4/4/4 40/5/5 41/6/6 39/7/7
f 3/8/8 5/9/9 6/10/10 4/11/11
f 7/12/12 8/13/13 6/14/14
f 9/15/15 8/16/16 7/17/17
f 6/18/18 8/19/19 10/20/20 11/21/21
f 12/22/22 13/23/23 35/24/24 37/25/25 36/26/26 8/27/27 9/28/28
f 14/29/29 45/30/30 44/31/31 13/32/32 12/33/33
f 11/21/34 10/20/35 16/34/36
f 4/11/37 6/10/38 11/35/39
f 17/36/40 5/9/41 3/8/42
f 45/37/43 14/38/44 9/39/45 7/40/46 43/41/47
f 1/42/48 18/43/49 19/44/50 2/45/51
f 2/45/52 19/44/53 20/46/54 3/47/55
f 4/48/56 21/49/57 18/43/58 1/42/59 39/50/60 42/51/61 40/52/62
f 5/53/63 22/54/64 23/55/65 6/56/66
f 6/56/67 23/55/68 24/57/69 7/58/70
f 8/59/71 25/60/72 27/61/73 10/62/74
f 13/63/75 30/64/76 25/60/77 8/59/78 36/65/79 38/66/80 35/67/81
f 9/68/82 26/69/83 29/70/84 12/71/85
f 15/72/86 32/73/87 30/64/88 13/63/89 44/74/90
f 12/71/91 29/70/92 31/75/93 14/76/94
f 10/62/95 27/61/96 33/77/97 16/78/98
f 16/78/99 33/77/100 28/79/101 11/80/102
f 11/80/103 28/79/104 21/49/105 4/48/106
f 17/81/107 34/82/108 22/54/109 5/53/110
f 3/47/111 20/46/112 34/82/113 17/81/114
f 14/76/115 31/75/116 26/69/117 9/68/118
f 7/58/119 24/57/120 32/73/121 15/72/122 43/83/123
f 35/24/124 38/86/125 37/25/126
f 38/86/127 36/26/128 37/25/129
f 42/51/130 39/50/131 41/84/132
f 40/52/133 42/51/134 41/84/135
f 45/85/136 15/72/137 44/74/138
f 15/72/139 45/85/140 43/83/141
