# This file uses centimeters as units for non-parametric coordinates.

v 0.000000 20.219727 7.391602
v -20.219482 -0.000000 7.391602
v 0.000000 6.739258 7.391602
v -6.740234 -0.000000 7.391602
v 20.219482 -0.000000 7.391602
v 6.739746 -0.000000 7.391602
v 0.000000 -6.739258 7.391602
v 0.000000 -20.219727 7.391602
v 0.000000 20.219725 -7.391602
v -20.219482 0.000000 -7.391602
v 0.000000 6.739256 -7.391602
v -6.740234 0.000000 -7.391602
v 6.739746 0.000000 -7.391602
v 20.219482 0.000000 -7.391602
v 0.000000 -20.219727 -7.391602
v 0.000000 -6.739258 -7.391602
vt 0.026058 0.511781
vt 0.026058 0.511781
vt 0.026058 0.511781
vt 0.026058 0.511781
vt 0.026058 0.511781
vt 0.026058 0.511781
vt 0.026058 0.511781
vt 0.026058 0.511781
vt 0.009277 0.508654
vt 0.009277 0.508654
vt 0.009277 0.508654
vt 0.009277 0.508654
vt 0.009277 0.508654
vt 0.009277 0.508654
vt 0.009277 0.508654
vt 0.009277 0.508654
vt 0.009277 0.508654
vt 0.009277 0.508654
vt 0.009277 0.508654
vt 0.009277 0.508654
vt 0.009277 0.508654
vt 0.009277 0.508654
vt 0.009277 0.508654
vt 0.009277 0.508654
vn 0.000000 0.000000 1.000000
vn 0.000000 0.000000 1.000000
vn 0.000000 0.000000 1.000000
vn 0.000000 0.000000 1.000000
vn 0.000000 0.000000 1.000000
vn 0.000000 0.000000 1.000000
vn 0.000000 0.000000 1.000000
vn 0.000000 0.000000 1.000000
vn 0.000000 0.000000 1.000000
vn 0.000000 0.000000 1.000000
vn -0.000000 0.000000 1.000000
vn -0.000000 0.000000 1.000000
vn -0.000000 0.000000 1.000000
vn -0.000000 0.000000 1.000000
vn 0.000000 0.000000 1.000000
vn 0.000000 0.000000 1.000000
vn 0.000000 0.000000 1.000000
vn 0.000000 0.000000 1.000000
vn 0.000000 0.000000 1.000000
vn 0.000000 0.000000 1.000000
vn -0.707111 0.707103 -0.000000
vn -0.707111 0.707103 -0.000000
vn -0.707111 0.707103 -0.000000
vn -0.707111 0.707103 -0.000000
vn 0.707056 -0.707158 0.000000
vn 0.707056 -0.707158 0.000000
vn 0.707056 -0.707158 0.000000
vn 0.707056 -0.707158 0.000000
vn -0.707081 -0.707132 0.000000
vn -0.707081 -0.707132 0.000000
vn -0.707081 -0.707132 0.000000
vn -0.707081 -0.707132 0.000000
vn 0.707111 0.707103 -0.000000
vn 0.707111 0.707103 -0.000000
vn 0.707111 0.707103 -0.000000
vn 0.707111 0.707103 -0.000000
vn -0.707111 -0.707103 0.000000
vn -0.707111 -0.707103 0.000000
vn -0.707111 -0.707103 0.000000
vn -0.707111 -0.707103 0.000000
vn 0.707056 0.707158 0.000000
vn 0.707056 0.707158 0.000000
vn 0.707056 0.707158 0.000000
vn 0.707056 0.707158 0.000000
vn -0.707081 0.707132 0.000000
vn -0.707081 0.707132 0.000000
vn -0.707081 0.707132 0.000000
vn -0.707081 0.707132 0.000000
vn 0.707111 -0.707103 0.000000
vn 0.707111 -0.707103 0.000000
vn 0.707111 -0.707103 0.000000
vn 0.707111 -0.707103 0.000000
s off
f 1/1/1 2/2/2 3/3/3
f 2/2/4 4/4/5 3/3/6
f 1/1/7 3/3/8 6/5/9 5/6/10
f 4/4/11 2/2/12 8/7/13 7/8/14
f 6/5/15 7/8/16 5/6/17
f 7/8/18 8/7/19 5/6/20
f 1/9/21 9/10/22 10/11/23 2/12/24
f 4/13/25 12/14/26 11/15/27 3/16/28
f 3/16/29 11/15/30 13/17/31 6/18/32
f 5/19/33 14/20/34 9/10/35 1/9/36
f 2/12/37 10/11/38 15/21/39 8/22/40
f 7/23/41 16/24/42 12/14/43 4/13/44
f 6/18/45 13/17/46 16/24/47 7/23/48
f 8/22/49 15/21/50 14/20/51 5/19/52
