# This file uses centimeters as units for non-parametric coordinates.

v 6.739746 -0.000000 7.391602
v 26.959229 20.219727 7.391602
v 33.698975 13.480469 7.391602
v 1.596924 -5.143555 7.391602
v 8.336670 -11.882813 7.391602
v 1.596924 -5.143555 -7.391602
v 8.336670 -11.882813 -7.391602
v 6.739746 0.000000 -7.391602
v 26.959229 20.219725 -7.391602
v 33.698975 13.480467 -7.391602
v 20.218994 26.958984 7.391602
v 13.479492 33.700195 7.391602
v 8.812988 15.553711 7.391602
v 2.073242 22.292969 7.391602
v 2.073242 22.292967 -7.391602
v 20.218994 26.958982 -7.391602
v 13.479492 33.700195 -7.391602
v 8.812988 15.553709 -7.391602
v 26.959229 -20.219727 7.391602
v 33.698975 -13.478516 7.391602
v 21.903320 -1.683594 7.391602
v 15.163574 -8.423828 7.391602
v 15.163574 -8.423828 -7.391602
v 26.959229 -20.219727 -7.391602
v 33.698975 -13.478516 -7.391602
v 21.903320 -1.683594 -7.391602
v -20.219482 26.958984 7.391602
v -13.479980 33.700195 7.391602
v 11.629150 8.590820 7.391602
v 4.888916 1.850586 7.391602
v -20.219482 26.958982 -7.391602
v 11.629150 8.590818 -7.391602
v -13.479980 33.700195 -7.391602
v 4.888916 1.850586 -7.391602
v 13.479492 -33.698242 7.391602
v 20.218994 -26.958982 7.391602
v -5.106934 -1.632813 7.391602
v -11.846924 -8.373047 7.391602
v -11.846924 -8.373047 -7.391602
v 20.218994 -26.958984 -7.391602
v -5.106934 -1.632813 -7.391602
v 13.479492 -33.698242 -7.391602
v -20.219482 -26.958982 7.391602
v -13.479980 -33.698242 7.391602
v -8.342529 -15.082031 7.391602
v -1.602783 -21.822266 7.391602
v -20.219482 -26.958984 -7.391602
v -13.479980 -33.698242 -7.391602
v -1.602783 -21.822266 -7.391602
v -8.342529 -15.082031 -7.391602
v -33.698975 -13.478516 7.391602
v -26.959473 -20.219727 7.391602
v -8.730469 11.489259 -0.531250
v -1.990479 4.750977 7.391602
v -33.698975 -13.478516 -7.391602
v -26.959473 -20.219727 -7.391602
v -1.990479 4.750975 -7.391602
v -8.730469 11.489256 -7.391602
v -33.698975 13.480469 7.391602
v -21.800049 1.581055 7.391602
v -26.959473 20.219727 7.391602
v -15.060303 8.320313 7.391602
v -33.698975 13.480467 -7.391602
v -21.800049 1.581055 -7.391602
v -15.060303 8.320311 -7.391602
v -26.959473 20.219725 -7.391602
v 18.716309 -1.501953 7.391602
v 31.092529 10.873047 7.391602
v 24.344971 10.635742 7.391602
v 24.895752 4.676758 1.688477
v -4.136230 6.895508 7.391602
v -13.224854 6.995117 7.391602
v 2.041992 -22.260742 7.391602
v 12.015137 -32.234375 7.391602
v 11.615479 -25.833982 7.391602
v 6.227295 -26.446287 3.047852
vt 0.026058 0.511781
vt 0.026058 0.511781
vt 0.026058 0.511781
vt 0.026058 0.511781
vt 0.026058 0.511781
vt 0.009277 0.508654
vt 0.009277 0.508654
vt 0.009277 0.508654
vt 0.009277 0.508654
vt 0.009277 0.508654
vt 0.009277 0.508654
vt 0.009277 0.508654
vt 0.009277 0.508654
vt 0.009277 0.508654
vt 0.009277 0.508654
vt 0.009277 0.508654
vt 0.009277 0.508655
vt 0.009277 0.508654
vt 0.009277 0.508654
vt 0.026058 0.511781
vt 0.026058 0.511781
vt 0.026058 0.511781
vt 0.026058 0.511781
vt 0.009277 0.508654
vt 0.009277 0.508654
vt 0.009277 0.508654
vt 0.009277 0.508654
vt 0.009277 0.508654
vt 0.009277 0.508654
vt 0.009277 0.508654
vt 0.009277 0.508654
vt 0.009277 0.508654
vt 0.009277 0.508654
vt 0.009277 0.508654
vt 0.009277 0.508654
vt 0.026058 0.511781
vt 0.026058 0.511781
vt 0.026058 0.511781
vt 0.026058 0.511781
vt 0.009277 0.508654
vt 0.009277 0.508654
vt 0.009277 0.508654
vt 0.009277 0.508654
vt 0.009277 0.508654
vt 0.009277 0.508654
vt 0.009277 0.508654
vt 0.009277 0.508654
vt 0.009277 0.508654
vt 0.009277 0.508654
vt 0.009277 0.508654
vt 0.009277 0.508654
vt 0.026058 0.511781
vt 0.026058 0.511781
vt 0.026058 0.511781
vt 0.026058 0.511781
vt 0.009277 0.508654
vt 0.009277 0.508654
vt 0.009277 0.508654
vt 0.009277 0.508654
vt 0.009277 0.508654
vt 0.009277 0.508654
vt 0.009277 0.508654
vt 0.009277 0.508654
vt 0.026058 0.511781
vt 0.026058 0.511781
vt 0.026058 0.511781
vt 0.026058 0.511781
vt 0.009277 0.508655
vt 0.009277 0.508654
vt 0.009277 0.508654
vt 0.009277 0.508654
vt 0.009277 0.508654
vt 0.009277 0.508654
vt 0.009277 0.508654
vt 0.009277 0.508654
vt 0.026058 0.511781
vt 0.026058 0.511781
vt 0.026058 0.511781
vt 0.026058 0.511781
vt 0.009277 0.508654
vt 0.009277 0.508654
vt 0.009277 0.508654
vt 0.009277 0.508654
vt 0.009277 0.508654
vt 0.009277 0.508654
vt 0.009277 0.508654
vt 0.009277 0.508654
vt 0.026058 0.511781
vt 0.026058 0.511781
vt 0.026058 0.511781
vt 0.026058 0.511781
vt 0.009277 0.508654
vt 0.009277 0.508654
vt 0.009277 0.508654
vt 0.009277 0.508654
vt 0.009277 0.508654
vt 0.009277 0.508654
vt 0.009277 0.508654
vt 0.009277 0.508654
vt 0.026058 0.511781
vt 0.026058 0.511781
vt 0.026058 0.511781
vt 0.026058 0.511781
vt 0.009277 0.508654
vt 0.009277 0.508655
vt 0.009277 0.508654
vt 0.009277 0.508654
vt 0.026058 0.511781
vt 0.026058 0.511781
vt 0.026058 0.511781
vt 0.026058 0.511781
vt 0.026058 0.511781
vt 0.026058 0.511781
vt 0.026058 0.511781
vt 0.026058 0.511781
vt 0.026058 0.511781
vt 0.026058 0.511781
vn 0.000000 0.000000 1.000000
vn 0.000000 0.000000 1.000000
vn 0.000000 0.000000 1.000000
vn -0.000000 0.000000 1.000000
vn -0.000000 0.000000 1.000000
vn -0.000000 0.000000 1.000000
vn 0.000000 0.000000 1.000000
vn 0.000000 0.000000 1.000000
vn 0.000000 0.000000 1.000000
vn 0.000000 0.000000 1.000000
vn 0.000000 0.000000 1.000000
vn 0.000000 0.000000 1.000000
vn -0.707081 -0.707132 0.000000
vn -0.707081 -0.707132 0.000000
vn -0.707081 -0.707132 0.000000
vn -0.707081 -0.707132 0.000000
vn -0.707157 0.707056 0.000000
vn -0.707157 0.707056 0.000000
vn -0.707157 0.707056 0.000000
vn -0.707157 0.707056 0.000000
vn -0.707111 0.707103 -0.000000
vn -0.707111 0.707103 -0.000000
vn -0.707111 0.707103 -0.000000
vn -0.707111 0.707103 -0.000000
vn 0.707125 -0.707088 0.000004
vn 0.707125 -0.707088 0.000004
vn 0.707125 -0.707088 0.000004
vn 0.707125 -0.707088 0.000004
vn 0.707125 -0.707088 0.000004
vn 0.707125 -0.707088 0.000004
vn 0.707125 -0.707088 0.000004
vn 0.707081 0.707132 -0.000000
vn 0.707081 0.707132 -0.000000
vn 0.707081 0.707132 -0.000000
vn 0.707081 0.707132 -0.000000
vn 0.000000 0.000000 1.000000
vn 0.000000 0.000000 1.000000
vn 0.000000 0.000000 1.000000
vn -0.000000 0.000000 1.000000
vn -0.000000 0.000000 1.000000
vn -0.000000 0.000000 1.000000
vn 0.707196 0.707017 0.000000
vn 0.707196 0.707017 0.000000
vn 0.707196 0.707017 0.000000
vn 0.707196 0.707017 0.000000
vn -0.707137 0.707076 0.000000
vn -0.707137 0.707076 0.000000
vn -0.707137 0.707076 0.000000
vn -0.707137 0.707076 0.000000
vn -0.707081 -0.707132 0.000000
vn -0.707081 -0.707132 0.000000
vn -0.707081 -0.707132 0.000000
vn -0.707081 -0.707132 0.000000
vn 0.707084 -0.707129 0.000000
vn 0.707084 -0.707129 0.000000
vn 0.707084 -0.707129 0.000000
vn 0.707084 -0.707129 0.000000
vn 0.000000 0.000000 1.000000
vn 0.000000 0.000000 1.000000
vn 0.000000 0.000000 1.000000
vn 0.000000 0.000000 1.000000
vn -0.707114 -0.707099 0.000000
vn -0.707114 -0.707099 0.000000
vn -0.707114 -0.707099 0.000000
vn -0.707114 -0.707099 0.000000
vn 0.707184 -0.707030 0.000000
vn 0.707184 -0.707030 0.000000
vn 0.707184 -0.707030 0.000000
vn 0.707184 -0.707030 0.000000
vn 0.707085 0.707129 0.000000
vn 0.707085 0.707129 0.000000
vn 0.707085 0.707129 0.000000
vn 0.707085 0.707129 0.000000
vn -0.707132 0.707081 0.000000
vn -0.707132 0.707081 0.000000
vn -0.707132 0.707081 0.000000
vn -0.707132 0.707081 0.000000
vn 0.000000 0.000000 1.000000
vn 0.000000 0.000000 1.000000
vn 0.000000 0.000000 1.000000
vn -0.000000 0.000000 1.000000
vn -0.000000 0.000000 1.000000
vn -0.000000 0.000000 1.000000
vn 0.707110 0.707103 0.000000
vn 0.707110 0.707103 0.000000
vn 0.707110 0.707103 0.000000
vn 0.707110 0.707103 0.000000
vn -0.707196 0.707017 0.000000
vn -0.707196 0.707017 0.000000
vn -0.707196 0.707017 0.000000
vn -0.707196 0.707017 0.000000
vn -0.707107 -0.707107 0.000000
vn -0.707107 -0.707107 0.000000
vn -0.707107 -0.707107 0.000000
vn -0.707107 -0.707107 0.000000
vn 0.707107 -0.707107 0.000000
vn 0.707107 -0.707107 0.000000
vn 0.707107 -0.707107 0.000000
vn 0.707107 -0.707107 0.000000
vn 0.000000 0.000000 1.000000
vn 0.000000 0.000000 1.000000
vn 0.000000 0.000000 1.000000
vn 0.000000 0.000000 1.000000
vn 0.000000 0.000000 1.000000
vn 0.000000 0.000000 1.000000
vn 0.000000 0.000000 1.000000
vn 0.000000 0.000000 1.000000
vn 0.000000 0.000000 1.000000
vn 0.707110 0.707103 -0.000000
vn 0.707110 0.707103 -0.000000
vn 0.707110 0.707103 -0.000000
vn 0.707110 0.707103 -0.000000
vn -0.707120 0.707094 0.000000
vn -0.707120 0.707094 0.000000
vn -0.707120 0.707094 0.000000
vn -0.707120 0.707094 0.000000
vn -0.707088 -0.707126 0.000008
vn -0.707088 -0.707126 0.000008
vn -0.707088 -0.707126 0.000008
vn -0.707088 -0.707126 0.000008
vn -0.707088 -0.707126 0.000008
vn -0.707088 -0.707126 0.000008
vn -0.707088 -0.707126 0.000008
vn 0.707094 -0.707120 0.000000
vn 0.707094 -0.707120 0.000000
vn 0.707094 -0.707120 0.000000
vn 0.707094 -0.707120 0.000000
vn 0.000000 0.000000 1.000000
vn 0.000000 0.000000 1.000000
vn 0.000000 0.000000 1.000000
vn 0.000000 0.000000 1.000000
vn -0.707094 -0.707120 0.000000
vn -0.707094 -0.707120 0.000000
vn -0.707094 -0.707120 0.000000
vn -0.707094 -0.707120 0.000000
vn 0.707070 -0.707143 0.000000
vn 0.707070 -0.707143 0.000000
vn 0.707070 -0.707143 0.000000
vn 0.707070 -0.707143 0.000000
vn 0.707132 0.707081 0.000000
vn 0.707132 0.707081 0.000000
vn 0.707132 0.707081 0.000000
vn 0.707132 0.707081 0.000000
vn -0.707107 0.707107 0.000000
vn -0.707107 0.707107 0.000000
vn -0.707107 0.707107 0.000000
vn -0.707107 0.707107 0.000000
vn 0.009507 0.867446 0.497441
vn 0.009507 0.867446 0.497441
vn 0.009507 0.867446 0.497441
vn -0.707196 -0.707017 0.000000
vn -0.707196 -0.707017 0.000000
vn -0.707196 -0.707017 0.000000
vn -0.707196 -0.707017 0.000000
vn 0.707131 -0.707083 0.000000
vn 0.707131 -0.707083 0.000000
vn 0.707131 -0.707083 0.000000
vn 0.707131 -0.707083 0.000000
vn 0.000000 0.000000 1.000000
vn 0.000000 0.000000 1.000000
vn 0.000000 0.000000 1.000000
vn 0.000000 0.000000 1.000000
vn -0.707121 -0.707092 0.000000
vn -0.707121 -0.707092 0.000000
vn -0.707121 -0.707092 0.000000
vn -0.707121 -0.707092 0.000000
vn 0.707081 -0.707132 0.000000
vn 0.707081 -0.707132 0.000000
vn 0.707081 -0.707132 0.000000
vn 0.707081 -0.707132 0.000000
vn 0.707114 0.707100 -0.000000
vn 0.707114 0.707100 -0.000000
vn 0.707114 0.707100 -0.000000
vn 0.707114 0.707100 -0.000000
vn -0.707094 0.707120 -0.000000
vn -0.707094 0.707120 -0.000000
vn -0.707094 0.707120 -0.000000
vn -0.707094 0.707120 -0.000000
vn 0.802510 -0.372151 0.466350
vn 0.802510 -0.372151 0.466350
vn 0.802510 -0.372151 0.466350
vn 0.024268 -0.690052 0.723353
vn 0.024268 -0.690052 0.723353
vn 0.024268 -0.690052 0.723353
vn 0.707006 0.707208 0.000020
vn 0.707006 0.707208 0.000020
vn 0.707006 0.707208 0.000020
vn 0.707006 0.707208 0.000020
vn 0.707006 0.707208 0.000020
vn -0.707097 0.707117 -0.000003
vn -0.707097 0.707117 -0.000003
vn -0.707097 0.707117 -0.000003
vn -0.707097 0.707117 -0.000003
vn -0.707097 0.707117 -0.000003
vn 0.000000 0.000000 1.000000
vn 0.000000 0.000000 1.000000
vn 0.000000 0.000000 1.000000
vn 0.000000 0.000000 1.000000
vn 0.000000 0.000000 1.000000
vn -0.304340 -0.815392 0.492456
vn -0.304340 -0.815392 0.492456
vn -0.304340 -0.815392 0.492456
vn -0.624449 -0.038992 0.780092
vn -0.624449 -0.038992 0.780092
vn -0.624449 -0.038992 0.780092
s off
f 4/1/1 5/2/2 1/3/3
f 1/3/4 5/2/5 2/4/6
f 2/4/7 5/2/8 67/112/9 69/116/10 68/114/11 3/5/12
f 4/6/13 6/7/14 7/8/15 5/9/16
f 1/10/17 8/11/18 6/7/19 4/6/20
f 2/12/21 9/13/22 8/11/23 1/10/24
f 5/9/25 7/8/26 10/14/27 3/15/28 68/16/29 70/17/30 67/18/31
f 3/15/32 10/14/33 9/13/34 2/12/35
f 14/20/36 11/21/37 12/22/38
f 14/20/39 13/23/40 11/21/41
f 11/19/42 16/24/43 17/25/44 12/26/45
f 12/26/46 17/25/47 15/27/48 14/28/49
f 14/28/50 15/27/51 18/29/52 13/30/53
f 13/30/54 18/29/55 16/24/56 11/19/57
f 22/36/58 19/37/59 20/38/60 21/39/61
f 22/31/62 23/32/63 24/33/64 19/34/65
f 19/34/66 24/33/67 25/35/68 20/40/69
f 20/40/70 25/35/71 26/41/72 21/42/73
f 21/42/74 26/41/75 23/32/76 22/31/77
f 27/52/78 29/53/79 28/54/80
f 27/52/81 30/55/82 29/53/83
f 29/43/84 32/44/85 33/45/86 28/46/87
f 28/46/88 33/45/89 31/47/90 27/48/91
f 27/48/92 31/47/93 34/49/94 30/50/95
f 30/50/96 34/49/97 32/44/98 29/43/99
f 38/64/100 36/65/101 37/66/102
f 38/64/103 73/111/104 75/109/105 74/110/106 35/67/107 36/65/108
f 36/51/109 40/56/110 41/57/111 37/58/112
f 37/58/113 41/57/114 39/59/115 38/60/116
f 38/60/117 39/59/118 42/61/119 35/62/120 74/63/121 76/68/122 73/69/123
f 35/62/124 42/61/125 40/56/126 36/51/127
f 43/76/128 44/77/129 46/78/130 45/79/131
f 43/70/132 47/71/133 48/72/134 44/73/135
f 44/73/136 48/72/137 49/74/138 46/75/139
f 46/75/140 49/74/141 50/80/142 45/81/143
f 45/81/144 50/80/145 47/71/146 43/70/147
f 72/113/148 71/115/149 53/91/150
f 51/82/151 55/83/152 56/84/153 52/85/154
f 52/85/155 56/84/156 57/86/157 54/87/158
f 59/100/159 60/101/160 62/102/161 61/103/162
f 59/92/163 63/93/164 64/94/165 60/95/166
f 60/95/167 64/94/168 65/96/169 62/97/170
f 62/97/171 65/96/172 66/98/173 61/99/174
f 61/99/175 66/98/176 63/93/177 59/92/178
f 70/117/179 69/116/180 67/112/181
f 68/114/182 69/116/183 70/117/184
f 54/87/185 57/86/186 58/104/187 53/105/188 71/106/189
f 72/107/190 53/105/191 58/104/192 55/83/193 51/82/194
f 51/88/195 52/89/196 54/90/197 71/115/198 72/113/199
f 76/108/200 75/109/201 73/111/202
f 74/110/203 75/109/204 76/108/205
