# This file uses centimeters as units for non-parametric coordinates.

v -38.471802 -39.272461 7.391602
v -38.471802 39.272461 -0.985352
v 23.468750 0.000000 7.391602
v -27.929443 -20.172852 7.391602
v -27.929443 20.172850 7.391602
v 13.562256 6.191406 7.391602
v -13.383789 10.748048 7.391602
v -3.529663 16.874998 7.391602
v -38.471802 -39.272461 -7.391602
v -27.929443 -20.172852 -7.391602
v 23.468750 0.000000 -7.391602
v 13.562256 6.191408 -7.391602
v -38.471802 39.272461 -7.391602
v -27.929443 20.172853 -7.391602
v -3.529663 16.875002 -7.391602
v -13.383789 10.748049 -7.391602
v 38.471802 39.272461 7.391602
v 38.471802 -39.272461 7.391602
v -23.468750 0.000000 7.391602
v 27.929443 20.172850 7.391602
v 27.929443 -20.172852 7.391602
v -13.562256 -6.191407 7.391602
v 13.383789 -10.748046 7.391602
v 3.529663 -16.875000 7.391602
v 38.471802 39.272461 -7.391602
v 27.929443 20.172853 -7.391602
v -23.468750 0.000000 -7.391602
v -13.562256 -6.191406 -7.391602
v 38.471802 -39.272461 -7.391602
v 27.929443 -20.172852 -7.391602
v 3.529663 -16.875000 -7.391602
v 13.383789 -10.748047 -7.391602
v 38.471802 -27.795900 7.391602
v 38.471802 -1.127930 7.391602
v 31.308838 -13.923827 7.391602
v 38.471802 -19.208008 0.212891
v 38.471802 -19.208008 0.212891
v -27.676880 32.353516 7.391602
v -38.471680 25.248047 7.391602
v -32.728271 28.867188 7.391602
v -25.976563 -31.349611 7.391602
v -6.795288 -19.187500 7.391602
v -19.414063 -19.667969 7.391602
v -17.370239 -25.892578 0.291992
vt 0.026058 0.511781
vt 0.026058 0.511781
vt 0.026058 0.511781
vt 0.026058 0.511781
vt 0.026058 0.511781
vt 0.026058 0.511781
vt 0.026058 0.511781
vt 0.026058 0.511781
vt 0.009277 0.508654
vt 0.009277 0.508654
vt 0.009277 0.508654
vt 0.009277 0.508654
vt 0.009277 0.508654
vt 0.009277 0.508655
vt 0.009277 0.508654
vt 0.009277 0.508654
vt 0.009277 0.508654
vt 0.009277 0.508654
vt 0.009277 0.508654
vt 0.009277 0.508654
vt 0.009277 0.508654
vt 0.009277 0.508654
vt 0.009277 0.508654
vt 0.009277 0.508654
vt 0.026058 0.511781
vt 0.026058 0.511781
vt 0.026058 0.511781
vt 0.026058 0.511781
vt 0.026058 0.511781
vt 0.026058 0.511781
vt 0.026058 0.511781
vt 0.026058 0.511781
vt 0.009277 0.508654
vt 0.009277 0.508654
vt 0.009277 0.508654
vt 0.009277 0.508654
vt 0.009277 0.508654
vt 0.009277 0.508654
vt 0.009277 0.508654
vt 0.009277 0.508654
vt 0.009277 0.508654
vt 0.009277 0.508654
vt 0.009277 0.508654
vt 0.009277 0.508654
vt 0.009277 0.508655
vt 0.009277 0.508654
vt 0.009277 0.508654
vt 0.009277 0.508654
vt 0.026058 0.511781
vt 0.026058 0.511781
vt 0.026058 0.511781
vt 0.026058 0.511781
vt 0.026058 0.511781
vt 0.026058 0.511781
vt 0.026058 0.511781
vt 0.026058 0.511781
vt 0.009277 0.508654
vt 0.026058 0.511781
vt 0.026058 0.511781
vt 0.009277 0.508654
vt 0.026058 0.511781
vt 0.026058 0.511781
vt 0.009277 0.508654
vt 0.026058 0.511781
vt 0.009277 0.508654
vt 0.026058 0.511781
vt 0.009277 0.508654
vt 0.026058 0.511781
vt 0.009277 0.508655
vt 0.009277 0.508654
vt 0.009277 0.508654
vn 0.000000 0.000000 1.000000
vn 0.000000 0.000000 1.000000
vn 0.000000 0.000000 1.000000
vn 0.000000 0.000000 1.000000
vn 0.000000 0.000000 1.000000
vn 0.000000 0.000000 1.000000
vn 0.000000 0.000000 1.000000
vn -0.307478 0.487954 0.816920
vn -0.307478 0.487954 0.816920
vn -0.307478 0.487954 0.816920
vn -0.328329 0.475721 0.816021
vn -0.328329 0.475721 0.816021
vn -0.328329 0.475721 0.816021
vn 0.535474 -0.844552 0.000031
vn 0.535474 -0.844552 0.000031
vn 0.535474 -0.844552 0.000031
vn 0.535474 -0.844552 0.000031
vn 0.535474 -0.844552 0.000031
vn 0.535474 -0.844552 0.000031
vn 0.535474 -0.844552 0.000031
vn 0.529990 0.848004 0.000000
vn 0.529990 0.848004 0.000000
vn 0.529990 0.848004 0.000000
vn 0.529990 0.848004 0.000000
vn -0.536303 0.844026 0.000000
vn -0.536303 0.844026 0.000000
vn -0.536303 0.844026 0.000000
vn -0.536303 0.844026 0.000000
vn 1.000000 0.000000 0.000000
vn 1.000000 0.000000 0.000000
vn 1.000000 0.000000 0.000000
vn 1.000000 0.000000 0.000000
vn 0.528022 -0.849231 -0.000000
vn 0.528022 -0.849231 -0.000000
vn 0.528022 -0.849231 -0.000000
vn 0.528022 -0.849231 -0.000000
vn -0.543776 -0.839230 -0.000000
vn -0.543776 -0.839230 -0.000000
vn -0.543776 -0.839230 -0.000000
vn -0.543776 -0.839230 -0.000000
vn 0.000000 0.000000 1.000000
vn 0.000000 0.000000 1.000000
vn 0.000000 0.000000 1.000000
vn 0.000000 0.000000 1.000000
vn 0.000000 0.000000 1.000000
vn 0.000000 0.000000 1.000000
vn 0.000000 0.000000 1.000000
vn 0.000000 0.000000 1.000000
vn 0.000000 0.000000 1.000000
vn 0.000000 0.000000 1.000000
vn 0.000000 0.000000 1.000000
vn -0.000000 0.000000 1.000000
vn -0.000000 0.000000 1.000000
vn -0.000000 0.000000 1.000000
vn -0.000000 0.000000 1.000000
vn -0.535475 0.844551 0.000000
vn -0.535475 0.844551 0.000000
vn -0.535475 0.844551 0.000000
vn -0.535475 0.844551 0.000000
vn -0.529990 -0.848004 -0.000000
vn -0.529990 -0.848004 -0.000000
vn -0.529990 -0.848004 -0.000000
vn -0.529990 -0.848004 -0.000000
vn 0.536303 -0.844026 -0.000000
vn 0.536303 -0.844026 -0.000000
vn 0.536303 -0.844026 -0.000000
vn 0.536303 -0.844026 -0.000000
vn 1.000000 0.000000 0.000000
vn 1.000000 0.000000 0.000000
vn 1.000000 0.000000 0.000000
vn 1.000000 0.000000 0.000000
vn 1.000000 0.000000 0.000000
vn 1.000000 0.000000 0.000000
vn 1.000000 0.000000 0.000000
vn -1.000000 0.000000 0.000000
vn -1.000000 0.000000 0.000000
vn -1.000000 0.000000 0.000000
vn -1.000000 0.000000 0.000000
vn -0.528022 0.849231 0.000000
vn -0.528022 0.849231 0.000000
vn -0.528022 0.849231 0.000000
vn -0.528022 0.849231 0.000000
vn -0.539643 -0.841894 0.000000
vn -0.539643 -0.841894 0.000000
vn -0.539643 -0.841894 0.000000
vn -0.539643 -0.841894 0.000000
vn 0.543776 0.839230 0.000000
vn 0.543776 0.839230 0.000000
vn 0.543776 0.839230 0.000000
vn 0.543776 0.839230 0.000000
vn 0.778923 0.402204 0.481156
vn 0.778923 0.402204 0.481156
vn 0.778923 0.402204 0.481156
vn 0.000000 0.000000 0.000000
vn 0.000000 0.000000 0.000000
vn 0.000000 0.000000 0.000000
vn 0.000000 0.000000 0.000000
vn 0.000000 0.000000 0.000000
vn 0.000000 0.000000 0.000000
vn 0.550393 -0.308102 0.775977
vn 0.550393 -0.308102 0.775977
vn 0.550393 -0.308102 0.775977
vn 0.539646 0.841892 -0.000014
vn 0.539646 0.841892 -0.000014
vn 0.539646 0.841892 -0.000014
vn 0.539646 0.841892 -0.000014
vn 0.539646 0.841892 -0.000014
vn -1.000000 0.000000 0.000004
vn -1.000000 0.000000 0.000004
vn -1.000000 0.000000 0.000004
vn -1.000000 0.000000 0.000004
vn -1.000000 0.000000 0.000004
vn 0.000000 0.000000 1.000000
vn 0.000000 0.000000 1.000000
vn 0.000000 0.000000 1.000000
vn 0.000000 0.000000 1.000000
vn 0.000000 0.000000 1.000000
vn 0.000000 0.000000 1.000000
vn 0.000000 0.000000 1.000000
vn 0.000000 0.000000 1.000000
vn 0.000000 0.000000 1.000000
vn 0.000000 0.000000 1.000000
vn 0.720815 -0.404939 0.562539
vn 0.720815 -0.404939 0.562539
vn 0.720815 -0.404939 0.562539
vn 0.028463 -0.747542 0.663604
vn 0.028463 -0.747542 0.663604
vn 0.028463 -0.747542 0.663604
s off
f 4/1/1 1/2/2 41/62/3 43/66/4 42/64/5 3/3/6 6/4/7
f 39/59/8 40/61/9 2/6/10
f 40/61/11 38/58/12 2/6/13
f 1/9/14 9/10/15 11/11/16 3/12/17 42/13/18 44/14/19 41/15/20
f 3/12/21 11/11/22 12/16/23 6/17/24
f 6/17/25 12/16/26 10/18/27 4/19/28
f 4/19/29 10/18/30 14/20/31 5/21/32
f 7/22/33 16/23/34 15/24/35 8/33/36
f 5/21/37 14/20/38 16/23/39 7/22/40
f 20/25/41 17/26/42 19/27/43 22/28/44
f 21/29/45 18/30/46 33/49/47 35/53/48 34/51/49 17/26/50 20/25/51
f 23/31/52 24/32/53 18/30/54 21/29/55
f 17/34/56 25/35/57 27/36/58 19/37/59
f 19/37/60 27/36/61 28/38/62 22/39/63
f 22/39/64 28/38/65 26/40/66 20/41/67
f 18/42/68 29/43/69 25/35/70 17/34/71 34/44/72 36/45/73 33/46/74
f 20/41/75 26/40/76 30/47/77 21/48/78
f 23/57/79 32/60/80 31/63/81 24/65/82
f 24/65/83 31/63/84 29/43/85 18/42/86
f 21/48/87 30/47/88 32/60/89 23/57/90
f 37/55/91 35/53/92 33/49/93
f 33/50/94 36/54/95 37/56/96
f 37/56/97 36/54/98 34/52/99
f 34/51/100 35/53/101 37/55/102
f 8/33/103 15/24/104 13/67/105 2/69/106 38/70/107
f 39/71/108 2/69/109 13/67/110 9/10/111 1/9/112
f 5/5/113 40/61/114 39/59/115 1/2/116 4/1/117
f 7/7/118 8/8/119 38/58/120 40/61/121 5/5/122
f 44/68/123 43/66/124 41/62/125
f 42/64/126 43/66/127 44/68/128
