# This file uses centimeters as units for non-parametric coordinates.

v -96.154724 20.433624 13.683533
v -95.427490 -28.672058 26.234863
v 10.664917 25.406204 7.574402
v 11.578918 -28.946747 22.317017
v 5.587830 17.892609 -20.018127
v 11.881897 -36.268829 -0.612732
v -95.791809 10.237137 -24.733032
v -95.064575 -38.868561 -5.689453
v -74.765076 36.499435 25.172668
v -73.223694 -35.479721 40.833984
v -74.030029 -44.457932 -11.069580
v -74.127625 18.590607 -42.300476
v -99.411011 -4.031189 26.086487
v -98.824890 -20.498169 -23.206787
v -73.764221 -25.173355 -42.051697
v 14.429871 -12.712280 -16.696655
v 14.124878 -4.143402 19.684509
v -74.710083 1.398361 45.230896
v 13.841553 26.868271 -7.647522
v 19.815613 -37.382584 11.890381
v -72.611877 -52.667145 12.735229
v -95.054138 -39.161209 11.451355
v -99.108948 -12.515717 1.498840
v -96.164917 20.719070 -6.969849
v -74.699463 34.655197 -12.717834
v -20.401794 21.566162 -38.299866
v -14.134583 -15.954269 -38.526672
v -7.048218 -44.976456 -13.018616
v -12.778564 -49.171402 13.184326
v -5.318665 -32.145752 37.072693
v -14.568054 -3.777191 41.771667
v -14.710754 33.786377 22.177185
v -14.784973 35.870010 -11.571289
v 17.335754 -13.781052 19.770142
v 12.503479 8.023254 -16.511719
v 3.653870 29.323563 17.263672
v -36.193787 34.971268 -12.182434
v -45.030640 31.286819 24.404175
v -38.161743 -3.912659 42.905579
v -27.702942 -35.421417 40.422363
v -51.374939 -48.139847 11.884766
v -41.072815 -46.048035 -14.782715
v 23.674866 -24.313751 9.810120
v 18.536865 -8.591766 0.156067
v 75.878723 -36.920120 -15.408142
v 60.266418 -32.380692 18.437378
v 15.463684 33.721710 -38.664307
v 6.018188 35.259018 -3.890381
v 30.780396 49.345001 -35.196228
v 15.456970 47.138214 -8.566467
v 99.410889 -18.590515 -11.459045
v 82.365784 -9.295639 28.927856
v 58.151733 -33.425705 -30.486816
v 38.007202 -28.762100 21.483582
v 71.464844 6.364349 31.300110
v 91.609253 1.700714 -20.670349
v 63.522827 -50.241669 1.468506
v 98.165039 -11.983627 15.865295
v 89.428711 13.591415 10.485901
v 26.526855 52.667145 -18.981140
v 3.244995 28.584564 -25.002991
v 39.673340 -40.533478 -8.344971
v 25.194397 41.528442 -41.212036
v 55.247131 -9.973175 28.086914
v 70.358215 -25.331909 25.814941
v 80.803040 -31.089508 8.803101
v 88.300842 -24.663971 -13.525146
v 76.467041 -14.885880 -26.658142
v 60.048035 31.786697 -35.552979
v 54.999329 45.872360 -10.336670
v 34.282837 43.710770 9.594543
v 21.323853 26.269226 10.900818
v 2.659180 14.385773 2.360474
v 8.196289 -1.151016 -19.327759
v 26.175110 4.759506 -43.343750
v 42.018738 21.478073 -42.489319
v 15.702026 22.290436 -45.230896
v 54.940979 8.063492 -36.293274
v 41.568176 -14.243423 -34.200806
v 20.538330 -16.035294 -13.527405
v 13.080933 -1.038498 10.379700
v 44.375671 2.622025 20.147278
v 54.484741 23.937607 18.701050
v 11.553894 45.182907 -32.476318
v 4.527893 43.427933 -21.932678
v 12.452759 50.178665 -23.126587
vt 0.153448 0.187411
vt 0.153599 0.187427
vt 0.153601 0.187542
vt 0.153445 0.187479
vt 0.153511 0.187443
vt 0.153669 0.187331
vt 0.153519 0.187331
vt 0.153465 0.187731
vt 0.153638 0.187759
vt 0.153643 0.187698
vt 0.153515 0.187683
vt 0.153443 0.187365
vt 0.153441 0.187527
vt 0.153823 0.187344
vt 0.153851 0.187476
vt 0.153850 0.187383
vt 0.153626 0.187722
vt 0.153635 0.187829
vt 0.153470 0.187789
vt 0.153435 0.187694
vt 0.153440 0.187616
vt 0.153502 0.187562
vt 0.153647 0.187561
vt 0.153798 0.187703
vt 0.153824 0.187757
vt 0.153853 0.187643
vt 0.153822 0.187581
vt 0.153796 0.187553
vt 0.153795 0.187428
vt 0.153788 0.187813
vt 0.153812 0.187721
vt 0.153716 0.187227
vt 0.153647 0.187250
vt 0.153547 0.187225
vt 0.153520 0.187223
vt 0.153528 0.187247
vt 0.153600 0.187265
vt 0.153780 0.187374
vt 0.153632 0.187278
vt 0.153745 0.187254
vt 0.153767 0.187230
vt 0.153752 0.187218
vt 0.153640 0.187263
vt 0.153579 0.187249
vt 0.150966 0.209767
vt 0.151118 0.209782
vt 0.151120 0.209897
vt 0.150963 0.209835
vt 0.151029 0.209799
vt 0.151188 0.209687
vt 0.151037 0.209687
vt 0.150983 0.210086
vt 0.151156 0.210114
vt 0.151161 0.210054
vt 0.151033 0.210039
vt 0.150961 0.209720
vt 0.150960 0.209882
vt 0.151342 0.209699
vt 0.151369 0.209831
vt 0.151368 0.209738
vt 0.151144 0.210077
vt 0.151154 0.210184
vt 0.150989 0.210144
vt 0.150954 0.210050
vt 0.150959 0.209972
vt 0.151021 0.209917
vt 0.151166 0.209916
vt 0.151317 0.210058
vt 0.151343 0.210112
vt 0.151371 0.209998
vt 0.151340 0.209936
vt 0.151315 0.209909
vt 0.151314 0.209783
vt 0.151307 0.210169
vt 0.151330 0.210076
vt 0.151252 0.209578
vt 0.151043 0.209590
vt 0.151065 0.209580
vt 0.151157 0.209626
vt 0.151286 0.209586
vt 0.151298 0.209730
vt 0.151264 0.209610
vt 0.151145 0.209600
vt 0.151207 0.209603
vt 0.151128 0.209604
vt 0.151146 0.209594
vn 0.102947 -0.084991 0.991049
vn 0.102947 -0.084991 0.991049
vn 0.102947 -0.084991 0.991049
vn 0.102947 -0.084991 0.991049
vn 0.059742 -0.650722 -0.756962
vn 0.059742 -0.650722 -0.756962
vn 0.059742 -0.650722 -0.756962
vn -0.987238 -0.157654 0.022515
vn -0.987238 -0.157654 0.022515
vn -0.987238 -0.157654 0.022515
vn -0.987238 -0.157654 0.022515
vn 0.005460 -0.993183 -0.116442
vn 0.005460 -0.993183 -0.116442
vn 0.005460 -0.993183 -0.116442
vn 0.005460 -0.993183 -0.116442
vn -0.023735 0.883505 -0.467820
vn -0.023735 0.883505 -0.467820
vn -0.023735 0.883505 -0.467820
vn -0.582686 -0.107443 0.805564
vn -0.582686 -0.107443 0.805564
vn -0.582686 -0.107443 0.805564
vn -0.582686 -0.107443 0.805564
vn -0.409673 -0.895922 -0.171733
vn -0.409673 -0.895922 -0.171733
vn -0.409673 -0.895922 -0.171733
vn -0.409673 -0.895922 -0.171733
vn -0.440177 -0.724328 -0.530653
vn -0.440177 -0.724328 -0.530653
vn -0.440177 -0.724328 -0.530653
vn -0.440177 -0.724328 -0.530653
vn -0.583150 0.703564 -0.406122
vn -0.583150 0.703563 -0.406122
vn -0.583150 0.703564 -0.406122
vn -0.583150 0.703563 -0.406122
vn -0.995025 0.084808 -0.052268
vn -0.995025 0.084808 -0.052268
vn -0.995026 0.084808 -0.052268
vn -0.995026 0.084808 -0.052268
vn -0.614841 0.003241 -0.788644
vn -0.614841 0.003241 -0.788644
vn -0.614841 0.003241 -0.788644
vn -0.614841 0.003241 -0.788644
vn 0.065698 0.005089 -0.997827
vn 0.065698 0.005089 -0.997827
vn 0.065698 0.005089 -0.997827
vn 0.065698 0.005089 -0.997827
vn 0.032341 0.466035 0.884175
vn 0.032341 0.466035 0.884175
vn 0.032341 0.466035 0.884175
vn 0.032341 0.466035 0.884175
vn -0.629271 0.397703 0.667720
vn -0.629271 0.397703 0.667720
vn -0.629271 0.397703 0.667720
vn -0.629271 0.397703 0.667720
vn 0.199724 -0.826334 0.526576
vn 0.199724 -0.826334 0.526576
vn 0.199724 -0.826334 0.526576
vn -0.498201 -0.733677 0.462076
vn -0.498201 -0.733677 0.462076
vn -0.498201 -0.733677 0.462076
vn -0.498201 -0.733677 0.462076
vn -0.988102 -0.144493 0.052684
vn -0.988102 -0.144492 0.052684
vn -0.988102 -0.144492 0.052684
vn -0.988102 -0.144492 0.052684
vn -0.994877 0.098149 -0.024206
vn -0.994877 0.098149 -0.024206
vn -0.994877 0.098149 -0.024206
vn -0.994877 0.098149 -0.024206
vn -0.571347 0.820404 -0.022385
vn -0.571347 0.820404 -0.022385
vn -0.571347 0.820404 -0.022385
vn -0.571347 0.820404 -0.022385
vn -0.063080 0.995279 0.073763
vn -0.063080 0.995279 0.073762
vn -0.063080 0.995279 0.073763
vn -0.063080 0.995279 0.073762
vn 0.577928 0.101429 -0.809760
vn 0.577928 0.101429 -0.809760
vn 0.577928 0.101429 -0.809760
vn 0.591160 -0.468383 -0.656617
vn 0.591161 -0.468383 -0.656617
vn 0.591161 -0.468384 -0.656617
vn 0.591160 -0.468383 -0.656617
vn 0.392807 -0.907817 -0.146872
vn 0.392807 -0.907817 -0.146872
vn 0.392807 -0.907817 -0.146872
vn 0.392807 -0.907817 -0.146872
vn 0.400478 -0.731502 0.551835
vn 0.400478 -0.731502 0.551835
vn 0.400478 -0.731502 0.551835
vn 0.400478 -0.731502 0.551835
vn 0.666011 -0.129444 0.734625
vn 0.666011 -0.129444 0.734625
vn 0.666011 -0.129444 0.734625
vn 0.659472 0.257419 0.706281
vn 0.659472 0.257418 0.706281
vn 0.659472 0.257419 0.706281
vn 0.659472 0.257419 0.706281
vn 0.347503 0.936354 0.049826
vn 0.347503 0.936354 0.049826
vn 0.347503 0.936354 0.049826
vn 0.347503 0.936354 0.049826
vn 0.398395 0.719038 -0.569444
vn 0.398395 0.719038 -0.569444
vn 0.398395 0.719038 -0.569444
vn 0.398395 0.719038 -0.569444
vn 0.598514 0.206287 0.774098
vn 0.598514 0.206287 0.774098
vn 0.598514 0.206287 0.774098
vn 0.601487 0.062981 -0.796396
vn 0.601487 0.062981 -0.796396
vn 0.601487 0.062981 -0.796396
vn 0.578249 0.053688 0.814092
vn 0.578249 0.053688 0.814092
vn 0.578249 0.053688 0.814092
vn 0.582539 0.122728 -0.803484
vn 0.582539 0.122728 -0.803484
vn 0.582539 0.122728 -0.803484
vn 0.250629 0.966277 0.059107
vn 0.250629 0.966277 0.059107
vn 0.250629 0.966277 0.059107
vn 0.330113 0.437555 0.836404
vn 0.330113 0.437555 0.836404
vn 0.330113 0.437555 0.836404
vn -0.008414 0.882855 -0.469571
vn -0.008414 0.882855 -0.469571
vn -0.008414 0.882855 -0.469571
vn -0.008414 0.882855 -0.469571
vn 0.071644 0.996878 0.033196
vn 0.071644 0.996878 0.033196
vn 0.071644 0.996878 0.033196
vn 0.071644 0.996878 0.033196
vn 0.117642 0.486449 0.865753
vn 0.117642 0.486449 0.865753
vn 0.117642 0.486449 0.865753
vn 0.117642 0.486449 0.865753
vn 0.027081 -0.095381 0.995072
vn 0.027081 -0.095381 0.995072
vn 0.027081 -0.095381 0.995072
vn 0.027081 -0.095381 0.995072
vn -0.014919 -0.908634 0.417327
vn -0.014919 -0.908634 0.417327
vn -0.014919 -0.908634 0.417327
vn -0.014919 -0.908634 0.417327
vn 0.198436 -0.834171 0.514569
vn 0.198436 -0.834171 0.514569
vn 0.198436 -0.834171 0.514569
vn 0.036832 -0.980388 -0.193607
vn 0.036832 -0.980388 -0.193607
vn 0.036832 -0.980388 -0.193607
vn 0.036832 -0.980388 -0.193607
vn 0.060964 -0.755955 -0.651779
vn 0.060964 -0.755955 -0.651779
vn 0.060964 -0.755955 -0.651779
vn 0.060964 -0.755955 -0.651779
vn 0.964022 0.180664 0.194992
vn 0.964022 0.180664 0.194992
vn 0.964022 0.180664 0.194992
vn 0.964022 0.180664 0.194992
vn 0.905207 0.393851 0.159632
vn 0.905207 0.393851 0.159632
vn 0.905207 0.393851 0.159632
vn 0.737370 -0.142942 0.660192
vn 0.737370 -0.142942 0.660192
vn 0.737370 -0.142942 0.660192
vn 0.737370 -0.142942 0.660192
vn 0.787870 -0.316734 -0.528148
vn 0.787870 -0.316734 -0.528148
vn 0.787870 -0.316734 -0.528148
vn 0.893287 -0.203662 -0.400699
vn 0.893287 -0.203662 -0.400699
vn 0.893287 -0.203662 -0.400699
vn 0.893287 -0.203662 -0.400699
vn 0.962088 0.091675 -0.256873
vn 0.962088 0.091675 -0.256873
vn 0.962088 0.091675 -0.256873
vn 0.705433 0.260046 -0.659348
vn 0.705433 0.260046 -0.659348
vn 0.705433 0.260046 -0.659348
vn 0.957226 0.064686 -0.282017
vn 0.957226 0.064686 -0.282017
vn 0.957226 0.064686 -0.282017
vn 0.938932 0.314074 0.140587
vn 0.938932 0.314074 0.140587
vn 0.938932 0.314074 0.140587
vn -0.821048 -0.554152 0.137098
vn -0.821048 -0.554152 0.137098
vn -0.821048 -0.554152 0.137098
vn -0.821048 -0.554152 0.137098
vn 0.449023 0.709123 0.543620
vn 0.449023 0.709123 0.543620
vn 0.449023 0.709123 0.543620
vn 0.509222 -0.603291 0.613785
vn 0.509222 -0.603291 0.613785
vn 0.509222 -0.603291 0.613785
vn 0.509222 -0.603291 0.613785
vn -0.211676 0.194018 0.957888
vn -0.211676 0.194018 0.957889
vn -0.211676 0.194018 0.957889
vn -0.211676 0.194018 0.957889
vn 0.385395 -0.054221 -0.921158
vn 0.385395 -0.054221 -0.921158
vn 0.385394 -0.054221 -0.921158
vn -0.307758 -0.818161 0.485693
vn -0.307758 -0.818161 0.485693
vn -0.307758 -0.818161 0.485693
vn -0.307758 -0.818161 0.485693
vn -0.026314 -0.169568 0.985167
vn -0.026314 -0.169568 0.985167
vn -0.026314 -0.169568 0.985167
vn -0.026314 -0.169568 0.985167
vn 0.638337 0.353847 0.683607
vn 0.638337 0.353847 0.683607
vn 0.638337 0.353847 0.683607
vn 0.638337 0.353847 0.683607
vn 0.497084 -0.284531 -0.819726
vn 0.497084 -0.284531 -0.819726
vn 0.497084 -0.284531 -0.819726
vn 0.497084 -0.284531 -0.819726
vn 0.637131 -0.762131 0.114980
vn 0.637131 -0.762131 0.114980
vn 0.637131 -0.762131 0.114980
vn 0.637131 -0.762131 0.114980
vn 0.944385 0.325381 -0.047587
vn 0.944385 0.325381 -0.047587
vn 0.944385 0.325381 -0.047587
vn 0.944385 0.325381 -0.047587
vn 0.728851 0.652557 -0.207231
vn 0.728851 0.652557 -0.207231
vn 0.728851 0.652557 -0.207231
vn 0.728851 0.652557 -0.207231
vn -0.506351 -0.659446 -0.555643
vn -0.506351 -0.659446 -0.555643
vn -0.506351 -0.659446 -0.555643
vn -0.506351 -0.659446 -0.555643
vn -0.002451 -0.885115 -0.465365
vn -0.002451 -0.885116 -0.465365
vn -0.002451 -0.885116 -0.465365
vn -0.002451 -0.885116 -0.465365
vn -0.478879 0.127975 0.868503
vn -0.478879 0.127975 0.868503
vn -0.478879 0.127975 0.868503
vn -0.078348 -0.409059 0.909138
vn -0.078348 -0.409059 0.909138
vn -0.078348 -0.409059 0.909138
vn -0.078348 -0.409059 0.909138
vn 0.337543 -0.703692 0.625205
vn 0.337543 -0.703692 0.625205
vn 0.337543 -0.703692 0.625205
vn 0.337543 -0.703692 0.625205
vn 0.723647 -0.689909 0.018963
vn 0.723647 -0.689910 0.018963
vn 0.723647 -0.689910 0.018963
vn 0.723647 -0.689910 0.018963
vn 0.534963 -0.395474 -0.746602
vn 0.534963 -0.395474 -0.746602
vn 0.534963 -0.395474 -0.746602
vn 0.534963 -0.395474 -0.746602
vn 0.256069 -0.221555 -0.940926
vn 0.256069 -0.221555 -0.940926
vn 0.256069 -0.221555 -0.940926
vn 0.256069 -0.221555 -0.940926
vn 0.478073 0.804072 -0.353432
vn 0.478073 0.804072 -0.353432
vn 0.478073 0.804072 -0.353432
vn -0.489580 0.517213 0.701999
vn -0.489580 0.517213 0.701999
vn -0.489580 0.517213 0.701999
vn -0.489580 0.517213 0.701999
vn -0.554843 0.319347 0.768223
vn -0.554843 0.319347 0.768223
vn -0.554843 0.319347 0.768223
vn -0.981113 0.179484 0.072131
vn -0.981113 0.179484 0.072131
vn -0.981113 0.179484 0.072131
vn -0.037874 0.222216 -0.974262
vn -0.037874 0.222216 -0.974262
vn -0.037874 0.222216 -0.974262
vn -0.037874 0.222216 -0.974262
vn 0.241661 0.335727 -0.910433
vn 0.241661 0.335727 -0.910433
vn 0.241661 0.335727 -0.910433
vn 0.241661 0.335727 -0.910433
vn 0.266290 0.955631 -0.125935
vn 0.266290 0.955631 -0.125935
vn 0.266290 0.955631 -0.125935
vn -0.975821 -0.184767 -0.116767
vn -0.975821 -0.184767 -0.116767
vn -0.975821 -0.184767 -0.116767
vn 0.102104 -0.045973 -0.993711
vn 0.102104 -0.045973 -0.993711
vn 0.102104 -0.045973 -0.993711
vn -0.654915 -0.456112 -0.602535
vn -0.654915 -0.456112 -0.602535
vn -0.654915 -0.456112 -0.602535
vn 0.385779 -0.039948 -0.921726
vn 0.385779 -0.039948 -0.921726
vn 0.385779 -0.039948 -0.921726
vn 0.385779 -0.039948 -0.921726
vn 0.207623 -0.119803 -0.970845
vn 0.207623 -0.119803 -0.970845
vn 0.207623 -0.119803 -0.970845
vn 0.207623 -0.119803 -0.970845
vn -0.541951 -0.569111 -0.618386
vn -0.541951 -0.569112 -0.618386
vn -0.541951 -0.569112 -0.618386
vn -0.541951 -0.569112 -0.618386
vn -0.778649 -0.604318 0.168835
vn -0.778649 -0.604318 0.168835
vn -0.778649 -0.604318 0.168835
vn -0.778649 -0.604318 0.168835
vn -0.306260 0.089408 0.947740
vn -0.306260 0.089408 0.947740
vn -0.306260 0.089408 0.947740
vn -0.306260 0.089408 0.947740
vn -0.478476 0.134044 0.867809
vn -0.478476 0.134044 0.867809
vn -0.478476 0.134044 0.867809
vn -0.397664 0.236437 0.886544
vn -0.397664 0.236437 0.886544
vn -0.397664 0.236437 0.886544
vn -0.397664 0.236437 0.886544
vn 0.353571 0.744366 0.566486
vn 0.353571 0.744366 0.566486
vn 0.353571 0.744366 0.566486
vn 0.353571 0.744366 0.566486
vn -0.860701 -0.097686 -0.499652
vn -0.860701 -0.097686 -0.499652
vn -0.860701 -0.097686 -0.499652
vn -0.860701 -0.097686 -0.499652
vn 0.043518 0.956634 0.288023
vn 0.043518 0.956634 0.288023
vn 0.043518 0.956634 0.288023
vn 0.043518 0.956634 0.288023
vn -0.356605 0.521655 -0.775054
vn -0.356605 0.521655 -0.775054
vn -0.356605 0.521655 -0.775054
vn -0.356605 0.521655 -0.775054
vn -0.793800 0.129847 -0.594155
vn -0.793800 0.129847 -0.594155
vn -0.793800 0.129847 -0.594155
vn -0.793801 0.129847 -0.594155
vn -0.171804 0.929938 -0.325113
vn -0.171804 0.929938 -0.325113
vn -0.171804 0.929938 -0.325113
vn -0.171804 0.929938 -0.325113
vn -0.238427 0.939642 0.245411
vn -0.238427 0.939642 0.245411
vn -0.238427 0.939642 0.245411
vn -0.991895 0.062894 0.110406
vn -0.991895 0.062894 0.110406
vn -0.991895 0.062894 0.110406
vn -0.642897 0.699542 -0.311970
vn -0.642897 0.699542 -0.311970
vn -0.642897 0.699542 -0.311970
vn -0.637452 0.697356 0.327642
vn -0.637452 0.697356 0.327642
vn -0.637452 0.697356 0.327642
vn -0.637452 0.697356 0.327642
s off
f 30/1/1 31/2/2 39/3/3 40/4/4
f 42/5/5 27/6/6 28/7/7
f 22/8/8 23/9/9 14/10/10 8/11/11
f 28/7/12 29/12/13 41/13/14 42/5/15
f 26/14/16 37/15/17 33/16/18
f 18/17/19 13/18/20 2/19/21 10/20/22
f 21/21/23 22/8/24 8/11/25 11/22/26
f 14/10/27 15/23/28 11/22/29 8/11/30
f 7/24/31 24/25/32 25/26/33 12/27/34
f 7/24/35 14/10/36 23/9/37 24/25/38
f 12/27/39 15/23/40 14/10/41 7/24/42
f 26/14/43 27/6/44 15/23/45 12/27/46
f 38/28/47 39/3/48 31/2/49 32/29/50
f 1/30/51 13/18/52 18/17/53 9/31/54
f 40/4/55 29/12/56 30/1/57
f 2/19/58 22/8/59 21/21/60 10/20/61
f 13/18/62 23/9/63 22/8/64 2/19/65
f 24/25/66 23/9/67 13/18/68 1/30/69
f 25/26/70 24/25/71 1/30/72 9/31/73
f 32/29/74 33/16/75 37/15/76 38/28/77
f 26/14/78 35/32/79 27/6/80
f 28/7/81 27/6/82 16/33/83 6/34/84
f 20/35/85 29/12/86 28/7/87 6/34/88
f 30/1/89 29/12/90 20/35/91 4/36/92
f 34/37/93 30/1/94 4/36/95
f 36/38/96 31/2/97 17/39/98 3/40/99
f 19/41/100 33/16/101 36/38/102 3/40/103
f 26/14/104 33/16/105 19/41/106 5/42/107
f 17/39/108 31/2/109 34/37/110
f 27/6/111 35/32/112 16/33/113
f 34/37/114 31/2/115 30/1/116
f 5/42/117 35/32/118 26/14/119
f 36/38/120 33/16/121 32/29/122
f 32/29/123 31/2/124 36/38/125
f 12/27/126 25/26/127 37/15/128 26/14/129
f 38/28/130 37/15/131 25/26/132 9/31/133
f 9/31/134 18/17/135 39/3/136 38/28/137
f 40/4/138 39/3/139 18/17/140 10/20/141
f 10/20/142 41/13/143 29/12/144 40/4/145
f 10/20/146 21/21/147 41/13/148
f 42/5/149 41/13/150 21/21/151 11/22/152
f 15/23/153 27/6/154 42/5/155 11/22/156
f 17/39/157 44/43/158 19/41/159 3/40/160
f 44/43/161 34/37/162 43/44/163
f 20/35/164 43/44/165 34/37/166 4/36/167
f 6/34/168 43/44/169 20/35/170
f 44/43/171 43/44/172 6/34/173 16/33/174
f 35/32/175 44/43/176 16/33/177
f 19/41/178 35/32/179 5/42/180
f 19/41/181 44/43/182 35/32/183
f 17/39/184 34/37/185 44/43/186
f 73/45/187 74/46/188 80/47/189 81/48/190
f 83/49/191 70/50/192 71/51/193
f 65/52/194 66/53/195 58/54/196 52/55/197
f 71/51/198 72/56/199 82/57/200 83/49/201
f 69/58/202 78/59/203 76/60/204
f 62/61/205 57/62/206 46/63/207 54/64/208
f 64/65/209 65/52/210 52/55/211 55/66/212
f 58/54/213 59/67/214 55/66/215 52/55/216
f 51/68/217 67/69/218 68/70/219 56/71/220
f 51/68/221 58/54/222 66/53/223 67/69/224
f 56/71/225 59/67/226 58/54/227 51/68/228
f 69/58/229 70/50/230 59/67/231 56/71/232
f 79/72/233 80/47/234 74/46/235 75/73/236
f 45/74/237 57/62/238 62/61/239 53/75/240
f 81/48/241 72/56/242 73/45/243
f 46/63/244 65/52/245 64/65/246 54/64/247
f 57/62/248 66/53/249 65/52/250 46/63/251
f 67/69/252 66/53/253 57/62/254 45/74/255
f 68/70/256 67/69/257 45/74/258 53/75/259
f 75/73/260 76/60/261 78/59/262 79/72/263
f 69/58/264 49/76/265 70/50/266
f 48/77/267 72/56/268 71/51/269 50/78/270
f 73/45/271 72/56/272 48/77/273
f 61/79/274 73/45/275 48/77/276
f 63/80/277 76/60/278 77/81/279 47/82/280
f 69/58/281 76/60/282 63/80/283 49/76/284
f 70/50/285 49/76/286 60/83/287
f 61/79/288 74/46/289 73/45/290
f 77/81/291 76/60/292 75/73/293
f 75/73/294 74/46/295 77/81/296
f 56/71/297 68/70/298 78/59/299 69/58/300
f 79/72/301 78/59/302 68/70/303 53/75/304
f 53/75/305 62/61/306 80/47/307 79/72/308
f 81/48/309 80/47/310 62/61/311 54/64/312
f 54/64/313 82/57/314 72/56/315 81/48/316
f 54/64/317 64/65/318 82/57/319
f 83/49/320 82/57/321 64/65/322 55/66/323
f 59/67/324 70/50/325 83/49/326 55/66/327
f 77/81/328 74/46/329 61/79/330 47/82/331
f 71/51/332 70/50/333 60/83/334 50/78/335
f 84/84/336 49/76/337 63/80/338 47/82/339
f 61/79/340 85/85/341 84/84/342 47/82/343
f 84/84/344 86/86/345 60/83/346 49/76/347
f 86/86/348 50/78/349 60/83/350
f 61/79/351 48/77/352 85/85/353
f 85/85/354 86/86/355 84/84/356
f 85/85/357 48/77/358 50/78/359 86/86/360
